<?xml version="1.0" encoding="utf-8"?>
<!-- Generator: Adobe Illustrator 14.0.0, SVG Export Plug-In . SVG Version: 6.00 Build 43363)  -->
<!DOCTYPE svg PUBLIC "-//W3C//DTD SVG 1.0//EN" "http://www.w3.org/TR/2001/REC-SVG-20010904/DTD/svg10.dtd">
<svg version="1.0" id="Ebene_1" xmlns="http://www.w3.org/2000/svg" xmlns:xlink="http://www.w3.org/1999/xlink" x="0px" y="0px"
	 width="595px" height="549px" viewBox="0 0 595 549" enable-background="new 0 0 595 549" xml:space="preserve">
<g>
	
		<path fill-rule="evenodd" clip-rule="evenodd" fill="#FFCC00" stroke="#000000" stroke-width="2.5044" stroke-miterlimit="3.8637" d="
		M301.469,539.667c0,0-37.35-35.638-75.058-38.503C26.24,485.955,13.113,343.206,40.493,291.494
		c34.946-66.003,55.025-99.041,56.103-118.929c1.488-27.435-33.427-62.35-33.427-62.35l118.942-90.243
		c0,0,68.159,44.937,118.419,45.355c50.261-0.419,118.419-45.355,118.419-45.355l118.942,90.243c0,0-34.303,34.915-32.815,62.35
		c1.079,19.889,20.545,52.926,55.491,118.929c27.379,51.712,14.253,194.461-185.917,209.671
		C336.941,504.03,301.469,539.667,301.469,539.667z"/>
	<path fill-rule="evenodd" clip-rule="evenodd" fill="#00519E" d="M544.706,329.073H308.394V89.569c0,0,3.993-1.41,6.837-1.327
		c30.908,0.91,103.114-39.685,103.114-39.685l86.2,61.765c0,0-26.059,37.006-23.258,63.662c4.342,41.326,29.471,84.981,47.4,111.865
		C548.379,315.378,544.706,329.073,544.706,329.073z"/>
	<path fill-rule="evenodd" clip-rule="evenodd" d="M55.759,328.501h236.218V88.997c0,0-3.99-1.409-6.834-1.326
		C254.249,88.58,182.07,47.986,182.07,47.986l-86.942,64.198c0,0,21.398,27.957,24.667,52.655
		c2.523,19.067-10.178,59.098-22.674,79.627c-7.932,13.03-13.465,25.238-19.76,34.813C57.33,309.758,55.759,328.501,55.759,328.501z
		"/>
	<path fill-rule="evenodd" clip-rule="evenodd" d="M121.573,343.206h40.423v118.862c0,0-13.447-4-21.79-7.264
		c-7.398-2.894-18.633-8.232-18.633-8.232V343.206z"/>
	<path fill-rule="evenodd" clip-rule="evenodd" fill="#00519E" d="M176.035,343.206h40.423v133.39c0,0-10.168-0.968-21.79-3.39
		c-7.509-1.564-18.633-6.295-18.633-6.295V343.206z"/>
	<path fill-rule="evenodd" clip-rule="evenodd" fill="#00519E" d="M280.929,343.206h40.423v154.213c0,0-4.842,0-20.821,10.653
		c-14.042-10.653-19.602-10.653-19.602-10.653V343.206z"/>
	<path fill-rule="evenodd" clip-rule="evenodd" d="M372.833,343.206h-40.423v147.917c0,0,15.011-7.265,26.632-9.686
		c7.509-1.564,13.791-1.453,13.791-1.453V343.206z"/>
	<path fill-rule="evenodd" clip-rule="evenodd" d="M229.009,343.206h40.423v147.917c0,0-15.011-7.265-26.632-9.686
		c-7.509-1.564-13.791-1.453-13.791-1.453V343.206z"/>
	<path fill-rule="evenodd" clip-rule="evenodd" fill="#00519E" d="M426.786,343.206h-40.423v133.39c0,0,10.169-0.968,21.79-3.39
		c7.509-1.564,18.633-6.295,18.633-6.295V343.206z"/>
	<path fill-rule="evenodd" clip-rule="evenodd" d="M479.895,343.206h-40.423v118.862c0,0,13.448-4,21.791-7.264
		c7.397-2.895,18.632-8.232,18.632-8.232V343.206z"/>
	<path fill-rule="evenodd" clip-rule="evenodd" fill="#00519E" d="M544.275,343.206h-52.831v95.618c0,0,17.662-20.334,28.085-34.026
		C541.436,376.022,544.275,343.206,544.275,343.206z"/>
	<path fill-rule="evenodd" clip-rule="evenodd" fill="#FFCC00" d="M170.572,103.642h89.795l15.105,30.212l-29.372-16.785h-47.835
		v33.728l4.196,2.359l15.945-15.945l-12.588,35.352l-8.329-4.841l-0.063,24.039h17.624c0,0-18.462-36.927,20.141-37.766
		c4.254-0.092,10.91,0,10.91,0l11.749-6.715v29.374c0,0-24.993-20.695-27.694-4.091c-5.034,30.947,18.462,14.162,18.462,14.162
		l12.589,31.052l-19.302-13.428c0,0,5.905,15.458,10.07,25.177c20.141,46.997-37.764,67.978-37.764,67.978v-26.017
		c0,0,20.979,20.142,23.498-18.463c1.349-20.683-19.302-49.515-19.302-49.515h-21.819v46.515c0,0,8.918,1.603,26.019-5.345
		c-7.482,20.308-25.18,23.451-25.18,23.451l0.839,40.283l-28.533-19.303c0,0,4.539-4.068,5.875-7.553c1.724-4.502,0-12.362,0-12.362
		s-53.788,0.172-52.416-62.33c0.515-23.463,10.147-41.601,31.435-52.033c7.893-3.869,21.819-5.648,21.819-5.648v-32.118
		L170.572,103.642z"/>
	<path fill-rule="evenodd" clip-rule="evenodd" d="M174.768,246.819V166.12c0,0-29.115-1.069-30.211,42.427
		C143.692,242.833,174.768,246.819,174.768,246.819z"/>
	<circle fill-rule="evenodd" clip-rule="evenodd" fill="#FFCC00" cx="167.187" cy="140.85" r="5.397"/>
	<path fill-rule="evenodd" clip-rule="evenodd" fill="#FFCC00" d="M155.042,106.845L137.5,123.308l2.159,4.048l6.207-2.969
		c0,0-0.482,13.659,0.27,18.623c1.35,8.906,8.313,4.265,13.225,2.429c0,0-6.747-16.193-0.54-38.054
		C159.228,105.952,155.042,106.845,155.042,106.845z"/>
	<rect x="440.351" y="128.975" fill-rule="evenodd" clip-rule="evenodd" fill="#FFCC00" width="29.957" height="10.271"/>
	<rect x="450.193" y="119.133" fill-rule="evenodd" clip-rule="evenodd" fill="#FFCC00" width="10.271" height="29.957"/>
	<rect x="481.006" y="296.311" fill-rule="evenodd" clip-rule="evenodd" fill="#FFCC00" width="29.957" height="10.272"/>
	<rect x="490.849" y="286.469" fill-rule="evenodd" clip-rule="evenodd" fill="#FFCC00" width="10.27" height="29.957"/>
	<rect x="320.095" y="252.658" fill-rule="evenodd" clip-rule="evenodd" fill="#FFCC00" width="29.957" height="10.271"/>
	<rect x="329.938" y="242.815" fill-rule="evenodd" clip-rule="evenodd" fill="#FFCC00" width="10.271" height="29.957"/>
	<rect x="326.943" y="105.079" fill-rule="evenodd" clip-rule="evenodd" fill="#FFCC00" width="29.957" height="10.271"/>
	<rect x="336.785" y="95.236" fill-rule="evenodd" clip-rule="evenodd" fill="#FFCC00" width="10.271" height="29.957"/>
	<path fill-rule="evenodd" clip-rule="evenodd" fill="#FFCC00" d="M456.443,289.203l-1.105-13.829l6.084-6.638l-7.744-2.213
		l-3.872-7.191l-13.83-8.297c0,0-0.438-6.993,5.531-8.298c28.983-6.337,6.521-45.914,6.521-45.914c0,0-7.073-24.257-0.092-24.257
		c2.057,0,6.706,2.263,7.946,15.43c0.882,9.365,5.948,15.574,7.199,12.146c1.654-4.533,4.513-7.775,4.361-11.901
		c-0.696-18.915-19.756-32.333-26.487-15.675c-3.398,8.409,2.213,23.151,2.213,23.151l7.191,22.127c0,0,3.319,33.744-23.786,6.638
		c-9.004-9.006-16.594-32.085-16.594-32.085l-9.957,1.106l3.319-9.957l4.425,6.084l4.979-13.276l7.191-7.191l-0.553-9.957
		l5.531,0.553l-1.66-3.872l-2.213-8.851l3.319-8.85l-0.553-7.745l-4.978-0.554l-1.66-5.531l-3.319,3.872l-3.319-5.531l-13.276-6.085
		l-3.318,2.766l4.424,4.426l-8.85-1.66l-6.084,4.979l2.766,4.979l7.745,0.553c0,0,12.635,18.993-5.532,16.595
		c-1.972-0.26-1.106,4.979-1.106,4.979l13.83,1.106l-14.382,8.298l-11.063-1.107l-12.722,1.66l2.212,5.531l-8.297,2.849
		l2.766-11.699c0,0-20.212-7.984-18.807-14.382c0.84-3.826,7.983-2.493,7.739-6.403c-0.61-9.754-7.315-7.315-7.315-7.315
		l-9.752,9.144c0,0,2.528-9.329-1.417-10.362c-4.254-1.115-5.295,9.958-5.295,9.958c0-0.001-3.057,3.137-2.766,5.532
		c0.48,3.948,9.957,2.212,9.957,2.212l1.66,8.851l9.403,8.851l2.213,5.614l8.297,2.684l-3.872,7.191l6.085,3.872l-2.766,6.638
		l7.19,2.212l-3.871,2.213l3.871,2.212l9.404-8.851l-6.084-2.766l6.638-9.404l-0.553-3.873h4.979v3.873l-5.532,6.638h10.51
		c0,0-22.447,28.637-35.401,30.978c-3.903,0.706-7.191-7.19-7.191-7.19l-4.979,5.531l-6.637-2.213l-3.873,4.425l3.319,4.979
		l-0.553,6.638l5.532,1.106l6.084-4.979l8.297,5.532l5.532-6.639h6.085l4.978-6.639l6.085-2.212l3.872-5.531h11.063l-2.213-8.298
		l11.063,2.212l-2.212,5.532l-8.297,6.085c0,0,11.673,3.428,19.36,3.872c16.16,0.934,11.616,38.723,11.616,38.723l4.425,6.084
		l3.166,8.553l10.664-0.809l11.616,4.426l4.426,16.042l-3.319,4.426l-7.745-4.426l-2.766,4.979l-4.978,3.872l1.106,4.425
		l11.616-2.212l-3.873,5.532l4.979,3.32l4.979-4.979l6.637-7.744l3.872,4.425l5.532-0.553l-4.979-7.744V289.203z"/>
	<path fill-rule="evenodd" clip-rule="evenodd" fill="#FFCC00" d="M392.811,140.041c-1.719-6.728-10.368-0.09-17.273-4.318
		c-13.224-8.097-10.795,0.809-10.795,0.809s4.546,7.59,8.096,5.938C393.939,132.653,394.753,147.643,392.811,140.041z"/>
	<polygon fill-rule="evenodd" clip-rule="evenodd" fill="#FFCC00" points="399.018,113.862 415.75,121.958 425.197,118.719 
		415.75,117.1 413.592,108.194 404.955,111.972 397.668,104.416 	"/>
	<path fill-rule="evenodd" clip-rule="evenodd" fill="#FFCC00" d="M403.066,235.85l-3.778-5.938l-6.208,7.557l-12.414,4.588
		L365.282,259.6l5.398,2.429l0.27,8.635l-7.017,11.066c0,0-11.318,5.804-8.366,3.779c13.764-9.446,10.795-18.893,10.795-18.893
		s-6.747,12.416-14.304,12.956c-2.006,0.143-5.127-0.54-5.127-0.54l-3.509,5.668l-4.858,0.81l-2.429,4.588h4.318l3.508,5.937
		l0.27,3.239l4.858-0.54l4.857-7.018l6.748-1.079l6.208,1.89l6.477-2.969l4.318-4.857l7.287-0.271l2.159-3.778l7.018,1.08
		l-1.08-19.432l12.955-14.033l0.81-6.208L403.066,235.85z"/>
	<polygon fill-rule="evenodd" clip-rule="evenodd" fill="#00519E" points="397.664,167.548 400.468,164.743 404.075,165.945 
		407.281,163.14 409.284,160.334 409.284,166.747 405.678,168.751 402.071,172.564 	"/>
	<path fill-rule="evenodd" clip-rule="evenodd" fill="#00519E" d="M55.773,343.206h52.831v95.618c0,0-17.662-20.334-28.085-34.026
		C58.613,376.022,55.773,343.206,55.773,343.206z"/>
</g>
</svg>
