<?xml version="1.0" encoding="UTF-8" standalone="no"?>
<svg
   xmlns:dc="http://purl.org/dc/elements/1.1/"
   xmlns:cc="http://creativecommons.org/ns#"
   xmlns:rdf="http://www.w3.org/1999/02/22-rdf-syntax-ns#"
   xmlns:svg="http://www.w3.org/2000/svg"
   xmlns="http://www.w3.org/2000/svg"
   version="1.1"
   id="svg4132"
   viewBox="0 0 264.19794 300"
   height="300"
   width="264.19794">
  <defs
     id="defs4134">
    <clipPath
       id="clipPath92"
       clipPathUnits="userSpaceOnUse">
      <path
         id="path94"
         d="m 460.367,55.853 102.076,0 0,115.908 -102.076,0 0,-115.908 z" />
    </clipPath>
  </defs>
  <metadata
     id="metadata4137">
    <rdf:RDF>
      <cc:Work
         rdf:about="">
        <dc:format>image/svg+xml</dc:format>
        <dc:type
           rdf:resource="http://purl.org/dc/dcmitype/StillImage" />
        <dc:title></dc:title>
      </cc:Work>
    </rdf:RDF>
  </metadata>
  <g
     transform="translate(-239.94832,-358.63634)"
     id="layer1">
    <g
       transform="matrix(2.0705979,0,0,2.0705979,-284.62832,-291.95249)"
       id="g4401">
      <g
         id="g96"
         transform="matrix(1.25,0,0,-1.25,380.40424,386.67405)">
        <path
           d="m 0,0 c 0.02,0.041 0.016,0.061 0.041,0.106 0.114,0.242 0.192,0.533 0.192,0.834 0,0.232 -0.048,0.472 -0.162,0.702 -0.06,0.121 -0.162,0.208 -0.251,0.306 0.096,0.275 0.239,0.695 0.239,0.695 0.034,0.133 0.05,0.267 0.05,0.398 0,0.489 -0.232,0.945 -0.645,1.23 C -1.081,4.647 -1.818,4.636 -2.368,4.245 -2.794,3.971 -3.091,3.474 -3.372,2.979 -3.552,3.171 -3.739,3.296 -4.122,3.2 -4.603,3.082 -4.542,2.99 -4.934,2.422 c -1.392,-2.027 -3.239,-5.219 -5.368,-5.328 -0.458,0.055 -0.599,0.188 -1.154,1.057 -4.598,7.328 -10.251,11.668 -17.735,16.998 -0.436,0.372 -1.385,1.85 -2.304,3.278 -1.588,2.47 -3.388,5.269 -5.208,6.551 -1.391,1.005 -2.877,1.54 -4.311,2.056 -1.736,0.627 -3.379,1.217 -4.855,2.626 -0.588,0.577 -1.12,1.352 -1.733,2.248 -1.25,1.825 -2.847,4.054 -5.885,6.022 0.075,0.442 0.171,1.04 0.171,1.771 0,0.898 -0.249,2.306 -0.653,3.054 -0.308,0.57 -0.789,0.901 -1.243,1.01 -0.83,0.201 -2.162,-0.103 -3.059,-0.506 1.772,5.233 5.922,8.69 8.084,10.477 1.2,0.992 1.884,1.559 1.884,2.326 0,0.124 -0.015,0.252 -0.052,0.389 -0.313,1.412 -1.88,1.486 -2.55,1.517 l -0.13,0.006 c -0.915,0.023 -3.837,-0.077 -5.954,-1.69 -0.625,-0.167 -1.175,-0.424 -1.674,-0.739 -0.025,0.089 -0.021,0.182 -0.062,0.269 -0.255,0.552 -0.926,1.093 -2.044,0.951 -2.094,-0.32 -3.273,-0.864 -4.072,-1.302 -0.052,-0.031 -0.209,-0.128 -0.209,-0.128 -0.733,-0.438 -1.915,-1.195 -2.795,-2.957 -0.839,-0.621 -1.775,-1.571 -2.132,-2.999 -0.903,-0.619 -1.645,-1.665 -1.698,-3.017 -0.558,-0.659 -0.898,-1.356 -1.055,-2.087 -0.895,0.784 -1.956,1.316 -3.214,1.526 l -0.091,0.015 -0.091,0.002 c -0.394,0.007 -1.215,0.023 -1.837,-0.604 l -0.159,-0.16 -0.093,-0.204 c -0.096,-0.212 -0.133,-0.415 -0.133,-0.602 0,-0.503 0.27,-0.893 0.377,-1.051 l 0.069,-0.105 c 0.016,-0.038 0.22,-1.022 0.22,-1.022 l 0.131,-1.08 c 0.329,-1.779 1.092,-2.707 2.065,-3.534 -0.209,-0.628 -0.327,-1.207 -0.327,-1.712 0,-0.86 0.228,-1.564 0.429,-2.182 0,0 0.052,-0.167 0.089,-0.283 0.011,-0.099 0.02,-0.204 0.02,-0.331 0,-1.221 -0.472,-3.602 -0.839,-5.009 -0.002,-0.005 -0.144,-0.467 -0.144,-0.467 -0.276,-0.858 -0.771,-2.403 -0.771,-4.104 0,-0.614 0.064,-1.248 0.226,-1.878 0.321,-1.074 1.148,-2.358 2.299,-2.91 0.043,-0.019 0.648,-0.26 0.648,-0.26 0.579,-0.219 0.754,-0.286 1.001,-0.682 0.212,-0.332 0.301,-1.395 0.301,-2.505 0,-0.821 -0.047,-1.668 -0.131,-2.261 l -0.011,-0.082 c 0,0 -0.001,-0.089 -0.001,-0.091 0,-0.597 0.378,-1.146 0.943,-1.369 0.487,-0.194 1.224,-0.166 1.826,0.486 0.393,0.4 0.731,0.845 1.03,1.319 0.079,-0.117 0.096,-0.275 0.207,-0.372 l 0.052,-0.046 0.057,-0.039 c 0.207,-0.145 0.454,-0.198 0.701,-0.219 -0.743,-0.505 -1.65,-1.076 -2.871,-1.806 -7.018,-1.107 -11.672,-3.663 -12.546,-6.795 -11.154,-5.43 -18.349,-16.822 -18.349,-29.246 0,-17.944 14.597,-32.544 32.538,-32.544 17.953,0 32.559,14.6 32.559,32.544 0,4.251 -0.867,8.371 -2.418,12.203 0.116,0.054 0.267,0.126 0.42,0.198 0.107,-0.118 0.216,-0.236 0.216,-0.236 0.409,-0.489 1.218,-1.08 1.873,-1.098 0.652,-0.017 1.065,0.066 1.065,0.066 0,0 0.041,0.012 0.076,0.021 0.054,-0.095 0.362,-0.63 0.362,-0.63 0.644,-0.986 1.684,-0.96 2.242,-0.945 0.347,0.009 0.596,0.015 0.902,-0.118 0.317,-0.146 0.435,-0.588 0.588,-1.586 l 0.126,-0.729 c 0.182,-0.789 0.643,-1.162 0.892,-1.362 0,0 0.006,-0.007 0.009,-0.009 0.05,-0.248 0.205,-1.048 0.205,-1.048 0.116,-0.865 0.249,-1.844 1.159,-2.232 -0.021,0.009 0.025,0.009 0.086,0.008 0.146,-0.725 0.178,-1.604 1.022,-2.111 0.194,-0.117 0.441,-0.14 0.689,-0.161 0.009,-0.039 0.023,-0.082 0.023,-0.082 0.219,-1.112 1.102,-1.393 1.435,-1.5 0,0 0.011,-0.004 0.016,-0.005 0.05,-0.083 0.552,-0.904 0.552,-0.904 0.353,-0.638 0.684,-1.241 1.127,-1.604 l 0.201,-0.166 0.25,-0.072 c 0.13,-0.037 0.258,-0.052 0.384,-0.054 1.072,-1.367 4.012,-5.754 4.012,-9.826 0,-0.194 -0.007,-0.387 -0.02,-0.579 -0.192,-2.772 -1.326,-4.187 -2.076,-5.123 -0.86,-1.073 -0.897,-2.327 -0.897,-2.82 l 0,-0.068 c 0.105,-1.197 0.733,-1.593 1.189,-1.881 0.486,-0.259 1.854,-0.834 3.775,-0.033 1.585,0.661 1.923,1.85 2.144,2.636 0.103,0.357 0.171,0.582 0.285,0.694 0.733,0.712 1.588,1.741 1.697,3.417 0.012,0.137 0.016,0.277 0.016,0.422 0,1.415 -0.453,3.194 -0.889,4.777 -0.18,0.673 -0.422,2.258 -0.472,3.703 0.62,-0.857 1.14,-1.717 1.448,-2.245 l 0.155,-0.263 c 0.411,-0.695 1.583,-2.687 1.583,-4.628 0,-0.213 -0.013,-0.425 -0.045,-0.635 -0.215,-1.306 -0.625,-2.059 -1.102,-2.929 -0.495,-0.905 -1.056,-1.929 -1.364,-3.583 -0.039,-0.226 -0.057,-0.447 -0.057,-0.661 0,-0.904 0.34,-1.691 0.974,-2.229 0.89,-0.755 2.224,-0.901 3.659,-0.401 1.777,0.64 2.997,2.657 3.383,5.394 0.228,0.163 0.463,0.333 0.463,0.333 0.463,0.52 0.586,1.108 0.586,1.599 0,0.418 -0.089,0.766 -0.135,0.945 -0.949,3.818 -1.115,5.684 -1.115,7.185 0,0.404 0.011,0.783 0.025,1.165 l -0.062,3.261 c -0.111,0.998 -0.584,1.762 -1.003,2.182 -0.192,0.22 -0.703,0.804 -0.703,0.804 -0.515,0.527 -1.154,1.18 -1.293,1.757 -0.18,0.751 -0.251,1.685 -0.251,2.73 0,1.822 0.212,3.983 0.42,6.097 0.223,2.272 0.44,4.471 0.44,6.417 0,0.84 -0.06,1.614 -0.155,2.345 5.292,-0.165 7.694,5.286 8.511,7.146 l 0.139,0.313 c 0.15,0.4 0.212,0.74 0.212,1.029 C 0.429,-0.569 0.221,-0.228 0,0 m -64.229,18.67 c 0.073,0.564 0.139,0.95 0.205,1.376 0.121,-0.058 0.287,-0.077 0.44,-0.108 0.16,-0.894 0.707,-1.365 1.088,-1.618 0,-0.003 0.263,-1.037 0.263,-1.037 0.013,-0.031 0.048,-0.071 0.064,-0.103 -0.349,-0.28 -0.735,-0.606 -1.225,-1.041 l -0.728,-0.648 c -0.668,-0.595 -1.209,-1.072 -1.745,-1.519 0.81,1.336 1.451,3.266 1.638,4.698"
           style="fill:#ffffff;fill-opacity:1;fill-rule:nonzero;stroke:none"
           id="path98" />
      </g>
      <g
         id="g100"
         transform="matrix(1.25,0,0,-1.25,371.74437,423.78205)">
        <path
           d="M 0,0 C 0.014,-0.011 0.025,-0.036 0.037,-0.049 0.073,-0.091 0.174,-0.205 0.174,-0.205 L 0,0 Z"
           style="fill:#ffffff;fill-opacity:1;fill-rule:nonzero;stroke:none"
           id="path102" />
      </g>
      <g
         id="g104"
         transform="matrix(1.25,0,0,-1.25,254.90537,418.40843)">
        <path
           d="M 0,0 C 0,17.286 14.019,31.3 31.29,31.3 48.581,31.3 62.601,17.286 62.601,0 62.601,-17.287 48.581,-31.296 31.29,-31.296 14.019,-31.296 0,-17.287 0,0"
           style="fill:#ed1c24;fill-opacity:1;fill-rule:nonzero;stroke:none"
           id="path106" />
      </g>
      <g
         id="g108"
         transform="matrix(1.25,0,0,-1.25,259.64299,418.40843)">
        <path
           d="M 0,0 C 0,15.2 12.334,27.524 27.536,27.524 42.731,27.524 55.063,15.2 55.063,0 55.063,-15.198 42.731,-27.514 27.536,-27.514 12.334,-27.514 0,-15.198 0,0"
           style="fill:#ffffff;fill-opacity:1;fill-rule:nonzero;stroke:none"
           id="path110" />
      </g>
      <g
         id="g112"
         transform="matrix(1.25,0,0,-1.25,294.0635,418.40843)" />
      <g
         id="g114"
         transform="matrix(1.25,0,0,-1.25,262.19637,418.4058)">
        <path
           d="M 0,0 C 0,14.078 11.418,25.493 25.494,25.493 39.562,25.493 50.979,14.078 50.979,0 50.979,-14.079 39.562,-25.488 25.494,-25.488 11.418,-25.488 0,-14.079 0,0"
           style="fill:#ed1c24;fill-opacity:1;fill-rule:nonzero;stroke:none"
           id="path116" />
      </g>
      <g
         id="g118"
         transform="matrix(1.25,0,0,-1.25,294.0635,418.4058)" />
      <g
         id="g120"
         transform="matrix(1.25,0,0,-1.25,327.53662,397.84293)">
        <path
           d="m 0,0 c -0.527,0.543 -0.999,1.28 -0.999,1.28 -5.644,8.176 -15.09,13.562 -25.793,13.562 l -0.056,-0.07 c -0.415,-0.084 -0.844,-0.343 -1.436,-0.678 -0.951,-0.5 -1.955,-0.533 -2.937,-0.583 -0.788,0.05 -0.241,1.029 -0.722,0.866 -0.555,-0.153 -1.781,-0.575 -2.311,-0.909 -0.05,-1.212 -3.716,-2.475 -5.691,-1.521 0.233,2.901 5.048,5.417 11.942,6.456 4.298,2.562 4.904,3.231 7.733,5.737 1.271,1.128 1.855,1.591 2.265,1.675 0.183,0.078 0.055,0.19 -0.093,0.197 -0.388,0.164 -0.568,0.431 -0.712,0.739 -0.226,0.476 -0.075,1.041 -0.397,1.34 -0.376,0.26 -0.842,0.448 -0.89,1.074 -0.022,0.319 -0.045,0.825 -0.504,0.861 -0.641,-0.02 -0.871,-0.157 -0.944,1.159 -0.032,0.575 -0.012,1.503 -0.31,1.527 -0.431,0.042 -0.856,-1.4 -1.319,-4.945 -0.337,-2.579 -1.871,-5.496 -2.402,-5.127 -0.511,0.445 -0.08,3.107 -0.863,4.292 -0.121,0.214 0.252,-2.92 -2.111,-5.333 -0.325,-0.352 -0.605,-0.145 -0.603,0.035 0.09,0.652 0.406,4.441 -0.349,5.6 -0.593,0.953 -1.234,1.003 -2.167,1.408 -0.771,0.369 -1.407,1.348 -1.631,2.095 -0.624,2.422 0.477,4.997 0.689,5.822 0.207,0.798 1.055,4.398 0.843,5.899 -0.344,1.143 -0.87,2.181 -0.113,3.949 0.113,0.185 0.204,0.32 0.054,0.476 -1.129,0.867 -1.884,1.553 -2.203,3.271 -0.187,1.011 -0.032,1.461 -0.419,2.337 -0.134,0.35 -0.439,0.548 -0.334,0.779 0.24,0.24 0.6,0.24 0.927,0.235 1.871,-0.312 2.994,-1.36 3.701,-2.502 0.243,0.482 0.44,0.774 0.781,1.109 -0.076,1.158 0.46,2.035 1.229,2.789 -0.13,1.437 0.849,2.314 1.541,2.629 0.108,1.227 0.843,2.13 2.01,2.947 0.793,1.817 1.963,2.404 2.65,2.826 0.73,0.401 1.77,0.874 3.624,1.159 0.799,0.1 0.97,-0.397 0.598,-0.738 -1.204,-0.973 -4.01,-3.97 -5.153,-7.293 0.363,0.645 1.236,1.742 2.324,2.257 0.614,1.601 2.106,2.425 3.007,2.869 0.527,0.964 1.688,2.175 3.374,2.534 1.893,1.623 4.984,1.581 5.363,1.572 0.625,-0.033 1.412,-0.026 1.539,-0.599 0.219,-0.823 -9.181,-5.662 -10.623,-15.418 -0.052,-0.435 2.306,2.225 4.772,1.823 0.14,-0.062 0.247,-0.163 0.311,-0.304 1.147,-2.479 0.057,-4.758 0.335,-4.927 4.877,-2.867 5.938,-6.493 8.036,-8.546 2.954,-2.818 6.415,-2.711 9.309,-4.798 2.754,-1.943 5.904,-8.478 7.508,-9.827 6.93,-4.937 12.771,-9.265 17.404,-16.651 0.614,-0.962 1,-1.539 2.188,-1.646 2.582,0.066 4.71,3.123 6.435,5.906 0.096,0.146 0.217,0.188 0.322,0.106 0.205,-0.159 0.091,-0.572 0.305,-0.596 0.566,-0.078 1.043,1.606 1.618,1.977 0.228,0.163 0.57,0.023 0.495,-0.267 -0.171,-0.643 -0.573,-1.393 -0.6,-1.882 0,-0.121 0.105,-0.093 0.166,-0.016 0.107,0.126 0.253,0.171 0.372,0.148 0.242,-0.052 0.219,-0.365 0.148,-0.515 C 41.021,9.234 40.839,8.828 40.811,8.365 40.8,7.97 41.115,8.254 41.304,8.143 41.569,8.022 41.516,7.705 41.372,7.325 40.652,5.73 38.441,-0.112 33.188,0.646 32.515,0.764 32.17,1.252 32.373,0.5 c 1.344,-4.526 -1.302,-14.353 -0.18,-19.032 0.322,-1.338 1.841,-2.42 2.309,-3.119 0.276,-0.264 0.591,-0.82 0.661,-1.442 0.354,-3.992 -0.661,-4.369 1.184,-11.808 0.155,-0.609 0.137,-1.056 -0.18,-1.414 -0.329,-0.378 -0.575,-0.214 -0.675,-0.566 -0.242,-2.398 -1.23,-4.294 -2.639,-4.804 -1.949,-0.677 -3.221,0.242 -2.939,1.884 0.55,2.97 1.978,3.538 2.473,6.558 0.374,2.56 -1.175,5.19 -1.699,6.084 -0.488,0.819 -1.727,3.052 -3.262,4.471 -0.203,0.249 -0.37,0.189 -0.441,-0.024 -0.584,-1.847 0.03,-5.635 0.292,-6.613 0.432,-1.57 0.927,-3.504 0.833,-4.783 -0.082,-1.256 -0.723,-2.025 -1.318,-2.603 -0.913,-0.883 -0.331,-2.361 -2.044,-3.075 -1.255,-0.524 -2.181,-0.298 -2.605,-0.076 -0.395,0.248 -0.584,0.359 -0.628,0.842 -0.002,0.575 0.06,1.4 0.623,2.103 0.915,1.144 2.133,2.764 2.345,5.813 0.399,5.524 -4.514,11.816 -4.824,11.887 -0.318,0.07 -0.206,-0.207 -0.454,-0.136 -0.489,0.402 -1.07,1.889 -1.59,2.444 -0.281,0.389 -0.986,0.22 -1.098,0.775 -0.059,0.428 -0.234,0.859 -0.581,1.04 -0.226,0.133 -0.39,-0.095 -0.596,0.016 -0.602,0.47 -0.625,2.162 -0.823,2.27 -0.214,0.092 -0.413,-0.081 -0.568,0 -0.438,0.187 -0.331,1.603 -0.682,2.607 -0.164,0.527 -0.7,0.509 -0.849,1.145 -0.235,1.147 -0.203,2.642 -1.437,3.209 -1.263,0.55 -2.073,-0.205 -2.673,0.705 -0.32,0.393 -0.265,1.038 -1.086,1.124 C 6.789,-3.803 6.615,-3.27 6.223,-3.39 6.011,-3.451 6.186,-3.863 5.751,-4.139 5.162,-4.179 4.574,-2.591 3.757,-2.662 3.488,-2.764 3.383,-3.072 3.077,-3.091 2.726,-3.106 2.696,-1.314 1.549,-0.883 1.344,-0.805 1.191,-1.184 1.015,-0.933 1.015,-0.933 0.545,-0.575 0,0"
           style="fill:#231f20;fill-opacity:1;fill-rule:nonzero;stroke:none"
           id="path122" />
      </g>
      <g
         id="g124"
         transform="matrix(1.25,0,0,-1.25,327.53662,397.84293)">
        <path
           d="m 0,0 c -0.527,0.543 -0.999,1.28 -0.999,1.28 -5.644,8.176 -15.09,13.562 -25.793,13.562 l -0.056,-0.07 c -0.415,-0.084 -0.844,-0.343 -1.436,-0.678 -0.951,-0.5 -1.955,-0.533 -2.937,-0.583 -0.788,0.05 -0.241,1.029 -0.722,0.866 -0.555,-0.153 -1.781,-0.575 -2.311,-0.909 -0.05,-1.212 -3.716,-2.475 -5.691,-1.521 0.233,2.901 5.048,5.417 11.942,6.456 4.298,2.562 4.904,3.231 7.733,5.737 1.271,1.128 1.855,1.591 2.265,1.675 0.183,0.078 0.055,0.19 -0.093,0.197 -0.388,0.164 -0.568,0.431 -0.712,0.739 -0.226,0.476 -0.075,1.041 -0.397,1.34 -0.376,0.26 -0.842,0.448 -0.89,1.074 -0.022,0.319 -0.045,0.825 -0.504,0.861 -0.641,-0.02 -0.871,-0.157 -0.944,1.159 -0.032,0.575 -0.012,1.503 -0.31,1.527 -0.431,0.042 -0.856,-1.4 -1.319,-4.945 -0.337,-2.579 -1.871,-5.496 -2.402,-5.127 -0.511,0.445 -0.08,3.107 -0.863,4.292 -0.121,0.214 0.252,-2.92 -2.111,-5.333 -0.325,-0.352 -0.605,-0.145 -0.603,0.035 0.09,0.652 0.406,4.441 -0.349,5.6 -0.593,0.953 -1.234,1.003 -2.167,1.408 -0.771,0.369 -1.407,1.348 -1.631,2.095 -0.624,2.422 0.477,4.997 0.689,5.822 0.207,0.798 1.055,4.398 0.843,5.899 -0.344,1.143 -0.87,2.181 -0.113,3.949 0.113,0.185 0.204,0.32 0.054,0.476 -1.129,0.867 -1.884,1.553 -2.203,3.271 -0.187,1.011 -0.032,1.461 -0.419,2.337 -0.134,0.35 -0.439,0.548 -0.334,0.779 0.24,0.24 0.6,0.24 0.927,0.235 1.871,-0.312 2.994,-1.36 3.701,-2.502 0.243,0.482 0.44,0.774 0.781,1.109 -0.076,1.158 0.46,2.035 1.229,2.789 -0.13,1.437 0.849,2.314 1.541,2.629 0.108,1.227 0.843,2.13 2.01,2.947 0.793,1.817 1.963,2.404 2.65,2.826 0.73,0.401 1.77,0.874 3.624,1.159 0.799,0.1 0.97,-0.397 0.598,-0.738 -1.204,-0.973 -4.01,-3.97 -5.153,-7.293 0.363,0.645 1.236,1.742 2.324,2.257 0.614,1.601 2.106,2.425 3.007,2.869 0.527,0.964 1.688,2.175 3.374,2.534 1.893,1.623 4.984,1.581 5.363,1.572 0.625,-0.033 1.412,-0.026 1.539,-0.599 0.219,-0.823 -9.181,-5.662 -10.623,-15.418 -0.052,-0.435 2.306,2.225 4.772,1.823 0.14,-0.062 0.247,-0.163 0.311,-0.304 1.147,-2.479 0.057,-4.758 0.335,-4.927 4.877,-2.867 5.938,-6.493 8.036,-8.546 2.954,-2.818 6.415,-2.711 9.309,-4.798 2.754,-1.943 5.904,-8.478 7.508,-9.827 6.93,-4.937 12.771,-9.265 17.404,-16.651 0.614,-0.962 1,-1.539 2.188,-1.646 2.582,0.066 4.71,3.123 6.435,5.906 0.096,0.146 0.217,0.188 0.322,0.106 0.205,-0.159 0.091,-0.572 0.305,-0.596 0.566,-0.078 1.043,1.606 1.618,1.977 0.228,0.163 0.57,0.023 0.495,-0.267 -0.171,-0.643 -0.573,-1.393 -0.6,-1.882 0,-0.121 0.105,-0.093 0.166,-0.016 0.107,0.126 0.253,0.171 0.372,0.148 0.242,-0.052 0.219,-0.365 0.148,-0.515 C 41.021,9.234 40.839,8.828 40.811,8.365 40.8,7.97 41.115,8.254 41.304,8.143 41.569,8.022 41.516,7.705 41.372,7.325 40.652,5.73 38.441,-0.112 33.188,0.646 32.515,0.764 32.17,1.252 32.373,0.5 c 1.344,-4.526 -1.302,-14.353 -0.18,-19.032 0.322,-1.338 1.841,-2.42 2.309,-3.119 0.276,-0.264 0.591,-0.82 0.661,-1.442 0.354,-3.992 -0.661,-4.369 1.184,-11.808 0.155,-0.609 0.137,-1.056 -0.18,-1.414 -0.329,-0.378 -0.575,-0.214 -0.675,-0.566 -0.242,-2.398 -1.23,-4.294 -2.639,-4.804 -1.949,-0.677 -3.221,0.242 -2.939,1.884 0.55,2.97 1.978,3.538 2.473,6.558 0.374,2.56 -1.175,5.19 -1.699,6.084 -0.488,0.819 -1.727,3.052 -3.262,4.471 -0.203,0.249 -0.37,0.189 -0.441,-0.024 -0.584,-1.847 0.03,-5.635 0.292,-6.613 0.432,-1.57 0.927,-3.504 0.833,-4.783 -0.082,-1.256 -0.723,-2.025 -1.318,-2.603 -0.913,-0.883 -0.331,-2.361 -2.044,-3.075 -1.255,-0.524 -2.181,-0.298 -2.605,-0.076 -0.395,0.248 -0.584,0.359 -0.628,0.842 -0.002,0.575 0.06,1.4 0.623,2.103 0.915,1.144 2.133,2.764 2.345,5.813 0.399,5.524 -4.514,11.816 -4.824,11.887 -0.318,0.07 -0.206,-0.207 -0.454,-0.136 -0.489,0.402 -1.07,1.889 -1.59,2.444 -0.281,0.389 -0.986,0.22 -1.098,0.775 -0.059,0.428 -0.234,0.859 -0.581,1.04 -0.226,0.133 -0.39,-0.095 -0.596,0.016 -0.602,0.47 -0.625,2.162 -0.823,2.27 -0.214,0.092 -0.413,-0.081 -0.568,0 -0.438,0.187 -0.331,1.603 -0.682,2.607 -0.164,0.527 -0.7,0.509 -0.849,1.145 -0.235,1.147 -0.203,2.642 -1.437,3.209 -1.263,0.55 -2.073,-0.205 -2.673,0.705 -0.32,0.393 -0.265,1.038 -1.086,1.124 C 6.789,-3.803 6.615,-3.27 6.223,-3.39 6.011,-3.451 6.186,-3.863 5.751,-4.139 5.162,-4.179 4.574,-2.591 3.757,-2.662 3.488,-2.764 3.383,-3.072 3.077,-3.091 2.726,-3.106 2.696,-1.314 1.549,-0.883 1.344,-0.805 1.191,-1.184 1.015,-0.933 1.015,-0.933 0.545,-0.575 0,0 Z"
           style="fill:none;stroke:#231f20;stroke-width:0.148;stroke-linecap:butt;stroke-linejoin:miter;stroke-miterlimit:4;stroke-dasharray:none;stroke-opacity:1"
           id="path126" />
      </g>
      <g
         id="g128"
         transform="matrix(1.25,0,0,-1.25,292.97712,329.88868)">
        <path
           d="m 0,0 c 0.493,0.617 1.487,0.9 1.444,1.097 -0.087,0.18 -0.456,0.018 -0.732,0 -0.117,-0.018 -0.274,0.01 -0.256,0.147 0.466,1.63 2.058,1.922 2.541,2.439 0.056,0.1 0,0.1 -0.125,0.17 C 2.62,3.863 2.217,3.588 2.217,3.828 2.405,5.452 4.385,6.233 4.757,6.362 4.852,6.446 4.766,6.559 4.643,6.579 4.474,6.559 4.337,6.456 4.314,6.663 4.506,7.468 5.58,8.114 6.274,8.458 6.981,8.748 8.379,9.178 8.379,8.964 8.379,8.878 7.282,8.345 6.919,7.804 6.618,7.358 6.344,7.066 6.322,6.362 5.197,5.81 4.643,4.567 4.567,3.381 3.771,2.971 3.16,1.527 3.422,0.933 2.505,0.041 2.053,-1.245 2.103,-2.537 0.116,-5.136 0.705,-6.126 2.895,-6.931 c 0.324,-0.104 0.632,-0.123 0.694,0.033 0.077,0.155 -0.19,0.25 -0.288,0.474 -1.191,2.654 0.311,3.983 2.407,4.876 0.164,0.079 0.041,0.266 -0.205,0.26 -0.566,0.006 -1.075,-0.14 -1.145,0.043 -0.306,0.866 1.945,2.662 3.054,3.003 0.47,0.139 0.271,0.377 0.077,0.343 C 7.193,2.128 6.734,1.956 6.586,2.343 6.869,3.321 9.568,4.618 9.964,4.851 10.208,5.005 10.311,5.283 9.118,5.039 9.006,5.023 8.883,5.023 8.936,5.186 c 0.225,0.705 2.751,1.692 4.035,2.137 0.203,0.095 0.26,0.411 -0.345,0.292 -0.219,-0.033 -0.62,-0.179 -0.698,-0.017 0.078,0.955 2.868,1.691 3.865,1.908 0.225,0.076 0.267,0.205 0.07,0.299 -0.317,0.096 -0.818,-0.154 -0.627,0.179 0.751,0.475 2.737,0.482 3.426,0.37 C 18.854,10.32 18.9,10.276 18.918,10.235 18.703,9.736 15.364,8.758 14.951,6.75 13.95,6.336 12.971,5.383 12.857,4.567 12.33,4.283 11.276,3.416 11.215,2.222 10.64,1.793 9.132,0.454 9.634,-1.17 8.828,-1.925 8.206,-2.697 8.238,-4.818 8.249,-5.548 7.3,-6.734 6.322,-7.009 6.046,-7.119 6.155,-7.343 6.353,-7.395 c 1.64,-0.484 3.164,0.406 3.76,0.971 1.893,1.802 3.155,2.454 4.005,2.56 0.155,0.041 0.155,-0.071 0.181,-0.158 0.12,-0.472 0.415,-1.621 0.004,-3.234 -0.538,-2.019 -2.083,-2.955 -2.52,-3.506 -0.078,-0.078 0.216,-0.936 0.059,-1.375 -0.178,-0.556 0.023,-0.902 0.228,-0.986 0.559,-0.207 0.956,1.881 1.291,1.828 0.269,-0.015 0.224,-0.471 0.545,-0.635 0.171,-0.06 0.42,-0.008 0.45,0.182 0.041,0.583 0.257,2.009 0.399,2.162 0.102,0.128 0.42,-0.517 0.438,-0.909 0.023,-1.625 -0.89,-3.005 -0.354,-4.123 0.119,-0.241 0.388,-0.222 0.575,-0.044 0.49,0.526 0.826,2.432 1.916,2.672 1.469,0.326 2.922,-3.701 1.887,-4.776 -0.502,-0.427 -1.134,-0.05 -1.757,-0.396 -0.67,-0.392 -0.613,-1.886 -1.072,-2.506 -0.271,-0.274 -0.595,-0.319 -1.225,-0.369 -1.332,-0.103 -0.926,-3.908 -0.721,-4.586 0.133,-0.403 0.415,-0.326 0.603,-0.189 0.191,0.162 0.337,0.946 0.376,1.677 0.055,0.23 0.458,0.323 0.748,0.607 0.313,0.243 0.148,0.509 0.338,0.746 0.271,0.303 0.538,0.036 0.759,0.374 0.575,0.477 0.167,1.226 0.63,1.542 0.682,0.448 1.289,0.225 1.891,0.885 0.369,0.411 0.417,1.28 0.935,1.427 2.758,0.067 5.502,-3.111 5.972,-4.055 1.364,-2.823 -0.819,-7.085 0.673,-7.901 1.877,-1.091 1.471,-3.21 1.266,-3.743 -0.406,-1.082 -3.41,-2.458 -3.798,-4.962 -0.194,-2.407 1.061,-1.909 1.15,-1.609 0.095,0.303 0.18,0.696 0.328,0.996 0.119,0.267 0.486,0.15 0.529,-0.109 0.071,-0.225 0.587,-0.868 1.351,0.548 0.481,0.901 1.777,2.062 2.749,2.731 0.955,0.677 1.184,2.799 1.35,3.282 0.125,0.418 0.477,0.418 0.529,0.867 0.037,0.463 -0.835,1.999 -0.317,3.1 0.242,0.367 0.823,0.627 1.259,0.121 0.456,-0.527 -0.283,-2.254 0.543,-2.293 0.705,-0.02 0.783,0.807 1.392,0.753 0.622,-0.12 -0.498,-2.396 0.116,-2.747 0.376,-0.154 0.849,0.026 1.04,-0.351 0.173,-0.628 -0.951,-1.771 0.018,-1.771 10.272,0.181 14.025,-7.9 13.365,-9.376 -0.308,-0.56 -1.546,0.275 -1.724,-0.292 -0.938,-3.162 1.181,-5.557 1.795,-5.97 0.18,-0.103 0.504,0.043 0.479,0.439 -0.102,0.902 -0.602,1.384 -0.502,2.276 0.174,1.571 3.682,0.602 3.86,-0.594 0.068,-0.448 0.093,-0.815 0.488,-1.193 0.5,-0.472 1.697,0.061 1.814,-0.985 0.152,-2.03 -2.38,-2.147 -4.131,-3.403 -0.835,-0.643 -0.646,-1.091 0.061,-1.321 0.842,-0.225 2.19,0.016 2.87,-0.981 0.967,-1.384 -0.304,-4.276 -0.377,-5.495 -0.07,-1.238 2.145,-4.852 2.19,-6.699 0.16,-0.92 -0.474,-1.417 -1.257,-0.66 -0.755,0.789 -1.544,2.007 -2.13,2.921 -0.171,0.287 -0.618,0.307 -0.609,-0.285 -0.009,-1.599 7.559,-11.448 7.751,-13.062 0.173,-0.851 -0.299,-1.57 -0.098,-2.396 0.066,-0.242 0.376,-0.104 0.401,-0.297 0.041,-0.547 -0.515,-1.376 0.276,-1.772 0.393,-1.083 0,-1.534 0.206,-2.431 0.102,-0.893 0.524,-2.13 0.62,-3.032 -0.212,-2.542 -1.186,-3.532 -1.962,-3.909 -0.668,-0.334 -0.944,0.266 -0.882,0.785 0.175,1.537 1.879,4.264 1.199,7.337 -1.747,7.904 -10.205,13.513 -11.617,16.517 -0.454,1.134 -2.076,1.261 -2.17,2.592 -0.162,0.43 -0.588,0.301 -0.951,0.695 -0.305,0.345 -0.294,1.383 -0.623,2.142 -0.095,0.239 -0.392,0.119 -0.611,0.348 -1.202,1.583 -0.944,9.311 -2.016,10.367 -0.792,0.441 -1.406,-0.786 -2.391,-0.89 -0.753,-0.077 -1.998,1.794 -2.455,1.321 -0.369,-0.37 -0.209,-1.321 -0.18,-1.469 0.039,-0.13 0.226,-0.791 -0.029,-0.791 -0.231,-0.009 -0.562,0.465 -1.515,0.852 -0.636,0.231 -1.239,0 -1.533,0.191 -0.65,0.701 0.023,2.178 -1.07,2.599 -0.306,0.119 -0.36,0.9 -0.518,1.211 -0.15,0.223 -0.463,0.206 -0.604,0.378 -0.297,0.447 -0.504,0.996 -0.636,1.624 -0.112,0.431 -1.109,-0.105 -1.187,0.575 -0.095,0.455 -0.629,0.599 -1.042,0.669 -0.504,0.061 -0.292,1.167 -0.73,1.35 -0.187,0.085 -0.256,-0.129 -0.452,-0.029 -0.201,0.251 -0.164,0.491 -0.42,0.671 -0.216,0.147 -0.428,-0.101 -0.586,0.077 -0.636,0.774 -0.13,2.073 -0.461,2.456 -0.219,0.24 -0.595,-0.026 -0.926,0.26 -0.324,0.246 -0.376,0.652 -0.57,0.711 -0.566,0.01 -0.764,0.113 -0.994,0.395 -1.031,1.442 -0.915,3.101 -1.269,3.692 -0.23,0.388 -0.577,0.629 -0.837,-0.101 -0.518,-1.255 -0.463,-5.934 -1.964,-6.571 -1.156,-0.567 -2.188,1.426 -2.758,1.779 -0.255,0.136 -0.301,-0.285 -0.483,-0.302 -0.527,0.207 -0.409,0.833 -0.835,1.081 -0.413,0.182 -0.238,-0.402 -0.475,-0.351 -0.41,0.378 -0.41,1.39 -0.775,1.571 -0.295,0.113 -0.468,-0.232 -0.637,-0.086 -0.593,0.516 -0.178,1.666 -0.894,2.029 -0.31,0.101 -0.265,-0.423 -0.584,-0.275 -0.306,0.112 -0.253,1.743 -1.207,1.587 -0.141,-0.016 -0.095,0.207 -0.194,0.292 -0.282,0.036 -0.479,-0.357 -0.773,-0.103 -0.401,0.532 -0.709,0.791 -0.969,0.99 -0.402,0.341 -0.997,-0.089 -1.492,0.281 -1.743,0.765 -5.737,-2.284 -7.536,-4.071 -0.656,0.613 -1.541,-0.033 -2.287,-0.109 -0.268,-0.062 -1.108,-0.027 -0.45,0.881 1.634,1.729 2.827,1.644 5.902,3.842 2.249,1.648 4.266,3.254 4.991,3.727 0.598,0.308 1.549,0.567 2.348,-0.484 1.124,-1.467 3.636,-3.931 4.705,-4.414 2.199,-0.952 2.309,0.733 2.578,1.317 0.235,0.59 0.381,0.101 0.367,-0.459 -0.004,-0.366 0.133,-0.88 0.431,-0.932 0.603,-0.07 0.61,0.385 0.696,0.677 0.687,2.705 3.349,5.958 4.401,5.29 0.768,-0.491 1.224,-0.491 1.407,0.437 0.201,1.195 -0.721,2.292 -0.97,3.549 -0.257,1.459 -0.098,3.374 -0.654,3.639 -0.324,0.139 -0.771,-0.178 -1.022,-0.531 -0.335,-0.447 -0.335,-0.92 -0.449,-1.461 -0.055,-0.299 -1.269,-0.628 -1.406,-2.199 -0.011,-0.283 -0.472,0.284 -0.8,0 -0.676,-0.514 -0.555,-3.065 -0.771,-3.211 -0.253,-0.025 -0.557,0.258 -0.66,-0.111 0.055,-0.412 -0.173,-1.408 -0.371,-1.486 -0.167,-0.05 -0.343,0.153 -0.578,0.016 -0.581,-0.488 -0.346,-1.165 -0.907,-1.811 -0.343,-0.422 -0.578,-0.127 -0.616,0.243 -0.082,0.63 -0.587,1.577 -1.029,2.026 -1.296,1.337 -0.495,3.571 -2.327,4.499 -0.55,0.274 -0.582,0.541 -0.643,1.036 -0.021,0.543 -0.333,0.919 -0.616,0.991 -0.504,0.146 -0.591,0.42 -0.611,0.773 0.045,0.952 -0.664,0.994 -1.043,1.074 -0.894,0.085 -0.924,0.256 -0.643,2.49 0.082,0.539 0.087,1.16 -0.087,1.666 -0.467,0.689 -1.492,0.248 -1.35,1.373 0.107,0.739 1.43,1.7 1.996,2.31 0.342,0.385 0.561,1.382 -0.621,1.141 -2.682,-0.714 -4.822,-5.468 -5.326,-6.379 -1.941,-3.556 -3.628,-4.974 -5.206,-5.521 -0.738,-0.259 -3.294,-0.498 -3.816,2.007 -0.27,1.316 0.054,2.552 0.652,4.612 2.591,9.008 -0.303,7.292 1.113,10.292 0.913,1.019 2.208,0.88 3.522,1.039 0.291,0.038 0.187,0.417 0.117,0.529 -0.053,0.104 -0.359,0.233 -0.762,0.308 -0.402,0.068 -1.264,0.834 -1.339,1.658 -0.076,0.903 0.506,1.462 0.892,1.855 0.549,0.543 0.945,0.602 0.954,0.721 -0.033,0.481 -1.046,-0.194 -1.135,0 C -1.031,-1.17 -0.411,-0.484 0,0"
           style="fill:#ffffff;fill-opacity:1;fill-rule:nonzero;stroke:none"
           id="path130" />
      </g>
      <g
         id="g132"
         transform="matrix(1.25,0,0,-1.25,289.47849,335.75117)">
        <path
           d="m 0,0 c -0.034,-0.326 -0.034,-0.832 0.402,-1.882 -0.436,-0.06 -0.701,-0.445 -1.083,-0.233 -1.192,0.653 -1.861,1.867 -2.248,3.095 -0.25,0.705 -0.226,1.543 -0.619,2.179 C -1.487,3.021 0.024,0.242 0,0"
           style="fill:#ffffff;fill-opacity:1;fill-rule:nonzero;stroke:none"
           id="path134" />
      </g>
      <g
         id="g136"
         transform="matrix(1.25,0,0,-1.25,310.28287,336.15892)">
        <path
           d="m 0,0 c 0.11,0.033 0.148,-0.042 0.148,-0.087 -0.086,-1.469 -1.644,-4.406 -3.672,-4.929 -0.119,-0.025 -0.194,-0.009 -0.235,0.102 -0.185,1.022 0.458,2.758 2.107,3.393 C -0.835,-1.204 -0.449,-0.661 0,0"
           style="fill:#231f20;fill-opacity:1;fill-rule:nonzero;stroke:none"
           id="path138" />
      </g>
      <g
         id="g140"
         transform="matrix(1.25,0,0,-1.25,301.74862,343.37305)">
        <path
           d="M 0,0 C 0.096,-0.377 0.025,-0.404 -0.297,-0.189 -1.357,0.92 -2.261,0.635 -2.904,0.299 -3.216,0.17 -3.312,0.18 -3.221,0.463 -2.245,1.957 -0.465,1.219 0,0"
           style="fill:#231f20;fill-opacity:1;fill-rule:nonzero;stroke:none"
           id="path142" />
      </g>
      <g
         id="g144"
         transform="matrix(1.25,0,0,-1.25,294.86325,343.62955)">
        <path
           d="M 0,0 C 0.535,-0.766 0.302,-1.96 -0.161,-2.854 -0.528,-3.539 -1.13,-4.64 -1.365,-5.121 -1.463,-5.409 -1.673,-5.429 -1.849,-5.35 c -0.175,0.034 0.649,1.408 0.884,3.019 0.095,0.661 -0.081,1.626 0.4,2.347 C -0.398,0.255 -0.152,0.178 0,0"
           style="fill:#231f20;fill-opacity:1;fill-rule:nonzero;stroke:none"
           id="path146" />
      </g>
      <g
         id="g148"
         transform="matrix(1.25,0,0,-1.25,300.47124,344.53192)">
        <path
           d="m 0,0 c 0.388,-0.895 -0.561,-1.333 -1.115,-1.443 -0.388,-0.069 -0.68,0.041 -1.009,0.256 -0.182,0.13 -0.084,0.224 -0.228,0.292 -0.296,0.018 -0.226,-0.171 -0.546,-0.247 -0.221,-0.027 -0.239,0.076 -0.091,0.299 0.361,0.6 0.557,1.023 1.15,1.263 C -1.284,0.643 -0.477,0.875 0,0"
           style="fill:#231f20;fill-opacity:1;fill-rule:nonzero;stroke:none"
           id="path150" />
      </g>
      <g
         id="g152"
         transform="matrix(1.25,0,0,-1.25,296.58412,349.23392)">
        <path
           d="m 0,0 c 0.461,-1.796 0.121,-2.491 -0.292,-2.92 -0.153,-0.139 -1.119,-0.311 -1.245,0.926 0.482,0.583 0.779,1.468 1.068,2.097 C -0.266,0.505 -0.139,0.533 0,0"
           style="fill:#231f20;fill-opacity:1;fill-rule:nonzero;stroke:none"
           id="path154" />
      </g>
      <g
         id="g156"
         transform="matrix(1.25,0,0,-1.25,292.11037,355.43993)">
        <path
           d="m 0,0 c -0.209,-1.127 -0.671,-1.699 -1.471,-1.88 -0.933,-0.112 -1.331,0.92 -1.212,0.913 0.909,-0.166 1.869,0.351 2.441,1.088 C -0.105,0.317 0.034,0.181 0,0"
           style="fill:#231f20;fill-opacity:1;fill-rule:nonzero;stroke:none"
           id="path158" />
      </g>
      <g
         id="g160"
         transform="matrix(1.25,0,0,-1.25,349.3525,377.25305)">
        <path
           d="M 0,0 C 0.516,-0.164 0.73,-0.693 0.55,-0.996 0.338,-1.485 -0.1,-1.819 -0.109,-2.29 c -0.01,-0.396 -0.08,-0.637 -0.395,-0.739 -0.58,-0.062 -0.917,1.143 -1.437,0.307 -0.283,-0.429 -0.867,-0.136 -0.942,0.103 -0.103,0.371 -0.326,0.748 -0.698,0.764 C -4.79,-1.819 -5.089,0.072 -4.895,0.584 -3.965,2.776 -1.672,0.577 0,0"
           style="fill:#231f20;fill-opacity:1;fill-rule:nonzero;stroke:none"
           id="path162" />
      </g>
      <g
         id="g164"
         transform="matrix(1.25,0,0,-1.25,289.91749,376.79967)">
        <path
           d="m 0,0 c -0.636,-0.475 -1.065,-1.074 -1.417,-1.728 -0.761,-0.12 -1.994,-0.635 -2.875,-1.031 -0.325,-0.17 -1.564,-0.265 -2.681,-0.395 -0.171,0.017 -0.212,0.121 -0.212,0.258 C -7.274,-2.046 -2.017,0.1 0,0.308 0.184,0.308 0.294,0.221 0,0"
           style="fill:#ffffff;fill-opacity:1;fill-rule:nonzero;stroke:none"
           id="path166" />
      </g>
      <g
         id="g168"
         transform="matrix(1.25,0,0,-1.25,376.65162,390.3923)">
        <path
           d="m 0,0 c 0.164,-0.429 -0.29,-0.969 -0.762,-1.493 -0.465,-0.542 -2.473,-1.958 -4.147,-1.881 -0.463,0.069 -0.965,0.577 -0.807,1.193 0.162,0.525 1.777,0.662 3.018,1.091 0.905,0.309 1.334,0.499 2.05,1.049 C -0.196,0.3 -0.093,0.096 0,0"
           style="fill:#ffffff;fill-opacity:1;fill-rule:nonzero;stroke:none"
           id="path170" />
      </g>
      <g
         id="g172"
         transform="matrix(1.25,0,0,-1.25,358.79912,429.58305)">
        <path
           d="M 0,0 C 0.303,-0.01 0.26,0.094 0.525,0 0.76,-0.01 0.753,-1.023 0.721,-1.546 0.664,-1.872 0.586,-2.423 0.931,-2.672 1.239,-2.937 0.525,-3.909 1.04,-4.38 1.325,-4.774 0.721,-5.81 1.184,-6.381 c 0.226,0 0.397,-0.067 0.515,-0.254 -0.196,-1.198 0.34,-3.087 0.151,-3.635 -0.525,-0.824 -0.919,-0.741 -1.366,-2.098 -0.676,-1.312 -2.58,-0.494 -2.206,0.566 1.346,2.278 1.841,4.814 1.911,5.92 0.224,2.874 -1.291,7.446 -1.457,8.082 -0.037,0.575 0.086,0.919 0.54,0.403 C -0.059,1.555 -0.301,0.06 0,0"
           style="fill:#ffffff;fill-opacity:1;fill-rule:nonzero;stroke:none"
           id="path174" />
      </g>
      <g
         id="g176"
         transform="matrix(1.25,0,0,-1.25,297.42312,399.03205)">
        <path
           d="m 0,0 -0.062,-0.276 c 0,0 -1.458,2.172 -1.764,2.628 -0.051,-0.637 -0.742,-9.18 -0.742,-9.18 l -0.238,0 c 0,0 -0.673,8.541 -0.723,9.18 -0.306,-0.456 -1.768,-2.628 -1.768,-2.628 0,0 -3.023,13.912 -3.24,14.917 -0.219,-1.005 -3.241,-14.917 -3.241,-14.917 0,0 -1.461,2.174 -1.768,2.628 -0.053,-0.673 -3.107,-39.021 -3.107,-39.021 0,0 0,-0.025 -0.001,-0.047 4.146,-2.733 8.969,-4.181 13.953,-4.181 l 0.036,0 c 4.989,0 9.814,1.448 13.954,4.184 l 0,0.053 c 0,0 -2.792,35.183 -3.095,39.012 -0.308,-0.456 -1.768,-2.628 -1.768,-2.628 0,0 -3.03,13.915 -3.249,14.918 C 2.961,13.639 0,0 0,0"
           style="fill:#ffffff;fill-opacity:1;fill-rule:nonzero;stroke:none"
           id="path178" />
      </g>
      <g
         id="g180"
         transform="matrix(1.25,0,0,-1.25,311.68574,444.85655)">
        <path
           d="m 0,0 -3.125,39.365 -1.8,-2.679 -3.308,15.182 -3.296,-15.182 -1.798,2.679 -0.771,-9.524 -0.749,9.524 -1.801,-2.679 -3.299,15.182 -3.299,-15.182 -1.801,2.679 L -28.184,0 l 0,-0.123 c 4.029,-2.671 8.88,-4.234 14.073,-4.234 l 0.036,0 c 5.211,0 10.051,1.563 14.075,4.234 L 0,0 Z"
           style="fill:#231f20;fill-opacity:1;fill-rule:nonzero;stroke:none"
           id="path182" />
      </g>
      <g
         id="g184"
         transform="matrix(1.25,0,0,-1.25,327.30849,416.66205)">
        <path
           d="M 0,0 -4.017,13.896 -53.602,-0.049 -50.534,-14.201 0,0 Z"
           style="fill:#ffffff;fill-opacity:1;fill-rule:nonzero;stroke:none"
           id="path186" />
      </g>
      <g
         id="g188"
         transform="matrix(1.25,0,0,-1.25,271.96662,415.69255)">
        <path
           d="M 0,0 6.502,2.019 5.356,-10.222 0.813,-11.49 1.589,-3.171 -0.364,-3.847 0,0 Z"
           style="fill:#ed1c24;fill-opacity:1;fill-rule:nonzero;stroke:none"
           id="path190" />
      </g>
      <g
         id="g192"
         transform="matrix(1.25,0,0,-1.25,287.12037,423.87468)">
        <path
           d="m 0,0 c -0.116,-1.269 -1.462,-2.35 -2.676,-2.72 -1.236,-0.322 -2.428,0.033 -2.308,1.314 0.121,1.33 1.468,2.448 2.689,2.767 C -1.084,1.709 0.116,1.313 0,0"
           style="fill:#ed1c24;fill-opacity:1;fill-rule:nonzero;stroke:none"
           id="path194" />
      </g>
      <g
         id="g196"
         transform="matrix(1.25,0,0,-1.25,290.86287,410.1438)">
        <path
           d="M 0,0 8.426,2.386 8.113,-1.147 4.274,-2.198 4.164,-3.487 7.532,-2.551 7.224,-5.703 3.864,-6.656 3.456,-10.939 -1.16,-12.24 0,0 Z"
           style="fill:#ed1c24;fill-opacity:1;fill-rule:nonzero;stroke:none"
           id="path198" />
      </g>
      <g
         id="g200"
         transform="matrix(1.25,0,0,-1.25,314.962,409.4223)">
        <path
           d="M 0,0 C -0.673,0.452 -1.547,0.748 -2.585,0.463 -3.958,0.075 -5.18,-1.282 -5.31,-2.619 c -0.124,-1.334 0.969,-2.045 2.335,-1.658 1.057,0.291 1.933,0.96 2.733,1.874 L -0.81,-7.019 c -0.759,-0.548 -2.479,-1.168 -3.296,-1.398 -3.6,-1.008 -6.157,0.911 -5.828,4.388 0.33,3.573 3.501,7.241 7.203,8.289 1.029,0.291 2.076,0.42 3.023,0.342 L 0,0 Z"
           style="fill:#ed1c24;fill-opacity:1;fill-rule:nonzero;stroke:none"
           id="path202" />
      </g>
      <g
         id="g204"
         transform="matrix(1.25,0,0,-1.25,290.14712,429.78705)">
        <path
           d="m 0,0 c -0.047,-0.487 -0.391,-0.958 -0.768,-1.1 -0.359,-0.086 -0.618,0.24 -0.581,0.73 0.023,0.5 0.366,0.97 0.737,1.045 C -0.234,0.825 0.04,0.487 0,0 M 1.956,0.566 C 1.922,0.068 1.582,-0.403 1.206,-0.53 0.83,-0.652 0.583,-0.309 0.617,0.163 0.666,0.652 0.982,1.125 1.362,1.241 1.73,1.368 2.006,1.047 1.956,0.566 M 3.245,-4.587 C 3.031,-7.179 1.383,-9.179 -0.489,-9.69 c -1.873,-0.528 -3.266,0.631 -3.046,3.219 0.209,2.529 1.872,4.594 3.74,5.121 1.853,0.524 3.244,-0.711 3.04,-3.237 M -1.3,-5.89 c -0.081,-0.935 0.35,-1.425 1.013,-1.257 0.669,0.19 1.201,0.963 1.282,1.863 0.07,0.887 -0.312,1.479 -1.013,1.272 C -0.714,-4.207 -1.22,-5.052 -1.3,-5.89"
           style="fill:#ffffff;fill-opacity:1;fill-rule:nonzero;stroke:none"
           id="path206" />
      </g>
      <g
         id="g208"
         transform="matrix(1.25,0,0,-1.25,295.5975,430.18342)">
        <path
           d="M 0,0 2.222,0.6 1.769,-4.868 3.63,-4.348 3.415,-6.948 -0.675,-8.063 0,0 Z"
           style="fill:#ffffff;fill-opacity:1;fill-rule:nonzero;stroke:none"
           id="path210" />
      </g>
      <g
         id="g212"
         transform="matrix(1.25,0,0,-1.25,301.43225,428.55243)">
        <path
           d="m 0,0 2.14,0.568 1.624,-3.919 0.05,0 C 3.794,-2.676 3.75,-2.016 3.805,-1.316 L 4.019,1.097 6.143,1.685 5.47,-6.371 3.34,-6.957 1.745,-3.273 1.658,-3.289 c 0.028,-0.543 0.05,-1.037 0,-1.588 L 1.442,-7.507 -0.666,-8.08 0,0 Z"
           style="fill:#ffffff;fill-opacity:1;fill-rule:nonzero;stroke:none"
           id="path214" />
      </g>
      <g
         id="g216"
         transform="matrix(1.25,0,0,-1.25,278.94549,434.82405)">
        <path
           d="m 0,0 2.158,0.602 -0.354,-3.52 0.052,0.015 c 0.087,0.345 0.242,0.673 0.391,1.006 L 3.533,0.99 5.962,1.66 3.716,-2.795 5.497,-6.361 2.922,-7.082 2.053,-4.917 C 1.95,-4.652 1.786,-4.406 1.78,-4.096 L 1.719,-4.111 1.478,-7.484 -0.68,-8.071 0,0 Z"
           style="fill:#ffffff;fill-opacity:1;fill-rule:nonzero;stroke:none"
           id="path218" />
      </g>
    </g>
  </g>
</svg>
