<?xml version="1.0" encoding="utf-8"?>
<!-- Generator: Adobe Illustrator 13.0.2, SVG Export Plug-In . SVG Version: 6.00 Build 14948)  -->
<!DOCTYPE svg PUBLIC "-//W3C//DTD SVG 1.0//EN" "http://www.w3.org/TR/2001/REC-SVG-20010904/DTD/svg10.dtd">
<svg version="1.0" id="Ebene_1" xmlns="http://www.w3.org/2000/svg" xmlns:xlink="http://www.w3.org/1999/xlink" x="0px" y="0px"
	 width="365.045px" height="566px" viewBox="0 0 365.045 566" enable-background="new 0 0 365.045 566" xml:space="preserve">
<path d="M52.138,84.548C84.458,33.34,130.398,0.052,182.525,0c52.126,0.052,98.062,33.34,130.389,84.548
	c32.438,51.342,52.106,121.313,52.131,198.455c-0.024,77.135-19.692,147.107-52.131,198.45
	c-32.327,51.208-78.263,84.491-130.389,84.548c-52.127-0.057-98.067-33.34-130.387-84.548C19.698,430.11,0.025,360.137,0,283.002
	C0.025,205.861,19.698,135.89,52.138,84.548z"/>
<path fill="#FFED00" d="M56.596,478.63C24.789,428.313,5.292,359.237,5.283,283.004l0,0c0.009-76.239,19.506-145.315,51.313-195.633
	l0,0C88.355,37.116,132.801,5.308,182.524,5.285l0,0c49.717,0.023,94.167,31.831,125.921,82.087l0,0
	c31.808,50.317,51.305,119.394,51.318,195.633l0,0c-0.014,76.232-19.511,145.309-51.318,195.626l0,0
	c-31.754,50.253-76.204,82.064-125.921,82.087l0,0C132.801,560.695,88.355,528.883,56.596,478.63L56.596,478.63z"/>
<path d="M13.926,283.004c-0.009,74.753,19.202,142.371,49.98,191.003l0,0c30.826,48.694,72.833,78.086,118.618,78.062l0,0
	c45.778,0.024,87.79-29.367,118.617-78.062l0,0c30.773-48.632,49.984-116.25,49.974-191.003l0,0
	c0.011-74.762-19.2-142.382-49.974-191.014l0,0c-30.827-48.693-72.839-78.086-118.617-78.063l0,0
	C136.74,13.904,94.732,43.297,63.906,91.99l0,0C33.127,140.623,13.917,208.242,13.926,283.004L13.926,283.004L13.926,283.004z"/>
<path fill="#FFFFFF" d="M296.674,94.819c-0.709-1.119-1.43-2.216-2.149-3.311v18.892c3.504-2.146,6.326-3.977,8.29-5.299
	C300.82,101.589,298.781,98.147,296.674,94.819z"/>
<path fill="#FFFFFF" d="M203.883,146.41c16.737-2.646,33.228-8.021,47.921-14.139V44.314
	c-15.019-11.475-31.147-19.245-47.921-22.829V146.41z"/>
<path fill="#FFFFFF" d="M161.164,21.483c-16.772,3.584-32.903,11.354-47.922,22.827v87.976
	c14.694,6.112,31.194,11.459,47.922,14.104V21.483z"/>
<path fill="#FFFFFF" d="M62.228,105.097c1.813,1.206,4.285,2.815,7.4,4.739c0.283,0.175,0.601,0.366,0.893,0.545V91.5
	c-0.721,1.099-1.443,2.198-2.153,3.319C66.261,98.146,64.223,101.587,62.228,105.097z"/>
<path fill="#FFFFFF" d="M203.883,411.87h-42.72V238.672c-17.3,1.243-33.335,3.906-47.922,7.403V521.69
	c15.019,11.473,31.15,19.24,47.922,22.825V484.91h42.72v59.605c16.773-3.587,32.902-11.357,47.921-22.83V246.076
	c-14.582-3.495-30.617-6.154-47.921-7.398V411.87z"/>
<path fill="#FFFFFF" d="M19.282,287.477c0.729,72.061,19.554,137.069,49.086,183.709c0.71,1.121,1.432,2.22,2.153,3.318V259.791
	c-29.337,11.94-47.412,24.822-50.973,27.485C19.423,287.37,19.368,287.413,19.282,287.477z"/>
<path fill="#FFFFFF" d="M345.498,287.276c-0.464-0.341-1.173-0.86-2.12-1.528c-1.895-1.336-4.75-3.271-8.499-5.605
	c-7.503-4.663-18.601-10.922-32.842-17.19c-2.405-1.058-4.931-2.113-7.512-3.163v214.708c0.72-1.097,1.44-2.193,2.149-3.312
	c29.531-46.64,48.357-111.648,49.089-183.707C345.678,287.415,345.623,287.37,345.498,287.276z"/>
<path fill="#FFFFFF" d="M19.37,272.888c20.395-13.423,79.57-46.902,163.153-46.94c83.585,0.038,142.758,33.517,163.153,46.94
	c-1.394-59.73-15.229-114.328-37.213-157.301c-16.011,10.554-70.934,44.261-125.94,44.457c-55-0.196-109.92-33.899-125.933-44.459
	C34.603,158.558,20.768,213.157,19.37,272.888z"/>
<path d="M133.23,200.213c-0.066,5.288-2.801,11.653-6.381,15.317c-2.8,2.982-8.139,6.502-13.998,7.798
	c-10.549,2.337-17.906-5.399-20.446-18.663c-0.52-2.976-0.912-7.037-0.912-11.3c0-4.352,0.326-8.788,1.107-12.395
	c2.67-11.768,8.334-20.324,20.641-18.629c3.386,0.466,8.139,1.578,12.762,5.997c6.836,5.858,7.162,12.598,7.228,15.242l-9.312-0.274
	c-0.26-3.099-2.474-11.062-11.979-11.03c-4.428,0.035-7.88,3.843-9.441,8.968c-0.652,2.172-1.303,6.225-1.498,10.636
	c-0.13,4.418,0.195,9.151,1.498,12.861c1.561,4.304,3.71,6.73,6.12,7.84c1.237,0.497,2.474,0.664,3.842,0.489
	c1.301-0.087,2.735-0.507,4.102-1.15c6.772-3.031,6.966-8.636,7.357-11.076L133.23,200.213L133.23,200.213z"/>
<polygon points="139.376,207.014 149.143,205.929 149.143,215.354 139.376,217.033 139.376,207.014 "/>
<path d="M180.209,181.452c0.104-3.774-2.429-7.229-7.751-7.358c-3.774-0.063-6.564,1.536-6.823,5.375
	c-0.207,3.199,0.672,3.839,2.377,4.67c0.878,1.151,8.011,2.559,9.458,2.879c2.067,0.448,6.512,1.601,8.889,4.607
	c4.34,5.629,2.327,16.698-2.377,20.473c-3.204,2.559-7.598,3.199-11.784,3.263c-1.911,0.063-6.459-0.769-9.25-3.263
	c-3.359-3.007-5.013-7.614-5.272-12.029h7.545c0,1.216,0.31,3.135,1.603,4.799c1.705,2.175,4.496,2.878,7.079,2.75
	c2.584-0.063,5.014-1.024,5.996-2.174c1.654-1.92,2.015-5.567,0.155-7.87c-2.48-3.2-9.923-3.2-14.78-5.247
	c-4.083-1.728-7.442-5.374-6.822-12.924c0.62-7.421,4.96-12.923,14.161-12.923c2.015,0,9.044,0.191,12.713,5.95
	c1.965,3.134,2.482,7.485,2.173,9.021H180.209L180.209,181.452z"/>
<path d="M74.52,227.646l-8.804,1.07l-2.878-14.496l-15.169,1.19l-2.81,16.073l-9.297,0.895l14.617-78.623l12.264,0.932
	L74.52,227.646L74.52,227.646z M50.005,202.041l10.76-0.446l-5.582-29.183L50.005,202.041L50.005,202.041z"/>
<polygon points="79.314,212.927 87.947,212.252 87.947,226.015 79.314,227.063 79.314,212.927 "/>
<polygon points="202.292,213.551 195.284,212.616 195.414,167.792 202.292,166.924 202.292,213.551 "/>
<polygon points="240.962,162.443 240.962,172.22 219.209,173.738 219.209,185.392 239.293,185.218 239.293,194.918 219.209,194.166 
	219.209,207.363 241.941,209.789 241.941,219.611 210.58,214.817 210.58,165.965 240.962,162.443 "/>
<polygon points="259.154,161.393 276.854,209.873 276.152,158.632 284.783,157.633 284.74,226.452 271.658,223.708 256.982,179.177 
	256.982,221.91 248.349,220.591 248.349,161.587 259.154,161.393 "/>
<path d="M304.127,155.087l9.946-1.076l15.411,78.41l-8.816-0.944l-3.094-15.828l-15.549-0.995l-2.73,14.536l-8.813-0.944
	L304.127,155.087L304.127,155.087z M309.256,172.741l-5.287,29.261l10.767,0.293L309.256,172.741L309.256,172.741z"/>
<path d="M288.223,355.898c-0.256-0.245-0.475-0.363-0.648-0.358l-0.824,0.028l-0.747-0.196l-0.829,0.034
	c-4.289,0.178-12.104-2.321-13.432-3.057l-0.658-0.41l-0.767-0.296c-0.622-0.248-4.766-2.652-6.179-3.812
	c-1.957-1.616-4.317-4.122-7.081-7.525c-1.463-1.799-3.582-4.877-6.364-9.228c-2.006-3.139-4.304-5.718-6.9-7.737
	c-1.3-1.015-2.187-1.62-2.657-1.828c-0.101-0.044-1.431-0.37-3.981-0.974l-0.791-0.226l-0.796-0.18
	c-0.684-0.149-1.413-0.504-2.187-1.053c-0.352-0.254-0.566-0.403-0.648-0.454c-0.707-0.438-1.357-0.898-1.952-1.369
	c-2.954-2.371-8.74-3.323-9.195-3.263l-0.812,0.111c-0.08,0.013-1.172-0.016-3.28-0.078c-2.551-0.071-5.243,0.243-8.067,0.942
	c-0.196,0.052-0.466,0.107-0.802,0.168c-0.393,0.073-1.447,0.343-3.172,0.813c-2.334,0.633-4.48,0.98-6.444,1.054
	c-0.56,0.016-1.11,0.056-1.654,0.111c-1.21,0.13-3.145,0.056-5.806-0.211l-0.832-0.059l-0.8-0.16
	c-1.072-0.226-2.727-0.332-4.969-0.332c-6.047,0.011-9.619-0.038-10.707-0.146c-0.33-0.033-1.698-0.033-4.098,0.005
	c-4.177,0.066-7.995-0.274-11.454-1.019c-2.753-0.591-6.583-1.027-11.472-1.295c-2.881-0.163-5.057-0.136-6.531,0.066l-0.813,0.111
	l-0.803-0.162c-0.862-0.179-2.372,0.273-4.518,1.368c-0.466,0.234-0.718,0.359-0.758,0.375l-0.728,0.28l-0.657,0.422
	c-0.757,0.481-2.433,0.918-3.173,0.711l-0.792-0.226l-0.801,0.069c-0.124,0.011-1.552-0.247-1.615-0.288
	c-0.168-0.111-0.291-0.256-0.37-0.43c-0.05-0.101-0.05-0.651-0.005-1.649c-0.05-0.234-0.229-0.419-0.555-0.555
	c-0.028,0.011-0.487,0.214-1.373,0.617c-1.542,0.7-3.398,0.885-5.567,0.572c-1.777-0.258-3.135-0.221-4.071,0.116
	c-0.302-0.162-0.516-0.308-0.627-0.433l-0.549-0.593c-1.721-1.901-4.67-3.179-8.836-3.834c-2.024-0.32-4.345-1.05-6.963-2.197
	c-1.177-0.518-1.895-0.803-2.164-0.854c-0.616,0.158-0.914,0.562-0.88,1.201c0.331,0.515,0.679,1.232,1.043,2.157
	c-0.168,0.252-0.319,0.382-0.454,0.382l-0.841,0.006c-0.28,0-0.561,0-0.84,0c-0.281,0-0.561,0-0.841,0
	c-0.213,0.067-0.37,0.241-0.476,0.52c0.111,0.248,0.213,0.506,0.302,0.763c0.225,0.662,0.521,1.424,0.902,2.289
	c0.102,0.229,0.275,0.744,0.527,1.552c0.387,1.239,0.667,2.013,0.829,2.322c0.229,0.437,0.567,0.852,1.004,1.232l0.605,0.528
	c0.096,0.083,0.179,0.257,0.264,0.53c-1.626,0.754-3.286,2.02-4.974,3.796c-1.031,1.095-1.995,2.002-2.886,2.737
	c-0.853,0.707-1.676,1.366-2.472,1.984c-2.86,2.237-4.828,3.622-5.898,4.154l-0.673,0.337c-2.546,1.266-2.759,1.743-2.327,3.566
	c0.303,1.306,0.588,2.018,0.853,2.14l0.718,0.332c0.135,0.061,0.33,0.179,0.6,0.353l0.572,0.562
	c0.892,0.869,2.416,1.344,4.586,1.436c0.633,0.022,1.991-0.147,4.059-0.511c1.093-0.191,2.192-0.27,3.286-0.236
	c-0.735,0.596-1.963,0.954-3.689,1.07c-1.262,0.096-2.013,0.292-2.254,0.602c-0.23,0.301-0.314,0.526-0.253,0.683l0.303,0.753
	l0.146,0.812c0.011,0.066,0.678,1.128,0.846,1.313c0.762,0.881,2.298,1.469,3.667,0.885l0.684-0.296
	c0.976-0.415,2.866-0.64,5.68-0.685c1.693-0.029,3.032,0.129,4.02,0.455c1.406,0.477,2.466,0.733,3.178,0.777l0.83,0.059
	l0.746,0.229c0.623,0.189,3.588,0.544,4.9,0.263l0.779-0.281l0.751-0.211c0.218-0.063,0.673-0.321,1.363-0.776
	c0.891-0.588,1.648-0.852,2.281-0.784c1.021,0.106,1.75,0.433,2.17,0.992l0.465,0.617c0.113,0.145,0.32,0.214,0.628,0.207
	c0.454-0.011,0.813-0.358,1.071-1.054l0.28-0.774c0.051-0.133,0.202-0.291,0.455-0.475c1.02,1.074,2.13,1.03,3.33-0.146
	c0.089,0.539,0.325,1.01,0.701,1.406c1.182,0.045,1.973-0.129,2.372-0.497l0.583-0.551c0.257-0.24,0.464-0.393,0.61-0.448
	c0.252-0.096,0.813-0.118,1.671-0.063c1.003,0.067,3.722,1.14,4.63,2.979l0.303,0.751c0.792,1.946,1.884,3.424,3.292,4.463
	c0.375,0.273,1.043,0.733,2.013,1.379c0.69,0.46,1.284,0.992,1.788,1.599c0.36,0.43,0.74,1.137,1.156,2.124l0.318,0.751
	c0.141,0.33-0.163,1.957-0.897,4.884c-0.936,3.723-3.386,7.815-7.367,12.277c-1.16,1.3-1.939,2.354-2.348,3.175l-0.359,0.744
	c-0.477,0.98-0.858,1.688-1.16,2.119c-0.73,1.044-1.162,1.732-1.302,2.073l-0.302,0.763c-0.124,0.314-0.78,1.146-1.957,2.496
	c-0.331,0.381-0.505,0.582-0.516,0.6l-0.487,0.629l-0.606,0.47c-0.998,0.768-1.67,1.588-2.018,2.461l-0.308,0.77
	c-0.051,0.129-0.197,0.296-0.433,0.499c-0.958,0.038-2.842,0.301-5.645,0.812c-2.439,0.443-3.896,1.812-4.368,4.104
	c-0.331,1.598,0.42,2.39,2.259,2.39h0.841c0.174,0,0.409,0.089,0.718,0.285l0.544,0.551c0.285,0.285,1.63,0.162,4.037-0.377
	c2.231-0.499,4.131-0.695,5.696-0.593c1.3,0.089,2.102,0.06,2.405-0.085c0.763-0.354,1.277-0.937,1.558-1.761l0.264-0.78
	c0.252-0.763,0.885-1.215,1.889-1.366l0.785-0.114c0.381-0.056,0.723-0.459,1.032-1.21l0.296-0.744l0.521-0.577
	c0.135-0.147,0.218-0.406,0.257-0.776l-0.178-0.812c-0.023-0.096,0.605-0.947,1.873-2.557c1.082-1.368,2.892-3.987,5.444-7.861
	c1.542-2.343,2.702-4.152,3.476-5.414c0.896-1.469,2.298-3.415,4.193-5.82c0.044,0.111,0.056,0.179,0.044,0.201l-0.42,0.685
	c-0.033,0.056-0.157,0.303-0.354,0.739c-0.37,0.792-1.458,2.608-3.269,5.457l-0.415,0.688l-0.533,0.6
	c-0.409,0.459-2.22,3.083-5.45,7.866l-0.415,0.688c-0.98,1.639-1.547,2.557-1.698,2.742l-0.505,0.624
	c-0.095,0.115-0.185,0.334-0.269,0.648l0.285,0.718c0.073,0.181,0.113,0.459,0.113,0.829c0.011,0.186,0.207,0.325,0.594,0.421
	c0.152-0.303,0.235-0.537,0.253-0.695l0.089-0.84c0.005-0.029,0.135-0.263,0.392-0.695c0.634-1.077,1.06-1.739,1.268-1.979
	c-0.168,0.644,0.056,1.088,0.679,1.328c0.381-0.414,0.723-1.384,1.02-2.92c0.219-1.105,0.482-1.872,0.79-2.309
	c0.185,0.093,0.292,0.178,0.309,0.251l0.202,0.789c0.04,0.163,0.157,0.389,0.354,0.674c0.324,0.011,0.526-0.09,0.616-0.301
	c-0.023-1.774,0.465-3.601,1.469-5.479c0.336,0.422,0.521,0.896,0.561,1.436c0.146,0.196,0.37,0.241,0.685,0.141
	c0.162-2.338,0.84-4.369,2.029-6.09c0.206,0.174,0.319,0.314,0.324,0.426l0.05,0.836c0.011,0.191,0.179,0.393,0.5,0.606
	c0.19-0.158,0.325-0.354,0.415-0.584c0.006-0.022,0.023-0.304,0.04-0.841c0.067-1.99,0.32-3.341,0.768-4.054l0.426-0.678
	c1.122-1.776,1.778-2.894,1.301-3.549c-0.605,0.022-1.031,0.314-1.273,0.869c-0.089-0.125-0.128-0.236-0.117-0.336
	c2.012-2.506,3.43-4.02,4.272-4.536l0.628-0.386l0.768-0.299l0.751-0.386l0.768-0.299l0.718-0.358
	c0.14-0.071,0.347-0.005,0.611,0.191l0.655,0.415c0.174,0.111,0.679,0.273,1.521,0.51c0.123,0.123,0.174,0.297,0.15,0.521
	c-0.291,0.219-0.526,0.363-0.694,0.433l-0.764,0.308c-0.106,0.038-0.588,0.308-1.451,0.807c-1.126,0.651-1.957,1.995-2.49,4.037
	c-0.101,0.393-0.168,0.947-0.185,1.665c-0.039,1.21-0.454,2.793-1.24,4.748c-1.098,2.737-1.53,4.317-1.295,4.743l0.371,0.685
	c1.037,1.905,2.449,3.049,4.232,3.419l0.802,0.169c1.199,0.252,1.889,0.618,2.063,1.1c0.033,0.096,0.022,0.37-0.028,0.824
	l-0.163,0.822c-0.202,0.999,0.252,2.749,0.69,3.156l0.583,0.551c0.067,0.067,0.152,0.214,0.247,0.437
	c-1.183,0.078-2.215,0.858-3.101,2.327c-0.577,0.952-1.125,1.51-1.647,1.661l-0.79,0.234c-1.01,0.292-1.531,0.784-1.577,1.469
	c0.159,0.817,0.786,1.221,1.879,1.217c1.126-0.012,2.747-0.236,4.861-0.685c1.12-0.236,2.191-0.185,3.217,0.163
	c0.034,0.011,0.296,0.096,0.779,0.252c0.97,0.31,1.996,0.673,3.066,1.088c1.857,0.713,3.454,1.065,4.8,1.061
	c1.939-0.007,3.284-0.673,4.037-1.99c0.915,0.53,1.995,0.697,3.22,0.546c0.25,0.629,0.628,1.215,0.718,1.679
	c0.462,0.477,0.052,2.416,1.582,2.663c0.448,0,0.558-0.392,0.563-0.619c-0.005-0.123-0.015-0.245-0.015-0.341
	c-0.792-0.945-0.756-2.383-1.271-3.598c1.127-0.165,2.194-0.228,3.15-0.097c1.524,0.208,2.563,0.056,3.111-0.447
	c0.773-0.718,0.854-1.392,0.236-2.024c0.285-0.207,0.504-0.348,0.655-0.421l0.752-0.375c0.298-0.149,1.189-0.887,2.607-2.15
	c1.023,0.827,2.136,1.514,3.105,2.133l0.419,0.278l-0.127-0.49c-0.063-0.245-0.09-0.477-0.09-0.699
	c-0.011-1.269,0.9-2.314,1.444-3.603c0.031-0.141,0.083-0.303,0.127-0.455c0.114,0.052,0.228,0.103,0.33,0.192l0.611,0.528
	c1.283,1.121,4.361,1.384,6.087-0.019c0.533-0.437,0.714-0.885,0.528-1.344c-0.018-0.04-0.403-0.398-1.168-1.102
	c-0.822-0.748-1.467-1.596-1.933-2.527l-0.365-0.729c-0.577-1.166-0.985-1.877-1.211-2.131c-0.661-0.745-1.391-0.9-2.187-0.464
	c0.045-0.096,0.448-0.784,1.222-2.068c0.651-1.088,0.987-2.104,0.999-3.04c0.004-0.564-0.043-1.051-0.118-1.494l1.571-1.56
	l0.058-3.382l-1.533-0.678c0.245-0.588,0.511-1.324,0.803-2.256c0.218-0.688,0.577-1.411,1.092-2.153
	c1.201-1.731,1.856-3.205,1.979-4.427c0.111-1.184-0.551-3.713-1.811-4.34l-0.751-0.376c-0.136-0.061-0.332-0.201-0.591-0.408
	c0.107-0.254,0.281-0.45,0.518-0.602c0.016-0.012,0.278-0.071,0.796-0.186c1.587-0.352,2.612-0.718,3.066-1.081
	c0.959-0.773,1.474-1.688,1.536-2.741l0.045-0.825c0.007-0.129,0.236-0.622,0.69-1.473c0.767-1.458,0.604-2.716-0.483-3.763
	c-0.101-0.101-0.555-0.403-1.355-0.903c-0.31-0.189-0.909-0.722-1.801-1.591c-0.033-0.314,0.111-0.522,0.426-0.622
	c1.564,0.566,2.815,1.458,3.77,2.668c1.366,1.761,1.994,2.572-0.444,7.541c-1.025,2.091-0.813,2.837,3.42,5.185
	c3.718,2.075,5.942,3.577,6.66,4.498l0.483,0.621c0.348,0.448,1.144,0.526,2.381,0.234c1.146-0.274,1.901-0.341,2.267-0.2
	c0.134,0.341,0.078,0.577-0.174,0.718c-0.495-0.04-1.313,0.056-2.449,0.285c-1.565,0.31-1.891,0.803-2.334,1.895
	c-0.907,2.254-2.073,4.333-3.493,6.241c-0.296,0.403-0.448,0.61-0.459,0.629l-0.388,0.671c-0.194,0.354-0.727,0.936-1.585,1.745
	c-0.332,0.308-0.695,0.693-1.088,1.166c-0.61,0.722-0.982,1.114-1.105,1.177l-0.751,0.374c-0.751,0.377-1.188,0.695-1.307,0.965
	l-0.33,0.729c-0.466,1.036-1.497,1.827-3.089,2.376c-1.542,0.528-2.367,1.139-2.468,1.834c0.123,0.33,0.259,0.537,0.41,0.622
	l0.723,0.403c0.158,0.09,0.32,0.299,0.477,0.629l0.219,0.807c0.203,0.718,0.722,1.313,1.571,1.779
	c0.415,0.227,0.667,0.356,0.749,0.374c0.113,0.022,0.573-0.011,1.375-0.111c0.285-0.036,0.667-0.036,1.155,0.016
	c1.181,0.125,2.864-2.313,2.891-3.426l0.024-0.834c0.005-0.113,0.492-1.083,0.767-1.413c0.101-0.125,0.747-0.577,1.931-1.357
	c1.446-0.958,2.993-2.769,4.641-5.438c3.297-5.321,5.646-7.468,8.695-9.177c1.173-0.655,2.02-1.244,2.534-1.772
	c0.729-0.746,1.199-1.373,1.425-1.877c0.666-1.509,0.515-2.752-0.448-3.74c-0.181-0.185-0.617-0.492-1.317-0.925
	c-1.465-0.909-2.468-2.108-3.029-3.589c-0.419-1.099-0.711-1.85-0.878-2.26c0.044-0.101,0.122-0.186,0.233-0.241
	c0.219,0.158,0.438,0.314,0.655,0.473c0.221,0.156,0.439,0.308,0.658,0.464l0.655,0.473c2.55,1.821,4.703,2.92,6.464,3.285
	c2.494,0.516,4.547,1.284,6.156,2.28c2.501,1.561,4.978,2.682,7.44,3.375l0.789,0.225c3.141,0.886,4.936,1.447,5.383,1.699
	c2.843,1.587,3.224,1.895,3.408,4.921c0.022,0.377,0.063,2.619,0.107,6.723c0.016,1.28,0.145,2.659,0.388,4.15
	c0.167,1.048-0.04,2.106-0.606,3.184c-0.725,1.357-1.095,2.063-1.109,2.126l-0.215,0.801c-0.14,0.517-1.917,0.702-2.157,0.644
	l-0.796-0.185c-1.639-0.375-2.216,0.092-3.515,1.361l-0.573,0.569c-0.123,0.122-0.358,0.229-0.7,0.313l-0.784,0.224
	c-0.518,0.146-1.387,1.25-1.738,2.552c-0.522,1.928,0,4.5,2.516,3.363l0.725-0.325c0.268-0.122,0.526-0.169,0.767-0.129
	c0.074,0.011,0.314,0.145,0.714,0.392l0.655,0.41l0.803,0.152l0.8,0.16l0.813-0.134c0.141-0.022,0.41-0.073,0.807-0.151
	c1.211-0.234,2.287-0.33,3.219-0.268c2.165,0.134,3.712-0.214,4.637-1.057c0.807-0.738,1.144-1.451,0.992-2.129l-0.175-0.817
	c-0.14-0.658-0.106-1.19,0.09-1.609c0.236,0.004,0.473-0.029,0.695-0.103c0.384-0.116,0.584-0.224,0.624-0.319l0.323-0.762
	l0.584-0.556l0.584-0.548c0.308-0.292,0.622-2.435,0.308-4.06c-0.033-0.181-0.191-0.713-0.455-1.604
	c-1.125-3.773-1.007-5.972-0.51-9.928c0.421-3.353,0.45-5.854,0.078-7.508c-0.094-0.414-0.179-0.965-0.245-1.643
	c-0.112-1.109-0.354-1.879-0.725-2.305c-0.012-0.101,0.033-0.225,0.136-0.358c0.874,0.61,1.576,0.885,2.117,0.84l0.052-0.796
	c0.118-0.078,0.236-0.111,0.354-0.1c1.137,1.014,2.59,1.738,4.366,2.175c1.099,0.264,1.901,0.292,2.409,0.078l0.691-0.292
	c0.167-0.071,0.426-0.082,0.78-0.044c0.212-0.201,0.274-0.438,0.178-0.696c-0.432-0.308-0.869-0.615-1.316-0.907
	c0.062,0.012,0.543,0.168,1.439,0.466c2.485,0.841,2.982,0.756,4.799,0.286c1.335-0.348,2.49-0.977,3.481-1.884l-0.104-0.673
	c0.167-0.241,0.308-0.399,0.419-0.471l0.662-0.417c0.729-0.452,1.177-1.11,1.335-1.961
	C288.393,357.193,288.36,356.638,288.223,355.898z"/>
<path fill="#FFFFFF" d="M280.879,359.52c-0.056,0.134,0.073,0.341,0.405,0.617c0.189,0.163,1.215,0.486,3.076,0.97
	c-2.836,1.295-7.915,0.37-10.231-2.922l-0.459-0.655c-0.308-0.438-0.747-0.695-1.328-0.773c-0.433,0.537-0.399,1.283,0.104,2.225
	c0.646,1.205,1.25,2.075,1.816,2.619c-2.595-0.196-4.349-1.244-5.273-3.146c-0.232-0.477-0.636-1.48-1.217-3.012
	c-0.674-1.794-1.569-2.635-2.671-2.527c-0.145,0.515,0.188,1.177,0.983,1.99l0.555,0.566c0.089,0.089,0.381,0.852,0.892,2.287
	c-0.214,0.229-0.321,0.414-0.332,0.555l-0.056,0.825c-0.005,0.118-0.129,0.247-0.37,0.392c-1.406-0.492-2.539-1.95-3.393-4.373
	c-0.016-0.056-0.33-0.8-0.937-2.235c-0.151-0.365-0.251-0.617-0.301-0.763c-0.584-1.7-1.504-3.007-2.759-3.932
	c-0.947-0.695-1.621-1.081-2.018-1.166c-0.266,0.214-0.337,0.438-0.214,0.678c0.718,0.365,1.476,1.112,2.265,2.261
	c1.099,1.58,0.089,2.771-0.012,2.864c-0.559-0.319-3.481-3.038-3.426-6.166c0.052-2.463,0.022-3.852-0.066-4.166
	c-0.189-0.191-0.426-0.218-0.695-0.089c-0.146,0.334-0.224,0.588-0.229,0.763l-0.027,0.84l-0.454,0.61
	c-0.107,0.147-0.259,0.37-0.444,0.667c-0.145-0.134-0.223-0.234-0.229-0.297l-0.078-0.84c-0.103-1.006-0.343-1.79-0.739-2.36
	c-0.354-0.504-0.736-0.685-1.15-0.526c-0.78-1.246-1.514-1.975-2.214-2.187c-0.247,0.274-0.332,0.497-0.258,0.671l0.318,0.758
	l0.343,0.744c0.208,0.455,0.308,0.707,0.302,0.751c-0.01,0.221-0.094,0.41-0.241,0.573c-0.582-1.139-0.918-2.171-1.01-3.094
	c-0.16-1.705-0.52-3.012-1.063-3.925c-0.92-1.525-1.678-2.932-2.282-4.218c-0.544-1.137-0.937-1.832-1.173-2.091
	c-0.096-0.101-0.289-0.278-0.599-0.532c-0.271-0.224-0.66-0.582-1.188-1.077c-0.622-0.582-1.262-1.029-1.928-1.328
	c-1.084-0.488-1.835-0.577-2.265-0.268c0.077,0.353,0.207,0.555,0.381,0.604l0.789,0.226c1.895,0.548,4.036,3.161,6.438,7.833
	c0.751,1.479,1.328,3.586,1.714,6.334c0.414,2.954,1.688,6.217,3.813,9.802c1.861,3.127,3.497,5.213,4.933,6.254
	c1.851,1.347,3.453,2.289,4.811,2.822c1.324,0.508,2.164,1.147,2.523,1.905l0.348,0.733c0.174,0.366,0.477,0.796,0.892,1.302
	l0.41-0.37c0.24,0.326,0.426,0.836,0.553,1.529l0.151,0.813l0.292,0.78c0.113,0.304,0.147,1.418,0.113,3.353
	c-0.006,0.381-0.158,1.772-0.443,4.166c-0.348,2.92-0.303,5.432,0.13,7.522c0.336,1.599,0.581,2.668,0.751,3.219l0.263,0.763
	c0.045,0.106,0.056,0.666,0.045,1.683c-0.005,0.822-0.134,1.34-0.375,1.547l-0.605,0.526L266,390.057l-0.763,0.325
	c-0.65,0.281-1.232,1.42-1.149,1.964l0.118,0.818c0.066,0.448,0.084,0.718,0.056,0.807c-0.034,0.107-0.892,1.139-1.025,1.222
	c-0.422,0.27-1.229,0.303-2.428,0.103c-1.486-0.259-2.826-0.181-4.01,0.223l-0.778,0.263c-1.189,0.41-1.985,0.556-2.389,0.45
	c-0.152-0.735,0.348-3.64,2.26-3.644h0.84c0.333,0,0.858-0.152,1.576-0.448c0.6-0.254,0.999-0.584,1.206-1.006
	c0.052-0.289-0.063-0.521-0.348-0.695c-0.359-0.049-0.61-0.011-0.751,0.118l-0.556,0.518c-0.1,0.089-0.902,0.24-2.416,0.448
	c-1.065,0.151-1.776,0.459-2.138,0.929c-0.223,0.292-0.426,0.78-0.593,1.454c-0.247,0.963-0.37,1.479-0.393,1.547
	c-0.348-0.192-0.617-0.241-0.807-0.163l-0.725,0.303c-0.572,0.236-1.031,0.23-1.373-0.021c0.078-0.344,0.134-0.6,0.152-0.773
	l0.089-0.836c0.007-0.056,1.665-2.539,2.899-2.546h0.841c0.263,0,0.796-0.141,1.587-0.421c0.992-0.353,2.058-0.589,3.201-0.705
	c1.054-0.113,1.591-0.169,1.613-0.174c0.236-0.31,0.348-0.555,0.337-0.753l-0.045-0.841c-0.04-0.795,0.174-1.563,0.629-2.302
	c0.996-1.632,1.462-2.871,1.384-3.725c0-0.034-0.051-0.302-0.151-0.818c-0.085-0.441-0.181-0.999-0.274-1.654
	c-0.051-0.341-0.158-0.88-0.303-1.636c-0.285-1.469-0.422-3.422-0.393-5.849c0.033-3.005-0.191-4.917-0.685-5.735
	c-0.521-0.862-2.708-1.832-3.363-1.969l-0.803-0.167l-0.762-0.336c-0.201-0.09-1.519-0.448-3.952-1.077
	c-0.97-0.252-1.975-0.695-3.016-1.328c-3.981-2.428-6.034-3.7-6.156-3.801c-0.118-1.431-0.215-2.26-0.292-2.496
	c-0.257-0.785-0.785-1.373-1.581-1.766c-0.225-0.066-0.459,0.011-0.702,0.226c-0.004,1.007-0.009,1.547-0.016,1.625
	c-0.066,0.661-0.263,1.132-0.61,1.413c-2.367-0.152-3.914-0.622-4.621-1.413l-0.532-0.594c-1.255-1.401-2.769-2.489-4.529-3.263
	c-3.292-1.453-5.539-2.894-6.745-4.307l-0.515-0.6l-0.691-0.219l-0.718-0.336l-0.784-0.229c-1.436-0.417-2.953-1.839-4.559-4.262
	l-0.43-0.656l-0.528-0.595c-0.107-0.118-0.189-0.341-0.259-0.666l-0.078-0.813c-0.016-0.179-0.807-0.988-1.147-1.093l-0.78-0.247
	l-0.563-0.566c-0.263-0.27-1.029-0.549-2.302-0.847c-7.659-1.795-17.017,1.99-17.856,3.348c0.381,0.185,0.869,0.189,1.457,0.016
	l0.785-0.229c2.315-0.685,4.458-1.081,6.424-1.192c-0.952,1.029-1.418,1.921-1.389,2.672c0.29,0.163,0.504,0.196,0.638,0.101
	l0.628-0.437c0.433-0.297,1.211-0.297,2.332,0.011l0.796,0.221c0.191,0.056,0.454-0.018,0.787-0.221l0.485-0.638
	c0.096-0.124,0.299-0.231,0.613-0.32l0.817,0.113c0.248,0.033,1.077,0,2.49-0.103c2.786-0.196,3.794,0.029,5.381,1.161
	c-0.156,0.952-1.547,1.218-4.166,0.785l-0.8-0.167c-0.596-0.125-2.16,0.273-2.339,0.614l-0.365,0.702
	c-0.319,0.611-1.288,1.025-2.909,1.256c-2.96,0.414-3.448,0.862-4.691,2.746c-0.332,0.51-0.707,0.887-1.121,1.127
	c-0.5-0.374-0.825-0.779-0.966-1.21l-0.252-0.784c-0.1-0.311-0.247-0.533-0.443-0.681c-0.056-0.037-0.308-0.111-0.763-0.218
	l-0.802-0.179c-0.208-0.044-0.801-0.746-0.822-1.328l-0.029-0.843c-0.016-0.566-0.186-1.07-0.504-1.514
	c-0.562-0.218-1.184,0.17-1.872,1.161c-0.792,1.137-1.262,1.783-1.413,1.936c-0.019,0.016-0.208,0.189-0.584,0.532
	c-0.544,0.493-0.93,0.874-1.159,1.137c-0.074,0.214-0.063,0.433,0.033,0.645c0.229,0.28,0.43,0.443,0.615,0.483l0.763,0.167
	c0.162,0.034,0.358,0.181,0.584,0.433c-0.007,0.281-0.085,0.537-0.241,0.773c-0.04,0.063-0.691,0.555-1.946,1.491
	c-1.036,0.773-1.727,1.547-2.068,2.327l-0.325,0.744c-0.263,0.618-0.628,0.921-1.081,0.91c-1.306-0.77-1.979-1.536-2.018-2.294
	l-0.045-0.841l-0.572-0.562l-0.555-0.537c-0.393-0.388-0.348-1.783,0.342-2.271l0.661-0.477c0.146-0.101,0.359-0.263,0.64-0.481
	c-0.707-0.825-3.319,0.433-3.83,1.58l-0.325,0.725c-0.072,0.163-0.213,0.393-0.415,0.688l-0.622,0.528
	c-0.51,0.438-1.071,1.34-1.677,2.713c-0.661,1.509-1.844,2.512-3.554,3.005c-0.499,0.151-0.762,0.225-0.785,0.236l-0.774,0.296
	c-0.145,0.056-0.375,0.029-0.689-0.084c-0.151-0.319-0.241-0.56-0.269-0.729l-0.146-0.822c-0.129-0.735-0.572-1.387-1.324-1.953
	c-0.937-0.717-1.475-1.613-1.62-2.694c-0.151-1.168-0.089-2.278,0.18-3.33c-0.057-0.214-0.214-0.365-0.472-0.455
	c-0.807,0.37-1.441,0.823-1.889,1.345l-0.511,0.602c-1.262,1.484-2.876,2.068-3.611-0.129c-0.409-1.199-0.572-2.009-0.504-2.412
	l0.14-0.818c0.034-0.178-0.084-0.398-0.353-0.65c-0.371,0.044-0.584,0.174-0.628,0.381c-0.431,2.956-0.011,5.343,1.267,7.182
	c1.245,1.801,1.946,2.934,2.097,3.41c0.808,2.562-0.202,4.871-3.016,6.917c-0.729,0.532-1.16,0.836-1.301,0.902l-0.768,0.304
	c-0.068,0.028-3.095,2.113-6.292,6.134c-1.014,1.277-2.533,3.486-4.551,6.604c-0.213,0.337-0.858,1.188-1.923,2.539
	c-0.012,0.011-0.157,0.236-0.438,0.666l-0.426,0.669l-0.477,0.626l-0.381,0.691l-0.477,0.645c-4.698,6.375-6.951,9.957-6.761,10.736
	l0.185,0.785c0.034,0.134-0.225,0.902-0.999,1.059l-0.044,0.843c-0.19,0.323-0.387,0.492-0.577,0.508l-0.825,0.08
	c-0.931,0.083-1.828,0.997-2.68,2.753c-0.494,1.03-1.11,1.447-1.839,1.237l-0.79-0.223c-1.211-0.337-2.568-0.348-4.083-0.033
	l-0.795,0.211l-0.813,0.114c-0.971,0.134-1.508,0.229-1.615,0.278l-0.718,0.365c-0.168,0.085-0.431,0.152-0.79,0.201
	c-0.864-1.658,0.611-3.342,0.953-3.537c0.224-0.13,1.261-0.359,1.609-0.337l0.823,0.058c0.124,0.012,0.627-0.259,0.657-0.809
	c-1.648-0.33-2.984-0.234-3.998,0.28c-0.717,0.366-1.126,0.685-1.228,0.954l-0.28,0.756c-0.229,0.629-0.455,1.099-0.673,1.408
	c-0.578,0.224-1.065,0.101-1.463-0.376c-0.117-1.284,0.601-2.339,2.142-3.168c1.042-0.562,2.068-0.88,3.066-0.954l0.83-0.049
	l0.813-0.118c0.438-0.063,0.718-0.063,0.841,0l0.679,0.341c0.667,0.344,1.25-0.06,1.754-1.21l0.285-0.769
	c0.124-0.335,1.004-1.333,2.653-2.982c0.773-0.778,1.985-2.523,3.627-5.229c2.107-3.478,3.397-5.506,3.846-6.09
	c5.354-6.89,7.691-11.441,9.223-15.872l0.27-0.773l0.47-0.649c0.101-0.146,1.637-6.111-0.056-8.942
	c-2.344-3.937-4.262-6.094-5.753-6.493c-0.269-0.016-0.509,0.101-0.723,0.366c-0.23,0.6,0.044,1.295,0.808,2.084
	c1.48,1.542,2.237,2.612,2.265,3.219c0.028,0.6-0.163,1.076-0.572,1.424c-0.583,0.174-1.184,0.016-3.363-1.928
	c-1.424-1.269-2.198-1.997-2.333-2.176c-0.084-0.118-0.976-2.136-0.958-2.254l0.112-0.751l-0.04-0.843
	c-0.005-0.174,0.05-0.425,0.168-0.762l0.28-0.763c0.068-0.178,0-0.419-0.207-0.733c-0.309-0.136-0.556-0.118-0.741,0.045
	c-0.208,0.27-0.341,0.481-0.398,0.64l-0.274,0.763c-0.135,0.37-0.897,0.437-2.282,0.2c-1.053-0.185-1.861-0.314-2.433-0.386
	c0.113-0.229,0.202-0.381,0.27-0.461l0.539-0.6c0.481-0.533,0.7-1.311,0.655-2.332c-0.039-0.762-0.415-1.439-1.127-2.035
	c-0.257-0.063-0.482,0.016-0.667,0.241c0.005,0.274,0.022,0.555,0.05,0.829c0.062,0.606,0.056,1.436-0.028,2.501l-0.068,0.84
	c-0.022,0.255-0.448,0.551-1.278,0.903l-0.707,0.299l-0.583,0.56c-0.134,0.129-0.387,0.24-0.746,0.325
	c-0.257,0-0.481-0.096-0.667-0.281c0.034-0.544-0.37-1.014-0.914-1.065c-0.314,0.147-0.533,0.281-0.656,0.406l-0.561,0.565
	c-0.135,0.134-0.387,0.189-0.757,0.161l-0.751-0.375l-0.786-0.229l-0.7-0.448c-0.157-0.096-0.409-0.113-0.762-0.047
	c0.017,0.377-0.035,0.646-0.146,0.814l-0.427,0.64c-0.117,0.178-0.128,0.459-0.022,0.84c-0.308-0.303-0.757-0.515-1.356-0.64
	l-0.801-0.156l-0.774-0.28c-0.398-0.146-0.942-0.107-1.63,0.113c-2.361,0.751-3.885,1.166-4.575,1.244
	c-1.419,0.162-3.302-0.019-5.651-0.551c-2.137-0.486-4.306-0.763-6.509-0.829c-1.273-0.045-2.103-0.022-2.484,0.056l-0.801,0.174
	c-0.213,0.047-0.762,0.085-1.654,0.113c-0.819,0.027-1.369,0.101-1.637,0.208l-0.768,0.303c-0.342,0.134-1.385,0.145-1.62,0.056
	c-0.589-0.229-0.942-0.898-1.071-2.008c1.34-0.667,10.652-2.176,12.038-1.576l0.722,0.314c0.314,0.136,1.104,0.348,2.372,0.646
	c1.094,0.256,1.891,0.218,2.383-0.107l0.252-0.61l0.36,0.459c0.313,0.026,0.526-0.04,0.645-0.203
	c0.892-1.059-0.387-4.211-4.536-3.834c-0.633,0.063-2.528,0.146-5.684,0.259c-1.2,0.038-2.821,0.278-4.873,0.718
	c-1.25,0.263-6.392,0.874-8.225,0.548c-0.168-0.028-0.7-0.151-1.592-0.363c-0.264-0.068-0.533-0.124-0.802-0.169
	c-0.208-0.151-0.274-0.386-0.202-0.7c0.247-0.103,0.488-0.221,0.718-0.354c1.115-0.655,1.755-1.076,1.923-1.272
	c-0.248-0.706-0.999-0.852-1.234-0.773l-0.779,0.241c-1.665,0.517-2.473,0.158-2.394-1.088c0.337-0.363,1.256-0.919,2.753-1.665
	c1.429-0.718,4.631-3.116,9.598-7.193c1.166-0.958,2.54-2.213,4.109-3.771c0.88-0.869,1.715-1.505,2.501-1.901
	c1.575-0.807,2.035-0.74,2.825,0.067l0.555,0.572c0.129,0.134,0.375,0.234,0.734,0.308c0.218,0.052,0.455-0.044,0.701-0.292
	c0.061-0.245,0.05-0.488-0.039-0.729c-0.017-0.045-0.348-0.471-0.982-1.277c-1.199-1.521-2.052-3.208-2.544-5.053l-0.22-0.796
	c-0.218-0.818-0.829-2.303-1.844-4.479c0.242,0.101,0.482,0.212,0.723,0.325c1.537,0.729,2.832,1.166,3.897,1.312
	c5.219,0.729,8.729,2.041,10.54,3.94c1.643,1.734,2.187,4.144,1.844,5.169c0.156,0.243,0.369,0.344,0.633,0.303
	c0.756-0.581,1.149-0.902,1.184-0.951c0.161-0.254,0.302-1.19,0.172-1.627l-0.241-0.785c-0.044-0.145-0.017-0.37,0.074-0.678
	c1.047-0.494,2.394-0.595,4.03-0.287c1.811,0.337,3.18,0.325,4.099-0.033l0.773-0.308c0.084-0.034,0.252-0.067,0.494-0.096
	c-0.286,0.494-0.717,0.746-1.289,0.758c-0.208,0.503,0.028,1.076,0.527,1.295c0.813-0.399,1.603-0.566,2.371-0.518
	c0.527,0.029,1.29,0.304,2.299,0.813c-0.19,0.415-0.454,0.78-0.785,1.095c0.033,0.308,0.174,0.492,0.426,0.555
	c0.257-0.073,0.51-0.151,0.768-0.225c1.021-0.304,1.709-0.688,2.057-1.177l-0.218-0.68c0.135-0.101,0.853-0.353,2.146-0.763
	l0.78-0.252l0.724-0.337c0.252-0.118,0.762-0.2,1.531-0.245c0,0.313-0.068,0.856-0.214,1.625c-0.785,4.222,1.861,5.786,3.437,6.705
	c0.897,0.521,1.491,1.032,1.782,1.514c0.208,0.091,0.41,0.04,0.616-0.141c-0.05-0.549-0.15-1.088-0.302-1.614l0.359-0.577
	c-0.248-0.218-0.442-0.363-0.583-0.437l-0.723-0.37c-0.74-0.377-4.025-4.121-2.209-6.246c0.511-0.595,1.155-1.003,1.94-1.232
	c1.558-0.45,2.892-0.68,4.008-0.68h0.841l0.712-0.167c0.313-0.08,1.682,0.033,4.109,0.325c1.363,0.167,4.048,0.667,8.057,1.503
	c0.97,0.195,3.156,0.369,6.56,0.499c0.38,0.016,0.93,0.06,1.642,0.156c0.718,0.096,1.812,0.122,3.28,0.089
	c1.172-0.022,3.101,0.051,5.792,0.229c0.544,0.04,4.165,0.051,10.87,0.04c1.873-0.007,3.522,0.145,4.951,0.437
	c4.643,0.97,9.553,0.91,14.727-0.189c0.158-0.035,2.256-0.602,6.29-1.693c2.911-0.792,5.064-1.188,6.455-1.188h0.841l0.813-0.101
	c0.071-0.011,0.341,0.038,0.807,0.149c0.896,0.214,1.973,0.422,3.217,0.613c1.161,0.186,3.125,1.126,5.894,2.831
	c0.958,0.593,1.693,0.991,2.204,1.188l0.789,0.219l0.769,0.303c0.752,0.297,1.541,0.522,2.365,0.667
	c3.163,0.577,5.506,1.778,7.048,3.593c0.789,0.938,1.329,1.521,1.621,1.761c1.184,0.959,2.482,2.608,3.9,4.936
	c3.685,6.043,4.828,7.681,7.3,10.501c0.229,0.263,1.059,1.283,2.494,3.056c1.924,2.387,4.329,4.378,7.223,5.98l0.751,0.377
	l0.655,0.414c4.524,2.849,5.741,3.308,9.7,3.985c1.643,0.281,3.264,0.433,4.859,0.455c0.321,0.004,0.869,0.063,1.643,0.167
	c0.813,0.107,1.632,0.163,2.456,0.163c0.736,0,1.284,0.021,1.637,0.063c-0.415,1.731-1.244,2.646-2.477,2.736l-0.825,0.061
	l-0.802,0.174l-0.808-0.151C281.945,359.335,280.901,359.469,280.879,359.52L280.879,359.52z"/>
<path fill="#FFFFFF" d="M200.131,356.685l-0.031,0.096c-0.024,0.073-0.051,0.136-0.08,0.185c0.627,0.914,1.514,1.637,2.662,2.165
	l0.76,0.35c1.163,0.532,1.75,2.298,1.58,3.7c-0.134,1.11-0.678,2.405-1.632,3.883c-0.773,1.201-1.274,2.209-1.497,3.024
	c-0.665,2.414-0.867,2.985-2.923,3.649c-0.094,0.031-1.747,0.435-4.959,1.212c-0.731,0.177-1.519,0.479-2.365,0.905
	c-1.05,0.53-1.844,0.805-2.381,0.827l-0.855,0.035l-0.856,0.034c-0.218,0.009-0.45,0.18-0.695,0.517l-0.655,0.582
	c-0.294,0.261-1.505,0.481-2.088,0.091c-0.069-0.046-0.285-0.04-0.651,0.022c-0.158,0.027-0.251,0.009-0.28-0.056
	c-0.011-0.024,0.036-0.325,0.137-0.902c0.274-1.527,0.521-2.4,0.738-2.617c0.505-0.501,1.391-0.562,2.657-0.178l0.89,0.27
	c0.06,0.018,0.153,0.018,0.28,0c0.059-0.009,0.518-0.323,1.376-0.947c1.74-1.262,3.479-2.113,5.22-2.56
	c0.524-0.136,0.796-0.209,0.812-0.221c0.395-0.271,0.912-1.252,1.547-2.946c0.422-1.121,1.142-2.316,2.164-3.584
	c0.453-0.564,0.702-1.039,0.747-1.425c-0.076-0.216-0.479-0.437-0.763-0.136c-0.077,0.085-0.16,0.132-0.247,0.139
	c-0.118,0.327-0.45,0.829-0.992,1.502c-0.398,0.492-0.733,1.008-1.007,1.547l-0.429,0.838c-0.608,1.195-2.639,0.33-2.703,0.234
	l-0.526-0.805l-0.054-0.056c-0.02-0.018-0.04-0.038-0.058-0.056c-0.018-0.021-0.038-0.038-0.056-0.056l-0.448,0.028
	c-0.156,0.377-0.396,0.658-0.729,0.843c0.287,0.6,0.685,0.996,1.186,1.19l0.82,0.316c0.299,0.116,0.542,0.263,0.729,0.443
	c0.311,0.301,0.466,0.537,0.466,0.707v0.167c-0.312,0.203-0.559,0.328-0.735,0.374l-0.833,0.219c-1.001,0.261-2.263,0.9-3.785,1.917
	c-0.66,0.441-1.135,0.729-1.425,0.867c-0.18-0.191-0.198-0.896-0.051-2.115c0.038-0.318,0.212-0.94,0.521-1.868
	c0.261-0.782,0.521-1.361,0.782-1.738c0.114,0.299,0.624,0.504,0.869,0.337c0.103-0.41,0.065-0.691-0.113-0.841l-0.62-0.523
	c-0.136-0.116-0.32-0.313-0.555-0.584l-0.205-0.839l-0.193-0.744l0.096-1.027l0.1-1.027l0.359-0.916
	c0.042-0.107,0.004-0.221-0.114-0.337l-0.056-0.056h-0.503c-0.522,1.092-0.895,2.14-1.117,3.143
	c-0.353,0.089-0.573,0.212-0.664,0.37l-0.408,0.707l-0.437,0.715l-0.283,0.794c-0.29,0.815-1.208,1.328-2.756,1.54
	c-0.541,0.073-0.821,0.116-0.844,0.127l-0.71,0.354l-0.845,0.2l-0.763,0.433l-0.841,0.261l-0.744,0.401
	c-0.149,0.08-0.225-0.12-0.225-0.6c-0.001-0.383-0.02-0.669-0.058-0.858c0.333-0.12,0.578-0.216,0.735-0.285l0.766-0.346
	l0.828-0.193c1.204-0.283,2.026-0.99,2.468-2.113l0.312-0.796c0.06-0.153,1.064-1.119,3.01-2.897c0.62-0.563,1.295-1.46,2.028-2.682
	c1.039-1.734,1.5-2.073,3.196-2.51c0.504-0.129,1.354-0.203,2.543-0.221c0.283-0.002,0.643,0.021,1.079,0.071
	c0.116,0.016,0.321-0.042,0.617-0.169c-0.02-0.395-0.002-0.789,0.059-1.182c0.28-0.147,0.448-0.221,0.501-0.221l2.857-0.005
	c0.384,0,0.961-0.374,1.736-1.125v-0.337c0-0.268-0.318-0.312-0.956-0.136c-0.1,0.026-5.628,0.6-5.271-2.04
	c0.027-0.195,0.511-1.132,1.453-2.804h0.112c0.303,1.086,1.801,1.536,2.429,0.539l0.495-0.786c0.932-1.482,3.52-2.428,3.912-2.176
	l0.773,0.497l0.794,0.448c0.503,0.285,0.826,0.982,0.555,1.653c-0.073,0.184-0.292,0.419-0.655,0.702l-0.761,0.596
	c-0.171,0.134-0.329,0.405-0.475,0.812c0.408,0.749,0.926,0.974,1.552,0.682c0.343-0.16,0.593-0.24,0.749-0.236
	c0.6,0.386-0.478,1.643-1.164,1.901l-0.904,0.344c-0.745,0.282-1.213,0.675-1.402,1.181c0.009,0.029,0.014,0.061,0.021,0.094
	c0.028,0.191,0.162,0.379,0.405,0.56c0.073,0.054,0.136,0.116,0.191,0.188c0.054,0.412-0.058,0.992-0.332,1.738
	c-0.299,0.021-0.517-0.002-0.657-0.064l-0.589-0.272C200.653,356.673,200.433,356.656,200.131,356.685L200.131,356.685z"/>
<path fill="#FFFFFF" d="M180.61,382.283l0.056-0.17l0.693-0.775c0.506-0.566,0.909-1.15,1.208-1.75
	c0.199,0.031,0.333,0.007,0.4-0.075l0.268-0.314c0.057-0.067,0.15-0.163,0.284-0.285l0.963-0.022
	c1.347-0.033,2.249-0.261,2.704-0.68l0.702-0.651l0.847-0.002c1.154-0.002,2.227-0.254,3.214-0.758
	c1.168-0.598,2.202-0.992,3.104-1.182c2.42-0.513,3.789-0.807,4.101-0.88c0.808,2.144,1.195,3.501,1.166,4.069
	c-0.089,1.703-1.079,3.646-2.969,5.827c-1.3,1.5-2.294,2.554-2.979,3.156c-1.099,0.97-2.075,2.032-2.926,3.189
	c0.258,0.403,0.559,0.617,0.897,0.645c0.283,0.021,0.941-0.707,0.95-0.785l0.056-0.562c0.011-0.109,1.268-1.201,3.769-3.276
	c1.175-0.977,1.83-1.498,1.964-1.565c0.789-0.392,1.491-0.559,2.106-0.499c0.288,0.278,0.725,1.072,1.309,2.379
	c0.845,1.89,1.964,3.299,3.356,4.228c0.01,0.054,0.01,0.109,0,0.168c-1.716,1.46-4.279,0.876-5.104,0.231l-0.78-0.61
	c-1.088-0.854-2.225-1.235-5.405,1.674c-0.41,0.372-4.383,3.443-4.904,3.388l-0.504-0.056l-0.506-0.054l-0.447-0.111
	c-0.114-0.028-0.199,0.027-0.252,0.167c-0.926-0.31-1.777-0.459-2.553-0.443c-0.085-0.089-0.16-0.185-0.229-0.285
	c-0.221-0.321-0.39-0.508-0.501-0.555c0.124-0.283,0.746-1.262,1.867-2.94c0.393-0.589,0.805-1.311,1.235-2.167
	c0.225-0.445,0.352-0.695,0.379-0.744c1.643-2.958,1.241-5.155-1.204-6.6c-0.056-0.863,3.286-2.777,3.665-2.944l0.857-0.386
	c0.194-0.085,0.363-0.323,0.518-0.714c-0.058-0.056-0.114-0.113-0.17-0.169c-1.059,0.04-2.317,0.648-3.782,1.83
	c-0.116-0.125-0.223-0.257-0.323-0.397c-0.354-0.494-0.555-0.762-0.604-0.807c-0.33-0.073-0.5-0.016-0.504,0.17l-0.027,1.087
	c-0.02,0.749-0.325,1.376-0.92,1.884c-1.184,0.005-2.049,0-2.598-0.013C182.443,382.133,181.628,382.177,180.61,382.283
	L180.61,382.283z"/>
<path fill="#FFFFFF" d="M177.566,367.15l-0.001-0.169c-0.001-0.54-0.833-1.772-2.399-2.136c-0.565-0.132-1.709-0.221-3.435-0.266
	c-0.063-0.537,0.458-1.283,1.562-2.24l0.655-0.546c0.611-0.508,0.99-1.226,1.138-2.153c0.029-0.183-0.205-1.79-0.33-2.148
	l-0.349-0.989c-0.008-0.021-0.008-0.097,0-0.224c0.356-0.283,1.069-1.139,2.142-2.574c0.167-0.221,0.348-0.431,0.544-0.626
	c0.05-0.007,0.088,0.002,0.112,0.026l0.601,0.606c0.319,0.323,1.148,0.548,2.487,0.675c1.025,0.099,1.878,0.283,2.561,0.551
	c1.395,0.551,2.357,0.295,2.888-0.767l0.395-0.789c0.4-0.803,1.172-1.689,2.312-2.654c0.831-0.709,1.453-1.331,1.856-1.866
	l0.535-0.706c0.106-0.139,0.325-0.288,0.659-0.441l0.895-0.036c1.328-0.054,2.224-0.02,2.686,0.101
	c-1.112,2.066-1.665,3.243-1.656,3.533l0.009,0.336l0.41,0.928c0.638,1.442,0.794,2.423,0.466,2.939
	c-1.224-0.327-4.647-0.2-6.397,1.814c-0.325,0.377-0.835,1.074-1.526,2.094c-0.424,0.628-1.027,1.232-1.81,1.818
	c-0.87,0.648-1.506,1.215-1.916,1.698c-0.635,0.754-0.99,1.204-1.063,1.349l-0.388,0.778
	C180.681,366.126,179.467,366.82,177.566,367.15L177.566,367.15z"/>
<path fill="#FFFFFF" d="M173.124,397.089c0.241-0.276-0.078-0.557-0.224-0.504l0.053-1.065c-0.012-0.013-0.024-0.024-0.037-0.037
	c-0.014-0.012-0.026-0.025-0.038-0.036l-0.037-0.038h-0.561c-0.135,0.13-0.237,0.279-0.308,0.45
	c-0.267-0.122-0.526-0.254-0.778-0.398c-1.398-0.801-2.438-1.315-3.121-1.545c-1.063-0.358-1.813-0.771-2.248-1.244
	c-1.525-1.651-2.236-3.221-2.138-4.705c1.127,0.365,1.965,0.365,2.519,0.002c1.876-1.241,3.181-5.129-0.061-5.218
	c-0.257-0.009-0.458,0.058-0.603,0.198c-0.196,0.189-0.797,0.181-1.807-0.026l-0.001-1.01c0-0.038,0.022-0.094,0.07-0.17h0.097
	c-0.042-0.145-0.097-0.276-0.169-0.392c-0.14-0.228-0.078-0.643,0.189-1.244l0.145-0.325l-0.07-0.241
	c-0.361-1.25-0.021-2.233,1.018-2.958c0.193,0.255,2.159,0.317,2.8,0.056c0.996-0.403,2.153-1.611,1.515-2.249
	c-0.355,0.146-0.612,0.271-0.767,0.377l-0.736,0.502c-0.917,0.624-2.212,0.441-3.889-0.542c0.127-0.377,0.055-0.709-0.216-0.998
	c-0.403-0.431-1.01,0.191-1.01,0.45l0.001,0.849c0.002,0.094-0.16,0.627-0.479,1.599c-0.412,1.248-0.774,2.006-1.086,2.267
	c-0.053,0.045-0.31,0.136-0.768,0.272c-1.204,0.356-1.974,0.657-2.31,0.909c-0.025,0.12,0.127,0.325,0.45,0.615
	c0.218,0.016,0.569-0.071,1.054-0.261c0.327-0.127,0.516-0.181,0.571-0.163c0.62,0.216,1.079,0.648,1.378,1.298l0.408,0.878
	c0.27,0.584,0.647,1.099,1.136,1.547c0.195,0.106,0.308,0.033,0.337-0.223c0.029-0.005,0.066,0.006,0.111,0.026
	c0.432,0.205,1.274,0.212,2.523,0.024c0.605-0.094,0.962,0.073,1.065,0.502c0.018,0.068-0.006,0.904-0.024,0.923l-0.31,0.312
	l-0.396,0.903c-0.129,0.292-1.26,0.909-1.73,0.894c-0.245-0.009-1.169-0.406-1.541-0.751l-0.623-0.578
	c-0.183-0.169-0.993-0.432-2.432-0.791c-3.855-0.961-4.958-3.325-3.314-7.097c0.191-0.439,0.43-0.95,0.715-1.536
	c0.902-1.853,1.436-3.747,1.602-5.692c0.098-1.142,0.223-2.586,2.06-3.384c2.206-0.959,3.593-2.254,4.165-3.89
	c0.216-0.615,0.271-1.102,0.164-1.456c-0.026-0.091-0.269-0.334-0.73-0.727l-0.809-0.695c-0.17-0.145-0.368-0.419-0.594-0.815
	c0.612-1.639,0.897-2.793,0.853-3.46l-0.04-0.597l-0.093-0.542l0.019-0.085c0.009-0.044,0.013-0.1,0.009-0.169
	c0.419,0.278,1.119,0.445,2.102,0.504c0.829,0.049,1.383,0.214,1.662,0.488l0.621,0.617l0.682,0.52l0.629,0.581
	c0.075,0.067,0.399-0.016,0.393-0.169c0.12-0.089,0.247,0.045,0.224,0.111c0.155,0.007,0.248-0.002,0.281-0.029l0.716-0.577
	c0.333-0.27,0.934-0.405,1.804-0.407c0.267,1.403,0.379,2.224,0.341,2.467c-0.171,1.048-1.53,2.028-1.679,2.096
	c-0.127,0.058-2.894,0.463-4.375,0.207l-0.512-0.092c-0.11-0.018-0.274-0.051-0.495-0.098c-0.015,0.089-0.047,0.167-0.098,0.238
	l-0.126,0.016l0.029,0.223c0.069,0.544,0.906,0.91,2.513,1.1l0.951,0.111c0.202,0.024,0.458,0.169,0.771,0.437
	c-0.34,0.698-0.544,1.324-0.613,1.879c0.262,0.323,0.507,0.397,0.729,0.224c0.042-0.031,0.086-0.059,0.135-0.081l0.034-0.143
	c0.098-0.053,0.233,0.105,0.224,0.165c1.079-0.054,2.191,0.064,3.337,0.354c1.845,0.471,2.637,2.802,2.611,3l-0.608,4.71
	c-0.593,0-1.034,0.047-1.324,0.139l-0.638,0.203l-2.13,0.004c-0.048,0-0.065,0.056-0.056,0.167
	c-0.434-0.156-0.695-0.247-0.785-0.278l-0.337-0.111l0.001,0.223c0,0.054-0.075,0.118-0.225,0.198
	c0.375,0.493,0.916,0.747,1.625,0.761l0.956,0.02l0.429,0.399c0.481,0.447,0.806,0.659,0.974,0.635l0.392-0.056l0.008,4.037
	l-0.038,0.223c-0.02,0.118-0.025,0.268-0.018,0.448c-0.363,0.339-0.586,0.506-0.671,0.506l-0.847,0.002
	c-1.775,0.002-2.652,0.471-2.627,1.406c0.156,0.353,0.306,0.455,0.448,0.308l0.579-0.6c0.185-0.189,1.517-0.437,1.664-0.329
	l0.753,0.548l0.792,0.488c0.232,0.143,1.137,3.344,1.155,3.555c0.066,0.839-0.194,1.701-0.783,2.582
	c-0.322,0.058-0.641,0.04-0.956-0.05c-0.131-0.035-0.959-0.481-2.484-1.326c-0.751-0.421-1.137-0.557-1.159-0.41l0.057,0.167
	c-0.036-0.013-0.098,0.01-0.186,0.067c-0.029,0.018-0.062,0.035-0.095,0.047c0.293,0.439,0.988,0.965,2.085,1.573
	c1.819,1.006,3.06,2.131,3.725,3.37c0.091,0.172,0.657,1.795,1.697,4.873c0.894,2.642-1.336,4.863-7.025,2.929
	c-0.432-0.145-0.706-0.24-0.823-0.285c-3.089-1.139-5.024-1.721-5.807-1.741c-0.329-0.011-1.51,0.183-3.544,0.575
	c-2.625,0.506-3.872,0.431-3.744-0.228c0.294-0.231,0.533-0.37,0.712-0.412l0.845-0.205c0.65-0.156,1.44-0.93,2.376-2.318
	c0.566-0.84,1.216-1.354,1.952-1.547c0.758-0.196,1.7-0.129,1.732-0.1l0.662,0.637c0.123,0.118,2.788,1.793,3.378,1.262
	c0.065-0.058,0.159-0.087,0.281-0.084c0.639,0.016,1.21,0.287,1.717,0.815l0.675,0.709c0.14,0.146,0.408,0.283,0.805,0.405
	c0.12-0.188,0.215-0.386,0.29-0.593C172.922,397.216,173.032,397.199,173.124,397.089L173.124,397.089z"/>
<path d="M104.488,331.343c0.103-0.091-0.031-0.229-0.399-0.412l-0.274-0.147l-0.984-0.084c-0.405-0.036-0.985-0.293-1.741-0.77
	c-1.776-1.116-3.146-0.831-4.11,0.856l-0.434,0.758c-0.261,0.456-1.744,1.295-4.452,2.514c-2.835,1.279-4.644,2.16-5.425,2.642
	v0.113c0.374,0.695,1.624,0.417,4.336-0.771l0.769-0.332l0.763-0.357c0.928-0.435,1.708-0.751,2.341-0.951l0.827-0.214l0.773-0.308
	c0.464-0.186,0.706-0.279,0.724-0.281c0.208-0.026,0.479,0.009,0.813,0.107l0.781,0.227c0.355,0.103,0.629,0.112,0.818,0.024
	c0.049-0.021,0.273-0.068,0.672-0.14c0.273-0.05,1.177-0.683,1.176-0.843v-0.393c-0.201-0.12-0.319-0.294-0.356-0.523
	c-0.248-0.134-0.521-0.074-0.819,0.183l-0.36,0.31c-0.264,0.226-0.566,0.161-0.907-0.196l-0.269-0.443l-0.318-0.39l-0.001-0.111
	c-0.001-0.58,1.165-1.081,1.774-0.64c0.103,0.073,0.211,0.136,0.328,0.187c0.03-0.018,0.057-0.038,0.083-0.06v-0.052
	c0.103-0.009,0.177,0.002,0.224,0.027l0.957,0.503l1.084,0.217l1.044,0.312c0.106,0.031,0.181,0.014,0.224-0.056
	c-0.033-0.022-0.069-0.087-0.113-0.196c0.138-0.189,0.225-0.287,0.261-0.289L104.488,331.343L104.488,331.343z"/>
<path d="M157.354,387.592c0.11-0.558-0.595-2.461-1.184-3.248c-0.258,0.127-0.417,0.203-0.476,0.223
	c-2.959-2.986-0.66-7.712-0.427-7.863l0.665-0.433c0.071-0.047,0.108-0.103,0.112-0.17l0.273-4.147
	c0.061-0.938-0.811-4.159-0.87-4.233c-0.156-0.2-0.355-0.341-0.597-0.419c-0.308,0.528-0.612,1.351-0.915,2.472
	c-0.639,2.358-1.127,3.768-1.467,4.227l-0.529,0.716c-0.543,0.735-0.733,2.155-0.572,4.257c0.064,0.841,0.066,1.335,0.002,1.48
	c-0.073,0.174-0.14,0.296-0.196,0.367c-0.058,0.007-0.095,0.007-0.111,0c-0.386-0.435-0.855-1.123-1.406-2.072
	c-0.305-0.105-0.546-0.021-0.718,0.254c0.009,0.207-0.004,0.348-0.038,0.421l-0.284,0.615l-0.062,0.702
	c-0.076,0.876-0.006,1.354,0.209,1.429c0.694,4.313-1.283,7.202-5.932,8.667c-1.233,0.388-1.987,1.101-2.266,2.142
	c-0.49,1.828-0.497,2.771-0.019,2.831l0.267,0.033c0.844,0.104,1.572,0.096,2.184-0.026c3.106-0.618,5.35-0.812,6.734-0.584
	c1.863,0.305,2.669,0.289,3.475-0.283c0.595-0.424,1.028-0.947,1.297-1.576c-0.454-1.112,0.64-1.542,1.51-1.46
	c0.128-0.256,0.031-0.765-0.287-1.524c-0.107-0.257-0.172-0.53-0.194-0.829C156.622,388.88,157.228,388.225,157.354,387.592
	L157.354,387.592z"/>
<path d="M219.131,384.054v0.17c0,0.06,0.469,0.615,0.961,0.84c0.194,0.09,0.396,0.143,0.61,0.165
	c0.021-0.047,0.047-0.091,0.076-0.131c0.096-0.134,0.103-0.544,0.026-1.233c-0.087-0.76,0.01-1.54,0.283-2.336h0.17
	c0.316,0.789,0.673,1.135,1.065,1.034c0.028-0.08,0.064-0.16,0.104-0.236l0.12-0.016c-0.118-1.649-0.134-2.652-0.049-3.007
	c0.111-0.475,0.247-0.855,0.406-1.144c0.053,0,0.082,0.019,0.084,0.056l0.054,0.874c0.011,0.194,0.118,0.457,0.321,0.789
	c-0.036,0.21,0.214,0.301,0.749,0.27c0.02-0.075,0.056-0.14,0.111-0.193l0.113-0.002c-0.087-0.491-0.145-0.787-0.169-0.895
	c-0.163-0.668,0.127-2.931,1.141-4.097l0.029,0.167l0.076,0.829c0.056,0.596,0.332,1.048,0.824,1.355
	c0.049,0.009,0.104,0.009,0.167,0c0.167-0.327,0.335-0.938,0.5-1.832c0.145-0.794,0.323-1.418,0.532-1.87l0.026,0.225
	c0.029,0.221,0.469,1.204,0.558,1.282c0.181,0.156,0.388,0.231,0.624,0.229c0.118-0.268,0.266-0.86,0.441-1.779
	c0.207-1.065,0.624-2.224,1.251-3.475c0.369-0.74,0.586-1.309,0.65-1.703c-0.35-0.122-0.555-0.178-0.617-0.167
	c-0.029,0.007-0.25,0.172-0.662,0.497c-4.447,3.509-7.432,6.843-8.961,10.002c-0.972,2.01-1.895,3.408-2.772,4.188
	c-1.658,1.476-2.64,2.468-2.936,2.974c0.014,0.063,0.172,0.183,0.477,0.363c0.259-0.155,0.399-0.268,0.422-0.336
	c0.106-0.003,0.27-0.047,0.485-0.134c0.194-0.076,0.33-0.099,0.41-0.065c0.161,0.914,0.479,1.277,0.954,1.093
	c0.114-0.045,0.17-0.12,0.17-0.226l-0.003-1.014c0-0.174,0.156-0.462,0.476-0.865C218.63,384.449,218.862,384.233,219.131,384.054
	L219.131,384.054z"/>
<path d="M210.443,324.53c0.064-0.313-0.042-1.357-0.954-1.233c-0.69,0.097-2.884,1.817-3.945,3.119
	c-2.277,2.793-4.055,4.596-5.334,5.409l-0.713,0.453l-0.671,0.525c-0.036,0.029-0.281,0.172-0.738,0.428
	c-0.699,0.395-1.175,0.696-1.42,0.91c-0.028,0.12,0.094,0.314,0.366,0.586c0.14,0.141,0.28,0.207,0.421,0.196
	c0.123-0.009,0.909-0.31,2.363-0.903c1.711-0.699,3.64-2.317,5.781-4.854c0.615-0.727,1.22-1.315,1.813-1.763
	C209.339,325.952,210.349,324.993,210.443,324.53L210.443,324.53z"/>
<path d="M220.282,333.938c-0.104-0.393-0.301-0.738-0.589-1.034l-0.73-0.756c-0.573-0.591-0.464-1.729,0.327-3.419
	c0.379-0.807,0.518-1.371,0.419-1.688c-0.066-0.214-0.55-1.008-1.573-1.005l-1.008,0.002c-0.174,0-1.005-0.377-2.496-1.128
	c-0.624-0.314-1.215-0.479-1.768-0.49c-0.297,0.198-0.711,0.635-1.239,1.309c-0.493,0.628-1.404,1.41-2.737,2.345
	c-1.342,0.942-1.975,1.634-1.899,2.075c0.012,0.066,0.669,0.951,0.787,0.951h0.393c-0.009-0.089,0.009-0.145,0.056-0.169
	c0.044-0.005,0.125,0.024,0.243,0.082c0.527,0.268,2.193-1.25,2.336-1.493l0.432-0.747c1.411-2.432,4.36-2.182,5.562-0.998
	c-0.038,0.149-0.191,0.528-0.461,1.137c-1.971,4.444,1.601,6.497,2.717,6.261C219.343,335.111,220.405,334.399,220.282,333.938
	L220.282,333.938z"/>
<path fill="#FFFFFF" d="M178.773,395.791l0.056-0.226l0.296-0.37l0.216-0.424c0.042-0.082,0.132-0.191,0.27-0.327
	c-0.507-3.186-0.667-4.208,2.457-5.414c0.434,0.735,0.843,0.33,0.843,0.193l-0.002-0.392l-0.357-0.397
	c-0.329-0.363-0.342-0.791-0.041-1.281c0.222-0.359,0.255-0.606,0.103-0.742c-0.32-0.288-1.384,0.252-1.659,0.72l-0.448,0.77
	c-0.56,0.958-2.221,1.718-2.923,1.754c-0.117-0.179-0.229-0.263-0.337-0.252c0.5-0.923,0.5-1.429-0.002-1.514l0.333-2.075
	c0.129-0.809-0.059-1.547-0.565-2.213c0-0.021,1.746-0.203,5.24-0.547c2.019-0.198,3.474-0.044,4.364,0.462
	c1.052,0.6,1.547,1.391,1.482,2.372c-0.105,1.553-0.232,2.017-0.712,2.946c-0.666,1.293-1.582,2.791-2.748,4.493
	c-1.541,2.254-1.559,2.504-1.13,3.045c0.283,0.354,0.593,0.531,0.927,0.531l0.954-0.003l0.93,0.196l0.938,0.163
	c0.359,0.06,1.194,0.481,2.506,1.259c0.016,0.7-1.081,1.015-1.286,0.928c-0.081-0.29-0.23-0.408-0.451-0.354
	c-0.626,0.153-1.149,0.189-1.568,0.104l-1.013-0.205c-0.942-0.189-1.848-0.134-2.716,0.17c-0.836,0.292-1.461,0.419-1.876,0.383
	c-0.258-0.271-0.451-0.473-0.583-0.6l-0.628-0.608l-0.281-0.843c-0.062-0.191-0.158-0.475-0.284-0.854L178.773,395.791
	L178.773,395.791z"/>
<path d="M97.616,337.531c-0.308,0.707,0.277,0.919,1.755,0.64l0.786-0.115l0.768-0.194c0.145-0.035,0.486,0.033,1.021,0.207
	l0.828,0.272c0.35,0.113,0.927,0.212,1.731,0.294c0.958,0.099,1.539,0.189,1.74,0.274c0.631,0.263,1.043,0.653,1.237,1.17
	l0.306,0.816c0.069,0.183,0.25,0.398,0.545,0.652c0.063,0.016,0.138,0.016,0.224,0c2.026-1.796-0.12-4.092-1.802-4.09l-0.925,0.002
	c-1.331,0.003-1.891-0.352-1.683-1.061c0.009-0.031,0.1-0.17,0.274-0.417c0.469-0.664-0.565-0.704-0.696-0.62l-0.776,0.491
	c-0.247,0.153-0.822,0.383-1.726,0.687c-0.426,0.143-0.718,0.249-0.877,0.318l-0.857,0.379c-0.198,0.087-0.509,0.141-0.935,0.16
	L97.616,337.531L97.616,337.531z"/>
<path d="M241.31,347.691c0.031-0.812-0.542-1.5-1.719-2.064c-1.065-0.513-2.062-1.052-2.989-1.618
	c-0.9-0.553-1.747-1.283-2.534-2.19c0.016-0.132,0.107-0.582,0.278-1.347c0.059-0.259,0.057-0.481-0.002-0.673
	c-0.125-0.413-0.37-0.665-0.733-0.758l-1.067-0.272l-1.003-0.421c-0.109-0.047-0.787,0.04-1.01,0.617h-0.448
	c-0.04,0-0.096,0.066-0.167,0.198c0.183,0.834,1.15,3.714,3.77,5.572c0.441,0.314,1.168,0.749,2.18,1.302
	c0.787,0.431,1.688,1.104,2.697,2.022c0.898,0.817,1.649,1.143,2.246,0.979C241.119,348.819,241.286,348.371,241.31,347.691
	L241.31,347.691z"/>
<path d="M109.918,319.396c0.075-0.314-0.734-2.445-1.441-3.17c-1.03-1.059-2.855-1.761-5.478-2.106
	c-1.164-0.153-1.971-0.381-2.425-0.684l-0.702-0.469c-0.162-0.108-0.354-0.064-0.579,0.13c-0.063,0.365,0.107,0.786,0.515,1.262
	c0.879,1.027,1.508,1.678,1.886,1.952c0.475,0.344,1.033,0.551,1.674,0.62l0.913,0.098c1.099,0.118,1.594,0.497,1.487,1.142
	c-0.038,0.225-0.094,0.336-0.168,0.336h-0.308c-0.165,0-0.323,0.114-0.477,0.339c0.096,2.129,3.239,1.442,3.616-0.65
	c0.158,0.544,0.411,1.038,0.76,1.484l0.448-0.002C109.781,319.677,109.874,319.583,109.918,319.396L109.918,319.396z"/>
<path d="M264.806,367.404c0.044-0.301-0.005-2.583-0.158-3.136c-0.384-1.376-1.728-2.294-4.035-2.753
	c-1.556-0.31-2.402-0.499-2.539-0.562c-0.102-0.05-2.152-1.516-2.646-2.167c-0.285-0.063-0.673,0.221-0.671,0.339v0.167
	c0,0.061,0.965,1.396,1.692,2.049c1.264,1.132,2.588,1.7,3.972,1.698c0.301,0,0.602,0,0.9-0.002
	c0.143,0.098,0.058,0.381-0.252,0.847c-0.666,1.003,1.166,2.409,1.875,1.853c0.261-0.207,0.433-0.304,0.513-0.292
	c0.187,0.523,0.283,0.878,0.283,1.065v0.84l-0.502,1.347c-0.049,0.134-0.031,0.301,0.058,0.504c0.121-0.049,0.194,0.007,0.226,0.169
	l0.56-0.002C264.48,368.643,264.721,367.99,264.806,367.404L264.806,367.404z"/>
<path d="M185.804,342.143c0.06-0.428-0.239-0.727-0.898-0.896c-0.938-0.24-2.212,0.217-3.829,1.371
	c-1.674,1.197-2.879,1.872-3.612,2.028l-0.826,0.176c-0.188,0.04-0.402,0.21-0.641,0.506c0.05,0.988,3.189,0.547,4.86-0.2
	c0.369-0.163,1.09-0.591,2.162-1.279c0.813-0.521,1.294-0.803,1.441-0.845l0.809-0.228
	C185.579,342.687,185.754,342.477,185.804,342.143L185.804,342.143z"/>
<path d="M98.274,324.627l-0.057-0.167c-0.178-0.533-2.482,0.562-4.219,2.849c-1.755,2.312-2.473,2.868-5.186,4.625
	c-0.022,0.103,0.184,0.57,0.599,0.492c0.123-0.021,0.962-0.481,2.518-1.375c0.662-0.379,1.248-0.566,1.759-0.557
	c0.4,0.802,0.868,1.186,1.403,1.147c0.413-0.381,0.497-0.985,0.253-1.813c-0.208-0.702-0.208-1.346-0.001-1.935
	c0.348-0.989,0.882-1.707,1.6-2.155l0.759-0.471C97.865,325.167,98.055,324.953,98.274,324.627L98.274,324.627z"/>
<path fill="#FFFFFF" d="M187.212,373.367c-0.165,0.16-0.393,0.004-0.682-0.464l-0.45-0.729c-0.513-0.832-2.475-0.591-2.693-0.479
	l-0.792,0.408c-0.479,0.245-0.747,0.376-0.804,0.395c-0.165,0.049-0.764,0.104-1.797,0.16c-0.76,0.042-1.364,0.116-1.809,0.219
	l-0.001-0.279l0.055-1.346c0.524-0.226,1.986-0.524,4.387-0.9c1.884-0.295,2.239-0.478,3.242-1.309
	c0.789-0.653,1.346-0.97,1.672-0.947c-0.674,1.613-0.858,2.953-0.556,4.014l0.172,0.609
	C187.261,373.083,187.28,373.299,187.212,373.367L187.212,373.367z"/>
<path d="M133.595,326.921l-0.028-0.224c-0.077-0.021-0.104-0.077-0.084-0.169c-0.848,0.016-1.452-0.04-1.81-0.172
	c-0.057-0.022-0.311-0.176-0.762-0.464c-1.595-1.019-2.971-1.573-4.131-1.665c-1.261-0.098-1.965-0.066-2.114,0.099
	c-0.133,0.145-0.136,0.299-0.009,0.459c0.129,0.163,0.212,0.245,0.247,0.245l0.841-0.002c-0.048,0.149-0.011,0.225,0.113,0.225
	l0.842-0.002c0.424,0,1.131,0.406,2.121,1.222c0.495,0.405,0.966,0.688,1.412,0.847v0.111c-0.162,0.188-0.33,0.281-0.504,0.283
	l-1.737,0.003c-0.007,0.39,0.068,0.671,0.226,0.84c1.188,0.022,1.836,0.007,1.947-0.042l0.868-0.391
	C132.599,327.42,133.455,327.019,133.595,326.921L133.595,326.921z"/>
<path d="M112.188,328.571l-0.057-0.223c-0.128-0.509-0.24-0.77-0.338-0.785l-0.887-0.145c-0.579-0.096-1.257-1.072-2.034-2.934
	c-0.11,0.073-0.166,0.129-0.167,0.167c-0.123,0.014-0.197-0.024-0.226-0.111c-0.03-0.002-0.066,0.007-0.111,0.029
	c-0.344,0.167-0.699,0.231-1.065,0.198c-0.183-0.018-1.624-0.575-1.791-0.698l-0.733-0.532l-0.505,0.002
	c-0.187,0-0.28,0.111-0.28,0.337v0.111l0.606,0.716l0.582,0.749c0.522,0.671,1.241,0.929,2.156,0.775l0.079-0.116h0.113
	c0.844,1.647,1.988,2.233,4.489,2.684C112.141,328.684,112.198,328.611,112.188,328.571L112.188,328.571z"/>
<path d="M131.556,323.39l-0.057-0.223c-0.032-0.134-0.252-0.316-0.658-0.555l-0.805-0.306l-0.743-0.443
	c-1.19-0.711-1.983-1.059-2.377-1.039l-0.884,0.04c-0.099,0.007-0.395,0.009-0.885,0.014c-1.471,0.014-2.061,0.301-1.768,0.869
	c0.209,0.405,0.504,0.435,0.885,0.085c0.123-0.111,0.496-0.13,1.121-0.056c0.437,0.049,0.944,0.256,1.521,0.619
	c1.091,0.687,1.838,1.039,2.237,1.057l0.841,0.04c0.524,0.024,0.878,0.071,1.063,0.141c0.11,0.04,0.218,0.022,0.323-0.058
	C131.501,323.477,131.563,323.415,131.556,323.39L131.556,323.39z"/>
<path fill="#FFFFFF" d="M177.627,374.001c0.034-0.063,0.597-0.176,1.689-0.339c0.339-0.051,0.915-0.096,1.732-0.131l0.868-0.04
	l0.774-0.357c1.517-0.702,2.482-0.744,2.895-0.127c-1.224,0.065-2.046,0.469-2.464,1.211c-0.274,0.483-0.441,1.101-0.501,1.85
	c-0.282-0.018-0.712-0.111-1.293-0.283c-0.462-0.136-0.923-0.165-1.379-0.082c-0.331,0.06-0.662,0.051-0.992-0.024
	c-0.218-0.052-0.51-0.012-0.877,0.118c-0.181-0.257-0.309-0.645-0.381-1.164C177.64,374.231,177.617,374.022,177.627,374.001
	L177.627,374.001z"/>
<path d="M129.496,330.744c-0.09,0.174-0.127,0.361-0.11,0.56c0.025,0.014,0.05,0.024,0.075,0.038
	c0.024,0.011,0.049,0.024,0.075,0.035l0.075,0.038h0.729l0.038,0.018l0.018,0.038l0.264,0.776l0.774,0.412
	c1.353,0.722,2.245,1.467,2.674,2.231l0.43,0.762c0.316,0.566,1.566,1.351,2.09,0.798c0.147-0.867-0.677-2.809-1.695-3.818
	c-1.214-1.201-2.449-1.832-3.705-1.892C130.103,330.686,129.526,330.686,129.496,330.744L129.496,330.744z"/>
<path d="M150.362,367.032c-0.315-0.437-0.795-0.35-1.439,0.266c-0.312,0.296-0.653,0.769-1.023,1.415l-0.434,0.76
	c-0.066,0.116-0.39,0.598-0.972,1.444c-1.783,2.602-2.657,4.169-2.622,4.706c0.167,0.189,0.354,0.265,0.561,0.223
	c0.169-0.325,0.321-0.553,0.453-0.685l0.572-0.568l0.415-0.722c0.535-0.932,1.383-2.035,2.543-3.313
	C150.082,368.721,150.73,367.546,150.362,367.032L150.362,367.032z"/>
<path fill="#FFFFFF" d="M176.168,379.102h0.673l0.872-0.29c0.255-0.085,0.539-0.183,0.853-0.297c0.867-0.31,1.444-0.501,1.732-0.57
	c0.964-0.234,1.54-0.393,1.727-0.479c0.049,0.007,0.078,0.036,0.084,0.085c-0.052,0.049-0.097,0.103-0.135,0.163
	c-0.13,0.211-0.207,0.325-0.229,0.343c0.019,0.036,0.04,0.071,0.064,0.104c0.103,0.146,0.147,0.288,0.134,0.429
	c-0.002,0.018-1.066,2.077-1.707,2.891c-0.454,0.577-0.865,0.937-1.233,1.076c-0.369,0.144-1.218,0.205-2.548,0.19
	c-0.135-0.194-0.21-0.351-0.226-0.467l-0.076-0.546c-0.018-0.129-0.123-0.278-0.316-0.443
	C176.067,380.738,176.178,380.009,176.168,379.102L176.168,379.102z"/>
<path d="M120.956,341.171c0.016-0.326-0.03-0.64-0.14-0.945l-0.199-0.399l-0.002-0.898c-0.002-1.184-0.643-2.479-1.922-3.885
	c-0.863-0.947-1.389-1.658-1.577-2.133c-0.341-0.858-0.481-2.635-0.104-3.507c-0.105-0.056-0.263-0.111-0.477-0.167
	c-1.468,0.985-1.387,4.982-0.171,6.743c0.281,0.405,0.668,0.845,1.161,1.317c1.2,1.152,1.891,2.095,2.073,2.83
	c0.043,0.179,0.003,0.771-0.121,1.777c-0.037,0.298-0.065,0.595-0.087,0.896c0.066,0.036,0.159,0.073,0.28,0.111
	C120.495,342.386,120.922,341.806,120.956,341.171L120.956,341.171z"/>
<path d="M251.418,355.479c0.04-0.57-1.184-2.376-1.355-2.525l-0.666-0.582c-0.471-0.41-0.832-0.881-1.083-1.411
	c-0.645-1.354-1.146-2.07-1.505-2.146c-0.297-0.063-0.596,0.014-0.896,0.226c-0.013,0.169,0.163,0.829,0.526,1.983
	c0.542,1.71,1.524,3.147,2.949,4.313C250.674,356.388,251.352,356.435,251.418,355.479L251.418,355.479z"/>
<path d="M180.647,336.764c0.096-0.954-0.108-2.216-0.609-3.785c-0.129-0.405-0.566-2.105-1.307-5.104
	c-1.516-6.133-3.33-3.558-3.244-3.212c0.132,0.528,0.541,1.353,1.229,2.474c1.106,1.806,1.435,2.956,1.549,6.886
	c0.046,1.613,0.039,2.614-0.023,3c-0.058,0.377-0.208,0.892-0.449,1.54c0.078,0.045,0.15,0.099,0.216,0.16
	c0.27,0.252,0.534,0.366,0.792,0.344C179.888,338.971,180.503,338.205,180.647,336.764L180.647,336.764z"/>
<path d="M108.076,329.422v0.169c0.003,1.563-0.845,3.043-1.697,3.236l-0.944,0.217c-0.219,0.049-0.459,0.256-0.715,0.617
	c0.125,0.548,0.933,0.158,1.01-0.029c2.852,0.125,4.14-0.662,3.864-2.362c-0.039-0.245-0.276-0.789-0.71-1.639
	C108.966,329.367,108.35,329.377,108.076,329.422L108.076,329.422z"/>
<path d="M174.387,346.973c0.061-0.435-0.033-0.657-0.282-0.671l-0.469-0.026l-0.461-0.099c-0.63-0.134-1.393-0.04-2.29,0.283
	c-0.609,0.219-1.086,0.553-1.431,0.999c0.581,0.684,1.156,0.793,1.729,0.327l0.235-0.191l0.767,0.069l0.763,0.098
	C173.817,347.875,174.298,347.613,174.387,346.973L174.387,346.973z"/>
<path d="M269.52,371.53c0.076-0.002,0.405,0.172,0.992,0.521c0.539,0.323,0.845,0.334,0.916,0.036
	c0.038-0.161-0.038-0.245-0.226-0.252c0.007-0.049,0.022-0.074,0.05-0.076c0.058-0.009,0.115-0.014,0.174-0.009
	c-0.181-0.231-0.366-0.464-0.549-0.693c-0.633-0.791-1.012-1.587-1.139-2.387c-0.085-0.542-0.067-0.879,0.056-1.01h0.111
	c0.198,0.209,0.33,0.379,0.395,0.506l0.292,0.582c0.37,0.735,1.05,0.57,0.94-0.306c-0.069-0.546-0.575-1.311-1.521-2.298
	c-0.737-0.768-1.279-1.496-1.627-2.183c-0.127-0.042-0.259-0.022-0.395,0.058c-0.111,0.069-0.187,0.105-0.223,0.111v0.144
	c-0.066,0.06-0.141,0.104-0.223,0.138c0.071,0.109,0.994,2.183,0.9,2.465c-0.033,0.105-0.089,0.141-0.167,0.114l0.011,5.942
	l-0.075,0.905c-0.025,0.31-0.047,0.916-0.067,1.818c-0.024,1.18-0.042,1.785-0.051,1.819l-0.189,0.782
	c-0.022,0.091,0.02,0.685,0.124,1.783l0.087,0.887l0.059,0.895c0.004,0.066,0.089,0.35,0.249,0.845
	c0.353,1.069,0.627,2.222,0.823,3.464c0.047,0.294,0.108,0.584,0.187,0.871c0.056,0.016,0.114,0.036,0.168,0.056
	c0.301,0.111,0.523,0.094,0.673-0.058l-0.061-2.018h0.114c0.435,1.17,0.862,1.574,1.276,1.208c0.603-0.525-1.085-5.191-1.56-5.902
	l-0.457-0.687v-0.169h0.113c1.264,2.008,1.993,2.621,2.189,1.848c0.037-0.151-0.266-0.963-0.912-2.432
	c-0.657-1.496-0.982-2.6-0.977-3.313c1.001,0.836,1.519,1.255,1.545,1.26c0.381,0.051,0.549-0.156,0.502-0.62
	c-0.005-0.045-0.179-0.278-0.521-0.704c-0.649-0.803-1.135-1.547-1.458-2.233C269.536,372.107,269.353,371.537,269.52,371.53
	L269.52,371.53z"/>
<path d="M188.882,334.337l-0.003-1.289c-0.002-0.64-0.775-3.118-2.324-7.436c-0.575-1.604-1.229-2.452-1.955-2.537
	c-0.526,0.361-0.25,1.565,0.831,3.611c0.973,1.837,1.772,5.994,1.418,7.32c-0.129,0.479-0.198,0.815-0.209,1.007
	c0.367,0.568,0.929,0.792,1.683,0.669C188.697,335.384,188.882,334.936,188.882,334.337L188.882,334.337z"/>
<path d="M160.272,357.594c0.12-0.954-0.082-1.734-0.607-2.341l-0.551-0.635l-0.391-0.723l-0.302-0.167
	c-0.07-0.038-0.165-0.243-0.287-0.617c-0.437-0.014-0.661,0.024-0.673,0.113c0.203,0.473,0.232,0.852,0.087,1.14
	c-0.175,0.345-0.066,0.972,0.327,1.879l0.418,0.967c0.459,1.062-0.456,2.586-2.333,2.914l0.028,0.447
	c0.144,0.034,0.229,0.107,0.253,0.224c0.694,0.134,1.342,0.044,1.942-0.271C159.407,359.885,160.104,358.907,160.272,357.594
	L160.272,357.594z"/>
<path d="M127.273,340.32c0.211-1.729-0.521-3.469-2.197-5.212c-0.978-1.017-1.668-1.33-2.075-0.947
	c0.044,0.399,0.133,0.674,0.263,0.82l0.61,0.695c0.611,0.695,1.773,2.889,1.826,3.132c0.047,0.214-0.11,1.44-0.471,3.676
	c-0.086,0.535-0.113,0.843-0.082,0.923c0.208,0.528,0.47,0.751,0.786,0.671C126.762,342.094,127.209,340.841,127.273,340.32
	L127.273,340.32z"/>
<path d="M171.684,339.472l-0.001-1.399c-0.002-0.86-1.907-5.299-2.227-5.773c-1.316-1.959-2.45-0.666-1.547,1.389
	c0.642,1.46,1.042,2.563,1.2,3.309c0.309,1.453,0.476,2.32,0.505,2.603c0.072,0.723,0.12,1.1,0.147,1.131
	c0.184,0.207,0.414,0.265,0.692,0.176c0.291-0.094,0.571-0.143,0.842-0.143C171.555,340.308,171.686,339.878,171.684,339.472
	L171.684,339.472z"/>
<path d="M130.798,394.988c0.043-0.57-0.199-0.683-0.73-0.335c-0.11,0.072-0.352,0.092-0.729,0.059
	c-0.843-0.076-1.405-0.598-1.684-1.567c-0.264-0.096-0.486-0.049-0.666,0.136c-0.069,0.302-0.128,0.522-0.177,0.669l-0.221,0.653
	c-0.339,1.008,3.279,2.271,3.366,1.246c0.02-0.236,0.077-0.354,0.168-0.354h0.325C130.656,395.494,130.771,395.325,130.798,394.988
	L130.798,394.988z"/>
<path d="M165.919,342.546l-0.002-0.395l-0.131-0.58c-0.194-0.847-0.288-1.526-0.281-2.039c0.015-1.146-0.133-2.307-0.438-3.484
	c-0.162-0.619-0.289-1.192-0.381-1.718c-0.214-1.215-0.608-1.951-1.181-2.205c-1.104-0.49-2.052,0.651-1.149,2.207
	c0.751,1.295,1.153,2.028,1.208,2.202c0.077,0.247,1.209,5.562,0.504,5.229c0.057,0.354,0.1,0.688,0.13,1.007
	C164.354,344.387,165.921,344.209,165.919,342.546L165.919,342.546z"/>
<path d="M117.826,325.53c-0.088-0.31-0.237-0.553-0.449-0.727l-0.649-0.534c-0.145-0.121-0.344-0.319-0.597-0.596l-0.366-0.773
	c-0.535-1.135-1.56-1.313-1.757-0.167c-0.036,0.216-0.036,0.403,0.001,0.562c0.114,0.483,0.701,1.15,1.76,1.997l0.701,0.566
	l0.517,0.74c0.151,0.216,0.399,0.174,0.742-0.13C117.922,326.299,117.955,325.987,117.826,325.53L117.826,325.53z"/>
<path d="M190.271,323.569c-0.241,0.214,0.011,1.429,0.753,3.64c0.388,1.159,0.653,2.949,0.794,5.374
	c0.033,0.562,0.047,0.865,0.04,0.907c-0.094,0.596-0.149,1.043-0.167,1.347c0.273,0.27,1.776,0.746,2.195-0.368
	c0.323-0.862,0.085-2.445-0.714-4.75c-0.229-0.664-0.515-1.794-0.855-3.395c-0.356-1.683-0.909-2.657-1.654-2.925
	c-0.028,0.114-0.106,0.17-0.233,0.17H190.271L190.271,323.569z"/>
<path d="M102.928,328.927v-0.167c-0.001-0.966-2.751-1.712-3.667-0.925c-0.237,0.202-0.296,0.345-0.175,0.428l0.138,0.089
	c0.122,0.082,0.18,0.165,0.172,0.245c0.025-0.002,0.23-0.06,0.616-0.169c0.67-0.189,1.269-0.022,1.793,0.501l0.507,0.504h0.28
	v-0.337C102.592,328.912,102.704,328.856,102.928,328.927L102.928,328.927z"/>
<path d="M279.531,360.033v-0.281c-1.097-0.459-1.833-0.873-2.205-1.243l-0.602-0.602c-0.014-0.014-0.071-0.014-0.169,0
	c-0.406,0.058-0.594,0.301-0.56,0.73c0.006,0.083,0.501,0.789,1.057,1.142c0.508,0.323,2.081,0.775,2.253,0.646
	C279.455,360.314,279.531,360.182,279.531,360.033L279.531,360.033z"/>
<path d="M236.68,325.334v-0.448c0-0.08-0.699-1.012-0.916-1.184c-0.662-0.526-2.135-0.399-2.396-0.268
	c-0.068,0.515,1.349,2.697,2.753,2.237C236.494,325.55,236.68,325.437,236.68,325.334L236.68,325.334z"/>
<path d="M130.804,335.786v-0.113c0-0.203-2.094-1.674-2.168-1.712c-0.335-0.172-0.661-0.179-0.975-0.021l0.001,0.226
	c0,0.06,0.037,0.08,0.112,0.056v0.056h-0.112c0.118,0.276,0.175,0.426,0.168,0.448l-0.056,0.225
	c0.256,0.127,0.442,0.234,0.558,0.314l0.533,0.379l0.614,0.228l0.532,0.354c0.455,0.308,0.682,0.276,0.681-0.092v-0.214
	L130.804,335.786L130.804,335.786z"/>
<path d="M124.086,340.063c0.282-1.908-1.428-4.527-2.479-4.197c-0.414,0.13-0.543,0.354-0.386,0.669l0.404,0.815
	c0.919,1.854,1.127,3.295,0.621,4.322l-0.382,0.773c-0.085,0.172-0.164,0.443-0.239,0.816
	C122.639,344.519,124.07,340.179,124.086,340.063L124.086,340.063z"/>
<path d="M198.108,350.022v0.111c0,0.057-0.103,0.112-0.288,0.17c-0.1,0.031-0.285-0.005-0.537-0.103
	c-1.665-0.615-0.254,2.14,1.715,0.443c0.605-0.528,0.657-0.831,0.169-0.898C198.998,349.712,198.108,349.867,198.108,350.022
	L198.108,350.022z"/>
<path d="M185.282,335.349c0.059-0.328-0.528-4.23-1.052-5.08c-0.548-0.885-1.102-1.147-1.667-0.782
	c-0.077,0.049-0.012,0.441,0.195,1.179l0.205,0.888l0.299,0.771l-0.154,0.966c-0.292,1.863-0.189,2.958,0.307,3.285
	C184.146,337.056,185.09,336.45,185.282,335.349L185.282,335.349z"/>
<path d="M271.671,359.741v-0.337l-0.493-0.588c-0.392-0.471-0.666-0.903-0.82-1.295l-0.278-0.716
	c-0.129-0.334-0.533-0.473-0.845-0.278c-0.205,0.129-0.337,0.454-0.316,0.501l0.37,0.763c0.664,1.373,1.401,2.135,2.215,2.289
	c0.016-0.04,0.036-0.078,0.059-0.114C271.633,359.841,271.671,359.765,271.671,359.741L271.671,359.741z"/>
<path d="M265.835,382.858c0.021-0.179-0.08-0.634-0.303-1.369c-0.497-1.643-0.736-2.605-0.714-2.891l0.382-5.438
	c0.028-0.397-0.029-0.62-0.17-0.674c-0.231-0.087-1.059,0.143-1.065,0.283l-0.033,0.778c-0.007,0.176-0.103,0.414-0.288,0.713
	l-0.289,0.64l0.461,7.4c0.016,0.268,0.562,1.239,0.785,1.397c0.218,0.154,0.461,0.229,0.73,0.226
	C265.632,383.513,265.8,383.156,265.835,382.858L265.835,382.858z"/>
<path d="M139.394,343.786c0.011-0.125,0.001-0.219-0.028-0.281c-0.058-0.118-0.086-0.191-0.085-0.223l0.054-1.458
	c0.105-2.854-3.484-2.882-2.207,0.613c0.634,1.736,1.24,2.447,1.819,2.136c0.099-0.054,0.158-0.158,0.179-0.311
	c0.018-0.127,0.058-0.218,0.119-0.271C139.34,343.911,139.39,343.841,139.394,343.786L139.394,343.786z"/>
<path d="M158.613,340.108l-0.001-0.729c-0.001-0.488-0.778-3.219-2.024-3.359c-0.401-0.047-0.532,0.085-0.391,0.393l0.256,0.568
	c0.322,0.713,0.388,1.252,0.195,1.618c-0.323,0.612,0.293,1.749,1.18,1.903C158.353,340.591,158.615,340.459,158.613,340.108
	L158.613,340.108z"/>
<path d="M145.533,328.795l-0.001-0.45c-0.002-1.017-1.27-2.237-1.973-1.814l-0.187,0.163l-0.198,0.143
	c-0.15,0.109,0.05,1.065,0.256,1.15l0.531,0.223l0.278,0.334c0.048,0.056,0.621,0.497,0.844,0.476
	C145.383,328.99,145.533,328.917,145.533,328.795L145.533,328.795z"/>
<path d="M171.762,357.916c-0.012-0.065-0.583-0.081-0.617-0.056l-0.26,0.187c-0.054,0.038-0.134,0.101-0.24,0.188l-0.229,0.188
	l-0.729,0.002c-0.117,0-0.172,0.056-0.168,0.167h-0.111l0.029,0.337l0.102,0.089c0.07,0.064,0.101,0.147,0.095,0.248l1.009-0.003
	l0.457-0.181c0.544-0.216,0.803-0.4,0.775-0.55L171.762,357.916L171.762,357.916z"/>
<path d="M173.057,383.802v0.168h-0.112l-0.042,0.042c-0.12,0.122-0.056,0.283,0.194,0.481l0.188,0.149l0.84,0.111
	C174.4,384.791,173.994,383.691,173.057,383.802L173.057,383.802z"/>
<path d="M120.693,332.092l-0.786,0.029l-0.039,0.06c-0.02,0.031-0.063,0.04-0.128,0.024c-0.037,0.615,0.068,1.077,0.313,1.383
	c0.204,0.254,0.437,0.316,0.699,0.187c-0.049-0.122,0.007-0.196,0.167-0.225L120.693,332.092L120.693,332.092z"/>
<path d="M201.409,348.454c0.024-0.045,0.049-0.09,0.076-0.132c0.437-0.723-0.406-0.914-0.959-0.564l-0.127,0.081v0.223l0.143,0.143
	c0.168,0.167,0.271,0.25,0.308,0.25H201.409L201.409,348.454z"/>
<path d="M166.212,356.513v-0.111h-0.28c-0.132,0-0.233-0.005-0.3-0.018c-0.68-0.125-0.687,0.668,0.076,0.86
	c0.311,0.078,0.673-0.283,0.673-0.339l-0.001-0.337L166.212,356.513L166.212,356.513z"/>
<path fill="#FFFFFF" d="M239.424,346.558c0.167-0.091,0.869,0.606,0.956,0.923C239.915,347.508,239.388,346.579,239.424,346.558
	L239.424,346.558z"/>
<path fill="#FFFFFF" d="M100.366,310.583c0.021-0.035,0.059-0.047,0.111-0.029l0.841,0.279h-0.336l-0.448-0.054l-0.061-0.063
	l-0.059-0.063L100.366,310.583L100.366,310.583z"/>
<polygon fill="#FFFFFF" points="238.036,358.074 238.373,358.074 238.54,358.129 238.54,358.241 238.484,358.241 238.036,358.129 
	238.036,358.074 "/>
<path fill="#FFFFFF" d="M265.62,362.739c0.109-0.038,0.301,0.321,0.28,0.393h-0.28l-0.114-0.337
	c0.036,0.002,0.061-0.005,0.076-0.021L265.62,362.739L265.62,362.739z"/>
<path fill="#FFFFFF" d="M92.696,311.971c-0.039-0.035-0.039-0.073,0-0.111c0.032-0.005,0.051-0.022,0.056-0.056l0.057,0.167H92.696
	L92.696,311.971z"/>
<polygon fill="#FFFFFF" points="164.009,375.745 164.121,375.745 164.121,375.856 164.065,375.856 164.009,375.8 164.009,375.745 
	"/>
<path fill="#FFFFFF" d="M226.928,372.618l0.029-0.17c0.031,0.003,0.061-0.006,0.083-0.028
	C227.022,372.513,226.987,372.58,226.928,372.618L226.928,372.618z"/>
<path fill="#FFFFFF" d="M133.858,345.656h0.167v0.111h-0.111c-0.038,0-0.056-0.018-0.056-0.056V345.656L133.858,345.656z"/>
<path fill="#FFFFFF" d="M276.109,362.103v-0.056c0.04-0.002,0.078,0.007,0.111,0.029l-0.073,0.009L276.109,362.103L276.109,362.103z
	"/>
<path fill="#FFFFFF" d="M213.778,343.369l-0.003-0.058c0.043-0.002,0.078,0.007,0.114,0.028l-0.076,0.01L213.778,343.369
	L213.778,343.369z"/>
<path fill="#FFFFFF" d="M212.365,326.263v-0.056c0.04-0.004,0.078,0.005,0.111,0.027l-0.074,0.009L212.365,326.263L212.365,326.263z
	"/>
<path fill="#FFFFFF" d="M238.602,358.303v-0.056c0.04-0.005,0.078,0.004,0.111,0.028l-0.073,0.01L238.602,358.303L238.602,358.303z"
	/>
<path d="M138.622,452.636c0,0.113-0.047,0.421-0.165,0.838c-0.195,0.669-0.479,1.177-0.826,1.542c-0.531,0.56-1.214,0.938-2.1,1.137
	c-0.546,0.118-1.612,0.228-3.134,0.295l-0.546,0.02v4.438h0.569h5.263v17.105h6.135v-25.943h-5.191L138.622,452.636z"/>
<path d="M153.087,429.608c0.64-1.234,0.971-2.512,0.971-3.805c0-1.054-0.17-2.015-0.521-2.866c-0.345-0.834-0.809-1.592-1.392-2.278
	c-0.719-0.843-1.609-1.484-2.646-1.917l-0.001,0.005c-1.056-0.443-2.47-0.662-4.278-0.695h-12.949v26.354h6.291v-9.893l5.621,0.004
	c0.633,1.661,3.235,9.055,3.353,9.472l0.114,0.412h7.038l-4.377-12.277C151.544,431.587,152.498,430.739,153.087,429.608z
	 M146.329,428.879c-0.463,0.219-1.292,0.361-2.428,0.361l-5.404-0.005v-5.628h5.556c1.089-0.005,1.875,0.151,2.3,0.379
	c0.79,0.421,1.198,1.154,1.217,2.574C147.544,427.843,147.157,428.483,146.329,428.879z"/>
<path d="M165.989,445.088c3.298,0,5.894-1.025,7.589-3.118c1.661-2.055,2.49-4.543,2.484-7.389c0.006-2.802-0.828-5.281-2.479-7.35
	c-1.7-2.135-4.302-3.185-7.615-3.176c-3.313-0.009-5.917,1.041-7.611,3.176c-1.656,2.068-2.49,4.548-2.485,7.35
	c-0.004,2.846,0.829,5.334,2.485,7.389c1.7,2.098,4.302,3.125,7.611,3.118C165.975,445.088,165.983,445.088,165.989,445.088z
	 M163.104,438.562c-0.659-0.871-1.032-2.187-1.032-3.98c0-1.797,0.374-3.099,1.032-3.966c0.677-0.867,1.551-1.288,2.849-1.297
	c1.292,0.016,2.159,0.43,2.825,1.297c0.663,0.867,1.032,2.169,1.032,3.966c0,1.799-0.369,3.109-1.032,3.98l0.455,0.346l-0.455-0.341
	c-0.667,0.867-1.533,1.283-2.825,1.293C164.655,439.85,163.781,439.434,163.104,438.562z"/>
<path d="M167.227,451.86c-2.58-0.004-4.766,0.892-6.406,2.664c-1.641,1.754-2.452,4.074-2.446,6.839
	c-0.005,2.668,0.815,4.837,2.484,6.325c1.617,1.44,3.523,2.181,5.628,2.176c1.408,0.005,2.646-0.285,3.666-0.9
	c0.151-0.089,0.298-0.189,0.443-0.297c-0.117,1.117-0.294,2.002-0.52,2.628c-0.635,1.632-1.475,2.263-2.849,2.287
	c-0.735,0-1.238-0.189-1.622-0.532c-0.399-0.37-0.641-0.825-0.745-1.444l-0.076-0.484h-5.979l0.065,0.631
	c0.223,2.228,1.157,4.02,2.778,5.221c1.575,1.166,3.381,1.759,5.354,1.754c0.031,0,0.063,0,0.094,0c4.043,0,6.997-2.135,8.479-6.094
	c0.796-2.096,1.18-4.665,1.18-7.715c0-3.139-0.403-5.699-1.242-7.694C174.063,453.695,171.167,451.832,167.227,451.86z
	 M169.137,464.269l0.309,0.479l-0.313-0.479c-0.507,0.332-1.02,0.488-1.583,0.488c-1.143-0.005-1.854-0.319-2.333-0.888
	c-0.469-0.584-0.759-1.556-0.759-2.953c0.004-1.656,0.436-2.679,1.186-3.263c0.492-0.384,1.056-0.578,1.788-0.582
	c1.004,0.014,1.683,0.332,2.238,1.014c0.56,0.702,0.867,1.665,0.867,2.987C170.521,462.708,170.047,463.676,169.137,464.269z"/>
<path d="M189.183,444.935c2.572,0,4.692-1.062,6.137-3.092c1.457-2.02,2.162-4.552,2.162-7.534c0-2.889-0.725-5.312-2.207-7.195
	c-1.476-1.908-3.611-2.882-6.194-2.873c-1.434,0.005-2.669,0.308-3.663,0.952c-0.404,0.249-0.789,0.553-1.155,0.909v-7.984h-5.997
	v26.324h5.913v-1.313c0.31,0.323,0.618,0.586,0.932,0.791c1.056,0.691,2.41,1.015,4.022,1.015
	C189.15,444.935,189.167,444.935,189.183,444.935z M185.072,438.456c-0.63-0.938-0.96-2.136-0.96-3.649
	c0-1.311,0.166-2.347,0.469-3.109c0.615-1.42,1.523-2.026,3.113-2.055c1.561,0.033,2.448,0.64,3.063,2.106
	c0.301,0.771,0.472,1.799,0.472,3.071c-0.004,1.576-0.332,2.788-0.947,3.683c-0.61,0.871-1.353,1.259-2.449,1.272
	C186.516,439.761,185.682,439.34,185.072,438.456z"/>
<path d="M195.456,451.896c-3.281-0.014-5.771,1.204-7.144,3.622c-1.344,2.36-1.975,5.61-1.975,9.759
	c0,4.152,0.631,7.396,1.975,9.742c1.373,2.41,3.862,3.622,7.144,3.604c0.024,0,0.049,0,0.076,0c3.243,0,5.699-1.212,7.059-3.604
	c1.354-2.347,1.988-5.59,1.988-9.742c0-4.148-0.635-7.402-1.988-9.759C201.222,453.1,198.737,451.882,195.456,451.896z
	 M197.75,471.663c-0.439,1.338-1.057,1.816-2.294,1.854c-1.237-0.038-1.872-0.521-2.329-1.859c-0.439-1.417-0.674-3.56-0.674-6.381
	c-0.004-2.954,0.234-5.132,0.674-6.458c0.445-1.262,1.081-1.728,2.329-1.765c1.25,0.037,1.863,0.499,2.294,1.754
	c0.428,1.337,0.659,3.509,0.659,6.469C198.409,468.098,198.181,470.241,197.75,471.663z"/>
<path d="M211.81,444.438h5.877v-19.78h-6.085v10.713c0,1.146-0.158,2.035-0.428,2.659c-0.548,1.141-1.382,1.651-2.899,1.676
	c-1.175-0.02-1.743-0.365-2.103-1.09c-0.193-0.406-0.327-1.139-0.321-2.153v-11.805h-0.568h-5.565v11.805
	c0.005,2.183,0.266,3.863,0.86,5.093c1.037,2.178,3.165,3.295,6.003,3.295c0.029,0,0.058,0,0.089,0c1.008,0,1.903-0.134,2.684-0.408
	c0.81-0.283,1.609-0.796,2.414-1.518c0.014-0.014,0.029-0.026,0.043-0.038v0.983V444.438z"/>
<path d="M229.804,452.221h-6.366l-9.366,15.461v4.992h9.821v5.334h5.911v-5.338h2.233h0.568v-0.568v-4.383h-2.802V452.221z
	 M219.241,467.719l4.647-8.021l0.005,8.021H219.241z"/>
<path d="M232.651,424.246c-0.186-0.012-0.316-0.016-0.408-0.019c-0.087-0.011-0.176-0.016-0.274-0.016
	c-1.556-0.004-2.896,0.413-3.923,1.275c-0.334,0.276-0.675,0.646-1.032,1.117v-1.946h-5.788v19.777h6.045v-9.479
	c0-1.442,0.193-2.479,0.501-3.052c0.563-1.045,1.59-1.591,3.444-1.609c0.134,0,0.318,0.005,0.56,0.019
	c0.223,0.011,0.483,0.028,0.787,0.063l0.628,0.071v-6.177L232.651,424.246z"/>
</svg>
