<?xml version="1.0" encoding="utf-8"?>
<!-- Generator: Adobe Illustrator 13.0.2, SVG Export Plug-In . SVG Version: 6.00 Build 14948)  -->
<!DOCTYPE svg PUBLIC "-//W3C//DTD SVG 1.0//EN" "http://www.w3.org/TR/2001/REC-SVG-20010904/DTD/svg10.dtd">
<svg version="1.0" id="Ebene_1" xmlns="http://www.w3.org/2000/svg" xmlns:xlink="http://www.w3.org/1999/xlink" x="0px" y="0px"
	 width="349.465px" height="563.024px" viewBox="0 0 349.465 563.024" enable-background="new 0 0 349.465 563.024"
	 xml:space="preserve">
<path fill="#FFFFFF" d="M349.465,281.512c0,155.48-78.224,281.512-174.732,281.512C78.231,563.024,0,436.992,0,281.512
	C0,126.032,78.231,0,174.733,0C271.242,0,349.465,126.032,349.465,281.512"/>
<path d="M309.332,123.017l-28.653,35.028c33.172,29.358,54.136,72.249,54.136,119.908c0,88.149-71.74,160.05-159.721,160.05
	c-36.257,0-69.758-12.228-96.626-32.776L43.76,447.662c30.321,64.633,77.84,106.396,131.106,106.396
	c91.192,0,165.571-122.367,165.571-272.417C340.437,222.549,328.894,167.748,309.332,123.017z"/>
<path fill="#006EB2" d="M174.866,9.221c-91.191,0-165.57,122.379-165.57,272.42c0,59.332,11.645,114.333,31.34,159.149
	l32.538-39.773c-35.271-29.405-57.801-73.678-57.801-123.064c0-88.153,71.755-160.049,159.721-160.049
	c37.996,0,72.961,13.422,100.433,35.764l30.697-37.522C275.909,51.207,228.281,9.221,174.866,9.221z"/>
<path d="M290.036,191.978c0.134,0.172,0.286,0.364,0.438,0.545c0.153-0.132,0.315-0.242,0.484-0.333
	c-5.946-8.037-12.702-15.44-20.147-22.085l-23.237,28.407C265.903,201.086,281.865,198.587,290.036,191.978z"/>
<path d="M298.441,351.385c-0.058,0.095-0.152,0.229-0.229,0.354l-5.204,0.019c-24.622,39.834-68.531,66.426-118.443,66.426
	c-0.971,0-1.943-0.021-2.916-0.021c-0.613-0.917-1.242-1.849-1.871-2.78c-0.048,0.037-0.072,0.06-0.072,0.06
	c-13.092-20.08-48.749-57.766-48.749-57.766c-0.657-0.654-1.367-1.228-2.161-1.741l-30.456,37.23
	c24.167,18.325,54.229,29.229,86.751,29.229c52.819,0,99.149-28.721,124.254-71.368l-0.41,0.023
	C298.937,351.223,298.726,351.308,298.441,351.385z"/>
<path fill="#006EB2" d="M58.906,335.172c0-6.827,6.937-11.638,6.937-17.11c0-5.434-2.611-9.309-2.611-9.309l3.583-2.836
	c-3.715-1.757-3.45-3.476-3.45-3.476c5.051-6.34,4.156-9.1,4.156-9.1c0-3.696-1.621-6.016-3.507-8.097
	c-1.755-1.966-3.756-3.752-4.746-6.272c-1.429-3.6,4.878-9.273,4.878-9.273c4.955-4.706,16.542-15.639,16.542-15.639
	c7.662-7.686,7.547-15.172,9.795-21.808c3.069-9.109,22.393-30.515,22.393-30.515c3.661-6.727,6.541-11.833,9.405-15.684
	c0.003-0.008,0.009-0.023,0.009-0.023s7.833-13.549,29.826-13.549c30.225,0,50.14,10.99,61.231,15.678
	c5.773,2.798,12.177,5.243,19.038,7.161c2.537,0.709,5.055,1.32,7.547,1.846l25.724-31.447
	c-24.785-20.122-56.305-32.213-90.565-32.213c-79.39,0-144.145,64.888-144.145,144.446c0,44.535,20.298,84.469,52.1,111.004
	l29.148-35.633c-3.923-0.981-9.259-1.753-16.928-2.78C66.796,346.687,58.906,344.11,58.906,335.172z"/>
<path fill="#FFFFFF" d="M63.979,126.635l-3.696-16.022l0.078-0.055l12.765,10.133L63.979,126.635z M76.854,123.291l8.481,6.672
	l4.354-2.823l-29.789-22.518l-4.519,2.937l8.042,36.637l4.104-2.663l-2.482-10.568L76.854,123.291z"/>
<polygon fill="#FFFFFF" points="70.628,96.298 96.486,84.304 98.255,88.118 87.48,93.115 100.495,121.165 96.188,123.162 
	83.173,95.111 72.397,100.115 "/>
<path fill="#FFFFFF" d="M115.108,99.81l1.213-16.406l0.102-0.023l9.178,13.473L115.108,99.81z M128.397,100.436l6.108,8.892
	l4.988-1.402l-21.754-30.353l-5.184,1.46l-3.187,37.385l4.707-1.323l0.759-10.834L128.397,100.436z"/>
<polygon fill="#FFFFFF" points="148.437,101.493 166.095,99.34 166.612,103.514 144.231,106.251 139.948,71.391 144.654,70.816 "/>
<path fill="#FFFFFF" d="M181.922,89.747l7.008-14.883l0.094,0.016l3.751,15.861L181.922,89.747z M194.099,95.088l2.53,10.498
	l5.161,0.474l-9.46-36.136l-5.364-0.498l-16.343,33.779l4.863,0.438l4.582-9.848L194.099,95.088z"/>
<polygon fill="#FFFFFF" points="238.947,79.042 243.364,80.35 233.316,114.011 228.203,112.488 219.213,80.205 219.119,80.181 
	211.006,107.367 206.597,106.051 216.644,72.394 222.032,74.007 230.748,106.204 230.834,106.227 "/>
<polygon fill="#FFFFFF" points="249.284,82.241 275.149,94.269 273.372,98.079 262.589,93.067 249.566,121.094 245.259,119.097 
	258.29,91.071 247.506,86.051 "/>
<path fill="#FFFFFF" d="M271.641,117.01l13.29-9.695l0.07,0.059l-4.299,15.725L271.641,117.01z M279.778,127.539l-2.812,10.427
	l4.299,2.886l9.013-36.238l-4.463-2.999l-30.541,21.782l4.057,2.725l8.755-6.441L279.778,127.539z"/>
<path fill="#FFFFFF" d="M110.018,483.622l-5.49-1.75l9.264-29.1l-9.569-3.046l1.308-4.084c6.79,1.652,9.734,1.887,13.509-4.303
	l4.025,1.288L110.018,483.622z"/>
<path fill="#FFFFFF" d="M146.11,473.246c-3.586-0.442-8.559-2.095-7.557-10.29c0.697-5.701,4.448-9.182,9.42-8.579
	c6.132,0.752,8.098,5.298,7.51,10.161C154.458,472.972,148.898,473.583,146.11,473.246 M144.725,477.945
	c3.955,0.481,8.426-0.826,10.407-3.916l0.102,0.137c-2.678,10.881-6.374,15.423-12.208,14.714c-4.37-0.529-6.586-3.52-6.367-7.866
	l-5.341-0.642c-0.501,4.123,1.276,11.731,11.292,12.952c14.69,1.797,17.854-17.596,18.402-22.142
	c0.854-6.918,1.081-19.949-12.514-21.609c-8.982-1.092-14.55,5.188-15.505,12.952C131.96,471.022,136.847,476.981,144.725,477.945"
	/>
<path fill="#FFFFFF" d="M198.797,472.459c0.673,10.736-1.738,17.385-7.894,17.768c-6.171,0.38-9.374-5.908-10.04-16.652
	c-0.666-10.74,1.739-17.385,7.894-17.765C194.929,455.427,198.132,461.715,198.797,472.459 M204.538,472.107
	c-0.548-8.916-3.751-21.884-16.077-21.116c-12.326,0.763-13.884,14.033-13.336,22.945c0.556,8.9,3.751,21.875,16.069,21.112
	C203.52,494.28,205.094,481.014,204.538,472.107"/>
<path fill="#FFFFFF" d="M211.515,448.32l28.575-8.16l1.292,4.53c-2.89,5.47-8.99,21.449-6.711,40.768l-5.701,1.625
	c-1.84-11.747,1.449-28.705,6.743-40.204l-22.741,6.496L211.515,448.32z"/>
<path d="M310.065,330.503c-12.233,14.13-29.844,23.307-49.568,23.851c-23.079,0.688-43.929-10.483-57.078-28.176
	c13.265,7.019,28.986,13.434,46.082,15.115C272.084,343.526,293.277,338.323,310.065,330.503"/>
<path d="M131.782,203.829c0,0,7.299-14.59,37.602-14.59c34.093,0,70.036,30.563,105.502,30.563c0,0,17.114-2.577,19-4.459
	c0,0-6.803,12.729-26.567,12.729c-43.565,0-64.833-30.134-106.626-30.134C143.292,197.937,131.782,203.829,131.782,203.829"/>
<path d="M140.549,233.141c0,0,7.279-14.609,37.619-14.609c34.056,0,65.311,28.311,95.421,28.311c0,0,20.945,1.136,30.988-8.955
	c0,0-6.288,17.645-34.036,17.645c-44.405,0-63.158-27.575-101.063-27.575C152.059,227.956,140.549,233.141,140.549,233.141"/>
<path d="M160.655,253.125c40.058,0,51.284,26.497,100.166,26.497c51.666,0,51.417-33.906,51.417-33.906s-4.839,23.346-46.919,23.346
	c-42.517,0-64.872-22.019-92.314-22.019c-20.449,0-26.395,7.783-26.395,7.783L160.655,253.125"/>
<path d="M165.534,280.834c0,0,10.12-4.66,20.01-4.66c22.412,0,34.342,17.311,76.536,17.311c0,0,42.194,1.48,51.303-22.504
	c0,0-1.944,34.641-51.437,34.641C215.636,305.621,210.09,280.834,165.534,280.834"/>
<path d="M173.156,306.718c0,0,5.489-2.424,16.047-2.424c30.511,0,39.639,13.883,74.496,13.883c0,0,33.521,0.467,51.131-17.13
	c0,0-13.816,28.359-50.789,28.359C215.351,329.405,210.623,306.718,173.156,306.718"/>
</svg>
