<?xml version="1.0" encoding="UTF-8"?>
<!DOCTYPE svg PUBLIC "-//W3C//DTD SVG 1.1//EN" "http://www.w3.org/Graphics/SVG/1.1/DTD/svg11.dtd">
<!-- Creator: CorelDRAW -->
<svg xmlns="http://www.w3.org/2000/svg" xml:space="preserve" width="1164px" height="1702px" shape-rendering="geometricPrecision" text-rendering="geometricPrecision" image-rendering="optimizeQuality" fill-rule="evenodd" clip-rule="evenodd"
viewBox="0 0 1163.41 1701.01"
 xmlns:xlink="http://www.w3.org/1999/xlink">
 <g id="Ebene_x0020_1">
  <metadata id="CorelCorpID_0Corel-Layer"/>
  <path fill="#E32219" d="M601.575 1698.7c-334.49,-13.6369 -597.445,-394.881 -566.404,-867.086 0,-184.286 39.3196,-355.455 106.163,-496.247 111.335,138.957 275.932,229.429 460.244,236.093l0 1127.24 -0.00354081 0z"/>
  <path fill="#172983" d="M581.991 16.6548c179.143,0 339.258,124.063 442.969,316.905 -103.712,137.094 -263.752,225.276 -442.794,225.276 -180.639,9.45987 -339.767,-85.3572 -443.001,-225.542 103.712,-192.698 263.755,-316.64 442.826,-316.64l0 0z"/>
  <path fill="white" d="M304.986 188.234c16.1201,-25.9093 42.8202,-54.2028 72.8983,-74.2166 55.8575,-37.1514 121.524,-26.313 120.037,42.4012 -0.474469,21.7406 -7.51951,41.5078 -30.2008,52.2848 41.0463,9.49292 66.5815,42.2171 66.4257,76.4615 -0.312772,67.5646 -81.5674,87.7567 -142.425,87.9066 -30.0167,0.0778979 -62.1755,-0.721146 -84.3162,-5.85533 14.0712,-9.71245 19.0236,-22.647 19.1204,-32.4834l0.00354081 -126.742c-0.0118027,-5.46348 -1.85421,-17.6769 -21.5435,-19.7566l0 0z"/>
  <path fill="white" d="M542.697 368.96c13.5531,-59.0549 8.5192,-238.176 3.28469,-305.838 10.9199,-4.58417 24.729,-5.63698 37.9174,-5.62989 39.4529,0.0283265 74.8788,4.67505 109.004,20.4671 17.3913,9.42801 19.8699,55.6675 1.70195,63.2838 -12.1509,-27.1899 -64.3519,-33.8608 -89.0279,-33.8419l0.0472108 88.813 57.1818 -0.0719965 -0.0188843 48.6437c-6.15866,-5.37141 -13.906,-6.21177 -22.1501,-6.19288l-34.7944 -0.012983c0,23.4803 -1.97695,85.6369 6.35812,130.686l-69.5038 -0.30569 0 0z"/>
  <path fill="white" d="M850.218 350.842c-22.9905,17.1257 -45.1584,20.401 -66.7597,20.2228 -34.51,-0.284445 -63.0997,-17.2815 -80.8498,-41.8206 -16.1662,-22.3378 -23.0649,-51.0172 -23.203,-77.1921 -0.184122,-35.8023 14.3899,-71.3368 45.287,-94.3308 17.4184,-12.9594 41.4429,-18.0404 62.2935,-18.4146 27.4932,-0.499255 73.7292,18.6896 72.8794,46.6266 -0.411915,13.4315 -8.34452,26.9751 -25.5788,26.3413 -30.0816,-1.11536 -14.967,-21.0879 -51.7537,-23.714 -16.3137,-1.15903 -29.9069,7.86297 -38.4072,19.0142 -9.97093,13.1093 -12.4412,28.0964 -12.2418,44.3817 0.411915,34.0921 14.0618,57.1476 35.4435,66.6535 22.771,10.1185 51.9012,5.89309 82.8173,-10.3734l0.0731768 42.6054 0 0z"/>
  <polygon fill="white" points="433.295,511.504 433.295,432.818 416.801,433.021 416.801,417.554 440.334,399.548 457.768,399.597 457.768,511.504 "/>
  <path fill="white" d="M531.013 466.116c-2.7642,1.8483 -5.53075,3.25991 -8.32563,4.22183 -2.78544,0.983166 -5.59921,1.47416 -8.41297,1.47416 -8.18754,0 -14.6212,-2.96366 -19.3175,-8.87446 -4.73053,-5.88601 -7.08517,-14.024 -7.08517,-24.408 0,-6.62958 0.764816,-12.3976 2.2614,-17.2626 1.49894,-4.88986 3.87837,-9.12468 7.10405,-12.6974 6.24836,-6.94472 15.2703,-10.4147 27.0152,-10.4147 11.0521,0 19.6739,3.44757 25.894,10.3392 6.20823,6.90813 9.31824,16.4848 9.31824,28.7455 0,12.322 -5.35253,28.4115 -16.0293,48.2908l-1.17437 2.13629 -12.7033 23.8427 -25.475 0 20.3573 -35.0257 0.375326 -0.681016c1.79165,-3.34725 3.86539,-6.56349 6.1976,-9.68649l0 0z"/>
  <path fill="white" d="M651.485 454.872c0,18.5999 -3.06398,32.7868 -9.22146,42.5795 -6.15747,9.79271 -15.0048,14.6802 -26.5313,14.6802 -11.464,0 -20.3042,-4.90285 -26.5124,-14.7203 -6.21177,-9.79979 -9.31234,-23.9737 -9.31234,-42.5393 0,-18.7061 3.06398,-32.9544 9.16835,-42.7577 6.12325,-9.81159 15.0142,-14.7203 26.6588,-14.7203 11.4829,0 20.3113,4.91229 26.4841,14.7203 6.17282,9.80805 9.26631,24.0516 9.26631,42.7577l0 0z"/>
  <path fill="white" d="M715.827 465.37c-2.77364,1.8424 -5.54255,3.25401 -8.32563,4.21947 -2.79134,0.971363 -5.59921,1.47416 -8.41651,1.47416 -8.1781,0 -14.6023,-2.9731 -19.3234,-8.86856 -4.71282,-5.89545 -7.08281,-14.0334 -7.08281,-24.4139 0,-6.62958 0.777799,-12.4011 2.27084,-17.2626 1.49304,-4.88042 3.86893,-9.12468 7.09815,-12.6974 6.24836,-6.93527 15.2609,-10.4206 27.0152,-10.4206 11.0521,0 19.6893,3.45347 25.9011,10.3427 6.20233,6.89514 9.31234,16.4848 9.31234,28.7455 0,12.322 -5.18729,28.5201 -16.0293,48.2908l-1.18027 2.14219 -12.6974 23.8368 -25.4797 -0.00236054 20.3632 -35.0257 0.365884 -0.686918c1.80818,-3.33427 3.87601,-6.55405 6.20823,-9.6735l0 0z"/>
  <path fill="#172983" d="M379.762 223.247l-0.0967822 -54.1898c23.5995,-27.1179 66.035,-33.2919 66.0197,-4.47441 -0.00708163,31.6147 -42.0094,50.1143 -65.9229,58.6642l0 0z"/>
  <path fill="white" d="M1036.61 400.092c62.9132,132.603 99.9029,293.775 99.9029,467.301 0,12.0695 -0.204187,24.0752 -0.56535,36.0219l-161.076 0 0 -436.967c22.0935,-20.4942 42.7435,-42.6692 61.7388,-66.356l0 0zm74.7548 710.56c-26.9373,126.948 -74.3535,240.727 -136.497,332.873l0.00118027 -332.873 136.496 0 0 0zm-343.739 527.116c-51.7478,27.2324 -106.994,43.4352 -164.447,46.5853l0 -573.702 164.447 0 0 527.116 0 0zm-164.447 -734.353l0 -281.138c57.1983,-2.06193 112.403,-12.7115 164.447,-30.7272l0 311.864 -164.447 0.00118027 0 0z"/>
  <path fill="white" d="M813 552.983l0 376.635 -209.818 0 209.818 0 0 -376.635 0 0zm-209.822 503.996l209.818 0 0 554.884 0 -554.884 -209.818 0 0 0zm337.191 438.128l0 -438.128 189.417 0 -189.417 0 0 438.128 0 0zm204.412 -565.489l-204.412 0 0 -452.219 0 452.219 204.412 0 0 0z"/>
  <path fill="#E32219" d="M812.016 503.13l0 394.369 -210.44 0 0 133.358 210.44 0 0 581.007c46.1734,-32.0149 89.0786,-73.283 127.748,-122.265l-0.00118027 -458.742 189.979 0c7.18549,-43.2593 12.2406,-87.8157 15.0402,-133.358l-205.019 0 0 -473.515c-39.2723,31.7174 -82.115,58.3998 -127.747,79.1466l0 0z"/>
  <path fill="#172983" d="M601.575 1698.7c-37.6967,2.68866 -110.076,-15.2279 -142.302,-29.017 -0.0188843,0 0.721146,-4.50628 0.702261,-4.51572l0.00236054 -1116.43c15.5996,4.41303 109.071,8.84141 120.122,9.5602 0.123928,0.0106224 0.243136,0.0141633 0.359983,0.0236054 7.10051,0.450864 13.579,-0.0920612 21.1162,0.168779l0.00236054 1140.21 -0.00354081 0zm-283.683 -110.656c-53.3542,-47.978 -101.794,-89.9272 -142.27,-159.595l1.16611 -1052.38c41.7887,44.1787 89.4315,82.233 141.608,112.736l0 1084.26 -0.503976 14.9741z"/>
  <path fill="#172983" d="M379.667 277.528c26.2469,-24.1672 88.7658,-35.7846 93.0467,7.79451 3.8288,38.9289 -65.688,44.8125 -92.9841,43.1011l-0.0625544 -50.8957 0 0z"/>
  <path fill="#172983" d="M523.076 417.926c-3.24457,0 -5.66176,1.45527 -7.27873,4.3375 -1.64294,2.89166 -2.44788,7.26339 -2.44788,13.1282 0,5.98279 0.806125,10.3994 2.39831,13.2662 1.59219,2.86334 4.03771,4.29973 7.32948,4.29973 3.30358,0 5.77389,-1.43639 7.37906,-4.26314 1.63586,-2.84445 2.44198,-7.26103 2.44198,-13.3028 0,-5.80811 -0.806125,-10.1834 -2.44198,-13.088 -1.60635,-2.92589 -4.07666,-4.37763 -7.38024,-4.37763l0 0z"/>
  <path fill="#172983" d="M604.843 455.031c0,14.1031 0.796683,23.786 2.41365,29.017 1.62641,5.23686 4.4567,7.85116 8.47199,7.85116 3.8406,0 6.57647,-2.55175 8.20643,-7.62927 1.62051,-5.07753 2.4231,-14.8207 2.4231,-29.2353 0,-14.5055 -0.787241,-24.3584 -2.37943,-29.5599 -1.59219,-5.17431 -4.3375,-7.76618 -8.25364,-7.76618 -3.94447,0 -6.77004,2.61076 -8.41651,7.85116 -1.64058,5.2227 -2.46559,15.0685 -2.46559,29.4714l0 0z"/>
  <path fill="#172983" d="M707.887 417.179c-3.23866,0 -5.66176,1.45882 -7.28227,4.3375 -1.62051,2.88222 -2.44198,7.25395 -2.44198,13.1246 0,5.98634 0.815567,10.4088 2.39831,13.2662 1.58274,2.85744 4.03417,4.29383 7.32948,4.29383 3.30358,0 5.77389,-1.43639 7.3826,-4.2537 1.62641,-2.85154 2.44198,-7.26339 2.44198,-13.3064 0,-5.80575 -0.82501,-10.1834 -2.44198,-13.088 -1.63113,-2.91527 -4.08256,-4.37409 -7.38614,-4.37409l0 0z"/>
  <ellipse fill="none" stroke="#F2D300" stroke-width="33.3096" cx="581.703" cy="850.503" rx="565.048" ry="833.849"/>
 </g>
</svg>
