<?xml version="1.0" encoding="utf-8"?>
<!-- Generator: Adobe Illustrator 13.0.2, SVG Export Plug-In . SVG Version: 6.00 Build 14948)  -->
<!DOCTYPE svg PUBLIC "-//W3C//DTD SVG 1.0//EN" "http://www.w3.org/TR/2001/REC-SVG-20010904/DTD/svg10.dtd">
<svg version="1.0" id="Ebene_1" xmlns="http://www.w3.org/2000/svg" xmlns:xlink="http://www.w3.org/1999/xlink" x="0px" y="0px"
	 width="371.677px" height="566px" viewBox="0 0 371.677 566" enable-background="new 0 0 371.677 566" xml:space="preserve">
<ellipse fill="#FFFFFF" cx="185.838" cy="283" rx="185.838" ry="283"/>
<path fill="#B50F24" d="M185.839,9.833v546.335c97.205,0,176.006-122.302,176.006-273.167
	C361.845,132.133,283.044,9.833,185.839,9.833z"/>
<path fill="#101E32" d="M9.833,283.001c0,150.865,78.801,273.167,176.006,273.167V9.833C88.633,9.833,9.833,132.133,9.833,283.001z"
	/>
<path fill="#101E32" d="M316.191,177.269H185.839v290.954c61.685-20.011,140.263-111.851,140.263-228.657
	C326.102,205.132,316.191,177.269,316.191,177.269z"/>
<path fill="#B50F24" d="M55.487,177.269c0,0-9.912,27.863-9.912,62.297c0,116.806,78.579,208.646,140.264,228.657V177.269H55.487z"
	/>
<path fill="#FFFFFF" d="M71.081,145.1l-0.27-0.23c0.027-0.132,0.053-0.264,0.053-0.494c0-0.659-2.078-1.515-4.373-1.515
	c-2.187,0-5.021,1.153-5.021,4.511c0,3.359,2.835,4.51,5.021,4.51c0.945,0,4.536-0.888,4.536-1.843c0-0.197-0.109-0.329-0.163-0.493
	l0.298-0.231l2.78,5.169l-0.324,0.23c-0.081-0.23-0.189-0.264-0.378-0.264c-0.54,0-3.05,1.778-7.072,1.778
	c-4.319,0-8.908-2.963-8.908-8.857s4.589-8.856,8.908-8.856c2.159,0,3.698,0.329,4.778,0.691c1.053,0.362,1.592,0.625,1.862,0.625
	c0.162,0,0.297-0.099,0.405-0.263l0.296,0.099L71.081,145.1z"/>
<path fill="#FFFFFF" d="M80.365,152.277c-0.701,2.404-0.864,2.831-0.864,3.029c0,0.198,0.109,0.329,0.487,0.329v0.396h-4.779v-0.396
	c0.378-0.099,0.54-0.23,0.702-0.757c0.243-0.757,4.805-15.244,4.805-15.441c0-0.23-0.296-0.296-0.54-0.329v-0.395h7.045v0.395
	c-0.297,0.033-0.486,0.099-0.486,0.428c0,0.263,3.321,10.107,4.995,15.112c0.27,0.791,0.432,0.988,0.756,0.988v0.396h-5.318v-0.396
	c0.378-0.032,0.513-0.197,0.513-0.396c0-0.132-0.809-2.535-0.917-2.963H80.365z M81.04,149.644h5.021l-2.618-7.835L81.04,149.644z"
	/>
<path fill="#FFFFFF" d="M106.602,149.742h-3.481c-0.298,0-0.378,0.264-0.405,0.658h-0.324v-4.609h0.324
	c0.027,0.428,0.107,0.593,0.405,0.593h7.963v0.396c-0.324,0.032-0.432,0.197-0.432,0.559v5.466c0,0.296,0.054,0.56,0.324,0.56h0.135
	v0.395c-2.43,1.646-5.372,2.469-8.692,2.469c-4.509,0-8.773-2.897-8.773-8.857s4.265-8.856,8.773-8.856
	c1.781,0,2.564,0.164,4.399,0.79c0.891,0.296,1.755,0.855,1.971,0.855c0.162,0,0.296-0.131,0.378-0.263l0.324,0.132l-1.755,4.346
	l-0.324-0.23c0.027-0.066,0.054-0.198,0.054-0.363c0-0.625-2.673-1.58-4.913-1.58c-2.564,0-4.912,1.68-4.912,5.235
	s2.833,5.103,5.182,5.103c1.485,0,2.673-0.23,3.779-0.625V149.742z"/>
<path fill="#FFFFFF" d="M117.912,152.014h9.286c0.296,0,0.405-0.165,0.486-0.921h0.324v5.794h-0.324
	c-0.081-0.691-0.189-0.855-0.486-0.855h-14.091v-0.396c0.675-0.065,0.756-0.296,0.756-0.592V139.7c0-0.296-0.081-0.526-0.756-0.592
	v-0.395h5.561v0.395c-0.675,0.066-0.756,0.296-0.756,0.592V152.014z"/>
<path fill="#FFFFFF" d="M130.329,156.031v-0.396c0.674-0.065,0.756-0.296,0.756-0.592V139.7c0-0.296-0.082-0.526-0.756-0.592v-0.395
	h5.56v0.395c-0.675,0.066-0.755,0.296-0.755,0.592v15.343c0,0.296,0.081,0.527,0.755,0.592v0.396H130.329z"/>
<path fill="#FFFFFF" d="M143.528,152.277c-0.702,2.404-0.863,2.831-0.863,3.029c0,0.198,0.107,0.329,0.485,0.329v0.396h-4.778
	v-0.396c0.377-0.099,0.54-0.23,0.702-0.757c0.243-0.757,4.805-15.244,4.805-15.441c0-0.23-0.296-0.296-0.54-0.329v-0.395h7.045
	v0.395c-0.297,0.033-0.486,0.099-0.486,0.428c0,0.263,3.32,10.107,4.994,15.112c0.271,0.791,0.432,0.988,0.755,0.988v0.396h-5.318
	v-0.396c0.378-0.032,0.513-0.197,0.513-0.396c0-0.132-0.809-2.535-0.917-2.963H143.528z M144.203,149.644h5.021l-2.618-7.835
	L144.203,149.644z"/>
<path fill="#FFFFFF" d="M162.666,155.043c0,0.296,0.081,0.527,0.756,0.592v0.396h-5.561v-0.396c0.674-0.065,0.755-0.296,0.755-0.592
	V139.7c0-0.296-0.081-0.526-0.755-0.592v-0.395h9.879c3.995,0,5.697,1.712,5.697,5.465c0,3.029-1.621,4.642-3.862,5.399l3.187,5.466
	c0.243,0.428,0.485,0.592,0.782,0.592v0.396h-5.614v-0.396c0.378-0.032,0.594-0.197,0.594-0.592c0-0.297-2.862-4.84-3.213-5.531
	h-2.644V155.043z M162.666,146.021h4.535c1.592,0,2.078-0.855,2.078-1.811s-0.485-1.811-2.078-1.811h-4.535V146.021z"/>
<path fill="#FFFFFF" d="M176.566,156.031v-0.396c0.674-0.065,0.754-0.296,0.754-0.592V139.7c0-0.296-0.08-0.526-0.754-0.592v-0.395
	h5.56v0.395c-0.674,0.066-0.755,0.296-0.755,0.592v15.343c0,0.296,0.082,0.527,0.755,0.592v0.396H176.566z"/>
<path fill="#FFFFFF" d="M213.197,145.1l-0.271-0.23c0.027-0.132,0.055-0.264,0.055-0.494c0-0.659-2.079-1.515-4.374-1.515
	c-2.186,0-5.021,1.153-5.021,4.511c0,3.359,2.835,4.51,5.021,4.51c0.945,0,4.534-0.888,4.534-1.843c0-0.197-0.106-0.329-0.16-0.493
	l0.297-0.231l2.779,5.169l-0.323,0.23c-0.081-0.23-0.188-0.264-0.378-0.264c-0.54,0-3.05,1.778-7.072,1.778
	c-4.319,0-8.908-2.963-8.908-8.857s4.589-8.856,8.908-8.856c2.16,0,3.698,0.329,4.778,0.691c1.052,0.362,1.592,0.625,1.862,0.625
	c0.162,0,0.297-0.099,0.405-0.263l0.296,0.099L213.197,145.1z"/>
<path fill="#FFFFFF" d="M225.854,152.277c-0.702,2.404-0.864,2.831-0.864,3.029c0,0.198,0.108,0.329,0.486,0.329v0.396h-4.778
	v-0.396c0.378-0.099,0.54-0.23,0.702-0.757c0.243-0.757,4.804-15.244,4.804-15.441c0-0.23-0.296-0.296-0.538-0.329v-0.395h7.045
	v0.395c-0.297,0.033-0.485,0.099-0.485,0.428c0,0.263,3.32,10.107,4.993,15.112c0.27,0.791,0.432,0.988,0.756,0.988v0.396h-5.317
	v-0.396c0.377-0.032,0.512-0.197,0.512-0.396c0-0.132-0.81-2.535-0.917-2.963H225.854z M226.528,149.644h5.021l-2.618-7.835
	L226.528,149.644z"/>
<path fill="#FFFFFF" d="M248.366,152.014h9.286c0.297,0,0.404-0.165,0.485-0.921h0.324v5.794h-0.324
	c-0.081-0.691-0.188-0.855-0.485-0.855h-14.091v-0.396c0.674-0.065,0.756-0.296,0.756-0.592V139.7c0-0.296-0.082-0.526-0.756-0.592
	v-0.395h5.561v0.395c-0.676,0.066-0.756,0.296-0.756,0.592V152.014z"/>
<path fill="#FFFFFF" d="M277.061,145.1l-0.271-0.23c0.027-0.132,0.054-0.264,0.054-0.494c0-0.659-2.078-1.515-4.373-1.515
	c-2.186,0-5.021,1.153-5.021,4.511c0,3.359,2.835,4.51,5.021,4.51c0.945,0,4.535-0.888,4.535-1.843c0-0.197-0.108-0.329-0.162-0.493
	l0.298-0.231l2.779,5.169l-0.324,0.23c-0.08-0.23-0.188-0.264-0.377-0.264c-0.54,0-3.051,1.778-7.073,1.778
	c-4.32,0-8.906-2.963-8.906-8.857s4.586-8.856,8.906-8.856c2.159,0,3.699,0.329,4.778,0.691c1.053,0.362,1.593,0.625,1.863,0.625
	c0.161,0,0.297-0.099,0.405-0.263l0.296,0.099L277.061,145.1z"/>
<path fill="#FFFFFF" d="M285.939,156.031v-0.396c0.675-0.065,0.756-0.296,0.756-0.592V139.7c0-0.296-0.081-0.526-0.756-0.592v-0.395
	h5.562v0.395c-0.676,0.066-0.756,0.296-0.756,0.592v15.343c0,0.296,0.08,0.527,0.756,0.592v0.396H285.939z"/>
<path fill="#FFFFFF" d="M314.418,147.372c0,5.762-3.833,8.857-8.421,8.857c-4.59,0-8.424-3.095-8.424-8.857
	c0-5.762,3.834-8.856,8.424-8.856C310.585,138.516,314.418,141.61,314.418,147.372z M301.569,147.372c0,3.095,2.077,4.84,4.428,4.84
	c2.347,0,4.425-1.745,4.425-4.84c0-3.095-2.078-4.84-4.425-4.84C303.646,142.532,301.569,144.277,301.569,147.372z"/>
<path fill="#FFFFFF" d="M155.068,498.067v-5.301h0.324c0,0.229,0.027,0.79,0.298,0.79c0.135,0,1.511-0.724,1.754-0.79v-1.053
	c0-0.461-0.324-0.561-0.54-0.594v-0.394h5.292v0.394c-0.378,0.033-0.702,0.133-0.702,0.594v15.342c0,0.462,0.323,0.56,0.648,0.594
	v0.395h-5.373v-0.395c0.351-0.034,0.675-0.132,0.675-0.594v-10.47c-1.862,0.561-2.025,0.593-2.052,1.481H155.068z"/>
<path fill="#FFFFFF" d="M172.047,502.907l0.27,0.165v0.297c0.027,1.152,1.728,1.646,3.482,1.646c2.267,0,4.427-1.482,4.643-4.61
	c-1.864,1.152-3.267,1.713-5.076,1.713c-2.78,0-5.264-2.206-5.264-5.795c0-4.247,3.563-5.794,6.451-5.794
	c4.508,0,7.505,2.798,7.505,8.56c0,5.795-3.833,9.153-8.259,9.153c-1.404,0-2.593-0.264-3.455-0.559
	c-0.866-0.298-1.377-0.562-1.485-0.562c-0.216,0-0.406,0.099-0.622,0.363l-0.323-0.164L172.047,502.907z M173.612,496.322
	c0,1.943,1.944,2.437,2.969,2.437c1.026,0,2.969-0.493,2.969-2.437c0-1.941-1.943-2.437-2.969-2.437
	C175.556,493.885,173.612,494.38,173.612,496.322z"/>
<path fill="#FFFFFF" d="M200.632,504.159c0.432,0,0.594-0.133,0.675-0.758h0.324v5.399h-0.324c-0.055-0.625-0.27-0.757-0.809-0.757
	h-11.986c-0.35,0-0.54,0.165-0.54,0.757h-0.325c-0.215-6.123,5.211-8.494,8.721-11.161c0.54-0.396,0.783-0.757,0.783-1.516
	c0-0.822-0.568-1.71-1.916-1.71c-2.512,0-4.536,2.205-4.536,3.061c0,0.133,0.054,0.33,0.108,0.494l-0.323,0.297l-2.863-4.906
	l0.298-0.263c0.107,0.13,0.271,0.263,0.485,0.263c0.298,0,0.944-0.725,2.053-1.416c1.133-0.724,2.671-1.415,4.723-1.415
	c3.078,0,5.858,2.37,5.858,5.663c0,4.871-5.507,5.497-7.72,7.968H200.632z"/>
<path fill="#FFFFFF" d="M220.04,499.384c0,5.07-3.348,8.856-7.343,8.856s-7.343-3.786-7.343-8.856c0-5.071,3.348-8.856,7.343-8.856
	S220.04,494.313,220.04,499.384z M209.35,499.384c0,2.437,0.998,4.972,3.348,4.972c2.348,0,3.347-2.535,3.347-4.972
	s-0.999-4.971-3.347-4.971C210.348,494.414,209.35,496.948,209.35,499.384z"/>
<polygon fill="#FFFFFF" points="124.516,230.627 124.516,353.273 247.161,353.273 247.161,344.513 247.161,230.627 "/>
<polygon fill="#101E32" points="130.356,236.468 130.356,347.432 241.32,347.432 241.32,344.513 241.32,236.468 "/>
<rect x="136.195" y="242.306" fill="#FFFFFF" width="46.726" height="46.724"/>
<rect x="188.76" y="294.87" fill="#FFFFFF" width="46.721" height="46.724"/>
<rect x="136.195" y="294.87" fill="#FFFFFF" width="46.726" height="46.724"/>
<rect x="188.76" y="242.306" fill="#FFFFFF" width="46.721" height="46.724"/>
<rect x="182.921" y="294.87" fill="#B50F24" width="5.838" height="46.724"/>
<rect x="182.921" y="242.306" fill="#B50F24" width="5.838" height="46.724"/>
<path d="M177.628,258.412c0-6.839-5.618-14.897-16.746-14.897c-11.477,0-16.012,4.814-16.012,12.908
	c0,0.393-0.015,0.776-0.033,1.151c8.67-1.621,18.632,1.993,22.217,7.172c0,0-13.393-1.313-23.18-1.497
	c-1,3.313-2.392,5.338-2.392,6.361c0,1.291,3.802,1.5,3.802,2.372c0,0.375-0.137,0.534-0.137,0.84c0,0.625,1.132,0.922,1.132,1.159
	c0,0.42-1.178,0.538-1.178,1.203c0,0.229,0.498,1.342,0.711,1.863c1.228,2.983,1.854,2.869,4.391,2.869c0,0,1.834,0.812,5.794,1.136
	c0.453,4.046,3.661,6.768,4.919,6.768c0.429,0,0.558-0.307,1.295-1.105c0.654-0.707,1.78-1.679,3.999-3.221
	c1.422-0.991,3.44-2.077,5.935-3.61c1.401-0.856,4.642-2.249,4.642-3.052c0-0.994-1.533-1.989-1.533-5.863
	C175.255,264.97,177.628,264.066,177.628,258.412z"/>
<path d="M230.192,258.412c0-6.839-5.617-14.897-16.746-14.897c-11.477,0-16.012,4.814-16.012,12.908
	c0,0.393-0.015,0.776-0.032,1.151c8.671-1.621,18.632,1.993,22.218,7.172c0,0-13.394-1.313-23.18-1.497
	c-1,3.313-2.392,5.338-2.392,6.361c0,1.291,3.802,1.5,3.802,2.372c0,0.375-0.137,0.534-0.137,0.84c0,0.625,1.131,0.922,1.131,1.159
	c0,0.42-1.178,0.538-1.178,1.203c0,0.229,0.497,1.342,0.711,1.863c1.228,2.983,1.854,2.869,4.391,2.869c0,0,1.835,0.812,5.795,1.136
	c0.452,4.046,3.66,6.768,4.919,6.768c0.431,0,0.558-0.307,1.296-1.105c0.653-0.707,1.78-1.679,3.996-3.221
	c1.425-0.991,3.442-2.077,5.938-3.61c1.4-0.856,4.642-2.249,4.642-3.052c0-0.994-1.534-1.989-1.534-5.863
	C227.819,264.97,230.192,264.066,230.192,258.412z"/>
<path d="M177.628,310.975c0-6.84-5.618-14.897-16.746-14.897c-11.477,0-16.012,4.814-16.012,12.908c0,0.393-0.015,0.776-0.033,1.15
	c8.67-1.62,18.632,1.994,22.217,7.172c0,0-13.393-1.312-23.18-1.495c-1,3.313-2.392,5.338-2.392,6.36
	c0,1.291,3.802,1.501,3.802,2.372c0,0.375-0.137,0.534-0.137,0.841c0,0.625,1.132,0.922,1.132,1.157
	c0,0.421-1.178,0.539-1.178,1.205c0,0.229,0.498,1.342,0.711,1.861c1.228,2.984,1.854,2.871,4.391,2.871
	c0,0,1.834,0.812,5.794,1.136c0.453,4.047,3.661,6.768,4.919,6.768c0.429,0,0.558-0.307,1.295-1.105
	c0.654-0.706,1.78-1.679,3.999-3.221c1.422-0.991,3.44-2.077,5.935-3.609c1.401-0.858,4.642-2.251,4.642-3.053
	c0-0.993-1.533-1.988-1.533-5.863C175.255,317.533,177.628,316.629,177.628,310.975z"/>
<path d="M230.192,310.975c0-6.84-5.617-14.897-16.746-14.897c-11.477,0-16.012,4.814-16.012,12.908c0,0.393-0.015,0.776-0.032,1.15
	c8.671-1.62,18.632,1.994,22.218,7.172c0,0-13.394-1.312-23.18-1.495c-1,3.313-2.392,5.338-2.392,6.36
	c0,1.291,3.802,1.501,3.802,2.372c0,0.375-0.137,0.534-0.137,0.841c0,0.625,1.131,0.922,1.131,1.157
	c0,0.421-1.178,0.539-1.178,1.205c0,0.229,0.497,1.342,0.711,1.861c1.228,2.984,1.854,2.871,4.391,2.871
	c0,0,1.835,0.812,5.795,1.136c0.452,4.047,3.66,6.768,4.919,6.768c0.431,0,0.558-0.307,1.296-1.105
	c0.653-0.706,1.78-1.679,3.996-3.221c1.425-0.991,3.442-2.077,5.938-3.609c1.4-0.858,4.642-2.251,4.642-3.053
	c0-0.993-1.534-1.988-1.534-5.863C227.819,317.533,230.192,316.629,230.192,310.975z"/>
</svg>
