<?xml version="1.0" encoding="utf-8"?>
<!-- Generator: Adobe Illustrator 13.0.2, SVG Export Plug-In . SVG Version: 6.00 Build 14948)  -->
<!DOCTYPE svg PUBLIC "-//W3C//DTD SVG 1.0//EN" "http://www.w3.org/TR/2001/REC-SVG-20010904/DTD/svg10.dtd">
<svg version="1.0" id="Ebene_1" xmlns="http://www.w3.org/2000/svg" xmlns:xlink="http://www.w3.org/1999/xlink" x="0px" y="0px"
	 width="566.928px" height="502.276px" viewBox="0 0 566.928 502.276" enable-background="new 0 0 566.928 502.276"
	 xml:space="preserve">
<path fill="#FFFFFF" d="M403.056,502.276c-13.248-11.088-26.352-22.32-38.952-34.128c-10.08-9.432-19.584-19.08-28.512-29.16
	c-34.632,24.264-76.68,38.448-121.968,38.448C97.128,477.435,0,382.179,0,263.811C0,146.236,95.976,50.26,213.624,50.26
	c28.872,0,56.376,5.832,81.504,16.272c4.896,2.016,9.648,4.176,14.328,6.552c16.128-12.384,32.616-23.544,48.96-34.992
	c1.224-7.632,6.12-14.616,11.664-19.8c11.448-10.8,23.328-11.592,37.296-5.256c5.04,2.304,9.792,3.6,15.408,3.384
	c10.224-0.36,19.152,0,27.072,1.368c16.128,2.736,28.872,10.152,38.664,23.256c4.752,6.408,9,14.184,13.104,23.76
	c1.8,3.456,4.896,8.496,8.712,11.52c7.271,5.76,16.344,0.648,19.584-7.056c6.192-14.4-4.896-37.512-13.104-49.032
	c-3.528-4.968-4.896-10.728,0.216-15.336c1.008-0.936,2.304-1.944,3.672-2.736c5.976-3.744,12.168-2.592,16.632,3.168
	c11.232,14.472,22.752,36.648,24.624,57.816c1.44,16.416-3.6,32.976-15.984,43.344h20.952l-0.144,70.056
	c-0.144,69.48-12.96,133.776-47.664,195.12c-20.736,36.576-46.44,67.752-77.112,96.48
	C429.408,479.955,416.304,491.188,403.056,502.276z"/>
<path d="M403.056,494.283c-23.544-19.728-46.44-40.248-66.744-63.36c-34.416,25.344-76.824,40.392-122.688,40.392
	c-57.096,0-109.008-23.328-146.592-60.912S6.192,320.98,6.192,263.811c0-114.192,93.168-207.36,207.432-207.36
	c34.848,0,67.68,8.64,96.48,23.832c13.824-10.8,28.152-20.736,42.552-30.744c3.024-2.016,5.976-4.104,11.592-7.992
	c0.144-7.2,4.968-14.112,10.008-18.792c9.792-9.216,18.648-9.504,30.6-4.104c6.048,2.736,11.304,4.176,18.144,3.96
	c19.8-0.72,34.056,1.224,45.432,8.064c11.448,6.84,19.728,18.36,27.648,36.648c2.808,5.472,5.976,9.792,9.36,12.816
	c6.264,5.688,13.536,6.48,20.88,2.088c3.744-2.232,6.84-5.544,8.64-9.144c8.352-16.488-3.528-42.84-13.176-56.376
	c-1.728-2.448-3.096-5.04-0.648-7.272c1.584-1.44,3.744-2.88,5.256-3.24c2.52-0.504,4.536,0.864,6.12,2.88
	c18.504,23.904,37.8,69.84,8.352,93.528c-7.056,5.616-16.272,7.992-25.2,7.416c-0.648,0.936-1.368,1.8-2.088,2.592h47.16
	l-0.144,63.936c0,21.456-1.008,42.048-3.6,62.568c-5.832,46.008-20.304,89.064-43.2,129.528
	c-12.672,22.392-27.576,43.56-43.632,61.848C449.784,453.747,426.744,474.411,403.056,494.283z"/>
<path fill="#E5AB50" d="M19.656,319.9c9.576,33.12,27.504,62.856,51.336,86.616c36.576,36.576,87.048,59.256,142.632,59.256
	c19.08,0,37.584-2.664,55.08-7.632c13.968-18.216,21.456-41.472,14.832-64.296c-5.616-19.584-21.888-40.824-43.632-42.984
	c-22.824,9.216-46.512,15.12-70.56,17.064c-22.752,1.8-45.864,0-68.688-6.12C70.56,353.668,43.488,339.196,19.656,319.9z"/>
<path fill="#E5AB50" d="M20.088,206.427c-5.472,18.216-8.424,37.512-8.424,57.384c0,16.128,1.944,31.824,5.544,46.872
	c24.624,21.312,52.992,37.152,84.888,45.792c22.104,5.904,44.568,7.704,66.816,5.904c23.4-1.872,46.512-7.632,68.688-16.56
	c13.824-22.32,17.856-47.592,4.824-72c-6.624-12.312-16.92-22.608-29.808-28.584c-11.376-5.328-32.256-9.432-44.352-5.904
	c-36.144,10.584-70.704,6.48-99.72-18.792C51.264,220.396,33.624,217.011,20.088,206.427z"/>
<path fill="#E5AB50" d="M186.768,63.723C109.44,74.092,45.72,128.524,21.816,200.811c12.456,10.584,29.16,13.896,45.504,14.184
	c11.232-38.016,29.016-70.344,53.28-97.632C138.96,96.699,161.064,78.916,186.768,63.723z"/>
<path fill="#E5AB50" d="M245.448,131.26v-18.648h28.44c0.432-0.576,0.936-1.296,1.44-1.944c4.392-6.048,7.056-9.72,14.328-14.112
	c3.456-2.088,6.624-4.752,9.936-7.632c1.872-1.656,3.816-3.312,5.76-4.824c-27.504-14.184-58.68-22.176-91.728-22.176
	c-4.392,0-8.856,0.144-13.176,0.432c-29.952,16.2-55.224,35.568-75.744,58.68c-23.688,26.64-41.112,58.32-52.2,95.616
	c27.144,23.472,59.112,27.36,92.952,17.712c9.144-22.248,21.168-42.408,35.712-60.336
	C214.056,158.115,228.888,143.86,245.448,131.26L245.448,131.26z M213.84,86.26c-2.88,2.088-5.688,4.176-8.496,6.336
	c2.952,1.512,5.976,3.312,9,5.4c1.152,0.792,2.232,1.584,0.72,3.816c-1.584,2.304-2.736,1.512-3.816,0.72
	c-3.672-2.52-7.272-4.536-10.728-6.12c-6.48,5.184-12.672,10.656-18.576,16.2c3.312,1.656,6.552,3.528,9.864,5.688
	c1.152,0.792,2.304,1.584,0.792,3.888c-1.512,2.304-2.664,1.512-3.816,0.792c-3.744-2.52-7.344-4.608-11.16-6.264
	c-0.072,0.144-0.216,0.216-0.36,0.36c-4.464,4.392-8.784,8.928-12.96,13.608c3.816,1.656,7.56,3.744,11.232,6.48
	c1.152,0.792,2.232,1.584,0.576,3.816c-1.656,2.232-2.736,1.368-3.816,0.576c-3.888-2.88-7.848-4.896-11.88-6.552
	c-4.752,5.616-9.36,11.304-13.68,17.136c-0.792,1.08-1.584,2.232-3.816,0.576c-2.232-1.656-1.368-2.736-0.576-3.888
	c3.96-5.328,8.136-10.584,12.528-15.768c-3.384-1.008-6.768-1.728-10.224-2.448c-1.296-0.288-2.664-0.576-2.16-3.24
	c0.576-2.736,1.944-2.448,3.312-2.16c4.32,0.864,8.712,1.944,12.96,3.312c4.248-4.752,8.64-9.432,13.248-13.968
	c-3.24-1.08-6.624-1.872-10.44-2.376c-1.368-0.216-2.736-0.432-2.376-3.168c0.432-2.736,1.8-2.52,3.168-2.304
	c5.184,0.72,9.792,1.944,14.04,3.528c5.904-5.616,12.024-11.016,18.36-16.272c-3.96-1.44-7.488-2.376-10.152-2.952
	c-1.368-0.288-2.736-0.576-2.16-3.312c0.576-2.664,1.944-2.376,3.24-2.088c3.672,0.72,8.568,2.088,14.04,4.392
	c3.528-2.808,7.128-5.544,10.872-8.208c1.08-0.792,2.232-1.584,3.816,0.648C216.072,84.676,214.92,85.468,213.84,86.26z"/>
<path fill="#E5AB50" d="M332.712,426.747c-14.832-17.424-28.584-37.224-40.392-58.104c-22.824-40.464-37.296-83.52-43.128-129.528
	c-2.592-20.52-3.6-41.112-3.6-62.568l-0.072-38.304c-14.904,11.664-28.368,24.768-40.032,39.24
	c-13.536,16.704-24.84,35.352-33.624,55.872c14.688-1.08,29.664,0.576,43.056,6.84c14.04,6.624,25.2,17.712,32.328,31.032
	c13.32,24.912,10.296,51.264-3.24,74.664c22.32,4.176,38.88,25.704,44.856,46.44c6.336,22.032,0.648,44.568-11.52,63.144
	C297.36,448.78,316.008,438.988,332.712,426.747z"/>
<path fill="#FFFFFF" d="M451.872,112.612h16.416c-0.864-0.432-1.728-0.792-2.592-1.152c-4.896-1.8-10.08-2.88-15.264-2.952
	C450.576,108.796,451.368,111.172,451.872,112.612z"/>
<path fill="#D9D9D9" d="M399.384,112.612h46.872c-0.144-0.288-0.288-0.576-0.36-0.792c-3.672-8.64-10.512-15.624-14.256-24.12
	c-2.232-5.184-1.008-10.872-3.456-15.84c-1.8-3.816-3.24-7.776-4.608-11.736c-2.592-7.128-6.336-9.72-11.736-14.112
	c-3.096-2.448,0.36-6.768,3.456-4.32c6.48,5.256,10.44,8.136,13.464,16.56c1.296,3.816,2.664,7.632,4.392,11.232
	c2.592,5.328,1.368,10.944,3.528,15.984c1.872,4.176,6.192,9.72,8.856,13.68c3.312,4.968,3.384,3.456,9.072,4.104
	c4.536,0.432,8.856,1.512,12.96,3.096c3.744,1.368,7.272,3.312,11.16,4.464c3.6,1.08,3.888-1.08,1.152-3.096
	c-2.232-1.512-5.4-3.168-5.544-3.312c-3.096-2.52,0.36-6.768,3.456-4.248c4.896,3.96,8.064,5.112,12.456-0.072
	c2.88-0.144,5.256-0.288,5.04-3.96c-0.144-1.152-0.432-2.592-1.08-4.248c-1.296-3.744,3.816-5.616,5.184-1.872
	c0.864,2.232,1.296,4.104,1.368,5.76c0.288,2.736,1.728,4.536,3.744,5.76c3.024,1.728,6.624,1.872,10.08,1.656
	c2.808-0.216,3.528-1.368,4.32,1.368c6.624-0.072,13.32-2.088,18.504-6.264c26.64-21.384,7.128-64.872-9.36-86.112
	c-0.36-0.432-3.24,0.648-2.16,1.872c11.16,15.696,23.616,42.48,13.968,61.56c-2.232,4.464-6.12,8.568-10.728,11.304
	c-9.36,5.616-19.296,4.608-27.36-2.592c-3.888-3.528-7.488-8.424-10.656-14.616l-0.144-0.216
	c-7.344-17.208-14.976-27.936-25.344-34.056c-10.368-6.192-23.688-7.992-42.48-7.344c-7.56,0.288-13.752-1.368-20.592-4.464
	c-9.864-4.464-16.344-4.464-24.552,3.168c-10.512,9.864-11.304,17.712-0.792,26.496c-9.792,9.216-15.768,20.592-9.072,33.84
	C374.04,98.643,387.936,107.427,399.384,112.612L399.384,112.612z M467.856,61.564c0,2.52-2.016,4.608-4.608,4.608
	c-3.456-0.144-5.04-4.176-4.032-6.984c0.864-2.664,1.584-1.296,1.152-4.68c2.304,2.16,7.992,2.88,4.752-1.008
	c-1.944-2.304-6.192-3.672-6.336-7.272c-0.072-1.08,1.8-0.432,3.744,0.432c2.952,1.224,4.968,0.792,7.128,3.672
	c1.872,2.448,1.872,5.184,1.224,6.696C470.016,59.044,467.856,58.9,467.856,61.564L467.856,61.564z M444.384,62.283
	c1.224,2.952,2.664,5.112,4.392,6.552c4.392,3.816,9.288,2.664,13.68,7.848c2.592,2.952,4.536,6.84,5.616,9.864
	c1.44,3.672-3.744,5.616-5.112,1.872c-0.936-2.52-2.592-5.688-4.68-8.136c-3.6-4.248-8.784-3.528-13.104-7.272
	c-2.376-2.016-4.32-4.824-5.904-8.568C437.76,60.772,442.872,58.683,444.384,62.283L444.384,62.283z M436.968,43.276l3.888,0.792
	c2.736,0.432,2.088,5.976-1.08,5.4l-3.168-0.648c-2.736,3.168-8.136,1.368-8.136-3.024C428.472,41.187,434.52,39.531,436.968,43.276
	z"/>
<path fill="#EDEDEE" d="M280.728,112.612h103.68c-9.864-5.544-18.72-13.464-22.68-23.328c-4.824-12.096-1.368-26.352,7.344-35.784
	c-1.656-1.8-2.952-3.816-3.744-5.976c-2.592,1.8-6.048,4.176-9.504,6.552c-16.272,11.232-32.328,22.392-47.736,34.92
	c-1.728,1.368-3.312,2.736-4.896,4.032c-3.528,3.096-6.84,5.976-10.728,8.28C286.632,104.763,284.112,107.86,280.728,112.612z"/>
<polygon fill="#FFFFFF" points="555.12,173.092 555.192,118.084 250.992,118.084 251.064,173.092 "/>
<path fill="#DB111B" d="M289.224,178.635h-38.16c0.144,20.592,1.08,40.32,3.6,59.76c5.04,39.744,16.632,77.256,34.56,112.752
	V178.635z"/>
<path fill="#2799D1" d="M333.648,178.635h-38.88v183.024c0.792,1.44,1.584,2.808,2.376,4.248
	c10.8,19.08,23.184,37.224,36.504,53.424V178.635z"/>
<path fill="#DB111B" d="M378.072,178.635h-38.88v247.176c0.288,0.36,0.576,0.72,0.864,1.08
	c11.88,13.536,24.696,26.208,38.016,38.376V178.635z"/>
<path fill="#DB111B" d="M516.888,351.148c18-35.496,29.592-73.008,34.632-112.752c2.52-19.44,3.456-39.168,3.6-59.76h-38.232
	V351.148z"/>
<path fill="#2799D1" d="M472.464,419.331c13.32-16.2,25.776-34.344,36.504-53.424c0.864-1.44,1.656-2.808,2.376-4.248V178.635
	h-38.88V419.331z"/>
<path fill="#DB111B" d="M428.04,465.267c13.32-12.168,26.136-24.84,38.016-38.376c0.288-0.36,0.576-0.72,0.864-1.08V178.635h-38.88
	V465.267z"/>
<path fill="#2799D1" d="M403.056,487.084c6.552-5.544,13.032-11.088,19.44-16.848v-291.6h-38.88v291.6
	C390.024,475.995,396.504,481.539,403.056,487.084z"/>
<path fill="#FFFFFF" d="M494.208,110.74c5.616,1.872,11.232,2.376,15.552-2.16c-3.6-0.432-6.912-1.8-10.224-3.312
	c-2.088-1.152-6.552-1.44-7.848,0.432C490.536,107.5,490.248,109.659,494.208,110.74z"/>
<path d="M285.338,140.758h-0.895c-0.727-3.581-2.515-8.425-5.366-8.425c-2.068,0-3.102,0.758-3.102,10.025v8.13
	c0,6.908,1.453,8.256,3.41,8.256c3.074,0,4.919-4.212,5.422-8.341h0.866c-0.503,6.824-3.801,10.447-8.217,10.447
	c-6.176,0-10.48-6.023-10.48-15.459c0-8.593,4.528-14.996,10.173-14.996c1.509,0,2.348,0.421,3.745,1.137
	c0.503,0.252,0.866,0.716,1.369,0.716c0.335,0,0.559-0.295,0.839-0.547l1.509-1.306h0.727V140.758z"/>
<path d="M286.762,160.219v-1.137h0.643c0.894,0,1.565-2.485,2.012-4.297l5.757-23.758h5.841l6.903,28.055h1.538v1.137h-12.409
	v-1.137h2.012l-1.984-8.593h-5.646l-1.118,4.507c-0.782,3.159,0.335,4.086,1.063,4.086h0.754v1.137H286.762z M294.224,138.652
	l-2.543,10.7h5.115L294.224,138.652z"/>
<path d="M309.986,160.219v-1.137h2.124v-26.917h-2.124v-1.137h13.136v1.137h-2.459v26.917h1.286c4.22,0,5.505-5.182,6.344-10.447
	h0.811v11.584H309.986z"/>
<path d="M348.972,140.758h-0.894c-0.727-3.581-2.516-8.425-5.366-8.425c-2.068,0-3.102,0.758-3.102,10.025v8.13
	c0,6.908,1.453,8.256,3.41,8.256c3.074,0,4.918-4.212,5.422-8.341h0.866c-0.503,6.824-3.801,10.447-8.217,10.447
	c-6.176,0-10.48-6.023-10.48-15.459c0-8.593,4.528-14.996,10.173-14.996c1.509,0,2.348,0.421,3.745,1.137
	c0.503,0.252,0.866,0.716,1.369,0.716c0.335,0,0.559-0.295,0.838-0.547l1.509-1.306h0.727V140.758z"/>
<path d="M350.732,160.219v-1.137h2.124v-26.917h-2.124v-1.137h12.912v1.137h-2.124v26.917h2.124v1.137H350.732z"/>
<path d="M386.785,145.602c0,9.015-4.863,15.249-10.983,15.249c-6.428,0-10.956-7.077-10.956-15.249
	c0-9.394,5.198-15.207,10.956-15.207C381.67,130.396,386.785,136.546,386.785,145.602z M373.929,156.512
	c0,1.685,0.615,3.202,1.873,3.202c1.341,0,1.9-1.517,1.9-3.202v-19.587c0-2.106-0.028-5.392-1.9-5.392
	c-1.789,0-1.873,3.286-1.873,5.392V156.512z"/>
<path d="M415.71,140.758h-0.895c-0.727-3.581-2.515-8.425-5.366-8.425c-2.068,0-3.103,0.758-3.103,10.025v8.13
	c0,6.908,1.454,8.256,3.41,8.256c3.075,0,4.919-4.212,5.422-8.341h0.867c-0.503,6.824-3.801,10.447-8.217,10.447
	c-6.177,0-10.48-6.023-10.48-15.459c0-8.593,4.527-14.996,10.173-14.996c1.509,0,2.348,0.421,3.745,1.137
	c0.503,0.252,0.867,0.716,1.37,0.716c0.335,0,0.559-0.295,0.838-0.547l1.509-1.306h0.727V140.758z"/>
<path d="M417.134,160.219v-1.137h0.643c0.895,0,1.565-2.485,2.012-4.297l5.757-23.758h5.841l6.903,28.055h1.537v1.137h-12.409
	v-1.137h2.012l-1.984-8.593h-5.646l-1.118,4.507c-0.783,3.159,0.335,4.086,1.062,4.086h0.754v1.137H417.134z M424.596,138.652
	l-2.543,10.7h5.115L424.596,138.652z"/>
<path d="M444.103,132.165c-3.27,0.421-4.556,5.476-5.199,9.604h-0.866l0.14-10.741h20.458l0.14,10.741h-0.866
	c-0.643-4.128-1.928-9.183-5.198-9.604v26.917h2.543v1.137h-13.723v-1.137h2.571V132.165z"/>
<path d="M457.518,160.219v-1.137h0.643c0.894,0,1.565-2.485,2.012-4.297l5.757-23.758h5.841l6.903,28.055h1.537v1.137h-12.409
	v-1.137h2.012l-1.984-8.593h-5.646l-1.118,4.507c-0.783,3.159,0.335,4.086,1.062,4.086h0.755v1.137H457.518z M464.98,138.652
	l-2.543,10.7h5.115L464.98,138.652z"/>
<path d="M480.658,160.219v-1.137h0.699c1.202,0,1.565-2.064,1.565-4.002v-20.683c-0.531-1.053-0.978-2.274-1.845-2.274h-0.419
	v-1.095h10.62l7.574,15.628v-12.385c0-1.179-0.867-2.106-1.9-2.106h-0.559v-1.137h5.757v1.137h-0.838
	c-1.454,0-1.426,1.643-1.426,5.097v22.958h-4.695L483.9,136.799v18.282c0,1.938,0.279,4.002,1.621,4.002h0.895v1.137H480.658z"/>
<path d="M502.876,160.219v-1.137H505v-26.917h-2.124v-1.137h12.912v1.137h-2.124v26.917h2.124v1.137H502.876z"/>
<path d="M516.514,160.219v-1.137h0.643c0.894,0,1.565-2.485,2.012-4.297l5.757-23.758h5.841l6.903,28.055h1.537v1.137h-12.409
	v-1.137h2.012l-1.984-8.593h-5.646l-1.118,4.507c-0.783,3.159,0.335,4.086,1.062,4.086h0.755v1.137H516.514z M523.976,138.652
	l-2.543,10.7h5.115L523.976,138.652z"/>
</svg>
