<?xml version="1.0" encoding="utf-8"?>
<!-- Generator: Adobe Illustrator 13.0.2, SVG Export Plug-In . SVG Version: 6.00 Build 14948)  -->
<!DOCTYPE svg PUBLIC "-//W3C//DTD SVG 1.0//EN" "http://www.w3.org/TR/2001/REC-SVG-20010904/DTD/svg10.dtd">
<svg version="1.0" id="Ebene_1" xmlns="http://www.w3.org/2000/svg" xmlns:xlink="http://www.w3.org/1999/xlink" x="0px" y="0px"
	 width="566.006px" height="553.542px" viewBox="0 0 566.006 553.542" enable-background="new 0 0 566.006 553.542"
	 xml:space="preserve">
<path fill="#FFD500" d="M282.999,553.542c169.491-69.314,226.868-172.139,226.868-172.139c69.99-109.458,54.732-381.1,54.732-381.1
	S438.639,52.073,282.999,0C127.363,52.073,1.407,0.304,1.407,0.304s-15.258,271.642,54.725,381.1
	C56.132,381.403,113.517,484.228,282.999,553.542"/>
<path fill="#172983" d="M82.067,33.673c-27.188-3.437-48.936-8.702-62.401-12.528c-1.75-0.498-3.359-0.964-4.896-1.415
	c-0.319,10.638-0.614,25.329-0.614,42.889c0,85.521,7.073,238.015,53.858,311.187l0.42,0.692
	c0.136,0.248,14.344,25.103,48.395,57.819c30.761,29.552,84.421,71.616,166.17,105.904
	c81.753-34.288,135.413-76.353,166.177-105.904c34.047-32.717,48.255-57.571,48.388-57.819l0.42-0.692
	c46.785-73.172,53.861-225.666,53.861-311.187c0-17.56-0.295-32.25-0.614-42.896c-14.846,4.456-37.958,10.242-67.308,13.951
	c-47.065,5.941-119.809,7.357-200.924-18.858C201.888,41.03,129.147,39.615,82.067,33.673"/>
<path fill="#FFD500" d="M98.22,67.246c-9.126-1.275-18.077-2.916-26.876-4.767c0,0.319,0,0.622,0,0.941
	c0,23.992,0.509,53.294,2.228,84.471c5.334,96.712,20.068,170.475,41.481,207.679l1.322,2.465l-0.175-0.35
	c0.121,0.233,12.027,22.755,40.365,52.493c24.1,25.298,65.029,60.729,126.31,91.174c61.277-30.445,102.206-65.876,126.307-91.174
	c28.33-29.738,40.244-52.26,40.369-52.493l-0.179,0.35l1.321-2.465c21.41-37.204,36.146-110.959,41.474-207.671
	c1.727-31.185,2.248-60.479,2.248-84.479c0-0.311-0.008-0.599-0.008-0.917c-49.243,10.421-125.331,16.463-211.606-12.256
	C223.324,69.968,159.831,75.894,98.22,67.246"/>
<path fill="#172983" d="M248.037,423.764c0-1.688,0-2.792-0.987-2.792c-0.533,0-3.2,0.777-3.282,0.777
	c-0.413,0-0.494-0.365-0.494-0.567c0-0.42,0.249-0.576,1.762-1.026c1.808-0.537,3.989-1.198,5.342-1.852
	c0.988-0.497,1.065-0.699,1.435-0.699c0.533,0,0.533,0.373,0.533,1.065v20.242c0,2.925,0.541,3.702,2.302,3.702
	c1.271,0,1.808,0,1.808,0.575c0,0.614-0.653,0.614-1.186,0.614c-0.828,0-2.718-0.163-6-0.163c-1.766,0-4.028,0.163-4.394,0.163
	c-0.416,0-0.949,0-0.949-0.575c0-0.614,1.069-0.614,1.563-0.614c2.38,0,2.547-0.816,2.547-3.453V423.764"/>
<path fill="#172983" d="M266.024,445.243c-1.438,0.691-4.643,2.092-5.304,2.092c-0.443,0-0.533-0.28-0.533-0.451
	c0-0.288,0.167-0.451,0.622-0.614c4.802-1.766,14.08-8.011,14.08-18.026c0-5.545-2.877-9.535-6.078-9.535
	c-3.406,0-4.635,3.99-4.635,6.828c0,4.55,2.788,7.264,5.335,7.264c0.902,0,1.524-0.288,2.174-0.575
	c0.089-0.039,0.288-0.117,0.455-0.117c0.206,0,0.365,0.194,0.365,0.404c0,0.568-2.131,1.883-4.759,1.883
	c-4.931,0-7.757-4.021-7.757-7.84c0-4.72,3.943-8.826,9.355-8.826c6.859,0,9.861,6.198,9.861,10.802
	C279.206,437.723,271.076,442.824,266.024,445.243"/>
<path fill="#172983" d="M299.737,442.692c0,0.42-0.078,0.948-1.026,0.948h-15.522c-0.366,0-0.859-0.086-0.859-0.528
	c0-0.584,0.571-1.198,3.814-4.775c6.773-7.543,8.749-9.978,8.749-13.594c0-4.798-3.865-5.257-5.056-5.257
	c-2.539,0-4.596,1.485-5.75,3.126c-0.731,1.065-0.938,1.275-1.264,1.275c-0.295,0-0.455-0.288-0.455-0.498
	c0-0.653,2.547-5.661,9.033-5.661c4.184,0,8.376,2.139,8.376,6.283c0,3.78-3.204,6.61-3.943,7.225l-6.322,5.343
	c-1.314,1.104-2.788,2.543-2.788,2.831c0,0.373,0.28,0.412,1.147,0.412h8.088c1.975,0,2.302-0.614,2.628-1.851
	c0.171-0.49,0.288-0.739,0.653-0.739c0.498,0,0.498,0.622,0.498,0.91V442.692"/>
<path fill="#172983" d="M309.551,445.243c-1.439,0.691-4.636,2.092-5.304,2.092c-0.443,0-0.529-0.28-0.529-0.451
	c0-0.288,0.171-0.451,0.622-0.614c4.799-1.766,14.084-8.011,14.084-18.026c0-5.545-2.886-9.535-6.081-9.535
	c-3.414,0-4.636,3.99-4.636,6.828c0,4.55,2.784,7.264,5.335,7.264c0.91,0,1.517-0.288,2.17-0.575
	c0.094-0.039,0.296-0.117,0.459-0.117c0.21,0,0.365,0.194,0.365,0.404c0,0.568-2.131,1.883-4.759,1.883
	c-4.931,0-7.762-4.021-7.762-7.84c0-4.72,3.943-8.826,9.363-8.826c6.859,0,9.854,6.198,9.854,10.802
	C322.733,437.723,314.606,442.824,309.551,445.243"/>
<path fill="#172983" d="M130.837,136.595l-1.632-1.213l-1.132,0.203c-2.004,3.107-5.205,6.176-7.925,7.532V95.378
	c0.313-0.152,0.598-0.319,0.919-0.597c0.462-0.397,1.004-0.978,2.143-2.189l5.542-5.763l0.061-1.021l-1.361-1.812l-1.163-0.107
	l-2.642,2.418c-1.092,0.95-1.989,1.334-2.471,1.318c-1.118,0.067-2.596-1.296-4.191-4.712l-1.298-0.192l-21.661,23.961l0.014,1.073
	l1.553,1.618l1.154-0.018l4.08-4.538v28.082l-2.256,2.6l0.024,1.061l1.545,1.618l1.152-0.014l7.82-8.592l0.204-0.53V95.194
	l1.972-2.038c1.638,1.444,3.133,2.113,5.283,2.418v48.548c-1.031,0.141-1.669,0.209-2.762,0.209
	c-12.753-0.022-20.804-10.442-20.867-27.923c-0.004-8.163,1.988-16.232,5.52-21.926c1.526-2.482,3.41-4.971,6.494-8.709l0.004-0.999
	l-1.64-2.022l-1.183-0.047c-4.823,5.058-7.864,8.436-10.9,12.834c-4.833,6.714-7.506,15.557-7.508,24.509
	c0,9.535,2.44,17.612,6.802,23.347c4.352,5.734,10.669,9.085,18.18,9.075c0.01,0,0.021,0,0.031,0
	c9.225,0,17.054-5.295,22.313-14.862L130.837,136.595z"/>
<path fill="#172983" d="M156.446,143.591v-22.697l4.578-4.315l0.061-1.083l-1.458-1.719l-1.14-0.065l-2.325,2.179l-4.28-4.759
	l-1.13-0.044l-10.135,9.65V97.909c0.041-5.572,0.271-6.409,2.944-10.15l-0.158-1.092l-1.454-1.111l-1.049,0.079
	c-2.185,2.263-3.606,4.271-4.716,6.77c-0.191-1.127-0.412-2.117-0.775-3.672l-1.017-0.569l-1.816,0.607l-0.53,0.861
	c0.731,5.101,0.715,4.538,0.719,7.47v44.444l-4.675,4.518l-0.081,1.041l1.369,1.82l1.188,0.083l2.242-2.251l4.54,4.862l1.118,0.034
	l7.369-6.967l0.075-1.065l-1.458-1.826l-1.16-0.079l-1.338,1.278l-1.334-1.424v-15.531l6.476-6.292l1.5,1.535l0.002,23.958
	c0.077,0.122,0.207,5.218,3.151,7.125l0.956-0.12l6.427-6.368l-0.215-1.273C157.88,144.109,157.354,143.844,156.446,143.591z"/>
<polygon fill="#172983" points="163.849,103.736 165.186,102.458 169.737,107.152 170.855,107.167 177.951,100.198 178.03,99.165 
	176.67,97.336 175.495,97.235 174.245,98.418 169.779,93.821 168.663,93.805 161.384,100.882 161.317,101.938 162.688,103.657 "/>
<path fill="#172983" d="M177.577,140.912l-1.814,1.785c-0.928-1.041-1.28-2.375-1.301-5.469v-16.237l4.301-4.112l0.089-1.039
	l-1.362-1.829l-1.179-0.097l-2.168,2.084l-4.546-4.693l-1.116-0.016l-8.19,7.987l-0.051,1.072l1.458,1.727l1.15,0.057l2.245-2.178
	l1.516,1.62v18.789c-0.01,5.178,1.328,8.913,4.274,11.417l1.058-0.03l8.194-7.885l0.069-1.062l-1.459-1.82L177.577,140.912z"/>
<path fill="#172983" d="M198.695,111.278c-5.239,4.873-8.592,6.233-14.927,6.264h-1.36l-0.789,0.789v2.326l0.701,0.782
	c0.913,0.102,1.609,0.197,2.086,0.2c0.452,0.001,0.792,0.001,1.21-0.023v20.047l-4.143,4.322l-0.063,1.017l1.361,1.821l1.196,0.079
	l1.71-1.744l6.554,4.665l0.927-0.01l13.373-9.906l0.202-1.049l-1.188-1.921l-1.141-0.216l-7.565,5.634l-3.361-2.196v-4.926
	l15.771-11.499l0.173-1.098l-9.545-13.245L198.695,111.278z M193.476,132.616v-12.635c0.576-0.224,0.944-0.394,1.469-0.603
	l5.651,7.878L193.476,132.616z"/>
<path fill="#172983" d="M239.894,114.229l-2.51,2.455l-4.814-5.254l-1.139-0.024l-7.365,7.381l-0.06,1.047l1.36,1.71l1.164,0.078
	l1.51-1.45l2.072,2.297V142.1c-2.625,0.788-3.285,1.045-5.12,2.063l-3.135-2.736l0.002-27.141l-0.79-0.788
	c-1.227-0.002-1.79-0.1-2.632-0.198c-2.493-0.462-4.127-2.201-4.125-4.271c0.022-1.657,0.834-2.747,3.383-4.043l0.409-0.924
	l-0.638-2.226l-1.026-0.523c-4.51,1.63-7.533,5.995-7.527,11.155c-0.032,3.925,1.793,6.857,5.097,8.754v20.232l-4.312,4.207
	l-0.065,1.056l1.45,1.82l1.192,0.049l1.956-2.084l6.437,5.287l1.103-0.1c3.861-4.557,8.633-6.476,15.5-6.494h2.272l0.788-0.788
	v-2.325l-0.644-0.775c-0.62-0.117-1.144-0.114-1.419-0.114c-0.062,0-0.131,0-0.207,0v-19.81l4.397-4.318l0.049-1.074l-1.458-1.71
	L239.894,114.229z"/>
<path fill="#172983" d="M272.921,113.822l-2.313,2.232l-5.826-4.809l-1.053,0.043c-5.118,4.955-8.827,6.317-15.823,6.348h-1.998
	l-0.789,0.789v2.333l0.789,0.789h1.482v20.304l-4.129,4.021l-0.064,1.06l1.458,1.813l1.171,0.064l2.034-2.024l6.094,5.006
	l1.008-0.006c6.458-5.399,9.194-6.346,16.866-6.387h0.82l0.789-0.787v-2.327l-0.789-0.789h-1.395v-20.715l4.222-4.115l0.051-1.076
	l-1.46-1.711L272.921,113.822z M263.403,121.535v20.744c-1.746,0.456-2.601,0.757-4.135,1.585l-4.026-3.271v-19.63
	c2.134-0.566,3.145-0.946,5.035-1.909L263.403,121.535z"/>
<path fill="#172983" d="M327.763,88.485l-2.605,1.898l-6.89-7.66l-1.079-0.089l-12.36,9.894l0.002-8.058l-0.788-0.788h-2.101
	l-0.789,0.788v10.948l-2.533,2.128c-0.073-3.037-0.371-5.127-1.033-6.891c-1.549-4.666-5.416-8.149-9.288-8.195
	c-3.128,0-5.844,1.949-7.841,5.104c-2.012,3.167-3.393,7.593-3.951,12.89l0.583,0.846l1.912,0.504l0.986-0.678
	c0.517-4.837,3.287-8.032,6.125-7.982c1.023,0.004,1.971,0.463,2.762,1.422c1.025,1.166,1.349,2.247,1.365,5.466v11.853
	c-1.625,0.028-2.659,0.175-3.798,0.665c-2.778,1.096-4.471,4.443-4.483,8.207c-0.004,2.198,0.304,3.839,1.125,6.587l1.079,0.494
	l2.007-0.903l0.418-0.986c-0.344-0.963-0.403-1.397-0.409-2.26c0-1.164,0.345-2.165,0.854-2.84c0.515-0.678,1.146-1.02,1.815-1.021
	c0.627,0.022,0.865,0.112,1.394,0.574v19.662c-8.529,2.451-14.202,9.528-14.192,18.092c-0.031,8.621,5.574,15.335,13.743,15.844
	l0.84-0.788v-2.216l-0.761-0.788c-5.14-0.157-9.621-5.172-9.608-10.839c0.01-5.574,4.95-10.223,11.493-10.231
	c3.688-0.006,7.729,1.554,10.382,4.035l1.133-0.06c4.755-5.478,11.813-8.525,19.234-8.525c1.604,0.004,2.498,0.093,4.19,0.486
	l0.938-0.552l0.716-2.52l-0.575-0.982c-1.453-0.349-2.154-0.492-3.393-0.586V96.159l5.534-4.505l0.174-1.027l-1.19-1.92
	L327.763,88.485z M301.153,100.549v40.079c-0.874-0.318-1.52-0.475-2.514-0.696v-37.396L301.153,100.549z M304.831,110.187
	c1.989,0.73,3.673,1.052,5.759,1.047c1.745,0.002,3.424-0.327,5.574-1.076v14.969c-2.424-0.776-4.076-1.123-5.946-1.121
	c-1.921-0.005-3.501,0.319-5.387,1.039V110.187z M312.59,91.314l3.573,4.061v10.638c-2.093,1.011-3.835,1.409-5.76,1.412
	c-2.456-0.009-3.929-0.393-5.573-1.365v-8.484L312.59,91.314z M304.831,129.317c2.07-1.086,3.53-1.401,5.759-1.411
	c1.768,0.006,3.332,0.325,5.574,1.425v11.821c-3.503,0.798-5.432,1.548-7.999,3.114c-1.366-0.975-2.042-1.37-3.334-2.054V129.317z"
	/>
<path fill="#172983" d="M353.606,138.719l-7.569,5.636l-3.357-2.195v-4.929l15.781-11.497l0.176-1.1l-9.565-13.244l-1.18-0.114
	c-5.23,4.873-8.587,6.233-14.92,6.265h-1.361l-0.788,0.789v2.325l0.701,0.782c0.911,0.102,1.602,0.197,2.087,0.201
	c0.455,0,0.792-0.001,1.21-0.025v20.048l-4.143,4.321l-0.063,1.021l1.369,1.819l1.192,0.077l1.706-1.742l6.551,4.663l0.927-0.008
	l13.368-9.908l0.203-1.046l-1.183-1.921L353.606,138.719z M342.679,132.616V119.98c0.574-0.223,0.945-0.393,1.469-0.602l5.659,7.877
	L342.679,132.616z"/>
<path fill="#172983" d="M383.957,116.5l-1.726-1.409l-1.161,0.183l-0.909,1.409c-0.223,0.337-0.435,0.543-0.587,0.649
	c-0.151,0.11-0.206,0.093-0.206,0.11c-0.029,0.004-0.219-0.002-0.745-0.564c-0.51-0.543-1.252-1.538-2.336-3.142l-0.812-1.101
	l-0.702-1.184l-1.329-0.042l-4.295,6.311c-0.491-1.883-1.415-3.573-3.421-6.329l-1.18-0.112l-8.468,7.986l-0.076,1.065l1.454,1.827
	l1.17,0.071l1.803-1.774c0.993,1.518,1.203,2.717,1.225,5.857v15.243l-4.318,4.326l-0.056,1.051l1.454,1.813l1.188,0.045l1.969-2.1
	l6.43,5.109l0.978,0.004l9.184-7.179l0.187-1.032l-1.173-1.921l-1.157-0.21l-3.43,2.664l-3.394-2.63v-17.561l1.623-2.357
	c1.784,2.116,3.494,3.11,5.404,3.104c1.61-0.012,3.254-0.978,4.301-2.584l3.253-4.525L383.957,116.5z"/>
<path fill="#172983" d="M413.286,113.821l-2.309,2.231l-5.817-4.806l-1.053,0.042c-5.13,4.955-8.836,6.317-15.827,6.348h-2.007
	l-0.788,0.79v2.333l0.788,0.787h1.497v20.304l-4.138,4.021l-0.067,1.059l1.456,1.813l1.17,0.065l2.044-2.025l6.092,5.006l1.01-0.006
	c6.454-5.398,9.192-6.344,16.865-6.386h0.825l0.787-0.788v-2.325l-0.787-0.79h-1.406v-20.715l4.226-4.115l0.05-1.076l-1.462-1.713
	L413.286,113.821z M403.775,121.535v20.744c-1.744,0.455-2.6,0.756-4.133,1.584l-4.026-3.27v-19.632
	c2.139-0.566,3.144-0.945,5.031-1.907L403.775,121.535z"/>
<path fill="#172983" d="M448.68,141.014l-1.792,1.771c-0.658-1.158-0.963-2.799-0.965-5.649v-16.344l4.475-4.113l0.097-1.053
	l-1.361-1.813l-1.169-0.103l-2.25,2.1l-4.376-4.506l-1.112-0.019l-10.354,9.973c-0.189-5.048-1.075-7.329-3.736-9.96l-1.098-0.023
	l-8.367,7.793l-0.093,1.051l1.361,1.813l1.173,0.097l1.969-1.875c0.559,1.134,0.995,3.176,0.977,5.651v16.037l-4.487,4.214
	l-0.09,1.049l1.369,1.821l1.16,0.109l2.421-2.203l4.479,4.881l1.129,0.034l7.279-7.069l0.069-1.055l-1.37-1.727l-1.144-0.098
	l-1.778,1.598l-1.184-1.313v-15.534l6.77-6.616l1.389,1.357l0.002,18.871c-0.021,5.351,1.158,8.708,3.954,11.566l1.112,0.021
	l8.089-7.785l0.069-1.059l-1.445-1.819L448.68,141.014z"/>
<path fill="#172983" d="M480.999,141.242l-1.188-0.147l-1.837,1.672c-0.803-1.522-1.106-3.142-1.113-5.841v-15.724l4.457-4.002
	l0.105-1.057l-1.352-1.819l-1.151-0.124l-2.418,2.109l-4.488-4.983l-1.266,0.128c-2.219,3.76-4.903,6.206-8.364,7.705
	c0.586-0.807,0.923-1.794,0.921-2.848c-0.008-2.626-2.019-4.913-4.615-4.936c-2.665,0.004-4.594,2.278-4.601,5.129
	c-0.01,1.956,0.784,3.628,2.906,6.165l3.901,4.809l-3.217,3.238c-4.407,4.563-6.066,7.468-6.054,11.264
	c-0.062,5.055,2.843,8.561,8.498,9.961l0.749-0.196l8.312-8.074c0.43,3.181,1.32,5.4,3.347,7.99l1.149,0.105l8.462-7.582
	l0.131-1.023L480.999,141.242z M463.287,130.449l1.796,2.228l1.167,0.067l1.549-1.524l0.06-1.057l-5.472-6.785
	c2.229-0.755,3.441-1.41,5.423-2.896l1.196,1.207v16.829l-5.497,5.264c-2.62-0.425-5.271-3.33-5.212-5.845
	c-0.031-1.221,1.122-3.493,3.228-5.616L463.287,130.449z"/>
<path fill="#006AB2" d="M119.62,145.049l-1.047-0.743v-49.43l0.458-0.717c0.577-0.27,0.688-0.304,1.013-0.577
	c0.334-0.284,0.885-0.861,2.023-2.076l5.083-5.287l-0.436-0.581l-2.021,1.849c-1.247,1.057-2.359,1.697-3.515,1.715
	c-2.091-0.06-3.605-1.729-5.093-4.568l-20.396,22.56l0.456,0.476l4.888-5.435l1.375,0.526v30.43l-0.192,0.518l-1.98,2.28
	l0.464,0.486l7.046-7.741V94.876l0.221-0.549l2.729-2.823l1.11-0.022c1.968,1.837,2.991,2.288,5.646,2.61l0.7,0.784v49.934
	l-0.68,0.782c-1.446,0.201-2.251,0.32-3.657,0.318c-6.862,0.01-12.557-2.883-16.438-8.037c-3.888-5.151-6.003-12.5-6.006-21.464
	c0.004-8.416,2.025-16.724,5.755-22.756c1.517-2.46,3.349-4.896,6.209-8.385l-0.669-0.825c-4.453,4.689-7.288,7.883-10.134,12.006
	c-4.623,6.415-7.221,14.962-7.221,23.6c0.048,18.574,9.405,30.841,23.406,30.847c8.414-0.012,15.537-4.615,20.627-13.45
	l-0.416-0.309C126.458,140.643,122.871,143.894,119.62,145.049z"/>
<path fill="#006AB2" d="M154.871,144.204v-23.649l0.247-0.573l4.281-4.038l-0.438-0.517l-2.308,2.165l-1.126-0.048l-4.274-4.757
	l-10.88,10.359l-1.333-0.571V97.909c-0.038-5.217,0.405-7.11,2.793-10.456l-0.277-0.212c-2.531,2.738-3.789,4.942-4.974,8.584
	l-1.533-0.146c-0.328-2.692-0.499-3.647-0.979-5.746l-0.368,0.123c0.63,4.342,0.643,4.244,0.641,7.045v44.778l-0.241,0.567
	l-4.414,4.267l0.403,0.536l2.177-2.187l1.136,0.018l4.556,4.88l6.265-5.925l-0.468-0.587l-1.29,1.233l-1.12-0.032l-2.092-2.231
	l-0.215-0.539v-16.177l0.239-0.565l7.279-7.069l1.114,0.014l2.274,2.325l0.225,0.553l-0.002,24.22c0.006,0,0.089,1.188,0.46,2.543
	c0.289,1.108,0.804,2.266,1.452,2.918l5.14-5.093c-0.55-0.25-0.922-0.379-1.745-0.577L154.871,144.204z"/>
<path fill="#006AB2" d="M176.319,144.362l-1.065,0.039c-1.77-1.484-2.393-3.503-2.369-7.173v-16.572l0.244-0.57l4.041-3.865
	l-0.41-0.552l-2.088,2.01l-1.112-0.021l-4.544-4.688l-7.098,6.921l0.441,0.521l2.212-2.149l1.125,0.026l2.279,2.436l0.213,0.538
	v19.099c0.009,4.59,1.047,7.61,3.197,9.736l7.139-6.872l-0.461-0.577L176.319,144.362z"/>
<polygon fill="#006AB2" points="164.665,100.777 165.775,100.797 170.316,105.483 176.355,99.555 175.936,98.991 174.764,100.099 
	173.656,100.077 169.197,95.485 162.996,101.514 163.382,102 "/>
<path fill="#006AB2" d="M183.768,119.118h-0.572v0.834c0.578,0.065,1.025,0.112,1.21,0.109c0.733,0,1.031,0.002,1.917-0.088
	l0.87,0.784v21.222l-0.22,0.546l-3.899,4.068l0.409,0.548l1.538-1.568l1.021-0.09l6.637,4.722l12.33-9.136l-0.353-0.573
	l-7.317,5.451l-0.902,0.029l-4.18-2.73l-0.356-0.66v-5.755l0.324-0.638l15.458-11.272l-8.565-11.884
	C194.108,117.601,190.075,119.149,183.768,119.118z M202.16,128.051l-8.998,6.775l-1.263-0.629v-14.76l0.52-0.742
	c1.049-0.381,1.401-0.588,2.538-1.01l0.915,0.281l6.454,8.998L202.16,128.051z"/>
<path fill="#006AB2" d="M237.906,118.381l-1.133-0.031l-4.811-5.249l-6.285,6.298l0.384,0.484l1.473-1.413l1.131,0.039l2.819,3.127
	l0.204,0.528v20.523l-0.562,0.754c-3.399,1.027-3.477,1.051-5.85,2.369l-0.902-0.094l-3.823-3.336l-0.27-0.595V115.06
	c-0.846-0.035-1.423-0.123-2.074-0.199c-3.109-0.54-5.471-2.862-5.473-5.832c-0.023-2.21,1.3-3.881,3.673-5.158l-0.215-0.752
	c-3.431,1.598-5.7,5.116-5.704,9.349c0.031,3.596,1.503,5.841,4.684,7.596l0.413,0.693v21.028l-0.237,0.564l-4.04,3.943l0.438,0.549
	l1.838-1.956l1.076-0.07l6.414,5.268c4.066-4.513,9.336-6.484,16.193-6.466h1.482v-0.838c-0.189-0.011-0.354-0.011-0.486-0.011
	c-0.27-0.002-0.559,0.006-0.782,0.07l-1.002-0.757v-21.028l0.235-0.564l4.111-4.033l-0.434-0.509L237.906,118.381z"/>
<path fill="#006AB2" d="M271.196,117.676l-1.049,0.041l-5.824-4.808c-5.034,4.784-9.455,6.334-16.417,6.303h-1.211v0.756h1.484
	l0.789,0.789v21.425l-0.241,0.564l-3.853,3.752l0.46,0.571l1.918-1.908l1.055-0.049l6.138,5.042
	c6.166-5.163,9.796-6.374,17.382-6.333h0.031v-0.75h-1.393l-0.789-0.789v-21.836l0.238-0.565l3.931-3.832l-0.436-0.511
	L271.196,117.676z M264.98,142.891l-0.593,0.762c-2.376,0.618-2.832,0.752-4.822,1.848l-0.879-0.078l-4.729-3.842l-0.29-0.612
	v-20.616l0.589-0.764c2.728-0.711,3.395-0.957,5.75-2.169l0.852,0.084l3.822,3.033l0.3,0.616V142.891z"/>
<path fill="#006AB2" d="M325.511,92.076l-1.052-0.109l-6.868-7.637l-13.057,10.455l-1.281-0.616v-8.91h-0.523v10.529l-0.281,0.604
	l-4.091,3.436l-1.295-0.604c0-3.91-0.283-6.241-0.965-8.044c-1.348-4.201-4.945-7.186-7.8-7.141c-2.428,0-4.666,1.488-6.512,4.375
	c-1.751,2.747-3.058,6.722-3.637,11.536l0.393,0.104c0.8-4.825,3.739-8.439,7.57-8.485c1.528-0.004,2.952,0.736,3.959,1.974
	c1.352,1.488,1.76,3.239,1.745,6.491v12.638l-0.788,0.788c-2.094,0.004-2.91,0.097-3.998,0.554
	c-1.921,0.699-3.509,3.432-3.497,6.746c0.003,1.819,0.203,3.106,0.81,5.27l0.53-0.239c-0.207-0.732-0.276-1.362-0.271-2.099
	c0.004-2.904,1.716-5.397,4.244-5.439c0.026,0,0.053-0.001,0.078-0.001c1.062,0,1.916,0.488,2.652,1.233l0.24,0.569v20.615
	l-0.59,0.763c-8.251,2.16-13.593,8.703-13.604,16.727c0.03,7.652,4.596,13.327,11.429,14.188v-0.62
	c-5.78-0.664-10.356-6.16-10.369-12.355c0.008-6.56,5.789-11.796,13.071-11.809c3.852,0.008,7.896,1.47,10.854,3.928
	c5.059-5.472,12.313-8.476,19.895-8.476c1.419-0.003,2.449,0.079,3.815,0.361l0.287-1.008c-1.114-0.253-1.641-0.323-3.059-0.408
	l-0.744-0.786V95.787l0.292-0.612l5.286-4.306l-0.377-0.61L325.511,92.076z M302.73,141.786l-1.09,0.728
	c-1.699-0.701-2.116-0.769-3.961-1.18l-0.616-0.769v-38.409l0.3-0.618l4.09-3.235l1.277,0.618V141.786z M317.741,141.786
	l-0.62,0.769c-4.066,0.906-5.706,1.544-8.569,3.329l-0.881-0.029c-1.813-1.306-2.266-1.555-3.996-2.47l-0.421-0.697v-13.843
	l0.404-0.688c2.436-1.366,4.39-1.835,6.932-1.825c2.104-0.006,4.112,0.457,6.724,1.813l0.428,0.701V141.786z M317.741,126.217
	l-1.04,0.746c-2.989-1.004-4.598-1.381-6.483-1.381c-2.073,0.004-3.541,0.37-5.866,1.358l-1.098-0.724V109.03l1.089-0.728
	c2.406,0.986,3.976,1.35,6.247,1.354c1.786-0.002,3.476-0.37,6.08-1.362l1.071,0.736V126.217z M317.741,106.503l-0.43,0.701
	c-2.442,1.257-4.608,1.801-6.907,1.797c-0.03,0-0.061,0-0.091,0c-2.762,0-4.721-0.56-6.696-1.834l-0.363-0.664v-9.303l0.293-0.614
	l8.64-6.975l1.089,0.093l4.27,4.852l0.196,0.521V106.503z"/>
<path fill="#006AB2" d="M346.539,145.948l-0.902,0.027l-4.177-2.728l-0.356-0.66v-5.756l0.323-0.637l15.472-11.273l-8.584-11.883
	c-5.004,4.563-9.038,6.11-15.343,6.081h-0.572v0.833c0.576,0.065,1.02,0.112,1.211,0.11c0.736-0.002,1.025,0,1.917-0.089
	l0.869,0.784v21.222l-0.22,0.545l-3.898,4.066l0.415,0.55l1.535-1.568l1.021-0.089l6.633,4.722l12.326-9.136l-0.351-0.571
	L346.539,145.948z M341.103,119.435l0.519-0.741c1.046-0.379,1.408-0.589,2.537-1.008l0.915,0.278l6.464,8.999l-0.166,1.089
	l-9.007,6.773l-1.262-0.629V119.435z"/>
<path fill="#006AB2" d="M379.368,119.018c-0.701-0.004-1.288-0.406-1.897-1.062c-0.629-0.674-1.386-1.706-2.47-3.309l-0.816-1.105
	l-0.045-0.066l-0.09-0.154l-4.667,6.86l-1.435-0.337c-0.348-2.44-0.816-3.707-2.979-6.798l-7.282,6.866l0.458,0.577l1.842-1.813
	l1.18,0.083c1.652,2.116,2.092,3.908,2.066,7.549v15.569l-0.231,0.556l-4.049,4.058l0.443,0.553l1.844-1.966l1.065-0.077
	l6.513,5.173l8.141-6.363l-0.348-0.568l-3.215,2.5h-0.966l-4.185-3.242l-0.306-0.622v-18.191l0.14-0.447l2.363-3.438l1.278-0.029
	c1.962,2.56,3.35,3.323,4.823,3.327c0.94,0.013,2.205-0.653,3-1.896l2.841-3.954l-0.471-0.383l-0.435,0.674
	C380.851,118.479,380.167,118.992,379.368,119.018z"/>
<path fill="#006AB2" d="M411.569,117.677l-1.054,0.04l-5.817-4.807c-5.043,4.785-9.46,6.333-16.418,6.303h-1.218v0.756h1.498
	l0.789,0.79v21.425l-0.24,0.564l-3.864,3.754l0.458,0.57l1.928-1.912l1.057-0.048l6.134,5.042c6.161-5.162,9.797-6.374,17.381-6.333
	h0.035v-0.75h-1.403l-0.79-0.788v-21.837l0.238-0.566l3.936-3.831l-0.438-0.512L411.569,117.677z M405.352,142.889l-0.594,0.765
	c-2.375,0.616-2.83,0.752-4.82,1.847l-0.88-0.078l-4.729-3.841l-0.291-0.612v-20.617l0.592-0.765
	c2.734-0.71,3.388-0.957,5.746-2.168l0.85,0.083l3.827,3.033l0.299,0.618V142.889z"/>
<path fill="#006AB2" d="M447.332,144.563l-1.16-0.057c-1.363-1.634-1.827-3.797-1.825-7.371v-16.69l0.256-0.581l4.202-3.862
	l-0.405-0.541l-2.173,2.03l-1.104-0.027l-4.367-4.5l-11.085,10.678l-1.336-0.556c-0.123-5.935-0.577-7.691-2.794-10.124
	l-7.275,6.776l0.403,0.535l2.003-1.907l1.131,0.044c1.235,1.433,1.813,4.055,1.833,7.393v16.379l-0.249,0.575l-4.221,3.963
	l0.425,0.564l2.36-2.146l1.112,0.05l4.46,4.861l6.186-6.008l-0.407-0.51l-1.738,1.563l-1.112-0.059l-1.913-2.123l-0.203-0.529
	v-16.167l0.237-0.564l7.56-7.388h1.102l2.178,2.131l0.239,0.564v19.201c0.017,4.793,0.876,7.459,2.979,9.889l6.988-6.726
	l-0.455-0.57L447.332,144.563z"/>
<path fill="#006AB2" d="M478.322,144.585l-1.189-0.151c-1.36-2.055-1.857-4.215-1.849-7.508v-16.073l0.261-0.587l4.187-3.758
	l-0.415-0.56l-2.36,2.061l-1.104-0.067l-4.303-4.776c-2.925,4.558-6.811,7.297-11.84,8.56l-0.781-0.238l-0.545-0.606l0.474-1.308
	c1.707-0.253,2.865-1.627,2.872-3.261c-0.005-1.828-1.451-3.354-3.039-3.358c-1.703,0.01-2.991,1.36-3.021,3.552
	c0.011,1.495,0.479,2.655,2.546,5.163l4.354,5.367l-0.053,1.053l-3.708,3.731c-4.344,4.546-5.592,6.897-5.604,10.163
	c0.06,4.325,1.977,6.864,6.896,8.317l9.146-8.883l1.335,0.497c0.338,3.664,0.907,5.603,2.692,8.104l7.311-6.548l-0.391-0.588
	L478.322,144.585z M470.584,138.854l-0.244,0.568l-6.012,5.756l-0.619,0.215c-3.634-0.4-6.929-3.817-6.99-7.458
	c0.032-2.013,1.43-4.392,3.668-6.708l2.373-2.518l1.188,0.044l1.815,2.255l0.419-0.413l-5.742-7.121l0.375-1.246
	c3.175-1.017,3.95-1.415,6.588-3.419l1.04,0.069l1.912,1.929l0.229,0.556V138.854z"/>
<path fill="#172983" d="M373.997,334.353c-2.04-4.073-6.926-15.726-8.641-19.346c-1.887-3.582-12.579-26.111-16.236-31.884
	c-3.629-5.949-8.32-10.432-15.568-14.62c-5.138-2.956-9.958-3.466-13.179-3.464c-1.671,0-2.958,0.135-3.486,0.133
	c-1.608,0.001-8.853,0.492-11.604,0.682c0-1.922,0-6.132,0-10.03c0-5.691,0.551-10.503,0.915-12.74
	c0.665-1.967,1.991-3.166,3.027-3.402c0.999-0.308,2.279-1.153,3.532-1.973c1.218-0.814,2.259-1.576,2.267-1.58l0.051-0.035
	l0.048-0.046c1.654-1.567,3.663-2.6,5.256-3.227c0.795-0.314,1.486-0.526,1.971-0.66c0.485-0.133,0.745-0.181,0.745-0.183
	c8.317-1.764,10.084-5.475,10.327-6.261c0.193-0.337,0.592-0.751,0.953-1.052c0.207-0.174,0.393-0.31,0.522-0.4
	c6.052-0.512,10.192-3.883,11.336-5.229l0.033-0.042l0.031-0.043c0.903-1.405,3.441-3.26,6.503-4.513
	c2.816-1.034,3.528-2.98,3.479-3.963c0-0.168-0.014-0.306-0.029-0.408c0-0.015,0-0.03,0-0.046c-0.12-1.738-1.536-2.554-2.656-3.278
	c-1.17-0.687-2.287-1.104-2.318-1.116l-0.261-0.098l-0.271,0.05c-0.144,0.027-0.271,0.038-0.381,0.038
	c-0.681-0.015-0.918-0.358-1.211-1.058c-0.119-0.331-0.186-0.693-0.217-0.964c-0.033-0.271-0.029-0.418-0.031-0.418v-0.162
	l-0.052-0.156c-0.923-2.933-3.252-4.044-5.246-3.982c-1.086,0.002-2.11,0.246-2.966,0.531c-0.541,0.196-1.151,0.275-1.821,0.275
	c-1.386,0.004-2.974-0.35-4.45-0.49c-1.476-0.422-2.415-0.826-3.517-0.849c-0.773-0.014-1.569,0.308-2.21,0.881
	c-1.595,1.461-1.418,3.678-1.468,3.766v0.158l0.04,0.119c0.004,0.019,0.043,0.187,0.043,0.533c0,0.031,0,0.065-0.001,0.1
	c-0.248-0.139-0.538-0.298-0.848-0.458c-0.82-0.542-1.688-1.189-2.998-1.193c-0.342,0-0.702,0.044-1.078,0.135
	c-1.416,0.177-2.078,0.177-3.944,0.177c-1.074,0-1.961-0.085-3.306-0.087c-0.672,0-1.449,0.023-2.41,0.09l-0.101,0.006l-0.085,0.025
	c-2.788,0.759-5.972,2.681-7.806,4.274c-0.009-0.112-0.013-0.235-0.011-0.365c-0.008-1.634,0.591-4.234,0.587-4.238l0.011-0.054
	l0.008-0.052c0.101-0.829,0.144-1.646,0.144-2.446c-0.012-7.048-3.444-12.762-3.482-12.841l-0.041-0.071l-0.044-0.054
	c-2.237-2.696-5.98-4.217-9.925-4.224c-1.286,0-2.598,0.163-3.884,0.514c-5.956,1.667-8.126,6.863-8.181,6.965
	c-1.32,3.766-3.757,9.582-3.762,9.592c-0.572,1.386-0.797,2.729-0.797,3.961c0.017,3.792,2.028,6.473,2.397,6.948
	c0.267,0.408,0.38,0.921,0.38,1.61c0.01,1.128-0.34,2.579-0.363,4.119c-0.331,1.779-1.555,3.902-2.947,5.46
	c-0.77,0.899-3.141,1.613-3.786,4.016c-0.117,0.505-0.647,1.532-1.145,2.333c-0.498,0.816-0.949,1.447-0.949,1.449l-0.035,0.048
	l-0.025,0.045c-0.283,0.517-0.535,0.808-0.689,0.935c-0.077,0.067-0.129,0.092-0.15,0.1l-0.004,0.004c0,0-0.006,0.008-0.042-0.031
	c-0.096-0.061-0.258-0.252-0.36-0.429c-0.051-0.083-0.088-0.154-0.112-0.205c-0.183-1.334-1.539-11.189-2.918-21.533
	c-1.48-11.086-2.989-22.818-3.07-24.841l-0.004-0.064l-0.008-0.058c-0.562-3.355-3.185-21.59-3.189-21.613l-0.027-0.181
	l-0.089-0.161c-1.241-2.158-2.134-3.145-3.48-3.234c-0.959,0.019-1.495,0.674-1.742,1.09c-0.267,0.446-0.36,0.82-0.377,0.873
	l-0.012,0.048l-0.004,0.029c-0.081,0.46-0.104,1-0.104,1.655c0.002,3.214,0.656,9.209,0.651,11.122v0.04l0.004,0.043
	c0.186,2.19,5.359,55.87,5.799,60.439c-0.191,0.239-0.634,0.693-1.057,1.013c-0.568,0.46-1.099,0.812-1.099,0.814l-0.083,0.054
	l-0.069,0.071c-1.307,1.303-1.717,2.924-1.711,4.298c0.012,2.208,0.935,3.936,0.964,4.011l0.025,0.046l0.029,0.045
	c0.554,0.825,0.595,1.083,0.583,1.12c0.026,0.052-0.114,0.428-0.325,1.21c-0.385,0.948-0.789,2.563-1.052,3.701
	c-22.082-11.904-43.806-17.695-48.273-18.817c0.044-0.68,0.065-1.338,0.065-1.974c0.01-11.49-7.045-15.87-8.234-16.5
	c-0.46-0.473-0.872-0.807-1.568-0.843c-0.472-0.012-0.91,0.279-1.097,0.545c-0.533,0.793-0.397,1.403-0.437,1.488
	c0.002,2.915-0.629,4.261-1.124,4.836c-0.492,0.568-0.913,0.554-0.992,0.564c-1.313-0.13-1.898-0.726-2.393-1.736
	c-0.466-1.011-0.618-2.404-0.614-3.537c0-1.172,0.146-2.027,0.14-2.029l0.21-1.289l-1.297,0.14c-4.556,0.46-7.396,2.845-8.898,5.67
	c-1.52,2.819-1.849,6.016-1.853,8.433c0,2.196,0.285,3.753,0.293,3.795l0.01,0.058l0.019,0.058c0.03,0.095,0.057,0.185,0.081,0.27
	c-0.423-0.358-0.96-0.602-1.525-0.601c-1.282,0.057-1.89,0.979-2.283,1.609c-0.396,0.672-0.583,1.282-0.598,1.324
	c-0.191,0.687-0.271,1.357-0.271,2.027c0.05,4.56,3.409,9.134,3.936,9.864c0.838,1.638,1.081,2.89,1.081,3.81
	c-0.002,0.864-0.212,1.451-0.406,1.824c-0.096,0.187-0.189,0.316-0.25,0.393c-0.03,0.038-0.052,0.062-0.063,0.075l-0.181,0.167
	l-0.083,0.241c-0.793,2.336-1.11,4.413-1.107,6.23c0.002,5.714,3.105,8.702,3.767,9.268c1.87,2.677,2.238,10.029,2.197,12.892
	c0,0.779-0.017,1.236-0.017,1.239c-0.01,5.139,2.346,8.516,4.671,10.495c2.325,1.992,4.603,2.688,4.682,2.714
	c1.27,0.441,2.502,0.656,3.653,0.656c2.797,0.008,5.06-1.295,6.726-3.121c3.69-4.08,5.055-10.732,5.53-13.908
	c4.521,4.292,7.357,14.126,8.82,24.246c1.646,11.067,1.854,22.453,1.854,27.447c0,1.667-0.022,2.616-0.022,2.621
	c-0.042,1.263-0.061,2.499-0.061,3.698c-0.004,20.922,5.953,30.374,6.045,30.516c1.709,2.823,4.079,4.724,6.67,6.024l-4.54,10.888
	c-0.025,0.059-0.019,0.127,0.017,0.18c0.035,0.054,0.094,0.085,0.158,0.085l9.877,0.048c0.085,0,0.162-0.059,0.185-0.142
	l2.302-8.707c2.342,0.321,4.527,0.384,6.248,0.39c1.218,0,2.219-0.031,2.866-0.031c-0.037,0,0.42,0.025,1.206,0.025l-1.262,8.229
	c-0.008,0.054,0.008,0.11,0.043,0.152c0.038,0.044,0.09,0.066,0.146,0.066l8.792,0.017c0.05,0,0.1-0.021,0.135-0.057
	c0.038-0.037,0.056-0.087,0.054-0.139l-0.144-8.984c3.205-0.59,6.834-1.655,10.14-3.582c2.122-1.224,2.4-3.197,2.379-3.88
	c0-0.083-0.002-0.15-0.005-0.199l0.731-35.01c4.365,0.972,8.928,1.292,13.103,1.294c8.617-0.002,15.584-1.378,15.622-1.384
	l0.181-0.038l0.162-0.1c0.373-0.24,0.62-0.319,0.732-0.34l0.018,0.152l0.072,0.152c0.019,0.037,16.276,33.892,18.058,37.614
	c1.797,3.68,4.049,7.957,6.761,9.533c1.537,0.841,3.322,1.19,5.252,1.19c5.535-0.029,12.496-2.822,19.366-6.495l-0.417,5.294
	l-2.865,3.671c-0.046,0.059-0.052,0.135-0.021,0.202c0.033,0.066,0.1,0.105,0.173,0.105h10.382c0.052,0,0.102-0.019,0.138-0.058
	c0.035-0.038,0.054-0.088,0.052-0.14l-0.598-13.009c1.011-0.618,2.011-1.239,2.988-1.862c9.525-6.098,17.079-12.182,17.099-12.194
	l0.187-0.152l0.099-0.223c0.51-1.163,0.703-2.479,0.703-3.861C378.461,344.407,375.801,338.004,373.997,334.353z"/>
<path fill="#FFD500" d="M376.047,352.421c-0.552,0.439-2.245,1.773-4.724,3.611c-9.103,6.809-29.117,20.364-40.127,20.276
	c-1.694,0-3.135-0.308-4.29-0.942c-1.765-0.897-4.271-5.081-5.926-8.647c-1.723-3.6-16.958-35.324-18.004-37.5
	c-0.033-0.152-0.102-0.372-0.245-0.626c-0.211-0.418-0.839-0.953-1.63-0.933c-0.551,0.004-1.093,0.194-1.697,0.554
	c-0.494,0.093-2.028,0.364-4.279,0.64c-2.765,0.337-6.584,0.674-10.786,0.674c-4.449,0.003-9.33-0.379-13.826-1.521l-1.213-0.308
	l-0.787,37.602l0.006,0.066c0,0,0.002,0,0.002,0.068c-0.021,0.338-0.054,1.37-1.391,2.159l0.501,0.861l-0.503-0.859
	c-6.153,3.619-13.976,4.031-16.886,4.023c-0.756,0-1.166-0.022-1.166-0.022c-0.76,0-1.736,0.03-2.923,0.03
	c-5.475,0.021-15.075-0.76-19.223-7.82c-0.015-0.024-0.085-0.133-0.235-0.407c-1.051-1.92-5.512-11.089-5.514-29.063
	c0-1.176,0.021-2.392,0.061-3.645c0-0.017,0.023-0.989,0.023-2.675c0-5.052-0.206-16.505-1.875-27.741
	c-1.715-11.229-4.684-22.265-10.989-26.656l-1.405-0.958l-0.148,1.694c0,0.002-0.092,1.068-0.385,2.708
	c-0.437,2.461-1.34,6.16-2.983,9.145c-1.671,3.01-3.911,5.154-7.135,5.152c-0.906,0-1.911-0.167-3.035-0.556
	c-0.038-0.013-0.489-0.148-1.241-0.517c-2.281-1.143-6.734-4.09-6.74-10.768c0,0.022,0.017-0.469,0.017-1.272
	c-0.044-3.078-0.129-10.505-2.648-14.16l-0.085-0.119l-0.114-0.09c0,0-0.019-0.015-0.096-0.083
	c-0.547-0.498-3.019-2.948-3.021-7.708c0-1.537,0.258-3.326,0.937-5.392c0.383-0.456,1.155-1.623,1.153-3.538
	c0.002-1.291-0.35-2.883-1.328-4.771l-0.042-0.079l-0.052-0.068c-0.002-0.002-0.899-1.176-1.811-2.894
	c-0.914-1.713-1.792-3.949-1.782-5.862c0-0.514,0.06-1.003,0.187-1.461c-0.01,0.027,0.14-0.438,0.404-0.883
	c0.129-0.221,0.283-0.42,0.404-0.524c0.129-0.108,0.165-0.098,0.165-0.102c0,0.002,0.092-0.019,0.377,0.258
	c0.081,0.07,0.281,0.243,0.579,0.433c0.312,0.177,0.66,0.427,1.299,0.452c0.323,0.015,0.818-0.147,1.095-0.522
	c0.277-0.366,0.331-0.749,0.333-1.111c-0.002-0.478-0.106-0.998-0.315-1.683c-0.042-0.238-0.255-1.566-0.253-3.396
	c-0.004-2.227,0.333-5.135,1.611-7.485c1.157-2.092,2.944-3.789,6.135-4.446c-0.018,0.301-0.03,0.641-0.03,1.007
	c0.004,1.289,0.137,2.906,0.791,4.361c0.625,1.449,1.992,2.771,4.044,2.895c-0.004,0,0.064,0.006,0.16,0.006
	c0.439,0.011,1.574-0.156,2.508-1.261c0.882-1.044,1.529-2.763,1.595-5.647l0.087,0.041c0.002,0,0.075,0.036,0.264,0.146
	c1.324,0.808,6.994,4.623,7.009,14.642c0,0.837-0.04,1.719-0.127,2.646l-0.079,0.864l0.845,0.198
	c0.017,0.004,6.197,1.446,15.537,4.606c9.338,3.16,21.792,8.031,34.227,14.856l1.178,0.647l0.275-1.315
	c0-0.002,0.183-0.881,0.437-1.921c0.25-1.033,0.589-2.258,0.818-2.783l0.031-0.073l0.019-0.077c0.152-0.67,0.379-1.022,0.406-1.767
	c-0.012-0.744-0.33-1.326-0.88-2.167c-0.05-0.099-0.191-0.403-0.346-0.872c-0.189-0.579-0.377-1.372-0.375-2.184
	c0.006-1,0.252-1.974,1.067-2.829c0.19-0.13,0.651-0.454,1.154-0.86c0.654-0.558,1.366-1.109,1.753-1.982l0.087-0.223l-0.023-0.239
	c-0.002-0.029-1.409-14.619-2.841-29.521c-1.426-14.81-2.875-29.918-2.983-31.184c-0.017-2.214-0.653-8.054-0.651-11.057
	c-0.002-0.553,0.025-1.006,0.064-1.249c0.005-0.015,0.012-0.036,0.023-0.066c0.04-0.11,0.127-0.283,0.195-0.36
	c0.003-0.003,0.005-0.006,0.008-0.009c0.002,0.002,0.004,0.003,0.007,0.005c0.203,0.08,0.822,0.637,1.604,2.024
	c0.271,1.879,2.604,18.068,3.16,21.423c0.25,4.828,6.023,46.612,6.025,46.649l0.017,0.123l0.048,0.117
	c0.021,0.045,0.181,0.447,0.518,0.903c0.331,0.429,0.885,1.06,1.882,1.088c1.066-0.029,1.868-0.782,2.568-2.036
	c0.287-0.42,1.91-2.692,2.367-4.417c0.108-0.997,1.848-1.792,3.295-3.106c1.638-1.854,3.043-4.203,3.472-6.546l0.017-0.089v-0.085
	c-0.008-1.247,0.356-2.719,0.366-4.221c0-0.899-0.15-1.861-0.72-2.723l-0.031-0.048l-0.033-0.04c0,0-0.1-0.119-0.287-0.396
	c-0.566-0.831-1.713-2.87-1.705-5.352c0-0.995,0.175-2.065,0.644-3.197c0.002-0.004,2.442-5.824,3.777-9.631
	c0.006-0.009,0.108-0.237,0.334-0.625c0.771-1.332,2.798-4.13,6.518-5.146c1.107-0.302,2.243-0.443,3.359-0.443
	c3.396-0.006,6.583,1.346,8.335,3.435c0.066,0.116,0.227,0.403,0.451,0.857c0.905,1.813,2.723,6.116,2.717,10.908
	c0,0.715-0.038,1.438-0.127,2.167c-0.093,0.426-0.617,2.778-0.623,4.623c0.003,0.545,0.036,1.051,0.209,1.553
	c0.122,0.464,0.668,1.167,1.485,1.155c0.377-0.002,0.693-0.127,0.98-0.292l0.11-0.064l0.094-0.092
	c1.294-1.32,4.798-3.535,7.343-4.221c0.874-0.06,1.575-0.077,2.181-0.077c1.245-0.002,2.115,0.085,3.306,0.085
	c1.867,0.002,2.708,0,4.265-0.202l0.057-0.008l0.059-0.015c0.256-0.062,0.464-0.087,0.643-0.087
	c0.596-0.004,1.016,0.273,1.948,0.896l0.053,0.033l0.052,0.027c0.462,0.229,0.855,0.464,1.211,0.664
	c0.382,0.188,0.606,0.402,1.245,0.443c0.318,0.033,0.857-0.219,1.041-0.583c0.176-0.311,0.197-0.552,0.204-0.774
	c0.061-0.451,0.083-0.831,0.083-1.145c0-0.425-0.041-0.726-0.079-0.913c0.007-0.155,0.032-0.468,0.114-0.836
	c0.108-0.531,0.36-1.086,0.647-1.309c0.438-0.356,0.596-0.392,0.922-0.406c0.483-0.021,1.46,0.321,3.054,0.793l0.096,0.029
	l0.097,0.008c1.296,0.104,2.993,0.502,4.721,0.506c0.82,0,1.659-0.091,2.473-0.383c0.699-0.235,1.536-0.423,2.314-0.42
	c1.413,0.061,2.52,0.415,3.313,2.5c0.016,0.336,0.078,1.064,0.357,1.859c0.32,1.022,1.312,2.396,3.087,2.381
	c0.146,0,0.293-0.009,0.444-0.026c0.356,0.147,1.072,0.46,1.779,0.876c0.495,0.291,0.976,0.633,1.284,0.947
	c0.32,0.319,0.401,0.568,0.389,0.616c0,0.004,0,0.017-0.002,0.04l-0.012,0.163l0.036,0.143c-0.001,0-0.001,0-0.001,0
	c0.002,0.015,0.006,0.052,0.006,0.109c-0.05,0.295,0.031,1.182-2.228,2.115c-3.309,1.389-6.04,3.246-7.387,5.212
	c-0.797,0.955-4.804,4.188-10.182,4.499l-0.252,0.017l-0.212,0.133c-0.054,0.06-1.628,0.956-2.429,2.454l-0.051,0.102l-0.022,0.089
	c-0.048,0.069-0.955,3.195-8.83,4.931c-0.063,0.023-5.05,0.95-8.895,4.528c-0.217,0.158-1.122,0.81-2.15,1.496
	c-1.145,0.783-2.589,1.632-2.937,1.707c-1.922,0.498-3.591,2.273-4.43,4.773l-0.023,0.073l-0.013,0.079
	c-0.383,2.323-0.955,7.248-0.955,13.141c0,5.265,0,11.097,0,11.097v1.068l1.065-0.075c0.013-0.002,10.758-0.753,12.529-0.751
	c0.752-0.004,1.902-0.133,3.486-0.133c3.015,0.002,7.434,0.468,12.184,3.197c7.044,4.084,11.391,8.261,14.875,13.949
	c3.508,5.521,14.246,28.109,16.143,31.721c1.657,3.497,6.54,15.144,8.641,19.346c1.746,3.475,4.296,9.832,4.277,14.338
	C376.492,350.672,376.346,351.642,376.047,352.421z"/>
<path fill="#172983" d="M262.596,299.859c-0.355-0.162-0.771-0.103-1.064,0.155l-7.151,6.205c-0.114,0.098-0.208,0.229-0.266,0.368
	c-0.95,2.308-1.447,3.87-2.141,4.725c-0.672,0.832-1.555,1.335-4.01,1.622l-0.262,0.066c-0.749,0.303-1.781,0.435-2.985,0.432
	c-2.41,0.005-5.423-0.498-8.292-0.505c-1.246-0.01-1.707-0.337-1.958-0.623c-0.251-0.289-0.345-0.728-0.343-1.123
	c0-0.078,0.003-0.152,0.008-0.22c10.949-7.026,14.838-18.428,14.881-18.521c1.06-2.738,3.636-7.159,5.924-10.822
	c2.291-3.671,4.297-6.61,4.301-6.616c0.146-0.212,0.202-0.47,0.16-0.726c-0.085-0.501-0.129-1.239-0.129-2.079
	c-0.002-3.971,0.89-10.203,0.89-10.213c0.047-0.345-0.085-0.69-0.355-0.913c-23.899-19.536-53.336-22.907-60.215-23.448
	c0.844-2.061,1.139-4.144,1.139-6.044c-0.008-4.652-1.735-8.265-1.765-8.34c-0.146-0.308-0.438-0.518-0.775-0.56
	c-0.337-0.043-0.671,0.089-0.888,0.35c-2.022,2.407-3.71,3.051-5.074,3.058c-1.436,0.008-2.737-0.775-3.691-1.638
	c-0.476-0.426-0.854-0.86-1.11-1.183c-0.255-0.322-0.37-0.509-0.372-0.507c-0.212-0.333-0.603-0.509-0.991-0.451
	c-0.389,0.061-0.707,0.345-0.809,0.726c-0.012,0.05-0.773,2.854-0.775,6.303c0,1.011,0.064,2.079,0.239,3.153
	c-0.657,0.029-1.47,0.123-2.258,0.429c-0.971,0.335-2.064,1.301-2.04,2.765c0.002,0.568,0.146,1.16,0.418,1.798
	c0.066,0.156,0.17,0.291,0.304,0.395c0.002,0,0.197,0.149,0.536,0.48c1.033,0.996,3.056,3.416,3.037,6.455
	c0,0.678-0.096,1.395-0.322,2.16c-1.048,3.494-1.719,6.234-1.723,8.75c-0.002,1.806,0.366,3.492,1.187,5.13
	c1.858,3.739,4.628,6.888,4.681,16.786c-0.059,0.283-0.179,0.958-0.181,1.854c-0.077,2.438,1.117,6.872,6.927,8.155
	c0.091,0.017,0.289,0.05,0.596,0.05c0.894,0.015,2.8-0.333,4.419-2.347c1.612-1.995,2.942-5.473,3.212-11.665l0.232-1.325l-0.001,0
	c0.246-1.42,1.168-3.863,2.026-5.872c0.299-0.706,0.59-1.362,0.842-1.919l1.308,2.283c0.094,0.164,0.237,0.301,0.405,0.389
	c7.34,3.76,11.664,13.472,13.99,22.335c1.172,4.42,1.865,8.606,2.262,11.681c0.343,2.655,0.466,4.465,0.494,4.909
	c-0.258,1.58-0.359,3.683-0.361,6.168c0.004,14.148,3.39,40.625,3.392,40.649c0.044,0.346,0.264,0.641,0.582,0.782
	c0.32,0.143,0.684,0.107,0.971-0.092l6.77-4.696c0.335-0.232,0.495-0.644,0.403-1.041l-6.961-30.09
	c-0.057-0.271-0.097-0.512-0.125-0.719c0.174,0.157,0.357,0.336,0.511,0.518c0.34,0.371,0.629,0.729,0.771,0.907
	c0.254,0.736,1.376,4.001,2.572,7.652c1.357,4.135,2.817,8.822,3.166,10.664l0.077,0.235c0.667,1.395,1.588,5.093,2.278,8.321
	c0.441,2.038,0.808,3.919,1.02,5.038c-0.942,0.414-2.024,1.482-3.934,4.021c-1.171,1.354-1.769,2.677-1.769,3.98
	c0.004,1.607,0.898,2.896,2.01,3.952c1.125,1.066,2.538,1.991,3.937,2.927c2.197,1.318,5.161,1.613,8.109,1.626
	c3.937,0,7.908-0.616,9.431-0.716l0.16-0.024c3.748-0.913,5.143-4.236,5.201-4.326l0.081-0.401l-0.181-60.735
	C263.178,300.372,262.952,300.021,262.596,299.859z"/>
<path fill="#172983" d="M269.115,279.512c-0.153-0.371-0.516-0.615-0.918-0.615h-5.829c-0.235,0-0.464,0.085-0.644,0.235
	c-2.725,2.362-6.952,9.416-8.577,15.307c-0.999,2.494-4.205,5.955-7.155,8.652c-2.971,2.74-5.659,4.775-5.663,4.782
	c-0.272,0.206-0.421,0.543-0.39,0.884c0.031,0.343,0.24,0.646,0.547,0.799c1.482,0.743,2.94,0.97,4.147,0.97
	c1.887-0.004,3.186-0.534,3.262-0.565c1.342-0.638,2.522-2.044,3.887-3.862c3.995-5.435,8.638-14.634,8.653-14.659l0.043-0.095
	c0.634-1.711,2.764-4.501,4.709-6.732c1.949-2.252,3.708-4.009,3.712-4.016C269.183,280.311,269.27,279.884,269.115,279.512z"/>
<path fill="#172983" d="M264.357,273.511c2.723,2.05,7.502,1.879,10.967,1.927c0.072,0.002,0.144,0.002,0.214,0.003
	c2.65,0,4.22-1.301,5.026-2.859c0.876-1.571,1.39-3.303,2.85-5.016l0.14-0.214c1.833-3.831,2.357-7.646,2.357-10.763
	c-0.003-4.245-0.965-7.212-0.985-7.278c-0.134-0.409-0.517-0.687-0.946-0.687c-7.979,0.035-16.253,5.598-16.333,5.623l0.551,0.831
	l-0.586-0.804c-1.509,1.192-1.979,3.323-2.595,5.922c-0.572,2.599-1.088,5.676-1.917,8.516c-0.179,0.572-0.271,1.135-0.271,1.672
	C262.811,271.688,263.444,272.809,264.357,273.511z"/>
<path fill="#172983" d="M346.166,292.603c-7.522-15.422-14.943-17.123-21.85-19.115c-2.273-0.572-4.718-0.77-7.211-0.771
	c-5.484,0.002-11.227,0.979-15.209,1.493c-0.519,0.033-1.018,0.048-1.448,0.048c-1.04,0.005-1.657-0.111-1.939-0.205
	c0-0.043-0.003-0.085-0.009-0.128c-0.077-0.549-0.119-1.635-0.117-2.999c0-6.954,0.956-21.371,1.05-22.818
	c1.995-6.496,2.511-13.064,2.511-18.164c0-5.582-0.617-9.407-0.623-9.444c-1.126-7.169-5.423-8.517-7.356-8.419
	c-0.431,0-0.746,0.047-0.901,0.076c-6.903,0.464-9.893,5.856-9.953,5.958c-0.166,0.295-0.166,0.661-0.004,0.958
	s0.47,0.495,0.807,0.518l6.294,0.417c-1.184,0.995-3.087,2.211-5.658,2.68c-5.983,1.381-9.49,8.436-11.383,11.354
	c-0.886,1.379-2.034,2.049-2.986,2.398c-0.474,0.17-0.896,0.258-1.189,0.3c-0.295,0.042-0.42,0.035-0.42,0.039
	c-0.295,0-0.576,0.131-0.765,0.358c-0.048,0.085-1.036,1.184-1.067,2.866c-0.008,0.838,0.32,1.82,1.127,2.615l0.229,0.17
	c0.528,0.289,1.1,0.451,1.676,0.449c2.329-0.125,3.818-1.949,7.254-4.272l0.079-0.06c3.82-3.286,5.577-7.599,5.88-8.378
	c2.239-3.331,4.081-3.92,5.296-3.933c0.276,0,0.531,0.034,0.761,0.086c-0.379,0.349-0.667,0.695-0.927,1.087
	c-0.49,0.727-0.915,1.542-2.089,3.172c-1.484,1.591-2.068,2.955-2.805,4.315c-0.75,1.381-1.691,2.893-4.072,5.185
	c-4.367,4.523-8.094,4.989-11.769,5.963c-0.812,0.206-1.4,0.437-1.87,0.77c-0.461,0.312-0.838,0.867-0.828,1.458
	c0.042,0.876,0.541,1.292,0.861,1.587c0.346,0.289,0.645,0.447,0.683,0.468l0.264,0.096c0.676,0.144,1.362,0.212,2.063,0.212
	c3.411-0.015,6.976-1.589,12.3-4.239c6.798-3.309,9.737-7.978,9.801-8.076l0.051-0.093c1.44-2.974,3.445-5.441,5.089-7.152
	c0.017-0.018,0.034-0.036,0.051-0.054c0,0.01-0.001,0.019-0.001,0.028c-0.077,1.129-0.063,2.199-0.773,4.359
	c-0.786,2.094-2.313,4.75-3.636,6.834c-1.322,2.092-2.429,3.615-2.429,3.619c-0.165,0.225-0.228,0.507-0.173,0.78
	c0.104,0.501,0.16,1.377,0.158,2.423c0.004,5.264-1.298,14.904-1.296,14.918c-0.035,0.248,0.027,0.501,0.173,0.705
	c0.983,1.371,4.255,8.481,7.518,15.822c3.288,7.382,6.666,15.122,8.187,18.265c2.984,5.937,10.69,22.749,11.583,26.648
	c0.049,0.372,0.072,0.724,0.072,1.046c-0.002,1.379-0.39,2.4-0.768,3.085c-0.133,0.238-0.264,0.436-0.377,0.588
	c-0.938-0.387-2.282-1.634-3.279-2.942c-1.219-1.533-2.076-3.03-2.082-3.032c-0.233-0.406-0.72-0.595-1.167-0.451
	c-0.444,0.143-0.734,0.578-0.687,1.046c0.156,1.289,1.136,3.735,2.627,7.219c4.478,10.332,13.428,28.256,16.907,33.474
	c1.333,1.949,2.406,3.238,3.432,4.094c1,0.844,2.043,1.256,3.059,1.256c0.013,0,0.025,0,0.038,0
	c1.485-0.022,2.667-0.672,4.168-1.184c2.499-0.635,4.947-2.925,6.976-5.039c1.847-1.956,3.236-3.796,3.473-4.112
	c2.204-2.315,3.014-5.1,3.008-7.701c-0.007-3.184-1.143-6.129-2.356-8.123c-2.301-3.706-9.232-9.064-12.979-12.439
	c-3.452-3.101-14.664-13.238-15.381-13.886c-1.071-1.2-1.527-2.081-1.643-2.436c0.052-0.007,0.114-0.01,0.186-0.009
	c0.942-0.036,3.004,0.746,3.746,1.32c0.907,0.569,5.565,4.536,10.382,8.606c4.858,4.101,9.946,8.354,12.228,9.846
	c3.96,2.874,8.479,7.782,9.854,10.039c0.333,0.416,0.633,2.506,0.6,4.794c0.002,4.638-0.74,10.529-0.74,10.54
	c-0.053,0.403,0.146,0.794,0.499,0.992c0.354,0.199,0.79,0.164,1.108-0.088c0.01-0.01,6.412-5.093,11.895-10.209
	c1.938-1.732,2.74-3.809,2.727-5.817c-0.055-4.588-3.628-8.896-4.53-11.773C364.399,329.61,354.077,308.257,346.166,292.603z"/>
<path fill="#172983" d="M295.002,299.396l-0.117-0.281c-0.176-0.291-0.234-0.544-0.238-0.829c-0.015-0.633,0.411-1.468,0.92-2.104
	c0.246-0.318,0.503-0.589,0.689-0.773c0.189-0.186,0.295-0.271,0.293-0.272c0.321-0.27,0.44-0.705,0.3-1.097
	c-1.969-5.492-9.653-18.009-9.67-18.048c-0.251-0.411-0.764-0.585-1.21-0.409c-4.091,1.609-8.992,5.415-12.976,9.106
	c-1.985,1.845-3.727,3.658-4.992,5.168c-0.633,0.755-1.148,1.432-1.522,2.022c-0.364,0.614-0.643,1.041-0.678,1.739
	c0.002,2.176,1.514,28.434,1.514,28.458c0.017,0.316,0.182,0.602,0.447,0.775c2.502,1.601,6.564,1.944,10.988,1.969
	c6.946-0.002,14.799-1.066,17.163-1.059c2.346,0.021,3.867-1.028,4.622-2.104c0.768-1.067,0.877-2.065,0.892-2.163v-0.224
	c-0.235-1.952-1.646-6.056-3.11-10.232C296.86,304.91,295.342,300.771,295.002,299.396z"/>
<path fill="#172983" d="M286.018,210.312l0.156,0.078c0.996,0.389,1.963,0.794,3.017,0.809c0.032,0.001,0.064,0.002,0.097,0.002
	c0.853,0,1.823-0.494,2.291-1.402c0.504-0.922,0.693-2.122,0.701-3.853c0-0.436-0.014-0.908-0.041-1.418
	c-0.181-3.731-2.218-5.904-4.132-6.938c-1.912-1.054-3.685-1.148-3.769-1.157c-0.387-0.022-0.755,0.186-0.936,0.527
	c-1.186,2.239-1.702,4.24-1.702,6.012C281.694,206.546,283.833,208.968,286.018,210.312z"/>
<path fill="#172983" d="M286.421,194.508c0,0,0.447,0.182,1.203,0.608c2.285,1.292,6.937,4.639,7.975,10.672
	c0.056,0.317,0.26,0.585,0.55,0.726c0.137,0.065,0.284,0.098,0.431,0.098c0.165,0,0.33-0.042,0.479-0.123
	c0.15-0.06,2.919-1.706,2.913-5.887c0-1.039-0.171-2.219-0.572-3.547c-0.763-2.773-1.634-4.738-2.835-6.087
	c-1.196-1.359-2.797-1.973-4.503-1.953c-0.336,0-0.655-0.002-0.96-0.002c-1.519,0.021-2.702-0.029-3.792,0.68
	c-1.099,0.781-1.422,2.074-1.508,3.846C285.781,193.958,286.031,194.348,286.421,194.508z"/>
<path fill="#172983" d="M305.983,233.878c0,0,3.025-0.855,4.752-2.154s5.18-3.018,7.341-3.888c2.162-0.863,8.633-2.162,11.23-4.744
	c2.582-2.597,2.154-3.888,4.308-4.324c2.162-0.436,9.068-3.88,9.504-5.179c0.428-1.299,3.452-4.316,3.452-4.316
	c-1.727-0.436-3.452-4.316-3.452-4.316c-2.162,0.428-5.615,0.428-7.777,0c-2.154-0.436-1.727,1.719-2.582,3.888
	c-0.863,2.154-2.006,1.33-7.776-0.871c-9.067-3.453-19.427,5.187-19.427,5.187C306.846,221.793,305.983,233.878,305.983,233.878z"/>
</svg>
