<?xml version="1.0" encoding="utf-8"?>
<!DOCTYPE svg PUBLIC "-//W3C//DTD SVG 1.1//EN" "http://www.w3.org/Graphics/SVG/1.1/DTD/svg11.dtd" [
<!ENTITY ns_svg "http://www.w3.org/2000/svg">
<!ENTITY ns_xlink "http://www.w3.org/1999/xlink">
]>
<svg  version="1.1" id="Layer_1" xmlns="&ns_svg;" xmlns:xlink="&ns_xlink;" width="135.852" height="188.685"
viewBox="0 0 135.852 188.685" overflow="visible" enable-background="new 0 0 135.852 188.685" xml:space="preserve">
<g>
<path fill-rule="evenodd" clip-rule="evenodd" fill="#FAD412" stroke="#000000" stroke-width="0.5" d="M0.25,143.721
c0,0-0.082,33.719,33.821,33.719c33.74,0,33.823,11.241,33.823,11.241s0.192-11.241,33.82-11.241
c33.823,0,33.823-33.719,33.823-33.719V0.25H0.25V143.721z"/>
</g>
<path fill-rule="evenodd" clip-rule="evenodd" fill="#FF0000" d="M2.772,3.443h129.693v137.822c0,0,0,32.392-32.423,32.392
c-32.24,0-32.424,10.798-32.424,10.798s-0.081-10.798-32.423-10.798c-32.502,0-32.423-32.392-32.423-32.392V3.443L2.772,3.443z"/>
<path fill-rule="evenodd" clip-rule="evenodd" fill="#0E1E7D" d="M67.577,3.443h64.889v137.822c0,0,0,32.392-32.423,32.392
c-32.24,0-32.424,10.798-32.424,10.798L67.577,3.443L67.577,3.443z"/>
<polygon fill-rule="evenodd" clip-rule="evenodd" fill="#FFFFFF" points="2.772,3.579 132.466,3.443 132.453,44.091 2.772,44.091 
2.772,3.579 "/>
<path fill-rule="evenodd" clip-rule="evenodd" fill="#FFF200" stroke="#000000" stroke-width="0.5381" stroke-linejoin="round" stroke-miterlimit="2.6131" d="
M46.985,145.896c0.279,1.004,0.583,2,0.844,3.019c-1.271,0.407-2.472-0.203-3.509-0.925
C44.906,146.947,45.837,146.101,46.985,145.896L46.985,145.896z"/>
<path fill-rule="evenodd" clip-rule="evenodd" fill="#FFF200" stroke="#000000" stroke-width="0.5381" stroke-linejoin="round" stroke-miterlimit="2.6131" d="
M48.945,153.328c-0.899,0.867-2.619,1.319-3.779,1.101c0.092-1.073,0.946-2.521,1.809-3.299L48.945,153.328L48.945,153.328z"/>
<path fill-rule="evenodd" clip-rule="evenodd" fill="#FFF200" stroke="#000000" stroke-width="0.5381" stroke-linejoin="round" stroke-miterlimit="2.6131" d="
M73.155,153.984l-1.048,3.229c-1.127-0.413-1.815-1.771-2.287-2.727C70.72,153.915,72.103,153.589,73.155,153.984L73.155,153.984z"
/>
<path fill-rule="evenodd" clip-rule="evenodd" fill="#FFF200" stroke="#000000" stroke-width="0.5381" stroke-linejoin="round" stroke-miterlimit="2.6131" d="
M53.846,155.987c-0.753,0.983-2.109,1.638-3.326,1.756c-0.111-0.212-0.127-0.536-0.133-0.813c0.008-0.895,0.353-1.71,0.9-2.429
L53.846,155.987L53.846,155.987z"/>
<path fill-rule="evenodd" clip-rule="evenodd" fill="#FFF200" stroke="#000000" stroke-width="0.5381" stroke-linejoin="round" stroke-miterlimit="2.6131" d="
M66.745,153.383c0.189,1.461,0.093,2.898-0.742,4.068c-0.635-0.924-1.897-1.528-2.168-2.645l2.699-1.431L66.745,153.383
L66.745,153.383z"/>
<path fill-rule="evenodd" clip-rule="evenodd" fill="#FFF200" stroke="#000000" stroke-width="0.5381" stroke-linejoin="round" stroke-miterlimit="2.6131" d="
M73.33,165.122c-0.686,1.113-1.889,1.714-3.084,1.935c-0.333-1.061-0.433-2.527,0.061-3.445L73.33,165.122L73.33,165.122z"/>
<path fill-rule="evenodd" clip-rule="evenodd" fill="#FFF200" stroke="#000000" stroke-width="0.5381" stroke-linejoin="round" stroke-miterlimit="2.6131" d="
M93.132,166.896c-1.041-0.631-3.08-0.639-3.823-1.793l0.618-0.506l2.063-1.89C92.625,163.823,93.398,165.505,93.132,166.896
L93.132,166.896z"/>
<path fill-rule="evenodd" clip-rule="evenodd" fill="#FFF200" stroke="#000000" stroke-width="0.5381" stroke-linejoin="round" stroke-miterlimit="2.6131" d="
M80.435,168.117c-0.624,1.102-2.215,1.705-3.308,2.034c-0.398-0.877-0.583-2.606-0.242-3.499L80.435,168.117L80.435,168.117z"/>
<path fill-rule="evenodd" clip-rule="evenodd" fill="#FFF200" stroke="#000000" stroke-width="0.5381" stroke-linejoin="round" stroke-miterlimit="2.6131" d="
M40.146,103.335c-0.767,0.688-2.433,1.48-3.223,2.172c-0.876-0.854-1.111-3.294-0.885-4.446
C37.192,101.132,39.407,102.359,40.146,103.335L40.146,103.335z"/>
<path fill-rule="evenodd" clip-rule="evenodd" fill="#FFF200" stroke="#000000" stroke-width="0.5381" stroke-linejoin="round" stroke-miterlimit="2.6131" d="
M35.422,108.552c-0.028,1.019,0.019,2.491-0.062,3.539c-1.229-0.028-3.091-1.154-3.744-2.125
C32.46,109.19,34.217,108.381,35.422,108.552L35.422,108.552z"/>
<path fill-rule="evenodd" clip-rule="evenodd" fill="#FFF200" stroke="#000000" stroke-width="0.5381" stroke-linejoin="round" stroke-miterlimit="2.6131" d="
M38.949,118.349c-1.093,0.692-3.406,1.226-4.502,0.81c0.253-1.051,1.604-2.815,2.642-3.281
C37.64,116.753,38.425,117.433,38.949,118.349L38.949,118.349z"/>
<path fill-rule="evenodd" clip-rule="evenodd" fill="#FFF200" stroke="#000000" stroke-width="0.5381" stroke-linejoin="round" stroke-miterlimit="2.6131" d="
M52.324,124.655l-0.315,0.483c-0.638-0.941-3.284-1.786-3.509-2.943l3.736-2.341C52.235,119.854,52.82,123.571,52.324,124.655
L52.324,124.655z"/>
<path fill-rule="evenodd" clip-rule="evenodd" fill="#FFF200" stroke="#000000" stroke-width="0.5381" stroke-linejoin="round" stroke-miterlimit="2.6131" d="
M39.456,72.43l-2.428,2.383c-0.94-0.737-1.36-2.232-1.376-3.401C36.766,71.309,38.649,71.663,39.456,72.43L39.456,72.43z"/>
<path fill-rule="evenodd" clip-rule="evenodd" fill="#FFF200" stroke="#000000" stroke-width="0.5381" stroke-linejoin="round" stroke-miterlimit="2.6131" d="
M35.056,78.52l-0.721,3.472c-1.229-0.083-3.195-1.691-3.751-2.696C31.476,78.632,33.894,78.208,35.056,78.52L35.056,78.52z"/>
<path fill-rule="evenodd" clip-rule="evenodd" fill="#FFF200" stroke="#000000" stroke-width="0.5381" stroke-linejoin="round" stroke-miterlimit="2.6131" d="
M38.542,92.101c-0.734,0.556-2.458,1.112-3.33,0.942c0.069-0.899,0.75-3.112,1.438-3.783L38.542,92.101L38.542,92.101z"/>
<path fill-rule="evenodd" clip-rule="evenodd" fill="#FAD412" stroke="#000000" stroke-width="0.5381" stroke-linejoin="round" stroke-miterlimit="2.6131" d="
M103.732,101.348c0.555,0.987,1.015,2.019,1.334,3.124c1.148,0.51,2.425,0.792,3.323,1.891c0.594,0.662,1.058,1.386,1.458,2.151
c-0.023,0.156,0.082,0.171,0.077,0.314l0.068,0.079c0.404,2.849,0.113,5.584-0.205,8.224l-4.325-2.64
c-2.513-1.648-4.306-4.035-3.867-7.116c0.057-0.553,0.222-1.073,0.404-1.588c0.167-0.981-0.062-2.107-0.388-3.01
c-0.786-1.385-1.987-3.128-3.717-3.445c-0.869-0.065-1.477,0.745-1.81,1.439c-0.811,2.013-0.236,4.635,0.291,6.715
c0.537,1.979,1.251,3.864,1.982,5.74l2.332,5.5c1.217,2.919,2.499,5.794,3.274,8.942c0.661,2.627-0.15,5.188-2.278,6.803
c-2.793,1.686-6.159,0.569-8.85-0.372c-1.244-0.477-2.466-1.042-3.671-1.639c-0.169,1.66-0.566,3.241-1.758,4.577
c-0.567,0.695-1.202,1.264-1.852,1.801c-2.244,1.496-4.937,2.285-6.559,4.823c0.351,0.123,0.797,0.084,1.205,0.104
c2.297-0.041,4.367-0.77,6.674-0.83c1.73-0.016,3.608,1.212,4.221,2.847c0.277,0.641,0.388,1.476,0.302,2.191l0.027,0.022
c-0.076,0.684-0.386,1.296-0.519,1.967c-0.322,0.971-0.608,1.993-1.126,2.919c-0.082,0.112-0.133,0.24-0.215,0.353l0.026,0.022
c-0.422,0.609-0.665,1.276-1.079,1.893c-0.889,1.341-2.354,2.498-2.581,4.045c0,0.357,0.045,0.729,0.224,1.016
c1.725,1.593,4.289,0.604,6.152,1.803c0.244,0.188,0.436,0.399,0.573,0.64l-3.386,3.031c-0.324,0.022-0.634-0.006-0.901-0.167
c-0.967-1.813-3.036-1.854-4.434-3.161c-2.687,0.857-2.173,3.911-3.297,5.857c-0.089,0.118-0.188,0.257-0.304,0.347l-4.097-1.589
c-0.451-0.422-0.016-0.947,0.139-1.366c0.86-1.511,2.285-2.641,3.345-4.051c-1.264-0.703-2.188,0.634-3.238,1.046
c-0.838,1.134-1.604,2.869-3.164,3.012l-0.164-0.034l-3.697-1.944c-0.123-0.852,0.09-1.726,0.851-2.267
c1.003-0.864,2.419-1.025,3.284-2.061c-0.818-0.409-1.744-1.056-2.198-1.867l1.407-3.646c1.097,0.274,2.1,1.013,2.964,1.873
c1.824,0.845,4.265,1.524,6.181,0.31c0.698-0.479,0.996-1.301,1.456-1.962c0.754-1.385,1.477-2.784,1.413-4.424
c-0.056-0.643-0.283-1.195-0.746-1.623c-0.511-0.27-1.101-0.458-1.689-0.283l-2.77,0.907c-0.489,0.253-1.066,0.432-1.625,0.599
l-3.804,0.923c-1.622,0.184-1.724,0.192-3.334-0.337c-2.195-0.678-3.18-1.237-3.934-2.662c-1.329-2.435-2.244-5.2-2.154-8.263
c0.119-3.153,0.164-6.576,3.069-8.598c1.705-1.301,3.884-1.701,5.686-2.813c1.293-0.932,1.892-2.407,1.65-3.964l-0.031,0.2
c0.116,0.976-0.328,2.554-1.11,3.194c-1.227,0.865-2.7,1.494-4.015,2.182c-1.82,0.824-3.516,1.496-4.297,3.474
c-0.91,2.148-0.983,3.911-1.024,6.33c0.028,2.498,0.55,4.903,1.525,6.956c-1.124,0.621-3.439,1.843-4.163,3.082
c1.026,2.066,3.891,1.256,4.629,3.575l0.18,0.649l-3.429,1.815c-0.207-0.038-0.525-0.01-0.557-0.297
c-0.329-0.797-1.136-1.638-2.03-1.781c-1.839-0.295-3.444,0.597-5.058,1.106c-0.596,0.872-1.016,1.852-1.833,2.6l-0.282,0.161
c-1.119-0.876-2.197-1.187-3.269-2.165c0.48-0.713,1.263-1.313,1.493-2.201c-1.33-0.187-1.914,1.522-3.281,1.26
c-0.345-0.136-0.532-0.514-0.772-0.782c-0.381-0.559-0.921-1.226-1.605-1.437l-0.205-0.218l0.67-0.525
c0.846-0.266,1.817-0.295,2.545-0.79l0.235-0.267c-0.595-0.681-1.562-0.029-2.273-0.331c-0.225-0.528-0.161-1.206-0.351-1.755
c-0.146-0.548-0.376-1.059-0.605-1.562c0.243-0.262,0.727-0.707,1.512-0.763c6.353,0.198,7.681,2.353,12.228-1.621
c-1.209-3.178-5.78-3.813-6.245-8.214c-0.034-3.558,1.57-6.853,4.444-9.247c2.04-1.354,4.094-2.681,6.609-3.116
c0.555-0.91,0.269-2.21-0.033-3.188c-0.544-1.572-5.83-6.85-7.136-8.029l5.824-0.339c1.078,0.552,2.137,1.162,3.382,1.17
c1.213-0.167,1.904-1.43,2.643-2.351c0.753-1.051,1.417-2.273,2.47-3.073c0.999-0.771,1.939-1.648,3.08-2.143l1.562,2.766
c0.932,4.872,3.188,9.313,7.727,12.053c2.434,1.16,3.165,3.677,4.113,5.85c0.304,1.291,0.729,2.561,0.694,3.979
c2.571,1.34,5.183,2.566,8.034,3.031c1.049,0.143,2.432,0.157,3.213-0.639c1.228-1.197,1.163-2.984,0.713-4.534
c-0.61-2.184-1.51-4.211-2.314-6.29l-2.95-6.938c-1.381-3.581-2.839-7.206-2.921-11.388c0.008-2.156,0.734-4.414,2.726-5.622
c1.557-0.955,3.551-0.495,4.92,0.556C102.094,98.831,103.026,100.111,103.732,101.348L103.732,101.348z"/>
<path fill-rule="evenodd" clip-rule="evenodd" fill="#FAD412" stroke="#000000" stroke-width="0.5381" stroke-linejoin="round" stroke-miterlimit="2.6131" d="
M40.616,72.775c1.255,1.584,1.353,4.25,3.771,4.759c1.19,1.904-0.329,4.064,0.665,6.041c0.372,0.584,1.063,0.948,1.612,1.362
c0.841,0.53,3.5,2.127,4.381,2.537c-1.586,2.165-1.408,3.396-0.981,6.162c-1.446-1.802-5.442-3.432-7.604-4.302
c-1.127,1.059-1.859,2.768-3.302,3.27c-0.259,0.066-0.516,0.033-0.744-0.045l-2.568-3.139c-0.088-0.583,0.281-1.09,0.724-1.443
l3.377-2.562c-0.95-0.847-1.17-2.368-2.578-2.683c-0.945-0.089-1.939-0.034-2.895-0.104c-0.243-0.034-0.493-0.209-0.629-0.425
l0.664-3.816l0.296-0.285c1.551-0.104,2.865,0.538,4.281,0.858c0.136,0.013,0.348,0.037,0.449-0.076
c0.123-0.146-0.015-0.307-0.075-0.437c-0.734-0.989-1.893-1.75-2.538-2.784c0.001-0.617,0.282-1.14,0.607-1.655
c0.727-0.649,1.266-1.743,2.395-1.527C40.169,72.537,40.404,72.609,40.616,72.775L40.616,72.775z"/>
<path fill-rule="evenodd" clip-rule="evenodd" fill="#FAD412" stroke="#000000" stroke-width="0.5381" stroke-linejoin="round" stroke-miterlimit="2.6131" d="
M54.382,105.304l-0.572-1.563c-2.434-3.292-4.031-7.021-4.649-11.261c-0.242-2.338,0.284-5.52,2.221-7.05l0.966-0.701
c-0.593-1.279,0.098-2.411,0.961-3.466c1.267-1.651,3.256-3.1,3.382-5.174c-0.794-2.032-1.424-4.145-2.749-5.896
c-1.081-1.427-1.959-2.296-4.156-3.454c-0.828-0.542-1.007-0.685-1.413-0.884c3.253-0.408,3.929-0.472,5.731,0.243
c1.56,0.618,4.816,2.933,4.816,2.933c-2.317-2.453-5.183-4.118-8.415-4.143c-1.668,0.108-3.403,0.223-4.938,0.653
c0.31-2.522,1.188-5.728,3.997-6.608c1.427-0.531,2.94-0.22,4.101,0.64c0.743-1.241,1.862-2.183,3.356-2.092
c2.938,0.31,5.3,2.432,8.445,2.083c0.251,0.471,0.687,1.005,1.246,1.123c1.161,0.17,2.011-0.613,2.866-1.211
c1.823-1.57,2.561-3.926,1.703-6.186c-0.156-0.381-0.349-0.74-0.576-1.084c1.754-0.251,3.447,0.845,4.273,2.325
c0.59,1.236,0.372,2.776,0.132,4.03l-0.47,1.963c0.011,0.066-0.014,0.204,0.102,0.176c0.634-0.431,1.134-1.128,1.688-1.712
c0.729,0.442,0.585,1.471,0.485,2.175c-0.42,1.953-1.267,3.77-2.505,5.468c1.356,1.828,2.418,3.811,3.102,5.987l0.067,0.056
l0.432,1.132l9.334-9.343c0.919,0.068,2.65,0.996,3.058,1.841c0.472,0.889,0.413,2.126-0.177,2.923c0,0-9.813,8.212-9.575,8.525
l15.682-13.051c1.367,0.053,3.708,1.888,4.257,3.152c0.723,1.569,0.382,3.379-0.832,4.594l-0.319,0.287l0.061-0.005L82.967,84.338
l0.143-0.062l17.915-12.423c1.229,0.374,2.829,2.435,3.012,3.67c0.187,1.357-0.404,2.647-1.54,3.412l-2.774,1.549l0.126,0.026
l-16.624,9.572l18.135-10.167c1.157,0.749,1.97,3.02,1.833,4.418c-0.108,0.939-0.604,1.894-1.45,2.455L83.56,95.19l13.037-5.87
c0.987,0.862,0.978,3.259,0.596,4.518c-0.258,1.002-1.2,1.922-2.146,2.257l-11.898,5.253c-0.49,0.031-0.429,0.654-0.716,0.963
c-1.373,2.282-4.151,2.106-5.752,4.039c-1.775,0.635-3.209,1.938-4.651,3.215c-1.294,1.352-2.012,3.011-3.358,4.311
c-0.482,0.337-1.049-0.007-1.53-0.149c-0.696-0.278-1.365-0.657-2.017-1.068l-2.605,1.373c-2.249,0.585-4.762,0.755-7.184,0.912
l-5.361,0.32l-1.074,0.118c0.563,1.43,2.248,2.089,3.408,3.017c0.515,0.393,0.804,0.946,0.697,1.615l-0.053,0.238
c-0.924,0.499-1.761,1.158-2.781,1.475c-0.267,0.128-0.481,0.357-0.702,0.579l-1.259,0.689c-1.032-0.163-1.251-1.265-1.573-2.056
c-0.345-1.258-0.813-2.448-1.234-3.662c-0.204-0.432-0.529-0.835-0.973-1.11c-1.477,1.65-3.348,2.541-5.463,2.954
c-0.241,0.064-0.417-0.191-0.56-0.333l-1.685-2.477c-0.059-0.334-0.19-0.772,0.031-1.063c0.734-0.988,2.369-0.403,2.904-1.621
c-0.369-0.276-0.825-0.328-1.269-0.407c-1.093-0.163-2.253-0.099-3.274-0.49c-0.154-0.072-0.325-0.188-0.424-0.332l0.422-3.906
c0.844-0.578,2.008-0.311,2.872-0.016l2.097,0.851c0.162,0.017,0.369-0.014,0.389-0.206c-0.136-0.924-1.232-1.389-1.986-1.698
c-0.75-0.33-1.66-0.497-2.169-1.253c-0.107-0.231-0.1-0.496-0.04-0.735l3.903-3.176c0.97,0.094,1.317,1.18,1.885,1.819
c0.38,0.607,0.725,1.23,0.875,1.956c1.334,1.294,2.475,4.25,4.876,3.296l6.656-2.938L54.382,105.304L54.382,105.304z"/>
<polyline fill="none" stroke="#000000" stroke-width="0.5381" stroke-linejoin="round" stroke-miterlimit="2.6131" points="
76.305,78.695 76.526,78.347 68.696,83.916 "/>
<path fill="none" stroke="#000000" stroke-width="0.5381" stroke-linejoin="round" stroke-miterlimit="2.6131" d="M68.696,83.916
c-4.579-0.218-7.109,1.365-9.282,5.245c-1.671,2.74-0.905,5.303-1.092,8.511c-0.083,2.219,0.246,4.947,1.045,6.898"/>
<path fill-rule="evenodd" clip-rule="evenodd" stroke="#000000" stroke-width="0.5381" stroke-linejoin="round" stroke-miterlimit="2.6131" d="
M62.166,62.834c-0.41-0.729-1.235-1.001-2.041-0.906c-0.368,0.094-0.789,0.285-0.888,0.706c-0.058,0.251,0.027,0.521,0.15,0.727
c0.391,0.526,0.992,0.775,1.609,0.783c0.481,0.001,0.95-0.145,1.182-0.584C62.29,63.341,62.26,63.06,62.166,62.834L62.166,62.834z"
/>
<line fill="none" stroke="#000000" stroke-width="0.5381" stroke-linejoin="round" stroke-miterlimit="2.6131" x1="63.883" y1="93.24" x2="71.848" y2="85.339"/>
<path fill="none" stroke="#000000" stroke-width="0.5381" stroke-linejoin="round" stroke-miterlimit="2.6131" d="M71.848,85.339
c0.752-0.037,2.124,0.856,2.484,1.522c0.472,0.825,0.371,1.833-0.234,2.557"/>
<polyline fill="none" stroke="#000000" stroke-width="0.5381" stroke-linejoin="round" stroke-miterlimit="2.6131" points="
74.098,89.419 73.936,89.591 73.968,89.585 65.468,96.738 65.543,96.698 74.762,89.032 "/>
<path fill="none" stroke="#000000" stroke-width="0.5381" stroke-linejoin="round" stroke-miterlimit="2.6131" d="M74.762,89.032
c0.691,0.146,1.668,1.2,1.826,1.867c0.167,0.735-0.094,1.47-0.679,1.942"/>
<polyline fill="none" stroke="#000000" stroke-width="0.5381" stroke-linejoin="round" stroke-miterlimit="2.6131" points="
75.909,92.842 74.463,93.823 74.532,93.832 65.884,99.873 75.332,93.433 "/>
<path fill="none" stroke="#000000" stroke-width="0.5381" stroke-linejoin="round" stroke-miterlimit="2.6131" d="M75.332,93.433
c0.67,0.355,1.225,1.561,1.217,2.333c-0.015,0.521-0.241,1.067-0.677,1.414"/>
<polyline fill="none" stroke="#000000" stroke-width="0.5381" stroke-linejoin="round" stroke-miterlimit="2.6131" points="
75.872,97.18 66.313,102.655 73.175,98.815 "/>
<path fill="none" stroke="#000000" stroke-width="0.5381" stroke-linejoin="round" stroke-miterlimit="2.6131" d="M73.175,98.815
c0.582,0.425,0.692,1.739,0.542,2.446c-0.093,0.562-0.565,1.111-1.066,1.34"/>
<line fill="none" stroke="#000000" stroke-width="0.5381" stroke-linejoin="round" stroke-miterlimit="2.6131" x1="72.65" y1="102.601" x2="66.384" y2="106.049"/>
<line fill="none" stroke="#000000" stroke-width="0.5381" stroke-linejoin="round" stroke-miterlimit="2.6131" x1="59.354" y1="104.365" x2="54.33" y2="106.442"/>
<polygon fill="#FF0000" points="71.434,3.443 71.434,19.957 132.466,19.957 132.466,27.578 71.434,27.578 71.434,44.091 
63.805,44.091 63.805,27.578 2.772,27.578 2.772,19.957 63.805,19.957 63.805,3.443 71.434,3.443 "/>
<path fill="none" stroke="#000000" stroke-width="0.4484" stroke-linecap="round" stroke-linejoin="round" stroke-miterlimit="2.6131" d="
M132.466,141.265V3.443H2.772v137.822c0,0-0.079,32.392,32.423,32.392c32.343,0,32.423,10.798,32.423,10.798
s0.184-10.798,32.424-10.798C132.466,173.657,132.466,141.265,132.466,141.265L132.466,141.265z"/>
<path fill-rule="evenodd" clip-rule="evenodd" fill="none" stroke="#282420" stroke-width="0.5" stroke-linecap="round" stroke-linejoin="round" stroke-miterlimit="2.6131" d="
M135.852,143.602"/>
</svg>
