<?xml version="1.0" encoding="UTF-8" standalone="no"?>
<svg
   xmlns:dc="http://purl.org/dc/elements/1.1/"
   xmlns:cc="http://creativecommons.org/ns#"
   xmlns:rdf="http://www.w3.org/1999/02/22-rdf-syntax-ns#"
   xmlns:svg="http://www.w3.org/2000/svg"
   xmlns="http://www.w3.org/2000/svg"
   version="1.1"
   id="svg4368"
   viewBox="0 0 252.85353 300"
   height="300"
   width="252.85353">
  <defs
     id="defs4370" />
  <metadata
     id="metadata4373">
    <rdf:RDF>
      <cc:Work
         rdf:about="">
        <dc:format>image/svg+xml</dc:format>
        <dc:type
           rdf:resource="http://purl.org/dc/dcmitype/StillImage" />
        <dc:title></dc:title>
      </cc:Work>
    </rdf:RDF>
  </metadata>
  <g
     transform="translate(-342.6521,-506.1173)"
     id="layer1">
    <g
       transform="matrix(2.7556973,0,0,-2.7556973,563.96178,2164.1072)"
       id="g3799">
      <g
         id="g194"
         transform="translate(-34.474431,493.79962)">
        <path
           d="m 0,0 -1.163,2.151 c -0.055,0.1 -4.669,8.104 -22.023,12.667 -19.371,5.095 -22.187,26.293 -22.161,26.493 l 0.056,0.433 0.298,0.319 c 8.434,9.005 12.409,17.9 11.816,26.437 -0.748,10.783 -8.716,17.329 -8.797,17.393 l -0.778,0.629 0.373,0.931 5.169,12.805 1.353,-0.838 c 0.051,-0.031 5.396,-3.26 12.972,-3.26 7.9,0 15.286,3.386 21.952,10.065 l 0.949,0.95 0.948,-0.95 C 7.63,99.546 15.015,96.16 22.915,96.16 c 7.578,0 12.922,3.229 12.975,3.261 l 1.351,0.831 5.546,-13.732 -0.784,-0.628 C 41.924,85.829 33.957,79.283 33.208,68.5 32.624,60.097 36.466,51.347 44.629,42.488 l 0.37,-0.405 0.431,-0.448 C 45.521,40.931 44.429,35.145 41.455,29.648 38.574,24.325 33.072,17.432 23.219,14.819 5.842,10.212 1.237,2.228 1.193,2.148 L 0,0 Z M -42.581,40.705 C -41.966,37.48 -38.153,21.543 -22.505,17.428 -8.553,13.759 -2.319,7.951 0.018,5.107 2.357,7.943 8.592,13.731 22.533,17.428 38.144,21.566 42.03,37.66 42.62,40.696 33.949,50.118 29.879,59.551 30.53,68.73 c 0.712,10.017 6.838,16.559 9.032,18.599 l -3.655,9.052 c -2.218,-1.072 -6.919,-2.919 -12.992,-2.919 -8.259,0 -15.957,3.339 -22.899,9.928 -6.943,-6.589 -14.642,-9.928 -22.901,-9.928 -6.071,0 -10.773,1.847 -12.991,2.919 l -3.654,-9.052 c 2.194,-2.04 8.319,-8.582 9.03,-18.599 0.652,-9.173 -3.412,-18.598 -12.081,-28.025"
           style="fill:#1c63b7;fill-opacity:1;fill-rule:nonzero;stroke:none"
           id="path196" />
      </g>
      <g
         id="g198"
         transform="translate(-34.474431,493.79962)">
        <path
           d="m 0,0 -1.163,2.151 c -0.055,0.1 -4.669,8.104 -22.023,12.667 -19.371,5.095 -22.187,26.293 -22.161,26.493 l 0.056,0.433 0.298,0.319 c 8.434,9.005 12.409,17.9 11.816,26.437 -0.748,10.783 -8.716,17.329 -8.797,17.393 l -0.778,0.629 0.373,0.931 5.169,12.805 1.353,-0.838 c 0.051,-0.031 5.396,-3.26 12.972,-3.26 7.9,0 15.286,3.386 21.952,10.065 l 0.949,0.95 0.948,-0.95 C 7.63,99.546 15.015,96.16 22.915,96.16 c 7.578,0 12.922,3.229 12.975,3.261 l 1.351,0.831 5.546,-13.732 -0.784,-0.628 C 41.924,85.829 33.957,79.283 33.208,68.5 32.624,60.097 36.466,51.347 44.629,42.488 l 0.37,-0.405 0.431,-0.448 C 45.521,40.931 44.429,35.145 41.455,29.648 38.574,24.325 33.072,17.432 23.219,14.819 5.842,10.212 1.237,2.228 1.193,2.148 L 0,0 Z M -42.581,40.705 C -41.966,37.48 -38.153,21.543 -22.505,17.428 -8.553,13.759 -2.319,7.951 0.018,5.107 2.357,7.943 8.592,13.731 22.533,17.428 38.144,21.566 42.03,37.66 42.62,40.696 33.949,50.118 29.879,59.551 30.53,68.73 c 0.712,10.017 6.838,16.559 9.032,18.599 l -3.655,9.052 c -2.218,-1.072 -6.919,-2.919 -12.992,-2.919 -8.259,0 -15.957,3.339 -22.899,9.928 -6.943,-6.589 -14.642,-9.928 -22.901,-9.928 -6.071,0 -10.773,1.847 -12.991,2.919 l -3.654,-9.052 c 2.194,-2.04 8.319,-8.582 9.03,-18.599 0.652,-9.173 -3.412,-18.598 -12.081,-28.025 z"
           style="fill:none;stroke:#1c63b7;stroke-width:0.96700001;stroke-linecap:butt;stroke-linejoin:miter;stroke-miterlimit:10;stroke-dasharray:none;stroke-opacity:1"
           id="path200" />
      </g>
      <g
         id="g202"
         transform="translate(-34.458731,497.39332)">
        <path
           d="m 0,0 c 0,0 -4.532,8.405 -22.658,13.151 -18.126,4.747 -21.009,24.69 -20.981,24.69 25.513,27.125 2.855,45.209 2.855,45.209 l 4.531,11.178 c 0,0 18.127,-11.178 36.253,6.906 C 18.126,83.05 36.253,94.228 36.253,94.228 L 40.784,83.05 c 0,0 -22.658,-18.084 2.855,-45.209 0.105,0 -2.855,-19.904 -20.981,-24.69 C 4.532,8.365 0,0 0,0"
           style="fill:#ffffff;fill-opacity:1;fill-rule:nonzero;stroke:none"
           id="path204" />
      </g>
      <g
         id="g206"
         transform="translate(-61.787331,512.47202)">
        <path
           d="m 0,0 c -14.916,6.238 -16.335,22.763 -16.309,22.763 25.512,27.125 2.854,45.208 2.854,45.208 l 4.532,11.178 c 0,0 18.126,-11.178 36.252,6.906 C 45.454,67.971 63.58,79.149 63.58,79.149 l 1.28,-2.612"
           style="fill:#1c63b7;fill-opacity:1;fill-rule:nonzero;stroke:none"
           id="path208" />
      </g>
      <g
         id="g210"
         transform="translate(-52.233031,528.87872)">
        <path
           d="M 0,0 1.174,1.396 -4.234,5.924 -2.616,7.847 -3.693,8.748 -8.103,3.505 -7.027,2.604 -5.408,4.528 0,0 Z M 1.066,5.466 C 1.702,4.949 3.313,3.631 5.398,6.109 6.903,7.899 6.774,9.654 5.608,10.63 4.344,11.689 3.113,10.843 1.903,9.95 0.887,9.214 0.381,8.83 -0.22,9.333 c -0.529,0.443 -0.525,1.157 0.016,1.801 0.806,0.957 1.628,0.391 1.868,0.221 l 1.121,1.333 C 2.57,12.869 2.05,13.304 1.275,13.328 0.258,13.355 -0.564,12.686 -1.128,12.015 -2.641,10.216 -2.339,8.667 -1.272,7.774 -0.151,6.835 1.014,7.294 2.694,8.51 3.584,9.168 4.021,9.488 4.596,9.008 5.143,8.549 5.102,7.775 4.47,7.023 3.469,5.833 2.561,6.624 2.256,6.88 L 1.066,5.466 Z m 7.716,14.08 C 8.425,19.83 7.891,20.231 7.037,20.215 6.025,20.193 5.069,19.529 4.369,18.697 c -1.648,-1.96 -1.624,-4.42 0.673,-6.342 0.681,-0.571 1.826,-1.3 3.144,-1.169 0.931,0.09 1.93,0.55 3.171,2.027 1.092,1.297 1.424,2.147 1.628,2.662 l -3.237,2.711 -2.221,-2.64 1.077,-0.901 1.053,1.253 1.364,-1.141 c -0.083,-0.19 -0.198,-0.49 -0.763,-1.161 -0.647,-0.77 -1.206,-1.034 -1.835,-1.056 -0.91,-0.046 -1.752,0.552 -2.192,0.92 -0.996,0.833 -2.203,2.378 -0.878,3.953 0.255,0.304 0.756,0.754 1.412,0.662 0.387,-0.049 0.628,-0.236 0.806,-0.369 l 1.211,1.44 z m 3.703,3.549 c 0.294,0.913 0.408,1.702 0.429,2.127 l 4.87,-4.077 1.137,1.351 -6.261,5.241 -0.971,-1.154 c -0.06,-0.835 -0.212,-1.652 -0.45,-2.444 l 1.246,-1.044 z m 4.968,4.308 c -0.115,-0.301 -0.266,-0.662 -0.226,-1.214 0.035,-0.486 0.226,-0.967 0.711,-1.372 1.004,-0.841 2.558,-0.648 3.627,0.623 1.031,1.226 1.254,2.854 0.106,3.815 -0.305,0.255 -0.688,0.454 -1.174,0.494 -0.745,0.06 -1.206,-0.271 -1.489,-0.461 0.436,0.718 0.413,1.744 -0.341,2.374 -0.977,0.819 -2.425,0.552 -3.479,-0.701 -1.279,-1.521 -0.827,-2.983 -0.064,-3.621 0.968,-0.811 1.967,-0.168 2.329,0.063 m 0.294,1.385 c -0.413,-0.492 -1.045,-0.497 -1.484,-0.13 -0.475,0.398 -0.472,1.021 -0.096,1.468 0.354,0.421 0.969,0.607 1.481,0.179 0.502,-0.421 0.483,-1.061 0.099,-1.517 m 2.933,-2.455 c -0.361,-0.43 -1.056,-0.656 -1.693,-0.123 -0.529,0.443 -0.607,1.149 -0.171,1.668 0.399,0.474 1.094,0.61 1.659,0.136 0.699,-0.585 0.521,-1.305 0.205,-1.681 m 1.805,3.49 c 1.642,-1.374 2.974,0.21 3.267,0.559 1.272,1.512 1.271,3.038 -1.375,5.253 -1.004,0.841 -3.094,2.499 -4.901,0.352 -1.159,-1.378 -0.97,-2.954 0.195,-3.93 0.745,-0.623 2.296,-1.251 3.583,0.279 0.233,0.278 0.545,0.703 0.518,1.488 0.883,-0.694 1.792,-1.576 1.009,-2.507 -0.316,-0.376 -0.752,-0.422 -1.159,-0.142 l -1.137,-1.352 z m -0.059,3.619 c -0.655,-0.779 -1.479,-0.196 -1.694,-0.016 -0.476,0.398 -0.791,1.059 -0.257,1.694 0.459,0.546 1.103,0.495 1.651,0.037 0.439,-0.368 0.856,-1.053 0.3,-1.715 m 4.394,1.536 c 1.642,-1.374 2.974,0.21 3.267,0.558 1.272,1.513 1.271,3.038 -1.375,5.253 -1.004,0.841 -3.094,2.499 -4.9,0.352 -1.16,-1.378 -0.971,-2.954 0.195,-3.93 0.744,-0.623 2.295,-1.25 3.582,0.28 0.233,0.277 0.545,0.702 0.518,1.488 0.883,-0.694 1.792,-1.577 1.009,-2.508 C 28.8,36.096 28.364,36.049 27.957,36.329 L 26.82,34.978 Z m -0.059,3.618 c -0.655,-0.779 -1.479,-0.196 -1.694,-0.015 -0.476,0.398 -0.791,1.058 -0.257,1.693 0.459,0.546 1.104,0.495 1.651,0.037 0.439,-0.368 0.857,-1.053 0.3,-1.715"
           style="fill:#ffffff;fill-opacity:1;fill-rule:nonzero;stroke:none"
           id="path212" />
      </g>
      <g
         id="g214"
         transform="translate(-41.872031,519.38642)">
        <path
           d="M 0,0 -2.96,2.478 -1.056,4.742 1.904,2.264 2.597,3.087 -3.879,8.508 -4.572,7.685 -1.773,5.342 -3.677,3.078 -6.476,5.421 -7.168,4.598 -0.692,-0.823 0,0 Z M 4.32,6.173 C 3.681,5.412 2.994,5.667 1.523,6.899 0.285,7.935 0.339,8.545 0.814,9.109 1.288,9.672 1.88,9.832 3.118,8.796 4.589,7.564 4.96,6.933 4.32,6.173 M 4.921,5.67 C 5.727,6.627 6.079,7.628 4.079,9.302 2.752,10.414 1.53,11.177 0.213,9.612 -1.104,8.046 -0.138,6.978 1.189,5.866 3.189,4.192 4.116,4.712 4.921,5.67 M 2.252,11.854 2.808,11.389 3.395,12.087 7.368,8.76 7.985,9.494 4.012,12.82 4.779,13.733 4.223,14.199 3.456,13.286 2.684,13.932 c -0.367,0.307 -0.586,0.719 0.122,1.453 L 2.277,15.828 C 2.169,15.736 2.085,15.654 1.957,15.501 1.407,14.848 1.045,14.054 1.96,13.288 L 2.839,12.552 2.252,11.854 Z m 2.092,2.488 0.556,-0.466 0.587,0.698 3.973,-3.326 0.618,0.734 -3.974,3.326 0.768,0.913 -0.556,0.465 -0.768,-0.913 -0.771,0.646 c -0.368,0.308 -0.587,0.72 0.122,1.454 l -0.53,0.443 C 4.261,18.223 4.177,18.141 4.049,17.989 3.5,17.336 3.137,16.541 4.052,15.776 L 4.931,15.04 4.344,14.342 Z m 4.964,1.959 c -1.248,1.06 -1.149,1.632 -0.757,2.098 0.451,0.537 0.921,0.768 2.24,-0.335 L 9.308,16.301 Z m 2.694,2.075 -0.386,0.323 C 10.118,19.953 9.139,20.224 8.055,18.936 6.738,17.37 7.704,16.302 9.032,15.19 c 2,-1.674 2.926,-1.154 3.732,-0.196 0.797,0.948 0.859,1.949 -0.138,2.799 l -0.677,-0.806 c 0.435,-0.41 0.62,-1.007 0.199,-1.508 -0.482,-0.573 -1.019,-0.703 -2.284,0.356 l 2.138,2.541 z m 5.579,2.527 -3.139,2.628 c -0.897,0.751 -1.683,0.997 -2.496,0.031 -0.489,-0.582 -0.614,-1.057 -0.343,-1.771 l -0.031,-0.036 -0.583,0.488 -0.654,-0.778 C 10.671,21.229 11,20.984 11.314,20.721 l 3.588,-3.004 0.617,0.734 -2.682,2.245 c -0.619,0.519 -1.238,1.235 -0.561,2.041 0.527,0.626 1.064,0.466 1.549,0.06 l 3.139,-2.628 0.617,0.734 z m 3.613,4.295 -3.211,2.688 c -1.023,0.856 -1.77,0.75 -2.417,-0.02 -0.497,-0.59 -0.639,-1.051 -0.358,-1.789 l -0.03,-0.036 -2.53,2.118 -0.617,-0.734 6.476,-5.421 0.617,0.734 -2.664,2.23 c -0.762,0.638 -1.196,1.321 -0.579,2.055 0.527,0.627 1.072,0.475 1.628,0.01 l 3.067,-2.568 0.618,0.733 z m -1.199,3.809 c -1.248,1.06 -1.148,1.633 -0.757,2.098 0.451,0.537 0.922,0.769 2.24,-0.335 l -1.483,-1.763 z m 2.694,2.076 -0.386,0.323 c -1.498,1.254 -2.477,1.525 -3.561,0.236 -1.317,-1.566 -0.351,-2.634 0.977,-3.745 2,-1.674 2.927,-1.154 3.732,-0.197 0.798,0.949 0.859,1.949 -0.138,2.799 l -0.677,-0.805 c 0.435,-0.41 0.62,-1.007 0.199,-1.508 -0.482,-0.573 -1.019,-0.703 -2.284,0.356 l 2.138,2.541 z m -1.027,3.849 -0.618,-0.734 4.53,-3.792 0.617,0.734 -4.529,3.792 z m -1.812,0.19 0.692,0.823 -0.789,0.661 -0.693,-0.823 0.79,-0.661 z m 9.893,0.241 -3.049,2.553 c -0.171,0.143 -0.589,0.554 -0.588,0.919 0.004,0.332 0.063,0.42 0.296,0.698 0.497,0.59 1.024,0.363 1.481,-0.02 l 3.14,-2.628 0.617,0.733 -3.444,2.884 c -1.068,0.893 -1.815,0.223 -2.214,-0.252 -0.346,-0.411 -0.594,-0.905 -0.32,-1.561 -0.556,0.175 -1.125,-0.157 -1.471,-0.568 -0.444,-0.528 -0.597,-1.056 -0.294,-1.676 L 23.882,36.427 23.317,36.9 22.662,36.122 c 0.337,-0.236 0.666,-0.481 0.98,-0.744 l 3.587,-3.003 0.618,0.733 -3.05,2.553 c -0.17,0.143 -0.409,0.404 -0.521,0.726 -0.08,0.25 0.042,0.667 0.23,0.891 0.497,0.59 1.023,0.363 1.481,-0.02 l 3.139,-2.628 0.617,0.733 z"
           style="fill:#1c63b7;fill-opacity:1;fill-rule:nonzero;stroke:none"
           id="path216" />
      </g>
      <g
         id="g218"
         transform="translate(9.855967,535.25392)">
        <path
           d="m 0,0 c 0.033,-0.252 -0.744,-5.455 -3.84,-11.165 -2.784,-5.136 -8.098,-11.785 -17.6,-14.3 -17.816,-4.714 -22.438,-12.939 -22.483,-13.022 l -0.391,-0.723 -0.392,0.723 c -0.046,0.083 -4.717,8.359 -22.483,13.022 -9.545,2.506 -14.857,9.213 -17.633,14.399 -3.014,5.63 -3.8,10.734 -3.772,10.949 l 0.018,0.143 0.1,0.106 c 8.586,9.151 12.624,18.229 12.001,26.983 -0.791,11.123 -9.004,17.814 -9.087,17.881 l -0.261,0.207 4.876,12.053 0.449,-0.277 c 0.054,-0.033 5.563,-3.372 13.384,-3.372 8.11,0 15.675,3.452 22.484,10.261 l 0.315,0.315 0.315,-0.315 c 6.81,-6.809 14.375,-10.261 22.484,-10.261 7.837,0 13.33,3.338 13.385,3.372 l 0.449,0.278 4.875,-12.053 -0.26,-0.208 C -3.15,44.929 -11.37,38.218 -12.156,27.103 -12.77,18.397 -8.777,9.371 -0.285,0.273 L 0,0 Z m -87.68,-0.324 c 0.323,-2.006 3.707,-19.811 20.718,-24.276 15.552,-4.082 21.216,-10.769 22.648,-12.841 1.435,2.066 7.1,8.727 22.646,12.841 17.007,4.5 20.439,22.455 20.726,24.269 -8.67,9.292 -12.74,18.545 -12.102,27.51 0.738,10.374 7.73,17.033 9.165,18.297 l -4.24,10.482 c -1.5,-0.818 -6.526,-3.245 -13.397,-3.245 -8.229,0 -15.897,3.435 -22.799,10.211 -6.901,-6.776 -14.57,-10.211 -22.799,-10.211 -6.869,0 -11.897,2.427 -13.397,3.245 l -4.24,-10.482 c 1.436,-1.264 8.427,-7.923 9.166,-18.297 0.637,-8.963 -3.432,-18.216 -12.095,-27.503"
           style="fill:#ffffff;fill-opacity:1;fill-rule:nonzero;stroke:none"
           id="path220" />
      </g>
      <g
         id="g222"
         transform="translate(9.855967,535.25392)">
        <path
           d="m 0,0 c 0.033,-0.252 -0.744,-5.455 -3.84,-11.165 -2.784,-5.136 -8.098,-11.785 -17.6,-14.3 -17.816,-4.714 -22.438,-12.939 -22.483,-13.022 l -0.391,-0.723 -0.392,0.723 c -0.046,0.083 -4.717,8.359 -22.483,13.022 -9.545,2.506 -14.857,9.213 -17.633,14.399 -3.014,5.63 -3.8,10.734 -3.772,10.949 l 0.018,0.143 0.1,0.106 c 8.586,9.151 12.624,18.229 12.001,26.983 -0.791,11.123 -9.004,17.814 -9.087,17.881 l -0.261,0.207 4.876,12.053 0.449,-0.277 c 0.054,-0.033 5.563,-3.372 13.384,-3.372 8.11,0 15.675,3.452 22.484,10.261 l 0.315,0.315 0.315,-0.315 c 6.81,-6.809 14.375,-10.261 22.484,-10.261 7.837,0 13.33,3.338 13.385,3.372 l 0.449,0.278 4.875,-12.053 -0.26,-0.208 C -3.15,44.929 -11.37,38.218 -12.156,27.103 -12.77,18.397 -8.777,9.371 -0.285,0.273 L 0,0 Z m -87.68,-0.324 c 0.323,-2.006 3.707,-19.811 20.718,-24.276 15.552,-4.082 21.216,-10.769 22.648,-12.841 1.435,2.066 7.1,8.727 22.646,12.841 17.007,4.5 20.439,22.455 20.726,24.269 -8.67,9.292 -12.74,18.545 -12.102,27.51 0.738,10.374 7.73,17.033 9.165,18.297 l -4.24,10.482 c -1.5,-0.818 -6.526,-3.245 -13.397,-3.245 -8.229,0 -15.897,3.435 -22.799,10.211 -6.901,-6.776 -14.57,-10.211 -22.799,-10.211 -6.869,0 -11.897,2.427 -13.397,3.245 l -4.24,-10.482 c 1.436,-1.264 8.427,-7.923 9.166,-18.297 0.637,-8.963 -3.432,-18.216 -12.095,-27.503 z"
           style="fill:none;stroke:#ffffff;stroke-width:0.484;stroke-linecap:butt;stroke-linejoin:miter;stroke-miterlimit:10;stroke-dasharray:none;stroke-opacity:1"
           id="path224" />
      </g>
    </g>
  </g>
</svg>
