<?xml version="1.0" encoding="UTF-8" standalone="no"?>
<!-- Generator: Adobe Illustrator 15.0.2, SVG Export Plug-In . SVG Version: 6.00 Build 0)  -->

<svg
   xmlns:dc="http://purl.org/dc/elements/1.1/"
   xmlns:cc="http://creativecommons.org/ns#"
   xmlns:rdf="http://www.w3.org/1999/02/22-rdf-syntax-ns#"
   xmlns:svg="http://www.w3.org/2000/svg"
   xmlns="http://www.w3.org/2000/svg"
   xmlns:sodipodi="http://sodipodi.sourceforge.net/DTD/sodipodi-0.dtd"
   xmlns:inkscape="http://www.inkscape.org/namespaces/inkscape"
   version="1.2"
   id="Capa_1"
   x="0px"
   y="0px"
   width="159"
   height="181.5"
   viewBox="0 0 159 574.992"
   xml:space="preserve"
   inkscape:version="0.48.4 r9939"
   sodipodi:docname="cd_numancia_de_soria.svg"><metadata
   id="metadata237"><rdf:RDF><cc:Work
       rdf:about=""><dc:format>image/svg+xml</dc:format><dc:type
         rdf:resource="http://purl.org/dc/dcmitype/StillImage" /></cc:Work></rdf:RDF></metadata><defs
   id="defs235" /><sodipodi:namedview
   pagecolor="#ffffff"
   bordercolor="#666666"
   borderopacity="1"
   objecttolerance="10"
   gridtolerance="10"
   guidetolerance="10"
   inkscape:pageopacity="0"
   inkscape:pageshadow="2"
   inkscape:window-width="1920"
   inkscape:window-height="1018"
   id="namedview233"
   showgrid="false"
   fit-margin-top="0"
   fit-margin-left="0"
   fit-margin-right="0"
   fit-margin-bottom="0"
   inkscape:zoom="4.4132231"
   inkscape:cx="79.5"
   inkscape:cy="90.75"
   inkscape:window-x="-8"
   inkscape:window-y="-8"
   inkscape:window-maximized="1"
   inkscape:current-layer="Capa_1" />
<path
   d="m -169.4571,4.3555499 h 498.24 V 198.39555 c -1.224,61.704 -15.912,122.184 -44.208,177.048 -28.872,56.016 -70.776,104.184 -120.528,142.632 -26.208,20.304 -54.648,37.44 -83.952002,52.92 l -0.432,0.288 -0.432,-0.288 c -29.304,-15.48 -57.744,-32.616 -83.9519997,-52.92 -49.7520003,-38.448 -91.6560003,-86.616 -120.5279983,-142.632 -28.296,-54.864 -42.984,-115.344 -44.208,-177.048 V 4.3555499 z"
   id="path3"
   inkscape:connector-curvature="0" />
<path
   d="m -150.4491,23.36355 v 174.672 c 1.224,61.128 15.84,117.864 42.048,168.768 26.927998,52.128 65.951998,98.136 115.2719983,136.296 22.8239997,17.64 47.3759997,33.048 72.7919997,46.728 25.416002,-13.68 49.968002,-29.088 72.792002,-46.728 49.32,-38.16 88.344,-84.168 115.272,-136.296 26.208,-50.904 40.824,-107.64 42.048,-168.768 v -174.672 h -460.224 l 0,0 z m -17.928,-17.9280001 h 496.08 V 198.39555 c -1.224,63.864 -16.56,123.264 -44.064,176.616 -28.08,54.432 -68.832,102.528 -120.24,142.272 -26.208,20.232 -54.432,37.296 -83.736002,52.776 -29.304,-15.48 -57.528,-32.544 -83.7359997,-52.776 -51.4080003,-39.744 -92.1600003,-87.84 -120.2399983,-142.272 -27.504,-53.352 -42.84,-112.752 -44.064,-176.616 V 5.4355499 z"
   id="path5"
   inkscape:connector-curvature="0"
   style="fill:#126ccd" />
<path
   d="m -149.4411,24.44355 v 173.592 c 1.152,58.608 15.12,116.064 41.976,168.264 27.503998,53.424 67.535998,99.288 114.9839983,135.936 22.6079997,17.568 47.0159997,32.832 72.1439997,46.368 25.200002,-13.536 49.536002,-28.8 72.144002,-46.368 47.448,-36.648 87.48,-82.512 114.984,-135.936 26.856,-52.2 40.824,-109.656 41.976,-168.264 v -173.592 h -458.208 z"
   id="path7"
   inkscape:connector-curvature="0"
   style="fill:#ffffff" />
<path
   d="M -81.473102,92.41155 H 240.7989 v 104.256 c -0.504,25.128 -3.672,49.176 -9.36,72.144 -5.76,23.328 -14.184,45.576 -24.912,66.456 -14.04,27.144 -31.824,51.768 -52.56,73.8 -22.032,23.472 -47.232,43.848 -74.304002,61.128 -27.072,-17.208 -52.344,-37.656 -74.3039997,-61.128 -20.7360003,-22.032 -38.5200003,-46.656 -52.5600003,-73.8 -10.728,-20.88 -19.152,-43.128 -24.912,-66.456 -5.688,-22.968 -8.856,-47.016 -9.36,-72.144 v -104.256 z"
   id="path9"
   inkscape:connector-curvature="0" />
<path
   d="m 192.7749,449.31555 -32.976,-30.744 13.608,-14.616 c 4.68,-4.968 9.864,-6.84 15.696,-5.76 4.248,0.864 8.424,3.168 12.528,6.984 4.464,4.176 7.344,8.568 8.712,13.248 1.728,6.192 0.36,11.736 -4.176,16.56 l -13.392,14.328 0,0 z m -20.952,-32.256 21.6,20.16 6.264,-6.696 c 2.448,-2.592 3.096,-5.616 1.944,-9.072 -0.936,-2.88 -2.952,-5.832 -6.12,-8.712 -4.248,-3.96 -8.064,-5.832 -11.376,-5.616 -2.16,0.144 -4.176,1.296 -6.12,3.384 l -6.192,6.552 z"
   id="path11"
   inkscape:connector-curvature="0"
   style="fill:#126ccd" />
<polygon
   points="427.4,488.472 435.32,493.8 447.56,475.584 454.184,479.976 441.872,498.192 451.52,504.744 465.488,484.008 472.184,488.544 453.032,516.912 415.592,491.712 434.168,464.208 440.72,468.672 "
   id="polygon13"
   style="fill:#126ccd"
   transform="translate(-225.9131,-107.26845)" />
<path
   d="m 256.9989,327.99555 3.096,-8.496 c 1.728,0.648 3.312,0.648 4.824,0 2.232,-0.864 4.032,-3.024 5.256,-6.48 0.936,-2.592 1.296,-4.68 1.152,-6.336 -0.216,-2.232 -1.296,-3.744 -3.384,-4.464 -1.44,-0.576 -2.88,-0.288 -4.248,0.864 -0.936,0.72 -2.232,2.376 -3.816,4.824 l -2.736,4.248 c -2.664,4.176 -4.896,6.84 -6.624,8.064 -2.952,2.088 -6.552,2.376 -10.656,0.864 -3.312,-1.152 -5.688,-3.168 -7.272,-6.048 -2.16,-3.96 -2.16,-8.928 0.072,-14.976 2.088,-5.832 5.328,-9.576 9.648,-11.376 3.384,-1.296 6.696,-1.368 10.08,-0.216 l -3.096,8.496 c -1.8,-0.36 -3.24,-0.36 -4.464,0.072 -2.16,0.864 -3.888,2.88 -5.04,6.264 -0.792,2.016 -1.008,3.816 -0.72,5.4 0.288,1.944 1.296,3.24 3.024,3.888 1.512,0.504 2.808,0.432 3.888,-0.36 0.648,-0.432 1.44,-1.296 2.232,-2.52 l 6.264,-9.504 c 2.16,-3.168 4.248,-5.328 6.192,-6.48 2.736,-1.584 5.832,-1.728 9.288,-0.432 4.32,1.584 7.128,4.176 8.496,7.92 1.44,4.104 1.224,8.712 -0.648,13.896 -2.448,6.84 -5.976,11.16 -10.512,12.96 -3.24,1.296 -6.696,1.296 -10.296,-0.072 z"
   id="path15"
   inkscape:connector-curvature="0"
   style="fill:#126ccd" />
<path
   d="m 265.0629,275.50755 c -6.336,-1.224 -11.088,-3.6 -14.4,-7.128 -2.664,-2.736 -4.248,-6.192 -4.896,-10.224 -0.432,-2.88 -0.432,-5.76 0.144,-8.496 0.504,-2.808 1.512,-5.4 2.952,-7.776 2.16,-3.528 4.896,-6.048 8.352,-7.632 4.392,-2.088 9.792,-2.448 16.128,-1.224 6.264,1.224 11.088,3.6 14.472,7.128 2.592,2.808 4.248,6.192 4.896,10.224 0.504,2.88 0.432,5.688 -0.072,8.352 -0.576,2.88 -1.584,5.472 -3.024,7.92 -2.16,3.456 -4.896,6.048 -8.352,7.632 -4.464,2.088 -9.864,2.52 -16.2,1.224 l 0,0 z m 1.8,-9.216 c 5.544,1.08 10.008,0.504 13.248,-1.728 2.448,-1.656 4.032,-4.104 4.608,-7.344 0.648,-3.096 0.072,-5.904 -1.584,-8.424 -2.16,-3.312 -6.048,-5.472 -11.592,-6.552 -5.544,-1.08 -9.936,-0.504 -13.176,1.728 -2.448,1.728 -3.96,4.104 -4.608,7.272 -0.576,3.096 -0.072,5.904 1.584,8.424 2.16,3.384 5.976,5.544 11.52,6.624 z"
   id="path17"
   inkscape:connector-curvature="0"
   style="fill:#126ccd" />
<path
   d="m 295.9509,216.53955 -45.072,-1.584 0.864,-22.824 c 0.144,-5.256 1.872,-9 5.184,-11.376 2.376,-1.656 5.04,-2.448 7.92,-2.376 2.592,0.072 4.824,0.792 6.696,2.088 1.944,1.296 3.24,3.096 3.888,5.328 1.008,-2.088 2.088,-3.456 3.312,-4.176 1.656,-0.936 4.392,-1.296 8.28,-1.224 3.168,0.144 5.256,0.144 6.48,0.072 1.224,0 2.088,-0.648 2.52,-1.728 h 1.296 l -0.36,10.44 c -1.224,0.288 -2.448,0.504 -3.744,0.648 -1.296,0.144 -3.168,0.144 -5.472,0.072 -3.384,-0.144 -5.616,0.144 -6.624,0.792 -1.368,0.864 -2.088,3.024 -2.16,6.264 l -0.36,9.72 17.712,0.576 -0.36,9.288 0,0 z m -24.912,-10.152 0.432,-11.016 c 0.072,-2.52 -0.36,-4.392 -1.296,-5.616 -0.864,-1.224 -2.448,-1.8 -4.608,-1.944 -1.584,0 -2.88,0.36 -3.888,1.152 -1.44,1.08 -2.16,2.88 -2.232,5.328 l -0.432,11.664 12.024,0.432 z"
   id="path19"
   inkscape:connector-curvature="0"
   style="fill:#126ccd" />
<polygon
   points="522.944,267.648 477.8,266.856 478.016,257.424 523.088,258.216 "
   id="polygon21"
   style="fill:#126ccd"
   transform="translate(-225.9131,-107.26845)" />
<path
   d="m 287.5269,120.85155 9.288,3.312 -0.216,9.936 -44.784,-16.92 0.216,-11.016 45.36,-14.904 -0.216,10.152 -9.36,2.736 -0.288,16.704 0,0 z m -7.704,-2.664 0.216,-11.52 -17.928,5.328 17.712,6.192 z"
   id="path23"
   inkscape:connector-curvature="0"
   style="fill:#126ccd" />
<path
   d="m 46.182898,51.08355 h -10.08 c -0.648,-2.088 -1.512,-3.672 -2.448,-4.752 -1.872,-1.872 -4.536,-2.88 -8.136,-2.88 -3.168,0 -5.76,1.008 -7.776,3.024 -2.808,2.664 -4.176,6.84 -4.176,12.456 0,4.32 0.936,7.776 2.736,10.44 2.16,3.024 5.184,4.536 9.216,4.536 2.736,0 5.112,-0.648 6.912,-2.088 1.872,-1.44 3.096,-3.456 3.672,-6.12 h 10.08 c -1.08,4.968 -3.312,8.928 -6.624,11.736 -3.672,3.096 -8.424,4.608 -14.328,4.608 -6.552,0 -11.808,-1.944 -15.7679997,-5.904 -4.104,-4.104 -6.192,-9.936 -6.192,-17.28 0,-7.488 2.16,-13.32 6.408,-17.496 4.0319997,-3.888 9.2879997,-5.832 15.6959997,-5.832 6.624,0 11.88,1.728 15.84,5.328 3.312,3.024 4.968,6.408 4.968,10.224 z"
   id="path25"
   inkscape:connector-curvature="0"
   style="fill:#126ccd" />
<rect
   x="62.022892"
   y="71.81955"
   width="10.08"
   height="9"
   id="rect27"
   style="fill:#126ccd" />
<path
   d="m 89.382898,80.81955 v -44.064 H 110.6949 c 7.272,0 12.528,2.448 15.912,7.344 2.448,3.6 3.672,8.136 3.672,13.608 0,5.976 -1.368,10.944 -4.032,15.048 -3.528,5.4 -8.856,8.064 -15.984,8.064 H 89.382898 l 0,0 z m 9.936,-36.504 v 28.872 h 9.792002 c 3.744,0 6.624,-1.512 8.496,-4.68 1.584,-2.592 2.304,-5.976 2.304,-10.152 0,-5.688 -1.296,-9.648 -3.888,-11.88 -1.656,-1.44 -4.032,-2.16 -7.056,-2.16 h -9.648002 z"
   id="path29"
   inkscape:connector-curvature="0"
   style="fill:#126ccd" />
<rect
   x="146.04688"
   y="71.81955"
   width="10.008"
   height="9"
   id="rect31"
   style="fill:#126ccd" />
<polygon
   points="132.848,208.032 101.456,224.808 132.848,224.952 132.848,233.232 87.704,233.232 87.704,224.376 119.888,207.024 87.704,206.952 87.704,198.672 132.848,198.672 "
   id="polygon33"
   style="fill:#126ccd"
   transform="translate(-225.9131,-107.26845)" />
<path
   d="M -92.633102,175.78755 H -121.9371 c -5.832,0 -10.152,-1.584 -12.96,-4.68 -2.736,-2.952 -4.104,-7.2 -4.104,-12.816 0,-2.448 0.36,-4.68 1.08,-6.768 0.936,-2.808 2.448,-5.04 4.464,-6.768 2.736,-2.16 6.336,-3.312 10.944,-3.312 h 29.879998 v 9.144 H -121.9371 c -2.952,0 -5.184,0.72 -6.696,2.088 -1.584,1.44 -2.304,3.24 -2.304,5.472 0,2.952 0.72,5.112 2.16,6.48 1.512,1.368 3.672,2.016 6.48,2.016 h 29.663998 v 9.144 z"
   id="path35"
   inkscape:connector-curvature="0"
   style="fill:#126ccd" />
<polygon
   points="134,323.376 134.936,336.192 89.936,339.216 89.36,330.936 126.944,328.416 88.712,322.872 88.064,314.16 125.144,304.008 87.488,306.384 86.912,298.104 131.912,295.152 132.848,307.968 98,317.976 "
   id="polygon37"
   style="fill:#126ccd"
   transform="translate(-225.9131,-107.26845)" />
<path
   d="m -123.2331,254.62755 -9.72,-1.224 -1.872,-9.144 47.303998,6.768 2.088,10.224 -41.255998,22.608 -1.944,-9.432 8.568,-4.32 -3.168,-15.48 0,0 z m 8.136,0.936 2.232,10.728 16.415998,-8.496 -18.647998,-2.232 z"
   id="path39"
   inkscape:connector-curvature="0"
   style="fill:#126ccd" />
<polygon
   points="147.968,398.4 123.632,423.528 153.512,414.456 156.248,422.376 113.336,435.48 110.456,427.056 135.368,401.208 104.696,410.496 102.032,402.576 144.872,389.544 "
   id="polygon41"
   style="fill:#126ccd"
   transform="translate(-225.9131,-107.26845)" />
<path
   d="m -62.321102,363.20355 -4.176,-7.992 c 1.728,-1.44 2.808,-2.736 3.384,-3.96 1.008,-2.304 0.792,-4.824 -0.72,-7.704 -1.296,-2.448 -3.24,-4.104 -5.976,-4.896 -3.528,-1.08 -7.92,-0.36 -13.176,2.016 -3.888,1.8 -6.768,3.96 -8.424,6.552 -1.944,2.952 -2.088,6.048 -0.432,9.216 1.152,2.232 2.736,3.744 4.824,4.608 2.016,0.864 4.392,1.008 7.128,0.36 l 4.104,7.92 c -5.04,1.296 -9.504,1.224 -13.536,-0.288 -4.32,-1.584 -7.632,-4.752 -10.079997,-9.36 -2.664001,-5.256 -3.024001,-10.224 -1.008001,-14.976 2.087998,-5.112 6.551998,-9.144 13.319998,-12.312 6.84,-3.168 13.104,-3.888 18.72,-2.232 5.256,1.512 9.216,4.824 11.808,9.936 2.736,5.256 3.24,10.224 1.584,14.832 -1.44,3.888 -3.888,6.624 -7.344,8.28 z"
   id="path43"
   inkscape:connector-curvature="0"
   style="fill:#126ccd" />
<polygon
   points="143.864,495.384 182.096,472.92 187.064,480.408 148.832,502.944 "
   id="polygon45"
   style="fill:#126ccd"
   transform="translate(-225.9131,-107.26845)" />
<path
   d="m -55.841102,409.71555 -9.288,2.88 -5.976,-7.416 45.72,-13.464 6.624,8.28 -26.568,37.368 -6.12,-7.632 5.688,-7.416 -10.08,-12.6 0,0 z m 7.704,-2.52 6.984,8.712 10.872,-14.4 -17.856,5.688 z"
   id="path47"
   inkscape:connector-curvature="0"
   style="fill:#126ccd" />
<path
   d="m 123.1509,436.93155 c 10.584,-9 20.592,-18.504 30.096,-28.584 11.736,-12.528 22.608,-25.848 32.328,-40.104 v -20.448 c -3.888,-6.696 -8.856,-11.664 -14.4,-14.832 -5.112,-2.88 -10.656,-4.32 -16.272,-4.248 -5.544,0 -11.16,1.512 -16.344,4.464 -5.904,3.384 -11.304,8.712 -15.408,15.84 v 21.6 h 8.136 v 14.76 h -8.136 v 51.552 z"
   id="path49"
   inkscape:connector-curvature="0"
   style="fill:#126ccd" />
<path
   d="m 48.486898,446.93955 c 10.008,7.776 20.448,15.12 31.176,22.032 10.728,-6.912 21.167992,-14.256 31.176002,-22.032 v -61.56 h -8.136 v -14.76 h 8.136 v -21.6 c -3.96,-6.912 -9.144,-12.024 -14.904002,-15.336 -5.112,-2.88 -10.728,-4.968 -16.272,-4.968 -5.544,0 -11.16,2.088 -16.272,4.968 -5.76,3.312 -10.944,8.424 -14.904,15.336 v 21.6 h 8.136 v 14.76 h -8.136 v 61.56 z"
   id="path51"
   inkscape:connector-curvature="0"
   style="fill:#126ccd" />
<path
   d="m 13.638898,318.49155 c 4.392,1.008 9.72,2.736 13.824,5.112 5.4,3.096 10.44,7.344 14.904,12.672 4.248,-5.112 9.072,-9.216 14.256,-12.168 4.608,-2.664 9.432,-4.608 14.4,-5.616 h -57.384 z"
   id="path53"
   inkscape:connector-curvature="0"
   style="fill:#ca8b00" />
<path
   d="m -47.993102,331.30755 c 0.576,1.152 1.152,2.304 1.728,3.456 1.44,2.808 2.952,5.616 4.464,8.352 h 3.528 c 2.664,-4.536 5.688,-8.496 9,-11.808 h -18.72 z"
   id="path55"
   inkscape:connector-curvature="0"
   style="fill:#ca8b00" />
<path
   d="m -41.225102,344.19555 c 0.864,1.584 1.8,3.096 2.664,4.68 v -4.68 h -2.664 z"
   id="path57"
   inkscape:connector-curvature="0"
   style="fill:#ca8b00" />
<path
   d="m 201.1269,343.11555 c 1.512,-2.736 3.024,-5.544 4.464,-8.352 0.576,-1.152 1.152,-2.304 1.728,-3.456 h -18.72 c 3.312,3.312 6.336,7.272 9,11.808 h 3.528 z"
   id="path59"
   inkscape:connector-curvature="0"
   style="fill:#ca8b00" />
<path
   d="m 197.8869,348.87555 c 0.864,-1.584 1.8,-3.096 2.664,-4.68 h -2.664 v 4.68 z"
   id="path61"
   inkscape:connector-curvature="0"
   style="fill:#ca8b00" />
<path
   d="m -37.481102,350.67555 c 3.24,5.472 6.624,10.8 10.224,16.056 v -19.152 c 3.024,-6.12 9,-12.168 14.904,-15.552 5.2560003,-2.952 11.0160003,-4.464 16.7760003,-4.392 5.7599997,0.072 11.5199997,1.584 16.8479997,4.68 6.336,3.6 12.672,10.008 15.984,16.488 v 21.816 h 10.152 v -21.816 c 3.024,-6.048 9.648,-12.6 15.48,-15.984 5.328,-3.024 11.088,-5.184 16.776,-5.184 5.688,0 11.448,2.16 16.776,5.184 5.832002,3.384 12.456002,9.936 15.480002,15.984 v 21.816 h 10.152 v -21.816 c 3.312,-6.48 9.648,-12.888 15.984,-16.488 5.328,-3.096 11.088,-4.608 16.848,-4.68 5.76,-0.072 11.52,1.44 16.776,4.392 5.904,3.384 11.88,9.432 14.904,15.552 v 19.152 c 3.6,-5.256 6.984,-10.584 10.224,-16.056 v -6.84 c -3.672,-6.264 -8.064,-11.448 -12.888,-15.408 -7.632,-6.12 -16.416,-9 -25.272,-9.576 -8.928,-0.648 -18.072,0.936 -26.28,5.688 -6.048,3.456 -11.016,7.992 -15.408,13.392 -4.176,-5.184 -9,-9.576 -14.76,-12.96 -7.128002,-4.032 -14.832002,-6.408 -22.536002,-6.408 -7.704,0 -15.408,2.376 -22.536,6.408 -5.76,3.384 -10.584,7.776 -14.76,12.96 -4.392,-5.4 -9.36,-9.936 -15.408,-13.392 -8.208,-4.752 -17.3519997,-6.336 -26.2799999,-5.688 -8.8559998,0.576 -17.6400001,3.456 -25.2720001,9.576 -4.824,3.96 -9.216,9.144 -12.888,15.408 v 6.84 z"
   id="path63"
   inkscape:connector-curvature="0"
   style="fill:#ca8b00" />
<path
   d="m 213.3669,318.49155 c -1.728,3.96 -3.6,7.92 -5.472,11.808 h -10.584 v -11.808 h 16.056 z"
   id="path65"
   inkscape:connector-curvature="0"
   style="fill:#ca8b00" />
<path
   d="m -36.977102,330.29955 h 8.784 c 0.936,-0.936 1.944,-1.8 2.952,-2.664 3.024,-2.448 6.48,-4.464 10.008,-6.12 3.024,-1.368 7.2720003,-2.448 10.2960003,-3.024 H -36.977102 v 11.808 z"
   id="path67"
   inkscape:connector-curvature="0"
   style="fill:#ca8b00" />
<path
   d="m -54.041102,318.49155 c 1.728,3.96 3.6,7.92 5.472,11.808 h 10.584 v -11.808 h -16.056 z"
   id="path69"
   inkscape:connector-curvature="0"
   style="fill:#ca8b00" />
<rect
   x="29.118898"
   y="371.62756"
   width="26.424"
   height="12.744"
   id="rect71"
   style="fill:#ca8b00" />
<rect
   x="103.78291"
   y="371.62756"
   width="26.424"
   height="12.744"
   id="rect73"
   style="fill:#ca8b00" />
<path
   d="m 111.9189,446.07555 c 3.384,-2.664 6.84,-5.472 10.152,-8.28 v -52.416 h -10.152 v 60.696 z"
   id="path75"
   inkscape:connector-curvature="0"
   style="fill:#ca8b00" />
<path
   d="m 37.254898,437.79555 c 3.312,2.808 6.768,5.616 10.152,8.28 v -60.696 h -10.152 v 52.416 z"
   id="path77"
   inkscape:connector-curvature="0"
   style="fill:#ca8b00" />
<path
   d="m -26.249102,368.24355 c 9.72,14.256 20.5920003,27.576 32.3280003,40.104 9.5039997,10.08 19.5119997,19.584 30.0959997,28.584 v -51.552 h -8.136 v -14.76 h 8.136 v -21.6 c -4.104,-7.128 -9.504,-12.456 -15.408,-15.84 -5.184,-2.952 -10.7999997,-4.464 -16.3439997,-4.464 -5.616,-0.072 -11.16,1.368 -16.2720003,4.248 -5.544,3.168 -10.512,8.136 -14.4,14.832 v 20.448 z"
   id="path79"
   inkscape:connector-curvature="0"
   style="fill:#126ccd" />
<polygon
   points="340.064,264.12 340.064,273.264 353.312,273.264 353.312,264.12 360.584,264.12 360.584,280.176 250.568,280.176 250.568,264.12 257.84,264.12 257.84,273.264 271.088,273.264 271.088,264.12 278.432,264.12 278.432,273.264 291.68,273.264 291.68,264.12 299.024,264.12 299.024,273.264 312.128,273.264 312.128,264.12 319.472,264.12 319.472,273.264 332.72,273.264 332.72,264.12 "
   id="polygon81"
   style="fill:#ca8b00"
   transform="translate(-225.9131,-107.26845)" />
<path
   d="m 65.262898,291.70755 h 28.8 v -37.656 c 0,-4.752 -2.232,-9.288 -5.832,-12.312 -5.472,-4.536 -11.664,-4.536 -17.136,0 -3.6,3.024 -5.832,7.56 -5.832,12.312 v 37.656 z"
   id="path83"
   inkscape:connector-curvature="0"
   style="fill:#ca8b00" />
<rect
   x="7.3028879"
   y="282.92355"
   width="8.0640001"
   height="8.7840004"
   id="rect85"
   style="fill:#ca8b00" />
<rect
   x="16.446899"
   y="282.92355"
   width="25.559999"
   height="8.7840004"
   id="rect87"
   style="fill:#ca8b00" />
<rect
   x="43.086887"
   y="282.92355"
   width="21.167999"
   height="8.7840004"
   id="rect89"
   style="fill:#ca8b00" />
<rect
   x="57.198887"
   y="271.25958"
   width="7.0560002"
   height="10.656"
   id="rect91"
   style="fill:#ca8b00" />
<polygon
   points="256.472,389.184 282.032,389.184 282.032,378.528 266.264,378.528 266.264,378.528 265.256,378.528 265.256,378.528 256.472,378.528 "
   id="polygon93"
   style="fill:#ca8b00"
   transform="translate(-225.9131,-107.26845)" />
<path
   d="m 29.478898,271.25955 h -15.552 c -2.16,2.664 -4.3919997,5.256 -6.6239997,7.704 v 2.952 H 29.478898 v -10.656 z"
   id="path95"
   inkscape:connector-curvature="0"
   style="fill:#ca8b00" />
<rect
   x="40.350895"
   y="259.52356"
   width="23.903999"
   height="10.656"
   id="rect97"
   style="fill:#ca8b00" />
<path
   d="m 39.342898,259.52355 h -16.632 c -1.08,1.512 -2.16,3.024 -3.168,4.464 -1.584,2.088 -3.168,4.176 -4.752,6.192 h 24.552 v -10.656 z"
   id="path99"
   inkscape:connector-curvature="0"
   style="fill:#ca8b00" />
<path
   d="m 64.254898,258.51555 v -4.464 c 0,-2.16 0.36,-4.248 1.152,-6.192 h -7.344 v 10.656 h 6.192 z"
   id="path101"
   inkscape:connector-curvature="0"
   style="fill:#ca8b00" />
<rect
   x="31.422884"
   y="247.85956"
   width="25.559999"
   height="10.656"
   id="rect103"
   style="fill:#ca8b00" />
<path
   d="m 30.342898,247.85955 h -0.072 c -2.16,3.6 -4.464,7.128 -6.84,10.656 h 6.912 v -10.656 z"
   id="path105"
   inkscape:connector-curvature="0"
   style="fill:#ca8b00" />
<path
   d="m 93.918898,247.85955 c 0.792,1.944 1.152,4.032 1.152,6.192 l 0,0 v 4.464 h 6.192002 v -10.656 h -7.344002 z"
   id="path107"
   inkscape:connector-curvature="0"
   style="fill:#ca8b00" />
<rect
   x="102.3429"
   y="247.85956"
   width="25.559999"
   height="10.656"
   id="rect109"
   style="fill:#ca8b00" />
<path
   d="m 128.9829,258.51555 h 6.912 c -2.376,-3.528 -4.68,-7.056 -6.84,-10.656 h -0.072 v 10.656 z"
   id="path111"
   inkscape:connector-curvature="0"
   style="fill:#ca8b00" />
<rect
   x="95.070892"
   y="259.52356"
   width="23.903999"
   height="10.656"
   id="rect113"
   style="fill:#ca8b00" />
<path
   d="m 119.9829,270.17955 h 24.552 c -1.584,-2.016 -3.168,-4.104 -4.752,-6.192 -1.008,-1.44 -2.088,-2.952 -3.168,-4.464 h -16.632 v 10.656 z"
   id="path115"
   inkscape:connector-curvature="0"
   style="fill:#ca8b00" />
<rect
   x="95.070892"
   y="271.25958"
   width="7.0560002"
   height="10.656"
   id="rect117"
   style="fill:#ca8b00" />
<polygon
   points="344.888,378.528 329.12,378.528 329.12,389.184 354.68,389.184 354.68,378.528 345.896,378.528 345.896,378.528 344.888,378.528 "
   id="polygon119"
   style="fill:#ca8b00"
   transform="translate(-225.9131,-107.26845)" />
<path
   d="m 129.8469,281.91555 h 22.176 v -2.952 c -2.232,-2.448 -4.464,-5.04 -6.624,-7.704 h -15.552 v 10.656 z"
   id="path121"
   inkscape:connector-curvature="0"
   style="fill:#ca8b00" />
<rect
   x="95.070892"
   y="282.92355"
   width="21.167999"
   height="8.7840004"
   id="rect123"
   style="fill:#ca8b00" />
<rect
   x="117.24688"
   y="282.92355"
   width="25.632"
   height="8.7840004"
   id="rect125"
   style="fill:#ca8b00" />
<rect
   x="143.95889"
   y="282.92355"
   width="8.0640001"
   height="8.7840004"
   id="rect127"
   style="fill:#ca8b00" />
<path
   d="m 70.446898,130.06755 c 0.216,4.032 0.504,8.352 1.728,11.808 3.096,8.928 11.88,8.928 14.976,0 1.224,-3.456 1.512,-7.776 1.728,-11.808 h -18.432 z"
   id="path129"
   inkscape:connector-curvature="0"
   style="fill:#ca8b00" />
<path
   d="m 61.806898,164.91555 h 2.88 v -9.072 h 9.432 v 9.072 h 11.088 v -9.072 h 9.432 v 9.072 h 2.88 c 0.144,-0.648 0.216,-1.296 0.216,-2.016 0,-3.528 -2.016,-6.84 -5.256,-9.216 -0.504,-0.36 -1.08,-0.72 -1.656,-1.008 -0.864,1.728 -2.664,2.52 -4.536,2.88 -4.536,0.792 -8.784,0.792 -13.248,0 -1.872,-0.36 -3.672,-1.152 -4.536,-2.88 -0.576,0.288 -1.152,0.648 -1.656,1.008 -3.24,2.376 -5.256,5.688 -5.256,9.216 0,0.72 0.072,1.368 0.216,2.016 z"
   id="path131"
   inkscape:connector-curvature="0"
   style="fill:#ca8b00" />
<path
   d="m 69.438898,152.17155 c 0.72,1.44 2.232,2.088 3.744,2.376 4.392,0.792 8.568,0.792 12.96,0 1.512,-0.288 3.024,-0.936 3.744,-2.376 -6.192,-3.24 -14.256,-3.168 -20.448,0 z"
   id="path133"
   inkscape:connector-curvature="0"
   style="fill:#ca8b00" />
<path
   d="m 89.958898,130.06755 c -0.216,4.104 -0.504,8.568 -1.8,12.168 -0.288,0.72 -0.576,1.44 -0.936,2.088 0.864,-1.152 2.232,-1.872 3.672,-1.944 v -12.312 h -0.936 z"
   id="path135"
   inkscape:connector-curvature="0"
   style="fill:#ca8b00" />
<path
   d="m 68.430898,130.06755 v 12.312 c 1.44,0.072 2.808,0.792 3.672,1.944 -0.36,-0.648 -0.648,-1.368 -0.936,-2.088 -1.296,-3.6 -1.584,-8.064 -1.8,-12.168 h -0.936 z"
   id="path137"
   inkscape:connector-curvature="0"
   style="fill:#ca8b00" />
<polygon
   points="317.168,236.256 321.488,224.952 311.336,233.52 305.576,222.36 299.816,233.52 289.664,224.952 293.984,236.256 "
   id="polygon139"
   style="fill:#ca8b00"
   transform="translate(-225.9131,-107.26845)" />
<path
   d="m 72.030898,147.27555 c 0,-2.088 -1.728,-3.888 -3.888,-3.888 -2.16,0 -3.888,1.8 -3.888,3.888 0,2.16 1.728,3.96 3.888,3.96 2.088,0 3.888,-1.8 3.888,-3.96 z"
   id="path141"
   inkscape:connector-curvature="0"
   style="fill:#ca8b00" />
<path
   d="m 72.390898,149.86755 c 1.368,-0.432 2.808,-0.72 4.32,-0.936 -1.728,-0.792 -3.024,-2.016 -4.032,-3.528 0.216,0.576 0.36,1.224 0.36,1.872 0,0.936 -0.216,1.8 -0.648,2.592 z"
   id="path143"
   inkscape:connector-curvature="0"
   style="fill:#c51718" />
<path
   d="m 86.646898,145.40355 c -1.008,1.512 -2.304,2.736 -4.032,3.528 1.512,0.216 2.952,0.504 4.32,0.936 -0.432,-0.792 -0.648,-1.656 -0.648,-2.592 0,-0.648 0.072,-1.296 0.36,-1.872 z"
   id="path145"
   inkscape:connector-curvature="0"
   style="fill:#c51718" />
<path
   d="m 91.182898,151.23555 c 2.16,0 3.888,-1.8 3.888,-3.96 0,-2.088 -1.728,-3.888 -3.888,-3.888 -2.16,0 -3.888,1.8 -3.888,3.888 0,2.16 1.8,3.96 3.888,3.96 z"
   id="path147"
   inkscape:connector-curvature="0"
   style="fill:#ca8b00" />
<path
   d="m 115.7349,211.64355 v -37.656 H 43.590898 v 37.656 h 10.512 v -16.488 c 0,-9.792 15.12,-9.792 15.12,0 v 16.488 h 20.88 v -16.488 c 0,-9.792 15.120002,-9.792 15.120002,0 v 16.488 h 10.512 z"
   id="path149"
   inkscape:connector-curvature="0"
   style="fill:#ca8b00" />
<path
   d="m 79.662898,142.73955 c 0.864,0 1.728,0.144 2.376,0.36 0.792,0.288 1.296,0.72 1.296,1.296 0,0.576 -0.504,1.008 -1.296,1.368 -0.648,0.216 -1.512,0.36 -2.376,0.36 -0.864,0 -1.728,-0.144 -2.376,-0.36 -0.792,-0.36 -1.296,-0.792 -1.296,-1.368 0,-0.576 0.504,-1.008 1.296,-1.296 0.648,-0.216 1.512,-0.36 2.376,-0.36 z"
   id="path151"
   inkscape:connector-curvature="0" />
<path
   d="m 75.198898,131.93955 c 1.728,0 3.168,1.44 3.168,3.168 0,1.8 -1.44,3.24 -3.168,3.24 -1.8,0 -3.24,-1.44 -3.24,-3.24 0,-1.728 1.44,-3.168 3.24,-3.168 z"
   id="path153"
   inkscape:connector-curvature="0" />
<path
   d="m 84.126898,131.93955 c 1.8,0 3.24,1.44 3.24,3.168 0,1.8 -1.44,3.24 -3.24,3.24 -1.728,0 -3.168,-1.44 -3.168,-3.24 0,-1.728 1.44,-3.168 3.168,-3.168 z"
   id="path155"
   inkscape:connector-curvature="0" />
<path
   d="m -80.393102,93.41955 v 103.248 c 0.504,24.984 3.672,49.032 9.288,71.928 1.944,7.848 4.176,15.624 6.696,23.112 H 6.2228983 v -13.176 c 4.4639997,-4.752 8.5679997,-9.936 12.4559997,-15.192 4.032,-5.472 7.848,-11.232 11.304,-17.136 3.384,-5.544 6.192,-11.376 8.352,-17.352 2.088,-5.616 3.528,-11.376 4.248,-17.136 v -37.728 h -19.008 v -18.144 h 9.432 v 9.072 h 11.16 v -9.072 h 9.432 v 9.072 h 7.128 c -0.072,-0.648 -0.144,-1.296 -0.144,-2.016 0,-3.888 2.16,-7.488 5.688,-10.008 0.288,-0.288 0.648,-0.504 1.008,-0.72 -2.376,-0.432 -4.104,-2.448 -4.104,-4.896 0,-2.448 1.8,-4.464 4.176,-4.824 v -12.456 l -6.192,-15.768 12.456,10.368 6.048,-11.736 6.048,11.736 12.456,-10.368 -6.192,15.768 v 12.456 c 2.376,0.36 4.176,2.376 4.176,4.824 0,2.448 -1.8,4.464 -4.104,4.896 0.36,0.216 0.72,0.432 1.008,0.72 3.528,2.52 5.688,6.12 5.688,10.008 0,0.72 -0.072,1.368 -0.144,2.016 h 7.128002 v -9.072 h 9.432 v 9.072 h 11.16 v -9.072 h 9.432 v 18.144 h -19.008 v 37.728 c 0.72,5.76 2.16,11.52 4.248,17.136 2.16,5.976 4.968,11.808 8.352,17.352 3.456,5.904 7.272,11.664 11.304,17.136 3.888,5.256 7.992,10.44 12.456,15.192 v 13.176 h 70.632 c 2.52,-7.488 4.752,-15.264 6.696,-23.112 5.616,-22.896 8.784,-46.944 9.288,-71.928 V 93.41955 H -80.393102 z"
   id="path157"
   inkscape:connector-curvature="0"
   style="fill:#df0000;fill-opacity:1" />
<path
   d="m 79.662898,143.74755 c -0.792,0 -1.512,0.144 -2.016,0.288 -0.36,0.144 -0.576,0.288 -0.576,0.36 0,0.072 0.216,0.216 0.576,0.36 0.504,0.216 1.224,0.288 2.016,0.288 0.792,0 1.512,-0.072 2.016,-0.288 0.36,-0.144 0.576,-0.288 0.576,-0.36 0,-0.072 -0.216,-0.216 -0.576,-0.36 -0.504,-0.144 -1.224,-0.288 -2.016,-0.288 z"
   id="path159"
   inkscape:connector-curvature="0"
   style="fill:#ca8b00" />
<path
   d="m 75.198898,132.94755 c -1.224,0 -2.232,1.008 -2.232,2.16 0,1.224 1.008,2.16 2.232,2.16 1.152,0 2.16,-0.936 2.16,-2.16 0,-1.152 -1.008,-2.16 -2.16,-2.16 z"
   id="path161"
   inkscape:connector-curvature="0"
   style="fill:#ca8b00" />
<path
   d="m 84.126898,132.94755 c -1.152,0 -2.16,1.008 -2.16,2.16 0,1.224 1.008,2.16 2.16,2.16 1.224,0 2.16,-0.936 2.16,-2.16 0,-1.152 -0.936,-2.16 -2.16,-2.16 z"
   id="path163"
   inkscape:connector-curvature="0"
   style="fill:#ca8b00" />
<path
   d="m 107.0229,223.37955 h 11.088 c -1.008,-3.528 -1.8,-7.128 -2.304,-10.656 h -8.784 v 10.656 z"
   id="path165"
   inkscape:connector-curvature="0"
   style="fill:#ca8b00" />
<rect
   x="87.22287"
   y="212.72357"
   width="18.792"
   height="10.656"
   id="rect167"
   style="fill:#ca8b00" />
<rect
   x="73.398895"
   y="212.72357"
   width="12.816"
   height="10.656"
   id="rect169"
   style="fill:#ca8b00" />
<rect
   x="47.190891"
   y="212.72357"
   width="25.200001"
   height="10.656"
   id="rect171"
   style="fill:#ca8b00" />
<path
   d="m 43.518898,212.72355 c -0.504,3.528 -1.296,7.128 -2.304,10.656 h 4.968 v -10.656 h -2.664 z"
   id="path173"
   inkscape:connector-curvature="0"
   style="fill:#ca8b00" />
<path
   d="m 55.038898,224.38755 h -14.112 c -0.504,1.656 -1.008,3.24 -1.584,4.824 -0.72,1.944 -1.512,3.888 -2.376,5.832 h 18.072 v -10.656 z"
   id="path175"
   inkscape:connector-curvature="0"
   style="fill:#ca8b00" />
<rect
   x="56.046879"
   y="224.38757"
   width="24.336"
   height="10.656"
   id="rect177"
   style="fill:#ca8b00" />
<rect
   x="81.318878"
   y="224.38757"
   width="16.200001"
   height="10.656"
   id="rect179"
   style="fill:#ca8b00" />
<path
   d="m 122.3589,235.04355 c -0.864,-1.944 -1.656,-3.888 -2.376,-5.832 -0.576,-1.584 -1.08,-3.168 -1.584,-4.824 H 98.526898 v 10.656 H 122.3589 z"
   id="path181"
   inkscape:connector-curvature="0"
   style="fill:#ca8b00" />
<path
   d="m 42.870898,236.12355 h -6.408 c -1.584,3.6 -3.456,7.2 -5.544,10.656 l 0,0 h 11.952 v -10.656 z"
   id="path183"
   inkscape:connector-curvature="0"
   style="fill:#ca8b00" />
<path
   d="m 68.934898,236.12355 h -25.056 v 10.656 h 22.032 c 0.792,-1.656 1.8,-3.096 3.024,-4.392 v -6.264 z"
   id="path185"
   inkscape:connector-curvature="0"
   style="fill:#ca8b00" />
<path
   d="m 108.4629,246.77955 h 19.944 l 0,0 c -2.088,-3.456 -3.96,-7.056 -5.544,-10.656 h -14.4 v 10.656 z"
   id="path187"
   inkscape:connector-curvature="0"
   style="fill:#ca8b00" />
<path
   d="m 70.518898,240.87555 c 5.832,-4.824 12.456,-4.824 18.288,0 1.944,1.728 3.456,3.528 4.608,5.904 H 107.4549 v -10.656 H 69.942898 v 5.328 c 0.216,-0.216 0.36,-0.36 0.576,-0.576 z"
   id="path189"
   inkscape:connector-curvature="0"
   style="fill:#ca8b00" />
<path
   d="m 211.4949,317.41155 h 2.376 c 1.656,-3.888 3.312,-7.848 4.824,-11.808 h -7.2 v 11.808 z"
   id="path191"
   inkscape:connector-curvature="0"
   style="fill:#ca8b00" />
<rect
   x="180.03088"
   y="305.60358"
   width="30.528"
   height="11.808"
   id="rect193"
   style="fill:#ca8b00" />
<rect
   x="149.64688"
   y="305.60358"
   width="29.375999"
   height="11.808"
   id="rect195"
   style="fill:#ca8b00" />
<rect
   x="112.35089"
   y="305.60358"
   width="36.287998"
   height="11.808"
   id="rect197"
   style="fill:#ca8b00" />
<rect
   x="71.022888"
   y="305.60358"
   width="40.32"
   height="11.808"
   id="rect199"
   style="fill:#ca8b00" />
<rect
   x="40.134892"
   y="305.60358"
   width="29.879999"
   height="11.808"
   id="rect201"
   style="fill:#ca8b00" />
<rect
   x="10.03888"
   y="305.60358"
   width="29.087999"
   height="11.808"
   id="rect203"
   style="fill:#ca8b00" />
<rect
   x="-20.561125"
   y="305.60358"
   width="29.591999"
   height="11.808"
   id="rect205"
   style="fill:#ca8b00" />
<rect
   x="-51.23312"
   y="305.60358"
   width="29.664"
   height="11.808"
   id="rect207"
   style="fill:#ca8b00" />
<path
   d="m -59.369102,305.60355 c 1.512,3.96 3.168,7.92 4.824,11.808 h 2.376 v -11.808 h -7.2 z"
   id="path209"
   inkscape:connector-curvature="0"
   style="fill:#ca8b00" />
<path
   d="m -36.185102,292.78755 h -27.864 c 1.368,3.96 2.736,7.848 4.248,11.808 h 23.616 v -11.808 z"
   id="path211"
   inkscape:connector-curvature="0"
   style="fill:#ca8b00" />
<rect
   x="-35.249111"
   y="292.78757"
   width="28.440001"
   height="11.808"
   id="rect213"
   style="fill:#ca8b00" />
<rect
   x="-5.801116"
   y="292.78757"
   width="29.879999"
   height="11.808"
   id="rect215"
   style="fill:#ca8b00" />
<rect
   x="25.086885"
   y="292.78757"
   width="29.232"
   height="11.808"
   id="rect217"
   style="fill:#ca8b00" />
<rect
   x="55.326878"
   y="292.78757"
   width="29.448"
   height="11.808"
   id="rect219"
   style="fill:#ca8b00" />
<rect
   x="85.782898"
   y="292.78757"
   width="40.248001"
   height="11.808"
   id="rect221"
   style="fill:#ca8b00" />
<rect
   x="127.03888"
   y="292.78757"
   width="36.936001"
   height="11.808"
   id="rect223"
   style="fill:#ca8b00" />
<rect
   x="164.98288"
   y="292.78757"
   width="29.591999"
   height="11.808"
   id="rect225"
   style="fill:#ca8b00" />
<path
   d="m 219.1269,304.59555 c 1.44,-3.96 2.88,-7.848 4.248,-11.808 h -27.864 v 11.808 h 23.616 z"
   id="path227"
   inkscape:connector-curvature="0"
   style="fill:#ca8b00" />
<path
   d="m 145.6869,318.49155 c -4.392,1.008 -9.72,2.736 -13.824,5.112 -5.4,3.096 -10.44,7.344 -14.904,12.672 -4.248,-5.112 -9.072,-9.216 -14.256,-12.168 -4.608002,-2.664 -9.432002,-4.608 -14.400002,-5.616 H 145.6869 z"
   id="path229"
   inkscape:connector-curvature="0"
   style="fill:#ca8b00" />
<path
   d="m 196.3029,330.29955 h -8.784 c -0.936,-0.936 -1.944,-1.8 -2.952,-2.664 -3.024,-2.448 -6.48,-4.464 -10.008,-6.12 -3.024,-1.368 -7.272,-2.448 -10.296,-3.024 h 32.04 v 11.808 z"
   id="path231"
   inkscape:connector-curvature="0"
   style="fill:#ca8b00" />
</svg>