<?xml version="1.0" encoding="utf-8"?>
<!-- Generator: Adobe Illustrator 13.0.0, SVG Export Plug-In . SVG Version: 6.00 Build 14948)  -->
<!DOCTYPE svg PUBLIC "-//W3C//DTD SVG 1.0//EN" "http://www.w3.org/TR/2001/REC-SVG-20010904/DTD/svg10.dtd">
<svg version="1.0" id="Ebene_1" xmlns="http://www.w3.org/2000/svg" xmlns:xlink="http://www.w3.org/1999/xlink" x="0px" y="0px"
	 width="263.431px" height="346.021px" viewBox="0 0 263.431 346.021" enable-background="new 0 0 263.431 346.021"
	 xml:space="preserve">
<path fill-rule="evenodd" clip-rule="evenodd" fill="#0054A0" d="M131.716,0c72.547,0,131.715,77.72,131.715,173.011
	s-59.168,173.01-131.715,173.01S0,268.302,0,173.011S59.169,0,131.716,0L131.716,0z"/>
<path fill-rule="evenodd" clip-rule="evenodd" d="M131.717,22.95c59.905,0,108.765,67.41,108.765,150.061
	s-48.859,150.061-108.765,150.061c-59.907,0-108.768-67.41-108.768-150.061S71.81,22.95,131.717,22.95L131.717,22.95z"/>
<polygon fill-rule="evenodd" clip-rule="evenodd" fill="#E32219" points="131.718,22.95 35.757,243.536 227.675,243.536 
	131.718,22.95 "/>
<polygon fill-rule="evenodd" clip-rule="evenodd" fill="#FFFFFF" points="131.717,323.071 35.757,102.487 227.675,102.487 
	131.717,323.071 "/>
<path fill="#F8C900" d="M131.718,26.934L38.183,241.942h187.066L131.718,26.934L131.718,26.934z M130.261,22.315l1.457-3.349
	l1.456,3.349l95.958,220.584l0.969,2.23H33.331l0.97-2.23L130.261,22.315L130.261,22.315z"/>
<path fill-rule="evenodd" clip-rule="evenodd" fill="#F8C900" d="M118.123,154.816v4.544h-6.003v-3.006
	c0-3.263,0.172-7.333-3.81-7.333c-4.861,0-4.404,4.291-4.404,8.487v31.152c0,4.109-0.532,8.488,4.267,8.488
	c4.016,0,3.947-3.414,3.947-6.969v-4.633h6.003v5.543c0,4.918-0.739,8.332-2.234,10.25c-1.487,1.91-4.122,2.863-7.902,2.863
	c-3.65,0-6.244-1.152-7.772-3.461c-1.529-2.309-2.289-6.57-2.289-12.77v-30.05c0-6.171,0.749-10.402,2.261-12.687
	c1.508-2.279,4.169-3.421,7.987-3.421c3.668,0,6.244,0.955,7.726,2.854C117.381,146.569,118.123,149.948,118.123,154.816
	L118.123,154.816z M128.742,149.774v46.621h2.502c4.907,0,6.485-0.984,6.485-6.602v-33.377c0-5.599-1.602-6.643-6.485-6.643H128.742
	L128.742,149.774z M122.786,142.719h7.41c5.457,0,9.076,1.083,10.877,3.242c1.795,2.153,2.695,6.674,2.695,13.566v26.841
	c0,6.809-0.896,11.313-2.695,13.516c-1.795,2.191-5.422,3.293-10.877,3.293h-7.41V142.719L122.786,142.719z M148.866,142.719h6.328
	v53.673h10.313v6.785h-16.641V142.719L148.866,142.719z"/>
</svg>
