<?xml version="1.0" encoding="utf-8"?>
<!-- Generator: Adobe Illustrator 13.0.0, SVG Export Plug-In . SVG Version: 6.00 Build 14948)  -->
<!DOCTYPE svg PUBLIC "-//W3C//DTD SVG 1.0//EN" "http://www.w3.org/TR/2001/REC-SVG-20010904/DTD/svg10.dtd">
<svg version="1.0" id="Ebene_1" xmlns="http://www.w3.org/2000/svg" xmlns:xlink="http://www.w3.org/1999/xlink" x="0px" y="0px"
	 width="371.713px" height="527.245px" viewBox="0 0 371.713 527.245" enable-background="new 0 0 371.713 527.245"
	 xml:space="preserve">
<path fill="#F6BE00" d="M133.364,0C99.313,45.4,52.494,80.868,0,103.569c0,39.725,0,80.868,0,120.593
	c22.699,24.12,38.306,55.33,49.657,86.543c14.188,46.819,19.862,93.639,46.819,136.201c21.281,35.47,49.655,62.426,86.543,79.45
	c0.809,0.375,2.222,0.911,3.103,0.888c0.888-0.026,1.738-0.621,2.572-0.888c36.89-17.024,65.264-43.98,86.545-79.45
	c26.956-42.563,32.631-89.382,46.819-136.201c11.35-31.213,26.956-62.423,49.655-86.543c0-39.725,0-80.868,0-120.593
	C319.219,80.868,272.399,45.4,238.351,0H133.364L133.364,0z"/>
<path fill="#0063AB" d="M253.028,454.474c-19.119,26.52-38.136,43.863-66.699,57.223h-0.208
	c-28.562-13.356-47.575-30.7-66.696-57.22L253.028,454.474L253.028,454.474z"/>
<path fill="#0063AB" d="M108.76,438.867C90.511,411.463,81.923,377.183,73.89,345.7l224.672,0.003
	c-8.033,31.477-16.62,65.757-34.869,93.164H108.76L108.76,438.867z"/>
<path fill="#E11B2B" d="M70.09,331.037c-2.533-9.51-5.152-18.592-8.137-26.953c-8.041-27.428-30.385-67.034-48.473-83.704
	l-0.006-2.602h345.504l-0.006,2.602c-18.088,16.67-40.433,56.276-48.472,83.704c-2.988,8.361-5.607,17.446-8.139,26.956
	L70.09,331.037L70.09,331.037z"/>
<path fill="#FFFFFF" d="M66.681,203.591h-53.24l-0.199-89.382c19.556-8.962,37.167-18.879,53.443-30.078L66.681,203.591
	L66.681,203.591z"/>
<path fill="#FFFFFF" d="M305.511,83.953c16.348,11.273,34.04,21.248,53.698,30.256l-0.199,89.382h-53.505L305.511,83.953
	L305.511,83.953z"/>
<path fill="#FFFFFF" d="M290.845,203.591H81.341l0.004-130.172c21.259-16.472,40.361-35.543,58.874-58.05h92.011
	c18.437,22.414,37.456,41.417,58.608,57.842L290.845,203.591L290.845,203.591z"/>
<path d="M264.598,327.023v-22.348h-4.787c-22.825,0-41.323-18.501-41.323-41.32h12.062v-19.33h-12.771v8.512h-4.611v-8.512h-3.545
	v-4.966h4.608v-16.315h-9.574v8.512h-3.902v-8.512h-7.45v8.512h-3.19v-8.512h-8.868v8.512h-3.192v-8.512h-7.447v8.512h-3.902v-8.512
	h-9.577v16.315h4.611v4.966h-3.546v8.512h-4.611v-8.512h-12.768v19.33h12.059c0,22.819-18.5,41.32-41.322,41.32h-4.789v22.348
	H264.598L264.598,327.023z"/>
<path fill="#F2D7A2" d="M212.104,270.627h5.367c-0.378-2.309-0.58-4.679-0.58-7.094h-4.787V270.627L212.104,270.627z"/>
<polygon fill="#F2D7A2" points="210.507,263.533 199.69,263.533 199.69,270.627 210.507,270.627 210.507,263.533 "/>
<polygon fill="#F2D7A2" points="197.918,263.533 186.567,263.533 186.567,270.627 197.918,270.627 197.918,263.533 "/>
<polygon fill="#F2D7A2" points="184.793,263.533 173.443,263.533 173.442,270.627 184.793,270.627 184.793,263.533 "/>
<polygon fill="#F2D7A2" points="171.668,263.533 160.852,263.533 160.85,270.627 171.669,270.627 171.668,263.533 "/>
<path fill="#F2D7A2" d="M159.256,263.533H155c0,2.416-0.198,4.786-0.579,7.094h4.834L159.256,263.533L159.256,263.533z"/>
<path fill="#F2D7A2" d="M206.429,277.6h12.803c-0.542-1.576-0.996-3.193-1.354-4.846h-11.449V277.6L206.429,277.6z"/>
<polygon fill="#F2D7A2" points="193.304,277.603 204.656,277.6 204.656,272.754 193.304,272.754 193.304,277.603 "/>
<polygon fill="#F2D7A2" points="191.531,272.754 179.65,272.754 179.65,277.603 191.531,277.603 191.531,272.754 "/>
<polygon fill="#F2D7A2" points="177.876,272.754 167.058,272.754 167.058,277.603 177.876,277.603 177.876,272.754 "/>
<path fill="#F2D7A2" d="M165.905,272.754c-0.25,0-0.442,0-0.442,0h-11.449c-0.359,1.655-0.812,3.272-1.354,4.849h12.801
	c0,0,0.192,0,0.444,0V272.754L165.905,272.754z"/>
<path fill="#F2D7A2" d="M212.104,284.93h10.438c-1.072-1.887-2.01-3.861-2.798-5.909h-7.641V284.93L212.104,284.93z"/>
<polygon fill="#F2D7A2" points="210.507,279.021 199.69,279.023 199.69,284.93 210.507,284.93 210.507,279.021 "/>
<polygon fill="#F2D7A2" points="171.671,279.023 160.85,279.023 160.85,284.93 171.669,284.93 171.671,279.023 "/>
<path fill="#F2D7A2" d="M159.256,279.023h-7.112c-0.787,2.051-1.724,4.025-2.799,5.909l9.91-0.003L159.256,279.023L159.256,279.023z
	"/>
<path fill="#F2D7A2" d="M218.842,292.031h8.76c-1.491-1.702-2.851-3.524-4.063-5.443h-4.696V292.031L218.842,292.031z"/>
<polygon fill="#F2D7A2" points="217.248,286.588 206.429,286.588 206.429,292.028 217.248,292.031 217.248,286.588 "/>
<polygon fill="#F2D7A2" points="165.463,286.588 154.113,286.588 154.112,292.025 165.463,292.025 165.463,286.588 "/>
<path fill="#F2D7A2" d="M152.517,286.588h-4.165c-1.21,1.919-2.568,3.738-4.056,5.438h8.221V286.588L152.517,286.588z"/>
<path fill="#F2D7A2" d="M225.05,300.07h11.921c-2.862-1.819-5.499-3.97-7.852-6.396h-4.069V300.07L225.05,300.07z"/>
<polygon fill="#F2D7A2" points="223.453,293.675 212.104,293.678 212.104,300.07 223.453,300.07 223.453,293.675 "/>
<polygon fill="#F2D7A2" points="159.255,293.684 147.905,293.684 147.905,300.07 159.255,300.07 159.255,293.684 "/>
<path fill="#F2D7A2" d="M146.309,293.684h-3.542c-2.351,2.42-4.98,4.564-7.84,6.381l11.382,0.006V293.684L146.309,293.684z"/>
<path fill="#F2D7A2" d="M244.734,306.217h8.282c-2.868-0.475-5.64-1.236-8.291-2.247L244.734,306.217L244.734,306.217z"/>
<path fill="#F2D7A2" d="M231.788,306.22l11.382-0.003l0.097-2.836c-1.028-0.437-2.033-0.911-3.021-1.424h-8.458V306.22
	L231.788,306.22z"/>
<polygon fill="#F2D7A2" points="218.842,306.22 230.191,306.22 230.191,301.957 218.842,301.96 218.842,306.22 "/>
<polygon fill="#F2D7A2" points="206.429,306.22 217.248,306.22 217.248,301.96 206.429,301.96 206.429,306.22 "/>
<polygon fill="#F2D7A2" points="203.235,306.22 204.656,306.22 204.656,301.96 203.235,301.96 203.235,306.22 "/>
<polygon fill="#F2D7A2" points="167.591,301.96 167.058,301.96 167.058,306.22 167.59,306.22 167.591,301.96 "/>
<polygon fill="#F2D7A2" points="154.112,306.22 165.461,306.22 165.461,301.96 154.112,301.96 154.112,306.22 "/>
<polygon fill="#F2D7A2" points="141.135,306.22 152.517,306.22 152.517,301.96 141.135,301.96 141.135,306.22 "/>
<path fill="#F2D7A2" d="M128.751,306.22h10.819v-4.26h-7.928c-0.943,0.492-1.907,0.946-2.89,1.368L128.751,306.22L128.751,306.22z"
	/>
<path fill="#F2D7A2" d="M127.156,303.973c-2.65,1.014-5.426,1.772-8.297,2.247h8.297V303.973L127.156,303.973z"/>
<polygon fill="#F2D7A2" points="250.409,313.072 262.471,313.072 262.471,308.106 250.409,308.106 250.409,313.072 "/>
<polygon fill="#F2D7A2" points="237.996,313.072 248.813,313.072 248.813,308.106 237.996,308.106 237.996,313.072 "/>
<polygon fill="#F2D7A2" points="225.05,313.072 236.432,313.072 236.432,308.106 225.05,308.106 225.05,313.072 "/>
<polygon fill="#F2D7A2" points="212.104,313.072 223.453,313.072 223.453,308.106 212.104,308.106 212.104,313.072 "/>
<polygon fill="#F2D7A2" points="147.905,313.072 159.256,313.072 159.256,308.106 147.905,308.106 147.905,313.072 "/>
<polygon fill="#F2D7A2" points="134.928,313.072 146.31,313.072 146.31,308.106 134.928,308.106 134.928,313.072 "/>
<polygon fill="#F2D7A2" points="122.544,313.072 133.362,313.072 133.362,308.106 122.544,308.106 122.544,313.072 "/>
<polygon fill="#F2D7A2" points="120.949,308.106 109.421,308.106 109.421,313.072 120.949,313.072 120.949,308.106 "/>
<polygon fill="#F2D7A2" points="228.419,260.695 228.419,246.154 219.908,246.154 219.908,254.666 211.04,254.666 211.04,246.154 
	204.299,246.154 204.299,254.666 196.852,254.666 196.852,246.154 190.113,246.154 190.113,254.666 181.245,254.666 
	181.245,246.154 174.507,246.154 174.507,254.666 167.058,254.666 167.058,246.154 160.32,246.154 160.32,254.666 151.452,254.666 
	151.452,246.154 142.939,246.154 142.939,260.695 228.419,260.695 "/>
<polygon fill="#F2D7A2" points="188.933,252.656 188.933,244.025 198.51,244.025 198.51,252.656 202.292,252.656 202.292,244.025 
	207.967,244.025 207.967,239.06 163.512,239.06 163.512,244.025 169.187,244.025 169.187,252.656 172.97,252.656 172.97,244.025 
	182.546,244.025 182.546,252.656 188.933,252.656 "/>
<polygon fill="#F2D7A2" points="213.053,237.877 213.053,223.926 205.957,223.926 205.957,232.321 199.69,232.321 199.69,223.926 
	194.725,223.926 194.725,232.321 189.05,232.321 189.05,223.926 182.31,223.926 182.31,232.321 176.635,232.321 176.635,223.926 
	171.669,223.926 171.669,232.321 165.403,232.321 165.403,223.926 158.31,223.926 158.31,237.877 213.053,237.877 "/>
<path fill="#F2D7A2" d="M186.703,292.14c-0.769-0.062-1.548-0.038-2.312,0.07l-4.519-6.384c3.599-1.055,7.608-0.99,11.158,0.193
	L186.703,292.14L186.703,292.14z"/>
<path fill="#F2D7A2" d="M175.441,289.16c1.187-0.853,2.518-1.529,3.936-2.027l3.624,5.367c-1.017,0.29-1.975,0.738-2.807,1.345
	L175.441,289.16L175.441,289.16z"/>
<path fill="#F2D7A2" d="M172.359,292.274c0.681-0.984,1.494-1.852,2.411-2.599l4.772,4.699c-0.639,0.583-1.178,1.28-1.573,2.086
	L172.359,292.274L172.359,292.274z"/>
<path fill="#F2D7A2" d="M170.167,298.767c0.142-2.106,0.708-3.949,1.591-5.525l5.785,4.321c-0.103,0.346-0.182,0.706-0.234,1.084
	L170.167,298.767L170.167,298.767z"/>
<polygon fill="#F2D7A2" points="170.131,306.331 173.796,306.331 173.796,309.229 170.131,309.229 170.131,306.331 "/>
<polygon fill="#F2D7A2" points="170.131,316.975 173.796,316.975 173.796,319.869 170.131,319.869 170.131,316.975 "/>
<polygon fill="#F2D7A2" points="173.796,304.972 173.796,299.83 168.832,299.83 168.832,304.972 173.796,304.972 "/>
<polygon fill="#F2D7A2" points="173.796,324.539 173.796,321.111 168.832,321.111 168.832,324.539 173.796,324.539 "/>
<polygon fill="#F2D7A2" points="173.796,315.729 173.796,310.588 168.832,310.588 168.832,315.729 173.796,315.729 "/>
<path fill="#F2D7A2" d="M195.665,289.16c-1.187-0.853-2.52-1.529-3.938-2.027l-3.624,5.367c1.018,0.29,1.975,0.738,2.807,1.345
	L195.665,289.16L195.665,289.16z"/>
<path fill="#F2D7A2" d="M198.744,292.274c-0.68-0.984-1.491-1.852-2.411-2.599l-4.77,4.699c0.639,0.583,1.175,1.28,1.573,2.086
	L198.744,292.274L198.744,292.274z"/>
<path fill="#F2D7A2" d="M200.938,298.767c-0.144-2.106-0.706-3.949-1.591-5.525l-5.786,4.321c0.103,0.346,0.185,0.706,0.237,1.084
	L200.938,298.767L200.938,298.767z"/>
<polygon fill="#F2D7A2" points="200.974,306.331 197.309,306.331 197.309,309.229 200.974,309.229 200.974,306.331 "/>
<polygon fill="#F2D7A2" points="200.974,316.975 197.309,316.975 197.309,319.869 200.974,319.869 200.974,316.975 "/>
<polygon fill="#F2D7A2" points="197.309,304.972 197.309,299.83 202.274,299.83 202.274,304.972 197.309,304.972 "/>
<polygon fill="#F2D7A2" points="197.309,324.539 197.309,321.111 202.274,321.111 202.274,324.539 197.309,324.539 "/>
<polygon fill="#F2D7A2" points="197.309,315.729 197.309,310.588 202.274,310.588 202.274,315.729 197.309,315.729 "/>
<path fill="#F2D7A2" d="M195.434,312.126v4.254h0.472v1.421h-0.472v4.254h-1.477v-4.254h-2.839v4.254h-1.359v-4.254h-2.896v4.254
	h-2.424v-4.254h-2.897v4.254h-1.359v-4.254h-2.837v4.254h-1.478v-4.254h-0.532v-1.421h0.532v-4.254h-0.532v-1.421h0.532v-4.254
	h-0.532v-1.418h0.532v-4.257h1.478v4.257h2.837v-4.257h1.359v4.257h2.896l0.001-4.257h2.424v4.257h2.896v-4.257h1.359v4.257h2.839
	v-4.257h1.477v4.257h0.472v1.418h-0.472v4.254h0.472v1.421H195.434L195.434,312.126z M180.182,310.705v-4.254h-2.837v4.254H180.182
	L180.182,310.705z M186.863,310.705h2.896v-4.254h-2.896V310.705L186.863,310.705z M180.182,316.38v-4.254h-2.837v4.254H180.182
	L180.182,316.38z M184.437,310.705v-4.254h-2.896v4.254H184.437L184.437,310.705z M184.437,312.126h-2.896v4.254h2.896V312.126
	L184.437,312.126z M186.863,312.126v4.254h2.896v-4.254H186.863L186.863,312.126z M193.957,316.38v-4.254h-2.839v4.254H193.957
	L193.957,316.38z M193.957,310.705v-4.254h-2.839v4.254H193.957L193.957,310.705z"/>
<polygon fill="#F2D7A2" points="168.832,319.869 168.832,316.975 167.591,317.004 167.591,315.199 109.421,315.199 109.421,324.539 
	167.591,324.539 167.591,319.84 168.832,319.869 "/>
<polygon fill="#F2D7A2" points="203.235,319.869 203.235,324.539 262.471,324.539 262.471,315.199 203.235,315.199 203.235,316.975 
	202.274,316.975 202.274,319.869 203.235,319.869 "/>
<polygon fill="#F2D7A2" points="167.59,309.229 168.832,309.229 168.832,308.106 160.852,308.106 160.852,313.072 167.591,313.072 
	167.59,309.229 "/>
<polygon fill="#F2D7A2" points="203.235,313.072 210.507,313.072 210.507,308.106 202.274,308.106 202.274,309.229 203.235,309.229 
	203.235,313.072 "/>
<path fill="#F2D7A2" d="M201.167,293.672c1.034,1.945,1.717,4.107,1.966,6.398h7.374v-6.393L201.167,293.672L201.167,293.672z"/>
<path fill="#F2D7A2" d="M204.656,292.028v-5.44l-10.318-0.003c2.332,1.351,4.33,3.217,5.839,5.44L204.656,292.028L204.656,292.028z"
	/>
<path fill="#F2D7A2" d="M197.918,284.93v-5.906h-11.351v5.209c1.359,0.085,2.676,0.325,3.936,0.7L197.918,284.93L197.918,284.93z"/>
<path fill="#F2D7A2" d="M180.331,284.927c1.421-0.419,2.917-0.668,4.462-0.721l-0.001-5.183h-11.35l0.001,5.906L180.331,284.927
	L180.331,284.927z"/>
<path fill="#F2D7A2" d="M170.653,292.022c1.507-2.221,3.504-4.084,5.836-5.435h-9.431v5.438L170.653,292.022L170.653,292.022z"/>
<path fill="#F2D7A2" d="M160.852,293.684v6.387h6.844c0.249-2.288,0.93-4.447,1.961-6.393L160.852,293.684L160.852,293.684z"/>
<path fill="#F6BE00" d="M65.558,161.032c-3.246,10.241-12.631,17.641-23.704,17.641c-13.761,0-24.917-11.433-24.917-25.537
	S28.093,127.6,41.854,127.6c10.056,0,18.721,6.104,22.657,14.896l-13.365,3.971c-1.633-4.463-4.942-7.518-8.76-7.518
	c-5.435,0-9.842,6.193-9.842,13.833s4.408,13.833,9.842,13.833c4.405,0,8.134-4.066,9.391-9.675L65.558,161.032L65.558,161.032z"/>
<polygon fill="#F6BE00" points="314.962,127.6 351.762,127.6 351.762,137.53 329.15,137.53 329.15,146.043 348.926,146.043 
	348.926,156.063 329.15,156.063 329.15,175.925 314.962,175.925 314.962,127.6 "/>
<path d="M276.65,139.349l14.188-2.084l0.003,24.828l-8.865,0.394v41.105H89.382v-41.254l-8.039-0.245l0.001-24.828l14.421,1.78
	v-19.16c6.59-5.268,12.125-8.011,17.026-9.576c5.392-7.094,12.229-12.677,16.67-14.897c6.208-6.208,23.764-17.024,33.696-17.024
	v-3.548h-3.548c-5.32,0-4.61-11.172,0.179-11.172c-7.361-3.104-4.789-17.558,0.886-18.976c0-4.611-0.524-4.739,0.532-9.044
	c15.075-10.819,27.255-8.457,31.743-6.563c10.14,3.7,12.308,15.245,11.35,19.862c0,4.966,10.998,19.863,1.775,25.893
	c-2.66-0.236-2.897,1.184-0.888,1.951c6.917,1.113,8.854,3.463,9.281,5.498c11.824,0.592,18.208,7.803,23.174,14.187
	c12.533,0,19.389,8.987,19.389,19.39C266.845,118.466,271.219,121.54,276.65,139.349L276.65,139.349z"/>
<path fill="#DAB27F" d="M116.084,141.551c3.765-1.034,8.53-1.094,13.022-5.587c-4.493-0.946-11.587,0.946-11.587,0.946
	c-5.912,0-7.317,3.916-7.317,3.916L116.084,141.551L116.084,141.551z"/>
<path fill="#DAB27F" d="M98.095,139.332l5.443,0.671c0,0,6.889-6.64,9.962-7.585c0,0,21.99-1.893,22.699-1.184
	c0,0,5.44,2.364,0,5.676l-8.065,6.129l6.403,0.788c0,0,10.885-3.606,12.067-7.154c0,0,11.823-2.6,8.75,2.839h4.966
	c0,0-2.602-4.493-9.223-5.676l-10.167-7.094l-26.484,0.473c0,0-9.425,7.075-10.167,9.932h-4.255c0,0,4.493-9.694,12.769-13.951
	c0,0,16.551,0.236,24.119-1.182c0,0,7.513,0.139,12.296,6.385c0,0,2.6,3.073,2.6-0.475c0,0-4.729-7.566-11.823-7.566
	c0,0-13.477-9.458-26.01-6.148c0,0-9.341,3.667-13.951,8.276l-0.709,11.35L98.095,139.332L98.095,139.332z"/>
<path fill="#DAB27F" d="M145.657,145.2c3.725,0.46,5.263-0.192,3.787-1.67c3.785-1.668,5.911,0.948,5.911,0.948
	c1.772,1.772,6.62,1.418,6.62,1.418v-2.128c9.419-2.284,6.621,4.263,6.621,4.263L145.657,145.2L145.657,145.2z"/>
<path fill="#DAB27F" d="M177.935,146.84c4.14,0.946,4.021,2.837,4.021,2.837l2.128,0.473c0-5.319-2.956-4.729-2.956-4.729
	c-7.92,0.709-8.514-1.418-8.514-1.418c-2.008,3.664,2.328,4.809,2.328,4.809l2.647,0.325L177.935,146.84L177.935,146.84z"/>
<path fill="#DAB27F" d="M120.003,109.008l6.267-6.267c0,0,6.633,2.946,11.231,6.173c5.086,3.568,8.559,8.329,8.867,9.196
	c0.65,1.834-6.265-4.729-12.413-6.62C127.808,109.598,120.003,109.008,120.003,109.008L120.003,109.008z"/>
<path fill="#DAB27F" d="M164.339,135.609c-1.901,0.554-3.429-10.288-11.232-12.296c2.956,2.956,4.02,11.468,9.99,13.063
	L164.339,135.609L164.339,135.609z"/>
<path fill="#DAB27F" d="M130.998,99.785c15.192,9.557,23.14,15.69,41.38,41.38c1.184,1.182,6.621-2.364,6.621-2.364
	c-2.673-10.056-7.211-15.725-7.211-15.725c-4.138-13.005-13.361-19.271-13.361-19.271c-5.733-5.733-1.655-19.626-1.655-19.626
	C147.609,85.893,138.388,92.396,130.998,99.785L130.998,99.785z"/>
<path fill="#DAB27F" d="M233.426,145.701l-13.02,1.912l-0.026-0.299c-2.499-0.551-2.508,1.276-4.497,1.928
	c-1.441,0.472-3.337-0.025-4.843,0.201c-2.596,0.388-4.951,0.945-7.658,0.598c-2.229-0.286-4.573-0.362-6.855-0.362
	c-1.178,0-2.537-0.189-3.694-0.003c-1.008,0.161-1.617,0.757-2.481,1.305c-1.36,0.858-1.558,0.592-2.356-0.596
	c-0.808-1.2-1.859-2.259-2.658-3.448c-0.729-1.087-0.907-2.294-1.386-3.489c-0.631-1.573-0.813-2.681-0.813-4.412
	c0-3.417-1.138-5.656-3.097-8.385c-1.868-2.599-2.868-5.827-4.146-8.729c-1.109-2.52-2.449-4.97-3.52-7.507
	c-0.583-1.383-1.405-2.71-1.917-4.113c-0.387-1.062-0.497-2.247-0.943-3.274c-1.003-2.312-2.221-4.286-2.221-6.885l0.119-0.119
	c2.086-0.053,2.757,2.856,3.99,4.167c3.208,3.404,5.319,7.909,7.607,12.035c1.362,2.458,1.972,4.607,2.499,7.354
	c0.334,1.743,1.185,6.737,3.618,6.571c0.552-1.014,1.213-1.731,1.436-2.934c0.201-1.08,0.045-2.259,0.24-3.311l-0.119-0.475
	c0.13-1.301,0.867-2.584,1.275-3.803c0.599-1.79,0.875-2.905,2.128-4.355c2.394-2.771,4.143-6.125,6.053-9.136
	c1.397-2.2,2.795-3.875,3.17-6.561c0.334-2.386,1.184-4.86,1.327-7.239c0.132-2.212,0.243-4.796,0-7
	c-0.234-2.086-2.013-3.524-2.01-5.648h0.472c1.239,0.56,3.038,0.354,4.518,0.354c2.045,0,3.621,0.267,5.294,1.418
	c2.13,1.462,2.883,3.214,2.487,5.911c-0.354,2.402-2.856,3.379-2.725,6.025c0.167,3.252,3.275,1.22,4.052-0.787
	c0.662-1.709,1.717-3.221,2.517-4.862c0.762-1.563,1.852-1.666,3.598-1.321c1.084,0.212,1.547,1.058,2.461,1.688
	c1.468,1.012,4.178,2.01,1.471,3.543c-3.624,2.051-6.463,5.73-8.777,9.217c-0.75,1.134-1.412,1.866-1.919,3.174
	c-0.472,1.214-0.961,2.492-1.506,3.655c-1.052,2.26-1.526,4.862-2.399,7.282c-1.655,4.595-3.275,9.533-6.229,13.292
	c-1.433,1.819-2.385,3.725-2.016,6.151c0.205,1.327,1.38,2.481,2.725,1.572c1.034-0.7,1.857-2.653,2.361-3.727
	c1.099-2.347,3.047-4.081,4.251-6.448c0.521-1.02,0.876-2.014,1.896-2.537c1.099-0.563,2.156-0.123,3.311-0.328
	c0.976-0.174,1.509-0.628,2.13-1.414c0.812-1.03,0.662-1.885,1.146-2.994c0.56-1.28,2.048-2.257,2.877-3.363
	c0.964-1.293,1.846-2.673,2.596-4.081c1.263-2.375,0.612-4.532,1.09-7.062c0.205-1.102,0.894-1.723,0.803-2.959
	c-0.079-1.112-0.381-2.265-1.655-1.629c-1.556,0.775-1.767,5.14-2.247,6.741c-0.718,2.402-1.854,4.304-3.103,6.448
	c-1.031,1.771-2.663,3.054-3.905,4.72c-0.46,0.617-0.844,2.314-1.494,2.644c-1.192,0.608-2.016-0.705-1.67-1.661
	c0.428-1.191,1.38-1.709,1.667-3.072c0.272-1.289,0.495-2.158,1.031-3.363c0.598-1.346,0.905-2.467,1.119-3.917
	c0.152-1.055,0.082-2.373,0.469-3.391c0.765-1.991,2.745-3.981,4.107-5.556c1.368-1.581,3.211-2.703,4.945-3.847
	c1.969-1.298,4.764-2.077,6.609-0.139c1.79,1.884-0.062,4.748,1.506,6.372c1.79,1.856,4.91-0.659,6.691-0.823
	c2.719-0.249,4.022,1.103,5.959,2.72c1.063,0.886,2.098,1.667,3.076,2.565c1.063,0.973,2.584,1.686,3.416,2.849
	c1.409,1.972,1.623,4.683,2.563,6.885c0.483,1.132,0.311,2.505,1.096,3.517c0.732,0.945,1.828,1.255,2.927,1.682
	c4.482,1.743,10.146,4.27,11.49,9.366c0.844,3.198,4.356,6.158,4.348,9.535c-1.008,0.146-1.62,0.237-1.62,0.237l-2.045,0.3
	c-7.948,1.167-15.896,2.336-23.845,3.504c-2.136,0.313-4.274,0.628-6.413,0.942c-0.706,0.104-1.415,0.208-2.121,0.312
	c-2.52,0.371-1.605-0.546-2.139-2.559c-0.252-0.968-0.87-1.472-1.573-2.098c-1.277-1.135-2.561-3.261-4.579-2.87
	c-1.983,0.387-1.989,3.207-0.853,4.499c1.266,1.434,3.12,2.316,4.518,3.541L233.426,145.701L233.426,145.701z M219.791,143.413
	c-0.935-0.587-2.25-0.357-3.311-0.356c-1.333,0.004-2.619-0.177-3.929-0.236c-2.522-0.111-5.016-0.119-7.547-0.119
	c-1.972,0-4.447-0.589-6.255-0.085c-1.491,0.416-3.879,1.813-3.343,3.659c0.521,1.793,4.239,1.589,5.81,1.159
	c0.882-0.242,1.521-1.043,2.399-1.277c0.923-0.243,2.203-0.023,3.164-0.026c2.505-0.007,4.679,0.946,7.21,0.946
	c0.984,0,2.44,0.236,3.193-0.242c0.554-0.35,1.313-1.384,1.772-1.887c0.475-0.521,0.905-0.708,0.715-1.537H219.791L219.791,143.413z
	 M208.673,97.894c-0.803-0.025-2.323-0.155-3.044,0.145c-0.703,0.29-1.433,1.604-1.89,2.216c-1.236,1.652-1.805,4.22-1.805,6.268
	c0,2.473-0.135,4.5-1.058,6.769c-0.814,2.011-2.147,3.738-3.053,5.673c-1.972,4.211-2.883,8.934-6.267,12.268
	c-1.462,1.441-2.72,2.827-1.482,5.024c1.556,2.763,4.356,0.763,5.687-0.892c1.395-1.734,1.805-3.779,2.593-5.813
	c0.794-2.058,1.646-3.905,2.643-5.912c2.127-4.285,4.441-8.549,4.72-13.478c0.146-2.6,0.199-4.469,1.635-6.601
	c0.583-0.867,3.249-5.007,1.087-5.433L208.673,97.894L208.673,97.894z M244.025,105.697c-0.797-1.944-2.933-2.341-4.849-2.247
	c-1.008,0.05-2.019,0.107-2.81,0.617c-0.647,0.416-1.33,1.39-1.925,1.985c-1.433,1.433-3.179,2.178-4.573,3.76
	c-1.488,1.686-2.73,3.438-4.025,5.284c-2.707,3.87-3.964,8.379-7.093,12c-1.181,1.368-2.373,3.42-3.923,4.468
	c-1.559,1.055-4.474,0.747-5.18,2.89c-0.205,0.617-0.299,3.031,0.205,3.529c0.604,0.599,2.895,0.258,3.58,0.026
	c2.224-0.756,3.653-3.453,5.197-5.064c0.756-0.784,1.535-1.714,2.338-2.394c0.817-0.687,1.928-1.04,2.517-1.915
	c0.612-0.913,0.601-2.109,0.885-3.105c0.29-1.022,0.765-1.797,1.339-2.691c0.94-1.462,2.133-2.917,3.27-4.261
	c1.189-1.405,2.03-3.015,3.135-4.463c1.802-2.363,4.351-3.362,6.63-4.753c1.485-0.908,4.852-1.419,5.045-3.429
	c0.023-0.231,0-0.476,0-0.71L244.025,105.697L244.025,105.697z"/>
<path fill="#DAB27F" d="M174.034,78.387c-1.723-0.926-3.271,1.777-3.428,3.19c-0.277,2.49,0.243,5.067,0.004,7.562
	c-0.12,1.266-0.315,2.498-0.242,3.819c0.089,1.652,0.94,2.892,1.923,4.2c1.085,1.443,2.561,2.845,3.404,4.443
	c0.573,1.081,0.699,2.394,1.167,3.538c1.04,2.528,3.053,4.641,4.529,6.914c0.778,1.198,1.014,2.326,1.153,3.702
	c0.076,0.743-0.246,2.716,0.586,3.164c1.818,0.983,3.119-4.411,3.526-5.297c1.028-2.234,2.606-4.323,3.778-6.505
	c0.472-0.883,0.888-1.915,1.453-2.722c0.665-0.948,1.834-1.632,2.719-2.486c1.869-1.803,1.219-4.702,1.77-7.091
	c0.513-2.203,0.712-5.054,0.448-7.386c-0.249-2.219-2.033-4.521-3.398-6.185c-0.938-1.143-2.209-2.745-3.905-2.271
	c-1.924,0.535-1.937,2.609-4.282,2.603c-2.186-0.006-4.881,0.365-6.951-0.322c-1.015-0.338-1.622-1.03-2.357-1.692
	c-0.763-0.686-1.598-0.807-2.253-1.296L174.034,78.387L174.034,78.387z"/>
<path fill="#DAB27F" d="M158.9,100.258c0-2.285,0-4.569,0-6.854c0-2.865,0.989-5.118,2.571-7.452
	c1.286-1.897,2.804-3.825,3.814-5.788c0.708-1.374,0.987-2.109,1.063-3.642c0.053-1.058,0.429-2.464-0.201-3.372
	c-0.624-0.896-1.982-1.156-2.874-1.504c-1-0.391-1.614-0.87-2.335-1.685c-0.687-0.778-1.327-1.569-0.857-2.695
	c0.393-0.939,1.422-1.156,2.004-1.863c0.372-0.453,0.668-2.175,0.366-2.987c-0.262-0.713-1.229-1.402-1.629-2.12
	c-0.46-0.829-1.469-2.171-1.213-3.192c0.195-0.785,1.226-1.516,2.086-1.285c0.107,0.898-0.188,2.083,0.129,2.941
	c0.265,0.715,1.175,1.434,1.692,2.001c0.917,1.008,4.783,1.31,4.252,3.557c-0.492,2.086-4.452,1.066-4.497,3.428
	c-0.032,1.576,1.66,0.817,2.487,0.848c1.277,0.05,2.224,0.814,2.93,1.777c0.249,0.341,0.062,0.321,0.476,0.467
	c0.478,1.917,1.521,4.702,0.287,6.627c-1.337,2.084-2.684,3.954-3.546,6.39c-0.738,2.08-0.133,4.808-0.267,7.062
	c-0.072,1.21-0.434,1.932-1.538,2.246c-0.904,0.258-1.56-0.013-2.278,0.8c-1.22,1.377-0.419,4.084-0.322,5.704
	c0.054,0.935,0.349,2.342-0.946,2.244c-0.75-0.054-1.682-1.299-1.774-2.008L158.9,100.258L158.9,100.258z"/>
<path fill="#DAB27F" d="M170.606,43.036c1.736-2.026,4.201,2.35,5.408,3.073c2.206,1.321,4.576-0.565,6.794-0.59
	c1.074-0.013,2.263,0.136,3.29-0.116c0.981-0.239,1.398-1.037,2.267-1.392c2.308-0.939,3.236,2.281,4.379,3.605
	c0.662,0.771,1.482,1.405,1.86,2.401c0.501,1.317,0.202,2.962,0.12,4.377c-0.144,2.462-0.111,5.052-0.354,7.556
	c-0.246,2.502-2.027,4.254-2.599,6.623c-0.545,2.25-0.346,4.63-1.805,6.47c-1.803,2.278-4.096,2.651-6.831,2.518
	c-3.419-0.166-5.795-1.403-7.941-4.012c-1.036-1.261-1.645-2.54-2.457-3.885c-0.605-1-1.484-1.917-1.989-2.975
	c-1.131-2.376-0.618-5.796-0.618-8.398c0-2.454,0-4.907,0-7.361c0-2.629,0.338-5.118,0.475-7.658V43.036L170.606,43.036z
	 M179.946,49.774c-1.519-0.211-3.038-0.236-4.619-0.236c-0.439,0-1.849-0.221-2.156,0.083c-0.744,0.738,0.432,1.412,0.633,1.688
	c0.463,0.636,0.333,0.671,1.058,0.948c0.598,0.23,1.591,0.11,2.246,0.117c1.611,0.023,2.339-0.883,2.956-2.246L179.946,49.774
	L179.946,49.774z M183.965,49.538c-0.93-0.231-1.554,0.624-0.86,1.333c0.549,0.561,1.925,0.145,2.635,0.346
	c0.904,0.255,1.311,1.115,2.267,1.276c1.332,0.227,1.414-0.371,2.252-1.039c0.598-0.475,1.594-0.404,1.037-1.538
	c-0.39-0.794-1.397-0.724-2.13-0.732C187.354,49.162,185.776,49.538,183.965,49.538L183.965,49.538z M176.043,53.203
	c-0.303-0.025-1.983,0.521-2.13,0.702c-0.546,0.667-0.01,0.417,0.356,0.718c0.144,0.116,0.514-0.089,0.687,0.023
	c0.193,0.127,0.154,0.425,0.289,0.541c0.592,0.501,0.87,1.381,1.745,0.828c0.407-0.259,1.288-1.661,1.16-2.08
	c-0.687-0.233-1.198-0.656-1.869-0.967L176.043,53.203L176.043,53.203z M187.748,53.676c-1.751,0-2.394,0.037-2.127,2.01
	c0.146,1.097,0.201,1.072,1.301,1.182c0.584,0.059,1.566,0.16,2.127,0c0.959-0.272,0.593-0.552,1.035-1.208
	c0.278-0.412,1.304-0.968,1.213-1.515c-0.164-0.984-2.897-0.587-3.666-0.587L187.748,53.676L187.748,53.676z M179,57.814
	c-0.39,0.855-1.5,2.914-0.237,3.643c0.813,0.469,1.15-0.286,1.419-0.687c0.193-0.289,0.604-1.25,0.57-1.636
	c-0.703-0.292-0.51-1.232-1.397-1.203L179,57.814L179,57.814z M182.546,58.286c0,2.156-0.217,3.161,2.228,3.057
	c0.22-0.908-0.429-3.229-1.638-3.057H182.546L182.546,58.286z M181.837,62.307c-0.977,0-1.969-0.032-2.938,0.018
	c-0.229,1.058,0.309,1.468,1.189,1.783c0.639,0.227,2.186,0.659,2.82,0.563c0.883-0.133,1.696-1.283,1.055-2.036
	c-0.517-0.605-1.966-0.327-2.717-0.327H181.837L181.837,62.307z M182.31,67.863c-0.981,0-1.976-0.045-2.955,0
	c-1.261,0.059-1.507,0.193-1.538,1.51c-0.051,2.152,1.667,2.865,3.549,2.865c1.688,0,4.053-0.422,4.252-2.484
	c0.214-2.222-2.25-2.008-3.782-2.008L182.31,67.863L182.31,67.863z"/>
<path fill="#DAB27F" d="M165.286,52.494c-1.528,0.321-2.385,2.871-2.011,4.261c0.229,0.85,1.939,2.723,2.956,2.713
	c2.301-0.019-0.127-2.099-0.36-3.073c-0.176-0.732,0.543-4.395-0.703-3.784L165.286,52.494L165.286,52.494z"/>
<path fill="#DAB27F" d="M163.512,43.863c-0.631,1.14-0.302,2.71-0.372,4.002c-1.663-0.086-2.958,0.664-3.057,2.382
	c-0.035,0.589-0.417,1.871-0.236,2.364c0.393,1.071,1.512,0.341,2.007-0.239c0.659-0.776,0.976-1.258,1.685-1.879
	c0.645-0.565,1.176-1.424,1.368-2.256c0.256-1.107,0.331-5.098-1.513-4.729L163.512,43.863L163.512,43.863z"/>
<path fill="#DAB27F" d="M173.442,32.985c-2.203,0.016-7.661,2.155-7.667,4.831c2.045,0.416,1.242,3.009,3.293,2.972
	c2.083-0.035,1.373-2.814,3.454-2.013c0.804,0.309,1.232,1.053,2.076,0.214c0.577-0.573,0.381-1.453,0.381-2.221
	c0-1.879,0.086-2.76-1.654-3.784H173.442L173.442,32.985z"/>
<path fill="#DAB27F" d="M178.053,32.395c-1,0-2.391-0.333-2.604,0.938c-0.188,1.121,1.085,1.648,1.201,2.707
	C179.9,37.693,180.067,32.01,178.053,32.395L178.053,32.395z"/>
<path fill="#DAB27F" d="M184.438,30.74c-1.311,0.396-1.271,0.85-1.983,1.68c-0.845,0.989-1.093,0.75-1.091,2.313
	c0,0.876-0.362,2.328-0.12,3.1c0.407,1.304,2.169,1.044,2.928,0.092c0.728-0.913,0.155-2.005,1.063-2.722
	c0.971-0.766,1.622-0.064,2.368,0.508c2.486,1.91,3.028-0.97,2.387-2.988c-0.39-1.232-0.789-1.909-2.242-2.102
	c-0.992-0.132-2.765-0.217-3.664,0.119H184.438L184.438,30.74z"/>
<path fill="#DAB27F" d="M194.725,34.05c-2.174,2.282,2.692,3.628,1.037,6.003c-0.691,0.99-1.904,0.258-2.725,0.825
	c-0.583,0.401-1.028,1.648-0.595,2.309c0.624,0.946,1.939,0.012,2.672,0.886c0.677,0.807-0.047,2.026,1.292,2.512
	c1.588,0.58,1.122-0.844,1.711-1.685c0.56-0.797,1.471-0.923,1.811-1.98c0.381-1.188-0.073-2.162-0.501-3.192
	c-0.428-1.031-0.29-2.12-0.835-3.054c-0.858-1.479-2.355-1.638-3.633-2.624H194.725L194.725,34.05z"/>
<path fill="#DAB27F" d="M176.99,39.488c1.008,0.037,1.507,1.258,2.626,1.419c0.841,0.12,2.47,0.208,3.258-0.119
	c0.882-0.365,1.324-1.403,2.268-1.654c1.14-0.303,2.502-0.031,2.87,0.918c0.414,1.072,0.047,1.818-0.973,2.038
	c-0.453,0.095-0.962-0.086-1.418,0c-0.533,0.1-0.886,0.441-1.393,0.623c-0.911,0.325-2.001,0.207-3.009,0.204
	c-1.119-0.003-1.705,0.407-2.692,0.59c-0.807,0.151-1.178-0.019-1.69-0.472c-0.146-0.13-0.28-0.628-0.438-0.828
	c-0.18-0.227-0.546-0.357-0.713-0.589c-0.669-0.933-0.038-3.012,1.422-2.249L176.99,39.488L176.99,39.488z"/>
<path fill="#DAB27F" d="M201.226,48.237c-2.581-1.98-4.995,3.209-2.836,3.908c0.899,0.292,3.354,0.12,3.867-0.624
	c1.046-1.521-0.967-2.178-1.148-3.284H201.226L201.226,48.237z"/>
<path fill="#DAB27F" d="M200.045,54.504c-1.898,1.091-2.127,2.231-0.267,3.454c0.715,0.472,1.98,1,1.544,2.105
	c-0.272,0.681-1.497,0.992-2.01,1.506c-3.425,3.426,8.531,7.972,6.196,2.147c-0.401-0.996-0.973-1.446-1.09-2.591
	c-0.158-1.54,0.029-1.601-1.037-2.723c-1.069-1.119-1.983-2.534-3.337-3.543V54.504L200.045,54.504z"/>
<path fill="#DAB27F" d="M197.561,66.8c-0.926,1.692,0.059,4.122-1.33,5.646c-0.51,0.56-1.6,0.861-1.957,1.477
	c-0.369,0.636-0.188,2.225,0.48,2.662c0.899,0.586,1.427-0.502,2.13-0.819c1.184-0.532,2.385,0.167,3.369-1.012
	c0.674-0.806,0.606-1.526,1.438-2.045c0.952-0.589,1.84-0.494,1.781-2.004c-0.064-1.648-1.433-1.942-2.575-2.512
	c-1.075-0.536-1.594-1.854-2.979-1.274L197.561,66.8L197.561,66.8z"/>
<path fill="#DAB27F" d="M186.567,165.286c3.083,3.082,5.767,2.684,8.512,1.063l83.232-3.7v40.942H93.639l-0.001-41.125
	L186.567,165.286L186.567,165.286z"/>
<path fill="#BF615C" d="M182.31,152.515c4.966,1.184,7.803,3.784,7.803,3.784c2.599-5.675,5.438-2.6,5.438-2.6
	c5.203,5.202,13.005-1.657,13.005-1.657c-3.308,3.311,79.45-11.821,79.45-11.821v18.68c-7.564,2.602-79.213,1.655-79.213,1.655
	c0,4.02-5.912,4.02-13.714,2.6c-4.02,4.021-6.621,0-6.621,0L83.707,158.9v-18.68C87.964,141.403,154.172,151.113,182.31,152.515
	L182.31,152.515z M85.598,144.832c-0.602,2.187,0.974,2.84,2.684,3.312c2.461,0.68,4.263,1.652,6.92,1.652
	c1.178,0,2.575-0.212,3.671,0.207c1.087,0.417,1.734,1.446,2.914,1.688c2.212,0.456,4.077-0.691,6.275-0.593
	c2.435,0.108,5.539-0.29,7.83,0.473c1.104,0.368,2.014,1.062,3.157,1.184c1.304,0.141,2.253,0.086,3.457,0.62
	c1.125,0.498,2.317,1.418,3.527,1.627c1.208,0.211,2.648,0.117,3.873,0.116c2.769-0.003,5.537,0.025,8.306,0
	c3.855-0.035,0.886-3.045-1.419-3.075c-2.641-0.029-4.964,0.035-7.441-0.709c-2.033-0.611-4.239-0.709-6.391-0.709
	c-2.379,0-4.258-0.215-6.385-1.156c-2.07-0.916-3.984-0.333-6.114-0.759c-2.169-0.435-4.172-1.743-6.391-1.843
	c-1.146-0.051-2.868-0.495-3.933-0.117c-0.52,0.183-0.778,0.541-1.296,0.708c-0.596,0.195-1.293,0.092-1.916,0.092
	c-2.333,0-4.603,0.268-6.71-0.735c-1.318-0.627-3.56-2.092-4.969-2.102L85.598,144.832L85.598,144.832z M87.372,151.806
	c-2.391-1.79-2.708,3.044-0.586,4.141c2.793,1.44,6.724,0.792,9.813,0.943c5.515,0.27,11.109,0.101,16.655,0.349
	c5.938,0.265,11.81,1.352,17.711,1.891c2.689,0.246,5.47-0.154,8.161,0.122c2.681,0.275,5.262,0.713,7.978,0.713
	c2.936,0,5.927-0.152,8.811-0.12c3.048,0.035,6.108,0.5,9.236,0.337c-0.475-2.061-4.633-1.269-6.253-1.282
	c-1.516-0.013-2.771-0.243-4.22-0.593c-1.531-0.372-3.174-0.236-4.762-0.236c-2.613,0-5.37,0.236-7.922-0.24
	c-2.42-0.453-4.822-0.467-7.33-0.467c-2.388,0-4.427-0.27-6.649-0.801c-2.342-0.563-4.9-0.382-7.332-0.497
	c-1.172-0.056-2.553-0.034-3.621-0.445c-1.293-0.497-2.249-1.232-3.68-1.449c-2.732-0.417-5.733-0.119-8.506-0.119
	c-1.547,0-3.199,0.174-4.736,0c-1.616-0.183-2.94-1.226-4.518-1.655c-1.608-0.438-3.136-0.473-4.818-0.473
	c-0.958,0-3.52,0.464-4.024-0.473L87.372,151.806L87.372,151.806z M144.832,150.979c-1.091,0.009-2.102,0.188-2.363,1.679
	c-0.277,1.595,0.677,2.051,2.152,2.105c3.144,0.116,6.349-0.192,9.461,0.092c2.739,0.249,5.338,1.157,8.093,1.441
	c0.505,0.053,1.195,0.015,1.683,0.148c0.935,0.256,1.166,0.905,1.898,1.381c1.039,0.674,2.837,0.855,4.037,1.22
	c1.666,0.504,6.788,1.336,8.023-0.237c1.764-2.249-2.621-3.674-4.282-3.836c-1.266-0.123-2.572,0.016-3.85-0.091
	c-1.547-0.132-2.881-0.836-4.283-1.393c-3-1.189-6.037-0.971-9.25-0.973c-2.273,0-3.929-0.495-6.031-1.27
	c-2.054-0.759-3.621-0.174-5.646-0.384L144.832,150.979L144.832,150.979z M203.118,157.6c-0.826-0.665-5.769-0.595-6.976-0.215
	c-0.976,0.306-1.685,1.449-1.072,2.344c0.744,1.093,2.517,1.182,3.677,1.182c2.924,0,4.989-0.117,7.207-2.131
	c0.606-0.552,1.222-1.395,2.007-1.629c1.04-0.309,2.604-0.023,3.697-0.023c2.438,0,4.96-0.188,7.392,0
	c3.419,0.264,6.823,0.65,10.315,0.476c2.871-0.144,5.833-0.12,8.745-0.12c0.688,0,3.009,0.16,3.082-0.826
	c0.059-0.782-2.35-1.912-2.985-2.108c-0.545-0.167-1.189-0.035-1.749-0.141c-0.785-0.148-0.759-0.208-1.421-0.598
	c-1.225-0.721-2.194-0.898-3.636-0.82c-2.856,0.151-5.745,0.117-8.625,0.117c-2.546,0-4.629-0.192-6.867,0.911
	c-2.476,1.22-4.556,1.217-7.348,1.217c-1.148,0-2.481-0.25-3.434,0.352c-0.665,0.422-1.758,1.274-2.247,1.896L203.118,157.6
	L203.118,157.6z M246.27,154.289c-0.694-0.39-1.289,0.095-0.943,0.828c0.34,0.719,1.134,0.473,1.86,0.473
	c1.594,0,3.188-0.041,4.758-0.117c1.646-0.081,2.997-0.627,4.608-0.826s3.287-0.454,4.857-0.602c1.611-0.152,2.73,0.42,4.23,0.697
	s3.114-0.126,4.518-0.577c2.303-0.737,4.611-1.534,7.09-1.767c1.28-0.122,2.558-0.264,3.791-0.501
	c0.791-0.154,2.78,0.123,3.284-0.59c0.706-0.996-0.176-2.083-1.046-2.218c-1.113-0.174-2.08,0.337-3.067,0.589
	c-2.253,0.577-4.854,0.407-7.181,0.716c-1.477,0.196-2.851,0.277-4.307,0.608c-1.705,0.387-3.337,0.898-5.068,1.069
	c-3.185,0.316-6.563,0.029-9.668,0.557c-1.412,0.24-2.446,1.005-3.75,1.513c-1.351,0.524-2.982,0.615-4.438,0.621L246.27,154.289
	L246.27,154.289z M243.788,150.151c-1.178,0-2.294-0.047-3.41,0.258c-0.407,1.994,6.888,0.917,7.843,0.419
	c2.886-1.497,6.015-0.19,9.076-0.819c1.301-0.267,2.235-1.406,3.539-1.726c1.151-0.28,2.695-0.023,3.873-0.023
	c1.371,0,2.798-0.119,4.163-0.003c0.879,0.076,1.685,0.475,2.584,0.363c0.674-0.083,1.245-0.437,2.016-0.478
	c1.679-0.094,3.41,0.258,4.96-0.441c1.283-0.58,1.898-1.304,3.439-1.216c1.078,0.062,3.05,0.936,3.8,0.123
	c1.02-1.109-0.053-2.229-1.222-2.467c-2.467-0.502-4.972,1.055-7.438,1.162c-2.637,0.114-5.206,0.473-7.919,0.473
	c-1.245,0-2.511-0.059-3.759,0c-1.143,0.054-2.024,0.488-3.094,0.715c-1.049,0.224-2.139,0.064-3.173,0.469
	c-0.891,0.347-1.629,0.757-2.514,1.085c-1.061,0.393-2.212,1.137-3.308,1.406c-0.923,0.226-2.235-0.01-3.19-0.01
	c-2.112,0-4.33,0.536-6.384,0.354L243.788,150.151L243.788,150.151z M284.695,153.58c-2.306-0.933-5.61,0.157-7.682,0.948
	c-1.216,0.464-2.563,0.286-3.873,0.353c-1.324,0.066-2.253,0.601-3.489,0.974c-0.53,0.161-1.134-0.136-1.16,0.563
	c-0.023,0.612,0.999,0.946,1.395,1.061c1.087,0.316,2.561,0.157,3.7,0.122c2.581-0.079,4.916-1.414,7.471-1.537
	c1.351-0.066,4.623,0.631,5.619-0.259c1.995-1.784-1.21-2.224-2.332-2.224H284.695L284.695,153.58z"/>
<path fill="#499F2A" d="M181.069,143.117l0.176-2.128c-1.431-15.141-7.831-30.032-17.684-41.512
	c-9.668-11.265-21.904-20.9-35.807-26.303c-5.832-2.266-12.089-4.062-18.174-5.508c-4.263-1.014-8.981-1.982-13.349-1.036
	c-5.729,1.241-9.338,7.104-5.209,12.125c2.083,2.534,6.646,5.42,9.886,6.016c31.125,4.167,57.814,17.379,73.775,57.99
	L181.069,143.117L181.069,143.117z"/>
<path fill="#6AB023" d="M105.343,76.613c-0.902,0.633-1.922,1.137-2.848,1.778c-0.609,0.423-2.389,1.296-2.836,1.765
	c-2.587,2.71,2.326,2.842,3.91,2.842c2.641,0,3.954,0.249,5.272-2.174c1.251-2.301-1.235-3.683-3.321-4.389L105.343,76.613
	L105.343,76.613z"/>
<path fill="#6AB023" d="M112.57,78.341c-1.562,1.387-3.633,3.253-3.296,5.511c1.049,0.413,2.527,0.876,3.693,0.741
	c1.674-0.195,1.433-0.775,1.953-2.128c0.417-1.093,1.074-1.644,0.357-2.875c-0.442-0.766-1.819-1.683-2.486-1.38L112.57,78.341
	L112.57,78.341z"/>
<path fill="#6AB023" d="M118.998,80.868c-1.651,0.242-2.783,3.064-2.127,4.611c0.498,1.175,3.542,1.784,4.966,1.96
	c2.43,0.302,3.261-1.901,2.357-3.954c-0.734-1.666-2.836-2.67-4.487-2.618H118.998L118.998,80.868z"/>
<path fill="#6AB023" d="M128.396,83.883c-1.833,0.073-3.154,2.955-2.84,4.611c0.448,2.38,3.205,1.865,5.146,1.774
	C135.712,90.032,131.416,83.654,128.396,83.883L128.396,83.883z"/>
<path fill="#6AB023" d="M138.226,88.953c-4.834-0.409-3.363,5.21,0.111,6.116c1.843,0.48,4.137,0.335,3.365-2.143
	c-0.412-1.321-2.14-2.634-3.018-3.722L138.226,88.953L138.226,88.953z"/>
<path fill="#6AB023" d="M145.614,94.894c-1.296,0.189-2.59,0.267-3.029,1.581c-0.52,1.56,1.16,2.862,2.483,3.154
	c2.584,0.57,3.598-3.933,1.063-4.749L145.614,94.894L145.614,94.894z"/>
<path fill="#6AB023" d="M148.969,99.489c-1.217,1.658,1.916,5.688,3.747,4.229c0.731-0.582-0.167-2.739-0.595-3.297
	C151.289,99.33,150.264,99.013,148.969,99.489L148.969,99.489z"/>
<path fill="#6AB023" d="M155,104.722c-1.544,1.063-0.378,6.312,2.171,4.393c1.605-1.207,0.68-5.092-1.816-4.66L155,104.722
	L155,104.722z"/>
<path fill="#6AB023" d="M159.964,110.131c-0.161,1.679,2.323,5.574,4.191,5.291c0.539-1.749-2.137-5.287-3.895-5.232
	L159.964,110.131L159.964,110.131z"/>
<path fill="#6AB023" d="M165.64,117.579c-0.179,1.359,1.103,6.362,2.487,7.093c1.604,0.85,1.167-1.605,0.842-2.832
	c-0.328-1.238-1.663-4.292-3.211-4.172L165.64,117.579L165.64,117.579z"/>
<path fill="#6AB023" d="M98.648,76.125c-0.869-0.252-3.684-0.337-4.487,0.125c-1.104,0.634-0.946,3.378-0.035,4.273
	c2.672,2.626,4.257-2.861,4.655-4.264L98.648,76.125L98.648,76.125z"/>
<path fill="#6AB023" d="M96.476,68.455c-2.65,1.201-5.251,2.093-5.117,5.303c1.46-0.123,3.041,0.195,4.554,0.195
	c0.888,0,4.044,0.564,4.649,0.186c1.44-0.898-2.382-6.737-4.087-6.038V68.455L96.476,68.455z"/>
<path fill="#6AB023" d="M100.866,68.47c-0.274-0.041,0.085,0.23-0.182,0.264c-0.552,3.39,5.752,6.047,8.533,5.902
	c0.167-1.833-2.329-3.753-3.56-4.938C104.685,68.758,101.407,65.446,100.866,68.47L100.866,68.47z"/>
<path fill="#6AB023" d="M110.486,70.052c0.006,1.729-0.023,2.941,1.02,4.299c0.608,0.791,2.745,3.116,3.822,2.313
	c2.202-1.639-3.022-8.474-4.708-6.923L110.486,70.052L110.486,70.052z"/>
<path fill="#6AB023" d="M120.063,72.712c-0.7,0.001-0.702,0.167-1.389,0.208c-0.863,1.975,0.737,3.456,1.707,4.938
	c0.659,1.009,0.633,1.455,1.805,1.77c0.429,0.114,3.075,0.256,3.387-0.028c1.236-1.121-0.211-3.949-1.037-4.761
	C123.167,73.496,121.124,74.051,120.063,72.712L120.063,72.712z"/>
<path fill="#6AB023" d="M127.512,76.229c0,3.013,0.287,3.453,2.136,5.656c1.047,1.247,4.516,3.741,4.78,0.58
	c0.157-1.882-2.391-3.333-3.508-4.616c-0.601-0.69-3.658-4.223-3.407-1.236V76.229L127.512,76.229z"/>
<path fill="#6AB023" d="M136.024,81.047c0.026,2.505,1.056,3.867,2.61,5.684c0.779,0.911,2.462,3.221,3.92,2.801
	c1.472-2.331,0.403-5.068-1.345-6.751C140.06,81.672,136.491,77.93,136.024,81.047L136.024,81.047z"/>
<path fill="#6AB023" d="M145.6,87.608c-0.321,3.464,1.928,7.916,5.47,8.307c-0.157-2.941,0.683-3.924-1.343-6.396
	C149.114,88.771,144.785,84.407,145.6,87.608L145.6,87.608z"/>
<path fill="#6AB023" d="M152.871,92.928c0,1.614-0.037,3.086,0.177,4.603c0.182,1.286,2.131,3.79,3.688,2.234
	c2.388-2.385-2.042-6.29-3.693-7.528C152.808,92.473,152.895,92.628,152.871,92.928L152.871,92.928z"/>
<path fill="#6AB023" d="M159.299,100.154c0,1.167-0.275,8.919,2.448,7.506c1.45-0.753,0.851-8.396-2.314-7.638L159.299,100.154
	L159.299,100.154z"/>
<path fill="#6AB023" d="M164.93,108.003c-0.722,1.358-1.093,5.817,1.271,6.082c1.392,0.155,1.603-2.291,1.176-3.388
	c-0.404-1.036-1.655-1.781-2.269-2.577L164.93,108.003L164.93,108.003z"/>
<path fill="#6AB023" d="M168.33,114.268c-2.125,2.014,1.421,7.714,3.699,4.95c2.243-2.722-2.073-6.574-3.611-5.038L168.33,114.268
	L168.33,114.268z"/>
<polygon points="130.526,167.413 130.526,174.419 113.5,174.419 113.5,180.092 129.018,180.092 129.018,185.767 113.5,185.767 
	113.5,192.949 130.526,192.949 130.526,199.689 104.988,199.689 104.988,167.413 130.526,167.413 "/>
<polygon points="146.043,167.413 146.043,192.949 161.738,192.949 161.738,199.689 137.619,199.689 137.619,167.413 
	146.043,167.413 "/>
<path d="M196.805,189.311c-2.306,6.069-8.152,10.378-14.997,10.378c-8.864,0-16.049-7.225-16.049-16.138
	c0-8.912,7.185-16.138,16.049-16.138c6.444,0,12,3.819,14.555,9.331l-8.115,2.492c-1.144-3.407-3.598-5.764-6.439-5.764
	c-3.935,0-7.125,4.513-7.125,10.08s3.19,10.078,7.125,10.078c3.138,0,5.801-2.868,6.75-6.855L196.805,189.311L196.805,189.311z"/>
<polygon points="211.395,167.413 211.395,180.092 224.074,180.092 224.074,167.413 232.676,167.413 232.676,199.689 
	224.074,199.689 224.074,185.767 211.395,185.767 211.395,199.689 202.881,199.689 202.881,167.413 211.395,167.413 "/>
<polygon points="266.725,167.413 266.725,174.419 249.7,174.419 249.7,180.092 265.219,180.092 265.219,185.767 249.7,185.767 
	249.7,192.949 266.725,192.949 266.725,199.689 241.189,199.689 241.189,167.413 266.725,167.413 "/>
<path d="M235.274,422.789v12.768H136.2v-12.768h7.094v-47.531h-15.133l57.696-27.665l58.169,27.665h-16.078v47.531H235.274
	L235.274,422.789z M203.355,422.789v-8.514h-35.47v8.514H203.355L203.355,422.789z"/>
<polygon fill="#DBC188" points="225.82,399.557 225.82,375.258 145.896,375.258 145.896,399.557 225.82,399.557 "/>
<polygon fill="#DBC188" points="138.105,424.23 138.105,434.115 233.367,434.115 233.367,424.23 138.105,424.23 "/>
<polygon fill="#DBC188" points="148.939,422.789 165.757,422.789 165.757,414.275 161.974,414.275 161.974,417.114 160.32,417.114 
	158.871,417.114 158.871,418.503 156.063,418.503 156.063,419.921 153.226,419.921 153.226,421.339 148.969,421.339 
	148.939,422.789 "/>
<polygon fill="#DBC188" points="222.51,422.789 205.69,422.789 205.69,414.275 209.476,414.275 209.476,417.114 211.128,417.114 
	212.578,417.114 212.578,418.503 215.385,418.503 215.385,419.921 218.221,419.921 218.221,421.339 222.478,421.339 222.51,422.789 
	"/>
<polygon fill="#DBC188" points="119.175,397.251 127.925,397.251 127.925,424.207 119.175,424.207 119.175,397.251 "/>
<polygon fill="#DBC188" points="264.832,355.869 273.583,355.869 273.583,382.825 264.832,382.825 264.832,355.869 "/>
<path fill="#DBC188" d="M111.76,365.982c-0.939-2.599-2.931-4.395-5.237-4.395c-3.207,0-5.807,3.475-5.807,7.758
	c0,4.286,2.6,7.761,5.807,7.761c2.643,0,4.872-2.355,5.577-5.581l7.377,1.934c-1.752,5.435-6.889,9.366-12.954,9.366
	c-7.507,0-13.595-6.032-13.595-13.479c0-7.441,6.088-13.477,13.595-13.477c5.625,0,10.453,3.384,12.521,8.212L111.76,365.982
	L111.76,365.982z"/>
<path fill="#DBC188" d="M247.772,419.241l-1.878,4.966h-7.093l10.189-26.956h8.868l10.189,26.959h-7.093l-1.881-4.978
	L247.772,419.241L247.772,419.241z M257.2,414.275l-3.776-9.987l-3.773,9.987H257.2L257.2,414.275z"/>
<polygon fill="#DBC188" points="179.71,404.344 184.084,404.344 184.084,412.62 188.693,412.62 188.693,404.344 192.832,404.344 
	192.832,412.62 197.206,412.62 197.206,404.344 201.346,404.344 201.346,412.62 205.603,412.62 205.603,404.344 209.739,404.344 
	209.739,412.62 213.759,412.62 213.759,404.344 218.133,404.344 218.133,412.62 220.734,412.62 220.734,404.344 223.099,404.344 
	223.099,412.62 225.82,412.62 225.82,401.508 145.896,401.508 145.896,412.62 148.969,412.62 148.969,404.344 151.806,404.344 
	151.806,412.62 154.525,412.62 154.526,404.344 158.9,404.344 158.9,412.62 163.039,412.62 163.039,404.344 167.295,404.344 
	167.294,412.62 171.671,412.62 171.669,404.344 175.808,404.344 175.808,412.62 179.708,412.62 179.71,404.344 "/>
<polygon fill="#DBC188" points="234.756,373.046 185.895,349.808 137.43,373.046 144.713,373.046 144.713,371.004 147.551,371.004 
	147.551,373.046 151.806,373.046 151.806,368.877 155.944,368.877 155.944,373.046 160.32,373.046 160.32,364.737 163.039,364.737 
	163.039,373.046 167.413,373.046 167.413,363.437 170.25,363.437 170.25,373.046 174.507,373.046 174.507,360.48 177.344,360.48 
	177.344,373.046 181.601,373.046 181.601,356.106 184.438,356.106 184.438,373.046 188.813,373.046 188.813,357.642 
	191.414,357.642 191.414,373.046 195.671,373.046 195.671,360.48 198.507,360.48 198.507,373.046 202.764,373.046 202.764,363.316 
	205.603,363.316 205.603,373.046 209.859,373.046 209.859,366.038 212.695,366.038 212.695,373.046 216.952,373.046 
	216.952,369.703 219.908,369.703 219.908,373.046 234.756,373.046 "/>
</svg>
