<?xml version="1.0" encoding="UTF-8" standalone="no"?>
<!-- Generator: Adobe Illustrator 15.0.2, SVG Export Plug-In . SVG Version: 6.00 Build 0)  -->

<svg
   xmlns:dc="http://purl.org/dc/elements/1.1/"
   xmlns:cc="http://creativecommons.org/ns#"
   xmlns:rdf="http://www.w3.org/1999/02/22-rdf-syntax-ns#"
   xmlns:svg="http://www.w3.org/2000/svg"
   xmlns="http://www.w3.org/2000/svg"
   xmlns:xlink="http://www.w3.org/1999/xlink"
   xmlns:sodipodi="http://sodipodi.sourceforge.net/DTD/sodipodi-0.dtd"
   xmlns:inkscape="http://www.inkscape.org/namespaces/inkscape"
   version="1.1"
   id="Capa_1"
   x="0px"
   y="0px"
   width="146.63"
   height="258.06"
   viewBox="0 0 146.63 258.06"
   enable-background="new 0 0 841 595"
   xml:space="preserve"
   inkscape:version="0.48.4 r9939"
   sodipodi:docname="cordobacf-otoño.svg"><metadata
   id="metadata87"><rdf:RDF><cc:Work
       rdf:about=""><dc:format>image/svg+xml</dc:format><dc:type
         rdf:resource="http://purl.org/dc/dcmitype/StillImage" /></cc:Work></rdf:RDF></metadata><defs
   id="defs85" /><sodipodi:namedview
   pagecolor="#ffffff"
   bordercolor="#666666"
   borderopacity="1"
   objecttolerance="10"
   gridtolerance="10"
   guidetolerance="10"
   inkscape:pageopacity="0"
   inkscape:pageshadow="2"
   inkscape:window-width="1920"
   inkscape:window-height="1018"
   id="namedview83"
   showgrid="false"
   fit-margin-top="0"
   fit-margin-left="0"
   fit-margin-right="0"
   fit-margin-bottom="0"
   inkscape:zoom="3.1039293"
   inkscape:cx="73.315002"
   inkscape:cy="129.03"
   inkscape:window-x="-8"
   inkscape:window-y="-8"
   inkscape:window-maximized="1"
   inkscape:current-layer="Capa_1" />
<path
   d="m 73.282493,255.23792 c -0.213,0 -0.352,-0.188 -0.374,-0.26 L 2.5104934,56.987935 c -0.04,-0.094 -0.101,-0.315 -0.101,-0.649 0,-1.127 0.89,-1.986 1.923,-1.986 H 142.2765 c 1.034,0 1.924,0.859 1.924,1.986 0,0.333 -0.062,0.554 -0.101,0.648 L 73.662493,254.94192 c -0.054,0.171 -0.216,0.296 -0.38,0.296 z"
   id="path3"
   inkscape:connector-curvature="0"
   style="fill:#ffffff" />
<path
   d="m 75.479493,255.56792 c -0.307,0.922 -1.172,1.591 -2.196,1.591 -1.022,0 -1.92,-0.663 -2.196,-1.581 L 0.72249347,57.681935 c -0.176,-0.418 -0.231,-0.871 -0.231,-1.343 0,-2.158 1.71999993,-3.906 3.84299993,-3.906 H 142.2785 c 2.123,0 3.843,1.748 3.843,3.906 0,0.472 -0.055,0.924 -0.231,1.343 L 75.479493,255.56792 z m -2.197,-0.33 c 0.164,0 0.325,-0.126 0.381,-0.296 L 144.1005,56.986935 c 0.039,-0.094 0.101,-0.315 0.101,-0.648 0,-1.127 -0.89,-1.986 -1.924,-1.986 H 4.3334934 c -1.034,0 -1.923,0.859 -1.923,1.986 0,0.333 0.061,0.555 0.101,0.649 L 72.909493,254.97792 c 0.021,0.072 0.161,0.26 0.373,0.26 z"
   id="path5"
   inkscape:connector-curvature="0"
   style="fill:#016139" />
<path
   d="m 62.210493,173.62893 c 4.041,-3.789 9.463,-5.149 14.486,-4.141 -9.373,4.272 -13.797,15.904 -13.483,21.914 -2.673,-0.191 -4.888,-1.239 -6.167,-3.803 -0.553,-5.031 1.193,-10.246 5.164,-13.97 z m 16.747,-3.516 c 2.411,0.857 4.657,2.296 6.52,4.308 l 0.164,0.18 c -3.633,1.527 -5.228,5.247 -5.714,8.008 -3.868,2.71 -5.579,6.029 -5.865,10.582 -3.098,2.062 -7.932,0.664 -9.371,-1.299 -0.663,-5.575 4.083,-18.291 14.266,-21.779 z m 7.648,5.663 c 2.938,3.936 3.886,8.865 2.896,13.445 -1.793,-2.586 -4.436,-4.527 -8.091,-6.672 0.642,-2.957 2.179,-5.699 5.195,-6.773 z m 2.371,15.33 c -0.853,2.487 -2.307,4.808 -4.354,6.728 -0.464,0.436 -0.946,0.839 -1.444,1.21 -1.84,-3.543 -4.532,-5.033 -7.681,-6.016 0.253,-4.153 2.003,-6.896 5.228,-9.218 4.054,2.383 6.65,4.403 8.251,7.296 z m -7.257,8.908 c -6.511,3.854 -15.017,2.804 -20.365,-2.972 -1.719,-1.856 -2.934,-4.013 -3.647,-6.287 1.443,1.406 3.373,2.205 5.979,2.18 2.136,2.712 7.756,3.85 11.234,1.416 3.033,0.937 5.377,2.399 7.007,5.389 -0.062,0.092 -0.131,0.184 -0.208,0.274 z"
   id="path7"
   inkscape:connector-curvature="0"
   style="fill:#e0ad13" />
<polygon
   points="356.365,257.438 342.711,219.038 342.711,198.173 356.365,198.171 "
   id="polygon9"
   style="fill:#016139"
   transform="translate(-330.9925,-141.90807)" />
<polygon
   points="465.886,218.936 452.232,257.361 452.232,198.156 465.886,198.154 "
   id="polygon11"
   style="fill:#016139"
   transform="translate(-330.9925,-141.90807)" />
<path
   d="m 80.132493,231.13893 -6.824,19.205 -6.83,-19.208 v -28.409 c 2.144,0.873 4.489,1.354 6.946,1.354 2.366,0 4.629,-0.445 6.708,-1.258 v 28.316 z"
   id="path13"
   inkscape:connector-curvature="0"
   style="fill:#016139" />
<path
   d="m 66.479493,141.29392 c -0.852,-0.198 -1.785,-0.306 -2.819,-0.308 l -10.908,-0.003 v 51.548 l -13.654,-38.398 v -18.753 c -0.924,-1.62 -1.452,-3.492 -1.452,-5.491 l -0.013,-19.411 V 86.756935 l 0.013,-30.509 H 108.9685 v 73.639985 c 0,2 -0.529,3.875 -1.455,5.496 v 18.699 l -13.654007,38.425 v -51.525 l -10.804,0.002 c -1.02,0.009 -1.996,0.124 -2.922,0.35 v 27.139 c -2.079,-0.813 -4.341,-1.259 -6.708,-1.259 -2.458,0 -4.803,0.481 -6.946,1.354 v -27.275 z"
   id="path15"
   inkscape:connector-curvature="0"
   style="fill:#016139" />
<path
   d="m 62.190493,57.698935 h -23.095 l -0.013,27.589 h 14.365 c 4.667,0 8.739,-3.416 8.739,-7.964 l 0.004,-19.625 z"
   id="path17"
   inkscape:connector-curvature="0"
   style="fill:#ffffff" />
<path
   d="m 83.569493,80.620935 c -0.401,-1.008 -0.624,-2.111 -0.624,-3.287 l -0.004,-19.635 h -19.281 l -0.004,19.635 c 0,1.176 -0.223,2.279 -0.625,3.287 l -0.677,1.35 c -0.598,0.976 -1.377,1.831 -2.284,2.538 l -1.349,0.891 c -1.572,0.872 -3.393,1.358 -5.264,1.358 h -14.369 l -0.005,23.720985 h 14.374 c 1.872,0 3.692,0.486 5.264,1.358 l 1.349,0.891 c 0.859,0.669 1.603,1.472 2.188,2.384 l 0.71,1.349 c 0.441,1.049 0.688,2.205 0.688,3.441 l 0.004,19.634 c 3.6,0.011 6.125,1.204 8.216,2.839 l 1.42,1.109 1.425,-1.103 c 2.275,-1.762 5.122,-2.82 8.22,-2.845 l 0.004,-19.634 c 0,-1.237 0.246,-2.392 0.688,-3.441 l 0.71,-1.349 c 0.691,-1.079 1.606,-2.004 2.671,-2.738 l 1.35,-0.789 c 1.457,-0.713 3.097,-1.106 4.781,-1.106 H 107.5205 l -0.001,-23.720985 H 93.145493 c -1.684,0 -3.324,-0.393 -4.781,-1.106 l -1.35,-0.788 c -1.115,-0.769 -2.066,-1.748 -2.768,-2.893 l -0.677,-1.35 z"
   id="path19"
   inkscape:connector-curvature="0"
   style="fill:#ffffff" />
<path
   d="m 84.410493,57.698935 0.004,19.625 c 0,4.549 4.071,7.964 8.739,7.964 H 107.5175 l 0.001,-27.589 H 84.410493 z"
   id="path21"
   inkscape:connector-curvature="0"
   style="fill:#ffffff" />
<path
   d="m 84.414493,119.91193 -0.004,19.624 h 13.461 c 5.328007,0 9.647007,-4.319 9.647007,-9.646 l -0.001,-17.941 H 93.153493 c -4.667,-0.001 -8.739,3.414 -8.739,7.963 z"
   id="path23"
   inkscape:connector-curvature="0"
   style="fill:#ffffff" />
<path
   d="m 62.190493,139.53593 -0.004,-19.624 c 0,-4.548 -4.071,-7.964 -8.739,-7.964 h -14.365 l 0.013,17.941 c 0,5.328 4.319,9.646 9.647,9.646 h 13.448 z"
   id="path25"
   inkscape:connector-curvature="0"
   style="fill:#ffffff" />
<path
   d="m 61.326493,77.323935 c 0,3.98 -3.588,7.104 -7.879,7.104 h -13.504 l 0.012,-25.868 h 21.375 l -0.004,18.764 z"
   id="path27"
   inkscape:connector-curvature="0"
   style="fill:#ae1c2d" />
<path
   d="m 84.410493,57.698935 0.004,19.625 c 0,4.549 4.071,7.964 8.739,7.964 H 107.5175 l 0.001,-27.589 H 84.410493 z"
   id="path29"
   inkscape:connector-curvature="0"
   style="fill:#ffffff" />
<path
   d="m 84.414493,119.91193 -0.004,19.624 h 13.461 c 5.328007,0 9.647007,-4.319 9.647007,-9.646 l -0.001,-17.941 H 93.153493 c -4.667,-0.001 -8.739,3.414 -8.739,7.963 z"
   id="path31"
   inkscape:connector-curvature="0"
   style="fill:#ffffff" />
<path
   d="m 62.190493,139.53593 -0.004,-19.624 c 0,-4.548 -4.071,-7.964 -8.739,-7.964 h -14.365 l 0.013,17.941 c 0,5.328 4.319,9.646 9.647,9.646 h 13.448 z"
   id="path33"
   inkscape:connector-curvature="0"
   style="fill:#ffffff" />
<path
   d="m 106.6585,58.559935 -0.001,25.868 H 93.153493 c -4.291,0 -7.879,-3.123 -7.879,-7.104 l -0.004,-18.765 H 106.6585 z"
   id="path35"
   inkscape:connector-curvature="0"
   style="fill:#ae1c2d" />
<path
   d="M 93.153493,112.80793 H 106.6575 l 0.001,17.081 c 0,4.852 -3.934,8.787 -8.787007,8.787 h -12.601 l 0.004,-18.764 c 10e-4,-3.981 3.588,-7.104 7.879,-7.104 z"
   id="path37"
   inkscape:connector-curvature="0"
   style="fill:#ae1c2d" />
<path
   d="m 48.742493,138.67593 c -4.853,0 -8.787,-3.935 -8.787,-8.787 l -0.012,-17.081 h 13.504 c 4.292,0 7.879,3.123 7.879,7.104 l 0.003,18.764 h -12.587 z"
   id="path39"
   inkscape:connector-curvature="0"
   style="fill:#ae1c2d" />
<path
   clip-rule="evenodd"
   d="m 50.629493,60.747935 c 0.336,0 0.642,0.005 0.976,0.016 0.166,0.002 0.304,0.135 0.306,0.298 l 0.005,1.206 c -0.015,0.164 0.105,0.312 0.269,0.326 0.395,0.021 0.784,0.051 1.168,0.087 l 0.029,0.001 c 0.165,0 0.305,-0.129 0.304,-0.293 l -0.002,-1.157 c 0,-0.166 0.135,-0.3 0.301,-0.3 0.008,0 0.018,-0.001 0.023,0 0.599,0.066 1.207,0.152 1.792,0.251 0.152,0.023 0.265,0.15 0.265,0.299 v 1.573 l -0.953,2.509 c -0.044,0.12 -0.155,0.209 -0.293,0.209 l -0.04,-0.003 c -1.348,-0.217 -2.723,-0.33 -4.135,-0.33 -1.412,0 -2.802,0.113 -4.15,0.33 l -0.039,0.003 c -0.138,0 -0.249,-0.089 -0.293,-0.209 l -0.953,-2.509 v -1.573 c 0,-0.149 0.112,-0.276 0.265,-0.299 0.585,-0.1 1.193,-0.186 1.791,-0.251 0.006,-0.001 0.017,0 0.024,0 0.166,0 0.3,0.134 0.3,0.3 l -10e-4,1.157 c -10e-4,0.164 0.139,0.293 0.304,0.293 l 0.03,-0.001 c 0.385,-0.036 0.773,-0.066 1.163,-0.087 0.168,-0.014 0.289,-0.162 0.274,-0.326 l 0.005,-1.206 c 0.002,-0.163 0.139,-0.296 0.306,-0.298 0.332,-0.01 0.622,-0.016 0.959,-0.016 z m 0.019,7.904 c 0.693,0 1.254,0.562 1.254,1.254 v 1.115 c 0.902,0.056 1.785,0.169 2.645,0.336 0.024,0.004 0.052,0.01 0.079,0.01 0.167,0 0.301,-0.135 0.301,-0.301 l 0.005,-3.953 c 0,-0.153 -0.111,-0.279 -0.262,-0.298 -1.314,-0.214 -2.661,-0.329 -4.035,-0.33 -1.374,0 -2.718,0.116 -4.031,0.33 -0.152,0.019 -0.263,0.146 -0.263,0.298 l 0.005,3.953 c 0,0.166 0.134,0.301 0.301,0.301 0.027,0 0.054,-0.006 0.078,-0.01 0.86,-0.167 1.743,-0.28 2.639,-0.335 l 0.006,-1.116 c 0,-0.692 0.585,-1.254 1.278,-1.254 z m -0.003,8.676 -0.014,0 c -1.19,0 -2.156,0.965 -2.156,2.157 l -0.006,2.755 h -4.101 c -0.168,0 -0.3,-0.135 -0.3,-0.302 v -4.63 c 1.271,-1.146 2.101,-2.767 2.215,-4.583 -10e-4,-0.146 0.106,-0.268 0.245,-0.293 1.318,-0.287 2.702,-0.438 4.113,-0.438 1.412,0 2.786,0.151 4.104,0.438 0.139,0.026 0.246,0.147 0.245,0.293 0.114,1.817 0.944,3.438 2.214,4.583 l 0,4.63 c 0,0.167 -0.132,0.302 -0.301,0.302 h -4.101 l -0.006,-2.755 c 0,-1.191 -0.965,-2.157 -2.155,-2.157 l 0.004,0 z"
   id="path41"
   inkscape:connector-curvature="0"
   style="fill:#dfac13;fill-rule:evenodd" />
<path
   clip-rule="evenodd"
   d="m 95.956493,60.747935 c 0.337,0 0.642,0.005 0.977,0.016 0.166,0.001 0.304,0.135 0.305,0.298 l 0.006,1.206 c -0.015,0.164 0.105,0.312 0.269,0.325 0.396,0.021 0.784,0.052 1.168,0.088 l 0.03,0.001 c 0.165,0 0.305,-0.129 0.304,-0.294 l -0.002,-1.156 c 0.001,-0.166 0.136,-0.3 0.301,-0.3 0.008,0 0.019,-0.001 0.023,0 0.599,0.066 1.206007,0.152 1.792007,0.251 0.152,0.023 0.265,0.149 0.265,0.299 v 1.573 l -0.95401,2.509 c -0.044,0.12 -0.154,0.209 -0.292,0.209 l -0.04,-0.003 c -1.347997,-0.217 -2.722997,-0.331 -4.134997,-0.331 -1.412,0 -2.802,0.113 -4.15,0.331 l -0.039,0.003 c -0.139,0 -0.249,-0.089 -0.293,-0.209 l -0.953,-2.509 v -1.573 c 0,-0.15 0.112,-0.276 0.265,-0.299 0.585,-0.1 1.193,-0.186 1.79,-0.251 0.007,0 0.017,0 0.024,0 0.166,0 0.3,0.134 0.301,0.3 l -0.002,1.156 c -0.001,0.165 0.14,0.294 0.304,0.294 l 0.03,-0.001 c 0.384,-0.036 0.773,-0.066 1.163,-0.087 0.168,-0.014 0.288,-0.162 0.274,-0.326 l 0.005,-1.206 c 0.002,-0.163 0.139,-0.297 0.306,-0.298 0.332,-0.011 0.622,-0.016 0.958,-0.016 z m 0.02,7.904 c 0.693,0 1.255,0.562 1.255,1.254 v 1.116 c 0.902,0.056 1.785,0.169 2.645,0.336 0.024,0.005 0.052,0.011 0.078,0.011 0.165997,0 0.300997,-0.135 0.300997,-0.301 l 0.006,-3.953 c 0,-0.153 -0.111,-0.279 -0.262997,-0.298 -1.313,-0.214 -2.661,-0.329 -4.034,-0.33 -1.374,0 -2.718,0.116 -4.031,0.33 -0.151,0.019 -0.263,0.146 -0.263,0.298 l 0.005,3.953 c 0,0.166 0.135,0.301 0.301,0.301 0.027,0 0.054,-0.006 0.078,-0.011 0.86,-0.167 1.743,-0.28 2.64,-0.335 l 0.006,-1.116 c -0.002,-0.693 0.583,-1.255 1.276,-1.255 z m -0.003,8.676 h -0.015 c -1.19,0 -2.155,0.965 -2.155,2.157 l -0.006,2.755 h -4.102 c -0.168,0 -0.301,-0.135 -0.301,-0.301 l 0.001,-4.63 c 1.27,-1.146 2.101,-2.767 2.215,-4.583 -0.001,-0.146 0.105,-0.268 0.245,-0.293 1.318,-0.287 2.702,-0.438 4.113,-0.438 1.411,0 2.786,0.151 4.103997,0.438 0.139,0.026 0.246,0.147 0.244,0.293 0.115,1.817 0.94501,3.438 2.21501,4.583 l 0.001,4.63 c 0,0.166 -0.132,0.301 -0.301,0.301 h -4.101007 l -0.006,-2.755 c 0,-1.191 -0.966,-2.157 -2.156,-2.157 h 0.005 z"
   id="path43"
   inkscape:connector-curvature="0"
   style="fill:#dfac13;fill-rule:evenodd" />
<path
   clip-rule="evenodd"
   d="m 95.956493,114.99593 c 0.337,0 0.643,0.005 0.977,0.016 0.166,0.002 0.304,0.135 0.306,0.298 l 0.005,1.206 c -0.015,0.165 0.105,0.313 0.27,0.326 0.395,0.021 0.783,0.051 1.168,0.087 l 0.029,0.001 c 0.165,0 0.305,-0.129 0.304,-0.294 l -0.001,-1.156 c 0,-0.166 0.135,-0.3 0.301,-0.3 0.007,0 0.018,-0.001 0.022,0 0.599,0.066 1.206007,0.152 1.792007,0.251 0.152,0.023 0.265,0.15 0.265,0.299 v 1.573 l -0.95301,2.509 c -0.044,0.12 -0.155,0.209 -0.293,0.209 l -0.04,-0.003 c -1.347997,-0.218 -2.722997,-0.331 -4.134997,-0.331 -1.412,0 -2.802,0.113 -4.15,0.331 l -0.039,0.003 c -0.139,0 -0.249,-0.089 -0.293,-0.209 l -0.953,-2.509 v -1.573 c 0,-0.149 0.112,-0.276 0.265,-0.299 0.585,-0.1 1.193,-0.186 1.791,-0.251 0.006,-0.001 0.016,0 0.023,0 0.166,0 0.301,0.134 0.301,0.3 l -0.002,1.156 c -0.001,0.165 0.14,0.294 0.304,0.294 l 0.03,-0.001 c 0.385,-0.036 0.773,-0.066 1.163,-0.087 0.169,-0.014 0.289,-0.162 0.274,-0.326 l 0.005,-1.206 c 0.002,-0.163 0.139,-0.296 0.306,-0.298 0.332,-0.01 0.622,-0.016 0.958,-0.016 z m 0.021,7.904 c 0.692,0 1.254,0.562 1.254,1.255 v 1.115 c 0.902,0.056 1.785,0.169 2.645,0.336 0.024,0.004 0.052,0.01 0.079,0.01 0.165997,0 0.300997,-0.135 0.300997,-0.301 l 0.005,-3.952 c 0,-0.153 -0.111,-0.28 -0.261997,-0.298 -1.314,-0.214 -2.661,-0.33 -4.035,-0.33 -1.374,0 -2.718,0.116 -4.031,0.33 -0.151,0.019 -0.263,0.145 -0.263,0.298 l 0.005,3.952 c 0,0.166 0.135,0.301 0.301,0.301 0.027,0 0.054,-0.006 0.079,-0.01 0.859,-0.167 1.742,-0.28 2.639,-0.335 l 0.006,-1.116 c -0.002,-0.694 0.583,-1.255 1.277,-1.255 z m -0.004,8.676 h -0.015 c -1.19,0 -2.155,0.965 -2.155,2.156 l -0.006,2.755 h -4.101 c -0.169,0 -0.301,-0.135 -0.301,-0.301 v -4.63 c 1.271,-1.146 2.101,-2.767 2.215,-4.584 -0.001,-0.146 0.105,-0.268 0.245,-0.293 1.318,-0.287 2.702,-0.438 4.113,-0.438 1.411,0 2.786,0.151 4.103997,0.438 0.139,0.026 0.246,0.147 0.245,0.293 0.114,1.817 0.94401,3.438 2.21501,4.584 v 4.63 c 0,0.166 -0.132,0.301 -0.301,0.301 h -4.101007 l -0.006,-2.755 c 0,-1.191 -0.965,-2.156 -2.155,-2.156 h 0.004 z"
   id="path45"
   inkscape:connector-curvature="0"
   style="fill:#dfac13;fill-rule:evenodd" />
<path
   clip-rule="evenodd"
   d="m 50.629493,114.99593 c 0.336,0 0.642,0.005 0.976,0.016 0.166,0.002 0.304,0.135 0.306,0.298 l 0.005,1.206 c -0.015,0.165 0.105,0.313 0.269,0.326 0.395,0.021 0.784,0.051 1.168,0.087 l 0.029,0.001 c 0.165,0 0.305,-0.129 0.304,-0.294 l -0.002,-1.156 c 0,-0.166 0.135,-0.3 0.301,-0.3 0.008,0 0.018,-0.001 0.023,0 0.599,0.066 1.207,0.152 1.792,0.251 0.152,0.023 0.265,0.15 0.265,0.299 v 1.573 l -0.953,2.509 c -0.044,0.12 -0.155,0.209 -0.293,0.209 l -0.04,-0.003 c -1.348,-0.218 -2.723,-0.331 -4.135,-0.331 -1.412,0 -2.802,0.113 -4.15,0.331 l -0.039,0.003 c -0.138,0 -0.249,-0.089 -0.293,-0.209 l -0.953,-2.509 v -1.573 c 0,-0.149 0.112,-0.276 0.265,-0.299 0.585,-0.1 1.193,-0.186 1.791,-0.251 0.006,-0.001 0.017,0 0.024,0 0.166,0 0.3,0.134 0.3,0.3 l -10e-4,1.156 c -10e-4,0.165 0.139,0.294 0.304,0.294 l 0.03,-0.001 c 0.385,-0.036 0.773,-0.066 1.163,-0.087 0.168,-0.014 0.289,-0.162 0.274,-0.326 l 0.005,-1.206 c 0.002,-0.163 0.139,-0.296 0.306,-0.298 0.332,-0.01 0.622,-0.016 0.959,-0.016 z m 0.019,7.904 c 0.693,0 1.254,0.562 1.254,1.255 v 1.115 c 0.902,0.056 1.785,0.169 2.645,0.336 0.024,0.004 0.052,0.01 0.079,0.01 0.167,0 0.301,-0.135 0.301,-0.301 l 0.005,-3.952 c 0,-0.153 -0.111,-0.28 -0.262,-0.298 -1.314,-0.214 -2.661,-0.33 -4.035,-0.33 -1.374,0 -2.718,0.116 -4.031,0.33 -0.152,0.019 -0.263,0.145 -0.263,0.298 l 0.005,3.952 c 0,0.166 0.134,0.301 0.301,0.301 0.027,0 0.054,-0.006 0.078,-0.01 0.86,-0.167 1.743,-0.28 2.639,-0.335 l 0.006,-1.116 c 0,-0.694 0.585,-1.255 1.278,-1.255 z m -0.003,8.676 h -0.014 c -1.19,0 -2.156,0.965 -2.156,2.156 l -0.006,2.755 h -4.101 c -0.168,0 -0.3,-0.135 -0.3,-0.301 v -4.63 c 1.271,-1.146 2.101,-2.767 2.215,-4.584 -10e-4,-0.146 0.106,-0.268 0.245,-0.293 1.318,-0.287 2.702,-0.438 4.113,-0.438 1.412,0 2.786,0.151 4.104,0.438 0.139,0.026 0.246,0.147 0.245,0.293 0.114,1.817 0.944,3.438 2.214,4.584 l 0,4.63 c 0,0.166 -0.132,0.301 -0.301,0.301 h -4.101 l -0.006,-2.755 c 0,-1.191 -0.965,-2.156 -2.155,-2.156 h 0.004 z"
   id="path47"
   inkscape:connector-curvature="0"
   style="fill:#dfac13;fill-rule:evenodd" />
<path
   clip-rule="evenodd"
   d="m 70.804493,85.278935 c 0.084,0.113 0.151,0.33 0.304,0.574 l 0.951,-0.921 c -0.457,-0.066 -1.017,0.087 -1.255,0.347 z m -1.309,5.048 c -0.24,0.055 -0.482,0.11 -0.695,0.166 -0.116,0.021 -0.303,0 -0.336,-0.198 l -0.17,-1.005 c -0.023,-0.146 0.122,-0.185 0.178,-0.179 0.057,0.009 0.116,0.013 0.175,0.013 0.549,0 1.005,-0.37 1.094,-0.855 -1.195,0.028 -2.285,1.071 -3.088,-0.758 -0.051,-0.093 0.082,-0.197 0.158,-0.093 0.832,0.979 1.752,-0.033 2.768,0.121 -0.197,-0.283 -0.541,-0.437 -0.932,-0.437 -0.167,0 -0.26,0.013 -0.37,0.035 -0.165,0.05 -0.296,-0.079 -0.325,-0.192 l -0.132,-0.699 c 0,0 -0.219,-0.593 0.75,-0.927 l 1.97,-0.82 c 0.449,-0.144 0.57,-0.583 1.064,-0.666 0,0 2.092,-0.336 2.282,-0.336 0.197,0 0.529,0.134 0.604,0.499 l 0.021,0.133 c 0.462,3.288 -1.708,4.639 -3.917,5.704 -0.395,0.19 -0.738,0.339 -1.099,0.494 z m 4.034,12.679985 c 0.028,0.024 0.059,0.046 0.097,0.059 0.063,1.524 0.602,2.962 1.467,4.154 -1.055,0.379 -1.488,1.556 -0.605,2.751 0.237,0.389 0.186,0.507 0.068,0.744 l -1.75,3.514 c -0.103,0.233 -0.4,0.647 -0.817,0.647 h -3.447 c -0.371,0 -0.461,-0.305 -0.44,-0.524 0.146,-1.331 1.117,-1.717 2.575,-1.76 0.204,0 0.263,-0.128 0.305,-0.241 l 0.423,-1.119 c 0.309,-0.68 0.179,-0.771 -0.058,-0.991 -0.875,-0.723 -1.409,-2.028 -1.409,-3.151 0,-1.7 1.017,-3.401 2.816,-4.094 0.107,-0.046 0.197,-0.078 0.273,-0.098 0.168,0.042 0.335,0.078 0.502,0.109 z m -7.209,-8.770985 -0.89,0.022 c -0.321,0 -0.484,-0.089 -0.644,-0.26 l -3.026,-3.112 c -0.165,-0.195 -0.25,-0.333 -0.25,-0.607 v -3.069 c 0.003,-0.129 0.078,-0.332 0.369,-0.325 1.112,0.081 1.911,1.169 1.925,2.446 -0.002,0.141 0.087,0.238 0.225,0.331 l 1.329,1.133 c 0.127,0.107 0.309,0.303 0.665,0.323 l 1.202,0.075 0.579,0.036 c -0.124,0.098 -0.243,0.204 -0.358,0.319 -0.693,0.692 -1.128,1.558 -1.126,2.688 z m 9.952,-8.08 c 0.815,4.979 -7.842,5.512 -6.288,8.761 -0.696,-3.039 5.524,-3.244 6.741,-6.558 0.075,-0.205 0.27,-0.196 0.295,0.029 0.234,2.065 -0.296,3.925 -1.412,5.39 -0.64,0.822 -0.513,4.359 2.849,6.252995 0.492,0.276 1.981,1.004 2.56,0.229 0.775,-1.317995 0.477,-3.214995 -1.075,-3.968995 -3.18,-1.231 -2.926,-5.553 -0.394,-7.021 0.079,-0.049 0.129,-0.115 0.139,-0.35 0.031,-0.386 0.146,-0.601 0.479,-0.926 0.405,-0.396 0.804,-0.44 1.089,-0.488 0.267,-0.044 0.349,-0.058 0.447,-0.195 l 0.312,-0.432 c 0.157,-0.203 0.281,-0.208 0.365,-0.038 0.113,0.23 0.175,0.669 0.164,1.177 -0.012,0.517 -0.244,1.223 -0.683,1.611 -0.493,0.438 -0.939,0.458 -1.229,0.413 -0.118,-0.034 -0.313,-0.009 -0.407,0.048 -2.048,1.045 -2.188,4.381 0.146,5.27 2.344,1.128 2.661,4.132997 1.267,5.960985 -0.143,0.188 -0.222,0.475 -0.136,0.769 0.403,1.376 -0.531,3.083 -0.675,3.439 0,1.1 1.406,2.562 3.274,2.845 0.219,0.055 0.516,0.221 0.342,0.667 l -1.626,4.841 c -0.106,0.395 -0.403,0.998 -0.869,0.998 l -3.44,-0.001 c -0.19,0 -0.451,-0.162 -0.412,-0.453 0.175,-1.288 1.182,-1.669 2.325,-1.768 0.224,-0.004 0.301,-0.26 0.301,-0.26 l 0.612,-1.855 c 0.042,-0.163 10e-4,-0.365 -0.233,-0.427 l -1.666,-0.431 c -2.947,-0.789 -5.218,-3.561 -5.317,-6.704 -0.004,-0.238 -0.082,-0.388 -0.365,-0.436 -1.869,-0.3 -3.828,-1.328 -4.735,-3.732985 -0.086,-0.275 -0.293,-0.396 -0.566,-0.25 l -0.618,0.274 -0.587,0.253 c -0.262,0.113997 -0.513,0.108997 -0.751,-0.015 l -4.519,-2.333 c -0.399,-0.244 -0.465,-0.471 -0.465,-0.814 v -3.228 c 0,-0.11 0.105,-0.284 0.349,-0.284 1.091,0.081 1.791,1.007 1.917,2.193 0,0 0.046,0.397 0.503,0.494 l 0.975,0.296 c 0.18,0.057 0.521,0.225 0.878,0.11 l 0.589,-0.243 c 0.225,-0.092 0.167,-0.256 0.119,-0.569 -0.14,-1.229 0.255,-2.098 0.954,-2.797 0.383,-0.383 0.814,-0.646 1.371,-0.888 0.583,-0.254 1.057,-0.448 1.643,-0.73 2.214,-1.068 4.704,-2.566 4.191,-6.218 -0.029,-0.185 0.157,-0.252 0.276,-0.101 0.347,0.438 0.836,1.208 0.996,2.194 z"
   id="path49"
   inkscape:connector-curvature="0"
   style="fill:#ae1c2d;fill-rule:evenodd" />
<path
   clip-rule="evenodd"
   d="m 71.737493,60.906935 c 0.06,0.081 0.107,0.233 0.215,0.406 l 0.672,-0.651 c -0.323,-0.047 -0.719,0.062 -0.887,0.245 z m -0.925,3.569 c -0.17,0.039 -0.341,0.078 -0.492,0.117 -0.082,0.015 -0.214,0 -0.237,-0.14 l -0.121,-0.71 c -0.016,-0.104 0.086,-0.131 0.125,-0.126 0.041,0.006 0.082,0.009 0.124,0.009 0.388,0 0.71,-0.261 0.774,-0.604 -0.845,0.02 -1.615,0.757 -2.184,-0.536 -0.035,-0.066 0.059,-0.14 0.112,-0.066 0.588,0.692 1.238,-0.023 1.957,0.086 -0.14,-0.2 -0.383,-0.309 -0.659,-0.309 -0.119,0 -0.184,0.009 -0.261,0.024 -0.117,0.035 -0.209,-0.056 -0.229,-0.136 l -0.093,-0.494 c 0,0 -0.155,-0.419 0.53,-0.656 l 1.393,-0.579 c 0.317,-0.102 0.403,-0.412 0.752,-0.471 0,0 1.479,-0.237 1.613,-0.237 0.139,0 0.374,0.094 0.427,0.352 l 0.015,0.094 c 0.326,2.324 -1.208,3.279 -2.769,4.032 -0.279,0.134 -0.521,0.24 -0.777,0.35 z m 2.852,8.963 c 0.02,0.017 0.042,0.032 0.068,0.042 0.045,1.077 0.426,2.094 1.038,2.937 -0.746,0.268 -1.052,1.1 -0.428,1.945 0.167,0.275 0.131,0.358 0.048,0.526 l -1.237,2.483 c -0.073,0.165 -0.283,0.458 -0.578,0.458 h -2.437 c -0.262,0 -0.326,-0.215 -0.312,-0.371 0.104,-0.94 0.789,-1.213 1.82,-1.244 0.144,0 0.186,-0.091 0.215,-0.17 l 0.299,-0.791 c 0.218,-0.48 0.126,-0.545 -0.041,-0.7 -0.618,-0.511 -0.996,-1.434 -0.996,-2.228 0,-1.202 0.719,-2.404 1.991,-2.894 0.076,-0.033 0.14,-0.055 0.193,-0.07 0.12,0.03 0.239,0.055 0.357,0.077 z m -5.096,-6.2 -0.629,0.016 c -0.227,0 -0.342,-0.063 -0.455,-0.184 l -2.139,-2.2 c -0.117,-0.138 -0.177,-0.235 -0.177,-0.429 v -2.169 c 0.002,-0.091 0.055,-0.235 0.261,-0.23 0.786,0.058 1.351,0.827 1.361,1.729 -0.001,0.099 0.061,0.168 0.158,0.234 l 0.939,0.801 c 0.09,0.076 0.218,0.214 0.47,0.229 l 0.849,0.053 0.409,0.025 c -0.087,0.069 -0.171,0.144 -0.253,0.226 -0.489,0.488 -0.796,1.1 -0.794,1.899 z m 7.035,-5.711 c 0.576,3.52 -5.543,3.896 -4.445,6.193 -0.492,-2.148 3.905,-2.293 4.765,-4.636 0.053,-0.145 0.19,-0.138 0.208,0.02 0.165,1.46 -0.209,2.774 -0.998,3.81 -0.452,0.581 -0.363,3.082 2.014,4.42 0.348,0.196 1.4,0.71 1.81,0.162 0.548,-0.932 0.337,-2.272 -0.76,-2.805 -2.248,-0.871 -2.068,-3.925 -0.278,-4.963 0.056,-0.035 0.091,-0.081 0.098,-0.248 0.021,-0.272 0.103,-0.425 0.339,-0.655 0.286,-0.279 0.568,-0.312 0.77,-0.345 0.188,-0.031 0.247,-0.041 0.316,-0.138 l 0.22,-0.306 c 0.111,-0.143 0.199,-0.147 0.258,-0.027 0.08,0.163 0.124,0.473 0.116,0.832 -0.008,0.365 -0.172,0.865 -0.482,1.139 -0.348,0.31 -0.664,0.324 -0.869,0.292 -0.083,-0.024 -0.221,-0.007 -0.287,0.034 -1.449,0.739 -1.547,3.097 0.103,3.725 1.656,0.797 1.881,2.922 0.896,4.214 -0.101,0.132 -0.157,0.335 -0.096,0.543 0.285,0.973 -0.375,2.179 -0.478,2.431 0,0.777 0.994,1.811 2.315,2.011 0.155,0.04 0.365,0.156 0.242,0.471 l -1.149,3.422 c -0.075,0.279 -0.285,0.705 -0.614,0.705 l -2.432,0 c -0.134,0 -0.319,-0.114 -0.292,-0.321 0.124,-0.91 0.835,-1.179 1.644,-1.25 0.158,-0.003 0.213,-0.184 0.213,-0.184 l 0.433,-1.312 c 0.029,-0.115 0.001,-0.258 -0.165,-0.302 l -1.178,-0.305 c -2.083,-0.557 -3.689,-2.517 -3.759,-4.738 -0.002,-0.168 -0.058,-0.274 -0.257,-0.308 -1.321,-0.212 -2.706,-0.939 -3.347,-2.639 -0.061,-0.194 -0.208,-0.279 -0.4,-0.176 l -0.437,0.194 -0.415,0.179 c -0.185,0.081 -0.362,0.077 -0.531,-0.011 l -3.194,-1.649 c -0.283,-0.172 -0.329,-0.333 -0.329,-0.576 v -2.281 c 0,-0.078 0.074,-0.201 0.247,-0.201 0.772,0.058 1.266,0.712 1.356,1.55 0,0 0.032,0.281 0.355,0.349 l 0.688,0.209 c 0.127,0.041 0.369,0.159 0.621,0.078 l 0.417,-0.172 c 0.159,-0.065 0.119,-0.181 0.084,-0.402 -0.099,-0.869 0.18,-1.483 0.674,-1.978 0.271,-0.271 0.575,-0.457 0.969,-0.628 0.412,-0.18 0.748,-0.317 1.161,-0.517 1.565,-0.755 3.326,-1.814 2.963,-4.396 -0.02,-0.13 0.111,-0.178 0.195,-0.071 0.243,0.315 0.589,0.86 0.702,1.557 z"
   id="path51"
   inkscape:connector-curvature="0"
   style="fill:#ae1c2d;fill-rule:evenodd" />
<path
   clip-rule="evenodd"
   d="m 71.737493,118.10493 c 0.06,0.081 0.107,0.233 0.215,0.406 l 0.672,-0.651 c -0.323,-0.046 -0.719,0.062 -0.887,0.245 z m -0.925,3.569 c -0.17,0.039 -0.341,0.078 -0.492,0.117 -0.082,0.015 -0.214,0 -0.237,-0.14 l -0.121,-0.71 c -0.016,-0.104 0.086,-0.131 0.125,-0.126 0.041,0.006 0.082,0.009 0.124,0.009 0.388,0 0.71,-0.261 0.774,-0.604 -0.845,0.02 -1.615,0.757 -2.184,-0.536 -0.035,-0.066 0.059,-0.14 0.112,-0.066 0.588,0.692 1.238,-0.023 1.957,0.085 -0.14,-0.2 -0.383,-0.309 -0.659,-0.309 -0.119,0 -0.184,0.009 -0.261,0.024 -0.117,0.035 -0.209,-0.056 -0.229,-0.136 l -0.093,-0.494 c 0,0 -0.155,-0.419 0.53,-0.656 l 1.393,-0.58 c 0.317,-0.101 0.403,-0.412 0.752,-0.47 0,0 1.479,-0.238 1.613,-0.238 0.139,0 0.374,0.095 0.427,0.353 l 0.015,0.094 c 0.326,2.324 -1.208,3.279 -2.769,4.032 -0.279,0.135 -0.521,0.241 -0.777,0.351 z m 2.852,8.963 c 0.02,0.017 0.042,0.032 0.068,0.042 0.045,1.077 0.426,2.094 1.038,2.937 -0.746,0.268 -1.052,1.099 -0.428,1.944 0.167,0.275 0.131,0.358 0.048,0.525 l -1.237,2.484 c -0.073,0.165 -0.283,0.458 -0.578,0.458 h -2.437 c -0.262,0 -0.326,-0.215 -0.312,-0.371 0.104,-0.94 0.789,-1.213 1.82,-1.244 0.144,0 0.186,-0.091 0.215,-0.171 l 0.299,-0.79 c 0.218,-0.48 0.126,-0.545 -0.041,-0.7 -0.618,-0.511 -0.996,-1.434 -0.996,-2.228 0,-1.202 0.719,-2.404 1.991,-2.894 0.076,-0.033 0.14,-0.055 0.193,-0.069 0.12,0.03 0.239,0.055 0.357,0.077 z m -5.096,-6.2 -0.629,0.016 c -0.227,0 -0.342,-0.063 -0.455,-0.184 l -2.139,-2.2 c -0.117,-0.138 -0.177,-0.235 -0.177,-0.429 v -2.169 c 0.002,-0.091 0.055,-0.235 0.261,-0.23 0.786,0.058 1.351,0.827 1.361,1.729 -0.001,0.1 0.061,0.168 0.158,0.233 l 0.939,0.801 c 0.09,0.076 0.218,0.214 0.47,0.229 l 0.849,0.053 0.409,0.025 c -0.087,0.069 -0.171,0.144 -0.253,0.226 -0.489,0.489 -0.796,1.101 -0.794,1.9 z m 7.035,-5.712 c 0.576,3.52 -5.543,3.896 -4.445,6.193 -0.492,-2.148 3.905,-2.293 4.765,-4.636 0.053,-0.145 0.19,-0.138 0.208,0.021 0.165,1.46 -0.209,2.774 -0.998,3.81 -0.452,0.581 -0.363,3.082 2.014,4.42 0.348,0.196 1.4,0.71 1.81,0.162 0.548,-0.932 0.337,-2.272 -0.76,-2.805 -2.248,-0.871 -2.068,-3.925 -0.278,-4.963 0.056,-0.035 0.091,-0.082 0.098,-0.248 0.021,-0.272 0.103,-0.425 0.339,-0.655 0.286,-0.28 0.568,-0.312 0.77,-0.345 0.188,-0.031 0.247,-0.042 0.316,-0.138 l 0.22,-0.305 c 0.111,-0.143 0.199,-0.147 0.258,-0.027 0.08,0.163 0.124,0.474 0.116,0.832 -0.008,0.365 -0.172,0.865 -0.482,1.14 -0.348,0.309 -0.664,0.323 -0.869,0.292 -0.083,-0.024 -0.221,-0.007 -0.287,0.034 -1.449,0.739 -1.547,3.097 0.103,3.725 1.656,0.797 1.881,2.922 0.896,4.214 -0.101,0.132 -0.157,0.335 -0.096,0.543 0.285,0.973 -0.375,2.179 -0.478,2.432 0,0.777 0.994,1.811 2.315,2.011 0.155,0.04 0.365,0.156 0.242,0.472 l -1.149,3.422 c -0.075,0.279 -0.285,0.705 -0.614,0.705 l -2.432,-0.001 c -0.134,0 -0.319,-0.114 -0.292,-0.32 0.124,-0.91 0.835,-1.18 1.644,-1.25 0.158,-0.002 0.213,-0.184 0.213,-0.184 l 0.433,-1.312 c 0.029,-0.115 0.001,-0.258 -0.165,-0.302 l -1.178,-0.305 c -2.083,-0.558 -3.689,-2.518 -3.759,-4.739 -0.002,-0.168 -0.058,-0.273 -0.257,-0.308 -1.321,-0.212 -2.706,-0.939 -3.347,-2.639 -0.061,-0.194 -0.208,-0.28 -0.4,-0.176 l -0.437,0.193 -0.415,0.18 c -0.185,0.081 -0.362,0.077 -0.531,-0.011 l -3.194,-1.649 c -0.283,-0.172 -0.329,-0.333 -0.329,-0.576 v -2.281 c 0,-0.078 0.074,-0.201 0.247,-0.201 0.772,0.058 1.266,0.712 1.356,1.55 0,0 0.032,0.281 0.355,0.349 l 0.688,0.209 c 0.127,0.04 0.369,0.159 0.621,0.078 l 0.417,-0.172 c 0.159,-0.065 0.119,-0.181 0.084,-0.402 -0.099,-0.87 0.18,-1.483 0.674,-1.978 0.271,-0.271 0.575,-0.457 0.969,-0.628 0.412,-0.179 0.748,-0.316 1.161,-0.516 1.565,-0.755 3.326,-1.814 2.963,-4.396 -0.02,-0.131 0.111,-0.178 0.195,-0.071 0.243,0.311 0.589,0.856 0.702,1.552 z"
   id="path53"
   inkscape:connector-curvature="0"
   style="fill:#ae1c2d;fill-rule:evenodd" />
<path
   clip-rule="evenodd"
   d="m 95.724493,88.901935 c 0.06,0.08 0.106,0.233 0.215,0.406 l 0.672,-0.651 c -0.324,-0.046 -0.719,0.061 -0.887,0.245 z m -0.926,3.569 c -0.17,0.039 -0.341,0.077 -0.491,0.117 -0.082,0.015 -0.214,0 -0.237,-0.14 l -0.12,-0.71 c -0.017,-0.104 0.087,-0.131 0.126,-0.126 0.04,0.006 0.081,0.009 0.123,0.009 0.389,0 0.711,-0.261 0.774,-0.604 -0.846,0.02 -1.616,0.757 -2.184,-0.536 -0.035,-0.066 0.059,-0.14 0.112,-0.066 0.588,0.692 1.238,-0.023 1.956,0.086 -0.14,-0.2 -0.383,-0.309 -0.659,-0.309 -0.118,0 -0.184,0.009 -0.261,0.024 -0.117,0.035 -0.209,-0.056 -0.229,-0.136 l -0.094,-0.494 c 0,0 -0.154,-0.419 0.53,-0.655 l 1.393,-0.58 c 0.317,-0.102 0.403,-0.412 0.752,-0.47 0,0 1.479,-0.238 1.613,-0.238 0.139,0 0.373,0.095 0.427,0.353 l 0.015,0.094 c 0.326,2.324 -1.208,3.279 -2.769,4.032 -0.279,0.134 -0.521,0.239 -0.777,0.349 z m 2.852,8.962985 c 0.021,0.017 0.042,0.032 0.068,0.042 0.045,1.077 0.426,2.094 1.037,2.937 -0.744,0.268 -1.051,1.099 -0.427,1.944 0.167,0.275 0.132,0.358 0.048,0.525 l -1.237,2.484 c -0.073,0.165 -0.283,0.458 -0.578,0.458 h -2.437 c -0.262,0 -0.326,-0.215 -0.312,-0.371 0.104,-0.94 0.789,-1.213 1.82,-1.244 0.144,0 0.186,-0.091 0.215,-0.17 l 0.3,-0.791 c 0.218,-0.48 0.126,-0.545 -0.041,-0.7 -0.618,-0.511 -0.996,-1.434 -0.996,-2.228 0,-1.202 0.719,-2.404 1.991,-2.894 0.075,-0.033 0.14,-0.055 0.193,-0.07 0.119,0.03 0.238,0.056 0.356,0.078 z m -5.096,-6.199985 -0.629,0.016 c -0.228,0 -0.343,-0.063 -0.455,-0.184 l -2.139,-2.2 c -0.117,-0.138 -0.177,-0.235 -0.177,-0.43 v -2.169 c 0.002,-0.091 0.055,-0.235 0.261,-0.23 0.786,0.057 1.352,0.827 1.361,1.729 -0.002,0.1 0.061,0.168 0.158,0.233 l 0.939,0.802 c 0.09,0.075 0.219,0.213 0.47,0.229 l 0.85,0.052 0.409,0.025 c -0.088,0.069 -0.172,0.144 -0.253,0.226 -0.489,0.49 -0.797,1.102 -0.795,1.901 z m 7.035,-5.712 c 0.575997,3.519 -5.544,3.896 -4.445,6.193 -0.492,-2.148 3.905,-2.293 4.766,-4.636 0.053,-0.145 0.189997,-0.139 0.207997,0.021 0.166,1.46 -0.208997,2.774 -0.997997,3.81 -0.451,0.581 -0.362,3.082 2.015007,4.418997 0.348,0.196 1.4,0.709998 1.81,0.162 0.548,-0.931997 0.337,-2.271997 -0.76,-2.804997 -2.248007,-0.871 -2.06801,-3.925 -0.278,-4.963 0.056,-0.035 0.091,-0.082 0.098,-0.248 0.021,-0.272 0.104,-0.425 0.339,-0.655 0.287,-0.279 0.568,-0.311 0.77,-0.344 0.188,-0.031 0.247,-0.042 0.316,-0.138 l 0.22,-0.305 c 0.111,-0.143 0.199,-0.147 0.258,-0.027 0.08,0.163 0.124,0.474 0.116,0.832 -0.008,0.365 -0.172,0.865 -0.482,1.14 -0.349,0.309 -0.664,0.323 -0.869,0.292 -0.083,-0.024 -0.221,-0.007 -0.287,0.034 -1.448,0.739 -1.547,3.097 0.104,3.725 1.656,0.797 1.881,2.922 0.896,4.213995 -0.101,0.132 -0.157,0.335 -0.096,0.543 0.284,0.97299 -0.376,2.17899 -0.479,2.43199 0,0.777 0.994,1.811 2.315,2.011 0.154,0.04 0.364,0.156 0.241,0.471 l -1.149,3.422 c -0.075,0.279 -0.284,0.705 -0.613,0.705 l -2.433,-0.001 c -0.134,0 -0.319,-0.114 -0.291,-0.32 0.123,-0.91 0.836,-1.18 1.644,-1.25 0.158,-0.002 0.213,-0.184 0.213,-0.184 l 0.433,-1.312 c 0.029,-0.115 0.001,-0.258 -0.165,-0.302 l -1.178,-0.305 c -2.083007,-0.558 -3.689007,-2.518 -3.759007,-4.739 -0.003,-0.168 -0.058,-0.274 -0.258,-0.308 -1.32,-0.21199 -2.705,-0.93799 -3.347,-2.638985 -0.062,-0.195 -0.208,-0.28 -0.4,-0.177 l -0.438,0.193 -0.415,0.18 c -0.185,0.081 -0.361,0.077 -0.53,-0.011 l -3.194,-1.649 c -0.283,-0.172 -0.329,-0.333 -0.329,-0.576 v -2.281 c 0,-0.078 0.074,-0.201 0.247,-0.201 0.771,0.058 1.266,0.712 1.355,1.55 0,0 0.032,0.281 0.355,0.349 l 0.688,0.209 c 0.127,0.04 0.368,0.159 0.621,0.078 l 0.416,-0.172 c 0.159,-0.065 0.119,-0.181 0.085,-0.402 -0.1,-0.869 0.18,-1.483 0.674,-1.977 0.271,-0.271 0.575,-0.457 0.969,-0.628 0.412,-0.18 0.747,-0.317 1.161,-0.516 1.565,-0.755 3.325,-1.814 2.963,-4.396 -0.021,-0.131 0.111,-0.178 0.195,-0.071 0.243,0.311 0.589,0.856 0.702,1.553 z"
   id="path55"
   inkscape:connector-curvature="0"
   style="fill:#ae1c2d;fill-rule:evenodd" />
<path
   clip-rule="evenodd"
   d="m 47.591493,88.901935 c 0.06,0.08 0.107,0.233 0.215,0.406 l 0.672,-0.651 c -0.323,-0.046 -0.719,0.061 -0.887,0.245 z m -0.925,3.569 c -0.169,0.039 -0.341,0.077 -0.492,0.117 -0.082,0.015 -0.214,0 -0.237,-0.14 l -0.121,-0.71 c -0.016,-0.104 0.087,-0.131 0.126,-0.126 0.04,0.006 0.082,0.009 0.124,0.009 0.388,0 0.71,-0.261 0.773,-0.604 -0.845,0.02 -1.615,0.757 -2.183,-0.536 -0.036,-0.066 0.058,-0.14 0.112,-0.066 0.588,0.692 1.238,-0.023 1.957,0.086 -0.14,-0.2 -0.383,-0.309 -0.659,-0.309 -0.119,0 -0.184,0.009 -0.262,0.024 -0.117,0.035 -0.209,-0.056 -0.229,-0.136 l -0.093,-0.494 c 0,0 -0.154,-0.419 0.53,-0.655 l 1.392,-0.58 c 0.317,-0.102 0.403,-0.412 0.752,-0.47 0,0 1.479,-0.238 1.613,-0.238 0.139,0 0.374,0.095 0.427,0.353 l 0.015,0.094 c 0.326,2.324 -1.208,3.279 -2.769,4.032 -0.278,0.134 -0.521,0.239 -0.776,0.349 z m 2.851,8.962985 c 0.021,0.017 0.042,0.032 0.069,0.042 0.044,1.077 0.425,2.094 1.037,2.937 -0.745,0.268 -1.052,1.099 -0.428,1.944 0.167,0.275 0.131,0.358 0.048,0.525 l -1.237,2.484 c -0.073,0.165 -0.283,0.458 -0.578,0.458 h -2.437 c -0.262,0 -0.326,-0.215 -0.312,-0.371 0.104,-0.94 0.79,-1.213 1.82,-1.244 0.144,0 0.186,-0.091 0.215,-0.17 l 0.299,-0.791 c 0.218,-0.48 0.126,-0.545 -0.041,-0.7 -0.618,-0.511 -0.996,-1.434 -0.996,-2.228 0,-1.202 0.719,-2.404 1.991,-2.894 0.076,-0.033 0.14,-0.055 0.193,-0.07 0.121,0.03 0.24,0.056 0.357,0.078 z m -5.095,-6.199985 -0.629,0.016 c -0.228,0 -0.343,-0.063 -0.456,-0.184 l -2.139,-2.2 c -0.117,-0.138 -0.176,-0.235 -0.176,-0.43 v -2.169 c 0.002,-0.091 0.055,-0.235 0.261,-0.23 0.786,0.057 1.351,0.827 1.361,1.729 -10e-4,0.1 0.062,0.168 0.158,0.233 l 0.939,0.802 c 0.09,0.075 0.218,0.213 0.47,0.229 l 0.849,0.052 0.409,0.025 c -0.087,0.069 -0.171,0.144 -0.253,0.226 -0.489,0.49 -0.797,1.102 -0.794,1.901 z m 7.034,-5.712 c 0.576,3.519 -5.543,3.896 -4.445,6.193 -0.492,-2.148 3.905,-2.293 4.765,-4.636 0.053,-0.145 0.19,-0.139 0.208,0.021 0.166,1.46 -0.209,2.774 -0.998,3.81 -0.452,0.581 -0.363,3.082 2.014,4.418997 0.348,0.196 1.401,0.709998 1.81,0.162 0.548,-0.931997 0.337,-2.271997 -0.759,-2.804997 -2.248,-0.871 -2.068,-3.925 -0.279,-4.963 0.056,-0.035 0.091,-0.082 0.098,-0.248 0.021,-0.272 0.103,-0.425 0.339,-0.655 0.287,-0.279 0.568,-0.311 0.77,-0.344 0.188,-0.031 0.247,-0.042 0.315,-0.138 l 0.22,-0.305 c 0.111,-0.143 0.199,-0.147 0.258,-0.027 0.08,0.163 0.124,0.474 0.116,0.832 -0.008,0.365 -0.172,0.865 -0.482,1.14 -0.349,0.309 -0.665,0.323 -0.869,0.292 -0.083,-0.024 -0.222,-0.007 -0.288,0.034 -1.448,0.739 -1.547,3.097 0.103,3.725 1.657,0.797 1.881,2.922 0.896,4.213995 -0.101,0.132 -0.157,0.335 -0.096,0.543 0.285,0.97299 -0.375,2.17899 -0.478,2.43199 0,0.777 0.993,1.811 2.314,2.011 0.155,0.04 0.365,0.156 0.242,0.471 l -1.149,3.422 c -0.075,0.279 -0.285,0.705 -0.614,0.705 l -2.432,-0.001 c -0.134,0 -0.319,-0.114 -0.291,-0.32 0.123,-0.91 0.835,-1.18 1.643,-1.25 0.159,-0.002 0.213,-0.184 0.213,-0.184 l 0.433,-1.312 c 0.029,-0.115 10e-4,-0.258 -0.165,-0.302 l -1.178,-0.305 c -2.083,-0.558 -3.689,-2.518 -3.758,-4.739 -0.003,-0.168 -0.058,-0.274 -0.258,-0.308 -1.321,-0.21199 -2.706,-0.93799 -3.347,-2.638985 -0.061,-0.195 -0.207,-0.28 -0.4,-0.177 l -0.437,0.193 -0.415,0.18 c -0.185,0.081 -0.362,0.077 -0.531,-0.011 l -3.194,-1.649 c -0.282,-0.172 -0.329,-0.333 -0.329,-0.576 v -2.281 c 0,-0.078 0.074,-0.201 0.247,-0.201 0.772,0.058 1.267,0.712 1.356,1.55 0,0 0.032,0.281 0.355,0.349 l 0.689,0.209 c 0.127,0.04 0.369,0.159 0.621,0.078 l 0.417,-0.172 c 0.159,-0.065 0.119,-0.181 0.084,-0.402 -0.1,-0.869 0.18,-1.483 0.674,-1.977 0.271,-0.271 0.575,-0.457 0.969,-0.628 0.412,-0.18 0.747,-0.317 1.161,-0.516 1.565,-0.755 3.325,-1.814 2.962,-4.396 -0.02,-0.131 0.112,-0.178 0.196,-0.071 0.245,0.311 0.591,0.856 0.704,1.553 z"
   id="path57"
   inkscape:connector-curvature="0"
   style="fill:#ae1c2d;fill-rule:evenodd" />
<path
   clip-rule="evenodd"
   d="m 28.549493,47.850935 c 12.741,-8.565 28.109,-13.562 44.63,-13.562 16.527,0 31.886007,5.001 44.646007,13.572 -0.39,0.581 -0.953,1.071 -1.614,1.423 -1.354,0.72 -2.935,0.672 -4.166,-0.02 -11.367,-6.791 -24.662007,-10.695 -38.865007,-10.695 -14.226,0 -27.572,3.914 -38.92,10.725 -0.617,0.329 -1.27,0.49 -2.018,0.49 -1.535,0 -2.93,-0.744 -3.693,-1.933 z"
   id="path59"
   inkscape:connector-curvature="0"
   style="fill:#dfac13;fill-rule:evenodd" />
<path
   clip-rule="evenodd"
   d="m 27.746493,46.327935 c 12.955,-8.721 28.591,-13.81 45.398,-13.81 16.828,0 32.464007,5.101 45.446007,13.841 l 3.887,-5.694 c -14.089,-9.497 -31.063007,-15.041 -49.333007,-15.041 -18.236,0 -35.199,5.523 -49.255,14.988 l 3.857,5.716 z"
   id="path61"
   inkscape:connector-curvature="0"
   style="fill:#dfac13;fill-rule:evenodd" />
<g
   id="g63"
   transform="translate(-330.9925,-141.90807)">
	<defs
   id="defs65">
		<path
   id="SVGID_1_"
   d="m 358.739,188.236 c 12.955,-8.721 28.591,-13.81 45.398,-13.81 16.828,0 32.464,5.101 45.446,13.841 l 3.887,-5.694 c -14.089,-9.497 -31.063,-15.041 -49.333,-15.041 -18.236,0 -35.199,5.523 -49.255,14.988 l 3.857,5.716 z"
   inkscape:connector-curvature="0" />
	</defs>
	<clipPath
   id="SVGID_2_">
		<use
   xlink:href="#SVGID_1_"
   overflow="visible"
   id="use69"
   style="overflow:visible"
   x="0"
   y="0"
   width="841"
   height="595" />
	</clipPath>
	<polygon
   clip-path="url(#SVGID_2_)"
   clip-rule="evenodd"
   points="448.66,183.536 453.131,183.189 454.448,187.44 450.004,187.784 "
   id="polygon71"
   style="fill:#008752;fill-rule:evenodd" />
	<polygon
   clip-path="url(#SVGID_2_)"
   clip-rule="evenodd"
   points="359.775,183.533 355.331,183.189 353.987,187.438 358.432,187.782 "
   id="polygon73"
   style="fill:#008752;fill-rule:evenodd" />
</g>
<polygon
   clip-rule="evenodd"
   points="400.615,171.17 404.107,168.399 407.598,171.17 404.105,173.941 "
   id="polygon75"
   style="fill:#008752;fill-rule:evenodd"
   transform="translate(-330.9925,-141.90807)" />
<ellipse
   clip-rule="evenodd"
   cx="428.793"
   cy="174.834"
   rx="2.388"
   ry="2.381"
   id="ellipse77"
   sodipodi:cx="428.793"
   sodipodi:cy="174.834"
   sodipodi:rx="2.388"
   sodipodi:ry="2.381"
   style="fill:#ae1c2d;fill-rule:evenodd"
   transform="translate(-330.9925,-141.90807)" />
<path
   clip-rule="evenodd"
   d="m 136.3105,20.407935 c -2.341,0.005 -4.638,1.133 -6.045,3.22 -0.324,0.48 -0.691,1.024 -0.896,1.538 -0.45,-0.574 -1.009,-1.097 -1.652,-1.53 -2.15,-1.451 -4.727,-1.518 -6.94,-0.552 0.504,0.135 0.979,0.344 1.428,0.647 2.137,1.442 2.701,4.343 1.26,6.48 -1.441,2.137 -4.343,2.701 -6.479,1.259 -1.111,-0.75 -1.798,-1.896 -1.998,-3.122 0.196,0.033 0.39,0.045 0.562,0.035 1.226,-0.039 2.326,-0.858 2.71,-2.114 0.482,-1.579 -0.352,-3.25 -1.931,-3.732 -1.578,-0.482 -3.301,0.354 -3.784,1.932 -0.347,1.136 -0.032,2.494 0.891,3.134 -1.079,0.616 -2.399,0.803 -3.681,0.411 -2.465,-0.753 -3.853,-3.362 -3.099,-5.828 0.754,-2.466 3.362,-3.853 5.828,-3.099 0.518,0.158 0.979,0.396 1.401,0.703 -0.643,-2.329 -2.315,-4.289 -4.797,-5.047 -0.742,-0.227 -1.5,-0.332 -2.229,-0.321 0.271,-0.481 0.462,-1.11 0.631,-1.664 0.736,-2.407 0.167,-4.9019989 -1.302,-6.7239989 -2.237,0.689 -4.104,2.439 -4.84,4.8469989 -0.169,0.554 -0.361,1.181 -0.406,1.732 -0.59901,-0.417 -1.285007,-0.754 -2.027007,-0.981 -2.481,-0.759 -4.964,-0.069 -6.799,1.501 0.521,-0.018 1.036,0.043 1.555,0.202 2.465,0.753 3.853,3.363 3.099,5.828 -0.754,2.465 -3.363,3.853 -5.828,3.099 -1.281,-0.392 -2.271,-1.285 -2.821,-2.399 0.193,-0.026 0.379,-0.07 0.538,-0.13 1.16,-0.401 2.024,-1.517 2.024,-2.83 0,-1.651 -1.338,-2.989 -2.988,-2.989 -1.65,0 -2.988,1.338 -2.988,2.989 0,1.191 0.701,2.219 1.709,2.699 -0.852,0.905 -2.06,1.469 -3.4,1.469 -2.578,0 -4.667,-2.09 -4.667,-4.667 0,-2.578 2.09,-4.667 4.667,-4.667 0.542,0 1.053,0.092 1.546,0.262 -1.295,-2.0389993 -3.598,-3.4079989 -6.063,-3.4079989 -0.776,0 -1.531,0.105 -2.226,0.329 0.118,-0.54 0.118,-1.196 0.118,-1.775 0,-2.517 -1.274,-4.736 -3.211,-6.0500001 -1.938,1.3130001 -3.211,3.5330001 -3.211,6.0500001 0,0.579 0,1.235 0.117,1.775 -0.694,-0.224 -1.449,-0.31 -2.225,-0.313 -2.467,-0.011 -4.767,1.3539996 -6.063,3.3929989 0.493,-0.17 1.004,-0.262 1.545,-0.262 2.578,0 4.667,2.089 4.667,4.667 0,2.578 -2.089,4.667 -4.667,4.667 -1.34,0 -2.548,-0.564 -3.399,-1.469 0.961,-0.494 1.634,-1.511 1.634,-2.674 0,-1.65 -1.338,-2.989 -2.988,-2.989 -1.651,0 -2.989,1.338 -2.989,2.989 0,1.522 1.143,2.784 2.614,2.97 -0.554,1.093 -1.535,1.967 -2.799,2.354 -2.465,0.753 -5.074,-0.634 -5.828,-3.099 -0.753,-2.465 0.634,-5.075 3.099,-5.829 0.518,-0.158 1.033,-0.219 1.555,-0.201 -1.835,-1.571 -4.318,-2.26 -6.799,-1.502 -0.742,0.227 -1.429,0.563 -2.027,0.981 -0.045,-0.551 -0.237,-1.179 -0.407,-1.732 -0.736,-2.4069989 -2.603,-4.1569989 -4.84,-4.8459989 -1.469,1.822 -2.038,4.3169989 -1.302,6.7239989 0.169,0.554 0.361,1.182 0.631,1.664 -0.729,-0.012 -1.487,0.094 -2.229,0.321 -2.481,0.758 -4.154,2.718 -4.797,5.046 0.422,-0.307 0.884,-0.544 1.402,-0.702 2.465,-0.754 5.074,0.634 5.828,3.099 0.753,2.465 -0.634,5.074 -3.099,5.828 -1.282,0.392 -2.603,0.205 -3.681,-0.411 0.786,-0.755 1.111,-1.955 0.768,-3.076 -0.482,-1.579 -2.153,-2.467 -3.732,-1.984 -1.578,0.482 -2.467,2.153 -1.984,3.731 0.448,1.465 1.918,2.334 3.389,2.066 -0.2,1.226 -0.885,2.37 -1.997,3.119 -2.137,1.442 -5.038,0.878 -6.479,-1.259 -1.441,-2.137 -0.878,-5.038 1.259,-6.479 0.449,-0.303 0.924,-0.512 1.428,-0.647 -2.214,-0.966 -4.79,-0.898 -6.941,0.552 -0.643,0.434 -1.202,0.957 -1.652,1.53 -0.204,-0.514 -0.572,-1.058 -0.896,-1.538 -1.407,-2.087 -3.704,-3.215 -6.045,-3.22 l 12.994,18.929 c 14.305,-9.632 31.566,-15.252 50.124,-15.252 18.551,0 35.789007,5.617 50.108007,15.242 l 13.044,-18.9 z"
   id="path79"
   inkscape:connector-curvature="0"
   style="fill:#dfac13;fill-rule:evenodd" />
<ellipse
   clip-rule="evenodd"
   cx="379.173"
   cy="174.91499"
   rx="2.388"
   ry="2.381"
   id="ellipse81"
   sodipodi:cx="379.173"
   sodipodi:cy="174.91499"
   sodipodi:rx="2.388"
   sodipodi:ry="2.381"
   style="fill:#ae1c2d;fill-rule:evenodd"
   transform="translate(-330.9925,-141.90807)" />
</svg>