<?xml version="1.0" encoding="UTF-8" standalone="no"?>
<!-- Generator: Adobe Illustrator 15.0.2, SVG Export Plug-In . SVG Version: 6.00 Build 0)  -->

<svg
   xmlns:dc="http://purl.org/dc/elements/1.1/"
   xmlns:cc="http://creativecommons.org/ns#"
   xmlns:rdf="http://www.w3.org/1999/02/22-rdf-syntax-ns#"
   xmlns:svg="http://www.w3.org/2000/svg"
   xmlns="http://www.w3.org/2000/svg"
   xmlns:xlink="http://www.w3.org/1999/xlink"
   xmlns:sodipodi="http://sodipodi.sourceforge.net/DTD/sodipodi-0.dtd"
   xmlns:inkscape="http://www.inkscape.org/namespaces/inkscape"
   version="1.0"
   id="Capa_1"
   x="0px"
   y="0px"
   width="150"
   height="198.58109"
   viewBox="0 0 87.284 104.30291"
   enable-background="new 0 0 569.764 782.362"
   xml:space="preserve"
   inkscape:version="0.48.2 r9819"
   sodipodi:docname="TSG_01.svg"><metadata
   id="metadata307"><rdf:RDF><cc:Work
       rdf:about=""><dc:format>image/svg+xml</dc:format><dc:type
         rdf:resource="http://purl.org/dc/dcmitype/StillImage" /></cc:Work></rdf:RDF></metadata><defs
   id="defs305" /><sodipodi:namedview
   pagecolor="#ffffff"
   bordercolor="#666666"
   borderopacity="1"
   objecttolerance="10"
   gridtolerance="10"
   guidetolerance="10"
   inkscape:pageopacity="0"
   inkscape:pageshadow="2"
   inkscape:window-width="1920"
   inkscape:window-height="1018"
   id="namedview303"
   showgrid="false"
   fit-margin-top="0"
   fit-margin-left="0"
   fit-margin-right="0"
   fit-margin-bottom="0"
   inkscape:zoom="4.0235453"
   inkscape:cx="75"
   inkscape:cy="99.290543"
   inkscape:window-x="-8"
   inkscape:window-y="-8"
   inkscape:window-maximized="1"
   inkscape:current-layer="Capa_1" />
<g
   id="g3"
   transform="translate(-29.625,-35.126046)">
	<defs
   id="defs5">
		<rect
   id="SVGID_1_"
   x="29.291"
   y="29.417"
   width="87.952003"
   height="115.972" />
	</defs>
	<clipPath
   id="SVGID_2_">
		<use
   xlink:href="#SVGID_1_"
   overflow="visible"
   id="use9"
   style="overflow:visible"
   x="0"
   y="0"
   width="569.76398"
   height="782.362" />
	</clipPath>
	<path
   clip-path="url(#SVGID_2_)"
   d="m 36.366,101.145 c 0,-19.318 16.557,-34.979 36.982,-34.979 20.425,0 36.983,15.661 36.983,34.979 0,19.318 -16.558,34.979 -36.983,34.979 -20.425,0 -36.982,-15.661 -36.982,-34.979"
   id="path11"
   inkscape:connector-curvature="0"
   style="fill:#ffffff" />
	
		<ellipse
   clip-path="url(#SVGID_2_)"
   stroke-miterlimit="3.864"
   cx="73.348"
   cy="101.145"
   rx="36.983002"
   ry="34.979"
   id="ellipse13"
   sodipodi:cx="73.348"
   sodipodi:cy="101.145"
   sodipodi:rx="36.983002"
   sodipodi:ry="34.979"
   style="fill:none;stroke:#ffffff;stroke-width:0.167;stroke-miterlimit:3.86400008"
   d="m 110.331,101.145 c 0,19.31836 -16.557853,34.979 -36.983,34.979 -20.425148,0 -36.983002,-15.66064 -36.983002,-34.979 0,-19.318372 16.557854,-34.979003 36.983002,-34.979003 20.425147,0 36.983,15.660631 36.983,34.979003 z" />
	<path
   clip-path="url(#SVGID_2_)"
   clip-rule="evenodd"
   d="m 72.198,29.501 c 0.25,0 2.629,-0.01 2.796,0.937 0.111,0.653 0.042,1.342 0.063,1.986 1.055,0.746 1.426,0.889 1.426,1.585 0,0.473 0.033,3.311 -1.899,3.487 v 0.84 c 0.007,0.528 0.382,1.838 0.743,1.921 1.851,0.445 5.497,0.819 5.775,0.819 0.779,0 1.502,-1.349 1.502,-1.947 0,-0.404 -1.447,-0.404 -1.447,-1.726 0,-0.278 0.271,-1.903 0.702,-2.752 0.209,-0.417 1.085,-0.597 1.562,-0.403 0.471,-0.797 0.352,-2.744 2.021,-2.744 0.891,0 3.172,1.308 3.172,2.226 0,0.279 -0.782,1.521 -1.005,2.152 0.561,0.333 1.005,0.728 1.005,1.187 0,0.821 -1.725,3.117 -2.504,3.117 -0.278,0 -0.581,-0.228 -0.767,-0.335 -0.483,0.647 -0.402,0.864 -0.402,1.448 0,1.196 3.771,2.56 4.508,2.56 1.336,0 2.059,-1.753 2.059,-2.504 0,-0.237 -0.556,-0.821 -0.556,-1.225 0,-2.963 5.453,-4.507 7.011,-4.507 0.974,0 1.224,0.834 1.224,1.279 0,0.835 -7.668,12.144 -10.631,15.066 -3.562,3.52 -10.57,4.134 -15.245,4.134 -4.521,0 -11.567,-0.721 -15.588,-3.837 C 57.097,51.791 46.544,37.71 46.544,36.847 c 0,-0.96 0.807,-1.224 1.391,-1.224 0.863,0 1.367,0.461 2.577,0.851 0.751,0.236 1.601,0.056 2.338,0.292 1.002,0.334 2.153,2.39 2.153,3.42 0,0.278 -0.557,1.169 -0.557,1.447 0,0.974 0.766,2.226 1.948,2.226 0.598,0 4.619,-1.586 4.619,-2.449 0,-0.278 -0.215,-1.028 -0.517,-1.56 -0.182,0.108 -0.596,0.225 -0.874,0.225 -1.1,0 -2.282,-2.588 -2.282,-3.117 0,-0.459 0.025,-1.168 1.008,-1.195 -0.444,-0.725 -1.008,-2.033 -1.008,-2.311 0,-1.113 2.588,-2.059 3.172,-2.059 1.391,0 1.61,2.053 1.912,2.898 0.178,-0.109 0.314,-0.227 0.592,-0.227 1.197,0 1.781,3.061 1.781,3.506 0,1.169 -1.447,0.919 -1.447,1.503 0,0.529 0.723,1.892 1.391,1.892 0.278,0 3.802,-0.458 5.666,-0.82 0.334,-0.055 0.956,-1.573 0.96,-2.116 v -0.432 c -0.32,-0.143 -1.223,0.01 -1.529,-0.672 -0.418,-0.946 -0.478,-2.805 -0.478,-3.083 0,-0.849 0.449,-1.405 1.464,-1.321 -0.017,-0.516 -0.129,-1.517 -0.129,-1.796 0,-1.071 0.766,-1.224 1.503,-1.224"
   id="path15"
   inkscape:connector-curvature="0"
   style="fill-rule:evenodd" />
	<path
   clip-path="url(#SVGID_2_)"
   clip-rule="evenodd"
   d="m 63.277,136.924 c 0.265,0.114 0.592,0.223 0.953,0.354 0.011,0.255 -0.117,0.517 -0.37,0.756 -0.256,-0.117 -0.565,-0.222 -0.827,-0.239 -0.017,-0.262 0.101,-0.621 0.244,-0.871"
   id="path17"
   inkscape:connector-curvature="0"
   style="fill:#b7babe;fill-rule:evenodd" />
	<path
   clip-path="url(#SVGID_2_)"
   clip-rule="evenodd"
   d="m 68.024,137.812 c 0.278,0 0.668,0.334 0.668,0.612 0,0.752 -0.362,2.171 -0.891,2.171 -0.737,0 -0.667,-0.752 -0.667,-0.947 0.001,-0.584 0.376,-1.836 0.89,-1.836"
   id="path19"
   inkscape:connector-curvature="0"
   style="fill:#b7babe;fill-rule:evenodd" />
	<path
   clip-path="url(#SVGID_2_)"
   clip-rule="evenodd"
   d="m 77.305,138.926 c 0.275,0.237 0.4,0.593 0.503,0.977 -0.156,0.023 -0.365,0.022 -0.865,0.117 0.099,-0.39 0.211,-0.724 0.362,-1.094"
   id="path21"
   inkscape:connector-curvature="0"
   style="fill:#b7babe;fill-rule:evenodd" />
	<path
   clip-path="url(#SVGID_2_)"
   clip-rule="evenodd"
   d="m 70.767,137.157 h 1.127 c 0.354,0.686 0.795,1.457 1.293,2.214 0.069,-0.622 0.069,-1.383 -0.03,-2.097 h 1.251 v 4.647 h -0.886 c -0.705,-0.273 -1.109,-1.453 -1.554,-2.329 -0.064,0.096 -0.048,0.276 0.034,2.21 h -1.235 v -4.645 z m 6.683,-0.343 c 0.807,1.472 1.586,3.03 2.364,4.532 -0.382,0.027 -0.771,0.139 -1.049,0.139 -0.265,0 -0.348,-0.557 -0.779,-0.557 -0.279,0 -1.211,0.202 -1.299,0.765 -0.26,0.014 -0.583,0.013 -1.189,0.109 0.318,-1.83 0.652,-3.278 1.006,-4.868 0.257,-0.013 0.574,-0.01 0.946,-0.12 m -9.648,-0.004 c 1.572,0 2.115,1.127 2.115,2.226 0,0.821 -0.766,2.671 -1.781,2.671 -0.362,0 -1.67,-0.348 -1.67,-0.723 0,-0.028 -0.556,-0.779 -0.556,-1.058 0,-1.099 0.417,-3.116 1.892,-3.116 m -5.538,-1.216 c 1.683,0.383 3.201,0.409 3.201,2.218 0,0.389 -0.82,0.952 -1.228,1.188 0.223,0.631 0.334,1.298 0.549,2.016 -0.49,0.023 -0.949,-0.089 -1.424,-0.22 -0.012,-0.591 -0.123,-1.251 -0.215,-1.996 -0.075,0.013 -0.337,-0.003 -0.398,-0.099 -0.182,0.523 -0.293,1.19 -0.544,1.777 -0.375,-0.109 -0.82,-0.22 -1.186,-0.358 l 1.245,-4.526 z m 22.202,-0.448 c 0.139,0.366 0.25,0.7 0.359,1.075 -0.586,0.251 -1.257,0.364 -1.913,0.581 -0.101,0.103 0.026,0.286 0.01,0.581 0.072,-0.016 0.016,0.095 0.294,0.095 0.279,0 0.989,-0.332 1.471,-0.44 0.137,0.248 0.249,0.582 0.363,0.847 -0.473,0.255 -1.044,0.371 -1.568,0.463 0.013,0.076 -0.099,0.02 -0.099,0.298 0,0.279 0.333,0.991 0.44,1.583 -0.248,0.137 -0.596,0.253 -1.192,0.357 l -1.355,-4.528 c 1.038,-0.248 2.145,-0.581 3.19,-0.912 m -24.088,-0.334 c 0.374,0.109 0.708,0.331 1.075,0.472 l -1.696,4.415 c -0.376,-0.109 -0.821,-0.332 -1.188,-0.473 l 1.809,-4.414 z m 26.789,-0.784 c 0.39,0 1.317,0.422 1.447,0.73 -0.137,0.181 -0.807,0.605 -0.946,0.605 -0.278,0 -0.167,-0.223 -0.445,-0.223 -0.445,0 -0.723,0.321 -0.723,0.613 0,0.598 1.029,1.947 1.391,1.947 0.473,0 0.389,-0.584 0.389,-0.723 0,-0.278 0.706,-0.387 1.09,-0.49 0.023,0.156 0.135,0.323 0.135,0.601 0,0.932 -1.197,1.725 -1.948,1.725 -1.308,0 -2.282,-2.281 -2.282,-3.172 0,-0.278 0.112,-0.167 0.112,-0.445 0,-0.709 1.572,-1.168 1.78,-1.168 m -30.272,-0.557 c 0.723,0 2.031,0.628 2.003,1.615 0,0.667 -0.111,0.778 -0.141,0.939 -0.378,-0.227 -1.306,-1.441 -1.584,-1.441 -0.737,0 -1.391,1.725 -1.391,2.003 0,0.279 0.389,0.557 0.668,0.557 0.278,0 0.35,-0.206 0.449,-0.3 -0.004,-0.201 -0.196,-0.262 -0.441,-0.394 -0.008,-0.252 0.224,-0.617 0.483,-0.975 0.488,0.344 1.04,0.564 1.62,0.926 -0.306,0.942 -1.11,1.856 -2,1.856 -0.376,0 -1.669,-0.529 -1.669,-1.057 0,-0.279 -0.334,-0.39 -0.334,-0.668 0,-1.03 1.446,-3.061 2.337,-3.061 m 14.914,-21.036 c 0.528,0 1.558,0.278 1.546,1.183 v 1.256 c -1.063,-0.327 -2.07,-0.774 -3.098,-1.243 0.161,-1.204 0.967,-1.196 1.552,-1.196 m 6.566,-0.223 c 0.278,0 0.526,0.117 0.779,0.279 -0.698,0.383 -1.366,0.829 -2.08,1.164 -0.268,-0.772 0.786,-1.443 1.301,-1.443 m 6.218,-8.007 v 2.929 c 0.015,0.445 -0.363,1.402 -0.841,1.847 -0.035,-0.275 0.035,-0.498 0.077,-3.503 0,-0.25 0.107,-0.866 0.764,-1.273 m -6.218,-0.34 c 0.515,0 1.558,0.459 1.558,1.182 v 3.757 c 0,0.751 1.03,1.628 2.223,1.665 -0.574,0.507 -1.131,0.841 -1.749,1.291 0.18,-1.669 -0.557,-2.664 -1.865,-2.664 -0.89,0 -1.948,0.57 -1.952,1.628 v 3.245 c -0.808,0.354 -1.699,0.799 -2.51,1.136 -0.14,-0.126 -0.379,-0.319 -0.379,-0.597 v -3.923 c 0,-1.169 -1.35,-1.489 -1.948,-1.489 -0.445,0 -1.836,0.264 -1.845,1.294 v 3.031 c -4.347,-0.04 -1.216,-4.325 -4.61,-4.325 -0.682,0 -0.821,-0.019 -1.557,0.779 -0.152,-0.128 -0.28,-0.056 -0.28,-0.334 0,-0.278 0.334,-1.989 0.334,-2.268 v -2.142 c 0,-0.696 1.071,-1.155 1.503,-1.155 0.459,0 1.502,0.529 1.502,1.294 v 2.866 c 0,1.057 -0.111,2.296 1.558,2.296 1.113,0 1.892,-0.543 1.892,-1.712 v -3.7 c 0,-0.724 1.336,-1.044 1.559,-1.044 2.156,0 1.446,3.478 1.446,4.063 0,1.196 0.279,2.393 1.837,2.393 1.196,0 1.948,-1.044 1.948,-1.934 v -3.701 c 0,-0.682 1.112,-0.932 1.335,-0.932 m -8.382,-2.111 c 0.035,0.163 0.007,0.387 -0.076,3.17 -0.028,1.224 -0.056,2.391 -1.447,2.391 -0.738,0 -1.336,-0.57 -1.319,-1.155 v -4.072 c 0.634,0.54 0.734,0.441 1.207,0.441 0.793,0 0.878,-0.024 1.635,-0.775 m 6.782,-0.225 c 0.042,0.277 -0.181,0.569 -0.181,0.847 v 3.534 c 0,0.918 -1.057,1.405 -1.502,1.405 -0.445,0 -1.433,-0.336 -1.391,-1.392 0,-3.561 0.016,-3.744 -0.096,-3.934 0.566,0.472 0.847,0.54 1.487,0.54 0.556,0 1.078,0.015 1.683,-1 m 7.81,-5.229 v 4.537 c -0.489,0.173 -1.09,0.927 -1.09,1.428 v 3.311 c 0,1.071 -0.793,1.739 -1.725,1.739 -0.446,0 -1.433,-0.239 -1.427,-1.169 v -4.282 c 0.514,0.803 0.787,0.665 1.427,0.665 1.043,0 2.059,-0.807 2.059,-1.823 V 97.34 c 0,-0.279 0.35,-0.693 0.756,-1.04 M 71.809,96.074 c 0.528,0 1.558,0.584 1.54,1.182 v 4.157 c -0.761,-0.795 -0.9,-0.665 -1.596,-0.665 -0.543,0 -1.064,-0.182 -1.695,0.884 0.087,-0.296 0.192,-0.536 0.192,-0.814 v -3.701 c 0,-0.723 1.336,-1.043 1.559,-1.043 m -6.511,0 c 0.459,0 1.502,0.584 1.485,1.182 v 4.045 c -0.718,-0.667 -0.998,-0.553 -1.485,-0.553 -0.724,0 -1.837,0.348 -1.837,1.405 v 3.534 c 0,0.181 -0.724,1.531 -1.319,1.5 v -4.641 c 1.484,-0.072 1.653,-2.299 1.653,-3.175 v -2.143 c 0,-0.779 1.071,-1.154 1.503,-1.154 m 13.077,-0.112 c 0.918,0 1.221,0.441 1.595,1.381 v 4.07 c -0.691,-0.795 -0.899,-0.665 -1.484,-0.665 -0.445,0 -1.023,-0.152 -1.628,0.777 -0.041,-0.276 0.182,-0.652 0.182,-0.93 v -3.701 c 0,-0.57 1.112,-0.932 1.335,-0.932 m -8.477,-1.889 v 2.933 c 0.019,1.057 -0.079,2.407 -1.428,2.407 -0.738,0 -1.336,-0.585 -1.319,-1.155 v -3.961 c 0.647,0.539 0.693,0.441 1.263,0.441 0.473,0 0.764,0.146 1.484,-0.665 m 6.889,-0.33 c -0.087,0.296 -0.193,0.452 -0.193,0.731 v 3.534 c 0,0.904 -1.057,1.405 -1.502,1.405 -0.584,0 -1.391,-0.585 -1.375,-1.155 v -4.071 c 0.868,0.661 0.763,0.551 1.375,0.551 0.556,0 1.078,0.029 1.695,-0.995 m 7.056,-2.772 h 0.751 v 1.964 c -0.498,0.172 -1.099,0.913 -1.099,1.427 v 3.312 c 0,1.057 -0.793,1.739 -1.725,1.739 -0.446,0 -1.433,-0.253 -1.429,-1.169 v -4.171 c 0.512,0.63 0.789,0.665 1.429,0.665 2.212,0 2.198,-2.304 2.073,-3.767 m -3.236,0.015 h 2.438 c -0.441,0.534 -0.983,0.635 -1.331,0.635 -0.445,0 -0.74,-0.105 -1.107,-0.635 M 76.84,90.975 h 3.175 c -0.082,1.929 -0.088,2.236 0.004,2.53 -0.713,-0.776 -1.004,-0.659 -1.477,-0.659 -0.556,0 -1.066,-0.152 -1.692,0.774 0.178,-0.762 0.347,-1.74 -0.01,-2.645 m -2.908,0.009 h 2.324 c -0.346,0.399 -0.886,0.637 -1.164,0.637 -0.209,0 -0.941,-0.115 -1.16,-0.637 m -3.779,-0.013 h 3.188 v 2.539 c -0.753,-0.78 -0.892,-0.664 -1.588,-0.664 -0.696,0 -0.819,-0.147 -1.58,0.775 0.078,-0.839 0.078,-1.714 -0.02,-2.65 m -2.793,0.018 h 2.218 c -0.176,0.251 -0.83,0.632 -1.108,0.632 -0.432,0 -0.73,-0.288 -1.11,-0.632 m -3.544,-0.021 h 2.959 v 2.43 c -0.71,-0.652 -0.99,-0.552 -1.477,-0.552 -0.724,0 -1.837,0.362 -1.837,1.405 v 3.534 c 0,0.167 -0.726,1.544 -1.321,1.499 v -4.525 c 2.005,-0.451 1.392,-2.509 1.676,-3.791 m -1.668,0.003 h 0.742 c 0.015,0.15 -0.239,0.311 -0.742,0.532 V 90.971 z M 72.532,67.692 c 18.545,0 33.778,15.234 33.778,33.78 0,18.698 -14.927,33.891 -33.778,33.891 -18.698,0 -33.89,-15.206 -33.89,-33.836 0,-18.615 15.192,-33.835 33.89,-33.835 m 3.325,-9.127 c 3.812,0 11.597,2.286 14.394,3.525 3.867,1.711 7.889,3.975 11.701,7.537 10.545,9.85 14.152,21.786 14.152,32.012 0,24.124 -19.532,43.073 -43.127,43.073 -10.406,0 -22.523,-3.538 -32.289,-14.487 -4.188,-4.689 -7.135,-10.053 -8.54,-14.825 -0.585,-1.975 -2.187,-7.737 -2.187,-10.575 v -6.484 c 0,-1.794 1.658,-8.808 1.853,-9.462 1.628,-5.565 4.727,-11.068 9.652,-16.716 6.748,-7.736 20.423,-13.598 28.631,-13.598 h 5.76 z"
   id="path23"
   inkscape:connector-curvature="0"
   style="fill-rule:evenodd" />
	<path
   clip-path="url(#SVGID_2_)"
   clip-rule="evenodd"
   d="m 72.643,29.613 c 0.57,0 1.744,-0.197 2.231,0.583 0.362,0.57 0.162,1.474 0.185,2.232 0.599,0.553 1.424,0.705 1.424,1.414 0,0.474 -0.462,3.059 -0.615,3.212 -0.403,0.403 -1.389,0.127 -1.389,0.573 0,0.654 0.319,2.519 0.847,2.631 1.864,0.417 5.442,0.819 5.72,0.819 0.988,0 1.434,-1.112 1.673,-2.039 -0.785,-0.502 -1.562,-0.674 -1.562,-1.634 0,-0.612 0.515,-3.116 2.471,-3.105 0.203,-0.709 0.298,-2.794 1.814,-2.794 1.043,0 3.061,1.489 3.061,2.226 0,0.612 -0.827,1.737 -1.002,2.055 0.295,0.374 1.113,0.491 1.113,1.228 0,1.044 -1.85,3.061 -2.448,3.061 -0.279,0 -0.63,-0.114 -0.925,-0.227 -0.194,0.419 -0.411,1.173 -0.411,1.452 0,1.154 3.993,2.671 4.73,2.671 1.377,0 1.948,-2.031 1.948,-2.56 0,-0.278 -0.557,-1.002 -0.557,-1.28 0,-3.117 5.176,-4.396 6.956,-4.396 0.64,0 1.28,0.347 1.28,1.168 0,0.765 -7.777,11.878 -10.518,14.841 -2.657,2.88 -6.695,3.287 -9.783,3.871 -1.753,0.334 -5.186,0.488 -5.464,0.488 -4.535,0 -11.482,-0.804 -15.614,-3.837 -0.251,-0.181 -11.153,-14.389 -11.153,-15.419 0,-0.89 0.557,-1.224 1.28,-1.224 0.279,0 1.907,0.712 2.798,0.962 0.654,0.181 1.365,-0.013 2.005,0.182 0.793,0.25 2.265,2.557 2.265,3.42 0,0.278 -0.668,1.057 -0.668,1.335 0,1.113 0.793,2.337 2.059,2.337 0.904,0 4.619,-1.474 4.619,-2.448 0,-0.376 -0.14,-1.558 -0.557,-1.558 -0.278,0 -0.556,0.222 -0.835,0.222 -0.806,0 -2.281,-2.323 -2.281,-3.061 0,-0.945 1.001,-0.89 1.001,-1.335 0,-0.404 -0.89,-1.322 -0.89,-2.226 0,-0.89 2.351,-2.059 3.005,-2.059 1.489,0 1.774,2.477 1.973,2.858 1.915,-0.27 2.256,2.498 2.256,3.208 0,1.335 -1.447,1.085 -1.447,1.502 0,0.682 0.793,2.004 1.559,2.004 0.278,0 3.745,-0.347 5.498,-0.709 0.278,-0.055 1.068,-1.503 1.075,-2.004 v -0.756 c -1.901,-0.065 -2.01,-3.279 -2.01,-3.766 0,-0.682 0.785,-0.766 1.449,-1.304 v -2.216 c -0.002,-0.723 1.542,-0.598 1.834,-0.598"
   id="path25"
   inkscape:connector-curvature="0"
   style="fill-rule:evenodd" />
	<path
   clip-path="url(#SVGID_2_)"
   clip-rule="evenodd"
   d="m 63.277,136.924 c 0.265,0.114 0.592,0.223 0.953,0.354 0.011,0.255 -0.117,0.517 -0.37,0.756 -0.256,-0.117 -0.565,-0.222 -0.827,-0.239 -0.017,-0.262 0.101,-0.621 0.244,-0.871"
   id="path27"
   inkscape:connector-curvature="0"
   style="fill-rule:evenodd" />
	<path
   clip-path="url(#SVGID_2_)"
   clip-rule="evenodd"
   d="m 68.024,137.812 c 0.278,0 0.668,0.334 0.668,0.612 0,0.752 -0.362,2.171 -0.891,2.171 -0.737,0 -0.667,-0.752 -0.667,-0.947 0.001,-0.584 0.376,-1.836 0.89,-1.836"
   id="path29"
   inkscape:connector-curvature="0"
   style="fill-rule:evenodd" />
	<path
   clip-path="url(#SVGID_2_)"
   clip-rule="evenodd"
   d="m 77.305,138.926 c 0.275,0.237 0.4,0.593 0.503,0.977 -0.156,0.023 -0.365,0.022 -0.865,0.117 0.099,-0.39 0.211,-0.724 0.362,-1.094"
   id="path31"
   inkscape:connector-curvature="0"
   style="fill-rule:evenodd" />
	<path
   clip-path="url(#SVGID_2_)"
   clip-rule="evenodd"
   d="m 70.767,137.157 h 1.128 c 0.353,0.686 0.794,1.457 1.292,2.214 0.069,-0.622 0.069,-1.383 -0.029,-2.097 h 1.25 v 4.647 h -0.886 c -0.705,-0.273 -1.108,-1.453 -1.554,-2.329 -0.064,0.096 -0.048,0.276 0.034,2.21 h -1.235 v -4.645 z m 6.683,-0.343 c 0.807,1.472 1.586,3.03 2.364,4.532 -0.381,0.027 -0.771,0.139 -1.049,0.139 -0.265,0 -0.348,-0.557 -0.779,-0.557 -0.279,0 -1.211,0.202 -1.299,0.765 -0.259,0.014 -0.582,0.013 -1.189,0.109 0.318,-1.83 0.652,-3.278 1.006,-4.868 0.258,-0.013 0.574,-0.01 0.946,-0.12 m -9.648,-0.004 c 1.572,0 2.115,1.127 2.115,2.226 0,0.821 -0.765,2.671 -1.781,2.671 -0.362,0 -1.67,-0.348 -1.67,-0.723 0,-0.028 -0.556,-0.779 -0.556,-1.058 0,-1.099 0.417,-3.116 1.892,-3.116 m -5.537,-1.216 c 1.682,0.383 3.2,0.409 3.2,2.218 0,0.389 -0.82,0.952 -1.228,1.188 0.223,0.631 0.335,1.298 0.55,2.016 -0.491,0.023 -0.95,-0.089 -1.425,-0.22 -0.012,-0.591 -0.123,-1.251 -0.215,-1.996 -0.075,0.013 -0.337,-0.003 -0.398,-0.099 -0.182,0.523 -0.293,1.19 -0.544,1.777 -0.375,-0.109 -0.82,-0.22 -1.185,-0.358 l 1.245,-4.526 z m 22.201,-0.448 c 0.139,0.366 0.25,0.7 0.359,1.075 -0.586,0.251 -1.257,0.364 -1.913,0.581 -0.101,0.103 0.026,0.286 0.01,0.581 0.072,-0.016 0.016,0.095 0.295,0.095 0.278,0 0.988,-0.332 1.47,-0.44 0.137,0.248 0.249,0.582 0.363,0.847 -0.473,0.255 -1.043,0.371 -1.568,0.463 0.013,0.076 -0.098,0.02 -0.098,0.298 0,0.279 0.332,0.991 0.439,1.583 -0.248,0.137 -0.595,0.253 -1.192,0.357 l -1.354,-4.528 c 1.037,-0.248 2.145,-0.581 3.189,-0.912 m -24.088,-0.334 c 0.374,0.109 0.708,0.331 1.075,0.472 l -1.696,4.415 c -0.375,-0.109 -0.821,-0.332 -1.187,-0.473 l 1.808,-4.414 z m 26.79,-0.784 c 0.389,0 1.316,0.422 1.446,0.73 -0.137,0.181 -0.806,0.605 -0.946,0.605 -0.278,0 -0.166,-0.223 -0.445,-0.223 -0.445,0 -0.723,0.321 -0.723,0.613 0,0.598 1.029,1.947 1.391,1.947 0.473,0 0.39,-0.584 0.39,-0.723 0,-0.278 0.705,-0.387 1.089,-0.49 0.024,0.156 0.135,0.323 0.135,0.601 0,0.932 -1.197,1.725 -1.948,1.725 -1.308,0 -2.281,-2.281 -2.281,-3.172 0,-0.278 0.111,-0.167 0.111,-0.445 0,-0.709 1.572,-1.168 1.781,-1.168 m -30.273,-0.557 c 0.724,0 2.031,0.628 2.003,1.615 0,0.667 -0.111,0.778 -0.141,0.939 -0.377,-0.227 -1.305,-1.441 -1.584,-1.441 -0.737,0 -1.391,1.725 -1.391,2.003 0,0.279 0.39,0.557 0.668,0.557 0.278,0 0.35,-0.206 0.449,-0.3 -0.004,-0.201 -0.196,-0.262 -0.441,-0.394 -0.008,-0.252 0.224,-0.617 0.483,-0.975 0.488,0.344 1.04,0.564 1.62,0.926 -0.306,0.942 -1.109,1.856 -2,1.856 -0.375,0 -1.669,-0.529 -1.669,-1.057 0,-0.279 -0.334,-0.39 -0.334,-0.668 0,-1.03 1.447,-3.061 2.337,-3.061 m 14.914,-21.147 c 0.528,0 1.558,0.375 1.546,1.071 v 1.479 c -1.063,-0.327 -2.065,-0.772 -3.099,-1.127 v -0.491 c -0.005,-0.682 1.33,-0.932 1.553,-0.932 m 6.566,-0.112 c 0.278,0 0.637,0.117 0.891,0.279 -0.699,0.383 -1.475,0.827 -2.309,1.272 -0.056,-1.104 0.876,-1.551 1.418,-1.551 m 6.217,-8.119 v 3.264 c 0.016,0.278 -0.442,1.273 -0.949,1.847 -0.037,-0.164 0.019,-0.388 0.074,-2.502 0.014,-0.766 -0.257,-1.754 0.875,-2.609 m -6.161,-0.228 c 0.598,0 1.614,0.501 1.614,1.405 v 3.868 c 0,0.807 1.447,1.294 2.222,1.331 -0.574,0.507 -1.245,0.955 -1.971,1.402 0.027,-1.664 -0.265,-2.775 -1.81,-2.775 -0.667,0 -1.78,0.57 -1.784,1.294 v 3.465 c -0.803,0.465 -1.696,0.911 -2.599,1.361 -0.124,0.001 -0.402,-0.207 -0.402,-0.485 v -4.035 c 0,-1.127 -1.35,-1.6 -1.948,-1.6 -0.737,0 -1.836,0.612 -1.85,1.516 v 2.928 c -0.957,-0.443 -1.848,-0.889 -2.735,-1.358 0.162,-1.16 -0.062,-3.086 -1.87,-3.086 -0.348,0 -1.233,0.419 -1.552,0.89 l -0.395,-0.382 c 0.116,-0.255 0.333,-0.494 0.333,-0.771 V 105.8 c 0,-0.877 0.529,-1.823 1.558,-1.823 0.529,0 1.558,0.306 1.558,1.071 v 4.202 c 0,0.849 1.183,1.183 1.614,1.183 0.598,0 1.725,-0.376 1.725,-1.267 v -3.923 c 0,-1.016 1.308,-1.266 1.67,-1.266 0.528,0 1.558,0.376 1.558,1.071 v 4.091 c 0,0.987 1.433,1.294 1.725,1.294 0.737,0 1.836,-0.571 1.836,-1.6 v -3.701 c 0,-0.725 0.766,-1.267 1.503,-1.267 M 65.242,96.074 c 0.529,0 1.558,0.32 1.541,1.071 v 4.267 c -0.718,-0.666 -0.998,-0.664 -1.485,-0.664 -0.724,0 -1.837,0.612 -1.837,1.517 v 3.645 c 0,0.139 -0.942,1.263 -1.427,1.395 v -4.758 c 0.811,-0.073 1.65,-1.075 1.65,-1.618 v -3.033 c 0,-0.862 0.529,-1.822 1.558,-1.822 m 13.189,-0.112 c 0.598,0 1.614,0.487 1.614,1.405 v 3.868 c 0,1.099 1.433,1.294 1.725,1.294 0.598,0 1.947,-0.431 1.947,-1.489 v -2.476 c 0,-0.417 0.417,-2.266 0.876,-2.368 v 4.637 c -0.489,0.257 -1.098,1.251 -1.098,1.654 v 3.423 c 0,1.21 -1.252,1.405 -1.781,1.405 -0.89,0 -1.447,-0.542 -1.447,-1.266 v -4.035 c 0,-0.987 -1.405,-1.266 -1.781,-1.266 -0.667,0 -1.78,0.459 -1.78,1.294 v 3.645 c 0,1.211 -1.002,1.628 -1.67,1.628 -0.514,0 -1.335,-0.362 -1.335,-0.932 v -4.035 c 0,-1.238 -1.364,-1.6 -1.892,-1.6 -0.515,0 -1.892,0.348 -1.892,1.405 v 3.98 c 0,0.987 -1.071,1.182 -1.447,1.182 -0.682,0 -1.322,-0.235 -1.336,-1.168 -0.069,-3.673 0.006,-3.871 -0.088,-4.163 0.363,0.282 0.756,0.545 1.368,0.545 0.598,0 1.725,-0.389 1.725,-1.266 V 97.34 c 0,-1.016 1.308,-1.266 1.67,-1.266 0.528,0 1.558,0.403 1.558,1.071 v 4.09 c 0,0.988 1.433,1.294 1.725,1.294 0.737,0 1.836,-0.57 1.836,-1.6 v -3.812 c 0,-0.876 1.058,-1.155 1.503,-1.155 m -8.44,-2.111 c 0.037,0.275 0.134,0.501 -0.074,4.174 -0.07,1.21 -0.724,1.388 -1.447,1.388 -0.682,0 -1.238,-0.245 -1.336,-1.166 0,-3.676 0.017,-3.859 -0.1,-4.043 0.322,0.124 1.102,0.534 1.38,0.534 0.362,0 1.181,-0.452 1.577,-0.887 M 80.605,91.1 h 2.441 c -0.585,0.59 -0.706,0.521 -1.276,0.521 -0.376,0 -0.595,0.069 -1.165,-0.521 m -6.676,-0.114 h 2.326 c -0.368,0.53 -0.62,0.635 -1.163,0.635 -0.376,0 -0.599,0.078 -1.163,-0.635 m -3.89,-0.012 h 3.41 c -0.082,2.264 0.029,2.484 -0.006,2.758 -0.937,-0.917 -0.994,-0.886 -1.634,-0.886 -0.654,0 -1.109,0.143 -1.75,0.996 0.083,-0.401 0.083,-2.481 -0.02,-2.868 m -2.674,0.01 h 2.324 c -0.55,0.715 -0.746,0.637 -1.219,0.637 -0.432,0 -0.745,0.069 -1.105,-0.637 M 63.701,90.97 h 3.074 v 2.54 c -0.71,-0.653 -0.99,-0.664 -1.477,-0.664 -0.724,0 -1.837,0.612 -1.837,1.516 v 3.646 c 0,0.139 -0.942,1.263 -1.429,1.394 v -4.644 c 2.086,-0.45 1.596,-2.499 1.669,-3.788 m -1.666,0.01 h 0.978 c -0.236,0.291 -0.591,0.527 -0.978,0.632 V 90.98 z M 72.532,67.692 c 18.698,0 33.89,15.192 33.89,33.891 0,18.699 -15.192,33.891 -33.89,33.891 -18.698,0 -33.89,-15.192 -33.89,-33.891 0,-18.699 14.9,-33.891 33.89,-33.891 m 0.501,-9.127 c 23.817,0 43.072,19.269 43.072,43.018 0,23.888 -19.561,43.129 -43.072,43.129 -24.109,0 -43.072,-19.547 -43.072,-43.073 0,-23.819 19.255,-43.074 43.072,-43.074"
   id="path33"
   inkscape:connector-curvature="0"
   style="fill-rule:evenodd" />
	<path
   clip-path="url(#SVGID_2_)"
   clip-rule="evenodd"
   d="m 71.938,30.74 h 1.967 c 0.157,1.063 -0.574,2.894 1.451,3.121 0,0.65 -0.493,1.403 -0.008,2.408 h -1.887 c 0.017,0.3 -0.094,0.745 -0.094,1.023 0,4.842 4.173,4.898 7.735,4.898 2.128,0 2.727,-2.76 2.846,-4.033 -0.53,-0.201 -1.678,-0.475 -1.678,-0.753 0,-0.278 0.335,-1.289 0.465,-1.99 2.916,-0.014 2.526,-2.796 2.707,-2.796 0.279,0 1.249,0.674 1.945,1.04 -0.337,0.71 -0.999,1.965 -0.999,2.243 0,0.404 0.113,0.934 0.998,1.204 -0.338,0.606 -0.779,1.265 -1.027,1.85 -0.594,-0.105 -1.084,-0.438 -1.362,-0.438 -1.002,0 -1.28,2.532 -1.28,2.838 0,1.962 4.508,3.729 5.843,3.729 2.073,0 3.061,-2.519 3.061,-3.785 0,-0.278 -0.557,-0.89 -0.557,-1.168 0,-0.279 0.678,-1.66 1.36,-2.133 0.459,-0.32 1.267,-0.133 1.795,-0.3 0.779,-0.25 2.09,-0.851 2.368,-0.834 H 98.07 L 87.684,51.203 C 83.196,49.448 77.526,47.977 72.81,47.977 c -4.688,0 -9.506,0.969 -14.315,3.227 L 47.78,37.032 v -0.29 h 0.364 c 0.946,-0.006 2.757,1.065 4.268,1.14 0.574,0.654 1.366,1.915 1.366,2.193 0,0.278 -0.556,1.057 -0.556,1.336 0,1.864 1.252,3.561 3.172,3.561 1.488,0 5.732,-1.683 5.732,-3.617 0,-0.153 -0.446,-2.949 -1.113,-2.949 -0.278,0 -0.921,0.327 -1.407,0.554 -0.366,-0.581 -0.811,-1.249 -1.152,-1.844 0.714,-0.617 1.112,-0.519 1.112,-1.159 0,-0.278 -0.549,-1.475 -0.994,-2.267 v -0.386 c 0.479,-0.128 1.342,-0.686 1.62,-0.68 h 0.467 c 0.198,0.589 0.298,2.888 1.467,2.888 0.278,0 0.594,-0.109 0.974,-0.215 0.138,0.593 0.249,1.26 0.467,2.297 -0.344,0.193 -1.553,0.032 -1.553,0.756 0,1.182 0.877,3.729 2.727,3.729 1.781,0 7.735,-0.209 7.741,-3.604 v -2.108 c -0.407,-0.078 -0.941,-0.077 -1.537,0.027 -0.247,-0.811 -0.36,-1.71 -0.458,-2.644 1.892,-0.019 1.336,-1.972 1.451,-3.01"
   id="path35"
   inkscape:connector-curvature="0"
   style="fill:#ffee00;fill-rule:evenodd" />
	<path
   clip-path="url(#SVGID_2_)"
   clip-rule="evenodd"
   d="m 70.765,69.152 h 2.148 c -0.998,2.292 -1.587,4.888 -2.937,6.863 -1.572,2.31 -4.084,4.016 -6.157,5.914 1.761,-4.186 3.39,-8.375 5.24,-12.424 0.208,-0.445 1.136,-0.366 1.706,-0.353"
   id="path37"
   inkscape:connector-curvature="0"
   style="fill:#cd2534;fill-rule:evenodd" />
	<path
   clip-path="url(#SVGID_2_)"
   clip-rule="evenodd"
   d="m 76.624,69.368 c 1.15,0.217 2.374,0.44 3.525,0.691 l -2.777,6.604 c 0.001,0.1 0.096,0.172 0.208,0.362 l -3.228,-3.117 0.175,0.129 c 0.738,-1.418 1.404,-3.083 2.097,-4.669"
   id="path39"
   inkscape:connector-curvature="0"
   style="fill:#cd2534;fill-rule:evenodd" />
	<path
   clip-path="url(#SVGID_2_)"
   clip-rule="evenodd"
   d="m 65.005,70.048 -7.59,18.726 -6.562,5.957 c 3.208,-7.636 6.426,-15.75 9.848,-23.249 0.153,-0.333 0.684,-0.378 1.018,-0.49 0.987,-0.32 2.116,-0.626 3.286,-0.944"
   id="path41"
   inkscape:connector-curvature="0"
   style="fill:#cd2534;fill-rule:evenodd" />
	<path
   clip-path="url(#SVGID_2_)"
   clip-rule="evenodd"
   d="m 83.639,71.147 c 1.042,0.332 2.097,0.75 3.128,1.226 l -4.053,9.499 0.205,0.276 -3.114,-3.008 0.173,0.128 3.661,-8.121 z"
   id="path43"
   inkscape:connector-curvature="0"
   style="fill:#cd2534;fill-rule:evenodd" />
	<path
   clip-path="url(#SVGID_2_)"
   clip-rule="evenodd"
   d="m 89.768,74.149 2.963,2.042 -4.563,10.823 c 10e-4,0.099 0.096,0.171 0.208,0.361 l -3.228,-3.116 0.173,0.129 4.447,-10.239 z"
   id="path45"
   inkscape:connector-curvature="0"
   style="fill:#cd2534;fill-rule:evenodd" />
	<path
   clip-path="url(#SVGID_2_)"
   clip-rule="evenodd"
   d="m 95.449,78.712 c 0.94,0.906 1.835,1.912 2.514,2.774 l -4.452,10.592 c 0.001,0.156 0.096,0.228 0.208,0.418 l -3.117,-3.005 0.173,0.129 4.674,-10.908 z"
   id="path47"
   inkscape:connector-curvature="0"
   style="fill:#cd2534;fill-rule:evenodd" />
	<polygon
   clip-path="url(#SVGID_2_)"
   clip-rule="evenodd"
   points="98.853,97.344 99.17,97.729 95.944,94.611 96.117,94.74 100.354,84.944 102.415,89.061 "
   id="polygon49"
   style="fill:#cd2534;fill-rule:evenodd" />
	<path
   clip-path="url(#SVGID_2_)"
   clip-rule="evenodd"
   d="m 104.036,94.182 c 0.34,1.869 0.828,4.034 0.828,5.899 0,2.142 -7.952,21.37 -10.289,25.238 -1.085,1.809 -3.805,3.151 -5.497,4.019 l 11.191,-26.409 v -0.067 l -2.098,2.022 4.134,-4.086 c -0.214,-0.297 -0.644,-0.727 -0.904,-0.96 l 0.17,0.132 2.465,-5.788 z"
   id="path51"
   inkscape:connector-curvature="0"
   style="fill:#cd2534;fill-rule:evenodd" />
	<path
   clip-path="url(#SVGID_2_)"
   clip-rule="evenodd"
   d="m 47.034,103.421 2.737,2.715 L 44.715,118 c -0.83,-1.023 -1.688,-2.876 -2.066,-4.064 l 4.385,-10.515 z"
   id="path53"
   inkscape:connector-curvature="0"
   style="fill:#cd2534;fill-rule:evenodd" />
	<path
   clip-path="url(#SVGID_2_)"
   clip-rule="evenodd"
   d="m 52.377,108.763 2.625,2.604 -5.497,12.976 c -0.941,-0.906 -1.836,-1.913 -2.515,-2.83 l 5.387,-12.75 z"
   id="path55"
   inkscape:connector-curvature="0"
   style="fill:#936a59;fill-rule:evenodd" />
	<path
   clip-path="url(#SVGID_2_)"
   clip-rule="evenodd"
   d="m 93.824,109.219 c -3.211,7.523 -5.481,15.403 -9.488,22.443 -0.737,1.294 -2.896,0.93 -4.403,1.357 4.419,-7.84 3.681,-16.037 13.891,-23.8"
   id="path57"
   inkscape:connector-curvature="0"
   style="fill:#cd2534;fill-rule:evenodd" />
	<polygon
   clip-path="url(#SVGID_2_)"
   clip-rule="evenodd"
   points="62.95,119.448 65.687,122.164 61.423,132.02 58.235,130.653 "
   id="polygon59"
   style="fill:#cd2534;fill-rule:evenodd" />
	<path
   clip-path="url(#SVGID_2_)"
   clip-rule="evenodd"
   d="m 80.69,122.241 c -0.873,2.015 -4.527,11.676 -5.612,11.665 h -3.035 c 0.922,-3.926 4.334,-7.975 8.647,-11.665"
   id="path61"
   inkscape:connector-curvature="0"
   style="fill:#cd2534;fill-rule:evenodd" />
	<path
   clip-path="url(#SVGID_2_)"
   clip-rule="evenodd"
   d="m 68.292,124.791 2.736,2.716 c -0.894,2.036 -1.784,4.151 -2.7,6.181 -1.149,-0.217 -2.373,-0.44 -3.525,-0.691 l 3.489,-8.206 z"
   id="path63"
   inkscape:connector-curvature="0"
   style="fill:#cd2534;fill-rule:evenodd" />
	<path
   clip-path="url(#SVGID_2_)"
   clip-rule="evenodd"
   d="m 63.277,136.924 c 0.265,0.114 0.592,0.223 0.953,0.354 0.011,0.255 -0.117,0.517 -0.37,0.756 -0.256,-0.117 -0.565,-0.222 -0.827,-0.239 -0.017,-0.262 0.101,-0.621 0.244,-0.871"
   id="path65"
   inkscape:connector-curvature="0"
   style="fill:#936a59;fill-rule:evenodd" />
	<path
   clip-path="url(#SVGID_2_)"
   clip-rule="evenodd"
   d="m 68.024,137.812 c 0.278,0 0.668,0.334 0.668,0.612 0,0.752 -0.362,2.171 -0.891,2.171 -0.737,0 -0.667,-0.752 -0.667,-0.947 0.001,-0.584 0.376,-1.836 0.89,-1.836"
   id="path67"
   inkscape:connector-curvature="0"
   style="fill:#936a59;fill-rule:evenodd" />
	<path
   clip-path="url(#SVGID_2_)"
   clip-rule="evenodd"
   d="m 77.305,138.926 c 0.275,0.237 0.4,0.593 0.503,0.977 -0.156,0.023 -0.365,0.022 -0.865,0.117 0.099,-0.39 0.211,-0.724 0.362,-1.094"
   id="path69"
   inkscape:connector-curvature="0"
   style="fill:#936a59;fill-rule:evenodd" />
	<path
   clip-path="url(#SVGID_2_)"
   clip-rule="evenodd"
   d="m 71.932,30.741 h 1.743 c 0.493,0.962 -0.582,2.824 1.57,3.01 -0.167,2.183 -0.155,1.818 -0.012,2.522 h -1.875 v 1.73 c 0.009,4.187 5.114,4.187 7.632,4.187 2.115,0 2.95,-2.518 2.95,-3.784 0,-0.793 -1.558,-0.445 -1.558,-1.169 0,-0.278 0.223,-1.122 0.353,-1.823 0.259,-0.013 0.648,0.098 0.927,0.098 1.627,0 0.973,-2.782 1.836,-2.782 0.278,0 1.308,0.564 1.89,0.933 -0.354,0.612 -1,1.501 -1,2.239 0,0.403 0.113,0.934 0.998,1.204 -0.338,0.605 -0.783,1.273 -1.145,1.853 -0.371,-0.11 -0.966,-0.442 -1.244,-0.442 -1.182,0 -1.28,2.825 -1.28,2.894 0,1.893 4.508,3.673 5.843,3.673 2.143,0 3.061,-2.56 3.061,-3.673 0,-0.347 -0.557,-0.848 -0.557,-1.28 0,-0.278 0.617,-1.789 1.368,-2.137 1.196,-0.57 3.168,-0.825 4.522,-1.121 L 87.572,51.091 c -5.475,-2.13 -9.712,-3.114 -14.817,-3.114 -4.786,0 -9.534,0.969 -14.371,3.226 L 47.78,36.758 c 0.954,0.315 1.841,0.676 2.731,0.94 0.543,0.167 1.211,0.151 1.903,0.185 0.464,0.657 1.364,1.969 1.364,2.247 0,0.293 -0.556,0.724 -0.556,1.336 0,1.642 1.252,3.617 3.172,3.617 1.489,0 5.732,-1.878 5.732,-3.728 0,-0.153 -0.39,-2.95 -1.058,-2.95 -0.278,0 -0.976,0.328 -1.462,0.554 -0.366,-0.581 -0.813,-1.252 -1.149,-1.965 0.463,-0.199 1.22,-0.481 1.22,-0.982 0,-0.278 -1.113,-2.17 -1.113,-2.449 0,-0.278 1.558,-0.946 1.837,-0.946 0.598,0 0.514,2.894 1.78,2.894 0.279,0 0.532,-0.105 0.801,-0.218 0.254,0.702 0.479,1.49 0.58,2.311 -0.858,0.147 -1.548,0.105 -1.548,0.801 0,1.405 0.974,3.673 2.783,3.673 3.645,0 7.791,0.223 7.791,-4.897 0,-0.278 -0.112,-0.612 -0.096,-0.907 -0.517,0.016 -1.073,0.016 -1.669,0 -0.016,-0.596 -0.127,-1.258 -0.224,-2.525 1.655,-0.019 1.545,-1.954 1.333,-3.008"
   id="path71"
   inkscape:connector-curvature="0"
   style="fill:#edda35;fill-rule:evenodd" />
	<path
   clip-path="url(#SVGID_2_)"
   clip-rule="evenodd"
   d="m 71.322,69.151 h 1.48 c -0.886,2.29 -1.476,4.888 -2.825,6.864 -1.572,2.309 -3.973,3.904 -6.046,5.802 1.761,-4.186 3.431,-8.305 5.255,-12.416 0.663,-0.15 1.857,-0.262 2.136,-0.25"
   id="path73"
   inkscape:connector-curvature="0"
   style="fill:#edda35;fill-rule:evenodd" />
	<path
   clip-path="url(#SVGID_2_)"
   clip-rule="evenodd"
   d="m 76.737,69.367 c 1.038,0.219 2.149,0.441 3.301,0.692 l -2.708,6.647 c -0.94,-0.791 -2.628,-2.392 -2.628,-2.67 0,-0.278 1.231,-3.085 2.035,-4.669"
   id="path75"
   inkscape:connector-curvature="0"
   style="fill:#cd2534;fill-rule:evenodd" />
	<path
   clip-path="url(#SVGID_2_)"
   clip-rule="evenodd"
   d="m 65.007,70.05 c -4.642,8.104 -3.947,16.51 -13.99,24.231 3.211,-7.634 5.634,-15.723 9.697,-22.861 0.682,-1.196 2.786,-0.943 4.293,-1.37"
   id="path77"
   inkscape:connector-curvature="0"
   style="fill:#cd2534;fill-rule:evenodd" />
	<path
   clip-path="url(#SVGID_2_)"
   clip-rule="evenodd"
   d="m 83.539,71.074 c 1.042,0.332 2.153,0.854 3.18,1.442 l -4.049,9.422 -2.624,-2.661 3.493,-8.203 z"
   id="path79"
   inkscape:connector-curvature="0"
   style="fill:#cd2534;fill-rule:evenodd" />
	<path
   clip-path="url(#SVGID_2_)"
   clip-rule="evenodd"
   d="M 55.763,73.827 40.917,108.65 c -0.327,-1.673 -0.828,-4.73 -0.828,-6.455 0,-0.278 6.196,-16.4 10.161,-24.122 1.045,-2.017 3.806,-3.25 5.513,-4.246"
   id="path81"
   inkscape:connector-curvature="0"
   style="fill:#cd2534;fill-rule:evenodd" />
	<path
   clip-path="url(#SVGID_2_)"
   clip-rule="evenodd"
   d="m 89.764,74.262 c 0.963,0.476 2.249,1.217 2.857,2.105 l -4.497,10.802 c -0.94,-0.906 -1.946,-1.912 -2.625,-2.774 l 4.265,-10.133 z"
   id="path83"
   inkscape:connector-curvature="0"
   style="fill:#cd2534;fill-rule:evenodd" />
	<path
   clip-path="url(#SVGID_2_)"
   clip-rule="evenodd"
   d="m 95.446,78.824 c 0.939,0.792 1.838,1.802 2.516,2.719 l -4.608,10.635 -2.513,-2.493 4.605,-10.861 z"
   id="path85"
   inkscape:connector-curvature="0"
   style="fill:#edda35;fill-rule:evenodd" />
	<path
   clip-path="url(#SVGID_2_)"
   clip-rule="evenodd"
   d="m 100.353,85.055 c 0.831,1.363 1.503,2.708 1.951,4.008 l -3.495,8.345 -2.625,-2.604 4.169,-9.749 z"
   id="path87"
   inkscape:connector-curvature="0"
   style="fill:#edda35;fill-rule:evenodd" />
	<path
   clip-path="url(#SVGID_2_)"
   clip-rule="evenodd"
   d="m 104.034,94.293 c 0.467,1.852 0.83,3.993 0.83,5.954 0,1.6 -7.534,20.132 -10.177,24.848 -1.085,1.948 -3.707,3.165 -5.608,4.244 3.769,-8.857 7.331,-17.873 11.366,-26.666 0.306,-0.696 1.207,-1.241 1.859,-1.875 -0.213,-0.297 -0.643,-0.727 -0.903,-0.961 l 0.17,0.133 2.463,-5.677 z"
   id="path89"
   inkscape:connector-curvature="0"
   style="fill:#cd2534;fill-rule:evenodd" />
	<path
   clip-path="url(#SVGID_2_)"
   clip-rule="evenodd"
   d="m 47.033,103.532 c 0.94,0.792 1.948,1.8 2.627,2.662 L 44.601,118 c -0.831,-1.363 -1.391,-2.705 -1.952,-4.006 l 4.384,-10.462 z"
   id="path91"
   inkscape:connector-curvature="0"
   style="fill:#cd2534;fill-rule:evenodd" />
	<path
   clip-path="url(#SVGID_2_)"
   clip-rule="evenodd"
   d="m 52.376,108.875 2.626,2.492 -5.497,12.865 c -0.996,-0.933 -1.784,-1.764 -2.404,-2.776 l 5.275,-12.581 z"
   id="path93"
   inkscape:connector-curvature="0"
   style="fill:#edda35;fill-rule:evenodd" />
	<path
   clip-path="url(#SVGID_2_)"
   clip-rule="evenodd"
   d="m 93.824,109.219 c -3.099,7.412 -6.035,14.996 -9.486,22.328 -0.598,1.266 -2.676,1.031 -4.006,1.462 h -0.393 c 4.593,-7.803 3.842,-16.222 13.885,-23.79"
   id="path95"
   inkscape:connector-curvature="0"
   style="fill:#cd2534;fill-rule:evenodd" />
	<path
   clip-path="url(#SVGID_2_)"
   clip-rule="evenodd"
   d="m 57.721,114.105 c 0.83,0.909 1.721,1.8 2.512,2.774 l -5.046,12.026 c -0.937,-0.563 -1.946,-1.347 -2.854,-2.156 l 5.388,-12.644 z"
   id="path97"
   inkscape:connector-curvature="0"
   style="fill:#edda35;fill-rule:evenodd" />
	<path
   clip-path="url(#SVGID_2_)"
   clip-rule="evenodd"
   d="m 62.95,119.56 2.625,2.604 -4.261,9.745 c -1.042,-0.332 -2.053,-0.782 -3.081,-1.369 l 4.717,-10.98 z"
   id="path99"
   inkscape:connector-curvature="0"
   style="fill:#cd2534;fill-rule:evenodd" />
	<path
   clip-path="url(#SVGID_2_)"
   clip-rule="evenodd"
   d="m 80.579,122.352 c -1.652,3.851 -3.21,7.635 -4.827,11.4 -0.318,0.053 -0.952,0.164 -1.23,0.154 h -2.367 c 0.767,-3.716 4.07,-7.907 8.424,-11.554"
   id="path101"
   inkscape:connector-curvature="0"
   style="fill:#edda35;fill-rule:evenodd" />
	<path
   clip-path="url(#SVGID_2_)"
   clip-rule="evenodd"
   d="m 68.292,124.791 2.625,2.716 -2.589,6.181 c -1.15,-0.217 -2.262,-0.44 -3.414,-0.691 l 3.378,-8.206 z"
   id="path103"
   inkscape:connector-curvature="0"
   style="fill:#edda35;fill-rule:evenodd" />
	<path
   clip-path="url(#SVGID_2_)"
   clip-rule="evenodd"
   d="m 63.277,136.924 c 0.265,0.114 0.592,0.223 0.953,0.354 0.011,0.255 -0.117,0.517 -0.37,0.756 -0.256,-0.117 -0.565,-0.222 -0.827,-0.239 -0.017,-0.262 0.101,-0.621 0.244,-0.871"
   id="path105"
   inkscape:connector-curvature="0"
   style="fill:#edda35;fill-rule:evenodd" />
	<path
   clip-path="url(#SVGID_2_)"
   clip-rule="evenodd"
   d="m 68.024,137.812 c 0.278,0 0.668,0.334 0.668,0.612 0,0.752 -0.362,2.171 -0.891,2.171 -0.737,0 -0.667,-0.752 -0.667,-0.947 0.001,-0.584 0.376,-1.836 0.89,-1.836"
   id="path107"
   inkscape:connector-curvature="0"
   style="fill:#edda35;fill-rule:evenodd" />
	<path
   clip-path="url(#SVGID_2_)"
   clip-rule="evenodd"
   d="m 77.305,138.926 c 0.275,0.237 0.4,0.593 0.503,0.977 -0.156,0.023 -0.365,0.022 -0.865,0.117 0.099,-0.39 0.211,-0.724 0.362,-1.094"
   id="path109"
   inkscape:connector-curvature="0"
   style="fill:#edda35;fill-rule:evenodd" />
	<path
   clip-path="url(#SVGID_2_)"
   clip-rule="evenodd"
   d="m 71.322,69.151 h 1.48 c -0.886,2.29 -1.476,4.888 -2.825,6.864 -1.572,2.309 -3.973,3.904 -6.046,5.802 1.761,-4.186 3.431,-8.305 5.255,-12.416 0.663,-0.15 1.857,-0.262 2.136,-0.25"
   id="path111"
   inkscape:connector-curvature="0"
   style="fill:#cd2534;fill-rule:evenodd" />
	<path
   clip-path="url(#SVGID_2_)"
   clip-rule="evenodd"
   d="M 55.763,73.827 40.917,108.65 c -0.382,-2.161 -0.827,-6.176 -0.827,-6.455 0,-0.278 6.196,-16.4 10.161,-24.122 1.044,-2.017 3.805,-3.25 5.512,-4.246"
   id="path113"
   inkscape:connector-curvature="0"
   style="fill:#cd2534;fill-rule:evenodd" />
	<path
   clip-path="url(#SVGID_2_)"
   clip-rule="evenodd"
   d="m 70.114,77.491 v 12.863 l -6.146,0.008 -0.022,-6.833 c -10e-4,-0.279 3.984,-3.911 6.168,-6.038"
   id="path115"
   inkscape:connector-curvature="0"
   style="fill:#cd2534;fill-rule:evenodd" />
	<polygon
   clip-path="url(#SVGID_2_)"
   clip-rule="evenodd"
   points="76.494,77.602 82.594,83.307 82.594,90.354 76.494,90.354 "
   id="polygon117"
   style="fill:#cd2534;fill-rule:evenodd" />
	<path
   clip-path="url(#SVGID_2_)"
   clip-rule="evenodd"
   d="m 95.446,78.824 c 0.939,0.792 1.838,1.802 2.516,2.719 l -4.608,10.635 -2.513,-2.493 4.605,-10.861 z"
   id="path119"
   inkscape:connector-curvature="0"
   style="fill:#cd2534;fill-rule:evenodd" />
	<path
   clip-path="url(#SVGID_2_)"
   clip-rule="evenodd"
   d="m 100.353,85.055 c 0.831,1.363 1.503,2.708 1.951,4.008 l -3.495,8.345 -2.625,-2.604 4.169,-9.749 z"
   id="path121"
   inkscape:connector-curvature="0"
   style="fill:#cd2534;fill-rule:evenodd" />
	<polygon
   clip-path="url(#SVGID_2_)"
   clip-rule="evenodd"
   points="57.87,89.558 57.746,112.644 51.349,106.576 51.497,95.795 "
   id="polygon123"
   style="fill:#cd2534;fill-rule:evenodd" />
	<polygon
   clip-path="url(#SVGID_2_)"
   clip-rule="evenodd"
   points="88.982,89.511 95.065,95.552 95.042,106.756 88.982,112.319 "
   id="polygon125"
   style="fill:#cd2534;fill-rule:evenodd" />
	<path
   clip-path="url(#SVGID_2_)"
   clip-rule="evenodd"
   d="m 104.034,94.293 c 0.467,1.852 0.83,3.993 0.83,5.954 0,1.6 -7.534,20.132 -10.177,24.848 -1.071,1.92 -3.806,3.263 -5.498,4.132 3.771,-8.856 7.333,-17.872 11.256,-26.554 0.306,-0.695 1.207,-1.241 1.86,-1.878 -0.106,-0.189 -0.422,-0.501 -0.778,-0.754 l 2.507,-5.748 z"
   id="path127"
   inkscape:connector-curvature="0"
   style="fill:#cd2534;fill-rule:evenodd" />
	<path
   clip-path="url(#SVGID_2_)"
   clip-rule="evenodd"
   d="m 47.033,103.532 c 0.94,0.792 1.948,1.8 2.627,2.662 L 44.599,118 c -0.72,-1.367 -1.389,-2.705 -1.95,-4.006 l 4.384,-10.462 z"
   id="path129"
   inkscape:connector-curvature="0"
   style="fill:#cd2534;fill-rule:evenodd" />
	<path
   clip-path="url(#SVGID_2_)"
   clip-rule="evenodd"
   d="m 52.376,108.875 2.626,2.492 -5.495,12.865 c -0.785,-0.595 -1.897,-1.931 -2.406,-2.777 l 5.275,-12.58 z"
   id="path131"
   inkscape:connector-curvature="0"
   style="fill:#cd2534;fill-rule:evenodd" />
	<path
   clip-path="url(#SVGID_2_)"
   clip-rule="evenodd"
   d="m 93.824,109.1 c -3.099,7.411 -6.035,14.996 -9.486,22.328 -0.598,1.266 -2.676,1.031 -4.006,1.462 h -0.289 c 4.593,-7.803 3.738,-16.222 13.781,-23.79"
   id="path133"
   inkscape:connector-curvature="0"
   style="fill:#cd2534;fill-rule:evenodd" />
	<path
   clip-path="url(#SVGID_2_)"
   clip-rule="evenodd"
   d="m 64.028,110.995 c 2.081,1.409 4.072,2.46 6.089,3.245 v 10.769 l -6.089,-6.152 v -7.862 z"
   id="path135"
   inkscape:connector-curvature="0"
   style="fill:#cd2534;fill-rule:evenodd" />
	<path
   clip-path="url(#SVGID_2_)"
   clip-rule="evenodd"
   d="m 82.561,110.994 0.017,8.337 -6.177,5.847 0.02,-10.49 c 1.831,-0.98 4.229,-2.199 6.14,-3.694"
   id="path137"
   inkscape:connector-curvature="0"
   style="fill:#cd2534;fill-rule:evenodd" />
	<path
   clip-path="url(#SVGID_2_)"
   clip-rule="evenodd"
   d="m 57.721,114.105 c 0.83,0.909 1.721,1.8 2.512,2.774 l -5.046,12.026 c -0.937,-0.563 -1.946,-1.347 -2.854,-2.156 l 5.388,-12.644 z"
   id="path139"
   inkscape:connector-curvature="0"
   style="fill:#cd2534;fill-rule:evenodd" />
	<path
   clip-path="url(#SVGID_2_)"
   clip-rule="evenodd"
   d="m 62.95,119.56 2.625,2.604 -4.262,9.745 c -0.932,-0.333 -1.936,-0.78 -2.967,-1.255 L 62.95,119.56 z"
   id="path141"
   inkscape:connector-curvature="0"
   style="fill:#cd2534;fill-rule:evenodd" />
	<path
   clip-path="url(#SVGID_2_)"
   clip-rule="evenodd"
   d="m 80.579,122.352 c -1.652,3.851 -3.241,7.729 -4.858,11.494 -0.318,0.053 -0.921,0.07 -1.199,0.06 h -2.367 c 0.767,-3.716 4.07,-7.907 8.424,-11.554"
   id="path143"
   inkscape:connector-curvature="0"
   style="fill:#cd2534;fill-rule:evenodd" />
	<path
   clip-path="url(#SVGID_2_)"
   clip-rule="evenodd"
   d="m 68.292,124.791 2.625,2.716 -2.589,6.181 c -1.15,-0.217 -2.262,-0.44 -3.414,-0.691 l 3.378,-8.206 z"
   id="path145"
   inkscape:connector-curvature="0"
   style="fill:#cd2534;fill-rule:evenodd" />
	<path
   clip-path="url(#SVGID_2_)"
   clip-rule="evenodd"
   d="m 63.277,136.924 c 0.265,0.114 0.592,0.223 0.953,0.354 0.011,0.255 -0.117,0.517 -0.37,0.756 -0.256,-0.117 -0.565,-0.222 -0.827,-0.239 -0.017,-0.262 0.101,-0.621 0.244,-0.871"
   id="path147"
   inkscape:connector-curvature="0"
   style="fill:#cd2534;fill-rule:evenodd" />
	<path
   clip-path="url(#SVGID_2_)"
   clip-rule="evenodd"
   d="m 68.024,137.812 c 0.278,0 0.668,0.334 0.668,0.612 0,0.752 -0.362,2.171 -0.891,2.171 -0.737,0 -0.667,-0.752 -0.667,-0.947 0.001,-0.584 0.376,-1.836 0.89,-1.836"
   id="path149"
   inkscape:connector-curvature="0"
   style="fill:#cd2534;fill-rule:evenodd" />
	<path
   clip-path="url(#SVGID_2_)"
   clip-rule="evenodd"
   d="m 77.305,138.926 c 0.275,0.237 0.4,0.593 0.503,0.977 -0.156,0.023 -0.365,0.022 -0.865,0.117 0.099,-0.39 0.211,-0.724 0.362,-1.094"
   id="path151"
   inkscape:connector-curvature="0"
   style="fill:#cd2534;fill-rule:evenodd" />
	<path
   clip-path="url(#SVGID_2_)"
   clip-rule="evenodd"
   d="m 70.767,137.157 h 1.127 c 0.354,0.686 0.794,1.457 1.293,2.214 0.069,-0.622 0.069,-1.383 -0.03,-2.097 h 1.251 v 4.647 h -0.886 c -0.705,-0.273 -1.109,-1.453 -1.555,-2.329 -0.064,0.096 -0.047,0.276 0.035,2.21 h -1.235 v -4.645 z m 6.682,-0.343 c 0.808,1.472 1.587,3.031 2.365,4.532 -0.382,0.027 -0.771,0.139 -1.05,0.139 -0.264,0 -0.347,-0.557 -0.779,-0.557 -0.278,0 -1.211,0.202 -1.298,0.766 -0.26,0.013 -0.583,0.012 -1.189,0.109 0.318,-1.831 0.652,-3.279 1.006,-4.869 0.257,-0.013 0.573,-0.01 0.945,-0.12 m -9.647,-0.004 c 1.572,0 2.114,1.127 2.114,2.226 0,0.821 -0.765,2.671 -1.78,2.671 -0.362,0 -1.67,-0.347 -1.67,-0.723 0,-0.028 -0.556,-0.779 -0.556,-1.057 0,-1.1 0.417,-3.117 1.892,-3.117 m -5.538,-1.216 c 1.683,0.383 3.201,0.409 3.201,2.218 0,0.389 -0.82,0.952 -1.228,1.188 0.223,0.631 0.334,1.298 0.549,2.017 -0.49,0.023 -0.949,-0.09 -1.424,-0.221 -0.012,-0.591 -0.123,-1.251 -0.215,-1.996 -0.075,0.014 -0.337,-0.003 -0.398,-0.099 -0.182,0.523 -0.293,1.191 -0.544,1.777 -0.375,-0.109 -0.82,-0.22 -1.186,-0.358 l 1.245,-4.526 z m 22.201,-0.448 c 0.14,0.367 0.251,0.7 0.36,1.075 -0.586,0.251 -1.257,0.364 -1.913,0.581 -0.102,0.103 0.026,0.286 0.01,0.581 0.072,-0.016 0.016,0.095 0.294,0.095 0.278,0 0.989,-0.332 1.47,-0.44 0.138,0.248 0.249,0.582 0.364,0.847 -0.473,0.255 -1.044,0.371 -1.568,0.463 0.012,0.076 -0.099,0.02 -0.099,0.299 0,0.278 0.333,0.99 0.44,1.582 -0.248,0.137 -0.596,0.253 -1.192,0.357 l -1.355,-4.528 c 1.038,-0.248 2.145,-0.581 3.189,-0.912 m -24.088,-0.334 c 0.375,0.109 0.709,0.331 1.075,0.472 l -1.696,4.415 c -0.375,-0.109 -0.82,-0.332 -1.187,-0.472 l 1.808,-4.415 z m 26.79,-0.784 c 0.39,0 1.317,0.422 1.447,0.73 -0.138,0.181 -0.807,0.605 -0.946,0.605 -0.278,0 -0.167,-0.222 -0.445,-0.222 -0.445,0 -0.723,0.319 -0.723,0.612 0,0.598 1.029,1.947 1.391,1.947 0.473,0 0.389,-0.584 0.389,-0.723 0,-0.278 0.706,-0.387 1.09,-0.49 0.023,0.156 0.135,0.323 0.135,0.601 0,0.933 -1.197,1.726 -1.948,1.726 -1.308,0 -2.282,-2.282 -2.282,-3.173 0,-0.278 0.112,-0.166 0.112,-0.445 0,-0.709 1.572,-1.168 1.78,-1.168 m -30.272,-0.557 c 0.723,0 2.031,0.628 2.003,1.615 0,0.667 -0.111,0.778 -0.141,0.938 -0.378,-0.227 -1.306,-1.441 -1.584,-1.441 -0.737,0 -1.391,1.725 -1.391,2.003 0,0.279 0.389,0.557 0.668,0.557 0.278,0 0.35,-0.206 0.449,-0.299 -0.004,-0.202 -0.196,-0.263 -0.441,-0.395 -0.008,-0.252 0.224,-0.617 0.483,-0.975 0.488,0.345 1.04,0.564 1.62,0.926 -0.306,0.942 -1.11,1.856 -2,1.856 -0.376,0 -1.67,-0.529 -1.67,-1.057 0,-0.279 -0.333,-0.39 -0.333,-0.668 0,-1.029 1.446,-3.06 2.337,-3.06 M 72.532,67.58 c 18.698,0 33.889,15.444 33.889,34.003 0,18.699 -15.191,33.892 -33.889,33.892 -18.99,0 -33.89,-15.471 -33.89,-33.947 0,-18.769 15.192,-33.948 33.89,-33.948 m 0.445,-7.568 c 23.317,0 41.569,18.852 41.569,41.627 0,18.239 -11.723,33.498 -27.082,38.98 -0.737,0.264 -8.992,2.535 -11.273,2.535 h -6.316 c -3.604,0 -11.501,-2.467 -14.284,-3.761 -3.185,-1.475 -6.551,-3.445 -9.696,-6.2 -10.92,-9.544 -14.487,-21.412 -14.487,-31.61 0,-22.705 18.572,-41.571 41.569,-41.571"
   id="path153"
   inkscape:connector-curvature="0"
   style="fill:#cd2534;fill-rule:evenodd" />
	<path
   clip-path="url(#SVGID_2_)"
   clip-rule="evenodd"
   d="m 60.276,33.064 c 0.174,0.252 0.372,0.45 0.569,0.611 -0.246,-0.061 -0.612,-0.333 -0.569,-0.611"
   id="path155"
   inkscape:connector-curvature="0"
   style="fill:#eedb37;fill-rule:evenodd" />
	<path
   clip-path="url(#SVGID_2_)"
   clip-rule="evenodd"
   d="m 74.313,35.679 c -0.198,0.161 -0.556,0.278 -0.833,0.235 0.252,-0.174 0.586,-0.174 0.833,-0.235"
   id="path157"
   inkscape:connector-curvature="0"
   style="fill:#eedb37;fill-rule:evenodd" />
	<path
   clip-path="url(#SVGID_2_)"
   clip-rule="evenodd"
   d="m 74.469,35.869 c -0.228,0.294 -0.49,0.311 -0.713,0.255 0.223,-0.056 0.42,-0.161 0.713,-0.255"
   id="path159"
   inkscape:connector-curvature="0"
   style="fill:#eedb37;fill-rule:evenodd" />
	<path
   clip-path="url(#SVGID_2_)"
   clip-rule="evenodd"
   d="m 82.758,35.847 c 0.174,0.252 0.068,0.611 0.06,0.862 0,0 -0.119,0.011 -0.302,0.128 0.094,-0.293 0.199,-0.602 0.242,-0.99"
   id="path161"
   inkscape:connector-curvature="0"
   style="fill:#eedb37;fill-rule:evenodd" />
	<path
   clip-path="url(#SVGID_2_)"
   clip-rule="evenodd"
   d="m 82.994,37.014 c 0.056,0.111 0.223,0.278 0.334,0.334 -0.111,0.056 -0.223,0.278 -0.385,0.244 l 0.218,-0.246 c -0.095,-0.07 -0.223,-0.221 -0.167,-0.332"
   id="path163"
   inkscape:connector-curvature="0"
   style="fill:#eedb37;fill-rule:evenodd" />
	<path
   clip-path="url(#SVGID_2_)"
   clip-rule="evenodd"
   d="m 97.15,37.408 c 0.034,0.163 -0.205,0.346 -0.133,0.497 -0.15,-0.072 -0.294,-0.184 -0.398,-0.142 0.114,-0.091 0.248,-0.12 0.531,-0.355"
   id="path165"
   inkscape:connector-curvature="0"
   style="fill:#eedb37;fill-rule:evenodd" />
	<path
   clip-path="url(#SVGID_2_)"
   clip-rule="evenodd"
   d="m 93.618,38.149 c 0.099,0.051 -0.051,0.146 0.227,0.146 0.278,0 0.167,-0.223 0.325,-0.197 -0.108,0.277 -0.334,0.506 -0.619,0.862 -0.04,-0.164 0.183,-0.22 0.183,-0.498 0,-0.279 -0.056,-0.279 -0.116,-0.313"
   id="path167"
   inkscape:connector-curvature="0"
   style="fill:#eedb37;fill-rule:evenodd" />
	<path
   clip-path="url(#SVGID_2_)"
   clip-rule="evenodd"
   d="m 85.532,38.187 c 0.283,0.235 0.355,0.441 0.466,0.497 -0.111,0.055 -0.309,-0.173 -0.556,-0.112 0,0 0.072,-0.039 0.168,-0.12 0,0 -0.111,-0.102 -0.078,-0.265"
   id="path169"
   inkscape:connector-curvature="0"
   style="fill:#eedb37;fill-rule:evenodd" />
	<path
   clip-path="url(#SVGID_2_)"
   clip-rule="evenodd"
   d="m 53.106,39.262 c 0.099,0.051 0.211,0.051 0.334,0.18 0.004,0.244 -0.218,0.466 -0.253,0.852 C 53.016,40.17 53,40.242 53,39.964 c 0,-0.278 0.223,0 0.223,-0.278 0,-0.278 -0.056,-0.39 -0.117,-0.424"
   id="path171"
   inkscape:connector-curvature="0"
   style="fill:#eedb37;fill-rule:evenodd" />
	<path
   clip-path="url(#SVGID_2_)"
   clip-rule="evenodd"
   d="m 65.953,41.969 c 0,0 -0.154,0.221 0.124,0.221 0.278,0 0.28,-0.154 0.28,-0.154 -0.057,0.043 -0.129,0.059 -0.006,0.231 -0.163,0.034 -0.419,0.134 -0.419,0.134 0,0 -0.022,-0.267 0.021,-0.432"
   id="path173"
   inkscape:connector-curvature="0"
   style="fill:#eedb37;fill-rule:evenodd" />
	<path
   clip-path="url(#SVGID_2_)"
   clip-rule="evenodd"
   d="m 64.686,42.413 c 0.278,0 0.128,-0.016 0.011,-0.2 0,0 0.156,0.089 0.319,0.123 -0.124,0.172 -0.386,0.3 -0.662,0.257 0,0 0.126,-0.052 0.221,-0.124 -0.095,-0.072 -0.278,-0.056 -0.444,-0.099 0,0 0.126,-0.052 0.27,-0.179 0,-0.001 0.007,0.222 0.285,0.222"
   id="path175"
   inkscape:connector-curvature="0"
   style="fill:#eedb37;fill-rule:evenodd" />
	<path
   clip-path="url(#SVGID_2_)"
   clip-rule="evenodd"
   d="m 92.623,42.103 h 0.413 c 0.172,0.192 0.281,0.31 0.42,0.31 0.278,0 0.295,0.016 0.406,-0.096 l 0.305,-0.219 -0.488,0.537 c -0.151,-0.128 -0.295,-0.239 -0.39,-0.167 0.095,0.072 0.095,0.183 0.21,0.369 -0.409,-0.211 -0.624,-0.542 -0.876,-0.734"
   id="path177"
   inkscape:connector-curvature="0"
   style="fill:#eedb37;fill-rule:evenodd" />
	<path
   clip-path="url(#SVGID_2_)"
   clip-rule="evenodd"
   d="m 63.072,42.468 c -0.111,0.056 -0.334,-0.056 -0.611,-0.099 0.252,-0.173 0.388,0.043 0.611,0.099"
   id="path179"
   inkscape:connector-curvature="0"
   style="fill:#eedb37;fill-rule:evenodd" />
	<path
   clip-path="url(#SVGID_2_)"
   clip-rule="evenodd"
   d="m 78.653,42.246 c 0.223,-0.056 0.445,-0.056 0.722,-0.013 -0.252,0.174 -0.499,0.069 -0.722,0.013"
   id="path181"
   inkscape:connector-curvature="0"
   style="fill:#eedb37;fill-rule:evenodd" />
	<path
   clip-path="url(#SVGID_2_)"
   clip-rule="evenodd"
   d="m 53.154,42.411 c -0.049,0.193 -0.154,0.502 -0.21,0.836 -0.055,-0.222 0.167,-0.556 0.21,-0.836"
   id="path183"
   inkscape:connector-curvature="0"
   style="fill:#eedb37;fill-rule:evenodd" />
	<path
   clip-path="url(#SVGID_2_)"
   clip-rule="evenodd"
   d="m 83.298,42.31 c 0.408,0.459 0.394,0.984 0.394,0.984 -0.181,-0.118 -0.181,-0.23 -0.253,-0.325 -0.072,0.095 -0.056,0.167 -0.112,0.279 -0.055,-0.112 0.112,-0.39 0.295,-0.374 -0.016,-0.073 -0.233,-0.27 -0.324,-0.564"
   id="path185"
   inkscape:connector-curvature="0"
   style="fill:#eedb37;fill-rule:evenodd" />
	<path
   clip-path="url(#SVGID_2_)"
   clip-rule="evenodd"
   d="m 91.937,44.877 c -0.101,0.287 -0.223,0.524 -0.373,0.596 0.072,-0.151 0,-0.278 -0.166,-0.321 0.252,-0.173 0.539,-0.275 0.539,-0.275"
   id="path187"
   inkscape:connector-curvature="0"
   style="fill:#eedb37;fill-rule:evenodd" />
	<path
   clip-path="url(#SVGID_2_)"
   clip-rule="evenodd"
   d="m 55.281,45.139 c -0.247,-0.061 -0.445,-0.056 -0.556,-0.111 0.111,-0.056 0.358,-0.049 0.556,0.111"
   id="path189"
   inkscape:connector-curvature="0"
   style="fill:#eedb37;fill-rule:evenodd" />
	<path
   clip-path="url(#SVGID_2_)"
   clip-rule="evenodd"
   d="m 73.979,47.143 c 0.262,0.183 0.484,0.072 0.608,0.244 -0.274,0.034 -0.536,-0.094 -0.608,-0.244"
   id="path191"
   inkscape:connector-curvature="0"
   style="fill:#eedb37;fill-rule:evenodd" />
	<path
   clip-path="url(#SVGID_2_)"
   clip-rule="evenodd"
   d="m 89.671,47.254 c 0.056,0.111 0.151,0.294 0.385,0.578 -0.162,0.034 -0.299,-0.194 -0.549,-0.338 10e-4,0 0.109,-0.129 0.164,-0.24"
   id="path193"
   inkscape:connector-curvature="0"
   style="fill:#eedb37;fill-rule:evenodd" />
	<path
   clip-path="url(#SVGID_2_)"
   clip-rule="evenodd"
   d="m 70.863,47.588 h -0.668 c 0.222,-0.056 0.668,0 0.668,0"
   id="path195"
   inkscape:connector-curvature="0"
   style="fill:#eedb37;fill-rule:evenodd" />
	<path
   clip-path="url(#SVGID_2_)"
   clip-rule="evenodd"
   d="m 71.698,47.69 c 0.278,-0.047 0.629,-0.044 0.894,0.099 -0.196,-0.039 -0.523,0.074 -0.894,-0.099"
   id="path197"
   inkscape:connector-curvature="0"
   style="fill:#eedb37;fill-rule:evenodd" />
	<path
   clip-path="url(#SVGID_2_)"
   clip-rule="evenodd"
   d="m 88.677,110.32 c 0.049,0.279 0.16,0.724 0.105,1.169 -0.056,-0.334 -0.055,-0.765 -0.105,-1.169"
   id="path199"
   inkscape:connector-curvature="0"
   style="fill:#eedb37;fill-rule:evenodd" />
	<path
   clip-path="url(#SVGID_2_)"
   clip-rule="evenodd"
   d="m 70.529,115.051 v 0.89 c -0.056,-0.334 -0.056,-0.667 0,-0.89"
   id="path201"
   inkscape:connector-curvature="0"
   style="fill:#eedb37;fill-rule:evenodd" />
	<path
   clip-path="url(#SVGID_2_)"
   clip-rule="evenodd"
   d="m 71.864,115.385 c 0.056,0.111 -0.062,0.359 -0.235,0.611 -0.043,-0.166 0.179,-0.388 0.235,-0.611"
   id="path203"
   inkscape:connector-curvature="0"
   style="fill:#eedb37;fill-rule:evenodd" />
	<path
   clip-path="url(#SVGID_2_)"
   clip-rule="evenodd"
   d="m 75.404,115.659 c -0.051,0.099 -0.201,0.116 -0.479,0.116 -0.279,0 -0.128,0.016 -0.089,0.121 0,0 -0.134,0.045 -0.118,-0.216 0.151,-0.017 0.095,0.095 0.373,0.095 0.28,0 0.28,-0.056 0.313,-0.116"
   id="path205"
   inkscape:connector-curvature="0"
   style="fill:#eedb37;fill-rule:evenodd" />
	<path
   clip-path="url(#SVGID_2_)"
   clip-rule="evenodd"
   d="m 62.306,41.854 c 0.043,0.057 0.037,0.255 0.131,0.547 -0.184,-0.116 -0.083,-0.354 -0.131,-0.547"
   id="path207"
   inkscape:connector-curvature="0"
   style="fill:#f0d233;fill-rule:evenodd" />
	<path
   clip-path="url(#SVGID_2_)"
   clip-rule="evenodd"
   d="m 85.776,44.026 c 0.056,0.223 -0.056,0.278 0.223,0.278 0.278,0 0.183,-0.095 0.333,-0.167 -0.072,0.151 -0.183,0.151 -0.333,0.279 -0.151,-0.127 -0.279,-0.279 -0.223,-0.39"
   id="path209"
   inkscape:connector-curvature="0"
   style="fill:#f0d233;fill-rule:evenodd" />
	<path
   clip-path="url(#SVGID_2_)"
   clip-rule="evenodd"
   d="m 91.524,44.209 c 0.262,-0.016 0.596,0.206 0.981,0.241 -0.123,0.172 -0.33,0.077 -0.608,0.077 -0.278,10e-4 -0.389,-0.166 -0.373,-0.318"
   id="path211"
   inkscape:connector-curvature="0"
   style="fill:#f0d233;fill-rule:evenodd" />
	<path
   clip-path="url(#SVGID_2_)"
   clip-rule="evenodd"
   d="m 68.08,48.033 c 0,0.278 -0.056,0.111 -0.072,0.252 h -0.537 c 0.236,-0.291 0.609,0.026 0.609,-0.252"
   id="path213"
   inkscape:connector-curvature="0"
   style="fill:#f0d233;fill-rule:evenodd" />
	<path
   clip-path="url(#SVGID_2_)"
   clip-rule="evenodd"
   d="m 82.175,61.221 c 0.191,0.032 0.302,0.254 0.507,0.465 0.09,-0.004 0.257,0.218 0.257,-0.06 0,-0.278 -0.056,-0.056 -0.167,-0.111 0.111,-0.056 0.262,0.072 0.388,0.236 -0.345,0.137 -0.664,-0.211 -0.985,-0.53"
   id="path215"
   inkscape:connector-curvature="0"
   style="fill:#d72635;fill-rule:evenodd" />
	<path
   clip-path="url(#SVGID_2_)"
   clip-rule="evenodd"
   d="m 85.421,62.02 0.347,0.33 c 0,0 0.064,-0.056 0.09,-0.215 0,0 0.141,0.103 0.252,0.159 -0.223,0.056 -0.532,-0.061 -0.815,0.042 0,0 0.092,-0.153 0.126,-0.316"
   id="path217"
   inkscape:connector-curvature="0"
   style="fill:#d72635;fill-rule:evenodd" />
	<path
   clip-path="url(#SVGID_2_)"
   clip-rule="evenodd"
   d="m 56.324,63.667 c 0.151,0.333 0.126,0.407 0.07,0.63 -0.055,-0.181 0.236,-0.517 -0.07,-0.63"
   id="path219"
   inkscape:connector-curvature="0"
   style="fill:#d72635;fill-rule:evenodd" />
	<path
   clip-path="url(#SVGID_2_)"
   clip-rule="evenodd"
   d="m 54.333,64.727 c -0.218,0.188 -0.304,0.217 -0.35,0.502 -0.149,0.015 -0.41,-0.113 -0.534,-0.285 0.274,-0.034 0.608,-0.257 0.884,-0.217"
   id="path221"
   inkscape:connector-curvature="0"
   style="fill:#d72635;fill-rule:evenodd" />
	<path
   clip-path="url(#SVGID_2_)"
   clip-rule="evenodd"
   d="m 91.786,64.576 c 0.151,0.128 0.151,0.239 0.268,0.422 -0.293,-0.094 -0.491,-0.199 -0.602,-0.255 0.111,-0.056 0.183,-0.039 0.334,-0.167"
   id="path223"
   inkscape:connector-curvature="0"
   style="fill:#d72635;fill-rule:evenodd" />
	<path
   clip-path="url(#SVGID_2_)"
   clip-rule="evenodd"
   d="m 86.778,69.862 c -0.062,0.247 -0.294,0.373 -0.556,0.556 0.183,-0.262 0.395,-0.357 0.556,-0.556"
   id="path225"
   inkscape:connector-curvature="0"
   style="fill:#d72635;fill-rule:evenodd" />
	<path
   clip-path="url(#SVGID_2_)"
   clip-rule="evenodd"
   d="m 103.139,73.535 c 0.056,0.111 0.056,0.334 0,0.556 -0.056,-0.111 -0.072,-0.294 -0.223,-0.222 0.071,-0.151 0.167,-0.223 0.223,-0.334"
   id="path227"
   inkscape:connector-curvature="0"
   style="fill:#d72635;fill-rule:evenodd" />
	<path
   clip-path="url(#SVGID_2_)"
   clip-rule="evenodd"
   d="m 37.251,80.547 c 0.262,0.183 0.334,0.278 0.608,0.312 -0.164,0.227 -0.413,0.657 -0.659,0.333 0.162,-0.033 0.234,-0.128 0.333,-0.221 -0.004,-0.09 -0.21,-0.273 -0.282,-0.424"
   id="path229"
   inkscape:connector-curvature="0"
   style="fill:#d72635;fill-rule:evenodd" />
	<path
   clip-path="url(#SVGID_2_)"
   clip-rule="evenodd"
   d="m 35.304,84.443 c 0.095,0.072 0.303,-0.05 0.501,0.111 -0.248,-0.061 -0.39,0 -0.445,0.112 -0.056,-0.112 -0.056,-0.334 -0.04,-0.707 0.151,-0.017 0.189,0.301 -0.016,0.484"
   id="path231"
   inkscape:connector-curvature="0"
   style="fill:#d72635;fill-rule:evenodd" />
	<path
   clip-path="url(#SVGID_2_)"
   clip-rule="evenodd"
   d="m 113.009,111.77 v 0.882 c -0.116,-0.122 -0.148,-0.122 -0.337,-0.009 0.273,-0.411 0.012,-0.206 0.316,-0.486 l -0.222,-0.224 0.243,-0.163 z"
   id="path233"
   inkscape:connector-curvature="0"
   style="fill:#d72635;fill-rule:evenodd" />
	<path
   clip-path="url(#SVGID_2_)"
   clip-rule="evenodd"
   d="m 67.857,113.381 c 0.262,0.183 0.334,0.278 0.608,0.313 -0.124,0.171 -0.235,0.06 -0.385,0.188 -0.15,-0.128 -0.15,-0.35 -0.223,-0.501"
   id="path235"
   inkscape:connector-curvature="0"
   style="fill:#d72635;fill-rule:evenodd" />
	<path
   clip-path="url(#SVGID_2_)"
   clip-rule="evenodd"
   d="m 87.959,115.086 c -0.01,0.067 -0.243,0.215 -0.035,0.677 l -0.312,-0.268 c 0.128,-0.15 0.239,-0.372 0.347,-0.409"
   id="path237"
   inkscape:connector-curvature="0"
   style="fill:#d72635;fill-rule:evenodd" />
	<path
   clip-path="url(#SVGID_2_)"
   clip-rule="evenodd"
   d="m 43.916,116.218 c 0,0 -0.043,-0.11 -0.043,0.168 0,0.279 0.095,0.184 0.167,0.334 -0.151,-0.072 -0.278,-0.055 -0.278,-0.334 0,-0.278 0.111,-0.111 0.154,-0.168"
   id="path239"
   inkscape:connector-curvature="0"
   style="fill:#d72635;fill-rule:evenodd" />
	<path
   clip-path="url(#SVGID_2_)"
   clip-rule="evenodd"
   d="m 35.759,118.802 c 0.292,0.094 0.084,0.294 -0.011,0.366 0.095,0.072 0.204,0.265 0.204,0.265 -0.187,-0.114 -0.37,-0.32 -0.28,-0.316 0.093,-0.098 0.204,-0.132 0.087,-0.315"
   id="path241"
   inkscape:connector-curvature="0"
   style="fill:#d72635;fill-rule:evenodd" />
	<path
   clip-path="url(#SVGID_2_)"
   clip-rule="evenodd"
   d="m 64.643,119 c 0.043,0.057 0.148,0.255 0.242,0.547 -0.183,-0.116 -0.193,-0.354 -0.242,-0.547"
   id="path243"
   inkscape:connector-curvature="0"
   style="fill:#d72635;fill-rule:evenodd" />
	<path
   clip-path="url(#SVGID_2_)"
   clip-rule="evenodd"
   d="m 65.765,119.747 v 0.146 c 0,0 0.145,-0.056 0.188,-0.113 -0.049,0.193 -0.266,0.28 -0.266,0.558 0,0.278 0.328,0.253 0.422,0.546 -0.517,-0.451 -0.867,-0.824 -0.833,-0.987 l 0.356,0.33 c 0.071,-0.096 0.166,0.055 0.166,-0.223 0,-0.278 -0.055,-0.223 -0.033,-0.257"
   id="path245"
   inkscape:connector-curvature="0"
   style="fill:#d72635;fill-rule:evenodd" />
	<path
   clip-path="url(#SVGID_2_)"
   clip-rule="evenodd"
   d="m 67.607,121.84 c 0.067,0.072 0.25,0.167 0.528,0.213 -0.508,0.242 -0.236,0.065 -0.333,0.065 -0.278,0 -0.112,0.056 -0.154,0.113 0,0 -0.053,-0.097 -0.041,-0.168 v -0.223 z"
   id="path247"
   inkscape:connector-curvature="0"
   style="fill:#d72635;fill-rule:evenodd" />
	<path
   clip-path="url(#SVGID_2_)"
   clip-rule="evenodd"
   d="m 37.196,122.786 c 0.109,-0.081 0.382,0.084 0.667,0.157 0,0 -0.127,0.049 -0.273,0.177 l -0.394,-0.334 z"
   id="path249"
   inkscape:connector-curvature="0"
   style="fill:#d72635;fill-rule:evenodd" />
	<path
   clip-path="url(#SVGID_2_)"
   clip-rule="evenodd"
   d="m 68.637,122.73 c 0.262,0.183 0.373,0.406 0.445,0.556 -0.15,-0.072 -0.183,-0.183 -0.334,-0.111 0.072,-0.151 -0.04,-0.294 -0.111,-0.445"
   id="path251"
   inkscape:connector-curvature="0"
   style="fill:#d72635;fill-rule:evenodd" />
	<path
   clip-path="url(#SVGID_2_)"
   clip-rule="evenodd"
   d="m 97.03,125.014 c 0.043,0.165 -0.068,0.388 -0.103,0.559 0.051,-0.099 -0.071,-0.307 0.103,-0.559"
   id="path253"
   inkscape:connector-curvature="0"
   style="fill:#d72635;fill-rule:evenodd" />
	<path
   clip-path="url(#SVGID_2_)"
   clip-rule="evenodd"
   d="m 53.683,129.894 c 0.19,0.032 0.374,0.239 0.648,0.273 -0.124,0.172 -0.33,0.133 -0.373,0.19 0,0 -0.052,-0.097 0.043,-0.166 l -0.318,-0.297 z"
   id="path255"
   inkscape:connector-curvature="0"
   style="fill:#d72635;fill-rule:evenodd" />
	<path
   clip-path="url(#SVGID_2_)"
   clip-rule="evenodd"
   d="m 46.266,133.082 c 0.151,0.072 0,0.278 0.278,0.278 0.278,0 0.128,-0.016 0.056,-0.167 0.15,0.072 0.222,0.278 0.334,0.334 -0.112,0.056 -0.295,-0.072 -0.467,0.052 -0.034,-0.163 -0.129,-0.347 -0.201,-0.497"
   id="path257"
   inkscape:connector-curvature="0"
   style="fill:#d72635;fill-rule:evenodd" />
	<path
   clip-path="url(#SVGID_2_)"
   clip-rule="evenodd"
   d="m 85.108,141.318 c -0.111,0.056 -0.334,0.167 -0.556,0.111 0.222,-0.055 0.446,-0.167 0.556,-0.111"
   id="path259"
   inkscape:connector-curvature="0"
   style="fill:#d72635;fill-rule:evenodd" />
	<polygon
   clip-path="url(#SVGID_2_)"
   clip-rule="evenodd"
   points="60.947,90.412 84.83,90.296 85.178,106.992 84.019,110.006 75.091,115.108 73.7,115.804 68.715,113.369 62.222,109.427 60.947,103.514 60.831,90.528 "
   id="polygon261"
   style="fill:#ffffff;fill-rule:evenodd" />
	<path
   clip-path="url(#SVGID_2_)"
   clip-rule="evenodd"
   d="m 71.899,112.508 c 0.529,0 1.558,0.403 1.55,1.071 v 1.481 h -0.367 c -0.278,0.008 -1.936,-0.78 -2.85,-1.366 0.392,-1.012 1.041,-1.186 1.667,-1.186 m 6.568,-0.112 c 0.278,0 0.612,0.112 0.887,0.149 -0.685,0.618 -1.472,0.957 -2.306,1.403 -0.07,-1.104 0.89,-1.552 1.419,-1.552 m 4.211,-1.218 v 7.64 l -6.194,6.151 v -10.097 c 1.873,-0.981 4.244,-2.199 6.194,-3.694 m -18.669,-0.111 c 1.942,1.41 4.307,2.641 6.199,3.357 v 10.768 l -6.199,-6.263 v -7.862 z m 20.673,-6.791 v 3.265 c 0.017,0.612 -0.341,1.062 -0.952,1.845 0.08,-0.509 0.079,-3.055 0.079,-3.334 0,-0.32 0.503,-1.472 0.873,-1.776 m -19.293,-0.227 c 2.226,0 1.503,3.005 1.503,3.673 0,1.266 -0.251,2.894 1.669,2.894 0.821,0 1.67,-0.64 1.67,-1.378 v -3.923 c 0,-0.863 1.308,-1.155 1.614,-1.155 0.306,0 1.613,0.098 1.613,1.071 v 4.091 c 0,0.918 1.433,1.294 1.725,1.294 0.932,0 1.837,-0.835 1.837,-1.712 v -3.589 c 0,-1.016 1.043,-1.266 1.558,-1.266 0.709,0 1.558,0.612 1.558,1.294 v 3.979 c 0,0.264 0.829,1.089 0.968,1.145 0.417,0.181 0.855,0.15 1.363,0.068 -0.681,0.624 -1.354,1.073 -2.08,1.521 0.013,-1.664 -0.223,-2.776 -1.865,-2.776 -0.584,0 -1.725,0.543 -1.729,1.405 v 3.467 l -2.624,1.248 c -0.392,-0.464 -0.432,-0.998 -0.46,-1.499 -0.014,-0.445 0.083,-1.226 0.083,-1.505 0,-1.252 0.125,-3.116 -1.947,-3.116 -0.752,0 -1.837,0.612 -1.85,1.517 v 2.927 c -0.958,-0.443 -1.853,-0.78 -2.733,-1.353 -0.175,-1.149 0.103,-3.091 -1.873,-3.091 -0.361,0 -1.207,0.45 -1.553,0.89 -0.155,-0.127 -0.394,-0.167 -0.394,-0.445 0,-0.278 0.334,-0.542 0.334,-0.821 v -3.366 c -0.001,-0.654 0.806,-1.489 1.613,-1.489 m 13.189,-7.903 c 0.709,0 1.558,0.613 1.558,1.294 v 3.979 c 0,0.988 1.433,1.294 1.725,1.294 0.779,0 1.948,-0.584 1.948,-1.6 v -2.365 c 0,-0.584 0.028,-1.927 0.873,-2.371 v 4.748 c -1.175,0.841 -0.984,1.032 -0.984,1.922 0,0.278 -0.042,0.503 -0.112,2.84 -0.027,1.085 -1.141,1.723 -1.947,1.723 -0.724,0 -1.28,-0.793 -1.28,-1.377 v -4.035 c 0,-0.278 -0.355,-0.693 -0.647,-0.916 -0.278,-0.222 -0.911,-0.35 -1.19,-0.35 -0.584,0 -1.725,0.543 -1.725,1.406 v 3.533 c 0,0.766 -0.835,1.739 -1.614,1.739 -1.335,0 -1.502,-1.433 -1.502,-2.156 v -2.81 c 0,-1.086 -0.821,-1.712 -1.725,-1.712 -0.584,0 -1.948,0.362 -1.948,1.406 v 4.09 c 0,0.807 -1.071,1.182 -1.447,1.182 -0.681,0 -1.321,-0.541 -1.335,-1.167 -0.07,-3.673 0.006,-3.983 -0.093,-4.272 0.402,0.218 1.15,0.542 1.428,0.542 0.821,0 1.67,-0.654 1.67,-1.377 v -3.924 c 0,-0.793 1.085,-1.154 1.614,-1.154 0.306,0 1.613,0.139 1.613,0.96 v 4.201 c 0,0.905 1.433,1.294 1.725,1.294 0.932,0 1.837,-0.835 1.837,-1.711 v -3.701 c 0,-0.974 1.043,-1.155 1.558,-1.155 m -13.245,0 c 0.96,0 1.669,1.002 1.669,1.67 0,0.278 -0.111,0.39 -0.15,3.782 -0.369,-0.467 -1.158,-0.666 -1.464,-0.666 -0.737,0 -1.836,0.613 -1.836,1.517 v 3.645 c 0,0.306 -0.965,1.335 -1.427,1.392 v -4.871 c 0.617,0.099 1.65,-0.904 1.65,-1.613 v -3.367 c 0,-0.71 0.821,-1.489 1.558,-1.489 m 4.746,-2.112 c 0.04,0.276 -0.113,0.498 -0.071,4.282 0,0.877 -0.904,1.392 -1.447,1.392 -0.681,0 -1.237,-0.521 -1.373,-1.276 v -4.174 c 0.4,0.461 1.095,0.664 1.373,0.664 0.418,0 1.122,-0.321 1.518,-0.888 m 10.506,-2.862 h 2.663 c -0.796,0.718 -0.776,0.634 -1.388,0.634 -0.569,0 -0.695,0.078 -1.275,-0.634 m -3.557,-0.129 h 3.1 v 2.474 c 0.008,1.057 1.191,1.405 1.622,1.405 0.751,0 2.059,-0.501 2.067,-1.6 v -2.279 h 0.87 v 2.186 c -1.191,0.493 -0.989,1.192 -0.989,1.916 0,0.278 -0.042,0.502 -0.112,2.839 -0.027,1.058 -1.141,1.724 -1.947,1.724 -0.724,0 -1.28,-0.793 -1.28,-1.377 v -4.035 c 0,-0.278 -0.393,-0.788 -0.754,-1.025 -0.293,-0.195 -0.804,-0.241 -1.083,-0.241 -0.584,0 -1.725,0.417 -1.725,1.405 v 3.534 c 0,0.765 -0.835,1.739 -1.614,1.739 -1.029,0 -1.502,-0.988 -1.478,-1.711 v -3.853 c 0.21,0.456 1.061,0.778 1.423,0.778 1.127,0 1.892,-0.876 1.9,-1.934 v -1.945 z m -3.007,0.011 h 2.322 c -0.344,0.83 -0.659,0.752 -1.104,0.752 -0.626,0 -0.826,-0.095 -1.218,-0.752 m -0.571,0.045 v 2.195 c 0.008,0.279 0.114,0.546 0.161,0.74 -0.083,-0.611 -1.099,-1.004 -1.655,-1.004 -0.432,0 -1.3,0.123 -1.794,1 -0.043,-0.277 0.069,-0.497 -0.027,-2.931 h 3.315 z m -3.678,-0.052 c -0.198,0.829 -0.906,0.759 -1.212,0.759 -0.459,0 -0.654,0.077 -1.219,-0.634 l 2.431,-0.125 z m -2.938,0.094 v 2.555 c -0.326,-0.486 -1.14,-0.666 -1.446,-0.666 -0.737,0 -1.836,0.612 -1.836,1.516 v 3.645 c 0,0.307 -0.7,1.294 -1.431,1.393 v -4.641 c 2.087,-0.451 1.598,-2.5 1.671,-3.79 0.15,-0.015 0.264,-0.126 3.042,-0.012 m -4.65,-0.094 H 63.1 c -0.109,0.283 -0.468,0.53 -0.916,0.749 V 91.047 z M 82.751,90.526 H 85.2 82.751 z m 6.323,-0.831 6.083,6.041 v 10.616 l -6.083,6.152 V 89.695 z m -31.344,0 v 22.92 l -6.252,-6.396 V 95.735 l 6.252,-6.04 z m 18.758,-12.02 6.225,5.928 v 6.906 H 76.488 V 77.675 z m -6.282,0 v 12.834 h -6.281 v -6.794 l 6.281,-6.04 z m 3.085,-4.568 29.104,27.769 -29.215,28.884 c -3.267,-3.244 -6.745,-6.681 -10.139,-10.076 -5.607,-5.607 -11.659,-11.728 -17.697,-17.878 -0.167,-0.167 -0.155,-0.595 -0.155,-0.874 0,-1.266 2.006,-2.669 2.911,-3.546 3.144,-3.06 6.552,-6.274 9.794,-9.432 4.98,-4.842 10.239,-9.823 15.397,-14.847"
   id="path263"
   inkscape:connector-curvature="0"
   style="fill:#cd2534;fill-rule:evenodd" />
	<path
   clip-path="url(#SVGID_2_)"
   clip-rule="evenodd"
   d="m 73.136,74.512 c 1.04,0.904 2.374,1.931 3.381,2.951 v 12.82 L 70.087,90.3 V 77.551 c 0.897,-0.908 2.01,-2.021 3.049,-3.039"
   id="path265"
   inkscape:connector-curvature="0"
   style="fill:#ffee00;fill-rule:evenodd" />
	<path
   clip-path="url(#SVGID_2_)"
   clip-rule="evenodd"
   d="m 82.567,83.532 6.616,6.214 v 23.15 l -6.659,6.429 0.037,-8.27 c 0.481,-0.587 2.541,-2.304 2.549,-3.194 v -17.56 h -2.543 v -6.769 z"
   id="path267"
   inkscape:connector-curvature="0"
   style="fill:#ffee00;fill-rule:evenodd" />
	<path
   clip-path="url(#SVGID_2_)"
   clip-rule="evenodd"
   d="m 63.972,83.643 v 6.658 h -2.431 v 17.532 c 0.008,0.696 1.766,2.682 2.5,3.036 v 7.811 l -6.308,-6.419 -0.037,-22.449 6.276,-6.169 z"
   id="path269"
   inkscape:connector-curvature="0"
   style="fill:#ffee00;fill-rule:evenodd" />
	<polygon
   clip-path="url(#SVGID_2_)"
   clip-rule="evenodd"
   points="95.042,106.34 95.042,95.441 100.573,100.723 "
   id="polygon271"
   style="fill:#ffee00;fill-rule:evenodd" />
	<polygon
   clip-path="url(#SVGID_2_)"
   clip-rule="evenodd"
   points="46.037,100.834 51.5,95.637 51.481,106.231 "
   id="polygon273"
   style="fill:#ffee00;fill-rule:evenodd" />
	<path
   clip-path="url(#SVGID_2_)"
   clip-rule="evenodd"
   d="m 70.09,114.367 c 1.29,0.553 3.604,1.438 3.883,1.438 0.278,0 1.703,-0.895 2.544,-1.224 v 10.295 c -1.003,1.02 -2.338,2.154 -3.374,3.172 -0.119,-0.065 -3.066,-2.713 -3.053,-3.269 v -10.412 z"
   id="path275"
   inkscape:connector-curvature="0"
   style="fill:#ffee00;fill-rule:evenodd" />
	<polyline
   clip-path="url(#SVGID_2_)"
   stroke-miterlimit="3.864"
   points="   44.511,101.184 73.333,73.585 101.77,101.019 73.223,129.017 44.896,100.234  "
   id="polyline277"
   style="fill:none;stroke:#000000;stroke-width:1.83599997;stroke-miterlimit:3.86400008" />
	<rect
   x="61.763"
   y="90.296997"
   clip-path="url(#SVGID_2_)"
   width="23.288"
   height="0.52100003"
   id="rect279"
   style="fill:#cd2534" />
	<polygon
   clip-path="url(#SVGID_2_)"
   clip-rule="evenodd"
   points="90.892,138.64 84.426,140.746 74.925,142.901 68.362,142.901 64.689,141.971 59.35,140.306 53.669,138.003 50.632,130.216 50.436,130.216 61.946,134.624 68.362,135.995 77.717,136.192 87.512,133.253 90.892,133.106 "
   id="polygon281"
   style="fill:#cd2534;fill-rule:evenodd" />
	<polygon
   clip-path="url(#SVGID_2_)"
   stroke-miterlimit="3.864"
   points="90.892,138.64 84.426,140.746 74.925,142.901 68.362,142.901 64.689,141.971 59.35,140.306 53.669,138.003 50.632,130.216 50.436,130.216 61.946,134.624 68.362,135.995 77.717,136.192 87.512,133.252 90.892,133.106 "
   id="polygon283"
   style="fill:none;stroke:#cd2534;stroke-width:0.153;stroke-miterlimit:3.86400008" />
	<path
   clip-path="url(#SVGID_2_)"
   clip-rule="evenodd"
   d="m 56.196,136.156 0.353,-0.693 1.781,0.908 -0.833,1.636 c -0.26,0.081 -0.586,0.101 -0.98,0.061 -0.394,-0.039 -0.76,-0.145 -1.097,-0.316 -0.429,-0.219 -0.757,-0.499 -0.984,-0.842 -0.226,-0.343 -0.334,-0.723 -0.323,-1.14 0.01,-0.417 0.116,-0.823 0.317,-1.217 0.218,-0.428 0.501,-0.763 0.85,-1.004 0.348,-0.242 0.74,-0.363 1.175,-0.365 0.333,-0.003 0.695,0.096 1.086,0.295 0.509,0.26 0.852,0.569 1.029,0.929 0.177,0.36 0.21,0.749 0.1,1.169 l -0.904,-0.266 c 0.045,-0.231 0.018,-0.446 -0.081,-0.643 -0.1,-0.198 -0.269,-0.358 -0.507,-0.479 -0.361,-0.184 -0.707,-0.216 -1.037,-0.094 -0.33,0.121 -0.61,0.407 -0.841,0.859 -0.248,0.488 -0.326,0.908 -0.234,1.262 0.091,0.354 0.312,0.62 0.662,0.799 0.174,0.088 0.364,0.142 0.573,0.163 0.209,0.02 0.401,0.014 0.575,-0.02 l 0.265,-0.52 -0.945,-0.482 z"
   id="path285"
   inkscape:connector-curvature="0"
   style="fill:#ffffff;fill-rule:evenodd" />
	
		<rect
   x="57.317001"
   y="136.524"
   transform="matrix(-0.3583,0.9336,-0.9336,-0.3583,208.8749,130.4104)"
   clip-path="url(#SVGID_2_)"
   clip-rule="evenodd"
   width="4.6020002"
   height="0.93300003"
   id="rect287"
   style="fill:#ffffff;fill-rule:evenodd" />
	<path
   clip-path="url(#SVGID_2_)"
   clip-rule="evenodd"
   d="m 60.406,139.788 1.192,-4.446 1.89,0.507 c 0.476,0.127 0.811,0.26 1.005,0.397 0.194,0.138 0.328,0.326 0.403,0.565 0.075,0.239 0.077,0.49 0.006,0.752 -0.089,0.334 -0.26,0.583 -0.514,0.748 -0.254,0.165 -0.583,0.224 -0.987,0.176 0.163,0.165 0.289,0.332 0.379,0.502 0.089,0.169 0.194,0.455 0.315,0.858 l 0.31,1.013 -1.073,-0.288 -0.384,-1.143 c -0.138,-0.407 -0.238,-0.666 -0.3,-0.779 -0.061,-0.112 -0.135,-0.198 -0.221,-0.257 -0.087,-0.059 -0.233,-0.116 -0.44,-0.171 l -0.183,-0.049 -0.497,1.857 -0.901,-0.242 z m 1.588,-2.323 0.664,0.178 c 0.431,0.115 0.704,0.169 0.821,0.161 0.117,-0.007 0.218,-0.048 0.302,-0.12 0.085,-0.073 0.145,-0.177 0.181,-0.31 0.04,-0.15 0.032,-0.282 -0.023,-0.396 -0.055,-0.113 -0.152,-0.202 -0.291,-0.265 -0.07,-0.029 -0.287,-0.093 -0.651,-0.19 l -0.7,-0.188 -0.303,1.13 z"
   id="path289"
   inkscape:connector-curvature="0"
   style="fill:#ffffff;fill-rule:evenodd" />
	<path
   clip-path="url(#SVGID_2_)"
   clip-rule="evenodd"
   d="m 65.395,138.817 c 0.065,-0.466 0.19,-0.846 0.373,-1.142 0.137,-0.219 0.308,-0.407 0.513,-0.567 0.205,-0.16 0.421,-0.269 0.647,-0.328 0.301,-0.081 0.637,-0.095 1.009,-0.043 0.672,0.095 1.18,0.379 1.525,0.853 0.345,0.474 0.465,1.083 0.36,1.827 -0.103,0.737 -0.385,1.286 -0.843,1.646 -0.459,0.36 -1.024,0.493 -1.694,0.399 -0.678,-0.095 -1.188,-0.378 -1.53,-0.849 -0.342,-0.47 -0.462,-1.069 -0.36,-1.796 m 0.953,0.102 c -0.073,0.517 -0.008,0.925 0.193,1.226 0.202,0.3 0.486,0.476 0.854,0.528 0.368,0.051 0.688,-0.039 0.961,-0.27 0.273,-0.232 0.447,-0.612 0.521,-1.141 0.073,-0.523 0.013,-0.93 -0.18,-1.22 -0.193,-0.289 -0.48,-0.461 -0.86,-0.514 -0.38,-0.053 -0.705,0.034 -0.974,0.262 -0.27,0.227 -0.441,0.604 -0.515,1.129"
   id="path291"
   inkscape:connector-curvature="0"
   style="fill:#ffffff;fill-rule:evenodd" />
	<polygon
   clip-path="url(#SVGID_2_)"
   clip-rule="evenodd"
   points="70.611,141.783 70.69,137.181 71.594,137.197 73.433,140.313 73.487,137.229 74.349,137.245 74.268,141.847 73.336,141.831 71.524,138.772 71.472,141.797 "
   id="polygon293"
   style="fill:#ffffff;fill-rule:evenodd" />
	<path
   clip-path="url(#SVGID_2_)"
   clip-rule="evenodd"
   d="m 79.761,141.278 -0.996,0.123 -0.522,-0.992 -1.833,0.225 -0.252,1.087 -0.978,0.12 1.213,-4.786 0.977,-0.12 2.391,4.343 z m -1.913,-1.604 -0.843,-1.613 -0.408,1.767 1.251,-0.154 z"
   id="path295"
   inkscape:connector-curvature="0"
   style="fill:#ffffff;fill-rule:evenodd" />
	<polygon
   clip-path="url(#SVGID_2_)"
   clip-rule="evenodd"
   points="82.545,140.701 81.354,136.255 84.409,135.436 84.61,136.188 82.455,136.765 82.738,137.821 84.601,137.322 84.802,138.073 82.94,138.572 83.445,140.46 "
   id="polygon297"
   style="fill:#ffffff;fill-rule:evenodd" />
	<path
   clip-path="url(#SVGID_2_)"
   clip-rule="evenodd"
   d="m 88.729,136.754 0.936,-0.097 c 0.071,0.52 0.007,0.956 -0.193,1.308 -0.2,0.352 -0.527,0.625 -0.982,0.818 -0.563,0.239 -1.107,0.243 -1.633,0.012 -0.526,-0.231 -0.93,-0.68 -1.213,-1.347 -0.3,-0.706 -0.35,-1.331 -0.152,-1.876 0.199,-0.545 0.595,-0.944 1.188,-1.196 0.519,-0.22 1.005,-0.245 1.459,-0.076 0.27,0.1 0.525,0.299 0.766,0.598 l -0.761,0.561 c -0.143,-0.198 -0.321,-0.327 -0.534,-0.387 -0.213,-0.059 -0.433,-0.04 -0.661,0.056 -0.314,0.134 -0.522,0.355 -0.622,0.663 -0.1,0.308 -0.043,0.715 0.171,1.219 0.228,0.536 0.486,0.876 0.775,1.021 0.29,0.146 0.589,0.153 0.897,0.022 0.228,-0.097 0.393,-0.252 0.496,-0.467 0.102,-0.214 0.123,-0.491 0.063,-0.832"
   id="path299"
   inkscape:connector-curvature="0"
   style="fill:#ffffff;fill-rule:evenodd" />
	
		<circle
   clip-path="url(#SVGID_2_)"
   stroke-miterlimit="3.864"
   cx="73.266998"
   cy="101.412"
   r="43.029999"
   id="circle301"
   sodipodi:cx="73.266998"
   sodipodi:cy="101.412"
   sodipodi:rx="43.029999"
   sodipodi:ry="43.029999"
   style="fill:none;stroke:#000000;stroke-width:1.22399998;stroke-miterlimit:3.86400008"
   d="m 116.297,101.412 c 0,23.76481 -19.26519,43.03 -43.030002,43.03 -23.764812,0 -43.029998,-19.26519 -43.029998,-43.03 0,-23.76481 19.265186,-43.029996 43.029998,-43.029996 23.764812,0 43.030002,19.265186 43.030002,43.029996 z" />
</g>
</svg>