<?xml version="1.0" encoding="UTF-8" standalone="no"?>
<svg xmlns:rdf="http://www.w3.org/1999/02/22-rdf-syntax-ns#" xmlns="http://www.w3.org/2000/svg" height="223.39987" width="283.5786" version="1.1" xmlns:cc="http://creativecommons.org/ns#" xmlns:dc="http://purl.org/dc/elements/1.1/" viewBox="0 0 283.5786 223.39987"><defs><mask id="mask" x="-0.00006" y="0" width="282.57866" height="222.39987" maskUnits="userSpaceOnUse"><g id="mask-2"><path id="path-1" d="M-.00006.00009H282.57836V222.39983H-.00006" fill="#fff"/></g></mask></defs><title>Bayer 04 Leverkusen logo</title><g id="Page-1"><g id="Bayer04-Emblem_2400x1889" data-name="Bayer04-Emblem 2400x1889"><g id="Page-1-2" data-name="Page-1"><g id="Group-3"><g mask="url(#mask)"><path id="Fill-1" d="M80.96334,12.20654A13.79249,13.79249,0,0,1,91.9428,7.60546c3.85181-1.77684,8.25606-1.07926,9.89491-.11584a12.06047,12.06047,0,0,1,4.56093.79427,110.22462,110.22462,0,0,1,69.78122,0,12.06146,12.06146,0,0,1,4.56117-.79427c1.63838-.96341,6.04286-1.661,9.8949.11584a13.79366,13.79366,0,0,1,10.97946,4.60108,8.48587,8.48587,0,0,1,5.8098-5.56565c1.23941-6.443,9.62608-9.35262,21.44388-3.40668,5.27444-4.78015,13.01175.31245,15.54572,7.22411,3.89242-.98141,10.06472,2.64195,9.65144,14.25254,3.94412.20676,5.47751,4.35786,4.35808,11.08215,2.34568-.49775,13.86466-2.64057,22.12,7.84923,3.93765,5.00376,1.6506,11.39783-2.53742,14.51745-.279.78065-2.032,7.76639-7.31847,10.61256-.315,3.54144,5.82062,11.11215,8.12705,16.09168,6.48916,14.00863,3.26408,37.797-20.78138,41.86758a20.00737,20.00737,0,0,1,4.30779,7.13,12.41206,12.41206,0,0,1-1.55668,10.053c-1.98474,3.26661-9.405,7.90185-11.24876,10.232,3.43739,2.03759,7.3455,6.20254,5.59636,14.05824l-6.83207,30.72589c-1.12055,5.00606-4.45663,9.24232-9.90113,10.33935a16.90754,16.90754,0,0,1-7.38149-.48621c-11.951-3.16346-20.59884-.70773-33.84574,3.58344a231.37547,231.37547,0,0,1-23.34625,6.64653,158.0137,158.0137,0,0,1-65.07375,0,231.39393,231.39393,0,0,1-23.34625-6.64653c-13.2469-4.29117-21.89479-6.7469-33.84574-3.58344a16.90753,16.90753,0,0,1-7.38149.48621c-5.44428-1.097-8.78058-5.33329-9.90113-10.33935l-6.83182-30.72589c-1.74915-7.8557,2.159-12.02065,5.59635-14.05824-1.84376-2.3302-9.264-6.96544-11.249-10.232a12.4122,12.4122,0,0,1-1.55669-10.053,20.01084,20.01084,0,0,1,4.30779-7.13C.49893,122.66095-2.72614,98.87256,3.76278,84.86393c2.30666-4.97953,8.44228-12.55024,8.1273-16.09168C6.60364,65.92609,4.8508,58.94035,4.57135,58.1597.38379,55.04008-1.90349,48.646,2.0344,43.64224c8.25514-10.4898,19.77389-8.347,22.11954-7.84923-1.11895-6.72429.414-10.8754,4.3581-11.08215-.41306-11.61059,5.75926-15.234,9.65145-14.25254C40.69767,3.54665,48.43476-1.54594,53.70943,3.23421,65.52724-2.71173,73.91368.19789,75.15331,6.64089a8.48717,8.48717,0,0,1,5.81,5.56565" fill="#fefefe"/></g></g><path id="Fill-4" d="M110.8527,48.956l-.80211-.48575.20214-.91542c.53513-2.42388.20445-4.58332-3.529-4.7047l-.92349-.03-2.83-8.88465.77974-.55336c2.56256-1.81814,1.96882-4.10311-1.50547-5.35336l-.86534-.31129v-.9198a3.737,3.737,0,0,1,1.52508-2.87455c.15368-.13984.31776-.28591.48736-.44536.1523-.14307.30991-.29814.46867-.47213a6.14622,6.14622,0,0,0,.891-1.25671l.2273-.42275.44652-.17538a98.51433,98.51433,0,0,1,71.72859.00023l.44652.17537.2273.42252a6.13988,6.13988,0,0,0,.89072,1.25671c.159.174.31661.32906.46867.47213.16984.15946.33391.30552.48759.44536a3.73682,3.73682,0,0,1,1.52485,2.87455v.9198l-.86534.31129c-3.47429,1.25025-4.068,3.53521-1.50547,5.35336l.77974.55312-2.83,8.88488-.92372.03c-3.73321.12138-4.06365,2.28081-3.52876,4.7047l.20215.91542-.80212.48575c-1.11894.67773-2.102,3.37183-1.45216,5.33582l.96849,2.92555-2.7774-1.3354a62.94309,62.94309,0,0,0-54.35043-.00046l-2.77717,1.33517.9678-2.92532c.64981-1.96375-.33322-4.65762-1.45216-5.33536m.33506,158.54438a220.2198,220.2198,0,0,1-22.2483-6.35c-12.88368-4.173-24.16383-7.65609-38.98426-4.16127-3.02431.75043-4.072.72966-4.74531-2.33826l-6.14509-27.66027c-.561-2.57411.19453-3.112,2.67795-3.66814,18.304-3.92889,33.39669-1.226,48.58333,2.6461,7.95492,2.02813,15.85216,4.34816,24.12368,6.16309a123.54486,123.54486,0,0,0,26.83946,3.17177,123.54315,123.54315,0,0,0,26.83947-3.17177c8.27152-1.81492,16.16876-4.135,24.12391-6.16309,15.18642-3.87213,30.27914-6.575,48.5831-2.6461,2.48365.55613,3.23915,1.094,2.678,3.66814l-6.14486,27.66027c-.67474,3.073-1.72469,3.08893-4.76078,2.335-14.81281-3.48929-26.08949-.00739-38.9688,4.16449a220.21943,220.21943,0,0,1-22.24831,6.35,146.5109,146.5109,0,0,1-60.20315,0" fill="#f3e500"/><path id="Fill-6" d="M63.9366,10.4684a2.40787,2.40787,0,0,0,.85472,3.02962,5.82318,5.82318,0,0,0,1.3121.69389c.40521.1613.8425.306,1.26039.44952.69689.23953,1.80569.38629,2.80764.69874.95.29629,1.20917.596,1.26939.80188a.627.627,0,0,1-.006.16361,5.33358,5.33358,0,0,1-.07407.61912c-.08515.50582-.21853,1.04095-.32606,1.43808l-.3916,1.44685,1.48655.19245a14.277,14.277,0,0,1,1.96928.34521,2.58312,2.58312,0,0,1,.74166.46452c.132.11284.25545.2326.37429.35329.13753.13984.2693.282.399.42044a8.16483,8.16483,0,0,0,.99156.93619,3.43307,3.43307,0,0,0,1.55808.68743c.53444.0833,2.75456.24945,3.39745.32421a19.85851,19.85851,0,0,1,2.89416.59651l1.11156.30437.44259-1.0638c1.3834-3.32707,3.00585-4.6657,4.131-5.14729a2.65512,2.65512,0,0,1,1.31994-.24437.8495.8495,0,0,1,.25337.06161.40588.40588,0,0,0-.162-.18092l2.20282.04385a4.80248,4.80248,0,0,1,3.08708-.89419,4.874,4.874,0,0,1,1.80361.243.96443.96443,0,0,1,.32236.18322c4.66708-.29352,6.89044,2.04913,5.91341,4.05973a6.21856,6.21856,0,0,1-.915,1.39216c-.16291.18715-.3256.35237-.4832.50374-.17422.16753-.3436.31914-.50259.46313-.18807.1703-.36368.33206-.52221.49382a4.58008,4.58008,0,0,0-.51782.62074,3.16019,3.16019,0,0,0-.561,1.829v.9198l.86534.31129c3.49783,1.25879,4.11626,3.57929,1.37693,5.44266-1.00057.6805-1.87375,1.34117-2.674,1.92244A16.012,16.012,0,0,1,98.911,36.7139a3.14892,3.14892,0,0,1-3.24953.01316l-.786-.39944-.66551.578a16.56816,16.56816,0,0,0-5.447,9.333l-.59812,2.69041L90.62746,47.692c.56074-.282,1.10925-.54482,1.6483-.78065,19.39383-8.48266,18.47726-1.62246,17.977.64335l-.20214.91565.80211.48574c.84873.5139,1.72561,2.30181,1.65107,4.17188-.06738,1.68822-.836,2.809-2.677,2.809h-1.19048l-.11192,1.18517c-.17837,1.8846-3.70159,3.32361-6.925,1.09772l-.573-.39575-.648.25406a16.18491,16.18491,0,0,1-5.53427,1.30932l-.56743-.00715-.39321.40936A34.7961,34.7961,0,0,0,89.81057,65.504c-1.36678,2.24136-2.8134,4.77784-4.36986,7.24534-3.14915,4.99406-6.49261,9.25339-10.23689,10.56549l-.51943.18184-.23306.49867a15.84,15.84,0,0,1-4.59808,5.84395c-3.63721,2.77-10.982,10.07859-10.982,17.39407v1.3084h1.3084c10.10674,0,11.12046,6.20324,11.12046,9.8116,0,4.49217-3.22231,7.55848-6.92736,9.96714-1.86591,1.2131-3.73251,2.1862-5.13205,3.02592a12.80427,12.80427,0,0,0-1.90421,1.32894,2.81318,2.81318,0,0,0-1.0818,2.03137c0,4.093,12.34509,11.83465,14.95566,11.83465a7.56048,7.56048,0,0,1,6.25446,2.99178c2.65833,3.39722,2.216,9.65954-2.89416,9.65954h-.489l-.52151.46427a3.34172,3.34172,0,0,1-.324.24622,5.53522,5.53522,0,0,1-1.51723.6962c-1.39747.41536-3.72189.60851-7.15812-.67058l-.61866-.2303-.55289.36068c-1.68176,1.09749-5.84487.77465-6.887-.97542l-.58359-.98-1.05041.44445a17.47094,17.47094,0,0,1-5.643,1.05618c-.44167-.00323-.65951-.11031-1.03357-.74488-.52244-.88589-.987-2.186-1.81214-3.83289-1.7803-3.55252-5.06053-8.505-13.17582-14.33261-3.18723-2.28866-3.33861-3.29638-3.11408-4.0775a7.50893,7.50893,0,0,1,1.49139-2.38073c.87157-1.06863,2.0106-2.30273,3.32291-3.81951,3.32222-3.83958,3.63905-7.68032,2.64172-10.96262l-.10961-.36067-.285-.24714c-.57966-.50282-1.11687-.97634-1.55808-1.41731q-.44513-.44548-.83442-.90827l-.48321-.57343-.73889.12668a24.68236,24.68236,0,0,1-10.45634-.41791C11.46846,111.974,8.25953,99.32847,13.02446,89.05166A53.73407,53.73407,0,0,1,16.121,83.48509c1.11733-1.79738,2.18228-3.39468,2.86625-4.52147a20.96418,20.96418,0,0,0,3.15769-12.46186,22.8367,22.8367,0,0,0-.8065-5.32567l-.26883-.9528h-.99018c-3.32638,0-4.34725-1.55208-5.14544-3.64436-.46313-1.21355-.80673-2.49911-1.304-3.62729a6.39929,6.39929,0,0,0-2.7841-3.25992c-.28845-.15391-.35629-.30737-.37152-.35791a.17568.17568,0,0,1,.02723-.159c1.24494-1.86406,5.51027-3.73967,7.22342-3.73967,3.47637,0,5.87487.26976,8.11461,2.50972a8.807,8.807,0,0,1,2.64772,6.57453,5.34194,5.34194,0,0,1-2.25151,4.57778l-.73243.4929.18276.8635c1.115,5.274,1.92914,13.62856-2.94493,20.9909-3.69605,5.58273-9.1341,13.833-6.34377,21.46142,1.83476,5.016,6.96451,8.5062,14.3213,7.81623l1.24586-.11676-.06115-1.24978c-.21345-4.36571,1.83845-9.22317,5.71565-13.69342a39.65794,39.65794,0,0,0,8.173-19.27037l.13338-1.46947-1.475.04339a7.08941,7.08941,0,0,1-4.77161-2.05559,3.36619,3.36619,0,0,1-.28822-.3406c.09207-.00185.20907-.00277.3586-.00277a3.42533,3.42533,0,0,0,2.977-1.96306,9.61465,9.61465,0,0,0,.99-3.30146,14.70371,14.70371,0,0,0,.09161-3.13346,5.8961,5.8961,0,0,0-.21853-1.21518,1.6189,1.6189,0,0,0-1.505-1.26732,2.59162,2.59162,0,0,0-1.18379.30667,6.7346,6.7346,0,0,0-.72527.45229,4.33733,4.33733,0,0,1-.46475.29491.55576.55576,0,0,1-.1883.06992c-1.47316.12622-2.587-1.14018-3.15746-3.24307a8.13437,8.13437,0,0,1-.28868-1.92383,5.84169,5.84169,0,0,0,2.70217.20284c1.79437-.35514,2.68926-1.93491,1.72146-3.98334a6.16907,6.16907,0,0,1-.34568-.85819c-.06507-.21668-.09161-.38121-.12738-.55336-.21115-1.02018-.6722-1.62408-2.41419-.74373a2.25988,2.25988,0,0,1-1.44108.07915c-.39737-.06715-.81158-.37106-1.17317-1.175a8.33055,8.33055,0,0,1-.5972-2.989,10.33341,10.33341,0,0,1,.123-2.07682c2.22889,1.19809,5.64526,1.20063,5.34759-2.84432-.03877-.5259-.06554-.86557-.06969-1.17156a5.95541,5.95541,0,0,1,.05607-.85519c.10269-.8305-.2333-1.54308-1.43116-1.613a5.10433,5.10433,0,0,0-.81573.051c-.20791.02492-.4449.05584-.68581.06646a1.87451,1.87451,0,0,1-.46659-.02377,4.01452,4.01452,0,0,1-1.74107-1.95867,7.856,7.856,0,0,1,.51343-4.71485c.08677-.21253.1733-.39967.25637-.5619a4.69076,4.69076,0,0,0,2.55726,1.3534c1.1201.18368,3.21907-.18645,3.13392-2.39965a6.19163,6.19163,0,0,1,.2063-1.934c.0953-.333,1.085-2.25843,1.085-2.25843l-1.8816-.21207a5.67553,5.67553,0,0,1-1.36055-.3196,3.69957,3.69957,0,0,1-.7105-2.84871,8.17115,8.17115,0,0,1,2.10405-4.14372,4.252,4.252,0,0,0,2.01221,2.549c.79565.45621,2.7654,1.06979,3.6942-.67843a5.1413,5.1413,0,0,1,.88611-1.21309,3.66431,3.66431,0,0,1,.2956-.26791c.02839-2.25428-.96157-2.95739-1.223-3.676-.32745-.90088.49728-2.19866,2.69271-3.24815a8.08573,8.08573,0,0,1,1.86914-.64358,3.93326,3.93326,0,0,0-.03738,1.57515,2.14636,2.14636,0,0,0,1.70046,1.69769,5.299,5.299,0,0,0,1.91968-.03508c.57136-.09115,1.22209-.231,1.91091-.34429a7.75621,7.75621,0,0,1,1.30332-.09138c.33991.003,3.02708.25753,3.02708.25753s-1.34116-2.4458-1.45146-2.78963a1.79219,1.79219,0,0,1-.09069-.42113c.03877-.033.02746.03415.13891-.03369a6.59438,6.59438,0,0,1,.93711-.4509,13.76708,13.76708,0,0,1,2.65511-.755,7.81365,7.81365,0,0,1,1.07533-.11976m179.23069,62.112a2.78344,2.78344,0,0,1-.26769.32975,7.08836,7.08836,0,0,1-4.77139,2.05559l-1.475-.04339.13338,1.46947a39.65354,39.65354,0,0,0,8.173,19.27037c3.877,4.47024,5.92889,9.3277,5.71543,13.69342l-.06093,1.24978,1.24563.11676c7.3568.69,12.48654-2.80025,14.32152-7.81623,2.79033-7.6284-2.64793-15.87869-6.34377-21.46142-4.87428-7.36233-4.05995-15.71693-2.94469-20.9909l.18254-.8635-.73243-.4929a5.34239,5.34239,0,0,1-2.25174-4.57778,8.80724,8.80724,0,0,1,2.64793-6.57453c2.23974-2.24,4.638-2.50972,8.11463-2.50972,1.71291,0,5.97823,1.8756,7.22318,3.73967a.1758.1758,0,0,1,.02746.159c-.01547.05054-.0833.204-.37175.35791a6.4003,6.4003,0,0,0-2.78409,3.25992c-.4973,1.12818-.8409,2.41373-1.304,3.62729-.7982,2.09228-1.81885,3.64436-5.14544,3.64436h-.99l-.26907.9528a22.83727,22.83727,0,0,0-.80625,5.32567,20.96223,20.96223,0,0,0,3.15768,12.46186c.68421,1.12679,1.74892,2.7241,2.86624,4.52147a53.77931,53.77931,0,0,1,3.09655,5.56657c4.76469,10.27681,1.55576,22.92235-10.05575,26.60386a24.68354,24.68354,0,0,1-10.45657.41791l-.73888-.12668-.483.57343q-.38941.46279-.83466.90827c-.441.441-.97818.91449-1.55806,1.41731l-.28477.24714-.10962.36067c-.99733,3.2823-.68073,7.123,2.64149,10.96262,1.31255,1.51677,2.45136,2.75088,3.32314,3.81951a7.51731,7.51731,0,0,1,1.49141,2.38073c.22452.78112.0729,1.78884-3.11432,4.0775-8.11483,5.82757-11.3953,10.78009-13.1756,14.33261-.82542,1.64715-1.28993,2.947-1.81213,3.83289-.3743.63458-.59212.74165-1.03379.74488a17.47079,17.47079,0,0,1-5.64274-1.05618l-1.05063-.44445-.58336.98c-1.04233,1.75007-5.20544,2.0729-6.8872.97542l-.5529-.36068-.61843.2303c-3.43622,1.27909-5.76065,1.08594-7.15812.67058a5.534,5.534,0,0,1-1.51746-.6962,3.30427,3.30427,0,0,1-.32376-.24622c-6.12063-.46427-6.563-6.7266-3.90488-10.12381a7.56143,7.56143,0,0,1,6.25469-2.99178c2.61058,0,14.95543-7.7417,14.95543-11.83465a2.81241,2.81241,0,0,0-1.08179-2.03137,12.80946,12.80946,0,0,0-1.90422-1.32894c-1.39953-.83972-3.26615-1.81282-5.13182-3.02592-3.70527-2.40866-6.92735-5.475-6.92735-9.96714,0-3.60836,1.01349-9.8116,11.12024-9.8116h1.30839v-1.3084c0-7.31549-7.3448-14.62405-10.982-17.39407a15.842,15.842,0,0,1-4.59785-5.84395l-.23306-.49867-.51944-.18184c-3.74428-1.3121-7.08774-5.57143-10.23735-10.56549-1.556-2.4675-3.00262-5.004-4.36963-7.24534A34.78282,34.78282,0,0,0,188.695,59.7897l-.3932-.40936-.56766.00715a16.185,16.185,0,0,1-5.53381-1.30932l-.64819-.25406-.573.39575c-3.22323,2.22589-6.74645.78689-6.92482-1.09772l-.11215-1.18517H172.7517c-1.84076,0-2.60964-1.12079-2.6768-2.809-.07453-1.87006.80212-3.658,1.65084-4.17188l.80212-.48574-.20215-.91565c-.5-2.26581-1.41685-9.126,17.977-.64335.53928.23584,1.08757.49867,1.64853.78065l2.46266,1.23709-.59813-2.69041a16.56636,16.56636,0,0,0-5.4475-9.333l-.66528-.57828-.786.39967a3.149,3.149,0,0,1-3.24954-.01316,16.02769,16.02769,0,0,1-2.0362-1.31994c-.8005-.58128-1.67369-1.24194-2.674-1.92244-2.73933-1.86337-2.1209-4.18387,1.3767-5.44266l.86534-.31129v-.9198a3.16009,3.16009,0,0,0-.561-1.829,4.56375,4.56375,0,0,0-.51782-.62074c-.1583-.16176-.33391-.32352-.5222-.49382-.15876-.144-.32814-.2956-.50259-.46313-.15761-.15138-.32029-.3166-.483-.50374a6.21356,6.21356,0,0,1-.91519-1.39216c-.9768-2.0106,1.24633-4.35325,4.08765-3.06839l1.83868-1.03957a1.37166,1.37166,0,0,1,.30968-.135,4.87315,4.87315,0,0,1,1.80359-.243,4.80157,4.80157,0,0,1,3.08686.89419l2.20305-.04385a.40647.40647,0,0,0-.16222.18092.85638.85638,0,0,1,.25337-.06161,2.6544,2.6544,0,0,1,1.31994.24437c1.12518.48159,2.74741,1.82022,4.13126,5.14729l.44259,1.0638,1.11133-.30437a19.86142,19.86142,0,0,1,2.89439-.59651c.64266-.07476,2.863-.24091,3.39746-.32421a3.43219,3.43219,0,0,0,1.55785-.68743,8.12875,8.12875,0,0,0,.99133-.93619c.13015-.13845.26168-.2806.3992-.42044.11908-.12069.24231-.24045.3743-.35329a2.58709,2.58709,0,0,1,.74188-.46452,14.27845,14.27845,0,0,1,1.96907-.34521l1.48654-.19245-.39159-1.44685c-.1073-.39713-.24068-.93226-.32583-1.43785a5.23918,5.23918,0,0,1-.07384-.61958.61843.61843,0,0,1-.00646-.16338c.06023-.20584.31936-.50559,1.2694-.80188,1.00218-.31245,2.111-.45921,2.80785-.69874.41768-.14353.855-.28822,1.26017-.44952a5.82424,5.82424,0,0,0,1.31232-.69389,2.41054,2.41054,0,0,0,.83558-3.07324c.25915.02561.61566.07984,1.09425.16338a13.77391,13.77391,0,0,1,2.65534.755,6.59015,6.59015,0,0,1,.93687.4509c.0517.03115.09462.05907.12946.08354a2.19791,2.19791,0,0,1-.08122.37129c-.11008.34383-1.4517,2.78963-1.4517,2.78963s2.68763-.25453,3.02755-.25753a7.75525,7.75525,0,0,1,1.30309.09138c.68881.1133,1.33978.25314,1.9109.34429a5.29914,5.29914,0,0,0,1.91968.03508,2.14746,2.14746,0,0,0,1.70092-1.69769,3.94635,3.94635,0,0,0-.03761-1.57515,8.08434,8.08434,0,0,1,1.8689.64358c2.19566,1.04949,3.0204,2.34727,2.69272,3.24815a4.03912,4.03912,0,0,1-1.29131,1.4487l-1.53663,1.02826s1.56524,1.16764,1.60492,1.199a3.65919,3.65919,0,0,1,.29584.26791,5.15393,5.15393,0,0,1,.8861,1.21309c.92858,1.74822,2.89833,1.13464,3.694.67843a4.084,4.084,0,0,0,1.981-2.58149,8.2062,8.2062,0,0,1,2.13522,4.17626,3.69963,3.69963,0,0,1-.71029,2.84871,5.67778,5.67778,0,0,1-1.36054.3196l-1.88182.21207s.98972,1.92544,1.085,2.25843a6.19214,6.19214,0,0,1,.20631,1.934c-.08492,2.2132,2.01358,2.58334,3.13416,2.39965a4.68935,4.68935,0,0,0,2.557-1.3534c.08284.16222.16963.34937.25661.5619a7.85766,7.85766,0,0,1,.51343,4.71485,4.01449,4.01449,0,0,1-1.74107,1.95867,1.87329,1.87329,0,0,1-.46636.02377c-.24114-.01061-.47838-.04154-.68628-.06646a5.103,5.103,0,0,0-.81548-.051c-1.1981.06992-1.53385.7825-1.4314,1.613a5.92958,5.92958,0,0,1,.0563.85519c-.00417.306-.03117.64566-.06993,1.17156-.29768,4.045,3.11892,4.04242,5.34782,2.84432a10.336,10.336,0,0,1,.12276,2.07682,8.32537,8.32537,0,0,1-.597,2.989c-.3616.804-.7758,1.10787-1.1734,1.175a2.26026,2.26026,0,0,1-1.44109-.07915c-1.742-.88034-2.20282-.27645-2.41418.74373-.03554.17192-.06208.33667-.12716.55336a6.19908,6.19908,0,0,1-.34567.85819c-.968,2.04844-.07292,3.62821,1.72145,3.98334a5.84188,5.84188,0,0,0,2.70216-.20284,8.12344,8.12344,0,0,1-.28891,1.92383c-.57019,2.10289-1.6843,3.3693-3.15745,3.24307a.55394.55394,0,0,1-.18809-.06992,4.338,4.338,0,0,1-.46472-.29491,6.76154,6.76154,0,0,0-.72527-.45229,2.59171,2.59171,0,0,0-1.1838-.30667,1.61813,1.61813,0,0,0-1.50478,1.26732,5.88162,5.88162,0,0,0-.21876,1.21518,14.674,14.674,0,0,0,.09162,3.13346,9.61465,9.61465,0,0,0,.99,3.30146,3.425,3.425,0,0,0,2.977,1.96306c.13225,0,.24393.00531.33785.01361" fill="#e32221"/><path id="Fill-8" d="M133.16354,165.52518V147.62873h11.95281a5.5502,5.5502,0,0,1,2.06044,10.686l5.37527,7.21049h-5.11566L142.32233,158.71H137.4238v6.81521Zm13.20029-12.352a1.70522,1.70522,0,0,0-1.68892-1.70715H137.4238v3.40669h7.25134a1.70369,1.70369,0,0,0,1.68869-1.69954Zm2.99178-27.70158v3.83567H137.42426v2.98347l11.50422-.00184v3.83358H137.42426v3.41014H149.3556v3.83381H133.164V125.47158Zm-43.37489-13.14513a5.43421,5.43421,0,0,1-3.78305,9.32654h-12.466V103.751l12.26087.00046a5.2202,5.2202,0,0,1,3.98819,8.575Zm-11.98719,5.48927h7.67455a1.70519,1.70519,0,0,0,.00047-3.41037h-7.675Zm0-7.24419h7.45441a1.49162,1.49162,0,1,0,0-2.98324l-7.45441-.00047Zm27.02569-2.251-3.14362,6.50045H124.161Zm11.02238,13.31636h-4.575l-1.4404-2.9837H116.012l-1.442,2.9837h-4.5734l8.94764-17.89482h4.1481Zm55.56677-14.05917h-6.18894V110.986h6.18894a1.70418,1.70418,0,0,0,0-3.40829Zm-2.992,7.24326h-3.19692v6.8159h-4.26026V103.742h10.88325a5.54466,5.54466,0,0,1,1.54862,10.86247l5.25067,7.03235h-5.11338ZM171.19362,103.742v3.83566H159.26228v2.98324l11.50421-.00185v3.83381H159.26228V117.803h11.93134v3.83382H155.00179V103.742Zm-23.85692,0h5.12814l-9.07571,11.6519v6.24293h-4.26188v-6.24293l-9.07386-11.6519h5.12629l6.07932,8.14875Zm-6.07885-17.15317-3.14362,6.50091h6.28538Zm11.02238,13.31658h-4.57477l-1.44063-2.9837H136.25062l-1.442,2.9837h-4.57316l8.94741-17.89482h4.14834Zm-2.86716-30.64305a5.43405,5.43405,0,0,1-3.78329,9.32655H133.164V60.687l12.26109.0007a5.22,5.22,0,0,1,3.988,8.57473Zm-11.987,5.48928h7.67432a1.7052,1.7052,0,0,0,.00023-3.41038h-7.67455Zm0-7.24419h7.45417a1.49162,1.49162,0,1,0,0-2.98324l-7.45417-.00023Zm58.62223,115.259,6.45592-1.25487a3.072,3.072,0,0,0-3.69443-2.6671,3.543,3.543,0,0,0-2.76149,3.922Zm11.01824,1.03218-10.39866,1.99006c.56351,2.161,2.88587,2.8217,5.285,2.35557a13.14364,13.14364,0,0,0,4.2801-1.55046l1.19971,2.85471a15.1438,15.1438,0,0,1-5.44934,2.10081c-5.202,1.01095-8.83342-1.43485-9.73683-6.08254-.73012-3.757.85933-8.53828,6.24454-9.585,5.21721-1.014,7.74539,2.78294,8.40167,6.15824a8.6654,8.6654,0,0,1,.17377,1.75861Zm-26.87894,13.38258-.06923-3.32984a9.57861,9.57861,0,0,0,4.43033-.02723c1.58093-.4532,2.07313-1.21287,1.83661-2.03805-.25037-.87273-.918-1.12564-2.90987-1.16394-3.38522-.03692-5.13182-1.32363-5.62957-3.13046-.776-2.70633.959-5.44635,4.66524-6.50922a10.15686,10.15686,0,0,1,4.52517-.32169l.06046,3.19232a8.13715,8.13715,0,0,0-3.6356.08561c-1.24056.35561-1.81261,1.07579-1.57377,1.9086.23676.8252,1.05087,1.03011,3.14153,1.08642,3.13577.07222,4.79192,1.09933,5.45374,3.33538.76335,2.66342-.76313,5.33928-5.06631,6.57337a11.37455,11.37455,0,0,1-5.22875.33876ZM173.225,184.7067l2.00667,10.32319c.37591,1.93307.735,3.49276,1.04072,4.69547l-3.83751.746-.64913-2.27227-.09991.01938A5.72849,5.72849,0,0,1,167.195,201.861c-2.93731.5709-5.8647-.65882-6.8182-5.56427l-1.70324-8.76166,4.4121-.85772,1.55507,8.00107c.46475,2.39019,1.56177,3.68867,3.49184,3.31345a3.07888,3.07888,0,0,0,2.42618-2.47972,2.77258,2.77258,0,0,0-.01915-1.06541l-1.72653-8.88233Zm-28.12017-3.30238.4749,13.603.06253-.00207c.35536-.59766.77212-1.25487,1.16118-1.82l3.45836-4.88583,5.47359-.19108-5.71473,6.39939,7.148,8.88419-5.595.19522-4.56186-6.35854-1.298,1.61923.17262,4.938-4.48964.15667-.78158-22.38145Zm-18.68356,22.00486.92234-10.18335c.20053-2.291.29283-3.75491.31937-5.09122l3.84881.33667-.1073,2.99156.11446.00992a4.71422,4.71422,0,0,1,4.65647-2.95855,3.93469,3.93469,0,0,1,.99133.17814l-.36459,4.168a6.39534,6.39534,0,0,0-1.316-.25476,3.303,3.303,0,0,0-3.73691,2.38351,6.08781,6.08781,0,0,0-.16868,1.01809l-.68165,7.79363Zm-14.22739-12.23664,6.45592,1.25487a3.07276,3.07276,0,0,0-2.42642-3.85712,3.543,3.543,0,0,0-4.0295,2.60225Zm9.82915,5.08452-10.38712-2.05c-.28683,2.21458,1.619,3.69719,4.018,4.16357a13.14158,13.14158,0,0,0,4.54939.16591l.04292,3.09632a15.1444,15.1444,0,0,1-5.83956-.09346c-5.202-1.011-7.65263-4.63963-6.74944-9.28732.73036-3.757,3.99512-7.59447,9.38032-6.548,5.21743,1.01441,6.13932,5.48188,5.483,8.85741a8.64146,8.64146,0,0,1-.4975,1.6956ZM92.54644,178.54662l4.58839,1.67-.26514,7.84254c-.0413,1.39262-.15991,2.61449-.31083,3.81627l.09645.03531c.675-1.052,1.36217-2.02352,2.19982-3.12908l4.752-6.20924,4.48132,1.63077L97.109,196.51506l-4.24318-1.54423Zm-14.42123,2.39619,6.40815,1.47962a3.07254,3.07254,0,0,0-2.29-3.9395,3.54284,3.54284,0,0,0-4.11811,2.45988Zm9.64568,5.42443L77.46179,183.956c-.3639,2.203,1.48885,3.75143,3.87,4.30109a13.14392,13.14392,0,0,0,4.54108.32468l-.0653,3.09586a15.14251,15.14251,0,0,1-5.83263-.297c-5.16367-1.19232-7.48625-4.90384-6.42107-9.51715.861-3.72928,4.25748-7.45072,9.603-6.21685,5.17867,1.196,5.94409,5.693,5.17059,9.04364a8.63606,8.63606,0,0,1-.55659,1.67691Zm-30.5692,3.23062-.7382-21.13952,4.4917-.15692.60689,17.38024,9.14079-.31914.13131,3.75951Zm153.443-.23237v-10.526c0-1.87653-.05515-3.45744-.12553-4.79816h3.909l.21045,2.28544h.102a5.81153,5.81153,0,0,1,5.02661-2.64934c2.962,0,5.76041,1.87514,5.76041,6.77068v8.91741H221.0332v-8.34375c0-2.20882-.83788-3.73228-2.84755-3.73228a3.07773,3.07773,0,0,0-2.8794,2.09158,3.3718,3.3718,0,0,0-.16707,1.1598v8.82465Zm1.42378-164.72062a2.58066,2.58066,0,0,0-1.55647.68166c1.10465.3616,2.33251.74373,2.83533.86a3.31642,3.31642,0,0,0-1.27886-1.54169Zm-4.059,1.32271s1.69516-2.74648,4.21711-2.74648c1.02479,0,3.52483,2.95139,2.338,4.03434-.98765.90111-6.55515-1.28786-6.55515-1.28786Zm-133.44,0s-5.56773,2.189-6.55561,1.28786c-1.18679-1.08295,1.313-4.03434,2.338-4.03434,2.522,0,4.21757,2.74648,4.21757,2.74648ZM70.51,24.64486a3.31778,3.31778,0,0,0-1.27886,1.54169c.50283-.1163,1.73068-.49844,2.83555-.86A2.58126,2.58126,0,0,0,70.51,24.64486Zm48.37288,20.19087-4.236-13.85494-.05285.01615-2.79679,2.57572-1.50108-2.63087,3.86335-3.4826,3.10993-.951L122.5316,43.72Zm6.41945-1.74753-.42712-3.03932a10.237,10.237,0,0,0,1.88967-.26722,7.422,7.422,0,0,0,3.661-1.77292,5.73448,5.73448,0,0,0,1.862-3.86312l-.06806-.01754a5.18026,5.18026,0,0,1-3.72536,2.01221,5.51513,5.51513,0,0,1-6.54131-4.77046,6.64244,6.64244,0,0,1,5.97687-7.40525c4.61609-.64889,7.38311,2.49957,7.97939,6.74183.52312,3.72166-.3,6.57868-2.021,8.63035a10.896,10.896,0,0,1-6.57083,3.45791,13.11407,13.11407,0,0,1-2.01522.29353Zm2.899-16.21514c-1.66308.23376-2.64771,1.80868-2.3752,3.7189a2.81058,2.81058,0,0,0,3.30468,2.58542,3.18925,3.18925,0,0,0,2.5785-1.74522,1.67258,1.67258,0,0,0,.08307-.89373c-.26838-2.0339-1.37-3.97757-3.59106-3.66536ZM144.85052,41.6568c-4.59555-.24091-6.65392-4.29672-6.40538-9.63045.28268-5.39328,2.88332-9.2204,7.50978-8.9781,4.73908.2483,6.66083,4.37587,6.38878,9.56792-.2873,5.48489-2.74,9.28963-7.49318,9.04064Zm.16314-2.93063c1.9499.102,3.12054-2.06921,3.34-6.25747.21529-4.104-.68812-6.37423-2.64748-6.47691-1.79622-.09415-3.11016,2.01752-3.32546,6.16378-.25706,4.24041.82357,6.47576,2.63295,6.5706Zm19.61789,6.16724-3.64667-.977,1.1441-4.26995-8.1506-2.18389.65974-2.46149,9.8829-8.77065,4.76886,1.27794-2.75272,10.27335,2.22634.59651L168.00224,41.22l-2.22659-.59651Zm-6.24731-9.29632,4.50648,1.20756,1.15771-4.32095c.2746-1.02457.597-2.05813.9475-3.14292l-.09554-.03369c-.879.9738-1.62315,1.83083-2.48618,2.71417l-3.99881,3.52691ZM105.722,18.23256a101.16483,101.16483,0,0,1,71.13439,0,5.17506,5.17506,0,0,1,5.46782-.998c.26168-2.225,6.39223-1.84422,7.58709-.05861.567-.92511,4.92184-1.38709,7.86608,5.69211a21.1653,21.1653,0,0,1,3.08939-.63412c.6332-.07361,2.82032-.23537,3.34668-.31752,1.46993-.22914,2.05791-2.11051,3.78974-2.78756a13.47329,13.47329,0,0,1,2.27759-.42413,7.8644,7.8644,0,0,1-.39875-2.93039c.52728-1.80107,3.53175-1.89729,4.90753-2.37012,1.59246-.54736,3.48791-1.09749,2.49564-2.71487-1.86821-3.04554,6.50784-.83673,7.33141.52474.46706.77212-.37612,2.28935-.37612,2.28935a9.54681,9.54681,0,0,1,2.20857.078c2.7458.45159,4.88493,1.32917,3.775-2.19589-.72435-2.30066,8.79765.80765,7.29773,4.93245a5.248,5.248,0,0,1-1.79346,2.08882,5.772,5.772,0,0,1,1.67808,2.00713c.66781,1.25671,3.27515-.19868,3.27515-1.91714,0-3.51214,4.3671,1.30563,4.68255,4.68277.11031,1.18264-.0974,3.14754-1.21564,4.00711a5.60443,5.60443,0,0,1-2.01151.58267,6.19711,6.19711,0,0,1,.57042,3.15469c-.06806,1.77176,3.05433,1.26963,3.95821-.65974.74995-1.60077,3.48052,3.75928,2.45179,7.29772a5.00205,5.00205,0,0,1-2.71139,2.87017c-1.02157.22868-2.4352-.31083-2.387.08215a9.34942,9.34942,0,0,1-.00716,2.28312c-.185,2.51226,2.31727,2.86255,4.23374,1.02249,1.45929-1.40093,2.38648,8.5812-1.6211,9.25686-2.3694.39944-2.69664-.81688-2.79125-.36021a6.0118,6.0118,0,0,1-.57134,1.7053c-1.26249,2.67148,2.10566,2.50949,3.8119,1.58323,1.532-.83212.91863,8.54128-4.12919,8.10861-.95972-.08238-1.64416-1.11918-2.45019-1.11918-.788,0-.88449,8.26391,2.335,8.26391,4.69593,0-.48019,5.28182-4.91422,5.00721a38.37967,38.37967,0,0,0,7.85939,18.54026c4.008,4.62139,6.26346,9.78922,6.03479,14.5966,6.94235.713,11.52565-2.5245,13.143-6.94605,2.519-6.88674-2.38763-14.52207-6.206-20.28963-5.17129-7.81162-4.27018-16.61043-3.13393-21.98386a6.64754,6.64754,0,0,1-2.82978-5.6628,9.72047,9.72047,0,0,1,3.031-7.50056c6.26507-5.87533,15.82446-.8575,17.35139,1.42885a1.64678,1.64678,0,0,1-.81712,2.39781c-4.28332,2.28381-1.71613,10.68525-9.849,10.68525a21.54064,21.54064,0,0,0-.75783,5.01945,19.66,19.66,0,0,0,2.9687,11.73358A102.897,102.897,0,0,1,270.741,88.50114c4.99131,10.76533,1.73623,24.41212-10.84722,28.4017a25.98147,25.98147,0,0,1-11.2234.43383q-.43474.51851-.93318,1.01764c-.39944.399-.87365.8245-1.38731,1.2731-.94842,2.91956-.77166,6.36637,2.31379,9.93251,5.28968,6.11324,7.77218,7.67409,1.47433,12.19672-12.163,8.7342-13.06552,15.32279-14.72468,17.93175,2.57019.37359,5.20013.8718,7.89885,1.51078,1.29849.3076,3.94412,1.03056,3.07417,4.93337l-6.842,30.76789c-1.01857,4.54987-4.407,3.43854-6.02995,3.00909-29.58479-7.83008-43.85718,13.33252-92.22521,13.33252S78.649,192.07942,49.064,199.9095c-1.62269.42945-5.01114,1.54078-6.02971-3.00909l-6.842-30.76789c-.87019-3.90281,1.77545-4.62577,3.07393-4.93337,2.69872-.639,5.32889-1.13718,7.89908-1.51078-1.65938-2.609-2.56188-9.19755-14.72467-17.93175-6.29808-4.52262-3.81558-6.08348,1.47385-12.19672,3.08569-3.56614,3.26269-7.013,2.31427-9.93251-.51367-.44859-.9881-.87411-1.38732-1.2731q-.49878-.49878-.93318-1.01764a25.98248,25.98248,0,0,1-11.22361-.43383c-12.58323-3.98957-15.83854-17.63637-10.84724-28.4017a102.94276,102.94276,0,0,1,6.03132-10.21658A19.66,19.66,0,0,0,20.83723,66.551a21.52933,21.52933,0,0,0-.75781-5.01945c-8.13261,0-5.56542-8.40144-9.849-10.68525a1.64668,1.64668,0,0,1-.81688-2.39781c1.52669-2.28635,11.08631-7.30418,17.35139-1.42885a9.72123,9.72123,0,0,1,3.031,7.50056,6.64752,6.64752,0,0,1-2.82978,5.6628c1.136,5.37343,2.03736,14.17223-3.13393,21.98386-3.81835,5.76756-8.72542,13.40288-6.20624,20.28963,1.61761,4.42155,6.2007,7.65909,13.14329,6.94605-.22891-4.80738,2.02674-9.97521,6.03455-14.5966a38.38178,38.38178,0,0,0,7.85939-18.54026c-4.43379.27461-9.61015-5.00721-4.914-5.00721,3.21954,0,3.12308-8.26391,2.335-8.26391-.806,0-1.49046,1.03679-2.45019,1.11918-5.04783.43267-5.66142-8.94072-4.12918-8.10861,1.70622.92626,5.07437,1.08826,3.81189-1.58323a6.01461,6.01461,0,0,1-.57159-1.7053c-.09438-.45667-.42183.75965-2.79125.36021-4.00734-.67566-3.08039-10.65779-1.62108-9.25686,1.91645,1.84006,4.41879,1.48977,4.23395-1.02249a9.36243,9.36243,0,0,1-.00739-2.28312c.04846-.393-1.36516.14653-2.38673-.08215A5,5,0,0,1,33.46131,37.562c-1.02895-3.53844,1.70184-8.89849,2.45181-7.29772.90365,1.92937,4.02627,2.43149,3.958.65974a6.1986,6.1986,0,0,1,.57067-3.15469,5.60209,5.60209,0,0,1-2.01152-.58267c-1.11825-.85957-1.32617-2.82448-1.21563-4.00711.31522-3.37714,4.68254-8.19491,4.68254-4.68277,0,1.71845,2.60733,3.17385,3.27515,1.91714a5.773,5.773,0,0,1,1.67784-2.00713A5.24821,5.24821,0,0,1,45.0569,16.318c-1.49992-4.1248,8.02208-7.23311,7.29773-4.93245-1.11018,3.52506,1.02895,2.64749,3.775,2.19589a9.5469,9.5469,0,0,1,2.20858-.078s-.84342-1.51723-.37637-2.28935c.82357-1.36147,9.19963-3.57029,7.33164-.52474-.99226,1.61738.90319,2.16751,2.49542,2.71487,1.37578.47282,4.38025.569,4.90753,2.37012a7.85993,7.85993,0,0,1-.39875,2.93039,13.463,13.463,0,0,1,2.27758.42413c1.73161.677,2.32,2.55841,3.78974,2.78756.52636.08215,2.71372.24391,3.34715.31752a21.16046,21.16046,0,0,1,3.08893.63412c2.94424-7.07919,7.29911-6.61722,7.86608-5.69211,1.19509-1.78561,7.32564-2.16636,7.58709.05861a5.17486,5.17486,0,0,1,5.46781.998Zm70.953,4.13611a97.20521,97.20521,0,0,0-70.77164,0c-1.36124,2.53118-3.21584,2.71787-3.21584,4.42917,3.70551,1.33355,5.83818,4.80023,1.81929,7.65147l2.25959,7.09327c4.98691.162,5.3672,3.56175,4.764,6.29415,1.75514,1.06287,2.81271,4.45963,2.01682,6.86574a64.25039,64.25039,0,0,1,55.48438.00023c-.79657-2.40611.26122-5.8031,2.0166-6.866-.60321-2.7324-.22314-6.13216,4.76354-6.29415l2.25957-7.09327c-4.01864-2.85148-1.886-6.31792,1.81954-7.65147,0-1.7113-1.85438-1.898-3.21585-4.42917ZM102.77548,41.94548,101.15394,36.855c-2.09367,1.469-3.74243,2.23028-6.08578,1.03841a15.26105,15.26105,0,0,0-5.028,8.6292c.5822-.29237,1.15171-.56513,1.7113-.81a56.29846,56.29846,0,0,1,11.024-3.76713Zm78.649-5.09075-1.62176,5.09075a56.30122,56.30122,0,0,1,11.02447,3.76713c.55958.24483,1.12909.51759,1.71129.81a15.26277,15.26277,0,0,0-5.0282-8.6292c-2.34335,1.19187-3.99213.43059-6.08579-1.03864ZM83.12482,112.50806a58.16464,58.16464,0,1,0,58.16463-58.16441,58.16414,58.16414,0,0,0-58.16463,58.16441Zm122.26806.00023A64.08274,64.08274,0,0,1,172.766,168.36465c11.23583-2.75479,21.92916-6.15524,33.23077-8.07561-5.28966-1.33425-4.39548-8.61165-2.087-11.56212a8.86668,8.86668,0,0,1,7.285-3.49415c2.31219,0,13.64726-7.51671,13.64726-10.52556,0-2.72318-15.04519-5.93048-15.04519-16.35291,0-3.95658,1.27448-11.12,12.42862-11.12,0-6.62391-6.83-13.58357-10.46626-16.35313a17.16848,17.16848,0,0,1-5.02659-6.40792c-8.35206-3.14962-14.06448-18.65379-18.9817-23.77754a17.39544,17.39544,0,0,1-6.02832-1.39932,7.57534,7.57534,0,0,1-2.96039,1.19671,64.02113,64.02113,0,0,1,26.63063,52.01517Zm-95.58136,55.85613A64.12073,64.12073,0,0,1,103.816,60.49312a7.58139,7.58139,0,0,1-2.96017-1.19671,17.3942,17.3942,0,0,1-6.02832,1.39932c-4.91722,5.12375-10.62964,20.62792-18.98169,23.77754a17.16341,17.16341,0,0,1-5.02637,6.40792c-3.63674,2.76956-10.46649,9.72922-10.46649,16.35313,11.15415,0,12.42886,7.16342,12.42886,11.12,0,10.42242-15.04519,13.62972-15.04519,16.35291,0,3.00884,11.33483,10.52556,13.647,10.52556a8.86626,8.86626,0,0,1,7.285,3.49415c2.30851,2.95047,3.20292,10.22788-2.087,11.56212,11.30114,1.92014,21.99447,5.32059,33.22985,8.07538Zm31.4777,40.95286a138.77026,138.77026,0,0,0,29.825-3.09586,218.90455,218.90455,0,0,0,22.12184-6.31608c12.88461-4.17326,24.47905-7.77607,39.68738-4.1894,2.71579.67428,2.7264.66366,3.16762-1.34694l6.14487-27.65935c.35743-1.63953.35743-1.65268-1.68039-2.10935-18.00883-3.86543-32.86132-1.21863-47.97991,2.636-7.96877,2.03181-15.88052,4.35532-24.16659,6.17324a124.83056,124.83056,0,0,1-27.11984,3.202,124.83411,124.83411,0,0,1-27.11984-3.202c-8.28606-1.81791-16.1976-4.14142-24.16659-6.17324-15.11857-3.85459-29.97108-6.50138-47.97967-2.636-2.03783.45667-2.03783.46982-1.68061,2.10935L46.48737,194.369c.44144,2.01061.45206,2.02122,3.16762,1.34694,15.20834-3.58667,26.80277.01615,39.68761,4.1894a218.85375,218.85375,0,0,0,22.12185,6.31608,138.76631,138.76631,0,0,0,29.82478,3.09586ZM266.54513,56.15948c.4703-1.23248.82152-2.537,1.32664-3.68244a7.9789,7.9789,0,0,1,2.52172-3.33076c-2.2725-1.718-8.76189-4.17533-12.87975-.31383A7.25046,7.25046,0,0,0,255.268,54.519c-.0046,2.797,1.57747,3.424,3.11064,4.23925-1.59085,6.944-2.16659,15.07842,2.44,22.03647A57.76227,57.76227,0,0,1,266.53521,90.973c1.5011,3.77174,2.30689,8.08438.75113,12.33724-2.0916,5.718-7.89862,9.38793-15.82285,8.55212a12.88507,12.88507,0,0,1-1.23292,3.19854,23.23173,23.23173,0,0,0,8.91234-.527c10.73763-3.40461,13.90454-15.14973,9.34361-24.98717a52.61192,52.61192,0,0,0-3.02822-5.44035c-1.12012-1.80153-2.18735-3.40253-2.87294-4.53209a22.13484,22.13484,0,0,1-3.32754-13.11675,29.27354,29.27354,0,0,1,1.34185-7.32426c4.41327.17307,5.01437-.57459,5.94548-2.97378ZM213.1265,81.02343c-2.30065-.40036-4.17718-1.838-3.86334-3.43022.14284-.72481,2.73148.75527,3.25554-5.74772A9.98111,9.98111,0,0,0,212.227,67.93c-3.53406-.57713-2.23743,4.20141-5.38474,5.35474-4.46492,1.63653-7.22226-2.6821-7.18788-5.76849,2.56119.141,2.9004-1.75792,2.08076-3.34022a7.78133,7.78133,0,0,1-.525-1.90976,3.46835,3.46835,0,0,1-2.43912.6392c-3.66789-.53443-4.14557-10.54126-1.77914-8.58881,1.45447,1.19994,2.99155.53536,3.967-.62766-4.41534-1.69007-9.04088-4.49078-11.23307-5.45835-9.729-4.29325-13.84687-4.26649-15.35326-3.685-.51182.19753-.9754.78319-.76243,2.02329a7.89617,7.89617,0,0,1,3.03655-.43429,1.30835,1.30835,0,1,1-.18875,2.60988c-4.18457.02884-5.12745,2.79333-4.96869,4.36063.08238.81435.20631,1.51608,1.51078,1.39263a6.60806,6.60806,0,0,1,3.022-3.16669,1.30834,1.30834,0,1,1,1.12887,2.36065,3.05917,3.05917,0,0,0-1.79185,2.82655,1.36489,1.36489,0,0,0,1.28487,1.27956,5.11413,5.11413,0,0,0,3.51721-.76289l1.20339-.831s4.58471,2.09275,7.54371,1.72792l.82566.861a39.75227,39.75227,0,0,1,4.71022,6.69936c1.51539,2.5178,3.13,5.3469,4.88608,7.99877,3.6672,5.538,7.043,8.7958,10.39841,8.7958a4.53681,4.53681,0,0,0,3.39791-1.2634Zm-2.79424,3.99627a13.86388,13.86388,0,0,0,3.265,3.64644c3.627,2.76195,11.50235,10.41688,11.54943,18.46687,4.28172.41421,5.98679,1.65592,5.98679,1.65592,1.49578,1.05826.04477,3.0767-1.58738,2.24412-3.05869-1.55993-7.86192-1.09149-9.27346-.96342-6.58331.5972-7.55456,5.03007-7.55456,8.25583,0,3.7002,2.629,6.39108,6.27223,8.75934,1.84976,1.20247,3.70113,2.16613,5.08822,2.99871a14.1552,14.1552,0,0,1,2.12412,1.49115,4.23352,4.23352,0,0,1,1.56085,3.10369c0,5.28575-13.45643,13.27413-16.39559,13.27413a6.12638,6.12638,0,0,0-5.12052,2.43911,7.378,7.378,0,0,0-1.17662,4.99915,2.36386,2.36386,0,0,0,2.21711,2.281,10.46585,10.46585,0,0,1,1.95222-6.19608,1.37413,1.37413,0,1,1,2.18758,1.66354,7.81851,7.81851,0,0,0-1.30954,5.57c1.7353,1.0105,3.76066,1.097,6.27914.22268a10.479,10.479,0,0,1,1.86937-6.56853,1.37417,1.37417,0,0,1,2.26,1.56384,7.688,7.688,0,0,0-1.40924,4.37426c2.22659,1.8306,5.37159.70819,5.73664-.01109.55313-1.08918,1.0728-2.27319,1.72007-3.56128a34.92516,34.92516,0,0,1,2.70149-4.55171c2.34312-3.32383,5.86171-7.04111,11.821-11.20653,1.42447-.99572,2.53765-1.64092.90456-3.427-.69341-.75826-1.45168-1.65338-2.32488-2.599-3.6289-3.931-2.02537-7.97754.09415-10.64118a27.81162,27.81162,0,0,1,3.39654-3.43045c1.037-.91265,2.05582-1.7473,2.8-2.49126,5.04-5.03975,4.197-12.54862-2.09577-19.80434-3.68911-4.25356-8.41781-13.97079-8.596-21.35781-2.6791-2.33273-2.4885-7.99323-4.00435-7.99323-2.13082,0-.08769,3.95058.14606,6.03363.81712,7.29149-6.59668,7.83493-8.75634,5.31851-1.26894-1.47824,2.09344.33622.58358-6.63406-.24044-1.11018-.79818-3.37415-1.28417-3.37415-2.97724,0-1.28832,3.7782-1.57607,6.69129-.30761,3.11246-1.85968,4.78038-3.71314,5.475a6.65506,6.65506,0,0,1-6.33868,4.28287ZM243.23049,122.421c-2.62255,2.57711-4.57592,5.582-1.70759,8.6885,3.68819,3.99512,6.26415,6.4257.98117,10.13882-9.62536,6.76467-12.35916,11.99688-14.30122,16.08775a9.726,9.726,0,0,0,1.54517.4906,21.12848,21.12848,0,0,0,3.21053.473c.51575.04569.83-1.37577,2.07059-3.85919,1.871-3.74451,5.32912-8.81427,13.58242-14.80936,3.05453-2.21874,2.94009-2.59926,1.37184-4.56878-.85217-1.07025-1.99558-2.28473-3.29844-3.79043a12.82269,12.82269,0,0,1-3.45447-8.851ZM199.29926,41.304c.20076.47513.5822,1.29847.95995,1.38386a69.24306,69.24306,0,0,0,8.29852.67773c1.7503.06923,6.28031.11146,6.99982-.17745,1.17894-.47351,3.58851-3.48952,5.49366-3.78951,2.603-.40959,4.52932-1.41155,5.3222-3.24446.5709-1.31994.56075-1.86475.32353-2.51988a46.31948,46.31948,0,0,1-1.7127-6.49076s2.94817-1.86106,2.90271-3.04393c-.02607-.67912-.39644-.74327-1.38846-.95164A26.62393,26.62393,0,0,0,222.694,22.985a2.93879,2.93879,0,0,0-2.12021-1.94321,34.055,34.055,0,0,0-11.71351.27922c-.64243.14168-1.87883,1.78837-2.26788,2.08351a4.39677,4.39677,0,0,1-2.01637.83765c-.54066.084-2.78709.25406-3.43783.32975a30.1275,30.1275,0,0,0-6.47392,1.79853,5.953,5.953,0,0,0,1.52554,4.06826,29.02465,29.02465,0,0,0,.11747,3.83289c.01038.20929.3459.27252.47674.2506a8.18293,8.18293,0,0,1,2.27943-.07546c2.03436.24345,8.78242.21368,8.78242.21368V41.304Zm7.28041,4.32348c-1.78122,1.44408-1.93052,3.47291-2.02513,5.09976a7.105,7.105,0,0,1-1.51725,4.17533c-.83164,1.09218-3.0543,3.42145-4.90037,2.38742-.85866-.4809.00161,3.03493.82311,3.30561,1.10187.36321,3.29338-1.2844,3.66075-1.6903a16.87189,16.87189,0,0,0,1.23963,3.98357c1.09818,2.23558.99549,5.59473-1.32916,6.46954.4929,1.39677,2.62879,2.29535,3.67758,1.42585.50813-.42136.86235-1.80891,1.26109-2.60526,1.58531-3.16485,4.20464-3.09239,6.77552-2.30966.24576.07476,1.05618,3.11916.75042,6.17578-.36875,3.6859-1.14825,5.66926-2.39734,6.23255-1.08918.49128,5.3132,1.78676,5.31228-3.26015,0-.579-.18622-3.57375-.19384-4.2898-.01823-1.69122.54759-4.64239,4.24318-4.64239a3.0386,3.0386,0,0,1,2.557,1.67254,17.636,17.636,0,0,1,1.1561,3.66074c.5845,2.69756.68581,5.25021-.03878,6.02348-.50051.53444,4.204.3766,3.31276-3.90512-.08283-.39806-.77-2.86947-.91749-3.54237a6.03413,6.03413,0,0,1-.07338-2.74164,3.30058,3.30058,0,0,1,3.31461-2.51156,3.45529,3.45529,0,0,1,3.21007,2.51757c.26652.66459,1.21333,5.51166,2.48988,6.25908,1.58231.926,4.791-.52935,3.56752-.84065a3.41735,3.41735,0,0,1-1.74961-1.60492,10.27435,10.27435,0,0,1-1.08272-3.59544,12.18336,12.18336,0,0,1,.13292-4.719c.5462-1.72815,1.35455-2.1922,2.68257-2.1922.83649,0,1.70137.78642,2.33641,1.03841,1.81724.72112,2.94219-3.20177,2.07684-2.82679a3.49668,3.49668,0,0,1-4.32673-4.03827c.19683-1.54931.905-1.886,1.41341-5.10552.08653-.548,1.99026,1.32686,4.03826,1.12495,1.09677-.10823,1.6462-4.0835,1.05363-3.77059-2.32213,1.226-5.7152-.1913-5.49574-3.32522a37.78853,37.78853,0,0,0,.05768-5.65357c-.02884-.375,1.09611.02885,3.09149.08769,1.31761.039,1.78328-.405,2.10057-1.21263.3277-.834-.02953-3.60328-.40381-3.23061a3.80671,3.80671,0,0,1-4.41324.40383,3.11209,3.11209,0,0,1-1.84608-3.14408,8.97614,8.97614,0,0,0-1.24032-4.87476c2.65371-.17307,3.23546-.0923,3.77866-.89419,1.037-1.53085-.70635-4.57893-.86764-3.76343-.26884,1.35916-2.77141,2.08074-3.71174,2.04405-3.19393-.12438-2.26606-2.75179-5.9741-4.91538,2.13059-1.38709,2.99017-2.4345,3.05108-3.0347.07823-.77119-2.525-2.61726-2.44-1.94483a2.93541,2.93541,0,0,1-2.86417,2.83579c-1.61507.17745-2.99616-.41629-5.28367-.5372a41.08691,41.08691,0,0,0-4.2231.12715s1.898-2.81986,1.53408-3.5096c-.2146-.40706-2.43334-1.16025-2.1562-.423.24668.657-.48252,1.97114-1.75169,2.70656a14.11452,14.11452,0,0,1-4.75938,1.61531c-.98072.20191-.98072.375-.79266,1.00611.09669.32421.21508.7465.312,1.09818,4.50441-.33621,10.55535-.1883,11.147,2.2,2.1412,0,4.40793.36621,5.12305.98257,1.68246,1.45008,1.83107,3.91319-1.51354,6.48915.91449,4.70446,2.50095,5.409.96156,8.96749-1.29108,2.98462-4.32047,4.096-7.03511,4.6207-1.169.22614-2.51249,2.30273-4.86923,3.58229-1.13648.61681-5.84348.57-10.04951.33575Zm-11.10731,2.43219a56.54668,56.54668,0,0,0,6.52838,3.06839,13.15568,13.15568,0,0,1,1.44961-5.71426c-1.62084-.13246-2.93478-.27691-3.58966-.39229-2.4225-.42667-3.91805-5.15052-2.98139-6.07124h8.6128V36.99711c-1.48724-.01084-4.59093.03992-6.70836-.21322a10.59435,10.59435,0,0,0-2.29881.16568c-2.80647.42667-2.64817-3.17246-2.64865-5.69811a8.20993,8.20993,0,0,1-1.35662-6.55953c.89418-.35606,1.84145-.71443,2.80071-1.0451-1.26249-2.92578-2.82932-4.52286-4.08072-4.45109a8.67136,8.67136,0,0,1,.5529,1.65407,1.374,1.374,0,1,1-2.70357.49267,7.454,7.454,0,0,0-1.24794-2.69687c-.698-.51505-2.96224-.70266-3.01993-.12576a11.01928,11.01928,0,0,1,1.688,2.67633,1.37418,1.37418,0,0,1-2.539,1.052c-.34268-.81827-1.23525-2.49911-2.36528-2.80948,0,0-2.50788-.405-2.83185.80973-.26514.99364,1.55946,2.46773,1.73507,2.624a5.01942,5.01942,0,0,1,2.039,4.22749v1.50339l-1.889.707c-2.14581.732-2.94217,1.739-.96088,3.07139,1.0165.68351,1.93261,1.36516,2.743,1.95337a14.825,14.825,0,0,0,1.86152,1.21309,1.87414,1.87414,0,0,0,2.06229.01269l1.57168-.79934,1.331,1.15656a18.58385,18.58385,0,0,1,6.24569,12.14157Zm-108.366,0A18.58273,18.58273,0,0,1,93.352,35.91808l1.331-1.15656,1.57146.79934a1.8745,1.8745,0,0,0,2.06252-.01269,14.84181,14.84181,0,0,0,1.86152-1.21309c.81019-.5882,1.72653-1.26986,2.74279-1.95337,1.98152-1.33239,1.18518-2.33942-.96088-3.07139l-1.889-.707V27.09989a5.02,5.02,0,0,1,2.039-4.22749c.1756-.15622,2.00021-1.63031,1.7353-2.624-.324-1.21471-2.8321-.80973-2.8321-.80973-1.13.31037-2.02259,1.99121-2.365,2.80948a1.37428,1.37428,0,0,1-2.53926-1.052,11.02752,11.02752,0,0,1,1.688-2.67633c-.05769-.57689-2.32189-.38929-3.02016.12576a7.44867,7.44867,0,0,0-1.24748,2.69687,1.37415,1.37415,0,0,1-2.70379-.49267,8.68176,8.68176,0,0,1,.55313-1.65407c-1.25163-.07177-2.81848,1.52531-4.08073,4.45109.9588.33067,1.90629.689,2.80071,1.0451a8.2099,8.2099,0,0,1-1.35662,6.55953c-.00046,2.52564.15784,6.12478-2.64864,5.69811a10.59539,10.59539,0,0,0-2.29881-.16568c-2.11766.25314-5.22113.20237-6.70859.21322v1.95314h8.613c.93665.92072-.55913,5.64457-2.98139,6.07124-.65489.11538-1.96906.25984-3.58991.39229A13.1563,13.1563,0,0,1,80.57795,51.128a56.5652,56.5652,0,0,0,6.52838-3.06839ZM75.99878,45.62746c-4.206.23422-8.913.28106-10.04928-.33575-2.357-1.27956-3.70044-3.35614-4.869-3.58229-2.7151-.52474-5.74472-1.63607-7.03558-4.6207-1.53939-3.55852.04708-4.263.96157-8.96749-3.34438-2.576-3.19577-5.03906-1.51354-6.48915.71512-.61635,2.98208-.98257,5.12306-.98257.59166-2.38835,6.64237-2.53626,11.14723-2.2.09669-.35167.21507-.774.312-1.09818.18807-.63112.18807-.80419-.79266-1.00611a14.11274,14.11274,0,0,1-4.75938-1.61531c-1.26917-.73543-1.99859-2.04959-1.75168-2.70656.27691-.73727-1.9416.01592-2.15643.423-.36368.68974,1.53408,3.5096,1.53408,3.5096a41.08106,41.08106,0,0,0-4.22287-.12715c-2.28774.12092-3.66859.71466-5.28367.5372a2.93582,2.93582,0,0,1-2.8644-2.83579c.08492-.67243-2.51826,1.17364-2.44,1.94483.06092.6002.92073,1.64761,3.05131,3.0347-3.70805,2.16359-2.78017,4.791-5.97409,4.91538-.94034.03669-3.44314-.68489-3.712-2.04405-.16107-.8155-1.90468,2.23258-.86742,3.76343.5432.80188,1.12494.72112,3.77866.89419a8.97612,8.97612,0,0,0-1.24032,4.87476,3.1121,3.1121,0,0,1-1.84607,3.14408,3.80671,3.80671,0,0,1-4.41325-.40383c-.37452-.37267-.7315,2.39665-.40383,3.23061.31729.80765.783,1.25163,2.10059,1.21263,1.99537-.05884,3.12031-.46267,3.09147-.08769a37.79074,37.79074,0,0,0,.05769,5.65357c.21922,3.13393-3.17362,4.55124-5.49573,3.32522-.59282-.31291-.04315,3.66236,1.05364,3.77059,2.048.20191,3.95173-1.673,4.03826-1.12495.50813,3.21954,1.21656,3.55621,1.41339,5.10552a3.49668,3.49668,0,0,1-4.32671,4.03827c-.86534-.375.2596,3.54791,2.07682,2.82679.63482-.252,1.49993-1.03841,2.33642-1.03841,1.32778,0,2.13613.46406,2.68256,2.1922a12.19256,12.19256,0,0,1,.13292,4.719,10.27464,10.27464,0,0,1-1.08295,3.59544A3.4173,3.4173,0,0,1,42.04,72.67738c-1.22325.31129,1.98521,1.76668,3.56752.84065,1.27655-.74742,2.22358-5.5945,2.48988-6.25908a3.45528,3.45528,0,0,1,3.21007-2.51757,3.30083,3.30083,0,0,1,3.31484,2.51156,6.03362,6.03362,0,0,1-.07361,2.74164c-.14745.6729-.83442,3.14431-.91726,3.54237-.89142,4.28172,3.81328,4.43956,3.31253,3.90512-.72458-.77327-.623-3.32592-.03877-6.02348a17.62342,17.62342,0,0,1,1.15633-3.66074,3.03834,3.03834,0,0,1,2.557-1.67254c3.69559,0,4.26118,2.95117,4.243,4.64239-.00762.716-.19361,3.71082-.19361,4.2898-.00115,5.04691,6.40123,3.75143,5.31205,3.26015-1.24886-.56329-2.02859-2.54665-2.39711-6.23255-.30576-3.05662.50444-6.101.75019-6.17578,2.57088-.78273,5.19044-.85519,6.77575,2.30966.39875.79634.75274,2.18389,1.26086,2.60526,1.0488.8695,3.18493-.02908,3.6776-1.42585-2.3242-.8748-2.42712-4.234-1.32894-6.46954a16.87217,16.87217,0,0,0,1.2394-3.98357c.36714.4059,2.5591,2.05351,3.661,1.6903.82127-.27068,1.68153-3.78651.82288-3.30561-1.84607,1.034-4.06872-1.29525-4.90015-2.38742a7.10324,7.10324,0,0,1-1.51746-4.17533c-.09438-1.62684-.24368-3.65567-2.02513-5.09976ZM83.27966,41.304h-8.547V34.66045s6.74805.02977,8.78265-.21368a8.183,8.183,0,0,1,2.27943.07546c.13084.02192.46636-.04131.47652-.2506a29.02644,29.02644,0,0,0,.11745-3.83289,5.953,5.953,0,0,0,1.52554-4.06826,30.12734,30.12734,0,0,0-6.47391-1.79853c-.65051-.07569-2.89717-.24576-3.4376-.32975a4.39763,4.39763,0,0,1-2.01659-.83765c-.38883-.29514-1.62546-1.94183-2.26766-2.08351a34.05465,34.05465,0,0,0-11.71351-.27922A2.93882,2.93882,0,0,0,59.88449,22.985a26.61927,26.61927,0,0,0-3.80428.16291c-.992.20837-1.36262.27252-1.3887.95164-.04523,1.18287,2.90294,3.04393,2.90294,3.04393a46.31892,46.31892,0,0,1-1.71268,6.49076c-.23745.65512-.2476,1.19994.32352,2.51988.79289,1.83291,2.71925,2.83486,5.322,3.24446,1.90514.3,4.31471,3.316,5.49389,3.78951.719.28891,5.24928.24668,6.99982.17745a69.24278,69.24278,0,0,0,8.29829-.67773c.37775-.08538.75942-.90873.96041-1.38386ZM39.34795,122.421a12.82048,12.82048,0,0,1-3.45445,8.851c-1.30263,1.5057-2.446,2.72018-3.29845,3.79043-1.56823,1.96951-1.68269,2.35,1.37208,4.56878,8.25306,5.9951,11.71143,11.06485,13.58219,14.80936,1.24079,2.48342,1.55508,3.90488,2.07059,3.85919a21.12852,21.12852,0,0,0,3.21054-.473,9.707,9.707,0,0,0,1.54492-.4906c-1.9416-4.09087-4.67562-9.32308-14.30077-16.08775-5.283-3.71312-2.70725-6.14371.98118-10.13882,2.86832-3.10647.915-6.1114-1.70784-8.6885ZM72.24643,85.0197a6.65518,6.65518,0,0,1-6.33893-4.28287c-1.85321-.69458-3.40553-2.3625-3.71289-5.475-.28776-2.91309,1.40093-6.69129-1.57608-6.69129-.486,0-1.04372,2.264-1.2844,3.37415-1.50985,6.97028,1.85253,5.15582.58382,6.63406-2.15989,2.51642-9.57346,1.973-8.75634-5.31851.23329-2.083,2.27666-6.03363.14584-6.03363-1.51562,0-1.32524,5.6605-4.00434,7.99323-.17837,7.387-4.90684,17.10425-8.596,21.35781-6.29277,7.25572-7.1355,14.76459-2.09551,19.80434.744.744,1.763,1.57862,2.8,2.49126a27.811,27.811,0,0,1,3.3963,3.43045c2.11951,2.66365,3.72328,6.71022.09415,10.64118-.87319.94564-1.63146,1.84076-2.32489,2.599-1.63307,1.78607-.5199,2.43127.90457,3.427,5.95956,4.16542,9.47815,7.8827,11.821,11.20653a34.95469,34.95469,0,0,1,2.70171,4.55171c.64728,1.28809,1.16695,2.4721,1.72007,3.56128.36506.71928,3.50983,1.84168,5.73641.01109a7.68449,7.68449,0,0,0-1.40923-4.37426,1.37427,1.37427,0,0,1,2.26027-1.56384,10.48012,10.48012,0,0,1,1.86914,6.56853c2.51872.87434,4.54386.78782,6.27893-.22268a7.81521,7.81521,0,0,0-1.30932-5.57,1.37422,1.37422,0,0,1,2.18781-1.66354,10.469,10.469,0,0,1,1.95222,6.19608,2.36326,2.36326,0,0,0,2.21666-2.281,7.37667,7.37667,0,0,0-1.17641-4.99915,6.12555,6.12555,0,0,0-5.12052-2.43911c-2.9387,0-16.39536-7.98838-16.39536-13.27413a4.23346,4.23346,0,0,1,1.56062-3.10369,14.16741,14.16741,0,0,1,2.12413-1.49115c1.38755-.83258,3.23846-1.79623,5.08821-2.99871,3.64344-2.36827,6.27224-5.05915,6.27224-8.75934,0-3.22577-.97126-7.65863-7.55433-8.25583-1.41178-.12807-6.21477-.59651-9.27347.96342-1.63238.83258-3.08316-1.18587-1.58738-2.24412,0,0,1.70507-1.24171,5.98655-1.65592.04731-8.05,7.92262-15.70493,11.54944-18.46687a13.86073,13.86073,0,0,0,3.26523-3.64644Zm-2.79448-3.99627a4.5374,4.5374,0,0,0,3.39814,1.2634c3.35545,0,6.73121-3.25784,10.39842-8.7958,1.75584-2.65188,3.37045-5.481,4.88584-7.99877a39.77826,39.77826,0,0,1,4.71023-6.69936l.82565-.861c2.959.36483,7.54394-1.72792,7.54394-1.72792l1.20341.831a5.11385,5.11385,0,0,0,3.51721.76289,1.36464,1.36464,0,0,0,1.28463-1.27956,3.05917,3.05917,0,0,0-1.79183-2.82655,1.30834,1.30834,0,1,1,1.12887-2.36065,6.609,6.609,0,0,1,3.02224,3.16669c1.30424.12345,1.42793-.57828,1.51054-1.39263.159-1.56731-.78411-4.33179-4.96845-4.36063a1.30835,1.30835,0,1,1-.18876-2.60988,7.89334,7.89334,0,0,1,3.03608.43429c.21322-1.24009-.25038-1.82576-.7622-2.02329-1.50638-.58151-5.62426-.60828-15.353,3.685-2.19243.96757-6.81774,3.76828-11.2333,5.45835.97541,1.163,2.51249,1.82761,3.967.62766,2.36666-1.95244,1.889,8.05438-1.77914,8.58881a3.46882,3.46882,0,0,1-2.43911-.6392,7.78789,7.78789,0,0,1-.52475,1.90976c-.81965,1.58231-.48067,3.48121,2.08075,3.34022.03438,3.08639-2.72318,7.405-7.18812,5.76849-3.14731-1.15333-1.85044-5.93187-5.38474-5.35474a9.98336,9.98336,0,0,0-.29145,3.9155c.524,6.503,3.11246,5.02291,3.25553,5.74772.3136,1.59223-1.56292,3.02986-3.86358,3.43022ZM16.03354,56.15948c.93088,2.39919,1.53223,3.14685,5.94548,2.97378a29.29283,29.29283,0,0,1,1.34186,7.32426,22.13487,22.13487,0,0,1-3.32776,13.11675c-.68558,1.12956-1.75261,2.73056-2.87271,4.53209a52.56964,52.56964,0,0,0-3.02824,5.44035c-4.56116,9.83744-1.394,21.58256,9.34362,24.98717a23.23085,23.23085,0,0,0,8.91211.527,12.875,12.875,0,0,1-1.23271-3.19854c-7.92446.83581-13.73126-2.83417-15.82308-8.55212-1.55554-4.25287-.7495-8.5655.75135-12.33724A57.7626,57.7626,0,0,1,21.7598,80.79475c4.60639-6.958,4.03088-15.0925,2.44026-22.03647C25.733,57.943,27.3153,57.316,27.31069,54.519a7.25067,7.25067,0,0,0-2.246-5.68657c-4.11765-3.8615-10.607-1.40416-12.87976.31383a7.98124,7.98124,0,0,1,2.522,3.33076c.5049,1.14548.85634,2.45,1.32663,3.68244Z" fill="#1a171b"/></g></g></g></svg>