<?xml version="1.0" encoding="UTF-8" standalone="no"?>
<!-- Created with Inkscape (http://www.inkscape.org/) -->

<svg
   xmlns:dc="http://purl.org/dc/elements/1.1/"
   xmlns:cc="http://creativecommons.org/ns#"
   xmlns:rdf="http://www.w3.org/1999/02/22-rdf-syntax-ns#"
   xmlns:svg="http://www.w3.org/2000/svg"
   xmlns="http://www.w3.org/2000/svg"
   xmlns:sodipodi="http://sodipodi.sourceforge.net/DTD/sodipodi-0.dtd"
   xmlns:inkscape="http://www.inkscape.org/namespaces/inkscape"
   width="300"
   height="355.09259"
   id="svg2"
   version="1.1"
   inkscape:version="0.48.2 r9819"
   sodipodi:docname="Chesterfield FC.svg">
  <defs
     id="defs4">
    <inkscape:perspective
       sodipodi:type="inkscape:persp3d"
       inkscape:vp_x="0 : 526.18109 : 1"
       inkscape:vp_y="0 : 1000 : 0"
       inkscape:vp_z="744.09448 : 526.18109 : 1"
       inkscape:persp3d-origin="372.04724 : 350.78739 : 1"
       id="perspective10" />
    <inkscape:perspective
       id="perspective2824"
       inkscape:persp3d-origin="0.5 : 0.33333333 : 1"
       inkscape:vp_z="1 : 0.5 : 1"
       inkscape:vp_y="0 : 1000 : 0"
       inkscape:vp_x="0 : 0.5 : 1"
       sodipodi:type="inkscape:persp3d" />
    <inkscape:perspective
       id="perspective2846"
       inkscape:persp3d-origin="0.5 : 0.33333333 : 1"
       inkscape:vp_z="1 : 0.5 : 1"
       inkscape:vp_y="0 : 1000 : 0"
       inkscape:vp_x="0 : 0.5 : 1"
       sodipodi:type="inkscape:persp3d" />
    <inkscape:perspective
       id="perspective2862"
       inkscape:persp3d-origin="0.5 : 0.33333333 : 1"
       inkscape:vp_z="1 : 0.5 : 1"
       inkscape:vp_y="0 : 1000 : 0"
       inkscape:vp_x="0 : 0.5 : 1"
       sodipodi:type="inkscape:persp3d" />
    <clipPath
       id="clipPath4847"
       clipPathUnits="userSpaceOnUse">
      <path
         id="path4849"
         clip-rule="evenodd"
         d="m 339.2,513.9 64.4,0 0,72.1 -64.4,0 0,-72.1 z"
         inkscape:connector-curvature="0" />
    </clipPath>
    <clipPath
       id="clipPath4835"
       clipPathUnits="userSpaceOnUse">
      <path
         id="path4837"
         clip-rule="evenodd"
         d="m 6.2,522.9 108,0 0,63.1 -108,0 0,-63.1 z"
         inkscape:connector-curvature="0" />
    </clipPath>
    <clipPath
       id="clipPath4703"
       clipPathUnits="userSpaceOnUse">
      <path
         id="path4705"
         clip-rule="evenodd"
         d="m 0,-0.3 419.6,0 0,595.3 L 0,595 0,-0.3 z"
         inkscape:connector-curvature="0" />
    </clipPath>
    <clipPath
       id="clipPath4613"
       clipPathUnits="userSpaceOnUse">
      <path
         id="path4615"
         clip-rule="evenodd"
         d="m 33.2,331.7 352.9,0 0,2.6 -352.9,0 0,-2.6 z"
         inkscape:connector-curvature="0" />
    </clipPath>
    <clipPath
       id="clipPath4555"
       clipPathUnits="userSpaceOnUse">
      <path
         id="path4557"
         clip-rule="evenodd"
         d="m 0,-0.3 419.6,0 0,595.3 L 0,595 0,-0.3 z"
         inkscape:connector-curvature="0" />
    </clipPath>
  </defs>
  <sodipodi:namedview
     id="base"
     pagecolor="#ffffff"
     bordercolor="#666666"
     borderopacity="1.0"
     inkscape:pageopacity="0.0"
     inkscape:pageshadow="2"
     inkscape:zoom="2.4608823"
     inkscape:cx="211.63415"
     inkscape:cy="236.20766"
     inkscape:document-units="px"
     inkscape:current-layer="layer1"
     showgrid="false"
     showguides="true"
     inkscape:guide-bbox="true"
     inkscape:window-width="1920"
     inkscape:window-height="1028"
     inkscape:window-x="-8"
     inkscape:window-y="-8"
     inkscape:window-maximized="1"
     fit-margin-left="0.1"
     fit-margin-bottom="0.1"
     fit-margin-top="0.1"
     fit-margin-right="0.1">
    <inkscape:grid
       type="xygrid"
       id="grid2852"
       empspacing="5"
       visible="true"
       enabled="true"
       snapvisiblegridlinesonly="true" />
  </sodipodi:namedview>
  <metadata
     id="metadata7">
    <rdf:RDF>
      <cc:Work
         rdf:about="">
        <dc:format>image/svg+xml</dc:format>
        <dc:type
           rdf:resource="http://purl.org/dc/dcmitype/StillImage" />
        <dc:title></dc:title>
      </cc:Work>
    </rdf:RDF>
  </metadata>
  <g
     inkscape:label="Layer 1"
     inkscape:groupmode="layer"
     id="layer1"
     transform="translate(-1712.8278,-1397.416)">
    <g
       id="g5572"
       transform="matrix(0.26743979,0,0,0.26743979,1254.8227,1030.4917)">
      <path
         style="fill:#004890;fill-opacity:1;stroke:none"
         d="m 1769.9278,1480.3622 c 133.5033,-65.6142 324.5335,-108 512,-108 198.3234,0 368.8154,50.8342 501,114 33.3817,126.3276 51,242.1332 51,378 0,454.0177 -314.8354,723.3355 -557,835 -309.0922,-141.2667 -564,-435.6755 -564,-848 0,-141.7468 22.6174,-264.7331 57,-371 z"
         id="path4427"
         inkscape:connector-curvature="0"
         sodipodi:nodetypes="ccccccc" />
      <path
         style="fill:#ffffff;stroke:none"
         d="m 1789.0714,1499.3659 c 72.5272,-36.0069 251.3134,-103.9326 490.6991,-103.9326 215.8013,0 387.4797,64.7016 479.5256,110.1124 36.2633,137.3263 48.814,242.2028 48.814,358.8015 0,469.3965 -341.5307,715.1575 -534.2697,802.4969 -194.5008,-83.4224 -539.5606,-335.609 -539.5606,-816.0957 -0.6511,-128.7943 23.9072,-261.484 54.7916,-351.3825 z"
         id="path4429"
         inkscape:connector-curvature="0"
         sodipodi:nodetypes="ccccccc" />
      <path
         style="fill:#004890;fill-opacity:1;stroke:none"
         d="m 2273.4868,2640.9185 c -232.3952,-106.0045 -518.0052,-358.5317 -518.0052,-783.9668 0,-141.4808 28.5308,-263.7553 53.0283,-337.2331 107.9116,-50.7555 274.7185,-99.2755 471.3792,-99.2755 165.1915,0 335.7956,45.5953 460.0293,105.597 21.8607,92.2311 46.5489,204.041 46.5489,338.7723 0,467.9689 -337.3883,694.406 -512.9805,776.1061 z"
         id="path4431"
         inkscape:connector-curvature="0"
         sodipodi:nodetypes="ccccccc" />
      <path
         style="font-size:40px;font-style:normal;font-weight:normal;line-height:125%;letter-spacing:0px;word-spacing:0px;fill:none;stroke:#ffffff;stroke-width:14.99999905;stroke-linecap:butt;stroke-linejoin:miter;stroke-miterlimit:4;stroke-opacity:1;stroke-dasharray:none;font-family:Sans"
         d="m 1951.03,1515.8397 17.2403,62.3526"
         id="path4451"
         inkscape:connector-curvature="0"
         sodipodi:nodetypes="cc" />
      <path
         style="font-size:40px;font-style:normal;font-weight:normal;line-height:125%;letter-spacing:0px;word-spacing:0px;fill:none;stroke:#ffffff;stroke-width:13;stroke-linecap:butt;stroke-linejoin:miter;stroke-miterlimit:4;stroke-opacity:1;stroke-dasharray:none;font-family:Sans"
         d="m 1998.5845,1535.5221 -38.3597,10.919"
         id="path4453"
         inkscape:connector-curvature="0"
         sodipodi:nodetypes="cc" />
      <path
         sodipodi:nodetypes="cc"
         inkscape:connector-curvature="0"
         id="path4455"
         d="m 1990.539,1504.6334 17.2404,62.3527"
         style="font-size:40px;font-style:normal;font-weight:normal;line-height:125%;letter-spacing:0px;word-spacing:0px;fill:none;stroke:#ffffff;stroke-width:14.99999905;stroke-linecap:butt;stroke-linejoin:miter;stroke-miterlimit:4;stroke-opacity:1;stroke-dasharray:none;font-family:Sans" />
      <g
         style="stroke:#ffffff"
         transform="translate(1553.9278,0)"
         id="g4457">
        <path
           sodipodi:nodetypes="cc"
           inkscape:connector-curvature="0"
           id="path4459"
           d="m 466.22373,1497.0417 15.19571,62.8819"
           style="font-size:40px;font-style:normal;font-weight:normal;line-height:125%;letter-spacing:0px;word-spacing:0px;fill:#ffff00;fill-opacity:1;stroke:#ffffff;stroke-width:14.99999905;stroke-linecap:butt;stroke-linejoin:miter;stroke-miterlimit:4;stroke-opacity:1;stroke-dasharray:none;font-family:Sans" />
        <path
           style="font-size:40px;font-style:normal;font-weight:normal;line-height:125%;letter-spacing:0px;word-spacing:0px;fill:#ffff00;fill-opacity:1;stroke:#ffffff;stroke-width:13;stroke-linecap:butt;stroke-linejoin:miter;stroke-miterlimit:4;stroke-opacity:1;stroke-dasharray:none;font-family:Sans"
           d="m 498.13944,1496.1059 -27.31823,6.516"
           id="path4461"
           inkscape:connector-curvature="0"
           sodipodi:nodetypes="cc" />
        <path
           sodipodi:nodetypes="cc"
           inkscape:connector-curvature="0"
           id="path4463"
           d="m 510.2478,1546.5304 -27.19305,6.2881"
           style="font-size:40px;font-style:normal;font-weight:normal;line-height:125%;letter-spacing:0px;word-spacing:0px;fill:#ffff00;fill-opacity:1;stroke:#ffffff;stroke-width:13;stroke-linecap:butt;stroke-linejoin:miter;stroke-miterlimit:4;stroke-opacity:1;stroke-dasharray:none;font-family:Sans" />
        <path
           sodipodi:nodetypes="cc"
           inkscape:connector-curvature="0"
           id="path4465"
           d="m 503.62526,1519.9794 -27.31823,6.516"
           style="font-size:40px;font-style:normal;font-weight:normal;line-height:125%;letter-spacing:0px;word-spacing:0px;fill:#ffff00;fill-opacity:1;stroke:#ffffff;stroke-width:13;stroke-linecap:butt;stroke-linejoin:miter;stroke-miterlimit:4;stroke-opacity:1;stroke-dasharray:none;font-family:Sans" />
      </g>
      <path
         style="fill:#ffffff;stroke:none"
         d="m 2060.4535,2462.324 c -196.3742,-172.8786 -269.314,-385.969 -269.314,-589.3212 0,-73.8841 9.7676,-154.6459 18.8957,-197.3885 86.7359,-34.8559 274.2149,-104.3184 458.4322,-104.3184 51.0776,0 110.1226,6.3215 110.1226,6.3215 5.6672,31.7381 14.9927,103.2681 14.6543,168.9552 0,309.2899 -174.1594,536.9353 -332.7908,715.7514 z"
         id="path4467"
         inkscape:connector-curvature="0"
         sodipodi:nodetypes="ccccccc" />
      <path
         style="fill:#ffffff;stroke:none"
         d="m 2554.8004,2392.3664 c 109.5,-127.5784 195.7495,-271.7078 195.7495,-513.7617 0,-70.7537 -8.4433,-151.236 -19.97,-212.1997 -107.7547,-43.9813 -232.5636,-74.9158 -346.8897,-87.9256 65.0289,116.7689 137.2153,304.9753 152.9361,501.9808 6.2612,102.5465 12.5198,198.5516 18.1741,311.9062 z"
         id="path4469"
         inkscape:connector-curvature="0"
         sodipodi:nodetypes="cccccc" />
      <g
         style="stroke:#ffffff"
         id="g4471"
         transform="matrix(0.99055156,0.13714083,-0.13714083,0.99055156,1919.5527,-79.04876)">
        <path
           style="font-size:40px;font-style:normal;font-weight:normal;line-height:125%;letter-spacing:0px;word-spacing:0px;fill:#ffff00;fill-opacity:1;stroke:#ffffff;stroke-width:14.99999905;stroke-linecap:butt;stroke-linejoin:miter;stroke-miterlimit:4;stroke-opacity:1;stroke-dasharray:none;font-family:Sans"
           d="m 466.22373,1497.0417 15.19571,62.8819"
           id="path4473"
           inkscape:connector-curvature="0"
           sodipodi:nodetypes="cc" />
        <path
           sodipodi:nodetypes="cc"
           inkscape:connector-curvature="0"
           id="path4475"
           d="m 498.13944,1496.1059 -27.31823,6.516"
           style="font-size:40px;font-style:normal;font-weight:normal;line-height:125%;letter-spacing:0px;word-spacing:0px;fill:#ffff00;fill-opacity:1;stroke:#ffffff;stroke-width:13;stroke-linecap:butt;stroke-linejoin:miter;stroke-miterlimit:4;stroke-opacity:1;stroke-dasharray:none;font-family:Sans" />
        <path
           style="font-size:40px;font-style:normal;font-weight:normal;line-height:125%;letter-spacing:0px;word-spacing:0px;fill:#ffff00;fill-opacity:1;stroke:#ffffff;stroke-width:13;stroke-linecap:butt;stroke-linejoin:miter;stroke-miterlimit:4;stroke-opacity:1;stroke-dasharray:none;font-family:Sans"
           d="m 510.2478,1546.5304 -27.19305,6.2881"
           id="path4477"
           inkscape:connector-curvature="0"
           sodipodi:nodetypes="cc" />
        <path
           style="font-size:40px;font-style:normal;font-weight:normal;line-height:125%;letter-spacing:0px;word-spacing:0px;fill:#ffff00;fill-opacity:1;stroke:#ffffff;stroke-width:13;stroke-linecap:butt;stroke-linejoin:miter;stroke-miterlimit:4;stroke-opacity:1;stroke-dasharray:none;font-family:Sans"
           d="m 503.62526,1519.9794 -27.31823,6.516"
           id="path4479"
           inkscape:connector-curvature="0"
           sodipodi:nodetypes="cc" />
      </g>
      <path
         style="font-size:40px;font-style:normal;font-weight:normal;line-height:125%;letter-spacing:0px;word-spacing:0px;fill:none;stroke:#ffffff;stroke-width:14.99999905;stroke-linecap:butt;stroke-linejoin:miter;stroke-miterlimit:4;stroke-opacity:1;stroke-dasharray:none;font-family:Sans"
         d="m 2134.8302,1477.1079 9.4516,60.7168"
         id="path4481"
         inkscape:connector-curvature="0"
         sodipodi:nodetypes="cc" />
      <path
         sodipodi:nodetypes="cc"
         inkscape:connector-curvature="0"
         id="path4483"
         d="m 2158.1593,1476.7191 -45.5277,6.9223"
         style="font-size:40px;font-style:normal;font-weight:normal;line-height:125%;letter-spacing:0px;word-spacing:0px;fill:none;stroke:#ffffff;stroke-width:13;stroke-linecap:butt;stroke-linejoin:miter;stroke-miterlimit:4;stroke-opacity:1;stroke-dasharray:none;font-family:Sans" />
      <g
         style="stroke:#ffffff"
         transform="matrix(0.94209918,0.33533436,-0.33533436,0.94209918,2434.6521,-97.611051)"
         id="g4485">
        <path
           sodipodi:nodetypes="cc"
           inkscape:connector-curvature="0"
           id="path4487"
           d="m 466.22373,1497.0417 15.19571,62.8819"
           style="font-size:40px;font-style:normal;font-weight:normal;line-height:125%;letter-spacing:0px;word-spacing:0px;fill:#ffff00;fill-opacity:1;stroke:#ffffff;stroke-width:14.99999905;stroke-linecap:butt;stroke-linejoin:miter;stroke-miterlimit:4;stroke-opacity:1;stroke-dasharray:none;font-family:Sans" />
        <path
           style="font-size:40px;font-style:normal;font-weight:normal;line-height:125%;letter-spacing:0px;word-spacing:0px;fill:#ffff00;fill-opacity:1;stroke:#ffffff;stroke-width:13;stroke-linecap:butt;stroke-linejoin:miter;stroke-miterlimit:4;stroke-opacity:1;stroke-dasharray:none;font-family:Sans"
           d="m 498.13944,1496.1059 -27.31823,6.516"
           id="path4489"
           inkscape:connector-curvature="0"
           sodipodi:nodetypes="cc" />
        <path
           sodipodi:nodetypes="cc"
           inkscape:connector-curvature="0"
           id="path4491"
           d="m 510.2478,1546.5304 -27.19305,6.2881"
           style="font-size:40px;font-style:normal;font-weight:normal;line-height:125%;letter-spacing:0px;word-spacing:0px;fill:#ffff00;fill-opacity:1;stroke:#ffffff;stroke-width:13;stroke-linecap:butt;stroke-linejoin:miter;stroke-miterlimit:4;stroke-opacity:1;stroke-dasharray:none;font-family:Sans" />
        <path
           sodipodi:nodetypes="cc"
           inkscape:connector-curvature="0"
           id="path4493"
           d="m 503.62526,1519.9794 -27.31823,6.516"
           style="font-size:40px;font-style:normal;font-weight:normal;line-height:125%;letter-spacing:0px;word-spacing:0px;fill:#ffff00;fill-opacity:1;stroke:#ffffff;stroke-width:13;stroke-linecap:butt;stroke-linejoin:miter;stroke-miterlimit:4;stroke-opacity:1;stroke-dasharray:none;font-family:Sans" />
      </g>
      <g
         style="stroke:#ffffff"
         id="g4495"
         transform="matrix(0.96356961,0.26745767,-0.26745767,0.96356961,2241.5483,-103.72999)">
        <path
           style="font-size:40px;font-style:normal;font-weight:normal;line-height:125%;letter-spacing:0px;word-spacing:0px;fill:#ffff00;fill-opacity:1;stroke:#ffffff;stroke-width:14.99999905;stroke-linecap:butt;stroke-linejoin:miter;stroke-miterlimit:4;stroke-opacity:1;stroke-dasharray:none;font-family:Sans"
           d="m 466.22373,1497.0417 15.19571,62.8819"
           id="path4497"
           inkscape:connector-curvature="0"
           sodipodi:nodetypes="cc" />
        <path
           sodipodi:nodetypes="cc"
           inkscape:connector-curvature="0"
           id="path4499"
           d="m 498.13944,1496.1059 -27.31823,6.516"
           style="font-size:40px;font-style:normal;font-weight:normal;line-height:125%;letter-spacing:0px;word-spacing:0px;fill:#ffff00;fill-opacity:1;stroke:#ffffff;stroke-width:13;stroke-linecap:butt;stroke-linejoin:miter;stroke-miterlimit:4;stroke-opacity:1;stroke-dasharray:none;font-family:Sans" />
        <path
           style="font-size:40px;font-style:normal;font-weight:normal;line-height:125%;letter-spacing:0px;word-spacing:0px;fill:#ffff00;fill-opacity:1;stroke:#ffffff;stroke-width:13;stroke-linecap:butt;stroke-linejoin:miter;stroke-miterlimit:4;stroke-opacity:1;stroke-dasharray:none;font-family:Sans"
           d="m 503.62526,1519.9794 -27.31823,6.516"
           id="path4501"
           inkscape:connector-curvature="0"
           sodipodi:nodetypes="cc" />
      </g>
      <path
         style="font-size:40px;font-style:normal;font-weight:normal;line-height:125%;letter-spacing:0px;word-spacing:0px;fill:none;stroke:#ffffff;stroke-width:14.99999905;stroke-linecap:butt;stroke-linejoin:miter;stroke-miterlimit:4;stroke-opacity:1;stroke-dasharray:none;font-family:Sans"
         d="m 2341.3014,1466.2792 -5.0565,64.4945"
         id="path4503"
         inkscape:connector-curvature="0"
         sodipodi:nodetypes="cc" />
      <g
         style="stroke:#ffffff"
         id="g4505"
         transform="matrix(0.92869459,0.37084545,-0.37084545,0.92869459,2547.1523,-87.283593)">
        <path
           style="font-size:40px;font-style:normal;font-weight:normal;line-height:125%;letter-spacing:0px;word-spacing:0px;fill:#ffff00;fill-opacity:1;stroke:#ffffff;stroke-width:14.99999905;stroke-linecap:butt;stroke-linejoin:miter;stroke-miterlimit:4;stroke-opacity:1;stroke-dasharray:none;font-family:Sans"
           d="m 466.22373,1497.0417 15.19571,62.8819"
           id="path4507"
           inkscape:connector-curvature="0"
           sodipodi:nodetypes="cc" />
        <path
           style="font-size:40px;font-style:normal;font-weight:normal;line-height:125%;letter-spacing:0px;word-spacing:0px;fill:#ffff00;fill-opacity:1;stroke:#ffffff;stroke-width:13;stroke-linecap:butt;stroke-linejoin:miter;stroke-miterlimit:4;stroke-opacity:1;stroke-dasharray:none;font-family:Sans"
           d="m 508.35344,1546.8228 -25.29869,5.9957"
           id="path4509"
           inkscape:connector-curvature="0"
           sodipodi:nodetypes="cc" />
      </g>
      <g
         style="stroke:#ffffff"
         transform="matrix(0.88320229,0.46899224,-0.46899224,0.88320229,2858.7506,-35.95599)"
         id="g4511">
        <path
           sodipodi:nodetypes="cc"
           inkscape:connector-curvature="0"
           id="path4513"
           d="m 466.22373,1497.0417 15.19571,62.8819"
           style="font-size:40px;font-style:normal;font-weight:normal;line-height:125%;letter-spacing:0px;word-spacing:0px;fill:#ffff00;fill-opacity:1;stroke:#ffffff;stroke-width:14.99999905;stroke-linecap:butt;stroke-linejoin:miter;stroke-miterlimit:4;stroke-opacity:1;stroke-dasharray:none;font-family:Sans" />
        <path
           style="font-size:40px;font-style:normal;font-weight:normal;line-height:125%;letter-spacing:0px;word-spacing:0px;fill:#ffff00;fill-opacity:1;stroke:#ffffff;stroke-width:13;stroke-linecap:butt;stroke-linejoin:miter;stroke-miterlimit:4;stroke-opacity:1;stroke-dasharray:none;font-family:Sans"
           d="m 498.13944,1496.1059 -27.31823,6.516"
           id="path4515"
           inkscape:connector-curvature="0"
           sodipodi:nodetypes="cc" />
        <path
           sodipodi:nodetypes="cc"
           inkscape:connector-curvature="0"
           id="path4517"
           d="m 503.62526,1519.9794 -27.31823,6.516"
           style="font-size:40px;font-style:normal;font-weight:normal;line-height:125%;letter-spacing:0px;word-spacing:0px;fill:#ffff00;fill-opacity:1;stroke:#ffffff;stroke-width:13;stroke-linecap:butt;stroke-linejoin:miter;stroke-miterlimit:4;stroke-opacity:1;stroke-dasharray:none;font-family:Sans" />
      </g>
      <path
         style="font-size:medium;font-style:normal;font-variant:normal;font-weight:normal;font-stretch:normal;text-indent:0;text-align:start;text-decoration:none;line-height:normal;letter-spacing:normal;word-spacing:normal;text-transform:none;direction:ltr;block-progression:tb;writing-mode:lr-tb;text-anchor:start;baseline-shift:baseline;color:#000000;fill:#ffffff;fill-opacity:1;stroke:none;stroke-width:12;marker:none;visibility:visible;display:inline;overflow:visible;enable-background:accumulate;font-family:Sans;-inkscape-font-specification:Sans"
         d="m 2089.5216,1480.5312 c -8.8405,0 -24.5938,4.01 -24.5938,21.1563 0.049,8.3303 5.3406,12.4246 12.5782,15.6852 8.6598,3.667 21.9605,3.7837 21.9605,12.026 0,5.2115 -6.6566,7.0621 -10.6012,7.0621 -5.6511,-0.044 -10.9299,-4.6487 -10.9299,-4.6487 l -6.8277,10.5474 c 0,0 3.6214,6.4002 17.2847,6.6913 13.1143,0 24.9026,-7.4057 24.9026,-20.7696 0,-26.0032 -33.7259,-15.6299 -33.7259,-28.1683 0,-6.8317 6.3353,-7.3785 8.9873,-7.3785 4.4612,0 7.9808,3.7736 7.9808,3.7736 l 7.453,-9.7894 c 0,0 -6.0573,-6.1874 -14.4687,-6.1874 z"
         id="path4519"
         inkscape:connector-curvature="0"
         sodipodi:nodetypes="ccccccccccccccc" />
      <g
         transform="matrix(0.97586483,0.21837544,-0.21837544,0.97586483,2104.3382,-99.219108)"
         id="g4521">
        <path
           sodipodi:nodetypes="cc"
           inkscape:connector-curvature="0"
           id="path4523"
           d="m 466.22373,1497.0417 15.19571,62.8819"
           style="font-size:40px;font-style:normal;font-weight:normal;line-height:125%;letter-spacing:0px;word-spacing:0px;fill:none;stroke:#ffffff;stroke-width:14.99999905;stroke-linecap:butt;stroke-linejoin:miter;stroke-miterlimit:4;stroke-opacity:1;stroke-dasharray:none;font-family:Sans" />
        <path
           style="font-size:40px;font-style:normal;font-variant:normal;font-weight:normal;font-stretch:normal;text-indent:0;text-align:start;text-decoration:none;line-height:125%;letter-spacing:0px;word-spacing:0px;text-transform:none;direction:ltr;block-progression:tb;writing-mode:lr-tb;text-anchor:start;baseline-shift:baseline;color:#000000;fill:#ffffff;fill-opacity:1;stroke:none;stroke-width:11;marker:none;visibility:visible;display:inline;overflow:visible;enable-background:accumulate;font-family:Sans;-inkscape-font-specification:Sans"
           d="m 490.03125,1492.75 c -3.21782,-0.175 -6.91962,0.2567 -11.21875,1.2188 l -0.0625,0.031 -0.0625,0 -5.375,1.3438 2.75037,11.108 5.82698,-1.2973 c 4.80366,-1.075 8.39584,-0.2115 9.81591,6.1344 1.36917,5.6302 -2.87555,7.9556 -6.57262,8.7829 l -11.75814,2.8035 2.40625,10.75 c 5.21682,-1.1674 12.74706,-2.5376 19.28125,-6.0312 3.2671,-1.7469 6.43082,-4.1279 8.53125,-7.6563 2.10043,-3.5284 2.79705,-8.1335 1.75,-12.8125 -0.85614,-3.8259 -2.2713,-8.8232 -7,-11.875 -2.36435,-1.5259 -5.09468,-2.325 -8.3125,-2.5 z"
           id="path4525"
           inkscape:connector-curvature="0"
           sodipodi:nodetypes="ccccccccccccssscc" />
      </g>
      <path
         style="fill:#ffffff;stroke:none"
         d="m 2240.0927,1500.2515 16.1628,27.2253 17.5277,-0.5028 -19.2517,-29.8114 z"
         id="path4527"
         inkscape:connector-curvature="0"
         sodipodi:nodetypes="ccccc" />
      <path
         sodipodi:nodetypes="cc"
         inkscape:connector-curvature="0"
         id="path4529"
         d="m 2471.8954,1483.3142 -12.5243,63.4685"
         style="font-size:40px;font-style:normal;font-weight:normal;line-height:125%;letter-spacing:0px;word-spacing:0px;fill:none;stroke:#ffffff;stroke-width:14.99999905;stroke-linecap:butt;stroke-linejoin:miter;stroke-miterlimit:4;stroke-opacity:1;stroke-dasharray:none;font-family:Sans" />
      <path
         style="font-size:medium;font-style:normal;font-variant:normal;font-weight:normal;font-stretch:normal;text-indent:0;text-align:start;text-decoration:none;line-height:normal;letter-spacing:normal;word-spacing:normal;text-transform:none;direction:ltr;block-progression:tb;writing-mode:lr-tb;text-anchor:start;baseline-shift:baseline;color:#000000;fill:#ffffff;fill-opacity:1;stroke:none;stroke-width:12;marker:none;visibility:visible;display:inline;overflow:visible;enable-background:accumulate;font-family:Sans;-inkscape-font-specification:Sans"
         d="m 2478.1778,1484.5625 -2.3559,12.7057 c 17.7819,3.2276 25.999,6.8334 23.4168,23.3544 -3.5919,20.2698 -14.86,18.422 -30.5576,15.3119 l -2.5033,12.1905 c 8.5921,1.9984 18.3477,3.7906 27.6875,1 9.3399,-2.7906 17.2404,-11.222 19.8438,-25.1875 l 0.031,-0.031 0,-0.062 c 1.8672,-11.2275 -0.7047,-21.0615 -7.4063,-27.6563 -6.7015,-6.5948 -16.4032,-9.8571 -28.1562,-11.625 z"
         id="path4531"
         inkscape:connector-curvature="0"
         sodipodi:nodetypes="cccccscccscc" />
      <path
         style="fill:#ffffff;stroke:none"
         d="m 1920.141,1592.99 c -23.1099,0 -34.2651,-16.8058 -34.2651,-34.5525 0,-22.1717 19.0648,-34.0496 38.3597,-34.0496 4.3816,0 7.5067,0.7542 7.5067,0.7542 l 4.0228,14.5106 c 0,0 -6.6604,-3.1248 -12.607,-3.1248 -13.6716,0 -22.2688,10.9999 -22.2688,20.5448 0,13.5831 9.424,22.3398 19.2938,22.3398 10.7643,0 17.58,-5.7573 23.5915,-14.367 l 4.6693,15.0861 c 0,0 -9.3628,12.8584 -28.3029,12.8584 z"
         id="path4533"
         inkscape:connector-curvature="0"
         sodipodi:nodetypes="ccccccccccc" />
      <path
         sodipodi:nodetypes="ccccccccccc"
         inkscape:connector-curvature="0"
         id="path4535"
         d="m 2611.8279,1584.1373 c -19.0963,-13.0156 -18.8489,-33.1852 -8.8539,-47.8496 12.4872,-18.3209 34.9305,-17.3985 50.8742,-6.5316 3.6206,2.4677 5.7782,4.851 5.7782,4.851 l -4.8483,14.2561 c 0,0 -3.7439,-6.3333 -8.6575,-9.6825 -11.2972,-7.6998 -24.5963,-3.4523 -29.9721,4.4348 -7.65,11.2239 -4.7945,23.7674 3.361,29.3262 8.8948,6.0624 17.7693,5.1437 27.5857,1.415 l -4.6383,15.0957 c 0,0 -14.9785,5.3519 -30.629,-5.3151 z"
         style="fill:#ffffff;stroke:none" />
      <path
         sodipodi:nodetypes="cccccccc"
         inkscape:connector-curvature="0"
         id="path5494"
         d="m 2113.6637,2470.9535 c 163.1609,-198.0222 288.7754,-420.0148 288.7754,-714.4678 0,-81.2865 -14.0681,-159.904 -14.0681,-159.904 0,0 44.4846,158.3527 41.6518,310.4536 0,60.6343 -8.4738,106.4204 -30.0113,186.0305 -18.0894,70.9899 -43.9672,158.0734 -64.235,210.3692 -10.3129,27.0069 -29.6916,44.9206 -57.4677,71.8347 -39.2844,39.0718 -109.0686,75.1758 -164.6451,95.6838 z"
         style="fill:#aa0736;fill-opacity:1;stroke:none" />
      <path
         sodipodi:nodetypes="ccccccccc"
         inkscape:connector-curvature="0"
         id="path5496"
         d="m 2420.8797,2340.3991 c 9.6429,0 12.6605,-11.3903 14.1209,-21.418 8.0256,-53.7668 21.1307,-127.9702 29.7658,-203.3824 0,0 4.8763,-41.767 4.8763,-89.3988 0,-220.477 -81.2717,-429.5207 -81.2717,-429.5207 0,0 51.6076,155.6791 51.6076,331.182 0,93.2592 -31.4216,232.248 -51.6076,321.0231 0,0 -5.689,18.8903 -5.689,31.4927 0,41.9428 29.6093,60.0221 38.1977,60.0221 z"
         style="fill:#ee3e41;fill-opacity:1;stroke:none" />
      <path
         sodipodi:nodetypes="cccccccc"
         inkscape:connector-curvature="0"
         id="path5498"
         d="m 2388.4726,1596.8823 c 50.6936,108.4758 86.2526,207.693 111.7978,347.2536 17.8244,95.2676 16.7131,193.1683 16.7131,280.7732 0,98.3925 -2.9851,178.5916 -2.9851,178.5916 l -39.7246,-26.2915 c -20.4708,-14.3444 -15.0831,-26.2942 -13.2176,-54.3788 2.9681,-49.3177 24.4238,-186.2849 24.4238,-274.4085 0,-161.0638 -45.5728,-310.3726 -97.0074,-451.5396 z"
         style="fill:#ee3e41;fill-opacity:1;stroke:none" />
      <g
         transform="translate(-1446.0322,-39.796413)"
         id="g5557">
        <path
           sodipodi:nodetypes="ccccc"
           inkscape:connector-curvature="0"
           id="path5555"
           d="m 3542.4264,1865.3223 c 21.8871,18.4635 31.495,37.8018 31.495,37.8018 l -36.4198,36.0135 c 0,0 -6.8947,-18.8308 -25.0572,-35.0625 z"
           style="fill:#004890;fill-opacity:1;stroke:#ed3f41;stroke-width:7.5;stroke-linecap:butt;stroke-linejoin:miter;stroke-miterlimit:4;stroke-opacity:1;stroke-dasharray:none" />
        <path
           style="fill:#004890;fill-opacity:1;stroke:#ed3f41;stroke-width:7.5;stroke-linecap:butt;stroke-linejoin:miter;stroke-miterlimit:4;stroke-opacity:1;stroke-dasharray:none"
           d="m 3419.8765,1835.6672 c 9.5434,-2.1823 19.5072,-3.3452 29.8009,-3.3452 45.6767,0 77.1803,18.6209 97.0348,36.7638 l -33.9937,35.2353 c -13.7618,-12.3958 -34.0616,-23.3434 -62.8379,-23.3434 -10.4346,0 -20.5511,1.7615 -29.9988,5.0834 l -0.01,-50.3939 z"
           id="path5553"
           inkscape:connector-curvature="0"
           sodipodi:nodetypes="cccccccc" />
        <path
           sodipodi:nodetypes="ccccccc"
           inkscape:connector-curvature="0"
           id="path5545"
           d="m 3512.4014,1975.7252 -48.3447,-2.4424 c 0,-71.6214 59.3117,-139.2338 137.8019,-139.2338 89.0673,0 124.244,70.8021 124.244,70.8021 l -36.4198,36.0135 c 0,0 -21.2945,-58.1599 -87.621,-58.1599 -48.2264,0 -89.6604,37.6279 -89.6604,93.0205 z"
           style="fill:#004890;fill-opacity:1;stroke:#ed3f41;stroke-width:7.5;stroke-linecap:butt;stroke-linejoin:miter;stroke-miterlimit:4;stroke-opacity:1;stroke-dasharray:none" />
        <path
           style="fill:#004890;fill-opacity:1;stroke:#ed3f41;stroke-width:7.5;stroke-linecap:butt;stroke-linejoin:miter;stroke-miterlimit:4;stroke-opacity:1;stroke-dasharray:none"
           d="m 3549.1315,2048.6697 c 15.37,11.552 34.4583,18.4292 55.0747,18.4292 59.9988,0 83.4646,-51.8923 83.4646,-51.8923 l 34.9364,34.887 c 0,0 -35.2855,65.1346 -118.437,65.1346 -33.3245,0 -66.8684,-12.6387 -92.7771,-35.3513 9.523,-13.2576 25.3036,-41.7821 37.7384,-31.2072 z"
           id="path5549"
           inkscape:connector-curvature="0"
           sodipodi:nodetypes="ccccccc" />
        <path
           style="fill:#004890;fill-opacity:1;stroke:#ed3f41;stroke-width:7.5;stroke-linecap:butt;stroke-linejoin:miter;stroke-miterlimit:4;stroke-opacity:1;stroke-dasharray:none"
           d="m 3512.4014,1975.7252 c 0,26.9928 11.9774,51.4062 30.9136,68.1934 l -37.7668,30.5344 c -24.9561,-24.5134 -41.4915,-59.1201 -41.4915,-101.1702 z"
           id="path5551"
           inkscape:connector-curvature="0"
           sodipodi:nodetypes="ccccc" />
        <path
           sodipodi:nodetypes="cccccccc"
           inkscape:connector-curvature="0"
           id="path5539"
           d="m 3388.3367,1909.8412 c -13.0323,14.2805 -26.1863,31.4264 -26.1863,65.884 0,50.1362 41.3209,91.3737 91.8048,91.3737 59.9988,0 83.4646,-51.8923 83.4646,-51.8923 l 34.9364,34.887 c 0,0 -35.2855,65.1346 -118.437,65.1346 -69.5786,0 -140.1135,-55.0969 -140.1135,-141.9454 0,-69.5576 47.7366,-110.9147 77.5097,-124.4176"
           style="fill:#004890;fill-opacity:1;stroke:none" />
        <path
           style="fill:#004890;fill-opacity:1;stroke:#ed3f41;stroke-width:7.5;stroke-linecap:butt;stroke-linejoin:miter;stroke-miterlimit:4;stroke-opacity:1;stroke-dasharray:none"
           d="m 3389.746,2211.6003 0,-219.4921 -38.2225,0 0,-51.47 38.2225,0 0,-184.4951 247.0318,0 0,51.2191 -196.0595,0 0,133.276 165.5008,0 0,51.47 -165.5008,0 0,219.4921 z"
           id="path5502"
           inkscape:connector-curvature="0"
           sodipodi:nodetypes="ccccccccccccccc" />
        <path
           style="fill:#004890;fill-opacity:1;stroke:none"
           d="m 3343.4734,2014.9469 -8.9075,-87.9256 35.9174,6.3214 -8.6202,34.768 2.0114,31.8946 z"
           id="path5541"
           inkscape:connector-curvature="0" />
        <path
           style="fill:#004890;fill-opacity:1;stroke:none"
           d="m 3380.2528,2094.8271 2.2987,-62.0652 18.9643,18.3897 22.9871,11.7809 29.5959,4.5974 6.0341,47.6982 -25.2858,0 z"
           id="path5543"
           inkscape:connector-curvature="0" />
        <path
           style="fill:none;stroke:#ed3f41;stroke-width:7.5;stroke-linecap:butt;stroke-linejoin:miter;stroke-miterlimit:4;stroke-opacity:1;stroke-dasharray:none"
           d="m 3389.7734,1908.62 c -13.0323,14.2805 -27.623,32.6476 -27.623,67.1052 0,50.1362 41.3209,91.3737 91.8048,91.3737 59.9988,0 83.4646,-51.8923 83.4646,-51.8923 l 34.9364,34.887 c 0,0 -35.2855,65.1346 -118.437,65.1346 -69.5786,0 -140.1135,-55.0969 -140.1135,-141.9454 0,-69.5576 47.7366,-110.9147 77.5097,-124.4176"
           id="path5504"
           inkscape:connector-curvature="0"
           sodipodi:nodetypes="cccccccc" />
      </g>
    </g>
  </g>
</svg>
