<?xml version="1.0" encoding="utf-8"?>
<!-- Generator: Adobe Illustrator 13.0.0, SVG Export Plug-In . SVG Version: 6.00 Build 14948)  -->
<!DOCTYPE svg PUBLIC "-//W3C//DTD SVG 1.0//EN" "http://www.w3.org/TR/2001/REC-SVG-20010904/DTD/svg10.dtd">
<svg version="1.0" xmlns="http://www.w3.org/2000/svg" xmlns:xlink="http://www.w3.org/1999/xlink" x="0px" y="0px"
	 width="321.705px" height="407.5px" viewBox="0 0 321.705 407.5" enable-background="new 0 0 321.705 407.5" xml:space="preserve">
<g id="Ebene_2">
	<path fill-rule="evenodd" clip-rule="evenodd" fill="#FFFFFF" d="M21.266,28.5c-91,283,139.5,379,139.5,379s231-99.5,139.5-379
		c0,0-67.5-28.5-139.5-28.5S21.266,28.5,21.266,28.5z"/>
</g>
<g id="Ebene_1">
	<path fill-rule="evenodd" clip-rule="evenodd" fill="#2191CC" d="M160.912,402.563c9.259-4.135,18.079-8.772,26.453-13.82V110.518
		h53.98v234.507c48.038-51.654,71.314-123.188,74.324-192.833c1.707-39.496-3.281-81.579-19.061-120.687
		c-92.551-34.391-183.836-34.39-272.341,0C9.568,73.606,4.501,114.372,6.102,152.913c2.895,69.731,26.421,140.364,74.362,192.017
		V110.518h53.98v278.51C142.796,394.053,151.607,398.607,160.912,402.563L160.912,402.563z"/>
	<path fill-rule="evenodd" clip-rule="evenodd" fill="#F7C408" d="M146.583,165.314c0.231,0.364,0.678,1.447,1.969,2.739
		c1.398,1.398,1.989,1.661,3.945,0.781c1.303-0.586,3.354-1.528,2.47-2.426c-0.794-0.908-1.355-1.427-1.846-2.905
		c-1.464,0.77-3.389,1.071-5.711,1.316C146.863,164.878,146.279,164.836,146.583,165.314L146.583,165.314z"/>
	<path fill-rule="evenodd" clip-rule="evenodd" fill="#F7C408" d="M142.148,165.022c1.412,1.339,2.52,2.254,3.278,4.096
		c-1.448,0.556-1.178,1.637-2.138,2.271c-0.835,0.552-4.244,0.61-5.776,0.1c-0.417-1.731-0.199-3.954-0.094-5.893
		C139.122,165.304,139.712,165.21,142.148,165.022L142.148,165.022z"/>
	<path fill-rule="evenodd" clip-rule="evenodd" fill="#F7C408" d="M153.881,144.919c-1.8,0.559-3.357,2.409-5.235,3.624
		c-2.847,1.842-2.483,3.508-2.063,4.824c0.265,0.828-0.023,1.208-0.578,1.003c-2.909-1.073-4.077-3.834-5.818-2.308
		c-1.056,0.925-0.537,4.393-0.306,7.479c0.23,3.055,0.134,3.558-2.3,3.586c-2.511,0.029-7.393-1.231-9.915-1.953
		c-5.096-1.458-10.341-3.194-14.415-6.303c-2.753-2.102-5.71-5.082-7.305-7.487c-0.211-0.318-0.398-0.616-0.564-0.896
		c-1.161-1.951-0.771-2.972-0.958-3.421c-0.181-0.431-1.271-0.297-1.986,0.114c-1.576,0.907-4.069,3.021-4.835,3.605
		c-2.713,2.07-4.2,3.189-7.964,6.473c-2.566,2.239-4.725,3.918-7.146,3.907c-0.65-0.239-0.667-0.479-0.291-1.083
		c0.828-1.329,3.229-3.158,5.591-5.754c2.675-2.941,4.322-7.832,7.056-10.473c2.904-2.805,6.173-3.273,7.33-3.794
		c0.974-0.438,1.616-1.402,1.442-2.475c-0.395-2.454-2.454-2.415-4.259-1.504c-1.02,0.515-2.182,1.281-3.359,2.161
		c-2.23,1.668-4.328,3.555-7.396,6.685c-8.401,8.568-11.465,19.836-16.751,29.129c-6.605,11.612-14.921,21.972-18.146,17.595
		c-1.261-1.711-0.409-4.989,1.271-6.585c3.722-3.535,6.013-5.348,8.417-9.756c5.29-9.697,8.861-22.399,15.667-31.658
		c5.248-7.139,13.819-15.572,22.889-17.657c5.441-1.25,15.803-1.543,16.967,4.438c1.093,5.618-10.375,3.597-8.398,12.554
		c1.808,8.19,9.17,12.473,17.967,12.68c1.575,0.037,2.227-0.046,3.688-1.208c2.415-1.921,5.534-2.156,9.936-1.772
		c0.865,0.075,2.454-1.085,3.834-1.84c2.286-1.251,5.629-4.928,7.603-4.666C156.02,142.509,155.458,144.429,153.881,144.919
		L153.881,144.919z"/>
	<path fill-rule="evenodd" clip-rule="evenodd" fill="#F7C408" d="M130.772,167.073c1.521,1.722,2.789,3.761,1.606,6.686
		c-0.284,0.702-1.411,1.807-2.645,1.326c-3.106-1.211-0.465-3.845-3.289-5.979c-1.409-1.064-3.334-0.685-5.653-1.132
		c-1.692-0.326-3.23-0.975-4.833-2.098c-0.649-0.455-0.529-1.518-2.08-2.282c-1.033-0.509-2.774,0.243-3.703-0.803
		c-0.583-0.657,0.063-2.076-0.998-3.029c-0.802-0.721-2.063-1.205-3.11-1.868c-1.997-1.264-3.824-2.578-4.436-3.202
		c-0.817-0.832-1.709-2.555-2.138-3.264c-0.531-0.878-0.942-2.11,0.285-2.779c0.523-0.285,2.516-0.022,4.472,1.985
		c0.889,0.913,2.007,2.662,3.171,4.021c1.905,2.225,2.934,2.859,4.432,4.183c1.647,1.455,3.032,2.618,4.857,3.129
		c2.274,0.638,4.877,0.948,5.629,1.052C125.213,163.418,129.368,165.481,130.772,167.073L130.772,167.073z"/>
	<path fill-rule="evenodd" clip-rule="evenodd" fill="#F7C408" d="M77.342,171.955c-0.818,1.658-1.815,4.136-2.694,6.394
		c-0.922,2.369-1.572,5.957-4.759,6.376c-1.624,0.213-3.314-1.08-2.847-3.288c4.475-1.53,5.504-4.614,7.544-9.828
		c1.587-4.056,3.328-8.36,5.301-10.282c1.17-1.138,4.251-0.527,3.229,0.769C81.437,164.227,79.119,168.359,77.342,171.955
		L77.342,171.955z"/>
	<path fill-rule="evenodd" clip-rule="evenodd" fill="#F7C408" d="M97.902,153.206c-0.488-1.565-2.408-1.481-4.421,0.961
		c-2.791,3.385-8.208,9.553-11.314,14.973c-3.067,5.353-6.249,10.531-6.192,15.686c0.018,1.583,1.208,2.406,2.595,2.642
		c1.386,0.236,3.444-1.22,4.455-2.87c4.131-6.745,1.663-9.251,6.794-18.465C91.473,163.163,99.19,157.332,97.902,153.206
		L97.902,153.206z"/>
	<path fill-rule="evenodd" clip-rule="evenodd" fill="#F7C408" d="M102.484,158.102c-1.19-0.912-4.603,2.508-7.393,6.956
		c-2.607,4.156-5.816,10.148-7.416,14.804c-1.107,3.222-2.244,7.938-0.564,8.613c0.597,0.24,1.972-0.578,3.632-2.649
		c2.426-3.027,5.462-8.198,7.568-12.206C100.497,169.457,103.993,159.259,102.484,158.102L102.484,158.102z"/>
	<path fill-rule="evenodd" clip-rule="evenodd" fill="#F7C408" d="M104.988,164.215c-0.402,3.934-3.263,10.615-5.119,13.703
		c-1.26,2.094-3.798,5.617-5.936,8.436c-2.423,3.195-4.24,5.719-1.654,5.423c5.824-0.667,10.008-6.407,12.467-11.03
		c2.459-4.621,5.967-13.069,2.255-18.245C105.887,160.949,105.229,161.857,104.988,164.215L104.988,164.215z"/>
	<path fill-rule="evenodd" clip-rule="evenodd" fill="#F7C408" d="M116.911,169.007c-1.527-0.799-3.688-0.678-4.369,1.36
		c-0.433,1.295-1,3.501-1.666,5.765c-1.385,4.709-3.326,8.531-6.458,12.361c-0.882,1.077-1.719,1.595-2.384,2.771
		c-0.397,0.702,0.306,1.237,1.045,1.158c1.81-0.196,3.325-0.944,5.382-2.89c1.813-1.716,3.818-4.234,4.749-5.99
		C115.501,179.223,120.315,170.789,116.911,169.007L116.911,169.007z"/>
	<path fill-rule="evenodd" clip-rule="evenodd" fill="#F7C408" d="M120.605,175.448c-2.278,3.321-7.954,12.688-10.384,17.699
		c-0.806,1.663-0.271,3.063-0.081,3.137c2.355,0.926,4.355-0.423,6.051-2.808c1.19-1.674,2.23-6.622,3.207-8.231
		c1.797-2.964,3.347-4.52,4.993-8.64c0.462-1.157,0.566-3.01-0.161-3.351C122.889,172.627,121.253,174.503,120.605,175.448
		L120.605,175.448z"/>
	<path fill-rule="evenodd" clip-rule="evenodd" fill="#F7C408" d="M129.418,178.013c-1.204-0.472-2.434,0.271-3.283,1.424
		c-1.872,2.542-2.208,5.721-3.672,8.049c-1.584,2.519-4.577,5.712-2.743,5.997c0.871,0.135,3.7-1.774,6.18-5.127
		c0.861-1.164,1.401-2.445,2.18-3.508c1-1.366,2.271-2.414,2.742-3.651C131.355,179.795,130.932,178.606,129.418,178.013
		L129.418,178.013z"/>
	<path fill-rule="evenodd" clip-rule="evenodd" fill="#F7C408" d="M134.361,181.532c-2.247,0.205-3.482,3.009-4.081,4.032
		c-0.858,1.466-1.711,3.84-2.53,4.966c-1.332,1.83-1.534,1.791-3.392,3.113c-1.556,1.107-2.008,2.828-3.081,4.712
		c-0.981,1.725-2.123,4.687-2.291,7.183c-0.282,4.188,2.71,1.498,4.402-1.124c2.235-3.461,1.001-6.942,2.546-9.079
		c0.953-1.317,4.14-1.648,5.115-3.419c0.853-1.548-0.143-3.856,0.723-5.698c0.329-0.701,0.778-1.409,1.285-1.792
		c0.652-0.493,1.401-0.611,2.112-1.147C136.209,182.497,136.799,181.311,134.361,181.532L134.361,181.532z"/>
	<path fill-rule="evenodd" clip-rule="evenodd" fill="#F7C408" d="M119.705,197.437c-0.157-0.781-3.549-0.285-4.823,0.138
		c-2.239,0.743-4.108,2.147-5.531,4.037c-3.407,4.525-0.806,11.469-3.175,16.127c-2.421,5.69-5.612,7.616-3.768,7.897
		c0.917,0.139,3.453-3.072,5.7-6.394c2.146-3.17,3.957-6.565,4.643-10.379c0.367-2.04,0.28-3.313,1.096-5.36
		C115.419,199.562,119.957,198.683,119.705,197.437L119.705,197.437z"/>
	<path fill-rule="evenodd" clip-rule="evenodd" fill="#F7C408" d="M106.274,195.665c-5.562,1.013-9.523,7.402-11.709,13.866
		c-1.228,3.63-0.669,8.08-3.276,15.221c-1.533,4.212-3.786,8.429-4.882,12.738c-1.222,4.8-1.4,8.495-0.439,12.546
		c0.687,2.897,1.375,4.043,1.381,0.668c0.005-3.304,0.263-5.709,1.043-8.916c1.435-5.893,5.542-10.507,9.469-16.956
		c2.38-3.907,5.039-8.608,6.559-13.339c1.18-3.673,0.084-7.722,0.428-11.27C105.15,197.093,107.513,195.439,106.274,195.665
		L106.274,195.665z"/>
	<path fill-rule="evenodd" clip-rule="evenodd" fill="#F7C408" d="M97.752,193.909c-3.024,2.771-6.976,0.626-8.511,3.076
		c-1.403,2.24-2.271,4.492-3.298,7.531c-2.113,6.249-3.834,12.326-5.329,18.429c-0.49,2.004-2.079,8.053-3.247,14.874
		c-0.549,3.214-1.048,6.695-1.382,10.173c-0.182,1.894-0.978,8.781,0.562,14.53c0.775,2.893,0.757,2.423,0.958-0.142
		c0.955-12.272,5.194-24.946,8.757-35.859c0.888-2.721,1.391-7.21,2.799-10.424c1.979-4.521,4.262-9.316,6.184-13.427
		c2.031-4.343,2.917-6.222,4.132-7.781C100.064,194.008,98.866,192.888,97.752,193.909L97.752,193.909z"/>
	<path fill-rule="evenodd" clip-rule="evenodd" fill="#F7C408" d="M81.512,191.219c-1.069,0.994-2.346,2.68-3.163,4.11
		c-6.151,10.789-8.815,24.101-10.516,37.623c-1.344,10.69-1.736,19.994,0.052,29.654c0.814,4.396,2.702,9.843,6.573,12.333
		c1.307,0.84,0.59,0.004,0.269-0.912c-2.444-6.959-1.776-15.578-1.626-22.746c0.062-2.96,0.264-5.874,0.534-8.771
		c0.95-10.171,1.734-19.398,5.29-28.997c0.266-0.719,0.552-1.408,0.85-2.074c2.081-4.657,4.768-8.159,6.045-12.812
		c0.604-2.202,0.189-4.679-0.678-6.393C84.094,190.167,83.279,189.575,81.512,191.219L81.512,191.219z"/>
	<path fill-rule="evenodd" clip-rule="evenodd" fill="#F7C408" d="M70.757,188.482c-2.079,3.847-3.317,7.085-4.54,10.289
		c-1.907,5-3.319,9.808-4.135,16.255c-1.331,10.509-0.009,25.817,1.018,34.51c0.249,2.109,1.188,1.869,1.148-0.104
		c-0.188-9.271,0.637-21.067,2.104-30.473c1.126-7.223,2.877-11.765,6.107-17.975c1.263-2.429,2.56-3.969,2.672-6.254
		c0.129-2.626-3.886-3.155-3.27-5.477C72.503,187.243,71.54,187.034,70.757,188.482L70.757,188.482z"/>
	<path fill-rule="evenodd" clip-rule="evenodd" fill="#F7C408" d="M65.784,185.678c-5.95-0.776-9.808,8.965-10.635,13.676
		c-0.817,4.652-1.19,8.547-1.306,12.246c-0.557,17.751,2.255,35.015,6.984,52.088c1.739,6.279,3.693,12.826,5.669,19.578
		c0.939,3.208,2.475,6.345,4.1,6.794c3.1,0.86,4.303-1.604,4.628-4.324c0.208-1.741,0-3.589-0.113-4.731
		c-0.429-2.308-2.731-1.734-2.825-0.928c-0.193,1.66-1.015,1.832-1.801,1.298c-0.612-0.417-0.824-1.207-1.042-1.863
		c-4.2-12.644-11.399-26.42-11.06-51.334c0.103-7.59,0.334-15.439,2.191-22.742c0.885-3.482,1.479-5.165,2.828-8.603
		c1.061-2.706,1.896-4.734,3.052-7.014C67.163,188.421,68.344,186.011,65.784,185.678L65.784,185.678z"/>
	<path fill-rule="evenodd" clip-rule="evenodd" fill="#F7C408" d="M174.112,165.314c-0.23,0.364-0.677,1.447-1.968,2.739
		c-1.398,1.398-1.99,1.661-3.946,0.781c-1.303-0.586-3.354-1.528-2.47-2.426c0.794-0.908,1.355-1.427,1.846-2.905
		c1.465,0.77,3.39,1.071,5.712,1.316C173.833,164.878,174.416,164.836,174.112,165.314L174.112,165.314z"/>
	<path fill-rule="evenodd" clip-rule="evenodd" fill="#F7C408" d="M178.547,165.022c-1.412,1.339-2.52,2.254-3.278,4.096
		c1.448,0.556,1.178,1.637,2.138,2.271c0.835,0.552,4.244,0.61,5.776,0.1c0.418-1.731,0.199-3.954,0.094-5.893
		C181.573,165.304,180.983,165.21,178.547,165.022L178.547,165.022z"/>
	<path fill-rule="evenodd" clip-rule="evenodd" fill="#F7C408" d="M166.814,144.919c1.8,0.559,3.357,2.409,5.235,3.624
		c2.846,1.842,2.483,3.508,2.062,4.824c-0.264,0.828,0.023,1.208,0.578,1.003c2.909-1.073,4.077-3.834,5.818-2.308
		c1.056,0.925,0.537,4.393,0.306,7.479c-0.23,3.055-0.134,3.558,2.3,3.586c2.511,0.029,7.394-1.231,9.914-1.953
		c5.097-1.458,10.341-3.194,14.416-6.303c2.753-2.102,5.71-5.082,7.305-7.487c0.211-0.318,0.398-0.616,0.563-0.896
		c1.161-1.951,0.771-2.972,0.959-3.421c0.181-0.431,1.271-0.297,1.985,0.114c1.576,0.907,4.069,3.021,4.835,3.605
		c2.714,2.07,4.2,3.189,7.964,6.473c2.566,2.239,4.725,3.918,7.146,3.907c0.65-0.239,0.666-0.479,0.291-1.083
		c-0.827-1.329-3.229-3.158-5.591-5.754c-2.676-2.941-4.321-7.832-7.056-10.473c-2.904-2.805-6.173-3.273-7.33-3.794
		c-0.974-0.438-1.616-1.402-1.442-2.475c0.395-2.454,2.454-2.415,4.259-1.504c1.019,0.515,2.182,1.281,3.359,2.161
		c2.23,1.668,4.328,3.555,7.396,6.685c8.402,8.568,11.466,19.836,16.752,29.129c6.605,11.612,14.921,21.972,18.146,17.595
		c1.262-1.711,0.409-4.989-1.271-6.585c-3.722-3.535-6.013-5.348-8.418-9.756c-5.289-9.697-8.861-22.399-15.667-31.658
		c-5.248-7.139-13.818-15.572-22.89-17.657c-5.44-1.25-15.803-1.543-16.967,4.438c-1.093,5.618,10.376,3.597,8.397,12.554
		c-1.808,8.19-9.17,12.473-17.966,12.68c-1.575,0.037-2.228-0.046-3.688-1.208c-2.415-1.921-5.534-2.156-9.937-1.772
		c-0.865,0.075-2.454-1.085-3.834-1.84c-2.286-1.251-5.629-4.928-7.603-4.666C164.675,142.509,165.236,144.429,166.814,144.919
		L166.814,144.919z"/>
	<path fill-rule="evenodd" clip-rule="evenodd" fill="#F7C408" d="M189.922,167.073c-1.521,1.722-2.789,3.761-1.606,6.686
		c0.284,0.702,1.411,1.807,2.646,1.326c3.105-1.211,0.465-3.845,3.288-5.979c1.409-1.064,3.335-0.685,5.653-1.132
		c1.692-0.326,3.231-0.975,4.833-2.098c0.648-0.455,0.529-1.518,2.08-2.282c1.033-0.509,2.774,0.243,3.703-0.803
		c0.583-0.657-0.063-2.076,0.998-3.029c0.802-0.721,2.063-1.205,3.109-1.868c1.997-1.264,3.824-2.578,4.436-3.202
		c0.818-0.832,1.711-2.555,2.14-3.264c0.53-0.878,0.941-2.11-0.285-2.779c-0.523-0.285-2.516-0.022-4.473,1.985
		c-0.889,0.913-2.006,2.662-3.171,4.021c-1.905,2.225-2.934,2.859-4.432,4.183c-1.646,1.455-3.032,2.618-4.857,3.129
		c-2.273,0.638-4.876,0.948-5.628,1.052C195.482,163.418,191.327,165.481,189.922,167.073L189.922,167.073z"/>
	<path fill-rule="evenodd" clip-rule="evenodd" fill="#F7C408" d="M243.353,171.955c0.818,1.658,1.815,4.136,2.694,6.394
		c0.921,2.369,1.571,5.957,4.759,6.376c1.623,0.213,3.313-1.08,2.847-3.288c-4.476-1.53-5.504-4.614-7.544-9.828
		c-1.588-4.056-3.328-8.36-5.302-10.282c-1.17-1.138-4.251-0.527-3.229,0.769C239.257,164.227,241.577,168.359,243.353,171.955
		L243.353,171.955z"/>
	<path fill-rule="evenodd" clip-rule="evenodd" fill="#F7C408" d="M222.792,153.206c0.487-1.565,2.407-1.481,4.421,0.961
		c2.791,3.385,8.208,9.553,11.314,14.973c3.067,5.353,6.249,10.531,6.191,15.686c-0.017,1.583-1.207,2.406-2.594,2.642
		s-3.444-1.22-4.455-2.87c-4.132-6.745-1.663-9.251-6.794-18.465C229.222,163.163,221.504,157.332,222.792,153.206L222.792,153.206z
		"/>
	<path fill-rule="evenodd" clip-rule="evenodd" fill="#F7C408" d="M218.211,158.102c1.189-0.912,4.602,2.508,7.393,6.956
		c2.607,4.156,5.816,10.148,7.415,14.804c1.107,3.222,2.244,7.938,0.564,8.613c-0.596,0.24-1.972-0.578-3.632-2.649
		c-2.425-3.027-5.462-8.198-7.567-12.206C220.197,169.457,216.702,159.259,218.211,158.102L218.211,158.102z"/>
	<path fill-rule="evenodd" clip-rule="evenodd" fill="#F7C408" d="M215.707,164.215c0.402,3.934,3.264,10.615,5.119,13.703
		c1.26,2.094,3.799,5.617,5.937,8.436c2.423,3.195,4.24,5.719,1.653,5.423c-5.824-0.667-10.008-6.407-12.467-11.03
		c-2.459-4.621-5.967-13.069-2.255-18.245C214.808,160.949,215.465,161.857,215.707,164.215L215.707,164.215z"/>
	<path fill-rule="evenodd" clip-rule="evenodd" fill="#F7C408" d="M203.784,169.007c1.526-0.799,3.688-0.678,4.368,1.36
		c0.433,1.295,1,3.501,1.666,5.765c1.385,4.709,3.325,8.531,6.457,12.361c0.882,1.077,1.719,1.595,2.385,2.771
		c0.397,0.702-0.307,1.237-1.045,1.158c-1.81-0.196-3.325-0.944-5.382-2.89c-1.813-1.716-3.818-4.234-4.749-5.99
		C205.194,179.223,200.379,170.789,203.784,169.007L203.784,169.007z"/>
	<path fill-rule="evenodd" clip-rule="evenodd" fill="#F7C408" d="M200.09,175.448c2.277,3.321,7.953,12.688,10.384,17.699
		c0.806,1.663,0.271,3.063,0.08,3.137c-2.355,0.926-4.355-0.423-6.051-2.808c-1.19-1.674-2.23-6.622-3.206-8.231
		c-1.798-2.964-3.348-4.52-4.993-8.64c-0.463-1.157-0.566-3.01,0.161-3.351C197.806,172.627,199.441,174.503,200.09,175.448
		L200.09,175.448z"/>
	<path fill-rule="evenodd" clip-rule="evenodd" fill="#F7C408" d="M191.276,178.013c1.204-0.472,2.434,0.271,3.284,1.424
		c1.87,2.542,2.206,5.721,3.671,8.049c1.585,2.519,4.577,5.712,2.743,5.997c-0.87,0.135-3.7-1.774-6.18-5.127
		c-0.861-1.164-1.401-2.445-2.18-3.508c-1.001-1.366-2.271-2.414-2.742-3.651C189.339,179.795,189.763,178.606,191.276,178.013
		L191.276,178.013z"/>
	<path fill-rule="evenodd" clip-rule="evenodd" fill="#F7C408" d="M186.333,181.532c2.247,0.205,3.482,3.009,4.081,4.032
		c0.857,1.466,1.71,3.84,2.529,4.966c1.332,1.83,1.534,1.791,3.393,3.113c1.555,1.107,2.008,2.828,3.08,4.712
		c0.981,1.725,2.123,4.687,2.29,7.183c0.281,4.188-2.71,1.498-4.401-1.124c-2.235-3.461-1.002-6.942-2.547-9.079
		c-0.952-1.317-4.14-1.648-5.114-3.419c-0.854-1.548,0.143-3.856-0.722-5.698c-0.33-0.701-0.779-1.409-1.286-1.792
		c-0.652-0.493-1.401-0.611-2.112-1.147C184.486,182.497,183.896,181.311,186.333,181.532L186.333,181.532z"/>
	<path fill-rule="evenodd" clip-rule="evenodd" fill="#F7C408" d="M200.99,197.437c0.157-0.781,3.55-0.285,4.822,0.138
		c2.239,0.743,4.109,2.147,5.531,4.037c3.407,4.525,0.806,11.469,3.176,16.127c2.421,5.69,5.611,7.616,3.767,7.897
		c-0.917,0.139-3.453-3.072-5.699-6.394c-2.146-3.17-3.957-6.565-4.643-10.379c-0.367-2.04-0.281-3.313-1.097-5.36
		C205.275,199.562,200.739,198.683,200.99,197.437L200.99,197.437z"/>
	<path fill-rule="evenodd" clip-rule="evenodd" fill="#F7C408" d="M214.42,195.665c5.563,1.013,9.523,7.402,11.71,13.866
		c1.228,3.63,0.668,8.08,3.275,15.221c1.533,4.212,3.786,8.429,4.883,12.738c1.223,4.8,1.399,8.495,0.439,12.546
		c-0.688,2.897-1.376,4.043-1.381,0.668c-0.005-3.304-0.264-5.709-1.043-8.916c-1.435-5.893-5.543-10.507-9.47-16.956
		c-2.38-3.907-5.038-8.608-6.559-13.339c-1.18-3.673-0.084-7.722-0.428-11.27C215.543,197.093,213.182,195.439,214.42,195.665
		L214.42,195.665z"/>
	<path fill-rule="evenodd" clip-rule="evenodd" fill="#F7C408" d="M222.943,193.909c3.024,2.771,6.976,0.626,8.511,3.076
		c1.403,2.24,2.271,4.492,3.297,7.531c2.113,6.249,3.835,12.326,5.33,18.429c0.489,2.004,2.078,8.053,3.247,14.874
		c0.549,3.214,1.048,6.695,1.382,10.173c0.182,1.894,0.979,8.781-0.563,14.53c-0.774,2.893-0.757,2.423-0.957-0.142
		c-0.955-12.272-5.194-24.946-8.757-35.859c-0.889-2.721-1.392-7.21-2.8-10.424c-1.979-4.521-4.262-9.316-6.184-13.427
		c-2.031-4.343-2.917-6.222-4.133-7.781C220.63,194.008,221.829,192.888,222.943,193.909L222.943,193.909z"/>
	<path fill-rule="evenodd" clip-rule="evenodd" fill="#F7C408" d="M239.182,191.219c1.069,0.994,2.347,2.68,3.163,4.11
		c6.151,10.789,8.814,24.101,10.516,37.623c1.345,10.69,1.736,19.994-0.052,29.654c-0.813,4.396-2.701,9.843-6.572,12.333
		c-1.308,0.84-0.591,0.004-0.27-0.912c2.443-6.959,1.776-15.578,1.626-22.746c-0.062-2.96-0.264-5.874-0.534-8.771
		c-0.95-10.171-1.733-19.398-5.289-28.997c-0.267-0.719-0.553-1.408-0.85-2.074c-2.081-4.657-4.769-8.159-6.045-12.812
		c-0.604-2.202-0.19-4.679,0.677-6.393C236.601,190.167,237.416,189.575,239.182,191.219L239.182,191.219z"/>
	<path fill-rule="evenodd" clip-rule="evenodd" fill="#F7C408" d="M249.937,188.482c2.079,3.847,3.317,7.085,4.54,10.289
		c1.907,5,3.319,9.808,4.135,16.255c1.331,10.509,0.01,25.817-1.018,34.51c-0.249,2.109-1.188,1.869-1.148-0.104
		c0.188-9.271-0.637-21.067-2.104-30.473c-1.128-7.223-2.878-11.765-6.107-17.975c-1.264-2.429-2.561-3.969-2.673-6.254
		c-0.129-2.626,3.886-3.155,3.27-5.477C248.191,187.243,249.154,187.034,249.937,188.482L249.937,188.482z"/>
	<path fill-rule="evenodd" clip-rule="evenodd" fill="#F7C408" d="M254.911,185.678c5.949-0.776,9.808,8.965,10.635,13.676
		c0.817,4.652,1.189,8.547,1.307,12.246c0.556,17.751-2.256,35.015-6.984,52.088c-1.74,6.279-3.693,12.826-5.669,19.578
		c-0.938,3.208-2.475,6.345-4.1,6.794c-3.101,0.86-4.304-1.604-4.628-4.324c-0.209-1.741-0.001-3.589,0.112-4.731
		c0.429-2.308,2.731-1.734,2.825-0.928c0.193,1.66,1.016,1.832,1.802,1.298c0.611-0.417,0.823-1.207,1.042-1.863
		c4.199-12.644,11.398-26.42,11.06-51.334c-0.104-7.59-0.334-15.439-2.191-22.742c-0.884-3.482-1.479-5.165-2.827-8.603
		c-1.061-2.706-1.896-4.734-3.053-7.014C253.533,188.421,252.351,186.011,254.911,185.678L254.911,185.678z"/>
	<path fill-rule="evenodd" clip-rule="evenodd" fill="#F7C408" d="M146.3,156.198c1.394,0.201,4.404,0.114,5.75-0.597
		c1.705-0.899,2.973-2.789,4.235-4.258c1.007-1.172,2.015-2.396,3.124-3.585c1.243-1.332,1.094-1.037,2.112,0.047
		c1.133,1.206,1.989,2.186,3.028,3.395c1.263,1.469,2.531,3.264,4.235,4.163c1.346,0.711,4.45,0.988,5.845,0.788
		c3.469-0.499,3.454,3.213,1.107,4.368c-0.779,0.383-2.22,0.502-3.259,0.555c-4.409,0.225-6.117-1.001-9.278-5.051
		c-0.938-1.201-1.399-1.909-2.814-3.443c-1.08,1.41-2.354,2.89-3.112,3.958c-2.849,4.011-4.688,4.794-8.821,4.584
		c-1.038-0.053-2.479-0.171-3.259-0.555C142.845,159.411,142.831,155.699,146.3,156.198L146.3,156.198z"/>
	<path fill-rule="evenodd" clip-rule="evenodd" fill="#F7C408" d="M160.238,158.83c-1.143,1.708-2.775,2.789-4.809,3.767
		c1.115,3.303,2.505,4.537,4.904,4.52c2.557-0.02,4.042-1.589,4.914-4.667C163.518,161.878,161.735,160.616,160.238,158.83
		L160.238,158.83z"/>
	<path fill-rule="evenodd" clip-rule="evenodd" fill="#F7C408" d="M157.075,214.103c-0.596-0.635-1.074-1.061-2.467-1.771
		c-0.49-0.251-1.07-1.496-1.539-1.688c-1.411-0.577-3.161-0.569-4.767-0.553c-1.279,0.013-2.564-0.081-3.847-1.255
		c-1.944-1.777-5.518-4.73-5.646-12.451c-0.028-1.698-0.083-2.675,0.019-3.965c0.125-1.586-1.531-2.574-2.787-0.39
		c-0.961,1.672-2.28,0.783-3.181,2.229c-1.979,3.179-4.509,7.519-5.944,9.875c-0.322,0.527-0.1,1.321-0.313,1.854
		c-0.683,1.704,0.371,2.512,1.322,1.577c0.688-0.675,1.254-2.029,2.021-1.462c0.727,0.537,0.833,1.809,1.237,2.759
		c0.868,2.038,1.632,3.074,2.904,4.318c0.988,0.967,1.762,1.952,2.536,2.979c0.913,1.213,1.003,3.497,2.366,2.936
		c0.81-0.333,3.567-3.506,0.454-5.105c-4.439-2.282-5.694-7.558-5.699-11.337c0-0.323,0.054-0.883,0.657-1.382
		c0.641-0.53,1.88-1.096,1.906-0.124c0.039,1.472-0.245,3.299,2.396,7.034c1.542,2.182,3.011,3.715,4.396,4.748
		c0.521,0.388,1.383,0.378,1.796,0.246c1.398-0.442,1.481-1.076,3.516-1.275c0.852-0.083,1.343,0.055,1.904,0.223
		c0.552,0.166,0.871,0.383,1.294,0.688c0.839,0.604,1.55,1.209,2.023,2.04c0.321,0.564,0.943,0.801,1.847,0.737
		c0.334-0.022,0.654-0.052,0.94-0.087C157.836,215.326,157.893,214.976,157.075,214.103L157.075,214.103z"/>
	<path fill-rule="evenodd" clip-rule="evenodd" fill="#F7C408" d="M122.689,223.149c-0.407-1.278,0.046-1.832,1.156-3.246
		c0.862-1.1,2.391-2.653,3.2-1.994c0.982,0.799,2.075,2.861,2.804,3.953c0.299,0.447,0.782,1.348,1.064,1.81
		c1.685,2.749,3.084,8.611,2.612,11.76c-0.184,1.226-0.255,2.222-1.204,1.417c-0.522-0.443-0.68-0.707-1.251-1.246
		c-0.733-0.693-0.592-2.43-0.808-3.374c-0.677-2.958-1.622-8.175-3.669-10.332c-1.064-1.12-1.992,0.576-3.074,1.476
		C123.115,223.708,122.727,223.267,122.689,223.149L122.689,223.149z"/>
	<path fill-rule="evenodd" clip-rule="evenodd" fill="#F7C408" d="M124.111,217.031c-0.509-1.397,2-5.704,4.007-6.977
		c1.5-0.949,1.88-0.44,2.241,0.681c0.464,1.445,0.996,4.566,2.119,6.032c1.43,1.868,5.566,3.652,6.104,5.816
		c0.229,0.918,0.691,4.342,0.466,5.388c-0.189,0.887-1.836,3.302-2.711,2.729c-0.36-0.236-0.124-4.839-0.944-5.321
		c-1.526-0.896-2.984-2.229-4.233-3.966c-0.936-1.3-0.716-2.084-1.487-3.632c-0.327-0.656-0.781-1.495-1.25-2.152
		c-0.617-0.864-0.672-1.642-1.708-0.529c-0.725,0.779-1.621,2.073-1.73,2.164C124.714,217.489,124.158,217.161,124.111,217.031
		L124.111,217.031z"/>
	<path fill-rule="evenodd" clip-rule="evenodd" fill="#F7C408" d="M122.561,226.543c-0.868,1.463-0.916,1.585-1.523,3.176
		c-0.324,0.848-0.319,1.571-0.422,2.394c-0.102,0.835-0.037,2.062-1.136,2.091c-1.979,0.056-3.856-0.191-5.742-0.152
		c-1.432,0.029-2.677,0.759-2.994,1.938c-0.135,0.503-0.035,1.398,0.462,1.908c1.259-0.67,3.051-0.847,4.334-0.601
		c0.559,0.106,3.031,0.275,4.668,1.944c0.528,0.538,3.395,0.145,5.362,0.111c0.901-0.015,1.883-0.941,2.778-1.285
		c1.152-0.441,1.533-0.608,2.436-0.115c-0.331-2.698-1.233-3.468-2.682-3.875c-0.896-0.252-2.094,0.144-2.278-0.849
		c-0.331-1.787-0.589-2.616,0.313-4.639c0.361-0.811,0.465-2.897-1.352-3.01C123.886,225.522,122.962,225.863,122.561,226.543
		L122.561,226.543z"/>
	<path fill-rule="evenodd" clip-rule="evenodd" fill="#F7C408" d="M129.272,243.14c0.847,0.921,1.289,2.003,1.366,3.961
		c1.06-1.144,2.074-4.462,1.537-6.472c-0.25-0.938-0.973-1.881-1.819-1.99c-1.385-0.181-2.143,0.563-2.223,1.86
		C128.104,240.998,128.213,241.989,129.272,243.14L129.272,243.14z"/>
	<path fill-rule="evenodd" clip-rule="evenodd" fill="#F7C408" d="M114.786,239.337c2.216,0.091,2.007,2.416,0.829,3.505
		c-0.988,0.914-1.407,2.936-1.139,4.479c-1.818-1.213-2.697-2.802-2.798-4.244C111.547,241.222,112.72,239.253,114.786,239.337
		L114.786,239.337z"/>
	<path fill-rule="evenodd" clip-rule="evenodd" fill="#F7C408" d="M107.01,238.754c-2.027-0.256-3.554-0.579-5.392,1.688
		c-0.413-1.636,0.22-3.432,1.75-4.881c0.284-0.268,1.685-1.396,3.467-1.313c1.38,0.065,2.104,1.254,2.048,2.395
		C108.828,237.785,107.991,238.878,107.01,238.754L107.01,238.754z"/>
	<path fill-rule="evenodd" clip-rule="evenodd" fill="#F7C408" d="M160.465,158.83c1.143,1.708,2.775,2.789,4.809,3.767
		c-1.115,3.303-2.505,4.537-4.904,4.52c-2.557-0.02-4.042-1.589-4.913-4.667C157.185,161.878,158.967,160.616,160.465,158.83
		L160.465,158.83z"/>
	<path fill-rule="evenodd" clip-rule="evenodd" fill="#F7C408" d="M163.627,214.103c0.597-0.635,1.073-1.061,2.467-1.771
		c0.49-0.251,1.069-1.496,1.539-1.688c1.41-0.577,3.161-0.569,4.767-0.553c1.278,0.013,2.563-0.081,3.847-1.255
		c1.944-1.777,5.519-4.73,5.646-12.451c0.028-1.698,0.083-2.675-0.019-3.965c-0.125-1.586,1.531-2.574,2.787-0.39
		c0.961,1.672,2.28,0.783,3.181,2.229c1.979,3.179,4.509,7.519,5.943,9.875c0.322,0.527,0.101,1.321,0.314,1.854
		c0.683,1.704-0.371,2.512-1.322,1.577c-0.688-0.675-1.254-2.029-2.021-1.462c-0.728,0.537-0.832,1.809-1.237,2.759
		c-0.868,2.038-1.632,3.074-2.903,4.318c-0.988,0.967-1.763,1.952-2.536,2.979c-0.912,1.213-1.003,3.497-2.365,2.936
		c-0.811-0.333-3.567-3.506-0.454-5.105c4.439-2.282,5.694-7.558,5.699-11.337c0-0.323-0.055-0.883-0.657-1.382
		c-0.641-0.53-1.88-1.096-1.906-0.124c-0.039,1.472,0.245,3.299-2.396,7.034c-1.542,2.182-3.011,3.715-4.396,4.748
		c-0.521,0.388-1.383,0.378-1.797,0.246c-1.397-0.442-1.481-1.076-3.516-1.275c-0.853-0.083-1.343,0.055-1.904,0.223
		c-0.552,0.166-0.871,0.383-1.295,0.688c-0.839,0.604-1.55,1.209-2.022,2.04c-0.32,0.564-0.943,0.801-1.848,0.737
		c-0.335-0.022-0.653-0.052-0.94-0.087C162.867,215.326,162.81,214.976,163.627,214.103L163.627,214.103z"/>
	<path fill-rule="evenodd" clip-rule="evenodd" fill="#F7C408" d="M198.014,223.149c0.406-1.278-0.047-1.832-1.155-3.246
		c-0.863-1.1-2.392-2.653-3.201-1.994c-0.982,0.799-2.074,2.861-2.804,3.953c-0.299,0.447-0.781,1.348-1.064,1.81
		c-1.686,2.749-3.084,8.611-2.612,11.76c0.185,1.226,0.256,2.222,1.204,1.417c0.522-0.443,0.68-0.707,1.251-1.246
		c0.733-0.693,0.593-2.43,0.808-3.374c0.678-2.958,1.622-8.175,3.669-10.332c1.064-1.12,1.992,0.576,3.075,1.476
		C197.588,223.708,197.976,223.267,198.014,223.149L198.014,223.149z"/>
	<path fill-rule="evenodd" clip-rule="evenodd" fill="#F7C408" d="M196.592,217.031c0.508-1.397-2.001-5.704-4.008-6.977
		c-1.5-0.949-1.88-0.44-2.241,0.681c-0.464,1.445-0.995,4.566-2.119,6.032c-1.43,1.868-5.565,3.652-6.104,5.816
		c-0.229,0.918-0.691,4.342-0.466,5.388c0.188,0.887,1.836,3.302,2.711,2.729c0.36-0.236,0.124-4.839,0.944-5.321
		c1.526-0.896,2.983-2.229,4.233-3.966c0.936-1.3,0.716-2.084,1.487-3.632c0.326-0.656,0.78-1.495,1.249-2.152
		c0.617-0.864,0.672-1.642,1.709-0.529c0.725,0.779,1.62,2.073,1.729,2.164C195.989,217.489,196.544,217.161,196.592,217.031
		L196.592,217.031z"/>
	<path fill-rule="evenodd" clip-rule="evenodd" fill="#F7C408" d="M198.142,226.543c0.868,1.463,0.916,1.585,1.523,3.176
		c0.323,0.848,0.318,1.571,0.422,2.394c0.102,0.835,0.037,2.062,1.136,2.091c1.979,0.056,3.856-0.191,5.742-0.152
		c1.431,0.029,2.677,0.759,2.993,1.938c0.135,0.503,0.034,1.398-0.462,1.908c-1.26-0.67-3.051-0.847-4.334-0.601
		c-0.559,0.106-3.031,0.275-4.669,1.944c-0.528,0.538-3.395,0.145-5.362,0.111c-0.9-0.015-1.882-0.941-2.777-1.285
		c-1.152-0.441-1.533-0.608-2.436-0.115c0.33-2.698,1.232-3.468,2.682-3.875c0.896-0.252,2.094,0.144,2.278-0.849
		c0.331-1.787,0.588-2.616-0.314-4.639c-0.36-0.811-0.464-2.897,1.353-3.01C196.817,225.522,197.741,225.863,198.142,226.543
		L198.142,226.543z"/>
	<path fill-rule="evenodd" clip-rule="evenodd" fill="#F7C408" d="M191.431,243.14c-0.848,0.921-1.29,2.003-1.367,3.961
		c-1.06-1.144-2.073-4.462-1.536-6.472c0.25-0.938,0.973-1.881,1.818-1.99c1.386-0.181,2.143,0.563,2.223,1.86
		C192.6,240.998,192.49,241.989,191.431,243.14L191.431,243.14z"/>
	<path fill-rule="evenodd" clip-rule="evenodd" fill="#F7C408" d="M205.917,239.337c-2.217,0.091-2.008,2.416-0.829,3.505
		c0.988,0.914,1.407,2.936,1.139,4.479c1.818-1.213,2.697-2.802,2.799-4.244C209.156,241.222,207.983,239.253,205.917,239.337
		L205.917,239.337z"/>
	<path fill-rule="evenodd" clip-rule="evenodd" fill="#F7C408" d="M213.693,238.754c2.027-0.256,3.555-0.579,5.392,1.688
		c0.413-1.636-0.221-3.432-1.75-4.881c-0.284-0.268-1.685-1.396-3.467-1.313c-1.38,0.065-2.104,1.254-2.048,2.395
		C211.875,237.785,212.711,238.878,213.693,238.754L213.693,238.754z"/>
	<path fill-rule="evenodd" clip-rule="evenodd" fill="#F7C408" d="M149.276,215.89c-1.047,2.198-2.037,4.446-2.968,6.729
		c-4.616,11.315-7.853,23.564-10.076,35.54c-0.34,1.831-0.415,2.761-0.251,3.372c0.277,1.037,1.184,0.604,1.846-0.506
		c0.583-0.978,1.066-2.228,1.208-2.643c0.595-1.732,0.988-3.222,1.582-5.111c0.227-0.721,0.411-1.292,0.665-1.91
		c0.368-0.891,0.88-1.333,1.118,0.081c0.599,3.557-0.445,6.115-1.122,10.22c-0.354,2.148-0.537,7.144,1.787,8.054
		c2.046,0.802,2.25-5.754,2.918-12.195c0.645-6.213,0.635-13.065,1.837-20.667c0.273-1.731,0.553-3.445,0.917-5.085
		c0.476-2.146,1.49-2.713,1.776,0.15c0.208,2.084-0.007,4.078-0.258,6.813c-0.485,5.255-1.598,11.327-1.871,15.754
		c-0.27,4.365-0.499,7.748-0.653,11.623c-0.129,3.241-0.048,7.842,2.502,9.478c1.643,1.054,2.866-1.767,3.674-4.646
		c1.001,3.563,2.559,5.419,3.92,6.364c1.736,1.206,4.157,1.314,5.992,0.234c2.313-1.36,3.623-4.113,4.324-6.599
		c0.809,2.88,2.032,5.7,3.675,4.646c2.551-1.636,2.632-6.236,2.502-9.478c-0.154-3.875-0.383-7.258-0.653-11.623
		c-0.273-4.427-1.386-10.499-1.871-15.754c-0.251-2.734-0.467-4.729-0.258-6.813c0.285-2.863,1.3-2.296,1.775-0.15
		c0.364,1.64,0.645,3.354,0.918,5.085c1.202,7.602,1.192,14.454,1.837,20.667c0.669,6.441,0.872,12.997,2.919,12.195
		c2.323-0.91,2.141-5.905,1.787-8.054c-0.677-4.104-1.721-6.663-1.122-10.22c0.238-1.414,0.75-0.972,1.119-0.081
		c0.253,0.618,0.438,1.189,0.664,1.91c0.594,1.89,0.987,3.379,1.583,5.111c0.141,0.415,0.625,1.665,1.207,2.643
		c0.662,1.11,1.569,1.543,1.846,0.506c0.164-0.611,0.09-1.541-0.25-3.372c-2.223-11.976-5.46-24.225-10.076-35.54
		c-0.931-2.283-1.92-4.531-2.968-6.729c-0.563-1.182-1.815-0.811-2.583,0.143c-2.063,2.563-5.571,3.822-9.197,3.781
		c-3.514-0.038-7.146-1.301-9.142-3.781C151.092,215.079,149.839,214.708,149.276,215.89L149.276,215.89z"/>
	<path fill-rule="evenodd" clip-rule="evenodd" fill="#F7C408" d="M161.418,114.2c0.017-0.818-0.105-1.167,0.19-1.94
		c0.706-1.844,2.493-0.951,2.452-0.09c-0.012,0.232-0.128,1.256,0.158,1.95c0.156,0.38,0.143,1.101,0.783,0.811
		c0.442-0.201,1.106-0.649,1.477-0.859c0.488-0.277,0.862-0.909,0.936-1.683c0.069-0.733,0.593-1.532,1.181-2.058
		c0.491-0.44,1.492-0.812,3.021-1.325c3.182-1.069,5.467-0.845,5.468,0.252l0.005,4.722c0.001,0.608,0.01,1.415-0.18,1.411
		c-1.496-0.037-2.95-0.415-4.705,0.436c-1.07,0.519-1.591,1.615-2.201,2.633c-0.155,0.258-2.337,0.092-3.258,0.23
		c-0.555,0.083-0.777,1.977-0.815,4.295c-0.023,1.441-0.139,2.514,0.614,3.454c0.302,0.378,2.564,1.111,5.362,0.507
		c1.296-0.279,1.668-0.942,1.868-1.575c0.278-0.881,0.433-1.54,1.508-1.514c0.722,0.02,1.227,0.545,1.091,1.517
		c-0.147,1.066-0.691,1.868-1.197,2.462c-1.195,1.409-3.058,1.658-5.269,1.53c-2.311-0.132-4.105-0.279-6.148-0.108
		c-1.131,0.095-0.997,1.617-1.669,2.425c-0.512,0.618-1.12,0.861-1.738,0.689c-0.423-0.117-0.746-0.193-0.786-0.865
		c-0.048-0.813,0.475-1.537,0.989-2.157c1.319-1.588,3.314-2.986,3.615-4.087c0.621-2.269,0.183-4.304-0.367-5.185
		c-0.623-0.997-1.264-1.339-1.677-1.944C161.711,117.531,161.379,116.11,161.418,114.2L161.418,114.2z"/>
	<path fill-rule="evenodd" clip-rule="evenodd" fill="#F7C408" d="M169.702,124.133c2.7-4.151,4.489-1.511,7.543-2.279
		c1.219-0.306,0.945-2.144,2.646-3.623c1.045-0.908,1.907-1.006,3.579-1.518c-1.526-1.263-3.124-1.119-4.161-0.646
		c-0.989,0.451-1.646,2.339-2.834,2.894c-1.015,0.474-3.484-0.105-5.173,0.611C169.481,120.341,168.688,122.34,169.702,124.133
		L169.702,124.133z"/>
	<path fill-rule="evenodd" clip-rule="evenodd" fill="#F7C408" d="M145.04,204.607c2.667-0.047,6.194-0.096,8.797-0.208
		c0.968-0.041,0.942,0.744,1.066,1.487c0.096,0.579,0.342,1.135,0.854,1.257c1.042,0.247,2.85,0.271,4.649,0.27
		c1.799-0.001,3.593-0.03,4.603-0.27c0.513-0.121,0.759-0.678,0.854-1.257c0.124-0.743,0.098-1.528,1.066-1.487
		c2.603,0.112,6.13,0.161,8.797,0.208c1.333,0.023,0.726,2.5-0.519,2.51c-1.562,0.012-3.491,0.015-5.838,0.077
		c-0.223,0.007-0.642,0.463-0.751,1.066c-0.113,0.627-0.414,1.315-1.233,1.399c-2.225,0.229-4.993-0.048-7.708-0.068
		c-2.249-0.019-4.462,0.258-6.296,0.068c-0.819-0.084-1.12-0.772-1.233-1.399c-0.109-0.604-0.528-1.06-0.751-1.066
		c-2.347-0.063-4.277-0.065-5.838-0.077C144.314,207.107,143.707,204.631,145.04,204.607L145.04,204.607z"/>
	<path fill-rule="evenodd" clip-rule="evenodd" fill="#F7C408" d="M156.043,110.355c-2.905-0.176-6.144,1.172-8.275,3.563
		c-2.195,2.461-2.981,7.748-1.375,8.971c0.366,0.278,1.266,0.504,2.019,0.236c1.662-0.592,1.486-1.576,1.779-2.965
		c0.283-1.343,0.872-2.414,1.709-3.237c1.075-1.058,2.542-2.06,4.336-2.177c1.224-0.08,1.896-0.792,2.011-1.789
		C158.43,111.35,157.586,110.447,156.043,110.355L156.043,110.355z"/>
	<path fill-rule="evenodd" clip-rule="evenodd" fill="#F7C408" d="M159.035,121.431c-2.1,0.105-2.116,2.576-4.62,3.442
		c-1.374,0.475-4.582-0.174-5.437-0.069c-0.787,0.097-1.322,0.758-1.158,1.618c0.235,1.233,2.146,1.595,3.474,1.944
		c0.784,0.205,0.155,1.431,1.147,2.131c0.633,0.448,2.505,0.228,3.632-0.543c1.126-0.771,1.939-1.569,2.88-2.74
		c1.129-1.405,1.682-1.789,2.052-3.246C161.381,122.494,160.444,121.36,159.035,121.431L159.035,121.431z"/>
	<path fill-rule="evenodd" clip-rule="evenodd" fill="#F7C408" d="M156.249,116.883c-0.333-0.275-0.565-0.238-0.734-0.106
		c-0.169,0.132-0.317,0.365-0.265,0.651c0.183,0.991-0.521,1.345-1.083,1.313c-0.554-0.033-0.728,0.336-0.798,0.541
		c-0.032,0.094,0.064,0.54,0.475,0.772c0.55,0.312,1.737,0.328,2.445-0.339C157.022,119.025,157.152,117.631,156.249,116.883
		L156.249,116.883z"/>
	<path fill-rule="evenodd" clip-rule="evenodd" fill="#F7C408" d="M132.16,129.399c0.167-0.933,0.771-0.895,1.5-0.94
		c0.938-0.06,2.085-0.14,2.775-1.303c1.016-1.714,0.813-3.396,0.936-5.037c0.109-1.448,0.624-2.821,2.609-2.178
		c2.072,0.671,0.913,4.937,0.657,6.339c-0.449,2.467-2.189,4.079-4.468,4.55C134.051,131.268,132.037,130.093,132.16,129.399
		L132.16,129.399z"/>
	<path fill-rule="evenodd" clip-rule="evenodd" fill="#F7C408" d="M137.872,136.607c0.489,2.006-0.146,3.854-0.691,4.732
		c-1.35,2.174-4.109,2.647-5.816,2.091c-1.836-0.598-1.115-2.285-0.293-2.462c2.938-0.634,1.579-3.609,2.256-5.585
		c0.36-1.051,1.022,0.141,2.051,0.031C136.655,135.278,137.705,135.921,137.872,136.607L137.872,136.607z"/>
	<path fill-rule="evenodd" clip-rule="evenodd" fill="#F7C408" d="M141.032,130.634c-1.503,1.919-1.901,3.103-0.971,4.435
		c0.812,1.163,2.968,1.348,3.876,0.985c1.025-0.409,2.838-4.234,1.935-7.972C144.458,122.229,142.449,128.825,141.032,130.634
		L141.032,130.634z"/>
	<path fill-rule="evenodd" clip-rule="evenodd" fill="#F7C408" d="M148.97,134.296c-0.336,0.389-0.917,1.114-1.53,1.752
		c-0.522,0.543-0.519,2.59-0.502,3.485c0.005,0.246-0.066,1.379,1.009,0.955c1.839-0.726,2.547-0.418,3.675-0.926
		c0.261-0.117,0.763-0.641,1.561-1.398c0.309-0.294,0.966-2.263,1.325-3.031c0.362-0.773,0.284-1.683-0.867-1.776
		C151.485,133.179,149.895,133.223,148.97,134.296L148.97,134.296z"/>
	<path fill-rule="evenodd" clip-rule="evenodd" fill="#F7C408" d="M165.842,133.333c0.079,2.059-0.161,4.232-2.106,5.837
		c-0.522,0.432-2.042,1.25-6.137,1.101c-1.084-0.039-0.433-1.424,0.139-2.036c0.368-0.394-0.047-2.689,1.421-2.624
		c1.256,0.056,3.113-0.051,3.622-2.316c0.12-0.54-0.031-0.864,1.139-0.901C165.087,132.358,165.803,132.333,165.842,133.333
		L165.842,133.333z"/>
	<path fill-rule="evenodd" clip-rule="evenodd" fill="#F7C408" d="M143.465,143.135c-0.214,0.981-0.641,2.025-1.618,2.775
		c-0.608,0.467-1.824,1.271-3.264,1.246c-1.602-0.027-2.397-0.852-2.416-1.408c-0.019-0.543,0.409-0.498,1.666-0.917
		c0.91-0.302,1.495-0.929,1.76-1.734c0.251-0.768,0.083-1.43,0.505-2.174c0.288-0.509,0.802-1.015,1.689-0.963
		C143.439,140.056,143.869,141.285,143.465,143.135L143.465,143.135z"/>
	<path fill-rule="evenodd" clip-rule="evenodd" fill="#F7C408" d="M168.803,140.936c0.22,0.172,0.487,0.451,0.823,0.911
		c0.388,0.53,1.144-0.32,1.418-0.902c0.31-0.655,1.207-2.612,4.558-3.326c0.875-0.186,1.468-0.672,0.187-1.104
		c-0.536-0.18-1.521-0.609-3.138-0.533c-1.285,0.061-2.72,0.557-3.633,1.297c-1.196,0.972-1.8,1.669-1.781,2.311
		C167.268,140.604,168.219,140.479,168.803,140.936L168.803,140.936z"/>
	<path fill-rule="evenodd" clip-rule="evenodd" fill="#F7C408" d="M157.151,169.332c0.223-0.194,0.588,0.207,1.084,0.605
		c0.387,0.31,0.763,0.597,1.147,0.885c0.277,0.207,0.694,0.572,0.862,0.591s0.586-0.384,0.864-0.591
		c0.384-0.288,0.76-0.575,1.147-0.885c0.497-0.398,0.861-0.799,1.083-0.605c0.322,0.28,0.524,0.615,0.946,0.938
		c0.704,0.538,1.687,0.957,2.384,1.154c0.543,0.154,0.842,0.138,0.809,0.867c-0.034,0.769-0.477,2.306-0.567,2.947
		c-0.079,0.277-0.445,0.653-0.763,1.15c-0.408,0.64-0.801,1.389-1.051,1.402c-3.254,0.171-6.447,0.174-9.704,0
		c-0.251-0.013-0.643-0.762-1.051-1.402c-0.317-0.498-0.684-0.874-0.762-1.15c-0.092-0.641-0.534-2.179-0.568-2.947
		c-0.033-0.729,0.266-0.712,0.81-0.867c0.696-0.197,1.679-0.616,2.382-1.154C156.626,169.947,156.83,169.612,157.151,169.332
		L157.151,169.332z"/>
	<path fill-rule="evenodd" clip-rule="evenodd" fill="#F7C408" d="M155.406,181.323c1.749-0.211,3.171-0.3,4.641-0.282
		c1.706,0.051,3.336,0.077,5.038,0.282c0.661,0.08,0.63,1.025,0.04,1.272c-0.473,0.199-0.628,0.69-0.746,1.044
		c-0.489,1.47-0.385,3.382-0.439,4.958c-2.462,0-4.925,0-7.388,0c-0.054-1.576,0.05-3.488-0.439-4.958
		c-0.118-0.354-0.273-0.845-0.747-1.044C154.776,182.348,154.745,181.402,155.406,181.323L155.406,181.323z"/>
	<path fill-rule="evenodd" clip-rule="evenodd" fill="#F7C408" d="M156.981,190.765h6.528c0.51,0,0.527-0.078,0.625,0.433
		c0.115,0.592,0.143,1.054,0.232,1.555c0.114,0.634-0.279,0.966-0.801,1.418l-2.061,1.782c-0.334,0.29-0.796,0.547-1.146,0.525
		c-0.56-0.036-0.926-0.137-1.374-0.525l-2.06-1.782c-0.522-0.452-0.915-0.784-0.801-1.418c0.09-0.501,0.118-0.963,0.232-1.555
		C156.455,190.687,156.472,190.765,156.981,190.765L156.981,190.765z"/>
	<path fill-rule="evenodd" clip-rule="evenodd" fill="#F7C408" d="M156.625,200.934c-0.082-0.49-0.161-0.915-0.245-1.532
		c-0.04-0.29-0.223-0.851,0.375-0.843c2.293,0.031,4.689,0.032,6.982,0c0.598-0.008,0.414,0.553,0.375,0.843
		c-0.086,0.617-0.121,1.042-0.182,1.532c-0.066,0.549-0.034,0.524-0.581,0.601c-2.011,0.285-4.074,0.287-6.087,0.007
		C156.684,201.46,156.718,201.502,156.625,200.934L156.625,200.934z"/>
	<path fill-rule="evenodd" clip-rule="evenodd" fill="#F7C408" d="M163.46,202.479c0.362,0,0.451,0.317,0.41,0.638
		c-0.067,0.526-0.459,1.012-0.929,1.121c-1.373,0.316-2.714,0.692-5.587-0.055c-0.38-0.099-0.829-0.828-0.731-1.288
		c0.059-0.275,0.06-0.415,0.428-0.415L163.46,202.479L163.46,202.479z"/>
	<path fill-rule="evenodd" clip-rule="evenodd" fill="#F7C408" d="M148.769,172.197c0.988-0.37,1.168,0.872,1.192,1.051
		c0.132,0.998,0.255,1.808,0.586,2.519c0.331,0.71,0.87,1.326,1.071,2.123c0.183,0.726,0.06,1.832,0.025,2.728
		c-0.269,0.114-1.944,0.403-3.528,0.74c-2.218,0.473-2.828,0.91-5.872,0.897c-0.993-0.004-2.059,0.151-2.545-1.114
		c-0.257-0.671-0.22-1.604-0.437-2.319c-0.154-0.509-1.815-3.368-1.545-3.702c0.538-0.401,2.636-0.145,4.87-0.613
		C144.962,174.009,148.022,172.477,148.769,172.197L148.769,172.197z"/>
	<path fill-rule="evenodd" clip-rule="evenodd" fill="#F7C408" d="M141.164,185.276c0.214,0.574-0.087,3.691,1.23,3.678
		c3.261-0.035,7.796-0.054,10.976-0.14c0.085-2.355,0.502-3.822-0.333-5.968c-2.525,0.518-3.358,1.456-5.596,1.502
		c-0.767,0.015-2.885-0.115-4.462-0.055C141.751,184.338,140.85,184.428,141.164,185.276L141.164,185.276z"/>
	<path fill-rule="evenodd" clip-rule="evenodd" fill="#F7C408" d="M143.688,195.804c1.27,0.094,3.241,0.192,4.562,0.164
		c1.524-0.032,2.677,0.006,3.717-0.111c0.621-0.069,2.37-0.748,2.344-1.05c-0.079-0.918-0.461-1.347-0.707-1.644
		c-0.354-0.427-0.585-0.433-1.7,0.055c-1.226,0.535-2.731,0.488-3.944,0.486c-1.329-0.003-3.183-0.49-4.433-0.587
		c-0.815-0.063-0.936,0.362-0.958,1.007C142.547,194.728,143.121,195.762,143.688,195.804L143.688,195.804z"/>
	<path fill-rule="evenodd" clip-rule="evenodd" fill="#F7C408" d="M143.02,200.634c0.013,0.077-0.139,0.356,0.741,0.76
		c0.528,0.243,1.194,0.711,1.895,0.589c1.198-0.211,2.347-0.229,3.562-0.191c1.331,0.042,2.652,0.179,4.103-0.107
		c0.517-0.102,1.107-0.556,1.361-1.074c0.259-0.528,0.156-1.13,0.111-1.669c-0.058-0.69-1.179-0.741-1.879-0.642
		c-1.021,0.144-1.033,1.052-2.499,1.327c-1.662,0.312-3.583,0.354-5.272,0.222C144.389,199.789,142.906,199.977,143.02,200.634
		L143.02,200.634z"/>
	<path fill-rule="evenodd" clip-rule="evenodd" fill="#F7C408" d="M171.717,172.197c-0.987-0.37-1.168,0.872-1.192,1.051
		c-0.131,0.998-0.255,1.808-0.586,2.519c-0.33,0.71-0.869,1.326-1.07,2.123c-0.183,0.726-0.06,1.832-0.024,2.728
		c0.269,0.114,1.943,0.403,3.528,0.74c2.218,0.473,2.827,0.91,5.872,0.897c0.992-0.004,2.059,0.151,2.545-1.114
		c0.258-0.671,0.221-1.604,0.438-2.319c0.153-0.509,1.814-3.368,1.545-3.702c-0.537-0.401-2.636-0.145-4.87-0.613
		C175.524,174.009,172.463,172.477,171.717,172.197L171.717,172.197z"/>
	<path fill-rule="evenodd" clip-rule="evenodd" fill="#F7C408" d="M179.322,185.276c-0.214,0.574,0.087,3.691-1.229,3.678
		c-3.261-0.035-7.797-0.054-10.977-0.14c-0.084-2.355-0.501-3.822,0.334-5.968c2.525,0.518,3.357,1.456,5.596,1.502
		c0.768,0.015,2.885-0.115,4.463-0.055C178.735,184.338,179.636,184.428,179.322,185.276L179.322,185.276z"/>
	<path fill-rule="evenodd" clip-rule="evenodd" fill="#F7C408" d="M176.798,195.804c-1.27,0.094-3.241,0.192-4.562,0.164
		c-1.524-0.032-2.677,0.006-3.717-0.111c-0.62-0.069-2.37-0.748-2.344-1.05c0.079-0.918,0.461-1.347,0.707-1.644
		c0.354-0.427,0.585-0.433,1.7,0.055c1.226,0.535,2.73,0.488,3.944,0.486c1.329-0.003,3.183-0.49,4.433-0.587
		c0.815-0.063,0.936,0.362,0.958,1.007C177.939,194.728,177.365,195.762,176.798,195.804L176.798,195.804z"/>
	<path fill-rule="evenodd" clip-rule="evenodd" fill="#F7C408" d="M177.465,200.634c-0.013,0.077,0.14,0.356-0.74,0.76
		c-0.529,0.243-1.194,0.711-1.896,0.589c-1.198-0.211-2.347-0.229-3.563-0.191c-1.33,0.042-2.651,0.179-4.103-0.107
		c-0.517-0.102-1.107-0.556-1.361-1.074c-0.259-0.528-0.155-1.13-0.111-1.669c0.059-0.69,1.18-0.741,1.88-0.642
		c1.021,0.144,1.033,1.052,2.499,1.327c1.662,0.312,3.583,0.354,5.272,0.222C176.097,199.789,177.581,199.977,177.465,200.634
		L177.465,200.634z"/>
	<path fill="#FFFFFF" d="M246.732,99.206c-2.144,1.103-4.957,1.561-6.731,1.561c-3.443,0-6.189-1.042-8.234-3.123
		c-2.04-2.085-3.064-4.648-3.064-7.699c0-3.05,1.077-5.64,3.23-7.767c2.158-2.127,4.972-3.196,8.442-3.196
		c1.771,0,4.507,0.449,6.215,1.007l-1.233,3.609c-1.633-0.615-2.925-0.522-4.35-0.522c-4.256,0-7.314,2.887-7.314,6.776
		c0,3.625,2.72,6.981,6.905,6.981c1.254,0,3.288-0.084,4.617-0.961L246.732,99.206L246.732,99.206z"/>
	<path fill="#FFFFFF" d="M140.874,68.785c-2.144,1.102-4.957,1.56-6.731,1.56c-3.443,0-6.19-1.042-8.234-3.123
		c-2.04-2.085-3.064-4.648-3.064-7.699c0-3.051,1.077-5.64,3.23-7.767c2.158-2.127,4.971-3.196,8.442-3.196
		c1.771,0,4.506,0.448,6.214,1.006l-1.233,3.609c-1.633-0.615-2.926-0.522-4.35-0.522c-4.255,0-7.314,2.886-7.314,6.775
		c0,3.626,2.72,6.981,6.906,6.981c1.253,0,3.289-0.084,4.616-0.961L140.874,68.785L140.874,68.785z"/>
	<path fill="#FFFFFF" d="M73.301,68.879c-2.143,1.103-4.957,1.561-6.731,1.561c-3.443,0-6.19-1.042-8.234-3.123
		c-2.04-2.086-3.064-4.648-3.064-7.699c0-3.05,1.077-5.64,3.23-7.767c2.158-2.127,4.971-3.196,8.443-3.196
		c1.771,0,4.506,0.448,6.214,1.006l-1.233,3.61c-1.633-0.615-2.925-0.522-4.35-0.522c-4.255,0-7.314,2.887-7.314,6.776
		c0,3.625,2.719,6.981,6.906,6.981c1.253,0,3.288-0.084,4.616-0.961L73.301,68.879L73.301,68.879z"/>
	<path fill="#FFFFFF" d="M88.555,48.656c3.306,0,5.986,1.095,8.03,3.278c2.049,2.185,3.074,4.722,3.074,7.622
		c0,2.936-1.039,5.489-3.112,7.647c-2.077,2.158-4.743,3.238-7.992,3.238c-3.287,0-5.967-1.074-8.03-3.222
		c-2.068-2.148-3.102-4.706-3.102-7.663c0-2.905,1.029-5.453,3.078-7.631C82.555,49.746,85.24,48.656,88.555,48.656L88.555,48.656z
		 M88.555,66.411c3.771,0,6.114-3.201,6.114-6.854c0-3.654-2.335-6.76-6.114-6.76c-3.778,0-6.142,3.093-6.142,6.76
		S84.784,66.411,88.555,66.411L88.555,66.411z"/>
	<polygon fill="#FFFFFF" points="118.408,66.274 118.408,70.165 104.178,70.165 104.178,48.93 109.016,48.93 109.016,66.274 
		118.408,66.274 	"/>
	<polygon fill="#FFFFFF" points="163.149,48.93 163.149,70.165 158.312,70.165 158.312,61.579 149.966,61.579 149.966,70.165 
		145.133,70.165 145.133,48.93 149.966,48.93 149.966,57.46 158.312,57.46 158.312,48.93 163.149,48.93 	"/>
	<polygon fill="#FFFFFF" points="185.413,66.18 185.413,70.071 171.103,70.071 171.103,48.837 185.217,48.837 185.217,52.728 
		175.935,52.728 175.935,57.184 184.792,57.184 184.792,61.075 175.935,61.075 175.935,66.18 185.413,66.18 	"/>
	<polygon fill="#FFFFFF" points="173.756,96.696 173.756,100.587 159.446,100.587 159.446,79.353 173.562,79.353 173.562,83.244 
		164.279,83.244 164.279,87.7 173.135,87.7 173.135,91.591 164.279,91.591 164.279,96.696 173.756,96.696 	"/>
	<polygon fill="#FFFFFF" points="213.616,100.587 208.775,100.587 208.775,79.353 222.89,79.353 222.89,83.244 213.608,83.244 
		213.608,87.7 222.464,87.7 222.464,91.591 213.608,91.591 213.616,100.587 	"/>
	<polygon fill="#FFFFFF" points="245.907,66.275 245.907,70.166 231.596,70.166 231.596,48.931 245.712,48.931 245.712,52.822 
		236.43,52.822 236.43,57.279 245.285,57.279 245.285,61.17 236.43,61.17 236.43,66.275 245.907,66.275 	"/>
	<path fill="#FFFFFF" d="M204.369,49.626l-0.002,3.544c-2.131-0.614-3.897-0.856-4.885-0.876c-0.654-0.014-1.604-0.004-2.434,0.327
		c-0.829,0.331-1.354,0.796-1.354,1.696c0,1.461,1.716,2.25,2.939,2.879c3.325,1.711,6.532,3.192,6.442,7.256
		c-0.044,2.05-1.236,3.371-2.442,4.278c-1.332,1.001-3.432,1.526-5.897,1.526c-2.346,0-4.237-0.267-5.634-0.66l-0.001-4.107
		c1.752,0.795,3.387,1.134,5.289,1.113c1.493-0.021,2.846-0.366,2.846-1.931c0-0.449-0.1-0.719-0.332-1.082
		c-1.013-1.579-3.486-2.179-4.998-3.188c-1.839-1.228-3.26-2.91-3.294-5.2c-0.065-4.48,4.095-6.537,8.003-6.537
		C200.632,48.664,202.314,48.989,204.369,49.626L204.369,49.626z"/>
	<polygon fill-rule="evenodd" clip-rule="evenodd" fill="#FFFFFF" points="225.853,52.818 220.11,52.818 220.11,70.162 
		215.273,70.162 215.273,52.818 209.538,52.818 209.538,48.927 225.853,48.927 225.853,52.818 	"/>
	<polygon fill-rule="evenodd" clip-rule="evenodd" fill="#FFFFFF" points="153.827,83.145 148.084,83.145 148.084,100.489 
		143.247,100.489 143.247,83.145 137.511,83.145 137.511,79.254 153.827,79.254 153.827,83.145 	"/>
	<path fill="#FFFFFF" d="M252.385,48.931h9.81c3.543,0,6.152,2.58,6.161,6.112c0.006,2.441-0.92,4.547-3.951,5.72l6.128,9.403
		h-5.796l-4.796-8.237h-2.718v8.237h-4.838V48.931L252.385,48.931z M257.223,52.822v5.5h3.41c1.528,0,2.983-0.997,3.031-2.718
		c0.043-1.598-1.017-2.782-2.86-2.782H257.223L257.223,52.822z"/>
	<path fill="#FFFFFF" d="M89.675,79.255h4.838v12.812c0,5.406-3.153,8.697-8.753,8.697c-5.516,0-8.768-3.33-8.768-8.666V79.255
		h4.848v13.252c0,2.138,1.453,3.847,3.863,3.847c2.649,0,3.972-1.925,3.972-4.215V79.255L89.675,79.255z"/>
	<polygon fill="#FFFFFF" points="118.654,79.35 118.654,100.584 113.065,100.584 104.987,85.845 104.987,100.584 100.153,100.584 
		100.153,79.35 106.098,79.35 113.816,93.277 113.816,79.35 118.654,79.35 	"/>
	<polygon fill="#FFFFFF" points="130.576,79.35 130.576,100.584 125.738,100.584 125.738,79.35 130.576,79.35 	"/>
	<path fill="#FFFFFF" d="M178.955,79.35h7.659c3.307,0,5.923,0.991,7.846,2.973c1.922,1.98,2.884,4.54,2.884,7.684
		c0,3.294-0.977,5.88-2.926,7.761c-1.948,1.878-4.736,2.817-8.344,2.817h-7.119V79.35L178.955,79.35z M183.793,83.241v13.452h2.251
		c2.045,0,3.612-0.617,4.696-1.847c1.082-1.228,1.627-2.854,1.627-4.871c0-2.086-0.549-3.734-1.646-4.934
		c-1.098-1.2-2.677-1.8-4.734-1.8H183.793L183.793,83.241z"/>
</g>
</svg>
