<?xml version="1.0" encoding="utf-8"?>
<!-- Generator: Adobe Illustrator 14.0.0, SVG Export Plug-In . SVG Version: 6.00 Build 43363)  -->
<svg version="1.2" baseProfile="tiny" id="Layer_1" xmlns:svg="http://www.w3.org/2000/svg"
	 xmlns="http://www.w3.org/2000/svg" xmlns:xlink="http://www.w3.org/1999/xlink" x="0px" y="0px" width="585px" height="590px"
	 viewBox="0 0 585 590" xml:space="preserve">
<path id="path2464" d="M576.143,293.429c0,156.271-126.728,283-283,283c-156.273,0-283-126.729-283-283
	c0-156.272,126.727-283,283-283C449.416,10.43,576.143,137.157,576.143,293.429"/>
<path id="path2466" fill="#FFFFFF" d="M559.898,293.429c0,147.33-119.427,266.756-266.756,266.756
	c-147.331,0-266.756-119.426-266.756-266.756c0-147.329,119.425-266.755,266.756-266.755
	C440.472,26.674,559.898,146.1,559.898,293.429"/>
<path id="path2468" fill="#ED1A38" d="M549.087,293.429c0,141.33-114.614,255.945-255.944,255.945
	c-141.33,0-255.946-114.615-255.946-255.945S151.812,37.483,293.143,37.483C434.474,37.483,549.087,152.099,549.087,293.429"/>
<path id="path2470" fill="#FFFFFF" d="M438.039,293.429c0,80.032-64.863,144.896-144.896,144.896
	c-80.033,0-144.896-64.863-144.896-144.896s64.863-144.896,144.896-144.896C373.176,148.533,438.039,213.396,438.039,293.429"/>
<path id="path2472" d="M427.172,293.429c0,74.032-59.996,134.029-134.029,134.029c-74.033,0-134.029-59.997-134.029-134.029
	s59.996-134.029,134.029-134.029C367.176,159.399,427.172,219.396,427.172,293.429"/>
<path id="path2474" fill="#FFFFFF" d="M532.391,398.139l-67.863-24.111c-0.905-0.396-99.616-42.563-112.351-80.712
	c-2.152-6.452-1.642-12.282,1.528-17.715c24.395-41.941,160.574-46.129,161.932-46.186c0.962,0,1.755-0.679,2.038-1.585
	c0.226-0.906-0.169-1.868-0.963-2.377c-0.792-0.51-78.447-47.431-141.782-48.733c-58.254-1.146-113.627,25.288-122.495,29.758
	c-43.395-34.334-83.588-14.248-83.981-14.023c-0.566,0.283-0.963,0.85-1.132,1.471c-8.081,39.355,16.422,69.446,22.306,75.988
	c-4.493,6.951-22.96,37.679-23.721,75.756c-1.641,82.75,78.618,200.308,79.467,201.497c0.51,0.792,1.528,1.131,2.491,0.792
	c0.905-0.284,1.471-1.189,1.415-2.15c-0.113-1.529-11.095-150.727,25.696-189.667c5.887-6.17,12.395-9.113,20.037-9
	c75.899,1.528,134.877,130.406,135.5,131.708c-0.018-0.018-0.033-0.046-0.049-0.071c0.399,1.029,1.519,1.583,2.595,1.261
	c1.133-0.283,1.813-1.473,1.474-2.604c-7.415-27.451-4.869-48.053,7.696-61.184c26.375-27.564,88.354-14.095,88.976-13.98
	c1.132,0.226,2.264-0.396,2.547-1.472C534.088,399.668,533.466,398.534,532.391,398.139z"/>
<path id="path2476" fill="#A59560" d="M439.113,413.308c-10.923,11.42-14.979,27.782-12.124,48.754
	c-18.314-34.913-68.493-117.942-131.865-119.221c-8.773-0.169-16.641,3.339-23.263,10.358
	c-33.449,35.387-29.233,152.599-27.403,184.82c-16.798-26.007-75.616-122.146-74.25-192.234
	c0.849-41.148,23.715-74.542,23.941-74.883c0.566-0.849,0.454-1.981-0.282-2.717c-0.281-0.336-30.442-30.842-22.502-72.359
	c6.105-2.643,41.47-15.927,79.441,14.853c0.679,0.566,1.642,0.623,2.378,0.227c0.623-0.283,59.542-31.073,121.689-29.885
	c51.706,1.036,113.473,33.294,133.193,44.398c-29.521,1.473-135.646,9.38-158.098,47.973c-3.791,6.509-4.414,13.697-1.868,21.281
	c13.302,39.96,110.711,81.561,114.842,83.314c0.072,0.037,27.926,9.951,47.966,17.084
	C489.493,393.314,457.17,394.412,439.113,413.308z"/>
<path id="path2478" fill="#FFFFFF" d="M117.23,260.206c-0.849,2.434-2.717,5.037-4.472,6.905c-3.678,4.019-6.621,4.358-11.829,4.755
	l-28.526,2.038c-3.454,0.226-6.227,0.849-8.831,2.942l-0.226-0.056l3.339-15.565h0.113l34.526-1.698l0.057-0.169l-18.564-9.283
	c-1.358-0.679-3.793-1.981-5.264-2.264c-2.151-0.452-6.339,0.17-8.094,1.642l-0.169-0.056l3.227-15.112l0.226,0.056
	c0.283,0.227,0.736,0.454,1.133,0.566c2.773,0.566,5.377,0.283,8.15,0l25.017-1.754l0.057-0.227l-20.093-10.641
	c-1.641-0.906-3.678-2.095-5.49-2.491c-2.15-0.453-4.188,0.227-5.887,1.302l-0.226-0.057l2.604-12.168l0.226,0.056L123.004,234
	c-1.131,2.491-2.83,4.754-4.583,6.792c-2.832,3.227-5.548,3.906-9.565,4.246l-18.509,1.528L117.23,260.206"/>
<path id="path2480" fill="#FFFFFF" d="M103.76,188.72l-0.057,0.056l10.244,11.32l4.924-8.716L103.76,188.72 M118.871,205.303
	l3.51,3.962c1.018,1.188,2.603,3,3.961,3.735c1.812,1.019,3.283,0.339,4.869-0.283l0.226,0.114l-7.415,13.13l-0.169-0.113
	c-0.85-3.679-2.265-5.603-4.868-8.546l-20.603-23.206c-1.076-1.075-2.999-3.509-4.357-4.302c-1.699-0.962-3.51-0.453-5.095,0.396
	l-0.169-0.113l8.83-15.735l39.733,6.452c4.98,0.736,6.623,1.245,12.112-0.509l0.113,0.057l0.057,0.057l-10.867,19.357l-0.169-0.114
	c-0.171-2.038-0.396-3.679-2.434-4.811c-1.133-0.623-1.471-0.679-2.717-0.849l-7.415-1.358L118.871,205.303z"/>
<path id="path2482" fill="#FFFFFF" d="M155.888,163.08c2.378-0.962,4.359-2.83,6.169-4.754c2.775-2.943,4.303-5.831,4.756-9.849
	l5.603,9.113l-21.849,23.375l-0.169-0.17c0.792-4.188-2.547-6.622-5.377-9.226l-19.979-18.678c-2.832-2.66-5.492-5.887-9.624-4.812
	l-0.169-0.113l13.471-14.433l0.169,0.113c-0.792,4.189,2.604,6.679,5.49,9.339L155.888,163.08"/>
<path id="path2484" fill="#FFFFFF" d="M167.264,145.364c5.321,0.396,11.603-1.188,15.905-4.302c2.717-1.867,5.716-5.376,3.34-8.716
	c-5.208-7.302-22.414,7.188-31.924-6.227c-2.433-3.396-3.112-7.923-1.753-11.829c1.528-4.358,4.698-7.698,8.376-10.301
	c3.34-2.376,7.358-4.358,11.32-5.376l4.98,7.02c-3.678,0.169-7.471,1.075-10.47,3.226c-2.321,1.642-4.472,4.698-2.435,7.528
	c2.038,2.831,6.284,1.528,9.17,0.906c3.793-0.792,7.302-1.585,11.208-1.189c4.64,0.453,8.092,2.038,10.809,5.887
	c2.775,3.906,3.624,8.49,2.152,13.131c-1.699,5.037-5.151,8.32-9.396,11.376c-3.962,2.773-8.434,4.868-13.132,6.056L167.264,145.364
	"/>
<path id="path2486" fill="#FFFFFF" d="M211.752,91.65h-0.113l0.792,15.225l9.283-3.623L211.752,91.65 M212.884,114.007l0.169,5.321
	c0.057,1.528,0.169,3.962,0.679,5.377c0.792,1.925,2.378,2.377,3.962,2.886l0.113,0.227l-14.037,5.434l-0.056-0.169
	c1.642-3.396,1.755-5.773,1.642-9.735l-1.189-30.96c-0.169-1.528-0.113-4.641-0.679-6.056c-0.679-1.867-2.435-2.604-4.132-3
	l-0.056-0.17l16.754-6.566l26.658,30.225c3.339,3.736,4.302,5.207,9.622,7.302l0.056,0.113l0.058,0.057l-20.716,8.094l-0.057-0.227
	c1.188-1.641,2.038-3.056,1.188-5.263c-0.452-1.189-0.736-1.472-1.584-2.377l-4.811-5.773L212.884,114.007z"/>
<path id="path2488" fill="#FFFFFF" d="M268.352,104.952c2.434,0.792,5.151,0.622,7.812,0.282c3.962-0.566,7.018-1.754,9.904-4.584
	l-1.471,10.584l-31.752,4.131v-0.226c3.283-2.717,2.207-6.735,1.755-10.528l-3.567-27.167c-0.508-3.793-0.508-8.037-4.357-9.792
	l-0.057-0.227l19.584-2.547l0.056,0.227c-3.283,2.717-2.207,6.792-1.755,10.641L268.352,104.952"/>
<path id="path2490" fill="#FFFFFF" d="M305.143,103.65c2.264,1.302,4.98,1.584,7.642,1.754c4.019,0.283,7.188-0.34,10.584-2.547
	l-3.453,10.131l-31.923-2.094v-0.227c3.736-2.038,3.511-6.169,3.736-10.018l1.811-27.338c0.227-3.792,1.02-7.924-2.433-10.472
	v-0.226l19.752,1.302l-0.057,0.226c-3.733,2.038-3.452,6.283-3.733,10.132L305.143,103.65"/>
<path id="path2492" fill="#FFFFFF" d="M362.591,113.951c-1.472,4.019-2.604,7.131-0.679,10.98l-0.113,0.226l-18.565-7.075
	l0.058-0.169c4.188-0.906,5.15-4.924,6.509-8.547l9.735-25.64c1.357-3.565,3.339-7.301,0.734-10.641l0.059-0.17l24.054,9.113
	c1.021,0.395,2.15,0.792,3.057,0.678l0.169,0.057l-3.735,9.961l-0.227-0.057c-0.623-3.962-4.697-5.037-8.094-6.283l-2.149-0.849
	l-4.245,11.15l5.037,1.868c1.02,0.397,1.925,0.679,2.659,0.623l0.34,0.114l-3.622,9.622l-0.34-0.113
	c0.057-2.944-2.772-3.906-5.264-4.813l-1.358-0.566L362.591,113.951"/>
<path id="path2494" fill="#FFFFFF" d="M425.927,117.687c-1.699-4.019-4.529-7.471-8.207-9.905
	c-8.491-5.434-15.282-0.227-20.093,7.245c-5.546,8.49-5.887,18.056,3.283,23.998c4.811,3.114,10.356,4.189,15.902,4.642
	l-8.886,7.019c-4.754-1.529-9.112-3.792-13.243-6.509c-6.284-4.075-10.869-8.547-13.076-16.018
	c-2.149-7.075-0.904-14.49,3.171-20.772c3.678-5.66,9.962-10.075,16.754-11.094c7.3-0.962,14.715,1.754,20.771,5.66l8.773,6.849
	L425.927,117.687"/>
</svg>
