<?xml version="1.0" encoding="UTF-8" standalone="no"?>
<!-- Created with Inkscape (http://www.inkscape.org/) -->

<svg
   xmlns:dc="http://purl.org/dc/elements/1.1/"
   xmlns:cc="http://creativecommons.org/ns#"
   xmlns:rdf="http://www.w3.org/1999/02/22-rdf-syntax-ns#"
   xmlns:svg="http://www.w3.org/2000/svg"
   xmlns="http://www.w3.org/2000/svg"
   xmlns:sodipodi="http://sodipodi.sourceforge.net/DTD/sodipodi-0.dtd"
   xmlns:inkscape="http://www.inkscape.org/namespaces/inkscape"
   width="250"
   height="332.40839"
   viewBox="0 0 250 332.40838"
   id="svg3538"
   version="1.1"
   inkscape:version="0.91 r13725"
   sodipodi:docname="Rotherham United FC.svg">
  <defs
     id="defs3540">
    <clipPath
       clipPathUnits="userSpaceOnUse"
       id="clipPath94">
      <path
         d="m 32.863,798.9427 61.66,0 0,-77.3919 -61.66,0"
         id="path96"
         inkscape:connector-curvature="0" />
    </clipPath>
    <clipPath
       clipPathUnits="userSpaceOnUse"
       id="clipPath102">
      <path
         d="m 38.072,795.1591 0,-68.6133 89.8131,0 0,68.6133"
         id="path104"
         inkscape:connector-curvature="0" />
    </clipPath>
  </defs>
  <sodipodi:namedview
     id="base"
     pagecolor="#ffffff"
     bordercolor="#666666"
     borderopacity="1.0"
     inkscape:pageopacity="0.0"
     inkscape:pageshadow="2"
     inkscape:zoom="0.35"
     inkscape:cx="-541.31947"
     inkscape:cy="340.02585"
     inkscape:document-units="px"
     inkscape:current-layer="layer1"
     showgrid="false"
     fit-margin-top="0"
     fit-margin-left="0"
     fit-margin-right="0"
     fit-margin-bottom="0"
     units="px"
     inkscape:window-width="1366"
     inkscape:window-height="705"
     inkscape:window-x="-8"
     inkscape:window-y="-8"
     inkscape:window-maximized="1" />
  <metadata
     id="metadata3543">
    <rdf:RDF>
      <cc:Work
         rdf:about="">
        <dc:format>image/svg+xml</dc:format>
        <dc:type
           rdf:resource="http://purl.org/dc/dcmitype/StillImage" />
        <dc:title></dc:title>
      </cc:Work>
    </rdf:RDF>
  </metadata>
  <g
     inkscape:label="Layer 1"
     inkscape:groupmode="layer"
     id="layer1"
     transform="translate(-62.033762,-539.9797)">
    <g
       transform="matrix(4.8446639,0,0,-4.8446639,-122.41243,4392.2583)"
       id="g90">
      <g
         id="g92"
         clip-path="url(#clipPath94)">
        <g
           id="g98">
          <g
             id="g100"
             clip-path="url(#clipPath102)">
            <path
               d="m 63.0863,726.9434 c -0.1099,0.0466 -2.7377,1.1775 -6.2973,4.0461 -3.2129,2.5891 -7.9012,7.1987 -11.9913,14.4542 -5.3658,9.5185 -6.6149,20.2714 -6.718,27.6161 -0.1111,7.91 1.0208,13.5667 1.0691,13.8036 l 0.1826,0.8963 0.7474,0.527 c 0.1019,0.0717 2.5409,1.7781 6.5961,3.4692 3.723,1.5525 9.6116,3.4032 16.522,3.4032 6.8784,0 13.124,-1.8223 17.152,-3.3509 4.3751,-1.6603 7.1185,-3.3163 7.2332,-3.3859 l 0.8518,-0.5169 0.2065,-0.9758 c 0.0458,-0.2162 1.1229,-5.3927 1.029,-12.9389 -0.0869,-6.9666 -1.2413,-17.3525 -6.2459,-27.2688 -3.8134,-7.5551 -8.5763,-12.4918 -11.9006,-15.3028 -3.66,-3.0949 -6.4579,-4.3953 -6.5751,-4.4491 l -0.9253,-0.4242"
               style="fill:#231f20;fill-opacity:1;fill-rule:nonzero;stroke:none"
               id="path106"
               inkscape:connector-curvature="0" />
            <path
               d="m 63.5365,728.0038 c -0.104,0.0442 -2.59,1.1147 -6.0246,3.8828 -3.1343,2.5258 -7.7103,7.0263 -11.7107,14.1229 -5.2464,9.3068 -6.4684,19.8558 -6.5696,27.0664 -0.1093,7.791 0.9988,13.3258 1.0461,13.5576 l 0.0913,0.4481 0.3737,0.2635 c 0.0977,0.0688 2.4365,1.7047 6.3757,3.3475 3.6259,1.5121 9.3587,3.3145 16.0785,3.3145 6.7038,0 12.8052,-1.7815 16.7432,-3.2761 4.2671,-1.6193 6.9322,-3.2256 7.0436,-3.2933 l 0.4263,-0.2586 0.1032,-0.4878 c 0.0448,-0.2119 1.0964,-5.2749 1.004,-12.6864 -0.0853,-6.8447 -1.2168,-17.0444 -6.1222,-26.7636 -3.7261,-7.3825 -8.3735,-12.2007 -11.6161,-14.9424 -3.5439,-2.9968 -6.2006,-4.231 -6.3118,-4.2819 l -0.4624,-0.2121"
               style="fill:#ffffff;fill-opacity:1;fill-rule:nonzero;stroke:none"
               id="path108"
               inkscape:connector-curvature="0" />
            <path
               d="m 41.4065,786.4036 c 0,0 9.1507,6.4514 21.7904,6.4514 12.6396,0 23.1893,-6.4021 23.1893,-6.4021 0,0 4.2843,-20.2584 -5.0199,-38.6926 -7.0439,-13.9564 -17.3796,-18.6962 -17.3796,-18.6962 0,0 -9.6113,4.0814 -17.1819,17.5112 -9.9256,17.6071 -5.3983,39.8283 -5.3983,39.8283"
               style="fill:#e21d25;fill-opacity:1;fill-rule:nonzero;stroke:none"
               id="path110"
               inkscape:connector-curvature="0" />
            <path
               d="m 53.2862,753.0691 c 0,0 3.63,21.581 5.4118,26.531 1.7819,4.9498 5.2799,7.9196 5.2799,7.9196 0,0 4.884,-4.1578 6.4679,-9.3056 1.5837,-5.1477 4.0917,-25.0132 4.0917,-25.0132"
               style="fill:#ffffff;fill-opacity:1;fill-rule:nonzero;stroke:none"
               id="path112"
               inkscape:connector-curvature="0" />
            <path
               d="m 53.2862,753.0691 c 0,0 3.63,21.581 5.4118,26.531 1.7819,4.9498 5.2799,7.9196 5.2799,7.9196 0,0 4.884,-4.1578 6.4679,-9.3056 1.5837,-5.1477 4.0917,-25.0132 4.0917,-25.0132 l -21.2513,-0.1318 z"
               style="fill:none;stroke:#231f20;stroke-width:1.15209997;stroke-linecap:butt;stroke-linejoin:miter;stroke-miterlimit:4;stroke-dasharray:none;stroke-opacity:1"
               id="path114"
               inkscape:connector-curvature="0" />
            <path
               d="m 74.2735,756.6329 c 0,0 -2.6529,4.9022 -10.2296,4.8333 -7.1294,-0.0646 -10.4277,-4.8333 -10.4277,-4.8333"
               style="fill:none;stroke:#231f20;stroke-width:0.8064;stroke-linecap:butt;stroke-linejoin:miter;stroke-miterlimit:4;stroke-dasharray:none;stroke-opacity:1"
               id="path116"
               inkscape:connector-curvature="0" />
            <path
               d="m 73.4816,761.6487 c 0,0 -3.6958,3.9596 -9.4377,3.7619 -5.7418,-0.198 -8.9757,-3.2999 -8.9757,-3.2999"
               style="fill:none;stroke:#231f20;stroke-width:0.8064;stroke-linecap:butt;stroke-linejoin:miter;stroke-miterlimit:4;stroke-dasharray:none;stroke-opacity:1"
               id="path118"
               inkscape:connector-curvature="0" />
            <path
               d="m 66.0239,758.8267 c 0,-0.9017 -0.7311,-1.6329 -1.6331,-1.6329 l -0.2982,0 c -0.9017,0 -1.6327,0.7312 -1.6327,1.6329 l 0,3.5321 c 0,0.9018 0.731,1.6328 1.6327,1.6328 l 0.2982,0 c 0.902,0 1.6331,-0.731 1.6331,-1.6328"
               style="fill:#231f20;fill-opacity:1;fill-rule:nonzero;stroke:none"
               id="path120"
               inkscape:connector-curvature="0" />
            <path
               d="m 76.3853,747.3273 c 0,-6.8524 -5.5551,-12.4074 -12.4075,-12.4074 -6.8525,0 -12.4075,5.555 -12.4075,12.4074 0,6.8525 5.555,12.4076 12.4075,12.4076 6.8524,0 12.4075,-5.5551 12.4075,-12.4076"
               style="fill:#ffffff;fill-opacity:1;fill-rule:nonzero;stroke:none"
               id="path122"
               inkscape:connector-curvature="0" />
            <path
               d="m 76.3853,747.3273 c 0,-6.8524 -5.5551,-12.4074 -12.4075,-12.4074 -6.8525,0 -12.4075,5.555 -12.4075,12.4074 0,6.8525 5.555,12.4076 12.4075,12.4076 6.8524,0 12.4075,-5.5551 12.4075,-12.4076 z"
               style="fill:none;stroke:#231f20;stroke-width:1.15209997;stroke-linecap:butt;stroke-linejoin:miter;stroke-miterlimit:4;stroke-dasharray:none;stroke-opacity:1"
               id="path124"
               inkscape:connector-curvature="0" />
            <path
               d="m 61.4699,741.9154 c 0,0 -4.4878,1.98 -6.4017,3.564 -1.914,1.5837 -3.2339,3.4978 -3.2339,3.4978"
               style="fill:none;stroke:#231f20;stroke-width:1.15209997;stroke-linecap:butt;stroke-linejoin:miter;stroke-miterlimit:4;stroke-dasharray:none;stroke-opacity:1"
               id="path126"
               inkscape:connector-curvature="0" />
            <path
               d="m 63.9118,746.5353 c 0,0 -4.2897,1.2541 -6.4017,3.3 -2.1119,2.0458 -3.8279,4.1577 -3.8279,4.1577"
               style="fill:none;stroke:#231f20;stroke-width:1.15209997;stroke-linecap:butt;stroke-linejoin:miter;stroke-miterlimit:4;stroke-dasharray:none;stroke-opacity:1"
               id="path128"
               inkscape:connector-curvature="0" />
            <path
               d="m 56.4541,737.8237 c 0,0 7.9859,4.2239 7.9198,9.7018 -0.0661,5.4777 -7.5898,9.7014 -7.5898,9.7014"
               style="fill:none;stroke:#231f20;stroke-width:1.15209997;stroke-linecap:butt;stroke-linejoin:miter;stroke-miterlimit:4;stroke-dasharray:none;stroke-opacity:1"
               id="path130"
               inkscape:connector-curvature="0" />
            <path
               d="m 63.1859,734.9857 c 0,0 5.1478,4.2239 6.2038,8.3817 1.0561,4.1581 0.33,5.544 0.33,5.544"
               style="fill:none;stroke:#231f20;stroke-width:1.15209997;stroke-linecap:butt;stroke-linejoin:miter;stroke-miterlimit:4;stroke-dasharray:none;stroke-opacity:1"
               id="path132"
               inkscape:connector-curvature="0" />
            <path
               d="m 75.3955,752.0791 c 0,0 -3.4309,1.9139 -5.8738,1.9139 -3.6299,0 -6.4018,-1.9797 -6.4018,-1.9797"
               style="fill:none;stroke:#231f20;stroke-width:1.15209997;stroke-linecap:butt;stroke-linejoin:miter;stroke-miterlimit:4;stroke-dasharray:none;stroke-opacity:1"
               id="path134"
               inkscape:connector-curvature="0" />
            <path
               d="m 71.4356,757.161 c 0,0 -3.63,0.7922 -6.6658,0 -3.0358,-0.792 -4.8838,-2.0458 -4.8838,-2.0458"
               style="fill:none;stroke:#231f20;stroke-width:1.15209997;stroke-linecap:butt;stroke-linejoin:miter;stroke-miterlimit:4;stroke-dasharray:none;stroke-opacity:1"
               id="path136"
               inkscape:connector-curvature="0" />
            <path
               d="m 76.2535,748.1192 c 0,0 -1.0561,1.1219 -2.838,1.188 -1.7819,0.0661 -3.6958,-0.8578 -3.6958,-0.8578 0,0 -0.66,1.0557 -2.508,1.1878 -1.8478,0.132 -2.9699,-0.66 -2.9699,-0.66"
               style="fill:none;stroke:#231f20;stroke-width:1.15209997;stroke-linecap:butt;stroke-linejoin:miter;stroke-miterlimit:4;stroke-dasharray:none;stroke-opacity:1"
               id="path138"
               inkscape:connector-curvature="0" />
            <path
               d="m 49.4985,768.3473 6.9628,6.963 -6.9626,6.9627 7.4834,7.4835 6.9627,-6.9627 6.9627,6.9627 7.4837,-7.4835 -6.9629,-6.9627 6.9629,-6.963 -7.4837,-7.4835 -6.9627,6.963 -6.9629,-6.963"
               style="fill:#ffffff;fill-opacity:1;fill-rule:nonzero;stroke:none"
               id="path140"
               inkscape:connector-curvature="0" />
            <path
               d="m 70.9075,790.4896 -6.9627,-6.9626 -6.9627,6.9626 -8.2166,-8.2166 6.9627,-6.9627 -6.9628,-6.963 8.2165,-8.2166 6.9629,6.963 6.9627,-6.963 8.2168,8.2166 -6.9629,6.963 6.9629,6.9627 -8.2168,8.2166 z m 0,-1.4663 6.7506,-6.7503 -6.2298,-6.2296 -0.7333,-0.7331 0.7333,-0.7333 6.2298,-6.2297 -6.7506,-6.7504 -6.2294,6.2299 -0.7333,0.7333 -0.7331,-0.7333 -6.2298,-6.2299 -6.7502,6.7504 6.2296,6.2297 0.7332,0.7333 -0.7332,0.7331 -6.2295,6.2296 6.7503,6.7503 6.2296,-6.2295 0.7331,-0.7331 0.7333,0.7331 6.2294,6.2295"
               style="fill:#231f20;fill-opacity:1;fill-rule:nonzero;stroke:none"
               id="path142"
               inkscape:connector-curvature="0" />
            <path
               d="m 56.1792,782.0424 0.8067,0.8068 c 0.2877,0.2877 0.6286,0.7326 0.1532,1.208 -0.3342,0.3342 -0.7026,0.3519 -1.292,-0.2374 l -0.7226,-0.7226 1.0547,-1.0548 z m -3.8608,0.7739 2.9394,2.9396 c 0.8771,0.877 2.1472,1.1222 3.1499,0.1195 0.5496,-0.5496 0.8904,-1.3674 0.5787,-2.0801 0.5919,0.25 1.3417,0.0195 2.0588,-0.5854 0.281,-0.239 0.9192,-0.8632 1.3047,-0.968 l -1.5435,-1.5434 c -0.3445,0.1902 -0.6473,0.4369 -0.9432,0.6907 -0.5471,0.4629 -1.1164,0.9481 -1.7268,0.3377 l -0.8208,-0.8208 1.8491,-1.8493 -1.5434,-1.5434"
               style="fill:#231f20;fill-opacity:1;fill-rule:nonzero;stroke:none"
               id="path144"
               inkscape:connector-curvature="0" />
            <path
               d="m 72.5725,779.4622 c -1.4707,-1.4704 -2.9267,-1.4255 -4.4564,0.104 -1.5295,1.5294 -1.5814,2.9926 -0.1109,4.4633 l 3.2531,3.2531 1.5435,-1.5435 -2.8891,-2.8892 c -0.5422,-0.5421 -1.2182,-1.218 -0.4676,-1.9687 0.7298,-0.7295 1.4058,-0.0536 1.9477,0.4884 l 2.8893,2.8892 1.5433,-1.5435"
               style="fill:#231f20;fill-opacity:1;fill-rule:nonzero;stroke:none"
               id="path146"
               inkscape:connector-curvature="0" />
            <path
               d="m 52.0834,768.4578 3.8726,3.8726 1.3591,-1.3591 -2.329,-2.3293 0.661,-0.661 1.9995,1.9995 1.2626,-1.2626 -1.9995,-1.9995 2.0201,-2.0201 -1.5433,-1.5433"
               style="fill:#231f20;fill-opacity:1;fill-rule:nonzero;stroke:none"
               id="path148"
               inkscape:connector-curvature="0" />
            <path
               d="m 72.5287,768.0404 c 0.165,0.2213 0.6116,0.9482 -0.0268,1.5868 -0.7226,0.7226 -1.697,0.2112 -2.4099,-0.5017 -0.713,-0.713 -1.2241,-1.6871 -0.5015,-2.4096 0.5191,-0.5194 1.1089,-0.3364 1.6976,0.0698 l 1.5153,-1.5153 c -1.0694,-1.0697 -3.0265,-1.385 -4.493,0.0812 -1.6204,1.6206 -1.329,3.7501 0.2381,5.3175 1.6712,1.6709 3.7742,1.7812 5.3175,0.2379 1.3677,-1.3826 1.3602,-2.9052 0.164,-4.3679"
               style="fill:#231f20;fill-opacity:1;fill-rule:nonzero;stroke:none"
               id="path150"
               inkscape:connector-curvature="0" />
            <path
               d="m 66.6008,775.2442 c 0,-1.4945 -1.2115,-2.7059 -2.7058,-2.7059 -1.4945,0 -2.7058,1.2114 -2.7058,2.7059 0,1.4945 1.2113,2.706 2.7058,2.706 1.4943,0 2.7058,-1.2115 2.7058,-2.706"
               style="fill:#231f20;fill-opacity:1;fill-rule:nonzero;stroke:none"
               id="path152"
               inkscape:connector-curvature="0" />
          </g>
        </g>
      </g>
    </g>
  </g>
</svg>
