<?xml version="1.0" encoding="utf-8"?>
<!-- Generator: Adobe Illustrator 14.0.0, SVG Export Plug-In . SVG Version: 6.00 Build 43363)  -->
<!DOCTYPE svg PUBLIC "-//W3C//DTD SVG 1.1//EN" "http://www.w3.org/Graphics/SVG/1.1/DTD/svg11.dtd">
<svg version="1.1" id="Layer_1" xmlns="http://www.w3.org/2000/svg" xmlns:xlink="http://www.w3.org/1999/xlink" x="0px" y="0px"
	 width="56.75px" height="57.083px" viewBox="0 0 56.75 57.083" enable-background="new 0 0 56.75 57.083" xml:space="preserve">
<g>
	<g>
		<defs>
			<rect id="SVGID_1_" x="0.725" y="-6.294" width="70.865" height="66.614"/>
		</defs>
		<clipPath id="SVGID_2_">
			<use xlink:href="#SVGID_1_"  overflow="visible"/>
		</clipPath>
		<path clip-path="url(#SVGID_2_)" fill="#FFFFFF" d="M54.971,28.66c0,14.612-11.848,26.459-26.459,26.459
			c-14.613,0-26.459-11.847-26.459-26.459c0-14.613,11.846-26.46,26.459-26.46C43.123,2.2,54.971,14.047,54.971,28.66"/>
		<path clip-path="url(#SVGID_2_)" fill="#005DAA" d="M23.503,48.367l-0.656-0.159l-0.77,3.222l0.018,0.005l2.085,0.498l0.141-0.591
			l-1.445-0.344L23.503,48.367z M35.919,47.609l0.663,1.847l-1.858-1.421l-0.563,0.203l1.112,3.117l0.638-0.228l-0.662-1.853
			l1.856,1.427l0.011-0.005l0.555-0.199l-1.114-3.116L35.919,47.609z M18.205,49.988l0.652,0.267l0.403-0.463l1.052,0.432
			l-0.04,0.609l0.013,0.006l0.642,0.263l0.134-3.525l-0.484-0.197L18.205,49.988z M20.363,49.625l-0.708-0.29l0.783-0.886
			L20.363,49.625z M33.391,49.294c-0.07-0.177-0.189-0.326-0.363-0.442c-0.139-0.1-0.288-0.165-0.442-0.2
			c-0.081-0.019-0.162-0.027-0.25-0.027c-0.082,0-0.166,0.008-0.254,0.024c-0.181,0.031-0.337,0.09-0.473,0.176
			c-0.134,0.086-0.253,0.198-0.349,0.338c-0.117,0.167-0.177,0.347-0.181,0.54v0.035c0,0.187,0.028,0.449,0.089,0.782
			c0.061,0.355,0.127,0.619,0.196,0.796c0.068,0.177,0.188,0.327,0.354,0.446c0.139,0.098,0.29,0.164,0.446,0.2
			c0.08,0.016,0.163,0.025,0.249,0.025c0.082,0,0.168-0.008,0.254-0.023c0.182-0.033,0.338-0.091,0.473-0.176
			c0.132-0.085,0.25-0.2,0.346-0.338c0.121-0.173,0.186-0.357,0.189-0.546c-0.001-0.009,0-0.016,0-0.027
			c0-0.184-0.033-0.447-0.091-0.785C33.521,49.735,33.457,49.47,33.391,49.294 M32.999,50.844c0,0.063-0.006,0.115-0.02,0.16
			c-0.011,0.044-0.028,0.087-0.055,0.126c-0.077,0.129-0.197,0.206-0.361,0.237c-0.039,0.005-0.075,0.009-0.111,0.009
			c-0.042,0-0.082-0.004-0.122-0.013c-0.074-0.017-0.138-0.047-0.189-0.092c-0.04-0.029-0.07-0.062-0.094-0.098
			c-0.026-0.035-0.05-0.086-0.073-0.147c-0.022-0.063-0.046-0.141-0.067-0.236c-0.021-0.095-0.047-0.224-0.074-0.387
			c-0.028-0.164-0.051-0.294-0.064-0.393c-0.012-0.094-0.017-0.169-0.017-0.231v-0.013c0.002-0.064,0.008-0.12,0.019-0.164
			c0.012-0.042,0.029-0.084,0.053-0.118c0.035-0.063,0.084-0.113,0.147-0.155s0.134-0.068,0.217-0.085
			c0.04-0.005,0.077-0.01,0.114-0.01c0.115,0.002,0.217,0.037,0.305,0.108c0.039,0.029,0.072,0.064,0.1,0.102
			c0.025,0.037,0.049,0.084,0.07,0.142c0.025,0.059,0.048,0.137,0.07,0.236c0.021,0.098,0.046,0.228,0.074,0.387
			c0.028,0.158,0.049,0.287,0.062,0.39c0.013,0.092,0.018,0.169,0.018,0.23V50.844z M29.173,48.98l0.158,3.307l0.019-0.001
			l0.656-0.033l-0.159-3.305L29.173,48.98z M27.068,48.939l-1.327-0.108l-0.264,3.302l1.386,0.109
			c0.042,0.004,0.082,0.005,0.121,0.005h0.002c0.248,0,0.462-0.066,0.634-0.199c0.201-0.153,0.313-0.383,0.336-0.682
			c0.003-0.035,0.004-0.064,0.004-0.095c0-0.156-0.033-0.288-0.103-0.399c-0.072-0.115-0.164-0.207-0.271-0.275
			c0.097-0.044,0.186-0.117,0.271-0.219c0.098-0.115,0.152-0.256,0.164-0.424c0.002-0.035,0.003-0.068,0.003-0.102
			c0-0.238-0.071-0.441-0.219-0.603C27.637,49.067,27.391,48.963,27.068,48.939 M27.286,51.281c-0.01,0.113-0.052,0.2-0.127,0.268
			c-0.065,0.056-0.15,0.086-0.262,0.086c-0.016,0-0.032,0-0.051-0.001l-0.648-0.053l0.062-0.765l0.648,0.051
			c0.135,0.01,0.231,0.054,0.295,0.13c0.057,0.068,0.085,0.148,0.085,0.245C27.288,51.253,27.287,51.268,27.286,51.281
			 M27.347,49.928c-0.008,0.108-0.049,0.191-0.124,0.252c-0.065,0.05-0.147,0.077-0.254,0.077c-0.018,0-0.035-0.001-0.053-0.002
			l-0.606-0.049l0.056-0.716l0.607,0.047c0.13,0.012,0.226,0.052,0.291,0.122c0.057,0.063,0.085,0.137,0.085,0.231
			C27.349,49.902,27.349,49.915,27.347,49.928 M28.512,2.536c-14.428,0-26.124,11.696-26.124,26.123
			c0,14.427,11.696,26.125,26.124,26.125c14.427,0,26.123-11.698,26.123-26.125C54.635,14.231,42.938,2.536,28.512,2.536
			 M28.512,53.778c-13.874,0-25.119-11.246-25.119-25.12c0-13.872,11.245-25.119,25.119-25.119s25.119,11.247,25.119,25.119
			C53.631,42.532,42.386,53.778,28.512,53.778 M34.127,9.179c0.143,0.049,0.271,0.074,0.383,0.077c0.035,0.001,0.066,0,0.099-0.003
			c0.131-0.014,0.264-0.047,0.399-0.094l0.005-0.003l0.132,0.326l0.764,0.255l-0.353-0.847c0.138-0.083,0.256-0.192,0.359-0.325
			c0.103-0.139,0.192-0.309,0.271-0.512l0.007-0.017l-0.564-0.186l-0.007,0.016c-0.079,0.215-0.184,0.368-0.308,0.46l-0.304-0.737
			c0.037-0.01,0.081-0.023,0.128-0.039c0.054-0.017,0.096-0.031,0.127-0.041c0.127-0.041,0.232-0.096,0.316-0.164
			c0.086-0.067,0.146-0.159,0.185-0.273c0.026-0.081,0.041-0.163,0.042-0.24c0.002-0.125-0.025-0.245-0.09-0.36
			c-0.101-0.187-0.276-0.319-0.518-0.399c-0.121-0.039-0.234-0.061-0.343-0.062c-0.119-0.004-0.233,0.016-0.338,0.062
			c-0.192,0.084-0.328,0.235-0.397,0.45c-0.025,0.075-0.037,0.15-0.04,0.223c-0.001,0.053,0.003,0.105,0.015,0.157
			c0.023,0.113,0.063,0.233,0.115,0.358c-0.193,0.052-0.361,0.127-0.504,0.221c-0.148,0.099-0.251,0.24-0.313,0.419
			c-0.039,0.123-0.061,0.238-0.063,0.347c-0.003,0.157,0.03,0.3,0.102,0.433C33.556,8.903,33.788,9.07,34.127,9.179 M34.721,6.734
			c0.022-0.07,0.061-0.119,0.118-0.147c0.029-0.017,0.063-0.024,0.102-0.023c0.029,0,0.061,0.006,0.094,0.017
			c0.074,0.025,0.124,0.064,0.152,0.123c0.018,0.035,0.026,0.071,0.025,0.108c0,0.025-0.005,0.052-0.014,0.078
			c-0.016,0.046-0.043,0.081-0.087,0.112c-0.043,0.031-0.098,0.056-0.162,0.073c-0.02,0.009-0.043,0.016-0.076,0.024
			c-0.024,0.008-0.045,0.012-0.065,0.016c-0.043-0.099-0.071-0.175-0.087-0.23c-0.009-0.032-0.012-0.061-0.012-0.087
			C34.71,6.775,34.714,6.753,34.721,6.734 M33.979,8.083c0.032-0.096,0.083-0.17,0.153-0.219c0.068-0.049,0.164-0.092,0.286-0.128
			l0.368,0.884c-0.086,0.036-0.165,0.053-0.24,0.058H34.5c-0.064-0.002-0.132-0.014-0.203-0.037
			c-0.129-0.042-0.224-0.115-0.284-0.22c-0.039-0.067-0.058-0.136-0.055-0.21C33.959,8.17,33.966,8.127,33.979,8.083 M28.522,6.441
			l1.259,1.922h0.593V5.129h-0.669v1.916l-1.259-1.916h-0.593v3.234h0.669V6.441z M44.912,16.636l1.186,1.803l0.496-0.325
			l-0.828-1.259l0.619-0.407l0.704,1.072l0.495-0.325l-0.704-1.072l0.597-0.392l0.827,1.258l0.495-0.326l-1.194-1.818l-2.702,1.775
			L44.912,16.636z M41.366,11.854c-0.078,0.139-0.117,0.295-0.117,0.463c0,0.026,0.001,0.055,0.005,0.085
			c0.013,0.167,0.056,0.322,0.13,0.462c0.072,0.14,0.179,0.27,0.317,0.386c0.139,0.12,0.279,0.203,0.431,0.253
			c0.118,0.038,0.244,0.059,0.376,0.059c0.034,0,0.065-0.001,0.099-0.004c0.207-0.014,0.385-0.079,0.529-0.193
			c0.144-0.116,0.329-0.305,0.557-0.572c0.231-0.269,0.391-0.485,0.481-0.643c0.073-0.134,0.112-0.282,0.112-0.444
			c0-0.034-0.003-0.07-0.007-0.106c-0.014-0.167-0.058-0.322-0.13-0.461c-0.07-0.141-0.177-0.27-0.313-0.387
			c-0.14-0.118-0.282-0.202-0.432-0.252c-0.122-0.042-0.249-0.061-0.384-0.061c-0.032,0-0.062,0.001-0.095,0.005
			c-0.199,0.012-0.373,0.079-0.521,0.194c-0.146,0.115-0.333,0.307-0.562,0.574C41.615,11.479,41.456,11.693,41.366,11.854
			 M41.891,12.397c0-0.039,0.004-0.077,0.015-0.111c0.012-0.041,0.032-0.089,0.065-0.147c0.031-0.054,0.077-0.12,0.135-0.195
			c0.061-0.077,0.142-0.175,0.246-0.298c0.105-0.122,0.191-0.221,0.256-0.29c0.067-0.071,0.124-0.125,0.176-0.164
			c0.048-0.04,0.092-0.069,0.134-0.087s0.082-0.03,0.125-0.035c0.02-0.004,0.043-0.006,0.064-0.006c0.046,0,0.094,0.008,0.144,0.023
			c0.07,0.024,0.137,0.062,0.2,0.115c0.126,0.109,0.19,0.235,0.192,0.38v0.022c0,0.04-0.005,0.078-0.015,0.115
			c-0.012,0.042-0.032,0.091-0.063,0.145c-0.029,0.054-0.075,0.119-0.135,0.196c-0.061,0.078-0.142,0.178-0.245,0.299
			c-0.101,0.116-0.186,0.214-0.254,0.285c-0.069,0.074-0.126,0.129-0.174,0.167c-0.049,0.038-0.095,0.065-0.135,0.085
			c-0.04,0.018-0.083,0.029-0.131,0.036c-0.023,0.003-0.049,0.004-0.071,0.004c-0.117,0-0.229-0.043-0.335-0.134
			c-0.064-0.055-0.111-0.115-0.146-0.181c-0.031-0.068-0.048-0.134-0.048-0.201V12.397z M39.427,9.961l0.905,0.559l-0.7,1.139
			l0.014,0.01L40.2,12.01l1.694-2.753l-0.568-0.35l-0.686,1.112l-0.907-0.558l0.688-1.113l-0.57-0.351l-1.695,2.752l0.57,0.353
			L39.427,9.961z M43.915,15.419l0.013-0.006l3.132-1.316l-0.46-0.524l-1.956,0.872l1.109-1.831l-0.459-0.521l-1.708,2.95
			L43.915,15.419z M24.604,7.845c0.06,0.177,0.169,0.327,0.328,0.453c0.132,0.103,0.276,0.173,0.43,0.215
			c0.099,0.027,0.202,0.04,0.314,0.04c0.059,0,0.121-0.005,0.184-0.011c0.183-0.023,0.339-0.072,0.478-0.149
			c0.137-0.077,0.257-0.182,0.361-0.314c0.127-0.162,0.199-0.337,0.213-0.522c0.002-0.042,0.005-0.086,0.005-0.136
			c0-0.17-0.019-0.39-0.05-0.661c-0.045-0.351-0.096-0.612-0.151-0.788c-0.059-0.177-0.17-0.326-0.335-0.451
			c-0.133-0.103-0.277-0.174-0.427-0.216c-0.1-0.026-0.204-0.04-0.313-0.04c-0.061,0-0.123,0.005-0.186,0.013
			c-0.183,0.022-0.34,0.071-0.479,0.149c-0.137,0.077-0.259,0.181-0.363,0.314c-0.124,0.155-0.192,0.329-0.207,0.516
			C24.401,6.303,24.4,6.353,24.4,6.408c0,0.17,0.017,0.386,0.051,0.652C24.493,7.408,24.545,7.668,24.604,7.845 M25.068,6.353
			c0.005-0.064,0.013-0.116,0.027-0.158c0.014-0.042,0.034-0.081,0.059-0.116c0.036-0.056,0.089-0.104,0.153-0.14
			c0.064-0.038,0.139-0.062,0.222-0.072c0.026-0.002,0.054-0.005,0.082-0.005c0.128,0,0.235,0.039,0.326,0.119
			c0.037,0.032,0.067,0.066,0.09,0.104c0.025,0.038,0.047,0.085,0.066,0.144c0.018,0.058,0.037,0.135,0.052,0.232
			c0.018,0.098,0.037,0.225,0.057,0.382c0.019,0.155,0.031,0.282,0.039,0.382c0.006,0.062,0.008,0.119,0.008,0.167
			c0,0.027,0,0.052-0.002,0.074c-0.005,0.062-0.014,0.112-0.027,0.156c-0.014,0.042-0.035,0.082-0.063,0.12
			c-0.083,0.121-0.204,0.192-0.369,0.212c-0.027,0.003-0.056,0.005-0.08,0.005c-0.054,0-0.104-0.007-0.152-0.02
			c-0.072-0.021-0.132-0.054-0.183-0.1c-0.037-0.03-0.065-0.063-0.087-0.099c-0.021-0.036-0.043-0.085-0.063-0.147
			c-0.021-0.061-0.039-0.139-0.055-0.234c-0.017-0.093-0.034-0.221-0.055-0.38c-0.021-0.162-0.033-0.29-0.041-0.387
			c-0.005-0.061-0.008-0.115-0.008-0.164C25.065,6.401,25.066,6.375,25.068,6.353 M13.284,15.294l-0.94-0.862l0.287-0.315
			l1.368,0.394l0.008-0.009l0.515-0.561l-1.515-0.401c0.044-0.111,0.066-0.226,0.066-0.346c0-0.054-0.005-0.108-0.014-0.163
			c-0.03-0.184-0.127-0.351-0.287-0.496c-0.1-0.092-0.213-0.163-0.333-0.208c-0.104-0.041-0.215-0.06-0.328-0.06
			c-0.017,0-0.032,0-0.05,0.001c-0.129,0.007-0.26,0.043-0.39,0.106c-0.127,0.064-0.245,0.158-0.357,0.278l-0.869,0.951l2.388,2.184
			L13.284,15.294z M11.933,14.055l-0.599-0.547l0.392-0.427c0.089-0.097,0.188-0.149,0.298-0.161c0.012,0,0.025-0.001,0.036-0.001
			c0.096,0,0.181,0.035,0.263,0.111c0.09,0.082,0.134,0.175,0.134,0.286s-0.044,0.215-0.134,0.313L11.933,14.055z M11.656,17.347
			c0.135-0.207,0.203-0.41,0.203-0.614c0-0.046-0.003-0.09-0.01-0.136c-0.038-0.246-0.181-0.449-0.427-0.611
			c-0.149-0.096-0.29-0.145-0.428-0.145c-0.016,0-0.028,0-0.042,0.002c-0.135,0.01-0.257,0.046-0.365,0.107
			c0.001-0.014,0.001-0.028,0.001-0.043c0-0.091-0.022-0.192-0.062-0.295c-0.051-0.136-0.146-0.25-0.287-0.341
			c-0.166-0.111-0.336-0.165-0.507-0.165c-0.064,0-0.133,0.009-0.2,0.026c-0.238,0.061-0.442,0.228-0.617,0.494l-0.721,1.106
			l2.711,1.769L11.656,17.347z M9.974,16.375l-0.329,0.504l-0.587-0.382l0.328-0.506c0.071-0.109,0.153-0.173,0.244-0.195
			c0.026-0.008,0.051-0.011,0.077-0.011c0.063,0,0.128,0.02,0.19,0.062c0.091,0.059,0.143,0.134,0.157,0.226
			c0.004,0.016,0.006,0.034,0.006,0.052C10.061,16.202,10.032,16.285,9.974,16.375 M10.144,17.207l0.354-0.54
			c0.071-0.112,0.155-0.176,0.251-0.196h0.001c0.023-0.004,0.048-0.008,0.073-0.008c0.07,0,0.141,0.023,0.209,0.068
			c0.093,0.059,0.147,0.137,0.17,0.235c0.006,0.022,0.008,0.047,0.008,0.069c0,0.076-0.026,0.157-0.083,0.241l-0.352,0.541
			L10.144,17.207z M15.1,13.437l0.494-0.423l-2.103-2.458l-0.509,0.434l2.104,2.46L15.1,13.437z M22.135,6.61l0.703,2.546
			l0.644-0.175L22.78,6.434l0.818-0.226l-0.16-0.57l-2.277,0.627l0.156,0.571L22.135,6.61z M15.432,11.075
			c0.192,0.292,0.356,0.504,0.487,0.635c0.134,0.131,0.298,0.218,0.495,0.259c0.082,0.016,0.164,0.024,0.243,0.024
			c0.242,0,0.475-0.074,0.693-0.219c0.308-0.204,0.494-0.479,0.558-0.82c0.014-0.063,0.02-0.126,0.02-0.188
			c0-0.095-0.015-0.19-0.044-0.282c-0.047-0.154-0.138-0.328-0.269-0.528L17.35,9.562l-1.035,0.688l0.31,0.464l0.478-0.318
			l0.054,0.079c0.046,0.068,0.078,0.14,0.103,0.215c0.014,0.05,0.022,0.1,0.022,0.148c0,0.022-0.003,0.045-0.006,0.066
			c-0.025,0.157-0.108,0.281-0.253,0.377c-0.1,0.066-0.199,0.098-0.296,0.098c-0.04,0-0.08-0.004-0.12-0.014
			c-0.046-0.012-0.086-0.029-0.123-0.051c-0.034-0.021-0.076-0.057-0.121-0.105c-0.047-0.048-0.098-0.109-0.153-0.185
			c-0.059-0.078-0.131-0.184-0.22-0.319c-0.091-0.133-0.16-0.245-0.211-0.327s-0.086-0.153-0.11-0.212
			c-0.024-0.057-0.04-0.108-0.046-0.153c-0.004-0.02-0.005-0.043-0.005-0.063c0-0.022,0.002-0.044,0.005-0.066
			c0.021-0.146,0.098-0.263,0.235-0.355c0.098-0.064,0.188-0.099,0.274-0.108c0.019-0.004,0.043-0.004,0.068-0.004
			c0.074,0,0.164,0.01,0.268,0.032l0.016,0.002l0.131-0.625l-0.017-0.003c-0.122-0.024-0.235-0.037-0.341-0.037
			c-0.074,0-0.147,0.006-0.213,0.019c-0.159,0.031-0.332,0.108-0.516,0.23c-0.293,0.194-0.473,0.458-0.541,0.789
			c-0.016,0.069-0.022,0.14-0.022,0.208c0,0.12,0.022,0.235,0.068,0.346C15.104,10.55,15.234,10.783,15.432,11.075 M19.729,10.377
			l-0.55-1.221l0.969-0.436l0.553,1.221l0.017-0.007l0.592-0.268l-1.331-2.949l-0.611,0.275l0.54,1.191l-0.97,0.438l-0.539-1.192
			L17.79,7.704l1.332,2.95L19.729,10.377z M39.29,30.295c0.268,0,0.483-0.31,0.483-0.31s-0.216-0.308-0.483-0.308
			c-0.267,0-0.482,0.308-0.482,0.308S39.023,30.295,39.29,30.295 M51.912,25.603c-0.321-0.172-0.814-0.4-1.521-0.697
			c-0.728-0.304-2.232-0.784-3.791-1.2C44.426,15.75,37.154,9.903,28.512,9.903c-9.681,0-17.646,7.336-18.646,16.75
			c-0.954,0.142-1.865,0.253-2.656,0.336c-1.566,0.163-2.653,0.221-2.655,0.222c-0.059,0.003-0.104,0.048-0.112,0.105
			c-0.001,0.005-0.001,0.011-0.001,0.02c-0.004,0.086,0.057,0.445,0.65,0.747c0.592,0.308,1.713,0.587,3.885,0.589
			c0.245,0,0.506-0.007,0.779-0.013c0,10.358,8.396,18.755,18.756,18.755c10.357,0,18.755-8.397,18.755-18.755
			c0-1.177-0.115-2.329-0.321-3.446c1.928,0.426,4.354,0.977,5.136,0.979c0.083-0.002,0.149-0.005,0.206-0.024
			c0.051-0.011,0.126-0.054,0.129-0.142C52.386,25.856,52.229,25.789,51.912,25.603 M52.081,26.013
			c-1.225,0.002-6.856-1.459-7.656-1.462c-1.25,0.008-4.063,1.552-5.524,2.501c-0.425,0.278-0.858,0.529-1.281,0.75
			c0.107,0.006,0.217,0.015,0.321,0.029c0.889,0.106,1.677,0.45,2.314,0.917c0.821,0.612,1.67,1.362,2.18,1.462
			c0.024,0.002,0.052,0.004,0.081,0.008h0.002c0.726,0.068,2.803,0.582,2.738,1.811c0,0-1.446-0.437-3.18-0.14
			c-0.683,0.146-1.679,0.238-3.187,0.718c-1.428,0.45-5.153,1.862-8.065,1.863c-2.216-0.002-6.693-1.277-9.277-1.496
			c-0.154-0.013-0.307-0.021-0.46-0.021c-1.967-0.002-3.656,1.032-4.501,1.043c-0.762,0-2.098-0.13-3.406-1.1
			c-0.995-0.744-1.73-1.831-1.74-2.636c-0.002-0.269,0.094-0.519,0.304-0.684c0.148-0.113,0.356-0.136,0.63-0.139
			c1.014,0.001,3.021,0.441,5.402,0.44c1.416,0,2.957-0.154,4.486-0.647c0.355-0.114,1.423-0.363,2.111-0.536
			c0.182,0.124,0.374,0.258,0.588,0.406c0.021,0.015,0.043,0.022,0.065,0.022c0.039,0,0.075-0.019,0.099-0.05
			c0.038-0.055,0.023-0.128-0.028-0.166c-1.324-0.922-1.953-1.434-4.168-1.428c-1.411,0-3.475,0.196-6.817,0.597
			c-2.169,0.259-3.844,0.36-5.135,0.36c-2.152,0.001-3.242-0.281-3.775-0.561c-0.329-0.173-0.45-0.336-0.493-0.434
			c0.774-0.048,4.641-0.319,8.057-1.075c3.877-0.862,9.948-3.288,12.776-3.283c1.054-0.007,2.881,1.08,4.691,2.299
			c1.822,1.215,3.64,2.554,4.8,3.04c0.06,0.024,0.129-0.003,0.153-0.063c0.026-0.06-0.003-0.129-0.063-0.155
			c-0.664-0.278-1.587-0.87-2.611-1.561c1.405-0.665,6.279-3.591,9.768-3.589c1.659-0.003,6.567,1.394,8.043,2.016
			c0.703,0.296,1.195,0.521,1.507,0.69c0.155,0.083,0.268,0.151,0.334,0.203c0.021,0.015,0.038,0.031,0.049,0.043
			C52.182,26.01,52.138,26.013,52.081,26.013"/>
		<path clip-path="url(#SVGID_2_)" fill="#FDB913" d="M42.076,31.889c1.733-0.297,3.18,0.14,3.18,0.14
			c0.068-1.281-2.188-1.785-2.821-1.819c0,0,0.327,0.68-1.436,0.814c0,0-0.823-0.019-1.16,0.283c0,0,1.622-0.124,2.192,0.51
			L42.076,31.889z"/>
	</g>
</g>
</svg>
