<?xml version="1.0" encoding="utf-8"?>
<!-- Generator: Adobe Illustrator 14.0.0, SVG Export Plug-In . SVG Version: 6.00 Build 43363)  -->
<!DOCTYPE svg PUBLIC "-//W3C//DTD SVG 1.1//EN" "http://www.w3.org/Graphics/SVG/1.1/DTD/svg11.dtd">
<svg version="1.1" id="Logo" xmlns="http://www.w3.org/2000/svg" xmlns:xlink="http://www.w3.org/1999/xlink" x="0px" y="0px"
	 width="400.256px" height="400.256px" viewBox="0 0 400.256 400.256" enable-background="new 0 0 400.256 400.256"
	 xml:space="preserve">
<g>
	<polygon fill-rule="evenodd" clip-rule="evenodd" fill="#E01C28" points="362.504,6.586 37.022,6.586 37.022,26.059 69.791,81.355 
		330.467,81.355 363.233,26.059 363.233,6.586 362.504,6.586 	"/>
	<polygon fill-rule="evenodd" clip-rule="evenodd" fill="#FFFFFF" points="360.316,7.315 37.752,7.315 37.752,25.86 70.206,80.625 
		330.052,80.625 362.504,25.86 362.504,7.315 360.316,7.315 	"/>
	<path fill-rule="evenodd" clip-rule="evenodd" fill="#171D43" d="M42.566,12.13c0,3.448,0,11.329,0,12.412
		c0.699,1.179,28.949,48.847,30.384,51.27c2.94,0,251.417,0,254.359,0c1.433-2.423,29.68-50.091,30.381-51.27
		c0-1.083,0-8.964,0-12.412C352.567,12.13,47.691,12.13,42.566,12.13L42.566,12.13z"/>
	<path fill-rule="evenodd" clip-rule="evenodd" fill="#E01C28" d="M330.992,86.024H68.535v217.595
		c0,4.488,2.079,19.223,11.573,33.311c7.787,11.557,22.682,25.334,49.411,25.334c52.396,0,67.903,26.529,68.053,26.799l2.551,4.607
		l2.561-4.609c0.15-0.268,15.658-26.797,68.056-26.797c26.729,0,41.624-13.777,49.41-25.334
		c9.494-14.09,11.574-28.822,11.574-33.311V86.024H330.992L330.992,86.024z"/>
	<path fill-rule="evenodd" clip-rule="evenodd" fill="#FFFFFF" d="M328.805,86.753H69.266v216.866
		c0,4.426,2.056,18.967,11.447,32.904c7.688,11.41,22.397,25.012,48.807,25.012c53.037,0,68.541,26.898,68.69,27.172l1.915,3.459
		l1.922-3.459c0.15-0.273,15.654-27.172,68.692-27.172c26.409,0,41.116-13.602,48.806-25.012
		c9.391-13.939,11.447-28.479,11.447-32.904V86.753H328.805L328.805,86.753z"/>
	<path fill-rule="evenodd" clip-rule="evenodd" fill="#171D43" d="M74.079,91.568c0,5.124,0,212.051,0,212.051
		c0,10.535,9.866,53.1,55.44,53.1c45.277,0,64.519,18.531,70.609,26.32c6.093-7.789,25.333-26.32,70.61-26.32
		c45.573,0,55.439-42.564,55.439-53.1c0,0,0-206.927,0-212.051C321.087,91.568,79.17,91.568,74.079,91.568L74.079,91.568z"/>
	<path fill-rule="evenodd" clip-rule="evenodd" fill="#E01C28" d="M123.099,356.395c2.064,0.193,4.188,0.324,6.421,0.324
		c19.099,0,33.548,3.303,44.349,7.699c0-111.815,0-156.097,0-272.85c-18.231,0-35.687,0-50.77,0V356.395L123.099,356.395z"/>
	<path fill-rule="evenodd" clip-rule="evenodd" fill="#E01C28" d="M226.389,364.418c10.802-4.396,25.251-7.699,44.351-7.699
		c2.232,0,4.354-0.131,6.418-0.324V91.568c-15.081,0-32.538,0-50.769,0C226.389,208.321,226.389,252.603,226.389,364.418
		L226.389,364.418z"/>
	<path fill-rule="evenodd" clip-rule="evenodd" fill="#F2E641" d="M123.1,136.21c0,0,0,151.432,0,159.75
		c0,9.19,8.314,16.194,17.069,16.194h119.919c8.757,0,17.069-7.004,17.069-16.194c0-8.317,0-159.75,0-159.75H123.1L123.1,136.21z"/>
	<path fill-rule="evenodd" clip-rule="evenodd" d="M163.365,230.582h10.176c0,0-0.657,5.007-5.007,5.007
		C165.662,235.589,163.365,230.582,163.365,230.582L163.365,230.582z"/>
	<path fill-rule="evenodd" clip-rule="evenodd" d="M161.148,243.139c0-2.871,2.052-2.052,2.052-2.052v-2.46
		c0,0-2.954-1.151-4.76-1.151c-3.291-0.294-5.334,1.067-8.207,3.94c-1.943,3.308-6.729,3.282-6.729-4.268
		c0-0.821,7.714-7.549,15.593-9.19c2.79,0,14.332,0,14.332,0s-2.023-5.252-9.736-5.252c-3.086,0-7.558,1.041-11.82,3.026
		c-0.926-1.594-2.186-3.942-2.951-6.145c-3.693,3.693-2.955,9.683-2.955,9.683l0.112-0.026c-3.06,2.4-5.431,5.439-6.21,9.09
		c-3.356,1.131-10.643,4.016-10.643,7.678c5.949-0.942,9.229-2.078,10.575-2.628c1.686,9.212,12.73,8.535,12.73,8.535
		s-0.985,10.342,6.073,10.342c0-3.938,0-10.668,0-10.668s4.76-1.314,4.76,2.79c1.641,0,2.625,0,2.625,0
		S168.288,246.012,161.148,243.139L161.148,243.139z"/>
	<path fill-rule="evenodd" clip-rule="evenodd" fill="#FFFFFF" d="M168.534,235.589c-2.872,0-5.169-5.007-5.169-5.007h10.176
		c0,0-0.165,1.166-0.812,2.37c1.521-1.721,2.067-3.189,2.067-3.626c0-0.927-1.367-1.368-1.367-1.368s-11.542,0-14.332,0
		l-7.412,2.863c-4.683,2.553-8.181,5.775-8.181,6.328c0,7.55,4.785,7.576,6.729,4.268c2.873-2.874,4.916-4.235,8.207-3.94
		c1.806,0,4.76,1.151,4.76,1.151c2.937-0.893,5.173-2.067,6.868-3.287C169.614,235.493,169.111,235.589,168.534,235.589
		L168.534,235.589z"/>
	<path fill-rule="evenodd" clip-rule="evenodd" d="M236.894,230.582h-10.176c0,0,0.656,5.007,5.005,5.007
		C234.597,235.589,236.894,230.582,236.894,230.582L236.894,230.582z"/>
	<path fill-rule="evenodd" clip-rule="evenodd" d="M239.108,243.139c0-2.871-2.052-2.052-2.052-2.052v-2.46
		c0,0,2.955-1.151,4.76-1.151c3.291-0.294,5.334,1.067,8.208,3.94c1.942,3.308,6.728,3.282,6.728-4.268
		c0-0.821-7.713-7.549-15.591-9.19c-2.792,0-14.334,0-14.334,0s2.024-5.252,9.737-5.252c3.086,0,7.558,1.041,11.818,3.026
		c0.928-1.594,2.186-3.942,2.954-6.145c3.692,3.693,2.955,9.683,2.955,9.683l-0.114-0.026c3.059,2.4,5.431,5.439,6.212,9.09
		c3.355,1.131,10.643,4.016,10.643,7.678c-5.949-0.942-9.229-2.078-10.576-2.628c-1.687,9.212-12.73,8.535-12.73,8.535
		s0.984,10.342-6.072,10.342c0-3.938,0-10.668,0-10.668s-4.76-1.314-4.76,2.79c-1.642,0-2.626,0-2.626,0
		S231.97,246.012,239.108,243.139L239.108,243.139z"/>
	<path fill-rule="evenodd" clip-rule="evenodd" fill="#FFFFFF" d="M231.723,235.589c2.874,0,5.171-5.007,5.171-5.007h-10.176
		c0,0,0.163,1.166,0.809,2.37c-1.519-1.721-2.064-3.189-2.064-3.626c0-0.927,1.365-1.368,1.365-1.368s11.542,0,14.334,0l7.411,2.863
		c4.683,2.553,8.18,5.775,8.18,6.328c0,7.55-4.785,7.576-6.728,4.268c-2.874-2.874-4.917-4.235-8.208-3.94
		c-1.805,0-4.76,1.151-4.76,1.151c-2.936-0.893-5.173-2.067-6.867-3.287C230.643,235.493,231.146,235.589,231.723,235.589
		L231.723,235.589z"/>
	<path fill-rule="evenodd" clip-rule="evenodd" d="M150.398,165.097H163.2v2.462h65.651c0,0,18.381-7.714,26.096-11.489
		c-11.653,14.772-49.896,22.157-49.896,22.157s-40.375,0-44.478,0c-2.626,0-6.565-1.477-10.504-5.416
		C150.07,170.02,150.398,165.097,150.398,165.097L150.398,165.097z"/>
	<path fill="none" stroke="#000000" stroke-width="1.1923" stroke-miterlimit="2.6131" d="M155.486,178.227
		c0,0,22.814,33.974,40.539,55.967c26.752,38.571,34.467,69.918,34.467,69.918 M233.774,170.677c0,0-17.726,35.778-37.749,63.516
		c-18.382,23.307-28.886,69.918-28.886,69.918 M198.816,180.853c-4.924,46.612-2.791,75.006,0,104.877"/>
	<path fill-rule="evenodd" clip-rule="evenodd" d="M172.438,276.273c-6.814-2.059-12.869-3.59-17.28-3.59
		c-11.976,0.017-24.316,3.865-32.059,8.334c0,8.087,0,13.544,0,14.942c0,0.292,0.032,0.576,0.049,0.865
		c9.004-2.024,27.742-11.625,46.442-11.742C170.438,282.319,171.384,279.362,172.438,276.273L172.438,276.273z M217.361,287.208
		c-11.582,0-26.672-5.186-39.855-9.365c-0.926,2.706-1.775,5.317-2.542,7.782c8.727,1.792,18.729,7.427,49.519,8.345
		c-0.75-2.076-1.634-4.409-2.673-6.981C220.336,287.12,218.854,287.208,217.361,287.208L217.361,287.208z M227.223,286.257
		c1.164,2.942,2.128,5.566,2.913,7.823c1.034,0.011,2.068,0.019,3.146,0.019c21.128,0,36.493-10.833,43.875-17.239
		c0-5.65,0-12.266,0-19.5C268.78,264.809,249.631,282.04,227.223,286.257L227.223,286.257z"/>
	<path fill-rule="evenodd" clip-rule="evenodd" d="M230.492,304.111l-2.549,0.629c-0.009-0.031-0.09-0.355-0.254-0.94
		c-7.835-1.714-13.896-10.027-40.69-10.027c-5.403,0-10.299,0.348-14.72,0.953c-1.662,5.969-2.55,9.833-2.578,9.962l-5.123-1.152
		c0.102-0.454,0.766-3.36,1.956-7.81c-16.046,3.362-24.221,10.478-24.909,16.429h118.463c8.757,0,17.069-7.004,17.069-16.194
		c0-0.654,0-2.201,0-4.489C268.623,296.115,250.93,304.111,230.492,304.111L230.492,304.111z"/>
	<path fill-rule="evenodd" clip-rule="evenodd" fill="#D72328" d="M163.365,161.923c5.964-7.32,14.479-13.095,19.038-15.317
		c2.192-0.549,3.552-0.815,4.596-0.548c1.477,1.477-5.909,5.799-2.627,5.799c4.596,0,12.363-7.988,14.115-7.988
		c4.158,0-1.533,5.472,4.377,5.472c2.407,0,6.017-10.941,12.692-7.878c2.517,2.517-11.161,10.067-5.035,10.067
		c5.582,0,10.285-5.036,13.023-2.297c0,3.171-2.08,8.096,2.626,8.096c6.782,0,6.235-2.843,13.239-2.843
		c0,2.407-8.537,7.877-14.007,7.877c-7.769,0-5.908-8.207-8.205-8.207c-4.16,0-2.409,2.845-6.455,2.845
		c-5.033,0-6.348-7.113-10.726-2.736c-3.062-3.062-7.492-2.79-10.282,0c-3.393,0-1.972,2.627-5.581,2.627
		c-3.724,0-2.079-2.298-4.705-2.298C176.276,156.671,170.259,161.923,163.365,161.923L163.365,161.923z"/>
	<path fill-rule="evenodd" clip-rule="evenodd" fill="#FFFFFF" d="M239.41,154.484c0,2.407-8.537,7.877-14.007,7.877
		c-7.769,0-5.908-8.207-8.205-8.207c-4.16,0-2.409,2.845-6.455,2.845c-5.033,0-6.348-7.113-10.726-2.736
		c-3.062-3.062-7.492-2.79-10.282,0c-3.393,0-1.972,2.627-5.581,2.627c-3.724,0-2.079-2.298-4.705-2.298
		c-3.173,2.078-9.19,7.331-16.084,7.331v5.252c6.721,0,12.324-3.556,16.099-6.206c1.134,0.679,2.613,1.171,4.69,1.171
		c3.331,0,5.171-1.319,6.415-2.676c0.554-0.031,1.125-0.064,1.125-0.064l1.754-1.424c0.424-0.423,0.941-0.656,1.454-0.656
		c0.495,0,0.967,0.221,1.403,0.656l3.528,3.53c0,0,1.83-1.658,2.925-2.65c1.62,1.391,4.158,3.396,7.984,3.393
		c1.807,0,3.11-0.417,4.179-0.935c1.459,2.916,4.343,6.298,10.481,6.298c3.79,0,9.931-2.172,14.256-5.428L239.41,154.484
		L239.41,154.484z"/>
	<polygon fill-rule="evenodd" clip-rule="evenodd" fill="#F2E641" points="97.796,31.25 89.672,31.25 89.672,40.195 96.94,40.195 
		96.94,44.216 89.672,44.216 89.672,60.054 80.398,60.054 80.398,26.983 97.796,26.983 97.796,31.25 	"/>
	<polygon fill-rule="evenodd" clip-rule="evenodd" fill="#F2E641" points="107.975,60.054 100.261,60.054 100.261,55.213 
		107.975,55.213 107.975,60.054 	"/>
	<path fill-rule="evenodd" clip-rule="evenodd" fill="#F2E641" d="M131.171,38.553h-8.452v-6.574c0-0.54-0.44-0.811-1.324-0.811
		c-0.922,0-1.384,0.271-1.384,0.812v23.078c0,0.541,0.462,0.812,1.384,0.812c0.884,0,1.324-0.273,1.324-0.819v-8.29h8.452v8.418
		c0,1.572-0.987,2.833-2.962,3.781c-1.975,0.949-4.204,1.422-6.692,1.422c-7.187,0-10.779-1.985-10.779-5.959V33.1
		c0-4.297,3.593-6.446,10.779-6.446c6.437,0,9.654,1.962,9.654,5.881V38.553L131.171,38.553z"/>
	<polygon fill-rule="evenodd" clip-rule="evenodd" fill="#F2E641" points="141.851,60.054 134.139,60.054 134.139,55.213 
		141.851,55.213 141.851,60.054 	"/>
	<path fill-rule="evenodd" clip-rule="evenodd" fill="#F2E641" d="M176.921,38.553h-8.453v-6.574c0-0.54-0.44-0.811-1.322-0.811
		c-0.924,0-1.386,0.271-1.386,0.812v23.078c0,0.541,0.462,0.812,1.386,0.812c0.882,0,1.322-0.273,1.322-0.819v-8.29h8.453v8.418
		c0,1.572-0.988,2.833-2.963,3.781c-1.975,0.949-4.203,1.422-6.69,1.422c-7.188,0-10.781-1.985-10.781-5.959V33.1
		c0-4.297,3.593-6.446,10.781-6.446c6.435,0,9.653,1.962,9.653,5.881V38.553L176.921,38.553z"/>
	<path fill-rule="evenodd" clip-rule="evenodd" fill="#F2E641" d="M202.864,60.137h-9.252c-0.998-0.94-1.498-3.6-1.498-7.984v-0.046
		l0.066-1.983c0.065-2.753,0.099-4.161,0.099-4.223c0-1.123-0.956-1.684-2.873-1.684v15.838h-9.272V26.983h11.455
		c2.611,0,4.882,0.47,6.816,1.409c1.935,0.938,2.899,2.426,2.899,4.458v3.974c0,2.573-1.916,4.313-5.757,5.22
		c3.841,0.709,5.757,2.532,5.757,5.47l-0.163,3.623C201.142,56.43,201.716,59.428,202.864,60.137L202.864,60.137z M192.279,38.438
		v-5.454c0-1.156-0.956-1.734-2.873-1.734v8.945C191.323,40.195,192.279,39.61,192.279,38.438L192.279,38.438z"/>
	<path fill-rule="evenodd" clip-rule="evenodd" fill="#F2E641" d="M205.314,54.423V33.1c0-4.297,3.538-6.446,10.616-6.446
		c6.979,0,10.475,2.134,10.475,6.4v21.323c0,1.926-0.976,3.408-2.918,4.447c-1.949,1.04-4.487,1.558-7.616,1.558
		C208.833,60.382,205.314,58.396,205.314,54.423L205.314,54.423z M217.379,54.87V32.167c0-0.666-0.499-0.999-1.491-0.999
		c-1.032,0-1.546,0.333-1.546,0.999V54.87c0,0.667,0.514,0.999,1.546,0.999C216.88,55.869,217.379,55.537,217.379,54.87
		L217.379,54.87z"/>
	<polygon fill-rule="evenodd" clip-rule="evenodd" fill="#F2E641" points="248.926,31.25 243.729,31.25 243.729,60.054 
		234.454,60.054 234.454,31.25 229.258,31.25 229.258,26.983 248.926,26.983 248.926,31.25 	"/>
	<path fill-rule="evenodd" clip-rule="evenodd" fill="#F2E641" d="M251.775,54.423V33.1c0-4.297,3.538-6.446,10.618-6.446
		c6.98,0,10.471,2.134,10.471,6.4v21.323c0,1.926-0.972,3.408-2.919,4.447c-1.944,1.04-4.482,1.558-7.609,1.558
		C255.296,60.382,251.775,58.396,251.775,54.423L251.775,54.423z M263.837,54.87V32.167c0-0.666-0.494-0.999-1.486-0.999
		c-1.034,0-1.548,0.333-1.548,0.999V54.87c0,0.667,0.514,0.999,1.548,0.999C263.343,55.869,263.837,55.537,263.837,54.87
		L263.837,54.87z"/>
	<polygon fill-rule="evenodd" clip-rule="evenodd" fill="#F2E641" points="299.684,60.054 290.087,60.054 283.765,42.435 
		283.765,60.054 275.968,60.054 275.968,26.983 286.569,26.983 291.889,42.066 291.889,26.983 299.684,26.983 299.684,60.054 	"/>
	<polygon fill-rule="evenodd" clip-rule="evenodd" fill="#F2E641" points="320.978,60.054 302.842,60.054 302.842,26.983 
		320.859,26.983 320.859,31.25 312.116,31.25 312.116,40.195 320.005,40.195 320.005,44.216 312.116,44.216 312.116,55.787 
		320.978,55.787 320.978,60.054 	"/>
</g>
</svg>
