<?xml version="1.0" encoding="utf-8"?>
<!-- Generator: Adobe Illustrator 13.0.2, SVG Export Plug-In . SVG Version: 6.00 Build 14948)  -->
<!DOCTYPE svg PUBLIC "-//W3C//DTD SVG 1.0//EN" "http://www.w3.org/TR/2001/REC-SVG-20010904/DTD/svg10.dtd">
<svg version="1.0" id="Ebene_1" xmlns="http://www.w3.org/2000/svg" xmlns:xlink="http://www.w3.org/1999/xlink" x="0px" y="0px"
	 width="468.729px" height="566.892px" viewBox="0 0 468.729 566.892" enable-background="new 0 0 468.729 566.892"
	 xml:space="preserve">
<path d="M370.805,140.184c8.136,3.96,17.28,11.304,18.288,20.232c1.512,0.144,3.024,0.576,4.608,1.296h0.072
	c3.312,1.44,6.984,4.032,10.152,7.344c3.168,3.24,5.904,7.128,7.416,11.304c0.648,1.728,1.08,3.528,1.296,5.256
	c7.128,2.88,20.952,18.144,22.968,30.816c0.144,1.008,0.216,1.944,0.216,2.808c2.448,1.152,5.184,3.168,7.128,6.192
	c2.376,3.744,4.392,7.776,6.192,11.952c1.8,4.176,3.24,8.568,4.464,13.032c0.792,2.736,0.576,5.544-0.144,8.208
	c-0.144,0.576-0.288,1.152-0.504,1.728c4.248,3.384,7.416,8.424,9.648,14.832c2.304,6.696,3.6,14.832,4.104,24.408
	c0.072,2.016-0.288,4.104-0.936,6.192c-0.432,1.296-0.936,2.664-1.584,3.888c2.16,4.032,3.528,8.424,4.176,13.536
	c0.648,5.472,0.432,11.664-0.648,18.864c-0.36,2.52-1.152,4.824-2.232,6.84c1.44,6.552,1.728,13.32,0.792,19.728
	c-0.936,6.192-3.096,12.024-6.624,17.136c-0.145,11.664-3.168,24.12-7.776,35.784c-6.84,17.28-17.496,32.832-28.008,40.824
	c-2.016,7.776-6.12,15.624-11.448,22.392c-7.272,9.36-16.776,16.848-25.992,20.016c-1.656,4.032-4.32,7.992-8.712,12.528
	c-4.68,4.752-9.504,8.28-14.544,10.584c-4.68,2.088-9.504,3.096-14.544,2.808c-58.248,48.24-170.352,48.24-228.528,0
	c-5.04,0.288-9.864-0.72-14.544-2.808c-5.04-2.304-9.864-5.832-14.544-10.584c-4.392-4.536-7.056-8.496-8.712-12.528
	c-9.216-3.168-18.72-10.656-25.992-20.016c-5.328-6.768-9.432-14.616-11.448-22.392c-10.512-7.992-21.168-23.544-28.008-40.824
	c-4.608-11.664-7.632-24.12-7.776-35.784c-3.528-5.112-5.688-10.944-6.624-17.136c-0.936-6.408-0.648-13.176,0.792-19.728
	c-1.08-2.016-1.872-4.32-2.232-6.84c-1.08-7.2-1.296-13.392-0.648-18.864c0.648-5.112,2.016-9.504,4.176-13.536
	c-0.648-1.224-1.152-2.592-1.584-3.888c-0.648-2.088-1.008-4.176-0.936-6.192c0.504-9.576,1.8-17.712,4.104-24.408
	c2.232-6.408,5.4-11.448,9.648-14.832c-0.216-0.576-0.36-1.152-0.504-1.728c-0.72-2.664-0.936-5.472-0.144-8.208
	c1.224-4.464,2.664-8.856,4.464-13.032c1.8-4.176,3.816-8.208,6.192-11.952c1.944-3.024,4.68-5.04,7.128-6.192
	c0-0.864,0.072-1.8,0.216-2.808c2.016-12.672,15.84-27.936,22.968-30.816c0.216-1.728,0.648-3.528,1.296-5.256
	c1.512-4.176,4.248-8.064,7.416-11.304c3.168-3.312,6.84-5.904,10.152-7.344h0.072c1.584-0.72,3.096-1.152,4.608-1.296
	c1.008-8.928,10.152-16.272,18.288-20.232c-0.432-0.432-0.792-0.864-0.936-1.44l0,0c-0.216-0.504-0.36-1.152-0.288-1.728
	c0.144-1.512,1.08-3.096,2.952-3.888l0,0c0.648-0.288,1.296-0.504,1.872-0.792c-0.288-0.216-0.504-0.504-0.72-0.792
	c-0.144-0.216-0.216-0.432-0.288-0.648c-0.864-2.088,0.432-3.96,2.088-5.112c0.216-0.144,0.504-0.288,0.72-0.36
	c-0.432-0.432-0.72-0.936-1.008-1.512l0,0c-0.144-0.504-0.288-1.08-0.216-1.656c-1.8,0.648-3.528,0.216-4.608-0.72
	c-0.432-0.432-0.792-0.936-1.008-1.44c-0.216-0.504-0.36-1.08-0.288-1.656c-1.08,0.504-2.16,0.936-3.24,1.44
	c-2.232,0.936-3.96,0.648-5.04-0.288c-0.432-0.36-0.792-0.864-1.008-1.44c-0.216-0.504-0.36-1.08-0.36-1.656l0,0
	c0-0.648,0.216-1.224,0.504-1.872L67.685,67.896c-2.736-1.368-5.04-3.024-6.912-5.04c-1.8-1.872-3.24-3.96-4.464-6.264l-5.328,2.232
	L43.997,42.12l9.792-4.104l3.528,8.352l5.4-2.304l-3.456-8.352l9.792-4.104l3.528,8.352l5.4-2.304l-3.456-8.352l9.792-4.104
	l6.984,16.704l-7.488,3.168c1.08,1.8,1.728,3.96,2.088,6.048l0,0c0.432,2.952,0.504,5.976,0.288,8.928l0.432,0.648
	c2.232-0.792,4.464-1.656,6.624-2.448l2.664,7.2c1.872-0.648,3.672-1.296,5.544-1.944l-2.52-7.272
	c3.384-1.152,6.768-2.232,10.224-3.384l2.304,7.344c1.872-0.576,3.744-1.152,5.616-1.728l-2.232-7.344
	c3.456-1.008,6.912-2.016,10.368-2.952l2.016,7.416c1.872-0.576,3.816-1.08,5.688-1.512l-1.944-7.488
	c2.592-0.648,5.184-1.296,7.704-1.872v-0.864c-1.872-2.304-3.456-4.824-4.752-7.488l0,0c-0.936-1.944-1.584-3.96-1.728-6.12
	l-8.064,1.656l-3.6-17.928l11.88-2.376l1.8,8.928l7.2-1.44l-1.8-8.928l11.88-2.448l1.8,8.928l7.272-1.44l-1.8-8.928l11.88-2.376
	l3.6,17.856l-8.064,1.656c0.72,2.016,0.864,4.176,0.792,6.264l0,0c-0.144,2.952-0.648,5.904-1.44,8.784l0.288,0.792
	c2.664-0.432,5.256-0.864,7.92-1.296l1.152,7.632c1.944-0.288,3.888-0.576,5.832-0.864l-1.008-7.56
	c3.528-0.504,7.128-0.936,10.656-1.296l0.864,7.632c1.944-0.216,3.888-0.36,5.76-0.576l-0.648-7.632
	c3.6-0.36,7.128-0.648,10.728-0.864l0.504,7.632c1.944-0.072,3.888-0.216,5.832-0.288l-0.36-7.704
	c2.52-0.144,5.04-0.216,7.488-0.288l0.144-0.864c-1.296-2.664-2.376-5.4-3.168-8.28l0,0c-0.504-2.088-0.72-4.248-0.432-6.336h-8.28
	V0l12.168,0.072v9.072h7.344V0.072h12.096v9.072h7.344V0.072h12.168v18.216h-8.28c0.288,2.088,0.072,4.248-0.432,6.336l0,0
	c-0.792,2.88-1.872,5.616-3.168,8.28l0.144,0.864c2.448,0.072,4.968,0.144,7.488,0.288l-0.36,7.704
	c1.944,0.072,3.888,0.216,5.832,0.288l0.504-7.632c3.6,0.216,7.128,0.504,10.728,0.864l-0.648,7.632
	c1.872,0.216,3.816,0.36,5.76,0.576l0.864-7.632c3.528,0.36,7.128,0.792,10.656,1.296l-1.008,7.56
	c1.944,0.288,3.888,0.576,5.832,0.864l1.152-7.632c2.664,0.432,5.256,0.864,7.92,1.296l0.288-0.792
	c-0.792-2.88-1.296-5.832-1.44-8.784l0,0c-0.072-2.088,0.144-4.248,0.792-6.264l-8.064-1.656l3.6-17.856l11.88,2.376l-1.8,8.928
	l7.272,1.44l1.8-8.928l11.88,2.448l-1.8,8.928l7.2,1.44l1.8-8.928l11.88,2.376l-3.6,17.928l-8.064-1.656
	c-0.144,2.16-0.792,4.176-1.728,6.12l0,0c-1.296,2.664-2.88,5.184-4.752,7.488v0.864c2.52,0.576,5.112,1.224,7.704,1.872
	l-1.944,7.488c1.872,0.432,3.744,0.936,5.688,1.512l2.016-7.416c3.456,0.936,6.912,1.944,10.368,2.952l-2.232,7.344
	c1.872,0.576,3.744,1.152,5.616,1.728l2.304-7.344c3.456,1.152,6.84,2.232,10.224,3.384l-2.52,7.272
	c1.872,0.648,3.672,1.296,5.544,1.944l2.664-7.2c2.16,0.792,4.392,1.656,6.624,2.448l0.432-0.648
	c-0.216-2.952-0.144-5.976,0.288-8.928l0,0c0.36-2.088,1.008-4.248,2.088-6.048l-7.488-3.168l6.984-16.704l9.792,4.104l-3.456,8.352
	l5.4,2.304l3.528-8.352l9.792,4.104l-3.528,8.352l5.472,2.304l3.528-8.352l9.792,4.104l-6.984,16.704l-5.328-2.232
	c-1.224,2.304-2.664,4.392-4.464,6.264c-1.944,2.016-4.176,3.672-6.912,5.04l-19.368,46.728c0.288,0.648,0.432,1.224,0.504,1.872
	l0,0c0,0.576-0.144,1.152-0.36,1.656c-0.216,0.576-0.576,1.08-1.008,1.44c-1.08,0.936-2.808,1.224-5.04,0.288
	c-1.08-0.504-2.16-0.936-3.24-1.44c0.072,0.576-0.072,1.152-0.288,1.656c-0.216,0.504-0.576,1.008-1.008,1.44
	c-1.08,0.936-2.808,1.368-4.608,0.72c0.072,0.576-0.072,1.152-0.216,1.656l0,0c-0.288,0.576-0.576,1.008-1.008,1.512
	c0.216,0.072,0.504,0.216,0.72,0.36c1.656,1.152,2.952,3.024,2.088,5.112c-0.072,0.216-0.216,0.432-0.288,0.648
	c-0.216,0.288-0.432,0.576-0.72,0.792c0.576,0.288,1.224,0.504,1.872,0.792l0,0c1.872,0.792,2.808,2.376,2.952,3.888
	c0.072,0.576-0.072,1.224-0.288,1.728l0,0C371.524,139.32,371.237,139.752,370.805,140.184L370.805,140.184z M108.004,138.312
	h252.648c-18.936-7.776-38.736-13.824-59.256-18.072c-44.064-9-90-9-134.064,0C146.813,124.488,127.013,130.536,108.004,138.312z"/>
<path fill="#F08A00" d="M123.053,465.264c-4.392-2.664-8.424,0.216-8.496,5.4c0,7.992,0.36,16.416,1.224,25.2
	c0.432,4.536,1.584,7.128,5.616,9.792c67.176,44.28,158.76,44.28,225.936,0c4.032-2.664,5.184-5.256,5.616-9.792
	c0.864-8.784,1.224-17.208,1.224-25.2c-0.072-5.184-4.104-8.064-8.496-5.4C273.172,509.544,195.557,509.544,123.053,465.264z"/>
<path fill="#F08A00" d="M124.349,459.144c71.712,44.496,148.32,44.496,220.032,0c4.824-2.952,9.072-7.056,8.496-13.248
	c-0.792-7.416-1.944-14.544-3.24-21.384c-5.76,9.648-12.744,18.504-20.664,26.352c-24.264,24.192-57.816,39.168-94.608,39.168
	s-70.344-14.976-94.608-39.168c-7.92-7.848-14.904-16.704-20.664-26.352c-1.296,6.84-2.448,13.968-3.24,21.384
	C115.276,452.088,119.524,456.192,124.349,459.144z"/>
<path fill="#F08A00" d="M354.029,416.52c2.592,11.592,4.536,24.048,5.472,37.44c1.296,19.008,0.504,40.176-3.528,64.224
	c-0.72,4.608,0.072,6.408,4.752,4.32c4.392-1.944,8.64-5.112,12.744-9.36c8.856-9,9.432-15.912,10.44-27.144
	c0.072-0.792,0.144-1.584,0.504-5.184c2.52-25.704,1.512-50.616-2.232-73.728c-3.024-18.504-7.776-35.856-13.824-51.552v1.224
	C368.356,378.216,363.172,398.52,354.029,416.52z"/>
<path fill="#F08A00" d="M368.356,340.344c8.856,19.296,15.768,41.544,19.656,65.808c3.816,23.616,4.896,49.032,2.232,75.24
	c0,0.072-0.216,2.736-0.432,5.112c-0.144,1.8-0.288,3.528-0.432,5.112c-0.432,3.816,0.504,5.4,3.96,3.096
	c5.184-3.384,10.224-8.136,14.4-13.536c6.336-8.136,10.872-17.784,11.52-26.856c2.232-31.248,0.432-60.48-5.544-87.336
	c-5.112-22.896-13.392-44.136-24.768-63.504c-2.376-4.032-5.832-4.32-9.216-0.936c-3.672,3.672-7.488,7.344-11.376,10.944V340.344z"
	/>
<path fill="#F08A00" d="M368.356,305.352c8.784-8.28,17.064-16.848,24.552-25.488c14.616-16.92,26.424-34.56,34.488-52.92
	c1.368-3.096,2.952-5.976,2.376-9.576c-1.44-9-9.072-19.728-14.4-24.192c-2.088-1.728-3.312-1.152-4.248,1.008
	c-10.008,22.824-25.488,43.2-42.768,63.288V305.352z"/>
<path fill="#F08A00" d="M368.356,248.256c15.264-18.144,28.728-36.648,37.584-57.024c1.224-2.736,1.008-5.832-0.144-8.856
	c-1.224-3.312-3.456-6.552-6.12-9.216c-1.8-1.872-3.816-3.456-5.688-4.68c-0.936-0.504-2.664-0.792-4.104-0.504
	c-1.368,0.288-2.448,1.152-2.952,2.016c-4.896,9.144-11.52,17.64-18.576,26.208V248.256z"/>
<path fill="#F08A00" d="M368.356,186.84c5.256-6.696,10.08-13.32,13.752-20.304c0.216-0.36,0.36-0.792,0.504-1.224
	c2.88-7.416-4.464-14.328-11.88-18.504c-0.576-0.288-1.44-0.504-2.376-0.576V186.84z"/>
<path fill="#F08A00" d="M100.373,146.232c-0.936,0.072-1.8,0.288-2.376,0.576c-7.416,4.176-14.76,11.088-11.88,18.504
	c0.144,0.432,0.288,0.864,0.504,1.224c3.672,6.984,8.496,13.608,13.752,20.304V146.232z"/>
<path fill="#F08A00" d="M100.373,196.2c-7.056-8.568-13.68-17.064-18.576-26.208c-0.504-0.864-1.584-1.728-2.952-2.016
	c-1.44-0.288-3.168,0-4.104,0.504c-1.872,1.224-3.888,2.808-5.688,4.68c-2.664,2.664-4.896,5.904-6.12,9.216
	c-1.152,3.024-1.368,6.12-0.144,8.856c8.856,20.376,22.32,38.88,37.584,57.024V196.2z"/>
<path fill="#F08A00" d="M100.373,257.472c-17.28-20.088-32.76-40.464-42.768-63.288c-0.936-2.16-2.16-2.736-4.248-1.008
	c-5.328,4.464-12.96,15.192-14.4,24.192c-0.576,3.6,1.008,6.48,2.376,9.576c8.064,18.36,19.872,36,34.488,52.92
	c7.488,8.64,15.768,17.208,24.552,25.488V257.472z"/>
<path fill="#F08A00" d="M100.373,313.488c-3.888-3.6-7.704-7.272-11.376-10.944c-3.384-3.384-6.84-3.096-9.216,0.936
	c-11.376,19.368-19.656,40.608-24.768,63.504c-5.976,26.856-7.776,56.088-5.544,87.336c0.648,9.072,5.184,18.72,11.52,26.856
	c4.176,5.4,9.216,10.152,14.4,13.536c3.456,2.304,4.392,0.72,3.96-3.096c-0.144-1.584-0.288-3.312-0.432-5.112
	c-0.216-2.376-0.432-5.04-0.432-5.112c-2.664-26.208-1.584-51.624,2.232-75.24c3.888-24.264,10.8-46.512,19.656-65.808V313.488z"/>
<path fill="#F08A00" d="M100.373,355.536c-6.048,15.696-10.8,33.048-13.824,51.552c-3.744,23.112-4.752,48.024-2.232,73.728
	c0.36,3.6,0.432,4.392,0.504,5.184c1.008,11.232,1.584,18.144,10.44,27.144c4.104,4.248,8.352,7.416,12.744,9.36
	c4.68,2.088,5.472,0.288,4.752-4.32c-4.032-24.048-4.824-45.216-3.528-64.224c0.936-13.392,2.88-25.848,5.472-37.44
	c-9.144-18-14.328-38.304-14.328-59.76V355.536z"/>
<path fill="#F08A00" d="M126.869,516.024c-3.24-1.872-8.856-4.176-8.136,1.944c0.36,3.096,2.448,5.904,4.752,7.848
	c56.376,46.656,165.456,46.584,221.76,0c2.304-1.944,4.392-4.752,4.752-7.848c0.72-6.12-4.896-3.816-8.136-1.944
	C276.628,554.4,192.101,554.4,126.869,516.024z"/>
<path fill="#F08A00" d="M397.373,283.68c3.024-3.456,5.976-6.984,8.784-10.584c3.168-4.032,5.544-4.032,8.352,0.36
	c8.424,13.392,15.552,27.648,21.6,42.624c7.416,18.648,13.032,38.448,16.776,59.184c2.376,13.32-0.648,29.376-6.552,44.136
	c-4.032,10.08-9.36,19.584-15.12,27.072c-5.112,6.552-5.76,6.12-5.472-1.728c1.296-28.008-0.72-54.432-6.264-78.984
	c-5.328-23.976-13.968-46.152-25.992-66.24C389.021,292.104,392.621,289.224,397.373,283.68z"/>
<path fill="#F08A00" d="M417.677,257.04c5.832-8.928,10.872-18,14.904-27.288c1.224-2.664,3.96-3.384,5.616-0.648
	c2.088,3.312,3.96,6.912,5.472,10.584c1.656,3.888,3.024,7.992,4.248,12.24c1.008,3.672-0.864,7.704-2.448,10.944
	c-2.52,5.256-5.4,10.224-8.64,14.976c-1.656,2.448-3.456,4.824-5.256,6.984c-0.864,1.152-2.808,1.44-3.456,0.072
	c-3.24-5.904-6.624-11.808-10.368-17.496C415.373,263.736,415.301,260.64,417.677,257.04z"/>
<path fill="#F08A00" d="M458.068,370.656c-0.504-2.664-1.08-5.256-1.656-7.848c-0.144-0.72-0.288-2.952,0.432-3.6
	c0.792-0.72,1.656-1.512,2.448-2.304c0.936-0.864,1.368-0.36,1.512,0.792c0.216,3.384,0.072,6.768-0.432,10.08
	c-0.144,0.864-0.288,1.728-0.432,2.52C459.148,373.752,458.573,373.464,458.068,370.656z"/>
<path fill="#F08A00" d="M452.597,346.824c-1.152-4.104-2.304-8.136-3.6-12.168c-0.648-2.088,0.216-5.544,1.8-7.128
	c1.44-1.512,2.88-3.024,4.248-4.68c1.152-1.368,2.304-2.808,3.384-4.392c1.008-1.368,2.736-0.792,3.168,0.72
	c0.36,1.512,0.648,3.096,0.864,4.752c0.576,4.896,0.36,10.584-0.648,17.28c-0.36,2.808-1.512,5.184-3.096,7.344
	C454.181,354.96,454.252,353.088,452.597,346.824z"/>
<path fill="#F08A00" d="M444.172,320.544c-0.864-2.232-1.728-4.464-2.592-6.696c-2.304-5.832-4.896-11.592-7.56-17.208
	c-1.296-2.736-0.216-5.04,1.44-7.128c2.232-2.736,4.32-5.544,6.264-8.352c2.304-3.456,4.536-7.056,6.552-10.8
	c0.936-1.728,3.096-3.672,4.824-1.152c1.512,2.16,2.808,4.824,3.888,7.92c2.088,6.048,3.312,13.68,3.744,22.752
	c0.072,1.296-0.144,2.736-0.576,4.104c-0.576,1.728-1.368,3.384-2.232,4.68c-2.448,3.888-4.896,7.344-7.416,10.368
	c-0.72,0.792-1.368,1.584-2.088,2.304C446.548,323.424,445.252,323.496,444.172,320.544z"/>
<path fill="#F08A00" d="M71.356,283.68c-3.024-3.456-5.976-6.984-8.784-10.584c-3.168-4.032-5.544-4.032-8.352,0.36
	c-8.424,13.392-15.552,27.648-21.6,42.624c-7.416,18.648-13.032,38.448-16.776,59.184c-2.376,13.32,0.648,29.376,6.552,44.136
	c4.032,10.08,9.36,19.584,15.12,27.072c5.112,6.552,5.76,6.12,5.472-1.728c-1.296-28.008,0.72-54.432,6.264-78.984
	c5.328-23.976,13.968-46.152,25.992-66.24C79.708,292.104,76.108,289.224,71.356,283.68z"/>
<path fill="#F08A00" d="M51.053,257.04c-5.832-8.928-10.872-18-14.904-27.288c-1.224-2.664-3.96-3.384-5.616-0.648
	c-2.088,3.312-3.96,6.912-5.472,10.584c-1.656,3.888-3.024,7.992-4.248,12.24c-1.008,3.672,0.864,7.704,2.448,10.944
	c2.52,5.256,5.4,10.224,8.64,14.976c1.656,2.448,3.456,4.824,5.256,6.984c0.864,1.152,2.808,1.44,3.456,0.072
	c3.24-5.904,6.624-11.808,10.368-17.496C53.356,263.736,53.429,260.64,51.053,257.04z"/>
<path fill="#F08A00" d="M10.661,370.656c0.504-2.664,1.08-5.256,1.656-7.848c0.144-0.72,0.288-2.952-0.432-3.6
	c-0.792-0.72-1.656-1.512-2.448-2.304c-0.936-0.864-1.368-0.36-1.512,0.792c-0.216,3.384-0.072,6.768,0.432,10.08
	c0.144,0.864,0.288,1.728,0.432,2.52C9.581,373.752,10.157,373.464,10.661,370.656z"/>
<path fill="#F08A00" d="M16.133,346.824c1.152-4.104,2.304-8.136,3.6-12.168c0.648-2.088-0.216-5.544-1.8-7.128
	c-1.44-1.512-2.88-3.024-4.248-4.68c-1.152-1.368-2.304-2.808-3.384-4.392c-1.008-1.368-2.736-0.792-3.168,0.72
	c-0.36,1.512-0.648,3.096-0.864,4.752c-0.576,4.896-0.36,10.584,0.648,17.28c0.36,2.808,1.512,5.184,3.096,7.344
	C14.548,354.96,14.477,353.088,16.133,346.824z"/>
<path fill="#F08A00" d="M24.557,320.544c0.864-2.232,1.728-4.464,2.592-6.696c2.304-5.832,4.896-11.592,7.56-17.208
	c1.296-2.736,0.216-5.04-1.44-7.128c-2.232-2.736-4.32-5.544-6.264-8.352c-2.304-3.456-4.536-7.056-6.552-10.8
	c-0.936-1.728-3.096-3.672-4.824-1.152c-1.512,2.16-2.808,4.824-3.888,7.92c-2.088,6.048-3.312,13.68-3.744,22.752
	c-0.072,1.296,0.144,2.736,0.576,4.104c0.576,1.728,1.368,3.384,2.232,4.68c2.448,3.888,4.896,7.344,7.416,10.368
	c0.72,0.792,1.368,1.584,2.088,2.304C22.181,323.424,23.477,323.496,24.557,320.544z"/>
<path d="M327.533,488.52l-0.864-0.216c-0.504-0.144-1.08-0.288-1.656-0.36c-0.576,0-1.152,0-1.656,0.072
	c-0.576,0.072-1.08,0.144-1.656,0.36c-0.504,0.144-1.08,0.36-1.656,0.648c-0.504,0.36-1.008,0.648-1.512,1.008
	c-0.432,0.36-0.864,0.792-1.224,1.224c-0.36,0.36-0.648,0.864-0.936,1.296c-0.288,0.504-0.504,1.008-0.648,1.584l0,0
	c-0.216,0.576-0.288,1.224-0.36,1.8c-0.072,0.648-0.072,1.296,0,1.872l0,0c0.072,0.648,0.216,1.224,0.432,1.872l0,0
	c0.216,0.576,0.504,1.224,0.792,1.872c0.36,0.576,0.72,1.152,1.08,1.656c0.432,0.504,0.864,1.008,1.368,1.368l0,0
	c0.432,0.432,0.936,0.792,1.512,1.08c0.504,0.288,1.08,0.576,1.656,0.72l0,0c0.576,0.216,1.08,0.288,1.656,0.36
	c0.504,0.072,1.08,0,1.656,0c0.576-0.072,1.152-0.216,1.656-0.36c0.576-0.216,1.152-0.432,1.728-0.72v-0.072
	c0.576-0.288,1.08-0.648,1.584-1.008c0.504-0.36,0.936-0.792,1.296-1.224c0.36-0.432,0.648-0.936,0.936-1.368
	c0.216-0.504,0.432-1.08,0.576-1.584l0.216-0.936l0.864,0.288l3.024,1.08l0.792,0.288l-0.288,0.792
	c-0.288,0.864-0.648,1.656-1.08,2.376c-0.432,0.792-0.864,1.512-1.44,2.16l0,0c-0.576,0.648-1.224,1.224-1.944,1.8
	c-0.72,0.504-1.512,1.008-2.376,1.512l0,0c-0.864,0.432-1.728,0.792-2.592,1.08c-0.864,0.288-1.728,0.504-2.592,0.576l0,0
	c-0.936,0.144-1.8,0.144-2.664,0.072c-0.792-0.072-1.656-0.216-2.52-0.432c-0.936-0.288-1.8-0.648-2.592-1.08l0,0
	c-0.864-0.432-1.656-0.936-2.376-1.584c-0.72-0.576-1.368-1.296-1.944-2.016c-0.648-0.72-1.152-1.584-1.656-2.448
	c-0.432-0.936-0.864-1.8-1.152-2.736s-0.432-1.872-0.576-2.808l0,0c-0.072-0.936-0.072-1.872,0-2.808
	c0.144-0.936,0.288-1.8,0.576-2.736l0,0c0.288-0.864,0.648-1.656,1.08-2.376c0.432-0.792,0.936-1.512,1.512-2.16l0,0l0,0l0,0
	c0.576-0.648,1.224-1.296,1.944-1.8c0.72-0.576,1.512-1.08,2.376-1.584l0,0c0.864-0.432,1.656-0.792,2.52-1.08
	c0.792-0.288,1.656-0.432,2.52-0.576l0,0c0.792-0.144,1.656-0.144,2.448-0.072c0.864,0,1.656,0.144,2.52,0.36l0.792,0.216
	l-0.216,0.792l-0.72,3.096L327.533,488.52z"/>
<polygon points="259.42,532.224 259.276,531.36 255.316,506.304 255.172,505.44 255.964,505.368 268.997,503.28 269.86,503.136 
	269.933,503.928 270.437,506.952 270.581,507.744 269.716,507.888 260.789,509.328 261.725,515.52 270.725,514.08 271.517,513.936 
	271.661,514.8 272.165,517.68 272.237,518.472 271.445,518.616 262.445,520.056 264.172,530.64 264.316,531.432 263.453,531.576 
	260.212,532.08 "/>
<path d="M187.853,528.696l0.648-1.008l14.256-23.544l0.288-0.504l0.576,0.144l2.736,0.432l0.504,0.072l0.144,0.504l6.624,26.856
	l0.288,1.152l-1.224-0.144l-3.816-0.648l-0.576-0.072l-0.144-0.576l-1.152-5.544l-10.656-1.728l-2.88,4.968l-0.288,0.504
	l-0.576-0.072l-3.528-0.576L187.853,528.696L187.853,528.696z M198.796,519.768l7.128,1.152l-2.088-9.576L198.796,519.768z"/>
<path d="M130.685,505.8l0.36-0.72l11.52-22.68l0.36-0.72l0.792,0.36l5.112,2.664c1.44,0.72,2.664,1.512,3.6,2.376
	c1.008,0.936,1.728,1.944,2.232,3.024l0,0c0.504,1.08,0.72,2.232,0.648,3.384c-0.072,1.152-0.432,2.376-1.008,3.528
	c-0.576,1.152-1.296,2.016-2.088,2.808c-0.864,0.72-1.8,1.296-2.88,1.656s-2.16,0.504-3.24,0.432
	c-0.648-0.072-1.224-0.216-1.872-0.432l3.024,11.232l0.504,1.8l-1.656-0.864l-3.672-1.872l-0.36-0.144l-0.072-0.36l-2.376-10.728
	l-0.576-0.216l-3.6,6.984l-0.36,0.72l-0.72-0.36l-2.952-1.512L130.685,505.8L130.685,505.8z M141.484,495.576l1.368,0.648
	c0.864,0.432,1.584,0.72,2.304,0.864c0.72,0.144,1.368,0.144,1.944,0l0,0c0.504-0.072,1.008-0.36,1.44-0.72
	c0.504-0.36,0.864-0.864,1.224-1.512c0.288-0.576,0.432-1.152,0.432-1.728l0,0c0.072-0.504-0.072-1.008-0.288-1.512l0,0
	c-0.288-0.504-0.648-1.008-1.224-1.512c-0.576-0.432-1.296-0.936-2.16-1.368l-1.296-0.648L141.484,495.576z"/>
<path d="M161.068,512.928c1.584,0,2.952,1.296,2.952,2.88s-1.368,2.952-2.952,2.952s-2.88-1.368-2.88-2.952
	S159.484,512.928,161.068,512.928z"/>
<path d="M222.197,526.536c1.656,0,2.952,1.296,2.952,2.88c0,1.656-1.296,2.952-2.952,2.952c-1.584,0-2.88-1.296-2.88-2.952
	C219.316,527.832,220.613,526.536,222.197,526.536z"/>
<path d="M287.86,519.624c1.656,0,2.952,1.368,2.952,2.952s-1.296,2.88-2.952,2.88c-1.584,0-2.88-1.296-2.88-2.88
	S286.276,519.624,287.86,519.624z"/>
<path d="M346.756,494.136c1.584,0,2.88,1.296,2.88,2.88c0,1.656-1.296,2.952-2.88,2.952c-1.656,0-2.952-1.296-2.952-2.952
	C343.805,495.432,345.101,494.136,346.756,494.136z"/>
<path fill="#E2001A" d="M279.077,352.872c0.36-3.888,0.936-7.776,1.584-11.52c-5.472,0.288-10.656,1.656-15.552,4.032
	c-6.48,2.016-10.008,4.968-12.888,8.784c0.144,0,0.36,0,0.504,0C260.933,354.24,269.716,353.736,279.077,352.872z"/>
<path fill="#E2001A" d="M228.46,367.2c4.032-0.144,7.992-0.216,12.024-0.288c12.672-0.288,25.344-0.504,38.232-0.504
	c-0.216-3.024-0.144-6.12,0-9.288c-9.216,0.864-17.928,1.368-25.992,1.368c-8.28-0.072-15.984-0.648-22.896-1.872
	c-0.72,1.44-1.296,2.88-1.584,4.464C227.885,362.88,227.885,364.896,228.46,367.2z"/>
<path fill="#E2001A" d="M208.517,367.776c3.384-0.072,6.768-0.216,10.152-0.288c0.432-2.592,0.144-5.544-0.216-8.784
	c-2.016,1.44-3.96,3.096-5.832,4.824C211.252,364.896,209.885,366.336,208.517,367.776z"/>
<path fill="#FFFFFF" d="M360.869,376.416c0.648-4.392,1.152-8.784,1.368-13.32c-4.032-2.736-8.208-4.536-12.6-5.544
	c-4.896-1.224-10.08-1.44-15.336-1.152c-0.072,3.384-0.288,6.696-0.648,9.864c-0.216,1.728-0.504,3.456-0.864,5.04
	c5.688-0.36,11.304-0.216,16.704,0.936h0.072C353.38,373.104,357.197,374.4,360.869,376.416z"/>
<path fill="#009036" d="M356.909,393.624c1.224-4.176,2.304-8.424,3.168-12.744c-3.672-2.232-7.488-3.6-11.448-4.464l0,0
	c-5.4-1.152-11.088-1.224-16.92-0.72c-1.584,5.688-3.96,10.944-7.416,15.696c7.056-1.008,13.968-1.512,20.736-0.72
	C349.061,391.104,353.021,392.04,356.909,393.624z"/>
<path fill="#FFFFFF" d="M199.876,479.376c11.016,3.096,22.608,4.752,34.488,4.752c15.696,0,30.744-2.88,44.64-8.064
	c-3.096-0.288-6.264-0.72-9.504-1.152c-6.912-0.864-13.824-1.728-20.952-1.728c-6.12,0.072-12.24,0.432-18.216,1.152
	c-6.12,0.72-12.24,1.8-18.144,3.168C207.94,478.512,203.836,479.16,199.876,479.376z"/>
<path fill="#009036" d="M151.349,453.528c10.224,8.712,21.888,15.84,34.56,21.024c1.512,0.216,2.952,0.36,4.464,0.504
	c6.768,0.504,13.464,0.072,20.88-1.728c6.048-1.368,12.312-2.52,18.576-3.24c6.12-0.72,12.456-1.152,18.72-1.152
	c7.272-0.072,14.4,0.864,21.528,1.728c4.464,0.576,8.856,1.152,13.608,1.512c1.44,0.072,2.88,0.144,4.32,0.144
	c10.224-4.752,19.8-10.8,28.368-18c-0.432,0.072-0.936,0.144-1.368,0.288c-10.44,1.728-20.808,3.456-31.608,2.664
	c-4.392-0.288-9.144-0.864-13.896-1.512c-6.912-0.864-13.824-1.728-20.952-1.728c-6.12,0.072-12.24,0.432-18.216,1.152
	c-6.12,0.72-12.24,1.8-18.144,3.168c-7.92,1.872-14.976,2.376-22.176,1.872c-7.128-0.576-14.4-2.16-22.896-4.392
	C161.86,454.464,156.604,453.672,151.349,453.528z"/>
<path fill="#FFFFFF" d="M133.997,435.6c3.096,3.888,6.408,7.632,9.936,11.088c0.864,0.864,1.728,1.728,2.592,2.52
	c7.272-0.216,14.544,0.576,21.672,2.52c8.208,2.16,15.264,3.672,22.176,4.176c6.768,0.504,13.464,0.072,20.88-1.656
	c6.048-1.44,12.312-2.52,18.576-3.312c6.12-0.72,12.456-1.08,18.72-1.152c7.272-0.072,14.4,0.864,21.528,1.8
	c4.464,0.576,8.856,1.152,13.608,1.44c10.44,0.72,20.448-0.936,30.6-2.664c2.016-0.36,3.96-0.648,6.552-1.08
	c0.504-0.072,1.008-0.144,1.512-0.216c0.792-0.792,1.656-1.584,2.448-2.376c4.32-4.32,8.352-8.928,12.096-13.896
	c-5.04,0.144-10.224,0.792-15.408,1.584c-1.8,0.288-4.176,0.648-6.48,1.08c-10.44,1.728-20.808,3.456-31.608,2.736
	c-4.392-0.36-9.144-0.936-13.896-1.512c-6.912-0.936-13.824-1.8-20.952-1.728c-6.12,0-12.24,0.432-18.216,1.152
	c-6.12,0.72-12.24,1.728-18.144,3.168c-7.92,1.8-14.976,2.304-22.176,1.8c-7.128-0.576-14.4-2.088-22.896-4.392
	c-9.432-2.448-19.008-2.952-28.728-1.728C136.949,435.168,135.509,435.384,133.997,435.6z"/>
<path fill="#009036" d="M122.836,419.184c2.52,4.392,5.328,8.64,8.28,12.672c2.232-0.432,4.536-0.864,6.768-1.152
	c10.224-1.296,20.376-0.792,30.312,1.872c8.208,2.16,15.264,3.672,22.176,4.176c6.768,0.504,13.464,0.072,20.88-1.656
	c6.048-1.44,12.312-2.52,18.576-3.24c6.12-0.792,12.456-1.152,18.72-1.224c7.272,0,14.4,0.864,21.528,1.8
	c4.464,0.576,8.856,1.152,13.608,1.44c10.44,0.72,20.448-0.936,30.6-2.664c2.016-0.288,3.96-0.648,6.552-1.008
	c6.408-1.008,12.816-1.8,19.08-1.656c3.096-4.464,5.904-9.072,8.424-13.896c-1.224-0.288-2.52-0.432-3.744-0.576
	c-7.488-0.936-15.264-0.072-23.112,1.152c-1.8,0.288-4.176,0.72-6.48,1.08c-10.44,1.728-20.808,3.456-31.608,2.736
	c-4.392-0.288-9.144-0.936-13.896-1.512c-6.912-0.864-13.824-1.8-20.952-1.728c-6.12,0-12.24,0.432-18.216,1.152
	c-6.12,0.72-12.24,1.8-18.144,3.168c-7.92,1.872-14.976,2.376-22.176,1.8c-7.128-0.504-14.4-2.088-22.896-4.32
	c-9.432-2.52-19.008-3.024-28.728-1.8C133.276,416.52,128.093,417.6,122.836,419.184z"/>
<path fill="#FFFFFF" d="M114.989,402.696c1.728,4.32,3.672,8.568,5.76,12.672c5.76-1.8,11.448-3.024,17.136-3.744
	c10.224-1.296,20.376-0.792,30.312,1.8c8.208,2.232,15.264,3.672,22.176,4.248c6.768,0.504,13.464,0,20.88-1.728
	c6.048-1.44,12.312-2.52,18.576-3.24c6.12-0.72,12.456-1.152,18.72-1.152c7.272-0.072,14.4,0.864,21.528,1.728
	c4.464,0.576,8.856,1.152,13.608,1.512c10.44,0.72,20.448-1.008,30.6-2.664c2.016-0.36,3.96-0.72,6.552-1.08
	c8.208-1.296,16.344-2.16,24.192-1.224c1.8,0.144,3.528,0.432,5.256,0.864c2.016-4.176,3.744-8.568,5.256-12.96
	c-3.528-1.512-7.2-2.376-10.944-2.808c-7.488-0.864-15.264-0.072-23.112,1.224c-1.8,0.216-4.176,0.648-6.48,1.008
	c-10.44,1.8-20.808,3.528-31.608,2.736c-4.392-0.288-9.144-0.864-13.896-1.512c-6.912-0.864-13.824-1.728-20.952-1.728
	c-6.12,0.072-12.24,0.432-18.216,1.152c-6.12,0.72-12.24,1.8-18.144,3.168c-7.92,1.872-14.976,2.376-22.176,1.8
	c-7.128-0.504-14.4-2.088-22.896-4.32c-9.432-2.521-19.008-2.952-28.728-1.729C130.685,397.656,122.836,399.744,114.989,402.696z"/>
<path fill="#009036" d="M109.661,385.704c1.08,4.392,2.376,8.712,3.816,12.96c8.208-3.024,16.344-5.184,24.408-6.192
	c6.12-0.792,12.168-0.936,18.216-0.36c-6.264-4.536-11.664-9.504-16.272-14.688c-4.896,0.504-9.792,1.512-14.76,2.88
	C119.957,381.672,114.845,383.472,109.661,385.704z"/>
<path fill="#FFFFFF" d="M106.781,367.488c0.432,4.68,1.08,9.36,2.016,13.968c5.04-2.16,10.08-3.888,15.12-5.328
	c4.176-1.152,8.424-2.016,12.6-2.592c-2.592-3.24-4.896-6.624-6.912-10.08c-0.504-0.864-0.936-1.728-1.44-2.592
	c-3.888,0.864-7.704,1.872-11.448,3.096C113.333,364.968,110.021,366.192,106.781,367.488z"/>
<path d="M270.725,360.288c1.728-0.144,3.528-0.288,5.328-0.432c-0.072,1.512-0.072,3.024,0.144,4.536
	c-1.8-0.072-3.6-0.072-5.4-0.072C270.292,362.808,270.509,361.296,270.725,360.288z"/>
<path d="M258.989,360.864c2.304-0.072,4.68-0.144,6.984-0.288c0,1.296-0.072,2.52-0.288,3.744c-2.088,0-4.176,0-6.264,0
	C258.917,363.24,258.845,362.088,258.989,360.864z"/>
<path d="M247.037,360.792c2.592,0.072,5.184,0.144,7.776,0.072c0,1.224-0.144,2.304-0.432,3.456c-2.232,0-4.464,0-6.696,0.072
	C247.108,363.24,246.964,362.088,247.037,360.792z"/>
<path d="M234.581,360.216c2.88,0.216,5.688,0.36,8.496,0.432c0.072,1.296,0,2.52-0.144,3.744c-2.808,0.072-5.616,0.144-8.424,0.144
	C234.004,363.312,234.292,361.872,234.581,360.216z"/>
<path fill="#E2001A" d="M302.621,369.576c-2.664-0.36-5.328-0.576-8.064-0.648c-3.816,0-7.632,0.288-11.232,1.224
	c0.36,2.736,0.936,5.4,1.728,7.92c3.672-0.36,7.272-0.576,10.872-0.504c2.304,0,4.608,0.144,6.912,0.36L302.621,369.576z"/>
<path fill="#E2001A" d="M327.172,375.984c0.792-2.448,1.368-4.968,1.8-7.632c-2.88-0.216-5.76-0.144-8.712,0.144
	c-2.592,0.216-5.256,0.648-7.92,1.224l2.664,7.128c1.008-0.144,1.944-0.288,2.952-0.36
	C321.053,376.128,324.077,375.984,327.172,375.984z"/>
<path fill="#E2001A" d="M302.909,382.248c-2.376-0.288-4.68-0.432-6.984-0.432c-3.096-0.072-6.12,0.072-9.144,0.36
	c2.376,4.752,5.976,8.712,11.304,11.448c1.872,0.936,3.456,1.152,5.04,1.08L302.909,382.248z"/>
<path fill="#E2001A" d="M308.093,394.128c4.608-0.576,10.008-1.656,12.096-4.32c2.232-2.952,4.032-6.12,5.472-9.504
	c-2.448,0-4.896,0.144-7.272,0.432c-1.512,0.144-3.024,0.36-4.536,0.648L308.093,394.128z"/>
<path fill="#E2001A" d="M280.517,377.928c-0.648-2.304-1.08-4.752-1.44-7.272c-12.96,0.072-25.704,0.216-38.448,0.504
	c-13.32,0.288-26.712,0.72-40.392,1.224c-3.024,0.072-6.048,0.36-9,0.648c-2.376,0.288-4.752,0.504-6.624,0.648
	c-2.664,0.144-7.92,0.432-10.008-1.584c-3.168-2.952,1.224-5.832-5.976-7.992c-13.32-3.96-22.608-9.648-28.944-16.776
	c-6.552-7.272-9.864-15.84-11.232-24.912c-0.36-2.232-0.144-6.048-3.096-5.976c-0.576,0-1.296,0-1.728,0.072
	c-1.944,0.072-2.016,2.304-1.944,3.96c0.648,12.96,1.8,27,11.952,36.288c5.832,5.328,12.6,9.576,19.944,12.672
	c12.312,5.328,25.128,7.128,38.448,7.56c12.456,0.36,24.768,0.216,37.08,0.072C246.245,376.92,263.309,376.776,280.517,377.928z"/>
<path fill="#E2001A" d="M284.333,386.712c-0.864-1.368-1.584-2.88-2.232-4.392c-17.856-1.296-35.352-1.152-52.992-0.936
	c-13.392,0.144-26.784,0.216-40.464-0.216c-13.032-0.504-25.56-3.024-36.792-7.776c-6.336-2.736-12.24-6.192-17.568-10.44
	c3.456,5.616,6.12,9.936,12.024,12.816c6.696,3.168,13.68,5.688,20.808,7.488c9.792,2.52,19.944,3.744,30.384,3.672
	c8.856-0.072,17.712-0.216,26.64-0.36C244.084,386.208,264.245,385.848,284.333,386.712z"/>
<path fill="#E2001A" d="M211.252,396.792c6.048-1.368,12.312-2.448,18.576-3.24c6.12-0.72,12.456-1.152,18.72-1.152
	c7.272-0.072,14.4,0.864,21.528,1.8c4.464,0.504,8.856,1.08,13.608,1.44c3.168,0.216,6.336,0.216,9.432,0.072
	c-2.016-1.368-3.816-2.88-5.4-4.536c-21.24-1.08-42.408-0.72-63.504-0.36c-8.928,0.216-17.784,0.36-26.64,0.432
	c-10.8,0.072-21.384-1.224-31.536-3.816c-5.184-1.368-10.224-3.024-15.192-5.04C167.405,397.152,189.94,401.832,211.252,396.792z"/>
<path fill="#E2001A" d="M310.9,365.688c2.952-0.648,5.904-1.152,8.928-1.44c3.312-0.36,6.552-0.432,9.72-0.144
	c0.36-3.24,0.504-6.696,0.432-10.224c-1.512-0.144-2.952-0.144-4.32-0.072c-1.8,0.144-3.384,0.432-4.896,0.936
	c-2.736,0.792-5.472,1.224-8.28,1.368c-1.728,0.072-3.456,0-5.184-0.288L310.9,365.688z"/>
<path fill="#E2001A" d="M282.964,365.832c3.744-0.864,7.704-1.224,11.664-1.152c2.664,0,5.328,0.216,7.92,0.576l-0.216-10.224
	c-2.952-0.504-6.048-0.648-9.072-0.432c-3.528,0.216-6.984,0.864-10.224,1.872C282.821,359.64,282.821,362.736,282.964,365.832z"/>
<path fill="#E2001A" d="M329.836,349.632c-0.288-6.048-1.08-12.312-2.232-18.648c-0.288-1.728,0-1.944-1.944-2.232
	c-2.448-0.36-4.968-0.648-7.488-0.864c-1.224-0.072-1.008-0.144-1.656,0.936c-0.936,1.512-1.8,3.024-2.52,4.608
	c-5.112-0.216-10.08-0.216-14.976,0.072c-0.36-1.656-1.008-3.168-1.944-4.68c-0.576-0.864-0.432-0.936-1.512-0.864
	c-2.088,0.216-4.176,0.432-6.192,0.72c-2.232,0.288-1.872-0.288-2.376,2.016c-1.368,6.552-2.808,13.896-3.528,21.24
	c3.096-0.864,6.264-1.44,9.504-1.584c4.032-0.288,8.136-0.072,12.096,0.792c2.448,0.504,4.896,0.792,7.272,0.648
	c2.376-0.072,4.824-0.432,7.2-1.152c1.8-0.576,3.744-0.936,5.832-1.08C326.741,349.488,328.252,349.488,329.836,349.632z"/>
<path d="M318.46,341.424c2.376,0,4.68,0.072,7.056,0.216c0.288,0.072,0.576,0.216,0.864,0.432c0.216,0.216,0.36,0.504,0.36,0.792
	c0.072,0.36,0.072,0.72,0.144,1.008c0.072,0.36,0.072,0.72,0.144,1.008c0,0.36-0.072,0.576-0.288,0.792
	c-0.216,0.216-0.504,0.36-0.864,0.36c-2.376-0.072-4.752-0.072-7.128,0c-0.36,0-0.648-0.072-0.864-0.288
	c-0.216-0.216-0.36-0.504-0.432-0.864c0-0.36,0-0.72-0.072-1.08c0-0.36,0-0.792-0.072-1.152c0-0.288,0.144-0.648,0.36-0.864
	C317.885,341.568,318.172,341.424,318.46,341.424z"/>
<path d="M304.708,341.784c2.376,0.216,4.68,0.36,7.056,0.216c0.288,0,0.648,0.144,0.864,0.288c0.216,0.216,0.288,0.504,0.36,0.864
	c0,0.36,0,0.72,0,1.152c0.072,0.36,0.072,0.72,0.072,1.152c0,0.288-0.144,0.648-0.36,0.864c-0.216,0.288-0.504,0.432-0.792,0.432
	c-2.376,0-4.824-0.288-7.2-0.504c-0.288,0-0.576-0.144-0.864-0.36c-0.216-0.216-0.288-0.576-0.288-0.864c0-0.36,0-0.72,0-1.152
	c0-0.36,0-0.72,0-1.08c0-0.288,0.144-0.576,0.36-0.792C304.132,341.856,304.42,341.712,304.708,341.784z"/>
<path d="M291.029,341.568c2.304-0.36,4.68-0.576,6.984-0.576c0.36,0.072,0.648,0.216,0.864,0.432
	c0.216,0.288,0.288,0.576,0.288,0.936c0,0.432,0,0.792,0,1.224c-0.072,0.36-0.072,0.792-0.072,1.152c0,0.36-0.144,0.648-0.36,0.864
	c-0.216,0.288-0.504,0.432-0.864,0.432c-2.376,0-4.752,0.144-7.128,0.432c-0.36,0-0.648-0.072-0.864-0.288
	c-0.216-0.216-0.36-0.504-0.288-0.864c0-0.36,0.072-0.72,0.072-1.152c0.072-0.36,0.072-0.72,0.072-1.152
	c0.072-0.36,0.216-0.648,0.432-0.936C290.38,341.784,290.668,341.568,291.029,341.568z"/>
<path fill="#FFED00" d="M195.989,323.568c-3.888,1.872-7.632,3.96-11.376,6.048c-0.36-11.736,0.432-23.472-0.216-35.136
	c-0.072-1.728,0-3.096,0.144-4.32c0.576,0.144,1.224,1.224,2.16,3.6C189.077,299.592,192.389,311.184,195.989,323.568z"/>
<path fill="#FFED00" d="M152.068,336.384c3.528-19.512,12.384-38.016,22.464-56.016c2.52,4.464-0.504,15.768-1.8,20.88
	c-2.376,9.504-4.176,21.384-5.544,31.968c3.384-11.304,6.696-22.824,9.648-35.496c1.08,9.648,1.152,21.168,1.224,32.616
	c0.792-4.392,1.512-8.784,2.232-13.176c0.072-0.648,2.304-1.008,2.304,0.216c-0.072,16.416-0.144,32.904-0.144,49.32
	c-0.072,1.584-0.432,1.944-1.224,2.016c-0.288,0-1.368,0.072-2.448,0.072c-2.808,0.072-2.304-0.72-2.232-3.456
	c0.36-10.584,0.864-21.24,1.512-31.896c-4.536,2.664-8.856,5.256-13.104,7.848c-0.576,5.112-1.008,10.152-1.152,15.192
	c0,2.088-1.008,2.52-1.944,2.376c-0.792-0.144-1.44-0.576-1.296-2.952c0.36-4.104,0.72-8.28,1.08-12.456
	c-1.656,1.08-3.24,2.16-4.824,3.24c1.728-3.24,3.744-6.192,6.192-8.856c1.368-1.728-1.008-3.672-2.448-1.944
	c-1.44,1.944-3.168,4.248-4.464,6.192c0.288-1.8,0.648-3.672,1.08-5.472c0.504-2.088-2.448-2.88-3.024-0.72
	c-0.648,2.88-1.152,5.832-1.512,8.784C150.917,342.504,151.493,339.552,152.068,336.384z"/>
<path fill="#FFED00" d="M183.964,259.992c-1.656,2.16-3.024,4.392-4.32,6.624c-1.008-1.656-1.08-1.728-1.008-3.6
	c0.216-12.528,0.864-25.056,1.584-37.584c0.144-2.16,2.736-1.944,2.808,0.144C183.46,236.952,183.533,248.616,183.964,259.992z"/>
<path fill="#FFED00" d="M160.637,232.56h9.504c1.368,0,3.888,1.08,4.68,0.792c1.368-0.576,3.384-1.152,3.24,1.152
	c-0.144,2.016-0.216,4.032-0.288,6.048c-0.144,3.096-0.216,2.952-3.168,2.448c-1.152-0.144-2.664,0.504-4.032,0.504h-9.936
	c-0.72,0-1.296-0.576-1.296-1.224v-8.424C159.34,233.136,159.917,232.56,160.637,232.56z"/>
<path fill="#FFED00" d="M208.517,351.504l-0.288,9.432c1.656-1.296,3.096-2.88,5.112-3.888c0-0.432-0.288-3.384-0.072-5.976
	c0.072-0.792,0.288-1.08,0.288-1.944c0-1.656-0.216-3.384-0.288-4.464c0-1.728-1.584-1.584-3.168-1.44
	c0.144-6.984,0.288-13.896,0.36-20.88c0.072-3.672-2.232-0.792-3.096,0.504c-4.248,5.904-7.992,12.096-11.088,18.432
	c-3.6,7.344-6.912,14.256-8.424,21.24c-0.72,3.096,1.008,2.952,2.736,1.08c4.608-4.968,9.576-9.576,14.832-13.752
	C207.652,348.048,208.517,349.272,208.517,351.504z"/>
<path fill="#FFED00" d="M261.365,325.512c-5.76,6.84-9.72,15.696-12.744,21.456c-1.296,2.448,1.944,2.448,3.168,0.504
	c3.744-5.616,8.208-10.296,13.176-14.328L261.365,325.512z"/>
<path fill="#FFED00" d="M216.004,306.432c0.648,11.376,1.44,22.752,2.448,33.984c1.44-0.936,2.808-1.8,4.248-2.664
	c-1.512-10.44-3.168-20.736-4.824-30.96C216.509,298.728,215.645,300.672,216.004,306.432z"/>
<path fill="#FFED00" d="M223.853,304.272c-1.152,1.224-2.304,2.52-3.384,3.744c1.584,9.432,3.024,18.936,4.464,28.368
	c0.792-0.504,4.176-2.88,4.896-2.376c0.72,0.432,1.008,2.304,1.368,3.168c0.36,0.936,1.872,2.88,2.952,1.8
	c0.576-0.72,0-3.096-0.216-3.816c-0.432-1.728-1.08-3.96-1.368-4.68c-2.88-8.64-5.688-17.064-8.28-24.984
	C224.141,305.064,223.997,304.632,223.853,304.272z"/>
<path fill="#FFED00" d="M205.132,319.824c2.088-0.648,4.752-1.44,5.4-1.8c0.072-8.208,0.144-16.416,0.216-24.624
	c0-4.176-1.368-4.248-1.944-0.288L205.132,319.824z"/>
<path fill="#FFED00" d="M219.604,302.688c0.864-0.936,1.8-1.944,2.736-2.952c-0.792-2.232-1.512-4.536-2.304-6.768
	c-1.08-3.312-2.88-4.176-2.088,0.072C218.453,296.28,219.029,299.448,219.604,302.688z"/>
<path fill="#FFED00" d="M343.661,248.04c-16.92,10.656-31.824,23.76-45.504,39.384c-4.248,4.896-9.216,9.288-13.68,14.256
	c-4.68,5.256-9.36,9.936-13.68,14.256l3.24,4.248c1.656,2.448,0.648,3.816-1.296,1.44c-6.12-7.344-12.168-14.904-18.144-22.464
	c-4.032-5.112-5.04-4.104-2.592,1.08l9.216,19.512c2.016-0.288,3.816-0.216,5.328,0.288c-1.152,1.152-2.232,2.304-3.312,3.384
	c-0.072,0.072-0.144,0.144-0.144,0.144l3.816,8.064c3.528-2.664,7.2-5.04,11.088-7.272c13.104-7.56,29.808-9.216,45.072-4.968
	c3.024,0.864,5.4,2.16,6.624-1.296c7.2-19.512,9-39.312,9.648-59.832c0-0.792,3.384-3.816,5.04-5.328
	C345.677,251.712,345.46,246.96,343.661,248.04z"/>
<path fill="#FFED00" d="M248.117,324.072c3.744-1.728,7.416-3.168,10.728-3.888l-8.352-17.64c-1.08-2.16-2.808-3.24-2.736,0.072
	C247.973,309.96,248.117,317.16,248.117,324.072z"/>
<path fill="#FFED00" d="M235.084,330.768c2.664-1.44,5.4-2.88,8.136-4.32c0.072-6.192,0.072-12.313,0.072-18.504
	c0-4.392-1.224-3.528-2.592-0.36l-5.976,22.104C234.869,330.048,235.013,330.408,235.084,330.768z"/>
<path fill="#FFED00" d="M243.292,326.448c-0.072,7.271-0.072,14.544-0.072,21.816c1.368-1.8,2.808-3.456,4.536-4.608
	c0.216-5.328,0.36-9.864,0.36-15.624C248.117,325.8,244.805,325.656,243.292,326.448z"/>
<path fill="#FFED00" d="M239.765,285.264c-4.608,5.76-9.36,11.52-14.112,16.92c0.288,0.864,0.576,1.728,0.864,2.592
	c2.376,7.2,4.68,14.04,6.912,20.808l9.936-37.296c0-0.504,0-1.008,0-1.512C241.781,286.56,240.484,285.984,239.765,285.264z"/>
<path fill="#FFED00" d="M270.292,315.36c13.032-15.696,25.704-31.536,39.384-45.864c-0.432-20.376-0.216-40.824,0.432-61.2
	c3.384-5.472,7.488-10.224,11.88-14.616c1.728-1.728-2.304-4.032-3.672-2.664c-17.784,17.496-34.56,37.152-50.76,57.96
	c-7.128,9.072-13.896,18.36-20.88,27.504c0.072,1.512,0.144,2.952,0.216,4.464c2.88,0.288,4.968,1.512,4.968,2.952
	c0,1.296-1.728,2.376-4.104,2.88L270.292,315.36z"/>
<path fill="#FFED00" d="M224.141,297.72c1.8-1.944,3.6-3.816,5.112-5.544c4.68-5.328,9.216-10.8,13.608-16.56
	c0.216-0.288,0.432-0.576,0.648-0.864c0.072-5.832,0.144-11.592,0.288-17.352c0.072-2.52,1.656-1.584,1.728,0.144
	c0.288,4.536,0.576,9,0.864,13.464c0.864-1.152,1.8-2.376,2.664-3.528c-0.72-24.48-1.584-49.032-3.528-73.584
	c1.656-2.736,3.024-5.688,5.112-7.992c2.016-2.304-0.072-7.272-2.952-4.392c-26.136,26.208-45.792,52.704-62.136,79.2
	c-0.576,0.936-1.224,1.944-1.8,2.952c3.6,19.728,8.712,39.384,14.04,59.04c1.656-0.72,3.24-1.44,4.824-2.088l6.192-44.64
	c-2.016-0.432-3.384-1.296-3.384-2.304c0-1.296,2.304-2.376,5.328-2.664c0-5.904,0-11.808,0-17.712c0-1.368,2.232-1.368,2.376,0.072
	c0.288,5.904,0.648,11.736,0.936,17.64c3.168,0.288,5.544,1.368,5.544,2.664c0,0.936-1.152,1.728-2.88,2.232
	C219.172,283.032,221.692,290.304,224.141,297.72z"/>
<path fill="#FFFFFF" d="M248.621,36.144l1.872,10.944c16.128,0.648,31.968,2.304,47.448,4.752l4.104-10.368
	c-1.728-0.288-3.384-0.576-5.112-0.792l-1.152,7.56c-3.456-0.504-6.912-1.008-10.44-1.44l1.008-7.632
	c-1.944-0.288-3.96-0.504-5.904-0.72l-0.864,7.632c-3.456-0.36-6.984-0.72-10.44-1.008l0.648-7.632
	c-1.944-0.144-3.96-0.36-5.904-0.504l-0.576,7.704c-3.456-0.288-6.984-0.504-10.512-0.648l0.36-7.704
	C251.645,36.216,250.132,36.216,248.621,36.144z"/>
<path fill="#FFFFFF" d="M250.924,49.536l1.44,8.064c1.224,0.072,2.376,0.144,3.6,0.216l0.504-7.992
	C254.597,49.68,252.796,49.608,250.924,49.536z"/>
<path fill="#FFFFFF" d="M252.725,59.976l1.728,9.792c2.88,0.216,5.76,0.36,8.64,0.576l0.792-9.648
	C260.212,60.408,256.469,60.192,252.725,59.976z"/>
<path fill="#FFFFFF" d="M254.885,72.216l1.944,10.944c2.736,0.216,5.544,0.36,8.28,0.648l1.008-10.8
	C262.373,72.648,258.628,72.432,254.885,72.216z"/>
<path fill="#FFFFFF" d="M267.484,84.024c2.016,0.144,4.104,0.36,6.12,0.576l1.368-10.8c-2.16-0.216-4.32-0.432-6.48-0.576
	L267.484,84.024z"/>
<path fill="#FFFFFF" d="M275.98,84.888c2.88,0.288,5.76,0.648,8.64,1.08l4.104-10.368c-3.816-0.576-7.56-1.08-11.376-1.512
	L275.98,84.888z"/>
<path fill="#FFFFFF" d="M289.588,73.296l3.6-9.288c-3.672-0.576-7.344-1.08-11.088-1.512l-1.152,9.648
	C283.829,72.504,286.708,72.864,289.588,73.296z"/>
<path fill="#FFFFFF" d="M294.125,61.776l2.952-7.632c-2.088-0.36-4.248-0.648-6.336-0.936l-1.08,7.92
	C291.101,61.272,292.613,61.56,294.125,61.776z"/>
<path fill="#FFFFFF" d="M329.98,47.16l-0.288,11.16c15.408,3.744,30.456,8.352,45.072,13.824l5.976-9.36
	c-1.296-0.504-2.592-1.008-3.888-1.512l-2.592,7.2c-3.312-1.152-6.624-2.376-9.936-3.456l2.448-7.272
	c-1.872-0.648-3.744-1.296-5.688-1.872l-2.304,7.272c-3.384-1.008-6.696-2.088-10.08-3.096l2.16-7.344
	c-1.872-0.504-3.816-1.08-5.688-1.656l-2.016,7.416c-3.384-0.936-6.84-1.872-10.224-2.736l1.872-7.416
	C333.221,47.952,331.564,47.52,329.98,47.16z"/>
<path fill="#FFFFFF" d="M329.621,60.696l-0.216,8.208c1.296,0.36,2.592,0.648,3.888,1.008l2.088-7.704
	C333.437,61.704,331.564,61.2,329.621,60.696z"/>
<path fill="#FFFFFF" d="M329.333,71.352l-0.288,9.936c2.952,0.792,5.832,1.584,8.712,2.376l2.736-9.36
	C336.749,73.296,333.077,72.288,329.333,71.352z"/>
<path fill="#FFFFFF" d="M329.044,83.736l-0.36,11.16c2.808,0.72,5.616,1.512,8.352,2.376l3.168-10.44
	C336.533,85.752,332.789,84.744,329.044,83.736z"/>
<path fill="#FFFFFF" d="M339.34,97.92c1.944,0.576,3.96,1.224,5.904,1.8l3.528-10.296c-2.088-0.648-4.176-1.296-6.264-1.944
	L339.34,97.92z"/>
<path fill="#FFFFFF" d="M347.477,100.44c2.52,0.864,4.968,1.728,7.488,2.592l6.048-9.504c-3.312-1.152-6.696-2.304-10.008-3.384
	L347.477,100.44z"/>
<path fill="#FFFFFF" d="M362.309,91.512l5.4-8.352c-3.24-1.224-6.48-2.304-9.72-3.456l-3.096,9.216
	C357.413,89.784,359.86,90.648,362.309,91.512z"/>
<path fill="#FFFFFF" d="M369.004,81.072l4.392-6.912c-1.656-0.576-3.384-1.224-5.112-1.872l-2.664,7.56
	C366.772,80.28,367.853,80.64,369.004,81.072z"/>
<path fill="#FFFFFF" d="M278.573,71.856c-4.32-0.504-8.712-0.936-13.104-1.296l0.792-9.72c4.536,0.432,9,0.864,13.464,1.368
	L278.573,71.856z"/>
<path fill="#FFFFFF" d="M288.365,52.848l-1.08,7.92c-4.32-0.576-8.64-1.08-12.96-1.512l0.792-7.992
	C279.581,51.696,283.973,52.272,288.365,52.848z"/>
<path fill="#FFFFFF" d="M272.813,51.048l-0.864,7.92c-4.464-0.432-9-0.792-13.608-1.08l0.504-7.92
	C263.524,50.184,268.132,50.616,272.813,51.048z"/>
<path fill="#FFFFFF" d="M352.661,88.2c-4.176-1.368-8.352-2.664-12.6-3.888l2.664-9.36c4.392,1.296,8.712,2.664,12.96,4.032
	L352.661,88.2z"/>
<path fill="#FFFFFF" d="M366.053,71.568l-2.664,7.488c-4.104-1.44-8.208-2.808-12.384-4.104l2.376-7.632
	C357.628,68.688,361.876,70.056,366.053,71.568z"/>
<path fill="#FFFFFF" d="M351.077,66.672l-2.304,7.632c-4.392-1.368-8.784-2.592-13.176-3.744l2.088-7.776
	C342.148,64.008,346.685,65.304,351.077,66.672z"/>
<path fill="#FFFFFF" d="M166.685,41.472l4.104,10.368c15.552-2.448,31.392-4.104,47.448-4.752l1.944-10.944
	c-1.584,0.072-3.096,0.072-4.608,0.144l0.36,7.704c-3.528,0.144-7.056,0.36-10.512,0.648l-0.576-7.704
	c-1.944,0.144-3.96,0.36-5.904,0.504l0.648,7.632c-3.456,0.288-6.984,0.648-10.44,1.008l-0.864-7.632
	c-1.944,0.216-3.96,0.432-5.904,0.72l0.936,7.632c-3.456,0.432-6.912,0.936-10.44,1.44l-1.08-7.56
	C170.068,40.896,168.413,41.184,166.685,41.472z"/>
<path fill="#FFFFFF" d="M171.652,54.144l2.952,7.632c1.512-0.216,3.024-0.504,4.464-0.648l-1.08-7.92
	C175.9,53.496,173.741,53.784,171.652,54.144z"/>
<path fill="#FFFFFF" d="M175.541,64.008l3.6,9.288c2.88-0.432,5.76-0.792,8.64-1.152l-1.152-9.648
	C182.885,62.928,179.212,63.432,175.541,64.008z"/>
<path fill="#FFFFFF" d="M180.004,75.6l4.104,10.368c2.88-0.432,5.76-0.792,8.64-1.08l-1.368-10.8
	C187.564,74.52,183.821,75.024,180.004,75.6z"/>
<path fill="#FFFFFF" d="M195.125,84.6c2.016-0.216,4.104-0.432,6.12-0.576l-1.008-10.8c-2.16,0.144-4.32,0.36-6.48,0.576
	L195.125,84.6z"/>
<path fill="#FFFFFF" d="M203.621,83.808c2.736-0.288,5.544-0.432,8.28-0.648l1.944-10.944c-3.744,0.216-7.488,0.432-11.232,0.792
	L203.621,83.808z"/>
<path fill="#FFFFFF" d="M214.276,69.768l1.728-9.792c-3.744,0.216-7.488,0.432-11.16,0.72l0.792,9.648
	C208.517,70.128,211.396,69.984,214.276,69.768z"/>
<path fill="#FFFFFF" d="M216.365,57.6l1.44-8.064c-1.872,0.072-3.672,0.144-5.544,0.288l0.504,7.992
	C213.989,57.744,215.141,57.672,216.365,57.6z"/>
<path fill="#FFFFFF" d="M87.989,62.784l5.976,9.36c14.616-5.472,29.664-10.08,45.072-13.824l-0.288-11.16
	c-1.584,0.36-3.24,0.792-4.824,1.152l1.872,7.416c-3.384,0.864-6.84,1.8-10.224,2.736l-2.016-7.416
	c-1.944,0.576-3.816,1.152-5.688,1.656l2.16,7.344c-3.384,1.008-6.696,2.088-10.08,3.096l-2.376-7.272
	c-1.872,0.576-3.744,1.224-5.616,1.872l2.448,7.272c-3.312,1.08-6.624,2.304-9.936,3.456l-2.592-7.2
	C90.581,61.776,89.285,62.28,87.989,62.784z"/>
<path fill="#FFFFFF" d="M95.333,74.16l4.392,6.912c1.152-0.432,2.232-0.792,3.384-1.224l-2.664-7.56
	C98.717,72.936,96.989,73.584,95.333,74.16z"/>
<path fill="#FFFFFF" d="M101.021,83.16l5.4,8.352c2.448-0.864,4.896-1.728,7.416-2.592l-3.096-9.216
	C107.5,80.856,104.261,81.936,101.021,83.16z"/>
<path fill="#FFFFFF" d="M107.717,93.528l6.048,9.504c2.52-0.936,4.968-1.728,7.488-2.592l-3.528-10.296
	C114.34,91.224,111.029,92.376,107.717,93.528z"/>
<path fill="#FFFFFF" d="M123.484,99.72c1.944-0.576,3.96-1.224,5.904-1.8l-3.168-10.44c-2.088,0.648-4.176,1.296-6.264,1.944
	L123.484,99.72z"/>
<path fill="#FFFFFF" d="M131.692,97.272c2.736-0.864,5.544-1.656,8.352-2.376l-0.288-11.16c-3.816,1.008-7.56,2.016-11.232,3.096
	L131.692,97.272z"/>
<path fill="#FFFFFF" d="M139.685,81.288l-0.288-9.936c-3.744,0.936-7.416,1.944-11.16,2.952l2.736,9.36
	C133.853,82.872,136.732,82.08,139.685,81.288z"/>
<path fill="#FFFFFF" d="M139.325,68.904l-0.216-8.208c-1.944,0.504-3.816,1.008-5.76,1.512l2.088,7.704
	C136.732,69.552,138.029,69.264,139.325,68.904z"/>
<path fill="#FFFFFF" d="M190.157,71.856c4.32-0.504,8.712-0.936,13.104-1.296l-0.792-9.72c-4.536,0.432-9,0.864-13.464,1.368
	L190.157,71.856z"/>
<path fill="#FFFFFF" d="M180.365,52.848l1.08,7.92c4.32-0.576,8.64-1.08,12.96-1.512l-0.792-7.992
	C189.148,51.696,184.756,52.272,180.365,52.848z"/>
<path fill="#FFFFFF" d="M195.917,51.048l0.792,7.92c4.536-0.432,9.072-0.792,13.68-1.08l-0.504-7.92
	C205.205,50.184,200.597,50.616,195.917,51.048z"/>
<path fill="#FFFFFF" d="M116.068,88.2c4.176-1.368,8.352-2.664,12.6-3.888l-2.664-9.36c-4.392,1.296-8.712,2.664-12.96,4.032
	L116.068,88.2z"/>
<path fill="#FFFFFF" d="M102.677,71.568l2.664,7.488c4.104-1.44,8.208-2.808,12.384-4.104l-2.376-7.632
	C111.101,68.688,106.853,70.056,102.677,71.568z"/>
<path fill="#FFFFFF" d="M117.652,66.672l2.304,7.632c4.392-1.368,8.784-2.592,13.176-3.744l-2.088-7.776
	C126.581,64.008,122.044,65.304,117.652,66.672z"/>
<polygon fill="#FFFFFF" points="71.285,43.056 67.829,34.704 62.356,37.008 65.885,45.36 56.021,49.464 52.564,41.112 
	47.093,43.416 52.276,55.728 88.205,40.608 83.021,28.296 77.621,30.6 81.077,38.952 "/>
<path fill="#FFFFFF" d="M81.581,46.008l-23.112,9.72c0.792,1.296,1.584,2.592,2.592,3.816l22.248-9.36
	C82.949,48.744,82.373,47.232,81.581,46.008z"/>
<path fill="#FFFFFF" d="M106.276,105.696c1.728-0.648,3.456-1.224,5.256-1.872l-27.72-43.128c0-2.736,0.216-5.328-0.144-8.064
	l-20.952,8.784c1.944,2.016,4.248,3.6,6.84,4.752l5.544,13.32c3.744-0.864,9.288-0.504,12.672,0.288
	c2.16,0.792,3.96,2.376,5.832,5.4v0.072L106.276,105.696z"/>
<path fill="#FFFFFF" d="M101.813,107.424c0.72-0.288,1.512-0.576,2.232-0.864L91.588,86.472l0,0
	c-1.584-2.592-2.952-3.888-4.608-4.464c-2.88-0.936-7.704-0.864-10.872-0.288l0.792,2.232c3.24-0.648,8.064-0.648,10.8,1.296
	c0.576,0.576,1.224,1.368,1.872,2.448l0,0L101.813,107.424z"/>
<path fill="#FFFFFF" d="M88.853,112.824c0.072-0.072,0.144-0.072,0.288-0.144c3.456-1.512,6.912-2.952,10.44-4.32l-0.576-1.008
	l-8.424,3.24c-1.512,0.648-2.448-1.584-0.864-2.232l7.704-3.528l-1.08-1.728l-7.632,2.952c-1.584,0.648-2.448-1.584-0.936-2.232
	l7.056-3.168l-1.08-1.8l-6.912,2.664c-1.584,0.648-2.52-1.512-0.936-2.16l6.264-2.952l-1.08-1.728l-6.192,2.304
	c-1.512,0.648-2.448-1.512-0.864-2.16l5.544-2.592l-0.936-1.584l0,0l-0.144-0.216l-5.472,2.016c-1.584,0.72-2.448-1.512-0.936-2.16
	l4.896-2.232c-1.728-2.448-6.408-2.304-9.144-1.872L88.853,112.824z"/>
<polygon fill="#FFFFFF" points="397.444,43.056 400.9,34.704 406.373,37.008 402.845,45.36 412.708,49.464 416.165,41.112 
	421.637,43.416 416.453,55.728 380.524,40.608 385.708,28.296 391.108,30.6 387.581,38.952 "/>
<path fill="#FFFFFF" d="M387.148,46.008l23.112,9.72c-0.792,1.296-1.584,2.592-2.592,3.816l-22.248-9.36
	C385.708,48.744,386.356,47.232,387.148,46.008z"/>
<path fill="#FFFFFF" d="M369.148,108.36c3.528,1.368,6.984,2.808,10.44,4.32c0.144,0.072,0.216,0.072,0.288,0.144l11.016-26.64
	c-2.736-0.432-7.416-0.576-9.144,1.872l4.896,2.232c1.512,0.648,0.648,2.88-0.936,2.16l-5.472-2.016l-0.144,0.216l0,0l-0.936,1.584
	l5.544,2.592c1.584,0.648,0.648,2.808-0.864,2.16l-6.192-2.304l-1.08,1.728l6.264,2.952c1.584,0.648,0.648,2.808-0.936,2.16
	l-6.912-2.664l-1.08,1.8l7.056,3.168c1.512,0.648,0.648,2.88-0.936,2.232l-7.632-2.952l-1.08,1.728l7.704,3.528
	c1.584,0.648,0.648,2.88-0.864,2.232l-8.424-3.24L369.148,108.36z"/>
<path fill="#FFFFFF" d="M364.685,106.56c0.72,0.288,1.512,0.576,2.232,0.864l12.24-19.728l0,0c0.648-1.08,1.296-1.872,1.872-2.448
	c2.736-1.944,7.56-1.944,10.8-1.296l0.792-2.232c-3.168-0.576-7.992-0.647-10.872,0.288c-1.656,0.576-3.024,1.872-4.608,4.464l0,0
	L364.685,106.56z"/>
<path fill="#FFFFFF" d="M357.197,103.824c1.8,0.648,3.528,1.224,5.256,1.872l12.672-20.448v-0.072
	c1.872-3.024,3.672-4.608,5.832-5.4c3.384-0.792,8.928-1.152,12.672-0.288l5.544-13.32c2.52-1.152,4.896-2.736,6.84-4.752
	l-20.952-8.784c-0.36,2.736-0.144,5.328-0.144,8.064L357.197,103.824z"/>
<polygon fill="#FFFFFF" points="324.509,20.88 326.309,12.024 319.108,10.512 317.237,19.44 305.356,17.064 307.157,8.136 
	299.957,6.624 297.292,19.872 342.725,29.088 345.46,15.84 338.188,14.4 336.389,23.328 "/>
<path fill="#FFFFFF" d="M313.924,91.296c-1.728-0.432-3.528-0.792-5.328-1.224c-2.952-0.576-5.976-1.152-8.928-1.729l0.36-0.936
	l8.784,1.44c1.656,0.36,2.16-2.016,0.504-2.304l-8.28-1.944l0.72-1.872l8.064,1.296c1.656,0.36,2.088-1.944,0.432-2.304l-7.488-1.8
	l0.72-1.872l7.272,1.224c1.656,0.288,2.16-2.016,0.504-2.376l-6.768-1.584l0.72-1.944l6.552,1.08
	c1.656,0.36,2.088-2.016,0.432-2.304l-5.976-1.44l0.648-1.728l0,0l0.144-0.288l5.688,0.936c1.656,0.36,2.16-1.944,0.504-2.304
	l-5.256-1.224c0.792-1.728,1.512-2.232,3.744-2.664c0.144,0,0.288,0,0.432-0.072c0.144,0.144,0.288,0.216,0.432,0.288
	c2.232,1.44,2.448,2.16,2.376,4.896l-0.072,2.016l0,0L313.924,91.296z"/>
<path fill="#FFFFFF" d="M318.677,92.376c-0.792-0.216-1.584-0.432-2.376-0.576l1.008-23.112l0,0c0-1.296,0-2.304-0.216-3.168
	c-0.288-1.44-1.08-2.304-2.232-3.168l0,0c-0.648-0.432-1.368-0.936-2.232-1.44c-0.936,0.144-1.8,0.288-2.592,0.504
	c-1.368,0.36-2.448,0.792-3.312,2.016c-0.504,0.72-0.936,1.584-1.368,2.808l0,0l-8.064,21.672c-0.792-0.144-1.584-0.216-2.376-0.36
	l8.208-22.104l0,0c1.08-2.808,2.16-4.392,3.672-5.328c1.512-0.864,3.528-1.296,6.336-1.656c2.448,1.44,4.176,2.592,5.184,4.032
	c1.08,1.44,1.44,3.24,1.368,6.264l0,0L318.677,92.376z"/>
<path fill="#FFFFFF" d="M326.38,94.248c-1.8-0.432-3.6-0.864-5.4-1.368l1.008-24.048l0,0c0.144-3.528-0.36-5.832-1.728-7.776
	c-1.512-2.088-4.392-3.888-6.624-5.04c-2.592,0.216-5.832,0.72-8.064,2.088c-2.016,1.224-3.384,3.168-4.68,6.48l0,0l-8.352,22.536
	c-1.8-0.288-3.672-0.576-5.472-0.792l18.648-47.736c-0.576-2.664-1.296-5.184-1.512-7.92l27.936,5.688
	c-1.224,2.376-2.88,4.464-4.464,6.696L326.38,94.248z"/>
<polygon fill="#FFFFFF" points="151.493,19.44 149.692,10.512 142.42,11.952 144.221,20.88 132.34,23.328 130.541,14.4 
	123.34,15.84 126.004,29.088 171.437,19.872 168.772,6.624 161.573,8.136 163.373,17.064 "/>
<path fill="#FFFFFF" d="M136.588,36.36c1.224,2.448,2.88,4.464,4.464,6.696l1.296,51.192c1.8-0.432,3.6-0.936,5.4-1.368
	l-1.008-24.048l0,0c-0.144-3.528,0.36-5.832,1.728-7.776c1.512-2.088,4.32-3.888,6.624-5.04c2.52,0.216,5.832,0.72,8.064,2.088
	c2.016,1.224,3.384,3.168,4.68,6.48l0,0l8.352,22.536c1.8-0.288,3.672-0.576,5.472-0.792l-18.648-47.736
	c0.576-2.664,1.296-5.184,1.512-7.92L136.588,36.36z"/>
<path fill="#FFFFFF" d="M152.429,91.8l-1.008-23.184c0-1.224,0-2.232,0.216-3.096c0.288-1.44,1.08-2.304,2.232-3.168
	c0.648-0.432,1.368-0.936,2.232-1.44c0.936,0.144,1.8,0.288,2.592,0.504l0,0c1.368,0.36,2.448,0.792,3.312,2.016
	c0.432,0.72,0.936,1.584,1.368,2.808l0,0l8.064,21.672c0.792-0.144,1.584-0.216,2.376-0.36l-8.208-22.104l0,0
	c-1.08-2.808-2.16-4.392-3.672-5.328c-1.512-0.864-3.528-1.296-6.336-1.656c-2.448,1.44-4.176,2.592-5.184,4.032
	c-1.08,1.44-1.44,3.24-1.296,6.264h-0.072l1.008,23.616C150.845,92.16,151.637,91.944,152.429,91.8z"/>
<path fill="#FFFFFF" d="M153.796,67.464l5.256-0.864c1.656-0.36,2.16,2.016,0.504,2.304l-5.688,1.368v0.288l0,0l0.072,1.872
	l6.12-1.008c1.656-0.36,2.16,1.944,0.432,2.304l-6.408,1.512l0.072,2.088l6.84-1.152c1.656-0.288,2.16,2.016,0.504,2.376l-7.2,1.656
	l0.072,2.088L162.004,81c1.656-0.36,2.16,2.016,0.432,2.304l-7.92,1.944l0.072,1.944l8.352-1.368c1.656-0.36,2.16,2.016,0.504,2.304
	l-8.712,2.088l0.072,1.008c1.728-0.36,3.528-0.72,5.328-1.152c2.952-0.576,5.976-1.152,8.928-1.729l-7.2-19.368l0,0l-0.72-1.872
	c-0.936-2.592-1.44-3.168-4.104-3.6c-0.144-0.072-0.288-0.072-0.432-0.144c-0.144,0.144-0.288,0.216-0.432,0.288
	C154.301,64.872,153.796,65.592,153.796,67.464z"/>
<path fill="#FFFFFF" d="M134.573,29.808c0.072,1.44,0.432,2.952,0.936,4.32l29.088-5.904c0-1.512-0.288-2.952-0.792-4.32
	L134.573,29.808z"/>
<path fill="#FFFFFF" d="M304.924,23.904c-0.504,1.368-0.792,2.808-0.792,4.32l29.088,5.904c0.504-1.44,0.864-2.88,0.936-4.32
	L304.924,23.904z"/>
<polygon fill="#FFFFFF" points="238.037,11.52 238.037,2.448 230.692,2.448 230.692,11.52 218.597,11.52 218.597,2.448 
	211.181,2.448 211.181,15.912 257.548,15.912 257.548,2.448 250.132,2.448 250.132,11.52 "/>
<path fill="#FFFFFF" d="M241.637,82.584c-4.896-0.144-9.648-0.144-14.544,0l0.144-1.08l8.928-0.288c1.656,0,1.656-2.376,0-2.376
	l-8.424-0.288l0.288-1.944l8.136-0.288c1.656,0,1.656-2.376,0-2.376l-7.632-0.288l0.288-2.016l7.344-0.216
	c1.656,0,1.656-2.376,0-2.376l-6.912-0.216l0.36-2.088l6.552-0.216c1.656,0,1.656-2.376,0-2.376l-6.12-0.216l0.288-1.8l0,0
	l0.072-0.288l5.76-0.216c1.656,0,1.656-2.376,0-2.376l-5.328-0.216c0.432-1.872,1.008-2.448,3.168-3.24
	c0.144-0.072,0.288-0.144,0.36-0.216c0.144,0.072,0.288,0.144,0.36,0.216c2.52,1.008,2.952,1.584,3.312,4.32l0.36,2.016l0,0
	L241.637,82.584z"/>
<path fill="#FFFFFF" d="M246.46,82.656c-0.792,0-1.656,0-2.448-0.072l-3.6-22.824c-0.216-1.296-0.432-2.304-0.792-3.024
	c-0.576-1.368-1.584-2.016-2.88-2.664l0,0c-0.648-0.36-1.512-0.648-2.376-1.008c-0.864,0.36-1.728,0.648-2.376,1.008
	c-1.368,0.576-2.304,1.296-2.88,2.664c-0.432,0.936-0.648,2.016-0.792,3.024l-3.6,22.824c-0.792,0.072-1.656,0.072-2.448,0.072
	l3.744-23.256l0,0c0.432-2.952,1.224-4.752,2.52-5.904c1.296-1.224,3.168-2.016,5.832-2.952c2.664,0.936,4.536,1.728,5.832,2.952
	c1.296,1.152,2.088,2.952,2.592,5.904l0,0L246.46,82.656z"/>
<path fill="#FFFFFF" d="M254.38,83.016c-1.872-0.072-3.672-0.144-5.544-0.216l-3.744-23.76l0,0c-0.576-3.6-1.584-5.688-3.312-7.344
	c-1.872-1.728-4.968-2.952-7.416-3.6c-2.448,0.648-5.544,1.872-7.416,3.6c-1.728,1.656-2.736,3.744-3.312,7.344l0,0l-3.744,23.76
	c-1.872,0.072-3.672,0.144-5.544,0.216l8.856-50.4c-1.08-2.52-2.304-4.824-3.096-7.488h28.512c-0.792,2.664-1.944,4.968-3.096,7.488
	L254.38,83.016z"/>
<path fill="#FFFFFF" d="M219.46,18.288c-0.216,1.512-0.144,2.952,0.144,4.464h29.592c0.216-1.512,0.288-2.952,0.072-4.464H219.46z"
	/>
<path fill="#FFFFFF" d="M368.141,135.288L368.141,135.288c0.936,0.432,1.44,1.152,1.512,1.872c0,0.288,0,0.504-0.072,0.72l0,0
	c-0.504,1.152-2.088,0.72-2.952,0.36c-84.096-36.072-180.432-36.072-264.528,0c-0.864,0.36-2.448,0.792-2.952-0.36l0,0
	c-0.072-0.216-0.072-0.432-0.072-0.72c0.072-0.72,0.576-1.44,1.512-1.872l0,0C188.212,98.928,280.517,98.928,368.141,135.288z"/>
<path fill="#FFFFFF" d="M363.316,127.08c0.576,0.216,1.08,0.432,1.44,0.72c0.72,0.432,1.08,0.864,1.296,1.296l0,0
	c0.072,0.288,0.072,0.648,0,0.864c-0.504,1.224-1.944,1.008-2.952,0.648c-82.152-33.552-175.32-33.552-257.544,0
	c-0.936,0.36-2.376,0.576-2.88-0.648c-0.072-0.216-0.072-0.576,0-0.864l0,0c0.216-0.432,0.576-0.864,1.296-1.296
	c0.36-0.288,0.864-0.504,1.44-0.72C187.781,93.816,280.949,93.816,363.316,127.08z"/>
<path fill="#FFFFFF" d="M362.524,120.6c1.224,0.432,1.728,1.152,1.728,1.728l0,0c0.072,0.216,0,0.504-0.072,0.72l0,0l-0.072,0.072
	c-0.504,1.224-1.368,1.152-2.376,0.792l0,0c-0.216-0.144-0.504-0.288-0.648-0.288c-81.144-31.896-172.296-31.896-253.44,0
	c-0.144,0-0.432,0.144-0.648,0.288l0,0c-1.008,0.36-1.872,0.432-2.376-0.792c-0.072,0-0.072-0.072-0.072-0.072l0,0
	c-0.072-0.216-0.144-0.504-0.072-0.72l0,0c0-0.576,0.504-1.296,1.728-1.728C188.212,88.272,280.517,88.272,362.524,120.6z"/>
<path fill="#FFFFFF" d="M368.141,116.64c0.936,0.36,2.448,1.296,1.944,2.52c-0.432,1.008-1.728,1.224-2.664,0.792
	c-84.888-34.632-181.224-34.632-266.112,0c-0.936,0.432-2.232,0.216-2.664-0.792c-0.504-1.224,1.008-2.16,1.944-2.52
	C185.98,82.008,282.749,82.008,368.141,116.64z"/>
<path fill="#FFFFFF" d="M378.652,114.84c0.72,0.36,1.08,1.008,1.152,1.728c0,0.288-0.072,0.504-0.144,0.72
	c-0.072,0.216-0.216,0.36-0.36,0.504c-0.432,0.36-1.296,0.432-2.592-0.072c-90.432-39.24-194.256-39.24-284.76,0
	c-1.224,0.504-2.088,0.432-2.52,0.072c-0.144-0.144-0.288-0.288-0.36-0.504c-0.072-0.216-0.144-0.432-0.144-0.72
	c0.072-0.72,0.432-1.368,1.152-1.728C181.661,74.952,287.068,74.952,378.652,114.84z"/>
<path d="M223.997,45.864l1.944-11.016c0.36-1.152,0.288-1.008,1.44-1.152h1.8c0.864,0.072,0.936,0.432,0.864,1.152l-2.016,11.16
	c-0.144,0.864-0.144,1.368-1.224,1.368h-1.728C223.708,47.376,223.781,47.088,223.997,45.864z"/>
<path d="M244.732,45.864l-1.944-11.016c-0.36-1.152-0.288-1.008-1.44-1.152h-1.8c-0.864,0.072-0.936,0.432-0.864,1.152l1.944,11.16
	c0.216,0.864,0.216,1.368,1.296,1.368h1.728C245.021,47.376,244.949,47.088,244.732,45.864z"/>
<path d="M144.509,55.872l-0.288-11.16c0.072-1.152,0-1.08,1.152-1.44l1.8-0.36c0.792-0.072,1.008,0.216,1.008,1.008l0.288,11.304
	c0,0.936,0.144,1.368-0.936,1.584l-1.728,0.36C144.437,57.456,144.509,57.168,144.509,55.872z"/>
<path d="M164.813,51.768L160.781,41.4c-0.576-1.08-0.504-1.008-1.656-0.864l-1.8,0.36c-0.792,0.216-0.864,0.576-0.576,1.296
	l4.104,10.512c0.36,0.864,0.504,1.368,1.512,1.152l1.728-0.36C165.46,53.208,165.245,52.92,164.813,51.768z"/>
<path d="M303.917,51.768l4.032-10.368c0.576-1.08,0.504-1.008,1.656-0.864l1.8,0.36c0.792,0.216,0.792,0.576,0.576,1.296
	l-4.176,10.512c-0.288,0.864-0.432,1.368-1.512,1.152l-1.656-0.36C303.269,53.208,303.484,52.92,303.917,51.768z"/>
<path d="M324.221,55.872l0.288-11.16c-0.072-1.152,0-1.08-1.152-1.44l-1.8-0.36c-0.792-0.072-1.008,0.216-1.008,1.008l-0.288,11.304
	c0,0.864-0.144,1.368,0.936,1.584l1.728,0.36C324.292,57.456,324.221,57.168,324.221,55.872z"/>
<path d="M88.132,73.224l-5.976-9.36c-0.792-0.937-0.72-0.864-1.8-0.576l-1.728,0.72c-0.72,0.432-0.648,0.72-0.288,1.368l6.12,9.504
	c0.504,0.792,0.72,1.296,1.728,0.864l1.584-0.72C89.068,74.52,88.853,74.304,88.132,73.224z"/>
<path d="M380.597,73.224l5.976-9.36c0.792-0.937,0.72-0.864,1.8-0.576l1.728,0.72c0.72,0.432,0.648,0.72,0.288,1.368l-6.12,9.504
	c-0.504,0.792-0.72,1.296-1.728,0.864l-1.584-0.72C379.661,74.52,379.876,74.304,380.597,73.224z"/>
</svg>
