<?xml version="1.0" encoding="utf-8"?>
<!-- Generator: Adobe Illustrator 13.0.2, SVG Export Plug-In . SVG Version: 6.00 Build 14948)  -->
<!DOCTYPE svg PUBLIC "-//W3C//DTD SVG 1.0//EN" "http://www.w3.org/TR/2001/REC-SVG-20010904/DTD/svg10.dtd">
<svg version="1.0" id="Ebene_1" xmlns="http://www.w3.org/2000/svg" xmlns:xlink="http://www.w3.org/1999/xlink" x="0px" y="0px"
	 width="447.99px" height="527.244px" viewBox="0 0 447.99 527.244" enable-background="new 0 0 447.99 527.244"
	 xml:space="preserve">
<path d="M4.74,54.393c4.087,0.365,8.046,0.722,11.884,1.068c107.01,9.633,118.916,10.705,204.636-53.54L223.822,0l2.55,1.904
	c86.082,64.261,97.997,63.188,204.998,53.556c3.838-0.346,7.796-0.703,11.88-1.068l4.74-0.423l-0.094,4.786l-0.003,0.066
	c-0.557,27.904-2.484,54.97-5.78,81.189c-3.293,26.193-7.96,51.567-14.004,76.119c-31.061,126.161-98.326,229.392-201.687,309.103
	l-2.609,2.013l-2.603-2.013l-0.05-0.038c-20.039-15.495-38.72-31.881-56.039-49.146c-17.342-17.291-33.319-35.458-47.928-54.504
	C42.075,323.622,2.96,202.494,0.095,58.755L0,53.969L4.74,54.393L4.74,54.393z M15.889,64.015c-2.329-0.211-4.704-0.423-7.124-0.64
	c3.59,139.79,42.07,257.646,115.213,352.989c14.385,18.753,30.105,36.633,47.158,53.634c16.336,16.286,33.895,31.772,52.677,46.453
	C324.12,438.237,389.496,337.263,419.821,214.09c5.941-24.141,10.544-49.181,13.805-75.116c3.07-24.429,4.939-49.632,5.604-75.599
	c-2.42,0.217-4.796,0.429-7.125,0.64c-108.797,9.794-121.863,10.957-208.295-53.361C137.72,74.971,124.66,73.808,15.889,64.015
	L15.889,64.015z"/>
<path d="M35.823,171.505h375.872h5.227l-1.031,5.112c-13.354,66.111-34.916,125.887-66.009,179.685
	c-31.102,53.818-71.71,101.596-123.131,143.672l-2.686,2.2l-2.71-2.2c-51.911-42.108-92.527-89.883-123.573-143.672
	c-31.017-53.739-52.49-113.514-66.136-179.667l-1.059-5.13H35.823L35.823,171.505z M406.447,180.06H41.077
	c13.491,63.151,34.342,120.368,64.122,171.965c30.013,51.999,69.086,98.265,118.825,139.119
	c49.354-40.887,88.438-87.149,118.474-139.119C372.287,300.478,393.208,243.259,406.447,180.06L406.447,180.06z"/>
<path fill-rule="evenodd" clip-rule="evenodd" d="M92.458,174.861h58.184v251.194c-22.012-27.258-41.426-56.256-58.184-87.029
	V174.861L92.458,174.861z"/>
<path fill-rule="evenodd" clip-rule="evenodd" d="M355.629,175.632h-58.184v245.807c22.011-27.258,41.426-56.253,58.184-87.026
	V175.632L355.629,175.632z"/>
<polygon fill-rule="evenodd" clip-rule="evenodd" points="194.503,175.521 252.688,175.521 252.688,472.207 224.043,495.94 
	194.503,472.207 194.503,175.521 "/>
<path fill-rule="evenodd" clip-rule="evenodd" d="M290.479,84.177h-12.627c-3.152-7.25-7.518-13.688-14.558-18.335
	c-42.989-5.427-66.955,3.935-76.267,20.285v28.767c2.905,20.754,34.789,28.1,72.825,23.5c8.265-5.071,13.942-11.44,17.027-19.112
	h13.6v18.527c-53.142,19.239-132.066,10.504-133.078-36.079c0.526-30.435,54.193-60.908,133.078-36.082V84.177L290.479,84.177z"/>
<polygon fill-rule="evenodd" clip-rule="evenodd" points="183.142,156.826 183.142,48.583 191.398,48.583 255.993,148.537 
	255.993,48.583 261.697,48.583 261.697,156.989 253.081,156.826 188.969,55.409 188.969,156.662 183.142,156.826 "/>
<polygon fill-rule="evenodd" clip-rule="evenodd" points="210.34,82.714 221.511,82.714 221.511,121.233 210.34,121.233 
	210.34,82.714 "/>
<path fill-rule="evenodd" clip-rule="evenodd" d="M201.111,81.252h42.741c44.52,2.112,46.462,38.193,0,42.419h-42.741v-2.925h42.741
	c35.01-7.396,21.006-34.863,0-36.568h-42.741V81.252L201.111,81.252z"/>
</svg>
