<?xml version="1.0" encoding="UTF-8" standalone="no"?>
<!-- Generator: Adobe Illustrator 15.0.2, SVG Export Plug-In . SVG Version: 6.00 Build 0)  -->

<svg
   xmlns:dc="http://purl.org/dc/elements/1.1/"
   xmlns:cc="http://creativecommons.org/ns#"
   xmlns:rdf="http://www.w3.org/1999/02/22-rdf-syntax-ns#"
   xmlns:svg="http://www.w3.org/2000/svg"
   xmlns="http://www.w3.org/2000/svg"
   xmlns:sodipodi="http://sodipodi.sourceforge.net/DTD/sodipodi-0.dtd"
   xmlns:inkscape="http://www.inkscape.org/namespaces/inkscape"
   version="1.1"
   id="Capa_1"
   x="0px"
   y="0px"
   width="216.64"
   height="239.78999"
   viewBox="0 0 216.63999 570.96492"
   xml:space="preserve"
   inkscape:version="0.48.4 r9939"
   sodipodi:docname="CE_Sabadell_FC.svg"><metadata
   id="metadata95"><rdf:RDF><cc:Work
       rdf:about=""><dc:format>image/svg+xml</dc:format><dc:type
         rdf:resource="http://purl.org/dc/dcmitype/StillImage" /></cc:Work></rdf:RDF></metadata><defs
   id="defs93">
	
	
	
	
	
	
	
	
	
	
	
	
	
	
	
	
	
	
	
	
	
	
	
	
	
	
	
	
	
	
	
	
	
	
	
	
	
	
	
	
	
	
	
</defs><sodipodi:namedview
   pagecolor="#ffffff"
   bordercolor="#666666"
   borderopacity="1"
   objecttolerance="10"
   gridtolerance="10"
   guidetolerance="10"
   inkscape:pageopacity="0"
   inkscape:pageshadow="2"
   inkscape:window-width="1920"
   inkscape:window-height="1018"
   id="namedview91"
   showgrid="false"
   fit-margin-top="0"
   fit-margin-left="0"
   fit-margin-right="0"
   fit-margin-bottom="0"
   inkscape:zoom="3.340423"
   inkscape:cx="108.32"
   inkscape:cy="119.895"
   inkscape:window-x="-8"
   inkscape:window-y="-8"
   inkscape:window-maximized="1"
   inkscape:current-layer="Capa_1" />
<polygon
   style="fill:#3443a8;fill-rule:evenodd"
   id="polygon7"
   points="306.347,372.503 306.347,429.291 440.968,429.291 451.393,372.503 451.393,372.503 "
   transform="translate(-197.16364,-109.71343)" /><path
   style="fill:#3443a8;fill-rule:evenodd"
   inkscape:connector-curvature="0"
   id="path9"
   d="M 109.18336,262.78957 H -32.400638 l -3.46,-68.177 c 42.3570007,9.459 100.322,10.405 145.043998,-55.809 v 123.986 l 0,0 z" /><path
   style="fill:#ed2a14;fill-rule:evenodd;stroke:#feee00;stroke-width:0.21600001;stroke-miterlimit:22.92560005"
   inkscape:connector-curvature="0"
   id="path11"
   d="m 242.31636,320.52357 c -11.914,48.123 -31.607,95.234 -55.581,138.271 -20.461,36.729 -44.256,71.052 -72.382,102.338 l -4.042,4.495 -4.109,-4.433 c -18.124998,-19.547 -34.398998,-40.905 -49.187998,-63.066 -18.495,-27.717 -34.773,-57.007 -48.4669993,-87.386 -10.19,-22.605 -18.9660007,-45.893 -25.7840007,-69.741 -1.947,-6.812 -3.759,-13.639 -5.432,-20.479 H 242.31636 l 0,0.001 z"
   stroke-miterlimit="22.9256" /><path
   style="fill:#fef514;fill-rule:evenodd"
   inkscape:connector-curvature="0"
   id="path13"
   d="m 242.31636,320.52357 c -8.697,35.129 -21.538,69.716 -37.164,102.574 v -102.574 h 37.164 l 0,0 z m -64.4,153.601 c -8.51,14.319 -17.569,28.247 -27.238,41.739 v -195.34 h 27.238 v 153.601 l 0,0 z m -54.475,76.62 c -2.978,3.498 -6.008,6.962 -9.088,10.389 l -4.042,4.495 -4.109,-4.433 c -3.397,-3.663 -6.728998,-7.392 -9.997998,-11.177 v -229.495 h 27.236998 v 230.221 l 0,0 z m -54.472998,-35.358 c -4.092,-5.685 -8.075,-11.442 -11.955,-17.257 -5.278,-7.91 -10.375,-15.95 -15.284,-24.106 v -153.5 h 27.238 v 194.863 l 0.001,0 z m -54.475,-91.861 c -2.032,-4.238 -4.015999,-8.499 -5.9469993,-12.782 -10.19,-22.605 -18.9660007,-45.893 -25.7840007,-69.741 -1.947,-6.812 -3.759,-13.639 -5.432,-20.479 h 37.163 v 103.002 l 0,0 z" /><path
   style="fill-rule:evenodd"
   inkscape:connector-curvature="0"
   id="path15"
   d="m -41.538638,188.01857 c 17.464,6.838 36.5990007,7.988 53.636,6.71 41.905,-3.144 84.453,-32.873 96.849998,-71.072 14.94,35.123 51.472,65.58 91.955,71.133 18.026,2.472 39.93,-0.987 59.951,-7.717 0.94,41.593 -3.956,80.88 -11.263,116.36 -11.031,53.571 -32.817,108.246 -59.961,156.973 -23.951,42.994 -49.714,78.314 -79.263,109.983 -51.827998,-53.269 -105.7459973,-140.878 -130.787998,-228.477 -13.835,-48.398 -21.313,-97.718 -21.117,-153.893 l 0,0 z m 23.853,129.671 H 237.32636 c 1.305,-5.34 2.514,-10.688 3.615,-16.038 6.968,-33.836 11.067,-68.197 11.193,-102.733 -16.978,4.532 -35.603,6.928 -52.433,4.62 -36.159,-4.96 -70.476,-28.59 -90.115,-59.74 -19.285998,33.663 -59.024998,56.9 -96.829998,59.735 -15.0879993,1.131 -30.645,0.379 -45.384,-3.397 0.694,40.066 5.558,78.809 14.942,117.553 l 0,0 z m 252.763998,8.829 H -15.470638 c 1.123,4.32 2.303,8.642 3.54,12.967 6.7380007,23.571 15.4380007,46.647 25.509,68.991 13.544,30.048 29.732,59.174 48.026,86.589 14.539,21.788 30.759,43.089 48.644998,62.378 27.903,-31.038 51.288,-64.757 71.666,-101.335 22.438,-40.278 41.227,-84.542 53.163,-129.59 l 0,0 z" /><polygon
   style="fill-rule:evenodd"
   id="polygon17"
   points="250.801,297.002 241.556,301.603 191.862,244.878 199.787,238.771 199.787,238.771 "
   transform="translate(-197.16364,-109.71343)" /><polygon
   style="fill-rule:evenodd"
   id="polygon19"
   points="364.211,295.738 374.125,299.155 416.575,242.432 409.098,235.759 409.098,235.759 "
   transform="translate(-197.16364,-109.71343)" /><path
   style="fill:#ffffff;fill-opacity:1;fill-rule:evenodd"
   inkscape:connector-curvature="0"
   id="path21"
   d="m -109.32064,431.69557 20.391998,-15.694 c -35.386998,-44.397 -54.829998,-99.468 -54.829998,-156.998 0,-139.282 112.951002,-252.2319997 252.232,-252.2319997 139.282,0 252.232,112.9509997 252.232,252.2319997 0,53.441 -16.762,104.832 -47.665,147.569 l 21.699,15.813 -44.93,11.929 -62.397,-58.688 1.931,-2.011 c 30.021,-31.269 46.648,-72.606 46.648,-115.963 0,-92.503 -75.018,-167.520999 -167.521,-167.520999 -92.502998,0 -167.521998,75.017999 -167.521998,167.520999 0,46.334 19.008,90.274 52.7480007,122.01 l 2.103,1.978 -61.5300007,59.752 -43.590002,-9.697 0,0 z" /><path
   style="fill-rule:evenodd"
   inkscape:connector-curvature="0"
   id="path23"
   d="m 108.47436,3.4605703 c 141.109,0 255.544,114.4339997 255.544,255.5429997 0,55.045 -17.422,106.023 -47.041,147.739 l 24.261,17.157 -51.282,14.978 -0.061,0.062 -0.035,-0.033 -0.057,0.017 -2.325,-2.257 -64.853,-60.996 c 30.859,-29.857 50.056,-71.696 50.056,-118.017 0,-90.676 -73.534,-164.209999 -164.209,-164.209999 -90.676998,0 -164.210998,73.533999 -164.210998,164.209999 0,49.428 21.854,93.758 56.41900068,123.864 l -66.36600068,64.448 -0.117,-0.11 -50.311002,-12.489 22.754998,-17.664 c -33.655998,-43.274 -53.710998,-97.645 -53.710998,-156.699 0,-141.109 114.434002,-255.5429997 255.544,-255.5429997 l 0,0 z m 204.955,408.1569997 c -4.806,6.441 -9.905,12.649 -15.282,18.603 l 29.321,-8.622 -14.039,-9.981 0,0 z m -387.827998,25.828 c -5.330004,-5.462 -10.418004,-11.159 -15.246004,-17.079 l -12.861998,10.123 28.108002,6.956 0,0 z m 8.673,0.096 57.5320007,-55.869 c -34.2040007,-32.171 -53.6170007,-76.798 -53.6170007,-124.02 0,-94.026 76.255,-170.280999 170.281998,-170.280999 94.025,0 170.28,76.254999 170.28,170.280999 0,44.171 -16.973,86.164 -47.418,117.874 l 58.363,54.893 c 43.906,-46.386 68.25,-107.35 68.25,-171.416 0,-137.759 -111.715,-249.4729993 -249.474,-249.4729993 -137.757998,0 -249.473,111.7139993 -249.473,249.4729993 0.002,67.55 27.088,131.53 75.275002,178.538 l 0,0 z" /><polygon
   style="fill-rule:evenodd"
   id="polygon25"
   points="129.765,188.247 153.886,166.964 129.765,165.072 129.765,165.072 "
   transform="translate(-197.16364,-109.71343)" /><polygon
   style="fill-rule:evenodd"
   id="polygon27"
   points="471.258,178.788 447.137,157.505 471.258,155.613 471.258,155.613 "
   transform="translate(-197.16364,-109.71343)" /><path
   inkscape:connector-curvature="0"
   id="path29"
   d="m -58.607638,374.28157 c 4.429,-3.135 8.73,-4.636 12.896,-4.495 4.166,0.141 7.569,1.91 10.215,5.296 3.051,3.904 3.689,8.297 1.902,13.178 -1.773,4.879 -5.8,9.767 -12.066,14.663 -6.396,4.997 -12.159,7.718 -17.29,8.174 -5.131,0.456 -9.314,-1.394 -12.551004,-5.537 -2.63,-3.367 -3.54,-6.938 -2.719,-10.719 0.813,-3.774 3.285,-7.438 7.407004,-10.964 l 4.183,5.354 c -1.951,1.887 -3.094,3.765 -3.436,5.626 -0.342,1.861 0.146,3.636 1.458,5.316 1.867,2.39 4.383,3.347 7.548,2.871 3.166,-0.475 6.859,-2.357 11.078,-5.653 4.087,-3.193 6.76,-6.275 8.026,-9.253 1.262,-2.983 1.007,-5.609 -0.778,-7.895 -1.284,-1.645 -2.941,-2.525 -4.956,-2.643 -2.023,-0.112 -4.271,0.551 -6.763,1.996 l -4.154,-5.315 0,0 z" /><polygon
   id="polygon31"
   points="94.188,470.873 101.371,466.727 110.126,481.892 118.938,476.804 110.931,462.935 118,458.854 126.006,472.723 136.638,466.585 127.471,450.708 135.105,446.301 147.668,468.061 147.668,468.061 106.34,491.922 "
   transform="translate(-197.16364,-109.71343)" /><polygon
   id="polygon33"
   points="98.9,442.178 129.904,431.502 132.116,437.925 132.116,437.925 86.994,453.462 84.649,446.65 111.23,423.127 80.225,433.804 78.014,427.38 123.135,411.843 125.451,418.567 "
   transform="translate(-197.16364,-109.71343)" /><polygon
   id="polygon35"
   points="80.311,386.455 81.341,396.259 120.321,392.161 121.042,399.01 121.042,399.01 82.061,403.107 83.099,412.979 74.619,413.871 71.831,387.346 "
   transform="translate(-197.16364,-109.71343)" /><path
   inkscape:connector-curvature="0"
   id="path37"
   d="m -105.50664,255.83957 0.283,-8.091 c 0.062,-1.752 -0.402,-3.056 -1.39,-3.921 -0.988,-0.857 -2.565,-1.323 -4.754,-1.4 -2.066,-0.072 -3.65,0.276 -4.75,1.037 -1.1,0.761 -1.672,1.944 -1.728,3.525 l -0.292,8.41 12.631,0.44 0,0 z m 26.595998,7.82 -47.692998,-1.665 0.567,-16.222 c 0.127,-3.643 1.338,-6.309 3.621,-7.983 2.283,-1.682 5.718,-2.439 10.293,-2.279 2.907,0.102 5.324,0.613 7.239,1.542 1.915,0.92 3.199,2.199 3.85,3.828 0.792,-1.431 1.944,-2.423 3.479998,-2.99 1.536,-0.559 3.902,-0.826 7.1,-0.808 l 5.631,0.057 c 0.044,0.002 0.111,0.005 0.199,0.007 2.841,0.061 4.592,-0.313 5.218,-1.114 l 1.459,0.051 -0.264,7.549 c -0.682,0.217 -1.506,0.366 -2.495,0.463 -0.988,0.09 -2.163,0.134 -3.523,0.11 l -5.021,-0.082 c -2.954,-0.026 -4.969,0.292 -6.021,0.961 -1.064,0.669 -1.627,1.922 -1.691,3.751 l -0.255,7.293 18.546,0.647 -0.24,6.884 0,0 z" /><polygon
   id="polygon39"
   points="80.117,301.186 88.166,303.192 83.929,320.184 93.802,322.645 97.676,307.106 105.596,309.081 101.721,324.619 113.632,327.589 118.068,309.801 126.62,311.933 120.542,336.313 120.542,336.313 74.238,324.769 "
   transform="translate(-197.16364,-109.71343)" /><path
   inkscape:connector-curvature="0"
   id="path41"
   d="m -68.072638,174.29057 2.507,-4.92 c 1.451,-2.847 1.439,-5.455 -0.042,-7.811 -1.467,-2.358 -4.603,-4.755 -9.372004,-7.186 -4.75,-2.42 -8.551,-3.608 -11.384,-3.555 -2.842,0.049 -4.899,1.333 -6.188,3.862 l -2.887,5.666 27.366004,13.944 0,0 z m 4.613,9.923 -42.521002,-21.666 5.95,-11.678 c 2.330998,-4.574 5.832998,-7.088 10.495998,-7.542 4.662,-0.453 10.577,1.142 17.741004,4.793 3.882,1.978 7.101,4.14 9.644,6.479 2.543,2.341 4.312,4.765 5.313,7.26 0.745,1.876 1.023,3.716 0.843,5.53 -0.189,1.81 -0.971,4.074 -2.361,6.804 l -5.105,10.02 0,0 z" /><polygon
   id="polygon43"
   points="137.548,204.504 143.809,209.946 132.32,223.162 139.999,229.837 150.505,217.751 156.665,223.105 146.159,235.191 155.424,243.246 167.452,229.409 174.104,235.192 157.619,254.155 157.619,254.155 121.603,222.847 "
   transform="translate(-197.16364,-109.71343)" /><path
   inkscape:connector-curvature="0"
   id="path45"
   d="m -29.943638,110.59757 5.354,-4.183 c 1.809,1.899 3.593,2.962 5.354,3.2 1.754,0.229 3.553,-0.377 5.405,-1.824 1.576,-1.231 2.449,-2.558 2.624,-3.985 0.181,-1.419 -0.348,-2.915 -1.574,-4.483 -1.784,-2.283999 -5.553,-2.370999 -11.319,-0.279999 -0.074,0.03 -0.144,0.057 -0.2,0.072 -0.15,0.061 -0.38,0.142999 -0.699,0.250999 -3.061,1.157 -5.483,1.674 -7.277,1.532 -1.596,-0.115 -3.203,-0.711 -4.816,-1.766999 -1.613,-1.056 -3.178,-2.557 -4.709,-4.517 -2.86,-3.66 -4.179,-7.149 -3.962,-10.462 0.223,-3.304 1.979,-6.247 5.272,-8.82 3.081,-2.407 6.298,-3.25 9.654,-2.533 3.363,0.728 6.561,2.931 9.614,6.637 l -5.213,4.072 c -1.52,-1.745 -3.092,-2.749 -4.714,-3.011 -1.628,-0.258 -3.262,0.247 -4.893,1.521 -1.424,1.112 -2.211,2.359 -2.362,3.753 -0.151,1.396 0.343,2.82 1.487,4.285 1.559,1.995 4.214,2.307 7.984,0.961 1.024,-0.365 1.823,-0.652 2.398,-0.849 2.464,-0.802 4.261,-1.323 5.361,-1.565 1.114,-0.237 2.157,-0.351 3.13,-0.34 1.737,0.019 3.421,0.513 5.056,1.496 1.635,0.983 3.2170004,2.455 4.7490007,4.416 3.057,3.914 4.503,7.666999 4.334,11.266999 -0.17,3.599 -1.93,6.714 -5.2960003,9.345 -3.3180004,2.593 -6.7800004,3.528 -10.3780004,2.803 -3.605,-0.722 -7.057,-3.049 -10.364,-6.992 l 0,0 z" /><path
   inkscape:connector-curvature="0"
   id="path47"
   d="m -1.4456373,75.157571 5.762,-3.327 c 1.559,-0.9 2.423,-2.024 2.587,-3.384 0.158,-1.355 -0.359,-3.074 -1.571,-5.171 -1.134,-1.963 -2.34,-3.247 -3.618,-3.863 -1.27900002,-0.602 -2.60600001,-0.513 -3.983,0.283 l -6.078,3.509 6.901,11.953 0,0 z m 4.284,7.513 8.4879993,14.703 -5.9639993,3.442999 -23.8610007,-41.328999 12.8890007,-7.441 c 3.042,-1.757 5.99799998,-1.957 8.87,-0.613 2.864,1.347 5.557,4.198 8.0789993,8.565 2.461,4.262 3.593,7.989 3.387,11.186 -0.199,3.192 -1.726,5.619 -4.565999,7.259 l -7.3220003,4.227 0,0 z" /><path
   inkscape:connector-curvature="0"
   id="path49"
   d="m 32.786362,60.491571 c 1.71,4.967 3.816,8.558 6.31,10.776 2.495,2.218 5.13,2.842 7.908,1.885 2.809,-0.966 4.522,-3.088 5.137,-6.377 0.615,-3.288 0.063,-7.414 -1.647,-12.382 -1.707,-4.957 -3.813,-8.547 -6.321,-10.76 -2.509,-2.212 -5.166,-2.83 -7.975,-1.863 -2.778,0.957 -4.47,3.071 -5.074,6.344 -0.603,3.274 -0.052,7.4 1.662,12.377 l 0,0 z m -6.637,2.285 c -2.509,-7.289 -3.107,-13.551 -1.793,-18.787 1.313,-5.237 4.33,-8.673 9.06,-10.302 4.722,-1.626 9.222,-0.777 13.5,2.545 4.277,3.323 7.669,8.624 10.171,15.891 2.506,7.278 3.096,13.543 1.772,18.795 -1.325,5.252 -4.349,8.691 -9.071,10.317 -4.729,1.629 -9.222,0.777 -13.484,-2.551 -4.264,-3.327 -7.649,-8.629 -10.155,-15.908 l 0,0 z" /><path
   inkscape:connector-curvature="0"
   id="path51"
   d="m 76.666362,46.222571 8.052,-0.847 c 1.744,-0.184 2.97,-0.823 3.689,-1.922 0.711,-1.098 0.954,-2.725 0.725,-4.903 -0.216,-2.056 -0.782,-3.576 -1.688,-4.56 -0.906,-0.983 -2.157,-1.385 -3.73,-1.22 l -8.368,0.88 1.32,12.572 0,0 z m -4.042,27.424 -4.988,-47.46 16.143,-1.696 c 3.625,-0.381 6.434,0.447 8.409,2.475 1.983,2.026 3.211,5.322 3.69,9.876 0.304,2.892 0.133,5.357 -0.519,7.382 -0.645,2.025 -1.732,3.474 -3.255,4.346 1.528,0.584 2.67,1.587 3.445,3.029 0.768,1.443 1.361,3.75 1.788,6.919 l 0.728,5.583 c 0.005,0.044 0.011,0.11 0.02,0.198 0.336,2.822 0.95,4.504 1.83,5.012 l 0.152998,1.452 -7.512998,0.79 c -0.31,-0.646 -0.572,-1.441 -0.806,-2.406 -0.226,-0.966 -0.433,-2.123 -0.599,-3.474 l -0.618,-4.984 c -0.385,-2.929 -0.98,-4.879 -1.79,-5.828 -0.811,-0.96 -2.13,-1.344 -3.95,-1.152 l -7.258,0.763 1.94,18.456 -6.85,0.719 0,0 z" /><polygon
   id="polygon53"
   points="332.158,142.533 322.325,141.846 319.591,180.945 312.722,180.465 312.722,180.465 315.456,141.365 305.553,140.673 306.147,132.166 332.754,134.027 "
   transform="translate(-197.16364,-109.71343)" /><path
   inkscape:connector-curvature="0"
   id="path55"
   d="m 139.89036,58.083571 6.62,1.528 c -0.339,2.601 -0.041,4.656 0.882,6.175 0.926,1.507 2.529,2.524 4.819,3.053 1.949,0.45 3.529,0.293 4.748,-0.47 1.216,-0.752 2.046,-2.104 2.494,-4.043 0.651,-2.824 -1.652,-5.808 -6.906,-8.973 -0.071,-0.039 -0.135,-0.076 -0.182,-0.11 -0.142,-0.078 -0.351,-0.206 -0.636,-0.385 -2.826,-1.651 -4.751,-3.208 -5.77,-4.692 -0.915,-1.312 -1.463,-2.937 -1.658,-4.854 -0.193,-1.918 -0.013,-4.079 0.548,-6.503 1.044,-4.526 2.926,-7.747 5.637,-9.663 2.709,-1.906 6.101,-2.394 10.173,-1.454 3.809,0.879 6.49,2.85 8.044,5.909 1.551,3.071 1.851,6.942 0.893,11.647 l -6.446,-1.487 c 0.399,-2.281 0.19,-4.134 -0.627,-5.559 -0.823,-1.428 -2.243,-2.38 -4.262,-2.846 -1.76,-0.406 -3.225,-0.233 -4.403,0.527 -1.178,0.76 -1.975,2.041 -2.393,3.851 -0.569,2.468 0.858,4.728 4.276,6.811 0.929,0.566 1.655,1.006 2.169,1.33 2.174,1.409 3.71,2.479 4.59,3.182 0.886,0.715 1.631,1.455 2.234,2.218 1.078,1.361 1.755,2.981 2.02,4.87 0.264,1.889 0.116,4.045 -0.443,6.47 -1.117,4.839 -3.124,8.325 -6.027,10.458 -2.905,2.133 -6.433,2.726 -10.596,1.765 -4.104,-0.947 -7.009,-3.048 -8.709,-6.301 -1.708,-3.255 -2.072,-7.403 -1.089,-12.454 l 0,0 z" /><path
   inkscape:connector-curvature="0"
   id="path57"
   d="m 185.76236,71.404571 6.105,2.978 c -0.914,2.458 -1.086,4.528 -0.529,6.215 0.563,1.676 1.896,3.028 4.009,4.059 1.799,0.877 3.373,1.08 4.732,0.61 1.354,-0.459 2.467,-1.59 3.34,-3.379 1.271,-2.605 -0.304,-6.03 -4.711,-10.297 -0.061,-0.053 -0.113,-0.104 -0.152,-0.148 -0.12,-0.107 -0.295,-0.279 -0.532,-0.518 -2.383,-2.245 -3.908,-4.194 -4.566,-5.869 -0.597,-1.484 -0.765,-3.191 -0.522,-5.103 0.242,-1.912 0.903,-3.977 1.995,-6.214 2.035,-4.175 4.594,-6.889 7.666,-8.147 3.068,-1.248 6.482,-0.96 10.239,0.872 3.514,1.714 5.683,4.236 6.509,7.567 0.82,3.341 0.242,7.181 -1.751,11.55 l -5.945,-2.899 c 0.901,-2.132 1.115,-3.984 0.64,-5.558 -0.482,-1.577 -1.651,-2.824 -3.513,-3.731 -1.624,-0.792 -3.09,-0.953 -4.409,-0.478 -1.319,0.477 -2.384,1.545 -3.198,3.215 -1.11,2.276 -0.227,4.799 2.636,7.598 0.777,0.76 1.385,1.352 1.813,1.783 1.802,1.863 3.058,3.25 3.757,4.133 0.702,0.896 1.262,1.784 1.678,2.664 0.744,1.569 1.039,3.3 0.872,5.2 -0.167,1.9 -0.796,3.968 -1.888,6.204 -2.176,4.463 -4.916,7.41 -8.226,8.834 -3.31,1.424 -6.88,1.21 -10.721,-0.664 -3.785,-1.846 -6.144,-4.546 -7.068,-8.098 -0.933,-3.555 -0.355,-7.678 1.74,-12.379 l 0,0 z" /><path
   inkscape:connector-curvature="0"
   id="path59"
   d="m 243.19736,77.691571 -16.392,12.869 7.219,5.848 9.173,-18.717 0,0 z m 2.905,-9.943 6.177,5.004 -20.661,44.676999 -5.616,-4.549 4.409,-9.053 -10.076,-8.161999 -7.886,6.236999 -5.635,-4.563999 39.288,-29.59 0,0 z" /><path
   inkscape:connector-curvature="0"
   id="path61"
   d="m 246.44536,118.32857 5.344,6.153 c 1.262,1.453 2.558,2.185 3.884,2.195 1.326,0.009 2.793,-0.68 4.413,-2.087 1.679,-1.458 2.605,-2.837 2.783,-4.133 0.179,-1.295 -0.39,-2.691 -1.687,-4.185 l -5.318,-6.124 -9.419,8.181 0,0 z m 15.58,-13.532 5.151,5.931 c 1.114,1.282 2.245,1.943 3.39,1.997 1.14,0.046 2.394,-0.518 3.746,-1.692 1.319,-1.146 2.029,-2.267 2.119,-3.361 0.09,-1.094 -0.439,-2.31 -1.599,-3.645 l -5.126,-5.900999 -7.681,6.670999 0,0 z m -26.407,14.205 36.029,-31.292999 10.338,11.902999 c 2.248,2.587 3.181,5.229 2.799,7.944 -0.379,2.701 -2.051,5.346 -5.024,7.928 -1.819,1.58 -3.566,2.656 -5.231,3.219 -1.656,0.555 -3.256,0.62 -4.799,0.192 0.383,1.958 0.142,3.873 -0.71,5.743 -0.839,1.869 -2.32,3.721 -4.425,5.548 -3.507,3.046 -6.908,4.594 -10.2,4.648 -3.306,0.057 -6.226,-1.383 -8.779,-4.322 l -9.998,-11.51 0,0 z" /><path
   inkscape:connector-curvature="0"
   id="path63"
   d="m 297.67436,135.04757 -19.814,6.453 4.771,7.972 15.043,-14.425 0,0 z m 6.144,-8.34 4.082,6.821 -34.753,34.86 -3.711,-6.202 7.251,-6.987 -6.657,-11.126 -9.55,3.148 -3.724,-6.223 47.062,-14.291 0,0 z" /><path
   inkscape:connector-curvature="0"
   id="path65"
   d="m 288.10736,176.79657 1.621,5.277 c 0.938,3.054 2.762,4.92 5.463,5.583 2.695,0.673 6.615,0.216 11.731,-1.356 5.096,-1.565 8.653,-3.355 10.651,-5.364 2.008,-2.013 2.592,-4.367 1.759,-7.079 l -1.867,-6.079 -29.358,9.018 0,0 z m -10.216,-3.921 45.618,-14.012 3.849,12.528 c 1.507,4.908 0.74,9.151 -2.294,12.72 -3.035,3.568 -8.394,6.537 -16.079,8.897 -4.165,1.28 -7.98,1.965 -11.437,2.053 -3.456,0.087 -6.412,-0.424 -8.866,-1.52 -1.841,-0.83 -3.32,-1.958 -4.453,-3.386 -1.123,-1.432 -2.137,-3.603 -3.036,-6.531 l -3.302,-10.749 0,0 z" /><polygon
   id="polygon67"
   points="537.108,325.187 529.061,327.193 524.823,310.202 514.951,312.664 518.825,328.203 510.906,330.177 507.032,314.638 495.12,317.608 499.556,335.397 491.003,337.529 484.924,313.149 484.924,313.149 531.229,301.604 "
   transform="translate(-197.16364,-109.71343)" /><polygon
   id="polygon69"
   points="491.501,344.427 491.501,344.427 539.042,340.267 539.642,347.127 500.882,350.519 502.306,366.789 493.525,367.557 "
   transform="translate(-197.16364,-109.71343)" /><polygon
   id="polygon71"
   points="492.821,374.292 492.821,374.292 540.427,377.621 539.946,384.491 501.134,381.777 499.994,398.069 491.201,397.455 "
   transform="translate(-197.16364,-109.71343)" /><polygon
   id="polygon73"
   points="502.887,431.991 483.575,425.716 485.675,419.255 485.675,419.255 531.061,434.002 523.843,456.217 515.954,453.654 521.072,437.899 510.775,434.554 506.29,448.361 498.4,445.798 "
   transform="translate(-197.16364,-109.71343)" /><polygon
   id="polygon75"
   points="487.218,443.395 484.436,449.644 475.524,445.676 478.307,439.427 478.307,439.427 "
   transform="translate(-197.16364,-109.71343)" /><path
   inkscape:connector-curvature="0"
   id="path77"
   d="m 276.79936,373.20057 c -4.565,-2.932 -7.568,-6.357 -8.998,-10.272 -1.431,-3.915 -1.064,-7.734 1.084,-11.454 2.478,-4.292 6.311,-6.529 11.505,-6.7 5.188,-0.184 11.229,1.719 18.115,5.694 7.03,4.059 11.711,8.382 14.057,12.969 2.345,4.587 2.196,9.158 -0.433,13.711 -2.137,3.701 -5.107,5.881 -8.92,6.536 -3.804,0.66 -8.126,-0.259 -12.939,-2.76 l 3.396,-5.884 c 2.48,1.101 4.649,1.458 6.503,1.077 1.854,-0.38 3.317,-1.497 4.384,-3.344 1.517,-2.626 1.46,-5.317 -0.166,-8.074 -1.626,-2.757 -4.756,-5.478 -9.391,-8.153 -4.493,-2.594 -8.352,-3.917 -11.587,-3.977 -3.238,-0.052 -5.578,1.168 -7.028,3.68 -1.043,1.807 -1.238,3.673 -0.594,5.586 0.655,1.918 2.111,3.753 4.385,5.522 l -3.373,5.843 0,0 z" /><polygon
   id="polygon79"
   points="462.604,486.076 458.486,491.539 450.696,485.669 454.813,480.206 454.813,480.206 "
   transform="translate(-197.16364,-109.71343)" /><path
   inkscape:connector-curvature="0"
   id="path81"
   d="m -76.956642,127.83057 -6.873,-5.835 4.744,-5.587 6.873004,5.835 c 2.527,2.146 4.255,4.237 5.194,6.282 0.92,2.045 1.142,4.218 0.666,6.517 l -3.745,-0.828 c 0.316,-1.507 0.14,-2.969 -0.517,-4.375 -0.668,-1.415 -1.994,-3.005 -3.982004,-4.789 l -2.36,2.78 0,0 z" /><path
   style="fill:#ed2a14;fill-rule:evenodd"
   inkscape:connector-curvature="0"
   id="path83"
   d="m 119.29636,290.08657 c 18.399,-6.188 23.031,-13.813 23.309,-20.823 0.507,-12.816 -8.769,-18.06 -18.313,-22.281 -2.688,-1.188 -6.627,-3.601 -6.681,-5.432 l -16.223,-0.052 c -0.375,1.973 -5.913998,4.135 -8.600998,5.553 -8.778,4.635 -16.176,10.293 -15.834,21.436 0.25,8.167 6.458,17.75 23.883998,21.452 l 18.459,0.147 0,0 z" /><path
   style="fill-rule:evenodd"
   inkscape:connector-curvature="0"
   id="path85"
   d="m 106.64836,297.03657 1.671,3.044 4.403,-0.201 1.467,-1.991 6.252,1.609 -0.378,-7.751 c 19.131,-6.188 23.822,-15.473 24.111,-22.483 0.528,-12.817 -8.625,-18.89 -18.55,-23.11 -2.795,-1.189 -7.383,-2.83 -7.438,-4.662 -0.371,0 -0.741,0 -1.112,0 -0.063,3.354 2.031,4.837 4.495,6.36 4.814,2.979 13.785,8.945 13.647,14.96 -1.6,-1.217 -4.146,-2.909 -5.746,-3.534 1.114,6.479 1.045,11.257 -0.68,14.574 -2.011,-1.113 -3.666,-1.476 -4.61,-1.677 -0.156,5.876 -1.821,13.118 -7.645,16.243 -2.762,1.483 -4.335,-1.844 -4.601,-3.123 -0.519,0.321 -1.891,1.021 -3.586,1.275 -1.319,0.195 -2.86,-0.635 -3.56,-1.5 -1.912,-2.36 -3.185,-4.342 -4.151,-6.315 -1.548998,1.402 -2.101998,3.111 -3.895998,3.123 -2.322,0.016 -3.809,-3.162 -5.036,-5.76 -1.397,2.43 -1.783,4.338 -3.857,3.464 -1.158,-0.488 -3.623,-3.404 -3.961,-6.687 -0.49,-4.747 -4.23,-0.84 -2.919,-9.205 0.982,-6.268 7.34,-12.581 14.681,-16.678 2.532,-1.412 5.741998,-2.28 6.452998,-5.511 -0.344,-0.001 -0.688,-0.002 -1.031,-0.003 -0.391,1.973 -5.902998,3.186 -8.696998,4.604 -9.127,4.635 -16.82,11.241 -16.464,22.385 0.26,8.168 6.469,19.647 24.587998,23.348 l -0.236,6.148 6.386,-0.946 0,0 z" /><path
   style="fill-rule:evenodd"
   inkscape:connector-curvature="0"
   id="path87"
   d="m 117.36636,204.51157 c -1.656,5.514 -3.243,13.23 -3.48,19.251 5.622,-3.914 11.824,-11.578 15.865,-16.476 1.408,-1.708 3.699,-4.711 6.059,-4.987 2.61,-0.306 7.337,8.569 8.33,10.492 1.319,2.548 2.699,5.575 3.318,8.383 l 0.407,1.848 -1.81,-0.556 c -1.343,-0.413 -2.663,-0.943 -3.953,-1.499 -1.324,-0.57 -6.468,-3.12 -7.604,-3.184 -1.412,-0.08 -2.62,0.473 -3.69,1.362 -2.892,2.733 -6.422,5.425 -9.281,8.333 4.504,-0.725 9.447,-3.871 13.903,-1.92 2.512,1.099 4.295,2.615 6.074,4.658 2.989,3.431 3.575,6.823 4.323,11.118 l 0.596,3.42 -2.461,-2.449 c -4.03,-4.007 -5.62,-5.093 -10.817,-7.054 -1.604,-0.605 -3.653,-0.867 -5.358,-0.999 -1.242,-0.096 -6.115,-0.248 -7.216,0.34 -2.17,2.138 -2.717,5.094 -2.275,8.024 l 0.198,1.32 -1.333,-0.053 c -5.05,-0.2 -10.096,-0.463 -15.146,-0.664 l -1.06,-0.042 v -1.061 c 0,-1.759 -0.003,-3.521 -0.111,-5.278 -0.637,-1.707 -7.206998,-8.971 -8.776998,-8.868 -0.681,0.105 -1.329,0.317 -1.945,0.627 -4.663,2.343 -7.045,9.465 -12.193,12.465 l -1.631,0.95 -0.028,-1.888 c -0.091,-6.138 1.417,-13.754 3.491,-19.52 0.664,-1.845 2.513,-3.343 4.537,-3.208 6.143,0.411 12.355,4.029 17.790998,7.214 -0.481,-1.99 -1.263,-3.923 -2.187998,-5.728 -1.82,-3.546 -4.349,-6.925 -7.091,-9.813 -0.752,-0.792 -3.59,-3.602 -4.804,-4.179 -1.25,0.912 -5.724,6.567 -6.616,7.627 -1.801,2.142 -4.489,5.349 -6.865,6.799 l -1.933,1.18 0.261,-2.25 c 1.045,-8.982 5.032,-18.538 9.975,-26.102 l 0.29,-0.443 0.527,-0.051 c 1.503,-0.148 3.004,-0.017 4.458,0.396 8.534,2.421 14.347998,14.377 18.342998,23.313 0.364,-5.509 1.296,-11.102 2.967,-16.272 -0.436,-1.534 -1.533,-2.849 -0.821,-4.623 0.865,-2.158 3.33,-5.473 5.96,-3.801 5.707,3.628 10.333,9.569 13.076,15.691 l 0.88,1.965 -2.108,-0.432 c -0.896,-0.183 -1.777,-0.449 -2.638,-0.753 -0.908,-0.319 -5.014,-2.187 -6.396,-2.623 l 0,0 z" /><path
   style="fill:#fef514;fill-rule:evenodd"
   inkscape:connector-curvature="0"
   id="path89"
   d="m 109.61536,194.87757 c 0.752,-1.875 2.64,-4.363 4.343,-3.279 5.793,3.683 10.177,9.667 12.662,15.211 -4.64,-0.95 -9.751,-4.511 -10.13,-3.209 -1.876,6.051 -3.832,16.132 -3.734,22.182 5.563,-3.143 12.249,-11.008 17.847,-17.792 2.445,-2.965 3.862,-4.421 5.335,-4.594 1.661,-0.194 8.983,11.394 10.442,18.016 -4.445,-1.365 -10.063,-4.63 -11.819,-4.729 -1.519,-0.086 -3.014,0.405 -4.486,1.638 -3.356,3.177 -8.487,7.184 -11.134,10.36 5.073,0.521 11.393,-4.148 16.047,-2.111 2.69,1.177 4.339,2.827 5.685,4.372 2.961,3.399 3.439,6.97 4.068,10.582 -4.663,-4.638 -6.308,-5.456 -11.206,-7.304 -4.059,-1.531 -12.502,-1.435 -13.663,-0.485 -2.742,2.64 -3.098,6.192 -2.668,9.048 -5.583,-0.222 -9.562,-0.442 -15.145,-0.664 0,-1.811 -0.005,-3.627 -0.118,-5.433 -0.074,-1.184 -7.515998,-10.193 -10.041998,-9.804 -6.455,0.992 -8.855,9.925 -14.526,13.229 -0.081,-5.427 1.268,-13.129 3.426,-19.129 0.611,-1.699 2.2,-2.562 3.425,-2.48 6.282,0.42 12.251,4.16 19.367998,8.269 -1.311,-11.542 -13.792998,-22.823 -15.587998,-23.037 -1.489,-0.295 -9.488,11.858 -14.055,14.646 0.976,-8.387 4.714,-17.838 9.802,-25.625 11.622,-1.141 18.508998,16.095 23.619998,27.402 0.057,-6.553 0.921,-14.154 3.189,-21.025 -0.315,-1.42 -1.484,-2.908 -0.945,-4.255 l 0,0 z" />
</svg>