<?xml version="1.0" encoding="UTF-8" standalone="no"?>
<svg xmlns:svg="http://www.w3.org/2000/svg" xmlns="http://www.w3.org/2000/svg"
     version="1.0" width="560px" height="560px" viewBox="0 0 56 56">
    <defs />
    <circle cx="28" cy="28" r="27.5" style="fill :#fde100; fill-rule :nonzero; stroke :none;" />
    <circle cx="28" cy="28" r="25.5" style="fill :none;stroke :#000000; stroke-width :1.4" />
    <path transform="translate(0.45,0.45)"
    	d="M 19.31,6.781 26.06,27.66 28.97,27.66 35.63,6.781 31.56,6.781 27.5,20.72 23.47,6.781 19.31,6.781 z
    	M 8.875,17.06 8.875,37.66 15.34,37.66 C 20.58,37.66 23.23,31.32 19.59,27.41 19.59,27.41 19.59,27.39 19.59,27.37 19.59,27.35 19.62,27.34 19.62,27.34 22.65,23.93 21.37,17.91 15.75,17.06 L 8.875,17.06 z
    	M 35.63,17.06 35.63,37.66 42.13,37.66 C 47.36,37.66 50.01,31.32 46.38,27.41 46.38,27.41 46.38,27.39 46.38,27.37 46.38,27.35 46.41,27.34 46.41,27.34 49.43,23.93 48.16,17.91 42.53,17.06 L 35.63,17.06 z
    	M 12.66,20.91 15.84,20.91 C 17.91,20.91 18.33,24.87 15.97,25.5 L 12.66,25.5 12.66,20.91 z
    	M 39.47,20.91 42.63,20.91 C 44.69,20.91 45.12,24.87 42.75,25.5 L 39.47,25.5 39.47,20.91 z
    	M 12.66,29.19 15.47,29.19 C 17.8,29.19 18.66,33.43 15.63,34.03 L 12.66,34.03 12.66,29.19 z
    	M 39.47,29.19 42.25,29.19 C 44.58,29.19 45.44,33.43 42.41,34.03 L 39.47,34.03 39.47,29.19 z
    	M 23.47,38.09 C 21.8,38.09 20.44,39.46 20.44,41.13 L 20.44,45.69 C 20.44,47.36 21.8,48.72 23.47,48.72 L 23.53,48.72 C 25.2,48.72 26.56,47.36 26.56,45.69 L 26.56,41.13 C 26.56,39.46 25.2,38.09 23.53,38.09 L 23.47,38.09 z
    	M 31.5,38.09 C 29.83,38.09 28.41,39.39 28.41,41.06 L 28.41,41.81 C 28.41,43.48 29.93,44.83 31.5,44.88 31.5,44.88 32.14,44.87 32.47,44.69 L 32.5,45.72 C 32.5,46.24 32.08,46.7 31.56,46.69 31.14,46.67 30.56,46.46 30.56,45.94 30.56,45.94 30.66,45.25 30.16,45.25 L 28.41,45.25 C 28.39,45.42 28.41,45.52 28.41,45.75 28.41,47.33 29.76,48.72 31.59,48.72 33.32,48.7 34.53,47.38 34.53,45.66 L 34.53,41.09 C 34.53,39.42 33.23,38.09 31.56,38.09 L 31.5,38.09 z
    	M 31.53,40.25 C 32.08,40.25 32.5,40.67 32.5,41.19 L 32.5,41.78 C 32.5,42.3 32.08,42.72 31.56,42.72 31.01,42.72 30.56,42.3 30.56,41.78 L 30.56,41.19 C 30.56,40.67 31.01,40.25 31.53,40.25 z
    	M 23.47,40.28 C 24.02,40.28 24.47,40.7 24.47,41.22 L 24.47,45.75 C 24.47,46.27 24.02,46.69 23.5,46.69 22.95,46.69 22.53,46.27 22.53,45.75 L 22.53,41.22 C 22.53,40.7 22.95,40.28 23.47,40.28 z"
    	style="fill :#000000; fill-rule :nonzero;stroke :none;" />
</svg>
