<?xml version="1.0" encoding="UTF-8" standalone="no"?>
<!-- Created with Inkscape (http://www.inkscape.org/) -->

<svg
   xmlns:dc="http://purl.org/dc/elements/1.1/"
   xmlns:cc="http://creativecommons.org/ns#"
   xmlns:rdf="http://www.w3.org/1999/02/22-rdf-syntax-ns#"
   xmlns:svg="http://www.w3.org/2000/svg"
   xmlns="http://www.w3.org/2000/svg"
   version="1.1"
   width="318.14133"
   height="400"
   viewBox="0 0 318.14133 400"
   id="Ebene_1"
   xml:space="preserve"><metadata
   id="metadata85"><rdf:RDF><cc:Work
       rdf:about=""><dc:format>image/svg+xml</dc:format><dc:type
         rdf:resource="http://purl.org/dc/dcmitype/StillImage" /><dc:title></dc:title></cc:Work></rdf:RDF></metadata><defs
   id="defs83" />






























<polygon
   points="168.349,160.667 168.349,380.522 283.333,451.334 398.318,380.522 398.318,160.667 "
   transform="matrix(1.3486223,0,0,1.3486223,-223.03922,-212.6791)"
   id="polygon63"
   style="fill:#e2001a" />
<rect
   width="275.07581"
   height="82.940269"
   x="21.530746"
   y="21.532097"
   id="rect65"
   style="fill:#ffffff" />
<polygon
   points="210.665,246.167 210.665,391.313 283.332,436.065 355.999,391.313 355.999,246.167 "
   transform="matrix(1.3486223,0,0,1.3486223,-223.03922,-212.6791)"
   id="polygon67"
   style="fill:#ffffff" />
<polygon
   points="230.518,178.761 250.214,178.761 250.214,229.946 230.518,229.946 230.518,210.127 212.076,210.127 212.076,229.946 192.38,229.946 192.38,229.946 192.38,178.761 212.076,178.761 212.076,196.199 230.518,196.199 "
   transform="matrix(1.3486223,0,0,1.3486223,-223.03922,-212.6791)"
   id="polygon69"
   style="fill:#e2001a" />
<polygon
   points="281.451,199.585 302.775,199.585 302.775,211.88 281.451,211.88 281.451,229.946 261.879,229.946 261.879,229.946 261.879,178.761 308.171,178.761 308.171,191.683 281.451,191.683 "
   transform="matrix(1.3486223,0,0,1.3486223,-223.03922,-212.6791)"
   id="polygon71"
   style="fill:#e2001a" />
<path
   d="m 256.51874,70.702861 h 25.20979 c -0.677,8.96429 -4.56778,16.06614 -11.50779,21.1437 -6.93731,4.90899 -16.40734,7.44305 -28.24959,7.44305 -13.19627,0 -23.6872,-3.21512 -31.30018,-9.63996 -7.61567,-6.59611 -11.5024,-15.39991 -11.5024,-26.72699 0,-11.17199 3.88673,-19.971751 11.33248,-26.566514 7.61297,-6.426185 17.93263,-9.639952 30.96302,-9.639952 12.00948,0 21.31497,2.364135 28.25094,7.101845 6.94001,4.907637 10.82674,11.848991 11.67772,20.643361 h -25.54965 c -0.33581,-3.38639 -1.69387,-6.09038 -4.06205,-7.95148 -2.36953,-1.69387 -5.75053,-2.705333 -9.98116,-2.705333 -5.24344,0 -9.13287,1.692523 -11.8436,4.737713 -2.53406,3.21107 -3.89077,7.94878 -3.89077,14.38305 0,6.25491 1.35671,10.99262 4.23197,14.20774 2.70399,3.21512 6.76604,4.90359 12.17941,4.90359 4.0607,0 7.44575,-1.01281 9.81393,-3.04519 2.36953,-1.86245 3.88673,-4.7431 4.22793,-8.28863 l 0,0 z"
   id="path73"
   style="fill:#e2001a" />
<path
   d="m 182.94735,123.83993 c 25.87736,9.67906 44.30628,34.62183 44.30628,63.87614 0,37.65758 -30.52741,68.18635 -68.18499,68.18635 -37.65758,0 -68.186349,-30.52877 -68.186349,-68.18635 0,-29.25431 18.428929,-54.19843 44.307639,-63.87614 -35.522709,10.33314 -61.493129,43.10466 -61.493129,81.96117 0,47.15053 38.222649,85.37319 85.371839,85.37319 47.14918,0 85.37184,-38.22266 85.37184,-85.37319 0,-38.85651 -25.97042,-71.62803 -61.49313,-81.96117 z"
   id="path75"
   style="fill:#e2001a" />
<polygon
   points="294.057,277.573 292.643,275.592 292.56,275.72 282.999,257.333 272.326,277.857 245.762,276.811 259.653,296.275 245.949,315.479 272.608,314.428 273.344,315.459 283.332,334.667 294.012,314.129 320.902,315.188 307.012,295.725 320.717,276.522 "
   transform="matrix(1.3486223,0,0,1.3486223,-223.03922,-212.6791)"
   id="polygon77"
   style="fill:#e2001a" />
<polygon
   points="260.636,390.021 273.122,402.041 260.636,414.063 278.623,410.064 283.332,426.083 288.041,410.064 306.028,414.063 293.542,402.041 306.028,390.021 288.041,394.019 283.332,378 278.623,394.019 "
   transform="matrix(1.3486223,0,0,1.3486223,-223.03922,-212.6791)"
   id="polygon79"
   style="fill:#e2001a" />
</svg>