<?xml version="1.0" encoding="UTF-8" ?>
<!DOCTYPE svg PUBLIC "-//W3C//DTD SVG 1.1//EN" "http://www.w3.org/Graphics/SVG/1.1/DTD/svg11.dtd">
<svg width="1226pt" height="1238pt" viewBox="0 0 1226 1238" version="1.1" xmlns="http://www.w3.org/2000/svg">
<g id="#000000ff">
</g>
<g id="#e0041dff">
<path fill="#e0041d" opacity="1.00" d=" M 57.76 236.05 C 53.83 163.02 53.93 89.83 56.82 16.77 C 409.60 16.76 762.38 16.70 1115.15 16.80 C 1120.76 80.68 1121.42 144.89 1119.95 208.96 C 1117.23 308.13 1107.72 407.20 1089.65 504.78 C 1073.40 592.31 1050.21 678.73 1017.55 761.63 C 988.95 834.20 952.89 904.06 907.76 967.79 C 865.00 1028.26 813.85 1082.98 755.12 1128.20 C 705.36 1166.51 650.41 1198.15 592.16 1221.62 C 556.62 1207.76 523.51 1188.34 491.88 1167.16 C 427.76 1123.72 370.80 1070.13 321.50 1010.50 C 279.79 960.01 243.58 905.07 212.72 847.34 C 171.20 769.71 139.30 687.13 115.52 602.43 C 82.02 483.09 64.38 359.69 57.76 236.05 M 101.95 512.99 C 121.11 601.92 148.23 689.30 185.32 772.44 C 217.31 844.21 256.81 912.77 304.32 975.42 C 357.27 1045.17 420.21 1107.76 492.46 1157.47 C 523.95 1178.86 556.94 1198.44 592.30 1212.74 C 648.43 1189.43 701.62 1158.95 749.75 1121.80 C 810.61 1075.00 863.22 1017.87 906.74 954.72 C 953.62 886.79 990.28 812.17 1018.88 734.85 C 1050.30 649.80 1072.12 561.41 1087.01 472.03 C 1103.87 369.93 1111.94 266.42 1112.36 162.96 C 1112.63 157.33 1112.57 151.69 1112.30 146.07 C 1112.25 105.70 1110.78 65.32 1107.66 25.07 C 1061.43 24.91 1015.19 25.04 968.96 25.00 C 667.56 25.00 366.17 25.00 64.77 25.00 C 58.61 188.29 67.60 352.93 101.95 512.99 Z" />
<path fill="#e0041d" opacity="1.00" d=" M 92.77 53.76 C 422.70 53.73 752.63 53.84 1082.56 53.70 C 1085.49 84.70 1086.45 115.85 1087.24 146.96 C 1088.97 255.32 1082.05 363.93 1064.96 471.00 C 1050.14 563.02 1027.65 654.04 994.24 741.15 C 964.97 817.44 927.09 890.75 878.45 956.55 C 835.51 1014.76 783.95 1066.77 724.97 1108.74 C 684.54 1137.54 640.79 1161.67 594.90 1180.60 C 593.02 1181.53 591.17 1180.12 589.42 1179.58 C 555.18 1165.32 523.18 1146.14 492.73 1125.07 C 422.33 1075.77 361.37 1013.66 310.58 944.49 C 263.63 880.52 225.35 810.40 194.98 737.15 C 160.04 652.94 135.45 564.66 118.96 475.06 C 96.19 351.18 88.71 224.82 91.28 99.02 C 91.71 83.93 92.00 68.84 92.77 53.76 M 144.72 70.72 C 144.77 134.75 144.63 198.78 144.79 262.81 C 439.45 262.70 734.10 262.80 1028.76 262.76 C 1028.80 198.77 1028.70 134.78 1028.81 70.79 C 1004.88 70.64 980.94 70.77 957.01 70.72 C 686.25 70.72 415.49 70.73 144.72 70.72 M 211.50 304.62 C 201.72 306.39 192.60 311.70 186.41 319.51 C 177.11 330.49 172.58 344.75 171.54 358.94 C 170.24 375.85 171.24 393.65 178.91 409.08 C 184.92 421.18 195.76 431.21 209.08 434.46 C 223.70 437.97 240.42 436.12 252.35 426.37 C 265.74 415.77 272.03 398.63 273.54 382.07 C 274.57 368.50 274.34 354.57 270.36 341.46 C 266.66 328.63 258.67 316.70 247.04 309.84 C 236.43 303.55 223.45 302.54 211.50 304.62 M 725.47 312.55 C 712.49 322.10 705.91 337.99 703.83 353.55 C 701.81 370.04 702.28 387.27 707.96 403.03 C 712.84 416.91 723.64 429.13 737.92 433.59 C 750.58 437.45 764.83 437.03 776.86 431.28 C 784.38 437.30 791.58 444.22 801.05 447.04 C 804.15 439.79 807.22 432.53 810.27 425.27 C 804.38 422.89 798.92 419.56 793.94 415.64 C 801.22 404.85 804.64 391.96 805.49 379.09 C 806.52 361.81 805.25 343.56 796.68 328.13 C 790.41 316.49 779.18 307.40 766.10 304.79 C 752.31 302.10 736.91 303.86 725.47 312.55 M 878.06 305.94 C 877.91 318.63 878.04 331.33 878.00 344.02 C 877.82 361.04 878.50 378.08 877.31 395.07 C 876.99 401.08 873.70 407.58 867.63 409.48 C 860.74 411.51 851.95 410.77 847.26 404.71 C 842.43 398.96 842.75 391.05 842.52 384.00 C 842.51 357.90 842.52 331.81 842.52 305.72 C 834.17 305.72 825.82 305.73 817.48 305.72 C 817.48 319.48 817.48 333.24 817.48 347.00 C 817.61 364.80 817.01 382.65 818.81 400.39 C 819.73 411.65 825.02 422.97 834.55 429.43 C 840.68 434.01 848.45 435.56 855.94 435.93 C 863.01 436.15 870.26 436.25 877.07 434.06 C 886.38 431.22 894.33 424.20 898.09 415.20 C 902.59 404.73 902.25 393.11 902.76 381.95 C 902.77 356.54 902.77 331.13 902.75 305.71 C 894.53 305.90 886.23 305.39 878.06 305.94 M 347.47 305.75 C 359.82 329.41 372.07 353.12 384.42 376.78 C 385.24 378.43 386.43 380.05 386.24 382.00 C 386.23 399.33 386.25 416.66 386.23 433.99 C 394.49 434.01 402.74 434.00 411.00 434.00 C 411.09 416.29 410.83 398.57 411.12 380.87 C 412.93 376.32 415.58 372.15 417.70 367.74 C 428.39 347.06 439.21 326.45 449.78 305.71 C 440.25 305.75 430.72 305.69 421.19 305.74 C 413.91 321.15 406.52 336.51 399.21 351.90 C 391.30 336.65 384.23 320.95 376.38 305.67 C 366.75 305.81 357.11 305.66 347.47 305.75 M 454.23 433.99 C 462.00 433.97 469.78 434.07 477.56 433.93 C 477.44 410.65 477.58 387.36 477.49 364.07 C 477.70 362.39 476.95 360.32 478.30 358.99 C 483.43 384.01 488.54 409.03 493.77 434.04 C 501.53 433.95 509.28 434.02 517.04 434.00 C 519.84 420.37 522.69 406.76 525.50 393.13 C 528.09 381.45 530.00 369.60 533.05 358.04 C 533.54 383.31 533.60 408.59 533.40 433.87 C 541.18 434.15 548.98 433.94 556.77 433.99 C 556.77 391.25 556.73 348.51 556.80 305.77 C 545.18 305.67 533.57 305.74 521.96 305.73 C 516.45 331.22 511.04 356.74 505.43 382.21 C 500.02 356.70 494.36 331.24 488.86 305.74 C 477.35 305.65 465.85 305.83 454.35 305.65 C 454.08 348.42 454.32 391.21 454.23 433.99 M 572.72 305.72 C 572.73 348.48 572.72 391.24 572.73 434.00 C 581.07 434.00 589.42 434.01 597.77 433.99 C 597.80 418.40 597.68 402.82 597.83 387.24 C 608.38 387.26 619.06 387.69 629.49 385.70 C 640.56 383.35 648.99 373.95 652.48 363.49 C 655.53 353.99 655.66 343.69 653.89 333.93 C 651.92 323.36 645.48 313.02 635.40 308.56 C 628.97 305.86 621.84 306.19 615.01 305.75 C 600.91 305.68 586.82 305.75 572.72 305.72 M 667.00 305.73 C 667.00 348.48 667.00 391.24 667.00 434.00 C 675.26 433.99 683.51 434.01 691.77 433.99 C 691.76 391.24 691.75 348.49 691.77 305.74 C 683.51 305.70 675.26 305.73 667.00 305.73 M 920.23 305.72 C 920.24 348.48 920.24 391.23 920.23 433.99 C 947.49 434.01 974.74 434.00 1002.00 434.00 C 1002.00 425.57 1002.00 417.15 1002.00 408.73 C 983.00 408.72 964.01 408.72 945.01 408.73 C 945.02 398.98 944.92 389.22 945.07 379.47 C 962.14 379.57 979.21 379.49 996.28 379.52 C 996.07 371.13 996.66 362.59 996.00 354.30 C 979.00 354.14 962.00 354.29 945.00 354.23 C 945.00 346.49 945.00 338.74 945.00 331.00 C 963.33 331.00 981.67 331.00 1000.00 331.00 C 1000.00 322.57 1000.00 314.15 1000.00 305.73 C 973.41 305.72 946.82 305.73 920.23 305.72 M 286.48 306.72 C 286.49 349.15 286.48 391.57 286.49 434.00 C 311.75 434.00 337.01 434.00 362.27 434.00 C 362.28 425.57 362.27 417.15 362.28 408.72 C 345.28 408.73 328.27 408.71 311.27 408.73 C 311.28 374.73 311.27 340.72 311.28 306.72 C 303.01 306.73 294.75 306.73 286.48 306.72 M 414.27 470.29 C 413.68 486.88 420.87 502.32 428.71 516.49 C 436.27 529.93 441.19 545.50 453.01 556.03 C 463.76 564.48 477.71 567.05 490.90 569.08 C 513.82 571.97 536.99 571.93 560.05 571.51 C 591.63 571.56 623.47 569.70 654.80 574.67 C 662.28 575.64 668.32 580.59 675.40 582.78 C 681.00 584.48 686.68 585.99 692.23 587.88 C 705.77 592.27 718.15 599.47 730.33 606.70 C 741.02 613.02 749.55 622.53 755.84 633.13 C 747.83 637.40 738.10 637.24 730.40 642.21 C 725.68 644.97 725.73 650.97 723.61 655.45 C 718.98 666.70 716.26 679.08 718.56 691.22 C 715.50 693.95 712.58 696.89 710.44 700.42 C 705.91 707.51 705.18 716.08 703.62 724.14 C 702.50 730.27 700.45 736.19 697.67 741.75 C 703.00 746.65 710.09 748.83 715.87 753.07 C 720.16 756.08 722.98 761.33 722.63 766.61 C 717.16 775.21 706.78 778.57 697.85 782.38 C 684.51 787.04 671.84 793.59 658.12 797.10 C 646.00 800.28 632.43 798.29 622.27 790.78 C 619.43 788.29 617.47 784.88 614.27 782.80 C 600.05 773.47 583.77 767.64 567.15 764.33 C 546.06 760.20 524.36 759.90 503.02 762.10 C 491.65 763.38 480.19 762.38 468.87 761.12 C 452.22 758.99 435.61 755.77 419.78 750.09 C 413.19 747.79 407.73 743.09 401.04 741.04 C 386.34 736.72 370.79 737.31 355.89 734.09 C 343.26 731.44 333.91 721.67 322.10 717.11 C 317.00 715.28 310.74 714.15 305.81 716.72 C 300.73 727.18 301.32 740.38 308.22 749.90 C 316.57 761.73 329.88 769.00 343.31 773.63 C 322.52 778.89 305.01 795.43 298.96 816.05 C 296.73 822.83 296.52 830.01 295.63 837.04 C 297.08 844.67 298.21 852.50 301.51 859.62 C 310.26 879.96 330.49 894.63 352.53 896.70 C 348.22 898.30 343.84 899.82 339.24 900.33 C 331.39 901.29 325.97 909.50 327.02 917.01 C 332.26 923.38 339.72 927.99 347.90 929.37 C 358.97 931.26 370.18 928.87 380.85 925.95 C 397.05 921.44 412.83 915.09 429.58 912.76 C 452.70 909.73 475.97 912.90 499.02 915.00 C 513.00 916.05 527.20 918.03 541.13 915.44 C 551.81 913.78 562.65 910.87 573.50 912.69 C 579.35 913.58 584.70 916.52 589.09 920.43 C 584.29 927.36 584.85 936.15 585.11 944.16 C 585.08 947.05 587.63 949.04 589.84 950.47 C 593.75 952.71 598.37 950.46 602.50 951.64 C 605.63 952.92 607.25 956.16 609.94 958.07 C 621.16 966.69 636.62 968.66 650.05 964.82 C 653.79 963.70 657.76 962.51 660.56 959.62 C 666.35 953.87 669.32 945.88 675.24 940.23 C 678.12 937.44 682.91 935.87 686.48 938.34 C 695.60 943.88 706.94 945.80 714.43 953.91 C 703.93 953.28 692.49 954.31 683.83 960.85 C 677.85 965.23 674.44 972.17 672.60 979.19 C 689.81 983.32 707.58 986.82 723.03 995.85 C 731.15 995.23 737.93 990.22 745.26 987.17 C 755.15 982.27 766.46 982.35 776.88 979.19 C 786.19 976.73 794.50 971.70 802.54 966.56 C 808.46 962.72 813.54 957.77 818.95 953.27 C 828.90 945.10 840.82 939.81 850.96 931.91 C 856.99 927.40 861.82 920.94 863.25 913.44 C 864.82 904.13 863.01 894.64 860.14 885.77 C 858.36 880.24 854.60 875.58 853.07 869.96 C 851.51 864.67 852.31 858.99 854.16 853.89 C 858.07 842.72 864.65 832.80 870.35 822.51 C 879.32 805.29 886.28 786.85 897.89 771.13 C 899.98 773.29 902.65 776.15 906.01 774.73 C 910.15 772.84 912.94 768.81 917.27 767.21 C 922.31 764.90 928.23 769.24 932.98 765.82 C 939.33 761.25 942.82 753.45 949.92 749.78 C 953.33 747.97 957.33 748.74 960.80 749.98 C 963.47 740.92 958.49 732.40 954.20 724.79 C 950.40 718.15 947.76 710.75 947.77 703.02 C 947.47 685.17 952.94 667.87 953.86 650.11 C 954.54 639.71 952.68 628.54 945.95 620.25 C 940.47 613.87 933.45 609.09 927.03 603.75 C 922.83 603.73 918.51 604.60 914.93 606.87 C 908.11 611.03 904.34 618.81 897.14 622.45 C 894.85 623.73 892.24 624.21 889.70 624.70 C 880.31 612.65 877.14 597.37 872.99 583.04 C 856.64 568.39 840.27 553.73 824.51 538.43 C 819.41 533.17 811.66 532.67 805.21 529.95 C 799.26 528.28 795.20 523.33 789.92 520.48 C 784.64 519.37 779.33 521.72 774.05 520.79 C 767.75 519.05 767.74 510.28 761.56 508.32 C 749.09 504.54 735.94 503.99 723.00 503.51 C 703.43 502.86 682.96 503.54 664.67 495.42 C 658.90 500.27 651.58 503.24 643.98 503.03 C 629.58 502.88 615.43 498.11 600.96 499.73 C 596.16 501.07 594.37 507.39 589.15 507.96 C 582.08 508.60 576.21 502.65 569.08 503.70 C 562.27 504.79 557.71 511.12 550.92 512.31 C 543.10 513.49 534.78 509.60 527.36 513.42 C 522.24 515.63 518.24 521.38 512.11 520.35 C 501.37 519.08 490.79 516.81 480.05 515.58 C 471.68 514.46 463.15 513.85 455.09 511.18 C 450.86 509.73 446.61 507.78 443.55 504.42 C 435.99 496.23 434.93 483.98 426.87 476.15 C 423.56 472.67 418.91 471.02 414.27 470.29 Z" />
<path fill="#e0041d" opacity="1.00" d=" M 887.76 108.74 C 898.95 98.89 914.45 95.78 928.97 95.75 C 945.06 95.42 962.70 97.65 975.24 108.69 C 984.76 116.77 989.53 129.37 989.30 141.70 C 978.15 141.98 967.00 142.44 955.86 143.01 C 954.78 136.93 952.87 130.18 947.33 126.68 C 941.00 122.70 933.14 122.78 925.94 123.12 C 920.66 123.54 915.27 124.90 910.95 128.06 C 907.64 130.42 906.70 135.52 909.23 138.77 C 912.36 142.87 917.62 144.19 922.25 145.82 C 938.14 150.71 955.04 152.59 970.12 159.93 C 979.28 164.33 987.15 171.93 990.71 181.57 C 995.13 193.83 994.31 208.19 987.28 219.33 C 981.76 228.75 972.27 235.33 961.97 238.55 C 949.44 242.48 936.11 243.04 923.10 242.14 C 909.55 241.10 895.56 237.06 885.57 227.43 C 875.71 218.02 870.92 204.49 869.71 191.16 C 880.65 190.20 891.60 189.29 902.52 188.15 C 903.93 195.66 906.39 203.58 912.51 208.61 C 919.84 214.73 930.04 215.38 939.15 214.50 C 946.02 213.88 953.20 211.18 957.24 205.30 C 960.50 200.82 960.56 193.69 955.98 190.06 C 950.89 185.97 944.25 184.82 938.10 183.14 C 922.82 179.16 906.62 176.77 893.03 168.19 C 883.49 161.97 876.42 151.56 875.47 140.07 C 874.14 128.43 879.08 116.50 887.76 108.74 Z" />
<path fill="#e0041d" opacity="1.00" d=" M 187.26 239.99 C 187.35 192.56 187.12 145.12 187.38 97.69 C 197.96 97.91 208.56 97.60 219.14 97.84 C 219.39 98.08 219.90 98.56 220.15 98.80 C 239.01 127.58 258.07 156.25 276.80 185.12 C 277.27 156.01 276.87 126.88 277.00 97.76 C 287.53 97.96 298.24 97.36 308.66 98.06 C 308.83 145.36 308.68 192.68 308.74 240.00 C 297.75 240.04 286.77 239.93 275.79 240.06 C 256.84 211.73 238.16 183.22 219.23 154.87 C 219.25 183.25 219.24 211.62 219.24 240.00 C 208.58 239.99 197.92 240.01 187.26 239.99 Z" />
<path fill="#e0041d" opacity="1.00" d=" M 375.00 97.76 C 386.33 97.76 397.67 97.76 409.00 97.76 C 409.00 145.18 409.00 192.59 409.00 240.00 C 397.67 240.00 386.33 240.00 375.00 240.00 C 375.00 192.59 375.00 145.18 375.00 97.76 Z" />
<path fill="#e0041d" opacity="1.00" d=" M 481.76 97.76 C 498.31 97.71 514.86 97.85 531.41 97.69 C 540.33 127.14 548.77 156.75 557.51 186.26 C 566.22 156.79 574.72 127.25 583.35 97.75 C 599.98 97.77 616.61 97.75 633.24 97.76 C 633.24 145.18 633.24 192.59 633.24 240.00 C 622.32 239.98 611.41 240.04 600.49 239.97 C 600.54 213.31 600.49 186.65 600.52 159.99 C 600.47 155.91 600.25 151.84 600.15 147.76 C 598.93 148.93 598.80 150.72 598.28 152.23 C 590.15 181.50 581.98 210.75 573.77 240.00 C 562.81 240.01 551.85 239.99 540.90 240.00 C 533.75 214.15 526.58 188.30 519.42 162.44 C 517.74 156.87 516.59 151.12 514.53 145.67 C 514.43 177.11 514.52 208.56 514.48 240.00 C 503.58 240.00 492.67 240.00 481.76 240.00 C 481.76 192.59 481.76 145.18 481.76 97.76 Z" />
<path fill="#e0041d" opacity="1.00" d=" M 702.51 97.76 C 740.09 97.76 777.66 97.76 815.24 97.76 C 815.24 107.00 815.24 116.24 815.24 125.48 C 788.91 125.50 762.58 125.49 736.25 125.49 C 736.23 134.24 736.24 143.00 736.24 151.76 C 760.74 151.77 785.24 151.75 809.73 151.76 C 809.73 160.92 809.73 170.08 809.73 179.24 C 785.24 179.25 760.74 179.23 736.24 179.24 C 736.30 190.27 736.11 201.31 736.34 212.34 C 763.63 212.17 790.92 212.33 818.21 212.25 C 818.28 221.50 818.22 230.75 818.24 240.00 C 779.66 240.00 741.09 240.00 702.51 240.00 C 702.51 192.59 702.51 145.18 702.51 97.76 Z" />
<path fill="#e0041d" opacity="1.00" d=" M 218.39 329.66 C 225.96 328.19 234.29 330.67 239.40 336.54 C 246.68 344.41 248.18 355.66 248.68 365.94 C 248.90 376.08 248.25 386.63 243.90 395.96 C 240.60 402.66 234.67 408.69 227.06 410.00 C 219.66 411.66 211.64 408.95 206.56 403.39 C 199.12 395.59 197.01 384.38 196.55 373.99 C 196.30 363.47 196.74 352.43 201.57 342.85 C 204.87 336.29 210.96 330.81 218.39 329.66 Z" />
<path fill="#e0041d" opacity="1.00" d=" M 735.72 338.98 C 740.40 332.15 748.88 328.26 757.12 329.44 C 765.03 330.15 771.76 335.78 775.25 342.72 C 779.69 351.41 780.40 361.40 780.47 370.99 C 780.21 380.46 778.91 390.23 774.09 398.56 C 768.59 393.93 762.56 389.85 755.90 387.08 C 755.10 386.84 753.74 385.81 753.52 387.31 C 751.14 393.09 748.87 398.92 746.56 404.73 C 750.36 406.35 754.08 408.21 757.40 410.70 C 750.80 411.81 743.72 409.78 739.03 404.93 C 730.91 397.29 728.84 385.60 728.30 374.95 C 728.00 362.72 728.35 349.34 735.72 338.98 Z" />
<path fill="#e0041d" opacity="1.00" d=" M 597.76 331.00 C 604.81 331.11 611.90 330.62 618.90 331.62 C 624.56 332.36 628.70 337.68 629.37 343.14 C 630.62 350.13 627.63 359.04 620.07 360.89 C 612.75 362.52 605.20 361.86 597.77 362.00 C 597.76 351.67 597.76 341.34 597.76 331.00 Z" />
<path fill="#e0041d" opacity="1.00" d=" M 660.48 529.62 C 661.79 529.12 663.20 528.82 664.60 529.24 C 700.25 536.18 735.60 547.70 766.09 567.85 C 789.82 583.57 810.35 605.27 821.20 631.88 C 825.11 641.74 828.36 652.27 827.51 663.01 C 826.55 688.65 815.47 712.93 800.22 733.20 C 785.75 752.53 767.78 769.02 748.43 783.35 C 736.15 792.47 723.23 800.74 709.73 807.95 C 704.65 810.72 699.80 814.30 693.98 815.30 C 691.69 815.56 690.69 813.26 691.53 811.42 C 692.84 807.53 694.74 803.63 697.60 800.68 C 724.08 785.38 749.71 767.99 771.10 745.96 C 788.98 727.40 804.24 704.89 808.79 679.09 C 810.47 669.53 810.53 659.61 808.49 650.10 C 806.97 642.36 803.06 635.41 799.37 628.54 C 784.92 602.38 762.58 580.90 736.46 566.52 C 717.03 555.75 695.71 548.42 673.81 544.76 C 666.80 543.75 659.45 543.22 653.08 539.81 C 651.44 539.03 649.67 536.94 651.04 535.14 C 653.33 532.19 657.11 530.94 660.48 529.62 Z" />
<path fill="#e0041d" opacity="1.00" d=" M 743.43 678.89 C 750.01 682.81 753.43 690.25 755.85 697.22 C 758.67 706.24 759.73 715.68 760.59 725.05 C 752.79 724.46 747.15 717.99 744.46 711.13 C 740.43 700.97 739.55 689.23 743.43 678.89 Z" />
<path fill="#e0041d" opacity="1.00" d=" M 357.26 775.99 C 366.08 775.94 374.87 777.72 382.97 781.23 C 383.26 783.49 383.48 785.75 383.70 788.04 C 374.09 785.12 364.46 782.25 354.82 779.42 C 355.63 778.26 356.44 777.12 357.26 775.99 Z" />
<path fill="#e0041d" opacity="1.00" d=" M 351.51 783.02 C 362.43 786.09 373.25 789.49 384.14 792.66 C 384.46 796.86 384.81 801.06 385.33 805.24 C 381.78 808.40 378.04 811.32 374.36 814.33 C 366.56 812.68 358.89 810.32 351.00 809.13 C 348.33 803.97 345.84 798.73 343.00 793.66 C 345.71 790.01 348.82 786.68 351.51 783.02 Z" />
<path fill="#e0041d" opacity="1.00" d=" M 524.07 785.16 C 530.74 783.19 537.51 790.41 535.00 796.92 C 533.25 803.78 523.15 805.44 519.06 799.79 C 515.02 794.87 517.73 786.44 524.07 785.16 Z" />
<path fill="#e0041d" opacity="1.00" d=" M 402.21 789.00 C 409.07 791.38 416.36 793.23 422.02 798.07 C 437.62 810.71 441.74 832.21 456.14 845.80 C 464.66 848.11 473.90 847.36 482.11 850.93 C 485.35 852.27 487.85 854.90 489.36 858.04 C 462.80 867.94 434.95 873.70 407.13 878.74 C 405.16 879.14 403.26 879.82 401.37 880.48 C 411.30 871.03 418.48 858.50 420.57 844.88 C 424.31 824.71 416.90 803.19 402.21 789.00 Z" />
<path fill="#e0041d" opacity="1.00" d=" M 546.44 791.56 C 552.29 789.56 559.19 794.66 558.29 800.95 C 558.35 808.12 548.87 812.17 543.53 807.58 C 537.78 803.45 539.60 793.41 546.44 791.56 Z" />
<path fill="#e0041d" opacity="1.00" d=" M 301.84 822.03 C 304.45 810.66 310.32 800.00 318.89 792.05 C 314.65 803.03 310.41 814.02 306.26 825.04 C 304.76 824.07 303.28 823.06 301.84 822.03 Z" />
<path fill="#e0041d" opacity="1.00" d=" M 323.44 792.08 C 328.26 792.13 333.05 792.80 337.86 793.05 C 341.40 799.75 344.69 806.58 348.28 813.26 C 343.50 819.17 338.95 825.29 333.95 831.00 C 329.14 832.49 324.16 833.39 319.27 834.56 C 316.14 832.28 312.99 830.04 309.86 827.77 C 314.33 815.85 319.07 804.03 323.44 792.08 Z" />
<path fill="#e0041d" opacity="1.00" d=" M 378.34 816.82 C 381.57 814.11 384.87 811.47 388.10 808.77 C 392.36 808.75 396.62 808.76 400.88 808.76 C 403.06 817.75 405.23 826.75 407.35 835.76 C 402.55 838.57 397.66 841.23 392.90 844.10 C 388.19 841.88 383.67 839.28 379.02 836.93 C 378.64 830.23 378.66 823.52 378.34 816.82 Z" />
<path fill="#e0041d" opacity="1.00" d=" M 405.34 808.75 C 407.28 808.75 409.22 808.75 411.17 808.76 C 415.31 817.11 417.17 826.41 417.30 835.70 C 415.50 835.71 413.70 835.73 411.91 835.78 C 409.58 826.80 407.57 817.75 405.34 808.75 Z" />
<path fill="#e0041d" opacity="1.00" d=" M 318.86 839.14 C 324.93 837.79 330.94 836.24 337.00 834.90 C 338.48 834.21 339.57 835.68 340.50 836.56 C 344.93 841.11 349.17 845.84 353.71 850.28 C 353.07 856.63 352.13 862.94 351.36 869.28 C 345.83 870.04 340.29 870.75 334.78 871.59 C 328.77 865.40 322.65 859.33 316.76 853.04 C 317.51 848.41 318.14 843.77 318.86 839.14 Z" />
<path fill="#e0041d" opacity="1.00" d=" M 358.14 850.14 C 365.00 847.34 371.77 844.36 378.66 841.61 C 382.89 843.93 387.18 846.13 391.45 848.39 C 391.73 854.29 392.01 860.20 392.02 866.12 C 382.94 870.26 373.92 874.51 364.84 878.65 C 361.79 875.80 358.65 873.05 355.58 870.24 C 356.43 863.53 357.36 856.85 358.14 850.14 Z" />
<path fill="#e0041d" opacity="1.00" d=" M 305.04 856.75 C 308.05 856.75 311.07 856.76 314.09 856.76 C 319.76 862.50 325.39 868.26 331.01 874.04 C 330.99 877.87 331.01 881.70 330.98 885.54 C 319.45 879.18 310.13 868.91 305.04 856.75 Z" />
<path fill="#e0041d" opacity="1.00" d=" M 392.83 870.51 C 396.28 868.43 400.15 870.95 403.76 871.28 C 397.88 878.49 390.29 884.94 381.08 887.25 C 375.03 889.04 369.22 891.76 362.94 892.65 C 364.87 889.25 367.36 886.19 369.04 882.65 C 368.72 882.07 368.50 881.48 368.59 880.84 C 370.41 881.10 372.03 880.12 373.64 879.45 C 380.02 876.43 386.45 873.51 392.83 870.51 Z" />
<path fill="#e0041d" opacity="1.00" d=" M 760.35 899.45 C 767.83 897.51 774.76 902.15 780.11 906.86 C 788.94 914.97 795.99 925.57 798.14 937.52 C 788.91 937.72 779.13 935.33 772.38 928.70 C 764.69 921.00 761.53 909.99 760.35 899.45 Z" />
</g>
<g id="#ffffffff">
<path fill="#ffffff" opacity="1.00" d=" M 101.95 512.99 C 67.60 352.93 58.61 188.29 64.77 25.00 C 366.17 25.00 667.56 25.00 968.96 25.00 C 1015.19 25.04 1061.43 24.91 1107.66 25.07 C 1110.78 65.32 1112.25 105.70 1112.30 146.07 C 1112.57 151.69 1112.63 157.33 1112.36 162.96 C 1111.94 266.42 1103.87 369.93 1087.01 472.03 C 1072.12 561.41 1050.30 649.80 1018.88 734.85 C 990.28 812.17 953.62 886.79 906.74 954.72 C 863.22 1017.87 810.61 1075.00 749.75 1121.80 C 701.62 1158.95 648.43 1189.43 592.30 1212.74 C 556.94 1198.44 523.95 1178.86 492.46 1157.47 C 420.21 1107.76 357.27 1045.17 304.32 975.42 C 256.81 912.77 217.31 844.21 185.32 772.44 C 148.23 689.30 121.11 601.92 101.95 512.99 M 92.77 53.76 C 92.00 68.84 91.71 83.93 91.28 99.02 C 88.71 224.82 96.19 351.18 118.96 475.06 C 135.45 564.66 160.04 652.94 194.98 737.15 C 225.35 810.40 263.63 880.52 310.58 944.49 C 361.37 1013.66 422.33 1075.77 492.73 1125.07 C 523.18 1146.14 555.18 1165.32 589.42 1179.58 C 591.17 1180.12 593.02 1181.53 594.90 1180.60 C 640.79 1161.67 684.54 1137.54 724.97 1108.74 C 783.95 1066.77 835.51 1014.76 878.45 956.55 C 927.09 890.75 964.97 817.44 994.24 741.15 C 1027.65 654.04 1050.14 563.02 1064.96 471.00 C 1082.05 363.93 1088.97 255.32 1087.24 146.96 C 1086.45 115.85 1085.49 84.70 1082.56 53.70 C 752.63 53.84 422.70 53.73 92.77 53.76 Z" />
<path fill="#ffffff" opacity="1.00" d=" M 144.72 70.72 C 415.49 70.73 686.25 70.72 957.01 70.72 C 980.94 70.77 1004.88 70.64 1028.81 70.79 C 1028.70 134.78 1028.80 198.77 1028.76 262.76 C 734.10 262.80 439.45 262.70 144.79 262.81 C 144.63 198.78 144.77 134.75 144.72 70.72 M 887.76 108.74 C 879.08 116.50 874.14 128.43 875.47 140.07 C 876.42 151.56 883.49 161.97 893.03 168.19 C 906.62 176.77 922.82 179.16 938.10 183.14 C 944.25 184.82 950.89 185.97 955.98 190.06 C 960.56 193.69 960.50 200.82 957.24 205.30 C 953.20 211.18 946.02 213.88 939.15 214.50 C 930.04 215.38 919.84 214.73 912.51 208.61 C 906.39 203.58 903.93 195.66 902.52 188.15 C 891.60 189.29 880.65 190.20 869.71 191.16 C 870.92 204.49 875.71 218.02 885.57 227.43 C 895.56 237.06 909.55 241.10 923.10 242.14 C 936.11 243.04 949.44 242.48 961.97 238.55 C 972.27 235.33 981.76 228.75 987.28 219.33 C 994.31 208.19 995.13 193.83 990.71 181.57 C 987.15 171.93 979.28 164.33 970.12 159.93 C 955.04 152.59 938.14 150.71 922.25 145.82 C 917.62 144.19 912.36 142.87 909.23 138.77 C 906.70 135.52 907.64 130.42 910.95 128.06 C 915.27 124.90 920.66 123.54 925.94 123.12 C 933.14 122.78 941.00 122.70 947.33 126.68 C 952.87 130.18 954.78 136.93 955.86 143.01 C 967.00 142.44 978.15 141.98 989.30 141.70 C 989.53 129.37 984.76 116.77 975.24 108.69 C 962.70 97.65 945.06 95.42 928.97 95.75 C 914.45 95.78 898.95 98.89 887.76 108.74 M 187.26 239.99 C 197.92 240.01 208.58 239.99 219.24 240.00 C 219.24 211.62 219.25 183.25 219.23 154.87 C 238.16 183.22 256.84 211.73 275.79 240.06 C 286.77 239.93 297.75 240.04 308.74 240.00 C 308.68 192.68 308.83 145.36 308.66 98.06 C 298.24 97.36 287.53 97.96 277.00 97.76 C 276.87 126.88 277.27 156.01 276.80 185.12 C 258.07 156.25 239.01 127.58 220.15 98.80 C 219.90 98.56 219.39 98.08 219.14 97.84 C 208.56 97.60 197.96 97.91 187.38 97.69 C 187.12 145.12 187.35 192.56 187.26 239.99 M 375.00 97.76 C 375.00 145.18 375.00 192.59 375.00 240.00 C 386.33 240.00 397.67 240.00 409.00 240.00 C 409.00 192.59 409.00 145.18 409.00 97.76 C 397.67 97.76 386.33 97.76 375.00 97.76 M 481.76 97.76 C 481.76 145.18 481.76 192.59 481.76 240.00 C 492.67 240.00 503.58 240.00 514.48 240.00 C 514.52 208.56 514.43 177.11 514.53 145.67 C 516.59 151.12 517.74 156.87 519.42 162.44 C 526.58 188.30 533.75 214.15 540.90 240.00 C 551.85 239.99 562.81 240.01 573.77 240.00 C 581.98 210.75 590.15 181.50 598.28 152.23 C 598.80 150.72 598.93 148.93 600.15 147.76 C 600.25 151.84 600.47 155.91 600.52 159.99 C 600.49 186.65 600.54 213.31 600.49 239.97 C 611.41 240.04 622.32 239.98 633.24 240.00 C 633.24 192.59 633.24 145.18 633.24 97.76 C 616.61 97.75 599.98 97.77 583.35 97.75 C 574.72 127.25 566.22 156.79 557.51 186.26 C 548.77 156.75 540.33 127.14 531.41 97.69 C 514.86 97.85 498.31 97.71 481.76 97.76 M 702.51 97.76 C 702.51 145.18 702.51 192.59 702.51 240.00 C 741.09 240.00 779.66 240.00 818.24 240.00 C 818.22 230.75 818.28 221.50 818.21 212.25 C 790.92 212.33 763.63 212.17 736.34 212.34 C 736.11 201.31 736.30 190.27 736.24 179.24 C 760.74 179.23 785.24 179.25 809.73 179.24 C 809.73 170.08 809.73 160.92 809.73 151.76 C 785.24 151.75 760.74 151.77 736.24 151.76 C 736.24 143.00 736.23 134.24 736.25 125.49 C 762.58 125.49 788.91 125.50 815.24 125.48 C 815.24 116.24 815.24 107.00 815.24 97.76 C 777.66 97.76 740.09 97.76 702.51 97.76 Z" />
<path fill="#ffffff" opacity="1.00" d=" M 211.50 304.62 C 223.45 302.54 236.43 303.55 247.04 309.84 C 258.67 316.70 266.66 328.63 270.36 341.46 C 274.34 354.57 274.57 368.50 273.54 382.07 C 272.03 398.63 265.74 415.77 252.35 426.37 C 240.42 436.12 223.70 437.97 209.08 434.46 C 195.76 431.21 184.92 421.18 178.91 409.08 C 171.24 393.65 170.24 375.85 171.54 358.94 C 172.58 344.75 177.11 330.49 186.41 319.51 C 192.60 311.70 201.72 306.39 211.50 304.62 M 218.39 329.66 C 210.96 330.81 204.87 336.29 201.57 342.85 C 196.74 352.43 196.30 363.47 196.55 373.99 C 197.01 384.38 199.12 395.59 206.56 403.39 C 211.64 408.95 219.66 411.66 227.06 410.00 C 234.67 408.69 240.60 402.66 243.90 395.96 C 248.25 386.63 248.90 376.08 248.68 365.94 C 248.18 355.66 246.68 344.41 239.40 336.54 C 234.29 330.67 225.96 328.19 218.39 329.66 Z" />
<path fill="#ffffff" opacity="1.00" d=" M 725.47 312.55 C 736.91 303.86 752.31 302.10 766.10 304.79 C 779.18 307.40 790.41 316.49 796.68 328.13 C 805.25 343.56 806.52 361.81 805.49 379.09 C 804.64 391.96 801.22 404.85 793.94 415.64 C 798.92 419.56 804.38 422.89 810.27 425.27 C 807.22 432.53 804.15 439.79 801.05 447.04 C 791.58 444.22 784.38 437.30 776.86 431.28 C 764.83 437.03 750.58 437.45 737.92 433.59 C 723.64 429.13 712.84 416.91 707.96 403.03 C 702.28 387.27 701.81 370.04 703.83 353.55 C 705.91 337.99 712.49 322.10 725.47 312.55 M 735.72 338.98 C 728.35 349.34 728.00 362.72 728.30 374.95 C 728.84 385.60 730.91 397.29 739.03 404.93 C 743.72 409.78 750.80 411.81 757.40 410.70 C 754.08 408.21 750.36 406.35 746.56 404.73 C 748.87 398.92 751.14 393.09 753.52 387.31 C 753.74 385.81 755.10 386.84 755.90 387.08 C 762.56 389.85 768.59 393.93 774.09 398.56 C 778.91 390.23 780.21 380.46 780.47 370.99 C 780.40 361.40 779.69 351.41 775.25 342.72 C 771.76 335.78 765.03 330.15 757.12 329.44 C 748.88 328.26 740.40 332.15 735.72 338.98 Z" />
<path fill="#ffffff" opacity="1.00" d=" M 878.06 305.94 C 886.23 305.39 894.53 305.90 902.75 305.71 C 902.77 331.13 902.77 356.54 902.76 381.95 C 902.25 393.11 902.59 404.73 898.09 415.20 C 894.33 424.20 886.38 431.22 877.07 434.06 C 870.26 436.25 863.01 436.15 855.94 435.93 C 848.45 435.56 840.68 434.01 834.55 429.43 C 825.02 422.97 819.73 411.65 818.81 400.39 C 817.01 382.65 817.61 364.80 817.48 347.00 C 817.48 333.24 817.48 319.48 817.48 305.72 C 825.82 305.73 834.17 305.72 842.52 305.72 C 842.52 331.81 842.51 357.90 842.52 384.00 C 842.75 391.05 842.43 398.96 847.26 404.71 C 851.95 410.77 860.74 411.51 867.63 409.48 C 873.70 407.58 876.99 401.08 877.31 395.07 C 878.50 378.08 877.82 361.04 878.00 344.02 C 878.04 331.33 877.91 318.63 878.06 305.94 Z" />
<path fill="#ffffff" opacity="1.00" d=" M 347.47 305.75 C 357.11 305.66 366.75 305.81 376.38 305.67 C 384.23 320.95 391.30 336.65 399.21 351.90 C 406.52 336.51 413.91 321.15 421.19 305.74 C 430.72 305.69 440.25 305.75 449.78 305.71 C 439.21 326.45 428.39 347.06 417.70 367.74 C 415.58 372.15 412.93 376.32 411.12 380.87 C 410.83 398.57 411.09 416.29 411.00 434.00 C 402.74 434.00 394.49 434.01 386.23 433.99 C 386.25 416.66 386.23 399.33 386.24 382.00 C 386.43 380.05 385.24 378.43 384.42 376.78 C 372.07 353.12 359.82 329.41 347.47 305.75 Z" />
<path fill="#ffffff" opacity="1.00" d=" M 454.23 433.99 C 454.32 391.21 454.08 348.42 454.35 305.65 C 465.85 305.83 477.35 305.65 488.86 305.74 C 494.36 331.24 500.02 356.70 505.43 382.21 C 511.04 356.74 516.45 331.22 521.96 305.73 C 533.57 305.74 545.18 305.67 556.80 305.77 C 556.73 348.51 556.77 391.25 556.77 433.99 C 548.98 433.94 541.18 434.15 533.40 433.87 C 533.60 408.59 533.54 383.31 533.05 358.04 C 530.00 369.60 528.09 381.45 525.50 393.13 C 522.69 406.76 519.84 420.37 517.04 434.00 C 509.28 434.02 501.53 433.95 493.77 434.04 C 488.54 409.03 483.43 384.01 478.30 358.99 C 476.95 360.32 477.70 362.39 477.49 364.07 C 477.58 387.36 477.44 410.65 477.56 433.93 C 469.78 434.07 462.00 433.97 454.23 433.99 Z" />
<path fill="#ffffff" opacity="1.00" d=" M 572.72 305.72 C 586.82 305.75 600.91 305.68 615.01 305.75 C 621.84 306.19 628.97 305.86 635.40 308.56 C 645.48 313.02 651.92 323.36 653.89 333.93 C 655.66 343.69 655.53 353.99 652.48 363.49 C 648.99 373.95 640.56 383.35 629.49 385.70 C 619.06 387.69 608.38 387.26 597.83 387.24 C 597.68 402.82 597.80 418.40 597.77 433.99 C 589.42 434.01 581.07 434.00 572.73 434.00 C 572.72 391.24 572.73 348.48 572.72 305.72 M 597.76 331.00 C 597.76 341.34 597.76 351.67 597.77 362.00 C 605.20 361.86 612.75 362.52 620.07 360.89 C 627.63 359.04 630.62 350.13 629.37 343.14 C 628.70 337.68 624.56 332.36 618.90 331.62 C 611.90 330.62 604.81 331.11 597.76 331.00 Z" />
<path fill="#ffffff" opacity="1.00" d=" M 667.00 305.73 C 675.26 305.73 683.51 305.70 691.77 305.74 C 691.75 348.49 691.76 391.24 691.77 433.99 C 683.51 434.01 675.26 433.99 667.00 434.00 C 667.00 391.24 667.00 348.48 667.00 305.73 Z" />
<path fill="#ffffff" opacity="1.00" d=" M 920.23 305.72 C 946.82 305.73 973.41 305.72 1000.00 305.73 C 1000.00 314.15 1000.00 322.57 1000.00 331.00 C 981.67 331.00 963.33 331.00 945.00 331.00 C 945.00 338.74 945.00 346.49 945.00 354.23 C 962.00 354.29 979.00 354.14 996.00 354.30 C 996.66 362.59 996.07 371.13 996.28 379.52 C 979.21 379.49 962.14 379.57 945.07 379.47 C 944.92 389.22 945.02 398.98 945.01 408.73 C 964.01 408.72 983.00 408.72 1002.00 408.73 C 1002.00 417.15 1002.00 425.57 1002.00 434.00 C 974.74 434.00 947.49 434.01 920.23 433.99 C 920.24 391.23 920.24 348.48 920.23 305.72 Z" />
<path fill="#ffffff" opacity="1.00" d=" M 286.48 306.72 C 294.75 306.73 303.01 306.73 311.28 306.72 C 311.27 340.72 311.28 374.73 311.27 408.73 C 328.27 408.71 345.28 408.73 362.28 408.72 C 362.27 417.15 362.28 425.57 362.27 434.00 C 337.01 434.00 311.75 434.00 286.49 434.00 C 286.48 391.57 286.49 349.15 286.48 306.72 Z" />
<path fill="#ffffff" opacity="1.00" d=" M 414.27 470.29 C 418.91 471.02 423.56 472.67 426.87 476.15 C 434.93 483.98 435.99 496.23 443.55 504.42 C 446.61 507.78 450.86 509.73 455.09 511.18 C 463.15 513.85 471.68 514.46 480.05 515.58 C 490.79 516.81 501.37 519.08 512.11 520.35 C 518.24 521.38 522.24 515.63 527.36 513.42 C 534.78 509.60 543.10 513.49 550.92 512.31 C 557.71 511.12 562.27 504.79 569.08 503.70 C 576.21 502.65 582.08 508.60 589.15 507.96 C 594.37 507.39 596.16 501.07 600.96 499.73 C 615.43 498.11 629.58 502.88 643.98 503.03 C 651.58 503.24 658.90 500.27 664.67 495.42 C 682.96 503.54 703.43 502.86 723.00 503.51 C 735.94 503.99 749.09 504.54 761.56 508.32 C 767.74 510.28 767.75 519.05 774.05 520.79 C 779.33 521.72 784.64 519.37 789.92 520.48 C 795.20 523.33 799.26 528.28 805.21 529.95 C 811.66 532.67 819.41 533.17 824.51 538.43 C 840.27 553.73 856.64 568.39 872.99 583.04 C 877.14 597.37 880.31 612.65 889.70 624.70 C 892.24 624.21 894.85 623.73 897.14 622.45 C 904.34 618.81 908.11 611.03 914.93 606.87 C 918.51 604.60 922.83 603.73 927.03 603.75 C 933.45 609.09 940.47 613.87 945.95 620.25 C 952.68 628.54 954.54 639.71 953.86 650.11 C 952.94 667.87 947.47 685.17 947.77 703.02 C 947.76 710.75 950.40 718.15 954.20 724.79 C 958.49 732.40 963.47 740.92 960.80 749.98 C 957.33 748.74 953.33 747.97 949.92 749.78 C 942.82 753.45 939.33 761.25 932.98 765.82 C 928.23 769.24 922.31 764.90 917.27 767.21 C 912.94 768.81 910.15 772.84 906.01 774.73 C 902.65 776.15 899.98 773.29 897.89 771.13 C 886.28 786.85 879.32 805.29 870.35 822.51 C 864.65 832.80 858.07 842.72 854.16 853.89 C 852.31 858.99 851.51 864.67 853.07 869.96 C 854.60 875.58 858.36 880.24 860.14 885.77 C 863.01 894.64 864.82 904.13 863.25 913.44 C 861.82 920.94 856.99 927.40 850.96 931.91 C 840.82 939.81 828.90 945.10 818.95 953.27 C 813.54 957.77 808.46 962.72 802.54 966.56 C 794.50 971.70 786.19 976.73 776.88 979.19 C 766.46 982.35 755.15 982.27 745.26 987.17 C 737.93 990.22 731.15 995.23 723.03 995.85 C 707.58 986.82 689.81 983.32 672.60 979.19 C 674.44 972.17 677.85 965.23 683.83 960.85 C 692.49 954.31 703.93 953.28 714.43 953.91 C 706.94 945.80 695.60 943.88 686.48 938.34 C 682.91 935.87 678.12 937.44 675.24 940.23 C 669.32 945.88 666.35 953.87 660.56 959.62 C 657.76 962.51 653.79 963.70 650.05 964.82 C 636.62 968.66 621.16 966.69 609.94 958.07 C 607.25 956.16 605.63 952.92 602.50 951.64 C 598.37 950.46 593.75 952.71 589.84 950.47 C 587.63 949.04 585.08 947.05 585.11 944.16 C 584.85 936.15 584.29 927.36 589.09 920.43 C 584.70 916.52 579.35 913.58 573.50 912.69 C 562.65 910.87 551.81 913.78 541.13 915.44 C 527.20 918.03 513.00 916.05 499.02 915.00 C 475.97 912.90 452.70 909.73 429.58 912.76 C 412.83 915.09 397.05 921.44 380.85 925.95 C 370.18 928.87 358.97 931.26 347.90 929.37 C 339.72 927.99 332.26 923.38 327.02 917.01 C 325.97 909.50 331.39 901.29 339.24 900.33 C 343.84 899.82 348.22 898.30 352.53 896.70 C 330.49 894.63 310.26 879.96 301.51 859.62 C 298.21 852.50 297.08 844.67 295.63 837.04 C 296.52 830.01 296.73 822.83 298.96 816.05 C 305.01 795.43 322.52 778.89 343.31 773.63 C 329.88 769.00 316.57 761.73 308.22 749.90 C 301.32 740.38 300.73 727.18 305.81 716.72 C 310.74 714.15 317.00 715.28 322.10 717.11 C 333.91 721.67 343.26 731.44 355.89 734.09 C 370.79 737.31 386.34 736.72 401.04 741.04 C 407.73 743.09 413.19 747.79 419.78 750.09 C 435.61 755.77 452.22 758.99 468.87 761.12 C 480.19 762.38 491.65 763.38 503.02 762.10 C 524.36 759.90 546.06 760.20 567.15 764.33 C 583.77 767.64 600.05 773.47 614.27 782.80 C 617.47 784.88 619.43 788.29 622.27 790.78 C 632.43 798.29 646.00 800.28 658.12 797.10 C 671.84 793.59 684.51 787.04 697.85 782.38 C 706.78 778.57 717.16 775.21 722.63 766.61 C 722.98 761.33 720.16 756.08 715.87 753.07 C 710.09 748.83 703.00 746.65 697.67 741.75 C 700.45 736.19 702.50 730.27 703.62 724.14 C 705.18 716.08 705.91 707.51 710.44 700.42 C 712.58 696.89 715.50 693.95 718.56 691.22 C 716.26 679.08 718.98 666.70 723.61 655.45 C 725.73 650.97 725.68 644.97 730.40 642.21 C 738.10 637.24 747.83 637.40 755.84 633.13 C 749.55 622.53 741.02 613.02 730.33 606.70 C 718.15 599.47 705.77 592.27 692.23 587.88 C 686.68 585.99 681.00 584.48 675.40 582.78 C 668.32 580.59 662.28 575.64 654.80 574.67 C 623.47 569.70 591.63 571.56 560.05 571.51 C 536.99 571.93 513.82 571.97 490.90 569.08 C 477.71 567.05 463.76 564.48 453.01 556.03 C 441.19 545.50 436.27 529.93 428.71 516.49 C 420.87 502.32 413.68 486.88 414.27 470.29 M 660.48 529.62 C 657.11 530.94 653.33 532.19 651.04 535.14 C 649.67 536.94 651.44 539.03 653.08 539.81 C 659.45 543.22 666.80 543.75 673.81 544.76 C 695.71 548.42 717.03 555.75 736.46 566.52 C 762.58 580.90 784.92 602.38 799.37 628.54 C 803.06 635.41 806.97 642.36 808.49 650.10 C 810.53 659.61 810.47 669.53 808.79 679.09 C 804.24 704.89 788.98 727.40 771.10 745.96 C 749.71 767.99 724.08 785.38 697.60 800.68 C 694.74 803.63 692.84 807.53 691.53 811.42 C 690.69 813.26 691.69 815.56 693.98 815.30 C 699.80 814.30 704.65 810.72 709.73 807.95 C 723.23 800.74 736.15 792.47 748.43 783.35 C 767.78 769.02 785.75 752.53 800.22 733.20 C 815.47 712.93 826.55 688.65 827.51 663.01 C 828.36 652.27 825.11 641.74 821.20 631.88 C 810.35 605.27 789.82 583.57 766.09 567.85 C 735.60 547.70 700.25 536.18 664.60 529.24 C 663.20 528.82 661.79 529.12 660.48 529.62 M 743.43 678.89 C 739.55 689.23 740.43 700.97 744.46 711.13 C 747.15 717.99 752.79 724.46 760.59 725.05 C 759.73 715.68 758.67 706.24 755.85 697.22 C 753.43 690.25 750.01 682.81 743.43 678.89 M 357.26 775.99 C 356.44 777.12 355.63 778.26 354.82 779.42 C 364.46 782.25 374.09 785.12 383.70 788.04 C 383.48 785.75 383.26 783.49 382.97 781.23 C 374.87 777.72 366.08 775.94 357.26 775.99 M 351.51 783.02 C 348.82 786.68 345.71 790.01 343.00 793.66 C 345.84 798.73 348.33 803.97 351.00 809.13 C 358.89 810.32 366.56 812.68 374.36 814.33 C 378.04 811.32 381.78 808.40 385.33 805.24 C 384.81 801.06 384.46 796.86 384.14 792.66 C 373.25 789.49 362.43 786.09 351.51 783.02 M 524.07 785.16 C 517.73 786.44 515.02 794.87 519.06 799.79 C 523.15 805.44 533.25 803.78 535.00 796.92 C 537.51 790.41 530.74 783.19 524.07 785.16 M 402.21 789.00 C 416.90 803.19 424.31 824.71 420.57 844.88 C 418.48 858.50 411.30 871.03 401.37 880.48 C 403.26 879.82 405.16 879.14 407.13 878.74 C 434.95 873.70 462.80 867.94 489.36 858.04 C 487.85 854.90 485.35 852.27 482.11 850.93 C 473.90 847.36 464.66 848.11 456.14 845.80 C 441.74 832.21 437.62 810.71 422.02 798.07 C 416.36 793.23 409.07 791.38 402.21 789.00 M 546.44 791.56 C 539.60 793.41 537.78 803.45 543.53 807.58 C 548.87 812.17 558.35 808.12 558.29 800.95 C 559.19 794.66 552.29 789.56 546.44 791.56 M 301.84 822.03 C 303.28 823.06 304.76 824.07 306.26 825.04 C 310.41 814.02 314.65 803.03 318.89 792.05 C 310.32 800.00 304.45 810.66 301.84 822.03 M 323.44 792.08 C 319.07 804.03 314.33 815.85 309.86 827.77 C 312.99 830.04 316.14 832.28 319.27 834.56 C 324.16 833.39 329.14 832.49 333.95 831.00 C 338.95 825.29 343.50 819.17 348.28 813.26 C 344.69 806.58 341.40 799.75 337.86 793.05 C 333.05 792.80 328.26 792.13 323.44 792.08 M 378.34 816.82 C 378.66 823.52 378.64 830.23 379.02 836.93 C 383.67 839.28 388.19 841.88 392.90 844.10 C 397.66 841.23 402.55 838.57 407.35 835.76 C 405.23 826.75 403.06 817.75 400.88 808.76 C 396.62 808.76 392.36 808.75 388.10 808.77 C 384.87 811.47 381.57 814.11 378.34 816.82 M 405.34 808.75 C 407.57 817.75 409.58 826.80 411.91 835.78 C 413.70 835.73 415.50 835.71 417.30 835.70 C 417.17 826.41 415.31 817.11 411.17 808.76 C 409.22 808.75 407.28 808.75 405.34 808.75 M 318.86 839.14 C 318.14 843.77 317.51 848.41 316.76 853.04 C 322.65 859.33 328.77 865.40 334.78 871.59 C 340.29 870.75 345.83 870.04 351.36 869.28 C 352.13 862.94 353.07 856.63 353.71 850.28 C 349.17 845.84 344.93 841.11 340.50 836.56 C 339.57 835.68 338.48 834.21 337.00 834.90 C 330.94 836.24 324.93 837.79 318.86 839.14 M 358.14 850.14 C 357.36 856.85 356.43 863.53 355.58 870.24 C 358.65 873.05 361.79 875.80 364.84 878.65 C 373.92 874.51 382.94 870.26 392.02 866.12 C 392.01 860.20 391.73 854.29 391.45 848.39 C 387.18 846.13 382.89 843.93 378.66 841.61 C 371.77 844.36 365.00 847.34 358.14 850.14 M 305.04 856.75 C 310.13 868.91 319.45 879.18 330.98 885.54 C 331.01 881.70 330.99 877.87 331.01 874.04 C 325.39 868.26 319.76 862.50 314.09 856.76 C 311.07 856.76 308.05 856.75 305.04 856.75 M 392.83 870.51 C 386.45 873.51 380.02 876.43 373.64 879.45 C 372.03 880.12 370.41 881.10 368.59 880.84 C 368.50 881.48 368.72 882.07 369.04 882.65 C 367.36 886.19 364.87 889.25 362.94 892.65 C 369.22 891.76 375.03 889.04 381.08 887.25 C 390.29 884.94 397.88 878.49 403.76 871.28 C 400.15 870.95 396.28 868.43 392.83 870.51 M 760.35 899.45 C 761.53 909.99 764.69 921.00 772.38 928.70 C 779.13 935.33 788.91 937.72 798.14 937.52 C 795.99 925.57 788.94 914.97 780.11 906.86 C 774.76 902.15 767.83 897.51 760.35 899.45 Z" />
</g>
</svg>
