<?xml version="1.0" encoding="UTF-8" standalone="no"?>
<!-- Created with Inkscape (http://www.inkscape.org/) -->
<svg
   xmlns:svg="http://www.w3.org/2000/svg"
   xmlns="http://www.w3.org/2000/svg"
   version="1.0"
   width="769.42914"
   height="798.94489"
   id="svg14416"
   xml:space="preserve"><defs
     id="defs14419"><clipPath
       id="clipPath14431"><path
         d="M 0,841 L 595,841 L 595,0 L 0,0 L 0,841 z"
         id="path14433" /></clipPath><clipPath
       id="clipPath14437"><path
         d="M 0.36,841.68 L 595.8,841.68 L 595.8,0 L 0.36,0 L 0.36,841.68 z"
         id="path14439" /></clipPath><clipPath
       id="clipPath14527"><path
         d="M 399.685,682.251 L 467.716,682.251 L 467.716,612.251 L 399.685,612.251 L 399.685,682.251 z"
         id="path14529" /></clipPath><clipPath
       id="clipPath14533"><path
         d="M 0,841 L 595,841 L 595,0 L 0,0 L 0,841 z"
         id="path14535" /></clipPath><clipPath
       id="clipPath14539"><path
         d="M 0.36,841.68 L 595.8,841.68 L 595.8,0 L 0.36,0 L 0.36,841.68 z"
         id="path14541" /></clipPath><clipPath
       id="clipPath14631"><path
         d="M 484.724,682.251 L 552.756,682.251 L 552.756,612.251 L 484.724,612.251 L 484.724,682.251 z"
         id="path14633" /></clipPath><clipPath
       id="clipPath14637"><path
         d="M 0,841 L 595,841 L 595,0 L 0,0 L 0,841 z"
         id="path14639" /></clipPath><clipPath
       id="clipPath14643"><path
         d="M 0.36,841.68 L 595.8,841.68 L 595.8,0 L 0.36,0 L 0.36,841.68 z"
         id="path14645" /></clipPath><radialGradient
       cx="0"
       cy="0"
       r="1"
       fx="0"
       fy="0"
       id="radialGradient14683"
       gradientUnits="userSpaceOnUse"
       gradientTransform="matrix(15.4865,-15.4865,-15.4865,-15.4865,511.748,669.5154)"
       spreadMethod="pad"><stop
         id="stop14685"
         style="stop-color:#ffffff;stop-opacity:1"
         offset="0" /><stop
         id="stop14687"
         style="stop-color:#696a6c;stop-opacity:1"
         offset="1" /></radialGradient><clipPath
       id="clipPath14695"><path
         d="M 484.724,682.251 L 552.756,682.251 L 552.756,612.251 L 484.724,612.251 L 484.724,682.251 z"
         id="path14697" /></clipPath><clipPath
       id="clipPath14701"><path
         d="M 0,841 L 595,841 L 595,0 L 0,0 L 0,841 z"
         id="path14703" /></clipPath><clipPath
       id="clipPath14707"><path
         d="M 0.36,841.68 L 595.8,841.68 L 595.8,0 L 0.36,0 L 0.36,841.68 z"
         id="path14709" /></clipPath><clipPath
       id="clipPath14733"><path
         d="M 147.567,682.251 L 215.598,682.251 L 215.598,612.251 L 147.567,612.251 L 147.567,682.251 z"
         id="path14735" /></clipPath><clipPath
       id="clipPath14739"><path
         d="M 0,841 L 595,841 L 595,0 L 0,0 L 0,841 z"
         id="path14741" /></clipPath><clipPath
       id="clipPath14745"><path
         d="M 0.36,841.68 L 595.8,841.68 L 595.8,0 L 0.36,0 L 0.36,841.68 z"
         id="path14747" /></clipPath><clipPath
       id="clipPath14809"><path
         d="M 229.606,682.251 L 297.638,682.251 L 297.638,612.251 L 229.606,612.251 L 229.606,682.251 z"
         id="path14811" /></clipPath><clipPath
       id="clipPath14815"><path
         d="M 0,841 L 595,841 L 595,0 L 0,0 L 0,841 z"
         id="path14817" /></clipPath><clipPath
       id="clipPath14821"><path
         d="M 0.36,841.68 L 595.8,841.68 L 595.8,0 L 0.36,0 L 0.36,841.68 z"
         id="path14823" /></clipPath><clipPath
       id="clipPath14945"><path
         d="M 314.646,682.251 L 382.677,682.251 L 382.677,612.251 L 314.646,612.251 L 314.646,682.251 z"
         id="path14947" /></clipPath><clipPath
       id="clipPath14951"><path
         d="M 0,841 L 595,841 L 595,0 L 0,0 L 0,841 z"
         id="path14953" /></clipPath><clipPath
       id="clipPath14957"><path
         d="M 0.36,841.68 L 595.8,841.68 L 595.8,0 L 0.36,0 L 0.36,841.68 z"
         id="path14959" /></clipPath><clipPath
       id="clipPath15057"><path
         d="M 399.685,574.543 L 467.716,574.543 L 467.716,504.544 L 399.685,504.544 L 399.685,574.543 z"
         id="path15059" /></clipPath><clipPath
       id="clipPath15063"><path
         d="M 0,841 L 595,841 L 595,0 L 0,0 L 0,841 z"
         id="path15065" /></clipPath><clipPath
       id="clipPath15069"><path
         d="M 0.36,841.68 L 595.8,841.68 L 595.8,0 L 0.36,0 L 0.36,841.68 z"
         id="path15071" /></clipPath><clipPath
       id="clipPath15079"><path
         d="M 455.345,545.226 C 455.621,547.816 457.943,549.692 460.532,549.416 C 463.12,549.141 464.995,546.819 464.719,544.229 C 464.444,541.639 462.122,539.763 459.534,540.038 C 456.945,540.314 455.07,542.636 455.345,545.226"
         id="path15081" /></clipPath><clipPath
       id="clipPath15601"><path
         d="M 399.685,574.543 L 467.716,574.543 L 467.716,504.544 L 399.685,504.544 L 399.685,574.543 z"
         id="path15603" /></clipPath><clipPath
       id="clipPath15607"><path
         d="M 0,841 L 595,841 L 595,0 L 0,0 L 0,841 z"
         id="path15609" /></clipPath><clipPath
       id="clipPath15613"><path
         d="M 0.36,841.68 L 595.8,841.68 L 595.8,0 L 0.36,0 L 0.36,841.68 z"
         id="path15615" /></clipPath><clipPath
       id="clipPath15661"><path
         d="M 484.724,574.543 L 552.756,574.543 L 552.756,504.544 L 484.724,504.544 L 484.724,574.543 z"
         id="path15663" /></clipPath><clipPath
       id="clipPath15667"><path
         d="M 0,841 L 595,841 L 595,0 L 0,0 L 0,841 z"
         id="path15669" /></clipPath><clipPath
       id="clipPath15673"><path
         d="M 0.36,841.68 L 595.8,841.68 L 595.8,0 L 0.36,0 L 0.36,841.68 z"
         id="path15675" /></clipPath><clipPath
       id="clipPath15745"><path
         d="M 149.105,574.543 L 215.598,574.543 L 215.598,504.544 L 149.105,504.544 L 149.105,574.543 z"
         id="path15747" /></clipPath><clipPath
       id="clipPath15751"><path
         d="M 0,841 L 595,841 L 595,0 L 0,0 L 0,841 z"
         id="path15753" /></clipPath><clipPath
       id="clipPath15757"><path
         d="M 0.36,841.68 L 595.8,841.68 L 595.8,0 L 0.36,0 L 0.36,841.68 z"
         id="path15759" /></clipPath><clipPath
       id="clipPath16425"><path
         d="M 229.606,574.543 L 297.638,574.543 L 297.638,504.544 L 229.606,504.544 L 229.606,574.543 z"
         id="path16427" /></clipPath><clipPath
       id="clipPath16431"><path
         d="M 0,841 L 595,841 L 595,0 L 0,0 L 0,841 z"
         id="path16433" /></clipPath><clipPath
       id="clipPath16437"><path
         d="M 0.36,841.68 L 595.8,841.68 L 595.8,0 L 0.36,0 L 0.36,841.68 z"
         id="path16439" /></clipPath><clipPath
       id="clipPath16575"><path
         d="M 269.913,547.204 C 266.697,547.204 264.09,544.596 264.09,541.38 C 264.09,538.165 266.697,535.557 269.913,535.557 C 273.129,535.557 275.736,538.165 275.736,541.38 C 275.736,544.596 273.129,547.204 269.913,547.204"
         id="path16577" /></clipPath><clipPath
       id="clipPath16791"><path
         d="M 229.606,574.543 L 297.638,574.543 L 297.638,504.544 L 229.606,504.544 L 229.606,574.543 z"
         id="path16793" /></clipPath><clipPath
       id="clipPath16797"><path
         d="M 0,841 L 595,841 L 595,0 L 0,0 L 0,841 z"
         id="path16799" /></clipPath><clipPath
       id="clipPath16803"><path
         d="M 0.36,841.68 L 595.8,841.68 L 595.8,0 L 0.36,0 L 0.36,841.68 z"
         id="path16805" /></clipPath><clipPath
       id="clipPath16829"><path
         d="M 314.646,574.543 L 382.677,574.543 L 382.677,504.544 L 314.646,504.544 L 314.646,574.543 z"
         id="path16831" /></clipPath><clipPath
       id="clipPath16835"><path
         d="M 0,841 L 595,841 L 595,0 L 0,0 L 0,841 z"
         id="path16837" /></clipPath><clipPath
       id="clipPath16841"><path
         d="M 0.36,841.68 L 595.8,841.68 L 595.8,0 L 0.36,0 L 0.36,841.68 z"
         id="path16843" /></clipPath><clipPath
       id="clipPath16941"><path
         d="M 337.923,562.831 L 339.952,562.831 L 339.952,562.729 L 340.256,562.731 L 340.561,562.729 L 340.561,562.628 L 340.763,562.632 L 340.967,562.628 L 340.967,562.526 L 341.271,562.526 L 341.271,562.425 L 341.423,562.427 L 341.576,562.425 L 341.576,562.323 L 341.725,562.33 L 341.88,562.323 L 341.88,562.222 L 342.083,562.222 L 342.083,562.12 L 342.286,562.12 L 342.286,562.019 L 342.489,562.019 L 342.489,561.917 L 342.692,561.917 L 342.692,561.816 L 342.895,561.816 L 342.895,561.714 L 343.061,561.667 L 343.199,561.613 L 343.199,561.511 L 343.402,561.511 L 343.504,561.309 L 343.707,561.309 L 343.707,561.207 L 343.857,561.107 L 344.011,561.004 L 344.011,560.903 L 344.214,560.903 L 344.214,560.801 L 344.379,560.688 L 344.656,560.409 L 344.823,560.294 L 344.823,560.193 L 344.924,560.193 L 345.025,559.99 L 345.127,559.99 L 345.127,559.786 L 345.33,559.786 L 345.33,559.584 L 345.44,559.535 L 345.533,559.482 L 345.533,559.279 L 345.736,559.178 L 345.784,558.974 L 345.837,558.772 L 345.938,558.72 L 346.04,558.671 L 346.04,558.468 L 346.15,558.421 L 346.243,558.366 L 346.257,558.297 L 346.25,558.215 L 346.243,558.062 L 346.345,558.062 L 346.386,557.856 L 346.446,557.656 L 346.547,557.656 L 346.551,557.504 L 346.547,557.352 L 346.649,557.352 L 346.649,557.047 L 346.75,557.047 L 346.747,556.899 L 346.75,556.743 L 346.852,556.743 L 346.85,556.49 L 346.852,556.235 L 346.953,556.235 L 346.953,555.829 L 347.055,555.829 L 347.055,554.713 L 347.157,554.713 L 347.055,553.191 L 346.953,553.191 L 346.956,552.939 L 346.953,552.684 L 346.852,552.684 L 346.852,552.278 L 346.75,552.278 L 346.753,552.077 L 346.75,551.872 L 346.649,551.872 L 346.649,551.67 L 346.547,551.67 L 346.498,551.365 L 346.446,551.061 L 346.345,551.061 L 346.289,550.866 L 346.243,550.655 L 346.142,550.655 L 346.142,550.452 L 346.037,550.4 L 345.938,550.35 L 345.884,550.146 L 345.837,549.945 L 345.634,549.843 L 345.634,549.64 L 345.33,549.437 L 345.33,549.234 L 345.229,549.234 L 345.229,549.133 L 345.024,548.982 L 344.823,548.828 L 344.823,548.727 L 344.721,548.727 L 344.721,548.626 L 344.526,548.49 L 344.365,548.322 L 344.204,548.154 L 344.011,548.017 L 344.011,547.915 L 343.808,547.915 L 343.605,547.611 L 343.402,547.611 L 343.301,547.408 L 343.096,547.358 L 342.895,547.306 L 342.793,547.103 L 342.59,547.103 L 342.59,547.002 L 342.378,546.957 L 342.185,546.901 L 342.185,546.799 L 342.032,546.806 L 341.88,546.799 L 341.88,546.698 L 341.677,546.698 L 341.677,546.596 L 341.473,546.598 L 341.271,546.596 L 341.271,546.495 L 340.967,546.495 L 340.967,546.393 L 340.761,546.398 L 340.561,546.393 L 340.561,546.292 L 340.155,546.292 L 340.155,546.19 L 340.063,546.207 L 340.055,546.252 L 340.056,546.275 L 340.046,546.292 L 339.952,546.292 L 339.952,546.19 L 339.596,546.188 L 339.242,546.19 L 339.242,546.089 L 338.025,546.089 L 338.025,546.19 L 337.92,546.182 L 337.914,546.164 L 337.922,546.142 L 337.929,546.12 L 337.924,546.101 L 337.822,546.089 L 337.822,546.19 L 336.908,546.19 L 336.908,546.292 L 336.704,546.289 L 336.503,546.292 L 336.503,546.393 L 336.193,546.439 L 335.894,546.495 L 335.894,546.596 L 335.742,546.592 L 335.59,546.596 L 335.59,546.698 L 335.385,546.75 L 335.183,546.799 L 335.082,547.002 L 334.879,547.002 L 334.879,547.103 L 334.676,547.103 L 334.676,547.205 L 334.466,547.252 L 334.27,547.306 L 334.27,547.408 L 334.067,547.408 L 333.965,547.561 L 333.865,547.712 L 333.715,547.765 L 333.56,547.814 L 333.56,547.915 L 333.357,547.915 L 333.357,548.118 L 333.154,548.118 L 333.053,548.321 L 332.951,548.321 L 332.951,548.423 L 332.747,548.576 L 332.545,548.727 L 332.545,548.828 L 332.444,548.828 L 332.444,549.031 L 332.347,549.082 L 332.241,549.133 L 332.038,549.437 L 331.937,549.437 L 331.937,549.64 L 331.835,549.64 L 331.789,549.694 L 331.772,549.774 L 331.734,549.945 L 331.642,550.004 L 331.531,550.046 L 331.531,550.249 L 331.429,550.249 L 331.429,550.452 L 331.226,550.553 L 331.174,550.694 L 331.167,550.796 L 331.165,550.903 L 331.125,551.061 L 331.024,551.061 L 331.024,551.264 L 330.922,551.264 L 330.925,551.416 L 330.922,551.568 L 330.821,551.568 L 330.823,551.72 L 330.821,551.872 L 330.719,551.872 L 330.673,552.181 L 330.618,552.481 L 330.516,552.481 L 330.508,552.735 L 330.516,552.989 L 330.415,552.989 L 330.415,553.8 L 330.313,553.8 L 330.313,553.902 L 330.387,553.936 L 330.418,553.958 L 330.415,554.104 L 330.313,554.104 L 330.313,554.713 L 330.415,554.713 L 330.415,555.829 L 330.516,555.829 L 330.508,556.086 L 330.516,556.337 L 330.618,556.337 L 330.618,556.641 L 330.719,556.641 L 330.722,556.797 L 330.719,556.946 L 330.821,556.946 L 330.864,557.257 L 330.922,557.554 L 331.024,557.554 L 331.02,557.709 L 331.024,557.859 L 331.125,557.859 L 331.166,558.066 L 331.226,558.265 L 331.328,558.265 L 331.328,558.468 L 331.531,558.569 L 331.531,558.772 L 331.632,558.772 L 331.632,558.975 L 331.734,558.975 L 331.734,559.178 L 331.883,559.281 L 332.038,559.381 L 332.038,559.584 L 332.14,559.584 L 332.444,559.99 L 332.545,559.99 L 332.545,560.193 L 332.647,560.193 L 332.647,560.294 L 332.849,560.447 L 333.053,560.598 L 333.053,560.7 L 333.256,560.7 L 333.256,560.801 L 333.458,560.955 L 333.662,561.106 L 333.662,561.207 L 333.823,561.255 L 333.895,561.269 L 333.966,561.309 L 334.067,561.511 L 334.217,561.516 L 334.372,561.511 L 334.473,561.714 L 334.669,561.772 L 334.879,561.816 L 334.879,561.917 L 335.084,561.961 L 335.285,562.019 L 335.285,562.12 L 335.437,562.127 L 335.59,562.12 L 335.59,562.222 L 335.792,562.222 L 335.792,562.323 L 335.943,562.328 L 336.097,562.323 L 336.097,562.425 L 336.401,562.425 L 336.401,562.526 L 336.79,562.592 L 337.213,562.628 L 337.213,562.729 L 337.521,562.715 L 337.675,562.706 L 337.822,562.729 L 337.906,562.766 L 337.919,562.779 L 337.917,562.79 L 337.826,562.808 L 337.776,562.811 L 337.758,562.813 L 337.923,562.831"
         id="path16943" /></clipPath><clipPath
       id="clipPath16953"><path
         d="M 399.685,468.15 L 467.716,468.15 L 467.716,398.15 L 399.685,398.15 L 399.685,468.15 z"
         id="path16955" /></clipPath><clipPath
       id="clipPath16959"><path
         d="M 0,841 L 595,841 L 595,0 L 0,0 L 0,841 z"
         id="path16961" /></clipPath><clipPath
       id="clipPath16965"><path
         d="M 0.36,841.68 L 595.8,841.68 L 595.8,0 L 0.36,0 L 0.36,841.68 z"
         id="path16967" /></clipPath><clipPath
       id="clipPath17021"><path
         d="M 457.87,446.123 C 457.422,442.625 456.655,438.31 455.342,433.732 C 453.482,427.243 450.905,421.506 447.682,416.677 C 443.819,410.886 439.006,406.397 433.373,403.315 C 431.568,404.548 425.634,408.885 420.025,416.094 C 416.117,421.117 413.128,426.535 411.142,432.197 C 409.564,436.69 408.62,441.35 408.312,446.123 L 457.87,446.123"
         id="path17023" /></clipPath><clipPath
       id="clipPath17041"><path
         d="M 399.685,468.15 L 467.716,468.15 L 467.716,398.15 L 399.685,398.15 L 399.685,468.15 z"
         id="path17043" /></clipPath><clipPath
       id="clipPath17047"><path
         d="M 0,841 L 595,841 L 595,0 L 0,0 L 0,841 z"
         id="path17049" /></clipPath><clipPath
       id="clipPath17053"><path
         d="M 0.36,841.68 L 595.8,841.68 L 595.8,0 L 0.36,0 L 0.36,841.68 z"
         id="path17055" /></clipPath><clipPath
       id="clipPath17065"><path
         d="M 484.724,468.15 L 552.756,468.15 L 552.756,398.15 L 484.724,398.15 L 484.724,468.15 z"
         id="path17067" /></clipPath><clipPath
       id="clipPath17071"><path
         d="M 0,841 L 595,841 L 595,0 L 0,0 L 0,841 z"
         id="path17073" /></clipPath><clipPath
       id="clipPath17077"><path
         d="M 0.36,841.68 L 595.8,841.68 L 595.8,0 L 0.36,0 L 0.36,841.68 z"
         id="path17079" /></clipPath><clipPath
       id="clipPath17193"><path
         d="M 149.105,468.15 L 215.598,468.15 L 215.598,398.15 L 149.105,398.15 L 149.105,468.15 z"
         id="path17195" /></clipPath><clipPath
       id="clipPath17199"><path
         d="M 0,841 L 595,841 L 595,0 L 0,0 L 0,841 z"
         id="path17201" /></clipPath><clipPath
       id="clipPath17205"><path
         d="M 0.36,841.68 L 595.8,841.68 L 595.8,0 L 0.36,0 L 0.36,841.68 z"
         id="path17207" /></clipPath><clipPath
       id="clipPath17285"><path
         d="M 229.606,468.15 L 297.638,468.15 L 297.638,398.15 L 229.606,398.15 L 229.606,468.15 z"
         id="path17287" /></clipPath><clipPath
       id="clipPath17291"><path
         d="M 0,841 L 595,841 L 595,0 L 0,0 L 0,841 z"
         id="path17293" /></clipPath><clipPath
       id="clipPath17297"><path
         d="M 0.36,841.68 L 595.8,841.68 L 595.8,0 L 0.36,0 L 0.36,841.68 z"
         id="path17299" /></clipPath><linearGradient
       x1="0"
       y1="0"
       x2="1"
       y2="0"
       id="linearGradient17399"
       gradientUnits="userSpaceOnUse"
       gradientTransform="matrix(0,-31.3668,-55.4292,0,377.1228,452.6494)"
       spreadMethod="pad"><stop
         id="stop17401"
         style="stop-color:#ffffff;stop-opacity:1"
         offset="0" /><stop
         id="stop17403"
         style="stop-color:#231f20;stop-opacity:1"
         offset="1" /></linearGradient><clipPath
       id="clipPath17411"><path
         d="M 314.646,468.15 L 382.677,468.15 L 382.677,398.15 L 314.646,398.15 L 314.646,468.15 z"
         id="path17413" /></clipPath><clipPath
       id="clipPath17417"><path
         d="M 0,841 L 595,841 L 595,0 L 0,0 L 0,841 z"
         id="path17419" /></clipPath><clipPath
       id="clipPath17423"><path
         d="M 0.36,841.68 L 595.8,841.68 L 595.8,0 L 0.36,0 L 0.36,841.68 z"
         id="path17425" /></clipPath><clipPath
       id="clipPath17501"><path
         d="M 399.685,361.567 L 467.716,361.567 L 467.716,291.567 L 399.685,291.567 L 399.685,361.567 z"
         id="path17503" /></clipPath><clipPath
       id="clipPath17507"><path
         d="M 0,841 L 595,841 L 595,0 L 0,0 L 0,841 z"
         id="path17509" /></clipPath><clipPath
       id="clipPath17513"><path
         d="M 0.36,841.68 L 595.8,841.68 L 595.8,0 L 0.36,0 L 0.36,841.68 z"
         id="path17515" /></clipPath><clipPath
       id="clipPath17583"><path
         d="M 484.724,361.567 L 552.756,361.567 L 552.756,291.567 L 484.724,291.567 L 484.724,361.567 z"
         id="path17585" /></clipPath><clipPath
       id="clipPath17589"><path
         d="M 0,841 L 595,841 L 595,0 L 0,0 L 0,841 z"
         id="path17591" /></clipPath><clipPath
       id="clipPath17595"><path
         d="M 0.36,841.68 L 595.8,841.68 L 595.8,0 L 0.36,0 L 0.36,841.68 z"
         id="path17597" /></clipPath><radialGradient
       cx="0"
       cy="0"
       r="1"
       fx="0"
       fy="0"
       id="radialGradient17611"
       gradientUnits="userSpaceOnUse"
       gradientTransform="matrix(16.8629,0,0,-16.8629,518.789,332.9843)"
       spreadMethod="pad"><stop
         id="stop17613"
         style="stop-color:#ffffff;stop-opacity:1"
         offset="0" /><stop
         id="stop17615"
         style="stop-color:#231f20;stop-opacity:1"
         offset="1" /></radialGradient><clipPath
       id="clipPath17623"><path
         d="M 484.724,361.567 L 552.756,361.567 L 552.756,291.567 L 484.724,291.567 L 484.724,361.567 z"
         id="path17625" /></clipPath><clipPath
       id="clipPath17629"><path
         d="M 0,841 L 595,841 L 595,0 L 0,0 L 0,841 z"
         id="path17631" /></clipPath><clipPath
       id="clipPath17635"><path
         d="M 0.36,841.68 L 595.8,841.68 L 595.8,0 L 0.36,0 L 0.36,841.68 z"
         id="path17637" /></clipPath><clipPath
       id="clipPath17721"><path
         d="M 147.567,361.567 L 215.598,361.567 L 215.598,291.567 L 147.567,291.567 L 147.567,361.567 z"
         id="path17723" /></clipPath><clipPath
       id="clipPath17727"><path
         d="M 0,841 L 595,841 L 595,0 L 0,0 L 0,841 z"
         id="path17729" /></clipPath><clipPath
       id="clipPath17733"><path
         d="M 0.36,841.68 L 595.8,841.68 L 595.8,0 L 0.36,0 L 0.36,841.68 z"
         id="path17735" /></clipPath><clipPath
       id="clipPath17931"><path
         d="M 229.606,361.567 L 297.638,361.567 L 297.638,291.567 L 229.606,291.567 L 229.606,361.567 z"
         id="path17933" /></clipPath><clipPath
       id="clipPath17937"><path
         d="M 0,841 L 595,841 L 595,0 L 0,0 L 0,841 z"
         id="path17939" /></clipPath><clipPath
       id="clipPath17943"><path
         d="M 0.36,841.68 L 595.8,841.68 L 595.8,0 L 0.36,0 L 0.36,841.68 z"
         id="path17945" /></clipPath><clipPath
       id="clipPath18037"><path
         d="M 314.646,361.567 L 382.677,361.567 L 382.677,291.567 L 314.646,291.567 L 314.646,361.567 z"
         id="path18039" /></clipPath><clipPath
       id="clipPath18043"><path
         d="M 0,841 L 595,841 L 595,0 L 0,0 L 0,841 z"
         id="path18045" /></clipPath><clipPath
       id="clipPath18049"><path
         d="M 0.36,841.68 L 595.8,841.68 L 595.8,0 L 0.36,0 L 0.36,841.68 z"
         id="path18051" /></clipPath><clipPath
       id="clipPath18187"><path
         d="M 0,841 L 595,841 L 595,0 L 0,0 L 0,841 z"
         id="path18189" /></clipPath><clipPath
       id="clipPath18193"><path
         d="M 0.36,841.68 L 595.8,841.68 L 595.8,0 L 0.36,0 L 0.36,841.68 z"
         id="path18195" /></clipPath></defs><g
     transform="matrix(1.25,0,0,-1.25,0.1290844,1053.166)"
     id="g14425"><g
       transform="matrix(9.4752184,0,0,9.4752184,-3802.7477,-2577.2053)"
       id="g17497"><g
         clip-path="url(#clipPath17501)"
         id="g17499"><g
           clip-path="url(#clipPath17507)"
           id="g17505"><g
             clip-path="url(#clipPath17513)"
             id="g17511"><path
               d="M 432.849,294.207 C 432.849,294.207 401.966,308.88 402.684,343.046 C 402.684,343.046 412.636,343.867 411.302,354.743 C 411.302,354.743 421.05,359.565 432.849,359.565 C 432.849,359.565 445.127,359.839 455.934,354.64 C 455.934,354.64 454.977,345.748 465.237,343.285 C 465.237,343.285 466.81,311.137 432.849,294.207"
               id="path17517"
               style="fill:#006bb6;fill-opacity:1;fill-rule:nonzero;stroke:none" /><path
               d="M 428.707,305.13 L 431.764,305.13 L 431.764,304.264 L 429.788,304.264 L 429.788,303.415 L 431.497,303.415 L 431.497,302.578 L 429.788,302.578 L 429.788,300.979 L 428.707,300.979 L 428.707,305.13"
               id="path17519"
               style="fill:#ffffff;fill-opacity:1;fill-rule:nonzero;stroke:none" /><path
               d="M 432.038,302.06 L 433.119,302.06 L 433.119,300.979 L 432.038,300.979 L 432.038,302.06 z"
               id="path17521"
               style="fill:#ffffff;fill-opacity:1;fill-rule:nonzero;stroke:none" /><path
               d="M 437.147,303.648 C 437.089,304.066 436.764,304.287 436.31,304.287 C 435.613,304.287 435.345,303.671 435.345,303.055 C 435.345,302.438 435.613,301.822 436.31,301.822 C 436.816,301.822 437.107,302.113 437.147,302.589 L 438.229,302.589 C 438.171,301.52 437.386,300.892 436.334,300.892 C 435.078,300.892 434.264,301.851 434.264,303.055 C 434.264,304.258 435.078,305.217 436.334,305.217 C 437.229,305.217 438.2,304.648 438.229,303.648 L 437.147,303.648"
               id="path17523"
               style="fill:#ffffff;fill-opacity:1;fill-rule:nonzero;stroke:none" /><path
               d="M 439.333,302.06 L 440.414,302.06 L 440.414,300.979 L 439.333,300.979 L 439.333,302.06 z"
               id="path17525"
               style="fill:#ffffff;fill-opacity:1;fill-rule:nonzero;stroke:none" /><path
               d="M 433.229,308.988 C 440.658,308.988 446.68,314.835 446.68,322.047 C 446.68,329.259 440.658,335.106 433.229,335.106 C 425.8,335.106 419.778,329.259 419.778,322.047 C 419.778,314.835 425.8,308.988 433.229,308.988"
               id="path17527"
               style="fill:#000000;fill-opacity:1;fill-rule:nonzero;stroke:none" /><path
               d="M 434.285,350.57 C 434.244,350.98 434.114,351.323 434.08,351.733 C 434.08,351.973 434.08,352.246 434.285,352.383 C 434.593,352.554 434.833,352.178 435.14,352.075 C 435.483,351.973 435.346,352.451 435.277,352.622 C 435.038,353.238 434.627,353.819 434.422,354.469 C 434.354,354.777 434.627,355.153 434.559,355.495 C 434.319,355.187 434.183,354.811 433.841,354.64 C 433.704,354.572 433.533,354.606 433.396,354.572 C 433.328,354.538 433.225,354.435 433.26,354.367 C 433.396,353.819 433.396,353.272 433.396,352.725 C 433.43,350.947 433.294,349.168 433.02,347.424 C 432.199,345.577 430.626,344.209 429.121,342.875 C 428.061,342.465 427.308,341.678 426.693,340.721 C 426.317,340.139 426.043,339.626 425.838,339.01 C 425.803,338.874 425.838,338.703 425.838,338.566 C 425.838,338.532 425.872,338.532 425.906,338.532 C 426.009,338.634 426.077,338.805 426.248,338.737 C 426.59,338.6 426.761,338.292 426.864,337.95 C 426.898,337.711 426.932,337.505 426.967,337.3 C 427.035,336.446 426.898,335.625 426.761,334.804 C 426.454,334.496 426.385,334.051 426.282,333.641 C 426.146,333.025 426.146,332.444 426.282,331.863 C 426.317,331.726 426.522,331.897 426.659,331.863 C 426.932,333.572 428.198,334.769 429.019,336.24 C 429.395,336.924 429.531,337.711 429.36,338.463 C 430.181,338.737 431.002,338.908 431.755,339.455 C 432.746,340.173 433.123,341.234 433.157,342.362 C 433.26,342.328 433.396,342.431 433.396,342.396 C 433.704,340.686 434.114,338.976 433.225,337.403 C 433.225,337.369 433.225,337.266 433.26,337.266 C 433.841,337.882 434.046,338.669 434.251,339.455 C 434.422,340.036 434.457,340.584 434.559,341.199 C 434.662,341.61 434.662,342.02 434.696,342.431 C 434.764,345.167 434.559,347.834 434.285,350.57"
               id="path17529"
               style="fill:#ffffff;fill-opacity:1;fill-rule:nonzero;stroke:none" /><path
               d="M 430.284,334.838 C 429.501,334.649 428.779,334.428 428.061,334.154 C 427.582,333.538 427.206,332.854 427.035,332.068 C 427.035,332.033 427.001,331.931 427.069,331.931 C 427.958,331.999 428.847,331.863 429.737,331.931 C 431.139,332.991 432.575,334.017 433.978,335.077 C 433.738,335.248 433.465,335.146 433.225,335.146 C 432.233,335.18 431.276,335.077 430.284,334.838"
               id="path17531"
               style="fill:#ffffff;fill-opacity:1;fill-rule:nonzero;stroke:none" /><path
               d="M 423.991,331.555 C 423.573,331.186 423.239,330.802 422.862,330.392 C 422.554,329.947 422.247,329.571 421.939,329.127 C 421.255,328.066 420.776,327.074 420.4,325.912 C 420.4,325.809 420.366,325.74 420.366,325.638 C 420.058,324.783 419.955,323.894 419.853,323.004 C 419.853,322.97 419.921,322.97 419.955,322.97 C 420.674,323.552 421.392,323.996 422.11,324.543 C 422.418,325.843 422.691,327.109 422.999,328.408 C 424.025,329.4 424.949,330.494 425.975,331.486 C 425.872,331.965 425.975,332.478 425.803,332.957 C 425.154,332.581 424.572,332.068 423.991,331.555"
               id="path17533"
               style="fill:#ffffff;fill-opacity:1;fill-rule:nonzero;stroke:none" /><path
               d="M 426.522,319.96 C 426.335,321.018 426.146,322.047 426.043,323.107 C 424.949,323.62 423.786,323.962 422.657,324.373 C 421.734,323.654 420.742,323.073 419.853,322.286 C 419.75,322.218 419.784,322.013 419.818,321.842 C 419.853,321.397 419.818,320.952 419.887,320.508 C 419.99,319.96 420.092,319.414 420.229,318.866 C 420.468,317.874 420.845,316.951 421.289,316.062 C 421.358,315.959 421.392,315.857 421.46,315.754 C 421.631,315.446 421.802,315.104 422.041,314.831 C 422.691,314.865 423.375,314.762 424.025,314.762 C 424.949,315.925 425.838,317.122 426.795,318.251 C 426.693,318.832 426.624,319.379 426.522,319.96"
               id="path17535"
               style="fill:#ffffff;fill-opacity:1;fill-rule:nonzero;stroke:none" /><path
               d="M 427.069,319.824 C 427.16,319.309 427.206,318.832 427.308,318.353 C 429.053,317.567 430.729,316.746 432.507,316.028 C 433.943,317.43 435.448,318.764 436.919,320.132 C 436.782,321.876 436.645,323.586 436.509,325.33 C 436.474,325.399 436.372,325.467 436.303,325.501 C 434.354,326.288 432.473,327.177 430.523,327.93 C 429.19,326.356 427.821,324.817 426.488,323.21 C 426.727,322.081 426.864,320.987 427.069,319.824"
               id="path17537"
               style="fill:#ffffff;fill-opacity:1;fill-rule:nonzero;stroke:none" /><path
               d="M 424.641,313.428 C 424.403,313.737 424.196,314.044 423.991,314.352 C 423.444,314.454 422.931,314.386 422.384,314.454 C 422.349,314.454 422.349,314.42 422.349,314.386 C 425.462,310.042 430.763,308.161 435.722,309.187 C 434.935,309.803 434.08,310.248 433.225,310.863 C 433.157,310.897 433.02,310.863 432.952,310.829 C 431.994,310.35 431.036,309.974 430.079,309.495 C 428.916,309.94 427.753,310.418 426.556,310.829 C 425.803,311.616 425.325,312.539 424.641,313.428"
               id="path17539"
               style="fill:#ffffff;fill-opacity:1;fill-rule:nonzero;stroke:none" /><path
               d="M 433.396,316.13 C 433.183,315.934 432.986,315.754 432.781,315.549 C 432.917,314.147 433.191,312.778 433.328,311.376 C 434.285,310.658 435.346,310.042 436.337,309.358 C 437.706,309.564 438.971,310.179 440.202,310.863 C 441.399,311.547 442.391,312.436 443.314,313.428 C 442.904,314.933 442.596,316.472 442.186,318.011 C 440.51,318.593 438.834,319.071 437.158,319.619 C 435.893,318.456 434.696,317.327 433.396,316.13"
               id="path17541"
               style="fill:#ffffff;fill-opacity:1;fill-rule:nonzero;stroke:none" /><path
               d="M 444.819,323.86 C 443.972,322.166 443.52,320.371 442.836,318.593 C 442.767,318.422 442.733,318.251 442.767,318.045 C 443.007,316.985 443.246,315.993 443.52,314.933 C 443.622,314.625 443.554,314.249 443.793,313.975 C 444.58,315.07 445.298,316.198 445.777,317.464 C 446.016,318.148 446.222,318.832 446.392,319.55 C 446.495,320.029 446.529,320.474 446.564,320.918 C 446.632,322.013 446.7,323.141 446.427,324.236 C 445.948,324.236 445.503,324.304 445.025,324.202 C 444.888,324.202 444.888,323.996 444.819,323.86"
               id="path17543"
               style="fill:#ffffff;fill-opacity:1;fill-rule:nonzero;stroke:none" /><path
               d="M 444.614,324.851 C 444.72,324.753 444.785,324.68 444.888,324.646 C 445.366,324.475 445.845,324.612 446.324,324.612 C 446.119,326.151 445.435,327.622 444.58,329.024 C 443.588,330.631 442.323,331.863 440.784,332.889 C 440.442,332.786 440.134,332.581 439.826,332.41 C 439.997,331.144 440.236,329.845 440.407,328.579 C 441.81,327.348 443.212,326.151 444.614,324.851"
               id="path17545"
               style="fill:#ffffff;fill-opacity:1;fill-rule:nonzero;stroke:none" /><path
               d="M 438.56,327.416 C 439.085,327.848 439.586,328.203 440.065,328.648 C 439.758,329.879 439.655,331.144 439.279,332.341 C 437.5,333.025 435.79,333.778 434.012,334.496 C 432.781,333.504 431.515,332.615 430.284,331.657 C 430.421,330.631 430.557,329.571 430.729,328.545 C 432.131,327.895 433.567,327.314 435.004,326.732 C 435.619,326.493 436.166,326.117 436.816,326.014 C 437.398,326.493 437.979,326.937 438.56,327.416"
               id="path17547"
               style="fill:#ffffff;fill-opacity:1;fill-rule:nonzero;stroke:none" /><path
               d="M 407.792,334.806 C 407.145,335.214 406.757,335.703 406.625,336.271 C 406.511,336.765 406.601,337.245 406.895,337.711 C 407.289,338.334 407.782,338.66 408.372,338.69 C 408.702,338.704 408.987,338.644 409.225,338.51 L 408.736,337.736 C 408.527,337.798 408.352,337.818 408.212,337.796 C 407.962,337.757 407.75,337.6 407.575,337.323 C 407.397,337.042 407.371,336.748 407.495,336.442 C 407.619,336.136 407.89,335.852 408.305,335.589 C 408.72,335.327 409.086,335.216 409.401,335.257 C 409.717,335.298 409.958,335.451 410.125,335.716 C 410.297,335.987 410.339,336.25 410.251,336.505 C 410.205,336.644 410.103,336.799 409.945,336.972 L 410.429,337.739 C 410.791,337.416 411.011,337.038 411.09,336.603 C 411.169,336.167 411.072,335.734 410.8,335.304 C 410.463,334.771 410.028,334.46 409.493,334.371 C 408.957,334.283 408.39,334.428 407.792,334.806"
               id="path17549"
               style="fill:#ffffff;fill-opacity:1;fill-rule:nonzero;stroke:none" /><path
               d="M 412.731,338.307 L 412.167,337.598 L 408.738,340.325 L 409.302,341.035 L 410.609,339.995 L 411.675,341.335 L 410.368,342.375 L 410.934,343.087 L 414.363,340.359 L 413.797,339.647 L 412.266,340.865 L 411.2,339.525 L 412.731,338.307"
               id="path17551"
               style="fill:#ffffff;fill-opacity:1;fill-rule:nonzero;stroke:none" /><path
               d="M 415.507,343.885 L 414.712,343.108 L 413.91,344.736 L 415.507,343.885 z M 415.477,341.54 L 415.064,342.396 L 416.218,343.525 L 417.049,343.078 L 417.759,343.772 L 413.586,345.82 L 412.847,345.096 L 414.793,340.871 L 415.477,341.54"
               id="path17553"
               style="fill:#ffffff;fill-opacity:1;fill-rule:nonzero;stroke:none" /><path
               d="M 419.42,346.16 L 418.083,349.432 L 419.16,350.19 L 421.682,346.607 L 420.985,346.116 L 419.279,348.54 C 419.23,348.609 419.162,348.707 419.075,348.834 C 418.988,348.961 418.921,349.058 418.873,349.126 L 420.311,345.642 L 419.584,345.131 L 416.795,347.664 C 416.843,347.596 416.912,347.499 417.002,347.375 C 417.092,347.251 417.161,347.153 417.21,347.084 L 418.916,344.66 L 418.218,344.169 L 415.696,347.752 L 416.785,348.518 L 419.42,346.16"
               id="path17555"
               style="fill:#ffffff;fill-opacity:1;fill-rule:nonzero;stroke:none" /><path
               d="M 422.998,348.42 C 422.693,348.578 422.441,348.883 422.243,349.335 C 422.044,349.787 421.99,350.178 422.081,350.51 C 422.171,350.842 422.382,351.081 422.715,351.226 C 423.047,351.372 423.364,351.365 423.667,351.204 C 423.97,351.044 424.22,350.739 424.418,350.289 C 424.616,349.837 424.671,349.446 424.584,349.115 C 424.496,348.784 424.286,348.547 423.954,348.401 C 423.622,348.255 423.303,348.261 422.998,348.42 z M 423.923,352.046 C 423.483,352.225 422.976,352.189 422.403,351.937 C 421.829,351.685 421.46,351.337 421.294,350.892 C 421.049,350.345 421.087,349.704 421.41,348.969 C 421.726,348.249 422.171,347.786 422.745,347.582 C 423.185,347.403 423.692,347.439 424.266,347.69 C 424.839,347.942 425.209,348.29 425.375,348.735 C 425.612,349.296 425.572,349.936 425.256,350.657 C 424.934,351.392 424.49,351.854 423.923,352.046"
               id="path17557"
               style="fill:#ffffff;fill-opacity:1;fill-rule:nonzero;stroke:none" /><path
               d="M 426.57,353.227 L 427.712,348.997 L 426.834,348.76 L 425.692,352.989 L 426.57,353.227"
               id="path17559"
               style="fill:#ffffff;fill-opacity:1;fill-rule:nonzero;stroke:none" /><path
               d="M 428.25,350.571 L 429.118,350.679 C 429.17,350.484 429.242,350.342 429.335,350.254 C 429.505,350.093 429.769,350.035 430.127,350.08 C 430.341,350.106 430.512,350.152 430.64,350.216 C 430.882,350.338 430.988,350.522 430.958,350.767 C 430.94,350.911 430.863,351.014 430.727,351.077 C 430.592,351.138 430.386,351.181 430.109,351.207 L 429.636,351.253 C 429.171,351.299 428.845,351.371 428.657,351.47 C 428.339,351.634 428.153,351.929 428.1,352.356 C 428.052,352.745 428.153,353.086 428.404,353.379 C 428.656,353.672 429.055,353.853 429.604,353.921 C 430.062,353.978 430.468,353.905 430.822,353.702 C 431.175,353.5 431.389,353.168 431.462,352.708 L 430.589,352.6 C 430.541,352.859 430.404,353.031 430.177,353.115 C 430.027,353.17 429.846,353.184 429.636,353.158 C 429.402,353.129 429.221,353.058 429.093,352.947 C 428.965,352.835 428.912,352.694 428.933,352.525 C 428.952,352.37 429.035,352.263 429.183,352.203 C 429.277,352.163 429.474,352.126 429.771,352.094 L 430.543,352.007 C 430.881,351.969 431.142,351.894 431.326,351.784 C 431.611,351.611 431.777,351.331 431.825,350.944 C 431.875,350.547 431.764,350.198 431.493,349.898 C 431.222,349.597 430.809,349.413 430.254,349.344 C 429.688,349.273 429.226,349.347 428.87,349.566 C 428.513,349.784 428.307,350.119 428.25,350.571"
               id="path17561"
               style="fill:#ffffff;fill-opacity:1;fill-rule:nonzero;stroke:none" /><path
               d="M 437.664,349.395 L 438.407,353.713 L 439.353,353.55 L 440.554,350.24 L 441.073,353.254 L 441.914,353.11 L 441.171,348.792 L 440.268,348.947 L 439.032,352.318 L 438.505,349.25 L 437.664,349.395"
               id="path17563"
               style="fill:#ffffff;fill-opacity:1;fill-rule:nonzero;stroke:none" /><path
               d="M 444.14,352.466 L 442.905,348.262 L 442.032,348.518 L 443.267,352.722 L 444.14,352.466"
               id="path17565"
               style="fill:#ffffff;fill-opacity:1;fill-rule:nonzero;stroke:none" /><path
               d="M 445.244,348.546 C 445.159,348.879 445.22,349.27 445.427,349.719 C 445.633,350.167 445.89,350.467 446.198,350.62 C 446.506,350.773 446.825,350.773 447.154,350.622 C 447.483,350.47 447.689,350.228 447.77,349.895 C 447.851,349.562 447.789,349.172 447.584,348.726 C 447.378,348.277 447.122,347.976 446.817,347.822 C 446.511,347.668 446.194,347.667 445.865,347.819 C 445.535,347.97 445.328,348.213 445.244,348.546 z M 448.569,350.262 C 448.411,350.71 448.047,351.065 447.478,351.327 C 446.91,351.588 446.404,351.633 445.96,351.462 C 445.389,351.282 444.935,350.828 444.6,350.098 C 444.271,349.384 444.221,348.744 444.449,348.178 C 444.608,347.73 444.971,347.376 445.54,347.114 C 446.109,346.852 446.615,346.807 447.058,346.978 C 447.634,347.173 448.087,347.628 448.416,348.343 C 448.751,349.072 448.802,349.712 448.569,350.262"
               id="path17567"
               style="fill:#ffffff;fill-opacity:1;fill-rule:nonzero;stroke:none" /><path
               d="M 452.16,347.272 C 452.244,347.092 452.205,346.897 452.042,346.687 C 451.892,346.492 451.719,346.418 451.524,346.463 C 451.413,346.489 451.277,346.564 451.114,346.69 L 450.292,347.325 L 451.012,348.256 L 451.854,347.606 C 452.011,347.485 452.113,347.373 452.16,347.272 z M 450.769,349.405 L 448.091,345.938 L 448.799,345.391 L 449.849,346.751 L 450.597,346.173 C 450.81,346.008 450.928,345.859 450.948,345.725 C 450.969,345.591 450.895,345.413 450.728,345.189 L 450.483,344.863 C 450.406,344.76 450.34,344.653 450.283,344.541 C 450.256,344.487 450.224,344.413 450.187,344.319 L 450.984,343.703 L 451.052,343.79 C 451.015,343.885 451.022,343.985 451.072,344.089 C 451.103,344.155 451.18,344.267 451.303,344.426 L 451.482,344.659 C 451.67,344.902 451.776,345.108 451.801,345.278 C 451.826,345.448 451.783,345.627 451.673,345.815 C 451.915,345.733 452.139,345.74 452.346,345.835 C 452.552,345.93 452.718,346.059 452.845,346.224 C 452.951,346.36 453.023,346.499 453.061,346.639 C 453.1,346.78 453.115,346.923 453.108,347.069 C 453.099,347.246 453.05,347.413 452.962,347.569 C 452.874,347.725 452.709,347.899 452.47,348.092 L 450.769,349.405"
               id="path17569"
               style="fill:#ffffff;fill-opacity:1;fill-rule:nonzero;stroke:none" /><path
               d="M 454.532,346.317 L 456.88,343.655 L 456.298,343.142 L 455.431,344.125 L 452.727,341.739 L 452.118,342.43 L 454.821,344.816 L 453.95,345.803 L 454.532,346.317"
               id="path17571"
               style="fill:#ffffff;fill-opacity:1;fill-rule:nonzero;stroke:none" /><path
               d="M 456.6,339.214 L 455.994,340.146 L 457.747,340.613 L 456.6,339.214 z M 454.306,339.704 L 455.226,339.942 L 456.106,338.588 L 455.505,337.861 L 456.046,337.028 L 458.874,340.718 L 458.31,341.585 L 453.784,340.507 L 454.306,339.704"
               id="path17573"
               style="fill:#ffffff;fill-opacity:1;fill-rule:nonzero;stroke:none" /><path
               d="M 460.596,337.743 L 456.751,335.642 L 456.315,336.44 L 460.159,338.541 L 460.596,337.743"
               id="path17575"
               style="fill:#ffffff;fill-opacity:1;fill-rule:nonzero;stroke:none" /><path
               d="M 458.373,335.502 L 458.756,334.716 C 458.588,334.604 458.477,334.489 458.424,334.373 C 458.327,334.16 458.358,333.892 458.516,333.568 C 458.61,333.373 458.709,333.226 458.81,333.126 C 459.004,332.936 459.213,332.896 459.435,333.004 C 459.565,333.068 459.638,333.174 459.654,333.322 C 459.668,333.47 459.642,333.679 459.576,333.949 L 459.467,334.412 C 459.359,334.866 459.322,335.199 459.354,335.408 C 459.407,335.763 459.626,336.034 460.013,336.222 C 460.365,336.394 460.721,336.409 461.079,336.266 C 461.437,336.124 461.738,335.804 461.98,335.307 C 462.183,334.892 462.245,334.484 462.168,334.084 C 462.091,333.683 461.847,333.374 461.435,333.156 L 461.049,333.947 C 461.279,334.077 461.397,334.262 461.403,334.503 C 461.407,334.663 461.362,334.839 461.269,335.029 C 461.166,335.241 461.04,335.39 460.893,335.474 C 460.746,335.559 460.596,335.564 460.443,335.49 C 460.302,335.421 460.227,335.307 460.219,335.149 C 460.211,335.046 460.24,334.849 460.306,334.556 L 460.474,333.798 C 460.547,333.466 460.562,333.195 460.516,332.986 C 460.446,332.66 460.235,332.412 459.884,332.241 C 459.524,332.065 459.158,332.057 458.786,332.216 C 458.414,332.376 458.106,332.706 457.861,333.209 C 457.611,333.722 457.531,334.182 457.622,334.59 C 457.713,334.998 457.963,335.302 458.373,335.502"
               id="path17577"
               style="fill:#ffffff;fill-opacity:1;fill-rule:nonzero;stroke:none" /></g></g></g></g></g></svg>