<?xml version="1.0" encoding="utf-8"?>
<!-- Generator: Adobe Illustrator 13.0.2, SVG Export Plug-In . SVG Version: 6.00 Build 14948)  -->
<!DOCTYPE svg PUBLIC "-//W3C//DTD SVG 1.0//EN" "http://www.w3.org/TR/2001/REC-SVG-20010904/DTD/svg10.dtd">
<svg version="1.0" id="Ebene_1" xmlns="http://www.w3.org/2000/svg" xmlns:xlink="http://www.w3.org/1999/xlink" x="0px" y="0px"
	 width="521.202px" height="527.243px" viewBox="0 0 521.202 527.243" enable-background="new 0 0 521.202 527.243"
	 xml:space="preserve">
<path fill-rule="evenodd" clip-rule="evenodd" fill="#443087" d="M510.584,209.746l-1.438-8.903c0,0-69.407,0-74.32,0
	c0-4.774-0.006-52.906-0.006-52.906h-2.646l-276.557,0.006c1.98-2.005,3.771-4.226,5.325-6.649l51.492-80.282
	c12.28-19.151,5.445-43.986-15.234-55.358c-20.684-11.372-47.506-5.046-59.791,14.108L87.265,97.464l-8.675,13.443l-4.956,7.679
	l-5.997,9.294v-0.004c-7.913,12.803-25.188,17.039-38.511,9.432c-6.451-3.677-11.029-9.557-12.88-16.553
	c-1.852-6.984-0.759-14.249,3.072-20.454L79.696,9.03H62.172L6.36,92.907c-5.887,9.527-7.564,20.687-4.718,31.428
	c2.566,9.668,8.54,17.922,16.929,23.607h-7.989C4.746,147.942,0,152.686,0,158.523c0,5.833,4.746,10.581,10.582,10.581
	c0,0,156.133-0.004,177.729-0.004c-12.614,6.366-23.697,14.814-33.059,25.239c-2.134,0-87.918,0-87.918,0
	c-6.316,0-11.458,4.743-11.458,10.581c0,5.833,5.142,10.582,11.458,10.582c0,0,65.423,0,73.118,0
	c-4.431,8.008-8.114,16.585-10.811,25.714c-3.451,0-45.769,0-45.769,0c-5.834,0-10.581,4.748-10.581,10.582
	c0,5.832,4.746,10.581,10.581,10.581c0,0,36.33,0,41.338,0c-0.29,3.59-0.82,10.129-0.82,10.129c0,6.164,0.669,12.258,1.958,18.234
	c1.567,7.277,4.162,14.338,7.512,21.164c4.979,10.143,11.741,19.729,20.268,28.365c-10.462,0-87.01,0-87.01,0
	c-5.834,0-10.581,4.746-10.581,10.582c0,5.83,4.746,10.582,10.581,10.582c0,0,113.67,0,114.863,0
	c1.104,0.539,8.049,3.891,8.049,3.891c3.962,1.67,8.136,2.93,12.319,4.113c-1.696,3.902-7.781,17.895-8.851,20.361
	c-3.313,0-75.236,0-75.236,0c-5.837,0-10.582,4.746-10.582,10.576c0,5.836,4.745,10.582,10.582,10.582c0,0,58.866,0,66.032,0
	c-2.414,5.549-11.221,25.811-12.328,28.359c-3.371,0-119.837,0-119.837,0c-5.837,0-10.582,4.752-10.582,10.588
	c0,5.83,4.745,10.576,10.582,10.576c0,0,103.124,0,110.634,0c-2.395,5.508-11.887,27.346-12.333,28.365c-6.12,0-63.486,0-63.486,0
	c-6.069,0-11.007,4.752-11.007,10.582s4.938,10.582,11.007,10.582h84.458c0,0,1.125-0.199,2.191-0.387
	c1.627,1.219,23.498,17.619,23.498,17.619s18.869-11.842,19.689-12.357c112.904-16.723,195.114-59.004,244.321-125.725
	c42.34-57.404,50.285-118.219,50.285-152.285C511.387,221.029,510.772,210.975,510.584,209.746L510.584,209.746z"/>
<path fill-rule="evenodd" clip-rule="evenodd" fill="#FFFFFF" d="M80.591,135.273l1.37-2.21c1.941,5.588,5.131,10.627,9.327,14.88
	H68.375C73.189,144.677,77.396,140.445,80.591,135.273L80.591,135.273z"/>
<path fill-rule="evenodd" clip-rule="evenodd" fill="#E21B25" d="M16.856,290.741c-5.834,0-10.581,4.752-10.581,10.582
	c0,5.836,4.746,10.582,10.581,10.582H133.86c-3.35-6.826-5.944-13.887-7.512-21.164H16.856L16.856,290.741z"/>
<path fill-rule="evenodd" clip-rule="evenodd" fill="#FFFFFF" d="M260.585,176.555c0.867,0.015,1.761,0.035,1.761,0.035l4.775,0.363
	c58.146,6.618,97.154,45.548,104.347,104.143c0.009,0.094,0.659,12.17,0.659,12.17c0,20.971-4.852,61.236-37.339,95.338
	c-0.727,0.568-121.592,101.566-135.434,113.133c-0.3,0.088-0.362,0.111-0.721,0.211c-1.77-1.324-21.949-16.465-23.246-17.438
	c1.585-3.645,47.18-108.51,48.746-112.119c3.741,0.609,11.874,1.822,17.401,1.822h2.531l0.778-1.248
	c15.261-24.627,14.01-25.559,11.943-27.1c-2.458-1.834-4.835,0.838-7.352,3.668c-1.503,1.688-5.956,3.082-8.405,3.568
	c-28.569-0.047-52.225-23.783-52.225-52.957s23.656-52.906,52.73-52.906c29.079,0,52.733,23.732,52.733,52.906v2.648h21.161v-2.648
	c0-40.843-33.149-74.068-73.894-74.068c-40.743,0-73.893,33.226-73.893,74.068c0,10.652,2.369,21.006,6.727,30.568
	c-15.693-13.506-28.841-33.598-28.841-57.979c0-4.16,0.382-8.452,1.2-12.847c11.758-63.297,64.229-87.198,111.016-82.806l2.66,0.248
	C260.404,177.33,260.508,176.875,260.585,176.555L260.585,176.555z"/>
<path fill-rule="evenodd" clip-rule="evenodd" fill="#0A9C33" d="M446.041,378.386c-42.864,57.979-113.373,96.141-209.196,114.129
	c30.101-24.598,110.788-90.516,110.788-90.516l0.331-0.352c37.301-38.965,42.791-84.287,42.791-107.566
	c0-8.988-0.82-14.695-0.94-15.475c-6.712-54.693-39.504-95.2-87.756-112.153h114.243c0,11.465,0.006,52.906,0.006,52.906
	s63.22,0,74.871,0c0.319,3.98,0.636,9.564,0.636,16.529C491.814,267.128,485.556,324.942,446.041,378.386L446.041,378.386z"/>
<path fill-rule="evenodd" clip-rule="evenodd" fill="#E21B25" d="M307.721,391.446c0,9.633-8.221,17.438-18.363,17.438
	c-10.137,0-18.363-7.805-18.363-17.438s8.227-17.443,18.363-17.443C299.5,374.003,307.721,381.813,307.721,391.446L307.721,391.446z
	"/>
<path fill-rule="evenodd" clip-rule="evenodd" fill="#E21B25" d="M503.474,67.128c0,9.63-8.218,17.436-18.363,17.436
	c-10.137,0-18.36-7.806-18.36-17.436c0-9.637,8.224-17.443,18.36-17.443C495.256,49.685,503.474,57.491,503.474,67.128
	L503.474,67.128z"/>
<path fill-rule="evenodd" clip-rule="evenodd" fill="#FFFFFF" d="M36.672,122.192c-3.07-1.934-3.99-5.984-2.058-9.053L103.903,9.03
	H79.696l-60.378,91.271c-3.831,6.205-4.923,13.469-3.072,20.454c1.852,6.996,6.429,12.876,12.88,16.553
	c13.323,7.607,30.598,3.371,38.511-9.432v0.004l53.701-82.367c2.459-3.981,18.835-29.842,22.988-36.483h-24.899L45.728,120.14
	C43.793,123.214,39.743,124.134,36.672,122.192L36.672,122.192z"/>
<path fill-rule="evenodd" clip-rule="evenodd" fill="#443087" d="M34.614,113.139c-1.932,3.069-1.012,7.119,2.058,9.053
	c3.07,1.942,7.121,1.022,9.056-2.052L119.427,9.03h-15.524L34.614,113.139L34.614,113.139z"/>
<path fill-rule="evenodd" clip-rule="evenodd" fill="#FFFFFF" d="M171.07,34.439c1.979-3.038,6.048-3.899,9.088-1.92
	c1.935,1.261,2.984,3.363,2.984,5.511c0,1.23-0.346,2.47-1.065,3.579c0,0-11.533,17.706-16.356,25.109
	c2.962,1.929,9.888,6.441,17.878,11.648l15.743-24.552c7.994-12.469,3.545-28.633-9.92-36.04c-13.465-7.4-30.921-3.281-38.921,9.185
	l-28.876,45.034l29.146,18.428l-23.03,36.434c-1.938,3.057-5.996,3.977-9.06,2.035c-1.976-1.245-3.059-3.375-3.059-5.555
	c0-1.198,0.328-2.413,1.018-3.502c0,0,11.291-17.862,16.011-25.329c-2.999-1.896-10.025-6.335-18.119-11.452l-15.513,24.19
	c-3.877,6.04-4.978,13.112-3.104,19.92c1.871,6.812,6.498,12.53,13.021,16.115c13.462,7.406,30.924,3.281,38.921-9.186v0.006
	l28.649-44.676L147.545,70.55L171.07,34.439L171.07,34.439z"/>
<path fill-rule="evenodd" clip-rule="evenodd" fill="#443087" d="M257.232,85.051c-1.695,0.787-5.714,1.762-10.803,1.762
	c-14.638,0-22.175-8.871-22.175-20.597c0-13.975,10.301-21.69,23.12-21.69c4.96,0,8.732,0.971,10.425,1.821l-2.014,7.293
	c-1.879-0.791-4.582-1.519-8.039-1.519c-7.537,0-13.443,4.431-13.443,13.608c0,8.203,5.026,13.367,13.504,13.367
	c2.956,0,6.098-0.548,8.041-1.339L257.232,85.051L257.232,85.051z"/>
<path fill-rule="evenodd" clip-rule="evenodd" fill="#443087" d="M265.024,45.802c3.079-0.548,7.6-0.911,12.75-0.911
	c6.284,0,10.682,0.911,13.693,3.28c2.575,1.944,3.958,4.8,3.958,8.566c0,5.165-3.829,8.751-7.474,10.025v0.183
	c2.95,1.153,4.585,3.828,5.654,7.594c1.321,4.677,2.572,10.025,3.39,11.604h-9.797c-0.63-1.156-1.696-4.496-2.895-9.538
	c-1.187-5.164-3.009-6.502-6.97-6.563h-2.824v16.1h-9.486V45.802L265.024,45.802L265.024,45.802z M274.51,63.361h3.765
	c4.781,0,7.6-2.31,7.6-5.896c0-3.705-2.634-5.65-7.034-5.65c-2.32,0-3.639,0.123-4.33,0.306V63.361L274.51,63.361z"/>
<polygon fill-rule="evenodd" clip-rule="evenodd" fill="#443087" points="328.909,68.828 313.332,68.828 313.332,78.548 
	330.731,78.548 330.731,86.144 303.784,86.144 303.784,45.191 329.855,45.191 329.855,52.788 313.332,52.788 313.332,61.295 
	328.909,61.295 328.909,68.828 "/>
<polygon fill-rule="evenodd" clip-rule="evenodd" fill="#443087" points="346.941,52.971 335.506,52.971 335.506,45.191 
	368.046,45.191 368.046,52.971 356.489,52.971 356.489,86.144 346.941,86.144 346.941,52.971 "/>
<polygon fill-rule="evenodd" clip-rule="evenodd" fill="#443087" points="399.769,68.828 384.192,68.828 384.192,78.548 
	401.588,78.548 401.588,86.144 374.638,86.144 374.638,45.191 400.709,45.191 400.709,52.788 384.192,52.788 384.192,61.295 
	399.769,61.295 399.769,68.828 "/>
<polygon fill-rule="evenodd" clip-rule="evenodd" fill="#443087" points="419.178,45.191 419.178,86.144 409.633,86.144 
	409.633,45.191 419.178,45.191 "/>
<polygon fill-rule="evenodd" clip-rule="evenodd" fill="#443087" points="428.981,45.191 438.532,45.191 438.532,78.368 
	455.363,78.368 455.363,86.144 428.981,86.144 428.981,45.191 "/>
<polygon fill-rule="evenodd" clip-rule="evenodd" fill="#443087" points="197.994,95.848 207.545,95.848 207.545,129.024 
	224.383,129.024 224.383,136.799 197.994,136.799 197.994,95.848 "/>
<path fill-rule="evenodd" clip-rule="evenodd" fill="#443087" d="M239.076,95.848v23.514c0,7.109,2.833,10.69,7.667,10.69
	c5.023,0,7.793-3.4,7.793-10.69V95.848h9.546v22.966c0,12.637-6.596,18.658-17.652,18.658c-10.68,0-16.901-5.777-16.901-18.776
	V95.848H239.076L239.076,95.848z"/>
<path fill-rule="evenodd" clip-rule="evenodd" fill="#443087" d="M274.132,127.323c2.511,1.271,6.536,2.553,10.617,2.553
	c4.397,0,6.718-1.767,6.718-4.5c0-2.492-2.007-4.011-7.102-5.71c-7.031-2.427-11.681-6.199-11.681-12.214
	c0-6.984,6.094-12.271,16.022-12.271c4.834,0,8.288,0.91,10.805,2.061l-2.136,7.419c-1.632-0.795-4.711-1.947-8.792-1.947
	c-4.151,0-6.158,1.885-6.158,3.952c0,2.609,2.323,3.762,7.852,5.827c7.471,2.676,10.934,6.439,10.934,12.277
	c0,6.861-5.405,12.7-17.03,12.7c-4.837,0-9.609-1.283-11.997-2.553L274.132,127.323L274.132,127.323z"/>
<polygon fill-rule="evenodd" clip-rule="evenodd" fill="#443087" points="318.798,95.848 318.798,136.799 309.248,136.799 
	309.248,95.848 318.798,95.848 "/>
<polygon fill-rule="evenodd" clip-rule="evenodd" fill="#443087" points="336.76,103.629 325.329,103.629 325.329,95.848 
	357.869,95.848 357.869,103.629 346.311,103.629 346.311,136.799 336.76,136.799 336.76,103.629 "/>
<path fill-rule="evenodd" clip-rule="evenodd" fill="#443087" d="M369.678,126.291l-2.95,10.509h-9.923l12.935-40.951h12.504
	l13.192,40.951h-10.304l-3.267-10.509H369.678L369.678,126.291L369.678,126.291z M380.421,119.362l-2.637-8.685
	c-0.691-2.433-1.444-5.528-2.077-7.906h-0.185c-0.571,2.435-1.257,5.536-1.887,7.906l-2.572,8.685H380.421L380.421,119.362z"/>
<path fill-rule="evenodd" clip-rule="evenodd" fill="#443087" d="M402.535,136.799V95.848h11.18l8.792,15.004
	c2.517,4.318,4.966,9.423,6.914,14.038h0.123c-0.563-5.408-0.75-10.938-0.75-17.131V95.848h8.795v40.951h-10.052L418.49,121
	c-2.514-4.433-5.338-9.656-7.348-14.457h-0.255c0.316,5.467,0.439,11.243,0.439,17.924v12.333H402.535L402.535,136.799z"/>
<path fill-rule="evenodd" clip-rule="evenodd" fill="#443087" d="M465.289,137.472c-12.498,0-19.913-9.176-19.913-20.843
	c0-12.275,8.168-21.447,20.604-21.447c13.005,0,20.104,9.419,20.104,20.713c0,13.496-8.355,21.577-20.728,21.577H465.289
	L465.289,137.472L465.289,137.472z M465.734,130.114c6.469,0,10.169-5.89,10.169-13.909c0-7.356-3.577-13.671-10.169-13.671
	c-6.598,0-10.31,6.196-10.31,13.852c0,7.715,3.835,13.729,10.239,13.729H465.734L465.734,130.114z"/>
<path fill-rule="evenodd" clip-rule="evenodd" fill="#443087" d="M494.123,127.323c2.517,1.271,6.536,2.553,10.617,2.553
	c4.397,0,6.724-1.767,6.724-4.5c0-2.492-2.01-4.011-7.099-5.71c-7.037-2.427-11.684-6.199-11.684-12.214
	c0-6.984,6.091-12.271,16.017-12.271c4.837,0,8.291,0.91,10.802,2.061l-2.133,7.419c-1.632-0.795-4.711-1.947-8.795-1.947
	c-4.146,0-6.155,1.885-6.155,3.952c0,2.609,2.323,3.762,7.852,5.827c7.477,2.676,10.934,6.439,10.934,12.277
	c0,6.861-5.405,12.7-17.024,12.7c-4.84,0-9.615-1.283-12.003-2.553L494.123,127.323L494.123,127.323z"/>
</svg>
