<?xml version="1.0" encoding="utf-8"?>
<!-- Generator: Adobe Illustrator 13.0.2, SVG Export Plug-In . SVG Version: 6.00 Build 14948)  -->
<!DOCTYPE svg PUBLIC "-//W3C//DTD SVG 1.0//EN" "http://www.w3.org/TR/2001/REC-SVG-20010904/DTD/svg10.dtd">
<svg version="1.0" id="Calque_1" xmlns="http://www.w3.org/2000/svg" xmlns:xlink="http://www.w3.org/1999/xlink" x="0px" y="0px"
	 width="566px" height="566px" viewBox="0 0 566 566" enable-background="new 0 0 566 566" xml:space="preserve">
<path fill-rule="evenodd" clip-rule="evenodd" d="M0,283c0,156.048,126.953,283,283,283c156.048,0,283-126.952,283-283
	C566,126.953,439.048,0,283,0C126.953,0,0,126.953,0,283z"/>
<path fill-rule="evenodd" clip-rule="evenodd" fill="#FFFFFF" d="M0.584,283C0.584,127.275,127.275,0.584,283,0.584
	c155.723,0,282.415,126.691,282.415,282.416c0,155.723-126.692,282.415-282.415,282.415C127.275,565.415,0.584,438.723,0.584,283z"
	/>
<path fill="#009EE0" d="M17.453,283.064c0-146.417,119.116-265.536,265.529-265.536c146.416,0,265.535,119.119,265.535,265.536
	c0,146.413-119.119,265.529-265.535,265.529C136.569,548.594,17.453,429.478,17.453,283.064z"/>
<path fill="#FFFFFF" d="M156.072,73.246l4.164,32.588c-1.862-0.903-13.054-6.332-13.332-6.467c1.099-1.6,1.678-3.326,1.678-5.042
	c0-1.705-0.543-3.394-1.632-4.922c-1.458-2.046-3.57-3.393-5.947-3.792c-2.717-0.456-5.562,0.307-8.229,2.207l-10.421,7.426
	l17.917,25.139l5.397-3.845c0,0-6.874-9.649-7.065-9.918c0.25-0.178,3.309-2.359,3.463-2.469c0.182,0.093,12.189,6.267,12.189,6.267
	l6.251-4.453c0,0-0.017-0.008-0.045-0.022l5.905-3.178c0,0-0.814-5.453-0.848-5.679c0.204-0.109,9.668-5.201,9.873-5.311
	c0.17,0.155,4.232,3.855,4.232,3.855l6.103-3.282L160.621,70.8L156.072,73.246z M142.279,95.425c0,1.282-0.714,2.557-2.073,3.524
	c0,0-4.43,3.156-4.691,3.342c-0.185-0.259-4.294-6.029-4.479-6.289c0.261-0.186,4.688-3.342,4.688-3.342
	c1.118-0.797,2.342-1.134,3.445-0.949c0.955,0.16,1.777,0.692,2.38,1.538C142.04,93.939,142.279,94.684,142.279,95.425z
	 M171.271,87.907c-0.386,0.208-6.237,3.355-6.627,3.565c-0.063-0.443-1.454-10.161-1.574-11.002
	C163.699,81.041,170.942,87.61,171.271,87.907z"/>
<path fill="#FFFFFF" d="M205.292,74.397l-6.253,2.445l0.016,0.13c0.236,1.968-0.158,4.576-3.375,5.831
	c-1.497,0.587-2.986,0.586-4.193-0.003c-1.518-0.713-2.385-1.876-4.529-7.359c-2.162-5.528-2.308-6.903-1.667-8.479
	c0.487-1.253,1.581-2.264,3.079-2.849c3.216-1.259,5.274,0.391,6.436,1.996l0.077,0.106l6.253-2.445l-0.105-0.173
	c-3.242-5.313-8.761-7.084-14.764-4.738c-3.229,1.263-5.572,3.405-6.966,6.368c-1.889,4.021-0.54,7.468,1.328,12.24l0.31,0.792
	c1.864,4.766,3.211,8.209,7.323,9.88c3.034,1.231,6.208,1.214,9.436-0.049c6.003-2.346,8.857-7.39,7.634-13.494L205.292,74.397z"/>
<rect x="196.108" y="63.531" transform="matrix(-0.2793 -0.9602 0.9602 -0.2793 206.4531 288.6425)" fill="#FFFFFF" width="30.872" height="6.631"/>
<path fill="#FFFFFF" d="M237.163,45.193c0,0,3.171,16.984,3.361,18.002c-0.739-0.742-15.651-15.709-15.651-15.709l-5.771,1.077
	l5.663,30.347l6.519-1.217c0,0-3.18-17.025-3.371-18.045c0.74,0.744,15.661,15.752,15.661,15.752l5.771-1.077l-5.666-30.347
	L237.163,45.193z"/>
<path fill="#FFFFFF" d="M277.361,55.214l-12.496,0.662l0.281,5.305c0,0,5.599-0.296,5.919-0.313
	c0.013,0.247,0.052,0.987,0.052,0.987c0.008,0.152,0.012,0.302,0.012,0.449c0,1.442-0.396,2.616-1.203,3.578
	c-0.994,1.139-2.469,1.793-4.264,1.89c-1.606,0.085-3.018-0.386-3.976-1.325c-1.204-1.138-1.628-2.446-1.943-8.411
	c-0.316-5.978-0.045-7.251,1.044-8.527c0.88-1.067,2.233-1.699,3.814-1.782c3.05-0.161,4.963,1.156,5.85,4.028l0.039,0.126
	l6.661-0.351l-0.044-0.196c-1.369-6.147-6.155-9.607-12.805-9.255c-3.514,0.185-6.332,1.444-8.614,3.853
	c-3.057,3.218-2.86,6.914-2.588,12.029l0.044,0.837c0.268,5.121,0.461,8.82,3.846,11.702c2.49,2.121,5.509,3.103,8.973,2.919
	c3.779-0.199,6.728-1.509,9.014-4.003h0c2.131-2.334,2.867-5.021,2.625-9.579L277.361,55.214z"/>
<path fill="#FFFFFF" d="M302.4,50.107c1.017-0.881,2.454-1.265,4.052-1.081c3.432,0.389,4.48,2.81,4.756,4.771l0.018,0.13
	l6.675,0.76l-0.012-0.203c-0.388-6.213-4.44-10.358-10.843-11.087c-3.445-0.39-6.517,0.409-9.13,2.375
	c-3.55,2.668-3.967,6.344-4.543,11.432l-0.099,0.863c-0.223,1.948-0.421,3.688-0.421,5.285c0,2.571,0.515,4.771,2.275,6.864
	c2.11,2.506,4.927,3.975,8.371,4.365c6.404,0.732,11.282-2.395,13.049-8.363l0.058-0.194l-6.669-0.76l-0.047,0.123
	c-0.711,1.848-2.278,3.969-5.709,3.581c-1.6-0.183-2.916-0.88-3.705-1.963c-1.011-1.339-1.233-2.772-0.565-8.624
	C300.573,52.531,301.113,51.184,302.4,50.107z"/>
<path fill="#FFFFFF" d="M332.613,47.947l-6.457-1.506l-7.011,30.063l20.692,4.827l1.281-5.51c0,0-13.911-3.245-14.234-3.321
	C326.961,72.173,332.613,47.947,332.613,47.947z"/>
<path fill="#FFFFFF" d="M369.073,58.931l-6.833,18.823c-1.146,3.159-3.818,4.41-6.974,3.266c-1.537-0.559-2.649-1.496-3.215-2.708
	c-0.568-1.22-0.568-2.692,0.001-4.256l6.828-18.823l-6.229-2.262l-6.903,19.024c-0.452,1.248-0.679,2.503-0.679,3.739
	c0,1.469,0.319,2.909,0.957,4.272c1.334,2.854,3.931,5.101,7.313,6.327c3.377,1.228,6.809,1.17,9.662-0.163
	c2.513-1.173,4.365-3.237,5.356-5.969l6.904-19.024L369.073,58.931z"/>
<path fill="#FFFFFF" d="M395.349,70.979l-11.638-6.044l-14.222,27.397l12.117,6.293c5.491,2.853,10.486,1.579,13.037-3.326
	c0.685-1.319,0.945-2.537,0.945-3.627c0-1.934-0.816-3.437-1.542-4.412c1.655-0.021,4.687-0.819,6.261-3.854
	c0.722-1.39,1.073-2.778,1.073-4.119C401.381,76.013,399.282,73.022,395.349,70.979z M383.906,78.953
	c0.146-0.28,2.938-5.662,3.083-5.942c0.285,0.148,5.315,2.76,5.315,2.76c1.19,0.619,1.977,1.443,2.273,2.383
	c0.244,0.772,0.147,1.612-0.276,2.427c-0.422,0.815-1.053,1.376-1.824,1.62c-0.941,0.299-2.068,0.128-3.261-0.491
	C389.217,81.709,384.191,79.101,383.906,78.953z M389.34,90.27c0,0.562-0.149,1.14-0.445,1.708c-0.802,1.545-2.6,2.708-5.243,1.336
	c0,0-5.387-2.798-5.673-2.947c0.146-0.281,3.153-6.076,3.299-6.357c0.286,0.149,5.672,2.947,5.672,2.947
	c1.17,0.606,1.946,1.43,2.247,2.382C389.292,89.641,389.34,89.953,389.34,90.27z"/>
<path fill="#FFFFFF" d="M430.192,114.069l0.691-0.909l0.698-0.9c2.531-3.249,4.923-6.317,4.199-10.904
	c-0.445-2.786-2.186-5.416-5.033-7.605l-9.36-7.189l-18.809,24.48l9.359,7.188c2.852,2.192,5.841,3.197,8.645,2.908
	C425.201,120.659,427.625,117.458,430.192,114.069z M429.353,102.339c0,1.64-1.021,3.266-3.725,6.782
	c-2.812,3.66-4.263,5.248-5.969,5.605c-1.621,0.325-3.126-0.1-4.742-1.34c0,0-3.38-2.598-3.63-2.79
	c0.201-0.262,11.71-15.247,11.911-15.509c0.251,0.192,3.636,2.791,3.636,2.791c1.614,1.243,2.412,2.59,2.512,4.239
	C429.35,102.191,429.353,102.265,429.353,102.339z"/>
<path fill="#FFFFFF" d="M447.522,133.252l3.98-4.018c0,0-8.798-8.721-9.032-8.953c0.223-0.225,4.577-4.62,4.8-4.845
	c0.236,0.234,10.61,10.514,10.61,10.514l3.98-4.021l-15.317-15.178l-21.729,21.93l15.317,15.178l3.98-4.018
	c0,0-10.369-10.28-10.604-10.514c0.223-0.225,4.759-4.801,4.981-5.026C438.726,124.535,447.522,133.252,447.522,133.252z"/>
<path fill="#FFFFFF" d="M472.968,160.516c0.188-1.934-0.344-3.927-1.727-6.464l-1.813-3.378c-0.571-1.044-0.85-2.146-0.764-3.025
	c0.069-0.765,0.475-1.451,1.141-1.934c0.76-0.551,1.628-0.767,2.512-0.626c1.18,0.188,2.319,1.001,3.296,2.35
	c1.228,1.687,2.442,3.773,2.149,6.461l-0.017,0.156l5.693,1.096l0.021-0.182c0.42-3.66-0.587-6.939-3.264-10.633
	c-4.067-5.599-9.69-7.043-14.326-3.68c-2.118,1.539-3.286,3.341-3.57,5.512c-0.229,1.969,0.307,4.14,1.639,6.641l1.87,3.453
	c0.662,1.261,0.868,2.005,0.787,2.84c-0.08,0.826-0.561,1.565-1.428,2.197c-2.407,1.748-4.68-0.318-6.163-2.359
	c-1.979-2.718-2.785-5.233-2.466-7.688l0.021-0.16l-5.846-1.091l-0.024,0.176c-0.566,4.087,0.534,7.679,3.678,12.011
	c2.394,3.295,5.38,5.374,8.408,5.854c2.231,0.354,4.426-0.196,6.345-1.59C471.445,164.767,472.739,162.77,472.968,160.516z"/>
<path fill="#FFFFFF" d="M492.078,174.147c0.16,0.284,4.134,7.333,4.134,7.333l4.926-2.773l-11.509-20.45l-4.932,2.777
	c0,0,3.974,7.049,4.134,7.333c-0.292,0.164-21.975,12.37-21.975,12.37l3.253,5.777C470.109,186.514,491.786,174.311,492.078,174.147
	z"/>
<path fill="#FFFFFF" d="M478.225,203.063c0,0,10.954-4.51,11.259-4.636c0.117,0.284,1.549,3.755,1.621,3.931
	c-0.132,0.155-8.868,10.455-8.868,10.455l2.926,7.098c0,0,0.01-0.012,0.025-0.031l1.73,6.443c0,0,5.489,0.46,5.718,0.479
	c0.06,0.224,2.847,10.602,2.907,10.826c-0.19,0.13-4.724,3.239-4.724,3.239l1.797,6.692l26.729-19.495l-1.341-4.99l-32.638-3.417
	c1.353-1.674,9.085-11.241,9.289-11.494c2.614,2.86,6.223,3.729,9.705,2.294c5.181-2.131,7.138-7.66,4.758-13.445l-4.876-11.834
	l-28.544,11.754L478.225,203.063z M498.303,227.237c0.446,0.04,10.224,0.916,11.069,0.991c-0.699,0.482-8.754,6.028-9.119,6.279
	C500.14,234.083,498.418,227.665,498.303,227.237z M503.73,198.787c0.522,1.269,0.573,2.536,0.143,3.569
	c-0.372,0.894-1.077,1.575-2.038,1.971c-0.96,0.396-1.938,0.409-2.83,0.038c-1.033-0.43-1.891-1.367-2.414-2.638
	c0,0-2.069-5.027-2.191-5.323c0.295-0.121,6.845-2.818,7.139-2.939C501.66,193.76,503.73,198.787,503.73,198.787z"/>
<path fill="#FFFFFF" d="M514.024,245.097c-2.592,0.368-4.467,1.415-5.733,3.2c-1.121,1.635-1.662,3.806-1.656,6.638l0.041,3.927
	c-0.006,1.419-0.171,2.173-0.633,2.877c-0.455,0.684-1.247,1.125-2.291,1.276c-2.95,0.417-3.99-2.473-4.344-4.971
	c-0.475-3.334-0.01-5.935,1.42-7.948l0.093-0.131l-4.661-3.698l-0.104,0.145c-1.802,2.501-2.652,5.194-2.652,8.605
	c0,1.155,0.098,2.393,0.289,3.733c0.571,4.029,2.236,7.262,4.688,9.104c1.808,1.358,4.005,1.899,6.353,1.565
	c2.838-0.402,4.917-1.563,6.18-3.449c1.064-1.621,1.525-3.631,1.497-6.521l-0.023-3.837c-0.016-1.187,0.253-2.291,0.737-3.03
	c0.421-0.641,1.1-1.058,1.911-1.173c2.219-0.315,3.92,1.35,4.332,4.24c0.293,2.066,0.389,4.48-1.124,6.718l-0.088,0.13l4.521,3.629
	l0.104-0.151c2.086-3.042,2.729-6.412,2.086-10.926C523.991,248.197,519.696,244.291,514.024,245.097z"/>
<path fill="#FFFFFF" d="M496.352,288.565c0.063,3.231,1.058,5.864,2.878,7.615c1.577,1.518,3.747,2.293,6.274,2.244
	c4.142-0.078,6.003-2.667,6.793-4.392c1.015,1.864,3.335,3.744,6.36,3.685c2.435-0.047,4.502-0.883,5.979-2.418
	c1.743-1.813,2.63-4.535,2.564-7.874l-0.248-13.114l-30.867,0.6L496.352,288.565z M514.849,287.168c0,0-0.113-5.665-0.12-5.986
	c0.315-0.006,6.378-0.125,6.693-0.13c0.007,0.321,0.116,6.081,0.116,6.127c0,2.415-1.214,3.875-3.267,3.915
	C516.178,291.134,514.897,289.666,514.849,287.168z M509.156,287.823c0,1.251-0.351,2.274-1.017,2.968
	c-0.61,0.635-1.464,0.979-2.467,0.998c-1.018,0.021-1.896-0.298-2.542-0.919c-0.72-0.693-1.113-1.747-1.137-3.047
	c0,0-0.119-6.071-0.126-6.393c0.317-0.006,6.85-0.133,7.166-0.139C509.041,281.613,509.156,287.777,509.156,287.823z
	 M509.494,287.676L509.494,287.676L509.494,287.676z"/>
<line fill="#FFFFFF" x1="509.494" y1="287.677" x2="509.494" y2="287.676"/>
<path fill="#FFFFFF" d="M512.138,303.869l-0.84-0.09c-5.095-0.55-8.776-0.947-12.162,1.935c-2.524,2.15-3.936,4.911-4.314,8.44
	c-0.06,0.56-0.09,1.105-0.09,1.64c0,2.805,0.833,5.264,2.526,7.479c2.727,3.576,6.478,3.978,11.67,4.533l0.421,0.045
	c5.192,0.559,8.944,0.962,12.368-1.957c2.529-2.155,3.938-4.901,4.309-8.395c0.379-3.527-0.414-6.525-2.426-9.164
	C520.906,304.809,517.229,304.415,512.138,303.869z M500.443,314.758c0.173-1.58,0.898-2.95,1.989-3.757
	c1.335-1.024,2.622-1.225,8.574-0.584c5.952,0.637,7.166,1.105,8.248,2.384c0.898,1.023,1.315,2.516,1.147,4.097
	c-0.166,1.573-0.868,2.891-1.978,3.71l-0.003,0.002c-1.355,1.036-2.716,1.257-8.576,0.626c-5.863-0.627-7.146-1.132-8.25-2.429
	C500.686,317.772,500.276,316.336,500.443,314.758z"/>
<path fill="#FFFFFF" d="M495.493,333.952c-2.682,1.653-4.615,4.488-5.444,7.985c-0.273,1.148-0.409,2.286-0.409,3.393
	c0,2.263,0.566,4.391,1.676,6.191c1.451,2.36,3.714,3.963,6.541,4.636l19.69,4.684l1.521-6.404l-19.479-4.634
	c-3.268-0.779-4.816-3.293-4.042-6.56c0.774-3.236,3.285-4.764,6.554-3.986l19.479,4.637l1.534-6.451l-19.69-4.687
	C500.597,332.084,497.854,332.498,495.493,333.952z"/>
<path fill="#FFFFFF" d="M483.582,364.892c0,0,11.084,4.192,11.394,4.309c-0.109,0.287-1.438,3.8-1.505,3.977
	c-0.202,0.023-13.615,1.578-13.615,1.578l-2.716,7.179c0,0,14.56-2.031,14.941-2.085c0,0.042-0.002,0.084-0.002,0.125
	c0,3.817,2.051,6.86,5.533,8.178c5.241,1.979,10.448-0.723,12.666-6.57l4.525-11.968l-28.874-10.92L483.582,364.892z
	 M499.961,381.949c-1.567-0.594-2.432-1.917-2.432-3.539c0-0.612,0.123-1.267,0.379-1.94c0,0,1.919-5.089,2.032-5.39
	c0.299,0.113,6.926,2.62,7.224,2.732c-0.113,0.3-2.033,5.39-2.033,5.39v-0.001C504.194,381.663,502.116,382.768,499.961,381.949z"/>
<path fill="#FFFFFF" d="M490.142,391.38l-0.746-0.396c-4.529-2.407-7.802-4.146-12.01-2.729c-3.103,1.04-5.501,3.121-7.128,6.185
	c-1.773,3.342-2.17,6.544-1.212,9.791v0.001c0.9,3.023,2.823,5.038,6.858,7.184l4.091,2.172l5.865-11.053l-4.69-2.492
	c0,0-2.632,4.955-2.782,5.238c-0.219-0.116-0.873-0.465-0.873-0.465c-1.459-0.777-2.387-1.79-2.837-3.097
	c-0.162-0.507-0.243-1.033-0.243-1.572c0-0.992,0.274-2.025,0.818-3.052c0.755-1.422,1.886-2.392,3.184-2.729
	c1.596-0.443,2.937-0.133,8.213,2.672c5.287,2.808,6.24,3.693,6.771,5.282c0.459,1.305,0.303,2.791-0.439,4.188
	c-1.432,2.696-3.545,3.657-6.461,2.94l-0.129-0.031l-3.132,5.889l0.19,0.063c5.972,1.995,11.399-0.326,14.526-6.208
	c1.653-3.107,2.024-6.172,1.136-9.368C497.926,395.516,494.661,393.781,490.142,391.38z"/>
<path fill="#FFFFFF" d="M68.021,371.044l7.469-2.084c0,0-3.657-13.106-3.753-13.451c0.335-0.094,9.348-2.607,9.684-2.701
	c0.096,0.346,4.408,15.796,4.408,15.796l7.469-2.087l-6.363-22.803l-41.202,11.498l1.958,7.008c0,0,16.232-4.531,16.579-4.628
	C64.364,357.937,68.021,371.044,68.021,371.044z"/>
<path fill="#FFFFFF" d="M86.7,402.967c6.552-3.067,11.286-5.284,13.648-10.337c1.749-3.74,1.801-7.263,0.161-10.769
	c-1.66-3.535-4.406-5.763-8.397-6.812c-5.322-1.399-9.962,0.779-16.39,3.79l-1.034,0.483c-6.438,3.012-11.09,5.188-13.422,10.178
	c-1.75,3.743-1.794,7.28-0.137,10.813c1.641,3.503,4.38,5.718,8.374,6.771c5.396,1.418,10.127-0.802,16.68-3.875L86.7,402.967z
	 M93.317,389.955c-1.013,1.906-2.519,3.059-9.962,6.55c-7.442,3.485-9.292,3.905-11.409,3.464c-1.716-0.332-3.063-1.377-3.797-2.943
	c-0.741-1.576-0.688-3.342,0.146-4.843c0.997-1.883,2.428-2.965,9.987-6.509c7.551-3.536,9.298-3.944,11.386-3.509
	c1.689,0.321,3.081,1.409,3.82,2.985c0.734,1.571,0.674,3.276-0.169,4.802L93.317,389.955z"/>
<path fill="#FFFFFF" d="M106.696,432.66c5.908-4.176,10.176-7.192,11.613-12.582c1.062-3.99,0.491-7.466-1.744-10.627
	c-2.252-3.187-5.348-4.896-9.465-5.228c-5.489-0.438-9.678,2.527-15.476,6.63l-0.932,0.659c-5.801,4.098-9.992,7.058-11.409,12.379
	c-0.342,1.285-0.513,2.519-0.513,3.707c0,2.499,0.759,4.799,2.286,6.961c2.236,3.16,5.322,4.855,9.436,5.183
	c5.56,0.446,9.827-2.571,15.731-6.748L106.696,432.66z M110.916,418.68l-0.001,0.003c-0.662,2.059-1.941,3.459-8.653,8.204
	c-6.71,4.744-8.457,5.483-10.619,5.421c-1.746-0.021-3.256-0.812-4.257-2.226c-1.002-1.419-1.261-3.167-0.709-4.796
	c0.654-2.033,1.873-3.351,8.683-8.162c6.81-4.816,8.458-5.526,10.59-5.465c1.721,0.021,3.282,0.848,4.287,2.27
	C111.236,415.344,111.478,417.031,110.916,418.68z"/>
<path fill="#FFFFFF" d="M138.609,446.904l5.542-5.419l-18.014-18.417l-5.542,5.422c0,0,6.215,6.354,6.462,6.605
	c-0.26,0.254-25.035,24.488-25.035,24.488l5.085,5.203c0,0,24.775-24.235,25.035-24.489
	C132.391,440.55,138.609,446.904,138.609,446.904z"/>
<path fill="#FFFFFF" d="M153.138,474.531c1.884,0.12,5.746-0.661,8.605-4.534c2.292-3.104,3.265-6.319,2.816-9.297
	c-0.407-2.693-1.99-5.127-4.58-7.036l-11.582-8.551l-25.399,34.415l12.062,8.903c2.492,1.84,5.232,2.598,7.925,2.191
	c3.055-0.46,5.925-2.403,8.3-5.62c1.962-2.659,2.565-5.052,2.565-6.989C153.851,476.554,153.5,475.394,153.138,474.531z
	 M145.678,480.348c-1.452,1.968-3.941,3.377-6.574,1.435c0,0-5.368-3.962-5.648-4.17c0.207-0.28,5.763-7.811,5.97-8.091
	c0.281,0.207,5.652,4.17,5.652,4.17h0C147.708,475.636,147.112,478.404,145.678,480.348z M154.939,459.577
	c1.035,0.764,1.667,1.727,1.827,2.785c0.028,0.184,0.042,0.37,0.042,0.559c0,0.993-0.384,2.034-1.13,3.043
	c-0.886,1.2-1.965,1.927-3.121,2.101c-1.059,0.159-2.166-0.161-3.202-0.926c0,0-5.009-3.697-5.289-3.904
	c0.206-0.279,5.375-7.282,5.581-7.562C149.927,455.88,154.939,459.577,154.939,459.577z"/>
<path fill="#FFFFFF" d="M152.37,500.398l6.76,3.452c0,0,5.134-5.518,5.317-5.714c0.239,0.122,10.709,5.468,10.95,5.591
	c-0.054,0.264-1.555,7.635-1.555,7.635l6.764,3.449l7.842-44.02l-5.068-2.589L152.37,500.398z M169.602,492.531
	c0.312-0.331,9.59-10.203,10.391-11.055c-0.231,1.145-2.899,14.394-2.988,14.836C176.608,496.109,170.002,492.736,169.602,492.531z"
	/>
<path fill="#FFFFFF" d="M211.179,480.323l-6.905-2.297l-13.5,40.589l22.133,7.362l2.449-7.357c0,0-14.891-4.952-15.231-5.065
	C200.239,513.209,211.179,480.323,211.179,480.323z"/>
<path fill="#FFFFFF" d="M233.032,522.402c0.065-0.357,6.232-34.462,6.232-34.462l-7.157-1.293l-7.613,42.09l22.953,4.152l1.38-7.629
	C248.828,525.261,233.386,522.467,233.032,522.402z"/>
<path fill-rule="evenodd" clip-rule="evenodd" d="M77.465,115.284c-40.788,45.294-54.364,110.993-57.553,130.049
	c0.104,0.276,204.947,165.268,204.947,165.268l150.62,121.352c42.131-12.767,98.164-57.807,112.56-80.41l0.141-0.219L77.652,115.077
	L77.465,115.284z"/>
<linearGradient id="SVGID_1_" gradientUnits="userSpaceOnUse" x1="270.9697" y1="297.6172" x2="209.9557" y2="368.8">
	<stop  offset="0" style="stop-color:#B90618"/>
	<stop  offset="0.5" style="stop-color:#E2001A"/>
	<stop  offset="0.9831" style="stop-color:#B90618"/>
</linearGradient>
<path fill="url(#SVGID_1_)" d="M225.227,410.146c0,0,150.352,121.136,150.352,121.3c41.623-12.747,97.268-57.41,111.821-80.008
	c-0.421-0.342-409.232-335.183-409.678-335.548c-40.537,45.17-54.054,110.552-57.338,129.265L225.227,410.146z"/>
<path d="M386.32,124.097c-58.032-37.181-128.925-40.326-168.571-7.477c-27.787,22.999-10.119,50.771,5.467,75.276
	c7.408,11.645,14.404,22.646,16.389,32.448c0.826,4.097,0.254,7.046-1.573,8.091c-1.849,1.058-4.957,0.164-7.569-2.169
	c-3.111-2.777-6.559-7.314-10.208-12.12c-7.164-9.431-14.571-19.183-22.054-19.274c-1.087-0.013-2.125,0.249-3.138,0.643
	L83.602,119.002l-1.875,2.328l104.62,93.594c0.268,2.093,1.092,4.038,2.52,5.678c3.625,4.093,9.202,6.895,15.104,9.863
	c6.284,3.158,12.784,6.425,17.948,11.589c1.565,1.567,1.333,4.521,0.358,5.545c-1.038,1.036-4.227,1.551-5.925,1.175
	c-29.135-7.061-40.668-11.723-48.3-14.808c-8.592-3.474-11.808-4.773-28.598-4.773c-16.902,0-33.141,10.9-36.198,24.295
	c-15.36,66.383,14.521,139.916,74.354,182.968c60.578,43.59,135.654,45.721,200.83,5.696l-1.289-2.683
	c-51.562,18.569-104.984,10.236-142.909-22.285c-36.364-31.182-52.328-79.273-42.703-128.642
	c2.272-11.673,15.339-15.087,29.174-18.701c11.639-3.041,23.676-6.185,30.529-14.536c7.348-8.978,7.498-21.986,7.644-34.567
	c0.165-14.4,0.323-28.002,11.698-32.723c45.636-18.97,95.361-14.29,133.014,12.518c39.688,28.255,60.468,77.198,57.01,134.279
	l2.94,0.477C486.624,248.819,457.749,169.866,386.32,124.097z"/>
<path fill="#FFFFFF" d="M105.095,138.219c28.7,20.731,85.002,61.4,86.725,62.645c-0.245,0.408-0.647,1.077-1.129,1.879
	c-0.161,0.186-0.333,0.323-0.491,0.521c-1.357,1.717-2.33,3.497-2.99,5.271c-0.494,0.82-0.929,1.544-1.23,2.046
	C183.9,208.722,131.581,161.914,105.095,138.219z"/>
<path fill="#FFFFFF" d="M405.334,198.099c-38.501-27.41-89.305-32.212-135.898-12.845c-13.197,5.478-13.374,20.716-13.543,35.454
	c-0.139,12.064-0.284,24.54-6.965,32.702c-6.236,7.6-17.793,10.619-28.971,13.539c-14.121,3.688-28.724,7.503-31.354,21.023
	c-9.834,50.438,6.499,99.594,43.69,131.486c35.438,30.39,84.07,40.111,132.342,27.072c-61.127,31.995-129.464,27.66-185.277-12.501
	c-58.865-42.357-88.277-114.642-73.185-179.869c2.718-11.913,17.958-21.973,33.281-21.973c16.208,0,19.047,1.147,27.476,4.554
	c7.714,3.119,19.371,7.831,48.748,14.95c2.272,0.504,6.666,0.076,8.741-2.001c2.083-2.186,2.36-7.005-0.382-9.751
	c-5.507-5.505-12.527-9.035-18.721-12.147c-5.639-2.834-10.965-5.511-14.2-9.165c-2.001-2.296-2.346-5.486-1.188-8.805l3.209-5.337
	c1.589-1.745,3.239-2.64,5.029-2.619c6.021,0.073,13.292,9.646,19.706,18.092c3.74,4.923,7.272,9.574,10.597,12.541
	c3.667,3.283,8.005,4.278,11.05,2.534c1.773-1.013,4.522-3.827,3.021-11.279c-2.096-10.349-9.236-21.576-16.798-33.462
	c-15.652-24.605-31.836-50.048-6.084-71.365c38.672-32.042,108.083-28.806,165.046,7.693
	c54.335,34.813,83.632,89.163,83.632,151.378c0,13.901-1.485,28.2-4.458,42.757C463.378,268.77,442.52,224.573,405.334,198.099z"/>
<path fill-rule="evenodd" clip-rule="evenodd" d="M259.53,252.853c-20.385,20.385-31.61,47.416-31.61,76.114
	c0,59.396,48.321,107.722,107.717,107.722c59.397,0,107.723-48.325,107.723-107.722c0-59.399-48.325-107.723-107.723-107.723
	C306.941,221.244,279.914,232.47,259.53,252.853z"/>
<path fill-rule="evenodd" clip-rule="evenodd" fill="#FFFFFF" d="M230.913,328.967c0-27.9,10.914-54.177,30.735-73.997
	c19.818-19.819,46.095-30.733,73.989-30.733c57.748,0,104.729,46.982,104.729,104.73c0,57.748-46.981,104.729-104.729,104.729
	C277.891,433.695,230.913,386.715,230.913,328.967z"/>
<path fill="#004E98" d="M419.882,318.555c-5.825-4.294-12.653-5.72-18.678-6.982c-5.209-1.088-10.125-2.116-12.452-4.642
	c-1.484-1.614-1.213-7.632,1.362-12.666c0.521-0.932,3.85-2.52,7.065-2.303c3.001,0.195,6.795,3.706,6.921,5.767
	c0.301,4.838,4.467,8.515,9.304,8.217c4.838-0.301,8.515-4.467,8.217-9.304c-0.76-12.238-12.882-21.519-23.284-22.194
	c-8.573-0.576-19.537,3.312-23.866,11.855c-4.901,9.591-6.576,23.875,1.368,32.515c6.141,6.668,14.445,8.404,21.771,9.936
	c4.685,0.982,9.113,1.909,11.835,3.914c3.478,2.581,6.117,7.433,6.249,11.511c0.146,4.513-2.172,9.973-5.51,12.986
	c-3.394,3.116-9.248,4.983-14.969,4.806c-3.604-0.088-8.006-2.315-10.301-5.186c-1.675-2.11-2.595-5.776-3.571-9.651
	c-1.477-5.867-3.148-12.514-8.281-17.818c-10.946-11.394-23.807-20.49-36.373-29.221c8.611-1.059,15.311-3.876,19.861-8.521
	c6.13-6.258,6.747-13.709,6.747-17.971c0-0.614-0.015-1.16-0.023-1.628l-0.012-0.672c0-5.843-2.833-24.924-39.276-25.216
	c-0.015,0-23.044-0.015-23.044-0.015l-11.61,0.015c-4.843,0.006-8.777,3.935-8.777,8.778v77.797c0,4.846,3.931,8.777,8.777,8.777
	s8.777-3.932,8.777-8.777c0,0,0-55.232,0-69.034c1.064,0,2.868-0.003,2.868-0.003l22.884,0.014
	c17.277,0.141,21.846,5.075,21.846,7.664l0.018,1.082c0.064,2.756-0.021,5.18-1.71,6.904c-1.389,1.417-5.244,3.791-15.463,3.765
	c-0.025,0-6.746,0.161-6.746,0.161l-10.926,0.146c-3.788,0.05-7.465,2.435-8.604,6.051c-1.138,3.612-0.179,7.459,2.899,9.672
	l19.645,14.127c6.916,4.802,13.618,9.47,19.935,14.393c-15.079,3.197-27.3,15.412-31.188,24.31
	c-5.177,11.814-3.569,27.181,0.695,36.248c5.472,11.575,21.063,24.985,33.749,25.634c6.965,0.418,17.42,0.164,27.534-0.084
	l8.927-0.199c4.843-0.108,8.722-4.124,8.613-8.971c-0.108-4.846-4.089-8.687-8.936-8.579l-9.031,0.202
	c-9.751,0.236-19.83,0.482-26.135,0.105c-4.904-0.252-15.424-8.354-18.847-15.592c-2.496-5.313-3.294-15.324-0.491-21.731
	c2.473-5.656,15.05-17.532,27.175-13.931c1.896,0.563,3.823,0.427,5.548-0.217c0.76,1.906,1.35,4.218,1.952,6.618
	c1.321,5.252,2.82,11.206,6.866,16.304c5.565,6.963,14.799,11.584,23.544,11.797c10.315,0.318,20.531-3.183,27.271-9.371
	c7.114-6.424,11.549-16.856,11.235-26.531C432.936,334.192,427.691,324.354,419.882,318.555z"/>
<path fill="#004E98" d="M250.015,378.037c-0.213-15.428-0.579-31.363-0.213-48.089c1.084-1.31,2.242-2.683,3.186-4.057
	c0.07-5.939,0.143-11.879,0.07-17.889c1.45-1.596,2.61-3.186,4.493-4.782c0.07-4.636,4.276-36.273,4.276-36.273
	s3.545,31.349,3.545,35.981c1.593,1.666,3.259,3.338,4.925,4.928c0,5.864,0,11.728,0,17.526c0.722,1.374,1.52,2.748,2.318,4.057
	c0,10.213,0,20.42,0,30.633c9.847,0,19.698,0,29.548,0c1.157,8.4,0.14,15.86,3.402,25.348c3.332,9.635,14.34,17.31,13.398,20.496
	c-0.579,1.813-3.624,4.057-4.565,4.057c-10.646,0-20.999,0.223-30.919-0.286C268.269,402.514,256.825,390.494,250.015,378.037
	L250.015,378.037z"/>
</svg>
