<?xml version="1.0" encoding="utf-8"?>
<!-- Generator: Adobe Illustrator 13.0.2, SVG Export Plug-In . SVG Version: 6.00 Build 14948)  -->
<!DOCTYPE svg PUBLIC "-//W3C//DTD SVG 1.0//EN" "http://www.w3.org/TR/2001/REC-SVG-20010904/DTD/svg10.dtd">
<svg version="1.0" id="Ebene_1" xmlns="http://www.w3.org/2000/svg" xmlns:xlink="http://www.w3.org/1999/xlink" x="0px" y="0px"
	 width="419.694px" height="561.259px" viewBox="0 0 419.694 561.259" enable-background="new 0 0 419.694 561.259"
	 xml:space="preserve">
<polygon fill-rule="evenodd" clip-rule="evenodd" fill="#004A99" points="0,0 209.846,561.259 419.694,0 0,0 "/>
<path fill-rule="evenodd" clip-rule="evenodd" fill="#FFED00" d="M412.34,5.099c-2.514,6.721-197.858,529.195-202.494,541.6
	C205.208,534.294,9.864,11.82,7.351,5.099C14.506,5.099,405.186,5.099,412.34,5.099L412.34,5.099z"/>
<polygon fill-rule="evenodd" clip-rule="evenodd" fill="#004A99" points="21.879,15.174 209.846,517.917 397.815,15.174 
	21.879,15.174 "/>
<path fill-rule="evenodd" clip-rule="evenodd" fill="#0095D8" d="M29.229,20.275c0.876,2.341,53.074,141.955,53.468,143.007h254.297
	c0.393-1.052,52.591-140.666,53.467-143.007C383.328,20.275,36.362,20.275,29.229,20.275L29.229,20.275z"/>
<path fill-rule="evenodd" clip-rule="evenodd" fill="#FFED00" d="M100.581,176.509h102.391v12.372h-84.719l58.04,159.469H190.6
	v-28.181h-19.608v-12.375h31.98v52.928h-35.342L100.581,176.509L100.581,176.509z M179.646,280.989h3.816
	c4.465,0,7.138-2.909,7.138-7.374v-48.662c0-7.078-3.737-9.265-8.197-9.265h-26.525L179.646,280.989L179.646,280.989z
	 M170.982,293.363l-32.776-90.047h52.942c6.567,0,11.823,4.277,11.823,11.909v65.669c0,7.503-4.641,12.469-12.309,12.469H170.982
	L170.982,293.363z M319.112,176.509l-4.503,12.372h-85.515v60.488h16.148v12.372h-16.148v86.609h14.303l14.763-40.556h13.166
	l-19.266,52.928h-35.341V176.509H319.112L319.112,176.509z M249.702,291.333v-88.017h46.761c5.435,0,11.312,4.343,8.446,12.215
	l-13.128,36.066c-2.294,6.303-7.122,10.144-13.802,10.144h-15.902v29.591H249.702L249.702,291.333z M281.14,215.688h-19.063v33.681
	h9.82c5.232,0,8.61-2.972,9.981-6.746l6.867-18.861C291.33,216.655,286.053,215.688,281.14,215.688L281.14,215.688z"/>
<path fill-rule="evenodd" clip-rule="evenodd" fill="#FFED00" d="M302.752,142.898l30.92-20.373l-4.146-5.921l-30.712,20.237
	c-1.702-2.445-3.498-4.818-5.394-7.11l44.435-35.197l-4.646-5.537l-44.584,35.316c-2.086-2.209-4.266-4.33-6.527-6.359
	l89.505-84.589l-5.112-5.111l-89.877,84.896c-2.455-2.328-3.785-3.835-6.879-5.975l41.786-60.034l-6.062-3.936l-42.038,60.416
	c-2.648-1.378-5.862-3.583-8.631-4.743l29.317-59.843l-6.498-3.168l-29.607,60.428c-2.171-0.743-5.985-2.093-8.218-2.698
	l9.272-33.167l-6.984-1.871l-9.325,33.8c-2.15-0.431-4.913-0.794-7.104-1.094l6.059-53.793l-7.187-0.754l-6.059,53.802
	c-1.321-0.091-3.665-0.16-4.998-0.204V23.711h-7.228v66.604c-1.332,0.044-3.675,0.113-4.994,0.204l-6.06-53.802l-7.188,0.754
	l6.059,53.793c-2.19,0.3-4.956,0.664-7.102,1.094l-9.328-33.8l-6.981,1.871l9.27,33.167c-2.231,0.605-6.047,1.956-8.218,2.698
	l-29.607-60.428l-6.497,3.168L164.9,98.878c-2.767,1.16-5.982,3.365-8.629,4.743l-42.038-60.416l-6.062,3.936l41.786,60.034
	c-3.097,2.14-4.424,3.647-6.877,5.975L53.202,28.254l-5.111,5.111l89.503,84.589c-2.262,2.029-4.441,4.15-6.527,6.359L86.483,88.997
	l-4.646,5.537l44.435,35.197c-1.894,2.292-3.691,4.666-5.395,7.11l-30.71-20.237l-4.146,5.921l30.918,20.373
	c-2.539,4.207-4.787,8.603-6.743,13.154H79.995l2.703,7.229h254.297c0,0,2.701-6.776,2.701-7.229h-30.199
	C307.54,151.501,305.292,147.105,302.752,142.898L302.752,142.898z"/>
</svg>
