<?xml version="1.0" encoding="utf-8"?>
<!-- Generator: Adobe Illustrator 13.0.2, SVG Export Plug-In . SVG Version: 6.00 Build 14948)  -->
<!DOCTYPE svg PUBLIC "-//W3C//DTD SVG 1.0//EN" "http://www.w3.org/TR/2001/REC-SVG-20010904/DTD/svg10.dtd">
<svg version="1.0" id="_xB9_Ã_xBC_h_1" xmlns="http://www.w3.org/2000/svg" xmlns:xlink="http://www.w3.org/1999/xlink" x="0px"
	 y="0px" width="596.069px" height="335.301px" viewBox="0 0 596.069 335.301" enable-background="new 0 0 596.069 335.301"
	 xml:space="preserve">
<path fill="#AF9713" d="M191.137,0c30.3,17.4,62.3,33.5,97.2,38.9c26.5,2.9,52.9-4.1,77.1-14.5c15.2-6.4,29.3-15,43-24.1
	c-3.4,11.8-6.9,23.6-8.101,35.8c-1.1,12.3-1.3,24.8-0.199,37.1c59.6-0.1,119.1,0,178.6,0c5.8-0.2,11.9,2.5,14.9,7.6
	c3.1,5.3,2.8,11.8,1.5,17.5c-1,5.1-5.101,9.4-10.2,10.6c-7.4,1.8-15.2,0.8-22.7,1.1c0.101,8-2.7,16.8-9.2,21.9
	c-10,6.2-22.3,4.7-33.399,4.6c-0.101,8.3-5,16.4-13,19.2c-13.2,4.6-27.4,2-41.2,2.9c-0.101,7.1-3.601,14.2-9.7,18.1
	c-6,3.5-13.2,2.6-19.8,2.9c-1,5.3-2.601,10.8-6.9,14.4c-7.1,6.2-17.2,6-26,6c-3,7.5-4.699,15.6-8.199,22.9
	c-8.001,17.3-20.4,31.901-33.4,45.5c-21,22.199-41.9,44.5-62.6,66.9c-15.101-12.4-29.4-25.701-43.201-39.602
	c-27.4-27-49.2-59.899-63.5-95.699c-5.4,0-11,0-16.3-1.5c-8.1-2.7-14.6-10-15.5-18.6c-8.6-0.6-18.2-0.9-25-6.9
	c-4.3-3.5-4.2-9.5-4.4-14.6c-11.4,0-22.9,0.1-34.3,0c-6.9,0.1-12.7-4.7-16.3-10.2c-2.3-3.5-2.4-7.8-2.9-11.7
	c-10.1,0-20.9,0.8-30-4.5c-8-4.6-11.3-13.8-14.4-21.9c-7.3-0.5-14.8,0.6-22.1-0.9c-4.6-0.8-8.2-4.5-9.7-8.8
	c-1.5-4.4-1.3-9.1-1.1-13.7c0.2-5.2,2.9-10.7,7.8-12.7c5.1-1.9,10.5-1.5,15.8-1.5c56.4-0.1,112.8-0.3,169.1-0.3
	c2.4-14.7,4.5-29.5,3.4-44.4C195.237,18.4,193.038,9.3,191.137,0L191.137,0z"/>
<path fill="#145F25" d="M209.237,25.5c20.5,7.6,40.9,15.9,62.4,20.2c12.8,3,26,4.4,39,2.7c27.8-3.2,54.399-12.7,80.3-23l-0.5,0.6
	c-8.2,9.5-16.5,18.9-24.8,28.3c-8.7,0.7-17.601,1.2-25.8,4.5c-6.9,2.8-13.4,6.6-19.9,10.2c3.8,8.8,8.2,17.4,9.7,26.9
	c-12.5,13.7-24.5,28-36.8,41.9c-25,28.6-50,57.1-74.9,85.7c-4.2-9.3-7.9-18.8-10.3-28.6c-3.5-13.9-5.1-28.2-6.5-42.4
	c-1-8.6-1.3-17.2-1.6-25.8c-0.1-20.2,3-40.2,5.6-60.1C206.737,52.9,207.938,39.2,209.237,25.5L209.237,25.5z"/>
<path fill="#FFFFFF" d="M365.638,54.3c8.3-9.4,16.6-18.8,24.8-28.3c0.3,7.6-1,15.1-1.3,22.6c-1,12.7-1.101,25.5,0.1,38.2
	c1,10.3,2,20.6,2.1,30.9c0.501,18.6,3,37.4,0.101,56c-3.3,21-9.6,41.8-20.9,59.9c-9.199,16.201-23.199,28.701-35.399,42.4
	c-12.4,13.199-25,26.1-38.2,38.301c-5.9-4.602-12-9.102-17.8-14c-10.4-8.5-19.9-18.102-29.2-27.801c-13.6-14.199-24.2-31.1-32-49
	c24.9-28.6,49.9-57.1,74.9-85.7c12.3-13.9,24.3-28.2,36.8-41.9c1.6,9.5,1.5,19.8-3.2,28.5c-2.6,4.9-6.4,8.9-9.8,13.2
	c3.2,3.9,6.2,8,9.5,11.8c3.7-4.9,7.3-10.3,9-16.3c3.2-10.5,3.3-21.6,4.1-32.4c1,0.1,1.9,0.3,2.9,0.5c0.399,6.5-0.8,14,3.6,19.5
	c2.601,3.7,7.9,3.5,11.5,1.5c2.2-1.1,2.601-3.8,3.7-5.8c-3.1-0.8-6.2-1.1-9.4-1.1c-0.1-2.9-0.399-5.8-0.1-8.6
	c0.3-3.9,2.6-7.2,4.5-10.4c-2.5-2.8-5.2-5.4-7.9-8c-2.6,2.1-5.199,4.2-8,6c-0.699-0.5-2-1.4-2.6-1.9c0.2-2.3,0.5-4.6,0.6-6.9
	c6.2-6.1,11.7-12.8,17.301-19.4c2.1,0.3,4.199,0.7,6.3,1.1c-1.3,6.6-4.101,12.8-4.5,19.6c-0.5,4.4,3.2,8.8,7.7,8.7
	c2.899,0.4,6.699-0.4,7.1-3.9c0-5.3-5.7-8.6-5.7-13.9c-0.1-3.3,0.2-6.8,1.8-9.7c2.5-3.9,7.101-6,9-10.3
	c-0.199-1.2-0.399-2.4-0.699-3.6C372.737,54.1,369.237,54.1,365.638,54.3L365.638,54.3z"/>
<path fill="#AF9713" d="M221.637,54c10.4,6.5,18.9,15.5,26.2,25.3c4.2-4.9,8.2-10.2,13.7-13.8c4.8-3.1,10.3-4.9,15.7-6.8
	c0.1,3.6,0.1,7.1,0.1,10.7c-3.6,1.5-7.2,3-10.8,4.4c-0.3,11.3,0.5,22.6,2.4,33.7c1.6,9.6,6.6,18.2,11.6,26.4
	c-2.5,4.1-5.5,7.9-8.9,11.4c-3.3-7.1-6.3-14.3-8.7-21.8c-3.8-13.7-3.7-28.1-4.7-42.2c-2.6,1.7-5.8,3.3-6.7,6.5
	c-0.6,3.4,0.9,6.6,1.2,9.9c-0.9,1.5-2.5,2.5-3.9,3.7c-3.8-5.6-7.1-11.4-11-16.9c-0.9,11.8-1.8,23.7-3.9,35.4
	c-1.8,10.4-6.4,20-11.9,28.8c-2.9-4-5.7-8-8.3-12.1c2.5-5.5,5.4-10.7,7.6-16.3c5.7-14.1,7.6-29.5,6.6-44.6c-1.2-4-5-6.6-6.8-10.4
	C220.438,61.6,221.237,57.7,221.637,54L221.637,54z"/>
<path fill="#AF9713" d="M339.838,58.8c8.199-3.3,17.1-3.8,25.8-4.5c3.6-0.2,7.1-0.2,10.7-0.2c0.3,1.2,0.5,2.4,0.699,3.6
	c-1.899,4.3-6.5,6.4-9,10.3c-1.6,2.9-1.899,6.4-1.8,9.7c0,5.3,5.7,8.6,5.7,13.9c-0.4,3.5-4.2,4.3-7.1,3.9c-4.5,0.1-8.2-4.3-7.7-8.7
	c0.399-6.8,3.2-13,4.5-19.6c-2.101-0.4-4.2-0.8-6.3-1.1c-5.301-0.3-11.9-1-16,3.1c-2.5,5-1,10.9-1.301,16.3
	c-0.1,2.3-0.399,4.6-0.6,6.9c0.6,0.5,1.9,1.4,2.6,1.9c2.801-1.8,5.4-3.9,8-6c2.7,2.6,5.4,5.2,7.9,8c-1.9,3.2-4.2,6.5-4.5,10.4
	c-0.3,2.8,0,5.7,0.1,8.6c3.2,0,6.301,0.3,9.4,1.1c-1.1,2-1.5,4.7-3.7,5.8c-3.6,2-8.899,2.2-11.5-1.5c-4.399-5.5-3.2-13-3.6-19.5
	c-1-0.2-1.9-0.4-2.9-0.5c-0.8,10.8-0.899,21.9-4.1,32.4c-1.7,6-5.3,11.4-9,16.3c-3.3-3.8-6.3-7.9-9.5-11.8
	c3.399-4.3,7.2-8.3,9.8-13.2c4.7-8.7,4.8-19,3.2-28.5c-1.5-9.5-5.9-18.1-9.7-26.9C326.438,65.4,332.938,61.6,339.838,58.8
	L339.838,58.8z"/>
<path fill="#145F25" d="M339.338,69.2c4.1-4.1,10.699-3.4,16-3.1c-5.601,6.6-11.101,13.3-17.301,19.4
	C338.338,80.1,336.838,74.2,339.338,69.2L339.338,69.2z"/>
<path fill="#AF9713" d="M315.237,193.4c2.4-0.7,5.101,1,5.7,3.4c0,4.7-5.1,6.9-6.1,11.1c-0.801,3.5-1.5,7-2.801,10.4
	c-2.3-0.7-6-0.1-6.8-3c-1.3-4.7-0.899-9.6-1.899-14.4c-3.4,1.6-7.701,2.1-10.201,5.2c-3.5,4.3-6.7,9.1-7.4,14.7
	c-1.5,10.3,0.4,20.6,0.2,30.899c-0.3,5.301,3,9.801,6.4,13.4c2.5,2.701,6.9,2.9,9.8,1.1c3.8-3,5.6-7.898,5.899-12.5
	c-0.1-3.799-2.699-6.799-4.699-9.799c3.6-3,7.1-5.9,10.5-8.9c1.199,9.199,1.699,18.6-0.101,27.801c-2.3,7.6-8.6,15-17,15.199
	c-6.2,0.199-11.3-3.801-15.5-7.801c-5.4-5.1-6.1-12.898-8.4-19.5c-1.5-4.5-3-9.199-2.4-13.999c0.6-8.7,6.4-15.5,8.9-23.5
	c2.5-7.1,7.6-13.2,14.2-16.7c3.2-1.5,6.8-0.9,10.3-1.2C307.737,195.3,311.438,194.1,315.237,193.4L315.237,193.4z"/>
</svg>
