<?xml version="1.0" encoding="utf-8"?>
<!-- Generator: Adobe Illustrator 13.0.2, SVG Export Plug-In . SVG Version: 6.00 Build 14948)  -->
<!DOCTYPE svg PUBLIC "-//W3C//DTD SVG 1.0//EN" "http://www.w3.org/TR/2001/REC-SVG-20010904/DTD/svg10.dtd">
<svg version="1.0" id="Ebene_1" xmlns="http://www.w3.org/2000/svg" xmlns:xlink="http://www.w3.org/1999/xlink" x="0px" y="0px"
	 width="394.236px" height="527.241px" viewBox="0 0 394.236 527.241" enable-background="new 0 0 394.236 527.241"
	 xml:space="preserve">
<path fill="#004494" d="M394.236,277.86c0,27.258-4.058,54.521-13.796,82.377c-9.721,27.82-25.102,56.197-47.745,85.693h-0.003
	c-3.533,4.646-7.916,9.58-12.952,14.619c-5.051,5.057-10.746,10.219-16.89,15.316c-31.717,26.32-75.908,51.375-105.524,51.375
	h-0.001v-0.006c-10.375,0-22.516-3.047-35.273-8.133c-6.234-2.484-12.574-5.432-18.895-8.725
	c-32.641-17.016-65.896-43.764-81.618-64.453c-22.438-29.502-37.816-57.879-47.587-85.688C4.165,332.388,0,305.118,0,277.86V1.894V0
	h1.894h390.409h1.887v1.894l0.041,275.966H394.236L394.236,277.86z"/>
<path fill="#FFFFFF" d="M376.875,358.995c9.577-27.404,13.573-54.264,13.573-81.135h0.006L390.416,3.79H3.79V277.86
	c0,26.871,4.097,53.725,13.729,81.135c9.645,27.451,24.841,55.482,47.024,84.65c15.417,20.291,48.155,46.582,80.36,63.369
	c6.289,3.281,12.514,6.182,18.539,8.578c12.341,4.922,24.012,7.869,33.883,7.869v-0.006h0.001c28.693,0,71.933-24.633,103.11-50.502
	c6.088-5.051,11.695-10.131,16.626-15.064c4.939-4.945,9.214-9.75,12.621-14.232h-0.003l0.003-0.006l0.006-0.012
	C352.087,414.46,367.283,386.435,376.875,358.995L376.875,358.995z"/>
<path fill="#004494" d="M11.846,12.604v229.274l27.924-13.15c0,0,12.983,9.333,29.621,9.875c13.835,0.451,21.691-3.731,25.39-8.193
	c1.062-1.131,2.016-3.1,2.035-3.141l-0.015,0.001c0.47-1.14,0.737-2.379,0.737-3.683c0-5.514-4.639-9.986-10.362-9.986
	c-5.728,0-10.365,4.472-10.365,9.986c0,3.469,1.834,6.52,4.62,8.31l-0.066,0.031c0,0-5.209,2.102-10.695,1.556
	c-5.483-0.549-11.15-2.011-19.745-6.948c-8.591-4.937-10.241-7.496-10.241-7.496s-3.563-32.271,17.005-50.644
	c20.856-18.631,44.246-24.135,69.839-23.038c25.597,1.1,41.868,8.045,61.614,21.576c19.743,13.528,29.801,19.014,47.174,20.657
	c17.364,1.646,33.636-7.679,54.114-0.548c20.473,7.131,24.495,14.077,24.495,14.077s-27.24,5.851-19.74,32.363
	c7.494,26.509,23.399,42.413,44.607,53.933c11.098,6.029,28.248,7.623,42.085,7.775V12.604H11.846L11.846,12.604z"/>
<path fill="#00A7E3" d="M69.406,436.38c23.594,31.043,89.247,76.652,127.771,76.652c38.525,0,103.79-45.609,127.377-76.652
	c19.002-24.756,32.581-48.662,41.821-72.094c-5.089,0.082-10.772,0.076-17.165-0.076c-45.524-1.102-89.903-47.719-121.491-53.484
	c-23.44-4.271-32.786,4.693-37.296,13.717c-5.21,10.424-0.546,21.387-0.546,21.387s-26.824-0.246-49.412-36.469
	c-19.148-30.715-27.101-38.947-46.025-41.414c-18.079-2.356-22.762,2.197-65.269-6.308c-7.198-1.438-12.866-2.628-17.323-3.608
	v36.851C15.101,340.655,31.708,386.81,69.406,436.38L69.406,436.38z"/>
<path fill="#004494" d="M375.519,334.104c0.334-1.342,0.656-2.684,0.961-4.031c-6.114,0.07-18.091-1.125-36.539-8.648
	c-28.242-11.52-69.882-45.914-82.503-54.029c-19.195-12.338-67.506-36.746-101.786-40.311c-26.899-2.796-30.99-0.823-30.99-0.823
	v3.29c0,0,11.985-1.638,33.183,4.389c27.973,7.954,58.961,26.052,92.146,48.268c19.09,12.779,64.172,40.588,92.145,47.168
	C358.878,333.313,369.586,334.104,375.519,334.104L375.519,334.104z"/>
<path fill="#FFFFFF" d="M38.505,46.828c0.731-0.218,1.462-0.381,2.193-0.381c2.269,0,4.153,1.195,4.153,4.778
	c0,6.463-3.768,6.896-6.346,6.896V46.828L38.505,46.828z M31.545,79.189h6.959V63.986h4.078c6.19,0,9.69-5.755,9.69-13.576
	c0-7.709-3.114-10.479-8.307-10.479h-12.42V79.189L31.545,79.189z"/>
<polygon fill="#FFFFFF" points="54.888,39.93 73.885,39.93 73.885,46.447 62.31,46.447 62.31,56.004 71.81,56.004 71.81,61.868 
	62.31,61.868 62.31,72.674 74.808,72.674 74.808,79.189 54.888,79.189 54.888,39.93 "/>
<path fill="#FFFFFF" d="M76.384,71.316c2.386,1.358,4.961,2.336,7.538,2.336c1.961,0,4.616-0.76,4.616-4.289
	c0-6.354-12.382-7.006-12.382-19.387c0-7.872,5-11.023,9.883-11.023c2.767,0,5.537,0.489,8.268,1.194v7.44
	c-2.269-1.14-4.692-2.117-7.115-2.117c-1.462,0-3.614,0.814-3.614,3.366c0,5.919,12.844,6.678,12.844,19.494
	c0,3.964-1.462,11.836-11.383,11.836c-3.577,0-6.615-0.488-8.654-0.977V71.316L76.384,71.316z"/>
<path fill="#FFFFFF" d="M121.841,47.804c-2.654-1.412-5.421-2.333-8.268-2.333c-6.731,0-8.846,6.788-8.846,13.846
	c0,8.796,3.27,14.336,9.615,14.336c2.653,0,5.537-1.195,7.96-2.826v7.223c-3.154,1.466-6.538,2.117-10.383,2.117
	c-9.037,0-15.076-7.547-15.076-20.578c0-13.033,6.04-20.635,15.076-20.635c3.691,0,6.885,0.381,9.921,1.302V47.804L121.841,47.804z"
	/>
<path fill="#FFFFFF" d="M131.301,63.009l3.769-13.901l3.769,13.901H131.301L131.301,63.009z M121.957,79.189h4.96l2.73-9.99h10.884
	l2.692,9.99h7.46L140.03,39.93h-7.422L121.957,79.189L121.957,79.189z"/>
<path fill="#FFFFFF" d="M159.453,46.447h2.268c3.308,0,4.154,1.793,4.154,4.453c0,2.878-1.384,6.732-3.961,6.732h-2.461V46.447
	L159.453,46.447z M152.492,79.189h6.961V63.497h2.615l5.999,15.693h8.96l-8.921-18.245c2.999-2.008,5.191-6.407,5.191-11.186
	c0-7.059-4.115-9.829-7.576-9.829h-13.229V79.189L152.492,79.189z"/>
<path fill="#FFFFFF" d="M185.41,63.009l3.771-13.901l3.769,13.901H185.41L185.41,63.009z M176.065,79.189h4.961l2.729-9.99h10.887
	l2.689,9.99h7.462L194.14,39.93h-7.424L176.065,79.189L176.065,79.189z"/>
<path fill="#FFFFFF" d="M241.02,47.804c-2.654-1.412-5.423-2.333-8.271-2.333c-6.727,0-8.842,6.788-8.842,13.846
	c0,8.796,3.267,14.336,9.612,14.336c2.654,0,5.537-1.195,7.963-2.826v7.223c-3.158,1.466-6.542,2.117-10.386,2.117
	c-9.038,0-15.073-7.547-15.073-20.578c0-13.033,6.035-20.635,15.073-20.635c3.691,0,6.885,0.381,9.923,1.302V47.804L241.02,47.804z"
	/>
<path fill="#FFFFFF" d="M250.479,63.009l3.768-13.901l3.768,13.901H250.479L250.479,63.009z M241.134,79.189h4.96l2.733-9.99h10.878
	l2.695,9.99h7.459L259.21,39.93h-7.424L241.134,79.189L241.134,79.189z"/>
<polygon fill="#FFFFFF" points="271.67,39.93 279.091,39.93 279.091,72.674 291.589,72.674 291.589,79.189 271.67,79.189 
	271.67,39.93 "/>
<path fill="#FFFFFF" d="M316.74,47.804c-2.654-1.412-5.426-2.333-8.271-2.333c-6.729,0-8.845,6.788-8.845,13.846
	c0,8.796,3.27,14.336,9.615,14.336c2.654,0,5.537-1.195,7.96-2.826v7.223c-3.152,1.466-6.533,2.117-10.383,2.117
	c-9.038,0-15.076-7.547-15.076-20.578c0-13.033,6.038-20.635,15.076-20.635c3.691,0,6.885,0.381,9.923,1.302V47.804L316.74,47.804z"
	/>
<polygon fill="#FFFFFF" points="319.585,39.93 327.009,39.93 327.009,79.189 319.585,79.189 319.585,39.93 "/>
<path fill="#FFFFFF" d="M337.582,59.588c0-6.299,1.925-14.118,7.192-14.118c5.229,0,7.154,7.819,7.154,14.118
	s-1.925,14.064-7.154,14.064C339.507,73.652,337.582,65.887,337.582,59.588L337.582,59.588z M329.701,59.588
	c0,13.031,6.038,20.578,15.073,20.578c9.038,0,15.035-7.547,15.035-20.578c0-13.033-5.997-20.635-15.035-20.635
	C335.739,38.953,329.701,46.556,329.701,59.588L329.701,59.588z"/>
<polygon fill="#004494" points="155.914,393.952 152.222,393.952 152.222,388.679 163.336,387.056 163.336,427.292 155.914,427.292 
	155.914,393.952 "/>
<path fill="#004494" d="M181.411,392.915c2.808,0,3.999,4.02,3.999,7.441c0,3.316-1.307,7.119-3.961,7.119
	c-2.884,0-3.921-4.131-3.921-7.553C177.527,396.337,178.564,392.915,181.411,392.915L181.411,392.915z M185.871,409.315
	c-0.075,3.586-1.154,13.09-7.189,13.09c-2.423,0-4.885-0.926-7.078-2.391v6.891c2.692,0.873,5.462,1.359,8.231,1.359
	c9.419,0,13.459-10.588,13.459-21.334c0-11.947-4.192-19.875-12.189-19.875c-8.309,0-11,8.906-11,14.01
	c0,7.107,3.845,12.27,8.843,12.27c2.423,0,5.231-1.195,6.461-4.02H185.871L185.871,409.315z"/>
<path fill="#004494" d="M198.871,409.749v-5.859h2.612c4.157,0,6.425-2.227,6.425-6.41c0-3.311-2.039-4.564-4.269-4.564
	c-2.385,0-4.769,0.762-6.962,2.232v-6.141c2.77-1.248,5.653-1.951,8.577-1.951c5.692,0,10.075,2.877,10.075,9.445
	c0,5.379-2.886,8.689-6.305,9.885v0.111c3.688,0.861,7.611,4.939,7.611,10.588c0,4.23-1.767,11.18-11.651,11.18
	c-2.924,0-5.844-0.322-8.689-1.301v-6.896c2.424,1.359,4.96,2.338,7.538,2.338c2.382,0,4.919-1.523,4.919-5.379
	c0-5.156-3.498-7.277-7.383-7.277H198.871L198.871,409.749z"/>
<path fill="#004494" d="M230.288,422.405c-2.807,0-3.996-4.02-3.996-7.441c0-3.311,1.307-7.113,3.958-7.113
	c2.886,0,3.923,4.125,3.923,7.547C234.173,418.983,233.136,422.405,230.288,422.405L230.288,422.405z M225.829,406.005
	c0.076-3.586,1.154-13.09,7.189-13.09c2.426,0,4.884,0.926,7.078,2.391v-6.896c-2.692-0.867-5.461-1.354-8.229-1.354
	c-9.422,0-13.459,10.588-13.459,21.34c0,11.947,4.189,19.869,12.188,19.869c8.309,0,11.001-8.9,11.001-14.004
	c0-7.119-3.847-12.275-8.845-12.275c-2.423,0-5.232,1.195-6.46,4.02H225.829L225.829,406.005z"/>
<path fill="#FFFFFF" d="M357.589,277.767c-4.535,0-8.153-3.615-8.153-8.156c0-4.507,3.618-8.127,8.153-8.127
	c4.512,0,8.133,3.62,8.133,8.127C365.722,274.151,362.101,277.767,357.589,277.767L357.589,277.767z M357.589,279.653
	c5.511,0,10.02-4.506,10.02-10.043c0-5.505-4.509-10.014-10.02-10.014c-5.555,0-10.04,4.509-10.04,10.014
	C347.549,275.147,352.034,279.653,357.589,279.653L357.589,279.653z M359.953,270.501c1.913-0.129,2.936-0.943,2.936-2.936
	c0-1.125-0.29-2.175-1.26-2.804c-0.814-0.473-2.019-0.5-2.936-0.5h-5.241v10.803h2.121v-4.564h2.121l2.414,4.564h2.464
	L359.953,270.501L359.953,270.501z M355.573,268.878v-3.067h2.619c1.052,0,2.596,0,2.596,1.444c0,1.359-0.835,1.652-2.042,1.623
	H355.573L355.573,268.878z"/>
</svg>
