<?xml version="1.0" encoding="UTF-8" standalone="no"?>
<!-- Created with Inkscape (http://www.inkscape.org/) -->
<svg
   xmlns:dc="http://purl.org/dc/elements/1.1/"
   xmlns:cc="http://web.resource.org/cc/"
   xmlns:rdf="http://www.w3.org/1999/02/22-rdf-syntax-ns#"
   xmlns:svg="http://www.w3.org/2000/svg"
   xmlns="http://www.w3.org/2000/svg"
   xmlns:sodipodi="http://sodipodi.sourceforge.net/DTD/sodipodi-0.dtd"
   xmlns:inkscape="http://www.inkscape.org/namespaces/inkscape"
   id="svg2"
   sodipodi:version="0.32"
   inkscape:version="0.44"
   width="800.26801"
   height="966"
   version="1.0"
   sodipodi:docbase="C:\Documents and Settings\Angelo\Documenti"
   sodipodi:docname="Torino FC Logo.svg">
  <metadata
     id="metadata7">
    <rdf:RDF>
      <cc:Work
         rdf:about="">
        <dc:format>image/svg+xml</dc:format>
        <dc:type
           rdf:resource="http://purl.org/dc/dcmitype/StillImage" />
        <dc:title>Torino FC Logo SVG Version</dc:title>
        <dc:date>June 8 2006</dc:date>
        <dc:creator>
          <cc:Agent>
            <dc:title>Angelo Romano</dc:title>
          </cc:Agent>
        </dc:creator>
        <dc:rights>
          <cc:Agent>
            <dc:title />
          </cc:Agent>
        </dc:rights>
        <cc:license
           rdf:resource="http://web.resource.org/cc/PublicDomain" />
      </cc:Work>
      <cc:License
         rdf:about="http://web.resource.org/cc/PublicDomain">
        <cc:permits
           rdf:resource="http://web.resource.org/cc/Reproduction" />
        <cc:permits
           rdf:resource="http://web.resource.org/cc/Distribution" />
        <cc:permits
           rdf:resource="http://web.resource.org/cc/DerivativeWorks" />
      </cc:License>
    </rdf:RDF>
  </metadata>
  <defs
     id="defs5">
    <style
       id="style2416"
       type="text/css">
   
    .fil0 {fill:#E46417}
   
  </style>
  </defs>
  <sodipodi:namedview
     inkscape:window-height="740"
     inkscape:window-width="1280"
     inkscape:pageshadow="2"
     inkscape:pageopacity="0.0"
     borderopacity="1.0"
     bordercolor="#666666"
     pagecolor="#ffffff"
     id="base"
     inkscape:zoom="0.35355339"
     inkscape:cx="2.4883358"
     inkscape:cy="568.0605"
     inkscape:window-x="-4"
     inkscape:window-y="-4"
     inkscape:current-layer="layer2" />
  <g
     id="layer1"
     inkscape:label="top1"
     transform="matrix(6.286611,0,0,6.286611,-2926.789,-2827.706)">
    <path
       style="fill:#e9aa0f;fill-opacity:1"
       d="M 527.80148,449.80173 C 523.99492,449.93533 519.47543,450.38562 512.27023,451.08298 C 496.31189,452.62752 491.86512,452.94677 483.23898,451.86423 C 477.73899,451.17401 470.29566,449.81887 469.30148,449.83298 C 469.33235,450.83815 467.71786,459.78209 467.70773,459.83298 C 467.22023,462.28199 466.79152,465.82129 466.20773,472.23923 C 464.28474,493.37979 466.67691,515.54669 472.86398,534.08298 C 479.00065,552.46826 488.53996,568.92077 500.70773,582.17673 C 506.15897,588.11547 514.16945,594.33542 520.17648,598.89548 C 520.65719,599.22721 527.44331,603.318 529.20773,603.45798 C 530.97215,603.318 537.75826,599.22721 538.23898,598.89548 C 544.24601,594.33542 552.25648,588.11547 557.70773,582.17673 C 569.8755,568.92077 579.4148,552.46826 585.55148,534.08298 C 591.73855,515.54669 594.13071,493.37979 592.20773,472.23923 C 591.62394,465.82129 591.19522,462.28199 590.70773,459.83298 C 590.6976,459.78209 589.0831,450.83815 589.11398,449.83298 C 588.1198,449.81887 580.67646,451.17401 575.17648,451.86423 C 566.55034,452.94677 562.10356,452.62752 546.14523,451.08298 C 538.7076,450.36312 534.12236,449.9193 530.23898,449.80173 C 529.88968,449.79116 529.54732,449.80747 529.20773,449.80173 C 528.86813,449.80747 528.52578,449.79116 528.17648,449.80173 C 528.05512,449.8054 527.92427,449.79742 527.80148,449.80173 z "
       id="path5762" />
  </g>
  <path
     sodipodi:nodetypes="cccssscccc"
     id="path5755"
     d="M 383.58386,20.318227 C 268.96479,29.929198 150.14219,48.93312 37.278661,23.710922 C 22.612437,122.29812 11.001004,222.96323 22.882699,323.26787 C 43.06624,550.13934 150.54283,777.30735 338.65024,911.83932 C 350.30336,920.17348 391.37957,945.75703 399.49709,945.76439 C 408.1068,945.77218 448.61765,921.02091 458.7826,913.89605 C 690.51016,751.47215 796.03916,456.20241 780.87517,178.97764 C 777.6446,126.96882 773.93431,72.00033 760.48077,23.311785 C 657.86511,47.035192 551.14455,33.481762 447.21071,22.450645 C 426.06488,20.675244 404.80186,19.873889 383.58386,20.318227 z "
     style="fill:#7b1e20;fill-opacity:1" />
  <path
     style="fill:#fffbff;fill-opacity:1"
     d="M 389.21875 43.96875 C 386.08332 43.990568 382.9499 44.022837 379.8125 44.09375 C 378.19321 44.13034 376.52587 44.230768 374.90625 44.28125 C 269.62495 52.896989 160.86095 67.201669 56.84375 51.375 C 46.076553 115.63189 41.448313 181.65824 43.28125 247.59375 L 757.15625 247.59375 C 758.60113 180.78351 752.89097 114.14771 740.125 49.78125 C 672.35359 66.913585 599.28843 56.777605 529.90625 52.53125 C 483.07218 48.60198 436.25022 43.641486 389.21875 43.96875 z "
     id="path5774" />
  <g
     style="stroke:#e9aa0f;stroke-opacity:1"
     transform="matrix(6.286611,0,0,6.286611,-1937.708,-2827.706)"
     id="g13797">
    <path
       style="fill:#f8fbfd;fill-opacity:1;stroke:#e9aa0f;stroke-width:1.08155334;stroke-miterlimit:4;stroke-dasharray:none;stroke-opacity:1"
       d="M 388.95981,498.01565 L 388.95981,516.15132 L 394.12328,516.15132 L 394.12328,509.23367 L 399.09961,509.23367 L 399.09961,505.09929 L 394.03489,505.09929 L 394.03489,502.23844 L 403.2224,502.23844 L 403.2224,498.01565 L 393.37198,498.01565 L 388.95981,498.01565 z "
       id="rect8439"
       sodipodi:nodetypes="cccccccccccc" />
    <path
       style="fill:#f8fbfd;fill-opacity:1;stroke:#e9aa0f;stroke-width:1.05508757;stroke-miterlimit:4;stroke-dasharray:none;stroke-opacity:1"
       d="M 413.24897,498.18382 C 409.15822,498.58748 405.93661,502.44688 405.93661,507.12059 C 405.93661,512.06276 409.51958,516.09021 413.94381,516.09022 C 416.82593,516.09022 419.37301,514.37675 420.79294,511.81897 L 416.75625,510.80044 C 416.62641,510.93394 416.47565,511.04537 416.32611,511.16186 C 410.14323,514.37594 408.79474,503.21183 413.62403,502.55596 C 413.66856,502.54991 413.71634,502.53124 413.75638,502.5231 C 413.77269,502.5204 413.80505,502.52388 413.82256,502.5231 C 415.06366,502.46883 416.00232,502.69454 416.72316,503.4736 L 420.75985,502.35651 C 419.3334,499.8433 416.80226,498.18381 413.94381,498.18382 C 413.73642,498.18382 413.55167,498.16651 413.34823,498.18382 C 413.31591,498.18657 413.28118,498.18064 413.24897,498.18382 z "
       id="path11112"
       sodipodi:nodetypes="csscccsssccssc" />
  </g>
  <g
     id="g2387"
     style="fill:#7b1e20;fill-opacity:1"
     transform="matrix(6.286611,0,0,6.286611,2398.875,-1328.954)">
    <path
       style="fill:#7b1e20;fill-opacity:1;stroke:#e9aa0f;stroke-width:1.05829442;stroke-miterlimit:4;stroke-dasharray:none;stroke-opacity:1"
       d="M -367.75905,225.69482 L -367.75905,231.22364 L -362.75905,231.22364 L -362.75905,246.97458 L -357.91936,246.97458 L -357.91936,231.22364 L -352.75905,231.22364 L -352.75905,225.69482 L -367.75905,225.69482 z "
       id="rect6660"
       sodipodi:nodetypes="ccccccccc" />
    <rect
       style="fill:#7b1e20;fill-opacity:1;stroke:#e9aa0f;stroke-width:0.99442393;stroke-miterlimit:4;stroke-dasharray:none;stroke-opacity:1"
       id="rect7540"
       width="4.875"
       height="21.407684"
       x="-312.79028"
       y="225.59883" />
    <path
       style="fill:#7b1e20;fill-opacity:1;stroke:#e9aa0f;stroke-width:0.99442393;stroke-miterlimit:4;stroke-dasharray:none;stroke-opacity:1"
       d="M -304.75905,225.5293 L -304.75905,225.68381 L -304.75905,246.94471 L -299.94655,246.94471 L -299.94655,237.33404 L -292.75905,246.85201 L -292.63405,247.00652 L -287.88405,247.00652 L -287.88405,225.5293 L -292.88405,225.5293 L -292.88405,236.22156 L -300.75905,225.5602 L -300.75905,225.5293 L -300.7903,225.5293 L -304.75905,225.5293 z "
       id="rect7543"
       sodipodi:nodetypes="ccccccccccccccc" />
    <path
       style="fill:#7b1e20;fill-opacity:1;stroke:#e9aa0f;stroke-width:0.99442393;stroke-miterlimit:4;stroke-dasharray:none;stroke-opacity:1"
       d="M -331.75905,225.45174 L -331.75905,247.00652 L -326.91936,247.00652 L -326.91936,239.00641 L -323.75905,239.00641 L -320.75905,247.00652 L -315.07274,247.00652 L -318.63405,237.78183 C -316.29078,237.07055 -315.75904,234.59616 -315.75905,231.69404 C -315.75905,228.40821 -317.97516,225.7133 -320.7903,225.45174 L -321.6653,225.45174 L -327.75905,225.45174 L -331.75905,225.45174 z M -326.92851,230.12835 L -326.89726,230.12835 L -326.3528,230.12835 L -322.07155,230.12835 L -321.75905,230.12835 C -320.6581,230.16248 -319.7903,230.85364 -319.7903,232.20722 C -319.7903,233.5608 -320.65809,234.34843 -321.75905,234.38256 L -322.0403,234.38256 L -326.92851,234.38256 L -326.92851,230.12835 z "
       id="rect7547"
       sodipodi:nodetypes="ccccccccscccccccccscccc" />
    <path
       sodipodi:nodetypes="csssssccccc"
       style="fill:#7b1e20;fill-opacity:1;stroke:#e9aa0f;stroke-width:1.06165981;stroke-miterlimit:4;stroke-dasharray:none;stroke-opacity:1"
       d="M -343.20852,225.37208 C -347.86052,225.727 -351.58353,230.42336 -351.58352,236.15704 C -351.58351,242.12152 -347.56033,246.9729 -342.64602,246.9729 C -337.73171,246.97291 -333.77103,242.12154 -333.77102,236.15704 C -333.77101,230.19254 -337.73172,225.37209 -342.64602,225.37208 C -342.72281,225.37209 -342.78846,225.36973 -342.86477,225.37208 C -342.97746,225.37555 -343.09687,225.36356 -343.20852,225.37208 z M -342.98977,230.97419 C -342.97163,230.97106 -342.97682,230.97705 -342.95852,230.97419 C -337.92869,230.75491 -337.43371,240.8075 -342.20852,241.9265 C -347.53118,242.43628 -348.26474,231.80653 -342.98977,230.97419 z "
       id="path9329" />
    <path
       sodipodi:nodetypes="csssssccccc"
       style="fill:#7b1e20;fill-opacity:1;stroke:#e9aa0f;stroke-width:1.06165981;stroke-miterlimit:4;stroke-dasharray:none;stroke-opacity:1"
       d="M -277.55219,225.37208 C -282.20419,225.727 -285.9272,230.42336 -285.92719,236.15704 C -285.92718,242.12152 -281.904,246.9729 -276.98969,246.9729 C -272.07538,246.97291 -268.1147,242.12154 -268.11469,236.15704 C -268.11468,230.19254 -272.07539,225.37209 -276.98969,225.37208 C -277.06648,225.37209 -277.13213,225.36973 -277.20844,225.37208 C -277.32113,225.37555 -277.44054,225.36356 -277.55219,225.37208 z M -277.33344,230.97419 C -277.3153,230.97106 -277.32049,230.97705 -277.30219,230.97419 C -272.27236,230.75491 -271.77738,240.8075 -276.55219,241.9265 C -281.87485,242.43628 -282.60841,231.80653 -277.33344,230.97419 z "
       id="path2385" />
  </g>
  <path
     style="fill:white;fill-opacity:1;fill-rule:evenodd;stroke:none;stroke-width:1px;stroke-linecap:butt;stroke-linejoin:miter;stroke-opacity:1"
     d="M 299.64515,288.87068 C 299.65339,288.88979 299.18925,291.02799 298.76314,293.55722 C 297.65513,300.1334 299.81495,312.14648 300.95006,321.08535 C 302.52172,333.46212 304.17403,336.05025 308.29962,338.9971 C 309.16585,339.61583 309.20916,338.86206 309.98317,338.23925 C 312.77537,335.99241 317.4543,331.6935 317.45242,332.87275 C 317.45066,333.96995 317.26244,334.67317 316.68017,335.56606 C 315.27071,337.72764 312.23566,340.96563 309.59415,353.30423 C 305.86148,370.73977 304.28983,381.83954 302.52172,402.61484 C 300.75361,423.39014 299.77133,425.64936 302.52172,436.40537 C 305.27211,447.16139 307.43313,443.13399 313.52329,445.63883 C 319.61344,448.14367 320.59572,449.51886 326.88234,446.42466 C 333.16895,443.33045 330.86057,437.33856 338.66973,433.26207 C 346.4789,429.18558 348.93457,435.22663 358.11893,430.11876 C 367.30329,425.01089 369.70987,416.3668 375.40711,412.83058 C 381.10435,409.29436 384.24766,410.27664 380.9079,415.97389 C 377.56814,421.67113 366.56657,425.05999 362.04807,435.61955 C 357.52956,446.1791 368.53113,453.74265 362.83389,458.21205 C 357.13665,462.68146 350.80094,455.46166 339.2591,453.4971 C 327.71726,451.53253 323.10056,450.15733 316.66659,450.35379 C 310.23262,450.55025 309.79061,451.72899 313.52329,454.28292 C 317.25596,456.83686 331.99021,458.21205 331.59729,460.56953 C 331.20438,462.92701 320.79218,465.6774 311.95163,463.71284 C 303.11109,461.74827 309.3486,455.85457 296.23511,452.71127 C 283.12161,449.56796 275.95098,448.38922 259.49772,451.13962 C 243.04447,453.89001 240.04852,454.28292 230.42215,463.71284 C 220.79577,473.14275 227.27884,476.48252 220.99223,488.85928 C 214.70562,501.23605 200.36429,507.12975 205.2757,513.2199 C 210.18712,519.31005 230.22569,514.39864 240.63789,513.2199 C 251.05009,512.04116 244.17411,516.16675 246.9245,508.50494 C 249.67489,500.84313 246.9736,490.62739 251.63946,482.57267 C 256.30532,474.51795 256.99289,477.66126 265.58788,476.28606 C 274.18287,474.91086 283.07251,474.91086 286.01936,477.07189 C 288.96621,479.23291 281.30441,480.01874 277.37527,484.93015 C 273.44614,489.84156 271.67803,488.26991 270.30284,496.71755 C 268.92764,505.16518 270.10638,508.55404 271.87449,518.72068 C 273.6426,528.88733 275.01779,526.03868 277.37527,537.38406 C 279.73275,548.72944 276.39299,557.22618 281.30441,564.10216 C 286.21582,570.97814 292.50243,567.24546 297.02093,564.88798 C 301.53943,562.5305 297.80676,560.36948 299.37841,554.67224 C 300.95006,548.975 302.71817,549.76083 303.30754,542.09902 C 303.89691,534.43721 302.32526,538.71016 301.73589,524.02501 C 301.14652,509.33987 297.80676,492.73932 300.95006,483.3585 C 304.09337,473.97768 304.73184,481.9833 314.30911,486.5018 C 323.88639,491.0203 325.16332,495.14589 339.2591,501.4325 C 353.35488,507.71911 356.35082,507.52266 370.69216,511.64825 C 385.03349,515.77384 386.99805,514.05482 396.62443,517.93486 C 406.2508,521.81489 409.3941,526.03868 409.19765,527.16832 C 409.00119,528.29796 406.64371,523.6321 395.8386,522.45336 C 385.03349,521.27462 371.8709,516.95257 365.9772,522.45336 C 360.0835,527.95414 364.99491,534.0443 372.26381,544.4565 C 379.5327,554.8687 389.35553,554.27933 395.05277,564.10216 C 400.75001,573.92499 402.12521,578.44349 395.05277,583.74782 C 387.98034,589.05214 376.3894,580.85007 366.76302,585.31947 C 357.13665,589.78887 358.90476,583.404 356.54728,601.62537 C 354.1898,619.84673 371.23243,643.27416 357.33311,658.20487 C 343.43379,673.13557 327.37345,648.43113 300.95006,661.34817 C 274.52662,674.26521 264.36004,692.83032 251.63946,709.87295 C 238.91888,726.91558 243.24092,724.60719 250.06781,729.51861 C 256.89469,734.43002 267.40509,734.43002 278.94693,729.51861 C 290.48877,724.60719 288.5733,716.15956 296.23511,709.87295 C 303.89691,703.58634 305.66502,709.08712 309.59415,704.37217 C 313.52329,699.65721 309.00479,696.12099 311.95163,691.01312 C 314.89848,685.90525 300.80271,686.88753 321.38155,683.94068 C 341.96039,680.99383 373.09873,681.33765 394.26695,679.22572 C 415.43516,677.1138 402.51812,679.17662 406.05434,675.49305 C 409.59056,671.80947 406.2508,667.63478 408.41182,664.49148 C 410.57284,661.34817 412.73387,659.62916 414.69843,662.91982 C 416.663,666.21049 412.1936,673.97049 416.27009,677.65407 C 420.34658,681.33765 427.91012,682.51638 431.00433,677.65407 C 434.09854,672.79175 428.05748,663.4601 428.64685,658.20487 C 429.23622,652.94964 430.80787,652.16381 433.36181,656.63321 C 435.91574,661.10262 434.93346,668.27325 438.86259,676.08242 C 442.79173,683.89158 442.59527,678.83281 449.07834,687.86981 C 455.5614,696.90681 454.38266,698.67492 464.79486,712.23043 C 475.20706,725.78593 484.24407,731.53227 490.72713,742.09183 C 497.2102,752.65139 497.2102,742.14093 490.72713,754.4686 C 484.24407,766.79626 472.26021,777.25756 464.79486,791.40244 C 457.32951,805.54731 465.58069,802.79692 460.86573,811.0481 C 456.15077,819.29927 451.23936,815.22278 445.93503,824.40714 C 440.6307,833.59151 434.93346,842.13734 439.64842,847.78548 C 444.36338,853.43362 452.61456,849.35713 464.79486,846.99965 C 476.97517,844.64217 479.97112,848.32575 488.36966,838.35556 C 496.76819,828.38537 490.77623,824.5545 498.38894,807.11896 C 506.00165,789.68343 510.17634,780.99024 518.82043,768.61347 C 527.46452,756.23671 529.822,765.02815 532.9653,757.6119 C 536.10861,750.19565 533.25996,745.08778 531.39365,738.94853 C 529.52728,732.80927 529.33082,734.52828 525.49995,733.05483 C 521.66902,731.58143 521.96373,736.00168 516.07003,733.05483 C 510.17634,730.10798 505.65784,726.86648 501.92516,721.26743 C 498.19248,715.66845 498.5854,713.31097 501.13933,710.65878 C 503.69327,708.00664 509.19405,707.12256 512.1409,710.65878 C 515.08775,714.19499 511.15862,720.08869 512.92673,724.80365 C 514.69484,729.51861 517.00322,728.38897 519.21334,729.51861 C 521.42346,730.64825 521.2761,729.51861 521.76728,729.32215 C 522.25839,729.1257 521.52172,733.98801 521.17791,728.73278 C 520.83409,723.47755 517.05232,716.55247 520.39208,708.3013 C 523.73184,700.05012 530.26401,699.65721 534.53695,695.72808 C 538.8099,691.79894 537.18909,694.45114 537.4838,692.58477 C 537.77846,690.71846 534.88077,691.60249 535.71569,688.26272 C 536.55062,684.92296 539.15365,684.38269 540.82357,679.22572 C 542.49342,674.06875 541.26558,666.35785 542.39522,667.63478 C 543.52486,668.91178 543.18104,681.6323 545.34207,684.33359 C 547.50309,687.03489 548.04336,683.40041 551.03931,678.43989 C 554.03526,673.47938 555.55781,673.47938 557.32592,664.49148 C 559.09403,655.50357 553.24943,648.38204 558.11175,642.48834 C 562.97406,636.59464 569.55533,644.64936 576.77512,640.91669 C 583.99492,637.18401 584.63339,639.49239 586.99087,627.55764 C 589.34834,615.62288 588.95543,606.68414 586.20504,593.17773 C 583.45465,579.67133 583.01263,583.74782 575.9893,573.53207 C 568.96596,563.31633 568.27839,565.08444 558.11175,552.31476 C 547.9451,539.54508 534.3405,518.91714 535.32278,522.45336 C 536.30506,525.98958 553.39679,550.54665 562.04088,566.45964 C 570.68497,582.37262 569.89914,578.8364 569.89914,586.1053 C 569.89914,593.37419 568.91686,593.7671 562.04088,595.53521 C 555.1649,597.30332 552.4145,598.48206 542.39522,593.17773 C 532.37593,587.87341 530.60782,583.94427 521.96373,574.3179 C 513.31964,564.69153 514.10547,564.88798 507.81886,554.67224 C 501.53225,544.4565 498.19248,533.06202 496.81729,533.45493 C 495.44209,533.84784 496.03146,541.50965 502.31807,556.24389 C 508.60468,570.97814 527.02251,597.49978 521.96373,592.39191 C 516.90496,587.28404 491.46386,562.08849 482.08304,535.81241 C 472.70223,509.53632 480.9534,489.44865 484.44052,487.28763 C 487.92764,485.12661 494.85272,529.72225 496.03146,527.16832 C 497.2102,524.61438 494.21425,512.92525 489.15548,477.07189 C 484.09671,441.21859 486.60155,416.85797 475.79643,383.755 C 464.99132,350.6521 461.60246,356.79135 445.93503,344.66014 C 430.2676,332.52893 436.65247,339.94518 413.12678,335.23023 C 389.60109,330.51527 372.01825,334.64086 351.83232,325.80031 C 331.64639,316.95976 339.21,303.60071 332.38312,299.86804 C 331.32948,299.29193 332.08143,299.75438 328.38691,297.98212 C 327.66596,299.53567 327.25733,300.98379 327.09118,301.34753 C 325.82832,304.11156 325.66217,308.70865 324.52486,310.86961 C 324.08605,311.70334 323.9414,312.71423 324.39309,313.51822 C 325.97109,316.32689 328.95006,319.07062 324.52486,314.79874 C 320.07155,310.4997 313.02262,298.27199 307.00803,292.94591 C 305.32737,291.45762 299.67998,288.89577 299.64515,288.87068 z M 331.40084,339.55227 C 335.67378,338.42263 344.12142,338.9138 348.68902,339.74873 C 353.25662,340.58365 349.91685,341.6151 349.6713,342.89203 C 349.42574,344.16903 352.22524,344.51278 347.70673,344.8566 C 343.18823,345.20041 335.67378,345.59333 331.59729,344.26723 C 327.5208,342.94113 327.12789,340.68191 331.40084,339.55227 z M 390.14136,346.03534 C 393.28466,345.24951 394.5125,345.69152 393.48112,348.19636 C 392.44974,350.7012 392.15502,353.79541 386.01577,356.05462 C 379.87652,358.31391 374.71948,358.36301 368.92405,357.23336 C 363.12855,356.10372 359.83794,353.00958 362.83389,351.53612 C 365.82984,350.06273 374.08102,352.71486 380.9079,351.33967 C 387.73478,349.96447 386.99805,346.82116 390.14136,346.03534 z M 330.02564,371.18178 C 332.38312,372.75344 336.50871,376.48611 332.38312,379.82587 C 328.25753,383.16563 318.23824,385.52311 313.52329,384.54083 C 308.80833,383.55855 311.16581,378.64713 313.52329,375.89674 C 315.88077,373.14635 318.82761,374.718 322.9532,373.53926 C 327.07879,372.36052 327.66816,369.61013 330.02564,371.18178 z M 556.14718,453.10418 C 545.63672,451.82725 534.53695,452.22016 525.10704,454.67583 C 515.67712,457.13157 512.1409,460.27488 518.42751,462.92701 C 524.71412,465.57921 540.13594,463.90929 550.25348,465.28449 C 560.37097,466.65969 554.47727,465.77566 558.89757,468.4278 C 563.31781,471.07999 565.87175,470.78528 567.93458,475.89315 C 569.99734,481.00102 569.50623,482.67093 567.14875,488.85928 C 564.79127,495.0477 561.05859,492.83751 558.50466,500.64668 C 555.95072,508.45584 555.55781,514.34954 556.93301,520.09588 C 558.3082,525.84222 559.7816,519.50651 564.00544,523.6321 C 568.22923,527.75769 567.78722,530.01697 573.82827,536.59823 C 579.86933,543.17956 584.28957,552.11831 588.1696,549.95728 C 592.04964,547.79626 587.77669,539.20127 589.34834,527.95414 C 590.92,516.70702 593.08102,516.80522 594.45622,504.96872 C 595.83141,493.13223 596.91189,489.74337 594.84913,480.60811 C 592.7863,471.4729 590.82174,472.25873 586.20504,468.4278 C 581.58828,464.59692 577.56095,464.49866 576.38221,465.28449 C 575.20347,466.07032 578.34678,466.75795 581.49008,471.5711 C 584.63339,476.38432 588.36606,473.83038 588.95543,484.53724 C 589.5448,495.24415 585.71387,502.56215 583.84756,514.39864 C 581.98119,526.23513 583.45465,529.37844 581.49008,531.88328 C 579.52551,534.38811 576.38221,532.42355 575.9893,524.41793 C 575.59638,516.4123 579.03434,510.61687 579.91843,499.86085 C 580.80245,489.10484 582.71792,491.41322 579.52551,481.39393 C 576.33311,471.37465 572.99335,466.85614 567.14875,459.78371 C 561.30415,452.71127 566.65758,454.38118 556.14718,453.10418 z M 416.27009,514.39864 C 419.21693,513.36726 427.71367,513.46545 431.39724,515.18447 C 435.08082,516.90348 433.95118,520.24324 431.00433,521.27462 C 428.05748,522.306 423.29342,521.02906 419.60985,519.31005 C 415.92627,517.59104 413.32324,515.43002 416.27009,514.39864 z M 440.43425,614.5915 C 441.80944,615.67204 438.46968,623.72677 437.68385,629.5222 C 436.89803,635.3177 439.15725,635.4159 437.29094,637.77338 C 435.42457,640.13086 431.49544,642.09543 430.2185,638.95212 C 428.9415,635.80881 429.62913,631.29031 432.18307,625.20016 C 434.73701,619.11 439.05905,613.51102 440.43425,614.5915 z M 550.6464,641.3096 C 551.23577,645.23873 551.62868,653.58817 550.6464,657.41904 C 549.66411,661.24997 548.78003,658.49958 546.71726,656.63321 C 544.65444,654.76691 542.00231,653.68636 542.39522,649.95369 C 542.78813,646.22101 546.22609,643.86353 548.28892,641.70251 C 550.35168,639.54149 550.05703,637.38047 550.6464,641.3096 z "
     id="path2435"
     sodipodi:nodetypes="cssssssssssssssssssssssssssssssssssssssssssssssssssssssssssssssssssssssssssssssssssssssssssssssssssssssssssssssssssssssssssssssssscsssssccssssscsssssscssssscssssssssssssssssssssssssscsssscssssscsssss" />
  <g
     inkscape:groupmode="layer"
     id="layer4"
     inkscape:label="bottom" />
  <g
     inkscape:groupmode="layer"
     id="layer2"
     inkscape:label="1906">
    <g
       id="g12989"
       transform="matrix(1.324881,0,0,1.324881,1055.848,-220.0582)">
      <path
         style="fill:white;fill-opacity:1"
         d="M -701.35756,393.08385 C -704.84593,393.38906 -706.21415,393.70365 -707.94916,394.54507 C -709.56535,395.32885 -711.48819,396.21826 -712.99665,397.99479 C -715.81408,401.3129 -716.46035,402.55673 -716.50894,407.43151 C -716.53643,410.19244 -715.14208,412.57709 -713.78624,413.96715 C -711.54313,416.26689 -709.19169,417.35578 -704.44394,417.82609 C -701.04541,418.16275 -697.57155,417.52127 -696.33716,416.85302 C -695.72062,416.51928 -695.15429,416.2423 -694.84222,416.09337 C -694.2792,415.82468 -694.096,415.63243 -694.05826,415.65328 C -693.91786,415.73084 -694.24961,416.86608 -694.3488,417.15159 C -694.65848,418.04315 -695.73527,419.56047 -697.53464,421.4903 C -699.68946,423.80138 -702.54977,425.57261 -705.53621,426.52287 C -707.13574,427.03183 -709.7886,427.9011 -710.35619,428.07078 C -710.41518,428.08841 -710.4183,428.03621 -710.41,428.10542 L -709.80344,433.16133 C -709.80226,433.17126 -708.27787,433.05239 -706.52826,432.73124 C -697.67344,431.10585 -690.15213,424.60854 -688.07004,416.78713 C -686.34315,408.07749 -685.64648,398.02725 -695.32005,394.2573 C -697.03243,393.58972 -699.02144,393.14272 -701.35756,393.08385 z M -701.29742,399.54055 C -699.22378,399.5266 -697.1234,400.06008 -695.41023,401.27382 C -692.67887,403.20898 -692.42746,407.88086 -694.93426,410.11758 C -700.09913,414.72602 -710.30609,412.09501 -710.30609,406.15436 C -710.30609,402.24882 -705.85948,399.57121 -701.29742,399.54055 z "
         id="path9346"
         sodipodi:nodetypes="csssssssssssssssssscsssc" />
      <path
         style="fill:white;fill-opacity:1"
         d="M -666.00933,393.56531 C -671.0995,393.56368 -676.15676,396.01138 -678.66055,400.90892 C -680.8616,405.21427 -681.68736,416.65239 -680.1386,421.39907 C -678.54191,426.29282 -675.36214,430.20778 -671.58589,431.93556 C -665.10249,434.90198 -657.39293,431.99718 -653.35814,425.06834 C -650.60937,420.34792 -650.49194,405.88601 -653.16274,400.91399 C -655.7944,396.01481 -660.91919,393.56694 -666.00933,393.56531 z M -665.95924,400.00174 C -663.5313,400.00174 -661.10266,400.92459 -659.74136,402.76889 C -655.76545,408.15551 -656.15913,420.45658 -660.44783,424.79467 C -663.65278,428.03653 -667.98061,427.94984 -671.31533,424.57675 C -675.77974,420.06094 -676.24132,408.28188 -672.1721,402.76889 C -670.8108,400.92459 -668.3872,400.00174 -665.95924,400.00174 z "
         id="path9342" />
      <rect
         style="fill:white;fill-opacity:1;stroke:none"
         id="rect8447"
         width="6.0926232"
         height="38.889339"
         x="-729.49561"
         y="393.401" />
      <path
         style="fill:white;fill-opacity:1"
         d="M -630.75953,433.61606 C -627.27115,433.31085 -625.90293,432.99625 -624.16792,432.15484 C -622.55175,431.37105 -620.62888,430.48163 -619.12043,428.70512 C -616.30299,425.38701 -615.65674,424.14318 -615.60816,419.2684 C -615.58064,416.50746 -616.975,414.12282 -618.33085,412.73275 C -620.57396,410.43301 -622.9254,409.34412 -627.67314,408.87382 C -631.07168,408.53716 -634.54552,409.17864 -635.77992,409.84688 C -636.39645,410.18063 -636.96279,410.45761 -637.27484,410.60653 C -637.83787,410.87522 -638.02108,411.06748 -638.05883,411.04663 C -638.19923,410.96906 -637.86745,409.83383 -637.76829,409.54831 C -637.45861,408.65675 -636.3818,407.13944 -634.58246,405.20961 C -632.42762,402.89853 -629.5673,401.12729 -626.58087,400.17703 C -624.98134,399.66806 -622.32847,398.79881 -621.76091,398.62912 C -621.70191,398.61149 -621.69879,398.6637 -621.70708,398.59449 L -622.31364,393.53857 C -622.31483,393.52865 -623.83922,393.6475 -625.58882,393.96866 C -634.44363,395.59406 -641.96495,402.09136 -644.04705,409.91276 C -645.77393,418.62242 -646.47059,428.67266 -636.79702,432.44261 C -635.08464,433.11018 -633.09566,433.55719 -630.75953,433.61606 z M -630.81966,427.15936 C -632.89331,427.1733 -634.99369,426.63983 -636.70686,425.42608 C -639.43822,423.49093 -639.6896,418.81905 -637.18284,416.58233 C -632.01794,411.97389 -621.811,414.6049 -621.811,420.54554 C -621.811,424.45109 -626.25761,427.12869 -630.81966,427.15936 z "
         id="path12940"
         sodipodi:nodetypes="csssssssssssssssssscsssc" />
    </g>
  </g>
</svg>
