<?xml version="1.0" encoding="utf-8"?>
<!-- Generator: Adobe Illustrator 13.0.0, SVG Export Plug-In . SVG Version: 6.00 Build 14948)  -->
<!DOCTYPE svg PUBLIC "-//W3C//DTD SVG 1.1//EN" "http://www.w3.org/Graphics/SVG/1.1/DTD/svg11.dtd">
<svg version="1.1" id="Ebene_1" xmlns="http://www.w3.org/2000/svg" xmlns:xlink="http://www.w3.org/1999/xlink" x="0px" y="0px"
	 width="431.863px" height="566.929px" viewBox="0 0 431.863 566.929" enable-background="new 0 0 431.863 566.929"
	 xml:space="preserve">
<path fill-rule="evenodd" clip-rule="evenodd" fill="#009CCF" d="M215.931,0c119.235,0,215.932,126.938,215.932,283.464
	c0,156.527-96.696,283.465-215.932,283.465C96.696,566.929,0,439.991,0,283.464C0,126.938,96.696,0,215.931,0L215.931,0z"/>
<path fill-rule="evenodd" clip-rule="evenodd" fill="#FFFFFF" d="M215.931,6.263c115.777,0,209.669,124.133,209.669,277.202
	c0,153.069-93.892,277.202-209.669,277.202S6.263,436.534,6.263,283.465C6.263,130.396,100.154,6.263,215.931,6.263L215.931,6.263z"
	/>
<path fill-rule="evenodd" clip-rule="evenodd" fill="#009CCF" d="M215.931,61.374c91.714,0,166.09,99.455,166.09,222.092
	c0,122.637-74.376,222.092-166.09,222.092c-91.713,0-166.089-99.455-166.089-222.092C49.842,160.829,124.218,61.374,215.931,61.374
	L215.931,61.374z"/>
<polygon fill-rule="evenodd" clip-rule="evenodd" fill="#DBB25E" points="215.928,76.47 228.245,103.969 257.842,107.35 
	235.856,127.724 241.832,157.313 215.928,142.407 190.024,157.313 196,127.724 174.014,107.35 203.611,103.969 215.928,76.47 "/>
<polygon fill-rule="evenodd" clip-rule="evenodd" fill="#FFFFFF" points="192.803,181.662 240.033,181.662 240.033,296.872 
	329.482,296.872 329.482,345.89 240.033,345.89 240.033,471.478 192.803,471.478 192.803,345.89 104.07,345.89 104.07,296.872 
	192.803,296.872 192.803,181.662 "/>
<path fill-rule="evenodd" clip-rule="evenodd" fill="#E00D23" d="M137.259,185.69c17.863,7.122,38.796,8.468,58.12,4.586v109.217
	H105.49c-0.972-39.53,7.092-80.065,26.66-112.101l1.836-3.007L137.259,185.69L137.259,185.69z M236.477,190.214
	c19.359,3.909,40.313,2.646,58.25-4.459l3.307-1.311l1.819,3.056c19.287,32.407,27.565,72.633,26.641,111.993h-90.017V190.214
	L236.477,190.214z M321.597,343.288c-1.443,7.09-3.189,14.035-5.231,20.768c-13.357,44.039-41.25,78.869-79.889,101.463v-122.23
	H321.597L321.597,343.288z M195.379,465.909c-38.25-22.344-67.602-59.719-80.078-102.244c-1.933-6.592-3.598-13.406-4.983-20.377
	h85.062V465.909L195.379,465.909z"/>
<path fill-rule="evenodd" clip-rule="evenodd" fill="#DBB25E" d="M215.931,491.327c61.67-24.801,98.376-71.58,114.019-123.15
	c16.232-53.518,18.977-140.096-27.579-202.44c-18.524,12.813-55.07,19.157-86.439,2.314c-25.354,13.842-62.559,13.985-86.106-2.282
	c-41.197,53.228-47.472,136.017-28.145,201.89C117.196,420.548,158.451,469.933,215.931,491.327L215.931,491.327z M135.712,189.569
	c-30.168,49.389-32.157,119.233-16.405,172.92c14.092,48.035,50.281,89.379,96.411,108.984
	c47.218-21.008,81.47-58.576,96.653-108.629c16.445-54.221,13.694-123.141-16.105-173.209c-25.088,9.94-55.614,8.911-80.28-1.269
	C191.358,198.646,160.753,199.551,135.712,189.569L135.712,189.569z"/>
<polygon fill="#009CCF" points="82.569,80.672 91.707,72.549 116.616,76.574 103.623,61.957 112.841,53.762 136.329,80.185 
	127.11,88.379 102.358,84.412 115.254,98.919 106.057,107.094 82.569,80.672 "/>
<path fill="#009CCF" d="M133.176,61.988c-2.752-5.071-3.215-9.935-1.397-14.573c1.82-4.651,5.726-8.596,11.709-11.844
	c6.137-3.333,11.622-4.511,16.453-3.537c4.817,0.973,8.596,3.959,11.309,8.958c1.972,3.632,2.86,7.008,2.67,10.118
	c-0.191,3.11-1.305,6.056-3.339,8.838c-2.045,2.786-5.103,5.28-9.199,7.503c-4.155,2.255-7.899,3.567-11.234,3.935
	c-3.329,0.356-6.495-0.212-9.506-1.705C137.64,68.182,135.148,65.62,133.176,61.988L133.176,61.988z M144.602,55.843
	c1.705,3.14,3.611,5.017,5.74,5.641c2.125,0.616,4.386,0.279,6.764-1.012c2.447-1.329,3.979-3.031,4.592-5.097
	c0.609-2.072-0.021-4.849-1.906-8.322c-1.59-2.93-3.452-4.682-5.586-5.276c-2.13-0.585-4.392-0.229-6.796,1.078
	c-2.292,1.244-3.768,2.926-4.413,5.055C142.347,50.033,142.885,52.682,144.602,55.843L144.602,55.843z"/>
<polygon fill="#009CCF" points="172.468,22.87 185.75,21.062 198.434,45.012 204.114,18.563 217.012,16.807 206.527,53.913 
	192.766,55.786 172.468,22.87 "/>
<path fill="#009CCF" d="M246.315,51.305l-14.304-2.264l-2.882,5.452L216.3,52.461l20.799-32.5l13.691,2.167l9.75,37.337
	l-13.143-2.081L246.315,51.305L246.315,51.305z M244.881,43.336l-2.507-13.264l-6.452,11.845L244.881,43.336L244.881,43.336z"/>
<path fill="#009CCF" d="M324.979,93.533l-10.948-9.481l-5.326,3.106l-9.818-8.504l34.83-16.602l10.479,9.074l-11.45,36.853
	l-10.058-8.712L324.979,93.533L324.979,93.533z M327.972,86.009l4.882-12.585l-11.739,6.646L327.972,86.009L327.972,86.009z"/>
<path fill="#009CCF" d="M263.114,60.284l16.038-31.506l19.438,9.895c3.603,1.833,6.231,3.495,7.864,4.981
	c1.646,1.484,2.697,3.221,3.153,5.216c0.46,1.989,0.173,3.986-0.846,5.988c-0.893,1.754-2.106,3.029-3.64,3.846
	c-1.543,0.813-3.296,1.214-5.255,1.214c-1.256-0.011-2.83-0.287-4.726-0.844c1.19,1.096,2.004,1.998,2.447,2.713
	c0.291,0.471,0.635,1.339,1.022,2.599c0.385,1.267,0.601,2.19,0.638,2.791l0.992,12.005l-13.181-6.709l-1.328-12.803
	c-0.159-1.643-0.447-2.815-0.882-3.506c-0.589-0.909-1.423-1.639-2.485-2.18l-1.028-0.522l-6.509,12.785L263.114,60.284
	L263.114,60.284z M284.369,47.504l4.921,2.504c0.526,0.268,1.626,0.653,3.301,1.145c0.84,0.261,1.642,0.253,2.401-0.024
	c0.752-0.282,1.308-0.766,1.659-1.456c0.52-1.02,0.529-1.993,0.031-2.931c-0.492-0.943-1.804-1.953-3.931-3.036l-5.123-2.607
	L284.369,47.504L284.369,47.504z"/>
<path fill="#009CCF" d="M147.826,520.933l6.654,7.496c-5.485,6.424-12.651,8.766-20.624,4.645
	c-6.079-3.141-9.447-7.934-9.366-15.156c0.049-3.684,1.288-7.738,3.735-12.168c3.266-5.908,7.122-9.709,11.56-11.389
	c4.442-1.689,9.125-1.174,14.038,1.543c3.849,2.127,6.37,4.703,7.568,7.74c1.199,3.039,1.292,6.734,0.279,11.088l-9.534-2.438
	c0.31-1.25,0.445-2.217,0.405-2.9c-0.063-1.131-0.351-2.137-0.859-3.014c-0.516-0.883-1.246-1.578-2.191-2.1
	c-2.134-1.18-4.332-1.082-6.582,0.301c-1.687,1.02-3.416,3.123-5.185,6.322c-2.19,3.963-3.168,6.959-2.958,8.996
	c0.219,2.039,1.258,3.57,3.115,4.596c1.807,0.998,3.499,1.162,5.079,0.484C144.538,524.312,146.157,522.96,147.826,520.933
	L147.826,520.933z"/>
<path fill="#009CCF" d="M176.37,542.255l-11.726-3.666l-3.622,5.918l-10.516-3.289l24.688-35.002l11.222,3.51l0.354,42.834
	l-10.772-3.369L176.37,542.255L176.37,542.255z M176.847,533.163l0.692-15.143l-8.036,12.846L176.847,533.163L176.847,533.163z"/>
<polygon fill="#009CCF" points="195.05,511.653 205.825,512.233 204.17,542.921 220.974,543.827 220.433,553.856 192.854,552.37 
	195.05,511.653 "/>
<path fill="#009CCF" d="M245.846,535.157l9.911,1.494c-0.036,3.158-0.528,5.883-1.477,8.184c-2.073,5.037-6.168,7.59-11.384,8.594
	c-6.958,1.342-12.337-0.041-16.901-5.635c-2.322-2.861-3.969-6.768-4.927-11.736c-2.145-11.123,1.119-21.604,13.347-23.961
	c8.484-1.633,14.279,1.873,18.088,9.432l-8.883,4.234c-0.563-1.158-1.078-1.986-1.547-2.486c-0.771-0.826-1.639-1.414-2.591-1.762
	c-0.96-0.348-1.967-0.414-3.027-0.211c-2.394,0.463-4.019,1.945-4.86,4.447c-0.643,1.865-0.623,4.588,0.069,8.178
	c0.857,4.445,2.025,7.373,3.492,8.801c1.476,1.428,3.254,1.936,5.336,1.535c2.026-0.393,3.431-1.35,4.211-2.883
	C245.486,539.858,245.864,537.784,245.846,535.157L245.846,535.157z"/>
<polygon fill="#009CCF" points="250.758,509.938 260.907,506.224 274.918,544.519 264.769,548.231 250.758,509.938 "/>
<path fill="#009CCF" d="M272.804,524.442c-3.159-5.857-4.218-11.176-3.187-15.938c1.034-4.777,4.046-8.504,9.031-11.191
	c5.113-2.76,9.92-3.279,14.418-1.564c4.486,1.713,8.299,5.459,11.412,11.232c2.263,4.195,3.512,7.967,3.75,11.299
	c0.237,3.336-0.38,6.365-1.855,9.092c-1.482,2.73-3.921,5.006-7.331,6.846c-3.463,1.867-6.677,2.77-9.646,2.709
	c-2.965-0.072-5.903-1.119-8.825-3.146C277.658,531.749,275.067,528.638,272.804,524.442L272.804,524.442z M282.329,519.37
	c1.956,3.627,3.93,5.918,5.938,6.885c2.004,0.957,4.005,0.902,5.986-0.166c2.038-1.1,3.199-2.729,3.482-4.877
	c0.276-2.154-0.659-5.242-2.822-9.254c-1.826-3.385-3.742-5.531-5.75-6.467c-2.004-0.926-4.003-0.85-6.007,0.23
	c-1.909,1.029-3.023,2.645-3.325,4.857C279.524,512.784,280.36,515.72,282.329,519.37L282.329,519.37z"/>
<path fill="#009CCF" d="M404.569,268.969v26.899h4.132c0.98,0,1.682,0.229,2.104,0.688s0.626,1.049,0.626,1.785
	c0,0.719-0.204,1.309-0.626,1.758c-0.422,0.459-1.123,0.688-2.104,0.688h-12.347c-0.979,0-1.681-0.229-2.104-0.688
	c-0.414-0.449-0.625-1.047-0.625-1.783c0-0.721,0.211-1.301,0.625-1.76c0.423-0.459,1.124-0.688,2.104-0.688h4.132v-20.491
	l-3.648,1.146c-0.585,0.196-1.027,0.286-1.32,0.286c-0.518,0-0.967-0.246-1.341-0.745c-0.381-0.491-0.571-1.096-0.571-1.816
	c0-0.655,0.143-1.17,0.422-1.547c0.279-0.376,0.864-0.712,1.749-0.999L404.569,268.969L404.569,268.969z"/>
<path fill="#009CCF" d="M31.973,268.238v26.9h4.131c0.981,0,1.682,0.229,2.104,0.688c0.421,0.457,0.626,1.047,0.626,1.783
	c0,0.721-0.205,1.311-0.626,1.76c-0.422,0.459-1.123,0.688-2.104,0.688H23.758c-0.979,0-1.681-0.229-2.104-0.688
	c-0.415-0.449-0.625-1.049-0.625-1.785c0-0.719,0.21-1.301,0.625-1.758c0.422-0.459,1.124-0.688,2.104-0.688h4.131v-20.492
	l-3.648,1.146c-0.585,0.196-1.028,0.287-1.321,0.287c-0.517,0-0.966-0.246-1.34-0.745c-0.381-0.491-0.572-1.096-0.572-1.817
	c0-0.654,0.143-1.17,0.421-1.546c0.28-0.376,0.865-0.712,1.75-0.999L31.973,268.238L31.973,268.238z"/>
<path fill="#009CCF" d="M400.867,333.261c-1.138,1.143-2.148,1.963-3.031,2.473c-0.881,0.5-1.771,0.787-2.685,0.855
	c-2.114,0.16-3.819-0.768-5.108-2.773c-1.294-2.014-1.716-4.609-1.28-7.768c0.341-2.473,1.197-4.764,2.565-6.863
	c1.867-2.889,4.16-4.438,6.865-4.641c1.937-0.146,3.529,0.461,4.772,1.809c1.25,1.354,2.022,3.383,2.325,6.084
	c0.297,2.703,0.242,5.547-0.171,8.541c-0.699,5.07-2.817,9.256-6.358,12.559c-2.735,2.537-5.538,3.918-8.415,4.135
	c-1.588,0.121-2.767-0.191-3.521-0.938c-0.518-0.484-0.717-1.164-0.598-2.033c0.099-0.711,0.371-1.32,0.812-1.828
	c0.446-0.5,0.946-0.775,1.498-0.816c0.301-0.023,0.633,0.066,0.986,0.285c0.454,0.285,0.958,0.402,1.509,0.361
	c1.99-0.15,3.939-1.141,5.855-2.971C398.803,337.903,400.127,335.749,400.867,333.261L400.867,333.261z M401.388,325.481
	c-0.109-2.268-0.509-3.85-1.204-4.746c-0.694-0.896-1.574-1.305-2.638-1.225c-1.116,0.084-2.144,0.691-3.072,1.826
	c-0.93,1.135-1.52,2.586-1.765,4.363c-0.256,1.854-0.063,3.328,0.566,4.418c0.63,1.082,1.45,1.594,2.461,1.518
	C397.523,331.501,399.406,329.444,401.388,325.481L401.388,325.481z"/>
<path fill="#009CCF" d="M40.874,334.093c-0.75,1.271-1.466,2.199-2.147,2.791c-0.682,0.584-1.429,0.945-2.253,1.078
	c-1.91,0.309-3.728-0.547-5.449-2.563c-1.727-2.021-2.801-4.711-3.232-8.049c-0.337-2.609-0.152-5.066,0.558-7.357
	c0.962-3.152,2.671-4.928,5.115-5.322c1.75-0.283,3.382,0.248,4.886,1.574c1.511,1.334,2.759,3.408,3.752,6.217
	c0.986,2.811,1.687,5.791,2.095,8.953c0.691,5.355-0.16,9.881-2.56,13.578c-1.855,2.842-4.08,4.477-6.678,4.896
	c-1.435,0.23-2.607-0.016-3.5-0.746c-0.606-0.473-0.968-1.172-1.087-2.09c-0.097-0.75-0.007-1.406,0.266-1.969
	c0.28-0.553,0.669-0.873,1.167-0.955c0.272-0.045,0.603,0.027,0.986,0.232c0.496,0.268,0.992,0.357,1.49,0.277
	c1.797-0.291,3.336-1.459,4.623-3.504S40.848,336.747,40.874,334.093L40.874,334.093z M39.303,325.911
	c-0.699-2.367-1.485-3.996-2.363-4.889c-0.879-0.893-1.798-1.262-2.76-1.105c-1.008,0.162-1.795,0.869-2.354,2.119
	c-0.56,1.25-0.722,2.811-0.479,4.688c0.252,1.957,0.82,3.488,1.689,4.588c0.868,1.092,1.759,1.57,2.673,1.422
	C37.322,332.474,38.518,330.192,39.303,325.911L39.303,325.911z"/>
<path fill="#009CCF" d="M397.5,373.122l-0.984,5.457c-0.582,3.223-1.906,6.381-3.986,9.469c-2.079,3.082-4.549,4.748-7.421,4.988
	c-1.656,0.141-2.979-0.18-3.962-0.969c-0.985-0.781-1.772-2.318-2.372-4.596c-0.593-2.279-0.653-4.74-0.176-7.387l0.983-5.455
	c0.579-3.209,1.903-6.365,3.977-9.453c2.075-3.1,4.544-4.764,7.417-5.006c1.643-0.139,2.959,0.184,3.944,0.955
	c0.984,0.779,1.78,2.309,2.387,4.586C397.919,367.989,397.979,370.46,397.5,373.122L397.5,373.122z M393.374,373.47
	c0.486-2.695,0.289-5-0.593-6.912c-0.503-1.057-1.401-1.527-2.682-1.42c-1.244,0.105-2.367,0.803-3.376,2.102
	c-1.524,1.951-2.534,4.299-3.03,7.043l-0.984,5.457c-0.488,2.713-0.283,5.016,0.606,6.912c0.497,1.057,1.389,1.525,2.688,1.416
	c1.226-0.102,2.348-0.799,3.355-2.088c1.525-1.961,2.535-4.309,3.031-7.055L393.374,373.47L393.374,373.47z"/>
<path fill="#009CCF" d="M51.673,372.681l1.169,5.297c0.691,3.131,0.669,6.268-0.078,9.414c-0.749,3.137-2.4,4.961-4.967,5.467
	c-1.479,0.291-2.826,0.111-4.036-0.547c-1.208-0.65-2.523-2.041-3.946-4.156c-1.417-2.117-2.413-4.459-2.979-7.027l-1.169-5.299
	c-0.687-3.115-0.666-6.252,0.076-9.396c0.739-3.152,2.39-4.977,4.957-5.482c1.466-0.289,2.806-0.107,4.014,0.535
	c1.208,0.648,2.527,2.031,3.956,4.146C50.105,367.743,51.103,370.095,51.673,372.681L51.673,372.681z M47.987,373.405
	c-0.578-2.617-1.638-4.797-3.183-6.535c-0.868-0.961-1.879-1.324-3.022-1.098c-1.111,0.219-1.886,0.99-2.324,2.324
	c-0.667,2.008-0.707,4.344-0.118,7.01l1.169,5.299c0.581,2.633,1.648,4.811,3.195,6.533c0.863,0.961,1.868,1.324,3.028,1.094
	c1.095-0.215,1.868-0.986,2.308-2.313c0.665-2.016,0.705-4.352,0.116-7.018L47.987,373.405L47.987,373.405z"/>
<path fill="#009CCF" d="M380.049,421.032c0.6,1.01,0.938,2.137,1.03,3.393c0.09,1.244-0.076,2.609-0.487,4.076
	c-0.457,1.629-1.153,3.121-2.091,4.453c-0.933,1.342-2.106,2.381-3.511,3.105c-1.405,0.732-2.829,1.061-4.276,0.986
	c-1.447-0.076-2.638-0.541-3.576-1.396c-0.94-0.846-1.495-1.977-1.665-3.383c-0.169-1.408-0.026-2.912,0.427-4.533
	c0.411-1.467,1.01-2.809,1.784-4.01c0.777-1.209,1.734-2.27,2.868-3.188c-0.474-1.055-0.738-2.16-0.808-3.314
	c-0.062-1.162,0.084-2.373,0.439-3.645c0.695-2.479,1.951-4.584,3.768-6.314c1.821-1.73,3.763-2.541,5.82-2.434
	c2.06,0.107,3.495,1.094,4.304,2.963c0.81,1.867,0.872,4.041,0.177,6.521c-0.36,1.287-0.889,2.484-1.586,3.607
	C381.968,419.036,381.096,420.075,380.049,421.032L380.049,421.032z M380.771,414.229c0.335-1.199,0.299-2.246-0.116-3.121
	c-0.413-0.887-1.175-1.354-2.28-1.412c-1.116-0.057-2.12,0.316-3.01,1.135c-0.893,0.807-1.506,1.82-1.842,3.02
	c-0.34,1.215-0.306,2.27,0.115,3.146c0.412,0.885,1.18,1.352,2.296,1.41c1.105,0.059,2.104-0.318,2.994-1.135
	C379.815,416.466,380.43,415.444,380.771,414.229L380.771,414.229z M377.159,428.567c0.36-1.287,0.304-2.467-0.169-3.543
	c-0.472-1.078-1.271-1.637-2.399-1.695c-1.128-0.061-2.218,0.4-3.271,1.398c-1.048,0.998-1.758,2.152-2.126,3.465
	c-0.283,1.014-0.207,1.914,0.239,2.701c0.451,0.789,1.34,1.213,2.68,1.283c1.346,0.07,2.45-0.25,3.312-0.969
	C376.291,430.489,376.866,429.614,377.159,428.567L377.159,428.567z"/>
<path fill="#009CCF" d="M63.399,420.671c1.102,0.973,2.004,2.078,2.723,3.322c0.712,1.234,1.229,2.602,1.553,4.084
	c0.359,1.645,0.412,3.166,0.145,4.541c-0.26,1.383-0.909,2.48-1.945,3.273c-1.036,0.803-2.29,1.203-3.77,1.203
	c-1.48,0-2.898-0.4-4.261-1.203c-1.361-0.793-2.479-1.891-3.351-3.281s-1.484-2.896-1.842-4.533
	c-0.324-1.482-0.399-2.85-0.228-4.084c0.17-1.244,0.594-2.35,1.264-3.322c-0.999-1.023-1.816-2.111-2.462-3.258
	c-0.643-1.154-1.103-2.365-1.384-3.65c-0.548-2.504-0.349-4.664,0.595-6.48c0.95-1.816,2.479-2.725,4.584-2.725
	c2.105,0,4.03,0.908,5.771,2.725s2.889,3.977,3.438,6.48c0.285,1.303,0.357,2.521,0.224,3.674
	C64.313,418.583,63.964,419.663,63.399,420.671L63.399,420.671z M60.715,413.86c-0.265-1.209-0.825-2.25-1.677-3.1
	c-0.854-0.859-1.847-1.285-2.978-1.285c-1.142,0-1.954,0.426-2.432,1.285c-0.485,0.85-0.59,1.891-0.326,3.1
	c0.269,1.229,0.831,2.275,1.688,3.127c0.854,0.859,1.853,1.285,2.995,1.285c1.129,0,1.938-0.426,2.415-1.285
	C60.88,416.136,60.984,415.089,60.715,413.86L60.715,413.86z M64.288,428.321c-0.285-1.301-0.931-2.471-1.941-3.518
	c-1.009-1.049-2.085-1.564-3.239-1.564s-2.01,0.516-2.561,1.564c-0.545,1.047-0.675,2.232-0.385,3.559
	c0.224,1.023,0.751,1.916,1.589,2.676c0.843,0.762,1.941,1.139,3.313,1.139c1.376,0,2.315-0.377,2.814-1.139
	C64.383,430.278,64.518,429.378,64.288,428.321L64.288,428.321z"/>
</svg>
