<?xml version="1.0" encoding="utf-8"?>
<!-- Generator: Adobe Illustrator 14.0.0, SVG Export Plug-In . SVG Version: 6.00 Build 43363)  -->
<!DOCTYPE svg PUBLIC "-//W3C//DTD SVG 1.1//EN" "http://www.w3.org/Graphics/SVG/1.1/DTD/svg11.dtd">
<svg version="1.1" id="Logo" xmlns="http://www.w3.org/2000/svg" xmlns:xlink="http://www.w3.org/1999/xlink" x="0px" y="0px"
	 width="596.27px" height="850.153px" viewBox="0 0 596.27 850.153" enable-background="new 0 0 596.27 850.153"
	 xml:space="preserve">
<g>
	<path fill="#00265D" d="M298.192,850.153c0,0-97.148-52.245-183.395-134.821C28.551,632.757,0,582.292,0,582.292V33.409
		c0,0,44.307,8.529,139.084,8.529C263.004,41.938,298.192,0,298.192,0s35.074,41.938,158.993,41.938
		c94.778,0,139.084-8.529,139.084-8.529v548.883c0,0-28.552,50.465-114.797,133.041
		C395.225,797.908,298.192,850.153,298.192,850.153L298.192,850.153z"/>
	<path fill="#FFDA00" d="M545.324,111.833v445.579c-3.278,4.436-57.264,74.371-100.024,113.623
		c-41.393,37.995-85.906,69.456-120.458,91.563c-9.878,6.32-18.872,11.831-26.666,16.472c-7.804-4.643-16.814-10.157-26.709-16.483
		c-34.579-22.105-79.113-53.563-120.496-91.551c-42.762-39.252-96.747-109.188-100.024-113.623V111.833H545.324L545.324,111.833z"/>
	<path fill="#FFDA00" d="M284.127,259.354c0,0-1.153-46.311,3.21-69.584c4.364-23.274,18.627-45.239,18.627-45.239l5.527,4.102
		c0,0,2.272,10.69,3.625,14.128c1.351,3.437,4.589,20.128,7.551,23.844c2.963,3.716,8.167,10.679,9.708,15.007
		c1.541,4.328,2.342,6.64,2.342,6.64l3.511,4.841c0,0,3.658,6.981,5.073,10.715c1.415,3.734-0.605,19.062,2.439,24.621
		c3.044,5.561,3.833,16.566-1.015,24.425c-4.848,7.859-13.681,15.943-15.507,17.573s-6.288,6.923-6.288,6.923l-7.888-12.29
		l-10.777-9.813l-18.875-9.955L284.127,259.354L284.127,259.354z"/>
	<g>
		<defs>
			<path id="SVGID_1_" d="M284.127,259.354c0,0-1.153-46.311,3.21-69.584c4.364-23.274,18.627-45.239,18.627-45.239l5.527,4.102
				c0,0,2.272,10.69,3.625,14.128c1.351,3.437,4.589,20.128,7.551,23.844c2.963,3.716,8.167,10.679,9.708,15.007
				c1.541,4.328,2.342,6.64,2.342,6.64l3.511,4.841c0,0,3.658,6.981,5.073,10.715c1.415,3.734-0.605,19.062,2.439,24.621
				c3.044,5.561,3.833,16.566-1.015,24.425c-4.848,7.859-13.681,15.943-15.507,17.573s-6.288,6.923-6.288,6.923l-7.888-12.29
				l-10.777-9.813l-18.875-9.955L284.127,259.354L284.127,259.354z"/>
		</defs>
		<clipPath id="SVGID_2_">
			<use xlink:href="#SVGID_1_"  overflow="visible"/>
		</clipPath>
		<path clip-path="url(#SVGID_2_)" fill="none" stroke="#00265D" stroke-width="2" stroke-miterlimit="3.8637" d="M301.946,151.904
			l82.171,59.505 M298.438,157.305l82.17,59.505 M294.931,162.706l82.172,59.505 M291.423,168.107l82.172,59.505 M287.917,173.508
			l82.17,59.505 M284.409,178.909l82.17,59.505 M280.901,184.311l82.171,59.505 M277.394,189.711l82.171,59.505 M273.886,195.112
			l82.171,59.505 M270.378,200.513l82.172,59.505 M266.871,205.915l82.171,59.505 M263.364,211.315l82.17,59.505 M259.855,216.716
			l82.172,59.505 M256.349,222.117l82.171,59.505 M252.841,227.519l82.171,59.505 M249.333,232.92l82.171,59.505"/>
	</g>
	<path fill="none" stroke="#00265D" stroke-width="4" stroke-miterlimit="3.8637" d="M284.127,259.354c0,0-1.153-46.311,3.21-69.584
		c4.364-23.274,18.627-45.239,18.627-45.239l5.527,4.102c0,0,2.272,10.69,3.625,14.128c1.351,3.437,4.589,20.128,7.551,23.844
		c2.963,3.716,8.167,10.679,9.708,15.007c1.541,4.328,2.342,6.64,2.342,6.64l3.511,4.841c0,0,3.658,6.981,5.073,10.715
		c1.415,3.734-0.605,19.062,2.439,24.621c3.044,5.561,3.833,16.566-1.015,24.425c-4.848,7.859-13.681,15.943-15.507,17.573
		s-6.288,6.923-6.288,6.923l-7.888-12.29l-10.777-9.813l-18.875-9.955L284.127,259.354L284.127,259.354z"/>
	<path fill="#FFDA00" d="M288.752,255.068c0,0,8.5-45.538,17.608-67.396c9.107-21.858,27.626-40.377,27.626-40.377l4.554,5.162
		c0,0,0,10.93,0.607,14.572c0.607,3.643,0.304,20.644,2.429,24.894c2.125,4.25,5.768,12.143,6.375,16.697
		c0.608,4.554,0.911,6.982,0.911,6.982l2.429,5.465c0,0,2.125,7.589,2.732,11.536c0.607,3.947-4.554,18.519-2.732,24.59
		s0.303,17.001-6.072,23.68c-6.376,6.679-16.697,12.75-18.823,13.965c-2.125,1.214-7.589,5.465-7.589,5.465l-5.161-13.662
		l-8.5-11.84l-16.394-13.661V255.068L288.752,255.068z"/>
	<g>
		<defs>
			<path id="SVGID_3_" d="M288.752,255.068c0,0,8.5-45.538,17.608-67.396c9.107-21.858,27.626-40.377,27.626-40.377l4.554,5.162
				c0,0,0,10.93,0.607,14.572c0.607,3.643,0.304,20.644,2.429,24.894c2.125,4.25,5.768,12.143,6.375,16.697
				c0.608,4.554,0.911,6.982,0.911,6.982l2.429,5.465c0,0,2.125,7.589,2.732,11.536c0.607,3.947-4.554,18.519-2.732,24.59
				s0.303,17.001-6.072,23.68c-6.376,6.679-16.697,12.75-18.823,13.965c-2.125,1.214-7.589,5.465-7.589,5.465l-5.161-13.662
				l-8.5-11.84l-16.394-13.661V255.068L288.752,255.068z"/>
		</defs>
		<clipPath id="SVGID_4_">
			<use xlink:href="#SVGID_3_"  overflow="visible"/>
		</clipPath>
		<path clip-path="url(#SVGID_4_)" fill="none" stroke="#00265D" stroke-width="2" stroke-miterlimit="3.8637" d="M328.522,153.67
			l68.002,75.29 M323.968,158.224l68.003,75.29 M319.415,162.778l68.003,75.29 M314.861,167.332l68.003,75.289 M310.307,171.886
			l68.003,75.29 M305.752,176.439l68.004,75.29 M301.199,180.994l68.003,75.289 M296.646,185.547l68.003,75.29 M292.092,190.101
			l68.002,75.29 M287.538,194.654l68.003,75.29 M282.984,199.208l68.003,75.29 M278.43,203.762l68.003,75.29 M273.876,208.316
			l68.003,75.289 M269.323,212.87l68.003,75.29 M264.769,217.424l68.003,75.289 M260.215,221.978l68.003,75.289"/>
	</g>
	<path fill="none" stroke="#00265D" stroke-width="4" stroke-miterlimit="3.8637" d="M288.752,255.068c0,0,8.5-45.538,17.608-67.396
		c9.107-21.858,27.626-40.377,27.626-40.377l4.554,5.162c0,0,0,10.93,0.607,14.572c0.607,3.643,0.304,20.644,2.429,24.894
		c2.125,4.25,5.768,12.143,6.375,16.697c0.608,4.554,0.911,6.982,0.911,6.982l2.429,5.465c0,0,2.125,7.589,2.732,11.536
		c0.607,3.947-4.554,18.519-2.732,24.59s0.303,17.001-6.072,23.68c-6.376,6.679-16.697,12.75-18.823,13.965
		c-2.125,1.214-7.589,5.465-7.589,5.465l-5.161-13.662l-8.5-11.84l-16.394-13.661V255.068L288.752,255.068z"/>
	<path fill="#FFFFFF" d="M440.849,354.645c0,0-2.429,40.073-22.466,83.79c-20.036,43.716-26.108,42.502-26.108,42.502
		l-58.289,34.608l-12.143-6.678l23.073-45.538c0,0,4.25-10.322,4.25-18.216c0-7.893-2.429-16.394-2.429-16.394
		s8.5-22.465,6.679-31.572c-1.822-9.108-6.679-23.072-6.679-23.072s1.214-18.823-2.428-27.93
		c-3.643-9.108-7.894-20.037-7.894-20.037l12.144-26.716c0,0,11.535-5.465,23.072-5.465c11.536,0,47.967,4.857,47.967,4.857
		l10.928,7.287L440.849,354.645L440.849,354.645z"/>
	<path fill="#FFFFFF" d="M255.054,203.459c0,0-9.714,3.035-13.965,5.464c-4.25,2.428-9.107,4.857-9.107,4.857l10.929,1.215
		l19.429-4.858L255.054,203.459L255.054,203.459z"/>
	<path fill="#FFFFFF" d="M176.757,454.814c0,0-3.785-9.602-6.156-16.945c-2.372-7.342-2.966-12.2-2.966-12.2h28.552l27.251,8.529
		l17.058,3.671l20.616-9.122l24.879,45.496c0,0-4.264,10.307-4.264,19.429s3.078,21.322,3.078,21.322l-40.637-2.485
		c0,0-21.802-19.543-23.694-22.509C218.582,487.036,176.757,454.814,176.757,454.814L176.757,454.814z"/>
	<path fill="#FFDA00" d="M74.626,64.66l-5.612-0.586c-3.715,0-7.902,1.081-11.345,4.007c-3.189,2.792-5.506,7.159-6.301,11.301
		c-0.881,4.592-0.14,8.824,2.217,11.751c2.437,3.105,5.55,3.872,9.416,3.872c2.541,0,5.132-0.27,7.751-1.081l3.157-6.573
		c-2.851,1.621-5.793,2.927-8.749,2.927c-5.648,0-7.221-5.043-6.028-11.256c1.046-5.448,3.474-10.401,8.667-10.401
		c2.274,0,4.309,0.856,5.881,2.342L74.626,64.66L74.626,64.66z"/>
	<path fill-rule="evenodd" clip-rule="evenodd" fill="#FFDA00" d="M90.231,85.46l0.413,4.367c0.088,0.721,0.121,0.946-0.026,1.711
		c-0.276,1.441-1.079,2.071-2.081,2.747l-0.026,0.136h11.448l0.026-0.136c-1.703-2.386-1.694-3.422-2.051-6.303L95.22,64.794h-9.286
		l-0.026,0.135c0.646,0.586,1.171,1.397,0.939,2.612c-0.182,0.945-1.125,2.701-1.525,3.602l-8.679,17.964
		c-1.123,2.296-1.867,3.602-3.609,5.177l-0.026,0.136h7.77l0.026-0.136c-0.553-0.676-1.122-1.26-0.88-2.521
		c0.181-0.944,0.866-2.341,1.304-3.241l1.498-3.062H90.231L90.231,85.46z M89.784,81.272h-5.155l4.204-8.869h0.038L89.784,81.272
		L89.784,81.272z"/>
	<path fill="#FFDA00" d="M101.901,93.385c2.143,1.081,4.541,1.621,7.043,1.621c2.69,0,5.195-0.405,7.803-2.341
		c2.346-1.756,3.871-4.367,4.432-7.294c0.554-2.881-0.043-4.907-1.5-6.797c-1.214-1.576-2.755-2.432-4.394-3.377
		c-1.265-0.72-3.298-1.576-2.884-3.737c0.406-2.117,2.373-2.882,3.852-2.882c1.895,0,3.579,0.901,4.938,2.116l1.01-5.268
		c-1.798-0.9-3.986-1.351-6.109-1.351c-2.313,0-4.767,0.54-7.01,2.161c-2.029,1.486-3.566,3.963-4.058,6.529
		c-1.936,10.084,9.842,8.96,8.788,14.452c-0.484,2.521-2.926,3.197-4.632,3.197c-2.73,0-5.561-1.44-7.287-3.512L101.901,93.385
		L101.901,93.385z"/>
	<path fill-rule="evenodd" clip-rule="evenodd" fill="#FFDA00" d="M137.229,69.883c0.688-0.226,1.303-0.271,1.985-0.271
		c1.365,0,2.453,0.45,2.728,1.98l2.594-6.799h-17.589l-0.694-0.134l-2.81,6.933l0.31-0.225c1.665-1.169,2.858-1.665,4.603-1.665
		c0.682,0,1.251,0,1.861,0.18l-3.474,18.099c-0.449,2.341-0.676,4.908-2.802,6.303l-0.025,0.136h10.273l0.026-0.136
		c-1.285-1.801-0.934-3.827-0.441-6.393L137.229,69.883L137.229,69.883z"/>
	<path fill-rule="evenodd" clip-rule="evenodd" fill="#FFDA00" d="M150.418,80.958h1.25c1.402,0,3.181-0.18,3.365,1.621h0.19
		l1.209-6.304h-0.189c-0.376,0.18-0.915,0.226-1.446,0.226h-3.525l1.4-7.294h1.213c1.858,0,4.062-0.226,4.679,1.891h0.113
		l1.253-6.528h-0.114c-0.46,0.224-1.066,0.224-1.635,0.224h-13.268l-0.025,0.135c1.598,1.351,0.84,3.918,0.391,6.258l-3.232,16.839
		c-0.449,2.342-0.668,4.863-2.793,6.258l-0.026,0.136h16.793l2.821-6.799h-0.189c-1.838,2.071-3.887,2.477-6.01,2.477
		c-1.327,0-2.712-0.091-3.85-0.676L150.418,80.958L150.418,80.958z"/>
	<path fill="#FFDA00" d="M171.341,71.278c0.459-2.387,0.686-4.952,2.812-6.349l0.026-0.135h-10.197l-0.026,0.135
		c1.589,1.397,0.832,3.962,0.382,6.304l-3.223,16.793c-0.449,2.342-0.667,4.863-2.792,6.258l-0.026,0.136h16.527l2.651-6.304
		c-1.954,1.485-3.679,1.981-5.764,1.981c-1.365,0-2.75-0.091-3.833-0.766L171.341,71.278L171.341,71.278z"/>
	<path fill="#FFDA00" d="M190.295,71.278c0.458-2.387,0.685-4.952,2.811-6.349l0.025-0.135h-10.196l-0.026,0.135
		c1.59,1.397,0.832,3.962,0.382,6.304l-3.223,16.793c-0.449,2.342-0.667,4.863-2.793,6.258l-0.026,0.136h16.527l2.65-6.304
		c-1.954,1.485-3.679,1.981-5.763,1.981c-1.365,0-2.75-0.091-3.834-0.766L190.295,71.278L190.295,71.278z"/>
	<path fill-rule="evenodd" clip-rule="evenodd" fill="#FFDA00" d="M213.046,85.46l0.413,4.367c0.089,0.721,0.122,0.946-0.025,1.711
		c-0.276,1.441-1.079,2.071-2.081,2.747l-0.026,0.136h11.448l0.026-0.136c-1.702-2.386-1.693-3.422-2.05-6.303l-2.715-23.188h-9.287
		l-0.026,0.135c0.646,0.586,1.173,1.397,0.939,2.612c-0.181,0.945-1.125,2.701-1.525,3.602l-8.68,17.964
		c-1.122,2.296-1.865,3.602-3.608,5.177l-0.026,0.136h7.771l0.026-0.136c-0.553-0.676-1.123-1.26-0.881-2.521
		c0.181-0.944,0.866-2.341,1.304-3.241l1.498-3.062H213.046L213.046,85.46z M212.599,81.272h-5.155l4.204-8.869h0.038
		L212.599,81.272L212.599,81.272z"/>
	<path fill="#FFDA00" d="M242.106,82.173l-2.301-17.244l0.026-0.135h-8.718l-0.026,0.135c0.816,1.082,1.125,2.432,0.645,4.143
		l-5.447,18.91c-0.695,2.431-1.203,4.682-3.181,6.303l-0.026,0.136h7.467l0.026-0.136c-0.969-0.676-1.41-1.936-1.002-3.466
		l4.269-15.534h0.114l1.416,11.976c0.28,2.296,0.372,4.188,1.886,5.583c0.935,0.855,1.983,1.711,3.204,2.071l8.694-19.63h0.114
		l-1.668,15.803c-0.119,1.217-1.035,2.432-1.826,3.197l-0.026,0.136h10.008l0.026-0.136c-1.331-1.756-1.037-4.277-0.78-6.799
		l1.96-19.495c0.159-1.621,0.814-2.071,1.914-3.062l0.026-0.135h-9.059l-0.026,0.135L242.106,82.173L242.106,82.173z"/>
	<path fill="#FFDA00" d="M275.464,82.173l-2.301-17.244l0.026-0.135h-8.718l-0.026,0.135c0.816,1.082,1.125,2.432,0.646,4.143
		l-5.449,18.91c-0.694,2.431-1.202,4.682-3.181,6.303l-0.025,0.136h7.467l0.026-0.136c-0.97-0.676-1.41-1.936-1.002-3.466
		l4.27-15.534h0.113l1.417,11.976c0.28,2.296,0.372,4.188,1.885,5.583c0.935,0.855,1.984,1.711,3.204,2.071l8.694-19.63h0.114
		l-1.668,15.803c-0.12,1.217-1.035,2.432-1.826,3.197l-0.026,0.136h10.007l0.026-0.136c-1.331-1.756-1.037-4.277-0.78-6.799
		l1.96-19.495c0.159-1.621,0.814-2.071,1.914-3.062l0.026-0.135h-9.06l-0.026,0.135L275.464,82.173L275.464,82.173z"/>
	<path fill-rule="evenodd" clip-rule="evenodd" fill="#FFDA00" d="M307.053,85.46l0.413,4.367c0.088,0.721,0.122,0.946-0.025,1.711
		c-0.278,1.441-1.08,2.071-2.081,2.747l-0.026,0.136h11.447l0.027-0.136c-1.704-2.386-1.693-3.422-2.051-6.303l-2.715-23.188h-9.286
		l-0.026,0.135c0.646,0.586,1.173,1.397,0.939,2.612c-0.182,0.945-1.125,2.701-1.525,3.602l-8.678,17.964
		c-1.123,2.296-1.867,3.602-3.609,5.177l-0.026,0.136h7.771l0.026-0.136c-0.553-0.676-1.123-1.26-0.881-2.521
		c0.182-0.944,0.866-2.341,1.305-3.241l1.498-3.062H307.053L307.053,85.46z M306.606,81.272h-5.156l4.203-8.869h0.04L306.606,81.272
		L306.606,81.272z"/>
	<path fill-rule="evenodd" clip-rule="evenodd" fill="#FFDA00" d="M328.428,81.724l2.514,9.814c0.791,2.792,1.926,3.198,4.5,3.018
		l5.309-0.406c-1.231-1.486-1.968-3.376-2.603-5.403l-2.792-8.959c2.744-1.261,5.229-3.737,5.876-7.114
		c0.579-3.016-0.1-5.402-2.06-6.843c-1.5-1.081-3.023-1.036-4.881-1.036h-11.22l-0.026,0.135c1.589,1.397,0.832,3.962,0.382,6.304
		l-3.213,16.749c-0.45,2.341-0.677,4.908-2.803,6.303l-0.025,0.136h10.197l0.026-0.136c-1.59-1.395-0.831-3.962-0.383-6.303
		L328.428,81.724L328.428,81.724z M331.217,69.161c0.759,0,1.538,0.09,2.078,0.631c0.859,0.855,1.059,2.386,0.783,3.827
		c-0.545,2.836-2.746,5.224-5.191,5.717l1.953-10.175H331.217L331.217,69.161z"/>
	<path fill-rule="evenodd" clip-rule="evenodd" fill="#FFDA00" d="M352.078,80.958h1.25c1.403,0,3.182-0.18,3.367,1.621h0.19
		l1.209-6.304h-0.189c-0.376,0.18-0.915,0.226-1.446,0.226h-3.525l1.4-7.294h1.212c1.858,0,4.061-0.226,4.679,1.891h0.114
		l1.252-6.528h-0.114c-0.46,0.224-1.066,0.224-1.635,0.224h-13.267l-0.026,0.135c1.597,1.351,0.84,3.918,0.39,6.258l-3.231,16.839
		c-0.45,2.342-0.668,4.863-2.793,6.258l-0.026,0.136h16.792l2.822-6.799h-0.19c-1.838,2.071-3.887,2.477-6.01,2.477
		c-1.327,0-2.712-0.091-3.851-0.676L352.078,80.958L352.078,80.958z"/>
	<path fill-rule="evenodd" clip-rule="evenodd" fill="#FFDA00" d="M374.155,87.982c-0.45,2.341-0.676,4.908-2.801,6.303
		l-0.026,0.136h8.529c4.245,0,7.993,0.224,12.072-3.062c3.446-2.747,5.864-7.25,6.703-11.617c0.933-4.863,0.117-9.5-2.75-12.336
		c-2.868-2.836-6.738-2.612-10.833-2.612h-8.036l-0.026,0.135c0.605,0.406,0.983,1.397,0.961,2.296
		c-0.06,1.306-0.847,5.403-1.14,6.935L374.155,87.982L374.155,87.982z M384.64,69.883c0.869-0.18,1.729-0.315,2.563-0.315
		c4.663,0,4.965,5.538,4.075,10.175c-0.458,2.387-1.228,4.818-2.649,6.889c-1.727,2.477-3.405,3.332-5.794,3.332
		c-0.682,0-1.347-0.091-1.978-0.36L384.64,69.883L384.64,69.883z"/>
	<path fill="#FFDA00" d="M410.12,71.233c0.45-2.342,0.676-4.907,2.801-6.304l0.026-0.135h-10.196l-0.026,0.135
		c1.589,1.397,0.831,3.962,0.382,6.304l-3.222,16.793c-0.45,2.342-0.67,4.863-2.794,6.258l-0.027,0.136h10.197l0.026-0.136
		c-1.59-1.395-0.841-3.916-0.392-6.258L410.12,71.233L410.12,71.233z"/>
	<path fill="#FFDA00" d="M421.068,93.385c2.143,1.081,4.541,1.621,7.043,1.621c2.69,0,5.194-0.405,7.802-2.341
		c2.346-1.756,3.871-4.367,4.432-7.294c0.554-2.881-0.043-4.907-1.5-6.797c-1.213-1.576-2.755-2.432-4.393-3.377
		c-1.264-0.72-3.298-1.576-2.885-3.737c0.407-2.117,2.373-2.882,3.852-2.882c1.896,0,3.58,0.901,4.938,2.116l1.012-5.268
		c-1.8-0.9-3.987-1.351-6.11-1.351c-2.313,0-4.766,0.54-7.01,2.161c-2.029,1.486-3.566,3.963-4.059,6.529
		c-1.935,10.084,9.842,8.96,8.788,14.452c-0.484,2.521-2.925,3.197-4.63,3.197c-2.73,0-5.562-1.44-7.288-3.512L421.068,93.385
		L421.068,93.385z"/>
	<path fill-rule="evenodd" clip-rule="evenodd" fill="#FFDA00" d="M456.396,69.883c0.688-0.226,1.303-0.271,1.985-0.271
		c1.365,0,2.455,0.45,2.729,1.98l2.594-6.799h-17.589l-0.694-0.134l-2.809,6.933l0.308-0.225c1.665-1.169,2.859-1.665,4.604-1.665
		c0.682,0,1.251,0,1.86,0.18l-3.473,18.099c-0.45,2.341-0.678,4.908-2.803,6.303l-0.026,0.136h10.273l0.026-0.136
		c-1.285-1.801-0.934-3.827-0.441-6.393L456.396,69.883L456.396,69.883z"/>
	<path fill-rule="evenodd" clip-rule="evenodd" fill="#FFDA00" d="M472.74,85.46l0.412,4.367c0.089,0.721,0.121,0.946-0.026,1.711
		c-0.276,1.441-1.08,2.071-2.081,2.747l-0.026,0.136h11.448l0.026-0.136c-1.704-2.386-1.693-3.422-2.051-6.303l-2.714-23.188h-9.287
		l-0.026,0.135c0.645,0.586,1.172,1.397,0.939,2.612c-0.182,0.945-1.126,2.701-1.525,3.602l-8.679,17.964
		c-1.121,2.296-1.866,3.602-3.609,5.177l-0.026,0.136h7.771l0.026-0.136c-0.552-0.676-1.122-1.26-0.88-2.521
		c0.181-0.944,0.866-2.341,1.304-3.241l1.498-3.062H472.74L472.74,85.46z M472.292,81.272h-5.157l4.204-8.869h0.039L472.292,81.272
		L472.292,81.272z"/>
	<path fill-rule="evenodd" clip-rule="evenodd" fill="#FFDA00" d="M488.986,64.794l-0.026,0.135
		c1.598,1.351,0.841,3.918,0.392,6.258l-3.224,16.794c-0.458,2.387-0.676,4.908-2.801,6.303l-0.027,0.136h11.106
		c2.691,0,4.71-0.046,7.162-2.163c2.136-1.846,3.495-4.188,4.031-6.978c0.752-3.917-0.823-7.159-3.981-7.699
		c2.447-0.9,4.536-2.702,5.115-5.719c0.449-2.34-0.191-4.141-1.468-5.582c-1.307-1.486-2.974-1.486-4.983-1.486H488.986
		L488.986,64.794z M496.736,69.251c0.413-0.18,0.771-0.27,1.149-0.27c1.632,0,2.061,1.711,1.724,3.467
		c-0.371,1.936-1.69,3.873-3.51,3.873c-0.266,0-0.438-0.091-0.687-0.181L496.736,69.251L496.736,69.251z M494.634,80.193h0.912
		c2.879,0,3.913,1.53,3.256,4.952c-0.501,2.612-1.953,5.043-4.417,5.043c-0.683,0-1.081-0.09-1.564-0.541L494.634,80.193
		L494.634,80.193z"/>
	<path fill="#FFDA00" d="M518.189,71.233c0.448-2.342,0.677-4.907,2.801-6.304l0.026-0.135h-10.197l-0.026,0.135
		c1.59,1.397,0.833,3.962,0.384,6.304l-3.224,16.793c-0.448,2.342-0.667,4.863-2.793,6.258l-0.025,0.136h10.196l0.026-0.136
		c-1.589-1.395-0.841-3.916-0.391-6.258L518.189,71.233L518.189,71.233z"/>
	<path fill-rule="evenodd" clip-rule="evenodd" fill="#FFDA00" d="M533.387,85.46l0.413,4.367c0.088,0.721,0.121,0.946-0.025,1.711
		c-0.276,1.441-1.08,2.071-2.081,2.747l-0.026,0.136h11.448l0.025-0.136c-1.702-2.386-1.692-3.422-2.05-6.303l-2.715-23.188h-9.286
		l-0.026,0.135c0.645,0.586,1.173,1.397,0.939,2.612c-0.182,0.945-1.125,2.701-1.524,3.602l-8.68,17.964
		c-1.123,2.296-1.865,3.602-3.609,5.177l-0.026,0.136h7.771l0.026-0.136c-0.554-0.676-1.124-1.26-0.882-2.521
		c0.183-0.944,0.868-2.341,1.305-3.241l1.498-3.062H533.387L533.387,85.46z M532.941,81.272h-5.156l4.203-8.869h0.039
		L532.941,81.272L532.941,81.272z"/>
	<path fill="#00265D" d="M73.112,187.646c3.488,1.76,7.394,2.64,11.467,2.64c4.383,0,8.459-0.66,12.707-3.813
		c3.819-2.859,6.303-7.111,7.217-11.877c0.9-4.691-0.072-7.99-2.443-11.07c-1.977-2.566-4.487-3.959-7.154-5.499
		c-2.06-1.172-5.372-2.566-4.696-6.083c0.661-3.448,3.864-4.694,6.271-4.694c3.085,0,5.83,1.468,8.042,3.448l1.646-8.578
		c-2.928-1.467-6.491-2.2-9.947-2.2c-3.766,0-7.761,0.88-11.415,3.519c-3.304,2.42-5.806,6.453-6.608,10.63
		c-3.151,16.422,16.026,14.59,14.31,23.534c-0.788,4.106-4.764,5.206-7.542,5.206c-4.444,0-9.055-2.346-11.865-5.719L73.112,187.646
		L73.112,187.646z"/>
	<path fill="#00265D" d="M110.442,190.286c3.394,0,6.64-3.08,7.398-7.038c0.732-3.813-1.269-6.893-4.417-6.893
		c-3.396,0-6.545,3.227-7.305,7.185C105.43,187.132,107.417,190.286,110.442,190.286L110.442,190.286z"/>
	<path fill="#00265D" d="M122.49,187.646c3.489,1.76,7.395,2.64,11.468,2.64c4.382,0,8.458-0.66,12.706-3.813
		c3.82-2.859,6.302-7.111,7.217-11.877c0.9-4.691-0.071-7.99-2.444-11.07c-1.976-2.566-4.486-3.959-7.154-5.499
		c-2.059-1.172-5.372-2.566-4.696-6.083c0.662-3.448,3.864-4.694,6.271-4.694c3.085,0,5.829,1.468,8.041,3.448l1.646-8.578
		c-2.928-1.467-6.491-2.2-9.948-2.2c-3.765,0-7.761,0.88-11.415,3.519c-3.304,2.42-5.807,6.453-6.608,10.63
		c-3.152,16.422,16.026,14.59,14.31,23.534c-0.788,4.106-4.765,5.206-7.542,5.206c-4.445,0-9.056-2.346-11.865-5.719L122.49,187.646
		L122.49,187.646z"/>
	<path fill="#00265D" d="M159.819,190.286c3.396,0,6.64-3.08,7.4-7.038c0.731-3.813-1.269-6.893-4.417-6.893
		c-3.396,0-6.546,3.227-7.305,7.185C154.808,187.132,156.796,190.286,159.819,190.286L159.819,190.286z"/>
	<path fill="#00265D" d="M146.868,616.012c-0.983,5.125-1.604,9.346-4.194,14.245c-1.395,2.638-3.091,5.2-4.985,7.46
		c3.9-0.151,8.599-2.486,12.22-4.823c5.438-3.542,6.758-6.784,7.944-12.962l7.058-36.779c0.751-3.919,1.132-8.213,4.689-10.55
		l0.043-0.227h-17.068l-0.043,0.227c2.661,2.337,1.393,6.631,0.641,10.55L146.868,616.012L146.868,616.012z"/>
	<path fill-rule="evenodd" clip-rule="evenodd" fill="#00265D" d="M182.479,586.167h-0.189c-1.38,0.905-2.819,1.131-4.469,1.131
		h-8.756l-0.043,0.226c1.899,2.337,1.354,4.522,0.673,8.063l-2.806,14.621c-0.723,3.768-1.389,7.235,0.642,9.875
		c1.578,2.033,4.146,2.862,6.622,2.862c3.743,0,6.901-1.582,9.647-4.973l-0.768,3.994h13.135l0.043-0.226
		c-1.899-2.336-1.226-4.521-0.609-8.064l5.279-27.507h-0.19c-1.443,0.905-2.881,1.131-4.531,1.131h-8.693l-0.043,0.226
		c1.899,2.337,1.354,4.522,0.674,8.063l-2.344,12.21c-0.376,1.959-0.625,3.918-1.988,5.728c-0.852,1.131-2.158,1.658-3.301,1.658
		c-4.187,0-2.337-6.331-1.702-9.647L182.479,586.167L182.479,586.167z"/>
	<path fill="#00265D" d="M217.037,608.099l-2.453-21.931h-0.19c-1.389,1.282-2.945,1.131-4.531,1.131h-7.868l-0.043,0.226
		c1.547,2.187,1.797,4.522,2.17,7.537l2.056,16.73c0.726,5.803,1.072,7.31,5.251,10.324c0.934,0.753,2.059,1.508,3.299,1.658
		l18.738-36.476h-9.073l-0.043,0.226c0.764,0.979,1.069,2.036,0.751,3.692c-0.318,1.658-1.287,3.392-2.083,4.899L217.037,608.099
		L217.037,608.099z"/>
	<path fill-rule="evenodd" clip-rule="evenodd" fill="#00265D" d="M261.574,612.093c-3.549,1.959-7.845,3.843-11.397,3.843
		c-5.648,0-8.431-4.672-7.188-11.153h19.669c2.038-11.607-1.469-18.466-11.494-18.466c-8.819,0-17.006,7.614-19.031,18.165
		c-1.084,5.652-0.457,11.304,2.939,14.771c2.96,3.09,7.667,3.692,11.981,3.692c3.363,0,7.06-0.752,10.41-2.336L261.574,612.093
		L261.574,612.093z M244.219,598.376c0.896-3.013,2.896-5.501,5.687-5.501c3.046,0,3.759,2.563,3.196,5.501H244.219L244.219,598.376
		z"/>
	<path fill="#00265D" d="M283.36,620.233c3.586,1.809,7.601,2.712,11.788,2.712c4.505,0,8.695-0.678,13.062-3.918
		c3.927-2.939,6.479-7.31,7.419-12.209c0.926-4.822-0.074-8.214-2.512-11.379c-2.032-2.637-4.612-4.07-7.354-5.652
		c-2.117-1.206-5.521-2.638-4.828-6.255c0.681-3.542,3.971-4.824,6.446-4.824c3.172,0,5.992,1.508,8.265,3.543l1.692-8.818
		c-3.009-1.508-6.671-2.26-10.224-2.26c-3.872,0-7.979,0.904-11.735,3.616c-3.396,2.487-5.969,6.633-6.793,10.928
		c-3.239,16.881,16.475,14.998,14.71,24.192c-0.81,4.221-4.898,5.351-7.753,5.351c-4.569,0-9.309-2.412-12.197-5.879L283.36,620.233
		L283.36,620.233z"/>
	<path fill="#00265D" d="M317.945,610.285c-0.68,3.541-1.502,7.159,0.418,9.722c1.626,2.109,4.766,2.938,7.368,2.938
		c1.65,0,3.434-0.376,5.114-0.527l4.021-6.406c-1.699-0.075-3.524-0.149-4.815-1.355c-1.727-1.583-1.288-3.543-0.767-6.255
		l2.705-14.093h1.585c2.667,0,3.583-0.152,4.848,2.186h0.19l1.765-9.195h-7.044l2.068-10.777h-4.378
		c-1.722,6.331-7.248,11.982-12.806,12.51l-0.998,5.2h3.807L317.945,610.285L317.945,610.285z"/>
	<path fill="#00265D" d="M368.465,616.163c-5.428-0.151-4.441-4.295-3.473-9.346l1.158-6.028c0.839-4.372,1.36-8.742-1.263-11.606
		c-2.056-2.186-5.288-2.865-8.269-2.865c-2.729,0-5.438,0.227-8.198,1.056l-4.631,8.591c2.623-1.431,5.872-2.487,8.472-2.487
		c1.587,0,3.902,0.83,3.454,3.166c-1.215,6.331-17.783,1.733-20.458,15.675c-0.665,3.468,0.305,7.01,2.497,8.818
		c1.58,1.357,4.285,1.809,6.442,1.809l3.278-0.226l3.987-6.557c-0.458,0.075-0.854,0.152-1.297,0.152
		c-2.285,0-3.437-2.262-2.932-4.899c0.478-2.488,2.726-3.617,4.485-4.522l2.247-1.13l-0.476,2.486
		c-0.854,4.447-1.773,7.913,0.573,11.228c1.904,2.639,4.728,3.467,7.964,3.467l2.582-0.226L368.465,616.163L368.465,616.163z"/>
	<path fill="#00265D" d="M390.741,571.171h-0.19c-1.628,1.205-3.024,1.205-4.8,1.205h-8.375l-0.043,0.227
		c1.885,2.412,1.21,4.598,0.609,8.063l-6.595,34.367c-0.493,2.562-0.704,3.993-2.608,5.652l-0.042,0.225
		c4.21,1.206,8.811,2.035,13.377,2.035c5.076,0,10.264-0.903,14.998-4.748c4.595-3.768,7.525-9.12,8.638-14.922
		c0.838-4.372,0.353-9.12-1.654-12.209c-1.848-2.939-5.357-4.823-8.783-4.823c-1.015,0-1.98,0.074-3.005,0.452l-4.21,6.407
		c5.714,0.301,6.86,5.576,5.646,11.907c-1.128,5.878-4.144,11.003-9.663,11.003c-0.636,0-1.24-0.149-1.831-0.377L390.741,571.171
		L390.741,571.171z"/>
	<path fill-rule="evenodd" clip-rule="evenodd" fill="#00265D" d="M412.518,587.298l-0.044,0.226c1.9,2.337,1.289,4.522,0.609,8.063
		l-3.471,18.087c-0.665,3.468-0.894,5.654-3.768,8.064l-0.044,0.226h15.419l0.042-0.226c-1.947-2.411-1.339-4.596-0.672-8.064
		l5.279-27.507h-0.19c-1.38,0.905-2.819,1.131-4.533,1.131H412.518L412.518,587.298z M419.851,585.792
		c3.426,0,6.825-3.166,7.62-7.311c0.739-3.844-1.304-7.085-4.604-7.085c-3.49,0-6.677,3.392-7.459,7.461
		C414.713,582.475,416.741,585.792,419.851,585.792L419.851,585.792z"/>
	<path fill="#00265D" d="M457.294,616.163c-5.428-0.151-4.442-4.295-3.473-9.346l1.156-6.028c0.841-4.372,1.36-8.742-1.263-11.606
		c-2.056-2.186-5.287-2.865-8.269-2.865c-2.729,0-5.438,0.227-8.198,1.056l-4.631,8.591c2.624-1.431,5.872-2.487,8.472-2.487
		c1.587,0,3.903,0.83,3.455,3.166c-1.215,6.331-17.783,1.733-20.458,15.675c-0.667,3.468,0.304,7.01,2.495,8.818
		c1.58,1.357,4.285,1.809,6.441,1.809l3.281-0.226l3.987-6.557c-0.459,0.075-0.854,0.152-1.299,0.152
		c-2.285,0-3.436-2.262-2.93-4.899c0.477-2.488,2.724-3.617,4.485-4.522l2.247-1.13l-0.478,2.486
		c-0.853,4.447-1.771,7.913,0.574,11.228c1.904,2.639,4.727,3.467,7.964,3.467l2.58-0.226L457.294,616.163L457.294,616.163z"/>
	<path fill="#00265D" d="M62.553,522.703c0,0,8.642-29.737,21.322-29.737c12.679,0,35.667,9.715,47.274,4.265
		c11.606-5.45,18.836-18.13,18.836-24.287c0-6.156,2.485-27.845,12.2-34.594c9.714-6.75,21.914-3.785,29.736-1.299
		c7.823,2.485,32.223,13.613,41.938,9.941c9.715-3.672,19.429-13.5,19.429-13.5l-9.122-11.607c0,0-3.079,6.27-17.057,6.27
		c-13.979,0-41.231-13.386-55.21-13.386s-24.88,33.409-24.88,47.868c0,14.458-14.092,21.095-24.993,19.316
		c-10.9-1.779-28.78-9.149-39.452-4.857C61.366,485.623,62.553,522.703,62.553,522.703L62.553,522.703z"/>
	<path fill="#00265D" d="M533.227,130.556c0,0,1.186,37.08-20.023,45.609c-10.673,4.291-28.551-3.079-39.453-4.858
		c-10.9-1.778-24.992,4.858-24.992,19.317s-10.901,47.867-24.88,47.867s-41.231-13.386-55.21-13.386
		c-6.501,0-10.643,1.355-13.216,2.806l-1.286-17.588c2.453-1.594,5.103-3.053,7.752-4.055c9.715-3.671,34.114,7.457,41.937,9.942
		c7.823,2.486,20.022,5.45,29.737-1.299c9.715-6.75,12.201-28.438,12.201-34.595s7.229-18.836,18.836-24.287
		c11.606-5.451,34.594,4.264,47.274,4.264C524.583,160.293,533.227,130.556,533.227,130.556L533.227,130.556z"/>
	<path fill="#00265D" d="M533.227,167.635c0,0,1.186,37.081-20.023,45.609c-10.673,4.292-28.551-3.079-39.453-4.857
		c-10.9-1.78-24.992,4.857-24.992,19.315s-10.901,47.867-24.88,47.867s-41.231-13.386-55.21-13.386
		c-7.41,0-11.758,1.762-14.206,3.418l2.542-19.923c1.605-0.903,3.26-1.706,4.915-2.331c9.715-3.671,34.114,7.456,41.937,9.941
		c7.823,2.485,20.022,5.45,29.737-1.3s12.201-28.438,12.201-34.594c0-6.157,7.229-18.837,18.836-24.287
		c11.606-5.451,34.594,4.264,47.274,4.264C524.583,197.373,533.227,167.635,533.227,167.635L533.227,167.635z"/>
	<path fill="#00265D" d="M533.227,204.716c0,0-8.644,29.737-21.322,29.737c-12.681,0-35.668-9.715-47.274-4.265
		c-11.607,5.45-18.836,18.13-18.836,24.287c0,6.156-2.486,27.845-12.201,34.594c-9.715,6.75-21.915,3.785-29.737,1.299
		c-7.823-2.485-32.222-13.613-41.937-9.941c-9.715,3.671-19.43,13.499-19.43,13.499l-7.924,34.002c0,0,10.901-28.665,34.104-28.665
		c13.978,0,41.231,13.386,55.21,13.386s24.88-33.409,24.88-47.868c0-14.458,14.091-21.095,24.992-19.316
		c10.902,1.779,28.78,9.149,39.453,4.857C534.413,241.796,533.227,204.716,533.227,204.716L533.227,204.716z"/>
	<path fill="#00265D" d="M251.99,212.539l1.892-10.901c0,0,12.68-4.857,21.208-5.45c8.529-0.593,7.343,0.593,7.343,0.593
		s-4.264,24.287-4.264,30.331c0,6.043-0.593,9.714-0.593,9.714s-6.157-17.537-11.015-21.208
		C261.705,211.945,251.99,212.539,251.99,212.539L251.99,212.539z"/>
	<path fill="#FFFFFF" d="M197.373,241.089c0,0-1.186,10.308,0.593,13.386c1.779,3.079,1.779,3.671,1.779,3.671l-7.823,22.988
		l-16.351-8.416c0,0,6.042-11.494,12.68-19.429C194.888,245.354,197.373,241.089,197.373,241.089L197.373,241.089z"/>
	<path fill="#00265D" d="M62.553,485.623c0,0-1.187-37.08,20.022-45.609c10.672-4.292,28.551,3.079,39.452,4.857
		c10.901,1.779,24.993-4.857,24.993-19.316s10.901-47.867,24.88-47.867c12.359,0,35.092,10.463,49.855,12.889l6.541-10.403
		l2.485,5.45l-1.614,5.403c12.228-0.577,15-6.222,15-6.222l2.397,3.05c-0.855,2.115-2.738,5.671-6.068,6.891
		c-4.858,1.78-7.343,4.265-7.343,4.265s1.3,3.444,6.157,4.15c2.055,0.299,4.642-0.08,6.942-0.616
		c-3.512,2.724-7.953,5.688-12.393,7.367c-9.715,3.671-34.115-7.457-41.938-9.942c-7.822-2.486-20.022-5.45-29.736,1.299
		c-9.715,6.75-12.2,28.438-12.2,34.595s-7.23,18.836-18.836,24.286c-11.607,5.451-34.595-4.263-47.274-4.263
		C71.195,455.887,62.553,485.623,62.553,485.623L62.553,485.623z"/>
	<path fill="#00265D" d="M241.682,422.591l4.264-7.23c0,0,7.822,0.707,10.309-1.185c2.485-1.893,2.485-1.893,2.485-1.893
		s-2.485,3.785-7.342,6.157c-4.858,2.372-3.079,6.637-3.079,6.637l8.528-2.486l5.451,9.122l-28.438,35.301l24.879,41.824
		l26.659,1.186l3.671-6.043c0,0,7.936,2.598,10.308,6.156c2.372,3.558,4.264,2.373,4.264,2.373l7.229-3.079l7.936,15.872
		c0,0-11.38,1.186-16.944,1.186s-6.75,0-6.75,0s-1.666,11.493-17.537,15.758c-15.872,4.265-24.287,4.265-24.287,4.265
		s17.537-7.343,21.801-12.794c4.264-5.45,4.264-7.229,4.264-7.229s-35.3-8.642-66.817-31.63s-37.08-44.31-37.08-44.31l1.892-6.636
		l-2.485-13.386l7.936-0.593l1.779,12.2l43.716,16.944l14.572-21.801L241.682,422.591L241.682,422.591z"/>
	<polygon fill="#00265D" points="260.519,421.998 263.004,420.219 335.158,539.875 331.007,542.246 260.519,421.998 	"/>
	<path fill="#00265D" d="M289.663,480.286l18.244,29.145l-1.894,5.563c0,0-7.229-9.122-10.9-12.2
		c-3.671-3.078-7.229-6.043-7.229-6.043s0-5.93,0-10.901C287.884,480.879,289.663,480.286,289.663,480.286L289.663,480.286z"/>
	<path fill="#00265D" d="M309.092,278.748c0,0-22.465,1.215-24.894,10.929c-2.428,9.715,7.286,23.073,7.286,23.073l-8.5-2.43
		l3.036,32.788l7.286-7.893l2.429,6.072c0,0-14.572,17.608-17.607,25.501c-3.037,7.893-3.644,10.929-3.644,10.929l7.893,10.322
		c0,0,26.715-23.072,30.966-29.751c4.25-6.679,4.857-13.965,4.857-13.965s-0.607-18.215-3.643-24.894
		c-3.036-6.678-6.072-8.5-6.072-8.5s8.5-4.25,6.679-13.357c-1.821-9.107-3.036-13.965-3.036-13.965s11.536,8.5,7.893,18.215
		c-3.643,9.715-2.429,12.75-2.429,12.75l14.572,18.216l-10.322,11.536c0,0-3.644,18.215-10.322,23.073
		c-6.679,4.857-6.072,10.321-6.072,10.321s20.037-6.072,27.93-3.036c7.893,3.036,17.608,21.25,15.786,33.394
		c-1.821,12.144-6.679,17.001-6.679,17.001s-19.429-7.894-35.215-4.858c-15.787,3.036-19.429,14.572-19.429,14.572
		s-12.144-20.644-12.144-25.501s-3.643-5.465-3.643-5.465l-5.465-3.036l-6.679-15.787l7.286-24.894l1.822,15.179l9.108-17.001
		c0,0-10.93-6.679-16.394-4.858c-5.465,1.822,8.5-3.643,8.5-3.643s-10.929-4.857-17.607-14.572c-6.68-9.715-8.5-12.751-8.5-12.751
		s5.464,17.609,12.144,22.465c6.679,4.857,7.893,4.251,7.893,4.251l-7.893,5.464l-6.679,7.893l-4.25-13.357l3.643-3.644
		c0,0-13.358-7.286-13.358-20.037c0-12.75,3.036-19.429,3.036-19.429s22.465-13.358,26.716-21.858
		c4.25-8.5,7.893-24.894,7.893-24.894s7.893-4.857,18.822,0.607C303.021,265.391,309.092,278.748,309.092,278.748L309.092,278.748z"
		/>
	<path fill="#00265D" d="M259.912,360.716c0,0-2.429,15.787-4.857,19.43c-2.428,3.643,0.607,4.857,0.607,4.857
		s4.25-8.5,5.465-14.572C262.34,364.359,259.912,360.716,259.912,360.716L259.912,360.716z"/>
	<path fill="#00265D" d="M394.704,299.392l-13.965,52.217l-38.252,15.18l-4.857,15.179l49.788-20.644l17.001,34.001l-13.965,46.752
		l-40.68,22.465l-5.464-5.465l-1.822,7.286l0.607,7.286l-17,38.859l4.25,8.5c0,0,41.288-17.001,60.11-32.181
		s21.858-26.715,21.858-26.715l-11.537-18.822l12.144-44.324l28.538-8.5c0,0,3.035-26.716,1.821-44.931
		c-1.215-18.215-10.929-44.931-10.929-44.931L394.704,299.392L394.704,299.392z"/>
	<path fill="#FFFFFF" d="M205.266,306.071c0,0,10.929,1.215,13.965,1.215c3.036,0,13.965,0.606,13.965,0.606l-6.072,5.464
		l-9.107,2.429l-12.144,1.822l-3.644,12.75l25.502,9.715l7.286-1.822l12.143,13.964l-9.107,15.787l-11.536,17.608
		c0,0-7.894,1.822-13.965-0.607c-6.072-2.429-13.965-12.75-13.965-12.75l-2.429-18.823l-4.25-21.251l12.75-18.822L205.266,306.071
		L205.266,306.071z"/>
	<path fill-rule="evenodd" clip-rule="evenodd" fill="#E2001A" d="M215.012,348.791l3.581,0.716c0,0,0.918-0.358-0.537-2.328
		S215.012,348.791,215.012,348.791L215.012,348.791z M207.267,350.247l-2.148,2.148l1.791,1.611
		C206.909,354.006,207.267,350.962,207.267,350.247L207.267,350.247z M203.663,357.61v1.79c0,0,2.709-1.253,3.604-1.074
		c0.896,0.179,2.148,4.678,2.148,4.678s0.382-2.685,0.74-3.604c0.357-0.918,2.506-2.506,2.506-2.506h-5.215
		C206.551,356.894,203.663,357.61,203.663,357.61L203.663,357.61z M204.021,365.355l-0.896,2.507l2.352,1.074
		c0,0-1.253,5.776,0.358,5.597c1.611-0.179,3.222-1.432,2.148-3.604C206.909,368.757,204.021,365.355,204.021,365.355
		L204.021,365.355z M211.408,368.399c0,0-1.074,2.888,0,3.246c1.074,0.358,2.327,1.408,2.506,1.97
		c0.179,0.561,1.814,2.732,2.172,1.098s-0.871-3.067-1.611-3.425C213.735,370.929,211.408,368.399,211.408,368.399L211.408,368.399z
		 M219.333,372.541l2.328,4.32h2.888l-1.456-4.141C223.092,372.719,221.66,372.541,219.333,372.541L219.333,372.541z
		 M226.338,365.714c0,0-0.538,3.4,0.716,2.685c1.253-0.717,1.074-2.328,1.074-2.328L226.338,365.714L226.338,365.714z
		 M228.665,359.961c0,0,0.919-0.561,2.352-1.457c1.432-0.895,0.178-3.222-1.791-2.685c-1.969,0.537-0.561,2.327-0.561,2.327
		s-2.327,2.351-2.147,3.963C226.696,363.721,228.665,359.961,228.665,359.961L228.665,359.961z M227.054,352.932
		c0,0,1.433-0.895,1.611-2.148c0.18-1.253-1.074-1.277-2.147-0.358C225.443,351.345,227.054,352.932,227.054,352.932
		L227.054,352.932z M219.333,354.186c0,0-1.635-0.717-2.709-0.18c-1.074,0.537-0.537,2.172-0.537,2.172s1.611-0.18,3.043-0.18
		C220.562,355.999,219.333,354.186,219.333,354.186L219.333,354.186z M213.735,343.038c0,0,1.277-1.969,5.955-1.253
		c4.679,0.716,7.185,2.686,7.185,2.686s1.051,1.456,1.79,1.456c0.741,0,2.328-1.969,3.963-0.716c1.635,1.253,2.53,1.766,2.53,3.401
		s-1.074,7.03-0.895,8.283s1.097,10.944,0,11.863c-1.098,0.918-2.709,2.53-2.709,2.53s1.79,1.993,1.074,3.067
		s-5.574,3.401-5.574,3.401s-1.432,6.134-5.215,6.134s-8.999-2.53-8.999-2.53s-0.872,1.969-3.222,0.179
		c-2.352-1.79-4.32-4.141-4.32-4.141s-2.173,0.561-3.604-2.686c-1.433-3.246-1.791-5.06-1.791-5.956
		c0-0.895-0.739-3.377-0.918-3.938c-0.18-0.561,0.739-9.201,1.814-10.633c1.074-1.433,5.574-5.574,5.574-5.574
		s4.32-3.604,5.394-4.32C212.84,343.576,213.735,343.038,213.735,343.038L213.735,343.038z"/>
	<path d="M216.982,360.677c0,0,3.247,0,3.783,1.791c0.538,1.79-1.098,3.628-1.814,2.172c-0.716-1.456-0.895-2.53-1.611-2.53
		c-0.716,0-3.246,1.635-3.246,2.887c0,1.253,3.067,8.641,7.209,5.574c4.141-3.067,3.938-6.647,2.505-9.535
		C222.376,358.147,216.982,360.677,216.982,360.677L216.982,360.677z"/>
	<path fill="#00265D" d="M174.272,267.269l21.916,9.008l10.9-23.694c0,0,10.421,13.5,27.958,1.299
		c17.537-12.2,12.68-35.301,12.68-35.301s9.828-2.372,17.057,3.079c7.229,5.451,12.68,22.508,11.494,27.365
		c-1.186,4.857-4.264,7.23-4.264,7.23s-6.75,16.351-9.715,23.693c-2.965,7.343-9.715,15.758-19.429,19.43
		c-9.715,3.671-15.758,3.671-15.758,3.671s24.287-11.606,28.55-21.322c4.265-9.714,4.858-14.458,4.265-19.316
		c-0.593-4.857-1.779-6.75-1.779-6.75s-0.113,20.022-6.157,24.287c-6.044,4.265-29.737,20.022-29.737,20.022l-6.043,1.893
		l-13.386-2.485l-2.965,6.75l-7.342-2.486l3.078,8.529l-6.157-3.079l1.299,7.343l-3.671,4.857l6.043,5.45l11.607-13.979
		c0,0,2.372,4.378,7.229,3.079c4.858-1.299,9.122-4.264,13.387-4.264s8.529,4.264,8.529,4.264s-26.659,1.073-28.552,3.558
		s-1.893,16.465-1.893,16.465l8.529,6.043l-12.2,14.572l-25.473-3.078l-21.208,13.979c0,0-9.715-15.052,0.593-51.539
		C163.964,279.355,174.272,267.269,174.272,267.269L174.272,267.269z"/>
	<path fill-rule="evenodd" clip-rule="evenodd" fill="#00265D" d="M62.553,448.543c0,0-1.187-37.079,20.022-45.608
		c10.672-4.291,28.551,3.078,39.452,4.857c10.901,1.779,24.993-4.857,24.993-19.316c0-14.459,10.901-47.868,24.88-47.868
		c8.466,0,21.801,4.911,34.108,8.784c-1.835,1.831-3.469,3.846-4.384,5.86c-1.417,3.116-2.437,6.893-3.122,10.035
		c-2.705-1.025-4.986-1.89-6.58-2.397c-7.822-2.484-20.022-5.45-29.736,1.3c-9.715,6.749-12.2,28.438-12.2,34.595
		c0,6.156-7.23,18.836-18.836,24.287c-11.607,5.451-34.595-4.264-47.274-4.264C71.195,418.807,62.553,448.543,62.553,448.543
		L62.553,448.543z M237.172,352.571c5.525-1.85,6.996-4.846,6.996-4.846l9.122,11.606c0,0-7.152,7.236-15.319,11.609
		L237.172,352.571L237.172,352.571z"/>
	<path fill="#00265D" d="M224.379,334.711c-0.106,0.473,0,3.314,0.962,4.644c0.962,1.329,2.994,4.643,2.994,4.643
		s3.681-0.427,4.322-0.107c0.642,0.32,0.902,2.139,1.33,0.855c0.428-1.283,1.97-4.811,0.534-8.813
		c-1.436-4.001-3.635-3.085-4.963-6.08c-1.33-2.993-3.895-5.865-4.431-4.964C224.593,325.791,224.379,334.711,224.379,334.711
		L224.379,334.711z"/>
	<path fill="#00265D" d="M324.576,314.571l4.857,8.197c0,0,2.125-4.553,3.643-7.589c1.519-3.036,2.125-6.375,2.125-7.589
		c0-1.215,1.519-13.358,1.519-13.358l-6.68,7.894c0,0,4.857,0.607,0.607,5.465C326.396,312.446,324.576,314.571,324.576,314.571
		L324.576,314.571z"/>
	<path fill="#00265D" d="M323.361,349.787l10.019-7.893l3.946,1.214l-2.125,9.411l3.339,6.375l-3.036,6.375l-9.108-3.339
		l-7.589,1.821l-5.161,5.161l8.803-3.035l12.144,2.732l4.554,0.303c0,0,2.732-10.018,2.429-11.232
		c-0.304-1.215-2.733-10.019-2.733-10.019l0.911-6.982l-5.768-5.161l-11.537,9.715L323.361,349.787L323.361,349.787z"/>
	<path fill="#00265D" d="M288.449,446.327l2.429-8.803l8.5-4.25l10.018-3.036l14.269-0.304l11.536,4.25
		c0,0,1.822,16.394,1.822,17.911c0,1.519-2.732,10.93-2.732,10.93l-5.465,9.715l1.214,6.679l7.59-19.43l3.036-10.018l-0.607-14.573
		l-8.197-6.375l-8.804-2.429l-11.84-0.304l-8.197,0.608l-10.929,5.16c0,0-3.036,3.643-3.643,4.858
		c-0.607,1.214-2.429,9.108-2.429,9.108L288.449,446.327L288.449,446.327z"/>
	<polygon fill="#00265D" points="297.253,464.239 311.521,464.239 319.718,472.131 323.665,475.471 323.968,480.936 
		317.593,473.953 309.699,467.882 302.414,466.668 296.038,467.882 297.253,464.239 	"/>
	<path fill="#00265D" d="M301.502,475.471l15.787,27.626c0,0,7.894-8.197,6.983-13.358c-0.911-5.16-6.375-9.107-6.375-9.107
		l-6.375-3.947L301.502,475.471L301.502,475.471z"/>
	<path fill="#00265D" d="M278.43,431.451c0,0-3.036-2.428-5.161-10.018c-2.125-7.59-2.125-11.537-2.125-11.537l-4.857,5.769
		c0,0,2.429,7.893,6.375,12.447C276.608,432.666,278.43,431.451,278.43,431.451L278.43,431.451z"/>
	<path fill="#00265D" d="M204.127,251.836c0,0-1.626,1.897-2.167,0c-0.542-1.896-0.271-4.063-0.271-4.063l1.625-1.335l1.084-3.503
		l1.064-2.167l-1.064-3.503l1.335-1.896l1.897,0.271l1.083,3.503l-2.709,1.896l1.084,2.69l-2.961,2.709l0.271,3.232L204.127,251.836
		L204.127,251.836z"/>
	<polygon fill="#00265D" points="209.797,233.22 213.029,233.743 213.029,227.55 210.049,229.969 209.797,233.22 	"/>
	<polygon fill="#00265D" points="214.906,236.181 214.654,241.851 212.216,242.664 211.945,245.896 212.758,248.315 
		211.133,251.836 209.526,249.127 210.32,246.979 209.526,243.187 210.861,240.496 212.216,238.077 212.487,236.181 
		214.906,236.181 	"/>
	<path fill="#00265D" d="M218.428,228.091c0,0-0.813,4.045,0,4.315c0.813,0.271,3.774,1.336,3.774,1.336l0.542-4.044l4.315-1.607
		l0.813-2.98l2.69-1.606l1.083-2.438l3.773-0.542l-0.542,2.438L233,225.382v3.502l-1.625,3.522l4.316,2.148l1.625-6.464
		l-0.271-2.709l1.625-3.503l-0.813-3.232l-3.251-1.083l-3.232,0.271l-1.625,2.42h-2.69l-1.354,3.502l-3.232,0.813l-1.354,3.522
		H218.428L218.428,228.091z"/>
	<path fill="#00265D" d="M241.089,221.879l1.626,1.877l-1.626,2.708l-0.271,5.941l0.271,2.961c0,0-3.503-3.755-4.044-2.69
		c-0.542,1.064-3.231,4.044-3.231,4.044l-0.271,4.586l2.419,1.355l-1.084,3.231L233,247.773l-6.754,0.271v2.98l7.838,0.271v-2.708
		l7.005-4.587l-2.69-2.419l2.148-4.586l4.857-4.315v-8.65l-2.148-1.606l-1.355-3.522L241.089,221.879L241.089,221.879z"/>
	<polygon fill="#00265D" points="224.892,243.999 227.331,246.167 230.833,245.083 230.833,242.393 229.226,239.413 
		230.833,234.013 227.872,230.782 223.285,236.993 228.143,239.413 224.892,243.999 	"/>
	<polygon fill="#00265D" points="221.66,243.999 223.827,248.043 221.931,249.94 223.556,252.107 220.847,254.256 214.654,254.256 
		214.112,251.566 220.305,249.398 219.511,245.354 216.531,241.58 220.305,235.097 221.931,239.413 220.577,243.187 221.66,243.999 
			"/>
	<polygon fill="#00265D" points="217.074,245.625 216.803,247.773 214.112,248.043 214.112,245.354 217.074,245.625 	"/>
	<path fill="#00265D" d="M193.6,206.223c0,0-4.587-0.251-4.045-2.96s1.896-5.418,4.045-4.063c2.148,1.354,3.773,4.857,3.773,4.857
		s8.089,2.438,13.217,6.483c5.128,4.044,9.715,8.901,9.715,8.901l-3.502,2.709c0,0-4.587-7.025-10.528-10.256
		C200.334,208.662,193.6,206.223,193.6,206.223L193.6,206.223z"/>
	<path fill="#00265D" d="M203.855,193.548c0,0,8.089,7.819,12.405,13.218c4.316,5.399,6.483,10.798,6.483,10.798l4.586-2.438
		c0,0-9.696-13.488-13.218-17.262c-3.522-3.774-8.379-6.212-8.379-6.212s-0.793-4.316-2.148-5.399
		c-1.355-1.084-5.128-0.542-4.858,3.774C198.999,194.342,203.855,193.548,203.855,193.548L203.855,193.548z"/>
</g>
</svg>
