<?xml version="1.0" encoding="UTF-8" standalone="no"?>
<svg
   xmlns:dc="http://purl.org/dc/elements/1.1/"
   xmlns:cc="http://creativecommons.org/ns#"
   xmlns:rdf="http://www.w3.org/1999/02/22-rdf-syntax-ns#"
   xmlns:svg="http://www.w3.org/2000/svg"
   xmlns="http://www.w3.org/2000/svg"
   xmlns:sodipodi="http://sodipodi.sourceforge.net/DTD/sodipodi-0.dtd"
   xmlns:inkscape="http://www.inkscape.org/namespaces/inkscape"
   width="705.9256"
   version="1.1"
   height="1086.9073"
   viewBox="0 0 564.74048 869.52588"
   id="svg2935"
   inkscape:version="0.47 r22583"
   sodipodi:docname="Virtus_Lanciano-Seite001.svg">
  <metadata
     id="metadata3050">
    <rdf:RDF>
      <cc:Work
         rdf:about="">
        <dc:format>image/svg+xml</dc:format>
        <dc:type
           rdf:resource="http://purl.org/dc/dcmitype/StillImage" />
        <dc:title></dc:title>
      </cc:Work>
    </rdf:RDF>
  </metadata>
  <sodipodi:namedview
     pagecolor="#ffffff"
     bordercolor="#666666"
     borderopacity="1"
     objecttolerance="10"
     gridtolerance="10"
     guidetolerance="10"
     inkscape:pageopacity="0"
     inkscape:pageshadow="2"
     inkscape:window-width="1152"
     inkscape:window-height="804"
     id="namedview3048"
     showgrid="false"
     inkscape:zoom="0.71646393"
     inkscape:cx="264.08709"
     inkscape:cy="293.14436"
     inkscape:window-x="-4"
     inkscape:window-y="-4"
     inkscape:window-maximized="1"
     inkscape:current-layer="svg2935" />
  <defs
     id="defs2937">
    <inkscape:perspective
       sodipodi:type="inkscape:persp3d"
       inkscape:vp_x="0 : 372.5 : 1"
       inkscape:vp_y="0 : 1000 : 0"
       inkscape:vp_z="745 : 372.5 : 1"
       inkscape:persp3d-origin="372.5 : 248.33333 : 1"
       id="perspective3052" />
    <clipPath
       id="Clip0">
      <path
         d="m 0,0 595.275,0 0,595.276 L 0,595.276 0,0 z"
         transform="translate(0,0.416992)"
         id="path2940" />
    </clipPath>
  </defs>
  <g
     id="Hintergrund"
     transform="matrix(1.5244595,0,0,1.5337483,-171.36754,-22.378618)">
    <g
       id="Gruppe1"
       clip-path="url(#Clip0)">
      <path
         style="fill:#161413;fill-rule:evenodd;stroke:none"
         d="m 173.002,0 c 100.616,0 173.001,97.9472 173.001,218.723 0,120.778 -72.385,218.725 -173.001,218.725 C 72.387,437.448 0,339.501 0,218.723 0,97.9472 72.387,0 173.002,0 z"
         transform="translate(128.771,74.9258)"
         id="path2946" />
      <path
         style="fill:#e10017;fill-rule:evenodd;stroke:none"
         d="m 74.968,0 0,411.011 C 46.007,402.721 20.116,382.367 0,353.789 L 0,57.2216 C 20.116,28.6446 46.007,8.2901 74.968,0 z"
         transform="translate(197.148,87.7324)"
         id="path2948" />
      <path
         style="fill:#e10017;fill-rule:evenodd;stroke:none"
         d="m 0,0 3.738,0 c 27.278,8.166 51.784,27.0486 71.229,53.4156 l 0,303.4304 C 54.638,384.414 28.778,403.799 0,411.31 L 0,0 z"
         transform="translate(328.136,88.1074)"
         id="path2950" />
      <path
         style="fill:#fcdd59;fill-rule:evenodd;stroke:none"
         d="M 149.765,0 C 141.247,0 132.774,1.0147 124.493,3.0088 85.942,12.2891 55.769,41.3406 35.789,74.4856 11.171,115.323 0,164.564 0,211.965 c 0,47.401 11.171,96.642 35.789,137.479 19.98,33.145 50.153,62.196 88.704,71.477 8.281,1.994 16.754,3.008 25.272,3.008 8.519,0 16.992,-1.014 25.273,-3.008 38.551,-9.281 68.724,-38.332 88.704,-71.477 24.618,-40.837 35.789,-90.078 35.789,-137.479 0,-47.401 -11.171,-96.642 -35.789,-137.4794 C 243.762,41.3406 213.589,12.2891 175.038,3.0088 166.757,1.0147 158.284,0 149.765,0 z m 0,5.376 c 7.925,0 15.812,0.9199 23.527,2.7295 37.569,8.8086 66.863,37.2681 86.181,69.5381 23.896,39.9184 34.682,88.0794 34.682,134.3214 0,46.242 -10.786,94.404 -34.682,134.321 -19.318,32.27 -48.612,60.73 -86.181,69.538 -7.715,1.809 -15.602,2.729 -23.527,2.729 -7.924,0 -15.81,-0.92 -23.525,-2.729 C 88.67,407.016 59.376,378.556 40.057,346.286 16.163,306.369 5.376,258.207 5.376,211.965 5.376,165.723 16.163,117.562 40.057,77.6436 59.376,45.3736 88.67,16.9141 126.24,8.1055 133.955,6.2959 141.841,5.376 149.765,5.376 z"
         transform="translate(152.006,81.2734)"
         id="path2952" />
      <path
         style="fill:#161413;fill-rule:evenodd;stroke:none"
         d="M 33.403,54.03 36.448,13.926 63.074,45.28 80.544,0 l 18.592,45.607 26.641,-31.082 3.745,39.461 35.857,-22.412 -33.217,76.599 -8.49,-3.335 C 96.254,94.065 68.328,92.645 40.989,104.136 L 32.411,107.741 0,33.727 33.403,54.03 z"
         transform="translate(217.692,126.754)"
         id="path2954" />
      <path
         style="fill:#fcdd59;fill-rule:evenodd;stroke:none"
         d="m 0,31.716 16.685,38.103 c 28.42,-11.946 58.697,-11.602 89.797,0.618 L 123.988,30.068 100.921,44.487 97.832,11.944 76.822,37.895 61.787,0 46.753,38.103 23.481,11.946 21.011,44.487 0,31.716 z"
         transform="translate(238.336,152.365)"
         id="path2956" />
      <path
         style="fill:#fcdd59;fill-rule:evenodd;stroke:none"
         d="M 23.335,0 29.612,15.756 46.669,13.21 35.892,26.418 46.669,39.627 29.612,37.081 23.335,52.837 17.057,37.081 0,39.627 10.777,26.418 0,13.21 17.057,15.756 23.335,0 z"
         transform="translate(276.999,116.557)"
         id="path2958" />
      <path
         style="fill:#161413;fill-rule:evenodd;stroke:none"
         d="M 44.687,74.3164 35.876,47.042 c -0.46,-1.417 -1.35,-4.1387 -2.286,-5.3017 -0.406,-0.5049 -1.028,-0.6924 -1.649,-0.751 -1.018,-0.086 -2.233,0.4726 -3.108,0.9638 -0.168,0.084 -0.339,0.1768 -0.504,0.2666 l -0.373,0.2041 -1.416,-1.7617 11.693,-9.3955 1.415,1.7588 -0.273,0.3213 c -0.792,0.9258 -1.532,2.0645 -1.706,3.2871 -0.215,1.9209 0.3,4.1074 0.888,5.9238 l 13.576,42.3067 -1.5,1.2059 -39.68,-22.0106 C 10.069,63.5713 8.139,62.4424 7.173,62.211 6.361,61.9961 5.539,61.9805 4.714,62.1572 c -1,0.1954 -2.044,0.7959 -2.883,1.3565 L 1.443,63.7725 0,61.9795 15.238,49.7403 l 1.439,1.789 -0.329,0.3223 c -0.695,0.6806 -2.143,2.1748 -2.33,3.164 -0.116,0.6836 0.05,1.2823 0.485,1.8213 0.981,1.2207 3.183,2.4922 4.54,3.2442 l 25.644,14.2353 z m 45.576,-16.0781 1.006,2.1035 -19.625,9.376 -1.003,-2.1045 2.006,-0.958 c 1.331,-0.6367 2.564,-1.5898 2.887,-3.0996 0.24,-1.167 -1.055,-3.9727 -1.548,-5.0039 L 60.514,30.3555 c -0.502,-1.0518 -1.543,-3.2217 -2.39,-4.0166 -0.456,-0.4141 -1.075,-0.5723 -1.668,-0.6211 -1.081,-0.0596 -2.106,0.1328 -3.082,0.5996 l -2.008,0.958 -1.012,-2.1152 19.624,-9.376 1.011,2.1162 -2.04,0.9746 c -1.324,0.6319 -2.531,1.5811 -2.86,3.0781 -0.261,1.1924 1.013,3.9629 1.515,5.0137 l 13.473,28.1973 c 0.502,1.0517 1.543,3.2207 2.391,4.0156 0.459,0.417 1.1,0.5654 1.702,0.6055 1.063,0.0693 2.09,-0.1123 3.052,-0.5723 l 2.041,-0.9746 z m 20.153,-26.8125 c -0.885,0.1699 -1.772,0.3379 -2.662,0.4814 -0.335,0.0538 -0.668,0.1055 -1.004,0.1485 -0.193,0.0244 -0.386,0.0478 -0.579,0.0713 l 2.144,13.3418 c 0.186,1.1523 0.748,4.3418 1.708,5.1308 1.094,0.9102 2.501,1.0137 3.859,0.795 l 2.377,-0.3819 0.37,2.3028 -21.46,3.4492 -0.37,-2.3028 2.293,-0.3691 c 1.544,-0.2481 2.956,-0.8867 3.629,-2.375 0.474,-1.0303 0.047,-3.9199 -0.127,-5.0078 L 95.634,15.8565 C 95.451,14.7207 94.886,11.5088 93.931,10.7393 92.822,9.8281 91.365,9.7334 89.998,9.9541 l -2.293,0.3672 -0.374,-2.3135 17.895,-2.8759 c 3.473,-0.5577 8.044,-1.1836 11.544,-0.6866 2.661,0.3662 5.006,1.4629 7.048,3.208 2.138,1.8545 3.375,4.2129 3.824,7.0039 0.485,3.0284 -0.069,5.8711 -1.719,8.46 -1.765,2.7744 -4.692,4.627 -7.679,5.9024 l 11.522,11.581 c 1.755,1.7764 4.34,4.2207 6.653,5.2305 1.991,0.8467 4.298,1.0156 6.437,0.9101 l 0.455,-0.0224 0.363,2.25 -13.513,2.1718 -19.745,-19.7148 z m -4.768,-2.5527 c 0.228,-0.0362 0.456,-0.0694 0.685,-0.0977 0.263,-0.0322 0.529,-0.0615 0.791,-0.1035 3.397,-0.5459 7.21,-1.7256 9.519,-4.4395 1.908,-2.2343 2.612,-4.7832 2.146,-7.6826 -0.425,-2.6465 -1.573,-4.9052 -3.764,-6.4912 -2.221,-1.6064 -4.817,-1.9482 -7.487,-1.5195 -1.626,0.2617 -3.36,0.833 -4.935,1.3965 l 3.045,18.9375 z m 65.198,-22.75 -3.178,36.3115 c -0.1,1.1494 -0.328,4.2881 0.374,5.2773 0.858,1.1358 2.31,1.5342 3.667,1.6534 l 2.18,0.1904 -0.204,2.3232 -21.446,-1.8769 0.201,-2.3223 2.217,0.1934 c 1.486,0.1299 3.057,-0.0791 4.057,-1.295 0.738,-0.8886 1.028,-3.7158 1.127,-4.8291 l 3.177,-36.3105 -5.291,-0.4629 c -1.332,-0.1162 -3.361,-0.2627 -4.661,0.0635 -1.276,0.3398 -2.299,1.1406 -3.128,2.1474 -1.092,1.3409 -1.63,3.1358 -1.909,4.8165 l -0.078,0.4638 -2.348,-0.206 L 147.302,0 l 40.293,3.5244 -0.496,12.3672 -2.335,-0.2041 -0.018,-0.4482 c -0.05,-1.2295 -0.165,-3.041 -0.653,-4.1836 -0.531,-1.251 -1.329,-2.3096 -2.468,-3.0606 -1.299,-0.8476 -2.973,-1.1894 -4.495,-1.3222 l -6.284,-0.5498 z m 74.485,23.8984 c -0.967,0.6328 -2.122,3.1523 -2.572,4.1787 l -7.895,17.9512 c -1.462,3.3242 -3.436,7.2432 -5.956,9.8974 -2.509,2.6417 -5.951,4.1524 -9.554,4.501 -3.298,0.3194 -6.71,-0.3486 -9.731,-1.6748 -3.886,-1.706 -7.047,-3.8672 -9.349,-7.4902 -1.822,-2.8682 -2.639,-6.0068 -2.435,-9.4033 0.242,-3.3721 2.437,-8.459 3.792,-11.5401 l 7.609,-17.3047 c 0.576,-1.3086 1.683,-4.0322 1.21,-5.4834 -0.401,-1.2597 -1.648,-2.0537 -2.795,-2.5586 l -2.137,-0.9394 0.944,-2.1465 20.063,8.8242 -0.942,2.1465 -2.16,-0.9502 c -1.368,-0.6025 -2.881,-0.8721 -4.212,-0.0303 -1.106,0.6729 -2.264,3.1661 -2.765,4.3067 l -8.487,19.2998 c -0.856,1.9453 -1.529,4.001 -2.106,6.0439 -0.49,1.7735 -0.877,3.8868 -0.556,5.7227 0.289,1.6465 1.084,3.1152 2.126,4.4072 1.307,1.6211 2.397,2.4444 4.336,3.2959 4.568,2.0069 10.039,1.9463 13.827,-1.624 2.267,-2.1377 4.304,-6.4678 5.543,-9.2871 l 7.885,-17.9297 c 0.47,-1.0693 1.724,-4.041 1.345,-5.2236 -0.44,-1.377 -1.598,-2.2325 -2.876,-2.794 l -2.136,-0.9394 0.943,-2.1465 16.61,7.3056 -0.944,2.1465 -2.138,-0.9414 c -1.575,-0.6933 -3.049,-0.5625 -4.487,0.3799 z m 47.462,27.5352 -11.034,13.8964 -1.808,-1.4365 0.224,-0.3808 c 1.283,-2.1817 2.504,-4.7608 2.844,-7.293 0.293,-2.1875 0.123,-4.3789 -0.774,-6.416 -0.91,-2.0694 -2.639,-4.0362 -4.396,-5.4317 -1.763,-1.3994 -3.756,-2.1992 -6.022,-2.0546 -1.904,0.121 -3.588,0.7675 -4.794,2.2851 -0.876,1.1055 -1.222,2.3984 -1.154,3.8057 0.109,3.3252 2.669,9.1279 4.02,12.1494 1.41,3.1504 3.199,7.0508 4.034,10.3955 0.532,2.0586 0.65,4.168 0.249,6.2617 -0.387,1.9971 -1.19,3.8133 -2.455,5.4063 -2.459,3.097 -5.776,4.616 -9.7,4.873 -4.39,0.277 -8.282,-1.326 -11.691,-4.032 -1.097,-0.871 -2.116,-1.827 -3.062,-2.861 -1.254,-1.3707 -2.471,-2.9224 -3.512,-4.4566 -0.58,-0.8555 -1.964,-2.9756 -2.754,-3.6025 -0.322,-0.2559 -0.686,-0.4248 -1.105,-0.3799 -0.514,0.0547 -1.343,0.7763 -1.708,1.1103 l -0.32,0.294 -1.801,-1.4287 10.944,-13.7813 1.793,1.4238 -0.2,0.3741 c -1.168,2.1972 -2.482,5.0283 -2.76,7.5283 -0.24,2.1348 0.284,4.2422 1.163,6.1787 1.024,2.2617 3.137,4.5957 5.078,6.1368 1.958,1.554 4.26,2.704 6.816,2.574 2.087,-0.112 3.862,-0.856 5.175,-2.508 0.743,-0.9372 1.149,-2.0466 1.351,-3.2155 0.238,-1.457 0.028,-2.9795 -0.356,-4.3965 -0.664,-2.5498 -2.249,-5.9258 -3.287,-8.3721 -1.348,-3.1611 -2.865,-6.7451 -3.714,-10.0791 -0.516,-2.0634 -0.714,-4.2216 -0.389,-6.3339 0.33,-2.0108 1.167,-3.8174 2.435,-5.4121 2.326,-2.9307 5.446,-4.3917 9.163,-4.6446 4.096,-0.2793 7.719,1.1572 10.906,3.6885 2.38,1.8867 4.686,4.6455 6.131,7.3301 0.235,0.4365 0.93,1.9511 1.285,2.2334 0.352,0.2783 0.759,0.4717 1.216,0.4384 0.591,-0.0449 1.43,-0.6689 1.873,-1.0253 l 0.317,-0.2539 1.779,1.4121 z"
         transform="translate(152.627,14.5908)"
         id="path2960" />
      <path
         style="fill:#161413;fill-rule:evenodd;stroke:none"
         d="m 15.342,43.067 c 1.724,2.485 3.287,5.137 5.796,6.924 1.365,0.956 3.285,1.849 4.955,2.051 2.304,0.266 5.103,-0.207 7.352,-0.701 L 33.863,51.25 34.692,53.279 20.66,57.615 0,28.108 1.918,26.78 3.25,28.695 c 0.887,1.286 2.07,2.287 3.698,2.254 1.154,-0.036 3.564,-1.664 4.491,-2.304 L 37.105,10.873 C 38.07,10.205 40.691,8.34 40.986,7.127 41.331,5.732 40.794,4.393 40.004,3.254 L 38.676,1.331 40.606,0 l 13.038,18.836 -1.929,1.34 -0.289,-0.424 c -0.804,-1.185 -2.219,-3.166 -3.484,-3.884 -0.723,-0.411 -1.586,-0.734 -2.437,-0.593 -1.118,0.148 -3.674,1.9 -4.602,2.542 L 15.918,35.118 c -0.848,0.585 -2.351,1.677 -2.849,2.592 -0.215,0.435 -0.232,0.896 -0.125,1.365 0.231,0.965 1.836,3.18 2.398,3.992 z M 65.62,81.075 53.274,69.678 46.157,73.065 c -1.072,0.505 -2.721,1.328 -3.534,2.208 -0.434,0.471 -0.534,1.061 -0.464,1.681 0.127,1.043 1.567,2.668 2.251,3.405 l 0.32,0.345 -1.555,1.686 -11.202,-10.34 1.52,-1.649 0.358,0.222 c 0.775,0.479 2.398,1.429 3.35,1.379 2.123,-0.08 5.391,-1.591 7.283,-2.505 l 38.984,-18.609 1.36,1.256 -15.845,40.55 c -0.673,1.715 -1.847,4.873 -1.704,6.738 0.115,1.481 0.931,2.766 1.931,3.819 l 0.327,0.345 -1.558,1.69 -13.852,-12.785 1.564,-1.695 0.371,0.308 c 0.719,0.595 2.059,1.609 3.04,1.644 0.656,0.031 1.214,-0.171 1.661,-0.656 0.928,-1.005 1.781,-3.126 2.275,-4.39 l 2.582,-6.637 z m 1.502,-3.593 6.884,-17.669 -17.19,8.155 10.306,9.514 z m 196.559,35.711 -15.482,6.53 0.142,7.88 c 0.017,1.186 0.084,3.028 0.55,4.132 0.25,0.591 0.742,0.924 1.338,1.116 1.003,0.316 3.076,-0.322 4.032,-0.64 l 0.445,-0.15 0.893,2.113 -14.047,5.925 -0.873,-2.066 0.349,-0.234 c 0.759,-0.507 2.294,-1.593 2.641,-2.482 0.806,-1.965 0.781,-5.565 0.732,-7.665 l -0.826,-43.19 1.706,-0.72 30.37,31.195 c 1.284,1.321 3.674,3.696 5.431,4.336 1.391,0.507 2.907,0.295 4.276,-0.179 l 0.45,-0.156 0.893,2.118 -17.369,7.326 -0.896,-2.124 0.433,-0.21 c 0.84,-0.41 2.318,-1.209 2.756,-2.089 0.299,-0.587 0.346,-1.173 0.088,-1.783 -0.531,-1.26 -2.109,-2.915 -3.058,-3.887 l -4.974,-5.096 z m -2.649,-2.853 -13.243,-13.573 0.319,19.024 12.924,-5.451 z m -138.978,9.647 11.917,-23.584 c 0.515,-1.022 1.895,-3.87 1.581,-5.047 -0.37,-1.378 -1.576,-2.287 -2.792,-2.9 l -1.953,-0.991 1.059,-2.089 15.933,8.048 -1.055,2.092 -1.988,-1.002 c -1.323,-0.671 -2.868,-1.064 -4.243,-0.314 -1.012,0.551 -2.331,3.086 -2.835,4.081 l -18.609,36.833 -1.827,-0.924 -9.999,-49.225 -13.421,26.563 c -0.51,1.009 -1.919,3.875 -1.615,5.036 0.365,1.373 1.581,2.287 2.79,2.899 l 1.975,0.999 -1.051,2.081 -15.921,-8.047 1.051,-2.083 1.941,0.981 c 1.344,0.679 2.89,1.082 4.289,0.326 1.007,-0.543 2.328,-3.08 2.828,-4.068 l 15.086,-29.854 c -0.307,-1.267 -0.723,-2.918 -1.295,-4.044 -0.492,-0.946 -1.34,-1.868 -2.087,-2.608 -0.675,-0.635 -1.716,-1.196 -2.539,-1.612 l -0.455,-0.23 1.058,-2.09 13.304,6.722 8.873,44.051 z M 321.797,76.486 304.793,56.259 c -0.74,-0.88 -2.814,-3.264 -4.026,-3.437 -1.405,-0.2 -2.723,0.553 -3.759,1.425 l -1.677,1.409 -1.509,-1.795 13.664,-11.488 1.508,1.794 -1.703,1.429 c -1.137,0.956 -2.105,2.216 -1.954,3.779 0.109,1.15 1.918,3.353 2.638,4.21 l 26.552,31.588 -1.564,1.313 -49.194,-10.147 19.15,22.782 c 0.724,0.861 2.815,3.294 3.999,3.465 1.402,0.206 2.726,-0.558 3.759,-1.429 l 1.695,-1.425 1.5,1.789 -13.655,11.475 -1.502,-1.782 1.664,-1.4 c 1.157,-0.973 2.131,-2.23 1.988,-3.817 -0.106,-1.14 -1.917,-3.35 -2.63,-4.199 L 278.216,76.194 c -1.285,-0.217 -2.971,-0.483 -4.23,-0.399 -1.063,0.082 -2.243,0.496 -3.219,0.892 -0.85,0.373 -1.773,1.108 -2.479,1.702 l -0.388,0.329 -1.511,-1.794 11.412,-9.592 43.996,9.154 z m -133.183,19.968 -1.547,18.648 -2.068,-0.311 -0.031,-0.403 c -0.346,-4.445 -0.959,-9.361 -4.355,-12.587 -2.433,-2.31 -5.374,-3.435 -8.714,-3.622 -2.873,-0.162 -5.551,0.454 -8.033,1.913 -2.785,1.637 -4.681,4.35 -6.019,7.23 -1.847,3.977 -2.603,8.631 -2.875,12.977 -0.238,3.766 0.005,7.682 1.236,11.274 1.025,3.009 2.723,5.564 5.298,7.448 2.547,1.876 5.46,2.798 8.611,2.973 2.684,0.152 4.96,-0.217 7.348,-1.456 2.851,-1.48 5.512,-4.886 7.34,-7.454 l 0.294,-0.413 1.897,1.341 -0.25,0.407 c -2.045,3.315 -5.035,7.244 -8.427,9.201 -3.467,2.001 -7.002,2.605 -10.968,2.383 -7.506,-0.423 -13.389,-3.671 -17.311,-10.128 -3.006,-4.928 -4.069,-10.415 -3.709,-16.137 0.296,-4.73 1.555,-9.226 3.941,-13.333 2.24,-3.845 5.258,-6.957 9.167,-9.099 3.786,-2.057 7.837,-2.966 12.139,-2.723 3.517,0.196 6.79,1.34 9.791,3.172 0.487,0.309 3.318,1.623 3.785,1.185 0.648,-0.603 1.032,-1.527 1.274,-2.361 l 0.123,-0.426 2.063,0.301 z m 35.917,44.21 0.268,2.316 -21.606,2.497 -0.266,-2.316 2.21,-0.256 c 1.466,-0.169 2.94,-0.671 3.736,-1.994 0.606,-1.026 0.292,-4.101 0.162,-5.236 l -3.589,-31.043 c -0.133,-1.156 -0.414,-3.547 -0.958,-4.575 -0.296,-0.54 -0.83,-0.89 -1.374,-1.129 -1.002,-0.406 -2.037,-0.558 -3.11,-0.434 l -2.211,0.257 -0.269,-2.329 21.604,-2.499 0.27,2.33 -2.247,0.259 c -1.456,0.168 -2.909,0.673 -3.706,1.983 -0.632,1.043 -0.327,4.078 -0.193,5.236 l 3.589,31.042 c 0.134,1.156 0.413,3.549 0.957,4.575 0.299,0.543 0.857,0.891 1.413,1.125 0.985,0.412 2.01,0.573 3.074,0.45 l 2.246,-0.259 z M 324.649,16.918 c 3.914,-5.31 9.261,-8.236 15.782,-9.1 6.935,-0.919 13.22,0.996 18.828,5.132 5.731,4.227 9.569,9.731 10.793,16.785 1.166,6.671 -0.202,12.804 -4.226,18.26 -3.994,5.417 -9.333,8.625 -16.012,9.491 -7.056,0.905 -13.515,-1.351 -19.182,-5.531 -6.05,-4.46 -9.821,-10.314 -10.68,-17.818 -0.705,-6.324 0.923,-12.103 4.697,-17.219 z m 2.507,2.681 c -2.417,3.279 -3.241,6.859 -2.221,10.819 1.51,5.864 6.308,10.575 11.03,14.058 4.944,3.646 11.035,6.865 17.352,6.641 4.049,-0.16 7.216,-1.925 9.617,-5.18 2.629,-3.564 3.359,-7.491 2.31,-11.787 -1.332,-5.446 -6.325,-10.038 -10.662,-13.237 -4.865,-3.587 -11.222,-7.199 -17.473,-6.945 -4.235,0.189 -7.461,2.253 -9.953,5.631 z"
         transform="translate(112.412,435.473)"
         id="path2962" />
      <path
         style="fill:#161413;fill-rule:evenodd;stroke:none"
         d="m 142.803,0 0,152.881 c 0,8.194 -3.101,15.913 -9.075,21.586 -8.143,7.734 -19.681,10.044 -30.564,10.044 -6.171,0 -14.405,0.357 -20.282,2.531 -2.578,0.953 -2.97,1.647 -5.06,3.05 l -5.267,3.535 -5.264,-3.538 C 59.629,184.94 48.52,184.511 39.64,184.511 28.757,184.511 17.219,182.201 9.075,174.467 3.102,168.794 0,161.075 0,152.881 L 0,0 142.803,0 z"
         transform="translate(228.552,224.479)"
         id="path2964" />
      <path
         style="fill:#e10017;fill-rule:evenodd;stroke:none"
         d="m 72.009,32.123 c -2.571,0.401 -5.421,0.62 -8.583,0.62 -23.903,0 -28.719,5.917 -30.606,7.184 C 30.938,38.662 23.822,32.76 0,32.744 0.58,31.775 1.346,30.803 1.925,30.053 3.61,27.872 5.344,25.728 6.927,23.469 c 2.242,-3.204 4.093,-6.664 6.055,-10.04 0.762,-1.313 1.74,-2.141 2.235,-3.66 0.187,-0.573 0.942,-2.58 1.49,-2.807 2.006,-0.272 4.511,5.971 5.503,7.398 l 0.629,0.903 0.985,-0.49 c 2.701,-1.343 3.712,-6.2 4.602,-8.849 0.514,-1.532 2.25,-5.917 4.187,-5.923 0.138,-0.001 0.261,0.016 0.375,0.096 0.55,0.389 1.554,2.646 2.312,3.413 2.377,2.41 4.261,5.22 5.822,8.212 1.206,2.311 2.202,5.075 3.714,7.173 l 0.802,1.116 1.051,-0.884 C 49.56,16.713 50.562,4.755 54.017,4.41 c 0.431,-0.043 1.325,-0.11 1.659,0.218 0.362,0.354 0.642,1.58 0.782,2.086 0.448,1.626 0.991,3.099 1.881,4.542 0.491,0.795 1.018,1.568 1.569,2.323 2.118,2.899 4.568,5.535 6.7,8.422 2.334,3.159 4.132,6.438 5.401,10.122 z"
         transform="translate(268.29,366.803)"
         id="path2966" />
      <path
         style="fill:#00a1d6;fill-rule:evenodd;stroke:none"
         d="m 123.916,0 0,85.151 c 0,7.996 -4.263,17.85 -19.082,21.093 -1.358,-4.074 -3.319,-7.694 -5.882,-11.164 -2.13,-2.884 -4.577,-5.516 -6.692,-8.41 -0.512,-0.701 -1.002,-1.418 -1.458,-2.157 -0.761,-1.234 -1.21,-2.493 -1.593,-3.882 -0.309,-1.124 -0.593,-2.384 -1.455,-3.23 -0.996,-0.974 -2.383,-1.065 -3.696,-0.934 -3.579,0.357 -5.158,5.4 -6.059,8.272 -0.574,1.833 -1.055,3.805 -1.816,5.579 -0.902,-1.696 -1.62,-3.481 -2.508,-5.181 -1.68,-3.218 -3.71,-6.232 -6.267,-8.823 -1.55,-1.569 -1.585,-4.279 -4.509,-4.268 -3.543,0.013 -5.649,4.843 -6.595,7.66 -0.635,1.892 -1.313,4.834 -2.468,6.524 -1.493,-2.755 -3.529,-7.69 -7.241,-7.184 -1.857,0.254 -2.998,2.965 -3.506,4.526 -0.374,1.145 -1.41,2.126 -2.017,3.171 -1.925,3.315 -3.739,6.716 -5.94,9.859 -1.558,2.226 -3.271,4.337 -4.931,6.488 -0.944,1.223 -2.087,2.698 -2.745,4.187 C 5.812,106.357 0,94.488 0,85.151 L 0,81.445 123.916,0 z"
         transform="translate(237.996,292.209)"
         id="path2968" />
      <path
         style="fill:#ffffff;fill-rule:evenodd;stroke:none"
         d="M 123.545,26.998 123.545,0 0,80.48 0,108.199 123.545,26.998 z"
         transform="translate(238.183,262.283)"
         id="path2970" />
      <path
         style="fill:#00a1d6;fill-rule:evenodd;stroke:none"
         d="m 123.916,0 0,25.198 L 0,105.92 0,0 123.916,0 z"
         transform="translate(237.996,233.923)"
         id="path2972" />
      <path
         style="fill:#161413;fill-rule:evenodd;stroke:none"
         d="M 10.639,3.561 15.953,0 l 0.292,6.427 5.716,2.857 -5.376,3.464 0.403,6.42 L 11.322,16.207 6.009,19.769 5.717,13.342 0,10.485 5.374,7.02 4.973,0.602 10.639,3.561 z"
         transform="translate(252.92,329.994)"
         id="path2974" />
      <path
         style="fill:#fbde00;fill-rule:evenodd;stroke:none"
         d="M 2.995,0.357 3.235,4.193 0,6.28 3.442,8 3.617,11.839 6.79,9.711 10.177,11.48 9.936,7.645 13.172,5.559 9.732,3.839 9.557,0 6.382,2.127 2.995,0.357 z"
         transform="translate(257.314,333.959)"
         id="path2976" />
      <path
         style="fill:#161413;fill-rule:evenodd;stroke:none"
         d="M 10.639,3.561 15.953,0 l 0.291,6.426 5.717,2.858 -5.376,3.465 0.404,6.42 L 11.323,16.208 6.009,19.769 5.717,13.342 0,10.486 5.374,7.02 4.972,0.602 10.639,3.561 z"
         transform="translate(288.487,306.762)"
         id="path2978" />
      <path
         style="fill:#fbde00;fill-rule:evenodd;stroke:none"
         d="M 2.994,0.357 3.234,4.194 0,6.28 3.441,8 3.615,11.838 6.789,9.711 10.177,11.481 9.935,7.645 13.172,5.559 9.731,3.839 9.556,0 6.382,2.127 2.994,0.357 z"
         transform="translate(292.882,310.727)"
         id="path2980" />
      <path
         style="fill:#161413;fill-rule:evenodd;stroke:none"
         d="M 10.638,3.56 15.954,0 l 0.291,6.426 5.716,2.858 -5.375,3.464 0.402,6.42 L 11.322,16.207 6.009,19.768 5.716,13.341 0,10.485 5.374,7.019 4.972,0.601 10.638,3.56 z"
         transform="translate(326.933,281.475)"
         id="path2982" />
      <path
         style="fill:#fbde00;fill-rule:evenodd;stroke:none"
         d="M 2.994,0.358 3.235,4.194 0,6.281 3.442,8 3.616,11.839 6.79,9.711 10.177,11.482 9.937,7.645 13.172,5.559 9.732,3.839 9.558,0 6.383,2.127 2.994,0.358 z"
         transform="translate(331.327,285.439)"
         id="path2984" />
      <path
         style="fill:#161413;fill-rule:evenodd;stroke:none"
         d="m 18.041,19.077 c 0.504,-0.278 1.09,-0.35 1.638,-0.131 1.348,0.538 1.566,2.478 1.26,3.721 -0.402,1.621 -2.022,2.339 -3.557,2.31 -0.352,-0.008 -0.7,-0.067 -1.033,-0.173 0.498,1.371 0.375,3.066 -1.024,3.873 -0.487,0.278 -1.044,0.423 -1.634,0.435 C 13.132,29.1 12.574,28.955 12.085,28.675 10.682,27.868 10.566,26.156 11.072,24.781 10.679,24.933 10.264,25.019 9.846,25.028 8.309,25.057 6.735,24.254 6.339,22.666 6.239,22.256 6.21,21.799 6.23,21.378 6.307,19.763 7.457,18.207 9.086,18.997 9.082,18.935 9.08,18.874 9.08,18.811 9.08,18.315 9.217,17.851 9.458,17.455 9.082,17.078 8.599,16.815 8.061,16.745 7.26,16.64 6.51,17.489 6.548,18.27 6.616,19.641 5.037,20.562 3.849,19.844 2.849,19.241 2.034,18.887 1.311,17.895 0.347,16.57 0,15.012 0.426,13.418 1.082,10.992 3.074,9.095 5.638,8.951 6.842,8.883 7.86,9.151 8.736,9.643 8.698,9.319 8.678,8.985 8.679,8.636 8.695,5.416 11.042,3.803 12.134,1.195 12.427,0.512 12.909,0.011 13.691,0.011 14.492,0 14.98,0.506 15.283,1.201 c 1.087,2.598 3.435,4.213 3.451,7.435 10e-4,0.321 -0.016,0.63 -0.048,0.93 0.843,-0.442 1.816,-0.679 2.955,-0.615 2.566,0.144 4.558,2.041 5.213,4.47 0.425,1.592 0.079,3.149 -0.886,4.473 -0.721,0.993 -1.537,1.346 -2.536,1.949 -1.181,0.715 -2.752,-0.196 -2.702,-1.568 0.038,-0.782 -0.71,-1.635 -1.513,-1.53 -0.58,0.076 -1.097,0.377 -1.484,0.805 0.205,0.374 0.321,0.804 0.321,1.261 0,0.09 -0.005,0.179 -0.013,0.266 z"
         transform="translate(244.729,365.563)"
         id="path2986" />
      <path
         style="fill:#fbde00;fill-rule:evenodd;stroke:none"
         d="m 20.037,8.938 c 1.906,0.107 3.391,1.542 3.891,3.395 0.305,1.147 0.063,2.253 -0.658,3.244 -0.551,0.758 -1.34,1.093 -2.113,1.561 -0.235,0.142 -0.504,-0.099 -0.499,-0.26 0.088,-1.788 -1.544,-3.248 -3.151,-3.037 -0.871,0.114 -1.693,0.542 -2.323,1.215 -0.373,-0.207 -0.397,-0.274 -0.854,-0.272 -0.052,0 2.013,-6.23 5.707,-5.846 z m -4.959,8.41 c 0,0.643 -0.516,1.162 -1.153,1.162 l -3.762,0 c -0.636,0 -1.153,-0.519 -1.153,-1.162 0,-0.64 0.517,-1.163 1.153,-1.163 l 3.762,0 c 0.638,-10e-4 1.153,0.521 1.153,1.163 z m -0.814,2.593 c 0.207,0.192 0.481,0.346 0.837,0.447 1.062,0.301 1.432,-1.077 2.077,-1.477 0.869,-0.541 1.016,1.177 0.828,1.944 -0.241,0.973 -1.393,1.22 -2.118,1.206 -0.772,-0.016 -1.655,-0.494 -2.06,-1.345 -0.116,-0.245 -0.219,-0.497 -0.305,-0.753 l 0.402,0 c 0.115,0 0.228,-0.008 0.339,-0.022 z M 4.196,8.938 C 2.291,9.045 0.807,10.48 0.307,12.333 0,13.48 0.242,14.586 0.963,15.577 1.516,16.335 2.304,16.67 3.077,17.138 3.312,17.28 3.581,17.039 3.573,16.878 3.487,15.09 5.12,13.63 6.727,13.841 c 0.849,0.112 1.651,0.521 2.275,1.165 0.35,-0.175 0.389,-0.274 0.806,-0.274 0.144,0 -1.733,-5.998 -5.612,-5.794 z M 9.955,19.954 C 9.75,20.141 9.479,20.289 9.133,20.388 8.07,20.689 7.699,19.311 7.056,18.911 6.186,18.37 6.038,20.088 6.227,20.855 c 0.242,0.973 1.343,1.27 2.069,1.257 0.771,-0.015 1.705,-0.545 2.109,-1.396 0.117,-0.245 0.219,-0.497 0.305,-0.753 l -0.547,0 c -0.069,0 -0.14,-0.004 -0.208,-0.009 z m 2.229,6.242 c -0.32,-0.006 -0.623,-0.087 -0.898,-0.243 -0.762,-0.439 -0.61,-1.532 -0.35,-2.194 0.488,-1.247 0.769,-2.522 0.864,-3.796 l 0.765,0 c 0.096,1.275 0.378,2.549 0.867,3.796 0.259,0.663 0.412,1.753 -0.352,2.194 -0.274,0.156 -0.577,0.237 -0.896,0.243 z M 11.173,14.732 C 10.339,12.173 8.596,9.946 8.609,7.18 8.622,4.571 10.937,2.713 11.947,0.303 12.036,0.095 12.09,0.001 12.185,0.001 12.278,0 12.332,0.097 12.422,0.303 c 1.007,2.408 3.323,4.266 3.336,6.877 0.012,2.764 -1.73,4.991 -2.563,7.552 l -2.022,0 z"
         transform="translate(246.252,367.026)"
         id="path2988" />
      <path
         style="fill:#161413;fill-rule:evenodd;stroke:none"
         d="m 18.041,19.077 c 0.505,-0.276 1.091,-0.35 1.638,-0.131 1.348,0.538 1.565,2.479 1.261,3.722 -0.403,1.62 -2.022,2.339 -3.557,2.309 -0.352,-0.006 -0.7,-0.066 -1.033,-0.172 0.497,1.371 0.374,3.065 -1.026,3.873 -0.486,0.277 -1.043,0.422 -1.632,0.434 C 13.133,29.1 12.574,28.955 12.086,28.676 10.682,27.868 10.567,26.156 11.073,24.781 10.68,24.933 10.264,25.019 9.847,25.028 8.309,25.057 6.735,24.256 6.34,22.667 6.239,22.257 6.21,21.8 6.231,21.379 6.308,19.764 7.456,18.207 9.086,18.997 9.082,18.935 9.08,18.874 9.08,18.811 9.08,18.315 9.218,17.851 9.457,17.456 9.082,17.079 8.599,16.815 8.062,16.745 7.261,16.641 6.51,17.489 6.548,18.27 6.615,19.641 5.036,20.562 3.849,19.845 2.85,19.241 2.033,18.888 1.312,17.894 0.348,16.57 0,15.014 0.427,13.419 1.081,10.992 3.074,9.096 5.639,8.951 6.842,8.884 7.861,9.151 8.736,9.642 8.698,9.32 8.678,8.984 8.68,8.636 c 0.015,-3.22 2.361,-4.832 3.454,-7.44 0.293,-0.683 0.774,-1.183 1.557,-1.183 0.801,-0.013 1.29,0.494 1.592,1.188 1.087,2.599 3.435,4.212 3.451,7.435 0.002,0.321 -0.016,0.63 -0.047,0.93 0.843,-0.442 1.815,-0.678 2.955,-0.615 2.564,0.145 4.557,2.041 5.213,4.471 0.425,1.592 0.078,3.148 -0.887,4.472 -0.722,0.994 -1.537,1.346 -2.536,1.95 -1.181,0.714 -2.751,-0.197 -2.701,-1.569 0.038,-0.782 -0.711,-1.634 -1.513,-1.53 -0.581,0.076 -1.098,0.377 -1.485,0.806 0.206,0.374 0.321,0.804 0.321,1.26 0,0.09 -0.004,0.179 -0.013,0.266 z"
         transform="translate(325.614,237.047)"
         id="path2990" />
      <path
         style="fill:#fbde00;fill-rule:evenodd;stroke:none"
         d="m 20.037,8.937 c 1.906,0.108 3.391,1.543 3.89,3.396 0.307,1.146 0.065,2.253 -0.657,3.243 -0.551,0.759 -1.34,1.094 -2.113,1.561 -0.235,0.143 -0.504,-0.098 -0.498,-0.259 0.087,-1.788 -1.545,-3.248 -3.152,-3.037 -0.872,0.114 -1.693,0.542 -2.323,1.214 -0.373,-0.207 -0.396,-0.274 -0.854,-0.272 -0.051,0 2.013,-6.229 5.707,-5.846 z m -4.959,8.41 c 0,0.643 -0.515,1.163 -1.152,1.163 l -3.762,0 c -0.637,0 -1.155,-0.52 -1.155,-1.163 0,-0.639 0.518,-1.162 1.155,-1.162 l 3.762,0 c 0.637,-0.002 1.152,0.521 1.152,1.162 z m -0.815,2.593 c 0.207,0.194 0.483,0.346 0.837,0.447 1.064,0.301 1.434,-1.077 2.078,-1.477 0.87,-0.54 1.017,1.178 0.829,1.944 -0.243,0.974 -1.393,1.22 -2.119,1.206 -0.771,-0.014 -1.655,-0.494 -2.059,-1.344 -0.117,-0.246 -0.219,-0.498 -0.306,-0.753 l 0.403,0 c 0.114,0 0.227,-0.008 0.337,-0.023 z M 4.197,8.937 C 2.292,9.045 0.806,10.48 0.306,12.333 0,13.479 0.243,14.586 0.964,15.576 1.515,16.335 2.303,16.67 3.078,17.137 3.313,17.28 3.582,17.039 3.574,16.878 3.487,15.09 5.121,13.63 6.727,13.841 c 0.85,0.111 1.652,0.52 2.276,1.165 0.349,-0.175 0.387,-0.274 0.804,-0.274 0.145,0 -1.731,-5.999 -5.61,-5.795 z M 9.956,19.954 C 9.75,20.14 9.48,20.289 9.134,20.387 8.071,20.688 7.7,19.31 7.055,18.91 c -0.87,-0.54 -1.016,1.178 -0.828,1.944 0.242,0.974 1.343,1.271 2.069,1.257 0.771,-0.016 1.705,-0.545 2.11,-1.395 0.116,-0.246 0.218,-0.498 0.305,-0.753 l -0.547,0 c -0.071,0 -0.14,-0.004 -0.208,-0.009 z m 2.227,6.241 c -0.318,-0.006 -0.623,-0.087 -0.896,-0.243 -0.763,-0.439 -0.611,-1.531 -0.352,-2.193 0.489,-1.248 0.77,-2.523 0.866,-3.796 l 0.765,0 c 0.096,1.274 0.378,2.548 0.865,3.796 0.261,0.663 0.412,1.752 -0.35,2.193 -0.275,0.156 -0.577,0.237 -0.898,0.243 z M 11.174,14.732 C 10.34,12.173 8.595,9.945 8.609,7.179 8.622,4.57 10.938,2.713 11.947,0.302 c 0.089,-0.208 0.144,-0.3 0.237,-0.3 0.095,-0.002 0.148,0.094 0.239,0.3 1.006,2.409 3.322,4.266 3.335,6.877 0.013,2.764 -1.73,4.992 -2.563,7.553 l -2.021,0 z"
         transform="translate(327.137,238.511)"
         id="path2992" />
      <path
         style="fill:#161413;fill-rule:evenodd;stroke:none"
         d="M 3.402,0 35.003,46.898 31.833,49.167 0,2.166 3.402,0 z"
         transform="translate(304.63,327.618)"
         id="path2994" />
      <path
         style="fill:#161413;fill-rule:evenodd;stroke:none"
         d="M 3.24,0 16.396,19.536 12.956,21.773 0,2.643 3.24,0 z"
         transform="translate(276.052,284.943)"
         id="path2996" />
      <path
         style="fill:#fbde00;fill-rule:evenodd;stroke:none"
         d="M 0,0.362 30.894,45.977 31.708,45.402 22.014,30.988 20.937,30.304 0.556,0 0,0.362 z"
         transform="translate(305.879,328.675)"
         id="path2998" />
      <path
         style="fill:#fbde00;fill-rule:evenodd;stroke:none"
         d="M 0.361,0 0,0.694 12.175,18.679 12.717,18.318 0.361,0 z"
         transform="translate(277.999,287.177)"
         id="path3000" />
      <path
         style="fill:#161413;fill-rule:evenodd;stroke:none"
         d="M 0,0 10.627,6.402 7.024,10.62 2.041,12.443 0,0 z"
         transform="translate(272.546,279.059)"
         id="path3002" />
      <path
         style="fill:#fbde00;fill-rule:evenodd;stroke:none"
         d="M 0,0 1.244,7.588 4.3,6.455 6.511,3.923 0,0 z"
         transform="translate(274.489,281.926)"
         id="path3004" />
      <path
         style="fill:#161413;fill-rule:evenodd;stroke:none"
         d="M 19.574,5.319 C 19.332,3.055 20.518,0 23.36,1.044 l 0.15,0.055 0.128,0.096 c 0.614,0.461 1.093,1.844 1.292,2.594 0.241,0.908 0.115,1.801 0.115,2.72 0,1.389 -0.467,3.529 0.219,4.752 0.017,0.03 0.045,0.077 0.076,0.123 0.178,-0.233 0.324,-0.66 0.363,-0.874 0.131,-0.712 0.199,-1.368 0.38,-2.083 0.474,-1.864 1.665,-3.716 2.994,-5.092 0.892,-0.925 2.233,-1.827 3.448,-0.818 1.142,0.943 0.679,2.39 0.096,3.486 -0.254,0.479 -0.623,1.044 -0.729,1.579 -0.176,0.916 -0.005,1.866 -0.216,2.847 -0.033,0.157 -0.066,0.313 -0.099,0.47 1.018,-1.764 2.383,-3.502 4.376,-4.039 2.932,-0.795 3.113,2.305 1.866,4.124 -0.399,0.584 -0.585,1.337 -0.989,1.968 -0.412,0.642 -0.976,1.228 -1.498,1.781 -0.182,0.191 -0.564,0.627 -0.893,1.076 0.598,-0.457 1.253,-0.826 1.798,-1.324 1.48,-1.354 1.742,-3.412 3.671,-4.812 0.909,-0.659 1.98,-1.186 2.951,-0.208 1.126,1.138 0.162,2.709 -0.408,3.846 -0.743,1.483 -1.55,3.077 -2.66,4.342 1.035,-0.352 2.104,-0.563 3.188,-0.452 1.094,0.116 2.225,0.922 2.415,2.055 0.307,1.804 -1.038,2.331 -2.518,2.349 -0.34,0.004 -1.593,-0.16 -1.851,-0.068 -0.17,0.082 -0.639,0.595 -0.801,0.738 -1.287,1.129 -2.274,1.182 -3.85,1.482 -0.168,0.032 -0.463,0.108 -0.755,0.212 1.264,0.079 2.458,-0.028 3.681,0.453 0.965,0.379 1.918,1.012 2.912,1.263 1.165,0.294 2.779,0.531 2.322,2.33 -0.377,1.49 -2.64,2.127 -3.992,2.274 -1.934,0.215 -3.929,-0.217 -5.58,-1.214 -0.125,-0.07 -0.368,-0.176 -0.601,-0.234 l 0.015,0.023 c 0.352,0.476 1.259,0.867 1.766,1.395 0.61,0.635 0.818,1.563 1.307,2.054 0.636,0.64 1.624,0.791 2.359,1.666 1.175,1.4 0.238,3.021 -1.269,3.616 -1.146,0.453 -2.54,0.286 -3.693,-0.066 -0.4,-0.121 -0.715,-0.264 -0.968,-0.426 1.172,1.585 2.058,3.995 -0.503,4.47 -1.937,0.359 -3.832,-1.313 -5.169,-2.511 -1.606,-1.437 -1.027,-2.48 -1.631,-4.19 -0.191,-0.023 -0.331,0.314 -0.359,0.468 -0.222,1.227 0.491,2.472 0.344,3.965 -0.07,0.711 -0.391,1.498 -0.377,2.175 0.025,1.15 0.478,2.052 -0.211,3.193 -1.064,1.772 -4.11,2.419 -4.839,0.005 -0.498,-1.654 0.244,-2.755 0.354,-4.259 0.059,-0.819 0.154,-1.632 0.154,-2.454 0,-0.652 0.123,-1.332 -0.002,-1.972 -0.046,-0.236 -0.193,-0.747 -0.37,-1.103 -0.64,1.09 -0.532,2.113 -0.744,3.338 -0.244,1.418 -0.62,2.853 -1.395,4.081 -0.7,1.11 -2.297,2.637 -3.684,2.589 -0.635,-0.022 -1.233,-0.265 -1.56,-0.838 -0.724,-1.268 0.444,-2.555 0.956,-3.598 0.814,-1.643 1.261,-3.061 1.697,-4.83 0.149,-0.605 1.174,-2.145 0.972,-2.47 -0.232,-0.376 -0.387,-0.431 -0.561,-0.01 -0.562,1.364 -1.308,2.264 -2.184,3.416 -0.763,1.004 -1.663,1.867 -2.482,2.819 -1.034,1.205 -3.148,2.8 -4.736,1.679 -1.805,-1.274 -0.073,-3.772 0.803,-5.053 0.406,-0.591 0.878,-1.251 1.384,-1.757 0.639,-0.639 1.605,-0.967 2.114,-1.532 0.509,-0.562 0.899,-1.262 1.379,-1.864 0.024,-0.187 -0.067,-0.723 -0.104,-0.968 -0.342,-0.105 -1.329,0.112 -1.612,0.166 C 10.933,30.171 9.88,30.314 9.403,30.67 8.852,31.079 8.439,31.609 7.85,32.017 6.494,32.952 5.085,34.233 3.279,33.711 0,32.761 2.051,29.912 3.946,28.777 5.421,27.893 6.817,27.46 8.451,26.986 8.929,26.846 9.407,26.671 9.815,26.379 l 0.192,-0.137 0.233,-0.045 c 0.209,-0.04 0.202,-0.665 0.101,-0.804 C 9.977,24.97 8.437,25.071 7.94,25.091 5.834,25.177 3.28,26.548 1.211,25.306 0.565,24.919 0.032,24.327 0.082,23.522 0.178,21.965 2.192,21.419 3.28,20.746 4.004,20.296 4.874,19.76 5.765,19.501 5.525,19.41 5.284,19.298 5.041,19.157 3.598,18.325 0.812,16.307 2.23,14.393 c 1.022,-1.381 2.027,-0.852 3.191,-0.238 0.623,0.329 1.348,0.318 2.032,0.353 0.795,0.04 1.595,0.102 2.387,0.206 C 8.502,13.916 6.94,13.392 6.426,11.683 6.196,10.919 5.878,9.866 6.323,9.136 7.036,7.954 9.542,7.907 10.646,8.437 c 1.164,0.562 1.084,1.539 1.645,2.072 0.843,0.805 1.78,1.471 2.526,2.385 0.389,0.476 0.583,0.445 1.165,0.664 0.426,0.161 0.48,-0.061 0.587,-0.479 0.022,-0.09 0.086,-0.295 0.073,-0.389 -0.224,-0.362 -0.67,-0.696 -0.971,-1.198 C 14.97,10.317 14.242,9.208 13.389,8.136 13.128,7.81 12.894,7.423 12.708,7.05 11.834,5.284 12.402,3.416 14.69,4.014 c 1.348,0.354 2.201,1.559 2.975,2.616 0.603,0.807 1.751,4.209 2.601,4.834 0.001,-0.001 0.002,-0.002 0.003,-0.003 0.153,-0.18 0.159,-0.559 0.11,-0.776 C 19.951,8.821 19.256,7.267 19.574,5.319 z m 13.46,30.827 c -0.268,-0.535 -0.403,-1.172 -0.718,-1.893 -0.164,-0.371 -1.101,-0.863 -1.457,-1.194 -0.078,-0.073 -0.254,-0.265 -0.407,-0.415 -0.001,0.046 0,0.087 10e-4,0.114 0.083,1.598 1.431,2.376 2.518,3.333 0.021,0.018 0.041,0.037 0.063,0.055 z M 8.388,19.864 c 0.271,0.157 0.52,0.3 0.793,0.351 0.355,0.065 1.761,0.327 2.05,0.103 0.038,-0.07 0.05,-0.174 -0.005,-0.215 C 10.299,19.811 9.354,19.86 8.388,19.864 z"
         transform="translate(239.771,235.931)"
         id="path3006" />
      <path
         style="fill:#fbde00;fill-rule:evenodd;stroke:none"
         d="m 9.977,25.765 c -0.531,0.365 -1.122,0.596 -1.74,0.776 -1.504,0.437 -2.807,0.83 -4.164,1.642 -0.642,0.385 -2.67,1.811 -1.01,2.292 1.135,0.327 2.476,-0.895 3.343,-1.494 0.544,-0.377 0.973,-0.917 1.511,-1.316 0.748,-0.557 1.805,-0.7 2.7,-0.873 1.161,-0.225 3.125,-0.621 3.333,1.088 0.08,0.653 0.285,1.447 -0.177,2.011 -0.517,0.634 -0.911,1.357 -1.465,1.968 -0.635,0.703 -1.54,0.959 -2.165,1.584 -0.438,0.438 -0.861,1.04 -1.213,1.553 -0.299,0.437 -1.838,2.567 -1.163,3.043 0.76,0.537 2.34,-0.909 2.796,-1.439 0.798,-0.927 1.687,-1.778 2.428,-2.752 0.786,-1.032 1.495,-1.871 1.997,-3.089 0.636,-1.542 2.283,-1.588 3.141,-0.201 0.856,1.388 -0.502,2.379 -0.799,3.583 -0.46,1.87 -0.943,3.386 -1.804,5.124 -0.214,0.437 -1.678,2.305 -0.648,2.341 0.768,0.026 2.024,-1.309 2.404,-1.912 0.665,-1.053 0.984,-2.338 1.192,-3.553 0.269,-1.552 0.105,-2.514 0.995,-3.946 1.379,-2.215 2.686,0.198 2.978,1.679 0.159,0.82 0.028,1.444 0.028,2.251 0,0.861 -0.096,1.703 -0.158,2.559 -0.086,1.177 -0.755,2.595 -0.411,3.735 0.333,1.105 1.804,0.329 2.203,-0.336 0.368,-0.611 0.018,-1.712 0.003,-2.413 -0.018,-0.868 0.303,-1.535 0.383,-2.348 0.147,-1.494 -0.619,-2.466 -0.327,-4.081 0.316,-1.741 2.572,-2.337 3.164,-0.642 0.449,1.287 0.135,2.566 1.224,3.541 0.895,0.801 2.634,2.406 3.936,2.164 1.404,-0.26 -0.663,-2.578 -1.1,-2.964 -1.475,-1.298 -2.895,-2.163 -3.009,-4.345 -0.039,-0.74 0.179,-1.485 0.954,-1.749 0.851,-0.291 1.359,0.411 1.895,0.912 0.675,0.63 1.378,0.726 1.795,1.671 0.469,1.069 0.354,2.087 1.622,2.47 0.813,0.247 1.924,0.426 2.736,0.106 0.54,-0.214 1.19,-0.738 0.691,-1.331 -0.54,-0.644 -1.608,-0.905 -2.277,-1.577 -0.629,-0.633 -0.782,-1.506 -1.325,-2.072 -0.583,-0.608 -1.322,-0.775 -1.872,-1.522 -1.674,-1.929 0.488,-3.029 2.466,-1.928 1.393,0.842 3.08,1.209 4.697,1.029 0.6,-0.065 2.569,-0.504 2.741,-1.186 0.119,-0.468 -0.94,-0.482 -1.267,-0.564 -1.124,-0.284 -2.034,-0.904 -3.091,-1.321 -1.005,-0.394 -2.255,-0.285 -3.322,-0.358 -3.428,-0.228 -2.119,-2.557 0.656,-3.084 1.269,-0.242 2.144,-0.252 3.165,-1.147 0.395,-0.348 0.754,-0.832 1.266,-1.013 0.709,-0.253 1.594,-0.011 2.329,-0.019 0.533,-0.006 1.225,0.081 1.1,-0.655 -0.078,-0.467 -0.706,-0.805 -1.134,-0.851 -1.744,-0.18 -3.685,0.798 -5.226,1.525 -1.292,0.61 -2.601,1.892 -4.031,0.638 -1.248,-1.096 -0.661,-2.049 0.794,-2.192 0.59,-0.061 1.18,-0.062 1.757,-0.218 2.57,-0.702 3.934,-3.55 5.031,-5.739 0.188,-0.374 1.058,-1.784 0.675,-2.173 -0.295,-0.297 -0.829,0.19 -1.067,0.362 -1.593,1.157 -2.052,3.344 -3.544,4.708 -0.696,0.637 -1.563,1.063 -2.244,1.699 l -0.031,0.03 -0.039,0.021 c -0.571,0.321 -1.695,0.85 -2.26,0.248 -0.909,-0.968 1.025,-3.174 1.632,-3.819 0.454,-0.48 0.977,-1.013 1.333,-1.566 0.403,-0.633 0.571,-1.361 1.013,-2.006 0.368,-0.537 1.114,-2.282 -0.287,-1.902 -1.92,0.518 -3.213,2.753 -4.064,4.406 -0.297,0.577 -0.26,0.913 -0.753,1.449 -0.668,0.723 -2.045,0.942 -2.249,-0.282 -0.137,-0.816 0.296,-0.841 0.458,-1.412 0.214,-0.756 0.366,-1.53 0.53,-2.298 0.197,-0.912 0.032,-1.887 0.21,-2.819 0.147,-0.746 0.524,-1.326 0.873,-1.985 0.2,-0.376 0.701,-1.322 0.261,-1.685 -0.441,-0.366 -1.199,0.42 -1.476,0.707 -1.151,1.192 -2.221,2.828 -2.632,4.443 -0.171,0.677 -0.234,1.31 -0.36,1.99 -0.313,1.695 -1.963,3.273 -3.132,1.197 C 22.427,8.44 22.973,6.49 22.973,4.669 22.973,3.941 23.093,3.021 22.907,2.323 22.824,2.009 22.422,0.812 22.177,0.545 20.526,0 20.26,2.38 20.416,3.456 l 0.008,0.06 -0.011,0.061 c -0.324,1.683 0.392,3.33 0.762,4.944 0.157,0.681 0.043,1.499 -0.419,2.043 -2.241,2.62 -4.15,-3.936 -4.878,-4.909 -0.519,-0.709 -1.28,-1.84 -2.175,-2.074 -1.364,-0.358 -0.086,1.448 0.203,1.81 0.894,1.123 1.658,2.284 2.393,3.515 0.679,1.135 1.47,1.067 1.059,2.689 -0.317,1.25 -1.197,1.977 -2.509,1.484 -0.847,-0.322 -1.168,-0.36 -1.776,-1.107 C 12.387,11.134 11.455,10.47 10.67,9.722 10.165,9.243 9.89,8.144 9.396,7.907 8.992,7.712 7.202,7.625 6.947,8.046 6.851,8.265 7.122,9.168 7.199,9.424 c 0.36,1.201 2.258,1.837 3.229,2.494 0.745,0.507 1.566,0.875 2.16,1.583 0.327,0.391 0.7,0.845 0.436,1.385 -0.455,0.928 -0.963,0.467 -1.542,0.192 -0.491,-0.235 -1.151,-0.558 -1.685,-0.65 -1,-0.17 -2.024,-0.259 -3.036,-0.309 C 5.806,14.071 4.997,14.06 4.125,13.6 3.611,13.33 3.203,12.844 2.78,13.417 c -0.581,0.785 1.85,2.342 2.368,2.642 1.664,0.961 4.011,0.223 5.896,0.818 0.947,0.297 1.308,1.446 0.841,2.299 C 11.242,20.348 9.367,20 8.298,19.803 7.563,19.667 6.881,19.021 6.286,18.962 5.426,18.877 4.139,19.697 3.426,20.14 2.74,20.566 0,21.417 1.34,22.221 c 1.36,0.817 4.35,-0.357 5.921,-0.422 1.127,-0.047 2.745,-0.14 3.56,0.804 0.804,0.927 0.473,2.835 -0.844,3.162 z"
         transform="translate(240.39,237.771)"
         id="path3008" />
      <path
         style="fill:#161413;fill-rule:evenodd;stroke:none"
         d="M 0.58,1.425 C 1.549,0 2.823,0.512 4.158,0.8 5.166,1.012 4.922,2.148 3.914,1.935 3.121,1.764 2.1,1.257 1.541,2.079 0.964,2.932 0,2.276 0.58,1.425 z"
         transform="translate(256.564,253.925)"
         id="path3010" />
      <path
         style="fill:#161413;fill-rule:evenodd;stroke:none"
         d="M 0.828,0.877 C 2.015,0 3.627,0.239 4.966,0.547 5.971,0.774 5.711,1.909 4.705,1.679 3.764,1.465 2.363,1.189 1.52,1.811 0.691,2.424 0,1.491 0.828,0.877 z"
         transform="translate(262.781,254.179)"
         id="path3012" />
      <path
         style="fill:#161413;fill-rule:evenodd;stroke:none"
         d="M 2.449,4.2 C 2.576,4.189 2.671,4.181 2.83,4.175 3.848,4.139 3.963,5.3 2.871,5.337 2.407,5.354 1.454,5.519 0.706,5.474 0.554,5.466 0.153,5.361 0.063,5.087 0.01,4.922 0,4.662 0.406,4.418 1.452,3.681 2.539,2.86 1.936,1.449 1.531,0.495 2.585,0 3.006,0.991 3.579,2.332 3.212,3.351 2.449,4.2 z"
         transform="translate(260.418,255.994)"
         id="path3014" />
      <path
         style="fill:#161413;fill-rule:evenodd;stroke:none"
         d="M 1.562,0.639 C 1.965,0.953 2.596,1.531 3.143,1.397 3.921,1.208 4.345,0.819 5.25,0.823 6.28,0.827 6.273,1.99 5.242,1.986 4.649,1.983 4.006,2.384 3.42,2.526 2.391,2.777 1.601,2.145 0.847,1.555 0,0.89 0.746,0 1.562,0.639 z"
         transform="translate(259.09,261.344)"
         id="path3016" />
      <path
         style="fill:#161413;fill-rule:evenodd;stroke:none"
         d="M 2.216,0.684 C 2.216,0.307 1.72,0 1.109,0 0.496,0 0,0.307 0,0.684 0,1.061 0.496,1.367 1.109,1.367 1.72,1.367 2.216,1.061 2.216,0.684 z"
         transform="translate(264.909,256.33)"
         id="path3018" />
      <path
         style="fill:#161413;fill-rule:evenodd;stroke:none"
         d="M 2.216,0.684 C 2.216,0.306 1.72,0 1.108,0 0.496,0 0,0.306 0,0.684 0,1.061 0.496,1.366 1.108,1.366 1.72,1.366 2.216,1.061 2.216,0.684 z"
         transform="translate(258.212,256.408)"
         id="path3020" />
      <path
         style="fill:none;stroke:#161413;stroke-width:0.00283;stroke-linecap:butt;stroke-linejoin:miter;stroke-dasharray:none"
         d="M 19.302,39.342 C 19.48,32.252 19.557,29.644 21.145,20.877 22.409,13.897 24.161,8.592 25.576,3.459 25.905,2.267 24.269,0 22.292,2.122 15.21,9.727 9.912,15.767 3.268,23.198 0,26.854 2.337,29.193 5.219,26.282 9.394,22.066 13.18,18.079 17.246,13.744 c -2.222,6.967 -7.028,19.784 -7.603,29.908 -0.053,0.921 3.195,1.52 5.878,0.315 2.087,-0.938 3.753,-3.457 3.781,-4.625 z"
         transform="translate(236.982,427.24)"
         id="path3022" />
      <path
         style="fill:#161413;fill-rule:evenodd;stroke:none"
         d="M 19.301,39.343 C 19.48,32.253 19.556,29.645 21.144,20.878 22.408,13.898 24.16,8.593 25.575,3.46 25.904,2.267 24.268,0 22.292,2.122 15.21,9.728 9.911,15.767 3.268,23.199 0,26.855 2.338,29.194 5.218,26.283 9.393,22.067 13.179,18.08 17.245,13.745 c -2.221,6.967 -7.027,19.783 -7.603,29.907 -0.052,0.922 3.196,1.521 5.879,0.315 2.086,-0.938 3.752,-3.456 3.78,-4.624 z"
         transform="translate(237.053,427.245)"
         id="path3024" />
      <path
         style="fill:#161413;fill-rule:evenodd;stroke:none"
         d="m 20.124,40.141 c 0.218,-3.251 0.413,-6.165 1.01,-9.355 2.844,-0.026 5.695,-0.113 8.577,-0.308 1.611,-0.108 -1.285,-2.034 -2.868,-2.355 -1.229,-0.25 -3.325,-0.467 -4.959,-0.655 0.787,-2.965 2.114,-6.286 3.979,-10.352 1.25,-2.728 -0.004,-5.768 -2.981,-1.282 -1.925,2.9 -3.865,6.63 -5.615,10.465 C 13.708,25.815 10.328,25.954 6.663,25.767 9.565,22.042 16.572,12.505 19.877,5.28 21.679,1.344 13.23,0 11.786,4.051 7.58,15.835 6.853,20.257 0.518,28.123 0.065,28.685 0,30.453 1.746,30.478 c 4.698,0.072 9.295,0.228 13.879,0.289 -1.539,4.019 -2.84,8.548 -3.726,13.684 -0.245,1.418 2.787,2.236 5.469,1.032 2.084,-0.936 2.727,-4.174 2.756,-5.342 z"
         transform="translate(333.234,426.139)"
         id="path3026" />
      <path
         style="fill:#161413;fill-rule:evenodd;stroke:none"
         d="M 4.022,43.648 C 9.212,43.385 15.078,40.47 20.095,36.594 25.436,32.469 29.73,27.079 31.673,20.784 33.476,14.938 32.253,0.34 17.46,0.082 12.674,0 8.088,2.01 5.176,5.149 1.77,8.82 0.419,13.065 0.28,15.828 0,21.359 3.242,25.934 10.323,26.595 13.917,26.93 18.078,25.767 22.144,21.432 19.923,28.398 14.088,35.277 2.658,40.583 1.175,41.271 1.364,43.87 4.022,43.648 z M 16.707,3.363 C 11.222,4.28 9.557,8.23 9.103,14.467 c -0.352,4.811 2.262,7.263 4.934,6.987 5.237,-0.539 8.042,-5.317 8.632,-9.25 0.615,-4.098 -1.447,-9.596 -5.962,-8.841 z"
         transform="translate(264.113,427.958)"
         id="path3028" />
      <path
         style="fill:#161413;fill-rule:evenodd;stroke:none"
         d="M 16.414,19.789 C 13.174,22.69 8.835,21.856 6.199,19.453 4.014,17.461 3.418,14.417 3.885,11.421 4.766,5.767 12.118,0 21.229,0.224 c 7.673,0.189 15.946,7.652 12.496,16.901 -3.142,8.427 -17.89,12.799 -21.101,17.004 2.039,1.106 7.242,3.892 11.165,3.996 3.081,0.081 5.807,-2.461 7.441,-4.377 0.931,-1.092 2.759,-0.285 1.536,1.572 -2.364,3.591 -5.891,10.145 -10.82,10.282 C 12.734,45.858 13.27,39.833 8.117,39.558 6.428,39.469 4.941,41.915 3.2,44.578 2.3,45.955 0,44.671 0.23,43.041 0.613,40.336 2.282,38.189 5.106,35.243 12.325,27.71 24.947,19.508 26.146,12.003 26.852,7.585 23.297,3.834 20.204,3.912 15.045,4.041 11.79,7.604 11.19,11.594 c -0.489,3.249 1.813,6.09 5.737,6.351 0.967,0.064 0.209,1.197 -0.513,1.844 z"
         transform="translate(297.363,426.688)"
         id="path3030" />
      <path
         style="fill:#161413;fill-rule:evenodd;stroke:none"
         d="m 5.905,0 c 3.26,0 5.904,2.644 5.904,5.904 0,3.26 -2.644,5.904 -5.904,5.904 C 2.644,11.808 0,9.164 0,5.904 0,2.644 2.644,0 5.905,0 z"
         transform="translate(218.235,443.858)"
         id="path3032" />
      <path
         style="fill:#161413;fill-rule:evenodd;stroke:none"
         d="m 5.905,0 c 3.259,0 5.903,2.644 5.903,5.904 0,3.26 -2.644,5.904 -5.903,5.904 C 2.644,11.808 0,9.164 0,5.904 0,2.644 2.644,0 5.905,0 z"
         transform="translate(368.615,443.858)"
         id="path3034" />
      <path
         style="fill:#fcdd59;fill-rule:evenodd;stroke:none"
         d="m 5.903,0 c 3.261,0 5.904,2.643 5.904,5.904 0,3.261 -2.643,5.904 -5.904,5.904 C 2.643,11.808 0,9.165 0,5.904 0,2.643 2.643,0 5.903,0 z"
         transform="translate(215.685,440.563)"
         id="path3036" />
      <path
         style="fill:#fcdd59;fill-rule:evenodd;stroke:none"
         d="M 19.302,39.342 C 19.48,32.253 19.556,29.644 21.144,20.878 22.408,13.897 24.159,8.593 25.574,3.46 25.903,2.267 24.269,0 22.292,2.122 15.209,9.727 9.91,15.767 3.268,23.198 0,26.855 2.337,29.194 5.218,26.283 9.394,22.067 13.179,18.08 17.245,13.745 c -2.221,6.967 -7.028,19.784 -7.603,29.907 -0.053,0.921 3.195,1.521 5.879,0.315 2.086,-0.938 3.752,-3.457 3.781,-4.625 z"
         transform="translate(235.955,423.95)"
         id="path3038" />
      <path
         style="fill:#fcdd59;fill-rule:evenodd;stroke:none"
         d="M 4.02,43.65 C 9.211,43.386 15.077,40.471 20.093,36.595 25.434,32.469 29.729,27.079 31.672,20.784 33.475,14.94 32.252,0.34 17.459,0.083 12.673,0 8.087,2.011 5.174,5.151 1.768,8.821 0.418,13.066 0.278,15.828 0,21.359 3.241,25.935 10.321,26.596 13.916,26.931 18.077,25.768 22.143,21.433 19.922,28.4 14.088,35.277 2.658,40.584 1.173,41.273 1.362,43.87 4.02,43.65 z M 16.706,3.364 C 11.221,4.28 9.556,8.23 9.101,14.467 c -0.35,4.812 2.262,7.263 4.935,6.988 5.236,-0.539 8.042,-5.317 8.633,-9.25 0.614,-4.097 -1.448,-9.596 -5.963,-8.841 z"
         transform="translate(263.016,424.662)"
         id="path3040" />
      <path
         style="fill:#fcdd59;fill-rule:evenodd;stroke:none"
         d="M 16.414,19.788 C 13.174,22.689 8.835,21.855 6.198,19.451 4.014,17.46 3.418,14.416 3.884,11.42 4.765,5.766 12.119,0 21.228,0.223 c 7.673,0.189 15.946,7.652 12.497,16.902 -3.142,8.426 -17.89,12.797 -21.101,17.003 2.039,1.106 7.241,3.892 11.165,3.995 3.081,0.082 5.806,-2.46 7.44,-4.377 0.932,-1.091 2.759,-0.285 1.537,1.572 C 30.401,38.91 26.875,45.463 21.945,45.6 12.733,45.857 13.27,39.831 8.117,39.557 6.427,39.467 4.94,41.914 3.2,44.576 2.3,45.954 0,44.669 0.229,43.04 0.612,40.335 2.281,38.188 5.106,35.241 12.325,27.71 24.946,19.507 26.145,12.002 26.851,7.585 23.297,3.834 20.204,3.911 15.045,4.04 11.79,7.603 11.19,11.593 c -0.489,3.249 1.813,6.09 5.736,6.351 0.967,0.063 0.209,1.197 -0.512,1.844 z"
         transform="translate(296.265,423.394)"
         id="path3042" />
      <path
         style="fill:#fcdd59;fill-rule:evenodd;stroke:none"
         d="m 20.124,40.141 c 0.218,-3.251 0.413,-6.166 1.01,-9.355 2.843,-0.026 5.696,-0.113 8.577,-0.308 1.611,-0.108 -1.285,-2.034 -2.868,-2.355 -1.23,-0.25 -3.325,-0.467 -4.959,-0.655 0.787,-2.965 2.114,-6.286 3.978,-10.352 1.251,-2.729 -0.004,-5.768 -2.98,-1.282 -1.925,2.899 -3.866,6.629 -5.616,10.465 C 13.708,25.814 10.327,25.954 6.663,25.766 9.564,22.042 16.572,12.504 19.877,5.28 21.678,1.344 13.23,0 11.785,4.051 7.58,15.835 6.853,20.257 0.517,28.123 0.064,28.684 0,30.452 1.747,30.478 c 4.697,0.073 9.294,0.228 13.878,0.289 -1.538,4.019 -2.841,8.547 -3.727,13.684 -0.245,1.418 2.787,2.235 5.469,1.032 2.084,-0.936 2.727,-4.174 2.757,-5.342 z"
         transform="translate(332.136,422.844)"
         id="path3044" />
      <path
         style="fill:#fcdd59;fill-rule:evenodd;stroke:none"
         d="m 5.905,0 c 3.26,0 5.904,2.643 5.904,5.904 0,3.261 -2.644,5.904 -5.904,5.904 C 2.644,11.808 0,9.165 0,5.904 0,2.643 2.644,0 5.905,0 z"
         transform="translate(366.063,440.563)"
         id="path3046" />
    </g>
  </g>
</svg>
