<?xml version="1.0" encoding="UTF-8"?>
<!DOCTYPE svg PUBLIC "-//W3C//DTD SVG 1.1//EN" "http://www.w3.org/Graphics/SVG/1.1/DTD/svg11.dtd">
<!-- Creator: CorelDRAW -->
<svg xmlns="http://www.w3.org/2000/svg" xml:space="preserve" width="1188px" height="1608px" shape-rendering="geometricPrecision" text-rendering="geometricPrecision" image-rendering="optimizeQuality" fill-rule="evenodd" clip-rule="evenodd"
viewBox="0 0 1180.86 1597.44"
 xmlns:xlink="http://www.w3.org/1999/xlink">
 <g id="Ebene_x0020_1">
  <metadata id="CorelCorpID_0Corel-Layer"/>
  <g id="_113221264">
   <path id="_109879664" fill="black" fill-rule="nonzero" d="M590.43 1597.44c136.709,-57.1986 590.431,-363.834 590.431,-954.802 0,-247.581 -81.2748,-420.889 -81.2748,-420.889l-128.104 0 -33.3629 -51.6686 -32.2926 -153.934 -315.397 -16.1463 -315.397 16.1463 -32.2926 153.934 -33.3711 51.6686 -128.093 0c0,0 -81.276,173.308 -81.276,420.889 0,590.969 453.722,897.604 590.43,954.802z"/>
   <path id="_113044768" fill="white" fill-rule="nonzero" d="M911.314 158.254c-7.11667,-33.9063 -20.7538,-98.8952 -25.0151,-119.275 -32.37,-1.65946 -293.595,-15.0302 -295.869,-15.1476 -2.27325,0.117359 -263.507,13.4881 -295.869,15.1476 -4.27305,20.3747 -17.9043,85.3507 -25.0187,119.255l641.771 0.0199511z"/>
   <path id="_113151464" fill="white" fill-rule="nonzero" d="M590.43 1543c66.3315,-32.6963 194.118,-116.256 308.394,-254.321 154.338,-186.457 232.601,-403.82 232.601,-646.044 0,-193.761 -51.8975,-340.149 -73.278,-397.089l-37.1407 0c0,0 76.699,164.575 76.699,394.666 0,544.95 -414.163,819.443 -507.276,859.001 -93.1117,-39.5583 -507.274,-314.051 -507.274,-859.001 0,-230.091 76.6966,-394.666 76.6966,-394.666l-37.136 0c-21.3829,56.9392 -73.2862,203.327 -73.2862,397.089 0,242.224 78.2587,459.587 232.598,646.044 114.281,138.065 242.061,221.625 308.401,254.321z"/>
   <path id="_113008560" fill="white" fill-rule="nonzero" d="M311.632 1192.83c10.817,14.6277 22.0753,29.0816 33.8605,43.3173 25.0515,30.2717 50.657,57.5307 75.9362,82.04l0 -1140.57 -109.797 0 0 1015.22zm557.583 -1015.22l0 0 -109.784 0 0 1140.57c25.278,-24.5093 50.8753,-51.7684 75.9268,-82.04 11.7934,-14.2392 23.0505,-28.6897 33.8687,-43.322l0 -1015.2 -0.0117359 -0.00821515zm-329.379 1238.99l0 0c18.2998,12.8579 35.3615,23.831 50.5936,32.8512 15.2297,-9.02024 32.3008,-19.9933 50.5912,-32.8512l0 -1238.99 -101.185 0 0 1238.99z"/>
   <path id="_114966608" fill="white" fill-rule="nonzero" d="M987.631 289.565l-4.30239 0 0 700.467c43.6588,-108.186 65.7095,-224.287 65.7095,-347.394 0,-187.303 -42.044,-288.115 -61.4071,-353.073zm-855.812 353.073l0 0c0,123.111 22.0471,239.216 65.713,347.398l0 -700.471 -4.30826 0c-19.3619,64.9584 -61.4047,165.77 -61.4047,353.073z"/>
   <g>
    <path id="_114121232" fill="white" fill-rule="nonzero" d="M602.291 263.481c-4.16039,7.05681 -6.24586,19.5685 7.41945,39.0936 8.74209,12.48 11.3897,26.8518 6.58268,35.7594 -4.7554,8.80195 -15.7038,10.3523 -24.0434,10.1035 -1.05975,-0.0387286 -26.4399,-1.21115 -31.1143,-23.0118 -1.53037,-7.15188 -6.61085,-12.3192 -13.5926,-13.8132 -7.59784,-1.62777 -15.7813,1.48577 -20.3701,7.73867 -4.97838,6.79276 -4.94083,15.779 0.0974082,24.6595 8.39002,14.7767 5.87853,17.7107 0.374376,24.1326 -2.36362,2.75794 -9.16811,7.52625 -14.9375,6.6085 -3.99491,-0.638435 -7.38894,-4.26718 -10.0835,-10.7865 -2.98445,-7.21525 -8.82307,-11.6702 -15.6147,-11.9131 -6.60498,-0.240587 -12.8743,3.61701 -15.9808,9.82063 -3.77428,7.5462 -2.18758,16.8141 4.25545,24.7992 9.90747,12.2922 8.31843,15.9738 7.46288,17.9525 -2.4845,5.84332 -5.7952,35.1397 -3.94327,59.0223 0.311002,4.00899 -1.54327,7.12958 -2.33076,7.6976 -4.07589,2.33076 -7.86659,8.49916 -17.6426,25.5186l-7.59901 12.9682c-4.78122,7.77388 -9.11764,8.0884 -20.9533,7.8619l-5.05819 -0.0622004c-12.1033,0 -20.6259,8.75735 -23.7007,17.4396 -3.06425,8.66229 -1.08792,17.1943 5.16264,22.249 6.02405,4.87276 22.486,20.0403 31.1835,30.4676 4.02777,4.82699 10.5459,7.39716 16.611,6.54395 3.8975,-0.549242 11.1327,-3.0443 15.7778,-13.5773 4.97369,-11.2677 23.0588,-33.3617 41.2201,-43.7457 17.3938,-9.94268 41.5816,-13.014 56.4158,2.52792 3.79071,3.97261 7.98865,5.89965 12.4776,5.72361 7.20469,-0.28753 11.8439,-5.99354 14.6183,-9.40635l1.30973 -1.57027c1.52802,-1.40831 8.0661,-2.66288 10.5248,-1.9599 6.82444,1.95286 11.9354,0.0387286 16.0829,-3.51491 -0.552762,0.931833 -1.09496,1.87658 -1.43413,3.05486 -0.368508,1.3156 -0.530464,2.61711 -0.530464,3.89516 0,4.90679 2.39413,9.41691 4.38689,12.6208 1.36254,2.17936 1.64186,3.5067 1.64186,3.91393 0,0.0222983 0,0.0399022 0,0.0563325 -0.226503,-0.157261 -3.20626,0.761662 -8.00977,-0.372029 -2.36127,-0.556283 -9.56126,-2.25565 -15.2508,1.96459 -5.733,4.24723 -6.18601,11.3815 -6.58972,17.6731l-0.259364 3.63814c-0.573887,6.79276 -4.2707,15.4762 -9.4885,18.3081 -1.11726,0.607921 -4.52303,2.45633 -11.4496,-1.25574 -6.93241,-3.70503 -14.9258,-6.97232 -21.7197,-3.10885 -7.71285,4.39041 -8.16703,14.5185 -8.56723,23.4543 -0.356772,8.2398 -4.88215,15.8412 -11.0036,18.4853 -3.87286,1.67706 -7.67999,0.933006 -11.331,-2.20401 -2.70278,-2.32489 -10.9191,-9.39344 -20.0379,-6.84674 -9.32889,2.60772 -12.6654,12.845 -15.61,21.8734l-0.788654 2.40821c-0.37555,1.11726 -1.51276,4.52772 -7.38307,6.70122 -9.57182,3.53721 -25.6172,1.46347 -35.7711,-4.62396 -8.20811,-4.92205 -15.2896,-5.76117 -21.059,-2.49858 -9.9016,5.6086 -9.94033,19.903 -9.94268,29.4278 -0.00586796,-0.110318 -0.139658,1.64772 -0.139658,1.64772 -0.918923,12.9459 -2.18523,30.6777 -33.4568,32.3618 -6.1731,0.339168 -17.6544,0.974082 -21.715,9.9462 -4.24019,9.35354 2.98562,20.5391 10.5799,30.2423 6.73056,8.57192 9.46385,16.6638 7.91354,23.4038 -1.17711,5.10161 -4.86102,9.49319 -10.1082,12.0469 -0.00352078,0 -0.962346,0.464743 -0.962346,0.464743 -7.8443,3.80831 -15.2544,7.40655 -16.7425,15.4433 -1.43765,7.77036 3.62406,15.0771 11.662,23.6526 3.08772,3.29545 4.34229,6.50523 3.95853,10.1117 -0.816821,7.60488 -8.60009,15.1581 -11.3428,17.0417 -0.0211247,0.0199511 -1.2534,0.752273 -1.2534,0.752273 -4.05946,2.3331 -12.4976,7.19647 -12.6032,17.0171 -0.103276,9.79246 8.21632,19.2211 26.9797,30.5744 5.08518,3.07247 5.64029,4.67442 5.64733,4.69437 0.226503,2.39765 -7.03921,11.0048 -10.9414,15.6346 -5.52528,6.54161 -12.4025,16.3094 -8.31021,25.4998 4.27775,9.60234 16.9936,11.2806 28.8657,11.6573 21.5519,0.661906 28.8094,0.88841 33.5542,28.7425 2.19345,12.9177 8.31021,16.9162 13.0586,17.9959 7.04977,1.609 14.5795,-2.40587 20.6658,-10.993 0.795696,-1.129 4.48313,-2.72508 8.68576,-1.75922 6.50405,1.49164 11.0423,8.12596 12.7769,18.6754 0.889583,5.39735 3.59237,21.8406 15.6487,25.0151 7.48987,1.97281 15.7426,-2.07022 23.2383,-11.3862 2.47863,-3.09711 4.72841,-4.19677 5.20723,-4.11227 0.0281662,0 2.97388,1.07149 6.382,10.7595 4.14396,11.77 10.4696,18.166 18.7963,19.011 11.4425,1.15951 20.4158,-9.34767 22.9109,-13.4963 -0.143178,0.218288 0.274621,-0.173692 1.28743,-0.145526 1.02572,0.0281662 4.84342,0.654865 10.9027,7.51686 14.9152,16.8716 30.5099,22.6245 39.8341,26.062 5.58748,2.07022 10.0753,9.64224 10.0753,12.6103 0,0.206552 -0.0246455,0.387286 -0.0610268,0.545721 -0.0762835,0.0199511 -1.21232,1.31794 -1.21232,1.31794 -2.25682,2.53496 -5.23657,5.89026 -5.23657,10.5084 0,0.626699 0.0528117,1.27335 0.178386,1.94816 1.14777,6.55452 7.21642,10.4602 20.7773,17.8069 3.57007,1.93173 6.82562,6.37144 6.96293,9.50141 0,0.0798043 0,0.173692 0,0.274621 0,0.808606 -0.238239,2.30376 -2.90347,4.06767 -4.80352,3.20978 -11.0858,8.28439 -11.0858,15.6874 0,0.165477 0,0.334474 0.0117359,0.49643 0.315697,8.27618 8.19989,12.7241 13.4236,15.6639 2.40939,1.37428 3.20156,2.62767 3.34357,3.00792 -0.165477,0 -0.618483,0.448313 -1.47638,0.978777 -6.65075,4.16039 -7.6976,9.46033 -7.6976,12.3591 0,0.0645476 0,0.129095 0.0117359,0.190122 0.117359,8.02151 7.484,13.5163 11.8709,16.0794 0.595012,0.356772 1.71814,1.58904 1.71814,2.47041 0,0.00821515 0,0.0117359 0,0.0199511 -0.0281662,1.09614 -1.8801,4.14513 -8.74092,7.85251 -7.92527,4.28948 -10.1563,9.76781 -10.6504,13.6172 -0.0715892,0.618483 -0.112665,1.23697 -0.112665,1.85545 0,4.74249 2.28499,9.4486 6.56273,13.4189 1.07032,1.00342 1.23227,1.48812 1.23227,1.49633 -0.0117359,0 -0.249975,2.51501 -6.55804,8.09427l-0.504645 0.444792 -0.505819 0.626699c-0.0727628,0.0809779 -7.27745,8.74092 -26.2357,14.4223 -10.2419,3.06895 -14.1418,6.77985 -18.1766,11.317l-2.86709 2.97154c-5.29877,4.73427 -7.48166,6.69183 -16.5664,-1.24988 -12.6818,-11.1022 -21.9732,-4.78239 -26.4387,-1.74631l-2.1066 1.35433c-2.74269,1.5198 -4.93261,2.7333 -12.8814,-5.20371l-2.11012 -2.11834c-10.0225,-10.0917 -16.6415,-16.7507 -30.0264,-21.8535 -2.82836,-1.07971 -4.70846,-2.50679 -5.15911,-3.90572 -0.095061,-0.294572 -0.136137,-0.598532 -0.136137,-0.909535 0,-0.974082 0.42132,-1.97633 0.861417,-2.6488 2.07491,-3.10885 2.86239,-5.89378 2.86239,-8.38063 0,-5.44195 -3.79657,-9.39226 -6.18366,-11.8709l-2.15002 -2.30024c-0.625525,-0.704156 -1.17359,-2.36127 -1.17359,-4.36694 0,-0.279315 0.0105623,-0.565672 0.0328606,-0.856723 0.170171,-2.15941 0.903667,-3.44567 1.21232,-3.69564l1.84841 -1.51628 1.08205 -2.95159 -0.267579 0.820341c0.0117359,-0.0234719 1.21115,-2.33193 6.04283,-6.4395 1.89418,-1.09262 5.59334,-3.53017 13.9834,-10.06 3.23794,-2.51501 7.44058,-1.37897 10.053,0.360293 7.29388,4.88801 12.2359,4.43501 17.0699,3.48088 0,0 0.0985818,-0.0164303 0.117359,-0.0164303 0.409584,0.760488 0.836772,1.55736 0.836772,1.55736 0.986992,2.21926 1.64538,5.9466 1.64538,8.46161 0,0.492909 -0.110318,0.739364 -0.160782,1.11609 -0.463569,-0.0610268 -0.746405,-0.0363814 -1.75922,-0.388459 -14.7321,-5.10278 -22.2842,-1.50807 -26.0279,2.40939 -4.11227,4.30239 -5.14268,10.7959 -2.69105,16.9537 3.11354,7.74689 10.1504,20.9709 22.4274,22.783 8.42992,1.24049 16.6545,-3.06425 24.4495,-12.8051 0.00352078,0 1.70406,-1.89183 2.64645,-2.94689 3.14053,0.246455 5.83158,-0.667774 7.95579,-2.6042 5.15207,-4.72254 6.93241,-15.9057 6.2353,-22.1645 0.106797,-0.206552 4.22728,-7.62483 4.22728,-7.62483 2.99736,-8.98033 4.293,-31.9217 -10.8405,-45.4697 -8.47451,-7.58845 -10.1258,-11.2759 -11.5834,-14.5396l-1.84137 -3.74259c-5.01359,-8.74209 -12.6654,-7.19765 -17.7271,-6.18249l-4.45965 0.820341c-4.62278,0.699461 -6.14376,-0.0399022 -11.7477,-2.74855l-3.88107 -1.84371c-12.7558,-5.8797 -34.5001,0.415452 -42.3761,17.0734 -4.44557,9.39696 -10.7513,16.0195 -18.0452,23.689l-4.1463 4.39041c-9.36879,10.0354 -17.699,21.4134 -7.82552,40.2542 3.65339,6.99461 1.47638,9.54953 -2.85418,14.6312l-2.26621 2.74621c-9.4885,12.1901 0.639608,23.4496 4.96899,28.2613 4.78474,5.32459 9.84997,14.1794 10.3675,21.9298 0.879021,13.298 30.7071,59.7453 60.7111,62.0948 16.7648,1.32264 17.6884,2.26856 19.9182,4.56058l4.30591 4.05594c12.5973,10.4837 26.062,9.96615 38.948,-1.48812 0.792175,-0.699461 1.63716,-0.991686 2.65701,-0.902493 1.72988,0.145526 3.64401,1.33085 5.12039,3.17809 7.53212,9.43686 24.8837,12.4647 42.193,-0.52929 3.15344,-2.36948 6.59794,-3.39286 8.38884,-2.49506 12.2594,6.09799 21.3559,-6.03227 27.9914,-14.8941 6.9864,-9.29603 8.97916,-9.46151 13.7991,-9.85818 13.6008,-1.12782 16.2859,-8.04146 19.112,-19.2974 0.856723,-3.45271 0.92127,-3.65926 9.9908,-3.62288l1.68997 0c2.28381,0 9.24674,0 13.5726,-5.60743 2.20753,-2.85535 3.04078,-6.21065 3.04078,-10.0237 0,-4.58405 -1.20997,-9.83236 -2.73799,-15.6827 0,0 -0.0481173,-0.299266 -0.0610268,-0.368508 1.22171,0.102103 2.48332,0.210073 2.48332,0.210073l5.43726 0.631393c8.02151,0.565672 14.5678,-2.48684 17.5077,-8.1553 1.08675,-2.10543 1.62895,-4.35403 1.62895,-6.74347 0,-5.39383 -2.76146,-11.4871 -8.26444,-18.2224 -1.90357,-2.3331 -2.30846,-3.41281 -2.44577,-3.91745 0.755794,-0.530464 2.72508,-1.56909 7.37838,-2.41408 6.42073,-1.17242 14.2322,-6.3151 16.2378,-14.8225 0.249975,-1.0668 0.453007,-2.38591 0.453007,-3.88577 0,-4.61691 -1.89301,-10.9438 -9.91451,-16.9807 -2.74973,-2.05379 -2.92694,-3.66748 -2.92694,-4.47139 0,-0.0610268 0.0117359,-0.125574 0.0117359,-0.173692 0.0774571,-3.96322 4.40332,-9.29955 8.53906,-12.1666 5.50298,-3.80479 9.05662,-10.4145 9.76429,-18.1332 0.0891931,-0.962346 0.125574,-1.92 0.125574,-2.87882 0,-9.45329 -4.12401,-19.1284 -11.3651,-26.3659 -2.62415,-2.61477 -3.10181,-4.63335 -3.10181,-6.03579 0,-0.206552 0.0129095,-0.396674 0.0246455,-0.578581 0.303961,-3.53369 3.53017,-7.54386 6.56977,-9.68332 5.30112,-3.68743 8.2398,-8.87823 8.2398,-14.4293 0,-0.562151 -0.0399022,-1.12782 -0.0880195,-1.69819 -0.93418,-8.67285 -8.40175,-15.8165 -22.8193,-21.8288 -1.75452,-0.732322 -4.64156,-1.92939 -4.64156,-7.19647 0,-1.60195 0.262885,-3.58298 0.91775,-6.03696 0.64665,-2.45046 1.22523,-5.22718 1.22523,-8.01329 0,-2.93985 -0.656038,-5.89965 -2.54787,-8.48625 -4.01017,-5.49124 -10.6609,-5.82689 -17.7001,-6.17897l-2.28029 -0.12088c-3.25555,-0.181907 -6.59911,-2.48684 -7.94875,-5.48185 -0.416626,-0.906014 -0.619657,-1.82846 -0.619657,-2.75325 0,-1.74279 0.720586,-3.52195 2.13477,-5.31755 1.32264,-1.67824 4.74249,-6.02405 4.74249,-11.1386 0,-1.41887 -0.266406,-2.89056 -0.896625,-4.38689 -2.97623,-6.96645 -10.9003,-7.73046 -17.2682,-8.34542l-6.38435 -0.925965c-7.8443,-2.41291 -11.378,-4.6087 -11.378,-10.0389 0,-1.30151 0.203032,-2.78142 0.595012,-4.49956 0.691246,-3.04078 1.26161,-6.12146 1.26161,-9.0484 0,-3.26259 -0.695941,-6.3198 -2.66406,-8.90757 -3.53017,-4.64978 -8.79021,-4.87628 -12.2758,-5.0218l-4.38689 -0.521075c-1.68997,-0.514034 -6.83618,-4.6533 -9.02024,-11.378 -0.666601,-2.02562 -0.998728,-4.07119 -0.998728,-6.12498 0,-4.92088 1.89301,-9.91803 5.64029,-14.9304 2.17115,-2.8753 3.24264,-6.29985 3.24264,-9.62346 0,-3.48909 -1.18416,-6.86552 -3.54542,-9.39226 -1.89183,-2.01741 -8.99207,-7.99334 -21.2432,-0.0445965 -3.76019,2.3331 -20.8911,0.429535 -26.1218,-5.93486 -0.684205,-0.825036 -2.48684,-3.02083 3.17692,-9.08948 5.66493,-6.06865 7.93231,-12.2664 6.74816,-18.436 -1.3379,-7.01926 -6.95002,-12.7652 -17.1309,-17.5804 -3.20156,-1.5198 -4.42679,-3.57359 -4.3376,-4.28479 0.112665,-0.975256 3.2133,-5.13564 16.1968,-7.72694 12.4002,-2.47393 14.5549,-9.95442 14.9105,-13.0515 0.881368,-7.79031 -5.10982,-15.1699 -16.4268,-20.2515 -2.76146,-1.24166 -3.18983,-3.68743 -2.79785,-4.66151 0.327432,-0.815647 2.83775,-1.30504 7.16479,0.235892 10.1398,3.62406 17.6966,2.96215 22.4673,-1.96929 2.93985,-3.05721 3.99843,-6.85965 3.99843,-10.8205 0,-4.84459 -1.60078,-9.84175 -3.24264,-14.062 -0.0528117,-0.25819 -0.190122,-0.954131 -0.190122,-2.00684 0,-2.53496 0.808606,-6.83148 5.55109,-10.2513 11.2653,-8.13769 12.7523,-6.11911 15.441,-2.45633 6.18249,8.44987 18.8456,11.0799 27.6393,5.71892 3.671,-2.23569 14.7943,-11.1914 4.05946,-32.6599 -3.60645,-7.22581 -3.4574,-13.6606 0.428361,-17.6532 4.40332,-4.51833 14.3812,-6.4888 26.7579,-0.711197 8.3642,3.90924 18.1003,2.09486 23.1468,-4.32234 2.73682,-3.46914 7.80674,-13.136 -4.04772,-27.9562 -3.813,-4.77535 -2.07022,-11.3815 0.844987,-15.9703 4.51599,-7.12019 14.7697,-14.2486 28.8481,-10.8968 10.7865,2.57369 24.3474,0.983471 30.3397,-8.37476 5.57574,-8.71275 2.82601,-20.2339 -8.18816,-34.2349 -5.10982,-6.52166 -4.12401,-10.7712 -3.80831,-12.169 2.74973,-11.838 23.98,-22.0823 30.9547,-25.4529l2.20753 -1.07384c5.29643,-2.65584 14.1911,-7.10376 14.2685,-16.2355 0.0598532,-8.05085 -6.71178,-15.0361 -22.682,-23.3627 -6.37261,-3.32127 -15.9468,-13.2839 -16.2625,-24.115 -0.249975,-8.49095 5.40205,-16.2637 16.7918,-23.1045 9.52605,-5.70718 11.0376,-17.9313 6.47354,-25.7651 -4.20146,-7.2129 -13.6618,-11.5329 -25.3308,-4.93496l-2.93985 1.67002c-12.4401,7.09906 -15.0243,8.57544 -25.0386,2.91755 -4.68146,-2.6441 -7.71051,-9.0308 -7.53212,-15.8963 0.0891931,-3.52313 1.28508,-12.2054 10.4426,-16.7812 7.63422,-3.81887 12.6396,-11.5364 13.0715,-20.1389 0.401369,-8.06141 -3.29428,-15.5677 -9.65046,-19.5908 -4.4397,-2.80371 -14.0784,-6.32567 -28.9009,1.62191 -13.3332,7.15774 -24.0199,9.60351 -29.3164,6.71295 -4.41506,-2.40939 -5.85388,-9.30777 -6.27051,-14.664 -0.315697,-4.03716 3.29545,-8.56136 10.7349,-13.4482 10.9367,-7.14718 11.9108,-18.6003 7.21642,-26.2157 -5.00889,-8.1107 -17.0946,-12.798 -29.6438,-5.5065 -0.0129095,0.00586796 -1.76743,1.07149 -1.76743,1.07149 -20.4463,12.6185 -33.2139,12.6067 -41.3609,-0.0305134 -0.165477,-0.308655 -7.62131,-13.5081 -2.99266,-38.3202 2.83892,-15.2027 1.2135,-27.0044 -4.83051,-35.0963 -4.84459,-6.49349 -12.1338,-10.2901 -21.6716,-11.2864 -9.4486,-1.00107 -18.0651,3.05252 -22.5048,10.5764z"/>
    <path id="_114331136" fill="black" fill-rule="nonzero" d="M425.22 525.868c13.8437,0 24.5034,2.14181 33.0249,-11.7172 7.5239,-12.2159 18.6625,-33.5636 22.3781,-35.6925 3.73437,-2.13829 6.93241,-8.52733 6.39608,-15.4492 -1.81672,-23.3991 1.60195,-51.1428 3.191,-54.8796 1.59609,-3.71912 4.8,-10.1175 -8.51559,-26.63 -13.3203,-16.516 6.92655,-29.8363 13.3156,-14.3836 10.9168,26.3835 32.5015,13.8484 38.8917,6.38904 6.38787,-7.45818 11.7254,-13.8507 0.535158,-33.5648 -11.189,-19.7105 15.4527,-27.7038 18.6449,-12.7898 6.12968,28.6063 38.9222,29.5206 38.9222,29.5206 38.3964,1.14777 42.8232,-32.5895 24.4553,-58.8217 -18.3632,-26.2322 -4.98073,-38.0702 7.47931,-36.7522 11.9965,1.25574 24.5105,8.52146 19.2622,36.6771 -5.36097,28.7448 4.16391,44.2984 4.16391,44.2984 17.3574,26.907 48.1748,5.12508 54.1907,1.61721 15.6064,-9.06835 27.8529,8.50972 13.7745,17.7119 -5.89026,3.86699 -15.2098,11.0353 -14.4293,20.9838 1.89183,23.9331 17.2436,30.9089 47.6972,14.5608 27.0314,-14.4997 33.9579,15.441 17.8985,23.4789 -20.5473,10.2654 -18.3796,38.6992 -3.27902,47.2195 15.0889,8.53319 20.9803,3.9421 36.0774,-4.58875 15.0889,-8.52498 20.4088,10.5647 10.5717,16.4655 -38.0092,22.8076 -15.1898,53.7154 -0.100929,61.5866 28.0923,14.6535 17.7095,20.336 8.52733,24.9259 -9.15755,4.58992 -53.7494,23.5951 -32.1306,51.1546 21.6587,27.5524 0,32.7937 -13.7627,29.5065 -30.2634,-7.17652 -51.1616,23.6127 -38.0455,40.0277 13.1079,16.381 0.670122,24.2722 -9.18219,19.6659 -27.651,-12.9095 -50.495,4.60635 -38.0338,29.5123 12.4647,24.9389 -10.5084,28.205 -17.6966,18.3714 -7.24107,-9.83236 -15.1018,-7.86073 -26.8952,0.664254 -11.8063,8.52263 -8.52733,20.9791 -8.52733,20.9791 8.59187,21.5343 -3.27902,20.3348 -12.4776,17.05 -20.2187,-7.20938 -23.5951,13.7979 -10.5072,19.7011 13.1313,5.89144 16.4104,15.0889 3.28254,17.7048 -29.3821,5.86679 -26.2228,21.6434 -13.7627,27.5466 12.4729,5.89026 17.0417,13.1196 7.86777,22.9449 -22.5917,24.2464 22.3182,34.7665 33.4568,27.5571 11.1397,-7.22816 14.4188,1.95286 10.4802,7.20938 -17.0136,22.7055 0,42.6308 8.54376,45.2467 8.53906,2.62415 16.3986,-3.27902 12.4483,13.7827 -3.90924,17.0629 7.8842,21.6352 16.4115,24.2593 8.52615,2.62767 25.5679,-0.651344 15.7555,11.8052 -9.85231,12.4694 0.631393,26.2322 12.4366,26.8882 11.7981,0.661906 17.0699,0 13.7909,12.4683 -3.29428,12.4647 0.631393,19.6659 8.52733,22.9414 22.5928,9.42747 19.6659,19.0427 13.0914,23.6197 -6.53339,4.60518 -16.3869,17.0617 -4.57701,28.8645 11.8063,11.8052 11.1515,28.8716 2.61242,34.77 -8.51442,5.89965 -19.0228,20.329 -5.89144,30.1742 13.0926,9.84527 3.94679,19.6741 -3.28254,20.9956 -7.22464,1.30621 -21.6587,5.23188 -9.84879,19.6542 11.8063,14.434 5.27178,20.3372 -3.92567,19.6858 -9.18219,-0.643129 -20.3208,-5.25183 -16.3998,9.83354 3.95031,15.0924 3.95031,20.9909 -5.902,20.9909 -9.85349,0 -17.0417,-0.661906 -19.6659,9.85349 -2.63589,10.4884 -3.95031,12.4413 -11.8063,13.0914 -7.89593,0.654865 -11.8099,2.61711 -19.7058,13.1325 -7.85603,10.4755 -12.4248,15.0936 -17.7095,12.4694 -5.2354,-2.63589 -11.7934,-0.66308 -17.03,3.26611 -12.9823,9.74082 -25.5808,8.53554 -30.8127,1.97281 -5.25418,-6.56977 -13.7874,-8.52615 -19.687,-3.28254 -11.4331,10.1645 -20.3348,7.85603 -28.1991,1.30973 -7.86542,-6.55334 -3.92919,-8.53906 -28.8551,-10.4954 -24.9342,-1.95286 -52.4843,-44.5965 -53.1332,-54.4289 -0.657212,-9.83354 -6.55921,-20.3243 -12.4624,-26.8952 -5.8973,-6.55334 -9.1728,-11.8099 -4.57936,-17.7048 4.57936,-5.92312 13.1055,-12.453 5.90317,-26.2439 -7.21525,-13.7709 -2.63002,-20.9803 6.55334,-30.8127 9.18219,-9.85349 17.7119,-17.7083 23.6139,-30.1825 5.8973,-12.4683 22.9531,-17.0417 31.4805,-13.1114 8.52733,3.93036 11.7934,6.54513 20.329,5.25535 8.52733,-1.31325 11.1503,-3.28254 13.7745,1.28978 2.62415,4.61339 2.62415,9.19041 15.0877,20.3501 12.4624,11.1585 10.4872,30.8291 8.52028,36.7276 -1.96812,5.89848 -5.24127,5.2354 -4.59931,11.1386 0.657212,5.90317 -1.9599,16.4115 -5.23305,15.7567 -3.28723,-0.66308 -4.59344,-0.66308 -9.84762,5.90317 -18.8268,23.5188 -30.159,-1.33085 -32.7902,-7.88068 -2.61711,-6.54982 1.32499,-14.434 18.3726,-8.52615 17.0417,5.89026 13.1137,-14.4223 10.4896,-20.3337 -2.62415,-5.88674 -4.59227,-7.19647 -8.5285,-6.55452 -3.93388,0.651344 -6.56391,1.97398 -12.4565,-1.97281 -5.91608,-3.9374 -13.7756,-4.58523 -19.6788,0 -11.4989,8.94747 -13.7745,9.85349 -13.7745,9.85349 -7.95931,6.62259 -8.89936,10.2854 -8.89936,10.2854 -5.37506,4.1686 -5.97946,15.5102 -1.1865,20.8958 4.76831,5.36919 8.35716,7.16009 4.76831,12.5328 -3.57476,5.39383 -4.17564,14.9434 8.3642,19.7105 12.5398,4.77887 17.9184,10.7431 29.2542,22.1117 11.3592,11.3287 17.3304,9.54601 22.7125,6.56625 5.36684,-2.98797 9.55305,-8.96742 19.1096,-0.605574 15.0361,13.1442 22.1081,5.96772 27.4691,1.20059 5.37388,-4.78709 5.97241,-8.9639 17.9196,-12.5469 22.2654,-6.6707 30.3397,-17.2107 30.3397,-17.2107 12.3356,-10.8921 10.5447,-17.0828 5.47481,-21.8007 -5.08635,-4.72254 -6.19422,-10.8921 2.52322,-15.6111 20.7374,-11.2195 11.615,-22.1598 7.2528,-24.703 -4.35403,-2.54318 -12.6912,-9.06953 -3.97379,-14.5267 8.70454,-5.43843 6.14141,-13.42 -2.19579,-18.1496 -8.34894,-4.70611 -14.8823,-9.07774 -1.82728,-17.8069 13.1196,-8.71628 4.02308,-23.2231 -4.69437,-27.9538 -21.4333,-11.6115 -18.1907,-11.9718 -11.9965,-19.2493 5.84332,-6.86552 -3.27902,-22.148 -13.0668,-25.7791 -8.97212,-3.31188 -23.2324,-8.36537 -37.0409,-23.98 -13.7991,-15.6311 -23.2477,-9.78894 -25.4247,-6.16136 -2.18171,3.6311 -17.7917,21.776 -26.8741,-4.00665 -9.07774,-25.7921 -21.4275,-14.5197 -25.778,-9.07774 -4.37868,5.43843 -19.2634,21.073 -24.3391,-9.7995 -5.084,-30.8702 -30.1437,-29.0711 -36.318,-20.3419 -6.17545,8.72097 -15.982,13.4271 -18.8796,-3.61819 -5.69427,-33.4368 -18.1696,-34.8804 -41.4114,-35.5998 -23.2442,-0.732322 -28.3258,-7.26219 -14.5209,-23.608 13.7944,-16.354 18.8772,-23.2559 3.26024,-32.6928 -39.2356,-23.7336 -17.4255,-31.2375 -12.7159,-34.5048 4.73897,-3.26259 25.0726,-22.1516 8.72449,-39.5736 -16.3435,-17.4408 -9.80772,-19.9804 3.63462,-26.5197 13.4329,-6.53574 23.6068,-24.3345 5.07579,-47.9413 -18.5181,-23.6162 -8.34542,-26.1394 5.09574,-26.8788 40.6885,-2.19579 40.3669,-29.5757 41.3903,-42.1226 0,-11.9953 0.363814,-30.8725 18.5228,-19.9804 16.7894,10.0694 49.028,11.9941 55.2082,-6.53809 4.28244,-12.8591 7.61897,-27.2403 23.2501,-13.7932 15.61,13.4341 35.0552,-1.81672 35.9366,-22.1586 0.73819,-16.3493 2.56195,-21.796 18.166,-13.4494 21.6857,11.6197 31.9663,-10.8862 33.0413,-23.5892 0.91775,-10.499 -0.343863,-18.8937 11.9965,-15.9832 12.3356,2.90582 23.6115,-2.54083 15.2508,-15.9761 -5.81867,-9.32537 -2.54787,-12.3532 1.82728,-14.5314 4.35403,-2.17701 9.18571,-8.38884 6.53339,-16.7014 -2.55843,-7.99569 -12.7159,-5.81867 -16.3458,0.715892 -6.15784,11.0811 -10.1692,12.3509 -15.2508,10.898 -5.08635,-1.44939 -15.2473,0.369682 -18.8948,4.35638 -3.61819,4.00078 -8.72097,13.0727 -16.3341,5.08753 -17.7612,-18.6061 -46.1257,-15.6158 -66.4676,-3.99139 -20.329,11.6256 -39.218,35.2277 -44.6681,47.5775 -5.44195,12.3415 -14.8905,9.43451 -18.524,5.07931 -9.05662,-10.8569 -25.7522,-26.2756 -32.3243,-31.5931 -8.54845,-6.9195 -0.499951,-25.0492 13.352,-25.0492zm224.995 -146.831l0 0c0,0 -23.6162,24.0868 -34.9167,43.8666 0,0 -8.95569,13.6771 7.06386,21.2244 16.0348,7.54972 17.9395,11.7911 30.6918,-0.945916 12.7159,-12.7347 20.2715,-19.3385 26.8577,-30.1801 6.62259,-10.8522 1.90474,-11.7958 -2.33662,-17.9313 -4.24958,-6.12733 -4.24958,-33.0167 -27.36,-16.0336zm66.8819 83.9964l0 0c-23.1961,15.2004 -21.8488,15.4726 -39.2062,31.971 -9.53427,9.04253 -0.945916,26.8706 18.3198,19.0591 9.23031,-3.74141 16.4714,-6.48645 25.2123,-8.48977 6.62259,-1.52098 11.7453,-2.00567 18.5334,-6.84909 8.89114,-6.36205 3.27902,-10.2161 -2.05731,-15.1217 -7.64596,-7.05329 -6.40899,-7.14014 -8.27618,-16.5207 -1.28626,-6.58972 -8.0708,-6.96175 -12.5258,-4.0489zm-3.18983 -29.476l0 0c-2.54787,-1.02572 -7.16479,0.837945 -12.0857,-4.23902 -6.57329,-6.78337 -11.9953,-3.5419 -19.0099,1.10318 -6.49818,4.35168 -25.6583,21.9016 -28.9126,36 -4.27775,18.6414 7.66943,23.919 20.2351,16.0618 13.0433,-8.13065 37.2252,-30.2634 37.2252,-30.2634 12.0857,-9.7596 5.7377,-17.3856 2.54787,-18.6625zm-25.6583 109.875l0 0c10.7994,5.91373 30.8174,5.82454 44.4146,13.1736 11.797,6.34679 16.9162,7.16361 19.4793,3.06777 2.5467,-4.09349 5.1063,-4.60635 10.229,-7.16361 5.13447,-2.56547 6.64723,-7.69055 3.0889,-11.784 -3.60645,-4.09349 -3.69564,-2.28851 -5.11921,-10.2431 -1.66533,-9.12938 1.51276,-14.339 -16.9162,-13.3097 -18.4442,1.02455 -54.9007,9.33358 -54.9007,9.33358 -4.60166,1.5421 -14.9844,8.88058 -0.275794,16.9256zm-13.2569 10.3347l0 0c-7.29388,0 -9.96615,4.97955 -10.2936,12.1009 -0.631393,16.1369 4.98073,10.567 18.4923,17.6227 13.5081,7.05095 17.0183,12.3274 29.3656,24.0645 12.3356,11.7617 37.075,-10.6961 26.4141,-26.1488 -11.1104,-16.104 -30.2106,-19.9476 -47.4789,-23.3721 -3.24264,-0.650171 -9.50141,-4.26718 -16.4995,-4.26718zm-41.3128 37.0773l0 0c6.77163,18.9383 29.5429,37.4564 31.8114,38.9656 3.21799,2.14533 6.78806,4.27775 9.65046,10.0072 9.85349,19.7293 16.9537,4.60753 17.875,1.07384 1.07149,-4.19912 -0.477652,-7.06738 2.83775,-11.0811 4.01134,-4.86102 6.11794,-10.0366 0.720586,-13.5843 -2.27208,-1.50455 -5.71305,-2.1512 -10.3546,-7.49926 -11.9847,-13.8543 -40.3951,-31.1084 -40.3951,-31.1084 -2.49506,-1.4353 -18.9465,-5.72948 -12.1455,13.2264zm-29.6203 40.2272l0 0c5.56283,6.14141 19.5403,24.5586 27.3353,40.7378 7.83608,16.178 21.2186,7.81261 24.575,4.46552 3.34357,-3.34591 4.1111,-9.1728 1.62543,-12.737 -2.77437,-3.99139 -5.39853,-4.59227 -7.79618,-11.8216 -6.59794,-19.9511 -8.40175,-24.5879 -12.2746,-30.1414 -2.69692,-3.88577 -2.30846,-2.44811 -7.24107,-11.1609 -6.02875,-10.6504 -18.9946,-3.34474 -18.9946,-3.34474 -15.6217,6.70591 -12.8133,17.8656 -7.22933,24.0023zm-38.0796 0.631393l0 0c-5.08987,5.084 -6.53339,10.8898 -15.982,14.5232 -9.43686,3.62992 -13.0633,12.3427 -5.084,17.4232 7.99099,5.08048 21.7924,16.6967 37.7862,34.8639 15.9691,18.1637 22.5072,4.3552 28.3094,1.44939 5.80224,-2.9023 10.8886,-11.6315 2.90347,-18.1637 -25.1877,-20.6118 -36.2969,-46.4661 -36.2969,-46.4661 -1.46934,-6.53457 -6.551,-8.72801 -11.6362,-3.62992zm-102.317 62.9762l0 0c0,0 27.6393,33.2033 52.9572,46.9824 8.04146,4.37046 7.20234,2.44694 13.4083,8.94982 6.5909,6.91012 31.0826,20.1365 40.2718,11.1914 9.42278,-9.18806 10.5412,-17.1262 0,-28.3458 -9.40987,-10.0272 -13.4271,-17.1579 -20.1318,-29.091 -6.70356,-11.9296 -24.9834,-23.2172 -29.8269,-32.8137 -3.36234,-6.62493 -9.69505,-20.877 -21.6352,-2.97623 -11.9272,17.8926 -44.201,-1.99159 -35.0435,26.1031zm-36.0586 6.07217l0 0c-5.00185,8.13065 -5.54875,9.89808 -11.4906,16.6333 -24.1701,27.387 39.6029,55.0697 50.3072,58.6397 10.6961,3.55012 28.1228,14.5432 28.1228,14.5432 39.5665,20.397 41.5839,-10.993 26.3847,-17.9712 -14.5396,-6.67774 -40.7718,-23.9742 -51.563,-40.7671 -10.7924,-16.7918 -31.0697,-48.514 -41.7611,-31.0779zm-31.3021 61.792l0 0c1.58904,7.52625 2.76733,9.12234 0,19.4089 -6.02405,22.4098 1.58904,23.7641 11.8826,25.7334 10.3065,1.98102 14.2157,4.5641 32.0849,9.52488 60.21,16.6298 60.6008,16.2249 62.5818,3.94679 1.00812,-6.27051 -4.75188,-8.30552 -10.2948,-8.71745 -45.5694,-3.24616 -82.7829,-51.8845 -82.7829,-51.8845 -3.57007,-7.51804 -15.049,-5.54523 -13.4717,1.98807zm-10.6985 64.9537l0 0c3.16635,7.53212 2.78846,17.0288 -3.55716,26.1383 -6.33858,9.12586 -9.49789,19.4194 9.10239,17.4302 18.6249,-1.97281 56.627,3.1863 75.2719,3.55833 19.0016,0.411931 17.4196,-4.73075 19.0016,-10.2948 1.47638,-5.17437 -2.37066,-10.6938 -7.13192,-11.8744 -7.53799,-1.87188 -17.023,-1.18416 -24.94,-5.14268 -7.27745,-3.63814 -27.3353,-16.6568 -35.6538,-17.8175 -8.32077,-1.19706 -18.6273,-8.71393 -18.6273,-8.71393 -7.12606,-5.16733 -16.638,-0.808606 -13.4658,6.71647zm91.9052 58.621l0 0c-9.51197,3.18983 -14.6582,3.97027 -41.1943,1.19706 -15.4914,-1.609 -31.2833,-2.3777 -37.6289,5.93955 -4.66738,6.12146 -11.8955,22.5764 0.383765,34.0671 26.1629,24.4659 88.733,-26.9387 88.733,-26.9387 7.52977,-7.5286 -0.788654,-17.4185 -10.2936,-14.265zm-40.4056 81.1657l0 0c9.404,7.70229 32.9052,0.853202 40.158,-6.82796 7.27276,-7.69055 32.9064,-27.7649 41.4466,-30.3327 8.55784,-2.57486 8.55784,-11.9671 4.2754,-14.9633 -4.2754,-2.99501 -11.966,-0.836772 -16.2343,2.13946 -4.26366,2.98327 -11.5352,3.83648 -23.4953,6.4043 -11.9648,2.57956 -39.4585,18.7435 -41.4525,19.6577 -10.249,4.70611 -14.096,16.2414 -4.69789,23.9225zm128.985 -43.4875l0 0c-29.7459,19.734 -56.4768,24.5222 -69.9872,40.6181 -11.4965,13.7052 0.909535,42.9289 19.5732,26.3894 56.4557,-49.9692 55.2129,-46.2619 63.1733,-53.3785 11.2771,-10.1035 -0.25819,-21.938 -12.7593,-13.6289zm-26.7626 66.497l0 0c-3.07247,6.15902 0.827383,13.0398 1.76508,14.1113 0.85907,0.982297 7.93466,9.82063 16.0148,-0.886063 9.42278,-12.4812 41.8715,-35.0294 57.0343,-51.259 9.75138,-10.4227 1.7909,-16.4796 0,-17.6919 -1.83198,-1.24518 -8.88293,-1.89183 -17.2401,5.45017 -7.46875,6.56156 -55.0568,45.242 -57.5741,50.2755zm32.1917 -608.669l0 0c-3.40577,-2.4 -8.01564,-0.884889 -8.77965,-0.45066 -0.686552,0.394327 -6.83031,3.51961 -1.21702,9.25847 6.56038,6.68361 16.6967,27.5923 24.9083,37.9552 5.26591,6.66131 9.80772,2.73095 10.7454,1.83198 0.954131,-0.914229 2.13124,-4.88449 -1.40479,-10.4356 -3.19687,-4.96312 -21.4697,-36.2006 -24.2523,-38.1594zm-22.4919 11.8685l0 0c-3.41163,-2.39296 -8.02738,-0.876674 -8.77965,-0.442445 -0.680684,0.382591 -6.83735,3.51726 -1.22288,9.25613 6.55452,6.68596 16.7084,27.597 24.9083,37.9481 5.26004,6.66014 9.82063,2.73447 10.7407,1.83315 0.959999,-0.916576 2.13829,-4.88215 -1.40596,-10.4274 -3.17926,-4.96078 -21.465,-36.203 -24.2406,-38.1676zm7.36899 67.951l0 0c0.157261,-3.88107 -3.78484,-6.53104 -4.59344,-6.86552 -0.719412,-0.298093 -6.95589,-3.22621 -8.78552,4.1463 -2.13242,8.59774 -14.6828,27.6898 -19.1037,39.5383 -2.83775,7.61544 3.18396,8.89231 4.5019,9.11178 1.3379,0.219462 5.48889,-1.0668 8.31256,-6.77281 2.54318,-5.10865 19.5286,-35.9917 19.6682,-39.1581zm38.4528 -1.98924l0 0c0.699461,-3.55716 -2.42582,-6.61085 -3.09594,-7.04508 -0.598532,-0.388459 -5.71188,-4.04303 -8.41936,2.50327 -3.17222,7.62483 -17.1368,23.3709 -22.8193,33.6528 -3.64518,6.60615 1.53271,8.70454 2.67462,9.10473 1.15951,0.407237 5.03354,-0.157261 8.39354,-4.99246 3.022,-4.34347 22.6691,-30.3057 23.2665,-33.2232zm18.9242 511.816l0 0c0,0 -18.8913,17.9759 -30.5404,27.9632 -11.2407,9.64224 -1.86014,20.4334 0.220635,22.5036 2.05496,2.06552 11.6726,4.94904 19.4359,-5.93134 7.77036,-10.8604 18.6543,-19.6694 26.9433,-29.0018 8.28909,-9.3195 6.62259,-19.4547 2.61242,-22.2572 -4.13692,-2.88234 -9.85349,-3.10063 -18.6719,6.72351zm26.1876 27.0161l0 0c0,0 -19.6659,20.5719 -24.7241,24.7288 -7.94405,6.50523 -3.4398,16.0829 -1.98102,17.5147 2.96802,2.99149 8.28791,5.1908 18.0522,-3.80009 9.71618,-8.98503 17.483,-15.8212 23.6409,-20.4546 8.30082,-6.25056 7.96048,-15.4492 4.4796,-20.9838 -3.72381,-6.0088 -14.2322,-3.0044 -19.4676,2.99501zm23.4144 39.2919l0 0c0,0 -26.515,3.03609 -19.1613,20.329 4.93261,11.5798 16.1604,10.3828 25.4928,3.88577 6.57329,-4.56176 7.46757,-6.33153 15.5419,-8.31725 7.54386,-1.86836 8.55432,-10.4919 5.74122,-13.5609 -4.81995,-5.27999 -3.52195,-4.69437 -6.02875,-8.48625 -1.41535,-2.15472 -4.7953,-2.78142 -9.96615,0.954131 -4.88449,3.54542 -4.69437,3.26611 -11.6197,5.1955zm17.2964 47.2242l0 0c0,0 -20.1107,-1.57731 -16.9044,13.6254 0.52929,2.47745 3.33066,9.66689 12.8039,5.92664 12.5387,-4.93613 20.7374,-8.60713 31.6624,-8.94278 10.9238,-0.340342 14.2275,-12.1866 8.21163,-18.4043 -2.66054,-2.68166 -9.63872,-3.47736 -19.5767,2.53027 -7.22933,4.37515 -9.22327,4.68968 -16.1968,5.26474zm-2.80254 56.5191l0 0c0,0 34.4273,-4.08762 42.8537,-2.88704 8.43813,1.2088 11.7172,-1.89183 12.9177,-10.3264 1.19706,-8.41349 -6.03227,-18.0522 -13.8519,-15.6346 -7.83608,2.41408 -27.8529,6.84909 -36.9095,6.25408 -9.02024,-0.602053 -15.7813,5.36919 -16.0594,9.97906 -0.352078,5.4619 2.4575,13.3297 11.0494,12.615zm1.73105 24.7311l0 0c0.440097,6.62259 6.2177,11.2395 13.7346,11.6561 10.3464,0.606748 14.5467,2.9598 21.3312,4.66268 6.78806,1.68176 19.4758,-12.7851 5.08283,-24.8896 -10.2537,-8.63647 -26.5396,-5.03354 -26.5396,-5.03354 -5.62855,0.582102 -14.2685,3.84821 -13.609,13.6043zm-5.01007 42.0088l0 0c-0.605574,5.66376 1.68997,9.15755 7.0885,10.4074 5.40087,1.24049 6.7998,-1.63012 16.4514,0.52929 13.2569,2.98797 15.3389,-1.81203 16.2202,-8.09427 0.897799,-6.40899 -4.45144,-13.4928 -11.074,-11.8392 -6.62259,1.64186 -13.7627,0.631393 -13.7627,0.631393 0,0 -13.6008,-4.14865 -14.9234,8.36537zm-2.9152 43.0709l0 0c7.98513,2.38591 13.1689,6.88195 16.2214,7.49222 4.54415,0.889583 8.94747,-5.59921 6.15784,-12.392 -1.98102,-4.96547 -11.4906,-9.06483 -16.638,-9.69505 -12.1737,-0.449486 -12.7147,12.4929 -5.74122,14.5948zm-16.1604 19.5896l0 0c6.93828,3.39638 11.0142,8.30082 13.7627,9.31129 4.01486,1.49985 8.99676,-3.79188 7.484,-10.4321 -1.07501,-4.85046 -9.18571,-10.0424 -13.8026,-11.3803 -11.1104,-2.22396 -13.5081,9.56126 -7.4441,12.5011zm-22.8792 15.5618l0 0c5.27178,4.80352 7.64126,10.2255 9.78777,11.8146 3.14171,2.37653 8.95569,-1.01868 9.33593,-7.29857 0.286357,-4.58053 -5.564,-11.2806 -9.27491,-13.6372 -9.28312,-4.86454 -14.454,4.95256 -9.84879,9.12116zm-27.4621 15.6463l0 0c4.35051,5.67315 5.67667,11.3979 7.51686,13.3555 2.71217,2.91051 8.99559,0.602053 10.5084,-5.50298 1.09496,-4.46317 -3.44567,-12.0728 -6.68831,-15.1053 -8.27148,-6.3996 -15.1206,2.3331 -11.3369,7.2528zm-44.8101 0.667774l0 0c-2.542,17.2964 8.39471,16.0677 14.6699,15.3717 6.31393,-0.699461 11.0318,-7.35373 6.90777,-12.2183 -2.87061,-3.40459 -18.6507,-23.0705 -21.5777,-3.15344zm-19.8631 -3.49731l0 0c-3.60762,-9.17398 -11.6796,-13.217 -15.7226,-9.17398 -4.03716,4.03129 -8.08136,12.1009 -4.03716,16.1486 8.08019,4.03481 16.1522,8.07432 19.829,-5.66493 0.0140831,-0.448313 -0.00586796,-0.876674 -0.069242,-1.30973zm-31.3654 -14.3613l0 0c-3.59472,-9.17398 -11.6808,-13.217 -15.725,-9.17398 -4.03716,4.04303 -8.06493,12.1256 -4.03716,16.1604 8.08136,4.03129 16.1674,8.0661 19.8502,-5.67667 0,-0.428361 -0.037555,-0.876674 -0.0880195,-1.30973zm-22.3206 -23.6725l0 0c-2.93985,-7.48752 -9.51197,-10.7665 -12.798,-7.48752 -3.29193,3.29897 -6.57916,9.88517 -3.29193,13.1642 6.57799,3.28723 13.1501,6.57799 16.1592,-4.62513 0,-0.363814 -0.0246455,-0.712371 -0.069242,-1.05154zm-15.1194 -31.7633l0 0c-2.92694,-7.44293 -9.51197,-10.763 -12.8051,-7.44293 -3.28489,3.28723 -6.57212,9.84527 -3.28489,13.136 6.57799,3.28723 13.163,6.57799 16.158,-4.61691 0.00704156,-0.343863 -0.0176039,-0.704156 -0.0680684,-1.07618zm32.0356 -78.8936l0 0c1.78386,-9.0883 -6.88899,-13.4353 -11.2278,-9.0883 -4.33995,4.34229 -13.0128,13.0187 -8.67872,21.6903 8.67872,4.33525 21.6903,0 19.7551,-11.2958 0.07511,-0.433056 0.131442,-0.881368 0.151393,-1.30621zm-28.5042 31.6459l0 0c1.48225,-7.58141 -5.72713,-11.1796 -9.33945,-7.58141 -3.59589,3.63931 -10.817,10.8358 -7.20469,18.0569 7.20469,3.59472 18.0264,0 16.4197,-9.39579 0.0622004,-0.368508 0.106797,-0.732322 0.124401,-1.07971zm66.3033 -30.7118l0 0c-3.73907,-9.53779 -12.1232,-13.7181 -16.3176,-9.53779 -4.18034,4.19677 -8.37593,12.5868 -4.18034,16.7589 8.37476,4.2085 16.7589,8.39002 20.5848,-5.88322 0,-0.440097 -0.0234719,-0.88841 -0.0868459,-1.3379zm16.9537 17.7741l0 0c-2.3155,-5.87149 -7.48048,-8.47099 -10.0659,-5.87149 -2.58543,2.58425 -5.1732,7.76332 -2.58543,10.3311 5.17085,2.61124 10.3358,5.17907 12.7018,-3.64753 0,-0.262885 -0.00586796,-0.545721 -0.0504645,-0.812126zm-45.2432 -713.363l0 0c0.897799,-15.847 7.20469,-20.505 12.3133,-17.503 5.10865,3.0044 4.0489,14.9457 4.0489,14.9457l9.9908 -1.64772c2.4845,-4.28596 6.23882,-20.8078 -3.6088,-28.6157 -9.82649,-7.81496 -25.298,-3.22621 -30.8608,8.18346 -5.55109,11.4155 -1.34494,26.204 -1.34494,26.204l9.46151 -1.56675z"/>
   </g>
   <g>
    <path id="_31355048" fill="black" fill-rule="nonzero" d="M361.656 141.012l-5.67667 -20.5872 -29.9477 0 -5.85036 20.5872 -12.1033 0 26.5596 -84.6689 13.3684 0 25.8707 84.6689 -12.2206 0zm-32.8125 -30.578l0 0 24.2089 0 -11.8768 -40.8962 -12.3321 40.8962z"/>
    <polygon id="_113932080" fill="black" fill-rule="nonzero" points="387.804,141.012 387.804,127.993 399.006,127.993 399.006,141.012 "/>
    <path id="_59777440" fill="black" fill-rule="nonzero" d="M464.381 114.894l0 1.89183c0,8.03559 -2.1242,14.2991 -6.37613,18.7963 -4.25075,4.49603 -10.1704,6.74229 -17.7553,6.74229 -3.60176,0 -6.96058,-0.517555 -10.0812,-1.54797 -3.1241,-1.03159 -5.64264,-2.45046 -7.55442,-4.24723 -3.21917,-2.94572 -5.48655,-7.1906 -6.81153,-12.7382 -1.31794,-5.54757 -1.98102,-14.5349 -1.98102,-26.9703 0,-8.68224 0.410758,-15.3576 1.23697,-20.025 0.819168,-4.66855 2.20753,-8.56958 4.16273,-11.7078 1.91061,-3.13701 4.68029,-5.5464 8.29496,-7.23051 3.61819,-1.68176 7.81965,-2.52322 12.6044,-2.52322 7.69173,0 13.5562,2.15354 17.598,6.45946 4.03833,4.30826 6.05574,10.5764 6.05574,18.808l-11.9061 0 0 -1.26161c0,-5.04528 -1.00694,-8.81134 -3.01848,-11.2958 -2.01154,-2.48684 -5.04997,-3.7285 -9.11178,-3.7285 -2.56665,0 -4.81877,0.497603 -6.75403,1.49281 -1.93643,0.991686 -3.49496,2.44342 -4.68381,4.35403 -1.18885,1.91413 -2.03149,4.8129 -2.52909,8.69163 -0.498777,3.87872 -0.747579,11.2454 -0.747579,22.1035 0,12.8086 1.08557,21.3923 3.24851,25.7498 2.1688,4.35872 5.99237,6.53457 11.4766,6.53457 4.37046,0 7.59901,-1.42592 9.69153,-4.26953 2.08547,-2.85066 3.13349,-7.21525 3.13349,-13.1067l0 -0.971735 11.8075 0z"/>
    <polygon id="_114071560" fill="black" fill-rule="nonzero" points="479.064,141.012 479.064,127.993 490.266,127.993 490.266,141.012 "/>
    <path id="_113430488" fill="black" fill-rule="nonzero" d="M555.641 114.894l0 1.89183c0,8.03559 -2.1242,14.2991 -6.37613,18.7963 -4.25075,4.49603 -10.1704,6.74229 -17.7553,6.74229 -3.60058,0 -6.96058,-0.517555 -10.0812,-1.54797 -3.1241,-1.03159 -5.64264,-2.45046 -7.55324,-4.24723 -3.22034,-2.94572 -5.48772,-7.1906 -6.81271,-12.7382 -1.31794,-5.54757 -1.98102,-14.5349 -1.98102,-26.9703 0,-8.68224 0.410758,-15.3576 1.23814,-20.025 0.817994,-4.66855 2.20753,-8.56958 4.16156,-11.7078 1.91061,-3.13701 4.68029,-5.5464 8.29496,-7.23051 3.62053,-1.68176 7.82082,-2.52322 12.6044,-2.52322 7.69173,0 13.5585,2.15354 17.598,6.45946 4.03833,4.30826 6.05809,10.5764 6.05809,18.808l-11.9084 0 0 -1.26161c0,-5.04528 -1.00577,-8.81134 -3.01848,-11.2958 -2.01154,-2.48684 -5.04762,-3.7285 -9.11178,-3.7285 -2.56547,0 -4.8176,0.497603 -6.75403,1.49281 -1.93643,0.991686 -3.49496,2.44342 -4.68381,4.35403 -1.18885,1.91413 -2.02914,4.8129 -2.52909,8.69163 -0.49643,3.87872 -0.747579,11.2454 -0.747579,22.1035 0,12.8086 1.08557,21.3923 3.24851,25.7498 2.17115,4.35872 5.99119,6.53457 11.4766,6.53457 4.37046,0 7.60136,-1.42592 9.69153,-4.26953 2.08782,-2.85066 3.13467,-7.21525 3.13467,-13.1067l0 -0.971735 11.8063 0z"/>
    <polygon id="_114059496" fill="black" fill-rule="nonzero" points="569.619,141.012 569.619,56.343 611.907,56.343 611.907,65.6273 580.819,65.6273 580.819,92.8746 610.997,92.8746 610.997,102.362 580.819,102.362 580.819,131.726 611.907,131.726 611.907,141.012 "/>
    <path id="_113830648" fill="black" fill-rule="nonzero" d="M620.81 116.488l12.2101 0 0 1.55266c0,5.3997 0.998728,9.32772 3.0044,11.8017 2.00567,2.46455 5.18259,3.70151 9.53779,3.70151 4.12401,0 7.51569,-1.22288 10.1927,-3.67335 2.67227,-2.45164 4.01134,-5.5288 4.01134,-9.24439 0,-4.85633 -5.22484,-10.5588 -15.6804,-17.1051 -1.48694,-0.955305 -2.63589,-1.68293 -3.43159,-2.18288 -8.18816,-5.23422 -13.3837,-9.49085 -15.6029,-12.7616 -2.21926,-3.2708 -3.33183,-7.27628 -3.33183,-12.0188 0,-6.42425 2.30846,-11.6385 6.91364,-15.6323 4.60518,-3.99726 10.6339,-5.99589 18.1015,-5.99589 7.64596,0 13.4963,1.90591 17.5476,5.70836 4.04655,3.80244 6.08039,9.30307 6.08039,16.4902l0 2.12303 -11.608 0 0 -1.77917c0,-4.51012 -1.04684,-7.93114 -3.12528,-10.2619 -2.09369,-2.3331 -5.21075,-3.50083 -9.34767,-3.50083 -3.78366,0 -6.93828,1.102 -9.42395,3.29897 -2.48684,2.20166 -3.73672,4.94435 -3.73672,8.23158 0,5.43021 5.62855,11.7418 16.8927,18.9301 2.07022,1.30386 3.65926,2.31433 4.78356,3.04078 6.6707,4.36811 11.074,8.06376 13.1924,11.0881 2.11834,3.02435 3.17809,6.58855 3.17809,10.6879 0,7.46757 -2.24391,13.2393 -6.73642,17.3211 -4.50425,4.07941 -10.8475,6.11677 -19.0709,6.11677 -8.18816,0 -14.346,-1.95403 -18.47,-5.86679 -4.12401,-3.90924 -6.19422,-9.7373 -6.19422,-17.4818 0,-0.265232 0.0129095,-0.687725 0.0528117,-1.26161 0.0363814,-0.573887 0.0610268,-1.01633 0.0610268,-1.32616z"/>
    <polygon id="_113831440" fill="black" fill-rule="nonzero" points="686.066,141.012 686.066,56.343 728.349,56.343 728.349,65.6273 697.269,65.6273 697.269,92.8746 727.443,92.8746 727.443,102.362 697.269,102.362 697.269,131.726 728.349,131.726 728.349,141.012 "/>
    <path id="_113833728" fill="black" fill-rule="nonzero" d="M787.678 131.255c-0.153741,-2.71804 -0.267579,-5.36801 -0.343863,-7.95344 -0.0727628,-2.57956 -0.112665,-5.09691 -0.112665,-7.5462l0 -59.412 10.2936 0 0 84.6689 -15.1253 0 -32.62 -76.9771c0.302787,3.63696 0.541026,6.75637 0.694767,9.35823 0.15022,2.60186 0.226503,4.80117 0.226503,6.60029l0 61.0186 -10.0917 0 0 -84.6689 15.9057 0 31.173 74.9116z"/>
    <path id="_113834584" fill="black" fill-rule="nonzero" d="M860.665 141.012l-5.68841 -20.5872 -29.936 0 -5.85506 20.5872 -12.1091 0 26.5678 -84.6689 13.359 0 25.8719 84.6689 -12.2101 0zm-32.823 -30.578l0 0 24.2065 0 -11.8709 -40.8962 -12.3356 40.8962z"/>
   </g>
  </g>
 </g>
</svg>
