<?xml version="1.0" encoding="UTF-8" standalone="no"?>
<!-- Generator: Adobe Illustrator 15.0.2, SVG Export Plug-In . SVG Version: 6.00 Build 0)  -->

<svg
   xmlns:dc="http://purl.org/dc/elements/1.1/"
   xmlns:cc="http://creativecommons.org/ns#"
   xmlns:rdf="http://www.w3.org/1999/02/22-rdf-syntax-ns#"
   xmlns:svg="http://www.w3.org/2000/svg"
   xmlns="http://www.w3.org/2000/svg"
   xmlns:sodipodi="http://sodipodi.sourceforge.net/DTD/sodipodi-0.dtd"
   xmlns:inkscape="http://www.inkscape.org/namespaces/inkscape"
   version="1.2"
   id="Capa_1"
   x="0px"
   y="0px"
   width="234.5"
   height="284"
   viewBox="0 0 234.5 568.0011"
   xml:space="preserve"
   inkscape:version="0.48.2 r9819"
   sodipodi:docname="cd_mirandes.svg"><metadata
   id="metadata123"><rdf:RDF><cc:Work
       rdf:about=""><dc:format>image/svg+xml</dc:format><dc:type
         rdf:resource="http://purl.org/dc/dcmitype/StillImage" /></cc:Work></rdf:RDF></metadata><defs
   id="defs121" /><sodipodi:namedview
   pagecolor="#ffffff"
   bordercolor="#666666"
   borderopacity="1"
   objecttolerance="10"
   gridtolerance="10"
   guidetolerance="10"
   inkscape:pageopacity="0"
   inkscape:pageshadow="2"
   inkscape:window-width="1920"
   inkscape:window-height="1018"
   id="namedview119"
   showgrid="false"
   fit-margin-top="0"
   fit-margin-left="0"
   fit-margin-right="0"
   fit-margin-bottom="0"
   inkscape:zoom="2.8133803"
   inkscape:cx="117.25"
   inkscape:cy="142"
   inkscape:window-x="-8"
   inkscape:window-y="-8"
   inkscape:window-maximized="1"
   inkscape:current-layer="Capa_1" />
<path
   d="m 350.96072,74.772277 c -0.009,-7.964 -6.606,-14.293 -14.64,-14.308 -4.406,0.023 -8.021,2.118 -10.564,4.044 -1.287,0.985 -2.313,1.954 -3.025,2.686 -1.333,-0.26 -2.626,-0.386 -3.871,-0.386 -3.942,-0.006 -7.433,1.297 -9.914,3.628 -2.487,2.321 -3.881,5.637 -3.87,9.214 0.005,4.078 1.726,8.444 5.247,12.558 -0.378,0.284 -0.858,0.604 -1.438,0.919 -4.596,2.606 -14.931,5.73 -29.99,5.713 -10.388,0.089 -22.01,-7.914 -30.765,-16.26 -4.388,-4.146 -8.081,-8.315 -10.668,-11.438 -0.622,-0.752 -1.178,-1.439 -1.665,-2.055 2.158,-1.063 4.004,-2.854 5.451,-4.997 2.368,-3.512 3.885,-8.145 4.215,-13.295 l -2.624,-0.165 2.624,0.154 c 0.039,-0.66 0.06,-1.319 0.06,-1.976 -0.006,-4.842 -1.106,-9.271 -3.115,-12.721 -1.982,-3.413 -5.091,-6.037 -9.018,-6.296 -0.198,-0.015 -0.403,-0.019 -0.585,-0.019 -4.075,0.023 -7.461,2.578 -9.806,6.049 -2.367,3.512 -3.883,8.145 -4.213,13.298 -0.044,0.666 -0.063,1.331 -0.063,1.982 0.006,4.842 1.105,9.27 3.117,12.721 0.973,1.675 2.221,3.157 3.7,4.266 -7.2,4.188 -23.35299,11.824 -45.30899,11.813 -13.729,0.011 -26.312,-5.259 -35.395,-11.472 -4.537,-3.097 -8.192,-6.428 -10.641,-9.341 -2.485,-2.86 -3.579,-5.531 -3.475,-6.175 -0.004,-0.243 0.038,-0.462 0.092,-0.632 0.298,0.212 0.717,0.543 1.17,0.977 1.342,1.221 3.089,3.082 5.233,4.702 2.138,1.608 4.811,3.078 8.062,3.086 2.718,0.004 5.128,-1.341 6.737,-3.289 1.627,-1.957 2.561,-4.542 2.563,-7.346 0.017,-2.575 -0.767,-4.484 -1.331,-5.841 -0.568,-1.398 -0.92,-2.24 -0.936,-3.837 -0.013,-0.745 0.307,-1.657 0.861,-3.008 0.529,-1.331 1.237,-3.099 1.239,-5.334 -0.007,-2.31 -0.77,-4.519 -2.174,-6.268 -1.386,-1.741 -3.575,-3.042 -6.126,-3.033 -3.81,-0.028 -6.558,1.482 -8.35,2.737 -0.905,0.624 -1.618,1.167 -2.137,1.463 -0.264,0.153 -0.454,0.24 -0.602,0.291 -0.027,-0.129 -0.049,-0.308 -0.049,-0.53 -0.02,-0.268 0.188,-1.146 0.676,-2.219 0.713,-1.628 1.924,-3.712 2.996,-5.918 1.056,-2.226 2.058,-4.58 2.083,-7.213 0.011,-2.7060005 -0.846,-5.5080005 -2.957,-7.5680005 -2.108,-2.062 -5.229,-3.146 -9.045,-3.135 -3.184,0.004 -6.926,0.708 -11.403,2.246 -4.48,-1.539 -8.225,-2.242 -11.407,-2.246 -3.819,-0.011 -6.938001,1.073 -9.045001,3.137 -2.11,2.059 -2.968,4.861 -2.955,7.5660005 0.058,3.499 1.747,6.56 3.177,9.367 0.73,1.385 1.425,2.684 1.901,3.765 0.487,1.073 0.696,1.951 0.676,2.219 10e-4,0.233 -0.022,0.405 -0.05,0.529 -0.146,-0.05 -0.337,-0.137 -0.602,-0.29 -1.559,-0.835 -4.728,-4.235 -10.483,-4.201 -2.552,-0.009 -4.741,1.292 -6.126,3.033 -1.405,1.75 -2.168,3.958 -2.177,6.268 0.002,2.236 0.711,4.004 1.24,5.334 0.554,1.352 0.876,2.264 0.863,3.008 -0.015,1.597 -0.368,2.438 -0.935,3.837 -0.567,1.356 -1.348,3.266 -1.333,5.841 0.002,2.805 0.937,5.39 2.561,7.346 1.612,1.948 4.021,3.293 6.739,3.289 4.65,-0.055 8.011,-2.883 10.563998,-5.201 1.278003,-1.183 2.383003,-2.308 3.232003,-3.036 0.253,-0.218 0.483,-0.397 0.669,-0.53 0.055,0.169 0.095,0.39 0.093,0.634 0.102,0.644 -0.992,3.315 -3.478,6.175 -7.370001,8.838 -25.460001,20.88 -46.034001,20.813 -15.22,0 -27.634,-3.653 -36.235,-7.3 -3.810002,-1.614 -6.863002,-3.227 -9.0750019,-4.514 1.4799999,-1.109 2.7279999,-2.59 3.6999999,-4.266 2.011,-3.451 3.11,-7.879 3.117,-12.722 0,-0.654 -0.021,-1.314 -0.062,-1.978 -0.331,-5.157 -1.846,-9.788 -4.214,-13.3 -2.3449999,-3.474 -5.7299999,-6.027 -9.8049999,-6.049 -0.183,0 -0.3879999,0.004 -0.6129999,0.021 -3.8970001,0.256 -7.0050001,2.88 -8.9880001,6.295 -2.011,3.451 -3.1120001,7.877 -3.1180001,12.719 0,0.652 0.021,1.316 0.063,1.993 h 10e-4 c 0.33,5.149 1.8450001,9.779 4.2120001,13.29 1.447,2.144 3.294,3.935 5.453,4.998 -3.025,3.809 -8.725,10.513 -15.7459901,16.582 -8.225,7.159 -18.266,13.229 -27.353,13.17 -10.719,0.002 -19.017,-1.553 -24.592,-3.412 -2.787,-0.926 -4.895,-1.938 -6.228,-2.8 -0.226,-0.145 -0.429,-0.286 -0.609,-0.419 3.519,-4.115 5.24,-8.48 5.246,-12.559 0.01,-3.579 -1.384,-6.894 -3.872,-9.214 -2.481,-2.331 -5.971,-3.632 -9.914,-3.625 -1.244,0 -2.536,0.126 -3.866,0.385 -0.713,-0.731 -1.739,-1.701 -3.028,-2.687 -2.54,-1.927 -6.155,-4.021 -10.562007,-4.044 -8.034,0.015 -14.632,6.344 -14.642,14.308 -0.1,6.329 2.221,11.429 7.388,15.744 0.603,0.517 1.247,1.032 1.926,1.55 -1.474,1.053 -2.6,3.521 -2.6,7.732003 0,6.54799 3.841,11.84699 8.175,11.84699 1.584995,0 0.334,-4.338 0.334,-5.673 0,-2.121 2.947007,-3.837 6.590007,-3.837 3.598,0 9.771,3.324 10.425,3.682 0.022,0.012 0.044,0.023 0.066,0.037 0.004,0.002 0.009,0.005 0.014,0.007 l 49.155,27.264 h -50.485 l 202.652993,433.873 202.64799,-433.875 h -50.483 l 49.153,-27.265 c 0.005,-0.002 0.009,-0.004 0.014,-0.007 0,0 6.688,-3.717 10.49,-3.717 3.643,0 6.59,1.716 6.59,3.837 0,1.335 -1.251,5.673 0.335,5.673 4.333,0 8.175,-5.298 8.175,-11.84699 0,-4.211003 -1.127,-6.680003 -2.601,-7.733003 0.68,-0.518 1.323,-1.034 1.927,-1.55 5.168,-4.314 7.489,-9.414 7.389,-15.743 z"
   id="path3"
   inkscape:connector-curvature="0" />
<path
   d="m 325.68173,71.754277 c 0,0 0.045,-0.057 0.187,-0.218 0.96,-1.206 5.894,-5.963 10.452,-5.815 5.246,0.006 9.374,4.104 9.383,9.051 -0.1,5.284 -1.252,7.918 -5.562,11.761 -0.874,0.757 -1.889,1.538 -3.038,2.353 -0.781,-0.755 -1.638,-1.515 -2.569,-2.265 0.153,-0.589 0.243,-1.203 0.242,-1.839 0.001,-0.744 -0.123,-1.458 -0.331,-2.136 1.18,-0.237 2.739,-0.441 4.665,-0.441 1.1,0 2.317,0.065 3.645,0.232 0.687,0.084 1.313,-0.401 1.397,-1.086 0.086,-0.685 -0.4,-1.311 -1.085,-1.397 -1.435,-0.18 -2.757,-0.252 -3.957,-0.252 -2.477,0 -4.442,0.308 -5.834,0.633 -0.136,-0.183 -0.28,-0.357 -0.43,-0.527 1.512,-1.278 4.022,-3.108 7.791,-5.003 0.613,-0.31 0.864,-1.063 0.553,-1.68 -0.311,-0.619 -1.063,-0.867 -1.68,-0.556 -4.221,2.122 -6.989,4.197 -8.609,5.611 -0.005,-0.002 -0.009,-0.005 -0.013,-0.008 0.291,-1.334 0.807,-2.557 1.336,-3.539 0.402,-0.748 0.807,-1.354 1.105,-1.767 0.299,-0.414 0.475,-0.608 0.472,-0.61 0.452,-0.521 0.4,-1.311 -0.122,-1.765 -0.521,-0.453 -1.312,-0.398 -1.765,0.123 -0.051,0.084 -2.386,2.705 -3.356,6.552 -0.822,-0.227 -1.689,-0.349 -2.584,-0.35 -0.009,0 -0.019,0.001 -0.027,0.001 -0.007,-0.034 -0.014,-0.063 -0.021,-0.098 -0.233,-1.138 -0.508,-2.657 -0.762,-4.485 0.191,-0.135 0.366,-0.293 0.517,-0.48 z"
   id="path5"
   inkscape:connector-curvature="0"
   style="fill:#ffffff" />
<path
   d="m 323.32773,82.996277 c 0.617,-0.537 1.559,-0.927 2.647,-0.925 1.091,-0.002 2.03,0.388 2.647,0.925 0.621,0.547 0.896,1.153 0.897,1.786 -0.002,0.635 -0.276,1.239 -0.897,1.788 -0.617,0.537 -1.557,0.927 -2.647,0.925 -1.089,0.002 -2.03,-0.388 -2.647,-0.925 -0.62,-0.549 -0.895,-1.153 -0.899,-1.788 0.004,-0.633 0.279,-1.239 0.899,-1.786 z"
   id="path7"
   inkscape:connector-curvature="0"
   style="fill:#d9001d" />
<path
   d="m 318.85973,72.065277 c 1.163,0 2.443,0.162 3.827,0.509 0.256,1.849 0.533,3.393 0.773,4.572 -1.339,0.359 -2.558,1 -3.568,1.873 -0.163,0.139 -0.315,0.29 -0.467,0.441 -2.65,-0.639 -5.612,-1.125 -8.939,-1.414 0.294,-1.524 1.006,-2.783 2.056,-3.777 1.407,-1.314 3.493,-2.198 6.318,-2.204 z"
   id="path9"
   inkscape:connector-curvature="0"
   style="fill:#ffffff" />
<path
   d="m 223.97773,51.102277 c 0,-0.547 0.015,-1.097 0.053,-1.642 0.266,-4.317 1.577,-8.127 3.321,-10.692 1.752,-2.577 3.744,-3.739 5.403,-3.739 0.017,0 0.032,0 0.049,0 0.094,0 0.167,0.002 0.233,0.009 1.638,0.089 3.365,1.228 4.832,3.707 1.438,2.44 2.403,6.037 2.396,10.064 0.002,0.543 -0.017,1.099 -0.051,1.667 h 0.002 c -0.267,4.301 -1.577,8.106 -3.32,10.667 -1.771,2.603 -3.785,3.762 -5.456,3.739 -0.083,0 -0.172,-0.002 -0.259,-0.008 -1.608,-0.09 -3.338,-1.228 -4.805,-3.706 -1.439,-2.444 -2.404,-6.041 -2.398,-10.066 z"
   id="path11"
   inkscape:connector-curvature="0"
   style="fill:#028ed9" />
<path
   d="m -5.5672729,50.465277 -2.622,0.164 2.62,-0.17 c -0.035,-0.554 -0.053,-1.105 -0.053,-1.651 -0.007,-4.026 0.958,-7.623 2.398,-10.065 1.467,-2.478 3.19600009,-3.615 4.81,-3.705 0.084,-0.006 0.158,-0.01 0.256,-0.01 1.669,-0.022 3.685,1.136 5.454,3.739 1.744,2.565 3.0539999,6.375 3.3189999,10.682 0.034,0.555 0.053,1.109 0.053,1.651 0.006,4.026 -0.9589999,7.623 -2.3969999,10.067 -1.466,2.478 -3.195,3.618 -4.812,3.707 -0.083,0.004 -0.171,0.008 -0.254,0.008 -1.672,0.022 -3.68499991,-1.135 -5.453,-3.739 -1.744,-2.563 -3.054,-6.372 -3.319,-10.678 z"
   id="path13"
   inkscape:connector-curvature="0"
   style="fill:#028ed9" />
<path
   d="m -68.050263,101.16727 c 6.001,1.692 13.98,2.928 23.804,2.928 12.992,-0.089 25.174,-9.061993 34.3749901,-17.693993 6.486,-6.136 11.45,-12.227 13.825,-15.302 6.0509999,3.891 24.3180019,14.045 50.4620019,14.061 15.089,-0.011 28.576,-5.711 38.359,-12.387 4.895,-3.349 8.871001,-6.942 11.697001,-10.3 2.788,-3.414 4.61,-6.363 4.711,-9.557 -0.007,-1.474 -0.409,-2.854 -1.223,-4.006 -0.789,-1.129 -2.176,-2.124 -3.909,-2.125 -2.099,0.105 -3.167,1.136 -4.311001,2.043 -1.661,1.44 -3.334,3.268 -5.137,4.679 -1.806,1.431 -3.574,2.304 -5.235,2.29 -0.971,-0.004 -1.897,-0.451 -2.701,-1.401 -0.789,-0.941 -1.347,-2.358 -1.345,-3.98 0.017,-1.6 0.369,-2.441 0.938,-3.84 0.564,-1.354 1.347,-3.266 1.332,-5.838 -0.013,-2.094 -0.743,-3.685 -1.239,-4.96 -0.523,-1.297 -0.865,-2.282 -0.863,-3.382 -0.006,-1.102 0.407,-2.232 1.009,-2.965 0.62,-0.743 1.267,-1.073 2.038,-1.082 2.506,0.027 3.845,0.795 5.377,1.817 0.754,0.514 1.512,1.111 2.454,1.667 0.333,0.196 0.714,0.379 1.118,0.546 -0.163,0.648 -0.081,1.357 0.286,1.977 l 1.084,1.832 h -1.782 c -1.453,0 -2.629,1.176 -2.629,2.629 0,1.452 1.176,2.629 2.629,2.629 h 3.651001 c -0.368,0.439 -0.765003,0.836 -1.158001,1.177 -0.562,0.489 -1.103,0.865 -1.497,1.113 -0.394,0.248 -0.61,0.351 -0.61,0.355 -0.618,0.308 -0.868,1.06 -0.559,1.678 0.218,0.439 0.661,0.692 1.12,0.692 0.188,0 0.378,-0.042 0.558,-0.132 0.071,-0.073 3.371001,-1.627 5.193001,-4.924 0.822,-0.098 1.559,-0.556 1.977,-1.286 0.142,-0.249 0.225,-0.516 0.279,-0.788 0.429,2.845 1.439,5.422 2.916,7.504 1.971,2.792 4.937,4.761 8.381,4.763 3.443,-0.002 6.408,-1.971 8.38,-4.763 1.994,-2.81 3.143,-6.519 3.148,-10.576 -0.006,-4.057 -1.154,-7.766 -3.148,-10.576 -1.204,-1.705 -2.782,-3.097 -4.611,-3.928 l 5.215,-3.961 c 0.551,-0.418 0.657,-1.205 0.24,-1.754 -0.419,-0.55 -1.205,-0.657 -1.755,-0.239 l -5.466,4.153 v -7.277 c 3.438,-0.481 5.676,-1.918 7.998,-1.85 1.54,0.004 2.556,0.868 3.32,1.906 0.367,0.511 0.64,1.043 0.809,1.437 0.173,0.394 0.229,0.612 0.234,0.612 0.159,0.546 0.658,0.899 1.199,0.899 0.117,0 0.235,-0.016 0.353,-0.05 0.664,-0.194 1.045,-0.889 0.852,-1.552 l -0.002,-0.002 c -0.027,-0.079 -0.409,-1.401 -1.414,-2.805 -0.979,-1.3870003 -2.747,-2.9520005 -5.351,-2.9470005 -3.884,0.081 -6.242,2.0670005 -10.001,2.0110005 -0.001,0 -0.002,10e-4 -0.004,10e-4 -3.757,0.052 -6.117,-1.9310005 -9.999,-2.0110005 -2.603,-0.005 -4.369,1.5590002 -5.351,2.9450005 -1.006,1.405 -1.388,2.728 -1.413,2.808 -0.196,0.663 0.185,1.358 0.847,1.554 0.118,0.034 0.235,0.05 0.351,0.05 0.542,0 1.042,-0.354 1.202,-0.9 v -0.002 c 0,0 0.062,-0.216 0.234,-0.61 0.255,-0.593 0.741,-1.488 1.432,-2.17 0.704,-0.689 1.525,-1.165 2.697,-1.172 2.321,-0.068 4.562,1.368 8,1.85 v 7.279 l -5.468,-4.155 c -0.551,-0.418 -1.336,-0.311 -1.755,0.239 -0.417,0.551 -0.31,1.337 0.242,1.754 l 5.214,3.961 c -1.829,0.831 -3.408,2.223 -4.612,3.928 -1.993,2.81 -3.142,6.519 -3.149,10.576 10e-4,0.51 0.02,1.015 0.056,1.512 -0.042,-0.097 -0.069,-0.2 -0.125,-0.293 l -3.169,-5.355 c 0.478,-0.314 0.895,-0.707 1.209,-1.153 0.838,-1.153 1.157,-2.509 1.161,-3.914 -0.019,-1.607 -0.531,-2.963 -1.123,-4.338 -0.905,-2.042 -2.124,-4.119 -3.073,-6.09 -0.967003,-1.957 -1.585001,-3.801 -1.560001,-4.922 0.013,-1.694 0.48,-2.9290005 1.375001,-3.8070005 0.899,-0.874 2.464,-1.629 5.371,-1.64 2.544,-0.004 6.037,0.628 10.515,2.247 0.571,0.205 1.213,0.205 1.783,0 4.477,-1.619 7.968,-2.251 10.513,-2.247 2.904,0.011 4.472,0.766 5.371,1.64 0.895,0.878 1.364,2.1130005 1.374,3.8070005 0.058,1.508 -1.127,4.246 -2.576,6.923 -0.708,1.356 -1.452,2.723 -2.056,4.089 -0.591,1.375 -1.102,2.73 -1.121,4.338 0.004,1.405 0.321,2.76 1.161,3.914 0.813,1.157 2.313,1.965 3.801,1.935 0.467,0 0.898,-0.067 1.315,-0.159 -0.237,0.48 -0.515,0.987 -0.82,1.491 -0.933,1.586 -2.027,3.183 -2.659,4.525 -0.173,0.367 -0.152,0.8 0.05,1.151 0.104,0.068 2.823,5.206 7.116,6.613 0.119,0.036 0.24,0.053 0.359,0.053 0.538,0 1.037,-0.349 1.2,-0.891 0.198,-0.66 -0.175,-1.359 -0.838,-1.56 -1.347,-0.385 -2.853,-1.728 -3.924,-3.026 -0.281,-0.334 -0.533,-0.66 -0.756,-0.961 l 4.263,-0.312 c 0.019,0 0.036,10e-4 0.054,10e-4 0.67,0 1.225,-0.526 1.253,-1.197 0.03,-0.691 -0.506,-1.275 -1.197,-1.306 l -3.441,-0.705 c 0.226,-0.367 0.453,-0.74 0.676,-1.117 0.814,-1.419 1.602,-2.816 1.857,-4.264 2.236,-1.509 3.629,-2.865 6.922,-2.895 0.768,0.009 1.415,0.339 2.036,1.082 0.604,0.733 1.017,1.863 1.008,2.965 0.002,1.1 -0.341,2.085 -0.86,3.382 -0.498,1.275 -1.23,2.866 -1.243,4.96 -0.013,2.572 0.769,4.484 1.334,5.838 0.568,1.398 0.922,2.24 0.937,3.84 0.002,1.622 -0.555,3.039 -1.346,3.98 -0.804,0.95 -1.73,1.396 -2.699,1.401 -2.19,0.055 -4.673,-1.623 -7,-3.81 -1.16,-1.068 -2.256,-2.196 -3.371,-3.158 -1.146,-0.907 -2.213,-1.938 -4.313,-2.043 -1.732,0.002 -3.119,0.996 -3.907,2.125 -0.814,1.153 -1.219,2.532 -1.225,4.006 0.101,3.194 1.925,6.143 4.712,9.557 8.449,9.98 27.4,22.619 50.057,22.687 26.145,-0.016 44.41099,-10.168 50.46199,-14.06 2.375,3.075 7.338,9.166 13.824,15.301 9.204,8.632 21.386,17.604993 34.376,17.693993 11.23,0 20.043,-1.612 26.257,-3.68099 3.11,-1.039 5.567,-2.183003 7.41,-3.367003 0.922,-0.597 1.694,-1.2 2.338,-1.872 0.628,-0.679 1.19,-1.418 1.455,-2.526 0.192,-0.876 -0.075,-1.792 -0.708,-2.424 -3.488,-3.49 -4.996,-6.899 -5.258,-9.676 2.761,0.246 5.248,0.627 7.487,1.12 -0.443,0.949 -0.704,2.001 -0.702,3.113 -0.004,2.316 1.104,4.38 2.719,5.763 1.616,1.398 3.764,2.202 6.083,2.204 2.321,-0.002 4.466,-0.806 6.085,-2.204 0.531,-0.456 1,-0.991 1.4,-1.579 0.537,0.45 1.041,0.905 1.523,1.36 -4.484,2.934 -10.671,6.385 -18.876,10.928993 l -10e-4,0 v 0 l -0.033,0.018 c -8.725,4.922 -28.531,7.976 -35.648,7.91 -11.133,0.006 -21.571,-4.448 -30.254,-10.536993 -8.676,-6.068 -15.546,-13.762 -19.428,-19.794 -0.504,-0.78 -1.348,-1.205 -2.211,-1.205 -0.485,0 -0.978,0.135 -1.417,0.417 -0.002,0.002 -0.288,0.187 -0.898,0.548 -4.271,2.55 -23.33199,12.948 -45.01899,12.916 -17.183,0.01 -32.071,-7.23 -42.682,-14.566 -5.301,-3.662 -9.52,-7.332 -12.398,-10.075 -1.438,-1.371 -2.542,-2.511 -3.28,-3.298 -0.738,-0.789 -1.085,-1.199 -1.087,-1.199 -0.499,-0.588 -1.231,-0.927 -2.002,-0.927 h -4.849 c -0.772,0 -1.504,0.339 -2.003,0.927 0,0 -0.347,0.41 -1.085,1.199 -5.167,5.58 -28.318001,28.024 -58.361001,27.939 -12.392,0.004 -23.928,-3.359 -32.337,-6.75 -4.203002,-1.692 -7.624002,-3.387 -9.981002,-4.65 -1.1769996,-0.632 -2.0899999,-1.155 -2.7029999,-1.516 -0.611,-0.362 -0.895,-0.548 -0.896,-0.548 -1.223,-0.785 -2.843,-0.431 -3.63,0.787 -3.87899991,6.033 -10.75,13.726 -19.4240001,19.794 -8.68399,6.087993 -19.12299,10.542993 -30.25599,10.536993 -7.102,0.065 -26.837,-2.975 -35.591,-7.879 l -0.092,-0.051 0,0.001 c -8.205,-4.543993 -14.392,-7.994993 -18.876007,-10.927993 0.482995,-0.456 0.987007,-0.91 1.525007,-1.359 0.399,0.587 0.869,1.123 1.4,1.578 1.618,1.397 3.764,2.202 6.083,2.204 2.32,-0.002 4.468,-0.807 6.086,-2.204 1.612,-1.383 2.719,-3.447 2.717,-5.761 0.001,-1.113 -0.26,-2.166 -0.704,-3.115 2.24,-0.493 4.728,-0.874 7.489,-1.12 -0.262,2.777 -1.771,6.186 -5.258,9.676 -0.634,0.634 -0.901,1.548 -0.707,2.424 0.262,1.108 0.825,1.847 1.453,2.526 2.224,2.262 6.181,4.254003 12.203,5.992993 z"
   id="path15"
   inkscape:connector-curvature="0"
   style="fill:#ffffff" />
<path
   d="m 117.31874,25.171277 c 0.002,0 0.004,0 0.006,0 1.748,-0.002 3.482,0.987 4.914,2.977 1.41,1.973 2.363,4.869 2.357,8.108 0.006,3.24 -0.947,6.138 -2.357,8.108 -1.432,1.99 -3.166,2.979 -4.914,2.977 -1.749,0.002 -3.485,-0.987 -4.914,-2.977 -1.411,-1.971 -2.365,-4.869 -2.36,-8.108 -0.005,-3.239 0.949,-6.135 2.36,-8.108 1.428,-1.989 3.162,-2.977 4.908,-2.977 z"
   id="path17"
   inkscape:connector-curvature="0"
   style="fill:#d9001d" />
<polygon
   points="472.506,232.383 452.929,243.242 444.973,231.951 "
   id="polygon19"
   style="fill:#028ed9"
   transform="translate(-190.17626,-112.39073)" />
<path
   d="m 246.98873,115.43527 10.729,15.226 c -18.393,-5.688 -62.70899,-16.777 -131.00199,-17.724 l 19.116,-9.793 -18.781,-9.620993 c 41.761,0.874 81.183,7.186003 110.81199,13.506993 14.89,3.174 27.304,6.349 36.31,8.832 l -27.184,-0.427 z"
   id="path21"
   inkscape:connector-curvature="0"
   style="fill:#ffffff" />
<path
   d="m 116.05973,66.721277 h 2.529 c 3.041,3.303 14.157,14.723 30.63,22.498 -10.429,-0.672 -21.098,-1.057 -31.894,-1.059 -10.797,0.001 -21.467001,0.387 -31.896001,1.059 16.472001,-7.775 27.590001,-19.195 30.631001,-22.498 z"
   id="path23"
   inkscape:connector-curvature="0"
   style="fill:#d9001d" />
<path
   d="m 117.32573,112.87127 c -0.247,0 -0.488,0.002 -0.734,0.002 l -18.993001,-9.731 18.984001,-9.722993 c 0.248,0 0.495,-0.003 0.743,-0.003 0.247,0 0.494,0.003 0.741,0.003 l 18.981,9.723993 -18.992,9.73 c -0.245,0 -0.485,-0.002 -0.73,-0.002 z"
   id="path25"
   inkscape:connector-curvature="0"
   style="fill:#028ed9" />
<path
   d="m -12.341273,115.43327 -27.18099,0.426 c 26.93099,-7.423 84.371992,-21.028993 147.122993,-22.337993 l -18.783001,9.620993 19.119001,9.794 c -68.299001,0.947 -112.6180029,12.037 -131.006993,17.725 l 10.72899,-15.228 z"
   id="path27"
   inkscape:connector-curvature="0"
   style="fill:#ffffff" />
<polygon
   points="162.073,243.241 142.5,232.384 170.028,231.953 "
   id="polygon29"
   style="fill:#028ed9"
   transform="translate(-190.17626,-112.39073)" />
<path
   d="m -14.132273,104.05827 c 0.548,-0.363 1.092,-0.731 1.627,-1.106 8.3460001,-5.855993 15.0210001,-12.956993 19.4090001,-19.155993 4.3749999,2.482 14.8840019,7.89 28.3190019,10.886 -18.577002,2.806 -35.35000181,6.171003 -49.355002,9.375993 z"
   id="path31"
   inkscape:connector-curvature="0"
   style="fill:#d9001d" />
<path
   d="m 199.42674,94.683277 c 13.436,-2.997 23.94499,-8.405 28.31699,-10.887 4.386,6.199 11.063,13.301 19.41,19.156993 0.535,0.375 1.078,0.743 1.627,1.107 -14.005,-3.20699 -30.776,-6.571993 -49.35399,-9.376993 z"
   id="path33"
   inkscape:connector-curvature="0"
   style="fill:#d9001d" />
<path
   d="m -91.327263,82.070277 c 1.089,-0.002 2.031,0.389 2.646,0.924 0.622,0.549 0.897,1.153 0.899,1.789 -0.002,0.634 -0.277,1.237 -0.899,1.787 -0.616,0.535 -1.557,0.925 -2.646,0.923 -1.089,0.002 -2.03,-0.388 -2.646,-0.923 -0.622,-0.55 -0.896,-1.153 -0.899,-1.787 0.004,-0.636 0.278,-1.24 0.899,-1.789 0.615,-0.535 1.557,-0.926 2.646,-0.924 z"
   id="path35"
   inkscape:connector-curvature="0"
   style="fill:#d9001d" />
<path
   d="m -77.897263,74.269277 c 1.05,0.996 1.763,2.253 2.058,3.777 -3.327,0.29 -6.289,0.775 -8.939,1.414 -0.15,-0.151 -0.303,-0.301 -0.464,-0.439 -1.012,-0.874 -2.231,-1.516 -3.569,-1.875 0.24,-1.179 0.517,-2.723 0.773,-4.571 1.383,-0.347 2.666,-0.51 3.823,-0.508 2.824,0.006 4.914,0.888 6.318,2.202 z"
   id="path37"
   inkscape:connector-curvature="0"
   style="fill:#ffffff" />
<path
   d="m -111.05727,74.772277 c 0.009,-4.948 4.14,-9.045 9.386,-9.051 2.602007,-0.023 5.326007,1.386 7.372007,2.963 1.02,0.778 1.859,1.57 2.43,2.155 0.286,0.294 0.506,0.535 0.647,0.696 0.142,0.161 0.187,0.218 0.188,0.218 0.151,0.187 0.326,0.346 0.515,0.481 -0.252,1.827 -0.527,3.346 -0.76,4.485 -0.007,0.034 -0.013,0.063 -0.02,0.098 -0.01,0 -0.019,-0.001 -0.029,-0.001 -0.894,0.001 -1.761,0.123 -2.583,0.35 -0.972,-3.846 -3.307,-6.469 -3.356,-6.554 -0.454,-0.52 -1.244,-0.574 -1.765,-0.12 -0.522012,0.452 -0.577012,1.244 -0.122,1.764 0,0 0.173,0.197 0.472,0.609 0.699,0.957 1.922,2.959 2.438,5.311 -0.003,0.002 -0.006,0.004 -0.01,0.006 -1.619,-1.413 -4.388007,-3.489 -8.611007,-5.613 -0.617,-0.312 -1.371,-0.062 -1.681,0.557 -0.311,0.617 -0.062,1.369 0.558,1.68 3.523,1.771 5.951,3.491 7.486007,4.751 0.108,0.088 0.201,0.169 0.3,0.253 -0.149,0.169 -0.293,0.343 -0.428,0.526 -1.393007,-0.326 -3.359007,-0.634 -5.836007,-0.634 -1.202,0 -2.524,0.072 -3.956,0.251 -0.685,0.086 -1.172,0.711 -1.085,1.399 0.086,0.685 0.711,1.171 1.399,1.085 1.323,-0.167 2.541,-0.233 3.642,-0.233 1.93,0 3.485,0.205 4.665995,0.442 -0.207995,0.678 -0.332995,1.392 -0.331995,2.136 0,0.635 0.089,1.248 0.242995,1.837 -0.931995,0.75 -1.787995,1.509 -2.567995,2.265 -1.15,-0.814 -2.165,-1.595 -3.038,-2.353 -4.306,-3.841 -5.462,-6.475 -5.562,-11.759 z"
   id="path39"
   inkscape:connector-curvature="0"
   style="fill:#ffffff" />
<path
   d="m 119.07574,54.520277 c 0.077,0.099 13.872,21.438 39.52,31.728 0.152,0.061 0.311,0.09 0.465,0.09 0.496,0 0.966,-0.296 1.162,-0.785 0.256,-0.643 -0.056,-1.371 -0.697,-1.627 -12.409,-4.968 -22.016,-12.673 -28.513,-19.138 -3.247,-3.234 -5.716,-6.153 -7.365,-8.257 -1.654,-2.106 -2.466,-3.368 -2.471,-3.37 -0.376,-0.581 -1.151,-0.746 -1.73,-0.368 -0.581,0.374 -0.746,1.149 -0.37,1.73 v -0.003 z"
   id="path41"
   inkscape:connector-curvature="0" />
<path
   d="m 182.36974,90.430277 c 23.375,-0.023 42.67499,-12.171 47.46799,-15.442 12.913,21.517 35.091,30.240993 35.202,30.299993 0.15,0.06 0.307,0.088 0.459,0.088 0.497,0 0.969,-0.3 1.164,-0.792 0.256,-0.644 -0.061,-1.37 -0.704,-1.624 -0.004,-0.002 -1.354,-0.536 -3.642,-1.7 -6.869,-3.492993 -21.811,-12.566993 -31,-28.698993 -0.178,-0.31 -0.481,-0.532 -0.831,-0.605 -0.352,-0.071 -0.718,0.008 -1.006,0.224 -0.002,0.002 -1.283,0.959 -3.667,2.438 -7.151,4.44 -23.98499,13.319 -43.44299,13.308 -0.693,0 -1.252,0.56 -1.252,1.25 0,0.693 0.559,1.254 1.252,1.254 z"
   id="path43"
   inkscape:connector-curvature="0" />
<path
   d="m 282.54473,107.79227 c 0.016,0 0.03,0 0.046,0 19.718,-0.768 35.529,-9.029993 35.62,-9.069993 0.612,-0.32 0.851,-1.075 0.53,-1.688 -0.318,-0.613 -1.074,-0.852 -1.687,-0.531 -0.004,0 -0.936,0.487 -2.68,1.254 -5.234,2.301003 -17.576,6.986993 -31.881,7.530993 -0.691,0.027 -1.23,0.609 -1.203,1.3 0.027,0.675 0.584,1.204 1.255,1.204 z"
   id="path45"
   inkscape:connector-curvature="0" />
<path
   d="m 233.26173,60.978277 c -2.645,-6.373 5.457,-7.864 3.524,-13.219 -1.559,0.531 -1.221,1.491 -2.983,1.491 0,-3.796 1.695,-3.864 1.085,-6.169 -1.048,0.186 -2.067,1.573 -3.186,2.102 0,-2.698 0.745,-4.881 0.745,-4.881 -5.695,0.881 -9.152,17.151 0.815,20.676 z"
   id="path47"
   inkscape:connector-curvature="0" />
<path
   d="m 75.589729,86.338277 c 0.154,0 0.312,-0.029 0.464,-0.09 25.646001,-10.29 39.442001,-31.63 39.520001,-31.727 0.374,-0.58 0.21,-1.355 -0.371,-1.731 -0.58,-0.376 -1.355,-0.21 -1.731,0.37 -0.002,0.002 -0.816,1.263 -2.47,3.368 -4.954,6.323 -17.266001,19.95 -35.878001,27.396 -0.642,0.257 -0.955,0.985 -0.697,1.627 0.197,0.489 0.666,0.787 1.163,0.787 z"
   id="path49"
   inkscape:connector-curvature="0" />
<path
   d="m -30.851263,105.37627 c 0.153,0 0.309,-0.028 0.46,-0.088 0.109,-0.06 22.2869901,-8.780993 35.2009901,-30.299993 4.791,3.269 24.0910019,15.419 47.4680019,15.442 0.692,0 1.251,-0.561 1.251,-1.251 0,-0.691 -0.559,-1.25 -1.251,-1.25 -12.972,0.002 -24.777,-3.933 -33.326,-7.883 -4.275002,-1.973 -7.734002,-3.949 -10.1180019,-5.426 -2.385,-1.478 -3.663,-2.439 -3.669,-2.439 -0.285,-0.214 -0.653,-0.295 -1.004,-0.222 -0.351,0.074 -0.655,0.293 -0.832,0.606 -6.131,10.752 -14.8030001,18.372 -21.9519901,23.29 -3.573,2.459 -6.76,4.243003 -9.048,5.407993 -2.288,1.166 -3.641,1.694 -3.643,1.7 -0.643,0.253 -0.958,0.981 -0.704,1.625 0.198,0.488 0.668,0.788 1.167,0.788 z"
   id="path51"
   inkscape:connector-curvature="0" />
<path
   d="m -84.093263,97.034277 c -0.321,0.611 -0.083,1.367 0.53,1.688 v -0.002 c 0.091,0.04 15.904,8.303993 35.621,9.068993 0.018,0 0.034,0.001 0.052,0.001 0.667,0 1.221,-0.528 1.246,-1.203 0.026,-0.689 -0.512,-1.272 -1.201,-1.298 -9.535,-0.365 -18.201,-2.564 -24.467,-4.67699 -3.133,-1.057 -5.667,-2.089003 -7.414,-2.855003 -1.746,-0.766 -2.676,-1.254 -2.68,-1.254 -0.612,-0.322 -1.368,-0.081 -1.687,0.531 z"
   id="path53"
   inkscape:connector-curvature="0" />
<path
   d="m 1.3887272,60.978277 c 9.9659998,-3.525 6.5089999,-19.795 0.8139999,-20.677 0,0 0.745,2.183 0.745,4.881 -1.118,-0.529 -2.13799987,-1.916 -3.18599991,-2.102 -0.61000004,2.305 1.08500004,2.373 1.08500004,6.169 -1.76200008,0 -1.42400008,-0.96 -2.98200013,-1.491 -1.933,5.356 6.169,6.848 3.5240001,13.22 z"
   id="path55"
   inkscape:connector-curvature="0" />
<path
   d="m 110.15274,35.143277 c 0,2.013 6.629,-0.118 6.629,1.184 0,7.221 -4.025,8.168 0.543,8.168 2.317,0 4.192,-4.077 4.192,-9.116 0,-5.209 -2.064,-7.695 -4.617,-7.695 -2.485,0 -1.302,1.748 -1.302,3.906 0,2.015 -5.445,0.121 -5.445,3.553 z"
   id="path57"
   inkscape:connector-curvature="0" />
<path
   d="m 93.865729,49.963277 c -1.532,-0.679 -1.844,-1.455 -1.922,-3.368 -0.03,-2.938 1.558,-7.579 1.935,-12.685 h 0.827 c 0.691,0 1.25,-0.563 1.25,-1.251 0,-0.691 -0.559,-1.251 -1.25,-1.251 v -0.002 h -2.013 c -0.675,0 -1.231,0.54 -1.25,1.217 -0.133,5.103 -1.967,10.028 -2.001,13.973 -0.079,2.324 0.919,4.734 3.499,5.692 0.153,0.061 0.309,0.089 0.463,0.089 0.498,0 0.967,-0.299 1.162,-0.789 0.256,-0.643 -0.058,-1.369 -0.7,-1.625 z"
   id="path59"
   inkscape:connector-curvature="0" />
<path
   d="m 202.59374,101.57527 -17.43,-2.13599 c -0.297,-0.037 -0.595,-0.054 -0.884,-0.054 -3.818,0.01 -7.009,2.96599 -7.485,6.85199 -0.044,0.331 -0.061,0.668 -0.061,0.986 -0.008,3.791 2.699,7.148 6.543,7.63 l 17.43,2.136 c 0.294,0.035 0.587,0.052 0.882,0.052 3.819,-0.011 7.011,-2.964 7.487,-6.851 0.036,-0.32 0.059,-0.659 0.059,-0.988 0.007,-3.79 -2.698,-7.146 -6.541,-7.627 z"
   id="path61"
   inkscape:connector-curvature="0" />
<path
   d="m 205.19674,109.73027 c -0.254,2.021 -1.892,3.419 -3.608,3.409 -0.135,0 -0.272,-0.008 -0.411,-0.025 l -17.426,-2.136 c -1.737,-0.201 -3.105,-1.791 -3.111,-3.753 0,-0.175 0.009,-0.339 0.029,-0.493 0.252,-2.04 1.878,-3.44 3.588,-3.44 0.007,0 0.015,0 0.022,0 0.139,0 0.27,0.006 0.4,0.023 l 17.439,2.138 c 1.736,0.2 3.102,1.787 3.108,3.751 0.001,0.163 -0.007,0.339 -0.03,0.526 z"
   id="path63"
   inkscape:connector-curvature="0"
   style="fill:#d9001d" />
<path
   d="m 57.852729,106.24527 c -0.476,-3.895 -3.667,-6.84799 -7.486,-6.85999 -0.289,0 -0.587,0.016 -0.896,0.057 l -17.416,2.13399 c -3.845,0.479 -6.55,3.836 -6.543,7.628 0,0.32 0.02,0.649 0.062,0.988 h -0.001 c 0.476,3.886 3.667,6.84 7.485,6.851 0.294,0 0.586,-0.017 0.877,-0.051 l 17.438,-2.136 c 3.842,-0.484 6.547,-3.841 6.539,-7.63 0,-0.329 -0.021,-0.657 -0.059,-0.981 z"
   id="path65"
   inkscape:connector-curvature="0" />
<path
   d="m 50.895729,110.97827 -17.428,2.136 c -0.139,0.017 -0.277,0.024 -0.41,0.024 -1.719,0.01 -3.358,-1.392 -3.608,-3.42 -0.021,-0.165 -0.032,-0.34 -0.032,-0.514 0.008,-1.964 1.374,-3.551 3.112,-3.753 l 17.43,-2.136 c 0.134,-0.016 0.267,-0.024 0.408,-0.024 1.72,-0.012 3.359,1.393 3.61,3.422 0.021,0.169 0.03,0.343 0.03,0.513 -0.008,1.961 -1.374,3.552 -3.112,3.752 z"
   id="path67"
   inkscape:connector-curvature="0"
   style="fill:#d9001d" />
<path
   d="m 267.57672,138.38027 -67.02699,143.507 h -4.164 l -3.589,-20.291 4.423,-9.175 v -16.64 h -3.604 c -1.012,-4.17 -2.827,-7.381 -6.765,-8.433 -3.575,-0.955 -7.47,0.647 -10.815,-0.721 -2.79,-1.14 -4.678,-5.513 -7.376,-6.968 -4.909,-2.648 -11.763,-3.394 -14.011,-8.168 -0.466,-0.988 -1.066,-3.182 -0.737,-4.565 0.426,-1.792 5.02,-4.402 7.374,-5.526 6.514,-3.11 18.913,-0.961 28.023,-1.682 3.081,-0.244 6.445,-1.222 6.882,-4.325 -2.854,-0.878 -5.681,-0.336 -9.095,-1.202 -1.782,-0.452 -6.632,-2.661 -6.637,-4.084 -0.017,-4.435 10.028,-0.59 11.554,-0.24 5.844,1.341 15.249,2.198 20.402,-0.481 2.448,-1.272 4.226,-3.185 4.91599,-5.526 -2.57099,0.369 -4.80399,0.921 -7.86599,0.48 -2.828,-0.407 -9.158,-2.381 -8.85,-4.324 0.411,-2.579 6.044,-2.17 9.342,-1.923 3.784,0.285 7.71799,1.915 11.06199,2.163 9.353,0.694 13.96,-2.887 17.206,-7.208 -4.767,0.622 -8.729,-0.515 -11.553,-1.201 -1.25,-0.303 -2.877,-0.126 -4.179,-0.48 -1.259,-0.343 -2.856,-1.086 -2.704,-2.163 11.845,-0.227 21.547,2.092 26.794,-4.565 1.939,-2.46 4.002,-5.547 3.688,-9.851 -2.891,0.779 -4.555,2.756 -6.146,4.805 -2.614,-0.12 -6.137,1.342 -9.342,1.441 -7.72,0.239 -15.791,-3.115 -23.84399,-0.721 -3.545,1.055 -6.759,4.866 -10.078,6.487 -3.063,1.496 -6.8,2.688 -10.324,4.325 -3.601,1.673 -7.638,3.274 -11.308,3.604 -5.422,0.487 -15.966,-0.385 -14.503,-6.487 0.769,-3.201 6.438,-2.263 9.341,-4.084 2.386,-1.497 1.586,-3.148 3.195,-5.526 4.348,2.829 9.541,-1.497 14.258,-1.201 3.313,0.207 4.84,3.223 8.112,2.643 -0.837,-5.334 -4.423,-8.104 -9.588,-8.409 -3.138,-0.185 -6.926,1.338 -10.323,0.48 -2.104,-0.531 -3.106,-3.817 -5.9,-4.565 -3.298,-0.882 -8.1,0.683 -12.044,0.241 -3.606,-0.405 -5.247,-2.885 -8.358,-2.644 -1.972,1.207 0.252,3.75 -0.983,5.526 -3.713,1.93 -6.766,-2.906 -10.078,-1.922 -0.441,2.46 0.152,4.033 1.229,6.006 0.887,1.624 3.218,2.512 2.704,4.325 -0.401,1.424 -6.75,3.757 -9.34,3.844 -4.199,0.142 -5.294,-3.639 -8.357,-3.364 -0.907,2.159 0.366,4.153 1.474,5.767 1.165,1.694 1.896,3.519 2.951,5.045 0.942,1.365 3.288,1.968 2.949,3.844 -3.549,2.371 -7.077,0.998 -11.063,2.402 -3.686,1.299 -3.674,5.526 -7.58,5.526 -3.905,0 -3.894,-4.227 -7.579,-5.526 -3.985,-1.404 -7.514,-0.032 -11.062001,-2.402 -0.339,-1.876 2.007001,-2.479 2.950001,-3.844 1.055,-1.527 1.786,-3.351 2.95,-5.045 1.108,-1.614 2.381,-3.608 1.475,-5.767 -3.064,-0.275 -4.159,3.506 -8.358001,3.364 -2.59,-0.087 -8.938,-2.42 -9.341,-3.844 -0.513,-1.813 1.817,-2.701 2.704,-4.325 1.077,-1.973 1.67,-3.546 1.229,-6.006 -3.312,-0.984 -6.365,3.852 -10.079,1.922 -1.234,-1.776 0.989,-4.319 -0.983,-5.526 -3.111,-0.242 -4.75,2.238 -8.357,2.644 -3.945,0.442 -8.746,-1.123 -12.045,-0.241 -2.794,0.748 -3.796,4.034 -5.9,4.565 -3.397,0.857 -7.186,-0.665 -10.324,-0.48 -5.165,0.305 -8.75,3.075 -9.587,8.409 3.271,0.58 4.799,-2.436 8.112,-2.643 4.717,-0.295 9.91,4.03 14.257,1.201 1.609,2.378 0.81,4.029 3.195,5.526 2.902,1.822 8.573,0.883 9.341,4.084 1.463,6.103 -9.081,6.975 -14.502,6.487 -3.67,-0.33 -7.707,-1.931 -11.308,-3.604 -3.524,-1.637 -7.261,-2.829 -10.324,-4.325 -3.319,-1.622 -6.533,-5.433 -10.078,-6.487 -8.053002,-2.395 -16.1240019,0.96 -23.84500181,0.721 -3.20400009,-0.099 -6.72700009,-1.562 -9.34100009,-1.441 -1.5900001,-2.049 -3.2550001,-4.026 -6.1450001,-4.805 -0.315,4.304 1.748,7.39 3.688,9.851 5.2470001,6.657 14.9490001,4.338 26.794,4.565 0.152,1.076 -1.446,1.82 -2.704,2.163 -1.302,0.354 -2.9289999,0.177 -4.1789999,0.48 -2.825,0.686 -6.7859999,1.823 -11.553,1.201 3.24700009,4.321 7.854,7.902 17.2069999,7.208 3.343,-0.248 7.277002,-1.877 11.062002,-2.163 3.297,-0.248 8.931,-0.656 9.341,1.923 0.309,1.943 -6.021,3.917 -8.849,4.324 -3.063,0.44 -5.295,-0.111 -7.867002,-0.48 0.690002,2.341 2.468002,4.253 4.916002,5.526 5.154,2.679 14.559,1.822 20.403,0.481 1.525,-0.35 11.57,-4.195 11.553,0.24 -0.005,1.424 -4.854,3.633 -6.637,4.084 -3.414,0.865 -6.241,0.323 -9.095,1.202 0.438,3.103 3.801,4.081 6.882,4.325 9.109,0.72 21.509,-1.429 28.023,1.682 2.354,1.125 6.948,3.734 7.374,5.526 0.329,1.383 -0.272,3.577 -0.737,4.565 -2.249,4.775 -9.103,5.52 -14.012,8.168 -2.698,1.455 -4.585,5.828 -7.375,6.968 -3.347,1.368 -7.241,-0.234 -10.815,0.721 -3.938,1.052 -5.753,4.263 -6.765,8.433 h -3.606 v 16.639 l 4.423,9.175 -3.59,20.292 h -4.163 l -67.026992,-143.507 H 267.57672 z"
   id="path69"
   inkscape:connector-curvature="0"
   style="fill:#ffffff" />
<path
   d="m 73.937729,367.18327 -28.402,-60.809 c 2.306,-1.422 5.46,-2.359 8.969,-2.354 3.797,-0.005 7.201,1.081 9.537,2.709 2.357,1.65 3.563,3.69 3.561,5.768 v 24.729 h 15.684 v -24.729 c -0.004,-2.077 1.202,-4.117 3.559,-5.768 2.336,-1.628 5.739,-2.714 9.538,-2.709 3.800001,-0.005 7.200001,1.081 9.539001,2.709 2.355,1.65 3.563,3.69 3.559,5.768 v 24.729 h 15.685 v -24.729 c -0.002,-2.077 1.203,-4.117 3.559,-5.768 2.336,-1.628 5.738,-2.714 9.537,-2.709 3.798,-0.005 7.202,1.081 9.539,2.709 2.357,1.65 3.563,3.69 3.559,5.768 v 24.729 h 15.685 v -24.729 c -0.002,-2.077 1.203,-4.117 3.559,-5.768 2.338,-1.628 5.741,-2.714 9.54,-2.709 3.51,-0.007 6.663,0.934 8.97,2.354 l -28.4,60.808 H 73.937729 z"
   id="path71"
   inkscape:connector-curvature="0"
   style="fill:#028ed9" />
<polygon
   points="332.92,518.041 307.5,572.466 282.08,518.041 "
   id="polygon73"
   style="fill:#028ed9"
   transform="translate(-190.17626,-112.39073)" />
<path
   d="m 190.81873,302.71927 c -2.961,-1.72 -6.664,-2.695 -10.678,-2.703 -4.55,0.005 -8.695,1.264 -11.822,3.426 -3.106,2.142 -5.279,5.342 -5.281,9.056 v 20.722 h -7.673 v -20.722 c -0.004,-3.714 -2.175,-6.914 -5.282,-9.056 -3.126,-2.162 -7.272,-3.421 -11.822,-3.426 -4.548,0.005 -8.695,1.264 -11.82,3.426 -3.108,2.142 -5.278,5.342 -5.28,9.056 v 20.722 h -7.675 v -20.722 c -0.002,-3.714 -2.172,-6.914 -5.28,-9.056 -3.125,-2.162 -7.273,-3.421 -11.821001,-3.426 -4.548,0.005 -8.696,1.264 -11.82,3.426 -3.108,2.142 -5.279,5.342 -5.281,9.056 v 20.722 h -7.675 v -20.722 c -0.004,-3.714 -2.175,-6.914 -5.281,-9.056 -3.127,-2.162 -7.274,-3.421 -11.821,-3.426 -4.015,0.007 -7.708,0.996 -10.67,2.716 l -7.866,-16.84 H 198.67973 l -7.861,16.827 z"
   id="path75"
   inkscape:connector-curvature="0"
   style="fill:#ffffff" />
<path
   d="m 72.380729,227.10827 c 2.008,-1.382 3.696,-0.765 5.654,-1.441 3.131,-1.083 4.29,-3.952 6.883,-5.766 0.725,-0.508 1.859,-0.655 2.704,-1.202 1.486,-0.962 2.081,-2.805 3.932,-2.883 2.661,-0.112 3.199,3.13 4.916,4.324 2.375,1.652 4.679001,0.612 5.900001,2.884 -0.306,2.985 -0.76,6.335 -1.475,9.61 -0.466,2.135 -1.902001,5.724 -3.934001,6.487 -3.213,1.208 -6.989,-1.246 -9.832,0.961 0.116,1.726 1.82,3.343 3.196,4.564 2.858,2.538 5.294,3.899 10.324001,4.565 -0.847003,3.602 -4.104001,5.68 -8.112001,5.045 -1.583,-0.25 -2.497,-1.778 -3.688,-1.681 -1.113,0.09 -2.217,1.559 -2.212,2.402 0.013,2.028 5.213,4.721 7.375,5.045 3.819,0.573 5.584,-1.682 9.095001,-1.441 -0.472,2.772 -1.071,7.075 -4.424001,7.929 -1.697,0.432 -4.128,-0.723 -5.408,0.961 1.718,7.966 10.087001,-0.174 14.011001,0.961 -0.203,3.159 -3.897,6.651 -6.637,8.89 -1.655001,-0.016 -3.505001,-0.224 -3.933001,0.961 1.219,2.878 6.655001,1.604 8.603001,0.961 5.518,-1.824 8.016,-7.26 12.004,-10.091 3.989,2.831 6.487,8.267 12.005,10.091 1.949,0.643 7.385,1.917 8.604,-0.961 -0.428,-1.185 -2.278,-0.977 -3.933,-0.961 -2.739,-2.239 -6.435,-5.731 -6.637,-8.89 3.925,-1.135 12.293,7.005 14.011,-0.961 -1.279,-1.684 -3.711,-0.529 -5.407,-0.961 -3.354,-0.854 -3.953,-5.156 -4.425,-7.929 3.511,-0.24 5.276,2.015 9.095,1.441 2.162,-0.324 7.361,-3.017 7.374,-5.045 0.006,-0.844 -1.098,-2.312 -2.211,-2.402 -1.19,-0.097 -2.104,1.431 -3.688,1.681 -4.009,0.635 -7.265,-1.444 -8.112,-5.045 5.029,-0.666 7.466,-2.027 10.324,-4.565 1.376,-1.221 3.08,-2.838 3.195,-4.564 -2.843,-2.208 -6.619,0.246 -9.832,-0.961 -2.031,-0.763 -3.467,-4.352 -3.934,-6.487 -0.714,-3.275 -1.169,-6.625 -1.475,-9.61 1.222,-2.272 3.526,-1.232 5.899,-2.884 1.718,-1.194 2.256,-4.436 4.917,-4.324 1.852,0.078 2.446,1.921 3.932,2.883 0.845,0.546 1.979,0.693 2.704,1.202 2.594,1.814 3.752,4.683 6.884,5.766 1.957,0.677 3.646,0.06 5.653,1.441 1.599,3.458 -2.183,5.561 -2.652,8.673 h -6.277 v 16.64 l 4.423,9.175 -3.591,20.291 H 80.474729 l -3.59,-20.29 4.423,-9.175 v -16.641 h -6.277 c -0.467,-3.111 -4.249,-5.214 -2.65,-8.673 z"
   id="path77"
   inkscape:connector-curvature="0"
   style="fill:#ffffff" />
<path
   d="m 175.27874,266.48227 c -2.444,0 -4.422,1.417 -4.422,3.17 h 0.001 v 12.235 h -12.622 l 3.692,-20.865 -4.585,-9.512 v -11.725 h 5.004 v 10.178 h 10.679 v -10.178 h 4.505 v 10.178 h 10.679 v -10.178 h 5.004 v 11.725 l -4.587,9.512 3.691,20.865 h -12.617 v -12.235 c 0,-1.753 -1.978,-3.17 -4.422,-3.17 z"
   id="path79"
   inkscape:connector-curvature="0"
   style="fill:#ffffff" />
<path
   d="m 41.432729,239.78527 h 5.005 v 10.179 h 10.679 v -10.179 h 4.505 v 10.179 h 10.679 v -10.179 h 5.003 v 11.723 l -4.586,9.515 3.691,20.865 h -12.619 v -12.235 h 0 c 0,-1.752 -1.978,-3.17 -4.422,-3.17 -2.444,0 -4.422,1.417 -4.422,3.17 v 12.235 h -12.62 l 3.691,-20.867 -4.586,-9.513 v -11.723 z"
   id="path81"
   inkscape:connector-curvature="0"
   style="fill:#ffffff" />
<polygon
   points="307.5,611.027 297.755,601.855 297.755,613.629 287.118,613.629 287.118,573.265 307.5,594.967 307.5,584.886 276.279,518.041 246.487,518.041 246.487,479.574 258.313,479.574 151.446,250.771 113.107,250.771 307.5,666.971 "
   id="polygon83"
   style="fill:#d9001d"
   transform="translate(-190.17626,-112.39073)" />
<rect
   x="51.027725"
   y="254.63527"
   width="4.3369999"
   height="4.3379998"
   id="rect85" />
<rect
   x="63.373734"
   y="254.63527"
   width="4.3379998"
   height="4.3379998"
   id="rect87" />
<rect
   x="179.28275"
   y="254.63527"
   width="4.3379998"
   height="4.3379998"
   id="rect89" />
<rect
   x="166.93674"
   y="254.63527"
   width="4.3369999"
   height="4.3379998"
   id="rect91" />
<polygon
   points="251.743,512.785 363.258,512.785 363.258,484.83 363.258,484.83 251.743,484.83 "
   id="polygon93"
   style="fill:#d9001d"
   transform="translate(-190.17626,-112.39073)" />
<path
   d="m 68.622729,376.01727 h 5.867 l 1.912,14.352 h 0.038 l 1.968,-14.352 h 5.81 v 20.799 h -3.558 v -15.696 h -0.038 l -2.385,15.696 h -3.634 l -2.384,-15.696 h -0.038 v 15.696 h -3.558 v -20.799 z"
   id="path95"
   inkscape:connector-curvature="0"
   style="fill:#ffffff" />
<path
   d="m 96.268729,384.42627 c -0.852,-2.13 -1.968,-3.307 -3.653,-3.307 -1.987,0 -3.066,2.298 -3.066,5.689 0,3.055 0.813,5.578 3.104,5.578 1.571,0 2.801,-1.373 3.615,-3.279 v 5.41 c -0.833,1.373 -2.479,2.803 -4.523,2.803 -4.012,0 -5.754,-4.878 -5.754,-10.903 0,-8.382 2.763,-10.905 5.962,-10.905 1.685,0 3.445,0.842 4.315,2.636 v 6.278 z"
   id="path97"
   inkscape:connector-curvature="0"
   style="fill:#ffffff" />
<path
   d="m 98.043729,376.01727 h 5.867001 l 1.912,14.352 h 0.038 l 1.969,-14.352 h 5.81 v 20.799 h -3.558 v -15.696 h -0.038 l -2.385,15.696 h -3.634 l -2.384,-15.696 h -0.038 v 15.696 h -3.558001 v -20.799 z"
   id="path99"
   inkscape:connector-curvature="0"
   style="fill:#ffffff" />
<path
   d="m 119.06474,386.36027 -4.087,-10.343 h 4.315 l 2.309,7.429 2.31,-7.429 h 4.314 l -4.088,10.343 4.088,10.456 h -4.353 l -2.271,-7.036 -2.271,7.036 h -4.353 l 4.087,-10.456 z"
   id="path101"
   inkscape:connector-curvature="0"
   style="fill:#ffffff" />
<path
   d="m 132.72474,386.36027 -4.088,-10.343 h 4.314 l 2.31,7.429 2.31,-7.429 h 4.314 l -4.088,10.343 4.088,10.456 h -4.353 l -2.271,-7.036 -2.271,7.036 h -4.354 l 4.089,-10.456 z"
   id="path103"
   inkscape:connector-curvature="0"
   style="fill:#ffffff" />
<path
   d="m 150.56774,396.81627 h -4.391 l -3.842,-20.799 h 3.86 l 2.158,14.548 h 0.038 l 2.309,-14.548 h 3.767 l -3.899,20.799 z"
   id="path105"
   inkscape:connector-curvature="0"
   style="fill:#ffffff" />
<path
   d="m 155.95874,376.01727 h 3.785 v 20.799 h -3.785 v -20.799 z"
   id="path107"
   inkscape:connector-curvature="0"
   style="fill:#ffffff" />
<path
   d="m 162.23974,376.01727 h 3.785 v 20.799 h -3.785 v -20.799 z"
   id="path109"
   inkscape:connector-curvature="0"
   style="fill:#ffffff" />
<polygon
   points="319.998,610.876 325.129,610.876 325.129,580.218 307.5,598.988 289.872,580.218 289.872,610.876 295.002,610.876 295.002,595.484 307.5,607.247 319.998,595.484 "
   id="polygon111"
   style="fill:#ffffff"
   transform="translate(-190.17626,-112.39073)" />
<path
   d="m 265.84473,174.25527 h -6.507 v 34.663 h 6.507 c 8.715,0 14.798,-4.787 14.798,-18.239 0,-11.418 -6.083,-16.424 -14.798,-16.424 z m 1.752,27.656 h -2.878 v -19.772 h 2.878 c 4.22,0 7.634,4.226 7.634,9.448 0,5.222 -3.414,10.324 -7.634,10.324 z"
   id="path113"
   inkscape:connector-curvature="0"
   style="fill:#ffffff" />
<path
   d="m -19.134263,196.60927 -3.4,-3.562 -2.079,-2.177 -2.007,2.291 c -0.087,0.099 -2.175,2.433 -6,2.433 -3.744,0 -6.069,-3.163 -6.069,-8.254 0,-4.188 2.657,-7.346 6.18,-7.346 1.188,0 2.611,0.588 3.06,0.814 l 2.494,1.259 1.233,-2.507 1.891,-3.885 0.95,-1.951 -1.675,-1.379 c -0.391,-0.321 -3.999,-3.142 -10.308,-3.142 -8.727,0 -15.563,8.5 -15.563,19.351 0,10.332 8.406,18.737 18.739,18.737 7.988,0 12.667,-6.973 12.862,-7.27 l 1.204,-1.83 -1.512,-1.582 z"
   id="path115"
   inkscape:connector-curvature="0" />
<path
   d="m -28.196263,178.35627 c 0,0 -2.163,-1.115 -4.312,-1.115 -5.086,0 -8.933,4.462 -8.933,10.099 0,7.203 3.946,11.007 8.822,11.007 5.261,0 8.094,-3.399 8.094,-3.399 l 3.399,3.562 c 0,0 -3.966,6.029 -10.562,6.029 -8.836,0 -15.986,-7.149 -15.986,-15.984 0,-9.127 5.562,-16.598 12.81,-16.598 5.504,0 8.559,2.515 8.559,2.515 l -1.891,3.884 z"
   id="path117"
   inkscape:connector-curvature="0"
   style="fill:#ffffff" />
</svg>