<?xml version="1.0" encoding="UTF-8" standalone="no"?>
<!-- Creator: CorelDRAW X5 -->

<svg
   xmlns:dc="http://purl.org/dc/elements/1.1/"
   xmlns:cc="http://creativecommons.org/ns#"
   xmlns:rdf="http://www.w3.org/1999/02/22-rdf-syntax-ns#"
   xmlns:svg="http://www.w3.org/2000/svg"
   xmlns="http://www.w3.org/2000/svg"
   xmlns:sodipodi="http://sodipodi.sourceforge.net/DTD/sodipodi-0.dtd"
   xmlns:inkscape="http://www.inkscape.org/namespaces/inkscape"
   xml:space="preserve"
   width="170.3"
   height="200.11"
   style="fill-rule:evenodd"
   viewBox="0 0 4806.2446 20011"
   id="svg2"
   version="1.1"
   inkscape:version="0.48.2 r9819"
   sodipodi:docname="cd_lugo.svg"><metadata
   id="metadata85"><rdf:RDF><cc:Work
       rdf:about=""><dc:format>image/svg+xml</dc:format><dc:type
         rdf:resource="http://purl.org/dc/dcmitype/StillImage" /></cc:Work></rdf:RDF></metadata><sodipodi:namedview
   pagecolor="#ffffff"
   bordercolor="#666666"
   borderopacity="1"
   objecttolerance="10"
   gridtolerance="10"
   guidetolerance="10"
   inkscape:pageopacity="0"
   inkscape:pageshadow="2"
   inkscape:window-width="1280"
   inkscape:window-height="968"
   id="namedview83"
   showgrid="false"
   fit-margin-top="0"
   fit-margin-left="0"
   fit-margin-right="0"
   fit-margin-bottom="0"
   inkscape:zoom="1.3275031"
   inkscape:cx="82.21486"
   inkscape:cy="-1.7747117"
   inkscape:window-x="-4"
   inkscape:window-y="-4"
   inkscape:window-maximized="1"
   inkscape:current-layer="svg2" />
 <defs
   id="defs4">
  <style
   type="text/css"
   id="style6">
   
    .fil1 {fill:#000000}
    .fil3 {fill:#FFFFFF}
    .fil0 {fill:#029CE4}
    .fil2 {fill:#E5111D}
   
  </style>
 
  
  
 </defs>
 <g
   id="#ffffffff"
   transform="matrix(17.000552,0,0,17.110963,-6107.3818,-40.082272)">
   <path
   d="m 420.01,18 c 70.66,0 141.32,0 211.99,0.01 -0.01,2.66 0,5.32 0,7.98 11.33,0.02 22.66,0 34,0.02 0.01,5.33 -0.02,10.66 0.01,15.99 27.33,0.01 54.65,-0.01 81.98,0 0.03,7.97 -0.02,15.94 0.03,23.91 23.99,-0.02 47.98,-0.02 71.97,0 0.02,4.66 -0.01,9.33 0.02,13.99 11.33,0 22.65,-0.01 33.98,0.01 0.03,5.99 -0.02,11.99 0.02,17.99 17.33,0 34.65,-0.01 51.98,0.01 0.04,7.3 -0.04,14.6 0.04,21.9 6.65,-0.02 13.3,-0.02 19.96,0 0.12,10.31 -0.21,20.63 0.17,30.93 9.05,4.85 15.6,14.08 17.03,24.27 1.03,6.03 -0.03,12.2 -2.07,17.92 0.63,1.26 0.99,2.62 0.9,4.05 -0.04,8.33 -0.02,16.66 -0.02,25 0.03,4.35 -0.35,8.77 0.79,13.02 1.46,5.47 0.2,11.13 0.79,16.68 3.47,0.02 6.94,0.02 10.41,0.02 0.05,7.35 -0.06,14.69 0.06,22.03 3.31,-0.04 6.62,-0.04 9.94,-0.02 0.07,25.11 -0.1,50.23 0.09,75.34 2.48,2.75 5.78,4.79 7.91,7.93 5.8,7.54 8.06,17.63 6.05,26.93 -1.06,4 0.68,8.04 0.06,12.08 -0.4,2.97 -0.9,5.99 -0.26,8.98 0.99,5.77 -0.15,11.68 -2.16,17.11 2.08,4.37 3.91,9 4.02,13.91 0.14,6.29 1.85,12.59 0.55,18.86 -0.35,2.33 -1.58,4.73 -0.51,7.05 1.9,5.84 2.41,12.2 1.01,18.22 -0.47,2.23 -1.51,4.55 -0.45,6.8 2.1,6.18 1.52,12.79 0.43,19.1 1.95,7.14 2.46,14.83 -0.18,21.88 -1.51,3.58 0.48,7.33 0.11,11.04 0.16,4.11 -1.54,7.99 -1.55,12.08 0.05,7.4 -1.98,14.61 -2,22.02 -0.27,8.78 -0.03,17.57 -0.11,26.36 -2.99,0.01 -5.96,0.01 -8.93,-0.05 -0.17,10.61 -0.02,21.23 -0.08,31.85 -2.66,0 -5.33,0 -7.98,-0.01 -0.03,14.64 0,29.27 -0.01,43.91 -3.03,0.03 -6.05,-0.11 -9.06,0.06 -2.54,4.64 -1.42,10.03 -2.45,15.02 -1.46,7.89 -5.95,15.11 -12.26,20.04 -1.86,1.18 -2.18,3.42 -2.83,5.35 0.58,5.36 -0.22,10.72 -1.75,15.87 -0.19,4.38 0.03,8.87 -1.43,13.11 -0.92,2.37 -1.12,4.9 -1,7.44 -0.08,10.81 -5.97,21.05 -14.79,27.17 -0.5,8.1 -3.45,16.17 -9.14,22.08 -2.76,3.28 -7,4.99 -9.27,8.71 -2.15,3.2 -5.31,5.43 -8.08,8.04 -2.06,2.66 -3.75,5.63 -6.3,7.89 -3.58,3.18 -4.84,8.09 -8.24,11.45 -3.37,4.14 -8.26,6.47 -12.65,9.2 -1.69,7.01 -5.32,13.4 -10.44,18.46 -0.31,4.57 0.08,9.17 -0.2,13.76 -4.08,-0.1 -8.14,-0.02 -12.21,-0.06 -3.26,2.29 -4.7,6.11 -6.92,9.28 -2.76,4.56 -2.32,10 -2.28,15.1 -1.84,0.01 -3.67,0.05 -5.49,0.11 -3.66,4.2 -8.25,7.63 -13.51,9.54 -2.57,0.81 -4.56,2.65 -6.64,4.27 -0.34,10.76 -0.05,21.54 -0.15,32.31 -7.44,0.06 -14.88,-0.13 -22.31,0.1 -2.37,4.25 -6.53,6.93 -9.67,10.5 -4.68,7.95 -12.55,13.98 -21.59,16.01 -0.1,6.46 -0.02,12.92 -0.05,19.39 -7.9,0.1 -15.8,-0.19 -23.68,0.15 -0.06,11.8 -7.13,23.17 -17.57,28.61 -3.25,1.92 -7.21,2.34 -10.2,4.71 -2.87,2.22 -6.56,3.26 -8.92,6.13 -3.11,3.69 -7.99,5.26 -10.85,9.19 -4.95,6.07 -12.3,9.45 -19.75,11.23 -4.17,7.32 -10.57,13.55 -18.68,16.27 -2.82,0.54 -3.92,3.35 -5.72,5.22 -4.45,4.9 -10.44,8.3 -16.85,9.87 -2.27,0.17 -3.16,2.42 -4.55,3.86 -4.57,5.53 -11.08,9.15 -17.98,10.93 -3.12,9.95 -10.76,18.42 -20.67,21.91 -3.77,1.67 -8.33,1.01 -11.64,3.75 -4.01,2.81 -8.75,4.26 -13.47,5.38 -3.48,6.9 -9.37,12.57 -16.5,15.6 -2.95,1.39 -6.26,2.22 -8.69,4.5 -7.76,7.37 -19.27,10.46 -29.69,8.11 -7.93,-1.64 -15.1,-6.39 -19.84,-12.93 -1.01,-1.35 -1.87,-2.96 -3.55,-3.52 -5.4,-2.3 -9.93,-6.21 -13.54,-10.78 -12.42,-0.27 -24.48,-7.69 -29.69,-19.07 -8.7,-1.19 -17.29,-4.93 -22.88,-11.92 -2.39,-3.39 -6.51,-4.73 -9.38,-7.59 -2.68,-2.3 -4.39,-5.64 -7.57,-7.34 -4.21,-2.32 -7.01,-6.32 -10.4,-9.56 -4.21,-1.8 -7.93,-4.43 -11.49,-7.26 -10.25,-1.22 -18.48,-7.83 -26.08,-14.23 -2.72,-3.25 -7.03,-4.2 -10.27,-6.76 -3.91,-2.76 -6.78,-6.62 -9.51,-10.47 -3.28,-2.95 -6.91,-5.65 -9.34,-9.41 -3.92,-6.78 -10.02,-13.53 -18.34,-14.12 -9.11,-0.82 -17.3,-6.03 -22.99,-13.02 -0.68,0 -2.03,0 -2.7,0 -0.33,-2.68 -3.18,-3.54 -4.83,-5.25 -2.95,-2.39 -4.62,-6.08 -7.94,-8.03 -2.86,-1.74 -4.95,-4.56 -8.07,-5.87 -8.29,-3.74 -14.83,-11.08 -17.64,-19.71 -0.89,-2.68 -1.09,-5.63 -2.76,-7.99 -3.64,-5.36 -3.96,-12.51 -8.89,-17.04 -8.55,-0.13 -17.11,-0.02 -25.67,-0.04 -0.03,-5.13 0,-10.25 -0.02,-15.36 -3.98,-2.59 -6.65,-6.53 -9.92,-9.83 -6.23,-3.85 -11.06,-9.6 -14.08,-16.24 -3.48,-3.88 -7.26,-7.69 -9.12,-12.68 -1.52,-4.72 -5.64,-7.91 -7.37,-12.52 -0.47,-1.85 -2.33,-2.4 -3.84,-3.09 -5.56,-2.33 -10.33,-6.38 -13.78,-11.29 -2.94,-5.6 -8.79,-8.97 -11.27,-14.89 -1.53,-4.45 -5.74,-6.99 -7.9,-11.05 -2.17,-4.03 -6.47,-6.21 -9,-9.97 -2.85,-3.4 -3.75,-8.03 -7.05,-11.09 -3.47,-3.56 -5.15,-8.27 -7.29,-12.63 -5.03,-5.95 -8.28,-13.43 -8.52,-21.28 -0.51,-6.99 -6.81,-11.35 -8.75,-17.81 -2.46,-5.7 -2.05,-11.97 -2.11,-18 C 69.66,733 61,730.12 57.48,723.58 54.31,719.29 53.97,713.62 50.5,709.53 45.18,701.9 43.96,692.11 45.66,683.11 44.75,683.1 42.92,683.1 42,683.1 c -0.09,-8.74 0.16,-17.49 -0.11,-26.22 -1.14,-3.89 -2.79,-7.7 -2.73,-11.83 0.27,-8.74 -3.13,-17.66 -9.47,-23.74 -6.28,-6.8 -8.77,-16.19 -8.51,-25.28 -3.61,-9.78 -2.82,-21 2.56,-29.99 -2.22,-4.31 -3.67,-8.98 -4.17,-13.81 -0.04,-62.16 1.12,-124.65 11.23,-186.13 6.85,-42.18 18.26,-83.54 32.75,-123.71 2.24,-4.82 0.94,-10.25 2.12,-15.32 -0.22,-4.69 -1.14,-9.36 -0.54,-14.08 -1,-4.89 -2.23,-9.87 -1.41,-14.89 0.88,-4.08 -0.75,-8.07 -0.81,-12.15 -0.28,-4.04 1.43,-8.01 0.5,-12.03 -0.96,-5.17 -0.48,-10.54 1.12,-15.54 1.17,-3.39 0.38,-7.02 0.86,-10.51 1.12,-9.56 6.77,-18.47 14.89,-23.63 3.25,-2.02 5.23,-5.44 8.23,-7.77 4.26,-3.39 7.16,-8.26 11.9,-11.09 6.61,-4.53 14.76,-5.98 22.64,-5.57 4.23,-0.98 8.47,-1.82 12.81,-2.09 3.56,-1.2 7.27,-1.99 10.85,-3.05 3.87,-3.06 8,-5.96 12.84,-7.25 3.71,-0.73 6.25,-3.71 9.49,-5.4 3.01,-1.75 6.66,-2.32 9.29,-4.73 5.98,-5.06 13.83,-7.63 21.62,-7.64 0.03,-1.25 0.05,-2.5 0.09,-3.74 16.31,-0.08 32.63,0.1 48.94,-0.1 4.72,-14.71 20.6,-24.65 35.91,-22.25 3.98,1.14 7.35,-1.68 11.11,-2.35 3.67,-1.06 7.75,-0.18 11.14,-2.2 5.44,-2.96 11.68,-3.49 17.75,-3.68 5.47,-1.78 11.29,-3.2 17.08,-2.19 6.04,1.32 12.09,-1.32 18.17,0.09 5.38,-2.4 10.88,-4.76 16.87,-5.11 3.52,-2.54 6.83,-5.53 10.99,-7.03 10.34,-4.44 22.8,-3.02 31.99,3.42 -0.01,-2.17 0,-4.34 0.02,-6.51 z"
   id="path45"
   inkscape:connector-curvature="0"
   style="fill:#ffffff" />
   </g>
   <g
   id="_172654432"
   transform="translate(-8095.2422,-4841.6641)">
   <path
   style="fill:#029ce4"
   inkscape:connector-curvature="0"
   id="path11"
   d="m 3127,6641 c 2497,-1181 4922,-1773 7298,-1791 2529,-19 5242,731 7425,1782 843,2380 1309,5105 748,7990 141,-2017 -100,-4196 -950,-6210 -2437,-1039 -4759,-1599 -7180,-1597 -2377,2 -4999,618 -7194,1616 -800,2030 -960,3374 -950,5895 -452,-2704 -22,-5249 803,-7686 z"
   class="fil0" />
   <path
   style="fill:#000000"
   inkscape:connector-curvature="0"
   id="path13"
   d="m 1991,14285 609,-83 c 487,3212 2486,6039 5023,8171 l -351,462 C 4584,20794 2420,17622 1991,14285 z"
   class="fil1" />
   <path
   style="fill:#000000"
   inkscape:connector-curvature="0"
   id="path15"
   d="m 19009,14650 -607,-98 c -639,3217 -2540,5608 -4667,7576 l 340,470 c 2257,-1717 4526,-5038 4934,-7948 z"
   class="fil1" />
   <path
   style="fill:#000000"
   inkscape:connector-curvature="0"
   id="path17"
   d="m 10514,24568 c 1192,-704 2335,-1534 3413,-2400 l 94,-76 152,189 -94,76 c -1106,889 -2280,1739 -3505,2457 l -63,37 -62,-38 C 9352,24134 8277,23396 7270,22589 l -94,-76 151,-189 94,76 c 980,786 2025,1506 3093,2169 z"
   class="fil1" />
   <path
   style="fill:#029ce4"
   inkscape:connector-curvature="0"
   id="path19"
   d="m 2878,11721 2202,1 -24,1296 c -23,1247 204,2516 591,3723 l -619,969 -1565,-1158 c -606,-1540 -843,-3186 -585,-4832 z m 13123,7 2198,1 c 201,1667 -24,3244 -552,4682 l -1502,1373 -716,-1050 c 365,-1164 572,-2375 572,-3602 l 0,-1405 z"
   class="fil0" />
   <path
   style="fill:#e5111d"
   inkscape:connector-curvature="0"
   id="path21"
   d="m 5416,11728 884,0 0,5730 c -591,-1519 -894,-3044 -889,-4433 l 5,-1297 z m 2121,0 1166,0 0,9856 c -429,-531 -818,-1082 -1166,-1646 l 0,-8209 z m 2403,0 1182,0 0,11231 c -198,188 -395,365 -591,529 -203,-178 -400,-360 -591,-546 l 0,-11214 z m 2419,0 1166,0 0,8264 c -364,583 -758,1127 -1166,1627 l 0,-9891 z m 2403,0 884,0 0,1405 c 0,1545 -339,3041 -884,4420 l 0,-5826 z"
   class="fil2" />
   <g
   id="g23">
    <path
   style="fill:#000000"
   inkscape:connector-curvature="0"
   id="path25"
   d="m 3257,15980 1623,1422 671,-976 c 65,221 136,439 211,656 64,182 131,362 201,541 l -316,452 848,743 c 267,536 565,1059 891,1563 l -2082,-1816 -407,582 c -213,-294 -413,-595 -598,-903 l 238,-347 -793,-691 c -189,-401 -353,-810 -489,-1226 z"
   class="fil1" />
    <path
   style="fill:#000000"
   inkscape:connector-curvature="0"
   id="path27"
   d="m 17810,15931 -1679,1471 -627,-912 c -119,405 -256,804 -412,1196 l 271,389 -721,631 c -105,216 -215,429 -329,640 -170,313 -354,624 -549,931 l 1946,-1705 434,621 c 213,-291 413,-591 599,-901 l -268,-389 875,-766 c 177,-391 331,-793 460,-1206 z"
   class="fil1" />
   </g>
   <path
   style="fill:#ffffff"
   inkscape:connector-curvature="0"
   id="path29"
   d="m 3640,13463 835,0 c 1,263 -109,488 -294,651 l 3,295 439,253 -2,122 -1127,0 0,-122 445,-254 2,-282 c -186,-177 -288,-381 -299,-664 z"
   class="fil3" />
   <path
   style="fill:#000000"
   inkscape:connector-curvature="0"
   id="path31"
   d="m 4057,13463 417,0 c 1,263 -109,488 -294,651 l 3,295 439,253 -2,122 -563,0 0,-1321 z"
   class="fil1" />
   <circle
   d="m 4350,13015 c 0,161.819 -131.1806,293 -293,293 -161.8194,0 -293,-131.181 -293,-293 0,-161.819 131.1806,-293 293,-293 161.8194,0 293,131.181 293,293 z"
   style="fill:#ffffff"
   sodipodi:ry="293"
   sodipodi:rx="293"
   sodipodi:cy="13015"
   sodipodi:cx="4057"
   id="circle33"
   r="293"
   cy="13015"
   cx="4057"
   class="fil3" />
   <circle
   d="m 17610,14178 c 0,325.848 -264.152,590 -590,590 -325.848,0 -590,-264.152 -590,-590 0,-325.848 264.152,-590 590,-590 325.848,0 590,264.152 590,590 z"
   style="fill:#ffffff"
   sodipodi:ry="590"
   sodipodi:rx="590"
   sodipodi:cy="14178"
   sodipodi:cx="17020"
   id="circle35"
   r="590"
   cy="14178"
   cx="17020"
   class="fil3" />
   <circle
   d="m 17472,14178 c 0,249.633 -202.367,452 -452,452 -249.633,0 -452,-202.367 -452,-452 0,-249.633 202.367,-452 452,-452 249.633,0 452,202.367 452,452 z"
   style="fill:#ffffff"
   sodipodi:ry="452"
   sodipodi:rx="452"
   sodipodi:cy="14178"
   sodipodi:cx="17020"
   id="circle37"
   r="452"
   cy="14178"
   cx="17020"
   class="fil3" />
   <path
   style="fill:#000000"
   inkscape:connector-curvature="0"
   id="path39"
   d="m 17020,13725 c 250,0 452,203 452,452 0,250 -203,452 -452,452 l -2,0 0,-905 2,0 z"
   class="fil1" />
   <rect
   style="fill:#ffffff"
   id="rect41"
   height="402"
   width="659"
   y="13202"
   x="16695"
   class="fil3" />
   <polygon
   style="fill:#ffffff"
   id="polygon43"
   points="17264,13180 16775,13180 16576,12807 16855,12995 16893,12684 17020,12931 17147,12679 17184,12994 17463,12807 "
   class="fil3" />
   <g
   id="g45">
    <polygon
   style="fill:#000000"
   id="polygon47"
   points="4207,8966 4207,10954 4991,11146 6491,11146 7048,9768 6204,9847 6199,10051 5888,10527 5264,10571 5264,8381 "
   class="fil1" />
    <path
   style="fill:#000000"
   inkscape:connector-curvature="0"
   id="path49"
   d="m 7882,8065 -1064,424 0,1566 c 0,720 436,1145 1580,1138 544,-3 1542,-134 1542,-1119 l 0,-1842 -799,-295 0,2180 c 0,283 -318,399 -575,406 -210,6 -684,21 -684,-397 l 0,-2061 z"
   class="fil1" />
    <path
   style="fill:#000000"
   inkscape:connector-curvature="0"
   id="path51"
   d="m 12470,9212 590,0 -221,-720 c -355,-357 -791,-495 -1291,-507 -787,-19 -1630,631 -1642,1628 -10,802 542,1575 1707,1587 584,6 1411,-298 1587,-941 3,-295 -3,-457 0,-752 -504,-22 -1009,-43 -1513,-65 0,231 0,445 0,676 194,0 387,0 581,0 -9,274 -323,423 -627,408 -317,-16 -519,-158 -583,-429 -56,-238 -45,-595 -26,-837 24,-298 189,-594 637,-556 369,32 617,191 803,507 z"
   class="fil1" />
    <path
   style="fill:#000000"
   inkscape:connector-curvature="0"
   id="path53"
   d="m 14647,8258 c 1154,15 2223,826 2223,1628 0,788 -857,1324 -1891,1324 -1034,0 -1850,-624 -1896,-1476 -45,-840 567,-1489 1564,-1476 z m 1075,1370 0,337 c 0,510 -321,614 -707,606 -367,-8 -762,-134 -762,-597 l 0,-470 c 0,-473 312,-599 679,-584 367,15 790,212 790,709 z"
   class="fil1" />
   </g>
   <g
   id="g55">
    <path
   style="fill:#ffffff"
   inkscape:connector-curvature="0"
   id="path57"
   d="m 8202,5662 206,-105 225,-21 c 461,-43 541,243 529,407 -26,368 -324,531 -639,547 l -189,10 -182,-54 50,-784 z m 730,300 c 20,-183 -54,-344 -314,-328 l -197,22 -46,745 143,-10 c 334,-24 395,-259 414,-429 z"
   class="fil3" />
    <path
   style="fill:#ffffff"
   inkscape:connector-curvature="0"
   id="path59"
   d="m 5544,6236 235,-120 -66,591 c -17,157 -8,224 183,201 216,-25 346,-186 362,-356 l 57,-614 154,27 -54,553 c -36,367 -339,487 -532,520 -221,37 -426,16 -405,-184 l 65,-619 z"
   class="fil3" />
    <polygon
   style="fill:#ffffff"
   id="polygon61"
   points="4852,6402 4693,7294 4900,7234 5153,6917 5161,6855 5314,6836 5089,7304 4602,7449 4458,7379 4591,6585 "
   class="fil3" />
    <polygon
   style="fill:#ffffff"
   id="polygon63"
   points="9575,5451 10068,5428 10253,5743 10103,5745 10099,5718 9978,5538 9584,5552 9574,5849 9901,5844 9899,5949 9570,5955 9561,6270 9989,6258 10116,6036 10117,5997 10277,5992 10141,6347 9484,6371 9336,6277 9356,5555 "
   class="fil3" />
    <path
   style="fill:#ffffff"
   inkscape:connector-curvature="0"
   id="path65"
   d="m 6648,5951 205,-112 280,-61 c 286,-62 429,-20 412,144 -9,88 -94,208 -235,252 252,16 262,170 230,250 -73,185 -260,251 -573,310 l -210,40 -177,-32 68,-791 z m 195,285 200,-36 c 61,-11 128,-29 185,-71 44,-33 86,-84 96,-139 21,-110 -42,-160 -202,-123 l -255,60 -24,309 z m 234,48 -243,49 -34,345 153,-27 c 226,-39 326,-93 362,-213 52,-173 -65,-190 -239,-155 z"
   class="fil3" />
    <path
   style="fill:#ffffff"
   inkscape:connector-curvature="0"
   id="path67"
   d="m 10466,5551 195,-111 283,-4 c 281,-4 399,140 394,287 -7,185 -142,254 -379,255 l -275,0 2,388 -217,-69 -3,-746 z m 219,330 197,-1 c 153,-1 245,7 252,-167 5,-108 -55,-194 -212,-188 l -239,9 1,348 z"
   class="fil3" />
    <path
   style="fill:#ffffff"
   inkscape:connector-curvature="0"
   id="path69"
   d="m 12813,5698 199,-55 286,35 c 284,34 415,193 416,338 0,91 -111,145 -197,144 78,30 203,112 231,247 l 55,259 -219,-19 -53,-268 c -28,-145 -135,-172 -257,-188 l -223,-29 23,401 -222,-98 -38,-767 z m 234,368 205,26 c 155,20 248,40 249,-131 0,-106 -63,-183 -222,-199 l -253,-24 21,328 z"
   class="fil3" />
    <polygon
   style="fill:#ffffff"
   id="polygon71"
   points="13908,5790 14891,6030 14899,6119 14513,6025 14577,6848 14341,6729 14288,5970 13916,5879 "
   class="fil3" />
    <polygon
   style="fill:#ffffff"
   id="polygon73"
   points="15294,6166 15412,7120 15169,6977 15063,6094 "
   class="fil3" />
    <polygon
   style="fill:#ffffff"
   id="polygon75"
   points="16128,7377 15931,7311 15480,6233 15712,6255 16045,7151 16190,6446 16363,6527 "
   class="fil3" />
    <path
   style="fill:#ffffff"
   inkscape:connector-curvature="0"
   id="path77"
   d="m 12018,5465 c 332,18 596,241 624,531 28,290 -196,488 -528,470 -332,-18 -588,-219 -619,-508 -34,-323 190,-510 522,-492 z m 31,101 c 159,15 255,102 299,240 34,107 60,269 30,384 -34,130 -158,178 -283,165 -143,-14 -275,-86 -313,-245 -22,-95 -36,-198 -23,-310 17,-147 109,-251 291,-234 z"
   class="fil3" />
    <path
   style="fill:#ffffff"
   inkscape:connector-curvature="0"
   id="path79"
   d="m 17002,6727 c 328,132 603,445 650,745 47,300 -160,421 -488,290 -328,-132 -594,-420 -643,-720 -55,-335 153,-446 481,-314 z m 37,111 c 158,69 257,189 310,342 41,119 77,290 55,394 -25,119 -143,124 -268,68 -141,-63 -277,-181 -324,-352 -28,-102 -49,-210 -44,-318 7,-142 91,-214 270,-135 z"
   class="fil3" />
    <path
   style="fill:#ffffff"
   inkscape:connector-curvature="0"
   id="path81"
   d="m 4076,6733 c -294,67 -582,417 -634,717 -52,300 143,446 467,301 175,-79 349,-310 433,-541 l -99,11 c -107,245 -243,372 -359,423 -82,36 -171,45 -194,-74 -20,-104 13,-236 56,-355 55,-153 192,-336 332,-375 119,-34 197,71 190,176 l 91,-17 -15,-191 c -57,-86 -179,-93 -267,-73 z"
   class="fil3" />
   </g>
  </g></svg>