<?xml version="1.0" encoding="utf-8"?>
<!-- Generator: Adobe Illustrator 13.0.0, SVG Export Plug-In . SVG Version: 6.00 Build 14948)  -->
<!DOCTYPE svg PUBLIC "-//W3C//DTD SVG 1.0//EN" "http://www.w3.org/TR/2001/REC-SVG-20010904/DTD/svg10.dtd">
<svg version="1.0" id="Ebene_1" xmlns="http://www.w3.org/2000/svg" xmlns:xlink="http://www.w3.org/1999/xlink" x="0px" y="0px"
	 width="226.813px" height="320.015px" viewBox="0 0 226.813 320.015" enable-background="new 0 0 226.813 320.015"
	 xml:space="preserve">
<path fill="#00ABDA" d="M226.807,101.216v17.236c-20.815,12.903-45.411,16.683-72.626,14.062
	c6.854,7.106,11.34,13.759,13.356,20.059c-5.292-2.369-23.486-6.703-27.115,4.586c-1.814,5.544,1.764,11.239,7.106,14.818
	c5.897,4.032,13.053,7.257,20.21,10.785c16.783,8.266,37.498,21.924,41.278,41.429c3.376,17.237-2.571,34.272-12.802,48.233
	c-11.139,15.12-27.216,26.359-44.957,32.81c-23.839,8.669-51.861,8.669-75.65,0c-48.031-17.489-72.223-65.974-57.758-115.517
	c7.358-25.401,26.208-45.813,55.742-59.573c11.693-5.493,23.789-9.072,35.784-11.793C73.843,95.521,36.546,110.59,0.007,136.647
	V93.303c34.977-26.107,67.183-32.105,97.171-20.311c20.966,8.266,37.498,28.577,58.011,38.606
	C179.834,123.543,204.731,113.715,226.807,101.216z"/>
<path fill="#A70529" d="M226.807,31.008v70.208c-22.075,12.499-46.973,22.327-71.618,10.382
	c-20.513-10.03-37.044-30.341-58.011-38.606C67.189,61.198,34.984,67.196,0.007,93.303V15.989
	C34.883-2.256,67.442-3.919,99.698,6.111c13.104,4.083,26.208,9.979,39.262,17.69C167.99,40.937,195.508,50.563,226.807,31.008z"/>
<path fill="#A70529" d="M226.807,118.452v106.042c0.252,16.38-6.351,32.861-16.279,46.872
	c-14.062,19.908-35.33,35.381-58.817,42.638c-26.057,8.014-50.551,8.014-76.608,0c-23.486-7.257-44.755-22.73-58.817-42.638
	c-9.929-14.011-16.531-30.492-16.279-46.872v-87.847c36.54-26.057,73.836-41.126,109.368-18.295
	c-11.995,2.721-24.091,6.3-35.784,11.793c-29.534,13.76-48.384,34.172-55.742,59.573c-14.465,49.543,9.727,98.028,57.758,115.517
	c23.789,8.669,51.811,8.669,75.65,0c17.741-6.451,33.818-17.69,44.957-32.81c10.231-13.961,16.178-30.997,12.802-48.233
	c-3.78-19.504-24.495-33.163-41.278-41.429c-7.157-3.528-14.313-6.753-20.21-10.785c-5.342-3.579-8.921-9.274-7.106-14.818
	c3.629-11.29,21.823-6.955,27.115-4.586c-2.016-6.3-6.501-12.953-13.356-20.059C181.396,135.135,205.991,131.355,226.807,118.452z"
	/>
<path fill="#A70529" d="M119.001,138.411c-1.713,2.521-3.175,5.041-4.385,7.459c-11.088,22.831,5.191,37.851,24.646,48.182
	c16.833,8.972,28.627,22.176,26.006,35.583c-3.881,19.404-29.131,29.383-52.114,29.434c-26.107,0-44.453-13.708-51.004-39.463
	c-7.711-30.391,9.626-55.239,34.07-70.913C103.629,143.955,110.483,140.578,119.001,138.411z"/>
<path fill="#00ABDA" d="M130.291,74.453c-6.754,2.47-14.565,2.016-21.219-1.864c-4.082-2.369-7.257-5.696-9.424-9.526
	c2.066-2.772,4.334-5.292,6.854-7.409C111.744,65.18,120.06,71.278,130.291,74.453z"/>
<path fill="#00ABDA" d="M141.53,66.389c-1.966,2.47-4.334,4.486-6.905,6.048c-11.038-2.671-20.261-8.467-25.603-18.698
	c1.965-1.36,4.032-2.469,6.199-3.326C121.471,59.888,130.542,64.877,141.53,66.389z"/>
<path fill="#00ABDA" d="M137.952,31.261c5.544,4.687,9.072,11.642,9.072,19.404c0,4.688-1.311,9.123-3.579,12.902
	c-3.427-0.403-6.753-1.109-9.878-2.218C139.262,52.025,140.32,41.744,137.952,31.261z"/>
<path fill="#00ABDA" d="M125.402,25.565c3.074,0.504,5.998,1.512,8.669,2.974c3.175,10.886,2.772,21.772-3.377,31.601
	c-2.117-1.059-4.133-2.318-5.998-3.78C129.787,46.229,129.535,35.897,125.402,25.565z"/>
<path fill="#00ABDA" d="M96.774,46.229c1.311-7.106,5.544-13.658,12.297-17.54c4.083-2.318,8.468-3.427,12.903-3.376
	c1.36,3.175,2.419,6.401,2.974,9.676C114.062,34.738,104.688,38.972,96.774,46.229z"/>
<path fill="#00ABDA" d="M98.135,59.989c-1.109-2.923-1.713-5.998-1.713-9.022c7.812-8.165,17.388-13.306,28.93-12.852
	c0.201,2.369,0.101,4.737-0.252,7.056C113.81,45.876,104.99,51.219,98.135,59.989z"/>
<g>
	<path fill="#A70529" d="M82.331,297.915h-6.586v-24.82c-2.406,2.25-5.242,3.914-8.508,4.992v-5.977
		c1.719-0.563,3.586-1.629,5.602-3.199s3.398-3.402,4.148-5.496h5.344V297.915z"/>
	<path fill="#A70529" d="M92.315,289.97l6.375-0.703c0.156,1.297,0.563,2.258,1.219,2.883s1.523,0.938,2.602,0.938
		c1.359,0,2.516-0.625,3.469-1.875s1.563-3.844,1.828-7.781c-1.656,1.922-3.727,2.883-6.211,2.883c-2.703,0-5.035-1.043-6.996-3.129
		s-2.941-4.801-2.941-8.145c0-3.484,1.035-6.293,3.105-8.426s4.707-3.199,7.91-3.199c3.484,0,6.344,1.348,8.578,4.043
		s3.352,7.129,3.352,13.301c0,6.281-1.164,10.813-3.492,13.594s-5.359,4.172-9.094,4.172c-2.688,0-4.859-0.715-6.516-2.145
		S92.784,292.813,92.315,289.97z M107.221,275.579c0-2.125-0.488-3.773-1.465-4.945s-2.105-1.758-3.387-1.758
		c-1.219,0-2.23,0.48-3.035,1.441s-1.207,2.535-1.207,4.723c0,2.219,0.438,3.848,1.313,4.887s1.969,1.559,3.281,1.559
		c1.266,0,2.332-0.5,3.199-1.5S107.221,277.517,107.221,275.579z"/>
	<path fill="#A70529" d="M141.182,271.97l-6.375,0.703c-0.156-1.313-0.563-2.281-1.219-2.906s-1.508-0.938-2.555-0.938
		c-1.391,0-2.566,0.625-3.527,1.875s-1.566,3.852-1.816,7.805c1.641-1.938,3.68-2.906,6.117-2.906c2.75,0,5.105,1.047,7.066,3.141
		s2.941,4.797,2.941,8.109c0,3.516-1.031,6.336-3.094,8.461s-4.711,3.188-7.945,3.188c-3.469,0-6.32-1.348-8.555-4.043
		s-3.352-7.113-3.352-13.254c0-6.297,1.164-10.836,3.492-13.617s5.352-4.172,9.07-4.172c2.609,0,4.77,0.73,6.48,2.191
		S140.713,269.188,141.182,271.97z M126.252,286.337c0,2.141,0.492,3.793,1.477,4.957s2.109,1.746,3.375,1.746
		c1.219,0,2.234-0.477,3.047-1.43s1.219-2.516,1.219-4.688c0-2.234-0.438-3.871-1.313-4.91s-1.969-1.559-3.281-1.559
		c-1.266,0-2.336,0.496-3.211,1.488S126.252,284.399,126.252,286.337z"/>
	<path fill="#A70529" d="M145.565,270.142v-6.117h22.523v4.781c-1.859,1.828-3.75,4.453-5.672,7.875s-3.387,7.059-4.395,10.91
		s-1.504,7.293-1.488,10.324h-6.352c0.109-4.75,1.09-9.594,2.941-14.531s4.324-9.352,7.418-13.242H145.565z"/>
</g>
</svg>
