<?xml version="1.0" encoding="utf-8"?>
<!-- Generator: Adobe Illustrator 13.0.2, SVG Export Plug-In . SVG Version: 6.00 Build 14948)  -->
<!DOCTYPE svg PUBLIC "-//W3C//DTD SVG 1.0//EN" "http://www.w3.org/TR/2001/REC-SVG-20010904/DTD/svg10.dtd">
<svg version="1.0" id="Ebene_1" xmlns="http://www.w3.org/2000/svg" xmlns:xlink="http://www.w3.org/1999/xlink" x="0px" y="0px"
	 width="527.25px" height="521.106px" viewBox="0 0 527.25 521.106" enable-background="new 0 0 527.25 521.106"
	 xml:space="preserve">
<path fill-rule="evenodd" clip-rule="evenodd" fill="#FFFFFF" d="M27.785,6.467L26.38,0h68.892
	c14.127,45.444,156.025,49.066,168.113,49.214C275.337,49.065,417.708,45.391,431.821,0h68.889
	c-3.038,13.986-5.83,28.151-5.974,42.52c-0.038,10.522,2.291,20.462,3.732,30.775l9.574-12.354
	c2.979,14.924,6.354,29.865,5.93,45.205l9.961-8.005c5.505,32.722,6.132,49.655-13.796,77.997
	c-33.472,47.596-31.31,57.313-29.836,110.477c1.233,44.35,4.863,66.322,12.896,109.793c3.243,25.822-5.505,49.67-29.455,62.678
	c-5.783,3.17-14.783,5.238-23.367,7.002c-68.827,14.191-112.954,22.541-176.757,55.02c-63.678-32.414-108.207-40.857-176.905-55.02
	c-8.591-1.77-17.606-3.838-23.389-7.02c-23.934-13.008-32.675-36.844-29.433-62.66c8.862-47.941,14.473-95.842,13.452-144.64
	c-1.431-68.322-57.568-74.049-45.696-144.652l1.509-8.975l9.962,8.005c-0.425-15.34,2.949-30.283,5.928-45.205l9.45,12.193
	l0.277-2.035c0.691-4.765,1.613-9.193,2.341-13.947l0.091-0.63c0.883-6.445,1.286-14.821,0.791-22.156
	C31.485,27.677,30.328,18.177,27.785,6.467L27.785,6.467L27.785,6.467z"/>
<path fill-rule="evenodd" clip-rule="evenodd" fill="#008A57" d="M194.463,64.83c15.413,3.252,51.167,5.254,69.129,5.464
	c17.962-0.209,53.719-2.212,69.129-5.464l-0.018,26.317c-10.582,5.35-21.782,9-34.62,5.965l-22.471-5.432
	c0,0,6.8,11.817,10.641,16.427c2.71,3.252,9.545,11.253,19.743,16.958c-4.676,7.78-7.72,15.464-9.425,23.183
	c5.271-0.775,5.596-0.524,9.729-0.684c-3.835,7.198-5.93,12.784-5.93,12.784l6.899-0.697c-5.678,9.415-4.784,22.015-4.784,22.015
	c5.426-6.589,18.885-17.386,30.164-24.116l-0.023,213.984c-21.891-2.256-45.193-3.469-69.366-3.469
	c-23.927,0-47.004,1.189-68.701,3.404l-0.025-213.92c11.281,6.729,24.74,17.527,30.166,24.116c0,0,0.892-12.601-4.784-22.015
	l6.899,0.697c0,0-2.095-5.585-5.93-12.784c4.132,0.16,4.459-0.091,9.727,0.684c-1.705-7.718-4.748-15.403-9.423-23.183
	c10.197-5.706,17.033-13.707,19.743-16.958c3.842-4.61,10.641-16.427,10.641-16.427l-22.469,5.432
	c-12.839,3.035-24.038-0.615-34.62-5.965L194.463,64.83L194.463,64.83L194.463,64.83z"/>
<path fill-rule="evenodd" clip-rule="evenodd" fill="#E5312A" d="M187.202,107.941v45.7v218.625
	c-60.549,6.914-109.56,24.398-135.076,43.459c-0.907-5.121-0.977-10.67-0.259-16.553c8.988-48.633,16.166-98.467,14.405-148.087
	c-2.379-67.042-43.781-78.721-49.009-118.844l20.297,12.8c-3.606-13.721-5.859-24.549-7.074-40.169l19.661,19.449
	c-2.908-15.003-3.817-22.491-5.092-38.471c5.41,7.02,13.211,14.565,20.972,18.883c-6.161,4.649-8.846,11.394-10.217,18.804
	l-4.62,25.673l23.473-5.083c0.71-0.202,3.618-0.255,9.319,0.749c6.589,1.16,19.239,0.929,21.71,8.695
	c8.84,27.794-29.421,8.641-36.381,5.848l7.072,13.015c6.4,11.78,21.907,18.905,35.316,12.646
	c24.999-11.67,14.187-48.939-7.242-54.198c-9.154-2.246-21.198-5.615-30.643-4.893c2.156-9.861,11.593-13.84,21.075-13.351
	l15.604,3.158l1.162,0.363c8.278,1.888,42.507,12.664,42.507,12.664c-2.788-5.788-6.163-11.792-9.583-14.124
	c4.323-1.786,9.393-4.311,18.173-11.438c0,0-22.509,1.399-30.126-1.088l2.791-3.086c10.604-14.477,29.339-6.441,40.951,2.487
	C179.597,104.057,183.278,106.173,187.202,107.941L187.202,107.941L187.202,107.941z M52.023,21.996l30.983-0.539
	c6.91,18.233,63.743,36.683,104.196,42.022v23.728c-18.217-10.334-35.243-22.346-56.631-8.818
	c-7.115,4.501-13.321,16.79-17.899,19.327c-6.844-0.942-13.884-1.958-18.478-2.675c-17.914-2.842-35.972-14.134-40.169-32.881
	C51.038,48.812,49.886,35.131,52.023,21.996L52.023,21.996L52.023,21.996z"/>
<path fill-rule="evenodd" clip-rule="evenodd" d="M339.984,107.941c3.926-1.768,7.605-3.885,10.837-6.366
	c11.61-8.928,30.346-16.964,40.951-2.487l2.789,3.086c-7.617,2.487-30.126,1.088-30.126,1.088
	c8.78,7.126,13.852,9.652,18.173,11.438c-3.422,2.332-6.794,8.336-9.586,14.124c0,0,34.233-10.775,42.51-12.664l1.163-0.363
	l15.604-3.158c9.48-0.489,18.917,3.489,21.073,13.351c-9.445-0.722-21.489,2.647-30.642,4.893
	c-21.431,5.259-32.241,42.527-7.245,54.198c13.409,6.259,28.916-0.866,35.317-12.646l7.072-13.015
	c-6.958,2.793-45.22,21.946-36.381-5.848c2.473-7.767,15.12-7.535,21.712-8.695c5.701-1.003,8.61-0.951,9.316-0.749l23.473,5.083
	l-4.62-25.673c-1.371-7.411-4.055-14.155-10.216-18.804c7.761-4.318,15.563-11.864,20.971-18.883
	c-1.271,15.98-2.183,23.468-5.089,38.471l19.658-19.449c-1.213,15.62-3.466,26.448-7.072,40.169l20.297-12.8
	c-5.156,35.007-46.632,51.803-49.011,118.844c-1.761,49.62,4.33,99.454,13.318,148.087c0.738,6.053,2.092,11.619,0.75,16.992
	c-25.257-19.207-74.288-36.82-134.997-43.822V153.642V107.941L339.984,107.941L339.984,107.941z M475.163,21.996
	c2.136,13.135,0.984,26.815-2.001,40.163c-4.195,18.747-22.257,30.04-40.172,32.881c-4.591,0.716-11.634,1.733-18.478,2.675
	c-4.576-2.537-10.781-14.826-17.897-19.327c-21.387-13.528-38.414-1.516-56.631,8.818V63.479
	c40.453-5.339,97.286-23.789,104.197-42.022L475.163,21.996L475.163,21.996L475.163,21.996z"/>
<path fill-rule="evenodd" clip-rule="evenodd" fill="#C6C7C9" d="M63.72,431.722c16.488,11.988,59.855,22.547,59.855,22.547
	s-21.347-3.82-34.928-6.955C66.219,441.29,63.72,431.722,63.72,431.722L63.72,431.722L63.72,431.722z"/>
<path fill-rule="evenodd" clip-rule="evenodd" fill="#008A57" d="M194.529,149.65l-0.031-38.886c4.74,1.56,9.633,2.685,14.363,3.41
	c-4.106,2.572-8.029,4.519-12.249,6.891c3.116,3.085,6.942,7.786,9.879,11.057c-7.08-0.388-7.554,0.352-10.343,0.505
	c3.718,4.958,5.112,7.438,7.992,14.301C201.136,147.567,197.846,148.337,194.529,149.65L194.529,149.65L194.529,149.65z"/>
<path fill-rule="evenodd" clip-rule="evenodd" fill="#008A57" d="M332.657,149.65l0.029-38.886c-4.737,1.56-9.63,2.685-14.361,3.41
	c4.107,2.572,8.027,4.519,12.249,6.891c-3.117,3.085-6.943,7.786-9.879,11.057c7.081-0.388,7.556,0.352,10.345,0.505
	c-3.721,4.958-5.112,7.438-7.992,14.301C326.05,147.567,329.34,148.337,332.657,149.65L332.657,149.65L332.657,149.65z"/>
<path fill-rule="evenodd" clip-rule="evenodd" d="M117.366,345.513v-3.322c-4.383-0.715-5.754-2.139-5.754-6.17v-82.116h0.549
	c8.764,21.601,55.33,80.927,55.33,84.964c0,2.373-2.465,2.848-5.205,3.322v3.322h39.992v-3.322c-3.56-0.715-4.931-1.424-4.931-6.17
	V230.172c0-4.034,1.371-5.458,6.028-6.17v-3.322h-37.254v3.322c4.658,0.712,6.026,2.136,6.026,6.17v74.518H171.6
	c-2.738-10.676-50.125-74.518-50.125-78.552c0-1.424,1.096-1.9,4.929-2.136v-3.322H81.209v3.322c3.835,0.712,5.203,2.136,5.203,6.17
	v105.848c0,4.031-1.368,5.455-6.299,6.17v3.322H117.366L117.366,345.513L117.366,345.513z"/>
<path fill-rule="evenodd" clip-rule="evenodd" d="M251.197,291.401h25.852c6.299,0,8.49,0.709,9.313,3.797h3.835v-28.002h-3.835
	c-0.823,3.563-3.015,4.271-9.313,4.271h-25.852v-30.853h59.165c6.302,0,8.493,0.712,9.313,3.797h3.835v-28.005h-3.835
	c-0.82,3.56-3.012,4.273-9.313,4.273h-95.87v3.322c7.944,0.712,9.312,2.136,9.312,6.17v105.848c0,4.031-1.368,5.455-8.764,6.17
	v3.322h99.157c6.302,0,8.493,0.715,9.313,4.271h3.835v-28.477h-3.835c-0.82,3.557-3.012,4.271-9.313,4.271h-63V291.401
	L251.197,291.401L251.197,291.401z"/>
<path fill-rule="evenodd" clip-rule="evenodd" d="M447.735,228.986c-2.464,1.424-4.38,2.136-6.023,2.136
	c-2.191,0-6.026-2.848-12.601-5.933s-15.615-5.934-28.213-5.934c-35.063,0-69.026,20.886-69.026,65.027
	c0,33.703,24.103,62.654,65.739,62.654c35.335,0,43.825-16.611,50.124-16.611c1.646,0,3.29,0.949,4.658,2.373l2.191-2.139
	l-23.01-25.869l-3.284,0.949c0.545,1.189,1.093,4.037,1.093,4.986c0,7.828-13.693,16.377-29.033,16.377
	c-24.378,0-41.089-17.566-41.089-42.721c0-32.276,15.888-45.091,42.185-45.091c14.244,0,27.39,7.594,27.39,16.138
	c0,0.712,0,1.661-0.272,2.373l2.464,0.949l18.079-28.479L447.735,228.986L447.735,228.986L447.735,228.986z"/>
<path fill-rule="evenodd" clip-rule="evenodd" fill="#FFFFFF" stroke="#000000" stroke-width="0.2583" stroke-miterlimit="2.6131" d="
	M116.255,343.591v-3.322c-4.383-0.715-5.752-2.133-5.752-6.17v-82.115h0.548c8.766,21.599,55.332,80.931,55.332,84.962
	c0,2.373-2.467,2.848-5.206,3.322v3.322h39.992v-3.322c-3.56-0.715-4.931-1.424-4.931-6.17V228.252c0-4.034,1.371-5.459,6.026-6.17
	v-3.324h-37.252v3.324c4.657,0.71,6.026,2.136,6.026,6.17v74.517h-0.548c-2.739-10.676-50.125-74.517-50.125-78.551
	c0-1.425,1.094-1.898,4.929-2.136v-3.324H80.099v3.324c3.833,0.71,5.203,2.136,5.203,6.17v105.847c0,4.037-1.37,5.455-6.299,6.17
	v3.322H116.255L116.255,343.591L116.255,343.591z"/>
<path fill-rule="evenodd" clip-rule="evenodd" fill="#FFFFFF" stroke="#000000" stroke-width="0.2583" stroke-miterlimit="2.6131" d="
	M250.086,289.479h25.852c6.299,0,8.49,0.715,9.313,3.797h3.835v-28.002h-3.835c-0.823,3.557-3.015,4.271-9.313,4.271h-25.852
	v-30.853h59.165c6.302,0,8.493,0.713,9.313,3.797h3.835v-28.003h-3.835c-0.82,3.56-3.012,4.271-9.313,4.271h-95.87v3.324
	c7.944,0.71,9.312,2.136,9.312,6.17v105.847c0,4.037-1.368,5.455-8.764,6.17v3.322h99.157c6.302,0,8.49,0.709,9.313,4.271h3.835
	v-28.477H322.4c-0.823,3.557-3.012,4.271-9.313,4.271h-63V289.479L250.086,289.479L250.086,289.479z"/>
<path fill-rule="evenodd" clip-rule="evenodd" fill="#FFFFFF" stroke="#000000" stroke-width="0.2583" stroke-miterlimit="2.6131" d="
	M446.625,227.064c-2.464,1.425-4.383,2.137-6.023,2.137c-2.191,0-6.029-2.848-12.601-5.934c-6.574-3.083-15.612-5.933-28.213-5.933
	c-35.063,0-69.029,20.884-69.029,65.026c0,33.703,24.105,62.654,65.742,62.654c35.335,0,43.825-16.611,50.124-16.611
	c1.644,0,3.29,0.949,4.658,2.373l2.191-2.139l-23.01-25.869l-3.287,0.955c0.548,1.184,1.096,4.031,1.096,4.98
	c0,7.834-13.696,16.377-29.033,16.377c-24.381,0-41.089-17.566-41.089-42.721c0-32.273,15.888-45.089,42.185-45.089
	c14.241,0,27.39,7.594,27.39,16.137c0,0.712,0,1.663-0.272,2.375l2.464,0.948l18.079-28.478L446.625,227.064L446.625,227.064
	L446.625,227.064z"/>
<path fill-rule="evenodd" clip-rule="evenodd" d="M125.736,430.737v-0.797c-1.008,0-1.705-0.398-1.705-1.477v-15.182h0.155
	l13.102,14.666c0.62,0.627,0.853,1.084,0.853,1.371c0,0.223-0.311,0.568-0.775,0.621v0.797h9.768v-0.797
	c-0.853,0-1.548-0.398-1.548-1.477v-20.473c0-1.078,0.696-1.477,1.548-1.477v-0.797h-9.148v0.797c0.853,0,1.551,0.398,1.551,1.477
	v14.789h-0.155l-11.164-13.025c-0.466-0.568-1.784-1.934-1.705-2.443c0-0.398,0.311-0.627,1.085-0.797v-0.797h-11.319v0.797
	c1.008,0,1.705,0.398,1.705,1.477v20.473c0,1.078-0.697,1.477-1.705,1.477v0.797H125.736L125.736,430.737L125.736,430.737z"/>
<path fill-rule="evenodd" clip-rule="evenodd" d="M170.02,430.737v-0.797c-1.008,0-1.627-0.398-1.627-1.477v-20.473
	c0-1.078,0.62-1.477,1.627-1.477v-0.797h-10.078v0.797c1.008,0,1.629,0.398,1.629,1.477v20.473c0,1.078-0.699,1.477-1.629,1.477
	v0.797H170.02L170.02,430.737L170.02,430.737z"/>
<path fill-rule="evenodd" clip-rule="evenodd" d="M190.475,405.718v0.797c0.932,0,1.551,0.398,1.551,1.477v16.488
	c0,1.764-1.938,2.619-4.497,2.619c-2.635,0-4.652-1.424-4.963-3.299l-0.93-0.229L179,429.483l0.621,0.229
	c0.466-0.281,1.085-0.568,1.395-0.568c0.311,0,1.087,0.516,2.481,0.967c1.396,0.457,3.255,0.967,5.427,0.967
	c6.125,0,9.923-2.502,9.923-6.82v-16.266c0-1.078,0.697-1.477,1.707-1.477v-0.797H190.475L190.475,405.718L190.475,405.718z"/>
<path fill-rule="evenodd" clip-rule="evenodd" d="M220.751,430.737v-0.797c-0.697,0-1.395-0.398-1.395-1.477V410.95h0.155
	c2.946,6.82,7.289,13.477,10.699,19.787h1.085c3.798-6.656,7.907-13.02,11.552-20.016h0.154v17.742c0,1.078-0.697,1.477-1.548,1.477
	v0.797h9.146v-0.797c-0.853,0-1.55-0.398-1.55-1.477v-20.473c0-1.078,0.697-1.477,1.55-1.477v-0.797H238.74v0.797
	c0.697,0.111,1.084,0.287,1.084,0.738c0,0.516-0.309,1.195-1.006,2.332l-7.443,12.51h-0.155l-7.132-12.51
	c-0.621-1.084-1.008-1.816-1.008-2.332c0-0.451,0.387-0.627,1.084-0.738v-0.797h-11.938v0.797c0.853,0,1.551,0.398,1.551,1.477
	v20.473c0,1.078-0.699,1.477-1.241,1.477v0.797H220.751L220.751,430.737L220.751,430.737z"/>
<path fill-rule="evenodd" clip-rule="evenodd" d="M264.229,428.464c0,1.078-0.62,1.477-1.396,1.477v0.797h22.641
	c1.315,0,1.781,0.34,2.013,1.025h1.087v-6.428h-1.087c-0.231,0.967-0.697,1.424-2.013,1.424h-14.423v-6.938h8.684
	c1.318,0,1.784,0.281,2.016,1.248h1.084v-6.48h-1.084c-0.231,0.967-0.697,1.248-2.016,1.248h-8.684v-6.135h14.423
	c1.315,0,1.781,0.451,2.013,1.477h1.087v-6.48h-1.087c-0.231,0.68-0.697,1.02-2.013,1.02h-22.641v0.797
	c0.776,0,1.396,0.398,1.396,1.477V428.464L264.229,428.464L264.229,428.464z"/>
<path fill-rule="evenodd" clip-rule="evenodd" d="M328.262,406.854c-0.234,0.287-1.163,0.797-1.629,0.797
	c-0.621,0-1.55-0.568-3.334-1.078c-1.705-0.516-4.187-1.195-7.986-1.195c-10.154,0-16.512,5.572-16.512,12.908
	c0,6.879,6.744,12.791,16.359,12.791c7.441,0,12.557-2.502,14.575-4.318v-0.457c-0.621-0.111-1.011-0.287-1.011-0.738v-6.088
	c0-0.621,0.39-0.791,1.087-0.908v-0.797h-12.791c-0.776,0-1.397-0.223-1.629-0.908h-1.087v5.461h1.087
	c0.231-0.568,0.853-0.797,1.629-0.797h5.66v4.037c-2.095,0.967-4.189,1.535-6.513,1.535c-6.592,0-10.854-3.979-10.854-8.59
	c0-4.488,3.489-9.152,10.078-9.152c4.729,0,7.907,1.652,7.907,2.9c0,0.229-0.076,0.51-0.155,0.797l0.932,0.287l4.963-6.029
	L328.262,406.854L328.262,406.854L328.262,406.854z"/>
<path fill-rule="evenodd" clip-rule="evenodd" d="M343.628,428.464c0,1.078-0.621,1.477-1.395,1.477v0.797h22.638
	c1.318,0,1.781,0.34,2.016,1.025h1.084v-6.428h-1.084c-0.234,0.967-0.697,1.424-2.016,1.424h-14.42v-6.938h8.684
	c1.315,0,1.781,0.281,2.013,1.248h1.087v-6.48h-1.087c-0.231,0.967-0.697,1.248-2.013,1.248h-8.684v-6.135h14.42
	c1.318,0,1.781,0.451,2.016,1.477h1.084v-6.48h-1.084c-0.234,0.68-0.697,1.02-2.016,1.02h-22.638v0.797
	c0.773,0,1.395,0.398,1.395,1.477V428.464L343.628,428.464L343.628,428.464z"/>
<path fill-rule="evenodd" clip-rule="evenodd" d="M388.511,430.737v-0.797c-1.008,0-1.705-0.398-1.705-1.477v-15.182h0.155
	l13.099,14.666c0.621,0.627,0.855,1.084,0.855,1.371c0,0.223-0.311,0.568-0.776,0.621v0.797h9.771v-0.797
	c-0.855,0-1.553-0.398-1.553-1.477v-20.473c0-1.078,0.697-1.477,1.553-1.477v-0.797h-9.149v0.797c0.853,0,1.55,0.398,1.55,1.477
	v14.789h-0.155l-11.162-13.025c-0.466-0.568-1.784-1.934-1.705-2.443c0-0.398,0.311-0.627,1.084-0.797v-0.797h-11.32v0.797
	c1.008,0,1.705,0.398,1.705,1.477v20.473c0,1.078-0.697,1.477-1.705,1.477v0.797H388.511L388.511,430.737L388.511,430.737z"/>
<path fill-rule="evenodd" clip-rule="evenodd" fill="#C6C7C9" d="M464.777,431.722c-16.488,11.988-59.856,22.547-59.856,22.547
	s21.349-3.82,34.931-6.955C462.278,441.29,464.777,431.722,464.777,431.722L464.777,431.722L464.777,431.722z"/>
<path fill-rule="evenodd" clip-rule="evenodd" d="M91.391,5.329c9.322,29.994,91.837,48.239,171.976,49.216
	c80.142-0.977,163.104-19.222,172.43-49.216h58.345c-5.394,24.817-4.69,39.977-4.69,39.977s-7.043-11.227-6.105-31.011h-42.896
	c-16.529,29.317-95.528,47.187-176.893,48.809h-0.374c-81.365-1.622-159.917-19.491-176.446-48.809H43.841
	c0.938,19.784-6.104,31.011-6.104,31.011s0.7-15.16-4.69-39.977H91.391L91.391,5.329z M20.797,172.25l1.77,2.525
	c32.212,46.068,31.165,55.717,29.602,111.986c-1.241,44.678-4.863,66.662-12.958,110.455c-3.034,24.141,5.117,45.439,26.732,57.176
	c4.947,2.719,13.113,4.658,21.896,6.469c30.719,6.334,62.238,11.725,92.232,20.842c32.946,10.014,52.907,17.795,83.596,33.41
	c30.687-15.615,50.503-23.396,83.448-33.41c29.994-9.117,61.515-14.508,92.232-20.842c8.783-1.811,16.951-3.75,21.896-6.469
	c21.615-11.736,29.766-33.035,26.733-57.176c-8.098-43.793-11.719-65.777-12.958-110.455c-1.57-56.495-2.619-65.993,29.991-112.544
	c0.27-0.384,0.539-0.769,0.809-1.153c15.911-22.626,18.861-38.609,14.411-65.07l-12.756,10.25
	c2.666-15.29,0.674-29.763-2.326-44.801l-11.121,14.351c0.639-19.208-5.722-31.607-13.644-48.552
	c-1.043,18.977,0.322,30.217-13.969,45.079c-8.874,9.229-18.987,13.831-32.593,15.99c-4.819,0.751-12.319,1.834-19.477,2.815
	c-6.366-0.209-13.433-15.706-20.584-20.229c-15.949-10.088-37.274-1.831-50.745,8.527c-12.65,9.725-30.46,14.486-46.14,9.848
	l-12.973-3.836c0,0,11.783,14.53,16.761,18.189c3.899,2.55,8.077,5.215,11.786,8.033c-3.829,5.958-5.991,9.901-9.519,19.159
	c5.183-0.913,7.248,0.009,10.488,0.312c-1.802,3.274-5.698,12.577-5.698,12.577s4.163-0.05,7.849,0.234
	c-4.327,4.475-6.223,6.545-9.296,16.33c0,0,12.577-13.667,26.142-18.738c-7.143-2.433-15.375-3.52-15.375-3.52
	c1.611-4.326,4.313-9.577,7.21-13.201c-1.708-0.309-8.06-0.62-11.625-0.347c2.555-5.407,5.722-9.725,9.917-13.878
	c-9.173-5.155-13.916-8.81-18.161-12.693c14.962,0.876,31.436-3.513,43.187-12.546c10.813-8.314,29.186-16.368,42.199-8.137
	c4.74,2.997,7.43,9.554,13.948,16.159c0,0-5.438,1.638-11.127,1.626c-6.29-0.013-16.081,0.264-22.087-1.6
	c0,0,12.513,6.048,20.563,7.84c-4.485,2.861-8.405,6.067-10.673,9.233c0,0,25.286-9.52,33.735-11.448l1.239-0.396l16.248-3.29
	c9.237-0.558,18.12,1.752,23.906,10.482c1.951,2.941,2.687,4.822,3.311,8.297l1.597,6.959l-4.386-1.255
	c-7.673-2.191-24.231,2.329-32.042,4.247c-14.921,3.662-22.339,25.141-14.016,37.613l0,0h0.006c1.813,2.708,4.368,4.989,7.752,6.568
	c8.974,4.189,19.605,0.709,25.767-6.565h0.003c0.993-1.172,1.869-2.44,2.602-3.791c0,0-8.048,3.23-16.017,3.788
	c-1.497,0.104-2.921,0.07-4.412,0c-8.101-0.681-14.408-5.588-9.275-21.722c3.492-10.985,15.539-10.513,25.869-12.333
	c5.561-0.979,9.653-1.211,11.71-0.623l16.556,4.739l-4.397-19.122c-1.67-9.227-7.688-16.818-15.615-21.082
	c7.966-2.547,14.42-6.916,21.264-14.036c6.454-6.709,10.5-13.008,12.812-20.442c4.251,19.314,3.229,25.978-1.538,43.424
	l17.716-21.217c1.881,16.471-0.677,29.158-5.065,44.899l19.075-14.221c1.693,20.104-7.482,35.878-17.968,51.289l-0.659,0.965
	c-9.088,13.283-19.002,26.358-23.596,41.769c-7.526,25.229-5.736,45.27-5.021,71.002c1.254,45.111,4.878,67.219,13.043,111.398
	c2.616,21.035-4.113,39.252-22.931,49.471c-8.769,4.816-37.828,9.088-48.823,11.713c-24.896,5.959-39.407,7.564-63.896,15.006
	c-32.798,9.973-51.264,21.938-81.352,37.172c-30.086-15.234-48.552-27.199-81.35-37.172c-24.488-7.441-39.001-9.047-63.895-15.006
	c-10.995-2.625-40.056-6.896-48.826-11.713c-18.817-10.219-25.544-28.436-22.929-49.471c8.164-44.18,11.791-66.287,13.043-111.398
	c0.715-25.733,2.505-45.773-5.019-71.002c-4.564-15.303-14.373-28.302-23.411-41.492c-0.429-0.63-0.86-1.258-1.288-1.89
	c-10.299-15.207-19.195-30.82-17.527-50.641l19.074,14.221c-4.389-15.741-6.943-28.428-5.065-44.899l17.717,21.217
	c-4.768-17.446-5.788-24.11-1.54-43.424c2.314,7.434,6.36,13.733,12.812,20.442c6.845,7.121,13.301,11.489,21.264,14.036
	c-7.928,4.264-13.942,11.855-15.614,21.082l-4.397,19.122l16.556-4.739c2.058-0.589,6.149-0.356,11.711,0.623
	c10.327,1.819,22.373,1.348,25.868,12.333c5.15,16.194-1.222,21.078-9.368,21.725c-1.405,0.117-2.859,0.103-4.32-0.003l0,0h-0.06
	c-7.947-0.574-15.957-3.788-15.957-3.788c0.242,0.445,2.602,3.631,2.602,3.791c6.16,7.274,16.794,10.756,25.77,6.565
	c3.39-1.581,5.946-3.864,7.758-6.573c8.326-12.467,0.905-33.946-14.014-37.608c-7.811-1.917-24.371-6.438-32.043-4.247l-4.387,1.255
	l1.6-6.959c0.623-3.475,1.359-5.355,3.309-8.297c5.783-8.73,14.669-11.041,23.908-10.482l16.248,3.29l1.238,0.396
	c8.449,1.928,33.734,11.448,33.734,11.448c-2.266-3.166-6.185-6.372-10.671-9.233c8.052-1.792,20.565-7.84,20.565-7.84
	c-6.009,1.863-15.797,1.586-22.087,1.6c-5.689,0.012-11.128-1.626-11.128-1.626c6.52-6.605,9.209-13.162,13.947-16.159
	c13.015-8.231,31.389-0.177,42.202,8.137c11.75,9.034,28.223,13.422,43.187,12.546c-4.248,3.883-8.99,7.538-18.164,12.693
	c4.195,4.153,7.364,8.471,9.918,13.878c-3.565-0.272-9.918,0.038-11.624,0.347c2.897,3.624,5.599,8.875,7.208,13.201
	c0,0-8.231,1.087-15.374,3.52c13.562,5.071,26.14,18.738,26.14,18.738c-3.073-9.785-4.97-11.855-9.294-16.33
	c3.686-0.284,7.846-0.234,7.846-0.234s-3.895-9.303-5.695-12.577c3.24-0.303,5.304-1.225,10.487-0.312
	c-3.529-9.258-5.688-13.201-9.517-19.159c3.708-2.818,7.885-5.483,11.783-8.033c4.978-3.659,16.762-18.189,16.762-18.189
	l-12.974,3.836c-15.68,4.638-33.488-0.123-46.137-9.848c-13.474-10.358-34.799-18.615-50.747-8.527
	c-7.151,4.523-14.216,20.02-20.584,20.229c-7.157-0.981-14.656-2.064-19.475-2.815c-13.607-2.159-23.72-6.762-32.593-15.99
	c-14.294-14.862-12.927-26.102-13.97-45.079c-7.922,16.945-14.281,29.344-13.642,48.552L22.04,73.443
	c-3.001,15.038-4.994,29.511-2.328,44.801l-12.756-10.25C2.56,134.136,5.387,150.051,20.797,172.25L20.797,172.25z"/>
</svg>
