<?xml version="1.0" encoding="utf-8"?>
<!-- Generator: Adobe Illustrator 13.0.2, SVG Export Plug-In . SVG Version: 6.00 Build 14948)  -->
<!DOCTYPE svg PUBLIC "-//W3C//DTD SVG 1.0//EN" "http://www.w3.org/TR/2001/REC-SVG-20010904/DTD/svg10.dtd">
<svg version="1.0" id="Ebene_1" xmlns="http://www.w3.org/2000/svg" xmlns:xlink="http://www.w3.org/1999/xlink" x="0px" y="0px"
	 width="591.753px" height="413.522px" viewBox="0 0 591.753 413.522" enable-background="new 0 0 591.753 413.522"
	 xml:space="preserve">
<path fill="#FFFFFF" d="M295.877,0C132.469,0,0,92.567,0,206.761c0,114.195,132.469,206.761,295.877,206.761
	c163.409,0,295.876-92.566,295.876-206.761C591.753,92.567,459.286,0,295.877,0z"/>
<path d="M223.786,153.923c-23.186,14.92-51.962,29.822-85.598,44.28c7.554,8.154,24.596,25.253,51.321,45.076
	c33.636-14.458,62.412-29.361,85.598-44.28C248.381,179.176,231.34,162.077,223.786,153.923z"/>
<path d="M295.877,213.374c-23.186,14.983-51.688,30.624-85.597,44.466c23.185,15.356,51.688,31.389,85.597,45.574
	c33.909-14.186,62.412-30.218,85.598-45.574C347.565,243.998,319.062,228.357,295.877,213.374z"/>
<path d="M367.968,153.923c23.186,14.92,51.962,29.822,85.598,44.28c-7.554,8.154-24.595,25.253-51.32,45.076
	c-33.637-14.458-62.413-29.361-85.599-44.28C343.372,179.176,360.415,162.077,367.968,153.923z"/>
<path fill="#E2031A" d="M223.786,142.584c-23.186,14.92-51.962,29.822-85.598,44.28c7.554,8.154,24.596,25.252,51.321,45.077
	c33.636-14.461,62.412-29.363,85.598-44.281C248.381,167.837,231.34,150.737,223.786,142.584z"/>
<path fill="#E2031A" d="M295.877,202.035c-23.186,14.982-51.688,30.623-85.597,44.467c23.185,15.354,51.688,31.386,85.597,45.574
	c33.909-14.188,62.412-30.221,85.598-45.574C347.565,232.658,319.062,217.017,295.877,202.035z"/>
<path fill="#E2031A" d="M367.968,142.584c23.186,14.92,51.962,29.822,85.598,44.28c-7.554,8.154-24.595,25.252-51.32,45.077
	c-33.637-14.461-62.413-29.363-85.599-44.281C343.372,167.837,360.415,150.737,367.968,142.584z"/>
<path d="M513.065,314.17l-52.383-102.41c-9.257,10.082-62.634,64.968-164.806,108.45c-56.396-24.004-97.927-51.48-125.381-72.979
	c-13.813-10.82-24.063-20.124-30.845-26.71c-3.392-3.293-5.918-5.906-7.588-7.69c-0.375-0.401-0.703-0.754-0.993-1.07L78.688,314.17
	h150.114l2.319-19.807c18.662,10.637,39.863,21.34,63.672,31.421l1.082,0.46l1.083-0.46c23.811-10.081,45.012-20.784,63.674-31.421
	l2.319,19.807H513.065z"/>
<path d="M434.01,144.422c-3.369-2.074-6.964-4.053-10.777-5.876l-10.928-21.364c-24.409-10.323-53.185-17.477-84.46-20.408
	l7.819,42.054c-8.149,4.479-15.146,9.875-20.938,15.244c-9.354,8.668-15.665,17.299-18.85,22.116
	c-3.186-4.817-9.498-13.448-18.85-22.116c-5.793-5.369-12.788-10.763-20.937-15.242l7.819-42.055
	c-31.274,2.931-60.051,10.085-84.46,20.408l-10.928,21.364c-3.813,1.823-7.408,3.802-10.778,5.876l-5.228,10.224
	c15.003-11.066,35.842-21.092,62.237-21.093c23.92,0,42.649,10.729,55.928,22.275c13.26,11.529,20.933,23.83,22.48,26.45
	c0.206,0.35,0.294,0.506,0.294,0.506l2.422,4.342l2.422-4.342c0,0,0.086-0.156,0.295-0.506c0.205-0.349,0.521-0.87,0.944-1.54
	c0.844-1.336,2.121-3.262,3.816-5.58c3.394-4.637,8.47-10.836,15.143-17.017c13.371-12.376,32.994-24.591,58.503-24.587
	c26.399,0.001,47.229,10.025,62.239,21.093L434.01,144.422z"/>
<path d="M94.177,75.292l11.138-6.502l14.042,24.449l26.334-15.373l-14.041-24.45l11.224-6.553l34.361,60.052l-11.224,6.552
	l-14.775-26.104l-26.334,15.374l14.775,26.104l-11.138,6.502L94.177,75.292z"/>
<path d="M189.85,78.588c2.079,6.578,7.461,13.73,15.504,11.316c4.596-1.38,7.315-5.536,9.335-9.586l8.542,4.117
	c-3.379,7.172-8.933,13.013-16.784,15.371c-12.256,3.679-24.112-3.827-28.652-18.956c-3.852-12.831,0.246-28.047,14.321-32.272
	c13.597-4.081,22.934,4.077,27.992,20.929L189.85,78.588z M206.529,64.606c-1.839-5.085-5.813-9.633-11.942-7.794
	c-5.266,1.581-7.592,8.438-6.634,13.369L206.529,64.606z"/>
<path d="M228.177,41.346l12.054-1.868l1.409,9.089l0.129,0.182c1.483-6.098,3.811-11.315,9.906-12.461
	c1.186-0.184,2.402-0.17,3.633-0.058l-0.185,11.866c-1.018-0.045-2.036-0.089-2.926,0.049c-4.645,0.72-7.467,4.698-9.125,10.317
	l4.48,30.871l-12.153,1.884L228.177,41.346z"/>
<path d="M265.765,44.932c10.747-9.298,16.31-10.651,21.706-10.8c7.496-0.207,14.521,4.3,14.791,14.094
	c0.05,1.799,0.08,2.898,0.016,4.2v14.502c-0.037,2.301-0.084,4.203-0.027,6.301c0.078,2.799,1.532,4.759,2.831,4.723
	c0.599-0.017,1.491-0.341,3.562-1.399l3.067,6.017c-5.201,3.644-8.082,4.323-10.381,4.387c-4.297,0.118-7.864-2.284-8.879-6.457
	c-3.483,4.296-7.911,6.919-12.708,7.051c-8.995,0.248-15.249-5.281-15.495-14.275c-0.224-8.095,4.78-15.233,26.469-19.431
	l-0.091-3.299c-0.155-5.597-2.583-6.629-5.981-6.536c-2.498,0.069-5.468,1.15-12.902,7.256L265.765,44.932z M290.83,61.644
	c-11.521,2.918-15.143,5.817-15.001,10.916c0.102,3.697,2.76,5.824,6.558,5.72c2.5-0.069,5.752-1.76,8.565-4.937L290.83,61.644z"/>
<path d="M355.899,82.195c-5.534,5.418-11.796,8.341-19.744,7.454c-14.309-1.597-20.252-15.942-18.898-28.064
	c1.542-13.811,11.683-26.26,26.588-24.596c7.354,0.82,12.629,4.93,16.545,10.397l-7.599,5.893c-2.804-2.828-5.33-5.424-9.604-5.901
	c-7.552-0.843-12.237,6.883-13.09,14.534c-1.176,10.533,2.84,16.917,8.9,17.593c4.471,0.499,7.752-1.851,10.855-4.422
	L355.899,82.195z"/>
<path d="M379.85,19.588l11.883,2.752l-17.501,72.914l-11.882-2.752L379.85,19.588z"/>
<path d="M405.093,79.662c-2.375,6.478-2.485,15.429,5.356,18.434c4.482,1.717,9.174,0.089,13.248-1.884l4.246,8.479
	c-7.058,3.613-15.024,4.843-22.68,1.911c-11.949-4.579-16.748-17.766-11.097-32.518c4.793-12.51,17.336-22.051,31.059-16.793
	c13.258,5.08,15.664,17.243,9.368,33.675L405.093,79.662z M426.842,78.788c1.65-5.15,1.284-11.178-4.691-13.467
	c-5.135-1.968-11.166,2.039-13.421,6.527L426.842,78.788z"/>
<path d="M439.641,107.273c2.063,4.029,4.508,7.828,8.392,10.289c3.125,1.98,6.875,2.227,9.068-1.236
	c5.406-8.529-18.612-14.519-7.803-31.577c5.566-8.782,15.78-8.464,24.056-3.219c4.898,3.104,9.73,8.178,11.497,13.795l-8.512,3.719
	c-1.271-3.41-4.108-7.338-7.232-9.318c-2.956-1.873-7.604-2.569-9.799,0.892c-5.138,8.107,18.425,15.938,8.632,31.393
	c-5.78,9.119-16.386,8.671-24.662,3.427c-5.151-3.265-9.307-7.912-12.04-13.312L439.641,107.273z"/>
<path d="M208.104,366.478l-5.967-3.27l21.797-32.882l6.319,1.33l5.675,38.665l-7.099,0.518l-1.409-11.368l-12.907-2.719
	L208.104,366.478z M225.477,338.146l-0.108-0.022l-7.702,13.478l9.05,1.907L225.477,338.146z"/>
<path d="M250.079,331.736l6.624,0.835l-5.455,40.681l-6.625-0.833L250.079,331.736z"/>
<path d="M264.376,347.372l6.616,0.227l-0.124,3.665l0.104,0.112c1.787-2.566,4.971-4.372,8.36-4.255
	c3.227,0.109,5.801,1.678,6.565,4.936c2.177-2.772,5.687-4.515,9.188-4.395c6.179,0.213,7.283,4.687,7.163,8.187
	c-0.232,6.781-0.523,13.615-0.757,20.399l-6.673-0.231l0.429-10.827c0.097-2.844,0.282-6.614,0.333-8.092
	c0.071-2.079-1.14-3.435-3.219-3.506c-1.969-0.068-4.617,2.087-5.814,3.469l-0.862,18.642l-6.617-0.229l0.427-10.825
	c0.099-2.846,0.284-6.616,0.335-8.094c0.071-2.076-1.142-3.435-3.219-3.506c-1.97-0.066-4.618,2.087-5.814,3.468l-0.862,18.645
	l-6.617-0.229L264.376,347.372z"/>
<path d="M317.316,362.274c0.321,3.763,2.338,8.229,6.923,7.905c2.62-0.185,4.571-2.079,6.137-4.001l4.067,3.225
	c-2.665,3.425-6.332,5.88-10.809,6.197c-6.987,0.492-12.419-4.938-13.028-13.564c-0.517-7.314,3.497-14.951,11.521-15.517
	c7.754-0.549,11.761,4.928,12.44,14.536L317.316,362.274z M327.902,356.808c-0.371-2.935-1.949-5.842-5.442-5.596
	c-3.004,0.214-5.067,3.596-5.147,6.345L327.902,356.808z"/>
<path d="M339.189,332.069l6.615-0.912l5.276,40.701l-6.613,0.911L339.189,332.069z"/>
<path d="M368.141,339.992c8.562-1.833,14.235,3.498,15.941,11.473c1.638,7.651-1.716,15.253-9.849,16.991
	c-8.775,1.879-14.304-3.82-15.94-11.472C356.77,349.868,360.222,341.685,368.141,339.992z M373.111,363.213
	c4.708-1.008,5.29-6.393,4.489-10.14c-1.203-5.618-3.95-8.779-8.338-7.84c-4.868,1.044-5.198,6.822-4.397,10.566
	C365.564,359.065,368.242,364.254,373.111,363.213z"/>
<path d="M541.753,206.761c0-38.94-20.918-74.663-55.757-102.579l-4.933,8.787c31.639,25.805,50.521,58.379,50.521,93.792
	c0,25.962-10.153,50.395-28.037,71.756l4.899,9.576C529.618,264.199,541.753,236.415,541.753,206.761z"/>
<path d="M390.427,345.653c0.519,1.361,0.94,2.757,1.247,4.187c0.381,1.779,0.574,3.577,0.575,5.372c0,0.137-0.012,0.274-0.014,0.411
	c28.62-8.03,54.45-19.527,76.278-33.688h-19.402C431.587,331.583,411.842,339.616,390.427,345.653z"/>
<path d="M60.168,206.761c0-34.414,17.841-66.144,47.884-91.588l-5.017-8.766C69.833,133.984,50,168.846,50,206.761
	c0,29.651,12.137,57.435,33.306,81.327l4.897-9.573C70.322,257.154,60.168,232.721,60.168,206.761z"/>
<path d="M198.117,355.219l5.849-8.822c-22.445-6.118-43.11-14.41-61.359-24.466h-19.354
	C144.722,335.859,170.06,347.211,198.117,355.219z"/>
</svg>
