<?xml version="1.0" encoding="utf-8"?>
<!-- Generator: Adobe Illustrator 13.0.2, SVG Export Plug-In . SVG Version: 6.00 Build 14948)  -->
<!DOCTYPE svg PUBLIC "-//W3C//DTD SVG 1.0//EN" "http://www.w3.org/TR/2001/REC-SVG-20010904/DTD/svg10.dtd">
<svg version="1.0" id="Ebene_1" xmlns="http://www.w3.org/2000/svg" xmlns:xlink="http://www.w3.org/1999/xlink" x="0px" y="0px"
	 width="521.18px" height="521.18px" viewBox="0 0 521.18 521.18" enable-background="new 0 0 521.18 521.18" xml:space="preserve">
<path fill-rule="evenodd" clip-rule="evenodd" fill="#FFFFFF" stroke="#FACB5D" stroke-width="1.9873" stroke-linecap="round" stroke-linejoin="round" stroke-miterlimit="2.6131" d="
	M520.187,260.59c0,143.37-116.224,259.597-259.597,259.597C117.219,520.187,0.994,403.96,0.994,260.59S117.219,0.994,260.59,0.994
	C403.963,0.994,520.187,117.22,520.187,260.59L520.187,260.59z"/>
<path fill-rule="evenodd" clip-rule="evenodd" fill="#202C81" d="M513.92,312.906c0,0-42.896,207.281-254.322,207.281
	c-208.717,0-254.325-207.281-254.325-207.281H513.92L513.92,312.906z"/>
<path fill-rule="evenodd" clip-rule="evenodd" fill="#E32219" stroke="#FACB5D" stroke-width="1.9873" stroke-linecap="round" stroke-linejoin="round" stroke-miterlimit="2.6131" d="
	M509.875,191.415l-499.499,0.12C40.96,82.244,140.536,0.994,259.599,0.994C379.017,0.994,479.599,81.626,509.875,191.415
	L509.875,191.415z"/>
<path fill-rule="evenodd" clip-rule="evenodd" fill="#FFFFFF" stroke="#FACB5D" stroke-width="1.9873" stroke-linecap="round" stroke-linejoin="round" stroke-miterlimit="2.6131" d="
	M161.628,191.415c0,0,0.248-23.692-20.61-25.43c0,0,37.992,1.49,43.207-32.281h147.05c0,0,6.354,32.281,47.675,32.281
	c0,0-20.265-0.243-20.265,25.43H161.628L161.628,191.415z"/>
<path fill-rule="evenodd" clip-rule="evenodd" fill="#EEBCBB" stroke="#FACB5D" stroke-width="1.9873" stroke-linecap="round" stroke-linejoin="round" stroke-miterlimit="2.6131" d="
	M184.225,133.704c0,0,2.73-36.75-30.791-47.178c0,0,28.059,9.437,53.634-16.141c0,0,25.081,12.168,53.14-3.971
	c0,0,22.1,16.14,53.635,3.971c0,0,21.003,21.456,51.199,16.141c0,0-31.386,2.73-33.768,47.178H184.225L184.225,133.704z"/>
<line fill="none" stroke="#FACB5D" stroke-width="1.9873" stroke-linecap="round" stroke-linejoin="round" stroke-miterlimit="2.6131" x1="205.332" y1="62.538" x2="223.607" y2="115.777"/>
<path fill-rule="evenodd" clip-rule="evenodd" fill="#FFFFFF" d="M211.643,406.02c-19.922,5.142-25.515-18.627-25.515-18.627
	c-27.148,0-26.486-17.874-26.486-17.874v-58.271h199.31v58.6c0,0-3.311,19.775-25.825,17.546c0,0-3.642,25.16-30.457,18.542
	c0,0-11.256,25.16-42.048,25.16C260.621,431.095,227.844,435.402,211.643,406.02L211.643,406.02z"/>
<path fill="none" stroke="#FACB5D" stroke-width="1.9873" stroke-linecap="round" stroke-linejoin="round" stroke-miterlimit="2.6131" d="
	M260.208,56.183v54.825 M317.763,62.538l-20.657,53.24"/>
<path fill-rule="evenodd" clip-rule="evenodd" fill="#FACB5D" d="M237.115,339.387c0,0-4.966,0.993-14.899,10.925
	c0,0-2.979,1.989,1.986,1.989c0,0,32.115-1.658,45.69,11.918c0,0,5.297,2.317,11.584,2.317c0,0,2.484,1.16,8.279-4.635
	c0,0,1.324-5.962-2.317-5.962C287.438,355.94,272.209,336.739,237.115,339.387L237.115,339.387z"/>
<path fill-rule="evenodd" clip-rule="evenodd" fill="#FACB5D" d="M215.264,359.916c0,0,1.657-4.638,4.635-4.638h12.25
	c0,0,6.787,0.829,3.807,3.809c0,0-17.382,30.627,4.469,55.459c0,0-14.237,1.986-26.486-7.286
	C213.939,407.259,202.351,384.745,215.264,359.916L215.264,359.916z"/>
<path fill-rule="evenodd" clip-rule="evenodd" fill="#FACB5D" d="M217.581,413.546c0,0,5.958,11.593,16.885,14.238
	c0,0,32.446,5.3,53.303-15.56c0,0,3.976-3.973,0-3.973c0,0-15.064,2.15-17.877-0.662
	C269.892,407.59,243.074,424.474,217.581,413.546L217.581,413.546z"/>
<path fill-rule="evenodd" clip-rule="evenodd" fill="#FACB5D" d="M242.412,431.429c0,0,49.828,15.062,65.224-32.78
	c0,0-6.293,7.617-11.259,7.617C296.376,406.266,278.5,431.429,242.412,431.429L242.412,431.429z"/>
<path fill-rule="evenodd" clip-rule="evenodd" fill="#FACB5D" d="M259.96,385.741c0,0-0.333,7.614,1.985,14.897
	c0,0,32.776,18.542,48.669-11.256c0,0,0.659-0.003-0.996-14.238c0,0-14.566,21.19-43.371,7.945
	C266.248,383.089,259.96,382.099,259.96,385.741L259.96,385.741z"/>
<path fill-rule="evenodd" clip-rule="evenodd" fill="#FACB5D" d="M239.762,358.26c0,0-16.884,29.464,2.65,54.627
	c0,0,12.416,1.491,17.216-3.311c0,0,2.317-5.962-0.662-8.938c0,0-4.636-10.925,0-30.791c0,0,5.629-7.286-3.642-10.594l-11.259-3.313
	C244.065,355.94,239.762,356.274,239.762,358.26L239.762,358.26z"/>
<path fill-rule="evenodd" clip-rule="evenodd" fill="#FACB5D" d="M243.074,336.077c0,0,41.18-8.402,53.965,16.225
	c0,0,2.048,9.384-5.13,5.13C291.909,357.431,283.465,338.725,243.074,336.077L243.074,336.077z"/>
<path fill-rule="evenodd" clip-rule="evenodd" fill="#FACB5D" d="M263.222,367.152c0,0-2.27,6.809-2.27,8.795
	c0,0-0.283,1.705,1.704,3.691c0,0,30.366,15.891,43.986-6.527c0,0,0.85-1.986,0.85-5.678c0,0-2.338-8.013-7.093-12.768
	c0,0-5.279,21.451-32.068,11.634C268.331,366.299,265.494,364.881,263.222,367.152L263.222,367.152z"/>
<path fill="none" stroke="#FACB5D" stroke-width="1.9873" stroke-linecap="round" stroke-linejoin="round" stroke-miterlimit="2.6131" d="
	M216.009,405.109l-4.367,1.409 M211.643,406.518c-19.922,5.139-25.515-18.627-25.515-18.627c-27.148,0-26.486-17.877-26.486-17.877
	 M159.642,370.014v-58.271 M5.041,311.743h509.111"/>
<path fill-rule="evenodd" clip-rule="evenodd" fill="#FACB5D" d="M131.932,213.781c-4.203,0.387-6.844,3.488-8.285,8.263
	l-24.016,77.73h-3.242l-20.174-60.428h-0.841L53.52,299.775h-3.363l-25.458-77.73c-2.042-6.198-3.242-7.488-8.285-8.263v-3.229
	h35.303v3.229c-4.323,0.387-7.683,0.643-7.683,5.421c0,1.424,0.357,2.842,0.838,4.261l14.291,46.613h0.24l14.051-39.381
	l-4.204-12.397c-1.56-2.839-2.883-4.258-8.647-4.518v-3.229h37.466v3.229c-5.165,0.387-8.646,0.517-8.646,4.906
	c0,1.55,0.961,4.648,1.682,7.102l12.848,42.996h0.242l13.329-43.898c0.359-1.292,0.839-2.711,0.839-5.423
	c0-5.295-4.203-5.423-8.285-5.682v-3.229h21.854V213.781L131.932,213.781z"/>
<path fill-rule="evenodd" clip-rule="evenodd" fill="#FACB5D" d="M162.674,297.838h-28.699v-3.1
	c4.323-1.163,6.365-1.553,6.365-7.746V249.03c0-5.81-1.8-6.713-6.365-7.617v-3.098h23.057v49.065c0,4.002,0.959,6.844,5.643,7.359
	V297.838L162.674,297.838z M148.625,208.618c5.164,0,9.248,4.518,9.248,10.069c0,5.682-4.084,9.943-9.248,9.943
	c-5.524,0-9.365-4.39-9.365-9.943C139.26,213.266,143.221,208.618,148.625,208.618L148.625,208.618z"/>
<path fill-rule="evenodd" clip-rule="evenodd" fill="#FACB5D" d="M196.058,297.838H167.36v-3.1c4.802,0,6.122-4.646,6.122-7.746
	v-65.852c0-1.419-0.239-7.49-6.122-7.49v-3.098h22.815v76.44c0,3.741,1.198,7.746,5.883,7.746V297.838L196.058,297.838z"/>
<path fill-rule="evenodd" clip-rule="evenodd" fill="#FACB5D" d="M229.442,297.838h-28.699v-3.1c4.802,0,6.123-4.646,6.123-7.746
	v-65.852c0-1.419-0.24-7.49-6.123-7.49v-3.098h22.813v76.44c0,3.741,1.201,7.746,5.886,7.746V297.838L229.442,297.838z"/>
<path fill-rule="evenodd" clip-rule="evenodd" fill="#FACB5D" d="M251.896,261.425c0-17.818,4.084-20.659,8.527-20.659
	c4.201,0,5.763,3.229,6.48,6.069c0.964,3.875,0.964,10.588,1.084,14.59H251.896L251.896,261.425z M280.477,281.696
	c-2.282,2.971-6.483,8.654-13.573,8.654c-11.404,0-14.046-13.172-14.407-24.146h30.259c-0.36-6.971-1.919-29.439-22.813-29.439
	c-13.811,0-24.737,12.138-24.737,31.247c0,22.081,12.249,31.632,24.375,31.632c9.608,0,16.452-4.128,23.779-16.14L280.477,281.696
	L280.477,281.696z"/>
<path fill-rule="evenodd" clip-rule="evenodd" fill="#FACB5D" d="M383.265,297.838h-28.579v-3.1
	c5.883-0.258,5.883-4.263,5.883-7.359v-31.247c0-4.003,0-10.718-6.483-10.718c-5.045,0-10.087,6.457-10.087,7.49v34.475
	c0,4.131,1.078,6.97,5.643,7.359v3.1h-28.099v-3.1c5.763-0.39,5.763-4.389,5.763-7.359v-31.247c0-4.132,0-10.718-6.601-10.718
	c-5.168,0-9.97,6.457-9.97,7.49v34.475c0,4.002,0.841,6.844,5.525,7.359v3.1h-28.819v-3.1c3.961-0.776,6.601-1.421,6.601-7.746
	V249.03c0-6.713-3.12-7.102-6.601-7.617v-3.098h22.934v9.296h0.24c1.682-3.098,6.964-10.846,17.051-10.846
	c10.928,0,13.931,7.103,15.732,11.234c5.405-7.619,10.808-11.234,17.771-11.234c6.606,0,16.09,4.002,16.09,18.205v32.41
	c0,3.226,0,7.23,6.006,7.359V297.838L383.265,297.838z"/>
<path fill-rule="evenodd" clip-rule="evenodd" fill="#FACB5D" d="M459.997,297.838h-42.029v-3.229
	c6.486-0.647,11.168-1.163,11.168-9.167V222.95c0-8.525-5.643-8.782-11.168-9.168v-3.229h42.029v3.229
	c-5.643,0.259-11.405,0.387-11.405,9.168v62.493c0,8.262,4.802,8.651,11.405,9.167V297.838L459.997,297.838z"/>
<path fill-rule="evenodd" clip-rule="evenodd" fill="#FACB5D" d="M506.708,297.838h-42.029v-3.229
	c6.486-0.647,11.171-1.163,11.171-9.167V222.95c0-8.525-5.646-8.782-11.171-9.168v-3.229h42.029v3.229
	c-5.643,0.259-11.405,0.387-11.405,9.168v62.493c0,8.262,4.802,8.651,11.405,9.167V297.838L506.708,297.838z"/>
<path fill="none" stroke="#FACB5D" stroke-width="1.9873" stroke-linecap="round" stroke-linejoin="round" stroke-miterlimit="2.6131" d="
	M358.952,310.75v58.6 M358.952,369.349c0,0-3.311,19.775-25.825,17.549c0,0-3.642,25.163-30.457,18.539"/>
<path fill-rule="evenodd" clip-rule="evenodd" fill="#FFFFFF" d="M196.805,483.077h-18.341v-1.283
	c5.716-0.27,5.905-1.825,5.905-6.82v-33.771h-3.391c-6.91,0-8.606,1.283-9.987,8.646h-1.507l0.376-11.481h35.426l0.375,11.481
	h-1.507c-1.318-7.433-3.076-8.646-9.986-8.646h-3.391v34.512c0,4.591,0.753,5.877,6.029,6.079V483.077L196.805,483.077z"/>
<path fill-rule="evenodd" clip-rule="evenodd" fill="#FFFFFF" d="M205.602,482.063c3.894-0.202,4.961-0.606,4.961-5.877v-15.668
	c0-3.987-1.194-4.052-2.199-4.052c-0.88,0-1.696,0.135-2.512,0.27v-1.014c3.265-1.146,6.47-2.429,9.735-3.715l0.25,0.202v23.977
	c0,4.459,0.315,5.607,4.648,5.877v1.014h-14.884V482.063L205.602,482.063z M212.634,436.946c1.885,0,3.268,1.556,3.268,3.445
	c0,1.957-1.383,3.445-3.268,3.445c-2.26,0-3.139-2.162-3.139-3.445C209.495,439.105,210.437,436.946,212.634,436.946
	L212.634,436.946z"/>
<path fill-rule="evenodd" clip-rule="evenodd" fill="#FFFFFF" d="M223.377,482.063c3.705-0.27,4.834-1.148,4.834-4.863v-32.215
	c0-3.041-0.375-4.122-2.826-4.122c-0.816,0-1.381,0.067-2.136,0.135v-1.078c3.33-0.879,6.659-1.825,9.986-2.974l0.253,0.138v40.318
	c0,3.917,1.066,4.459,4.709,4.661v1.014h-14.821V482.063L223.377,482.063z"/>
<path fill-rule="evenodd" clip-rule="evenodd" fill="#FFFFFF" d="M249.128,461.33c0.252-3.853,4.273-5.065,6.283-5.065
	c5.716,0,7.976,6.955,7.976,13.236c0,4.459-1.006,12.091-8.229,12.091c-1.569,0-6.029-0.876-6.029-3.243V461.33L249.128,461.33z
	 M243.853,479.429c0,2.499,6.595,4.321,9.735,4.321c11.619,0,15.325-10.67,15.325-16.749c0-7.228-3.58-14.994-11.181-14.994
	c-4.771,0-8.101,3.92-8.479,5.47h-0.126v-20.394l-0.313-0.138c-3.013,1.148-6.092,2.095-9.105,2.974v1.078
	c0.375-0.067,1.002-0.067,1.38-0.067c2.764,0,2.764,1.418,2.764,3.445V479.429L243.853,479.429z"/>
<path fill-rule="evenodd" clip-rule="evenodd" fill="#FFFFFF" d="M299.757,480.645c-3.393,0.946-5.78,1.893-8.733,3.038
	l-0.126-0.135v-5.602l-2.698,2.9c-2.452,2.637-5.467,2.903-6.598,2.903c-2.575,0-7.474-1.62-7.474-8.777v-17.021
	c0-4.052-2.01-4.189-3.894-4.321v-0.946h9.17v22.017c0,0.946,0.565,5.133,4.711,5.133c1.884,0,3.768-0.943,5.464-2.432
	c0.568-0.539,1.008-1.216,1.008-3.442v-15.873c0-2.701-0.252-4.119-4.652-4.254v-1.148h9.926v23.165c0,2.432,0.129,3.984,3.896,3.85
	V480.645L299.757,480.645z"/>
<path fill-rule="evenodd" clip-rule="evenodd" fill="#FFFFFF" d="M305.851,460.518c0-3.987-1.198-4.052-2.2-4.052
	c-0.882,0-1.573,0.135-2.139,0.27v-1.081c3.079-1.078,6.223-2.297,9.299-3.647l0.313,0.138v6.009h0.126
	c2.953-4.796,5.089-6.146,7.474-6.146c2.136,0,3.393,1.421,3.393,3.647c0,1.688-0.882,2.974-2.385,2.974
	c-2.2,0-2.83-2.364-4.336-2.364c-1.509,0-4.271,3.378-4.271,5.537v15.196c0,4.661,2.136,4.931,5.338,5.065v1.014h-15.07v-1.014
	c3.451-0.674,4.459-0.879,4.459-4.661V460.518L305.851,460.518z"/>
<path fill-rule="evenodd" clip-rule="evenodd" fill="#FFFFFF" d="M327.015,489.156c0-2.027,1.134-3.445,3.079-5.944
	c2.953,0.674,4.333,0.674,10.239,0.879c4.646,0.135,7.726,0.27,7.726,3.308c0,3.58-4.271,6.551-11.622,6.551
	C329.277,493.949,327.015,491.248,327.015,489.156L327.015,489.156z M330.411,459.979c0-4.526,2.449-6.079,4.711-6.079
	c5.399,0,6.407,9.05,6.407,10.942c0,1.485-0.316,6.483-4.588,6.483C332.042,471.326,330.411,465.311,330.411,459.979
	L330.411,459.979z M350.385,456.871v-2.634h-4.84c-1.002,0-2.136-0.135-3.454-0.674c-2.514-1.017-3.891-1.556-6.094-1.556
	c-4.77,0-10.802,3.243-10.802,11.282c0,3.914,2.133,7.022,5.842,8.777c-5.593,5.335-5.593,6.214-5.593,7.362
	c0,1.89,1.635,2.701,3.331,3.577c-3.205,2.435-6.155,5.203-6.155,8.241c0,3.58,4.708,6.551,11.118,6.551
	c5.654,0,16.078-3.782,16.078-11.414c0-1.89-0.879-6.888-7.6-7.225l-8.104-0.404c-1.881-0.07-4.898-0.272-4.898-1.822
	c0-1.354,2.514-4.122,3.768-4.257c0.378,0,2.637,0.337,3.396,0.337c3.516,0,9.984-2.634,9.984-9.929
	c0-3.378-0.565-4.661-1.192-6.214H350.385L350.385,456.871z"/>
<path fill="none" stroke="#FACB5D" stroke-width="1.9873" stroke-linecap="round" stroke-linejoin="round" stroke-miterlimit="2.6131" d="
	M520.187,260.59c0,143.37-116.224,259.597-259.597,259.597C117.219,520.187,0.994,403.96,0.994,260.59S117.219,0.994,260.59,0.994
	C403.963,0.994,520.187,117.22,520.187,260.59"/>
<path fill-rule="evenodd" clip-rule="evenodd" fill="#FACB5D" d="M189.709,344.716l-8.465,20.95
	c-0.643,1.591-0.984,2.634-1.022,3.129s0.108,0.973,0.438,1.436c0.33,0.457,0.983,0.885,1.957,1.277l0.589,0.24l-0.255,0.633
	l-13.471-5.443l0.258-0.633l0.68,0.272c1.091,0.442,1.92,0.63,2.489,0.563s1.022-0.293,1.368-0.668
	c0.341-0.381,0.844-1.386,1.501-3.018l5.372-13.292c0.482-1.195,0.727-1.966,0.734-2.309c0.009-0.346-0.103-0.686-0.324-1.014
	c-0.226-0.337-0.539-0.583-0.94-0.744c-0.642-0.261-1.503-0.372-2.583-0.34l-0.083-0.771l11.137-0.521L189.709,344.716
	L189.709,344.716z"/>
<path fill-rule="evenodd" clip-rule="evenodd" fill="#FACB5D" d="M199.521,357.229c-0.243-1.242-0.179-2.32,0.19-3.234
	c0.366-0.902,0.955-1.544,1.768-1.919c0.814-0.381,1.627-0.407,2.439-0.082c0.895,0.363,1.462,0.979,1.704,1.846
	c0.33,1.14,0.164,2.52-0.492,4.146c-0.374,0.926-0.829,1.731-1.364,2.417c-0.533,0.686-1.154,1.251-1.862,1.693
	C200.558,360.094,199.763,358.474,199.521,357.229L199.521,357.229z M207.242,362.453c1.084-0.636,1.868-1.559,2.355-2.763
	c0.646-1.603,0.552-3.246-0.286-4.919c-0.838-1.676-2.464-2.997-4.881-3.973c-2.505-1.014-4.736-1.16-6.697-0.442
	c-1.964,0.718-3.292,1.931-3.98,3.636c-0.521,1.292-0.699,2.54-0.529,3.75c0.167,1.204,0.984,3.006,2.449,5.396
	c-2.243,0.088-3.979,0.48-5.208,1.181c-1.229,0.697-2.12,1.731-2.672,3.097c-0.724,1.793-0.649,3.586,0.227,5.385
	c0.875,1.793,2.571,3.202,5.084,4.219c2.654,1.072,5.041,1.21,7.162,0.407c2.12-0.797,3.598-2.227,4.428-4.283
	c0.593-1.468,0.775-2.909,0.548-4.318c-0.227-1.415-1-3.152-2.32-5.218C204.72,363.469,206.16,363.085,207.242,362.453
	L207.242,362.453z M198.623,373.43c-0.476,1.178-1.16,1.978-2.052,2.402c-0.891,0.428-1.787,0.457-2.689,0.094
	c-0.582-0.234-1.077-0.639-1.484-1.21c-0.407-0.574-0.601-1.318-0.574-2.235c0.025-0.917,0.275-1.966,0.753-3.144
	c0.369-0.917,0.829-1.752,1.375-2.508c0.552-0.753,1.047-1.295,1.488-1.629c0.287-0.217,0.706-0.422,1.254-0.612
	C198.997,368.042,199.638,370.99,198.623,373.43L198.623,373.43z"/>
<path fill-rule="evenodd" clip-rule="evenodd" fill="#FACB5D" d="M321.226,364.169c-0.902,0.366-1.793,0.229-2.672-0.413
	c-1.356-0.993-2.739-3.237-4.148-6.732c-0.847-2.095-1.181-3.612-0.996-4.547c0.126-0.683,0.498-1.151,1.116-1.397
	c0.492-0.202,0.952-0.226,1.374-0.076c0.788,0.287,1.556,0.917,2.294,1.893c1.315,1.772,2.44,3.803,3.369,6.1
	c0.434,1.072,0.876,2.338,1.33,3.8C322.266,363.516,321.709,363.976,321.226,364.169L321.226,364.169z M325.158,373.495
	c1.934-2.514,3.044-5.259,3.328-8.235c0.287-2.979-0.111-5.81-1.198-8.499c-0.835-2.071-1.978-3.756-3.416-5.06
	c-1.444-1.301-2.997-2.109-4.664-2.432c-1.67-0.316-3.246-0.179-4.731,0.422c-1.386,0.56-2.566,1.485-3.542,2.774
	s-1.529,2.774-1.658,4.45c-0.126,1.676,0.146,3.352,0.826,5.027c0.973,2.417,2.385,4.063,4.23,4.934
	c1.84,0.873,3.721,0.917,5.648,0.141c0.601-0.243,1.14-0.548,1.626-0.926c0.478-0.372,1.025-0.914,1.644-1.62
	c0.384,1.928,0.434,3.747,0.144,5.461c-0.287,1.714-0.967,3.328-2.036,4.846c-1.066,1.515-2.54,2.933-4.424,4.251l0.208,0.519
	C320.552,378.024,323.224,376.005,325.158,373.495L325.158,373.495z"/>
<path fill-rule="evenodd" clip-rule="evenodd" fill="#FACB5D" d="M336.578,354.487c0.914-0.369,1.819-0.237,2.704,0.398
	c1.377,0.981,2.766,3.205,4.166,6.68c0.835,2.063,1.16,3.521,0.979,4.377c-0.182,0.858-0.563,1.403-1.143,1.638
	c-0.568,0.229-1.154,0.196-1.761-0.103c-0.844-0.419-1.761-1.371-2.751-2.862c-0.99-1.485-1.834-3.097-2.537-4.831
	c-0.325-0.806-0.779-2.101-1.365-3.885C335.505,355.164,336.074,354.692,336.578,354.487L336.578,354.487z M332.833,344.877
	c-1.948,2.493-3.111,5.256-3.492,8.285s0.003,5.977,1.157,8.833c0.788,1.939,1.887,3.589,3.305,4.939
	c1.421,1.351,2.971,2.186,4.652,2.502c1.679,0.316,3.313,0.158,4.887-0.478c1.45-0.586,2.654-1.518,3.618-2.798
	s1.509-2.766,1.635-4.45c0.123-1.688-0.152-3.372-0.835-5.057c-0.97-2.399-2.373-4.034-4.213-4.907
	c-1.846-0.867-3.721-0.917-5.64-0.141c-0.832,0.334-1.608,0.797-2.326,1.377c-0.319,0.261-0.68,0.691-1.087,1.292
	c-0.334-2.098-0.363-3.961-0.085-5.584s0.92-3.167,1.934-4.638c1.014-1.468,2.543-2.95,4.594-4.45l-0.208-0.519
	C337.41,340.457,334.779,342.384,332.833,344.877L332.833,344.877z"/>
</svg>
