<?xml version="1.0" encoding="utf-8"?>
<!-- Generator: Adobe Illustrator 13.0.2, SVG Export Plug-In . SVG Version: 6.00 Build 14948)  -->
<!DOCTYPE svg PUBLIC "-//W3C//DTD SVG 1.0//EN" "http://www.w3.org/TR/2001/REC-SVG-20010904/DTD/svg10.dtd">
<svg version="1.0" id="Ebene_1" xmlns="http://www.w3.org/2000/svg" xmlns:xlink="http://www.w3.org/1999/xlink" x="0px" y="0px"
	 width="328.054px" height="351.496px" viewBox="0 0 328.054 351.496" enable-background="new 0 0 328.054 351.496"
	 xml:space="preserve">
<path fill-rule="evenodd" clip-rule="evenodd" fill="#FFFFFF" d="M328.054,55.601L272.456,0l-1.803,1.328
	c-24.27,17.879-77.973,26.209-106.628,26.209c-28.653,0-82.355-8.33-106.62-26.209L55.603,0l-1.584,1.583L0,55.601l1.842,1.842
	c24.515,24.517,45.571,64.708,15.867,176.925c-5.863,22.154-3.495,41.891,6.848,57.07c11.686,17.15,33.406,28.023,62.816,31.443
	c54.966,6.391,68.861,17.697,74.532,25.643l2.12,2.973l2.121-2.971c5.673-7.947,19.571-19.254,74.538-25.645
	c29.408-3.42,51.129-14.293,62.813-31.441c10.346-15.182,12.711-34.918,6.844-57.072c-29.701-112.22-8.645-152.409,15.871-176.925
	L328.054,55.601L328.054,55.601z"/>
<path fill-rule="evenodd" clip-rule="evenodd" fill="#0070B8" d="M324.37,55.601L272.196,3.425
	c-24.18,17.815-77.625,26.717-108.171,26.717c-30.541,0-83.987-8.901-108.165-26.717L3.683,55.601
	c25.451,25.452,46.398,66.647,16.545,179.431c-11.452,43.27,8.81,78.441,67.446,85.264c54.72,6.361,69.992,17.803,76.352,26.717
	c6.362-8.914,21.64-20.355,76.358-26.717c58.635-6.822,78.895-41.994,67.441-85.264C277.972,122.248,298.917,81.053,324.37,55.601
	L324.37,55.601z"/>
<path fill-rule="evenodd" clip-rule="evenodd" fill="#FFFFFF" d="M296.411,208.021l-44.658-26.223
	c16.266-6.213,30.824-13.293,42.338-20.703c-0.23-2.722-0.412-5.373-0.553-7.963c0.02,0.344,0.029,0.676,0.049,1.022
	c-27.49,18.672-77.83,37.173-129.562,42.751c-64.731,6.979-127.268,34.186-145.576,56.658l3.594,2.234l122.298,71.807
	c8.858,3.504,14.563,7.236,18.505,10.863l1.46,0.863c8.889-8.746,27.422-18.232,75.518-23.822c1.244-0.145,2.459-0.32,3.674-0.492
	L84.469,221.645c23.663-8.486,51.654-15.674,80.204-18.752c0.668-0.072,1.339-0.154,2.008-0.232l134.068,78.719
	c3.514-7.186,5.309-15.342,5.309-24.264c0-6.574-0.959-13.555-2.891-20.85C300.532,226.32,298.294,216.916,296.411,208.021
	L296.411,208.021z"/>
<path fill-rule="evenodd" clip-rule="evenodd" fill="#FFFFFF" d="M78.567,150.926c-17.807,6.651-33.67,14.353-45.897,22.416
	c-0.479,3.83-1.058,7.807-1.705,11.881c0.2-1.256,0.406-2.525,0.591-3.76c26.733-19.351,78.854-39.012,132.47-44.791
	c58.161-6.272,114.575-28.876,138.718-49.702c-0.033,0.074-0.063,0.152-0.094,0.226c1.623-3.811,3.408-7.342,5.324-10.624
	l-4.271-2.33l-79.455-46.655c-21.621,4.999-44.223,7.373-60.222,7.373c-16.063,0-38.784-2.392-60.482-7.433l141.853,83.288
	c-23.447,9.042-51.666,16.478-80.921,19.74L20.236,45.863c-4.652,4.653-8.32,8.32-9.801,9.8
	c14.114,15.164,26.464,36.052,28.822,72.181L78.567,150.926L78.567,150.926z"/>
<path fill-rule="evenodd" clip-rule="evenodd" fill="#FFFFFF" d="M20.228,235.031c0.732-2.768,1.428-5.48,2.1-8.162
	C21.655,229.551,20.96,232.264,20.228,235.031L20.228,235.031z"/>
<path fill-rule="evenodd" clip-rule="evenodd" fill="#FFFFFF" d="M17.517,250.031c0.451-4.863,1.354-9.871,2.711-15
	C18.596,241.195,17.787,244.943,17.517,250.031L17.517,250.031z"/>
<path fill-rule="evenodd" clip-rule="evenodd" fill="#E64448" d="M248.517,239.072c15.063,9.035,32.641,0.799,38.24-9.092
	c5.6-9.887-6.086-28.906-23.178-16.207c3.008-21.08-19.275-22.289-25.299-12.648C232.253,210.764,233.46,230.035,248.517,239.072
	L248.517,239.072z"/>
<path fill-rule="evenodd" clip-rule="evenodd" fill="#E64448" d="M57.575,128.239c15.057,9.036,32.641,0.801,38.238-9.089
	c5.601-9.888-6.084-28.908-23.182-16.208c3.012-21.083-19.274-22.29-25.297-12.649C41.311,99.929,42.515,119.204,57.575,128.239
	L57.575,128.239z"/>
<path fill-rule="evenodd" clip-rule="evenodd" fill="#E64448" d="M181.657,64.992c15.059,9.035,32.641,0.802,38.24-9.087
	c5.6-9.892-6.088-28.909-23.182-16.21c0.385-2.7,0.352-5.072-0.008-7.139c-10.209,1.36-19.881,2.127-28.18,2.338
	C166.68,44.933,170.024,58.012,181.657,64.992L181.657,64.992z"/>
<path fill-rule="evenodd" clip-rule="evenodd" fill="#E64448" d="M296.356,91.97c-0.467-16.841-19.977-17.228-25.553-8.303
	c-3.672,5.87-4.631,15.319-1.436,23.853C279.921,102.505,289.075,97.228,296.356,91.97L296.356,91.97z"/>
<path fill-rule="evenodd" clip-rule="evenodd" fill="#E64448" d="M145.354,317.979c15.061,9.035,32.64,0.801,38.241-9.09
	c5.598-9.889-6.084-28.906-23.181-16.207c3.01-21.084-19.276-22.287-25.3-12.65C129.092,289.664,130.295,308.941,145.354,317.979
	L145.354,317.979z"/>
<path fill-rule="evenodd" clip-rule="evenodd" fill="#E64448" d="M49.58,262.564c15.061,9.033,32.641,0.797,38.242-9.09
	c5.598-9.891-6.086-28.908-23.182-16.209c0.815-5.707-0.233-9.947-2.302-12.92c-10.077,4.594-18.977,9.443-26.365,14.322
	C36.232,247.41,40.237,256.957,49.58,262.564L49.58,262.564z"/>
<path fill-rule="evenodd" clip-rule="evenodd" fill="#FFFFFF" d="M45.321,209.863c1.28-0.006,3.589-0.252,5.307-1.119
	c1.463-0.738,1.863-1.859,1.421-2.736c-0.443-0.877-1.341-1.201-3.393-1.178c-2.565,0.008-5.04-0.623-6.164-2.855
	c-1.88-3.73,0.14-7.822,4.748-10.146c2.082-1.049,3.951-1.438,5.032-1.387l0.636,4.357c-0.896,0.039-2.397,0.244-3.973,1.033
	c-1.389,0.703-2.007,1.752-1.507,2.738c0.366,0.732,1.412,0.986,3.169,0.922c2.474-0.008,5.26,0.424,6.513,2.914
	c2.065,4.098-0.285,8.074-5.058,10.438c-2.25,1.088-4.701,1.59-6.152,1.357L45.321,209.863L45.321,209.863z"/>
<path fill-rule="evenodd" clip-rule="evenodd" fill="#FFFFFF" d="M75.118,201.08c-0.925,1.063-2.63,2.285-4.815,3.221
	c-4.556,1.947-8.948,0.535-10.996-4.248c-2.806-6.551,0.008-13.818,7.012-16.814c1.58-0.68,3.067-0.959,4.038-0.975l0.421,4.725
	c-0.755,0.008-1.588,0.145-2.681,0.611c-3.838,1.643-4.845,5.951-3.363,9.416c1.097,2.561,3.266,3.148,5.262,2.291
	c1.58-0.676,2.549-1.537,3.328-2.316L75.118,201.08L75.118,201.08z"/>
<polygon fill-rule="evenodd" clip-rule="evenodd" fill="#FFFFFF" points="86.842,168.117 88.219,178.955 97.722,175.857 
	96.345,165.021 101.99,163.18 105.558,191.053 99.949,192.879 98.412,181.146 88.868,184.258 90.409,195.986 84.801,197.816 
	81.235,169.942 86.842,168.117 "/>
<path fill-rule="evenodd" clip-rule="evenodd" fill="#FFFFFF" d="M113.76,176.366c-0.056-1.886,0.889-4.492,3.549-5.168
	c1.312-0.332,2.275,0.144,2.517,1.096l0.011,0.039C120.287,174.121,118.214,175.277,113.76,176.366l0.499,4.312
	c7.832-1.775,12.187-4.778,10.938-9.702c-0.915-3.614-4.299-5.123-8.229-4.127c-7.029,1.782-9.758,9.022-8.259,14.938
	c1.288,5.082,4.939,7.494,10.5,6.086c2.145-0.543,4.865-1.656,6.835-3.379l-1.441-4.029c-1.358,1.146-3.026,2.076-5.132,2.607
	c-1.663,0.424-3.106,0.24-4.112-0.563c-0.539-0.455-0.958-1.279-1.1-1.832L113.76,176.366L113.76,176.366z"/>
<path fill-rule="evenodd" clip-rule="evenodd" fill="#FFFFFF" d="M134.277,176.015c7.923-1.309,12.445-4.049,11.49-9.037
	c-0.698-3.662-3.986-5.368-7.968-4.605c-7.121,1.361-10.275,8.425-9.129,14.423c0.987,5.148,4.49,7.773,10.121,6.697
	c2.175-0.414,4.954-1.367,7.024-2.971l-1.205-4.107c-1.422,1.068-3.138,1.895-5.271,2.301c-1.689,0.326-3.118,0.057-4.077-0.805
	C134.755,177.424,134.386,176.576,134.277,176.015l-0.244-4.332c0.055-1.888,1.152-4.433,3.851-4.948
	c1.326-0.254,2.261,0.276,2.445,1.239l0.012,0.042c0.342,1.813-1.794,2.844-6.308,3.667L134.277,176.015L134.277,176.015z"/>
<path fill-rule="evenodd" clip-rule="evenodd" fill="#FFFFFF" d="M149.321,181.105l0.681-12.118
	c0.125-3.075-0.037-6.443-0.064-8.175l5.034-0.68c0.097,1.353,0.156,2.709,0.188,4.151l0.16-0.022
	c1.022-2.865,2.963-5.025,5.68-5.395c0.408-0.053,0.778-0.061,1.104-0.104l-0.369,5.875c-0.248-0.008-0.574,0.036-0.897,0.081
	c-3.693,0.496-5.038,4.024-5.244,8.021l-0.386,7.573L149.321,181.105L149.321,181.105z"/>
<path fill-rule="evenodd" clip-rule="evenodd" fill="#FFFFFF" d="M169.612,166.447c0.15-1.881,1.377-4.37,4.094-4.75
	c1.334-0.188,2.246,0.387,2.379,1.359l0.01,0.042C176.349,164.925,174.163,165.851,169.612,166.447l0.031,4.34
	c7.98-0.913,12.631-3.426,11.922-8.459c-0.514-3.688-3.711-5.555-7.727-4.992c-7.183,1.006-10.681,7.906-9.834,13.949
	c0.728,5.194,4.098,7.988,9.779,7.193c2.188-0.307,5.01-1.121,7.158-2.616l-0.996-4.162c-1.475,0.991-3.232,1.735-5.385,2.035
	c-1.703,0.238-3.113-0.102-4.025-1.007c-0.484-0.511-0.814-1.377-0.893-1.941L169.612,166.447L169.612,166.447z"/>
<path fill-rule="evenodd" clip-rule="evenodd" fill="#FFFFFF" d="M186.116,176.248l-0.291-13.75
	c-0.045-2.586-0.166-4.777-0.297-6.593l5.09-1.068l0.324,3.32l0.078-0.015c1.311-2.913,3.512-4.589,6.08-5.128
	c3.207-0.674,5.463,0.904,6.178,4.311c0.186,0.883,0.328,2.359,0.369,3.354l0.229,11.84l-5.773,1.213l-0.238-11.293
	c-0.021-0.707-0.102-1.486-0.256-2.21c-0.293-1.398-0.973-2.264-2.459-1.95c-1.883,0.397-3.549,3.214-3.486,7.722l0.223,9.036
	L186.116,176.248L186.116,176.248z"/>
<path fill-rule="evenodd" clip-rule="evenodd" fill="#FFFFFF" d="M211.632,149.859l3.27,8.188c0.855,2.313,1.463,3.716,1.977,5.104
	l0.115-0.033c0.127-1.523,0.313-3.148,0.719-5.815l1.498-9.561l6.35-1.774l-5.34,22.289l-5.803,1.618l-8.625-18.384L211.632,149.859
	L211.632,149.859z"/>
<path fill-rule="evenodd" clip-rule="evenodd" fill="#FFFFFF" d="M234.573,155.734c7.648-2.455,11.717-5.829,10.041-10.623
	c-1.227-3.519-4.725-4.727-8.553-3.389c-6.846,2.393-8.928,9.844-6.92,15.606c1.73,4.948,5.58,7.03,11,5.139
	c2.084-0.728,4.695-2.075,6.508-3.966l-1.795-3.887c-1.248,1.263-2.826,2.333-4.877,3.05c-1.623,0.566-3.074,0.512-4.148-0.199
	C235.255,157.058,234.765,156.273,234.573,155.734l-0.875-4.249c-0.221-1.876,0.488-4.557,3.084-5.458
	c1.277-0.446,2.277-0.059,2.602,0.869l0.014,0.039c0.605,1.738-1.357,3.074-5.699,4.55L234.573,155.734L234.573,155.734z"/>
<path fill-rule="evenodd" clip-rule="evenodd" fill="#FFFFFF" d="M253.308,144.085c-0.357-1.854,0.166-4.578,2.686-5.665
	c1.24-0.534,2.27-0.221,2.656,0.682l0.018,0.038C259.399,140.832,257.534,142.305,253.308,144.085l1.174,4.178
	c7.455-2.993,11.273-6.65,9.262-11.313c-1.477-3.422-5.057-4.376-8.779-2.768c-6.654,2.871-8.201,10.454-5.785,16.057
	c2.082,4.814,6.068,6.616,11.334,4.344c2.029-0.877,4.539-2.405,6.213-4.422l-2.066-3.747c-1.158,1.347-2.654,2.528-4.646,3.39
	c-1.58,0.683-3.033,0.729-4.154,0.096c-0.602-0.364-1.15-1.111-1.377-1.636L253.308,144.085L253.308,144.085z"/>
<path fill-rule="evenodd" clip-rule="evenodd" fill="#FFFFFF" d="M272.54,148.885l-4.387-13.039
	c-0.813-2.453-1.588-4.51-2.252-6.202l4.541-2.54l1.295,3.075l0.07-0.04c0.383-3.172,1.984-5.43,4.271-6.709
	c2.861-1.604,5.488-0.771,7.186,2.268c0.441,0.786,1.018,2.153,1.355,3.09l3.752,11.231l-5.146,2.882l-3.598-10.706
	c-0.236-0.67-0.543-1.389-0.906-2.03c-0.695-1.25-1.605-1.869-2.93-1.13c-1.682,0.94-2.428,4.13-1.02,8.411l2.916,8.556
	L272.54,148.885L272.54,148.885z"/>
</svg>
