<?xml version="1.0" encoding="utf-8"?>
<!-- Generator: Adobe Illustrator 13.0.2, SVG Export Plug-In . SVG Version: 6.00 Build 14948)  -->
<!DOCTYPE svg PUBLIC "-//W3C//DTD SVG 1.0//EN" "http://www.w3.org/TR/2001/REC-SVG-20010904/DTD/svg10.dtd">
<svg version="1.0" id="Ebene_1" xmlns="http://www.w3.org/2000/svg" xmlns:xlink="http://www.w3.org/1999/xlink" x="0px" y="0px"
	 width="374.173px" height="254.927px" viewBox="0 0 374.173 254.927" enable-background="new 0 0 374.173 254.927"
	 xml:space="preserve">
<path fill-rule="evenodd" clip-rule="evenodd" fill="#E2001A" d="M187.086,241.479c95.896,0,173.638-51.049,173.638-114.016
	c0-62.969-77.742-114.016-173.638-114.016c-95.896,0-173.638,51.047-173.638,114.016C13.448,190.431,91.189,241.479,187.086,241.479
	L187.086,241.479z"/>
<polygon fill-rule="evenodd" clip-rule="evenodd" fill="#FFFFFF" points="324.554,68.441 324.554,46.775 44.389,46.775 
	44.389,68.441 324.554,68.441 "/>
<polygon fill-rule="evenodd" clip-rule="evenodd" fill="#FFFFFF" points="348.462,114.763 348.462,93.097 18.986,93.097 
	18.986,114.763 348.462,114.763 "/>
<polygon fill-rule="evenodd" clip-rule="evenodd" fill="#FFFFFF" points="348.462,161.083 348.462,139.417 18.986,139.417 
	18.986,161.083 348.462,161.083 "/>
<polygon fill-rule="evenodd" clip-rule="evenodd" fill="#FFFFFF" points="330.531,207.403 330.531,185.737 44.389,185.737 
	44.389,207.403 330.531,207.403 "/>
<path fill="#CDAF6A" d="M187.086,228.03c45.25,0,86.027-11.918,115.375-31.188c27.689-18.182,44.816-42.746,44.816-69.379
	c0-26.635-17.127-51.198-44.816-69.379c-29.348-19.271-70.125-31.189-115.375-31.189c-45.25,0-86.027,11.919-115.374,31.189
	c-27.689,18.181-44.816,42.744-44.816,69.379c0,26.633,17.127,51.197,44.816,69.379C101.059,216.112,141.836,228.03,187.086,228.03
	L187.086,228.03z M187.086,254.927c-50.646,0-96.688-13.605-130.187-35.602C21.744,196.243,0,163.798,0,127.464
	s21.744-68.779,56.899-91.863C90.397,13.604,136.44,0,187.086,0c50.646,0,96.689,13.605,130.187,35.601
	c35.156,23.084,56.9,55.529,56.9,91.863s-21.744,68.779-56.9,91.861C283.775,241.321,237.732,254.927,187.086,254.927
	L187.086,254.927z"/>
<path fill-rule="evenodd" clip-rule="evenodd" fill="#FFFFFF" d="M212.623,6.793c0,0-0.453,5.841-6.053,5.645l-9.209-0.321
	c0,0-1.986-0.194-2.051,1.673c0,0-0.568,1.973,1.92,2.061l9.215,0.196c0,0,5.596,0.32,5.662,5.556c0,0,0.273-0.737-16.654-1.204
	c0,0-6.956-0.617-6.725-7.212c0,0,0.476-6.463,8.065-6.198C196.792,6.987,210.597,7.719,212.623,6.793L212.623,6.793z"/>
<path fill-rule="evenodd" clip-rule="evenodd" fill="#FFFFFF" d="M241.292,11.045c0,0-1.063,5.761-6.611,4.98l-9.125-1.282
	c0,0-1.955-0.4-2.215,1.449c0,0-0.77,1.904,1.697,2.251l9.141,1.158c0,0,5.531,0.903,5.051,6.117c0,0,0.35-0.705-16.438-2.939
	c0,0-6.852-1.34-5.934-7.876c0,0,1.148-6.376,8.67-5.319C225.529,9.584,239.181,11.755,241.292,11.045L241.292,11.045z"/>
<path fill-rule="evenodd" clip-rule="evenodd" fill="#FFFFFF" d="M268.667,19.468c0,0-2.047,5.489-7.375,3.758l-8.764-2.847
	c0,0-1.855-0.734-2.434,1.042c0,0-1.088,1.741,1.279,2.51l8.803,2.729c0,0,5.289,1.851,3.91,6.901c0,0,0.469-0.634-15.676-5.748
	c0,0-6.516-2.51-4.477-8.786c0,0,2.236-6.081,9.461-3.734C253.396,15.292,266.464,19.801,268.667,19.468L268.667,19.468z"/>
<path fill-rule="evenodd" clip-rule="evenodd" fill="#FFFFFF" d="M294.908,29.643c0,0-2.607,5.245-7.727,2.967l-8.418-3.748
	c0,0-1.77-0.925-2.529,0.782c0,0-1.264,1.617,1.01,2.631l8.469,3.633c0,0,5.068,2.394,3.17,7.272c0,0,0.529-0.581-14.99-7.355
	c0,0-6.219-3.178-3.535-9.206c0,0,2.861-5.814,9.801-2.725C280.158,23.894,292.683,29.742,294.908,29.643L294.908,29.643z"/>
<path fill-rule="evenodd" clip-rule="evenodd" fill="#FFFFFF" d="M320.724,45.196c0,0-3.479,4.713-8.123,1.579l-7.639-5.152
	c0,0-1.582-1.217-2.627,0.331c0,0-1.527,1.373,0.537,2.767l7.709,5.048c0,0,4.576,3.237,1.857,7.712c0,0,0.625-0.479-13.484-9.846
	c0,0-5.572-4.209-1.881-9.681c0,0,3.826-5.229,10.123-0.981C307.197,36.973,318.515,44.908,320.724,45.196L320.724,45.196z"/>
<path fill-rule="evenodd" clip-rule="evenodd" fill="#FFFFFF" d="M342.447,64.238c0,0-4.246,4.037-8.275,0.145l-6.629-6.401
	c0,0-1.346-1.473-2.645-0.129c0,0-1.742,1.087,0.049,2.816l6.715,6.312c0,0,3.945,3.981,0.49,7.916c0,0,0.699-0.363-11.568-12.037
	c0,0-4.756-5.112-0.172-9.86c0,0,4.676-4.484,10.139,0.791C330.55,53.79,340.32,63.57,342.447,64.238L342.447,64.238z"/>
<path fill-rule="evenodd" clip-rule="evenodd" fill="#FFFFFF" d="M359.404,87.56c0,0-4.99,3.065-8.125-1.58l-5.152-7.639
	c0,0-1.01-1.721-2.559-0.677c0,0-1.93,0.701-0.537,2.766l5.256,7.569c0,0,3.029,4.715-1.166,7.846c0,0,0.758-0.211-8.814-14.181
	c0,0-3.59-5.99,1.881-9.681c0,0,5.508-3.413,9.754,2.883C349.941,74.866,357.464,86.465,359.404,87.56L359.404,87.56z"/>
<path fill-rule="evenodd" clip-rule="evenodd" fill="#FFFFFF" d="M368.244,116.759c0,0-5.738,1.174-7.094-4.262l-2.229-8.941
	c0,0-0.361-1.963-2.174-1.511c0,0-2.053-0.001-1.451,2.415l2.352,8.91c0,0,1.234,5.467-3.781,6.974c0,0,0.785,0.062-3.432-16.34
	c0,0-1.324-6.856,5.078-8.453c0,0,6.344-1.324,8.182,6.046C363.695,101.597,366.796,115.067,368.244,116.759L368.244,116.759z"/>
<path fill-rule="evenodd" clip-rule="evenodd" fill="#FFFFFF" d="M366.902,146.794c0,0-5.795-0.859-5.209-6.432l0.965-9.164
	c0,0,0.332-1.969-1.525-2.164c0,0-1.93-0.703-2.191,1.773l-0.838,9.178c0,0-0.711,5.559-5.938,5.26c0,0,0.717,0.326,2.363-16.528
	c0,0,1.1-6.896,7.664-6.206c0,0,6.414,0.925,5.619,8.479C367.812,130.989,366.121,144.71,366.902,146.794L366.902,146.794z"/>
<path fill-rule="evenodd" clip-rule="evenodd" fill="#FFFFFF" d="M355.521,173.397c0,0-5.051-2.967-2.42-7.914l4.326-8.137
	c0,0,1.045-1.699-0.604-2.576c0,0-1.525-1.375-2.695,0.824l-4.215,8.193c0,0-2.74,4.889-7.475,2.654c0,0,0.541,0.57,8.381-14.439
	c0,0,3.605-5.982,9.432-2.885c0,0,5.6,3.26,2.033,9.967C362.285,159.085,355.578,171.171,355.521,173.397L355.521,173.397z"/>
<path fill-rule="evenodd" clip-rule="evenodd" fill="#FFFFFF" d="M338.787,195.056c0,0-4.322-3.953-0.721-8.246l5.922-7.057
	c0,0,1.377-1.447-0.055-2.646c0,0-1.205-1.662-2.807,0.244l-5.828,7.139c0,0-3.695,4.213-7.863,1.041c0,0,0.412,0.672,11.203-12.381
	c0,0,4.768-5.102,9.824-0.859c0,0,4.799,4.354-0.082,10.172C348.38,182.462,339.304,192.89,338.787,195.056L338.787,195.056z"/>
<path fill-rule="evenodd" clip-rule="evenodd" fill="#FFFFFF" d="M317.13,212.21c0,0-3.238-4.881,1.295-8.174l7.455-5.416
	c0,0,1.684-1.07,0.586-2.582c0,0-0.768-1.904-2.783-0.441l-7.381,5.518c0,0-4.605,3.193-7.881-0.891c0,0,0.236,0.75,13.863-9.305
	c0,0,5.861-3.795,9.74,1.543c0,0,3.605,5.385-2.541,9.85C329.484,202.312,318.156,210.233,317.13,212.21L317.13,212.21z"/>
<path fill-rule="evenodd" clip-rule="evenodd" fill="#FFFFFF" d="M293.875,224.698c0,0-2.344-5.369,2.693-7.826l8.281-4.039
	c0,0,1.846-0.762,1.027-2.441c0,0-0.426-2.008-2.664-0.916l-8.227,4.15c0,0-5.092,2.346-7.607-2.246c0,0,0.104,0.779,15.27-6.756
	c0,0,6.432-2.721,9.324,3.211c0,0,2.615,5.93-4.213,9.258C307.759,217.093,295.228,222.929,293.875,224.698L293.875,224.698z"/>
<path fill-rule="evenodd" clip-rule="evenodd" fill="#FFFFFF" d="M268.931,235.729c0,0-1.768-5.584,3.498-7.5l8.658-3.152
	c0,0,1.914-0.564,1.275-2.318c0,0-0.213-2.043-2.553-1.191l-8.615,3.268c0,0-5.309,1.801-7.332-3.029c0,0,0.023,0.787,15.893-5.121
	c0,0,6.682-2.033,8.938,4.168c0,0,1.98,6.17-5.156,8.768C283.537,229.62,270.462,234.112,268.931,235.729L268.931,235.729z"/>
<path fill-rule="evenodd" clip-rule="evenodd" fill="#FFFFFF" d="M243.146,242.546c0,0-0.973-5.775,4.508-6.939l9.012-1.916
	c0,0,1.975-0.293,1.586-2.119c0,0,0.074-2.053-2.361-1.535l-8.988,2.037c0,0-5.506,1.043-6.838-4.02c0,0-0.088,0.783,16.451-2.859
	c0,0,6.898-1.084,8.27,5.371c0,0,1.104,6.385-6.326,7.963C258.458,238.528,244.886,241.159,243.146,242.546L243.146,242.546z"/>
<path fill-rule="evenodd" clip-rule="evenodd" fill="#FFFFFF" d="M216.515,247.165c0,0-0.568-5.83,4.98-6.609l9.125-1.283
	c0,0,1.99-0.152,1.73-2.002c0,0,0.217-2.043-2.25-1.697l-9.107,1.406c0,0-5.566,0.656-6.539-4.486c0,0-0.145,0.773,16.609-1.707
	c0,0,6.955-0.6,7.875,5.936c0,0,0.654,6.447-6.869,7.504C232.07,244.226,218.349,245.901,216.515,247.165L216.515,247.165z"/>
<path fill-rule="evenodd" clip-rule="evenodd" fill="#FFFFFF" d="M188.766,249.009c0,0,0.045-5.857,5.644-6.053l9.209-0.322
	c0,0,1.994,0.055,1.93-1.811c0,0,0.428-2.008-2.061-1.922l-9.205,0.445c0,0-5.603,0.07-6.035-5.146c0,0-0.223,0.756,16.697,0.041
	c0,0,6.982,0.129,7.211,6.725c0,0-0.023,6.48-7.613,6.744C204.542,247.71,190.72,247.944,188.766,249.009L188.766,249.009z"/>
<path fill-rule="evenodd" clip-rule="evenodd" fill="#FFFFFF" d="M162.379,248.103c0,0,0.452-5.842,6.053-5.645l9.209,0.32
	c0,0,1.986,0.193,2.052-1.672c0,0,0.567-1.975-1.921-2.061l-9.214-0.197c0,0-5.596-0.32-5.662-5.557c0,0-0.275,0.738,16.654,1.205
	c0,0,6.955,0.617,6.726,7.213c0,0-0.476,6.463-8.066,6.197C178.209,247.907,164.404,247.177,162.379,248.103L162.379,248.103z"/>
<path fill-rule="evenodd" clip-rule="evenodd" fill="#FFFFFF" d="M133.71,243.851c0,0,1.062-5.762,6.609-4.982l9.125,1.283
	c0,0,1.956,0.4,2.216-1.449c0,0,0.771-1.904-1.695-2.25l-9.143-1.16c0,0-5.531-0.902-5.051-6.115c0,0-0.35,0.705,16.438,2.939
	c0,0,6.853,1.34,5.935,7.875c0,0-1.148,6.377-8.67,5.32C149.474,245.312,135.822,243.14,133.71,243.851L133.71,243.851z"/>
<path fill-rule="evenodd" clip-rule="evenodd" fill="#FFFFFF" d="M106.335,235.427c0,0,2.046-5.488,7.375-3.758l8.763,2.848
	c0,0,1.856,0.734,2.434-1.043c0,0,1.09-1.74-1.279-2.51l-8.802-2.729c0,0-5.29-1.85-3.911-6.9c0,0-0.468,0.633,15.677,5.748
	c0,0,6.516,2.51,4.476,8.785c0,0-2.236,6.082-9.461,3.734C121.605,239.603,108.538,235.095,106.335,235.427L106.335,235.427z"/>
<path fill-rule="evenodd" clip-rule="evenodd" fill="#FFFFFF" d="M80.094,225.253c0,0,2.607-5.246,7.727-2.967l8.418,3.748
	c0,0,1.77,0.924,2.529-0.783c0,0,1.265-1.617-1.01-2.631l-8.469-3.633c0,0-5.068-2.393-3.168-7.271c0,0-0.532,0.58,14.989,7.354
	c0,0,6.218,3.178,3.534,9.207c0,0-2.861,5.814-9.8,2.725C94.845,231.001,82.319,225.151,80.094,225.253L80.094,225.253z"/>
<path fill-rule="evenodd" clip-rule="evenodd" fill="#FFFFFF" d="M54.277,209.698c0,0,3.479-4.713,8.124-1.578l7.639,5.152
	c0,0,1.583,1.217,2.627-0.332c0,0,1.526-1.373-0.537-2.766l-7.709-5.049c0,0-4.576-3.236-1.858-7.711c0,0-0.623,0.479,13.485,9.846
	c0,0,5.571,4.209,1.881,9.68c0,0-3.826,5.229-10.124,0.982C67.805,217.923,56.486,209.987,54.277,209.698L54.277,209.698z"/>
<path fill-rule="evenodd" clip-rule="evenodd" fill="#FFFFFF" d="M32.557,190.657c0,0,4.244-4.037,8.274-0.145l6.628,6.4
	c0,0,1.347,1.473,2.645,0.129c0,0,1.742-1.086-0.049-2.816l-6.715-6.311c0,0-3.944-3.982-0.49-7.916c0,0-0.699,0.363,11.569,12.037
	c0,0,4.756,5.111,0.172,9.859c0,0-4.677,4.484-10.141-0.791C44.45,201.104,34.681,191.323,32.557,190.657L32.557,190.657z"/>
<path fill-rule="evenodd" clip-rule="evenodd" fill="#FFFFFF" d="M15.598,167.335c0,0,4.991-3.064,8.125,1.58l5.152,7.639
	c0,0,1.011,1.721,2.56,0.678c0,0,1.93-0.701,0.537-2.766l-5.256-7.57c0,0-3.03-4.715,1.167-7.846c0,0-0.759,0.211,8.813,14.182
	c0,0,3.59,5.988-1.882,9.68c0,0-5.507,3.414-9.754-2.883C25.061,180.028,17.538,168.431,15.598,167.335L15.598,167.335z"/>
<path fill-rule="evenodd" clip-rule="evenodd" fill="#FFFFFF" d="M6.757,138.136c0,0,5.739-1.174,7.095,4.262l2.229,8.941
	c0,0,0.36,1.963,2.173,1.512c0,0,2.054,0,1.451-2.416l-2.35-8.91c0,0-1.235-5.467,3.778-6.973c0,0-0.785-0.063,3.434,16.34
	c0,0,1.324,6.855-5.079,8.451c0,0-6.343,1.326-8.181-6.045C11.308,153.298,8.206,139.827,6.757,138.136L6.757,138.136z"/>
<path fill-rule="evenodd" clip-rule="evenodd" fill="#FFFFFF" d="M8.1,108.101c0,0,5.794,0.859,5.209,6.432l-0.964,9.164
	c0,0-0.332,1.969,1.525,2.163c0,0,1.93,0.704,2.19-1.772l0.839-9.177c0,0,0.71-5.56,5.937-5.261c0,0-0.717-0.326-2.363,16.529
	c0,0-1.101,6.895-7.664,6.205c0,0-6.413-0.924-5.619-8.479C7.189,123.905,8.883,110.186,8.1,108.101L8.1,108.101z"/>
<path fill-rule="evenodd" clip-rule="evenodd" fill="#FFFFFF" d="M19.481,81.496c0,0,5.05,2.968,2.419,7.915l-4.325,8.137
	c0,0-1.046,1.7,0.604,2.577c0,0,1.525,1.374,2.694-0.824l4.216-8.194c0,0,2.741-4.889,7.475-2.653c0,0-0.543-0.571-8.383,14.439
	c0,0-3.604,5.981-9.43,2.884c0,0-5.601-3.26-2.034-9.967C12.717,95.81,19.425,83.724,19.481,81.496L19.481,81.496z"/>
<path fill-rule="evenodd" clip-rule="evenodd" fill="#FFFFFF" d="M36.215,59.84c0,0,4.323,3.952,0.722,8.245l-5.923,7.058
	c0,0-1.376,1.446,0.055,2.646c0,0,1.206,1.662,2.807-0.245l5.828-7.139c0,0,3.696-4.212,7.863-1.041c0,0-0.413-0.671-11.202,12.381
	c0,0-4.769,5.102-9.824,0.859c0,0-4.8-4.353,0.083-10.171C26.623,72.434,35.697,62.006,36.215,59.84L36.215,59.84z"/>
<path fill-rule="evenodd" clip-rule="evenodd" fill="#FFFFFF" d="M57.872,42.684c0,0,3.238,4.882-1.295,8.176l-7.455,5.415
	c0,0-1.685,1.07-0.587,2.582c0,0,0.769,1.904,2.783,0.44l7.381-5.517c0,0,4.606-3.192,7.882,0.892c0,0-0.237-0.751-13.865,9.304
	c0,0-5.86,3.796-9.739-1.543c0,0-3.604-5.385,2.541-9.849C45.518,52.584,56.846,44.661,57.872,42.684L57.872,42.684z"/>
<path fill-rule="evenodd" clip-rule="evenodd" fill="#FFFFFF" d="M81.128,30.197c0,0,2.342,5.369-2.694,7.825l-8.281,4.039
	c0,0-1.846,0.762-1.027,2.441c0,0,0.426,2.008,2.664,0.916l8.228-4.15c0,0,5.091-2.345,7.607,2.247c0,0-0.104-0.78-15.271,6.755
	c0,0-6.431,2.72-9.323-3.211c0,0-2.614-5.929,4.212-9.258C67.242,37.802,79.774,31.966,81.128,30.197L81.128,30.197z"/>
<path fill-rule="evenodd" clip-rule="evenodd" fill="#FFFFFF" d="M106.07,19.165c0,0,1.768,5.585-3.498,7.501l-8.658,3.15
	c0,0-1.915,0.565-1.275,2.32c0,0,0.213,2.042,2.553,1.19l8.616-3.269c0,0,5.309-1.799,7.331,3.03c0,0-0.021-0.787-15.892,5.121
	c0,0-6.681,2.034-8.938-4.167c0,0-1.979-6.17,5.158-8.768C91.467,25.275,104.539,20.782,106.07,19.165L106.07,19.165z"/>
<path fill-rule="evenodd" clip-rule="evenodd" fill="#FFFFFF" d="M131.856,12.348c0,0,0.973,5.776-4.508,6.94l-9.013,1.916
	c0,0-1.975,0.293-1.586,2.119c0,0-0.073,2.053,2.362,1.535l8.986-2.037c0,0,5.508-1.044,6.838,4.02c0,0,0.089-0.782-16.449,2.86
	c0,0-6.899,1.084-8.271-5.371c0,0-1.103-6.385,6.327-7.964C116.544,16.366,130.114,13.736,131.856,12.348L131.856,12.348z"/>
<path fill-rule="evenodd" clip-rule="evenodd" fill="#FFFFFF" d="M158.486,7.729c0,0,0.568,5.83-4.98,6.609l-9.125,1.282
	c0,0-1.99,0.154-1.729,2.003c0,0-0.217,2.043,2.249,1.697l9.107-1.406c0,0,5.566-0.656,6.541,4.487c0,0,0.142-0.774-16.609,1.706
	c0,0-6.957,0.6-7.876-5.936c0,0-0.654-6.446,6.867-7.503C142.931,10.67,156.652,8.993,158.486,7.729L158.486,7.729z"/>
<path fill-rule="evenodd" clip-rule="evenodd" fill="#FFFFFF" d="M186.237,5.886c0,0-0.045,5.857-5.646,6.053l-9.208,0.322
	c0,0-1.995-0.055-1.931,1.811c0,0-0.428,2.009,2.062,1.922l9.204-0.446c0,0,5.604-0.07,6.035,5.147c0,0,0.223-0.756-16.697-0.04
	c0,0-6.98-0.13-7.211-6.726c0,0,0.022-6.479,7.613-6.744C170.459,7.185,184.28,6.951,186.237,5.886L186.237,5.886z"/>
<path fill-rule="evenodd" clip-rule="evenodd" fill="#FFFFFF" d="M59.33,190.22c0,0,62.758-21.666,48.563-160.628l261.488,92.642
	L59.33,190.22L59.33,190.22z"/>
<path d="M59.409,190.585l-0.207-0.715c0.179-0.066,62.485-21.568,48.319-160.24l-0.06-0.586l0.555,0.196l261.489,92.642
	l-0.045,0.717L59.409,190.585L59.409,190.585z M62.629,189.116l305.396-66.968l-259.706-92.01
	C120.412,150.087,75.206,182.497,62.629,189.116L62.629,189.116z"/>
<path fill-rule="evenodd" clip-rule="evenodd" fill="#FFFFFF" d="M99.675,19.506l13.447,4.482c0,0,3.362-7.098-4.482-8.966
	C108.64,15.022,102.289,12.906,99.675,19.506L99.675,19.506z"/>
<path d="M100.176,19.279l12.737,4.246c0.515-1.333,2.093-6.603-4.359-8.14l-0.029-0.008
	C108.508,15.372,102.744,13.452,100.176,19.279L100.176,19.279z M99.558,19.86l-0.375-0.125l0.145-0.366
	c2.643-6.671,8.92-4.858,9.398-4.71c8.292,1.975,4.744,9.464,4.735,9.484l-0.14,0.305l-0.316-0.105L99.558,19.86L99.558,19.86z"/>
<path fill-rule="evenodd" clip-rule="evenodd" d="M107.768,22.121l5.354,1.867c0,0,3.238-7.596-5.354-9.214
	C107.768,14.774,110.632,19.319,107.768,22.121L107.768,22.121z"/>
<polygon fill-rule="evenodd" clip-rule="evenodd" fill="#FFFFFF" points="109.138,22.618 53.503,211.886 47.501,210.019 
	103.659,20.875 109.138,22.618 "/>
<path d="M109.599,22.374l-0.104,0.35L53.86,211.991l-0.106,0.363l-0.362-0.111l-6.002-1.867l-0.351-0.109l0.104-0.354
	l56.158-189.143l0.108-0.366l0.361,0.115l5.479,1.743L109.599,22.374L109.599,22.374z M108.677,22.864l-4.77-1.518L47.963,209.772
	l5.289,1.645L108.677,22.864L108.677,22.864z"/>
<polygon points="107.826,22.145 52.041,211.04 50.184,210.493 105.967,21.598 107.826,22.145 "/>
<path fill-rule="evenodd" clip-rule="evenodd" d="M141.351,100.848h2.936c3.477,0,5.771,0.456,6.887,1.366
	c1.11,0.91,1.363,2.439,0.757,4.588c-0.626,2.218-1.76,3.788-3.398,4.71c-1.638,0.922-4.195,1.384-7.679,1.384h-2.758
	L141.351,100.848L141.351,100.848z M122.835,100.381h6.537l-11.883,40.716h13.093l4.484-16.902h2.583h2.44
	c4.404,0,7.676-0.244,9.814-0.735c2.141-0.489,4.109-1.295,5.912-2.417c2.391-1.494,4.429-3.403,6.116-5.728
	c1.691-2.323,2.992-5.016,3.896-8.075c0.85-2.872,1.106-5.482,0.767-7.83c-0.346-2.347-1.282-4.304-2.809-5.867
	c-1.302-1.355-3.09-2.313-5.365-2.874c-2.279-0.56-6.437-0.84-12.475-0.84h-16.861L122.835,100.381L122.835,100.381z"/>
<polygon fill-rule="evenodd" clip-rule="evenodd" points="235.25,89.828 254.652,89.828 224.082,141.097 210.429,141.097 
	206.115,89.828 219.57,89.828 220.753,123.88 233.929,101.964 228.923,101.875 235.25,89.828 "/>
<path fill-rule="evenodd" clip-rule="evenodd" d="M195.865,91.415l1.307-1.867l7.471,4.109l-6.91,10.833
	c0,0-5.604-4.483-11.766-5.417c0,0-5.043,0-5.043,4.67c0,0,0.187,3.175,7.283,7.471c0,0,7.471,4.296,7.471,11.953
	c0,0,0.561,17.93-20.731,17.93c0,0-10.087,0.936-18.305-10.084l8.405-8.405c0,0,3.735,6.349,9.899,6.349
	c0,0,6.536,0.748,6.536-5.041c0,0,0.188-2.802-5.416-6.538c0,0-7.657-4.855-7.657-12.514c0,0,0.373-16.25,18.117-16.25
	C186.526,88.613,192.128,88.613,195.865,91.415L195.865,91.415z"/>
</svg>
