<?xml version="1.0" encoding="utf-8"?>
<!-- Generator: Adobe Illustrator 13.0.2, SVG Export Plug-In . SVG Version: 6.00 Build 14948)  -->
<!DOCTYPE svg PUBLIC "-//W3C//DTD SVG 1.0//EN" "http://www.w3.org/TR/2001/REC-SVG-20010904/DTD/svg10.dtd">
<svg version="1.0" id="Ebene_1" xmlns="http://www.w3.org/2000/svg" xmlns:xlink="http://www.w3.org/1999/xlink" x="0px" y="0px"
	 width="500.68px" height="555.499px" viewBox="0 0 500.68 555.499" enable-background="new 0 0 500.68 555.499"
	 xml:space="preserve">
<path fill="#004186" d="M500.68,105.5L410.18,0H90.5L0,105.5c0,0,36.5,32.427,36.5,72.5c0,45.5-34.274,44-34.274,113.377
	c0,69.623,49.494,100.714,106.456,144.04c43.407,33.016,94.371,68.833,141.657,120.082l0.01-0.009
	c47.284-51.244,98.245-87.059,141.648-120.073c56.961-43.326,106.456-74.417,106.456-144.04C498.454,222,464.18,223.5,464.18,178
	C464.18,137.927,500.68,105.5,500.68,105.5z"/>
<path fill="#FFFFFF" d="M127.955,314.739c-1.101,1.631-2.218,3.104-3.565,4.475c-1.347,1.388-2.877,2.591-4.494,3.708
	c8.097,7.484,15.95,15.037,23.635,22.92c15.56,15.952,29.147,31.688,16.378,44.648c-10.364,10.525-19.292,12.771-39.696-8.161
	c-9.7-9.945-18.317-18.939-28.147-31.135c-1.898,2.435-3.967,4.874-6.112,7.068c-2.162,2.18-4.56,4.282-6.97,6.204
	c2.917,2.668,8.685,8.262,17.538,17.345c6.031,6.173,10.375,10.962,19.41,20.229c15.72,16.118,32.598,11.776,46.235-2.07
	c15.486-15.71,15.515-32.136-3.889-52.017C143.821,333.12,132.414,320.287,127.955,314.739z"/>
<path fill="#FFFFFF" d="M192.903,319.282l-20.905-21.441c-3.186-3.258-6.185-6.34-7.201-7.705
	c3.197-3.242,10.385-9.536,15.286-13.301c-1.494-1.044-2.829-2.089-4.075-3.378c-1.258-1.278-2.275-2.643-3.279-4.17
	c-6.542,7.139-9.946,10.948-19.849,21c-9.891,10.043-13.642,13.514-21.15,20.634c1.5,1.044,2.817,2.076,4.07,3.361
	c1.258,1.291,2.274,2.655,3.278,4.176c4.209-5.451,10.411-12.775,13.519-15.929c1.406,0.951,4.422,4.042,7.59,7.306l20.904,21.426
	c9.365,9.614,15.648,16.381,22.523,24.403c1.579-1.948,3.488-4.389,6.13-7.067c2.629-2.667,5.021-4.6,6.958-6.216
	C208.857,335.33,202.255,328.882,192.903,319.282z"/>
<path fill="#FFFFFF" d="M228.022,241.476c-4.932-5.065-10.614-6.813-16.233-6.059c-4.876,0.683-8.582,2.911-16.63,11.094
	c-5.431,5.51-8.439,9.413-11.317,12.338c-2.629,2.667-5.033,4.6-6.959,6.216c7.834,7.051,14.448,13.49,23.807,23.105l11.363,11.651
	c9.363,9.613,15.647,16.376,22.529,24.4c1.579-1.948,3.488-4.389,6.129-7.067c2.624-2.667,5.027-4.602,6.952-6.213
	c-7.838-7.055-14.435-13.495-23.799-23.095l-3.426-3.518l0.714-0.733l40.87,12.779c2.222-2.605,4.45-5.378,6.832-7.8
	c2.394-2.438,5.039-4.617,7.602-6.872c-15.266-3.765-30.863-7.388-45.415-11.902C236.847,259.646,236.128,249.784,228.022,241.476z
	 M218.758,279.027c-0.549,0.563-1.199,1.05-1.919,1.614c-7.613-7.812-15.049-15.606-22.496-23.564
	c8.685-8.835,13.442-11.447,23.312-1.333C225.515,263.813,225.783,271.901,218.758,279.027z"/>
<path fill="#FFFFFF" d="M305.579,244.803c-1.758-1.803-2.438-2.833-3.454-4.183c-5.381,7-11.19,13.583-17.175,19.664
	c-3.512-3.272-7.174-6.884-10.689-10.476c-3.603-3.688-7.118-7.465-10.622-11.057c6.062-6.157,12.301-11.975,18.862-17.618
	c-2-1.557-2.9-2.163-3.834-3.108c-1.076-1.118-1.758-1.967-3.367-4.275c-5.715,6.502-10.656,11.867-17.428,19.085
	c-6.107-6.261-12.121-12.446-17.839-19.107c2.404-2.426,12.553-11.551,19.039-17.27c-1.406-1.128-2.324-1.735-4.087-3.531
	c-1.488-1.544-2.345-2.74-3.186-3.928c-1.91,2.435-8.439,9.416-16.256,17.354c-4.698,4.779-9.824,9.294-14.622,13.985
	c7.844,7.066,14.441,13.494,23.799,23.108l11.387,11.662c9.359,9.598,15.625,16.365,22.506,24.399
	c1.596-1.958,3.488-4.399,16.5-17.607c7.338-7.434,11.424-10.912,14.379-13.744C308.319,247.294,307.326,246.593,305.579,244.803z"
	/>
<path fill="#FFFFFF" d="M347.643,188.28c0.323,7.323-3.063,15.899-8.175,21.084c-9.169,9.308-25.679,12.245-42.904-5.416
	c-17.718-18.181-15.84-35.957-7.302-44.626c5.667-5.757,11.983-7.563,21.162-6.296l1.111-1.143
	c-2.615-3.153-4.976-6.717-6.704-10.605c-5.992,1.324-14.774,6.661-20.364,12.33c-16.74,17-22.793,41.245,0.274,64.903
	c15.802,16.206,38.848,17.551,57.36-1.25c6.541-6.642,10.707-13.594,12.598-20.293c-2.104-2.641-3.887-5.782-5.353-9.072
	L347.643,188.28z"/>
<path fill="#FFFFFF" d="M389.836,119.313l-11.381-11.658c-9.358-9.597-15.648-16.365-22.511-24.408
	c-1.59,1.956-3.506,4.403-6.129,7.088c-2.642,2.667-5.034,4.587-6.959,6.201c7.745,6.972,14.353,13.42,23.623,22.94
	c-2.937,3.151-6.21,6.641-11.872,12.396c-5.666,5.746-9.571,9.556-12.371,12.221c-9.288-9.52-15.554-16.287-22.359-24.237
	c-1.578,1.97-3.488,4.403-6.117,7.07c-2.642,2.686-5.034,4.62-6.971,6.219c7.844,7.06,14.447,13.494,23.8,23.107l11.381,11.663
	c9.364,9.6,15.635,16.378,22.511,24.4c1.602-1.959,3.494-4.4,6.128-7.067c2.642-2.678,5.04-4.617,6.958-6.213
	c-7.827-7.065-14.423-13.499-23.799-23.113l-4.762-4.883c3.906-4.309,7.795-8.602,11.783-12.658
	c4.077-4.129,8.307-7.925,12.46-11.959l4.761,4.885c9.377,9.598,15.66,16.364,22.536,24.399c1.578-1.949,3.494-4.4,6.117-7.066
	c2.629-2.679,5.033-4.6,6.958-6.213C405.791,135.36,399.2,128.911,389.836,119.313z"/>
<path fill="#FFFFFF" d="M421.275,87.382l-20.903-21.434c-3.182-3.267-6.19-6.341-7.195-7.709
	c3.196-3.246,10.385-9.522,15.286-13.302c-1.494-1.044-2.824-2.077-4.088-3.367c-1.24-1.29-2.257-2.655-3.279-4.173
	c-6.523,7.129-9.951,10.952-19.837,20.995c-9.886,10.04-13.647,13.528-21.15,20.627c1.481,1.045,2.817,2.092,4.069,3.382
	c1.258,1.271,2.263,2.639,3.278,4.17c4.209-5.466,10.399-12.779,13.506-15.929c1.407,0.952,4.422,4.032,7.602,7.291l20.892,21.442
	c9.377,9.603,15.661,16.366,22.536,24.403c1.579-1.948,3.488-4.403,6.112-7.082c2.635-2.664,5.038-4.584,6.958-6.201
	C437.237,103.43,430.64,96.984,421.275,87.382z"/>
<path fill="#FFFFFF" d="M396.848,29H103.83l-65.368,76.203c6.634,8.812,13.841,20.137,19.312,33.922
	c4.458,11.311,7.719,24.425,7.726,38.875c0.042,12.636-2.145,24.079-5.725,33.666c-3.557,9.612-8.116,17.052-11.817,23.016
	c-2.499,4-4.676,7.413-6.529,10.707c-2.471,4.404-4.45,8.573-6.156,14.019c-2.237,7.231-4.032,16.977-4.046,31.97
	c0.008,10.484,1.37,19.242,3.72,27.103c2.365,7.857,5.735,14.888,10.236,21.805c5.387,8.315,12.622,16.476,21.465,24.792L396.848,29
	L396.848,29z"/>
<path fill="#E2001E" d="M453.542,235.992c-3.209-5.15-7.111-11.328-10.574-19.211c-4.678-10.485-7.875-23.815-7.788-38.781
	c0.008-14.45,3.268-27.564,7.725-38.875c4.48-11.333,10.176-20.983,15.72-28.965c1.208-1.729,2.41-3.383,3.593-4.956
	L145.886,427.163c32.272,24.25,68.673,51.677,104.454,86.732c43.255-42.38,87.425-73.615,124.101-101.56
	c16.338-12.419,31.551-23.5,44.544-34.143c13.015-10.635,23.723-20.8,31.622-31.045c5.284-6.844,9.37-13.69,12.42-21.061
	c4.035-9.837,6.398-20.725,6.426-34.71c-0.029-16.884-2.26-27.058-4.922-34.594C461.823,249.233,458.437,243.785,453.542,235.992z"
	/>
<path fill="#E2001E" d="M125.746,114.596c0-20.27-0.36-34.188-1.451-50.112c10.682,0.195,21.52,0.915,32.202,0.915
	c17.711,0,32.916-0.363,37.792-0.915c-0.366,2.18-0.72,4.349-0.72,7.602c0,3.809,0.354,5.425,0.72,8.139
	c-13.747-0.896-35.447-2.162-40.87-2.162c-0.912,13.198-0.912,26.213-0.912,39.417c15.745-0.363,27.32-0.72,41.062-1.436
	c-0.72,4.15-0.9,5.779-0.9,8.136c0,1.991,0.36,3.62,0.9,7.414c-13.741-1.092-27.308-1.631-41.062-1.631v9.23
	c0,20.254,0.372,34.179,1.452,50.097c-3.977-0.363-8.859-0.896-14.833-0.896c-5.962,0-10.844,0.534-14.833,0.896
	c1.091-15.918,1.451-29.842,1.451-50.097V114.596"/>
<path fill="#FFFFFF" d="M390.653,371.13c-1.895,4.822-3.263,9.821-3.791,14.634c-9.128,4.822-21.004,7.582-35.129,7.582
	c-39.951,0-63.535-24.975-63.535-57.507c0-47.53,32.196-65.784,68.357-65.784c12.05,0,27.218,3.611,35.129,8.433
	c-2.231,5.692-3.449,11.72-3.964,17.559h-2.405c-8.619-10.661-17.382-15.318-29.617-15.318c-18.431,0-39.268,16.014-39.268,52.52
	c0,35.474,21.017,49.416,40.821,49.416c11.012,0,23.758-5.164,31.165-12.904L390.653,371.13"/>
</svg>
