<?xml version="1.0" encoding="utf-8"?>
<!-- Generator: Adobe Illustrator 13.0.2, SVG Export Plug-In . SVG Version: 6.00 Build 14948)  -->
<!DOCTYPE svg PUBLIC "-//W3C//DTD SVG 1.0//EN" "http://www.w3.org/TR/2001/REC-SVG-20010904/DTD/svg10.dtd">
<svg version="1.0" id="Laag_3" xmlns="http://www.w3.org/2000/svg" xmlns:xlink="http://www.w3.org/1999/xlink" x="0px" y="0px"
	 width="398px" height="398px" viewBox="0 0 398 398" enable-background="new 0 0 398 398" xml:space="preserve">
<g>
	<g>
		<g>
			<path fill="#00774D" d="M199,0C89.095,0,0,89.095,0,199s89.095,199,199,199c109.905,0,199-89.095,199-199S308.905,0,199,0z
				 M199,354.219c-85.726,0-155.22-69.494-155.22-155.219c0-85.726,69.494-155.22,155.22-155.22
				c85.727,0,155.22,69.494,155.22,155.22C354.22,284.726,284.727,354.219,199,354.219z"/>
		</g>
	</g>
	<path fill="#00774D" d="M116.544,241.646c0,0-1.855,5.938,7.052,11.505s63.464,39.341,63.464,39.341s11.876,8.537,25.609-0.742
		c13.732-9.278,66.062-41.196,66.062-41.196s3.342-2.599,3.342-5.567s0-6.309,0-6.309s-0.373-3.34-4.084-3.34s-154.022,0-154.022,0
		V203.79H307.31c0,0,7.053,2.227,7.053,7.423s0,44.166,0,44.166s1.484,6.68-7.795,12.248c-9.277,5.567-94.64,58.64-94.64,58.64
		s-13.732,6.311-26.722-1.855c-11.665-7.332-92.414-55.671-92.414-55.671s-9.649-4.454-9.649-15.588s-0.311-98.85-0.311-109.983
		s9.649-15.588,9.649-15.588s80.75-48.339,92.414-55.671c12.99-8.165,26.722-1.855,26.722-1.855s85.362,53.073,94.641,58.64
		s7.794,12.248,7.794,12.248s0,38.97,0,44.166S307,192.529,307,192.529H123.657v-31.547c0,0,150.312,0,154.023,0
		s4.083-3.34,4.083-3.34s0-3.34,0-6.309s-3.341-5.567-3.341-5.567s-52.33-31.918-66.063-41.196s-25.609-0.743-25.609-0.743
		s-54.558,33.774-63.465,39.341s-7.052,11.505-7.052,11.505L116.544,241.646z"/>
	<g>
		<path fill="#FFFFFF" d="M55.384,271.102L70.5,292.549l-6.258,4.411l-8.976-12.734l-5.086,3.584l7.667,10.876l-5.88,4.146
			L44.3,291.956l-11.9,8.388l-6.141-8.713L55.384,271.102z"/>
		<path fill="#FFFFFF" d="M71.265,324.314l4.252,8.776c-2.399,1.398-4.72,2.229-6.962,2.495c-2.243,0.264-4.383-0.014-6.42-0.832
			c-2.038-0.818-4.112-2.35-6.221-4.592c-2.56-2.721-4.24-5.328-5.043-7.824s-0.76-5.342,0.127-8.537
			c0.887-3.194,2.941-6.307,6.163-9.338c4.295-4.041,8.632-6.045,13.011-6.012c4.379,0.031,8.464,2.063,12.255,6.092
			c2.966,3.154,4.637,6.254,5.013,9.301c0.376,3.048-0.393,6.297-2.306,9.75l-8-5.349c0.565-0.982,0.908-1.776,1.028-2.382
			c0.207-1.01,0.181-1.984-0.078-2.921s-0.752-1.792-1.48-2.566c-1.649-1.753-3.645-2.407-5.985-1.965
			c-1.75,0.315-3.787,1.567-6.111,3.754c-2.879,2.709-4.457,4.986-4.732,6.833s0.304,3.533,1.74,5.059
			c1.392,1.479,2.875,2.193,4.448,2.141C67.535,326.142,69.303,325.515,71.265,324.314z"/>
		<path fill="#FFFFFF" d="M104.792,353.392l4.044-6.213l13.747,8.948l-8.287,12.731c-3.843,0.147-6.995-0.102-9.455-0.745
			c-2.46-0.646-5.078-1.87-7.854-3.677c-3.417-2.225-5.809-4.643-7.176-7.252c-1.367-2.611-1.865-5.496-1.494-8.658
			c0.371-3.16,1.564-6.289,3.58-9.387c2.121-3.258,4.615-5.672,7.48-7.238c2.865-1.567,5.955-2.162,9.269-1.783
			c2.578,0.306,5.517,1.531,8.816,3.68c3.182,2.07,5.367,3.918,6.555,5.543s1.894,3.404,2.117,5.338s-0.031,4.035-0.762,6.304
			l-9.616-3.997c0.38-1.357,0.342-2.609-0.113-3.757c-0.456-1.147-1.338-2.146-2.647-2.999c-1.951-1.27-3.963-1.579-6.036-0.928
			c-2.074,0.651-4.101,2.498-6.081,5.54c-2.104,3.232-3.021,5.923-2.751,8.069c0.27,2.148,1.453,3.904,3.547,5.268
			c0.995,0.647,2.042,1.116,3.139,1.406c1.098,0.289,2.463,0.453,4.097,0.491l1.83-2.812L104.792,353.392z"/>
		<path fill="#FFFFFF" d="M117.365,376.042l13.355-33.039l16.405,6.631c3.042,1.229,5.257,2.439,6.646,3.631
			c1.389,1.19,2.28,2.717,2.673,4.58c0.393,1.863,0.164,3.847-0.686,5.95c-0.741,1.833-1.757,3.263-3.047,4.288
			c-1.291,1.025-2.762,1.684-4.415,1.977c-1.053,0.188-2.38,0.157-3.983-0.088c1.009,0.879,1.7,1.631,2.072,2.252
			c0.252,0.418,0.543,1.209,0.874,2.373c0.33,1.164,0.513,2.034,0.551,2.608l0.887,11.501l-11.125-4.496l-1.177-12.223
			c-0.138-1.576-0.389-2.665-0.752-3.267c-0.503-0.798-1.204-1.378-2.102-1.741l-0.869-0.352l-5.42,13.41L117.365,376.042z
			 M135.195,360.386l4.15,1.678c0.449,0.182,1.379,0.383,2.79,0.604c0.707,0.128,1.378-0.002,2.016-0.392
			c0.637-0.389,1.102-0.944,1.394-1.665c0.431-1.066,0.436-2.018,0.015-2.852c-0.421-0.835-1.53-1.615-3.326-2.342l-4.324-1.748
			L135.195,360.386z"/>
		<path fill="#FFFFFF" d="M153.304,371.512c1.071-5.719,3.44-9.884,7.109-12.495c3.668-2.61,8.245-3.402,13.729-2.375
			c5.622,1.053,9.661,3.429,12.116,7.129c2.455,3.699,3.155,8.369,2.099,14.008c-0.767,4.094-2.06,7.327-3.879,9.699
			c-1.819,2.371-4.122,4.051-6.906,5.038s-6.05,1.13-9.798,0.429c-3.81-0.715-6.845-1.934-9.105-3.659
			c-2.261-1.726-3.912-4.096-4.953-7.11C152.675,379.161,152.538,375.607,153.304,371.512z M163.733,373.514
			c-0.663,3.536-0.505,6.196,0.473,7.979c0.978,1.782,2.557,2.878,4.739,3.286c2.242,0.42,4.12-0.012,5.632-1.295
			c1.512-1.283,2.635-3.884,3.369-7.803c0.617-3.297,0.427-5.826-0.57-7.588c-0.998-1.762-2.595-2.849-4.792-3.26
			c-2.104-0.395-3.938,0.063-5.503,1.369S164.401,369.946,163.733,373.514z"/>
		<path fill="#FFFFFF" d="M190.165,360.269l9.914-0.207l13.349,19.443l-0.411-19.713l10.007-0.209l0.744,35.634l-10.008,0.209
			l-13.276-19.299l0.409,19.567l-9.984,0.209L190.165,360.269z"/>
		<path fill="#FFFFFF" d="M224.474,358.514l10.454-1.997l6.686,35.009l-10.453,1.997L224.474,358.514z"/>
		<path fill="#FFFFFF" d="M236.875,356.934l9.294-3.458l19.003,13.963l-6.874-18.477l9.382-3.49l12.428,33.396l-9.383,3.492
			l-18.887-13.852l6.824,18.34l-9.361,3.482L236.875,356.934z"/>
		<path fill="#FFFFFF" d="M294.129,355.458l-3.971-6.26l13.854-8.788l8.137,12.827c-1.463,3.557-2.998,6.32-4.607,8.291
			c-1.608,1.971-3.811,3.842-6.607,5.617c-3.444,2.184-6.638,3.355-9.58,3.515c-2.943,0.159-5.775-0.587-8.498-2.237
			c-2.721-1.65-5.07-4.035-7.05-7.155c-2.083-3.283-3.241-6.554-3.476-9.812c-0.234-3.257,0.509-6.314,2.23-9.172
			c1.35-2.219,3.688-4.382,7.012-6.491c3.206-2.034,5.795-3.254,7.767-3.66s3.884-0.31,5.735,0.29
			c1.852,0.602,3.657,1.705,5.418,3.313l-7.633,7.088c-1.077-0.91-2.232-1.396-3.465-1.458c-1.233-0.062-2.51,0.325-3.828,1.162
			c-1.967,1.247-3.084,2.949-3.354,5.106c-0.269,2.156,0.568,4.768,2.513,7.832c2.065,3.256,4.131,5.207,6.197,5.854
			s4.155,0.301,6.267-1.039c1.002-0.635,1.863-1.393,2.582-2.271c0.72-0.879,1.437-2.053,2.151-3.522l-1.797-2.833L294.129,355.458z
			"/>
		<path fill="#FFFFFF" d="M295.916,326.919l21.174-19l5.082,5.664l-13.255,11.895l3.784,4.217l12.295-11.034l4.856,5.411
			l-12.296,11.034l4.693,5.229l13.639-12.238l5.392,6.008l-21.557,19.345L295.916,326.919z"/>
		<path fill="#FFFFFF" d="M318.085,307.013l6.374-7.598l23.416,2.756l-15.098-12.669l6.436-7.669l27.291,22.9l-6.436,7.668
			l-23.26-2.715l14.986,12.575l-6.42,7.65L318.085,307.013z"/>
	</g>
</g>
</svg>
