<?xml version="1.0" encoding="UTF-8"?>
<!DOCTYPE svg PUBLIC "-//W3C//DTD SVG 1.1//EN" "http://www.w3.org/Graphics/SVG/1.1/DTD/svg11.dtd">
<!-- Creator: CorelDRAW -->
<svg xmlns="http://www.w3.org/2000/svg" xml:space="preserve" width="800px" height="800px" shape-rendering="geometricPrecision" text-rendering="geometricPrecision" image-rendering="optimizeQuality" fill-rule="evenodd" clip-rule="evenodd"
viewBox="0 0 800.13 800.129"
 xmlns:xlink="http://www.w3.org/1999/xlink">
 <g id="Ebene_x0020_1">
  <metadata id="CorelCorpID_0Corel-Layer"/>
  <path fill="white" d="M400.066 800.128c220.945,0 400.064,-179.117 400.064,-400.064 0.00126324,-220.946 -179.118,-400.064 -400.064,-400.064 -220.947,-0.00126324 -400.066,179.118 -400.066,400.064 0,220.946 179.118,400.065 400.066,400.064z"/>
  <path fill="#C32721" d="M731.288 467.043c2.21825,-11.0273 3.89163,-22.1223 4.99359,-33.2456 1.08597,-10.9569 1.64137,-22.2095 1.64137,-33.7328 0.00126324,-93.2963 -37.8172,-177.762 -98.9569,-238.903 -61.1371,-61.1384 -145.604,-98.9556 -238.9,-98.9556 -1.34325,-0.00126324 -2.71429,0.00842161 -4.10596,0.0244227l-0.155379 -13.1659c1.39336,-0.01558 2.81282,-0.0256859 4.26134,-0.0256859 96.9298,0 184.686,39.2927 248.209,102.816 63.5242,63.5229 102.815,151.282 102.815,248.21 0,11.6782 -0.59246,23.3653 -1.74664,35.0179 -1.17018,11.8176 -2.89619,23.3384 -5.14645,34.5316l-12.9086 -2.57112z"/>
  <path fill="#C32721" d="M719.229 464.664c2.12393,-10.5485 3.73498,-21.2494 4.8079,-32.0682 1.0586,-10.6634 1.60011,-21.5172 1.60011,-32.5314 0.00126324,-89.9028 -36.442,-171.297 -95.3596,-230.213 -58.9151,-58.9176 -140.309,-95.36 -230.212,-95.36 -0.728469,0 -1.45947,0.00252648 -2.1892,0.00757945 -0.716679,0.0021054 -1.44136,0.0109481 -2.17993,0.0218962l-0.0374762 -3.29159c0.718785,-0.00968485 1.45947,-0.0168432 2.20394,-0.0218962 0.730996,-0.00463189 1.46578,-0.00715837 2.20267,-0.00715837 90.8111,0 173.027,36.8109 232.54,96.3234 59.5126,59.5126 96.3234,141.729 96.3234,232.54 0,11.0504 -0.550352,22.0145 -1.62579,32.8527 -1.08976,10.9995 -2.71681,21.8073 -4.84664,32.392l-3.22716 -0.645095z"/>
  <path fill="#C32721" d="M752.957 471.699c2.36184,-11.6938 4.15354,-23.5586 5.34646,-35.5594 1.17818,-11.8324 1.77949,-23.866 1.77949,-36.0752 0.00126324,-99.4146 -40.2974,-189.42 -105.446,-254.571 -65.1513,-65.15 -155.156,-105.447 -254.571,-105.447 -0.728469,-0.00126324 -1.45947,0.0021054 -2.1892,0.00589513 -0.716679,0.00126324 -1.44641,0.00968485 -2.1812,0.0193697l-0.0374762 -3.29243c0.721311,-0.00757945 1.45862,-0.0147378 2.2052,-0.0185275 0.730996,-0.00336864 1.46578,-0.00715837 2.20267,-0.00715837 100.323,0 191.151,40.6671 256.897,106.414 65.7467,65.745 106.411,156.575 106.411,256.897 0.00126324,12.2459 -0.610988,24.3932 -1.80517,36.3965 -1.21103,12.181 -3.01746,24.154 -5.3852,35.882l-3.22716 -0.643832z"/>
  <path fill="#C32721" d="M62.7444 381.016c-0.186539,3.33875 -0.321284,6.50991 -0.404658,9.51179 -0.0884269,3.22716 -0.133483,6.40842 -0.133483,9.53705 0,93.2976 37.8172,177.763 98.9556,238.902 61.1396,61.1396 145.606,98.9569 238.904,98.9569 8.19549,0 16.4781,-0.309073 24.8294,-0.914166 8.49614,-0.617304 16.6891,-1.50831 24.5764,-2.66333l1.90328 13.0105c-8.64015,1.26535 -17.1641,2.21109 -25.5545,2.81956 -8.35171,0.602566 -16.9396,0.914166 -25.7546,0.914166 -96.9294,-0.00126324 -184.688,-39.291 -248.211,-102.815 -63.5229,-63.5242 -102.815,-151.28 -102.815,-248.21 0,-3.36907 0.0458978,-6.66992 0.134325,-9.89708 0.0972696,-3.48192 0.232858,-6.77561 0.403816,-9.87223l13.1668 0.720469z"/>
  <path fill="#C32721" d="M74.9646 382.401c-0.158747,2.96904 -0.277492,5.91029 -0.353708,8.81027 -0.0787421,2.95304 -0.118745,5.90608 -0.118745,8.85322 0,89.9032 36.442,171.297 95.3596,230.213 58.9163,58.9176 140.311,95.3596 230.214,95.3596 8.08264,-0.00126324 16.1362,-0.299388 24.1448,-0.88469 8.1117,-0.595408 16.0861,-1.47799 23.9127,-2.6347l0.476663 3.25158c-8.01695,1.1845 -16.0756,2.08266 -24.1591,2.67428 -8.00853,0.585723 -16.1383,0.885111 -24.3751,0.885111 -90.8111,0 -173.029,-36.8109 -232.542,-96.3234 -59.5126,-59.5138 -96.3234,-141.73 -96.3234,-232.541 0,-2.99894 0.0400027,-5.97555 0.118745,-8.92986 0.0787421,-3.02083 0.19875,-5.98987 0.354129,-8.90206l3.29117 0.168432z"/>
  <path fill="#C32721" d="M40.6465 379.12c-0.19875,3.51686 -0.351602,7.00973 -0.450977,10.4634 -0.0981118,3.49371 -0.149063,6.99162 -0.149063,10.4815 0,99.415 40.2974,189.421 105.447,254.572 65.1508,65.1487 155.156,105.447 254.572,105.447 8.769,0 17.5073,-0.318758 26.1946,-0.94322 8.80985,-0.632884 17.4673,-1.57231 25.9642,-2.80524l0.463189 3.25243c-8.70205,1.2624 -17.4391,2.21615 -26.1958,2.8444 -8.68731,0.623199 -17.501,0.94322 -26.4262,0.94322 -100.324,-0.00126324 -191.152,-40.6663 -256.898,-106.413 -65.7467,-65.7475 -106.414,-156.576 -106.414,-256.899 0,-3.55055 0.052214,-7.075 0.150326,-10.5712 0.101901,-3.57413 0.25349,-7.09437 0.450977,-10.5531l3.29159 0.17938z"/>
  <path fill="#1F1A17" d="M493.12 735.754l-8.55678 2.25362 0.518771 -14.5673 8.03801 12.3137zm-6.31284 -21.6461l-8.02664 2.11467 -2.05487 37.6821 7.33438 -1.9336 0.265702 -7.42154 12.4261 -3.27222 4.0929 6.27368 7.45439 -1.96392 -21.492 -31.4791z"/>
  <polygon fill="#1F1A17" points="534.28,697.137 540.035,694.74 553.843,727.894 547.233,730.648 538.607,709.938 535.785,723.322 534.774,723.744 523.284,716.321 531.91,737.029 525.299,739.782 511.491,706.63 517.246,704.231 530.886,712.985 "/>
  <path fill="#1F1A17" d="M575.745 685.705c-4.77042,0.0703205 -7.37186,0.534772 -9.48989,1.7517 -2.2271,1.28261 -3.07347,3.10589 -2.18204,4.65757 2.7046,4.70263 14.6157,-3.90973 20.865,6.95415 3.43939,5.97892 1.41736,11.7595 -4.13375,14.9526 -4.34387,2.49996 -7.31417,2.32394 -10.7161,2.15425l-3.85962 -6.71118c5.28667,0.909113 8.08011,0.699415 10.8184,-0.875426 2.37489,-1.36641 3.04778,-3.15095 1.99929,-4.97633 -2.93998,-5.1136 -14.537,4.04658 -20.9694,-7.13732 -3.09747,-5.38604 -1.42115,-11.09 4.3485,-14.4081 2.77745,-1.59674 5.71617,-2.31426 9.82718,-2.43216l3.49244 6.0703z"/>
  <polygon fill="#1F1A17" points="609.411,658.693 601.058,664.899 618.551,688.444 612.803,692.714 595.309,669.169 586.957,675.375 583.031,670.091 605.484,653.409 "/>
  <polygon fill="#1F1A17" points="656.42,655.525 641.021,670.082 616.348,643.987 631.531,629.631 636.054,634.413 626.074,643.85 631.249,649.32 640.769,640.318 645.291,645.102 635.769,654.105 641.705,660.379 651.898,650.742 "/>
  <path fill="#1F1A17" d="M652.01 616.904l2.329 -2.77618c1.73359,-2.06708 3.67435,-2.24983 5.73175,-0.522561 2.33994,1.96181 1.90118,4.12448 0.628252,5.64122l-2.43806 2.90335 -6.25094 -5.24582zm-9.64611 1.25229l27.5096 23.0874 4.60325 -5.48584 -11.1713 -9.37578 1.32472 -1.58326c2.4928,-2.96651 8.50709,0.59625 16.3737,3.18337l5.06518 -6.03493c-10.6685,-3.67224 -14.6254,-5.83828 -17.9326,-4.76453 0.660675,-3.73625 -0.543194,-6.8893 -3.56782,-9.42799 -4.1148,-3.45497 -10.1548,-3.95689 -13.9453,0.5613l-8.2595 9.84023z"/>
  <path fill="#1F1A17" d="M675.777 585.788l2.48901 -3.85878c3.67688,-5.70017 9.49747,-5.10265 14.6738,-1.76138 4.42514,2.85493 8.39298,7.97232 4.48703,14.0254l-2.53617 3.92784 -19.1137 -12.333zm-9.41368 2.44774l30.1772 19.4724 6.44127 -9.98256c6.21178,-9.62674 2.67302,-18.1288 -5.99998,-23.7249 -8.27297,-5.33888 -18.0564,-5.23487 -23.7443,3.58003l-6.87414 10.655z"/>
  <path fill="#1F1A17" d="M715.899 547.063l-3.83478 7.97232 -10.7506 -9.84402 14.5854 1.8717zm-20.5681 -9.2364l-3.59687 7.48007 27.345 26.0064 3.2878 -6.83624 -5.47615 -5.01549 5.56711 -11.5797 7.42997 0.955011 3.34127 -6.94783 -37.8981 -4.06216z"/>
  <polygon fill="#1F1A17" points="713.212,490.642 715.122,484.705 749.314,495.695 747.121,502.513 725.766,495.649 734.122,506.477 733.787,507.519 720.687,511.45 742.042,518.316 739.852,525.134 705.661,514.147 707.568,508.21 723.074,503.501 "/>
  <path fill="#1F1A17" d="M48.3725 302.089l38.2451 -3.30717 -7.33438 26.9218 -30.9107 -23.6146zm60.4545 46.5749l-15.7029 -12.1183 10.7047 -39.302 19.4687 -1.6999 6.58991 -24.1843 -100.806 10.6997 -7.17479 26.3327 80.3005 64.5874 6.62023 -24.3153z"/>
  <path fill="#1F1A17" d="M151.61 256.488c3.19179,-4.83232 4.43819,-8.70542 3.74467,-11.6176 -0.698152,-2.91177 -4.16912,-6.57307 -10.415,-10.9885l-69.2353 -48.9666 13.6725 -19.3352 69.8985 49.4298c10.826,7.65567 17.1249,14.8435 18.8964,21.5585 1.76728,6.71623 -0.405079,14.6692 -6.52254,23.8681l-20.0392 -3.94847z"/>
  <path fill="#1F1A17" d="M184.419 105.283l32.0573 21.1513 -22.3867 16.5493 -9.67054 -37.7006zm18.6501 74.0036l-4.87106 -19.299 32.6843 -24.1578 16.3636 10.8075 20.1112 -14.8662 -85.6453 -54.0718 -21.8983 16.1868 22.9977 100.373 20.2578 -14.9719z"/>
  <polygon fill="#1F1A17" points="281.697,124.647 309.795,68.175 263.268,31.9849 292.251,25.4771 320.316,47.545 336.38,15.5665 365.231,9.0865 338.325,61.4891 389.283,100.493 359.645,107.145 328.185,82.5895 310.394,118.206 "/>
  <path fill="#1F1A17" d="M293.629 626.72c0.11285,0.0193697 39.5424,6.29179 44.3975,59.0982 0.300652,3.27559 0.602566,6.5537 -5.92797,7.14532 -6.53096,0.591618 -6.83287,-2.68649 -7.13353,-5.96334 -3.92194,-42.642 -33.4127,-47.3071 -33.4961,-47.3206 -3.24443,-0.551616 -6.48969,-1.10197 -5.40836,-7.58156 1.08007,-6.48001 4.3245,-5.92839 7.5685,-5.37804z"/>
  <path fill="#1F1A17" d="M157.863 547.78c0.118745,-0.0269492 40.889,-9.76528 131.557,29.9174 1.52136,0.540667 17.8163,6.27284 29.6992,7.97358 -0.258122,-0.791631 -1.16976,-2.24057 -3.79688,-4.86643 -2.32521,-2.32731 -4.65294,-4.65378 0,-9.30799 4.6542,-4.65294 6.98194,-2.32521 9.30841,0 18.9398,18.9389 -0.332233,27.1024 -0.38571,27.1269l-3.16274 0.565932c-13.8788,-1.15629 -36.1927,-9.16608 -36.2571,-9.18798l-0.384025 -0.156221c-86.8748,-38.072 -123.694,-29.2327 -123.802,-29.2087 -3.21411,0.703205 -6.42906,1.4102 -7.81694,-5.0176 -1.3883,-6.43032 1.82665,-7.13353 5.04076,-7.83884z"/>
  <path fill="#1F1A17" d="M402.577 513.092c-0.0231594,0.0850583 -7.91505,29.9662 -15.5054,42.8129l-0.359182 0.539825c-0.0374762,0.0505297 -13.1133,17.8125 1.98834,9.55642l0.797948 -0.384447c0.062741,-0.0240016 21.532,-8.50667 35.551,-10.2596 3.2659,-0.407185 6.53096,-0.816054 7.32849,5.71491 0.796684,6.53054 -2.47048,6.93941 -5.73428,7.34659 -11.4589,1.43167 -29.6605,8.39761 -32.1722,9.37367 -63.8177,34.6941 -22.0751,-23.9772 -18.5852,-28.7926 6.63623,-11.426 13.9672,-39.1698 13.9891,-39.2498 0.846372,-3.18 1.69485,-6.35874 8.04601,-4.68831 6.35158,1.66958 5.50184,4.85169 4.65547,8.03043z"/>
  <path fill="#1F1A17" d="M539.964 529.522c-0.0463189,0.00378973 -15.8053,1.19671 -15.9227,15.2027 0.0618988,1.00722 1.03796,11.6757 15.3551,11.6757l1.82581 0.283808c0.0277913,0.00842161 9.55432,3.12989 16.1661,-14.6389 1.14702,-3.08315 2.29489,-6.16841 8.44014,-3.88068 6.14651,2.28773 4.99865,5.37425 3.85036,8.45825 -9.43894,25.3642 -26.4418,23.8403 -30.9734,22.9333 -27.094,-0.402132 -27.8309,-24.3747 -27.8334,-24.4425l0.00126324 -0.232858c0,-26.4371 27.8793,-28.5173 27.9585,-28.5244 3.27811,-0.29223 6.55496,-0.586986 7.11963,5.99703 0.566353,6.58317 -2.71302,6.87625 -5.98734,7.16848z"/>
  <path fill="#1F1A17" d="M423.989 697.02c0.0618988,-0.19875 21.8229,-68.8353 61.1784,-112.126l0.283808 -0.28465c0.0981118,-0.0960064 34.7471,-34.6638 34.7471,26.6481 0,3.2899 0,6.58275 -6.58275,6.58275 -6.58149,-0.00126324 -6.58275,-3.29285 -6.58275,-6.58275 0.00126324,-27.4591 -10.5653,-18.9415 -12.2168,-17.4416 -37.3936,41.1897 -58.2721,107.027 -58.3327,107.217 -1.00386,3.13242 -2.00771,6.26778 -8.25613,4.26134 -6.24841,-2.00645 -5.2433,-5.14013 -4.23818,-8.27423zm70.707 -103.089c-0.0606356,0.0534772 -0.0896902,0.0896902 -0.0917956,0.0909534l0.0917956 -0.0909534z"/>
  <path fill="#1F1A17" d="M520.198 611.256l0 36.2045c0,3.29285 0,6.58402 -6.58275,6.58402 -6.58149,-0.00126324 -6.58275,-3.29117 -6.58275,-6.58275l0.00126324 -36.2058c0,-3.28906 -0.00126324,-6.58065 6.58149,-6.58065 6.58275,0 6.58275,3.29159 6.58275,6.58065z"/>
  <path fill="#1F1A17" d="M520.198 647.255c0,0.0134746 0.166327,4.9818 0.539825,4.64578l0.154958 -0.12843c0.0290546,-0.0256859 10.6041,-8.73616 14.7163,-48.3144l0.127166 -0.797948c0.0282124,-0.11285 8.99554,-39.9504 39.8464,-1.79296 2.02582,2.07551 19.8422,19.8712 20.8203,4.68452 -2.12014,-6.35368 -12.0442,-36.0449 -14.0881,-41.7973 -2.06203,-3.59308 -14.3466,-27.4902 23.9031,-28.1972l0.463189 0c0.0690572,0.00378973 23.8946,1.13734 49.0517,10.2841 3.09242,1.12513 6.18525,2.24899 3.94847,8.42077 -2.23678,6.17094 -5.33172,5.04707 -8.4233,3.92321 -21.9939,-7.99758 -43.0917,-9.34083 -45.1356,-9.45494 -17.5776,0.419396 -12.2867,8.61699 -12.2724,8.64015l0.514139 1.13229c1.85823,4.95485 14.8507,43.9768 14.8873,44.0897l0.361287 2.18457c-0.807633,50.1271 -43.5574,5.12581 -43.6799,4.99696l-0.385289 -0.436239c-12.7684,-15.8815 -16.3981,-5.88923 -16.9325,-4.02974 -4.722,44.4691 -19.1958,56.4576 -19.2383,56.4926l0.154958 -0.127166c-21.5682,19.4106 -22.4966,-13.9112 -22.4992,-14.006 -0.111586,-3.28906 -0.223173,-6.5777 6.35958,-6.78277 6.58317,-0.205908 6.69476,3.08399 6.80593,6.37053zm28.3488 -41.6903c-0.00336864,0.0134746 -0.00463189,0.0269492 -0.00463189,0.0269492l0.00463189 -0.0269492z"/>
  <path fill="#1F1A17" d="M247.019 439.012l19.1983 0c3.2899,0 6.58275,0 6.58275,6.58275 0,6.58191 -3.29285,6.58317 -6.58275,6.58317l-19.1983 -0.00126324c-3.29032,0 -6.58317,0.00126324 -6.58317,-6.58191 0,-6.58275 3.29285,-6.58275 6.58317,-6.58275z"/>
  <path fill="#1F1A17" d="M261.298 449.169c-0.0336864,0.052214 -11.7048,18.0951 -15.828,22.6204 -1.35293,2.0574 -7.58787,12.9815 4.53799,23.5847 3.80067,1.80728 14.0565,7.99379 20.3062,24.1818 0.991645,0.94701 4.27818,3.39475 13.0977,5.15866l1.92897 0.720048c0.0277913,0.01558 9.73496,5.50142 25.3288,-1.34704 2.21488,-1.12597 11.0976,-5.23361 28.9177,-8.69826l1.646 -0.129693c0.0387394,0.00252648 13.9066,1.15039 16.148,-11.5523l0.410975 -1.36262c0.031581,-0.0749523 10.842,-26.238 18.0854,-34.6878l0.874163 -0.874163c0.0218962,-0.0168432 8.4633,-6.384 3.13158,-36.9966 -0.29602,-1.25566 -2.17867,-8.47509 -7.09942,-12.6396l0.0543194 0.0391605c-3.07557,-2.44058 -12.8299,-12.6737 -0.00336864,-37.1591 1.52642,-2.9143 3.05368,-5.82986 8.88985,-2.79555 5.83744,3.03346 4.30976,5.94903 2.78334,8.86332 -9.17113,17.5094 -4.15185,20.3744 -4.14006,20.3828l0.899849 0.641306c8.86796,7.49944 11.5035,20.0481 11.5107,20.083l0.052214 0.256017c5.90902,33.8406 -4.63357,46.5176 -7.27122,49.0904 -5.36583,6.61897 -13.7382,26.2708 -15.3543,30.1212 -4.20407,21.3454 -24.685,21.9113 -28.9939,21.7926 -18.0138,3.5775 -24.5069,7.28132 -24.525,7.29312l-0.642569 0.332233c-18.2282,8.04011 -32.0354,3.14252 -35.9826,1.37356 -15.673,-3.34001 -20.8473,-10.7203 -20.8616,-10.7409l-0.797948 -1.54326c-5.49047,-15.097 -13.9647,-17.9216 -13.9887,-17.9292l-2.13362 -1.1845c-24.0125,-19.8952 -7.16258,-42.3704 -7.11416,-42.4344l0.617304 -0.745734c2.8524,-2.85366 14.4776,-20.8119 14.51,-20.8616 1.79212,-2.76187 3.58382,-5.52079 9.0865,-1.94581 5.50268,3.57413 3.71098,6.33431 1.91886,9.09366zm118.608 -19.2758l0.0172643 0.0846372c0,-0.000842161 -0.00631621,-0.0303178 -0.0172643,-0.0846372zm-6.24083 -12.1162l0.0181065 0.0122113c-0.00126324,0 -0.00715837,-0.00589513 -0.0181065,-0.0122113z"/>
  <path fill="#1F1A17" d="M374.814 388.383l-23.3986 -17.0188 4.11311 26.0518c0.514139,3.24906 1.02702,6.50148 -5.45299,7.50534 -6.47959,1.00259 -6.99246,-2.24899 -7.50534,-5.49805l-6.58275 -41.6903 10.3363 -6.32589 36.2045 26.3306c2.66081,1.9336 5.32204,3.87099 1.46578,9.19387 -3.85668,5.32246 -6.51875,3.38633 -9.17998,1.45146z"/>
  <path fill="#1F1A17" d="M353.086 403.588c-0.0303178,0.0252648 -11.0525,8.74332 -12.3415,18.1957l-0.454767 3.33243 -2.93956 1.57863c-0.0400027,0.0218962 -14.115,7.64598 -31.6526,10.5691 -3.24653,0.539404 -6.4918,1.08133 -7.57187,-5.39867 -1.08049,-6.48085 2.1652,-7.02068 5.41046,-7.56134 11.1182,-1.85233 20.5681,-5.81639 24.9604,-7.87758 3.67435,-13.0009 16.4752,-23.1443 16.5165,-23.1746 2.59344,-2.02582 5.18771,-4.04911 9.22461,1.11881 4.0369,5.16834 1.44262,7.19416 -1.15166,9.21745z"/>
  <path fill="#1F1A17" d="M255.942 350.248c-0.0534772,0.0896902 -18.9642,31.4353 -20.9307,36.3515l-0.926377 1.62074c-0.0143167,0.0193697 -5.37425,6.84003 1.52515,8.13359l1.7239 0.564669c0.00715837,0.00378973 2.99683,1.49989 8.03885,1.49989 3.29159,0 6.58275,0 6.58275,6.58275 0,6.58149 -3.29117,6.58275 -6.58275,6.58275 -6.22147,-0.00126324 -11.0563,-1.69232 -12.9853,-2.48774 -24.2437,-5.01507 -11.9886,-24.3102 -9.16861,-28.2798 3.62256,-7.79883 21.4073,-37.2677 21.4604,-37.3549 1.69738,-2.81871 3.39349,-5.63953 9.02586,-2.2452 5.63111,3.39307 3.93373,6.21431 2.23678,9.03176zm-24.4576 58.4519c-0.00715837,-0.00378973 -0.0130535,-0.00505297 -0.0130535,-0.00505297l0.0130535 0.00505297z"/>
  <path fill="#1F1A17" d="M283.197 323.226c-0.0231594,0.0240016 -8.03295,9.03513 -4.04195,9.35894 3.97416,-0.392868 27.6553,-1.92518 27.6553,17.5628l0 -0.540667c0.00631621,0.067794 2.60396,24.5604 -24.085,17.8875l-2.18457 -0.976907c-0.00505297,-0.00378973 -2.06329,-1.50199 -1.15797,15.1113 0.17938,3.28443 0.358761,6.57223 -6.22399,6.90656 -6.58275,0.333496 -6.76213,-2.95304 -6.94151,-6.23831 -2.06119,-37.7793 15.7248,-30.1494 20.6431,-27.3462 7.41818,1.42325 6.78529,-4.24912 6.78445,-4.26386l0 -0.540667c0,-6.18525 -13.4278,-4.44451 -13.4641,-4.43945l-0.797948 0.052214c-33.8806,0 -6.08588,-31.1372 -6.00798,-31.2256 2.1833,-2.46248 4.36787,-4.92327 9.27893,-0.577301 4.91106,4.34639 2.7265,6.80719 0.543194,9.26967z"/>
  <path fill="#1F1A17" d="M279.383 381.963l0 27.4262c0,3.29159 0,6.58317 -6.58275,6.58317 -6.58275,0 -6.58275,-3.29159 -6.58275,-6.58191l0 -27.4275c0,-3.29032 0,-6.58149 6.58275,-6.58149 6.58275,-0.00126324 6.58275,3.29117 6.58275,6.58149z"/>
  <path fill="#1F1A17" d="M277.738 405.069c0.0753734,0.0871637 26.6978,30.2572 -12.899,28.4579 -3.28653,-0.149063 -6.57433,-0.299388 -6.29179,-6.88214 0.282545,-6.58402 3.57034,-6.43369 6.85688,-6.28463 8.67384,0.39371 2.4768,-6.6316 2.45953,-6.65097 -2.16983,-2.47427 -4.34008,-4.94728 0.596671,-9.26672 4.93759,-4.31944 7.1091,-1.84517 9.27767,0.626568z"/>
  <path fill="#1F1A17" d="M264.247 433.449l-15.908 -2.19425c-3.25874,-0.448451 -6.52001,-0.898165 -5.64585,-7.40344 0.874163,-6.50654 4.13543,-6.05556 7.39417,-5.60711l15.908 2.19425c3.25874,0.448451 6.51959,0.899428 5.64585,7.4047 -0.874163,6.50527 -4.13543,6.05556 -7.39417,5.60585z"/>
  <path fill="#1F1A17" d="M244.98 317.344c-0.031581,-0.0324232 -11.0622,-11.6054 -12.6261,-14.7319 -0.505718,-1.01101 -0.865742,-1.89865 -1.12639,-2.65744 -3.20063,-4.71231 -15.1661,-25.336 23.5397,-21.6157l1.26072 0.231594c0.294756,0.0863215 101.38,28.9746 258.923,184.862l-0.0509507 -0.052214c0.0640042,0.0606356 22.8971,22.0533 -8.21233,31.3023l-0.514139 0.12843c-0.0374762,0.00715837 -13.1731,2.49027 -12.0223,16.2512 3.46002,4.96917 9.66085,18.2029 -16.2183,24.8391l-0.539825 0.101901c-0.047161,0.00842161 -16.7843,2.63554 -24.085,6.04335l-1.64642 0.539404c-0.0530562,0.00842161 -19.248,3.74256 -17.039,-29.407l0.336022 -1.6199c0.0117903,-0.0374762 4.39566,-13.1925 -2.26499,-21.9332 -1.95508,-2.56649 -4.94854,-3.19937 -7.60935,-3.75941 -9.01028,-1.89949 -16.2924,-3.43812 -14.5976,-22.7565 0.00463189,-0.587828 0.10527,-8.02537 2.68144,-14.4713 1.22198,-3.0562 2.44395,-6.11114 8.53867,-3.66845 6.0943,2.44016 4.8719,5.49889 3.64993,8.55299 -1.70327,4.26134 -1.70453,9.61116 -1.70453,9.62548l-0.0517929 0.616041c-0.780683,8.20475 1.42325,8.67047 4.15691,9.24524 4.92917,1.03628 10.4744,2.20983 15.377,8.64352 9.45621,12.4105 5.76207,28.8642 4.61294,33.0262 -0.773525,12.4227 0.729733,14.537 1.37609,14.8835 8.67636,-3.5994 23.2786,-6.06272 25.747,-6.46274 10.375,-2.69281 8.18581,-4.97886 8.17949,-4.98517l-1.72264 -3.52402c-3.98469,-25.9011 18.9133,-31.9082 21.8617,-32.5727 9.17956,-2.85156 2.57491,-9.20861 2.5568,-9.22672l-0.0509507 -0.052214c-148.717,-147.151 -244.919,-178.949 -252.87,-181.403 -12.6749,-1.12639 -10.4407,1.63674 -10.4344,1.64264l1.33819 3.95942c0,0.00252648 0,-0.990381 0.400027,-0.189065 0.630358,1.25945 10.3885,11.5679 10.415,11.597 2.25489,2.39426 4.51104,4.79232 -0.271597,9.29241 -4.78263,4.49756 -7.03752,2.10203 -9.29241,-0.294756zm-14.4157 -20.3997c0,-0.00336864 -0.0021054,-0.00589513 -0.0021054,-0.00589513l0.0021054 0.00589513z"/>
  <path fill="#1F1A17" d="M282.461 260.734c0.0669518,0 23.2403,0.0130535 77.9618,-35.5367l-0.205066 0.129693c0.185697,-0.130956 64.6312,-45.6258 116.044,-46.0536l0.232858 0c0.101901,0.00252648 36.4542,0.865742 60.7333,17.6391 2.70713,1.86833 5.41425,3.7413 1.68643,9.14082 -3.72656,5.4012 -6.43622,3.52908 -9.14334,1.6599 -20.4797,-14.1513 -52.0081,-15.2254 -53.572,-15.2705 -47.3038,0.49098 -108.245,43.509 -108.423,43.6315l-0.204645 0.127166c-58.0034,37.6825 -84.8793,37.6968 -84.9568,37.6981 -3.28906,0.0400027 -6.58065,0.083795 -6.65813,-6.50022 -0.0774788,-6.58402 3.21369,-6.62402 6.50401,-6.66528z"/>
  <path fill="#1F1A17" d="M598.503 274.618c-0.00252648,-0.0682151 -0.705731,-23.5228 -32.0901,-45.0767 -2.71176,-1.86202 -5.4252,-3.7253 -1.72264,-9.1505 3.70467,-5.42647 6.41685,-3.56192 9.12861,-1.69948 36.909,25.3457 37.8463,55.2235 37.8501,55.3094 0.158747,3.28401 0.316231,6.57307 -6.26652,6.88256 -6.58317,0.309073 -6.74192,-2.97872 -6.8994,-6.26526z"/>
  <path fill="#1F1A17" d="M563.533 224.116l0 -51.8384c0,-3.28906 -0.000842161,-6.58065 6.58191,-6.58065 6.58275,-0.00126324 6.58275,3.29159 6.58275,6.58191l0 51.8371c0,3.29032 0,6.58317 -6.58275,6.58317 -6.58191,0 -6.58275,-3.29159 -6.58191,-6.58317z"/>
  <path fill="#1F1A17" d="M571.427 165.85c0.234121,0.0484243 81.3827,15.4158 81.3827,119.567l0.00126324 -0.0787421c0.00631621,0.396658 3.46381,138.725 -125.894,138.725l0.489717 -0.00126324c-0.170959,0.0147378 -59.3648,5.34393 -88.8143,-63.2269l-0.205908 -0.591618c-0.0425291,-0.137272 -15.0254,-47.6053 -40.1631,-47.2612l-1.46452 -0.154958c-0.0206329,-0.00378973 -7.26911,-1.76517 -17.9254,6.89183 -2.55301,2.0734 -5.10729,4.14975 -9.24735,-0.941957 -4.1388,-5.09171 -1.58453,-7.16595 0.968485,-9.24145 13.3415,-10.8403 24.9389,-10.159 28.1198,-9.7118 32.6624,0.173485 50.2021,50.3596 52.0426,55.9048 25.6889,59.6899 75.5684,55.1788 75.7115,55.1691l0.488453 0c115.848,0 112.732,-125.045 112.727,-125.403l0 -0.0778999c0,-93.3241 -70.6384,-106.669 -70.8405,-106.711 -3.22379,-0.659412 -6.44716,-1.32135 -5.1355,-7.74915 1.31167,-6.42864 4.53546,-5.7667 7.75883,-5.10729zm-120.568 190.315c0.0134746,0.0387394 0.0218962,0.0640042 0.0231594,0.067794l-0.0231594 -0.067794z"/>
 </g>
</svg>
