<?xml version="1.0" encoding="utf-8"?>
<!-- Generator: Adobe Illustrator 13.0.2, SVG Export Plug-In . SVG Version: 6.00 Build 14948)  -->
<!DOCTYPE svg PUBLIC "-//W3C//DTD SVG 1.0//EN" "http://www.w3.org/TR/2001/REC-SVG-20010904/DTD/svg10.dtd">
<svg version="1.0" id="Ebene_1" xmlns="http://www.w3.org/2000/svg" xmlns:xlink="http://www.w3.org/1999/xlink" x="0px" y="0px"
	 width="331.865px" height="538.821px" viewBox="0 0 331.865 538.821" enable-background="new 0 0 331.865 538.821"
	 xml:space="preserve">
<path fill-rule="evenodd" clip-rule="evenodd" d="M165.932,0.731h165.202v444.792c-35.522,61.714-100.362,92.566-165.201,92.566
	h-0.001V0.731L165.932,0.731z"/>
<path fill-rule="evenodd" clip-rule="evenodd" fill="#FFD500" d="M0.731,0.731h165.201V538.09
	c-64.837,0-129.678-30.853-165.201-92.566V0.731L0.731,0.731z"/>
<path fill-rule="evenodd" clip-rule="evenodd" fill="#FFD500" d="M165.933,187.229l20.31-47.477
	c-3.826-4.778-7.436-9.555-10.57-14.335c8.414,1.299,28.969,0.009,43.45,0.013c4.538,0,8.531,6.873,11.423,10.381l19.433,0.023
	c3.454-0.006,5.461,1.753,6.744,3.866c3.674,6.044,4.573,17.638,3.407,32.257c-1.588-1.438-7.269-4.846-11.648-6.354
	c-2.329-0.8-4.128-0.691-6.551-0.691l-21.401,0.01c-12.858,15.385-15.097,40.252-4.21,67.487l80.071-53.735
	c4.304,5.648,14.197,18.088,8.572,23.065l-29.968,27.319l41.095-11.915c1.377,6.539,7.638,21.546,1.494,24.456l-34.26,15.725
	l40.131-1.452c-0.401,8.263,2.962,23.813-5.795,24.847l-35.127,5.001l38.537,9.141c-0.202,5.936-3.841,23.024-11.203,23.218
	l-35.874-1.348l33.812,20.174c-6.352,9.152-9.659,22.904-19.793,18.223l-31.603-15.425l27.665,29.534
	c-7.436,5.484-16.746,17.684-24.53,11.865l-23.604-17.646l4.342,38.019l37.228,1.541l-2.73,22.26l-6.243-9.261l-15.548,0.495
	l15.876,20.654l-14.092,13.966l-0.442-12.885l-12.756-9.325l-1.594,26.619l-21.855-0.413l8.701-9.782l-2.933-28.641l-8.142,0.378
	l-9.103,9.973l-0.993-25.597l14.282,0.369l-13.087-50.631l-29.581,13.122c10.063,5.73,9.149,18.117,0.284,21.565
	c20.057,33.709,36.899,65.83,35.329,94.31l-11.247,1.444c-0.718-19.222-11.464-41.353-24.164-59.704
	c5.247,18.352,11.051,40.931,10.207,60.568l-10.887,1.4c-0.586-11.722-3.404-27.721-10.859-45.29V187.229L165.933,187.229z"/>
<path fill-rule="evenodd" clip-rule="evenodd" d="M211.863,160.8c-2.171,3.42-10.969,0.584-10.497-6.248
	c0.369-5.38,4.749-5.854,7.365-5.32C208.23,151.472,206.807,155.887,211.863,160.8L211.863,160.8z"/>
<path fill-rule="evenodd" clip-rule="evenodd" d="M219.668,136.412c-0.773,0.453-2.101,1.551-3.814,2.279
	c-6.451,2.752-9.015-4.028-14.915-5.897C205.392,132.535,217.591,130.969,219.668,136.412L219.668,136.412z"/>
<path fill-rule="evenodd" clip-rule="evenodd" d="M257.344,166.575c0.521-3.262,0.932-17.801-2.9-23.955
	c-1.09-1.75-2.956-3.564-4.787-3.58l-24.902-0.054c-6.814,4.792-11.139,9.444-11.007,12.908c0.214,5.515,4.673,8.571,9.161,10.156
	l22.163-0.021C249.472,162.025,254.807,164.739,257.344,166.575L257.344,166.575z"/>
<path fill-rule="evenodd" clip-rule="evenodd" fill="#FFD500" d="M242.836,159.873c-5.795-6.3-14.47-3.861-21.205-5.013
	l-1.066-1.978l14.104-0.088c5.221-0.031,11.977,2.333,14.613,7.576C247.605,159.68,245.531,159.98,242.836,159.873L242.836,159.873z
	"/>
<polygon fill-rule="evenodd" clip-rule="evenodd" points="0.731,0.731 331.134,0.731 331.134,115.752 0.731,115.752 0.731,0.731 "/>
<path fill-rule="evenodd" clip-rule="evenodd" fill="#FFFFFF" d="M306.097,99.691h-34.245V16.764h34.017v12.302h-16.509v19.729h14.9
	v12.374h-14.9v26.086h16.737V99.691L306.097,99.691z M180.551,67.825h15.891v17.355c0,1.894,1.16,3.173,3.337,3.173
	c2.121,0,3.173-1.395,3.173-3.289v-9.369c0-3.004-1.869-6.59-5.777-10.583c-7.406-7.57-12.085-12.568-13.904-15.144
	c-1.808-2.591-2.719-5.42-2.719-8.512v-9.312c0-10.746,6.747-16.119,20.238-16.119c12.082,0,18.117,4.885,18.117,14.684v14.345
	h-15.955V30.18c0-1.658-0.867-2.89-2.619-2.89c-2.033,0-3.032,1.598-3.047,4.811l-0.018,5.316c-0.012,3.079,2.259,6.771,6.24,10.805
	c7.248,7.349,11.941,12.376,13.934,15.278c1.978,2.886,2.974,6.157,2.974,9.828v10.585c0,11.014-6.773,16.535-20.294,16.535
	c-13.052,0-19.57-5.019-19.57-15.041V67.825L180.551,67.825z M175.69,99.691h-34.244V16.764h34.015v12.302h-16.51v19.729h14.902
	v12.374h-14.902v26.086h16.739V99.691L175.69,99.691z M136.072,29.184h-9.778v70.507h-17.521V29.184h-9.776v-12.42h37.075V29.184
	L136.072,29.184z M93.964,99.691h-17.52V16.764h17.52V99.691L93.964,99.691z M72.409,16.764l-10.73,82.928H36.885L26.153,16.764
	h17.079l6.05,58.944l6.006-58.944H72.409L72.409,16.764z M226.151,67.825h15.894v17.355c0,1.894,1.157,3.173,3.337,3.173
	c2.118,0,3.173-1.395,3.173-3.289v-9.369c0-3.004-1.872-6.59-5.777-10.583c-7.409-7.57-12.085-12.568-13.907-15.144
	c-1.805-2.591-2.719-5.42-2.719-8.512v-9.312c0-10.746,6.747-16.119,20.241-16.119c12.082,0,18.117,4.885,18.117,14.684v14.345
	h-15.955V30.18c0-1.658-0.87-2.89-2.619-2.89c-2.036,0-3.035,1.598-3.047,4.811l-0.018,5.316c-0.012,3.079,2.259,6.771,6.237,10.805
	c7.251,7.349,11.941,12.376,13.937,15.278c1.978,2.886,2.974,6.157,2.974,9.828v10.585c0,11.014-6.773,16.535-20.297,16.535
	c-13.049,0-19.57-5.019-19.57-15.041V67.825L226.151,67.825z"/>
<path fill-rule="evenodd" clip-rule="evenodd" d="M165.933,187.229l-20.309-47.476c3.823-4.778,7.433-9.557,10.569-14.335
	c-8.416,1.299-28.967,0.007-43.45,0.012c-4.54,0.001-8.531,6.875-11.424,10.381l-19.431,0.023c-3.456-0.004-5.461,1.753-6.746,3.867
	c-3.672,6.044-4.572,17.637-3.407,32.256c1.588-1.438,7.267-4.846,11.65-6.353c2.328-0.8,4.125-0.693,6.549-0.69l21.401,0.009
	c12.861,15.384,15.097,40.251,4.211,67.487l-80.073-53.736c-4.302,5.65-14.196,18.088-8.571,23.065l29.966,27.321l-41.093-11.917
	c-1.375,6.541-7.636,21.546-1.494,24.457l34.26,15.724l-40.129-1.452c0.4,8.266-2.966,23.815,5.793,24.847l35.127,5.001
	l-38.537,9.141c0.199,5.936,3.839,23.024,11.203,23.218l35.874-1.345l-33.812,20.171c6.349,9.155,9.656,22.904,19.793,18.226
	l31.604-15.425l-27.665,29.531c7.436,5.484,16.745,17.684,24.527,11.865l23.606-17.646l-4.343,38.019l-37.228,1.544l2.729,22.257
	l6.243-9.261l15.551,0.495l-15.876,20.654l14.09,13.966l0.445-12.885l12.753-9.325l1.594,26.622l21.855-0.413l-8.701-9.785
	l2.933-28.641l8.142,0.378l9.104,9.973l0.993-25.594l-14.282,0.369l13.085-50.634l29.583,13.125
	c-10.066,5.728-9.149,18.114-0.286,21.563c-20.057,33.712-36.899,65.83-35.328,94.313l11.246,1.441
	c0.719-19.219,11.462-41.353,24.166-59.701c-5.249,18.349-11.051,40.931-10.207,60.565l10.887,1.4
	c0.584-11.722,3.403-27.718,10.859-45.29V187.229L165.933,187.229z"/>
<path fill-rule="evenodd" clip-rule="evenodd" fill="#FFD500" d="M120.003,160.802c2.169,3.419,10.966,0.584,10.497-6.249
	c-0.369-5.38-4.75-5.852-7.367-5.32C123.634,151.475,125.061,155.89,120.003,160.802L120.003,160.802z"/>
<path fill-rule="evenodd" clip-rule="evenodd" fill="#FFD500" d="M112.2,136.412c0.772,0.453,2.098,1.551,3.812,2.279
	c6.456,2.752,9.015-4.028,14.915-5.897C126.475,132.536,114.275,130.969,112.2,136.412L112.2,136.412z"/>
<path fill-rule="evenodd" clip-rule="evenodd" fill="#FFD500" d="M74.521,166.575c-0.519-3.259-0.93-17.801,2.902-23.953
	c1.09-1.75,2.955-3.565,4.784-3.58l24.904-0.054c6.814,4.79,11.14,9.442,11.007,12.908c-0.214,5.515-4.671,8.571-9.163,10.154
	l-22.162-0.019C82.393,162.028,77.058,164.741,74.521,166.575L74.521,166.575z"/>
<path fill-rule="evenodd" clip-rule="evenodd" d="M89.029,159.875c5.795-6.302,14.47-3.863,21.207-5.013l1.068-1.979l-14.105-0.086
	c-5.219-0.032-11.975,2.332-14.613,7.576C84.261,159.68,86.335,159.98,89.029,159.875L89.029,159.875z"/>
<path fill-rule="evenodd" clip-rule="evenodd" fill="#FFFFFF" d="M165.933,223.104c38.764,0,70.381,31.453,70.381,70.022
	c0,38.563-31.617,70.02-70.381,70.02c-38.766,0-70.381-31.456-70.381-70.02C95.552,254.558,127.167,223.104,165.933,223.104
	L165.933,223.104z"/>
<path fill-rule="evenodd" clip-rule="evenodd" d="M129.073,317.836c4.535-6.923,11.253-14.977,17.153-20.886
	c-3.406-6.164-9.425-17.895-11.474-24.762l-20.309,4.462c-4.759,8.007-7.053,20.329-6.196,29.341
	C114.948,310.872,121.947,314.019,129.073,317.836L129.073,317.836z M155.47,224.43c9.24-1.373,18.674-0.895,27.709,1.38
	c1.471,3.132,5.042,6.678,9.756,14.603c-3.718,3.176-9.835,7.786-12.155,11.426c-7.696-1.504-21.231-2.452-29.666-1.704
	c-1.052-4.652-1.84-10.22-3.469-14.439C150.258,231.141,152.004,227.394,155.47,224.43L155.47,224.43z M216.563,245.231
	c0.987,1.033,1.951,2.098,2.883,3.202c6.8,8.061,11.429,17.231,13.969,26.796c-2.361-1.708-4.978-3.387-6.891-4.305
	c-2.309-8.103-7.954-15.729-12.964-21.948C214.822,247.655,215.815,246.45,216.563,245.231L216.563,245.231z M173.502,362.15
	c-15.56,1.658-31.499-1.878-44.979-10.359c5.61-1.711,12.076-6.853,12.388-12.117c7.039,3.422,23.281,3.111,31.229,3.914
	c1.178,6,4.274,8.897,7.362,11.874C176.856,357.527,174.847,359.897,173.502,362.15L173.502,362.15z M215.689,318.715
	c-4.099,0.111-23.581,3.785-28.061,5.288c-5.314-6.41-8.068-17.435-12.053-23.971c4.605-7.055,11.341-14.42,17.496-21.445
	c5.795,2.259,12.926,4.512,22.523,7.696C216.231,295.702,216.589,310.181,215.689,318.715L215.689,318.715z"/>
<path fill-rule="evenodd" clip-rule="evenodd" d="M224.25,331.354c-2.701-4.556-5.921-10.228-8.314-12.776L224.25,331.354
	L224.25,331.354z M227.64,267.864c-1.263,6.085-10.233,16.242-14.35,19.922L227.64,267.864L227.64,267.864z M189.064,320.859
	c-4.576,7.321-13.336,16.822-19.343,23.78L189.064,320.859L189.064,320.859z M173.988,355.623
	c0.296-0.478,13.506-0.466,23.546-0.539C187.494,355.157,174.284,355.146,173.988,355.623L173.988,355.623z M100.198,316.591
	c2.903-3.984,8.096-9.158,11.268-11.76C108.294,307.433,103.102,312.606,100.198,316.591L100.198,316.591z M142.995,341.098
	c-6.207-7.163-12.073-18.718-15.198-25.755L142.995,341.098L142.995,341.098z M180.322,300.486
	c-9.662-2.095-28.601-3.056-37.34-4.102L180.322,300.486L180.322,300.486z M193.195,280.816
	c-3.478-10.472-11.865-26.417-13.553-30.872L193.195,280.816L193.195,280.816z M215.361,249.987
	c-6.419-3.981-18.536-8.603-24.727-9.911L215.361,249.987L215.361,249.987z M153.718,236.462c-7.011-0.611-19.05-0.92-27.423-0.579
	L153.718,236.462L153.718,236.462z M115.655,278.159c-2.777-3.117-8.026-11.544-11.37-17.701L115.655,278.159L115.655,278.159z
	 M153.74,246.612c-6.555,6.536-17.999,23.146-21.136,28.321L153.74,246.612L153.74,246.612z M128.228,351.606
	c4.827,0.718,9.658,1.336,13.384,2.728C137.886,352.942,133.055,352.324,128.228,351.606L128.228,351.606z"/>
<path fill="none" stroke="#000000" stroke-width="1.4623" stroke-miterlimit="2.6131" d="M224.25,331.354
	c-2.701-4.556-5.921-10.228-8.314-12.776 M227.64,267.864c-1.263,6.085-10.233,16.242-14.35,19.922 M189.064,320.859
	c-4.576,7.321-13.336,16.822-19.343,23.78 M173.988,355.623c0.296-0.478,13.506-0.466,23.546-0.539
	C187.494,355.157,174.284,355.146,173.988,355.623 M100.198,316.591c2.903-3.984,8.096-9.158,11.268-11.76
	C108.294,307.433,103.102,312.606,100.198,316.591 M142.995,341.098c-6.207-7.163-12.073-18.718-15.198-25.755 M180.322,300.486
	c-9.662-2.095-28.601-3.056-37.34-4.102 M193.195,280.816c-3.478-10.472-11.865-26.417-13.553-30.872 M215.361,249.987
	c-6.419-3.981-18.536-8.603-24.727-9.911 M153.718,236.462c-7.011-0.611-19.05-0.92-27.423-0.579 M115.655,278.159
	c-2.777-3.117-8.026-11.544-11.37-17.701 M153.74,246.612c-6.555,6.536-17.999,23.146-21.136,28.321 M128.228,351.606
	c4.827,0.718,9.658,1.336,13.384,2.728C137.886,352.942,133.055,352.324,128.228,351.606 M0.731,0.731h330.403v444.792
	 M331.134,445.523c-35.522,61.714-100.362,92.566-165.199,92.566c-64.84,0-129.68-30.853-165.204-92.566 M0.731,445.523V0.731"/>
</svg>
