<?xml version="1.0" encoding="utf-8"?>
<!-- Generator: Adobe Illustrator 13.0.2, SVG Export Plug-In . SVG Version: 6.00 Build 14948)  -->
<!DOCTYPE svg PUBLIC "-//W3C//DTD SVG 1.0//EN" "http://www.w3.org/TR/2001/REC-SVG-20010904/DTD/svg10.dtd">
<svg version="1.0" id="Ebene_1" xmlns="http://www.w3.org/2000/svg" xmlns:xlink="http://www.w3.org/1999/xlink" x="0px" y="0px"
	 width="288.891px" height="351.494px" viewBox="0 0 288.891 351.494" enable-background="new 0 0 288.891 351.494"
	 xml:space="preserve">
<path fill-rule="evenodd" clip-rule="evenodd" fill="#007C30" d="M11.14,53.438c-0.002,0.002-2.628,2.723-2.628,2.723l-0.965,3.662
	C2.54,78.876,0,98.33,0,117.646c0,17.973,2.207,36.173,6.559,54.095c10.107,45.276,30.703,85.167,61.206,118.526
	c18.89,21.426,42.181,40.523,69.205,56.738l7.476,4.488l7.479-4.492c27.021-16.211,50.311-35.309,69.225-56.758
	c30.48-33.336,51.074-73.227,61.188-118.538c4.346-17.876,6.555-36.074,6.555-54.057c0-19.322-2.541-38.777-7.555-57.825
	l-0.959-3.662l-2.627-2.724C244.09,18.495,197.994,0.017,144.448,0C90.935-0.021,44.837,18.458,11.14,53.438L11.14,53.438z"/>
<path fill-rule="evenodd" clip-rule="evenodd" fill="#FFE100" d="M13.807,56.01L13.807,56.01
	C46.79,21.772,91.965,3.687,144.447,3.706c52.516,0.016,97.689,18.102,130.635,52.303c0,0.001,1.322,1.37,1.957,2.028
	c0.178,0.683,0.715,2.728,0.715,2.728c4.93,18.743,7.43,37.881,7.43,56.885c0,17.688-2.172,35.592-6.457,53.216
	c-9.977,44.703-30.273,84.023-60.336,116.902c-18.682,21.188-41.68,40.043-68.375,56.059c0,0-3.761,2.262-5.57,3.348
	c-1.391-0.836-5.568-3.348-5.568-3.348c-26.697-16.016-49.695-34.871-68.355-56.035C40.438,254.888,20.14,215.572,10.168,170.9
	c-4.29-17.67-6.462-35.576-6.462-53.254c0-18.999,2.498-38.136,7.425-56.88c0,0,0.539-2.047,0.718-2.728
	C12.338,57.532,13.807,56.01,13.807,56.01L13.807,56.01z"/>
<path fill-rule="evenodd" clip-rule="evenodd" fill="#FFFFFF" d="M15.514,57.652l-1.529,1.589l-0.561,2.127
	c-9.472,36.028-9.786,72.723-0.936,109.064c9.857,44.225,29.983,83.194,59.815,115.795c18.425,20.934,41.239,39.637,67.791,55.566
	l4.351,2.613l4.352-2.613c26.547-15.93,49.391-34.664,67.898-55.688c29.758-32.52,49.861-71.5,59.738-115.838
	c8.828-36.215,8.504-72.862-0.969-108.899c0-0.001-0.561-2.128-0.561-2.128l-1.529-1.589
	c-32.484-33.724-77.066-51.56-128.929-51.579C92.622,6.058,48.037,23.893,15.514,57.652L15.514,57.652z M144.445,8.609
	c51.156,0.02,95.107,17.587,127.102,50.802c0,0,0.701,0.728,1.072,1.114c0.115,0.433,0.395,1.489,0.395,1.489
	c4.846,18.438,7.27,37.038,7.27,55.66c0,17.357-2.107,34.734-6.318,52.018c-9.785,43.922-29.686,82.516-59.156,114.723
	c-18.352,20.84-40.994,39.41-67.318,55.207c0,0-1.985,1.191-3.045,1.828c-0.885-0.531-3.045-1.828-3.045-1.828
	c-26.328-15.801-48.94-34.332-67.21-55.086c-29.545-32.289-49.468-70.867-59.232-114.68c-4.229-17.365-6.343-34.808-6.343-52.214
	c0-18.629,2.421-37.217,7.262-55.629c0,0,0.277-1.056,0.392-1.489c0.311-0.322,1.072-1.113,1.072-1.113l0,0
	C49.374,26.16,93.326,8.594,144.445,8.609L144.445,8.609z"/>
<path fill-rule="evenodd" clip-rule="evenodd" fill="#005221" d="M144.445,334.548c25.779-15.473,47.746-33.406,65.908-54.027
	c22.365-24.449,38.959-52.262,49.791-83.629H28.745c10.834,31.367,27.429,59.18,49.796,83.629
	C96.698,301.142,118.666,319.076,144.445,334.548L144.445,334.548z"/>
<path fill-rule="evenodd" clip-rule="evenodd" fill="#FFE100" d="M218.99,196.892V30.127c-15.027-6.711-31.617-11.313-49.693-13.509
	v180.274H218.99L218.99,196.892z"/>
<path fill-rule="evenodd" clip-rule="evenodd" fill="#007C30" d="M69.907,30.041c-18.527,8.278-34.635,19.773-48.307,33.92
	c-9.191,34.854-9.414,69.707-0.895,104.56c2.184,9.766,4.871,19.219,8.045,28.372h41.156V30.041L69.907,30.041z"/>
<path fill-rule="evenodd" clip-rule="evenodd" fill="#FFE100" d="M119.598,196.892V16.585c-18.146,2.175-34.711,6.761-49.69,13.456
	v166.851H119.598L119.598,196.892z"/>
<path fill-rule="evenodd" clip-rule="evenodd" fill="#007C30" d="M169.297,196.892V16.618c-7.996-0.973-16.279-1.482-24.852-1.485
	c-8.59-0.002-16.869,0.496-24.848,1.452v180.307H169.297L169.297,196.892z"/>
<path fill-rule="evenodd" clip-rule="evenodd" fill="#007C30" d="M267.287,63.961c-13.631-14.105-29.779-25.565-48.297-33.834
	v166.765h41.148c3.174-9.152,5.859-18.605,8.041-28.372C276.703,133.668,276.482,98.815,267.287,63.961L267.287,63.961z"/>
<path fill-rule="evenodd" clip-rule="evenodd" fill="#005221" d="M88.179,286.912c-30.213-33.031-50.362-71.926-60.432-117.133
	c-8.899-36.538-8.667-73.076,0.938-109.615c10.681-11.09,22.779-20.622,36.295-28.355c-16.467,8.083-30.931,18.793-43.38,31.713
	c-9.191,34.971-9.414,69.938-0.895,104.905c9.643,43.267,28.918,80.486,57.835,112.095c14.981,17.02,32.575,32.203,52.749,45.684
	C115.165,314.302,100.786,301.232,88.179,286.912L88.179,286.912z"/>
<path fill-rule="evenodd" clip-rule="evenodd" fill="#C6D218" d="M267.287,63.521c-29.586-30.716-71.014-48.974-122.842-48.99
	C95.753,14.515,56.957,30.304,27.946,57.287C56.226,32.468,93.435,18.043,139.69,18.06c51.196,0.021,92.118,18.053,121.341,48.39
	c9.08,34.546,9.303,74.841,0.887,109.375c-9.52,42.74-28.563,79.501-57.125,110.728c-0.441,0.496-0.896,0.984-1.342,1.484
	c2.357-2.465,4.66-4.969,6.902-7.516c28.914-31.609,48.189-68.828,57.828-112.095C276.703,133.458,276.482,98.491,267.287,63.521
	L267.287,63.521z"/>
<path fill="#007C30" d="M147.422,232.181c-0.111,0.051-0.354,0.156-0.584,0.258c-0.511,0-13.705-0.027-13.705-0.027
	c-5.855,0-10.114,7.707-10.293,8.035l-2.126,3.91l3.891-2.16c1.496-0.832,2.757-1.469,3.809-1.957
	c-0.456,0.273-0.675,0.457-0.807,0.57c-2.844,2.414-3.618,9.484-3.696,10.285l-0.344,3.477c0,0,9.072-8.68,9.429-9.02
	c0.49-0.18,1.633-0.574,4.056-1.379c-0.705,0.66-1.202,1.176-1.503,1.563c-1.169,1.484-1.432,4.371-1.432,6.668
	c0,1.453,0.105,2.668,0.153,3.137l0.313,3.133c0,0,7.318-9.047,7.463-9.227c0.17-0.145,10.205-8.746,11.074-9.488
	c1.041,0.203,9.568,1.883,9.568,1.883l-1.082-2.313c-0.289-0.617-2.654-5.461-6.082-6.82c0.361-1.633,5.131-23.152,7.938-35.816
	h-8.779C152.396,208.001,147.619,231.22,147.422,232.181L147.422,232.181z"/>
<path fill="#007C30" d="M106.242,201.326c-3.398,1.621-4.35,5.012-4.35,7.742c0,0.949,0.112,1.816,0.272,2.5l0.504,2.152
	c0,0,6.128-5.617,6.554-6.008c0.186-0.047,1.292-0.344,2.393-0.641c-2.371,2.41-3.045,3.438-3.319,4.02
	c-0.72,1.508-0.926,3.559-0.926,5.406c0,2.219,0.296,4.148,0.354,4.512l0.6,3.684c0,0,5.689-10.258,5.858-10.563
	c1.006-0.996,7.566-6.84,13.503-12.086c0.315-0.121,1.771-0.668,2.476-0.934c0.572,0.316,1.432,0.793,1.644,0.91
	c0.238,0.238,4.42,4.445,4.42,4.445l0.641-2.043c0.023-0.07,0.468-1.512,0.468-3.094c0-0.27-0.014-0.547-0.044-0.82
	c-0.068-0.586-0.278-1.207-0.598-1.859c0.698-0.262,2.461-0.926,4.663-1.758h-24.786c-4.174,0.941-6.792,1.672-7.802,2.18
	C107.887,199.517,107.039,200.283,106.242,201.326L106.242,201.326z"/>
<path fill-rule="evenodd" clip-rule="evenodd" fill="#003B18" d="M127.749,241.189c16.312-9.422,37.218-3.82,46.644,12.488
	c9.404,16.297,3.789,37.203-12.508,46.621c-16.304,9.406-37.202,3.816-46.628-12.488
	C105.864,271.505,111.452,250.599,127.749,241.189L127.749,241.189L127.749,241.189z"/>
<path fill-rule="evenodd" clip-rule="evenodd" fill="#A26607" d="M144.521,272.31c1.681,1.355,5.753,4.082,10.397,3.191
	c3.08-0.605,5.771-2.91,7.992-6.801c1.463,1.82,3.748,3.848,6.744,4.02c2.086,0.105,4.15-0.875,6.178-2.809
	c0.07,2.766-0.186,5.496-0.816,8.105c-0.055,0.086-0.439,0.742-0.439,0.742c-7.342,12.488-30.785,9.125-34.04,8.59
	c-0.127-0.207-0.892-1.391-0.892-1.391c-1.736-3.02-2.229-5.688-1.464-7.93C139.357,274.603,143.13,272.841,144.521,272.31
	L144.521,272.31z"/>
<path fill-rule="evenodd" clip-rule="evenodd" fill="#A26607" d="M131.796,249.568l0.103,0.172c1.472,2.895-0.771,6.895-0.925,7.164
	c-0.796,0.93-14.035,16.68-12.313,30.617c-0.294-0.434-0.55-0.844-0.768-1.227c-7.6-13.152-4.378-30.199,7.454-39.727
	C128.674,246.927,130.852,247.923,131.796,249.568L131.796,249.568z"/>
<path fill-rule="evenodd" clip-rule="evenodd" fill="#A26607" d="M142.049,261.685c0.295,0.324,0.551,0.691,0.773,1.078
	c1.345,2.332,1.274,5.172,1.075,6.789c-1.454,0.512-6.646,2.613-8.349,7.559c-1.05,3.074-0.483,6.52,1.671,10.273
	c0.011,0,0.032,0.035,0.074,0.082c-2.278,0.379-5.103,1.344-6.703,3.797c-1.142,1.75-1.345,4.016-0.698,6.707
	c-2.316-1.27-4.467-2.805-6.379-4.594c-0.049-0.09-0.297-0.543-0.297-0.543c-7.141-12.605,7.464-31.184,9.586-33.777
	C137.135,258.736,140.256,259.623,142.049,261.685L142.049,261.685z"/>
<path fill-rule="evenodd" clip-rule="evenodd" fill="#A26607" d="M139.577,290.005c1.144,0.227,21.3,3.867,32.581-4.566
	c-2.729,5.121-6.76,9.344-11.783,12.246c-8.287,4.77-18.154,5.457-27.107,1.863c-1.217-2.953-1.333-5.223-0.334-6.758
	C134.623,290.181,138.989,290.017,139.577,290.005L139.577,290.005z"/>
<path fill-rule="evenodd" clip-rule="evenodd" fill="#A26607" d="M136.299,240.869c0.096,0,0.533,0.012,0.533,0.012
	c9.029,0.078,15.82,8.574,19.939,15.703c2.51,4.34,4.039,8.199,4.525,9.469c-1.91,3.926-4.23,6.191-6.902,6.711
	c-3.281,0.637-6.438-1.363-7.79-2.371c0.309-2.063,0.504-5.773-1.362-9.023c-0.31-0.535-0.676-1.043-1.089-1.512
	c-2.041-2.344-5.371-3.516-9.892-3.484c0.855-2.203,1.487-5.203,0.118-7.879c0-0.012-0.167-0.316-0.167-0.316
	c-1.057-1.832-3.043-3.082-5.837-3.801c0.44-0.273,0.9-0.566,0.9-0.566C131.417,242.572,133.787,241.591,136.299,240.869
	L136.299,240.869z"/>
<path fill-rule="evenodd" clip-rule="evenodd" fill="#A26607" d="M171.768,255.193c1.945,3.367,3.219,7.07,3.781,10.977
	c-1.963,2.59-3.893,3.859-5.746,3.77c-3.197-0.176-5.559-4.109-5.727-4.383c-0.213-0.594-1.844-5.129-4.861-10.363
	c-3.174-5.488-8.322-12.441-15.236-15.492C155.449,239.373,165.982,245.185,171.768,255.193L171.768,255.193z"/>
<path fill="#003B18" d="M182.537,99.724c-18.641-15.612-34.285-13.094-39.284-12.498c-7.399,0.879-12.886,4.206-17.587,7.248
	c-0.999,0.646-1.861,1.204-2.469,1.502c-2.683,1.314-5.295,1.327-6.656,0.033c-1.139-1.082-1.645-2.179-1.592-3.451
	c0.212-5.104,9.038-12.199,16.825-18.46c2.672-2.147,5.435-4.368,7.836-6.488c5.693-5.028,8.94-11.229,9.144-17.457
	c0.164-5.065-1.725-9.849-5.321-13.468c-6.266-6.307-17.134-6.508-24.178-3.497c-3.407,1.457-5.924,3.601-7.399,6.193L77.4,51.82
	c-1.665-2.34-5.296-2.082-7.769-1.764c-1.949,0.249-5.613,1.455-7.223-0.262c-1.546-1.64,0.186-4.212,1.586-5.253
	c2.031-1.521,4.649-1.82,7.14-1.899c0.126,1.14,1.02,2.298,2.426,2.956c2.007,0.932,4.769,0.564,5.586-0.907
	c0.82-1.473-0.627-3.493-2.633-4.419c-1.716-0.808-3.639-0.599-4.667,0.401c-1.136-0.148-2.289-0.197-3.437-0.147
	c-3.27,0.143-6.846,1.109-9.044,3.706c-1.626,1.914-2.376,4.995-0.563,7.066c0.529,0.598,1.246,1.049,1.994,1.324
	c3.232,1.18,6.365,0.166,9.62-0.215c1.205-0.14,3.024-0.354,3.67,0.608l-17.972,6.487l16.034-1.645
	c-1.022,0.912-2.146,1.647-3.282,2.742c-2.275,2.193-3.123,3.667-3.19,5.492c-0.114,3.075,2.712,4.769,4.242,5.106
	c2.803,0.629,5.761-0.753,7.749-2.679c0.396-0.388,0.705-0.788,1.099-1.251c-1.456,0.615-2.526,1.205-4.083,1.558
	c-1.786,0.402-3.811-0.057-4.493-1.772c-0.598-1.506-0.198-2.965,0.772-4.089c1.222-1.417,3.252-3.125,4.565-4.467
	c0.325-0.337,0.659-0.702,0.976-1.087l36.779-3.773c0.556,0.628,1.185,1.195,1.89,1.69c2.916,2.045,6.597,2.573,9.516,2.531
	c-2.314,2.385-6.319,5.138-10.526,8.01C101.82,74.299,84.2,86.329,84.2,105.586c0,3.757,0.636,8.691,3.019,14.214
	c0.192-0.33,3.184-2.479,3.713-2.873c-0.402,1.517-0.582,2.922-0.582,4.225c0,6.221,4.692,11.269,8.86,14.517
	c0,0,1.127-2.613,1.171-2.72c1.648,7.742,5.479,11.095,11.813,14.289c0.093-1.926,0.654-5.505,0.806-6.649
	c11.726,16.778,28.391,23.821,44.559,30.626c1.129,0.476,2.262,0.951,3.395,1.431l-2.105,10.423l-35.123,13.637
	c-5.313,1.066-12.628,2.641-14.374,3.523c-0.856,0.43-1.614,1.215-2.259,2.105c-5.25,2.184-3.668,8.938-3.668,8.938l5.157-4.723
	l7.531-2.027c-3.112,2.902-6.038,5.836-6.646,7.121c-1.457,3.055-0.464,9.16-0.464,9.16l4.137-7.457
	c0.9-0.957,11.39-10.238,13.868-12.43l3.258-1.223l2.327,1.285l3.04,3.055c0,0,0.553-1.758,0.372-3.379
	c-0.113-0.969-0.732-2-1.212-2.668l22.751-8.574c0,0-7.309,35.547-8.988,43.68c-0.406,0.18-0.895,0.398-1.443,0.645
	c-4.269-0.008-11.538-0.031-13.979-0.031c-5.153,0-9.155,7.359-9.155,7.359c6.487-3.602,8.775-3.707,8.775-3.707
	c0.603,0.039,2.87,0.141,5.533,0.254c-4.26,1.457-8.569,3.105-9.843,4.188c-2.526,2.145-3.246,9.422-3.246,9.422l7.092-6.781
	c0.898-0.367,5.945-2.027,10.492-3.508c-2.581,2.137-5.354,4.5-6.215,5.602c-1.685,2.137-1.011,8.879-1.011,8.879l5.558-6.871
	l11.641-9.973l7.68,1.512c0,0-2.885-6.156-6.445-6.426l10.377-46.813c0,0,3.385-1.391,5.93-2.332
	c3.08-1.141,4.523-3.242,4.783-5.355c12.27,6.418,23.537,15.195,31.027,31.352c0.471-1.961,2.824-8.703,3.871-11.32
	c2.764,4.797,8.027,13.707,10.674,19.867C220.414,162.009,205.299,118.784,182.537,99.724L182.537,99.724z M165.799,180.373
	l1.129-5.136c0.881,0.395,1.76,0.793,2.637,1.201C169.182,179.826,165.799,180.373,165.799,180.373L165.799,180.373z"/>
<path fill="#FFFFFF" d="M78.028,54.496c0.013-0.068,0.023-0.137,0.032-0.206l32.386-10.724c-0.078,0.605-0.113,1.223-0.097,1.854
	c0.006,0.237,0.019,0.471,0.034,0.703l-15.88,4.403l16.054-2.883c0.133,0.808,0.325,1.576,0.58,2.301L78.028,54.496L78.028,54.496z"
	/>
<path fill="#FFFFFF" d="M170.777,151.514l-0.771,3.404c-20.51-7.063-40.575-19.222-50.796-33.366
	c9.498,18.109,26.598,29.257,42.688,36.494c16.418,7.385,31.535,14.63,45.664,37.131c-0.57,1.324-1.609,3.813-2.461,6.266
	c-11.33-19.063-28.977-26.498-46.082-33.698c-17.731-7.463-35.985-14.805-47.896-37.273c-0.326,1.19-1.437,6.674-1.614,7.904
	c-0.129,0.89-0.258,1.789-0.358,2.659c-2.78-2.358-6.907-8.345-5.934-19.173c-1.949,1.354-4.688,6.178-5.323,7.477
	c-1.989-2.11-3.762-4.648-3.762-8.222c0-2.055,1.069-7.341,2.534-10.191c-1.354-0.001-5.788,1.446-7.6,2.708
	c-0.74-2.807-1.081-5.466-1.081-7.989c0-17.342,16.046-28.299,28.299-36.665c7.172-4.896,14.547-11.06,14.925-15.986
	c-4.114,1.461-10.269,1.785-13.875-0.744c-2.086-1.463-3.14-3.729-3.223-6.927c-0.13-5.027,4.094-7.592,6.623-8.674
	c5.988-2.56,15.117-2.254,20.029,2.688c2.857,2.877,4.359,6.674,4.229,10.692c-0.169,5.183-2.965,10.424-7.874,14.759
	c-2.335,2.063-4.942,4.158-7.702,6.377c-9.229,7.418-17.811,14.425-18.094,21.236c-0.099,2.37,0.563,4.635,2.491,6.469
	c2.554,2.427,7,2.396,11.174,0.352c0.808-0.396,1.757-1.011,2.856-1.722c4.409-2.853,9.189-5.36,15.72-6.137
	c6.108-0.727,19.593-2.452,36.425,11.646c2.406,2.016,4.709,4.283,6.906,6.793c6.086,8.327,9.09,17.229,8.336,24.502
	c3.135,3.365,11.387,13.549,15.895,29.262c0.539,2.371,1.051,4.798,1.533,7.277c-3.504-9.913-10.625-21.155-19.305-30.165
	c-0.545,1.022-1.201,1.979-1.98,2.856c-0.578,0.652-1.213,1.24-1.889,1.774c12.691,10.905,22.467,27.133,26.32,45.58
	c0.041,0.328,0.076,0.66,0.115,0.992c-1.436-4.316-10.236-28.542-31.283-43.981c-2.078,0.705-4.371,1.074-6.818,1.108
	c27.91,18.886,36.646,46.017,39.363,55.611C203.504,176.11,186.109,159.905,170.777,151.514L170.777,151.514z"/>
<path fill="#003B18" d="M133.263,47.034c-0.13-3.471-1.803-6.361-4.512-7.221c-0.51-0.161-1.029-0.243-1.552-0.25
	c-2.266-0.034-4.582,1.32-6.291,3.57c1.523-1.057,3.242-1.646,4.967-1.647c-0.826,0.242-1.482,0.944-1.617,1.853
	c-0.164,1.24,0.69,2.389,1.932,2.566c1.247,0.175,2.387-0.688,2.57-1.923c0.133-0.95-0.34-1.839-1.124-2.287
	c0.162,0.04,0.323,0.084,0.483,0.135C130.555,42.592,132.35,44.541,133.263,47.034L133.263,47.034z"/>
<path fill="#FFFFFF" d="M63.166,224.396h-6.282l-1.635,3.563h-2.386l7.262-15.605l7.006,15.605h-2.426L63.166,224.396
	L63.166,224.396z M62.263,222.322l-2.177-4.992l-2.279,4.992H62.263L62.263,222.322z"/>
<path fill="#FFFFFF" d="M71.494,227.958v-14.68h3.08c1.478,0,2.645,0.145,3.499,0.438c0.919,0.285,1.753,0.77,2.501,1.453
	c1.515,1.387,2.271,3.203,2.271,5.453c0,2.258-0.79,4.082-2.366,5.477c-0.793,0.695-1.623,1.18-2.491,1.453
	c-0.811,0.273-1.962,0.406-3.452,0.406H71.494L71.494,227.958z M73.688,225.888h1c0.998,0,1.829-0.105,2.49-0.313
	c0.661-0.223,1.26-0.574,1.793-1.059c1.094-0.996,1.641-2.293,1.641-3.895c0-1.613-0.541-2.922-1.62-3.926
	c-0.974-0.895-2.407-1.344-4.304-1.344h-1V225.888L73.688,225.888z"/>
<path fill="#FFFFFF" d="M87.438,220.552c0-2.066,0.759-3.848,2.272-5.332c1.507-1.48,3.319-2.223,5.436-2.223
	c2.09,0,3.885,0.746,5.379,2.246c1.501,1.496,2.25,3.293,2.25,5.395c0,2.109-0.752,3.898-2.26,5.367
	c-1.516,1.477-3.342,2.219-5.483,2.219c-1.895,0-3.596-0.656-5.104-1.969C88.27,224.806,87.438,222.904,87.438,220.552
	L87.438,220.552z M89.673,220.576c0,1.625,0.545,2.957,1.635,4.004c1.082,1.047,2.335,1.57,3.753,1.57
	c1.539,0,2.838-0.531,3.896-1.598c1.058-1.078,1.587-2.391,1.587-3.938c0-1.566-0.523-2.883-1.568-3.945
	c-1.039-1.066-2.323-1.598-3.856-1.598c-1.527,0-2.816,0.531-3.867,1.598C90.199,217.724,89.673,219.029,89.673,220.576
	L89.673,220.576z"/>
<path fill="#FFFFFF" d="M116.636,227.958v-14.68h3.081c1.476,0,2.643,0.145,3.5,0.438c0.917,0.285,1.751,0.77,2.499,1.453
	c1.515,1.387,2.272,3.203,2.272,5.453c0,2.258-0.789,4.082-2.368,5.477c-0.792,0.695-1.623,1.18-2.491,1.453
	c-0.811,0.273-1.962,0.406-3.451,0.406H116.636L116.636,227.958z M118.83,225.888h1.001c0.998,0,1.828-0.105,2.49-0.313
	c0.659-0.223,1.26-0.574,1.791-1.059c1.095-0.996,1.642-2.293,1.642-3.895c0-1.613-0.54-2.922-1.621-3.926
	c-0.974-0.895-2.406-1.344-4.302-1.344h-1.001V225.888L118.83,225.888z"/>
<polygon fill="#FFFFFF" points="141.384,215.353 135.5,215.353 135.5,218.9 141.212,218.9 141.212,220.974 135.5,220.974 
	135.5,225.888 141.384,225.888 141.384,227.958 133.307,227.958 133.307,213.279 141.384,213.279 141.384,215.353 "/>
<polygon fill="#FFFFFF" points="146.847,227.958 146.847,212.271 157.557,223.486 157.557,213.279 159.75,213.279 159.75,228.849 
	149.043,217.685 149.043,227.958 146.847,227.958 "/>
<polygon fill="#FFFFFF" points="176.553,219.025 182.934,219.025 182.934,213.279 185.127,213.279 185.127,227.958 182.934,227.958 
	182.934,221.095 176.553,221.095 176.553,227.958 174.359,227.958 174.359,213.279 176.553,213.279 176.553,219.025 "/>
<path fill="#FFFFFF" d="M199.801,224.396h-6.283l-1.633,3.563h-2.389l7.264-15.605l7.004,15.605h-2.424L199.801,224.396
	L199.801,224.396z M198.896,222.322l-2.176-4.992l-2.281,4.992H198.896L198.896,222.322z"/>
<path fill="#FFFFFF" d="M216.754,224.396h-6.281l-1.633,3.563h-2.387l7.26-15.605l7.006,15.605h-2.424L216.754,224.396
	L216.754,224.396z M215.852,222.322l-2.176-4.992l-2.281,4.992H215.852L215.852,222.322z"/>
<path fill="#FFFFFF" d="M231.961,220.33h6.064v0.484c0,1.102-0.131,2.078-0.391,2.926c-0.252,0.789-0.682,1.52-1.283,2.203
	c-1.363,1.535-3.094,2.301-5.199,2.301c-2.053,0-3.811-0.742-5.273-2.223c-1.457-1.492-2.186-3.277-2.186-5.363
	c0-2.133,0.74-3.941,2.225-5.426c1.488-1.492,3.301-2.234,5.434-2.234c1.148,0,2.219,0.23,3.215,0.695
	c0.949,0.469,1.885,1.223,2.803,2.273l-1.578,1.512c-1.205-1.605-2.67-2.406-4.398-2.406c-1.555,0-2.857,0.535-3.908,1.609
	c-1.051,1.059-1.576,2.379-1.576,3.965c0,1.641,0.582,2.988,1.758,4.047c1.096,0.984,2.283,1.477,3.564,1.477
	c1.088,0,2.068-0.367,2.938-1.102c0.867-0.742,1.35-1.629,1.453-2.664h-3.66V220.33L231.961,220.33z"/>
<polygon fill="#FFFFFF" points="130.761,309.435 128.881,309.435 129.782,307.888 132.394,307.888 132.394,318.767 130.761,318.767 
	130.761,309.435 "/>
<path fill="#FFFFFF" d="M137.813,319.138l-1.209-0.898l2.607-3.555c-0.141,0.02-0.261,0.035-0.36,0.043
	c-0.1,0.012-0.179,0.016-0.241,0.016c-0.88,0-1.643-0.336-2.287-1.004c-0.642-0.664-0.961-1.465-0.961-2.402
	c0-0.996,0.354-1.852,1.066-2.555c0.717-0.711,1.573-1.07,2.571-1.07c0.994,0,1.857,0.355,2.594,1.055
	c0.733,0.703,1.102,1.527,1.102,2.48c0,0.844-0.357,1.758-1.073,2.738L137.813,319.138L137.813,319.138z M136.973,311.22
	c0,0.59,0.199,1.082,0.599,1.48c0.403,0.406,0.889,0.605,1.457,0.605c0.567,0,1.052-0.199,1.451-0.598
	c0.402-0.406,0.605-0.891,0.605-1.457c0-0.57-0.203-1.055-0.605-1.457c-0.399-0.402-0.886-0.602-1.458-0.602
	c-0.563,0-1.044,0.199-1.444,0.602C137.173,310.197,136.973,310.673,136.973,311.22L136.973,311.22z"/>
<path fill="#FFFFFF" d="M144.091,313.259c0-1.73,0.404-3.113,1.212-4.145c0.723-0.934,1.6-1.402,2.629-1.402
	s1.904,0.469,2.627,1.402c0.809,1.031,1.215,2.438,1.215,4.215s-0.406,3.18-1.215,4.211c-0.723,0.934-1.596,1.402-2.621,1.402
	c-1.024,0-1.901-0.469-2.635-1.402C144.495,316.509,144.091,315.083,144.091,313.259L144.091,313.259z M145.701,313.259
	c0,1.207,0.209,2.211,0.627,3.008c0.419,0.781,0.952,1.176,1.6,1.176c0.645,0,1.178-0.395,1.6-1.176
	c0.424-0.781,0.635-1.762,0.635-2.949s-0.211-2.172-0.635-2.957c-0.422-0.777-0.955-1.168-1.6-1.168
	c-0.64,0-1.171,0.391-1.593,1.168C145.912,311.134,145.701,312.103,145.701,313.259L145.701,313.259z"/>
<path fill="#FFFFFF" d="M159.969,309.435h-3.363l-0.535,1.789c0.08-0.012,0.156-0.016,0.229-0.02
	c0.072-0.008,0.139-0.008,0.201-0.008c1.057,0,1.924,0.355,2.604,1.07c0.686,0.711,1.027,1.617,1.027,2.727
	c0,1.148-0.385,2.09-1.16,2.836c-0.773,0.742-1.746,1.113-2.914,1.113c-1.443,0-2.58-0.68-3.41-2.039l1.24-1.051
	c0.344,0.586,0.688,0.996,1.035,1.234s0.771,0.355,1.275,0.355c0.656,0,1.209-0.23,1.654-0.695c0.445-0.473,0.67-1.047,0.67-1.727
	c0-0.695-0.221-1.262-0.662-1.707c-0.443-0.453-0.992-0.684-1.654-0.684c-0.738,0-1.375,0.324-1.91,0.969h-0.541l1.709-5.711h4.506
	V309.435L159.969,309.435z"/>
</svg>
