<?xml version="1.0" encoding="utf-8"?>
<!-- Generator: Adobe Illustrator 13.0.0, SVG Export Plug-In . SVG Version: 6.00 Build 14948)  -->
<!DOCTYPE svg PUBLIC "-//W3C//DTD SVG 1.1//EN" "http://www.w3.org/Graphics/SVG/1.1/DTD/svg11.dtd">
<svg version="1.1" xmlns="http://www.w3.org/2000/svg" xmlns:xlink="http://www.w3.org/1999/xlink" x="0px" y="0px"
	 width="339.742px" height="342.517px" viewBox="0 0 339.742 342.517" enable-background="new 0 0 339.742 342.517"
	 xml:space="preserve">
<g id="Sfondo">
</g>
<g id="Guide">
</g>
<g id="Primo_piano">
</g>
<g id="Livello_1">
	<g>
		<path fill-rule="evenodd" clip-rule="evenodd" fill="#145395" d="M96.96,124.948v107.078c0,0,0.303,17.205,15.957,28.568
			c0.717,0.504,1.428,1.015,2.209,1.492l54.012,35.908l54.01-35.908c0.569-0.354,1.125-0.724,1.654-1.099
			c16.223-11.351,16.513-28.962,16.513-28.962V124.948H96.96z"/>
		<polygon fill="none" stroke="#939396" stroke-width="13.2313" stroke-miterlimit="2.613" points="169.111,298.105 168.95,297.995 
			168.795,298.105 		"/>
		<path fill-rule="evenodd" clip-rule="evenodd" fill="#FFFFFF" d="M82.63,258.146c5.529,1.692,10.653,0.962,12.779-2.21
			c2.835-4.264-0.807-11.338-8.146-15.802c-7.346-4.445-15.602-4.601-18.446-0.343c-2.5,3.772,0.052,9.729,5.744,14.148l-1.55,1.317
			c-3.333,1.144-7.132,6.7-10.04,11.843c1.68,0.568,3.386,1.351,5.04,2.358c2.487,1.505,4.535,3.32,6.06,5.214
			c3.98-6.791,6.777-14.265,6.777-14.265C81.732,258.172,82.63,258.146,82.63,258.146z"/>
		<path fill="none" stroke="#145395" stroke-width="19.8469" stroke-miterlimit="2.613" d="M82.63,258.146
			c5.529,1.692,10.653,0.962,12.779-2.21c2.835-4.264-0.807-11.338-8.146-15.802c-7.346-4.445-15.602-4.601-18.446-0.343
			c-2.5,3.772,0.052,9.729,5.744,14.148l-1.55,1.317c-3.333,1.144-7.132,6.7-10.04,11.843c1.68,0.568,3.386,1.351,5.04,2.358
			c2.487,1.505,4.535,3.32,6.06,5.214c3.98-6.791,6.777-14.265,6.777-14.265C81.732,258.172,82.63,258.146,82.63,258.146z"/>
		<path fill="none" stroke="#145395" stroke-width="24.4646" stroke-miterlimit="2.613" d="M85.091,260.86 M97.095,262.43
			c-4.994,3.733-12.004-1.569-12.004-1.569 M91.178,269.892l5.917-7.462 M85.091,260.86c-4.244,2.447,4.684,11.099,4.684,11.099
			c0.343,0.078,1.085-2.08,1.402-2.067"/>
		<path fill-rule="evenodd" clip-rule="evenodd" fill="#145395" d="M268.675,287.07c1.39-0.982,2.953-2.396,2.08-2.952
			c-7.636-4.95-14.729-23.937-14.729-23.937c-0.898-2.236-1.797-2.262-1.797-2.262c-5.517,1.692-10.654,0.969-12.772-2.209
			c-2.843-4.258,0.807-11.338,8.14-15.784c7.339-4.457,15.596-4.619,18.446-0.361c2.513,3.772-0.052,9.729-5.744,14.148l1.557,1.306
			c6.486,2.255,14.769,21.28,14.769,21.28c5.361-2.248,6.486-7.396,6.486-7.396c0.672-2.01-0.968-2.565-0.968-2.565
			c-5.874-3.683-10.04-19.795-10.04-19.795c0.038-2.184-0.518-4.193-1.681-5.943c-4.128-6.202-14.73-6.603-24.111-0.911
			c-5.684,3.45-9.735,8.457-10.82,13.387c-0.692,3.074-0.213,5.957,1.376,8.314c4.987,5.253,12.915-0.756,12.915-0.756
			c4.089,2.966-6.604,11.325-6.604,11.325s-28.989,32.522-76.19,32.522c-47.194,0-79.213-32.522-79.213-32.522
			s-8.928-8.877-4.684-11.325c0,0,7.927,6.009,12.915,0.756c1.569-2.357,2.048-5.24,1.363-8.314
			c-1.098-4.93-5.136-9.937-10.827-13.387c-9.381-5.691-19.977-5.291-24.104,0.911c-1.163,1.75-1.719,3.76-1.667,5.943
			c0,0-4.18,16.112-10.06,19.795c0,0-1.634,0.556-0.962,2.565c0,0,1.112,5.148,6.479,7.396c0,0,8.29-19.025,14.782-21.28l1.55-1.306
			c-5.692-4.419-8.243-10.376-5.744-14.148c2.844-4.258,11.1-4.096,18.446,0.361c7.339,4.446,10.982,11.526,8.146,15.784
			c-2.126,3.178-7.25,3.901-12.779,2.209c0,0-0.898,0.025-1.783,2.262c0,0-7.094,18.986-14.744,23.937
			c-0.872,0.556,0.692,1.97,2.081,2.952c0,0,41.108,43.215,100.106,43.215C227.303,330.285,268.675,287.07,268.675,287.07z"/>
		<path fill="none" stroke="#145395" stroke-width="24.4646" stroke-miterlimit="2.613" d="M268.675,287.07
			c1.39-0.982,2.953-2.396,2.08-2.952c-7.636-4.95-14.729-23.937-14.729-23.937c-0.898-2.236-1.797-2.262-1.797-2.262
			c-5.517,1.692-10.654,0.969-12.772-2.209c-2.843-4.258,0.807-11.338,8.14-15.784c7.339-4.457,15.596-4.619,18.446-0.361
			c2.513,3.772-0.052,9.729-5.744,14.148l1.557,1.306c6.486,2.255,14.769,21.28,14.769,21.28c5.361-2.248,6.486-7.396,6.486-7.396
			c0.672-2.01-0.968-2.565-0.968-2.565c-5.874-3.683-10.04-19.795-10.04-19.795c0.038-2.184-0.518-4.193-1.681-5.943
			c-4.128-6.202-14.73-6.603-24.111-0.911c-5.684,3.45-9.735,8.457-10.82,13.387c-0.692,3.074-0.213,5.957,1.376,8.314
			c4.987,5.253,12.915-0.756,12.915-0.756c4.089,2.966-6.604,11.325-6.604,11.325s-28.989,32.522-76.19,32.522
			c-47.194,0-79.213-32.522-79.213-32.522s-8.928-8.877-4.684-11.325c0,0,7.927,6.009,12.915,0.756
			c1.569-2.357,2.048-5.24,1.363-8.314c-1.098-4.93-5.136-9.937-10.827-13.387c-9.381-5.691-19.977-5.291-24.104,0.911
			c-1.163,1.75-1.719,3.76-1.667,5.943c0,0-4.18,16.112-10.06,19.795c0,0-1.634,0.556-0.962,2.565c0,0,1.112,5.148,6.479,7.396
			c0,0,8.29-19.025,14.782-21.28l1.55-1.306c-5.692-4.419-8.243-10.376-5.744-14.148c2.844-4.258,11.1-4.096,18.446,0.361
			c7.339,4.446,10.982,11.526,8.146,15.784c-2.126,3.178-7.25,3.901-12.779,2.209c0,0-0.898,0.025-1.783,2.262
			c0,0-7.094,18.986-14.744,23.937c-0.872,0.556,0.692,1.97,2.081,2.952c0,0,41.108,43.215,100.106,43.215
			C227.303,330.285,268.675,287.07,268.675,287.07z"/>
		<path fill-rule="evenodd" clip-rule="evenodd" fill="#FFFFFF" d="M254.229,258.146c-5.517,1.692-10.654,0.962-12.772-2.21
			c-2.843-4.264,0.807-11.338,8.14-15.802c7.339-4.445,15.596-4.601,18.446-0.343c2.513,3.772-0.052,9.729-5.744,14.148l1.557,1.317
			c3.32,1.144,7.119,6.7,10.033,11.843c-1.68,0.568-3.385,1.351-5.04,2.358c-2.487,1.505-4.542,3.32-6.06,5.214
			c-3.973-6.791-6.764-14.265-6.764-14.265C255.128,258.172,254.229,258.146,254.229,258.146z"/>
		<path fill="none" stroke="#145395" stroke-width="19.8469" stroke-miterlimit="2.613" d="M254.229,258.146
			c-5.517,1.692-10.654,0.962-12.772-2.21c-2.843-4.264,0.807-11.338,8.14-15.802c7.339-4.445,15.596-4.601,18.446-0.343
			c2.513,3.772-0.052,9.729-5.744,14.148l1.557,1.317c3.32,1.144,7.119,6.7,10.033,11.843c-1.68,0.568-3.385,1.351-5.04,2.358
			c-2.487,1.505-4.542,3.32-6.06,5.214c-3.973-6.791-6.764-14.265-6.764-14.265C255.128,258.172,254.229,258.146,254.229,258.146z"
			/>
		<path fill="none" stroke="#145395" stroke-width="24.4646" stroke-miterlimit="2.613" d="M251.782,260.86 M239.764,262.43
			c4.988,3.733,12.018-1.569,12.018-1.569 M246.341,270.796l-6.578-8.366 M251.782,260.86c4.245,2.447-4.975,9.936-4.975,9.936
			c-0.35,0.078-0.15-0.012-0.466,0"/>
		<rect x="101.126" y="151.728" fill-rule="evenodd" clip-rule="evenodd" fill="#FFFFFF" width="136.1" height="22.198"/>
		<rect x="101.113" y="193.908" fill-rule="evenodd" clip-rule="evenodd" fill="#FFFFFF" width="136.113" height="22.198"/>
		<path fill-rule="evenodd" clip-rule="evenodd" fill="#145395" d="M132.712,158.026c-2.423,0-3.824,2.43-3.824,5.46
			c0,3.76,1.718,5.071,3.702,5.071c2.118,0,3.972-1.764,3.972-5.614C136.563,159.887,134.987,158.026,132.712,158.026z
			 M139.458,163.318c0,2.79-1.692,5.038-4.496,6.021c1.718,1.058,3.546,2.183,4.619,2.712c-0.82,0.104-1.551,0.459-2.487,0.95
			c-1.603-1.285-2.294-1.802-4.607-3.359c-3.481,0-6.499-1.932-6.499-6.312c0-3.482,2.688-6.313,6.777-6.313
			C136.505,157.019,139.458,159.054,139.458,163.318z"/>
		<path fill-rule="evenodd" clip-rule="evenodd" fill="#145395" d="M144.885,165.01c0-1.905,0.025-2.854,0.025-4.128
			c0-1.88-0.025-3.057-0.065-3.637c0.472,0.051,0.963,0.09,1.441,0.09s0.982-0.039,1.454-0.09c-0.239,2.287-0.252,4.128-0.252,6.176
			c0,4.303,1.234,5,3.534,5c2.817,0,3.017-3.043,3.017-6.324c0-1.622-0.052-3.225-0.142-4.852c0.304,0.051,0.607,0.09,0.898,0.09
			c0.303,0,0.594-0.039,0.885-0.09c-0.103,1.046-0.226,3.572-0.226,6.615c0,4.09-1.784,5.782-5.214,5.782
			C147.223,169.643,144.885,168.318,144.885,165.01z"/>
		<path fill-rule="evenodd" clip-rule="evenodd" fill="#145395" d="M161.966,162.128c0-1.977-0.04-3.339-0.149-4.883
			c1.046,0.013,2.106,0.09,3.139,0.09c1.732,0,3.211-0.039,3.702-0.09c-0.038,0.213-0.077,0.419-0.077,0.736
			c0,0.375,0.039,0.529,0.077,0.794c-1.349-0.09-3.462-0.206-3.992-0.206c-0.084,1.279-0.084,2.564-0.084,3.851
			c1.525-0.046,2.662-0.084,4-0.148c-0.064,0.412-0.098,0.568-0.098,0.794c0,0.201,0.046,0.355,0.098,0.73
			c-1.337-0.11-2.662-0.162-4-0.162c0,0.744-0.025,1.493-0.025,2.248c0,0.744,0.025,1.513,0.052,2.21
			c1.325,0,2.687-0.064,4.05-0.227c-0.038,0.253-0.077,0.428-0.077,0.795c0,0.375,0.039,0.543,0.077,0.756
			c-0.646-0.013-1.479-0.076-3.095-0.076c-2.868,0-3.346,0.051-3.747,0.076c0.109-1.551,0.149-2.913,0.149-4.884V162.128z"/>
		<path fill-rule="evenodd" clip-rule="evenodd" fill="#145395" d="M174.325,162.128c0-1.977-0.039-3.339-0.148-4.883
			c1.047,0.013,2.106,0.09,3.153,0.09c1.718,0,3.198-0.039,3.675-0.09c-0.025,0.213-0.064,0.419-0.064,0.736
			c0,0.375,0.04,0.529,0.064,0.794c-1.336-0.09-3.456-0.206-3.979-0.206c-0.098,1.279-0.098,2.564-0.098,3.851
			c1.538-0.046,2.662-0.084,4.012-0.148c-0.064,0.412-0.097,0.568-0.097,0.794c0,0.201,0.045,0.355,0.097,0.73
			c-1.35-0.11-2.674-0.162-4.012-0.162c0,0.744-0.013,1.493-0.013,2.248c0,0.744,0.013,1.513,0.053,2.21
			c1.324,0,2.687-0.064,4.037-0.227c-0.025,0.253-0.064,0.428-0.064,0.795c0,0.375,0.04,0.543,0.064,0.756
			c-0.632-0.013-1.453-0.076-3.082-0.076c-2.887,0-3.346,0.051-3.747,0.076c0.11-1.551,0.148-2.913,0.148-4.884V162.128z"/>
		<path fill-rule="evenodd" clip-rule="evenodd" fill="#145395" d="M186.904,157.245c0.266,0.051,0.53,0.09,0.795,0.09
			s0.529-0.039,0.794-0.09c2.539,2.804,5.073,5.595,7.664,8.398c0-2.804,0-7.604-0.123-8.398c0.265,0.051,0.529,0.09,0.782,0.09
			c0.265,0,0.529-0.039,0.807-0.09c-0.291,5.129-0.291,7.487-0.291,12.171c-0.251-0.038-0.471-0.076-0.73-0.076
			c-0.231,0-0.458,0.038-0.67,0.076c-2.423-2.855-5.002-5.717-7.714-8.572c-0.04,1.324-0.04,2.79-0.04,4.115
			c0,2.816,0.052,3.812,0.104,4.457c-0.29-0.038-0.568-0.076-0.834-0.076c-0.265,0-0.542,0.038-0.807,0.076
			c0.085-0.504,0.363-5.064,0.363-8.669C187.001,159.163,186.917,158.092,186.904,157.245z"/>
		<path fill-rule="evenodd" clip-rule="evenodd" fill="#145395" d="M209.31,159.622c-0.375-1.001-1.06-1.519-2.132-1.519
			c-1.086,0-1.842,0.743-1.842,1.591c0,2.615,5.363,1.956,5.363,5.962c0,2.371-1.867,3.986-4.672,3.986
			c-1.285,0-2.345-0.361-2.849-0.756c0.227-0.809,0.388-1.44,0.504-2.236h0.349c0.193,1.021,1,1.907,2.43,1.907
			c1.375,0,2.066-0.809,2.066-1.803c0-2.655-5.252-1.958-5.252-5.963c0-2.436,1.868-3.773,3.966-3.773
			c1.273,0,2.223,0.329,2.889,0.86c-0.213,0.542-0.336,0.968-0.556,1.743H209.31z"/>
		<path fill-rule="evenodd" clip-rule="evenodd" fill="#145395" d="M146.855,199.556c-0.278,0-0.542,0-0.744,0.025
			c-0.013,1.653-0.025,3.308-0.025,4.948c1.182,0,2.649-0.316,2.649-2.591C148.735,200.137,147.862,199.556,146.855,199.556z
			 M143.469,203.444c0-1.983-0.025-3.334-0.135-4.89c0.388,0.038,0.859,0.089,1.441,0.089c0.827,0,1.737-0.089,2.584-0.089
			c1.654,0,2.513,0.264,3.068,0.724c0.743,0.625,1.099,1.336,1.099,2.383c0,2.7-1.905,3.786-4.542,3.786h-0.897
			c0,1.758,0.012,3.515,0.135,5.292c-0.388-0.04-0.858-0.092-1.446-0.092c-0.582,0-1.053,0.052-1.441,0.092
			c0.11-1.564,0.135-2.914,0.135-4.897V203.444z"/>
		<path fill-rule="evenodd" clip-rule="evenodd" fill="#145395" d="M161.106,206.08c-0.516-1.428-1.007-2.829-1.563-4.206
			c-0.607,1.377-1.151,2.778-1.667,4.206H161.106z M165.791,210.739c-0.568-0.04-1.059-0.092-1.563-0.092
			c-0.491,0-1.008,0.052-1.492,0.092c-0.375-1.202-0.782-2.423-1.221-3.626c-0.769-0.012-1.506-0.038-2.261-0.038
			c-0.621,0-1.215,0.026-1.829,0.038c-0.484,1.203-0.872,2.404-1.202,3.626c-0.291-0.04-0.555-0.092-0.833-0.092
			c-0.278,0-0.542,0.052-0.885,0.092c0.872-1.959,3.514-8.245,5.04-12.27c0.226,0.045,0.439,0.085,0.659,0.085
			c0.238,0,0.439-0.04,0.678-0.085C162.373,202.494,164.441,207.851,165.791,210.739z"/>
		<path fill-rule="evenodd" clip-rule="evenodd" fill="#145395" d="M173.795,199.556c-0.025,1.614-0.052,3.203-0.052,4.806
			c0.142,0.014,0.258,0.04,0.395,0.04c1.551,0,2.396-0.874,2.396-2.527C176.534,199.794,175.727,199.556,173.795,199.556z
			 M173.898,205.13h-0.155v0.712c0,1.983,0.039,3.333,0.142,4.897c-0.381-0.04-0.858-0.092-1.439-0.092
			c-0.582,0-1.073,0.052-1.454,0.092c0.103-1.564,0.13-2.914,0.13-4.897v-2.397c0-1.983-0.027-3.334-0.13-4.89
			c0.381,0.038,0.872,0.089,1.454,0.089c0.632,0,1.388-0.089,2.591-0.089c1.789,0,2.435,0.154,3.055,0.606
			c0.704,0.505,1.144,1.279,1.144,2.326c0,1.706-0.995,2.804-2.739,3.243c1.125,1.995,2.468,4.012,3.767,6.009
			c-0.542-0.04-1.073-0.092-1.596-0.092c-0.53,0-1.073,0.052-1.603,0.092L173.898,205.13z"/>
		<path fill-rule="evenodd" clip-rule="evenodd" fill="#145395" d="M187.898,205.194c0,2.54,0,4.433,0.149,5.545
			c-0.401-0.04-0.878-0.092-1.46-0.092c-0.569,0-1.047,0.052-1.441,0.092c0.103-1.564,0.149-2.914,0.149-4.897v-2.397
			c0-1.983-0.046-3.334-0.149-4.89c0.394,0.038,0.872,0.089,1.441,0.089c0.582,0,1.06-0.051,1.46-0.089
			c-0.149,0.937-0.149,3.358-0.149,5.634c1.589-1.869,3.89-4.737,4.498-5.634c0.342,0.038,0.665,0.089,0.995,0.089
			c0.316,0,0.646-0.051,1.059-0.089c-0.794,0.793-3.637,3.939-4.554,5.078c1.512,2.299,3.864,5.847,4.82,7.106
			c-0.692-0.04-1.208-0.092-1.706-0.092c-0.518,0-1.035,0.052-1.539,0.092c-1.162-1.855-2.371-3.709-3.533-5.545H187.898z"/>
		<path fill-rule="evenodd" clip-rule="evenodd" fill="#D0D1D3" d="M79.135,138.031c0,0-11.228,0-10.647-8.27
			c0,0-0.2-5.719,6.111-7.107c0,0-6.311-1.376-7.106-4.321c0,0-2.551-2.171-6.894-0.601c0,0,20.299-16.553,31.334,11.234
			c0,0,10.201,42.646-37.193,41.65c-0.607-0.554-1.313-1.136-2.133-1.705c6.364-0.542,14.898-2.894,20.442-10.97
			C73.05,157.942,79.446,149.343,79.135,138.031z"/>
		<path fill-rule="evenodd" clip-rule="evenodd" fill="#D0D1D3" d="M29.311,199.426l-0.162-0.038
			C29.175,199.399,29.227,199.413,29.311,199.426z"/>
		<path fill-rule="evenodd" clip-rule="evenodd" fill="#D0D1D3" d="M57.544,143.813c-0.188,0.09-0.356,0.2-0.491,0.329
			C57.053,144.143,57.24,144.026,57.544,143.813z"/>
		<path fill-rule="evenodd" clip-rule="evenodd" fill="#D0D1D3" d="M57.544,143.813c-0.188,0.09-0.356,0.2-0.491,0.329
			C57.053,144.143,57.24,144.026,57.544,143.813z"/>
		<path fill="none" stroke="#145395" stroke-width="13.2313" stroke-miterlimit="2.613" d="M57.544,143.813
			c-0.188,0.09-0.356,0.2-0.491,0.329C57.053,144.143,57.24,144.026,57.544,143.813z"/>
		<path fill-rule="evenodd" clip-rule="evenodd" fill="#D0D1D3" d="M84.827,91.896c-2.01-1.679-4.975-4.528-5.874-7.533
			l-0.265-0.898l0.594-0.71c0.408-0.504,4.646-2.532,8.735-2.726c-0.542-1.234-0.957-2.74-0.957-4.594
			c0-0.227,0.027-0.478,0.04-0.718c-6.176-0.154-14.116-3.449-8.865-21.035c0,0-11.815,3.559-11.416,13.599
			c0,0-8.682-13.005-23.063-5.518c0,0,5.124,1.376,5.124,5.323c0,0,0.594,3.941,2.958,6.506c0,0-1.569,1.978-4.534,0.795
			c0,0-10.06-3.74-12.411-2.378c0,0-0.595,2.959,1.957,6.307c0,0-2.552,3.747-6.499,0.793c0,0-11.429-7.488-21.469,1.578
			c0,0,7.682-0.796,9.446,5.518c0,0-0.188,1.575,2.365,3.346c0,0-20.692-2.946-20.692,7.295c0,0,6.511-5.919,11.235,3.545
			c0,0,8.863,12.424,22.283,0.989c0,0-6.313,20.5,15.163,20.1c0,0,11.629-1.577,12.029-13.988c0,0-16.17,7.876-14.982-7.688
			c0,0,2.552-17.941,21.275-8.877c0,0,5.226,6.312,12.798,6.564C80.724,96.063,82.378,93.879,84.827,91.896z"/>
		<path fill="none" stroke="#145395" stroke-width="13.2313" stroke-miterlimit="2.613" d="M57.544,143.813
			c-0.188,0.09-0.356,0.2-0.491,0.329C57.053,144.143,57.24,144.026,57.544,143.813z"/>
		<path fill-rule="evenodd" clip-rule="evenodd" fill="#D0D1D3" d="M86.506,224.312c5.085-4.962,9.762-14.354-3.624-28.142
			c0,0,1.771-5.912,11.616-3.941c0,0-1.576-6.099-19.116-6.312c0,0,13.6-2.553,14.394-10.047c0,0-2.171,2.172-9.077,2.172
			c0,0-2.752-0.595-4.923-2.172c0,0-12.611-6.492-19.318,0.201c0,0-1.376-5.911-12.017-9.078c0,0,18.13,3.167,27.193-10.026
			c-0.175,0.227-3.03,3.676-16.739,2.158c0,0,14.187,0.193,18.91-16.953c0,0-2.752,1.776-9.446,1.776c0,0-4.794-1.156-6.815-0.135
			c-0.304,0.213-0.491,0.329-0.491,0.329c0.135-0.129,0.303-0.239,0.491-0.329c2.358-1.693,11.932-9.775-1.867-20.958
			c0,0,7.688,14.975-12.411,17.547c0,0,3.153-4.342,0.581-5.124c0,0,4.341,0.388,1.977-7.882c0,0-3.546,10.434-14.187,6.494
			c0,0-6.894-2.953-6.894-12.01c0,0,1.02-7.901,6.298-11.913c-0.09-0.782-0.135-1.544-0.135-2.288c0-0.847,0.071-1.667,0.135-2.422
			c-3.481,2.106-6.99,3.004-10.426,2.584c-1.577-0.2-2.992-0.652-4.245-1.222c-8.484,6.752-22.471,23.582-3.458,52.699
			c0,0-11.235,3.348-2.17,16.953c0,0,3.546,4.322,1.576,9.258c0,0,6.706-10.647,11.629-12.223c0,0,9.265,1.188,7.689,9.657
			c0,0,0.399,3.748-4.735,3.547c0,0-6.3-0.381-6.3-6.499c0,0-2.171,3.153-0.201,5.718c0,0-2.164-0.395-2.164-1.771
			c0,0-0.401,4.322,2.564,5.117c0,0-2.766,8.075,8.863,8.67c0,0,6.907,0.394,9.065-3.947c0,0-2.158,3.947,2.958,7.093
			c0,0,4.73,5.719,1.977,10.253c0,0,4.522-1.175,5.118-8.281c0,0,7.674,2.966,7.674,8.482c0,0,5.337-3.941,3.167-13.005
			c0,0,4.735,6.894,16.151,7.889C75.775,206.229,88.729,208.768,86.506,224.312z"/>
		<path fill-rule="evenodd" clip-rule="evenodd" fill="#D0D1D3" d="M60.108,232.227c-5.316-1.576-6.705,2.965-6.705,2.965
			c-3.929-0.981-10.835,5.518-10.835,5.518c-2.752,2.565-9.845,4.536-9.845,4.536c6.299,5.898,14.381-1.784,14.381-1.784
			c-1.376,1.189-2.564,4.735-2.564,4.735c-1.972,5.117,0.793,12.806,0.793,12.806c0.395-4.735,8.464-12.01,8.464-12.01
			c4.922-2.572,3.747-9.673,3.747-9.673c4.341,0.607,4.142-4.922,4.142-4.922c0.69-0.847,3.268-2.223,5.968-3.509
			c-0.807-0.251-1.589-0.529-2.344-0.898C62.719,231.761,60.108,232.227,60.108,232.227z"/>
		<path fill-rule="evenodd" clip-rule="evenodd" fill="#D0D1D3" d="M83.211,215.358c-0.251,1.001-0.742,2.086-1.558,3.275
			c0,0-11.421,5.323-9.451-8.083c0,0-5.13,0.401-6.112,6.713c0,0-4.142-0.4-2.371-6.899c0,0-3.347,3.14-2.946,5.31
			c0,0-1.188-2.558-2.371-1.575c0,0-1.376,2.765,0.201,6.111c0,0,4.722,14.188,22.27,8.282c0,0,1.466-0.686,3.32-2.061
			C85.674,222.884,84.522,218.529,83.211,215.358z"/>
		<path fill-rule="evenodd" clip-rule="evenodd" fill="#145395" d="M47.646,151.953c0,0,17.561,6.202,19.983-6.221
			C67.629,145.732,62.228,155.178,47.646,151.953z"/>
		<path fill-rule="evenodd" clip-rule="evenodd" fill="#145395" d="M39.997,96.153c0,0-12.979,20.035,7.85,22.76
			C47.847,118.914,34.234,116.343,39.997,96.153z"/>
		<path fill-rule="evenodd" clip-rule="evenodd" fill="#145395" d="M11.156,93.11c0,0,8.334-0.808,12.023,1.764
			c0,0,4.646,3.056,10.719-3.695c0,0-3.838,7.055-11.681,5.291c0,0-3.534-0.316-4.646-1.44C17.572,95.03,14.2,93.271,11.156,93.11z"
			/>
		<path fill-rule="evenodd" clip-rule="evenodd" fill="#145395" d="M75.885,125.633c0,0,12.171,0.317,8.65,15.377
			c0,0-2.564,12.488-13.612,20.983c0,0,15.215-9.291,16.817-24.188C87.74,137.805,89.975,122.907,75.885,125.633z"/>
		<path fill-rule="evenodd" clip-rule="evenodd" fill="#145395" d="M67.746,80.306c0,0-14.899-5.945-24.674,5.594
			c0,0,13.773-9.607,29.474-1.757c0,0,3.32,1.04,7.23,2.062c-0.318-0.569-0.603-1.151-0.782-1.732
			C74.296,82.909,69.534,81.229,67.746,80.306z"/>
		<path fill-rule="evenodd" clip-rule="evenodd" fill="#145395" d="M72.39,60.749c-4.521,13.193,2.765,18.471,9.75,20.571
			c0.478-0.168,0.995-0.343,1.538-0.516C71.266,75.447,72.39,60.749,72.39,60.749z"/>
		<path fill-rule="evenodd" clip-rule="evenodd" fill="#145395" d="M20.376,126.033c0,0,0,25.378,14.581,25.92
			C34.957,151.953,22.534,145.732,20.376,126.033z"/>
		<path fill-rule="evenodd" clip-rule="evenodd" fill="#145395" d="M44.945,174.896c0,0-5.672,8.637,25.377,22.953
			c0,0,21.888,10.428,17.082,23.278c0,0,7.371-18.328-15.188-25.966C72.216,195.161,48.188,187.862,44.945,174.896z"/>
		<path fill-rule="evenodd" clip-rule="evenodd" fill="#FFFFFF" d="M222.404,257.553c10.228-7.16,13.348-16.992,14.305-22.142
			H101.592c0.937,5.071,3.992,14.666,13.812,21.778l1.97,1.352l0.078,0.052c0,0,0.084,0.058,0.2,0.135h103.008
			c0.168-0.116,0.265-0.187,0.265-0.187L222.404,257.553z"/>
		<path fill-rule="evenodd" clip-rule="evenodd" fill="#145395" d="M122.777,241.976c-0.026,1.602-0.058,3.191-0.058,4.807
			c0.148,0.013,0.283,0.025,0.399,0.025c1.551,0,2.397-0.859,2.397-2.513C125.516,242.201,124.708,241.976,122.777,241.976z
			 M122.88,247.531h-0.161v0.73c0,1.97,0.045,3.334,0.148,4.884c-0.394-0.039-0.872-0.084-1.441-0.084
			c-0.594,0-1.073,0.045-1.459,0.084c0.11-1.55,0.148-2.914,0.148-4.884v-2.41c0-1.97-0.039-3.334-0.148-4.878
			c0.387,0.026,0.865,0.078,1.459,0.078c0.621,0,1.389-0.078,2.591-0.078c1.79,0,2.422,0.154,3.043,0.594
			c0.717,0.518,1.15,1.28,1.15,2.326c0,1.719-0.988,2.804-2.739,3.256c1.143,1.984,2.481,3.994,3.759,5.996
			c-0.516-0.039-1.059-0.084-1.589-0.084c-0.516,0-1.072,0.045-1.602,0.084L122.88,247.531z"/>
		<path fill-rule="evenodd" clip-rule="evenodd" fill="#145395" d="M139.709,248.487c-0.516-1.427-1.02-2.816-1.576-4.192
			c-0.594,1.376-1.149,2.766-1.667,4.192H139.709z M144.381,253.146c-0.569-0.039-1.06-0.084-1.544-0.084
			c-0.504,0-1.008,0.045-1.513,0.084c-0.368-1.209-0.769-2.423-1.214-3.624c-0.756-0.019-1.499-0.032-2.255-0.032
			c-0.633,0-1.228,0.014-1.835,0.032c-0.478,1.201-0.872,2.403-1.208,3.624c-0.278-0.039-0.542-0.084-0.833-0.084
			c-0.278,0-0.542,0.045-0.872,0.084c0.86-1.957,3.509-8.243,5.026-12.269c0.227,0.038,0.439,0.097,0.666,0.097
			c0.239,0,0.446-0.059,0.672-0.097C140.982,244.902,143.043,250.271,144.381,253.146z"/>
		<path fill-rule="evenodd" clip-rule="evenodd" fill="#145395" d="M149.807,240.974c0.265,0.052,0.53,0.078,0.782,0.078
			c0.278,0,0.542-0.026,0.789-0.078c2.558,2.804,5.085,5.596,7.663,8.399c0-2.804,0-7.611-0.117-8.399
			c0.265,0.052,0.529,0.078,0.794,0.078c0.266,0,0.53-0.026,0.808-0.078c-0.291,5.13-0.291,7.476-0.291,12.172
			c-0.252-0.052-0.478-0.084-0.73-0.084c-0.238,0-0.478,0.032-0.684,0.084c-2.411-2.862-4.995-5.718-7.714-8.573
			c-0.033,1.318-0.033,2.791-0.033,4.115c0,2.817,0.058,3.806,0.097,4.458c-0.277-0.052-0.555-0.084-0.82-0.084
			c-0.265,0-0.542,0.032-0.821,0.084c0.092-0.517,0.356-5.072,0.356-8.67C149.885,242.887,149.82,241.82,149.807,240.974z"/>
		<path fill-rule="evenodd" clip-rule="evenodd" fill="#145395" d="M177.064,243.604c-0.743-1.061-1.867-1.771-3.469-1.771
			c-2.197,0-4.446,1.821-4.446,5.529c0,2.805,1.564,4.923,4.284,4.923c0.601,0,1.641-0.135,1.938-0.322
			c0.038-0.278,0.038-0.724,0.038-1.241c0-1.905-0.11-2.688-0.123-3.03c0.227,0.04,0.581,0.092,1.298,0.092
			c0.86,0,1.214-0.052,1.429-0.092c-0.078,0.369-0.129,1.829-0.129,2.967c0,0.735,0.025,1.679,0.051,1.943
			c-1.537,0.433-3.166,0.764-4.71,0.764c-4.063,0-6.977-2.301-6.977-5.9c0-4.482,3.166-6.73,7.306-6.73
			c1.784,0,2.992,0.393,4.258,1.072c-0.193,0.594-0.395,1.189-0.504,1.797H177.064z"/>
		<path fill-rule="evenodd" clip-rule="evenodd" fill="#145395" d="M184.1,245.852c0-1.97-0.039-3.334-0.142-4.878
			c1.04,0.014,2.1,0.078,3.133,0.078c1.732,0,3.218-0.026,3.689-0.078c-0.026,0.208-0.065,0.421-0.065,0.737
			c0,0.374,0.039,0.529,0.065,0.794c-1.338-0.091-3.449-0.213-3.98-0.213c-0.09,1.285-0.09,2.559-0.09,3.851
			c1.531-0.039,2.655-0.077,4.005-0.143c-0.064,0.408-0.09,0.569-0.09,0.795c0,0.193,0.039,0.354,0.09,0.725
			c-1.35-0.104-2.667-0.156-4.005-0.156c0,0.736-0.013,1.492-0.013,2.249c0,0.742,0.013,1.505,0.051,2.21
			c1.325,0,2.682-0.065,4.032-0.227c-0.026,0.238-0.065,0.426-0.065,0.794c0,0.369,0.039,0.543,0.065,0.756
			c-0.634-0.013-1.454-0.084-3.082-0.084c-2.882,0-3.346,0.045-3.74,0.084c0.103-1.55,0.142-2.914,0.142-4.884V245.852z"/>
		<path fill-rule="evenodd" clip-rule="evenodd" fill="#145395" d="M199.276,241.976c-0.039,1.602-0.052,3.191-0.052,4.807
			c0.142,0.013,0.265,0.025,0.381,0.025c1.564,0,2.396-0.859,2.396-2.513C202.002,242.201,201.194,241.976,199.276,241.976z
			 M199.386,247.531h-0.162v0.73c0,1.97,0.038,3.334,0.142,4.884c-0.395-0.039-0.872-0.084-1.453-0.084
			c-0.582,0-1.053,0.045-1.44,0.084c0.103-1.55,0.128-2.914,0.128-4.884v-2.41c0-1.97-0.025-3.334-0.128-4.878
			c0.388,0.026,0.858,0.078,1.44,0.078c0.639,0,1.388-0.078,2.598-0.078c1.782,0,2.448,0.154,3.055,0.594
			c0.698,0.518,1.15,1.28,1.15,2.326c0,1.719-0.995,2.804-2.739,3.256c1.125,1.984,2.475,3.994,3.76,5.996
			c-0.53-0.039-1.06-0.084-1.589-0.084c-0.531,0-1.073,0.045-1.603,0.084L199.386,247.531z"/>
		<path fill-rule="evenodd" clip-rule="evenodd" fill="#145395" d="M216.131,243.352c-0.368-1.002-1.053-1.518-2.138-1.518
			c-1.073,0-1.829,0.735-1.829,1.582c0,2.622,5.356,1.977,5.356,5.97c0,2.371-1.86,3.98-4.664,3.98c-1.273,0-2.346-0.356-2.85-0.75
			c0.226-0.808,0.381-1.441,0.504-2.235h0.343c0.2,1.014,1.008,1.905,2.436,1.905c1.376,0,2.06-0.807,2.06-1.802
			c0-2.676-5.258-1.958-5.258-5.97c0-2.43,1.874-3.779,3.98-3.779c1.266,0,2.222,0.342,2.894,0.858
			c-0.207,0.556-0.343,0.976-0.569,1.758H216.131z"/>
		<path fill-rule="evenodd" clip-rule="evenodd" fill="#145395" d="M13.205,146.288c0,0,10.363,8.068,3.205,17.662
			c0,0-5.64,4.724-1.234,10.681c0,0,0.323-6.1,2.901-9.305C18.076,165.326,27.973,154.054,13.205,146.288z"/>
		<path fill-rule="evenodd" clip-rule="evenodd" fill="#D0D1D3" d="M134.167,121.73c-1.06-1.389-0.995-3.068-0.175-4.896
			c-1.24-3.095-2.1-6.39-2.487-9.814c-4.043,3.321-5.912,6.894-5.912,6.894c0.227-2.862,2.882-5.706,5.795-8.005
			c-0.09-1.085-0.148-2.17-0.148-3.282c0-1.098,0.071-2.196,0.148-3.282c-0.943,0.407-1.932,0.795-2.99,1.189
			c0,0-16.727,4.218-19.015,8.799c0,0,1.234-4.406,14.795-9.155c0,0,4.484-1.75,7.514-3.391c0.039-0.26,0.09-0.511,0.148-0.775
			c-4.793,1.582-16.196,3.953-28.621-3.936c0,0,13.057,7.385,28.977,2.12c0.141-0.607,0.29-1.215,0.458-1.815
			c-8.599,1.75-21.203,1.312-33.13-10.519c0,0,13.774,12.85,33.744,8.547c0.53-1.596,1.176-3.146,1.906-4.644
			c-12.56,2.66-21.637,0.665-28.116-2.96v-0.097c-10.641-5.963-14.253-16.326-14.679-17.676c-7.449,12.055-1.15,16.952-0.246,17.572
			c-0.045-0.026-0.11-0.052-0.148-0.078c0.013,0.014,0.026,0.026,0.039,0.026c-0.213-0.148-0.433-0.265-0.671-0.367
			c-3.973-1.712-10.745,1.679-10.745,1.679c1.189,3.941,7.095,8.082,7.095,8.082c-4.923,3.146-7.294,7.87-7.294,7.87
			c-2.842,3.205-7.294,4.962-8.121,5.271c6.073-0.124,8.477,0.762,9.271,1.176c0.304,0.154,0.439,0.251,0.439,0.251
			c0.569,0.356,1.138,0.646,1.706,0.923c8.942,4.265,16.895,0.809,16.895,0.809c-0.026,0.038,0.278-0.065,0.238-0.026
			c0.123-0.039-0.128,0.078-0.128,0.078c-2.714,3.431-1.111,10.161-0.833,11.261c1.506-3.637,9.406-4.024,9.406-4.024
			c-0.025,0.019,0.22-0.04,0.194-0.027c0.11-0.013-0.091,0.084-0.091,0.084c-2.093,1.905-2.022,5.2-1.983,5.937
			c1.932-2.462,9.95-2.843,9.95-2.843c0,0.026,0.2-0.063,0.188-0.052c0.077,0-0.084,0.104-0.084,0.104
			c-1.066,1.79,0.123,3.561,0.349,3.876c9.8-1.97,11.771-7.474,11.771-7.474l0.11-0.227v0.278c-0.73,4.102,1.694,6.512,4.509,7.927
			c0.04,0.013,0.078,0.026,0.117,0.052c0.11,0.051,0.213,0.096,0.323,0.136c0.065,0.039,0.156,0.077,0.233,0.104
			c0,0,1.021,0.529,3.179,0.937c-0.026-0.026-0.04-0.052-0.051-0.078C136.06,123.61,134.825,122.752,134.167,121.73z"/>
		<path fill-rule="evenodd" clip-rule="evenodd" fill="#145395" d="M99.524,81.862c11.927,11.83,24.531,12.269,33.13,10.519
			c0.188-0.659,0.388-1.319,0.614-1.972C113.298,94.712,99.524,81.862,99.524,81.862z"/>
		<path fill-rule="evenodd" clip-rule="evenodd" fill="#145395" d="M103.22,92.076c12.424,7.889,23.827,5.518,28.621,3.936
			c0.09-0.614,0.22-1.221,0.356-1.815C116.276,99.461,103.22,92.076,103.22,92.076z"/>
		<path fill-rule="evenodd" clip-rule="evenodd" fill="#145395" d="M109.383,109.333c2.288-4.581,19.015-8.799,19.015-8.799
			c1.059-0.395,2.047-0.782,2.99-1.189c0.078-0.846,0.168-1.706,0.304-2.558c-3.03,1.641-7.514,3.391-7.514,3.391
			C110.617,104.927,109.383,109.333,109.383,109.333z"/>
		<path fill-rule="evenodd" clip-rule="evenodd" fill="#145395" d="M134.167,121.73c0.659,1.021,1.893,1.88,3.825,2.539
			c-1.603-2.3-2.94-4.8-4-7.436C133.171,118.662,133.106,120.341,134.167,121.73z"/>
		<path fill-rule="evenodd" clip-rule="evenodd" fill="#145395" d="M134.167,121.73c0.659,1.021,1.893,1.88,3.825,2.539
			c-1.603-2.3-2.94-4.8-4-7.436C133.171,118.662,133.106,120.341,134.167,121.73z"/>
		<path fill="none" stroke="#145395" stroke-width="13.2313" stroke-miterlimit="2.613" d="M134.167,121.73
			c0.659,1.021,1.893,1.88,3.825,2.539c-1.603-2.3-2.94-4.8-4-7.436C133.171,118.662,133.106,120.341,134.167,121.73z"/>
		<path fill-rule="evenodd" clip-rule="evenodd" fill="#145395" d="M137.992,124.27c0.012,0.026,0.025,0.052,0.051,0.078
			c0.128,0.032,0.251,0.059,0.4,0.083C138.281,124.38,138.133,124.321,137.992,124.27z"/>
		<path fill-rule="evenodd" clip-rule="evenodd" fill="#145395" d="M237.135,231.962c-0.025,0.769-0.626,15.719-14.73,25.591
			l-1.479,0.988c0,0-47.518,31.586-51.775,34.414c-4.153-2.764-51.697-34.362-51.697-34.362l-0.078-0.052l-1.97-1.352
			c-13.619-9.864-14.213-24.459-14.238-25.228v-102.82h43.227c6.539,6.189,15.364,10,25.087,10c9.724,0,18.548-3.811,25.086-10
			h42.569V231.962z M198.364,124.948c4.775-6.183,7.617-13.91,7.617-22.321c0-20.151-16.338-36.496-36.502-36.496
			c-20.164,0-36.502,16.345-36.502,36.496c0,8.411,2.843,16.139,7.617,22.321H96.973v107.078c0,0,0.303,17.205,15.97,28.568
			c0.704,0.504,1.428,1.015,2.196,1.492l53.958,35.87v0.025l0.026-0.014l0.025,0.026l54.011-35.908
			c0.568-0.354,1.124-0.724,1.666-1.099c16.209-11.351,16.5-28.962,16.5-28.962V124.948H198.364z"/>
		<path fill="none" stroke="#145395" stroke-width="0.1985" stroke-miterlimit="2.613" d="M237.135,231.962
			c-0.025,0.769-0.626,15.719-14.73,25.591l-1.479,0.988c0,0-47.518,31.586-51.775,34.414c-4.153-2.764-51.697-34.362-51.697-34.362
			l-0.078-0.052l-1.97-1.352c-13.619-9.864-14.213-24.459-14.238-25.228v-102.82h43.227c6.539,6.189,15.364,10,25.087,10
			c9.724,0,18.548-3.811,25.086-10h42.569V231.962z M198.364,124.948c4.775-6.183,7.617-13.91,7.617-22.321
			c0-20.151-16.338-36.496-36.502-36.496c-20.164,0-36.502,16.345-36.502,36.496c0,8.411,2.843,16.139,7.617,22.321H96.973v107.078
			c0,0,0.303,17.205,15.97,28.568c0.704,0.504,1.428,1.015,2.196,1.492l53.958,35.87v0.025l0.026-0.014l0.025,0.026l54.011-35.908
			c0.568-0.354,1.124-0.724,1.666-1.099c16.209-11.351,16.5-28.962,16.5-28.962V124.948H198.364z"/>
		<path fill-rule="evenodd" clip-rule="evenodd" fill="#FFFFFF" d="M136.576,102.478c0-18.193,14.75-32.941,32.943-32.941
			c18.18,0,32.935,14.749,32.935,32.941c0,18.182-14.755,32.937-32.935,32.937C151.326,135.414,136.576,120.659,136.576,102.478z"/>
		<path fill-rule="evenodd" clip-rule="evenodd" fill="#FFFFFF" d="M163.975,75.925c2.313,0.504,4.103,1.415,4.872,1.854v10.519
			c-4.303,1.73-9.659,7.073-11.196,8.662c-3.27-1.149-6.428-1.943-8.585-2.435c-1.176-0.342-2.062-0.595-2.261-0.646
			c-0.556-0.924-0.809-2.118-0.809-3.423c0-0.285,0.013-0.589,0.026-0.88c0.213-2.313,0.937-4.813,1.401-6.112
			c0.065-0.077,0.136-0.155,0.188-0.238c0.634-0.769,2.377-2.778,4.878-4.562c0.045-0.025,0.07-0.038,0.096-0.07
			c0.142-0.091,0.278-0.181,0.406-0.277c0.214-0.144,0.427-0.278,0.641-0.408c1.479-0.923,3.159-1.719,5-2.157
			c0.026,0,0.052,0,0.078-0.014c0.303-0.038,0.607-0.063,0.897-0.09C161.223,75.537,162.696,75.674,163.975,75.925z"/>
		<path fill="none" stroke="#145395" stroke-width="2.5007" stroke-miterlimit="2.613" d="M163.975,75.925
			c2.313,0.504,4.103,1.415,4.872,1.854v10.519c-4.303,1.73-9.659,7.073-11.196,8.662c-3.27-1.149-6.428-1.943-8.585-2.435
			c-1.176-0.342-2.062-0.595-2.261-0.646c-0.556-0.924-0.809-2.118-0.809-3.423c0-0.285,0.013-0.589,0.026-0.88
			c0.213-2.313,0.937-4.813,1.401-6.112c0.065-0.077,0.136-0.155,0.188-0.238c0.634-0.769,2.377-2.778,4.878-4.562
			c0.045-0.025,0.07-0.038,0.096-0.07c0.142-0.091,0.278-0.181,0.406-0.277c0.214-0.144,0.427-0.278,0.641-0.408
			c1.479-0.923,3.159-1.719,5-2.157c0.026,0,0.052,0,0.078-0.014c0.303-0.038,0.607-0.063,0.897-0.09
			C161.223,75.537,162.696,75.674,163.975,75.925z"/>
		<path fill-rule="evenodd" clip-rule="evenodd" fill="#FFFFFF" d="M181.813,75.221c1.311,0.542,4.458,2.015,7.235,4.502
			c1.88,1.797,2.649,3.263,2.662,3.289l0.213,0.427l0.233,0.052c0.013,0.013,0.013,0.038,0.013,0.051l-0.013,0.013
			c0.085,0.213,0.123,0.413,0.188,0.626c0.354,1.428,0.769,3.521,0.845,5.479c-0.038,1.944-0.451,3.308-0.684,3.888l-10.273,3.122
			c-1.667-1.52-8.043-7.185-11.519-8.432V77.831c1.557-0.729,6.616-2.939,10.531-2.822
			C181.444,75.078,181.625,75.156,181.813,75.221z"/>
		<path fill="none" stroke="#145395" stroke-width="2.5007" stroke-miterlimit="2.613" d="M181.813,75.221
			c1.311,0.542,4.458,2.015,7.235,4.502c1.88,1.797,2.649,3.263,2.662,3.289l0.213,0.427l0.233,0.052
			c0.013,0.013,0.013,0.038,0.013,0.051l-0.013,0.013c0.085,0.213,0.123,0.413,0.188,0.626c0.354,1.428,0.769,3.521,0.845,5.479
			c-0.038,1.944-0.451,3.308-0.684,3.888l-10.273,3.122c-1.667-1.52-8.043-7.185-11.519-8.432V77.831
			c1.557-0.729,6.616-2.939,10.531-2.822C181.444,75.078,181.625,75.156,181.813,75.221z"/>
		<path fill-rule="evenodd" clip-rule="evenodd" fill="#FFFFFF" d="M194.644,117.719c-1.402,0.854-2.83,1.435-4.167,1.854
			c-2.352,0.679-4.639,0.944-5.686,1.035c-1.163-2.093-4.82-7.281-5.996-8.936c1.364-2.591,3.321-10.466,3.955-13.134
			c2.273-0.491,7.978-2.398,10.362-3.205c2.106,1.06,4.574,6.047,5.731,9.154c0,0.014,0,0.045,0,0.059
			C198.895,105.295,198.972,109.676,194.644,117.719z"/>
		<path fill="none" stroke="#145395" stroke-width="2.5007" stroke-miterlimit="2.613" d="M194.644,117.719
			c-1.402,0.854-2.83,1.435-4.167,1.854c-2.352,0.679-4.639,0.944-5.686,1.035c-1.163-2.093-4.82-7.281-5.996-8.936
			c1.364-2.591,3.321-10.466,3.955-13.134c2.273-0.491,7.978-2.398,10.362-3.205c2.106,1.06,4.574,6.047,5.731,9.154
			c0,0.014,0,0.045,0,0.059C198.895,105.295,198.972,109.676,194.644,117.719z"/>
		<path fill-rule="evenodd" clip-rule="evenodd" fill="#3B3963" d="M177.142,110.884c-2.08,0.329-9.316,0.278-14.173,0.154
			c-0.938-1.376-2.733-7.351-4.032-12.714c1.415-1.454,6.932-7.01,10.898-8.457c2.268,0.614,7.676,5.033,11.132,8.166
			C179.642,103.513,177.963,109.436,177.142,110.884z"/>
		<path fill-rule="evenodd" clip-rule="evenodd" fill="#145395" d="M161.924,111.851c-1.122-1.646-3.458-8.752-4.734-14.023
			c1.497-1.792,7.813-8.151,12.178-9.744c2.693,0.729,9.006,5.696,12.357,8.734l0.281,0.913c-1.309,5.418-3.555,12.234-4.503,13.903
			C175.244,111.992,166.725,111.973,161.924,111.851z"/>
		<path fill-rule="evenodd" clip-rule="evenodd" fill="#FFFFFF" d="M200.168,102.756c-0.93-2.338-3.115-7.172-5.719-8.813
			c0.518-1.201,0.659-2.7,0.621-4.218c0-0.137,0.013-0.24,0.013-0.369c0-1.26-0.213-2.752-0.634-4.38
			c-0.07-0.349-0.148-0.666-0.213-0.956c0.266,0.039,0.531,0.109,0.769,0.174c1.375,0.446,1.971,0.885,2.061,0.937
			c0.2,0.226,4.167,4.497,4.923,15.311C201.524,101.153,200.84,102.085,200.168,102.756z"/>
		<path fill="none" stroke="#145395" stroke-width="2.5007" stroke-miterlimit="2.613" d="M200.168,102.756
			c-0.93-2.338-3.115-7.172-5.719-8.813c0.518-1.201,0.659-2.7,0.621-4.218c0-0.137,0.013-0.24,0.013-0.369
			c0-1.26-0.213-2.752-0.634-4.38c-0.07-0.349-0.148-0.666-0.213-0.956c0.266,0.039,0.531,0.109,0.769,0.174
			c1.375,0.446,1.971,0.885,2.061,0.937c0.2,0.226,4.167,4.497,4.923,15.311C201.524,101.153,200.84,102.085,200.168,102.756z"/>
		<path fill-rule="evenodd" clip-rule="evenodd" fill="#FFFFFF" d="M195.108,82.263c-0.491-0.148-1.085-0.291-1.718-0.412
			c-0.885-1.318-1.932-2.488-3.043-3.477c-1.589-1.512-3.89-3.191-7.12-4.568c-0.518-0.225-0.911-0.393-1.163-0.491
			c-0.11-0.168-0.361-0.581-0.679-1.085C184.669,73.386,190.729,76.268,195.108,82.263z"/>
		<path fill-rule="evenodd" clip-rule="evenodd" fill="#FFFFFF" d="M161.462,71.797c0.291-0.329,0.607-0.62,0.937-0.82
			c0.11-0.026,5.704-2.068,16.385,0.769c0.168,0.252,0.478,0.724,0.937,1.441c-1.932,0.128-5.304,0.71-9.368,2.752
			c-0.194,0.09-0.369,0.168-0.498,0.238c-1.248-0.756-4.82-2.609-9.755-2.423C160.487,73.076,160.958,72.366,161.462,71.797z"/>
		<path fill="none" stroke="#145395" stroke-width="2.5007" stroke-miterlimit="2.613" d="M161.462,71.797
			c0.291-0.329,0.607-0.62,0.937-0.82c0.11-0.026,5.704-2.068,16.385,0.769c0.168,0.252,0.478,0.724,0.937,1.441
			c-1.932,0.128-5.304,0.71-9.368,2.752c-0.194,0.09-0.369,0.168-0.498,0.238c-1.248-0.756-4.82-2.609-9.755-2.423
			C160.487,73.076,160.958,72.366,161.462,71.797z"/>
		<path fill-rule="evenodd" clip-rule="evenodd" fill="#FFFFFF" d="M136.247,100.837c0-0.103,0.064-9.258,4.536-14.646
			c0.278-0.188,1.046-0.634,1.983-1.111c0.014,0,0.025,0,0.025,0c0.227-0.104,0.453-0.213,0.692-0.316
			c0.039-0.013,0.09-0.026,0.13-0.052c0.2-0.084,0.426-0.175,0.639-0.253c0.079-0.024,0.155-0.051,0.24-0.083
			c0.18-0.052,0.381-0.116,0.581-0.168c0.052-0.013,0.09-0.026,0.13-0.038c-0.356,1.149-0.795,2.815-0.982,4.586
			c-0.078,0.652-0.129,1.313-0.129,1.958c0,1.182,0.2,2.268,0.632,3.191c0.085,0.213,0.163,0.413,0.266,0.607
			c-0.078,0.078-0.168,0.175-0.253,0.265c-1.343,1.125-2.616,2.79-3.675,4.433c-0.937,1.311-1.829,2.738-2.461,4.153
			c-0.078-0.052-0.156-0.117-0.239-0.181l-2.086-2.249C136.273,100.889,136.247,100.851,136.247,100.837z"/>
		<path fill="none" stroke="#145395" stroke-width="2.5007" stroke-miterlimit="2.613" d="M136.247,100.837
			c0-0.103,0.064-9.258,4.536-14.646c0.278-0.188,1.046-0.634,1.983-1.111c0.014,0,0.025,0,0.025,0
			c0.227-0.104,0.453-0.213,0.692-0.316c0.039-0.013,0.09-0.026,0.13-0.052c0.2-0.084,0.426-0.175,0.639-0.253
			c0.079-0.024,0.155-0.051,0.24-0.083c0.18-0.052,0.381-0.116,0.581-0.168c0.052-0.013,0.09-0.026,0.13-0.038
			c-0.356,1.149-0.795,2.815-0.982,4.586c-0.078,0.652-0.129,1.313-0.129,1.958c0,1.182,0.2,2.268,0.632,3.191
			c0.085,0.213,0.163,0.413,0.266,0.607c-0.078,0.078-0.168,0.175-0.253,0.265c-1.343,1.125-2.616,2.79-3.675,4.433
			c-0.937,1.311-1.829,2.738-2.461,4.153c-0.078-0.052-0.156-0.117-0.239-0.181l-2.086-2.249
			C136.273,100.889,136.247,100.851,136.247,100.837z"/>
		<path fill-rule="evenodd" clip-rule="evenodd" fill="#FFFFFF" d="M162.509,134.09c-2.12-0.478-11.286-2.927-17.787-10.719
			c-0.025-0.076-0.051-0.199-0.077-0.303l0.025-0.026c0-0.012-0.039-0.07-0.077-0.162c-0.161-0.607-0.304-1.453-0.304-2.273
			c0-0.137,0-0.253,0.013-0.381c0.039-0.214,0.104-0.44,0.188-0.679c0.116,0.077,0.245,0.174,0.406,0.265
			c3.359,2.093,8.283,2.869,9.912,3.082c2.726,5.874,6.905,8.723,8.999,9.834C163.219,133.334,162.812,133.761,162.509,134.09z"/>
		<path fill="none" stroke="#145395" stroke-width="2.5007" stroke-miterlimit="2.613" d="M162.509,134.09
			c-2.12-0.478-11.286-2.927-17.787-10.719c-0.025-0.076-0.051-0.199-0.077-0.303l0.025-0.026c0-0.012-0.039-0.07-0.077-0.162
			c-0.161-0.607-0.304-1.453-0.304-2.273c0-0.137,0-0.253,0.013-0.381c0.039-0.214,0.104-0.44,0.188-0.679
			c0.116,0.077,0.245,0.174,0.406,0.265c3.359,2.093,8.283,2.869,9.912,3.082c2.726,5.874,6.905,8.723,8.999,9.834
			C163.219,133.334,162.812,133.761,162.509,134.09z"/>
		<path fill-rule="evenodd" clip-rule="evenodd" fill="#FFFFFF" d="M194.462,122.313c-0.666,0.729-6.815,7.553-12.637,9.633
			c-0.33,0.038-2.17,0.161-3.281-0.872c3.85-3.03,5.757-7.043,6.364-8.574c1.298-0.051,4.29-0.329,7.609-1.641
			c0.699-0.265,1.403-0.568,2.062-0.93c0.026,0.336,0.052,0.679,0.052,0.995C194.631,121.492,194.579,121.983,194.462,122.313z"/>
		<path fill="none" stroke="#145395" stroke-width="2.5007" stroke-miterlimit="2.613" d="M194.462,122.313
			c-0.666,0.729-6.815,7.553-12.637,9.633c-0.33,0.038-2.17,0.161-3.281-0.872c3.85-3.03,5.757-7.043,6.364-8.574
			c1.298-0.051,4.29-0.329,7.609-1.641c0.699-0.265,1.403-0.568,2.062-0.93c0.026,0.336,0.052,0.679,0.052,0.995
			C194.631,121.492,194.579,121.983,194.462,122.313z"/>
		<path fill-rule="evenodd" clip-rule="evenodd" fill="#D0D1D3" d="M260.619,138.031c0,0,11.234,0,10.634-8.27
			c0,0,0.201-5.719-6.111-7.107c0,0,6.313-1.376,7.106-4.321c0,0,2.552-2.171,6.894-0.601c0,0-20.3-16.553-31.346,11.234
			c0,0-10.188,42.646,37.206,41.65c0.607-0.554,1.325-1.136,2.132-1.705c-6.363-0.542-14.897-2.894-20.441-10.97
			C266.692,157.942,260.303,149.343,260.619,138.031z"/>
		<path fill="none" stroke="#145395" stroke-width="13.2313" stroke-miterlimit="2.613" d="M282.198,143.813
			c0.187,0.09,0.355,0.2,0.491,0.329C282.689,144.143,282.501,144.026,282.198,143.813z"/>
		<path fill-rule="evenodd" clip-rule="evenodd" fill="#D0D1D3" d="M254.915,91.896c2.008-1.679,4.974-4.528,5.872-7.533
			l0.265-0.898l-0.581-0.71c-0.419-0.504-4.646-2.532-8.747-2.726c0.556-1.234,0.955-2.74,0.955-4.594
			c0-0.227-0.025-0.478-0.038-0.718c6.189-0.154,14.116-3.449,8.864-21.035c0,0,11.83,3.559,11.436,13.599
			c0,0,8.664-13.005,23.045-5.518c0,0-5.123,1.376-5.123,5.323c0,0-0.596,3.941-2.96,6.506c0,0,1.59,1.978,4.536,0.795
			c0,0,10.06-3.74,12.411-2.378c0,0,0.594,2.959-1.958,6.307c0,0,2.552,3.747,6.5,0.793c0,0,11.428-7.488,21.475,1.578
			c0,0-7.689-0.796-9.453,5.518c0,0,0.188,1.575-2.364,3.346c0,0,20.694-2.946,20.694,7.295c0,0-6.513-5.919-11.235,3.545
			c0,0-8.877,12.424-22.27,0.989c0,0,6.298,20.5-15.176,20.1c0,0-11.629-1.577-12.023-13.988c0,0,16.151,7.876,14.975-7.688
			c0,0-2.564-17.941-21.274-8.877c0,0-5.213,6.312-12.797,6.564C259.017,96.063,257.363,93.879,254.915,91.896z"/>
		<path fill-rule="evenodd" clip-rule="evenodd" fill="#D0D1D3" d="M282.198,143.813c0.187,0.09,0.355,0.2,0.491,0.329
			C282.689,144.143,282.501,144.026,282.198,143.813z"/>
		<path fill-rule="evenodd" clip-rule="evenodd" fill="#D0D1D3" d="M253.234,224.312c-5.078-4.962-9.769-14.354,3.638-28.142
			c0,0-1.771-5.912-11.629-3.941c0,0,1.577-6.099,19.105-6.312c0,0-13.587-2.553-14.382-10.047c0,0,2.171,2.172,9.078,2.172
			c0,0,2.752-0.595,4.923-2.172c0,0,12.611-6.492,19.303,0.201c0,0,1.389-5.911,12.023-9.078c0,0-18.108,3.167-27.187-10.026
			c0.168,0.227,3.03,3.676,16.753,2.158c0,0-14.201,0.193-18.923-16.953c0,0,2.752,1.776,9.458,1.776c0,0,4.793-1.156,6.803-0.135
			c0.303,0.213,0.491,0.329,0.491,0.329c-0.136-0.129-0.305-0.239-0.491-0.329c-2.358-1.693-11.933-9.775,1.867-20.958
			c0,0-7.688,14.975,12.411,17.547c0,0-3.153-4.342-0.582-5.124c0,0-4.341,0.388-1.97-7.882c0,0,3.541,10.434,14.182,6.494
			c0,0,6.893-2.953,6.893-12.01c0,0-1.021-7.901-6.286-11.913c0.083-0.782,0.123-1.544,0.123-2.288c0-0.847-0.051-1.667-0.136-2.422
			c3.482,2.106,6.972,3.004,10.415,2.584c1.589-0.2,3.005-0.652,4.257-1.222c8.483,6.752,22.483,23.582,3.456,52.699
			c0,0,11.235,3.348,2.171,16.953c0,0-3.547,4.322-1.577,9.258c0,0-6.692-10.647-11.629-12.223c0,0-9.265,1.188-7.687,9.657
			c0,0-0.395,3.748,4.735,3.547c0,0,6.299-0.381,6.299-6.499c0,0,2.17,3.153,0.2,5.718c0,0,2.171-0.395,2.171-1.771
			c0,0,0.394,4.322-2.559,5.117c0,0,2.752,8.075-8.877,8.67c0,0-6.894,0.394-9.063-3.947c0,0,2.17,3.947-2.946,7.093
			c0,0-4.742,5.719-1.97,10.253c0,0-4.542-1.175-5.136-8.281c0,0-7.689,2.966-7.689,8.482c0,0-5.316-3.941-3.146-13.005
			c0,0-4.729,6.894-16.157,7.889C263.966,206.229,251.012,208.768,253.234,224.312z"/>
		<path fill-rule="evenodd" clip-rule="evenodd" fill="#D0D1D3" d="M279.646,232.227c5.318-1.576,6.694,2.965,6.694,2.965
			c3.94-0.981,10.833,5.518,10.833,5.518c2.766,2.565,9.847,4.536,9.847,4.536c-6.286,5.898-14.369-1.784-14.369-1.784
			c1.375,1.189,2.552,4.735,2.552,4.735c1.97,5.117-0.782,12.806-0.782,12.806c-0.395-4.735-8.476-12.01-8.476-12.01
			c-4.923-2.572-3.747-9.673-3.747-9.673c-4.341,0.607-4.141-4.922-4.141-4.922c-0.672-0.847-3.27-2.223-5.97-3.509
			c0.809-0.251,1.589-0.529,2.346-0.898C277.023,231.761,279.646,232.227,279.646,232.227z"/>
		<path fill-rule="evenodd" clip-rule="evenodd" fill="#D0D1D3" d="M256.529,215.358c0.253,1.001,0.744,2.086,1.564,3.275
			c0,0,11.416,5.323,9.446-8.083c0,0,5.129,0.401,6.111,6.713c0,0,4.142-0.4,2.371-6.899c0,0,3.346,3.14,2.945,5.31
			c0,0,1.183-2.558,2.371-1.575c0,0,1.376,2.765-0.2,6.111c0,0-4.723,14.188-22.27,8.282c0,0-1.454-0.686-3.321-2.061
			C254.068,222.884,255.218,218.529,256.529,215.358z"/>
		<path fill-rule="evenodd" clip-rule="evenodd" fill="#145395" d="M292.095,151.953c0,0-17.546,6.202-19.982-6.221
			C272.113,145.732,277.514,155.178,292.095,151.953z"/>
		<path fill-rule="evenodd" clip-rule="evenodd" fill="#145395" d="M299.745,96.153c0,0,12.979,20.035-7.85,22.76
			C291.895,118.914,305.514,116.343,299.745,96.153z"/>
		<path fill-rule="evenodd" clip-rule="evenodd" fill="#145395" d="M328.584,93.11c0,0-8.333-0.808-12.01,1.764
			c0,0-4.644,3.056-10.73-3.695c0,0,3.837,7.055,11.68,5.291c0,0,3.534-0.316,4.646-1.44
			C322.169,95.03,325.529,93.271,328.584,93.11z"/>
		<path fill-rule="evenodd" clip-rule="evenodd" fill="#145395" d="M263.856,125.633c0,0-12.172,0.317-8.639,15.377
			c0,0,2.553,12.488,13.612,20.983c0,0-15.214-9.291-16.823-24.188C252.007,137.805,249.765,122.907,263.856,125.633z"/>
		<path fill-rule="evenodd" clip-rule="evenodd" fill="#145395" d="M271.997,80.306c0,0,14.898-5.945,24.679,5.594
			c0,0-13.773-9.607-29.479-1.757c0,0-3.328,1.04-7.229,2.062c0.336-0.569,0.594-1.151,0.782-1.732
			C265.458,82.909,270.213,81.229,271.997,80.306z"/>
		<path fill-rule="evenodd" clip-rule="evenodd" fill="#145395" d="M267.351,60.749c4.529,13.193-2.752,18.471-9.762,20.571
			c-0.464-0.168-0.968-0.343-1.524-0.516C268.476,75.447,267.351,60.749,267.351,60.749z"/>
		<path fill-rule="evenodd" clip-rule="evenodd" fill="#145395" d="M319.366,126.033c0,0,0,25.378-14.582,25.92
			C304.784,151.953,317.208,145.732,319.366,126.033z"/>
		<path fill-rule="evenodd" clip-rule="evenodd" fill="#145395" d="M294.795,174.896c0,0,5.672,8.637-25.376,22.953
			c0,0-21.889,10.428-17.083,23.278c0,0-7.357-18.328,15.189-25.966C267.525,195.161,291.552,187.862,294.795,174.896z"/>
		<path fill-rule="evenodd" clip-rule="evenodd" fill="#145395" d="M326.549,146.288c0,0-10.362,8.068-3.205,17.662
			c0,0,5.641,4.724,1.221,10.681c0,0-0.316-6.1-2.9-9.305C321.666,165.326,311.755,154.054,326.549,146.288z"/>
		<path fill-rule="evenodd" clip-rule="evenodd" fill="#D0D1D3" d="M205.576,121.73c1.072-1.389,0.995-3.068,0.173-4.896
			c1.254-3.095,2.1-6.39,2.487-9.814c4.045,3.321,5.925,6.894,5.925,6.894c-0.24-2.862-2.896-5.706-5.809-8.005
			c0.085-1.085,0.15-2.17,0.15-3.282c0-1.098-0.065-2.196-0.15-3.282c0.937,0.407,1.918,0.795,2.992,1.189
			c0,0,16.727,4.218,19.014,8.799c0,0-1.233-4.406-14.795-9.155c0,0-4.483-1.75-7.513-3.391c-0.04-0.26-0.091-0.511-0.143-0.775
			c4.789,1.582,16.191,3.953,28.614-3.936c0,0-13.057,7.385-28.975,2.12c-0.13-0.607-0.292-1.215-0.446-1.815
			c8.586,1.75,21.198,1.312,33.13-10.519c0,0-13.787,12.85-33.744,8.547c-0.542-1.596-1.176-3.146-1.918-4.644
			c12.559,2.66,21.636,0.665,28.116-2.96v-0.097c10.641-5.963,14.251-16.326,14.679-17.676c7.449,12.055,1.149,16.952,0.251,17.572
			c0.052-0.026,0.104-0.052,0.143-0.078c-0.013,0.014-0.026,0.026-0.04,0.026c0.213-0.148,0.439-0.265,0.672-0.367
			c3.974-1.712,10.744,1.679,10.744,1.679c-1.176,3.941-7.087,8.082-7.087,8.082c4.922,3.146,7.288,7.87,7.288,7.87
			c2.842,3.205,7.275,4.962,8.127,5.271c-6.073-0.124-8.496,0.762-9.265,1.176c-0.316,0.154-0.439,0.251-0.439,0.251
			c-0.581,0.356-1.149,0.646-1.719,0.923c-8.941,4.265-16.894,0.809-16.894,0.809c0.025,0.038-0.265-0.065-0.239-0.026
			c-0.117-0.039,0.129,0.078,0.129,0.078c2.714,3.431,1.124,10.161,0.84,11.261c-1.512-3.637-9.414-4.024-9.414-4.024
			c0.033,0.019-0.226-0.04-0.193-0.027c-0.11-0.013,0.09,0.084,0.09,0.084c2.086,1.905,2.035,5.2,1.983,5.937
			c-1.932-2.462-9.949-2.843-9.949-2.843c0,0.026-0.201-0.063-0.188-0.052c-0.078,0,0.083,0.104,0.083,0.104
			c1.073,1.79-0.122,3.561-0.348,3.876c-9.8-1.97-11.759-7.474-11.759-7.474l-0.123-0.227v0.278c0.73,4.102-1.692,6.512-4.509,7.927
			c-0.038,0.013-0.077,0.026-0.123,0.052c-0.104,0.051-0.193,0.096-0.297,0.136c-0.084,0.039-0.161,0.077-0.259,0.104
			c0,0-1,0.529-3.171,0.937c0.025-0.026,0.038-0.052,0.065-0.078C203.682,123.61,204.917,122.752,205.576,121.73z"/>
		<path fill-rule="evenodd" clip-rule="evenodd" fill="#145395" d="M125.592,113.914c0,0,1.869-3.573,5.912-6.894
			c-0.039-0.375-0.077-0.743-0.117-1.111C128.474,108.208,125.819,111.052,125.592,113.914z"/>
		<path fill-rule="evenodd" clip-rule="evenodd" fill="#145395" d="M240.281,81.862c-11.92,11.83-24.544,12.269-33.13,10.519
			c-0.188-0.659-0.388-1.319-0.607-1.972C226.494,94.712,240.281,81.862,240.281,81.862z"/>
		<path fill-rule="evenodd" clip-rule="evenodd" fill="#145395" d="M236.579,92.076c-12.429,7.889-23.832,5.518-28.607,3.936
			c-0.11-0.614-0.226-1.221-0.361-1.815C223.529,99.461,236.579,92.076,236.579,92.076z"/>
		<path fill-rule="evenodd" clip-rule="evenodd" fill="#145395" d="M230.409,109.333c-2.286-4.581-19.013-8.799-19.013-8.799
			c-1.06-0.395-2.048-0.782-2.992-1.189c-0.077-0.846-0.155-1.706-0.29-2.558c3.017,1.641,7.506,3.391,7.506,3.391
			C229.182,104.927,230.409,109.333,230.409,109.333z"/>
		<path fill-rule="evenodd" clip-rule="evenodd" fill="#145395" d="M214.213,113.914c0,0-1.874-3.573-5.912-6.894
			c0.038-0.375,0.078-0.743,0.103-1.111C211.318,108.208,213.993,111.052,214.213,113.914z"/>
		<path fill="none" stroke="#939396" stroke-width="4.3134" stroke-miterlimit="2.613" d="M286.364,259.387l0.065,0.026v0.013
			C286.404,259.413,286.391,259.387,286.364,259.387z M301.65,245.31 M301.753,245.6c-0.013-0.063-0.064-0.168-0.09-0.252
			c0-0.013,0-0.026-0.013-0.038 M301.65,245.31l0.103,0.29"/>
		<path fill-rule="evenodd" clip-rule="evenodd" fill="#145395" d="M132.035,110.799c-5.279,9.161-12.502,9.343-12.502,9.343
			c-0.516-1.033,2.59-9.303,2.804-9.839c-3.36,9.471-11.085,8.766-11.085,8.766c-1.764-1.401,3.701-8.095,3.701-8.095
			c-2.815,3.173-12.855,4.406-12.855,4.406c-3.903-3.572,5.24-12.837,6.679-14.252c-15.415,15.188-28.155,1.751-28.155,1.751
			c0.343-4.341,4.393-7.437,7.023-9.012c2.674-0.04,5.982,0.556,9.807,2.435c-4.251-2.5-11.713-7.437-12.081-11.222
			c0,0,5.808-3.689,8.27-1.932c0,0-5.453-5.634-0.872-12.146c0,0,6.376,9.775,14.368,11.681
			c-10.641-5.962-14.251-16.325-14.672-17.676c-7.437,12.055-1.157,16.953-0.252,17.572c0.039,0.026,0.065,0.04,0.104,0.065
			c-0.038-0.025-0.065-0.039-0.104-0.065c-0.038-0.025-0.089-0.052-0.136-0.076c0,0.013,0.014,0.013,0.027,0.024
			c0.045,0.026,0.083,0.04,0.109,0.065c-0.026-0.025-0.064-0.039-0.109-0.065c-0.207-0.148-0.433-0.265-0.672-0.374
			c-3.967-1.706-10.744,1.687-10.744,1.687c1.188,3.94,7.106,8.069,7.106,8.069c-4.936,3.16-7.306,7.882-7.306,7.882
			c-2.843,3.205-7.275,4.949-8.122,5.266c6.073-0.116,8.496,0.769,9.278,1.182c0.296,0.154,0.433,0.265,0.433,0.265
			c0.568,0.329,1.137,0.634,1.706,0.911c8.96,4.258,16.914,0.808,16.914,0.808c-0.045,0.039-0.071,0.078-0.097,0.116
			c0.123-0.038,0.187-0.065,0.187-0.065c-2.712,3.431-1.11,10.163-0.832,11.261c1.504-3.637,9.406-4.025,9.406-4.025
			c-0.027,0.013-0.039,0.045-0.065,0.072c0.103-0.014,0.168-0.014,0.168-0.014c-2.086,1.905-2.022,5.194-1.983,5.937
			c1.932-2.461,9.962-2.842,9.962-2.842c-0.012,0.025-0.025,0.039-0.025,0.065c0.071-0.013,0.135-0.013,0.135-0.013
			c-1.085,1.784,0.103,3.56,0.342,3.877c9.789-1.983,11.766-7.476,11.766-7.476c-0.026,0.129-0.026,0.252-0.04,0.381
			c0.091-0.207,0.143-0.33,0.143-0.33c-0.73,4.103,1.692,6.5,4.509,7.915c0.039,0.012,0.084,0.039,0.123,0.052
			c0.103,0.051,0.213,0.103,0.303,0.162c0.091,0.025,0.168,0.064,0.252,0.09l1.311,0.091
			C130.265,121.363,132.035,110.799,132.035,110.799z"/>
		<path fill-rule="evenodd" clip-rule="evenodd" fill="#145395" d="M203.734,123.476l1.311-0.091c0.084-0.025,0.162-0.065,0.24-0.09
			c0.103-0.059,0.213-0.11,0.316-0.162c0.039-0.013,0.065-0.04,0.11-0.052c2.817-1.416,5.253-3.812,4.522-7.915
			c0,0,0.038,0.123,0.143,0.33c-0.013-0.128-0.013-0.251-0.04-0.381c0,0,1.965,5.492,11.766,7.476
			c0.239-0.317,1.414-2.093,0.354-3.877c0,0,0.04,0,0.136,0.013c-0.026-0.026-0.026-0.04-0.039-0.065c0,0,8.03,0.381,9.962,2.842
			c0.039-0.743,0.103-4.032-1.983-5.937c0,0,0.065,0,0.155,0.014c-0.013-0.026-0.025-0.059-0.052-0.072c0,0,7.889,0.388,9.406,4.025
			c0.278-1.098,1.869-7.83-0.845-11.261c0,0,0.077,0.027,0.2,0.065c-0.038-0.038-0.052-0.077-0.097-0.116c0,0,7.953,3.45,16.9-0.808
			c0.569-0.277,1.151-0.582,1.719-0.911c0,0,0.116-0.11,0.433-0.265c0.782-0.413,3.205-1.298,9.265-1.182
			c-0.833-0.317-5.265-2.062-8.108-5.266c0,0-2.371-4.722-7.293-7.882c0,0,5.905-4.128,7.093-8.069c0,0-6.777-3.392-10.744-1.687
			c-0.239,0.109-0.466,0.226-0.672,0.374c-0.045,0.026-0.083,0.04-0.11,0.065c0.026-0.025,0.064-0.039,0.11-0.065
			c0.013-0.012,0.026-0.012,0.038-0.024c-0.058,0.024-0.11,0.051-0.148,0.076c-0.039,0.026-0.065,0.04-0.104,0.065
			c0.039-0.025,0.065-0.039,0.104-0.065c0.905-0.619,7.185-5.518-0.252-17.572c-0.42,1.351-4.031,11.714-14.672,17.676
			c7.992-1.905,14.368-11.681,14.368-11.681c4.581,6.513-0.872,12.146-0.872,12.146c2.461-1.757,8.27,1.932,8.27,1.932
			c-0.381,3.785-7.831,8.722-12.082,11.222c3.825-1.879,7.133-2.475,9.793-2.435c2.644,1.576,6.694,4.671,7.037,9.012
			c0,0-12.74,13.438-28.155-1.751c1.439,1.415,10.569,10.68,6.679,14.252c0,0-10.04-1.233-12.855-4.406c0,0,5.464,6.693,3.701,8.095
			c0,0-7.739,0.705-11.085-8.766c0.2,0.536,3.32,8.806,2.804,9.839c0,0-7.223-0.182-12.502-9.343
			C207.958,110.799,209.717,121.363,203.734,123.476z"/>
		<path fill-rule="evenodd" clip-rule="evenodd" fill="#145395" d="M57.466,193.721c0,0,2.416,8.639-0.278,12.411
			c0,0-2.965-4.31-8.102-7.022c0,0-2.707-4.315,0-8.909c0,0-4.587,5.4-2.436,10.537c0,0,1.086,3.78-0.801,5.659
			c0,0-1.351-8.359-5.136-9.987c0,0-4.316-11.604,3.243-9.71c0,0-7.029-3.243-7.559,5.395c0,0-10,9.445-14.316-2.979
			c0,0,11.609,6.221,13.774-6.468c0,0-5.368,11.868-15.441,2.501c0.045,0.076,0.097,0.148,0.15,0.226c0,0-2.185-0.414-2.185-1.79
			c0,0-0.381,4.342,2.565,5.137c0,0-2.752,8.069,8.871,8.664c0,0,6.9,0.388,9.057-3.942c0,0-2.157,3.942,2.966,7.096
			c0,0,4.722,5.717,1.97,10.252c0,0,4.542-1.189,5.123-8.282c0,0,7.689,2.952,7.689,8.482c0,0,5.316-3.96,3.145-13.019
			c0,0,1.499,2.165,4.807,4.245C61.82,199.652,58.604,196.306,57.466,193.721z"/>
		<path fill-rule="evenodd" clip-rule="evenodd" fill="#145395" d="M57.466,193.721c0,0,2.416,8.639-0.278,12.411
			c0,0-2.965-4.31-8.102-7.022c0,0-2.707-4.315,0-8.909c0,0-4.587,5.4-2.436,10.537c0,0,1.086,3.78-0.801,5.659
			c0,0-1.351-8.359-5.136-9.987c0,0-4.316-11.604,3.243-9.71c0,0-7.029-3.243-7.559,5.395c0,0-10,9.445-14.316-2.979
			c0,0,11.609,6.221,13.774-6.468c0,0-5.368,11.868-15.441,2.501c0.045,0.076,0.097,0.148,0.15,0.226c0,0-2.185-0.414-2.185-1.79
			c0,0-0.381,4.342,2.565,5.137c0,0-2.752,8.069,8.871,8.664c0,0,6.9,0.388,9.057-3.942c0,0-2.157,3.942,2.966,7.096
			c0,0,4.722,5.717,1.97,10.252c0,0,4.542-1.189,5.123-8.282c0,0,7.689,2.952,7.689,8.482c0,0,5.316-3.96,3.145-13.019
			c0,0,1.499,2.165,4.807,4.245C61.82,199.652,58.604,196.306,57.466,193.721z"/>
		<path fill-rule="evenodd" clip-rule="evenodd" fill="#145395" d="M15.692,158.802c-19.105-23.69-6.351-43.145,3.772-53.158
			c-0.439-0.11-0.858-0.24-1.271-0.401c-8.07,5.782-25.326,22.865-5.04,53.907c0,0-11.234,3.36-2.171,16.946
			c0,0,3.547,4.341,1.577,9.277c0,0,0.872-1.376,2.196-3.204c0-0.86-0.148-1.52-0.148-2.565c0-2.435-1.351-3.243-1.351-3.243
			c-10.253-13.773,2.979-17.017,2.979-17.017L15.692,158.802z"/>
		<path fill-rule="evenodd" clip-rule="evenodd" fill="#145395" d="M282.541,193.96c0,0-2.429,8.65,0.265,12.425
			c0,0,2.979-4.316,8.115-7.023c0,0,2.694-4.316,0-8.909c0,0,4.574,5.401,2.423,10.531c0,0-1.073,3.785,0.813,5.679
			c0,0,1.337-8.373,5.123-10.001c0,0,4.328-11.603-3.229-9.711c0,0,7.015-3.243,7.558,5.395c0,0,9.988,9.445,14.304-2.965
			c0,0-11.609,6.209-13.76-6.479c0,0,5.354,11.867,15.441,2.513c-0.058,0.064-0.098,0.13-0.149,0.199c0,0,2.171-0.388,2.171-1.775
			c0,0,0.401,4.341-2.565,5.137c0,0,2.765,8.068-8.871,8.662c0,0-6.887,0.401-9.057-3.94c0,0,2.17,3.94-2.966,7.094
			c0,0-4.722,5.712-1.957,10.253c0,0-4.542-1.188-5.136-8.283c0,0-7.688,2.967-7.688,8.484c0,0-5.316-3.948-3.146-13.012
			c0,0-1.486,2.156-4.807,4.238C278.173,199.903,281.39,196.551,282.541,193.96z"/>
		<path fill-rule="evenodd" clip-rule="evenodd" fill="#145395" d="M324.314,158.802c19.103-23.69,6.338-43.145-3.774-53.158
			c0.428-0.11,0.847-0.24,1.26-0.401c8.07,5.782,25.326,22.865,5.04,53.907c0,0,11.234,3.36,2.171,16.946
			c0,0-3.547,4.341-1.577,9.277c0,0-0.858-1.376-2.196-3.204c0-0.86,0.148-1.52,0.148-2.565c0-2.435,1.351-3.243,1.351-3.243
			c10.266-13.773-2.965-17.017-2.965-17.017L324.314,158.802z"/>
		<path fill-rule="evenodd" clip-rule="evenodd" fill="#FFFFFF" d="M177.246,112.744c0.554,0.833,5.504,8.244,5.968,8.948
			c-0.187,0.478-0.567,1.376-1.188,2.447c-2.106,3.361-5.44,5.822-5.479,5.848l-0.581,0.42c-1.628,0.478-5.84,1.499-10.389,1.098
			c-0.064-0.026-0.141-0.064-0.213-0.103c-0.459-0.213-1.441-0.699-2.668-1.603c-3.101-2.488-5.426-6.364-6.182-7.713l6.401-9.039
			c0.04-0.051,0.085-0.103,0.11-0.143C165.286,112.957,174.203,113.145,177.246,112.744z"/>
		<path fill="none" stroke="#145395" stroke-width="2.5007" stroke-miterlimit="2.613" d="M177.246,112.744
			c0.554,0.833,5.504,8.244,5.968,8.948c-0.187,0.478-0.567,1.376-1.188,2.447c-2.106,3.361-5.44,5.822-5.479,5.848l-0.581,0.42
			c-1.628,0.478-5.84,1.499-10.389,1.098c-0.064-0.026-0.141-0.064-0.213-0.103c-0.459-0.213-1.441-0.699-2.668-1.603
			c-3.101-2.488-5.426-6.364-6.182-7.713l6.401-9.039c0.04-0.051,0.085-0.103,0.11-0.143
			C165.286,112.957,174.203,113.145,177.246,112.744z"/>
		<path fill-rule="evenodd" clip-rule="evenodd" fill="#FFFFFF" d="M140.148,105.644l0.065-0.453L140,104.953
			c0.278-0.595,1.273-2.617,2.61-4.685c1.202-1.666,2.488-3.12,3.308-4.006c0.155-0.148,0.316-0.265,0.471-0.374
			c0.439,0.083,1.248,0.239,2.294,0.478l8.438,2.436c0.742,3.082,2.661,10.583,4.29,13.155l-3.534,4.973
			c-1.338,1.887-2.591,3.677-2.882,4.083c-6.047-0.976-8.774-2.513-9.742-3.198c-0.168-0.135-0.33-0.265-0.478-0.401
			C144.341,116.872,139.354,110.657,140.148,105.644z"/>
		<path fill="none" stroke="#145395" stroke-width="2.5007" stroke-miterlimit="2.613" d="M140.148,105.644l0.065-0.453L140,104.953
			c0.278-0.595,1.273-2.617,2.61-4.685c1.202-1.666,2.488-3.12,3.308-4.006c0.155-0.148,0.316-0.265,0.471-0.374
			c0.439,0.083,1.248,0.239,2.294,0.478l8.438,2.436c0.742,3.082,2.661,10.583,4.29,13.155l-3.534,4.973
			c-1.338,1.887-2.591,3.677-2.882,4.083c-6.047-0.976-8.774-2.513-9.742-3.198c-0.168-0.135-0.33-0.265-0.478-0.401
			C144.341,116.872,139.354,110.657,140.148,105.644z"/>
		<path fill-rule="evenodd" clip-rule="evenodd" fill="#145395" d="M168.078,0.744l-1.338,1.232l0.594,1.972
			c0,0,2.992,0.846,3.14,0.671c0.143-0.187,1.203-1.841,1.098-2.073c-0.11-0.252-0.677-1.421-0.677-1.421l-0.847-0.421l-1.266-0.174
			L168.078,0.744z"/>
		<path fill-rule="evenodd" clip-rule="evenodd" fill="#145395" d="M207.377,27.206c0,0-0.278-0.175-1.156-0.439
			c-1.454-0.433-2.732,1.538-1.402,2.784c1.351,1.253,2.042,1.849,2.016,2.844c-0.013,0.948-0.594,1.414-0.666,1.388
			c-0.09-0.038-0.582-0.82-1.311-1.26c-0.71-0.419-1.958-0.329-1.331,1.156c0.621,1.493,1.493,4.123,0.291,6.061
			c-1.209,1.899-2.12,2.249-3.561,2.578c0,0-1.957-0.239-2.927,0.433c-0.95,0.679-1.15,1.589-0.471,1.628
			c0.672,0.058,2.299,0.098,2.06,0.878c-0.238,0.763-3.269,3.451-4.367,4.071c-1.099,0.639-5.898,1.35-6.667-1.862
			c-0.395-1.641,0.09-2.797,1.479-3.456c0,0,1.111-0.199,1.641,0c0.517,0.188,1.136,0,1.008-0.73
			c-0.149-0.71-0.239-1.479-1.151-2.151c-0.917-0.677-1.26-0.388-1.298-0.677c-0.052-0.278,0.381-2.967,0.858-3.787
			c1.248-2.17,2.106,0.136,2.83,0.136c0.213,0,1.629-1.486,0.769-3.218c-0.872-1.719-2.158-1.389-2.5-1.337
			c0,0,1.007-6.796-2.274-11.784c-3.321-5.059-12.056-8.799-12.056-8.799s7.249-3.088,13.749-2.236
			c12.928,1.681,15.531,11.178,15.531,11.178s0.226,0.633-0.632,0.122c-0.368-0.227-2.12-0.439-1.351,0.621
			c0.161,0.213,2.261,2.351,2.688,3.411C207.61,25.804,207.377,27.206,207.377,27.206z M182.459,34.985
			c0.278,0.413,2.526-0.976,3.308,1.446c0.368,1.138,0.556,2.908-0.213,2.566c-3.16-1.415-4.018,1.362-4.121,1.557
			c-0.11,0.2,0.659,0.388,1.214,0.451c0.555,0.053,2.3,1.654,1.298,3.482c-0.995,1.835-2.965,2.423-6.286,2.423
			c-3.321,0-4.328-3.281-4.484-3.799c-0.173-0.529,0.129-0.782,0.686-0.665c0.556,0.109,2.08,1.098,2.687,1.447
			c0.607,0.329,0.71-0.943,0.659-2.066c-0.052-1.111-1.163-2.527-2.158-2.908c-1-0.388-2.681,0.026-2.681,0.026
			s0.013-0.439,0.052-1.222c0.2-4.825,2.855-5.73,3.346-5.898c0.672-0.213,0.04-1.033-0.594-1.111
			c-0.982-0.097-1.085,0.304-1.324,0.116c-0.251-0.2-0.065-1.137,0.542-2.1c0.607-0.981,1.241-0.665,1.241-0.665l0.465,0.329
			c0,0,0.064,0.679,0.82,1.196c3.032,2.073,4.632-1.21,3.69-3.296c-0.874-1.971-3.955-2.067-5.686-0.543
			c-1.06,0.937-1.972,2.449-2.028,2.727c-0.065,0.278-1.001,0.303-1.493-0.252c-0.504-0.556-0.091-2.436-0.116-3.281
			c-0.033-0.82,1.214-0.634,2.163-0.439c0.944,0.2,1.551-0.809,1.248-1.241c-0.304-0.453-1.06-0.374-2.236-0.504
			c-1.208-0.148-1.764-1.376-1.764-1.376s0.085,0.329,1.855-1.137c1.776-1.473,1.919-3.773,1.867-4.684
			c-0.052-0.957-0.607-1.286-0.607-1.286s6.033,2.01,7.209,5.266c0,0,0.078,1.789,0.291,2.817c0.679,3.191,4.27,6.118,4.684,7.784
			c0.542,2.184-0.833-0.039-2.649,1.176C181.547,32.536,182.33,34.804,182.459,34.985z M153.883,44.487
			c-0.995-1.828,0.75-3.429,1.306-3.482c0.556-0.063,1.325-0.251,1.22-0.451c-0.11-0.194-0.968-2.972-4.128-1.557
			c-0.755,0.342-0.581-1.428-0.226-2.566c0.795-2.422,3.043-1.034,3.334-1.446c0.123-0.181,0.898-2.449-0.898-3.664
			c-1.802-1.215-3.178,1.008-2.649-1.176c0.414-1.666,4.013-4.592,4.684-7.784c0.213-1.028,0.291-2.817,0.291-2.817
			c1.189-3.256,7.21-5.266,7.21-5.266s-0.556,0.329-0.594,1.286c-0.065,0.911,0.078,3.211,1.854,4.684
			c1.771,1.466,1.855,1.137,1.855,1.137s-0.556,1.228-1.764,1.376c-1.176,0.13-1.932,0.051-2.236,0.504
			c-0.303,0.433,0.304,1.441,1.248,1.241c0.949-0.194,2.196-0.381,2.17,0.439c-0.032,0.845,0.381,2.726-0.122,3.281
			c-0.492,0.556-1.441,0.53-1.493,0.252c-0.051-0.278-0.97-1.79-2.03-2.727c-1.73-1.524-4.812-1.428-5.684,0.543
			c-0.943,2.086,0.659,5.369,3.701,3.296c0.744-0.518,0.795-1.196,0.795-1.196l0.478-0.329c0,0,0.634-0.316,1.241,0.665
			c0.607,0.963,0.794,1.9,0.542,2.1c-0.239,0.188-0.343-0.213-1.305-0.116c-0.653,0.078-1.286,0.898-0.627,1.111
			c0.504,0.168,3.166,1.073,3.359,5.898c0.033,0.782,0.058,1.222,0.058,1.222s-1.692-0.414-2.688-0.026
			c-0.995,0.381-2.119,1.797-2.158,2.908c-0.052,1.123,0.039,2.396,0.659,2.066c0.614-0.35,2.145-1.338,2.688-1.447
			c0.556-0.117,0.86,0.136,0.692,0.665c-0.175,0.518-1.169,3.799-4.491,3.799C156.855,46.91,154.885,46.323,153.883,44.487z
			 M149.95,47.466c-0.769,3.212-5.569,2.501-6.667,1.862c-1.1-0.621-4.129-3.308-4.368-4.071c-0.24-0.781,1.389-0.82,2.067-0.878
			c0.672-0.039,0.485-0.949-0.478-1.628c-0.963-0.672-2.94-0.433-2.94-0.433c-1.441-0.329-2.351-0.679-3.539-2.578
			c-1.196-1.938-0.336-4.568,0.271-6.061c0.626-1.485-0.607-1.576-1.331-1.156c-0.717,0.439-1.208,1.222-1.299,1.26
			c-0.065,0.026-0.666-0.439-0.677-1.388c-0.013-0.995,0.677-1.591,2.028-2.844c1.337-1.246,0.052-3.216-1.39-2.784
			c-0.872,0.264-1.149,0.439-1.149,0.439s-0.24-1.402,0.181-2.449c0.426-1.06,2.526-3.198,2.688-3.411
			c0.769-1.06-0.976-0.847-1.338-0.621c-0.872,0.511-0.646-0.122-0.646-0.122s2.59-9.497,15.531-11.178
			c6.499-0.852,13.749,2.236,13.749,2.236s-8.749,3.74-12.056,8.799c-3.282,4.988-2.273,11.784-2.273,11.784
			c-0.33-0.052-1.642-0.382-2.501,1.337c-0.859,1.732,0.556,3.218,0.769,3.218c0.724,0,1.589-2.306,2.83-0.136
			c0.478,0.82,0.911,3.509,0.859,3.787c-0.039,0.289-0.381,0-1.298,0.677c-0.898,0.672-0.988,1.441-1.15,2.151
			c-0.143,0.73,0.491,0.918,1.02,0.73c0.518-0.199,1.627,0,1.627,0C149.858,44.669,150.35,45.825,149.95,47.466z M168.699,0
			c0,0-2.313,0.652-3.07,1.958c0,0-0.354,0.808,0,1.764c0.363,0.95,1.603,1.757,1.603,1.757s0.555-4.646,0.698-3.799
			c0.148,0.865-0.284,0.213-0.284,0.213s-1.06,1.764-1.118,2.914c-0.052,1.15-0.052,4.865-0.052,4.865l-0.872,0.278
			c0,0-12.864-6.378-23.181-4.058c-15.654,3.516-16.287,17.928-16.287,17.928s-3.348-0.097-4.142,3.057
			c-0.595,2.351,0.251,1.492,0.646,1.111c0.388-0.401,1.524-0.705,2.299,0.154c0.782,0.866,1.914,3.432,1.914,3.432
			s-2.837-0.518-3.245,2.364c-0.374,2.558,1.319,4.187,1.416,3.404c0.116-1.008,1.175-2.927,2.351-1.829
			c0.847,0.795,1.907,2.158,1.907,2.158s-0.634,0.24-1.1,1.02c-0.471,0.795-0.393,1.732,0,1.492
			c0.388-0.238,1.008-0.632,2.261,0.305c1.261,0.943,3.296,3.682,3.296,3.682s-1.913-0.071-2.527,1.557
			c-1.15,3.095,1.234,4.225,1.46,3.683c0.239-0.543,0.168-2.183,1.493-2.357c0.898-0.104,1.842,0.013,3.178,1.589
			c1.318,1.557,6.732,7.552,6.732,7.552s-1.26,0.982-1.099,1.842c0.143,0.858,0.543,1.401,1.241,1.706
			c0.717,0.329,1.182,0.717,1.182,1.511c0,0.775-1.182,1.706-1.085,2.643c0.065,0.943,0.065,1.416,0.381,1.894
			c0.303,0.464,0.93,0.064,0.93,0.064s8.863-4.058,23.296-4.058c14.421,0,23.291,4.058,23.291,4.058s0.607,0.399,0.924-0.064
			c0.316-0.478,0.316-0.95,0.394-1.894c0.085-0.937-1.098-1.867-1.098-2.643c0-0.794,0.466-1.182,1.183-1.511
			c0.697-0.305,1.085-0.847,1.24-1.706c0.161-0.86-1.098-1.842-1.098-1.842s5.401-5.995,6.739-7.552
			c1.324-1.576,2.274-1.692,3.171-1.589c1.324,0.174,1.26,1.814,1.499,2.357c0.233,0.542,2.617-0.588,1.454-3.683
			c-0.607-1.628-2.527-1.557-2.527-1.557s2.037-2.739,3.283-3.682c1.267-0.937,1.887-0.543,2.274-0.305
			c0.395,0.24,0.478-0.697,0-1.492c-0.465-0.78-1.098-1.02-1.098-1.02s1.072-1.363,1.918-2.158c1.175-1.098,2.223,0.82,2.338,1.829
			c0.098,0.782,1.79-0.847,1.416-3.404c-0.408-2.882-3.238-2.364-3.238-2.364s1.125-2.565,1.907-3.432
			c0.775-0.859,1.918-0.555,2.313-0.154c0.381,0.381,1.228,1.24,0.632-1.111c-0.807-3.153-4.153-3.057-4.153-3.057
			s-0.621-14.413-16.274-17.928c-10.318-2.32-23.193,4.058-23.193,4.058l-0.872-0.278c0,0,0-3.715-0.04-4.865
			c-0.059-1.15-1.112-2.914-1.112-2.914s-0.012,0.038,0.13-0.807c0.148-0.847,0.278,4.393,0.278,4.393s1.247-0.808,1.603-1.757
			c0.342-0.957,0-1.764,0-1.764C171.451,0.652,169.138,0,169.138,0H168.699z"/>
		<path fill-rule="evenodd" clip-rule="evenodd" fill="#145395" d="M207.377,27.206c0,0-0.278-0.175-1.156-0.439
			c-1.454-0.433-2.732,1.538-1.402,2.784c1.351,1.253,2.042,1.849,2.016,2.844c-0.013,0.948-0.594,1.414-0.666,1.388
			c-0.09-0.038-0.582-0.82-1.311-1.26c-0.71-0.419-1.958-0.329-1.331,1.156c0.621,1.493,1.493,4.123,0.291,6.061
			c-1.209,1.899-2.12,2.249-3.561,2.578c0,0-1.957-0.239-2.927,0.433c-0.95,0.679-1.15,1.589-0.471,1.628
			c0.672,0.058,2.299,0.098,2.06,0.878c-0.238,0.763-3.269,3.451-4.367,4.071c-1.099,0.639-5.898,1.35-6.667-1.862
			c-0.395-1.641,0.09-2.797,1.479-3.456c0,0,1.111-0.199,1.641,0c0.517,0.188,1.136,0,1.008-0.73
			c-0.149-0.71-0.239-1.479-1.151-2.151c-0.917-0.677-1.26-0.388-1.298-0.677c-0.052-0.278,0.381-2.967,0.858-3.787
			c1.248-2.17,2.106,0.136,2.83,0.136c0.213,0,1.629-1.486,0.769-3.218c-0.872-1.719-2.158-1.389-2.5-1.337
			c0,0,1.007-6.796-2.274-11.784c-3.321-5.059-12.056-8.799-12.056-8.799s7.249-3.088,13.749-2.236
			c12.928,1.681,15.531,11.178,15.531,11.178s0.226,0.633-0.632,0.122c-0.368-0.227-2.12-0.439-1.351,0.621
			c0.161,0.213,2.261,2.351,2.688,3.411C207.61,25.804,207.377,27.206,207.377,27.206z M182.459,34.985
			c0.278,0.413,2.526-0.976,3.308,1.446c0.368,1.138,0.556,2.908-0.213,2.566c-3.16-1.415-4.018,1.362-4.121,1.557
			c-0.11,0.2,0.659,0.388,1.214,0.451c0.555,0.053,2.3,1.654,1.298,3.482c-0.995,1.835-2.965,2.423-6.286,2.423
			c-3.321,0-4.328-3.281-4.484-3.799c-0.173-0.529,0.129-0.782,0.686-0.665c0.556,0.109,2.08,1.098,2.687,1.447
			c0.607,0.329,0.71-0.943,0.659-2.066c-0.052-1.111-1.163-2.527-2.158-2.908c-1-0.388-2.681,0.026-2.681,0.026
			s0.013-0.439,0.052-1.222c0.2-4.825,2.855-5.73,3.346-5.898c0.672-0.213,0.04-1.033-0.594-1.111
			c-0.982-0.097-1.085,0.304-1.324,0.116c-0.251-0.2-0.065-1.137,0.542-2.1c0.607-0.981,1.241-0.665,1.241-0.665l0.465,0.329
			c0,0,0.064,0.679,0.82,1.196c3.032,2.073,4.632-1.21,3.69-3.296c-0.874-1.971-3.955-2.067-5.686-0.543
			c-1.06,0.937-1.972,2.449-2.028,2.727c-0.065,0.278-1.001,0.303-1.493-0.252c-0.504-0.556-0.091-2.436-0.116-3.281
			c-0.033-0.82,1.214-0.634,2.163-0.439c0.944,0.2,1.551-0.809,1.248-1.241c-0.304-0.453-1.06-0.374-2.236-0.504
			c-1.208-0.148-1.764-1.376-1.764-1.376s0.085,0.329,1.855-1.137c1.776-1.473,1.919-3.773,1.867-4.684
			c-0.052-0.957-0.607-1.286-0.607-1.286s6.033,2.01,7.209,5.266c0,0,0.078,1.789,0.291,2.817c0.679,3.191,4.27,6.118,4.684,7.784
			c0.542,2.184-0.833-0.039-2.649,1.176C181.547,32.536,182.33,34.804,182.459,34.985z M153.883,44.487
			c-0.995-1.828,0.75-3.429,1.306-3.482c0.556-0.063,1.325-0.251,1.22-0.451c-0.11-0.194-0.968-2.972-4.128-1.557
			c-0.755,0.342-0.581-1.428-0.226-2.566c0.795-2.422,3.043-1.034,3.334-1.446c0.123-0.181,0.898-2.449-0.898-3.664
			c-1.802-1.215-3.178,1.008-2.649-1.176c0.414-1.666,4.013-4.592,4.684-7.784c0.213-1.028,0.291-2.817,0.291-2.817
			c1.189-3.256,7.21-5.266,7.21-5.266s-0.556,0.329-0.594,1.286c-0.065,0.911,0.078,3.211,1.854,4.684
			c1.771,1.466,1.855,1.137,1.855,1.137s-0.556,1.228-1.764,1.376c-1.176,0.13-1.932,0.051-2.236,0.504
			c-0.303,0.433,0.304,1.441,1.248,1.241c0.949-0.194,2.196-0.381,2.17,0.439c-0.032,0.845,0.381,2.726-0.122,3.281
			c-0.492,0.556-1.441,0.53-1.493,0.252c-0.051-0.278-0.97-1.79-2.03-2.727c-1.73-1.524-4.812-1.428-5.684,0.543
			c-0.943,2.086,0.659,5.369,3.701,3.296c0.744-0.518,0.795-1.196,0.795-1.196l0.478-0.329c0,0,0.634-0.316,1.241,0.665
			c0.607,0.963,0.794,1.9,0.542,2.1c-0.239,0.188-0.343-0.213-1.305-0.116c-0.653,0.078-1.286,0.898-0.627,1.111
			c0.504,0.168,3.166,1.073,3.359,5.898c0.033,0.782,0.058,1.222,0.058,1.222s-1.692-0.414-2.688-0.026
			c-0.995,0.381-2.119,1.797-2.158,2.908c-0.052,1.123,0.039,2.396,0.659,2.066c0.614-0.35,2.145-1.338,2.688-1.447
			c0.556-0.117,0.86,0.136,0.692,0.665c-0.175,0.518-1.169,3.799-4.491,3.799C156.855,46.91,154.885,46.323,153.883,44.487z
			 M149.95,47.466c-0.769,3.212-5.569,2.501-6.667,1.862c-1.1-0.621-4.129-3.308-4.368-4.071c-0.24-0.781,1.389-0.82,2.067-0.878
			c0.672-0.039,0.485-0.949-0.478-1.628c-0.963-0.672-2.94-0.433-2.94-0.433c-1.441-0.329-2.351-0.679-3.539-2.578
			c-1.196-1.938-0.336-4.568,0.271-6.061c0.626-1.485-0.607-1.576-1.331-1.156c-0.717,0.439-1.208,1.222-1.299,1.26
			c-0.065,0.026-0.666-0.439-0.677-1.388c-0.013-0.995,0.677-1.591,2.028-2.844c1.337-1.246,0.052-3.216-1.39-2.784
			c-0.872,0.264-1.149,0.439-1.149,0.439s-0.24-1.402,0.181-2.449c0.426-1.06,2.526-3.198,2.688-3.411
			c0.769-1.06-0.976-0.847-1.338-0.621c-0.872,0.511-0.646-0.122-0.646-0.122s2.59-9.497,15.531-11.178
			c6.499-0.852,13.749,2.236,13.749,2.236s-8.749,3.74-12.056,8.799c-3.282,4.988-2.273,11.784-2.273,11.784
			c-0.33-0.052-1.642-0.382-2.501,1.337c-0.859,1.732,0.556,3.218,0.769,3.218c0.724,0,1.589-2.306,2.83-0.136
			c0.478,0.82,0.911,3.509,0.859,3.787c-0.039,0.289-0.381,0-1.298,0.677c-0.898,0.672-0.988,1.441-1.15,2.151
			c-0.143,0.73,0.491,0.918,1.02,0.73c0.518-0.199,1.627,0,1.627,0C149.858,44.669,150.35,45.825,149.95,47.466z M168.699,0
			c0,0-2.313,0.652-3.07,1.958c0,0-0.354,0.808,0,1.764c0.363,0.95,1.603,1.757,1.603,1.757s0.555-4.646,0.698-3.799
			c0.148,0.865-0.284,0.213-0.284,0.213s-1.06,1.764-1.118,2.914c-0.052,1.15-0.052,4.865-0.052,4.865l-0.872,0.278
			c0,0-12.864-6.378-23.181-4.058c-15.654,3.516-16.287,17.928-16.287,17.928s-3.348-0.097-4.142,3.057
			c-0.595,2.351,0.251,1.492,0.646,1.111c0.388-0.401,1.524-0.705,2.299,0.154c0.782,0.866,1.914,3.432,1.914,3.432
			s-2.837-0.518-3.245,2.364c-0.374,2.558,1.319,4.187,1.416,3.404c0.116-1.008,1.175-2.927,2.351-1.829
			c0.847,0.795,1.907,2.158,1.907,2.158s-0.634,0.24-1.1,1.02c-0.471,0.795-0.393,1.732,0,1.492
			c0.388-0.238,1.008-0.632,2.261,0.305c1.261,0.943,3.296,3.682,3.296,3.682s-1.913-0.071-2.527,1.557
			c-1.15,3.095,1.234,4.225,1.46,3.683c0.239-0.543,0.168-2.183,1.493-2.357c0.898-0.104,1.842,0.013,3.178,1.589
			c1.318,1.557,6.732,7.552,6.732,7.552s-1.26,0.982-1.099,1.842c0.143,0.858,0.543,1.401,1.241,1.706
			c0.717,0.329,1.182,0.717,1.182,1.511c0,0.775-1.182,1.706-1.085,2.643c0.065,0.943,0.065,1.416,0.381,1.894
			c0.303,0.464,0.93,0.064,0.93,0.064s8.863-4.058,23.296-4.058c14.421,0,23.291,4.058,23.291,4.058s0.607,0.399,0.924-0.064
			c0.316-0.478,0.316-0.95,0.394-1.894c0.085-0.937-1.098-1.867-1.098-2.643c0-0.794,0.466-1.182,1.183-1.511
			c0.697-0.305,1.085-0.847,1.24-1.706c0.161-0.86-1.098-1.842-1.098-1.842s5.401-5.995,6.739-7.552
			c1.324-1.576,2.274-1.692,3.171-1.589c1.324,0.174,1.26,1.814,1.499,2.357c0.233,0.542,2.617-0.588,1.454-3.683
			c-0.607-1.628-2.527-1.557-2.527-1.557s2.037-2.739,3.283-3.682c1.267-0.937,1.887-0.543,2.274-0.305
			c0.395,0.24,0.478-0.697,0-1.492c-0.465-0.78-1.098-1.02-1.098-1.02s1.072-1.363,1.918-2.158c1.175-1.098,2.223,0.82,2.338,1.829
			c0.098,0.782,1.79-0.847,1.416-3.404c-0.408-2.882-3.238-2.364-3.238-2.364s1.125-2.565,1.907-3.432
			c0.775-0.859,1.918-0.555,2.313-0.154c0.381,0.381,1.228,1.24,0.632-1.111c-0.807-3.153-4.153-3.057-4.153-3.057
			s-0.621-14.413-16.274-17.928c-10.318-2.32-23.193,4.058-23.193,4.058l-0.872-0.278c0,0,0-3.715-0.04-4.865
			c-0.059-1.15-1.112-2.914-1.112-2.914s-0.012,0.038,0.13-0.807c0.148-0.847,0.278,4.393,0.278,4.393s1.247-0.808,1.603-1.757
			c0.342-0.957,0-1.764,0-1.764C171.451,0.652,169.138,0,169.138,0H168.699z"/>
		<path fill-rule="evenodd" clip-rule="evenodd" fill="#FFFFFF" d="M252.24,289.054l2.991-2.345l0.594,0.769l-4.206,3.308
			c-0.278-0.42-0.451-0.871-0.529-1.376c-0.065-0.504-0.038-1.06,0.09-1.667c0.071-0.291,0.175-0.697,0.336-1.201
			c0.156-0.518,0.253-0.872,0.278-1.099c0.04-0.304,0.027-0.582-0.025-0.833c-0.058-0.24-0.175-0.466-0.33-0.679
			c-0.239-0.304-0.542-0.472-0.905-0.511c-0.354-0.045-0.697,0.064-1.021,0.304c-0.329,0.265-0.497,0.581-0.542,0.962
			c-0.027,0.388,0.109,0.77,0.386,1.125l0.078,0.097l-1.021,0.788l-0.051-0.077c-0.504-0.633-0.699-1.267-0.607-1.919
			c0.103-0.646,0.491-1.228,1.162-1.757c0.654-0.518,1.313-0.744,1.99-0.704c0.672,0.038,1.241,0.343,1.68,0.917
			c0.22,0.291,0.381,0.62,0.459,1.015c0.083,0.399,0.083,0.742,0,1.033l-0.168,0.529
			C252.324,287.588,252.111,288.699,252.24,289.054z M244.293,287.704c-0.323,0.238-0.504,0.542-0.568,0.897
			c-0.071,0.362,0,0.679,0.207,0.956c0.226,0.278,0.517,0.433,0.872,0.459c0.375,0.019,0.704-0.091,1.021-0.343
			c0.341-0.265,0.542-0.568,0.607-0.911c0.07-0.342-0.013-0.664-0.252-0.969c-0.22-0.278-0.516-0.433-0.859-0.446
			C244.965,287.323,244.623,287.438,244.293,287.704z M247.213,289.066c0.427-0.142,0.82-0.161,1.214-0.038
			c0.401,0.104,0.744,0.342,1.008,0.671c0.465,0.596,0.634,1.222,0.504,1.868c-0.116,0.633-0.529,1.233-1.228,1.775
			c-0.691,0.544-1.363,0.789-2.015,0.764c-0.659-0.026-1.215-0.331-1.681-0.925c-0.278-0.343-0.419-0.717-0.433-1.123
			c-0.02-0.414,0.09-0.809,0.343-1.189c-0.388,0.143-0.744,0.168-1.073,0.078c-0.33-0.097-0.619-0.291-0.858-0.607
			c-0.401-0.504-0.518-1.06-0.388-1.681c0.148-0.614,0.518-1.168,1.144-1.654c0.634-0.49,1.253-0.729,1.874-0.717
			c0.641,0.014,1.15,0.278,1.55,0.782c0.24,0.304,0.356,0.634,0.368,0.975C247.556,288.395,247.439,288.724,247.213,289.066z
			 M246.368,290.34c-0.356,0.291-0.569,0.62-0.647,1.014c-0.07,0.4,0.026,0.757,0.278,1.072c0.278,0.361,0.607,0.543,1.001,0.581
			c0.388,0.04,0.769-0.09,1.145-0.381c0.381-0.29,0.594-0.633,0.659-1.021c0.052-0.394-0.053-0.755-0.329-1.111
			c-0.266-0.329-0.582-0.518-0.983-0.529C247.11,289.926,246.722,290.062,246.368,290.34z M239.08,291.792
			c-0.305,0.24-0.504,0.544-0.576,0.898c-0.077,0.356,0,0.679,0.213,0.957c0.226,0.277,0.517,0.433,0.885,0.459
			c0.362,0.012,0.692-0.091,1.021-0.343c0.329-0.265,0.529-0.568,0.594-0.911c0.072-0.349-0.013-0.666-0.245-0.969
			c-0.226-0.278-0.504-0.433-0.867-0.459C239.752,291.406,239.409,291.527,239.08,291.792z M242,293.156
			c0.426-0.149,0.833-0.161,1.234-0.039c0.393,0.104,0.722,0.329,0.988,0.672c0.464,0.594,0.639,1.221,0.503,1.854
			c-0.115,0.646-0.529,1.24-1.227,1.783c-0.692,0.542-1.364,0.795-2.017,0.769c-0.659-0.025-1.214-0.33-1.679-0.924
			c-0.277-0.343-0.407-0.717-0.433-1.125c-0.013-0.412,0.09-0.807,0.342-1.194c-0.381,0.148-0.742,0.175-1.072,0.084
			c-0.33-0.098-0.621-0.29-0.86-0.613c-0.399-0.498-0.516-1.054-0.386-1.681c0.135-0.607,0.516-1.163,1.144-1.653
			c0.632-0.484,1.253-0.724,1.892-0.711c0.621,0.014,1.138,0.265,1.532,0.769c0.238,0.316,0.368,0.646,0.368,0.988
			C242.343,292.478,242.226,292.827,242,293.156z M241.153,294.423c-0.354,0.291-0.567,0.626-0.632,1.021
			c-0.078,0.4,0.013,0.757,0.265,1.072c0.278,0.355,0.607,0.543,1.001,0.581c0.388,0.04,0.769-0.09,1.144-0.381
			c0.381-0.291,0.607-0.64,0.659-1.021c0.065-0.394-0.051-0.769-0.33-1.124c-0.251-0.316-0.581-0.491-0.968-0.529
			C241.896,294.016,241.529,294.145,241.153,294.423z M233.058,295.47l0.898-0.699l4.787,6.113l-0.988,0.78l-3.851-4.922
			l-0.188,1.544l-0.898-0.194L233.058,295.47z"/>
		<path fill="none" stroke="#FFFFFF" stroke-width="0.2249" stroke-miterlimit="2.613" d="M252.24,289.054l2.991-2.345l0.594,0.769
			l-4.206,3.308c-0.278-0.42-0.451-0.871-0.529-1.376c-0.065-0.504-0.038-1.06,0.09-1.667c0.071-0.291,0.175-0.697,0.336-1.201
			c0.156-0.518,0.253-0.872,0.278-1.099c0.04-0.304,0.027-0.582-0.025-0.833c-0.058-0.24-0.175-0.466-0.33-0.679
			c-0.239-0.304-0.542-0.472-0.905-0.511c-0.354-0.045-0.697,0.064-1.021,0.304c-0.329,0.265-0.497,0.581-0.542,0.962
			c-0.027,0.388,0.109,0.77,0.386,1.125l0.078,0.097l-1.021,0.788l-0.051-0.077c-0.504-0.633-0.699-1.267-0.607-1.919
			c0.103-0.646,0.491-1.228,1.162-1.757c0.654-0.518,1.313-0.744,1.99-0.704c0.672,0.038,1.241,0.343,1.68,0.917
			c0.22,0.291,0.381,0.62,0.459,1.015c0.083,0.399,0.083,0.742,0,1.033l-0.168,0.529
			C252.324,287.588,252.111,288.699,252.24,289.054z M244.293,287.704c-0.323,0.238-0.504,0.542-0.568,0.897
			c-0.071,0.362,0,0.679,0.207,0.956c0.226,0.278,0.517,0.433,0.872,0.459c0.375,0.019,0.704-0.091,1.021-0.343
			c0.341-0.265,0.542-0.568,0.607-0.911c0.07-0.342-0.013-0.664-0.252-0.969c-0.22-0.278-0.516-0.433-0.859-0.446
			C244.965,287.323,244.623,287.438,244.293,287.704z M247.213,289.066c0.427-0.142,0.82-0.161,1.214-0.038
			c0.401,0.104,0.744,0.342,1.008,0.671c0.465,0.596,0.634,1.222,0.504,1.868c-0.116,0.633-0.529,1.233-1.228,1.775
			c-0.691,0.544-1.363,0.789-2.015,0.764c-0.659-0.026-1.215-0.331-1.681-0.925c-0.278-0.343-0.419-0.717-0.433-1.123
			c-0.02-0.414,0.09-0.809,0.343-1.189c-0.388,0.143-0.744,0.168-1.073,0.078c-0.33-0.097-0.619-0.291-0.858-0.607
			c-0.401-0.504-0.518-1.06-0.388-1.681c0.148-0.614,0.518-1.168,1.144-1.654c0.634-0.49,1.253-0.729,1.874-0.717
			c0.641,0.014,1.15,0.278,1.55,0.782c0.24,0.304,0.356,0.634,0.368,0.975C247.556,288.395,247.439,288.724,247.213,289.066z
			 M246.368,290.34c-0.356,0.291-0.569,0.62-0.647,1.014c-0.07,0.4,0.026,0.757,0.278,1.072c0.278,0.361,0.607,0.543,1.001,0.581
			c0.388,0.04,0.769-0.09,1.145-0.381c0.381-0.29,0.594-0.633,0.659-1.021c0.052-0.394-0.053-0.755-0.329-1.111
			c-0.266-0.329-0.582-0.518-0.983-0.529C247.11,289.926,246.722,290.062,246.368,290.34z M239.08,291.792
			c-0.305,0.24-0.504,0.544-0.576,0.898c-0.077,0.356,0,0.679,0.213,0.957c0.226,0.277,0.517,0.433,0.885,0.459
			c0.362,0.012,0.692-0.091,1.021-0.343c0.329-0.265,0.529-0.568,0.594-0.911c0.072-0.349-0.013-0.666-0.245-0.969
			c-0.226-0.278-0.504-0.433-0.867-0.459C239.752,291.406,239.409,291.527,239.08,291.792z M242,293.156
			c0.426-0.149,0.833-0.161,1.234-0.039c0.393,0.104,0.722,0.329,0.988,0.672c0.464,0.594,0.639,1.221,0.503,1.854
			c-0.115,0.646-0.529,1.24-1.227,1.783c-0.692,0.542-1.364,0.795-2.017,0.769c-0.659-0.025-1.214-0.33-1.679-0.924
			c-0.277-0.343-0.407-0.717-0.433-1.125c-0.013-0.412,0.09-0.807,0.342-1.194c-0.381,0.148-0.742,0.175-1.072,0.084
			c-0.33-0.098-0.621-0.29-0.86-0.613c-0.399-0.498-0.516-1.054-0.386-1.681c0.135-0.607,0.516-1.163,1.144-1.653
			c0.632-0.484,1.253-0.724,1.892-0.711c0.621,0.014,1.138,0.265,1.532,0.769c0.238,0.316,0.368,0.646,0.368,0.988
			C242.343,292.478,242.226,292.827,242,293.156z M241.153,294.423c-0.354,0.291-0.567,0.626-0.632,1.021
			c-0.078,0.4,0.013,0.757,0.265,1.072c0.278,0.355,0.607,0.543,1.001,0.581c0.388,0.04,0.769-0.09,1.144-0.381
			c0.381-0.291,0.607-0.64,0.659-1.021c0.065-0.394-0.051-0.769-0.33-1.124c-0.251-0.316-0.581-0.491-0.968-0.529
			C241.896,294.016,241.529,294.145,241.153,294.423z M233.058,295.47l0.898-0.699l4.787,6.113l-0.988,0.78l-3.851-4.922
			l-0.188,1.544l-0.898-0.194L233.058,295.47z"/>
		<polygon fill-rule="evenodd" clip-rule="evenodd" fill="#FFFFFF" points="86.532,278.626 87.792,279.86 83.211,284.531 
			85.99,287.271 84.962,288.323 80.912,284.345 		"/>
		<path fill-rule="evenodd" clip-rule="evenodd" fill="#FFFFFF" d="M89.563,290.694c1.188,1.046,2.526,0.421,3.397-0.581
			c0.93-1.06,1.371-2.461,0.175-3.508c-1.188-1.046-2.526-0.421-3.449,0.633C88.813,288.246,88.374,289.661,89.563,290.694z
			 M94.117,285.481c1.868,1.641,1.745,3.998,0.181,5.781c-1.518,1.744-3.851,2.184-5.71,0.557c-1.867-1.641-1.752-3.98-0.227-5.731
			C89.923,284.293,92.236,283.853,94.117,285.481z"/>
		<polygon fill-rule="evenodd" clip-rule="evenodd" fill="#FFFFFF" points="98.388,289.331 102.858,292.769 101.947,293.95 
			98.878,291.593 97.754,293.047 100.416,295.101 99.576,296.187 96.921,294.145 94.912,296.768 93.504,295.695 		"/>
		<polygon fill-rule="evenodd" clip-rule="evenodd" fill="#FFFFFF" points="104.874,295.985 102.884,294.636 103.724,293.408 
			109.158,297.097 108.324,298.331 106.341,296.98 102.652,302.376 101.191,301.387 		"/>
		<path fill-rule="evenodd" clip-rule="evenodd" fill="#FFFFFF" d="M113.764,305.684c-1.098,1.867-2.739,2.132-4.594,1.034
			c-1.847-1.099-2.403-2.636-1.292-4.51l2.539-4.303l1.518,0.897l-2.539,4.303c-0.453,0.757-0.684,1.615,0.531,2.339
			c1.085,0.639,1.717,0.375,2.325-0.659l2.532-4.303l1.519,0.904L113.764,305.684z"/>
		<path fill-rule="evenodd" clip-rule="evenodd" fill="#FFFFFF" d="M116.82,307.699c-0.479,0.95,0.077,1.705,0.923,2.113
			c0.556,0.277,1.473,0.542,1.84-0.182c0.382-0.782-0.619-1.447-1.531-2.255c-0.93-0.82-1.789-1.77-1.123-3.107
			c0.735-1.467,2.467-1.479,3.765-0.834c1.5,0.757,2.54,2.093,1.719,3.747l-1.531-0.755c0.381-0.899-0.123-1.429-0.872-1.803
			c-0.491-0.246-1.183-0.329-1.486,0.278c-0.278,0.542,0.025,0.794,1.589,2.157c0.464,0.388,1.905,1.524,1.085,3.152
			c-0.646,1.306-2.183,1.783-4.128,0.809c-1.589-0.796-2.688-2.333-1.784-4.09L116.82,307.699z"/>
		<path fill-rule="evenodd" clip-rule="evenodd" fill="#FFFFFF" d="M129.205,311.401l1.815,0.679
			c0.724,0.258,1.24,0.103,1.531-0.666c0.265-0.717-0.013-1.176-0.755-1.454l-1.809-0.679L129.205,311.401z M128.824,307.376
			l4.043,1.511c1.351,0.505,1.855,1.759,1.429,2.896c-0.33,0.892-0.937,1.421-1.887,1.447l-0.013,0.025
			c0.737,0.504,0.672,1.376,0.446,2.158c-0.142,0.484-0.484,1.376-0.343,1.9l-1.654-0.621c-0.025-0.542,0.265-1.267,0.395-1.894
			c0.188-0.833,0-1.291-0.82-1.608l-1.654-0.614l-1.098,2.939l-1.654-0.62L128.824,307.376z"/>
		<path fill-rule="evenodd" clip-rule="evenodd" fill="#FFFFFF" d="M138.521,317.765c1.518,0.427,2.461-0.711,2.831-1.996
			c0.368-1.351,0.173-2.805-1.364-3.244c-1.518-0.419-2.461,0.717-2.829,2.068C136.789,315.872,136.997,317.331,138.521,317.765z
			 M140.401,311.097c2.378,0.672,3.295,2.856,2.643,5.15c-0.621,2.223-2.526,3.624-4.924,2.944
			c-2.389-0.671-3.294-2.855-2.667-5.076C136.098,311.827,138.003,310.438,140.401,311.097z"/>
		<path fill-rule="evenodd" clip-rule="evenodd" fill="#FFFFFF" d="M146.804,317.914l2.048,0.394l-0.434-3.083h-0.025
			L146.804,317.914z M147.902,313.106l1.782,0.343l1.422,8.443l-1.791-0.342l-0.264-1.867l-2.954-0.568l-0.949,1.627l-1.745-0.329
			L147.902,313.106z"/>
		<path fill-rule="evenodd" clip-rule="evenodd" fill="#FFFFFF" d="M154.809,320.846l1.556,0.175
			c1.021,0.103,2.068-0.426,2.255-2.184c0.168-1.603-0.278-2.7-2.028-2.882l-1.253-0.123L154.809,320.846z M153.735,314.167
			l3.444,0.354c2.061,0.226,3.488,1.68,3.21,4.329c-0.251,2.313-1.614,3.915-4.05,3.649l-3.438-0.354L153.735,314.167z"/>
		<polygon fill-rule="evenodd" clip-rule="evenodd" fill="#FFFFFF" points="174.351,314.87 176.108,314.709 176.677,321.222 
			180.579,320.872 180.715,322.358 175.062,322.862 		"/>
		<path fill-rule="evenodd" clip-rule="evenodd" fill="#FFFFFF" d="M186.155,320.252c1.557-0.265,1.932-1.68,1.719-3.004
			c-0.24-1.39-1.035-2.617-2.591-2.364c-1.577,0.265-1.952,1.679-1.712,3.068C183.784,319.276,184.591,320.504,186.155,320.252z
			 M185.023,313.423c2.469-0.406,4.2,1.195,4.581,3.534c0.369,2.293-0.769,4.354-3.21,4.749c-2.449,0.412-4.187-1.189-4.569-3.463
			C181.444,315.884,182.582,313.824,185.023,313.423z"/>
		<polygon fill-rule="evenodd" clip-rule="evenodd" fill="#FFFFFF" points="190.639,312.603 192.331,312.195 196.86,316.628 
			196.885,316.628 195.612,311.401 197.215,311.007 199.108,318.799 197.383,319.218 192.887,314.786 192.86,314.786 
			194.133,320.014 192.531,320.401 		"/>
		<path fill-rule="evenodd" clip-rule="evenodd" fill="#FFFFFF" d="M202.913,316.123l1.5-0.478c0.962-0.304,1.706-1.201,1.175-2.895
			c-0.491-1.537-1.35-2.358-3.017-1.829l-1.188,0.388L202.913,316.123z M199.25,310.438l3.296-1.046
			c1.97-0.64,3.851,0.13,4.671,2.655c0.704,2.223,0.09,4.238-2.236,4.975l-3.294,1.047L199.25,310.438z"/>
		<path fill-rule="evenodd" clip-rule="evenodd" fill="#FFFFFF" d="M213.502,312.603c1.466-0.581,1.531-2.048,1.033-3.295
			c-0.517-1.306-1.564-2.339-3.03-1.757c-1.473,0.581-1.538,2.066-1.02,3.359C210.977,312.156,212.03,313.19,213.502,312.603z
			 M210.943,306.175c2.32-0.912,4.354,0.265,5.233,2.486c0.86,2.146,0.182,4.407-2.131,5.317c-2.299,0.931-4.341-0.265-5.201-2.416
			C207.972,309.353,208.644,307.085,210.943,306.175z"/>
		<polygon fill-rule="evenodd" clip-rule="evenodd" fill="#FFFFFF" points="216.319,304.165 217.908,303.409 223.238,306.82 
			223.264,306.808 220.938,301.969 222.431,301.252 225.887,308.487 224.298,309.243 218.98,305.846 218.955,305.846 
			221.268,310.684 219.775,311.401 		"/>
		<path fill-rule="evenodd" clip-rule="evenodd" fill="#FFFFFF" d="M168.201,319.276c-0.085,0.471-0.531,0.808-1.021,0.724
			c-0.478-0.078-0.794-0.53-0.717-1.001c0.085-0.479,0.529-0.808,1.008-0.73C167.942,318.347,168.278,318.799,168.201,319.276z"/>
		<path fill-rule="evenodd" clip-rule="evenodd" fill="#FFFFFF" d="M228.981,302.446c-0.078,0.484-0.529,0.802-1.02,0.724
			c-0.479-0.077-0.795-0.529-0.712-1.002c0.078-0.478,0.531-0.807,1.002-0.729C228.73,301.516,229.06,301.969,228.981,302.446z"/>
	</g>
</g>
</svg>
