<?xml version="1.0" encoding="utf-8"?>
<!-- Generator: Adobe Illustrator 14.0.0, SVG Export Plug-In . SVG Version: 6.00 Build 43363)  -->
<!DOCTYPE svg PUBLIC "-//W3C//DTD SVG 1.1//EN" "http://www.w3.org/Graphics/SVG/1.1/DTD/svg11.dtd">
<svg version="1.1" id="Logo" xmlns="http://www.w3.org/2000/svg" xmlns:xlink="http://www.w3.org/1999/xlink" x="0px" y="0px"
	 width="300px" height="300px" viewBox="0 0 300 300" enable-background="new 0 0 300 300" xml:space="preserve">
<g>
	<path fill-rule="evenodd" clip-rule="evenodd" fill="#A71072" d="M118.543,90.729l-6.322,1.915l6.306,1.976l1.118,0.351
		l-0.003-0.001c3.021,0.958,5.632,1.784,10.516,1.784c6.657,0,12.113-4.927,14.772-7.864l3.544-3.915l-5.254,0.523
		C134.118,86.403,124.775,88.841,118.543,90.729L118.543,90.729z M130.157,94.719c-4.568,0-6.921-0.745-9.9-1.689
		c-0.367-0.116-0.746-0.234-1.125-0.352c6.064-1.837,15.313-4.262,24.29-5.155C141.006,90.19,136.045,94.719,130.157,94.719
		L130.157,94.719z"/>
	<path fill-rule="evenodd" clip-rule="evenodd" fill="#A71072" d="M196.808,90.395c-0.301,0-0.557,0.013-0.849,0.017l0.001-10.771
		c11.594-3.052,20.182-13.594,20.182-26.132c0-14.917-12.136-27.05-27.052-27.05c-0.876,0-1.782,0.248-2.673,0.34
		c-5.085-5.544-12.151-8.905-19.796-8.905c-1.853,0-3.663,0.212-5.428,0.579V13.95c0,0-0.171-0.332-0.171-0.509
		c0-5.42-4.841-9.667-11.022-9.667c-6.181,0-11.023,4.246-11.023,9.667c0,0.177-0.17,0.509-0.17,0.509v4.521
		c-1.765-0.366-3.575-0.579-5.427-0.579c-7.644,0-14.711,3.361-19.798,8.905c-0.89-0.092-1.795-0.34-2.673-0.34
		c-14.915,0-27.051,12.134-27.051,27.05c0,12.538,8.588,23.08,20.182,26.132v10.771c-0.29-0.004-0.547-0.017-0.848-0.017
		c-28.354,0-45.281,23.204-45.281,62.07c0,103.062,88.784,142.344,89.683,142.728l2.406,1.033l2.406-1.033
		c0.896-0.384,89.683-39.666,89.683-142.728C242.089,113.599,225.162,90.395,196.808,90.395L196.808,90.395z M151.604,293.322
		c0,0-0.892,0.383-1.604,0.688c-0.713-0.306-1.605-0.688-1.605-0.688c-0.885-0.383-88.448-39.258-88.448-140.857
		c0-37.592,16.167-60.036,43.246-60.036l2.883,0.062v-14.42l-1.518-0.399c-10.988-2.891-18.664-12.828-18.664-24.164
		c0-13.793,11.223-25.015,25.016-25.015l1.298,0.158l2.146,0.317l0.729-0.793c4.879-5.317,11.377-8.246,18.298-8.246
		c1.615,0,3.302,0.18,5.013,0.536l2.449,0.508c0,0,0-3.669,0-4.836c0.253,0.021,0.211-2.573,0.182-2.746
		c0.033-4.253,3.959-7.581,8.977-7.581c5.039,0,8.986,3.352,9.003,7.412c0,0-0.081,2.764,0.156,2.764c0,1.231,0,4.987,0,4.987
		l2.446-0.508c1.712-0.356,3.4-0.536,5.016-0.536c6.922,0,13.419,2.928,18.296,8.244l0.644,0.805l2.232-0.327l1.297-0.158
		c13.793,0,25.016,11.222,25.016,25.015c0,11.335-7.675,21.271-18.663,24.165l-1.516,0.398l-0.004,12.341l-0.022,2.079l2.907-0.062
		c27.079,0,43.245,22.444,43.245,60.036C240.053,254.045,152.491,292.939,151.604,293.322L151.604,293.322z"/>
	<path fill-rule="evenodd" clip-rule="evenodd" fill="#A71072" d="M156.778,85.498l-5.251-0.523l3.543,3.914
		c2.658,2.938,8.112,7.865,14.771,7.865c4.885,0,7.495-0.826,10.516-1.783l7.431-2.327l-6.327-1.915
		C175.224,88.841,165.882,86.403,156.778,85.498L156.778,85.498z M179.743,93.029c-2.979,0.944-5.332,1.689-9.901,1.689
		c-5.888,0-10.849-4.528-13.264-7.196c8.977,0.893,18.227,3.318,24.293,5.155C180.49,92.795,180.112,92.914,179.743,93.029
		L179.743,93.029z"/>
	<path fill-rule="evenodd" clip-rule="evenodd" fill="#FFFFFF" d="M196.808,92.429c-1.021,0-1.978,0.022-2.885,0.06
		c0-5.352,0.004-14.417,0.004-14.417l1.516-0.398c10.988-2.895,18.663-12.83,18.663-24.165c0-13.793-11.223-25.015-25.016-25.015
		l-1.297,0.158l-2.232,0.327l-0.644-0.805c-4.877-5.316-11.374-8.244-18.296-8.244c-1.615,0-3.304,0.18-5.016,0.536l-2.446,0.508
		c0,0,0-3.756,0-4.987c-0.237,0-0.156-2.764-0.156-2.764c-0.017-4.06-3.964-7.412-9.003-7.412c-5.018,0-8.943,3.328-8.977,7.581
		c0.029,0.173,0.071,2.767-0.182,2.746c0,1.167,0,4.836,0,4.836l-2.449-0.508c-1.711-0.356-3.397-0.536-5.013-0.536
		c-6.921,0-13.419,2.928-18.298,8.246l-0.729,0.793l-2.146-0.317l-1.298-0.158c-13.793,0-25.016,11.222-25.016,25.015
		c0,11.335,7.676,21.273,18.664,24.164l1.518,0.399c0,0,0,9.065,0,14.417c-0.906-0.037-1.861-0.06-2.883-0.06
		c-27.079,0-43.246,22.444-43.246,60.036c0,101.736,87.564,140.477,88.449,140.857l1.604,0.687l1.604-0.687
		c0.884-0.381,88.448-39.121,88.448-140.857C240.053,114.873,223.887,92.429,196.808,92.429L196.808,92.429z M146.665,86.79
		c-0.069,0.099-7.124,9.963-16.508,9.963c-4.882,0-7.493-0.826-10.516-1.784c-2.231-0.707-4.665-1.465-8.022-1.967
		c1.041-0.378,20.051-7.219,36.181-7.819L146.665,86.79L146.665,86.79z M180.357,94.969c-3.022,0.958-5.633,1.784-10.516,1.784
		c-9.381,0-16.438-9.864-16.506-9.963l-1.133-1.606c16.209,0.597,35.137,7.436,36.18,7.818
		C185.024,93.504,182.592,94.262,180.357,94.969L180.357,94.969z"/>
	<path fill-rule="evenodd" clip-rule="evenodd" fill="#A71072" d="M196.808,96.499c-14.754,0-15.264,4.325-26.966,4.325
		S150,89.122,150,89.122s-8.14,11.702-19.843,11.702c-11.701,0-12.21-4.325-26.965-4.325c-21.878,0-39.176,16.791-39.176,55.966
		C64.017,252.694,150,289.58,150,289.58s85.983-36.886,85.983-137.115C235.983,113.29,218.686,96.499,196.808,96.499L196.808,96.499
		z M150,266.668c-19.233-11.195-65.633-45.334-65.633-114.203c0-16.247,3.267-35.614,18.825-35.614c4.657,0,6.226,0.496,9.073,1.399
		c3.897,1.235,9.233,2.926,17.892,2.926c7.748,0,14.38-2.377,19.843-5.478c5.463,3.1,12.095,5.478,19.842,5.478
		c8.659,0,13.996-1.691,17.894-2.926c2.847-0.903,4.416-1.399,9.072-1.399c15.56,0,18.824,19.367,18.824,35.614
		C215.632,221.334,169.234,255.473,150,266.668L150,266.668z"/>
	<path fill-rule="evenodd" clip-rule="evenodd" fill="#F7D338" d="M185.445,170.781v-10.176h-46.809v15.537
		c-14.986,4.368-25.947,18.183-25.947,34.58c0,19.902,16.135,36.038,36.039,36.038c10.859,0,20.573-4.825,27.182-12.426
		l-7.686-6.676c-4.412,5.074-10.763,8.392-17.886,8.837v-31.117h18.827v-9.667h-18.827V184.94
		c6.488,0.403,12.343,3.175,16.667,7.502l7.206-7.205c-6.168-6.166-14.567-10.061-23.873-10.473v-3.983H185.445L185.445,170.781z
		 M122.865,210.722c0-10.684,6.511-19.872,15.771-23.811v47.623C129.376,230.594,122.865,221.402,122.865,210.722L122.865,210.722z"
		/>
	<path fill-rule="evenodd" clip-rule="evenodd" fill="#A71072" d="M158.037,139.107c0.727-0.958,1.092-2.01,1.092-3.149
		c0-0.954-0.297-1.696-0.892-2.225c-0.264-0.234-0.6-0.398-0.967-0.529l3.131-2.711h-3.272L154.968,133
		c-1.336,0.132-2.594,0.623-3.757,1.514c-1.371,1.049-2.455,2.387-3.253,4.011c-0.8,1.625-1.198,3.305-1.198,5.04
		c0,1.598,0.433,2.86,1.299,3.788c0.867,0.928,2.095,1.392,3.679,1.392c2.112,0,4.365-0.615,6.757-1.844l0.53-2.639
		c-1.207,0.786-2.407,1.365-3.604,1.734c-1.198,0.371-2.153,0.556-2.868,0.556c-0.896,0-1.626-0.303-2.186-0.908
		c-0.561-0.604-0.84-1.552-0.84-2.845c2.06-0.167,3.81-0.583,5.253-1.251C156.222,140.88,157.308,140.067,158.037,139.107
		L158.037,139.107z M149.78,140.732c0.26-1.096,0.522-1.891,0.791-2.379c0.269-0.489,0.579-0.94,0.932-1.351
		c0.434-0.521,0.91-0.942,1.429-1.262c0.641-0.401,1.277-0.604,1.916-0.604c0.473,0,0.858,0.159,1.16,0.475
		c0.301,0.314,0.452,0.655,0.452,1.021c0,0.577-0.259,1.178-0.772,1.804c-0.514,0.627-1.212,1.127-2.097,1.501
		C152.707,140.312,151.437,140.577,149.78,140.732L149.78,140.732z"/>
	<path fill-rule="evenodd" clip-rule="evenodd" fill="#A71072" d="M174.516,133.618c-0.463-0.451-1.06-0.677-1.791-0.677
		c-1.362,0-2.701,0.619-4.021,1.858c-1.319,1.238-2.527,2.78-3.617,4.626l1.222-6.135h-1.553h-1.201h-1.514l-0.679,2.893h1.615
		l-2.431,12.212h2.756l1.056-5.314c1.825-2.593,3.288-4.477,4.392-5.647c1.1-1.172,2.022-1.758,2.763-1.758
		c0.25,0,0.458,0.098,0.625,0.293c0.167,0.195,0.251,0.45,0.251,0.765c0,0.261-0.023,0.51-0.07,0.753l-2.168,10.908h2.755
		l2.152-10.81c0.102-0.539,0.153-1.129,0.153-1.771C175.211,134.801,174.979,134.07,174.516,133.618L174.516,133.618z"/>
	<path fill-rule="evenodd" clip-rule="evenodd" fill="#A71072" d="M145.896,133.291h-2.752c-0.426-0.121-0.83-0.209-1.21-0.265
		c-0.379-0.056-0.732-0.085-1.056-0.085c-1.704,0-3.308,0.555-4.808,1.663c-1.502,1.109-2.769,2.673-3.801,4.695
		c-1.033,2.022-1.549,3.956-1.549,5.801c0,0.927,0.261,1.767,0.783,2.518c0.523,0.751,1.224,1.126,2.103,1.126
		c1.212,0,2.516-0.595,3.913-1.786c1.396-1.19,2.678-2.769,3.844-4.733l-1.23,6.169h2.321h0.433h1.603l0.551-2.883h-1.578
		L145.896,133.291L145.896,133.291z M142.012,138.951c-3.45,4.749-5.858,7.124-7.229,7.124c-0.379,0-0.664-0.145-0.854-0.432
		c-0.189-0.287-0.284-0.645-0.284-1.071c0-1.355,0.356-2.867,1.067-4.538c0.711-1.67,1.607-2.94,2.688-3.813
		c1.082-0.872,2.144-1.308,3.188-1.308c0.379,0,0.744,0.045,1.095,0.133c0.353,0.088,0.694,0.22,1.027,0.397L142.012,138.951
		L142.012,138.951z"/>
	<polygon fill-rule="evenodd" clip-rule="evenodd" fill="#A71072" points="128.44,127.854 127.9,130.557 130.635,130.557 
		131.207,127.854 128.44,127.854 	"/>
	<path fill-rule="evenodd" clip-rule="evenodd" fill="#A71072" d="M127.346,133.291h-1.64l-0.382,2.098h1.604l-2.483,12.475
		c-0.26,1.318-0.726,2.369-1.398,3.147c-0.672,0.778-1.498,1.168-2.479,1.168c-0.77,0-1.66-0.223-2.669-0.668l-0.46,2.322
		c0.862,0.276,1.748,0.413,2.653,0.413c1.177,0,2.269-0.276,3.274-0.832c1.004-0.556,1.838-1.339,2.5-2.347
		c0.662-1.009,1.206-2.578,1.633-4.707l2.602-13.07h-2.358H127.346L127.346,133.291z"/>
	<polygon fill-rule="evenodd" clip-rule="evenodd" fill="#A71072" points="128.44,127.854 127.9,130.557 130.635,130.557 
		131.207,127.854 128.44,127.854 	"/>
	<path fill-rule="evenodd" clip-rule="evenodd" fill="#A71072" d="M127.346,133.291h-1.64l-0.382,2.098h1.604l-2.483,12.475
		c-0.26,1.318-0.726,2.369-1.398,3.147c-0.672,0.778-1.498,1.168-2.479,1.168c-0.77,0-1.66-0.223-2.669-0.668l-0.46,2.322
		c0.862,0.276,1.748,0.413,2.653,0.413c1.177,0,2.269-0.276,3.274-0.832c1.004-0.556,1.838-1.339,2.5-2.347
		c0.662-1.009,1.206-2.578,1.633-4.707l2.602-13.07h-2.358H127.346L127.346,133.291z"/>
	<path fill-rule="evenodd" clip-rule="evenodd" fill="#F7C529" d="M189.09,32.563c-1.767,0-3.475,0.243-5.114,0.655
		c-3.763-5.563-10.133-9.22-17.354-9.22c-6.781,0-12.792,3.238-16.621,8.235c-3.828-4.997-9.839-8.235-16.62-8.235
		c-7.224,0-13.592,3.657-17.355,9.22c-1.641-0.413-3.348-0.655-5.115-0.655c-11.567,0-20.945,9.378-20.945,20.945
		c0,11.568,9.378,20.945,20.945,20.945c7.223,0,13.592-3.657,17.357-9.22c1.639,0.412,3.346,0.655,5.113,0.655
		c6.781,0,12.792-3.236,16.62-8.234c3.829,4.998,9.84,8.234,16.621,8.234c1.767,0,3.475-0.242,5.113-0.655
		c3.766,5.563,10.134,9.22,17.355,9.22c11.57,0,20.946-9.377,20.946-20.945C210.036,41.941,200.66,32.563,189.09,32.563
		L189.09,32.563z"/>
	<path fill-rule="evenodd" clip-rule="evenodd" fill="#F7C529" d="M150,81.066c17.977,0,39.855,8.141,39.855,8.141V79.031
		c0,0-23.912-7.97-39.855-7.97s-39.854,7.97-39.854,7.97v10.176C110.146,89.207,132.024,81.066,150,81.066L150,81.066z"/>
	<path fill-rule="evenodd" clip-rule="evenodd" fill="#D31A25" d="M189.09,40.703c-0.658,0-1.297,0.066-1.927,0.162
		c0.26,1.319,0.402,2.682,0.402,4.077c0,6.833-3.287,12.884-8.349,16.707c2.35,2.848,5.903,4.663,9.873,4.663
		c7.062,0,12.806-5.744,12.806-12.804C201.896,46.447,196.151,40.703,189.09,40.703L189.09,40.703z"/>
	<path fill-rule="evenodd" clip-rule="evenodd" fill="#D31A25" d="M112.435,44.942c0-1.396,0.144-2.758,0.404-4.077
		c-0.632-0.096-1.271-0.162-1.93-0.162c-7.06,0-12.805,5.744-12.805,12.805c0,7.06,5.745,12.804,12.805,12.804
		c3.972,0,7.525-1.815,9.876-4.663C115.722,57.826,112.435,51.775,112.435,44.942L112.435,44.942z"/>
	<path fill-rule="evenodd" clip-rule="evenodd" fill="#D31A25" d="M120.575,44.942c0,7.061,5.744,12.805,12.805,12.805
		c7.062,0,12.805-5.745,12.805-12.805c0-7.06-5.743-12.804-12.805-12.804C126.319,32.139,120.575,37.882,120.575,44.942
		L120.575,44.942z"/>
	<path fill-rule="evenodd" clip-rule="evenodd" fill="#D31A25" d="M179.427,44.942c0,7.061-5.746,12.805-12.806,12.805
		c-7.062,0-12.806-5.745-12.806-12.805c0-7.06,5.744-12.804,12.806-12.804C173.681,32.139,179.427,37.882,179.427,44.942
		L179.427,44.942z"/>
	<path fill-rule="evenodd" clip-rule="evenodd" fill="#F7C529" d="M155.088,17.002v-4.07h-3.052V9.879h-4.071v3.053h-3.053v4.07
		h3.053v3.38c-1.696,0.562-2.883,1.795-2.883,3.234c0,1.966,2.201,3.562,4.918,3.562c2.716,0,4.917-1.595,4.917-3.562
		c0-1.439-1.185-2.672-2.881-3.234v-3.38H155.088L155.088,17.002z"/>
</g>
</svg>
