<?xml version="1.0" encoding="utf-8"?>
<!-- Generator: Adobe Illustrator 14.0.0, SVG Export Plug-In . SVG Version: 6.00 Build 43363)  -->
<!DOCTYPE svg PUBLIC "-//W3C//DTD SVG 1.1//EN" "http://www.w3.org/Graphics/SVG/1.1/DTD/svg11.dtd">
<svg version="1.1" id="Ebene_1" xmlns="http://www.w3.org/2000/svg" xmlns:xlink="http://www.w3.org/1999/xlink" x="0px" y="0px"
	 width="444.525px" height="566.93px" viewBox="0 0 444.525 566.93" enable-background="new 0 0 444.525 566.93"
	 xml:space="preserve">
<path fill-rule="evenodd" clip-rule="evenodd" fill="#00579F" d="M444.525,124.283l-56.975-62.61
	c-46.373,3.703-80.072-17.161-98.279-61.654L155.065,0c-19.016,48.096-55.394,64.699-97.874,61.697L0,124.283
	c14.396,19.136,23.907,46.791,24.258,67.998c0.978,59.099-1.527,100.374-2.984,136.681c-3.41,84.995,17.111,118.554,79.622,150.66
	c35.842,18.408,84.646,47.228,121.328,87.308c34.823-37.547,75.284-62.907,121.383-87.371
	c61.193-32.476,81.957-61.309,79.793-149.92c-1.148-46.951-5.324-90.783-3.293-136.486
	C421.187,168.882,430.962,142.857,444.525,124.283L444.525,124.283z M191.648,229.164l-0.074-28.692L63.311,75.439
	c3.003-0.034,11.335-0.803,14.248-1.042c38.507-3.155,68.898-24.135,85.9-61.622l117.507,0.017
	c16.645,34.737,43.922,56.101,79.863,60.985c6.654,0.904,14.871,1.244,22.109,0.999L253.871,199.792l0.004,29.403l29.324-0.074
	l126.557-124.068l18.615,20.455c-13.072,21.598-20.283,46.271-21.201,71.46c-0.887,24.356-0.092,48.656,0.996,72.993
	c0.893,19.982,2.035,39.954,2.463,59.953c0.463,21.667,0.262,43.084-4.869,64.215c-1.117,4.595-2.443,8.92-4.002,13.015
	l-1.463,2.732L282.298,292.364l-28.455,0.004l0.074,28.692l123.195,121.508c-1.746,1.504-4.832,3.933-6.734,5.393
	c-16.709,12.818-35.967,21.741-54.246,32.05c-14.82,8.356-29.326,17.289-43.311,26.932c-17.977,12.397-35.043,26.055-50.569,41.587
	c-15.273-15.24-32.045-28.748-49.705-41.1c-14.215-9.943-28.909-19.007-44.037-27.49c-18.604-10.432-38.054-18.973-54.933-32.188
	c-1.86-1.457-4.907-3.884-6.617-5.387l124.661-121.891l-0.004-29.086l-28.376,0.073L43.626,409.611
	c-2.261-5.396-4.093-11.164-5.538-17.386c-4.813-20.728-4.817-41.603-4.049-62.799c0.724-19.958,1.794-39.902,2.407-59.865
	c0.737-23.987,0.964-47.964,0.666-71.96c-0.115-9.311-0.736-18.032-2.748-27.135c-3.526-15.958-9.623-31.047-18.13-45.014
	l20.106-21.49l126.854,125.205L191.648,229.164L191.648,229.164z"/>
<path fill-rule="evenodd" clip-rule="evenodd" fill="#E2001A" d="M199.34,196.505v40.256h-41.332l-51.594-50.38v152.247
	l53.918-54.173h39.008v40.025l-52.914,52.352h152.247l-52.904-52.19v-40.187h38.91l53.918,54.173V185.75l-51.594,51.012h-41.234
	V196.66l53.537-52.191h-152.88L199.34,196.505L199.34,196.505z M227.179,178.554h-9.482v74.906h-74.905v9.481h74.905v74.906h9.482
	v-74.906h74.906v-9.481h-74.906V178.554L227.179,178.554z"/>
<path fill="#CC902E" d="M90.575,291.184l-3.438,1.241c-1.31,0.383-2.783,0.655-4.42,0.818l-4.175,0.246h-0.818
	c-8.077,0-14.979-2.646-20.709-7.94c-5.73-5.293-8.595-12.742-8.595-22.346c0-10.041,3.015-17.599,9.045-22.674
	c6.03-5.075,12.701-7.613,20.014-7.613h0.818c1.31,0,2.319,0,3.029,0l3.192,0.491c1.528,0.341,3.124,0.832,4.789,1.5
	c1.664,0.655,3.233,1.487,4.707,2.483v16.726h-0.819l-1.146-1.228l-1.473-1.392c-1.037-0.873-2.537-1.828-4.502-2.865
	c-1.965-0.928-3.983-1.392-6.057-1.392c-4.366,0-7.831,1.665-10.396,5.007c-2.565,3.342-3.848,7.163-3.848,11.487
	c0,4.871,1.419,8.677,4.256,11.406c2.838,2.742,6.167,4.106,9.987,4.106c2.783,0,5.32-0.695,7.612-2.074
	c2.074-1.159,3.929-2.564,5.566-4.229h0.819v16.357L90.575,291.184L90.575,291.184z"/>
<polygon fill="#CC902E" points="211.391,65.146 212.209,65.146 246.589,65.146 246.589,78.898 228.253,78.898 228.253,87.493 
	244.869,87.493 244.869,100.671 228.253,100.671 228.253,122.445 227.435,122.445 211.391,122.445 211.391,65.146 "/>
<path fill="#CC902E" d="M377.449,235.186c4.898,0,8.467,0.9,10.709,2.701c2.242,1.801,3.75,3.875,4.523,6.221l0.695,3.029
	l0.232,2.619c0,2.892-0.838,5.389-2.514,7.49c-1.674,2.101-3.646,3.588-5.914,4.46l2.242,0.901c0.258,0.109,0.684,0.3,1.275,0.573
	c0.594,0.273,1.07,0.546,1.43,0.819c1.6,0.982,3.08,2.469,4.447,4.461c1.365,1.992,2.049,4.68,2.049,8.063l-0.078,0.982v0.9
	c-0.309,3.384-1.842,6.576-4.6,9.577c-2.758,3.002-7.102,4.503-13.029,4.503h-0.773h-27.68v-57.299h0.773H377.449L377.449,235.186z
	 M372.656,281.024h1.623c0.67,0,1.457-0.122,2.357-0.368c0.902-0.245,1.818-0.791,2.746-1.61c0.928-0.818,1.391-2.196,1.391-4.12
	c0-1.76-0.449-3.028-1.352-3.792c-0.902-0.764-1.947-1.35-3.133-1.732l-1.855-0.164h-1.469h-6.494v11.787H372.656L372.656,281.024z
	 M372.037,257.777c2.166,0,3.736-0.354,4.717-1.064c0.979-0.709,1.648-1.555,2.01-2.538l0.154-0.9v-0.9
	c0-1.528-0.516-2.837-1.533-3.929c-0.979-1.2-2.77-1.8-5.387-1.8h-5.527v11.132H372.037L372.037,257.777z"/>
</svg>
