<?xml version="1.0" encoding="utf-8"?>
<!-- Generator: Adobe Illustrator 14.0.0, SVG Export Plug-In . SVG Version: 6.00 Build 43363)  -->
<!DOCTYPE svg PUBLIC "-//W3C//DTD SVG 1.1//EN" "http://www.w3.org/Graphics/SVG/1.1/DTD/svg11.dtd">
<svg version="1.1" id="Logo" xmlns="http://www.w3.org/2000/svg" xmlns:xlink="http://www.w3.org/1999/xlink" x="0px" y="0px"
	 width="850.394px" height="850.394px" viewBox="0 0 850.394 850.394" enable-background="new 0 0 850.394 850.394"
	 xml:space="preserve">
<g>
	<polygon fill="#C6251D" points="777.379,4.14 73.014,4.14 425.198,846.254 	"/>
	<polygon fill="#FFFFFF" points="267.554,387.551 425.198,764.545 718.557,63.068 	"/>
	<path d="M235.577,197.289h-33.154V93.548h26.845c4.385,0,9.305,0,14.116,0.642c10.054,1.39,18.931,5.133,22.566,15.507
		c1.604,4.385,2.032,9.412,2.032,14.438v45.667c-0.106,5.241-0.963,9.733-2.673,13.476c-3.424,7.593-10.481,11.658-18.396,13.155
		C243.17,197.076,239.32,197.289,235.577,197.289L235.577,197.289z M227.556,112.907v65.024c7.807,0.428,11.657-0.855,13.582-3.85
		c1.925-3.102,1.925-8.128,1.711-14.973v-33.583l0,0l0,0l0,0c-0.106-5.882-1.069-8.983-3.422-10.588
		C237.074,113.333,233.223,113.013,227.556,112.907z"/>
	<path d="M490.756,130.339h-25.133v-7.059c0-4.171-0.748-7.379-2.032-9.519c-2.46-4.278-9.518-4.706-12.513-0.749
		c-1.391,1.818-1.818,4.385-1.818,7.701l-0.106,50.907c0,2.781,0.534,5.026,1.817,6.524c1.391,1.391,3.423,2.247,6.417,2.247
		c3.957,0,6.097-2.032,7.272-4.813c1.177-2.78,1.391-6.523,1.391-9.625v-9.733h25.133v13.048c0,9.412-2.887,17.326-9.197,22.673
		c-5.775,4.92-14.331,7.808-26.31,7.808c-11.337,0-19.251-2.995-24.277-8.663s-7.166-14.01-7.166-24.598v-42.245
		c0-11.229,2.567-19.571,8.021-25.026c5.454-5.561,13.689-8.128,24.919-8.128c10.802,0,19.357,2.353,25.133,7.487
		c5.455,4.919,8.449,12.405,8.449,22.672V130.339z"/>
	<path fill="#DEDC24" d="M489.9,129.483v-8.235c0-10.052-2.887-17.218-8.127-22.031c-5.668-5.026-14.011-7.379-24.599-7.379
		c-11.016,0-19.036,2.567-24.384,7.915c-5.241,5.347-7.701,13.475-7.701,24.491v42.245c0,10.481,2.033,18.502,6.952,24.063
		c4.813,5.454,12.513,8.342,23.636,8.342c11.765,0,20.214-2.78,25.774-7.593c6.097-5.24,8.877-12.94,8.877-22.032v-12.192H466.8
		v8.877c0,3.208-0.107,6.952-1.391,9.946c-1.283,3.102-3.636,5.348-8.021,5.348c-3.208,0-5.562-0.962-6.952-2.567
		c-1.496-1.711-2.139-4.064-2.139-7.059l0.107-50.907c0-3.423,0.535-6.203,2.031-8.235c3.315-4.385,11.124-3.851,13.903,0.855
		c1.284,2.247,2.032,5.669,2.032,9.947v6.203H489.9z"/>
	<path d="M351.936,161.996h23.423v7.701c0,6.203,2.353,10.695,9.197,10.695c5.562,0,7.808-5.027,7.808-9.84
		c0-7.594-5.775-11.016-11.551-14.332c-0.642-0.427-1.283-0.855-1.817-1.176l0,0c-3.744-2.139-7.166-4.17-10.268-6.31
		c-6.097-4.278-10.909-9.09-13.477-16.149c-1.176-3.422-1.925-7.272-1.925-11.871c0-9.625,2.888-16.898,8.129-21.925
		c5.348-5.133,13.154-7.7,22.887-7.7c10.374,0,18.288,3.315,23.636,9.091c5.562,5.988,8.128,14.651,7.594,24.705l-0.107,0.32
		h-23.101v-0.427c-0.107-0.321-0.107-0.749-0.107-1.284c-0.106-3.957-0.106-8.663-3.101-11.229
		c-2.567-2.246-7.273-2.673-9.946-0.428c-1.391,1.07-2.247,2.888-2.46,5.027l0,0c-0.429,2.994,0.213,5.24,1.497,7.165
		c1.283,1.925,3.208,3.529,5.561,5.134l0,0c3.102,1.925,5.99,3.637,8.771,5.133c5.454,3.209,10.16,5.882,14.01,9.412
		c2.889,2.673,5.134,5.775,6.738,9.732c1.497,3.957,2.353,8.876,2.353,15.187c0,9.947-2.78,17.754-8.235,23.102
		c-5.347,5.24-13.261,8.021-23.421,8.021c-10.374,0-18.075-2.673-23.315-6.952c-5.989-4.92-8.771-11.978-8.771-19.357V161.996z"/>
	<polygon points="326.375,196.968 326.375,197.289 297.072,197.289 296.965,196.968 274.505,93.976 274.399,93.548 299.532,93.548 
		299.638,93.87 311.724,164.456 323.917,93.87 324.023,93.548 349.156,93.548 349.049,93.976 	"/>
	<path fill="#DEDC24" d="M352.792,162.852v10.588c0,7.165,2.674,13.903,8.449,18.716c5.134,4.17,12.62,6.737,22.78,6.737
		c9.945,0,17.646-2.673,22.887-7.807c5.24-5.134,7.914-12.727,7.914-22.459c0-6.203-0.749-11.016-2.354-14.866
		c-1.496-3.851-3.636-6.845-6.416-9.411c-3.743-3.423-8.557-6.204-13.903-9.305c-2.781-1.604-5.668-3.315-8.771-5.24l0,0
		c-2.459-1.711-4.492-3.315-5.882-5.348c-1.283-2.032-1.925-4.492-1.604-7.701l0,0c0.321-2.353,1.283-4.278,2.78-5.561
		c2.889-2.354,8.557-2.14,11.23,0.427c2.888,2.781,2.994,7.701,3.208,11.872c0,0.321,0,0.642,0,0.855h21.604
		c0.534-9.625-2.032-17.86-7.38-23.635c-5.134-5.562-12.834-8.877-22.994-8.877c-9.518,0-17.112,2.567-22.353,7.593
		c-5.025,4.813-7.807,11.872-7.807,21.283c0,4.491,0.642,8.235,1.818,11.55c2.566,6.952,7.272,11.551,13.154,15.722
		c3.102,2.246,6.524,4.278,10.267,6.417l0,0c0.749,0.428,1.284,0.749,1.818,1.069c5.989,3.529,11.871,6.952,11.871,15.08
		c0,5.241-2.566,10.695-8.556,10.695c-7.38,0-10.053-4.813-10.053-11.55v-6.845H352.792z"/>
	<polygon fill="#DEDC24" points="325.627,196.434 348.194,94.297 324.665,94.297 312.258,166.167 312.258,166.488 311.296,166.488 
		311.19,166.167 298.89,94.297 275.362,94.297 297.713,196.434 	"/>
	<path fill="#DEDC24" d="M235.577,196.434c3.743,0,7.486-0.214,11.123-0.856c7.699-1.391,14.545-5.24,17.86-12.62
		c1.711-3.636,2.459-8.021,2.566-13.155l0,0l0,0l0,0v-45.667c0-4.92-0.321-9.839-1.926-14.225
		c-3.529-10.053-12.191-13.583-21.924-14.865c-4.705-0.642-9.625-0.75-14.01-0.75h-25.989v102.137H235.577L235.577,196.434z
		 M226.807,112.051h0.428c5.988,0.106,10.053,0.428,12.619,2.139c2.674,1.818,3.744,5.134,3.744,11.336v33.583l0,0l0,0l0,0
		c0.214,6.951,0.32,12.085-1.818,15.4c-2.032,3.315-6.31,4.813-14.652,4.278l-0.32-0.107V112.051z"/>
	<path d="M468.618,522.092h-10.908v-3.102c0-9.732,4.813-16.363,15.08-16.363c9.197,0,14.117,5.455,14.117,14.652
		c0,3.208-0.429,5.882-1.498,8.235c-1.283,3.102-3.529,5.668-5.882,8.129c-2.995,3.315-7.594,7.272-8.877,11.336h16.363v10.16
		h-29.304V553c0-4.385,1.177-8.449,3.102-12.085c2.78-5.561,6.737-10.053,10.802-14.652c1.283-1.497,2.566-2.887,3.208-4.919
		c0.535-1.283,0.642-2.781,0.642-4.598c0-2.247-0.855-4.707-3.101-4.707c-3.53,0-3.744,4.707-3.744,7.166V522.092z"/>
	<path fill="#DEDC24" d="M467.87,521.344v-2.139c0-2.995,0.321-8.021,4.492-8.021c2.887,0,3.957,2.887,3.957,5.562
		c0,1.925-0.214,3.529-0.643,4.919c-0.748,2.139-2.139,3.636-3.529,5.24c-4.063,4.599-7.808,8.876-10.587,14.331
		c-1.926,3.637-3.103,7.487-3.103,11.764v1.284h27.7v-8.449h-16.577l0.106-0.427c0.855-4.278,6.204-8.984,9.411-12.406
		c2.247-2.353,4.279-4.813,5.563-7.807c0.962-2.246,1.497-4.813,1.497-7.915c0-8.77-4.599-13.796-13.368-13.796
		c-9.84,0-14.225,6.203-14.225,15.507v2.353H467.87z"/>
	<path d="M424.234,541.664v-24.063c0-9.732,4.6-14.973,14.438-14.973c12.086,0,14.652,7.166,14.438,17.968l0,0l0,0l0,0v18.609
		c0,10.588-3.103,17.111-14.545,17.111C428.94,556.315,424.234,551.182,424.234,541.664L424.234,541.664z M441.667,540.808v-23.208
		c0-2.032-0.106-5.562-2.994-5.562c-3.209,0-3.209,3.208-3.209,5.562v23.208c0,2.033-0.106,5.027,1.818,5.882
		c0.856,0.321,1.925,0.321,2.781-0.214C441.667,545.514,441.667,542.626,441.667,540.808z"/>
	<path fill="#DEDC24" d="M424.983,541.664c0,9.091,4.492,13.903,13.583,13.903c11.016,0,13.689-6.31,13.689-16.363v-18.609
		c0.214-10.267-2.033-17.112-13.583-17.112c-9.412,0-13.689,4.813-13.689,14.117V541.664L424.983,541.664z M442.523,540.808
		c0,2.247-0.107,5.348-2.14,6.524c-0.963,0.535-2.353,0.535-3.422,0.106c-2.246-0.962-2.246-4.17-2.246-6.631v-23.208
		c0-2.781,0.107-6.31,3.957-6.31c3.637,0,3.851,3.743,3.851,6.31V540.808z"/>
	<path d="M390.332,542.626v-0.428h10.909v0.321c0.106,2.246,0.427,4.384,3.102,4.384c2.78,0,3.101-3.422,3.101-6.203
		c0-0.749,0-1.498,0-2.247v-2.566c-2.245,1.604-4.063,2.032-6.845,2.032c-9.197,0-10.908-8.556-10.908-15.829
		c0-10.802,2.46-19.465,14.973-19.465c11.336,0,14.225,8.876,14.225,18.609v13.583c0,9.84-0.963,21.496-13.689,21.496
		C395.679,556.315,390.652,552.573,390.332,542.626L390.332,542.626z M404.235,512.039c-3.208,0-3.208,5.347-3.208,8.235
		c0,0.321,0,0.749,0,1.176c0,2.995,0,7.059,3.422,7.059c3.101,0,3.101-3.851,2.994-6.631c0-0.642,0-1.39,0.106-2.032
		C407.549,517.28,407.872,512.039,404.235,512.039z"/>
	<path fill="#DEDC24" d="M391.187,542.947c0.428,9.412,5.133,12.62,14.011,12.62c12.085,0,12.833-11.444,12.833-20.748v-13.583
		c0-9.198-2.566-17.753-13.368-17.753c-11.979,0-14.225,8.235-14.225,18.609c0,6.845,1.498,15.08,10.16,15.08
		c2.995,0,4.706-0.642,6.951-2.46l0.75-0.535v4.277c0,0.749,0,1.498,0,2.247c0,3.208-0.428,7.058-3.957,7.058
		c-2.995,0-3.744-2.246-3.851-4.813H391.187L391.187,542.947z M404.235,511.291c4.491,0,4.171,5.455,4.064,8.556
		c0,0.749,0,1.39,0,2.032c0,3.102,0.106,7.486-3.851,7.486c-4.277,0-4.277-4.599-4.171-7.914c0-0.427,0-0.855,0-1.176
		C400.171,517.066,400.171,511.291,404.235,511.291z"/>
	<path d="M373.113,555.139v-34.865h-9.732v-8.771h0.428c2.781,0,5.989-0.427,8.449-1.925l0,0c1.925-1.176,3.315-2.995,3.743-5.454
		l0.106-0.428h7.915v51.442H373.113z"/>
	<path fill="#DEDC24" d="M373.968,554.284h9.197v-49.731h-6.416c-0.535,2.674-2.14,4.492-4.064,5.668l0,0
		c-2.46,1.498-5.668,2.139-8.449,2.139v7.059h9.732V554.284z"/>
	<path d="M424.875,277.073c7.273,0,12.3,6.202,15.294,12.298c4.278,1.925,7.594,6.738,9.946,13.369
		c0.106,0.214,0.106,0.428,0.214,0.642c0-1.391-0.107-2.781-0.107-4.171c-0.32-6.31-1.068-15.615,8.022-15.615h121.707
		c3.637-0.106,8.984,0,8.984,4.921c0,4.812-5.883,8.555-10.268,8.555h-13.903c-2.994,5.026-8.663,10.801-14.866,10.801h-7.486
		c-2.888,5.24-8.877,11.551-15.293,11.551h-8.771c-2.888,5.241-8.876,11.444-15.293,11.444h-9.198
		c-2.781,5.133-8.021,11.336-14.438,11.336h-26.417c-0.642,4.493-1.604,8.663-2.888,12.3c-2.353,6.631-5.668,11.444-9.946,13.369
		c-2.994,6.096-8.021,12.298-15.294,12.298c-7.272,0-13.582-6.096-18.074-15.828c-2.78-6.096-4.813-13.69-5.988-22.139h-29.84
		c-6.417,0-11.657-6.203-14.438-11.336h-9.197c-6.418,0-12.406-6.203-15.294-11.444h-8.771c-6.416,0-12.405-6.311-15.293-11.551
		h-7.486c-6.203,0-11.872-5.775-14.865-10.801h-13.904c-4.385,0-10.268-3.743-10.268-8.555c0-4.921,5.348-5.028,8.984-4.921H392.15
		c9.091,0,8.342,9.306,8.021,15.615c-0.107,4.385-0.321,9.626,1.176,12.727c1.177-7.165,2.995-13.689,5.454-19.036
		C411.293,283.169,417.603,277.073,424.875,277.073z"/>
	<path fill="#A38045" d="M461.131,330.868h-10.48c-0.429,2.567-1.069,5.347-2.46,7.7h5.24
		C457.709,338.568,459.956,334.718,461.131,330.868L461.131,330.868z M475.249,330.868h-10.373c-0.749,2.673-2.033,5.561-3.744,7.7
		h6.417C471.827,338.568,474.073,334.611,475.249,330.868L475.249,330.868z M489.687,330.868c-3.529,0-7.272,0-10.695,0
		c-0.748,2.673-2.032,5.561-3.743,7.7h4.172C483.805,338.568,487.548,334.184,489.687,330.868L489.687,330.868z M469.902,319.424
		h-7.701c-1.925,2.995-4.278,5.562-6.951,7.808h7.272C466.8,327.232,468.832,323.061,469.902,319.424L469.902,319.424z
		 M486.05,319.424h-12.406c-0.642,2.674-1.925,5.668-3.636,7.808h8.128C482.842,327.232,484.874,323.595,486.05,319.424
		L486.05,319.424z M514.072,319.424h-24.063c0,0-0.108,0-0.215,0c-0.642,2.674-1.925,5.668-3.636,7.808h16.898
		C507.44,327.232,511.825,322.847,514.072,319.424L514.072,319.424z M477.602,307.874h-10.374c-0.856,2.888-1.818,5.562-2.995,7.915
		h6.31C474.821,315.789,476.746,311.51,477.602,307.874L477.602,307.874z M496.104,307.874h-14.759
		c-0.534,2.567-1.711,5.776-3.423,7.915h11.443C493.323,315.789,495.355,311.083,496.104,307.874L496.104,307.874z M538.135,307.874
		h-38.288h-0.107c-0.535,2.888-1.604,5.562-3.315,7.915h30.695C531.504,315.789,535.889,311.296,538.135,307.874L538.135,307.874z
		 M507.44,304.238h42.459c4.171,0,8.234-3.957,10.588-7.166h-49.303C510.542,299.639,509.258,302.313,507.44,304.238L507.44,304.238
		z M486.264,304.238h12.3c4.919,0,7.379-2.674,8.876-7.166H489.9C489.259,299.639,488.083,302.313,486.264,304.238L486.264,304.238z
		 M468.083,304.238h9.519c4.705,0,7.271-2.888,8.556-7.166h-15.294c-1.604,0-1.604,0.214-1.817,1.818
		C468.832,300.815,468.511,302.526,468.083,304.238L468.083,304.238z M447.977,317.606c6.523-2.46,6.097-11.444,5.883-18.502
		c-0.215-3.851-1.177-11.872,4.385-11.872h121.814c1.069,0,5.24-0.428,5.24,1.284c0,2.78-4.278,4.918-6.631,4.918H470.864
		c-3.529,0-4.92,1.604-5.347,4.92c-1.178,7.914-3.103,13.796-5.99,18.502c-3.101,5.027-7.271,8.556-12.191,11.765
		c-0.429,2.46-1.925,12.299-6.311,10.053c-4.92-2.566-3.423-15.828-0.428-19.25C442.416,317.179,445.411,317.285,447.977,317.606z"
		/>
	<path fill="#A38045" d="M424.875,281.993c-5.133,0-9.946,5.026-13.582,12.94c-3.957,8.663-6.311,20.534-6.311,33.689
		s2.354,25.026,6.311,33.688c3.636,7.915,8.449,12.941,13.582,12.941c5.883,0,9.519-6.631,11.658-11.336
		c5.026-1.711,7.272-6.31,8.983-11.016c1.069-3.208,1.925-6.738,2.46-10.695h-3.957c-1.497,0.536-3.102,0.428-4.6-0.32
		c-7.271-3.744-6.096-19.571-1.604-24.813c2.461-2.781,5.775-3.529,9.306-2.995c0.214-0.213,0.428-0.321,0.642-0.427
		c-0.534-3.423-1.391-6.524-2.246-9.305c-1.711-4.706-3.957-9.305-8.983-11.016C434.394,288.623,430.758,281.993,424.875,281.993z"
		/>
	<path fill="#A38045" d="M375.145,330.868h10.373c0.749,2.673,2.033,5.561,3.744,7.7h-6.417
		C378.567,338.568,376.321,334.611,375.145,330.868L375.145,330.868z M360.707,330.868c3.529,0,7.273,0,10.695,0
		c0.748,2.673,2.032,5.561,3.743,7.7h-4.172C366.589,338.568,362.845,334.184,360.707,330.868L360.707,330.868z M380.492,319.424
		h7.701c1.925,2.995,4.277,5.562,6.951,7.808h-7.272C383.593,327.232,381.562,323.061,380.492,319.424L380.492,319.424z
		 M364.342,319.424h12.407c0.642,2.674,1.924,5.668,3.636,7.808h-8.128C367.551,327.232,365.52,323.595,364.342,319.424
		L364.342,319.424z M336.323,319.424h24.063c0,0,0.108,0,0.215,0c0.642,2.674,1.925,5.668,3.636,7.808h-16.897
		C342.954,327.232,338.568,322.847,336.323,319.424L336.323,319.424z M372.792,307.874h10.374c0.856,2.888,1.818,5.562,2.995,7.915
		h-6.31C375.573,315.789,373.648,311.51,372.792,307.874L372.792,307.874z M354.29,307.874h14.759
		c0.534,2.567,1.711,5.776,3.423,7.915h-11.443C357.07,315.789,355.038,311.083,354.29,307.874L354.29,307.874z M312.258,307.874
		h38.288h0.107c0.534,2.888,1.604,5.562,3.315,7.915h-30.695C318.889,315.789,314.505,311.296,312.258,307.874L312.258,307.874z
		 M342.954,304.238h-42.459c-4.172,0-8.234-3.957-10.588-7.166h49.303C339.852,299.639,341.135,302.313,342.954,304.238
		L342.954,304.238z M364.129,304.238h-12.3c-4.919,0-7.38-2.674-8.876-7.166h17.54C361.135,299.639,362.311,302.313,364.129,304.238
		L364.129,304.238z M382.311,304.238h-9.52c-4.705,0-7.271-2.888-8.556-7.166h15.294c1.604,0,1.604,0.214,1.818,1.818
		C381.562,300.815,381.882,302.526,382.311,304.238L382.311,304.238z M400.064,326.482c0-3.314,0.214-6.63,0.642-9.839
		c-4.706-3.315-4.386-11.122-4.172-17.539c0.215-3.851,1.177-11.872-4.384-11.872H270.334c-1.069,0-5.24-0.428-5.24,1.284
		c0,2.78,4.278,4.918,6.631,4.918H379.53c3.529,0,4.92,1.604,5.348,4.92c1.177,7.914,3.102,13.796,5.989,18.502
		C393.327,320.815,396.427,323.809,400.064,326.482L400.064,326.482z M400.492,338.568c-0.214-2.033-0.32-3.957-0.428-5.989
		c-0.106-0.642-0.214-1.177-0.321-1.711h-10.48c1.176,3.85,3.422,7.7,7.7,7.7H400.492z"/>
	<path d="M432.576,353.542c1.818,0.428,3.851-1.604,4.6-4.6c0.641-2.887-0.214-5.667-2.032-6.202
		c-1.818-0.428-3.85,1.604-4.492,4.598C429.903,350.333,430.758,353.113,432.576,353.542z"/>
	<path d="M438.672,359.424c1.391,0.32,3.102-1.818,3.957-4.813c0.749-2.888,0.321-5.561-1.069-5.882s-3.102,1.818-3.851,4.813
		C436.854,356.429,437.389,359.102,438.672,359.424z"/>
	<path d="M432.576,303.703c1.818-0.428,3.851,1.604,4.6,4.599c0.641,2.887-0.214,5.668-2.032,6.203
		c-1.818,0.428-3.85-1.604-4.492-4.598C429.903,306.911,430.758,304.131,432.576,303.703z"/>
	<path d="M432.897,361.028c-5.133-2.032-8.983-15.829-8.983-32.406s3.851-30.374,8.983-32.406
		c-2.674,3.209-4.813,11.124-5.774,21.177c0.534-0.749,1.176-1.177,2.031-1.391c1.926-0.427,3.851,1.498,4.278,4.278
		c0.32,2.781-1.07,5.455-2.995,5.776c-1.497,0.32-2.888-0.536-3.743-2.14c0,1.498-0.106,3.102-0.106,4.706s0.106,3.208,0.106,4.706
		c0.855-1.604,2.246-2.46,3.743-2.14c1.925,0.428,3.315,2.995,2.995,5.775c-0.428,2.781-2.353,4.706-4.278,4.278
		c-0.855-0.214-1.497-0.641-2.031-1.391C428.084,349.904,430.223,357.819,432.897,361.028z"/>
	<path d="M438.672,297.82c1.391-0.32,3.102,1.819,3.957,4.813c0.749,2.888,0.321,5.561-1.069,5.882
		c-1.391,0.321-3.102-1.818-3.851-4.813C436.854,300.815,437.389,298.142,438.672,297.82z"/>
	<path d="M427.015,367.23c-7.38-2.567-13.155-18.93-13.155-38.608s5.775-36.042,13.155-38.608
		c-5.241,5.24-9.197,20.533-9.197,38.608C417.818,346.697,421.774,361.99,427.015,367.23z"/>
</g>
</svg>
