<?xml version="1.0" encoding="utf-8"?>
<!-- Generator: Adobe Illustrator 14.0.0, SVG Export Plug-In . SVG Version: 6.00 Build 43363)  -->
<!DOCTYPE svg PUBLIC "-//W3C//DTD SVG 1.1//EN" "http://www.w3.org/Graphics/SVG/1.1/DTD/svg11.dtd">
<svg version="1.1" id="Logo" xmlns="http://www.w3.org/2000/svg" xmlns:xlink="http://www.w3.org/1999/xlink" x="0px" y="0px"
	 width="301.256px" height="301.256px" viewBox="0 0 301.256 301.256" enable-background="new 0 0 301.256 301.256"
	 xml:space="preserve">
<path fill-rule="evenodd" clip-rule="evenodd" fill="#FFFFFF" d="M158.817,14.218c-1.19-0.135-2.454-0.277-3.792-0.429
	c-1.424-0.161-2.94-0.333-4.554-0.516c0.334,0.186,0.646,0.356,0.936,0.517c0.27,0.148,0.523,0.289,0.759,0.419
	c1.276,0.125,2.484,0.243,3.634,0.355c1.09,0.108,2.132,0.21,3.124,0.306c-0.015-0.093-0.03-0.193-0.047-0.297
	C158.857,14.463,158.837,14.345,158.817,14.218L158.817,14.218z"/>
<path fill-rule="evenodd" clip-rule="evenodd" fill="#FFFFFF" d="M140.111,14.223c1.192-0.136,2.455-0.278,3.794-0.43
	c1.424-0.161,2.94-0.333,4.555-0.516c-0.335,0.185-0.646,0.357-0.936,0.517c-0.271,0.149-0.523,0.289-0.76,0.42
	c-1.276,0.124-2.486,0.243-3.633,0.355c-1.092,0.107-2.133,0.209-3.124,0.306c0.015-0.094,0.031-0.193,0.048-0.298
	C140.072,14.467,140.091,14.348,140.111,14.223L140.111,14.223z"/>
<path fill-rule="evenodd" clip-rule="evenodd" fill="#F0D036" d="M149.465,66.435c12.557,0,24.528,2.589,35.41,7.259
	c0.562,0.641,0.485,2.33-0.24,4.081c-0.729,1.762-1.88,3.015-2.732,3.057c-9.966-4.286-20.932-6.664-32.438-6.664
	c-11.505,0-22.472,2.378-32.438,6.664c-0.851-0.042-2.001-1.294-2.732-3.057c-0.725-1.75-0.801-3.44-0.24-4.081
	C124.936,69.024,136.907,66.435,149.465,66.435L149.465,66.435z"/>
<path fill-rule="evenodd" clip-rule="evenodd" fill="#E32119" d="M116.567,31.728c2.764-0.393,5.49,0.077,7.99,1.232
	c-0.655,2.186-1.006,4.493-1.006,6.876c0,2.279,0.323,4.487,0.922,6.587l3.371,17.901c-5.351,1.256-10.529,2.968-15.492,5.09
	c-4.749-3.017-8.377-8.611-9.339-15.367C101.446,43.039,107.535,33.014,116.567,31.728L116.567,31.728z"/>
<path fill-rule="evenodd" clip-rule="evenodd" fill="#E32119" d="M149.465,14.905c14.272,0,25.913,11.2,25.913,24.931
	c0,2.279-0.323,4.487-0.921,6.587l-3.372,17.901c-6.949-1.632-14.187-2.495-21.62-2.495s-14.672,0.863-21.621,2.495l-3.371-17.901
	c-0.6-2.1-0.922-4.308-0.922-6.587C123.551,26.105,135.192,14.905,149.465,14.905L149.465,14.905z"/>
<path fill-rule="evenodd" clip-rule="evenodd" fill="#E32119" d="M182.362,31.728c-2.763-0.393-5.489,0.077-7.989,1.232
	c0.655,2.186,1.005,4.493,1.005,6.876c0,2.279-0.323,4.487-0.921,6.587l-3.372,17.901c5.352,1.256,10.528,2.968,15.493,5.09
	c4.748-3.017,8.377-8.611,9.338-15.367C197.482,43.039,191.394,33.014,182.362,31.728L182.362,31.728z"/>
<path fill-rule="evenodd" clip-rule="evenodd" fill="#F0D036" d="M115.071,68.302v-0.269c2.091-0.676,4.097-1.936,5.834-3.601
	c2.018-1.934,3.92-4.625,4.974-7.777c0.074-0.033,0.148-0.069,0.221-0.107c0.449,0.623,0.965,1.211,1.545,1.749
	c1.653,1.539,3.726,2.56,5.971,3c2.793,0.549,6.182,0.314,9.255-1.354c2.575-1.396,4.427-3.531,5.458-6.073
	c0.358,0.116,0.74,0.178,1.136,0.178c0.396,0,0.778-0.062,1.136-0.178c1.033,2.542,2.883,4.678,5.458,6.073
	c3.074,1.668,6.462,1.902,9.256,1.354c2.246-0.44,4.317-1.461,5.971-3c0.58-0.538,1.096-1.126,1.545-1.75
	c0.248,0.133,0.514,0.237,0.791,0.311c-0.196-0.052-0.389-0.12-0.571-0.202c1.054,3.152,2.956,5.844,4.974,7.777
	c1.712,1.641,3.686,2.889,5.745,3.571v0.263c-10.648-4.153-22.218-6.438-34.304-6.438C137.344,61.829,125.744,64.126,115.071,68.302
	L115.071,68.302z"/>
<path fill-rule="evenodd" clip-rule="evenodd" fill="#F0D036" stroke="#000000" stroke-miterlimit="2.6131" d="M157.119,55.324
	c-0.59-0.67-1.26-1.238-1.981-1.689c-0.872-0.547-1.79-0.895-2.703-1.063c0.28-0.371,0.496-0.801,0.624-1.277
	c0.266-0.993,0.101-2.004-0.379-2.83c0.513-0.148,1.013-0.363,1.493-0.644c1.112-0.65,2.002-1.645,2.593-2.87
	c1.637,1.874,2.307,4.791,1.525,7.711C158.029,53.639,157.627,54.534,157.119,55.324L157.119,55.324z"/>
<path fill-rule="evenodd" clip-rule="evenodd" fill="#F0D036" stroke="#000000" stroke-miterlimit="2.6131" d="M141.81,45.341
	c0.59,0.669,1.26,1.237,1.98,1.689c0.873,0.546,1.792,0.894,2.705,1.062c-0.281,0.371-0.497,0.801-0.625,1.277
	c-0.265,0.993-0.1,2.004,0.38,2.83c-0.513,0.148-1.012,0.363-1.494,0.645c-1.112,0.649-2.001,1.644-2.594,2.869
	c-1.638-1.874-2.307-4.792-1.524-7.711C140.899,47.025,141.302,46.13,141.81,45.341L141.81,45.341z"/>
<path fill-rule="evenodd" clip-rule="evenodd" fill="#FFFFFF" stroke="#000000" d="M149.465,46.611c2.048,0,3.719,1.671,3.719,3.719
	s-1.671,3.718-3.719,3.718c-2.048,0-3.719-1.67-3.719-3.718S147.417,46.611,149.465,46.611L149.465,46.611z"/>
<path fill-rule="evenodd" clip-rule="evenodd" fill="#F0D036" stroke="#000000" stroke-miterlimit="2.6131" d="M246.285,290.541
	L60.458,38.459c-0.791,1.6-2.032,3.181-3.605,4.484c-1.202,0.998-2.468,1.728-3.686,2.181l184.779,250.659
	c0.933,0.856,2.226,1.389,3.648,1.389c2.837,0,5.149-2.111,5.149-4.696C246.744,291.787,246.581,291.132,246.285,290.541
	L246.285,290.541z"/>
<path fill-rule="evenodd" clip-rule="evenodd" d="M149.465,79.454c42.867,0,77.83,34.934,77.83,77.766
	c0,11.214-2.401,21.887-6.708,31.53c-9.624-9.644-16.041-21.032-18.533-32.362c-2.785,0.003-5.587,0.101-8.395,0.303
	c-19.411,1.386-36.256,7.056-49.608,15.448v0.028c-4.584,2.83-8.866,5.768-12.816,8.784v-0.019
	c-7.217,5.085-15.391,9.901-24.346,14.319v-0.009c-3.207,1.429-6.965,2.355-11.011,2.585c-5.294,0.3-10.235-0.639-14.185-2.45
	c-6.397-11.288-10.058-24.307-10.058-38.158C71.635,114.388,106.598,79.454,149.465,79.454L149.465,79.454z"/>
<path fill-rule="evenodd" clip-rule="evenodd" fill="#E49A23" d="M133.104,117.485c0.332,2.853,0.792,5.761,1.388,8.703
	c2.927,14.452,8.543,26.886,15.109,34.99c0.467,0.64,0.868,1.414,1.148,2.28c0.616,1.891,0.517,3.748-0.141,4.929
	c-2.296,1.193-4.507,2.46-6.63,3.797v0.028c-4.557,2.814-8.813,5.736-12.744,8.738v-0.019c-3.333,2.35-6.87,4.639-10.593,6.86
	c-0.788,0.349-1.787,0.557-2.873,0.557c-1.553,0-2.929-0.426-3.761-1.077c-0.314-0.352-0.625-0.707-0.931-1.071
	c-9.672-11.395-16.091-27.394-16.969-45.275c-0.154-3.139-0.131-6.236,0.055-9.277c6.011-10.502,15.636-19.01,27.343-24.111
	c3.243-1.053,7.262,2.193,8.962,7.252C132.773,115.696,132.984,116.604,133.104,117.485L133.104,117.485z M116.736,190.057
	c-0.018,0.013-0.035,0.021-0.053,0.03c-0.01-0.009-0.02-0.018-0.03-0.03H116.736L116.736,190.057z"/>
<path fill-rule="evenodd" clip-rule="evenodd" fill="#E49A23" d="M218.421,186.492c-0.216-0.232-0.429-0.468-0.642-0.704
	c-0.051-0.055-0.1-0.109-0.148-0.165c-0.036-0.04-0.071-0.082-0.106-0.122c-0.008-0.006-0.015-0.016-0.021-0.021
	c-0.011-0.013-0.019-0.021-0.029-0.034c-0.034-0.039-0.069-0.076-0.103-0.116c-0.041-0.046-0.081-0.092-0.121-0.138
	c-0.149-0.168-0.298-0.336-0.445-0.508c-0.03-0.036-0.061-0.07-0.092-0.104c-0.138-0.162-0.275-0.324-0.413-0.483
	c-5.028-5.933-8.922-12.368-11.538-18.94c10.565-7.242,17.252-16.87,17.878-27.475l0.189,0.662l0.848,3.654l0.669,3.721l0.483,3.78
	l0.292,3.835c0.051,1.979,0.113,3.947,0.072,5.927c-0.078,2.359-0.25,4.688-0.516,7.034c-0.377,2.959-0.901,5.854-1.588,8.757
	c-0.239,0.948-0.488,1.895-0.751,2.84c-0.683,2.331-1.451,4.617-2.333,6.881v0.003l-0.077,0.193
	c-0.009,0.024-0.019,0.046-0.027,0.07c0-0.003,0-0.003,0-0.003l-0.854,2.129C218.838,186.942,218.629,186.719,218.421,186.492
	L218.421,186.492L218.421,186.492z"/>
<path fill-rule="evenodd" clip-rule="evenodd" fill="#E49A23" d="M108.534,194.429c-0.545,0.275-1.095,0.551-1.646,0.823v-0.009
	c-3.207,1.429-6.965,2.355-11.011,2.585c-1.014,0.059-2.016,0.07-3,0.037c-0.626-0.067-1.269-0.165-1.92-0.297
	c-3.845-0.786-6.949-2.515-8.11-4.32h0.038c-2.088-3.824-3.792-7.796-5.221-11.918c-0.63-1.912-1.193-3.827-1.7-5.776
	c-0.674-2.784-1.202-5.554-1.601-8.387c-0.308-2.479-0.51-4.936-0.613-7.429l0.058-6.404l0.09-1.185
	c2.644-10.006,9.164-17.561,17.099-19.343c1.327,0.295,2.464,3.733,3.005,8.591c0.005,0.111,0.011,0.223,0.016,0.335
	c0.833,16.965,6.656,32.236,15.509,43.487c0.546,1.003,0.888,2.432,0.888,4.014C110.416,191.639,109.627,193.688,108.534,194.429
	L108.534,194.429z"/>
<path fill-rule="evenodd" clip-rule="evenodd" fill="#005A9F" d="M259.262,239.227c-2.867-0.214-5.8-0.327-8.784-0.327
	c-21.444,0-40.257,5.792-50.487,14.399h-0.032c-0.105,0.098-0.213,0.195-0.318,0.293c-0.454,0.396-0.892,0.796-1.311,1.2
	c-13.905,12.389-35.388,21.932-60.828,26.638c-1.201,0.113-2.422,0.174-3.66,0.181c-11.453,0.067-22.512-4.428-31.084-11.988
	c-4.197-3.702-7.783-8.127-10.499-13.056h-0.032l-40.879-75.01c-1.13-2.15-2.256-4.455-3.345-6.869
	c-0.819-1.817-1.579-3.607-2.272-5.352c-2.285-6.605-3.735-16.391-3.735-27.282c0-8.064,0.795-15.522,2.135-21.532
	c2.313-9.025,3.658-19.767,3.658-31.276c0-6.229-0.394-12.23-1.122-17.859c-0.158-1.821-0.243-3.725-0.243-5.681
	c0-8.406,1.553-15.813,3.885-20.026c0.349,0.003,0.708-0.025,1.077-0.082c1.002-0.152,2.084-0.521,3.17-1.101
	c0.799,3.021,1.465,6.409,1.933,10.006c0.072,0.558,0.139,1.111,0.199,1.66c0.692,9.128,5.666,23.934,13.78,39.529
	c4.094,7.869,8.483,14.969,12.737,20.817c-7.331,11.854-11.568,25.803-11.568,40.711c0,13.852,3.661,26.87,10.058,38.158
	c3.949,1.812,8.891,2.75,14.185,2.45c4.045-0.229,7.804-1.156,11.011-2.585v0.009c8.956-4.418,17.129-9.234,24.346-14.319v0.019
	c3.93-3.002,8.187-5.924,12.744-8.738v-0.028c13.364-8.417,30.235-14.108,49.681-15.494c2.808-0.202,5.609-0.3,8.395-0.303
	c2.595,11.798,9.445,23.664,19.743,33.553c12.624,12.967,24.501,28.132,34.967,45.146
	C257.612,236.464,258.444,237.844,259.262,239.227L259.262,239.227z"/>
<path fill-rule="evenodd" clip-rule="evenodd" fill="#FFFFFF" d="M77.086,200.249c5.268-2.883,15.111,2.857,24.977,13.218
	c8.429,8.852,15.89,20.026,20.663,30.668c3.861,8.671,5.353,15.666,5.089,20.368c-0.235,4.18-1.867,6.906-4.846,7.616
	c-2.935,0.697-6.936-0.6-11.359-3.418c-4.827-3.075-10.651-8.286-16.595-15.498c-7.222-8.683-13.551-18.97-17.479-28.647
	C72.811,212.916,71.818,203.134,77.086,200.249L77.086,200.249z"/>
<path fill-rule="evenodd" clip-rule="evenodd" fill="#005A9F" d="M101.938,259.972c-1.215-1.928-2.468-3.935-3.767-6.006
	c-1.339-2.139-2.728-4.357-4.165-6.655c0.188,0,0.376,0.006,0.566,0.006c2.924,4.158,5.262,7.017,7.139,8.883
	c1.861,1.851,3.347,2.79,4.479,2.977c2.299,0.38,1.532-2.533-0.092-5.422c-0.992-1.762-2.052-3.228-3.236-4.348
	c-0.818-0.749-2.163-1.869-3.795-2.979c-0.948-0.683-1.883-1.355-2.819-2.026c-1.354-0.997-2.568-1.958-3.674-2.916
	c-1.101-0.957-2.111-1.924-3.056-2.958c-1.78-1.882-3.663-4.461-5.628-7.619c-2.267-3.622-4.357-7.661-5.603-11.144
	c-1.339-3.739-1.715-6.881-0.24-8.047c0.776-0.615,2.134-0.446,3.338-0.146c1.23,0.303,2.289,0.759,2.402,0.679
	c0.54-0.376-0.008-1.769-1.109-4.198c0.259-0.204,0.521-0.413,0.786-0.621c2.152,3.99,4.213,7.809,6.178,11.443
	c1.877,3.474,3.681,6.812,5.405,9.993c-0.259,0.08-0.514,0.159-0.768,0.236c-2.755-4.214-5.745-8.124-8.358-10.844
	c-2.646-2.751-4.803-4.165-5.873-3.424c-1.394,0.967-0.009,5.241,2.565,9.503c1.595,2.638,2.911,4.434,3.995,5.453
	c1.081,1.016,3.112,2.563,5.869,4.482c1.209,0.832,2.433,1.677,3.663,2.53c1.514,0.961,3.005,2.193,4.362,3.672
	c2.664,2.717,4.888,5.841,6.806,9.427c1.673,3.136,2.806,6.229,2.863,8.353c0.053,1.974-0.823,3.097-3.072,2.681
	c-0.949-0.178-2.207-0.793-3.612-1.683c-0.197-0.119-0.39-0.242-0.585-0.358c-0.292-0.181-0.581-0.357-0.713-0.376
	c-0.461-0.077-0.237,0.471,0.329,1.563C102.322,260.045,102.129,260.009,101.938,259.972L101.938,259.972z"/>
<path fill-rule="evenodd" clip-rule="evenodd" fill="#005A9F" d="M97.864,210.688c0.08-0.043,0.158-0.085,0.238-0.128
	c1.269,2.077,2.565,4.183,3.878,6.324c1.34,2.185,2.704,4.406,4.093,6.673c-0.116,0.083-0.232,0.165-0.348,0.248
	c-2.254-3.273-4.422-5.703-6.245-7.175c-1.819-1.472-3.333-2.028-4.255-1.503c-1.434,0.802-0.826,3.893,0.787,6.747
	c0.544,0.967,1.048,1.698,1.624,2.396c0.757,0.857,1.642,1.606,2.665,2.292c0.775,0.566,2.225,1.206,4.381,2.16
	c1.548,0.683,2.943,1.42,4.17,2.185c1.229,0.771,2.305,1.601,3.223,2.481c1.789,1.833,3.684,4.241,5.588,7.387
	c2.414,3.978,4.241,8.196,5.192,11.85c0.988,3.791,1.044,6.998-0.186,8.647c-0.803,1.077-1.742,1.426-4.005,0.756
	c-0.664-0.056-1.056,0-1.244,0.238c-0.376,0.475-0.226,2.102,0.873,4.871c-0.127,0.168-0.254,0.34-0.381,0.508
	c-2.074-3.751-4.1-7.438-6.069-11.015c-1.92-3.488-3.798-6.9-5.628-10.217c0.133-0.132,0.268-0.257,0.402-0.389
	c3.46,5.321,6.591,9.072,9.102,11.189c2.521,2.13,4.354,2.558,5.284,1.368c1.355-1.738-0.018-6.661-2.347-10.587
	c-1.471-2.481-2.998-4.131-4.805-5.471c-0.996-0.756-2.231-1.279-3.971-2.014c-2.504-1.062-4.37-2.05-5.944-3.179
	c-1.577-1.132-2.859-2.381-4.211-3.944c-1.215-1.493-2.582-3.448-3.724-5.522c-1.95-3.54-3.185-7.004-3.575-9.718
	c-0.377-2.629,0.03-4.571,1.338-5.269c0.449-0.239,0.998-0.3,1.58-0.156c0.995,0.149,3.066,1.307,3.43,1.095
	C99.134,213.617,99.109,213.17,97.864,210.688L97.864,210.688z"/>
<path fill-rule="evenodd" clip-rule="evenodd" fill="#F0D036" stroke="#000000" stroke-miterlimit="2.6131" d="M60.703,32.28
	c0.955,1.355,0.918,3.272,0.158,5.258c-0.729,1.905-2.133,3.852-4.008,5.405c-1.805,1.499-3.754,2.393-5.468,2.653
	c-1.694,0.259-3.21-0.092-4.17-1.128c-0.978-1.057-1.223-2.663-0.805-4.441c0.435-1.852,1.593-3.908,3.406-5.706
	c1.89-1.869,4.102-3.076,6.114-3.467C57.969,30.459,59.748,30.924,60.703,32.28L60.703,32.28z"/>
<path fill-rule="evenodd" clip-rule="evenodd" fill="#FFFFFF" d="M208.285,172.562c1.598,2.873,3.439,5.688,5.514,8.417
	c-2.06-0.144-4.139-0.232-6.237-0.245c-8.964-0.073-17.466,0.998-25.324,3.023c-7.945,2.047-15.299,5.066-21.929,8.903
	c0,0.013,0,0.019,0,0.028c-4.543,2.579-8.84,5.32-12.876,8.172c0,0,0-0.006,0.014-0.015c-7.412,4.847-15.85,9.394-25.114,13.499
	c0,0,0,0,0.001-0.006c-2.581,1.022-5.472,1.695-8.544,1.928c-2.959-3.24-6.079-6.049-9.239-8.359
	c0.272,0.013,0.547,0.016,0.817,0.016c4.087,0.04,7.934-0.694,11.264-2.017c0,0.006,0,0.006,0,0.006
	c9.265-4.103,17.702-8.649,25.114-13.496c-0.014,0.006-0.014,0.012-0.014,0.012c4.036-2.852,8.333-5.59,12.876-8.172
	c0-0.007,0-0.013,0-0.028c6.63-3.833,13.984-6.856,21.929-8.903c7.857-2.022,16.36-3.094,25.325-3.02
	C204.023,172.316,206.166,172.408,208.285,172.562L208.285,172.562z"/>
<path fill-rule="evenodd" clip-rule="evenodd" fill="#FFFFFF" d="M225.123,193.426c2.443,2.612,4.857,5.309,7.234,8.087
	c-2.553-0.239-5.133-0.396-7.726-0.441c-9.334-0.177-18.148,0.848-26.272,2.871c-8.163,2.031-15.663,5.066-22.367,8.913
	c0,0.015,0,0.021,0,0.03c-4.574,2.567-8.865,5.29-12.86,8.117c0,0,0-0.006,0.015-0.012c-7.307,4.755-15.563,9.148-24.559,13.053
	c0,0,0,0,0-0.007c-0.362,0.141-0.73,0.272-1.105,0.398l-9.985,3.732l-0.618-1.896l-0.185-0.496
	c-0.861-1.863-1.813-3.727-2.853-5.575l7.001-2.353c0.654-0.192,1.292-0.41,1.912-0.651c-0.001,0.006-0.001,0.006-0.001,0.006
	c8.616-3.815,16.66-8.179,23.911-12.985c-0.014,0.009-0.014,0.015-0.014,0.015c4.025-2.879,8.338-5.669,12.964-8.315
	c0-0.007,0-0.013,0.001-0.028c6.834-4.008,14.497-7.209,22.859-9.391c8.442-2.199,17.635-3.365,27.431-3.258
	C221.65,193.257,223.39,193.321,225.123,193.426L225.123,193.426z M232.656,201.864c0.098,0.11,0.192,0.224,0.289,0.337h-0.24
	C232.689,202.088,232.673,201.975,232.656,201.864L232.656,201.864z"/>
<path fill-rule="evenodd" clip-rule="evenodd" fill="#FFFFFF" d="M244.664,217.065c1.661,2.271,3.298,4.583,4.907,6.939
	c-2.489-0.181-5.021-0.288-7.582-0.315c-11.145-0.129-21.559,1.218-30.456,3.647c-8.829,2.411-16.22,5.896-21.363,10.088
	c-0.014,0-0.029,0-0.029,0c-0.109,0.098-0.217,0.189-0.312,0.29c-0.479,0.38-0.915,0.769-1.337,1.16
	c-6.985,5.984-15.727,11.189-25.801,15.356c-9.027,3.739-19.108,6.658-29.883,8.598c0.007-0.217,0.015-0.434,0.02-0.654
	c0.072-3.286-0.234-6.774-0.913-10.382c5.792-1.386,11.416-3.1,16.797-5.122c10.34-3.886,19.774-8.919,27.765-14.879
	c0.494-0.398,1.002-0.783,1.538-1.172c0.113-0.099,0.239-0.19,0.367-0.294c0,0,0.014,0,0.027,0
	c5.965-4.238,14.121-7.769,23.647-10.198c9.753-2.49,21.043-3.831,32.935-3.607C238.272,216.588,241.5,216.771,244.664,217.065
	L244.664,217.065z"/>
<path fill-rule="evenodd" clip-rule="evenodd" fill="#FFFFFF" d="M66.165,138.215c-2.204,5.853-3.502,12.996-3.502,20.694
	c0,15.476,5.245,28.715,12.554,33.715v1.383c-12.146-4.563-21.271-22.828-21.271-44.562c0-1.68,0.055-3.339,0.161-4.973
	c0.031-0.287,0.068-0.578,0.109-0.872c0.177-1.259,0.425-2.445,0.722-3.509c4.114-11.627,6.678-27.929,6.678-45.933
	c0-3.075-0.075-6.103-0.22-9.064c4.015,6.855,6.881,16.65,7.601,27.63C69.627,122.319,68.514,131.232,66.165,138.215L66.165,138.215
	z"/>
<path fill-rule="evenodd" clip-rule="evenodd" fill="#E49A23" d="M74.92,143.854l0.333-1.855l0.848-3.654l1.023-3.588l1.194-3.513
	l1.358-3.434l1.521-3.351l1.677-3.263l1.827-3.17l1.975-3.072l2.116-2.97l2.253-2.861l2.385-2.749l2.512-2.632l2.634-2.51
	l2.751-2.384l2.865-2.25l2.971-2.114l3.075-1.974l3.172-1.825l3.265-1.676l3.354-1.519l3.438-1.358l3.516-1.192l3.59-1.023
	l3.659-0.847l3.724-0.668l3.784-0.482l3.838-0.293l3.889-0.099l3.891,0.099l3.837,0.293l3.785,0.482l3.722,0.668
	c-1.025,0.267-2.041,0.553-3.061,0.865c-1.418,0.481-2.8,0.997-4.186,1.564c-1.348,0.601-2.654,1.23-3.964,1.913
	c-1.268,0.713-2.494,1.45-3.715,2.24c-1.183,0.817-2.317,1.656-3.445,2.547c-1.085,0.916-2.122,1.849-3.147,2.833
	c-0.981,1.008-1.91,2.027-2.822,3.098c-0.869,1.094-1.682,2.192-2.473,3.344l-2.097,3.566c-0.629,1.272-1.194,2.536-1.727,3.853
	c-0.179,0.676-0.319,1.341-0.434,2.03c-0.049,0.329-0.093,0.659-0.132,0.99c-0.288-0.572-0.608-1.136-0.965-1.69l-0.602-0.838
	c-1.157-1.442-2.387-2.551-4.045-3.387l-0.859-0.35c-1.119-0.344-2.063-0.447-3.227-0.31l-1,0.241
	c-1.167,0.523-2.319,1.063-3.465,1.63c-1.815,0.942-3.567,1.939-5.305,3.02c-2.04,1.323-3.973,2.716-5.873,4.232
	c-1.232,1.023-2.42,2.071-3.588,3.166c-1.427,1.392-2.774,2.814-4.085,4.316c-1.529,1.826-2.933,3.687-4.264,5.661
	c-0.563,0.871-1.102,1.749-1.631,2.637h-0.009c-0.391,0.493-1.068,0.82-1.835,0.82c-0.289,0-0.564-0.047-0.817-0.131v0.027
	l-0.877-0.302c-1.014,0.252-1.978,0.514-2.963,0.855c-1.081,0.428-2.082,0.899-3.101,1.46c-1.007,0.607-1.936,1.246-2.866,1.966
	c-1.16,0.968-2.196,1.969-3.212,3.087c-0.597,0.703-1.161,1.412-1.712,2.151c-0.725,1.039-1.384,2.082-2.014,3.182
	C75.093,143.523,75.005,143.688,74.92,143.854L74.92,143.854z"/>
<path fill-rule="evenodd" clip-rule="evenodd" fill="#E49A23" d="M204.032,163.229c-0.814-2.273-1.477-4.56-1.979-6.842
	c-2.785,0.003-5.587,0.101-8.395,0.303c-11.593,0.826-22.271,3.186-31.837,6.737c-0.939,0.315-1.952,0.49-3.009,0.49
	c-2.997,0-5.651-1.396-7.242-3.522l-0.306-0.456c-1.036-1.306-2.003-2.631-2.937-4.014c-1.375-2.117-2.612-4.269-3.773-6.509
	c-1.416-2.836-2.657-5.704-3.784-8.666c-0.872-2.39-1.653-4.786-2.366-7.229c-1.3-4.683-2.306-9.385-2.973-14.179
	c-0.073-0.928-0.112-1.934-0.112-2.983c0-2.794,0.282-5.276,0.714-6.81c4.966-12.95,17.709-22.828,33.336-25.346l2.579,0.735
	l3.514,1.192l3.438,1.358l3.354,1.519l3.267,1.676l3.173,1.825l3.074,1.974l2.973,2.114l2.863,2.25l2.752,2.384l2.633,2.51
	l2.513,2.632l2.385,2.749l2.252,2.861l2.117,2.97l1.974,3.072l1.828,3.17l1.677,3.263l1.52,3.351l0.309,0.778
	c0.532,2.173,0.812,4.399,0.812,6.666C220.373,145.953,214.196,155.748,204.032,163.229L204.032,163.229z"/>
<path fill-rule="evenodd" clip-rule="evenodd" d="M164.675,128.437c1.094-0.916,2.206-1.821,3.335-2.716
	c-1.404-1.672-2.867-3.288-4.384-4.848c-0.444-0.598-0.73-1.51-0.73-2.529c0-0.523,0.077-1.019,0.21-1.457
	c3.141-9.035,13.712-17.986,27.906-22.888l0.756,0.485l2.353,1.675c-12.707,4.275-22.579,11.794-26.938,19.761
	c-0.159,0.348-0.255,0.813-0.255,1.324c0,0.663,0.164,1.252,0.415,1.603c1.342,1.419,2.639,2.883,3.889,4.39
	c1.875-1.412,3.795-2.795,5.757-4.147c-1.452-1.475-2.963-2.889-4.528-4.236c-0.1-0.113-0.143-0.216-0.11-0.297
	c0.06-0.157,0.381-0.175,0.792-0.094c0.352,0.07,0.78,0.225,1.12,0.391c0.263,0.13,0.455,0.249,0.602,0.363
	c1.114,1,2.2,2.034,3.255,3.101c1.995-1.354,4.034-2.676,6.113-3.966c-1.51-1.528-3.08-2.994-4.704-4.396
	c-0.105-0.118-0.15-0.227-0.116-0.312c0.064-0.165,0.401-0.185,0.833-0.099c0.37,0.073,0.822,0.236,1.178,0.411
	c0.277,0.137,0.479,0.262,0.633,0.381c1.169,1.05,2.307,2.135,3.415,3.252c1.832-1.114,3.693-2.205,5.584-3.27
	c-1.722-1.77-3.519-3.46-5.384-5.067c-0.112-0.126-0.158-0.239-0.124-0.33c0.069-0.174,0.424-0.193,0.879-0.103
	c0.39,0.077,0.865,0.249,1.239,0.434c0.292,0.143,0.503,0.275,0.667,0.4c1.4,1.258,2.76,2.562,4.074,3.912
	c1.66-0.916,3.343-1.813,5.048-2.688c-1.792-1.836-3.66-3.593-5.599-5.263c-0.117-0.133-0.166-0.253-0.13-0.347
	c0.072-0.183,0.445-0.204,0.926-0.109c0.41,0.082,0.91,0.262,1.305,0.456c0.308,0.151,0.529,0.289,0.701,0.423
	c1.466,1.313,2.889,2.68,4.266,4.092c1.427-0.719,2.869-1.423,4.327-2.113l2.251,2.358l1.126,1.299
	c-1.452,0.696-2.89,1.408-4.313,2.134c1.872,2.149,3.646,4.391,5.316,6.721c0.049,0.082,0.098,0.173,0.145,0.269
	c0.227,0.468,0.41,1.045,0.493,1.592c0.075,0.484,0.057,0.851-0.021,1.063c-0.07,0.192-0.192,0.267-0.35,0.196
	c-0.056-0.024-0.112-0.065-0.169-0.119c-2.111-3.141-4.407-6.135-6.878-8.966c-1.699,0.885-3.38,1.79-5.035,2.717
	c1.701,1.968,3.317,4.017,4.839,6.141c0.048,0.079,0.094,0.165,0.14,0.257c0.216,0.443,0.389,0.992,0.468,1.512
	c0.07,0.46,0.054,0.808-0.02,1.009c-0.067,0.184-0.182,0.254-0.332,0.187c-0.052-0.023-0.105-0.063-0.16-0.112
	c-1.933-2.877-4.031-5.626-6.283-8.231c-1.873,1.068-3.718,2.162-5.531,3.279c1.701,1.949,3.312,3.983,4.827,6.096
	c0.043,0.075,0.087,0.156,0.13,0.244c0.205,0.422,0.37,0.942,0.445,1.437c0.067,0.437,0.051,0.767-0.019,0.957
	c-0.063,0.175-0.173,0.241-0.316,0.178c-0.049-0.021-0.1-0.059-0.151-0.106c-1.89-2.813-3.946-5.495-6.155-8.033
	c-2.071,1.301-4.102,2.634-6.089,3.997c1.538,1.778,2.999,3.631,4.375,5.552c0.041,0.07,0.083,0.148,0.124,0.231
	c0.194,0.4,0.352,0.895,0.424,1.364c0.063,0.415,0.047,0.729-0.019,0.91c-0.06,0.166-0.164,0.229-0.3,0.169
	c-0.047-0.021-0.095-0.056-0.146-0.102c-1.723-2.564-3.592-5.016-5.593-7.34c-2.07,1.445-4.091,2.923-6.063,4.434
	c0.711,0.965,1.404,1.946,2.079,2.943c0.311,0.566,0.592,1.304,0.785,2.151c0.275,1.207,0.312,2.361,0.13,3.19
	c-0.189,0.862-0.601,1.3-1.158,1.081c-0.263-0.103-0.524-0.343-0.77-0.675c-1.329-2.13-2.743-4.197-4.237-6.198
	c-1.14,0.918-2.263,1.849-3.366,2.789c-0.379,0.219-0.815,0.343-1.278,0.343c-1.442,0-2.617-1.204-2.617-2.68
	C163.98,129.552,164.245,128.914,164.675,128.437L164.675,128.437z"/>
<path fill-rule="evenodd" clip-rule="evenodd" fill="#FFFFFF" stroke="#000000" d="M106.744,23.235c1.927,0,3.498,1.571,3.498,3.498
	s-1.571,3.498-3.498,3.498s-3.498-1.571-3.498-3.498S104.817,23.235,106.744,23.235L106.744,23.235z"/>
<path fill-rule="evenodd" clip-rule="evenodd" fill="#FFFFFF" stroke="#000000" d="M192.185,30.231
	c-1.926,0-3.499-1.571-3.499-3.498s1.573-3.498,3.499-3.498c1.928,0,3.499,1.571,3.499,3.498S194.112,30.231,192.185,30.231
	L192.185,30.231z"/>
<path fill-rule="evenodd" clip-rule="evenodd" fill="#FFFFFF" stroke="#000000" d="M121.615,31.638c1.927,0,3.499,1.571,3.499,3.499
	c0,1.927-1.572,3.498-3.499,3.498s-3.498-1.571-3.498-3.498C118.117,33.209,119.688,31.638,121.615,31.638L121.615,31.638z"/>
<path fill-rule="evenodd" clip-rule="evenodd" fill="#FFFFFF" stroke="#000000" d="M177.314,38.635
	c-1.926,0-3.499-1.571-3.499-3.499c0-1.927,1.573-3.498,3.499-3.498c1.926,0,3.499,1.571,3.499,3.498
	C180.813,37.063,179.241,38.635,177.314,38.635L177.314,38.635z"/>
<path fill-rule="evenodd" clip-rule="evenodd" fill="#FFFFFF" stroke="#000000" d="M122.217,38.465c1.542,0,2.799,1.257,2.799,2.799
	c0,1.541-1.257,2.798-2.799,2.798s-2.799-1.257-2.799-2.798C119.418,39.722,120.676,38.465,122.217,38.465L122.217,38.465z"/>
<path fill-rule="evenodd" clip-rule="evenodd" fill="#FFFFFF" stroke="#000000" d="M176.712,44.062
	c-1.541,0-2.798-1.257-2.798-2.799c0-1.541,1.258-2.798,2.798-2.798c1.542,0,2.798,1.257,2.798,2.798
	C179.51,42.805,178.254,44.062,176.712,44.062L176.712,44.062z"/>
<path fill-rule="evenodd" clip-rule="evenodd" fill="#FFFFFF" stroke="#000000" d="M114.288,19.915c2.283,0,4.146,1.862,4.146,4.146
	c0,2.283-1.863,4.146-4.146,4.146c-2.284,0-4.146-1.862-4.146-4.146C110.142,21.777,112.004,19.915,114.288,19.915L114.288,19.915z"
	/>
<path fill-rule="evenodd" clip-rule="evenodd" fill="#FFFFFF" stroke="#000000" d="M184.643,28.207
	c-2.284,0-4.147-1.862-4.147-4.146c0-2.283,1.863-4.146,4.147-4.146c2.283,0,4.146,1.862,4.146,4.146
	C188.789,26.345,186.925,28.207,184.643,28.207L184.643,28.207z"/>
<path fill-rule="evenodd" clip-rule="evenodd" fill="#FFFFFF" stroke="#000000" d="M122.513,19.699c2.283,0,4.146,1.862,4.146,4.146
	s-1.863,4.146-4.146,4.146s-4.146-1.861-4.146-4.146S120.229,19.699,122.513,19.699L122.513,19.699z"/>
<path fill-rule="evenodd" clip-rule="evenodd" fill="#FFFFFF" stroke="#000000" d="M122.703,24.868c1.927,0,3.499,1.571,3.499,3.499
	c0,1.926-1.572,3.497-3.499,3.497s-3.498-1.571-3.498-3.497C119.206,26.439,120.776,24.868,122.703,24.868L122.703,24.868z"/>
<path fill-rule="evenodd" clip-rule="evenodd" fill="#FFFFFF" stroke="#000000" d="M176.417,27.991
	c-2.283,0-4.146-1.861-4.146-4.146c0-2.283,1.863-4.146,4.146-4.146c2.284,0,4.147,1.862,4.147,4.146
	C180.564,26.13,178.701,27.991,176.417,27.991L176.417,27.991z"/>
<path fill-rule="evenodd" clip-rule="evenodd" fill="#FFFFFF" stroke="#000000" d="M176.227,31.864
	c-1.928,0-3.499-1.571-3.499-3.498s1.571-3.498,3.499-3.498c1.926,0,3.497,1.571,3.497,3.498S178.153,31.864,176.227,31.864
	L176.227,31.864z"/>
<path fill-rule="evenodd" clip-rule="evenodd" fill="#FFFFFF" stroke="#000000" d="M128.607,13.829c2.283,0,4.146,1.862,4.146,4.146
	c0,2.283-1.863,4.146-4.146,4.146c-2.284,0-4.146-1.862-4.146-4.146C124.461,15.691,126.323,13.829,128.607,13.829L128.607,13.829z"
	/>
<path fill-rule="evenodd" clip-rule="evenodd" fill="#FFFFFF" stroke="#000000" d="M170.323,22.121
	c-2.284,0-4.146-1.862-4.146-4.146c0-2.283,1.862-4.146,4.146-4.146s4.146,1.862,4.146,4.146
	C174.469,20.259,172.607,22.121,170.323,22.121L170.323,22.121z"/>
<path fill-rule="evenodd" clip-rule="evenodd" fill="#FFFFFF" stroke="#000000" d="M135.861,9.286c2.283,0,4.147,1.863,4.147,4.147
	c0,2.283-1.864,4.146-4.147,4.146s-4.146-1.862-4.146-4.146C131.715,11.149,133.578,9.286,135.861,9.286L135.861,9.286z"/>
<path fill-rule="evenodd" clip-rule="evenodd" fill="#FFFFFF" stroke="#000000" d="M163.068,17.579
	c-2.284,0-4.147-1.862-4.147-4.146c0-2.283,1.863-4.146,4.147-4.146s4.146,1.863,4.146,4.146
	C167.214,15.717,165.353,17.579,163.068,17.579L163.068,17.579z"/>
<path fill-rule="evenodd" clip-rule="evenodd" fill="#FFFFFF" stroke="#000000" d="M101.466,28.576c1.927,0,3.499,1.571,3.499,3.498
	c0,1.928-1.572,3.498-3.499,3.498s-3.498-1.57-3.498-3.498C97.968,30.147,99.54,28.576,101.466,28.576L101.466,28.576z"/>
<path fill-rule="evenodd" clip-rule="evenodd" fill="#FFFFFF" stroke="#000000" d="M197.463,35.572c-1.926,0-3.499-1.57-3.499-3.498
	c0-1.927,1.573-3.498,3.499-3.498s3.499,1.571,3.499,3.498C200.962,34.002,199.389,35.572,197.463,35.572L197.463,35.572z"/>
<path fill-rule="evenodd" clip-rule="evenodd" fill="#FFFFFF" stroke="#000000" d="M98.576,35.354c1.926,0,3.498,1.572,3.498,3.499
	s-1.572,3.498-3.498,3.498c-1.927,0-3.499-1.571-3.499-3.498S96.649,35.354,98.576,35.354L98.576,35.354z"/>
<path fill-rule="evenodd" clip-rule="evenodd" fill="#FFFFFF" stroke="#000000" d="M200.353,42.351
	c-1.926,0-3.497-1.571-3.497-3.498s1.571-3.499,3.497-3.499c1.928,0,3.499,1.572,3.499,3.499S202.28,42.351,200.353,42.351
	L200.353,42.351z"/>
<path fill-rule="evenodd" clip-rule="evenodd" fill="#FFFFFF" stroke="#000000" d="M96.19,42.355c2.332,0,4.233,1.901,4.233,4.233
	c0,2.331-1.902,4.232-4.233,4.232s-4.233-1.901-4.233-4.232C91.958,44.257,93.859,42.355,96.19,42.355L96.19,42.355z"/>
<path fill-rule="evenodd" clip-rule="evenodd" fill="#FFFFFF" stroke="#000000" d="M202.739,50.821
	c-2.331,0-4.233-1.901-4.233-4.232c0-2.332,1.902-4.233,4.233-4.233c2.332,0,4.233,1.901,4.233,4.233
	C206.973,48.92,205.071,50.821,202.739,50.821L202.739,50.821z"/>
<path fill-rule="evenodd" clip-rule="evenodd" fill="#FFFFFF" stroke="#000000" d="M124.364,49.542c2.048,0,3.718,1.671,3.718,3.719
	s-1.67,3.719-3.718,3.719c-2.048,0-3.718-1.671-3.718-3.719S122.315,49.542,124.364,49.542L124.364,49.542z"/>
<path fill-rule="evenodd" clip-rule="evenodd" fill="#FFFFFF" stroke="#000000" d="M174.565,56.979c-2.047,0-3.718-1.672-3.718-3.72
	c0-2.047,1.671-3.718,3.718-3.718c2.048,0,3.719,1.671,3.719,3.718C178.285,55.308,176.614,56.979,174.565,56.979L174.565,56.979z"
	/>
<path fill-rule="evenodd" clip-rule="evenodd" fill="#FFFFFF" stroke="#000000" d="M101.887,55.502c1.998,0,3.628,1.63,3.628,3.628
	s-1.63,3.628-3.628,3.628c-1.998,0-3.628-1.63-3.628-3.628S99.889,55.502,101.887,55.502L101.887,55.502z"/>
<path fill-rule="evenodd" clip-rule="evenodd" fill="#FFFFFF" stroke="#000000" d="M197.042,62.758c-1.996,0-3.627-1.63-3.627-3.628
	s1.631-3.628,3.627-3.628c1.998,0,3.629,1.63,3.629,3.628S199.04,62.758,197.042,62.758L197.042,62.758z"/>
<path fill-rule="evenodd" clip-rule="evenodd" fill="#F0D036" stroke="#000000" stroke-miterlimit="2.6131" d="M182.238,80.978
	c1.002,1.041,1.406,2.42,0.917,3.605c-0.332,0.806-1.024,1.384-1.885,1.681c-9.718-4.373-20.485-6.81-31.805-6.81
	c-11.318,0-22.086,2.437-31.804,6.811c-0.863-0.297-1.552-0.876-1.886-1.682c-0.489-1.186-0.085-2.564,0.917-3.605
	c10.056-4.377,21.139-6.811,32.773-6.811C161.1,74.167,172.182,76.601,182.238,80.978L182.238,80.978z"/>
<path fill-rule="evenodd" clip-rule="evenodd" fill="#F0D036" stroke="#000000" d="M149.465,61.829
	c13.284,0,25.942,2.758,37.439,7.725c0.687,0.391,1.158,1.174,1.158,2.073c0,1.288-0.965,2.338-2.148,2.338
	c-0.282,0-0.551-0.06-0.799-0.168v0.002c-10.946-4.734-23-7.364-35.65-7.364s-24.705,2.631-35.65,7.364v-0.002
	c-0.248,0.108-0.517,0.168-0.799,0.168c-1.183,0-2.148-1.05-2.148-2.338c0-0.898,0.471-1.682,1.158-2.072
	C123.522,64.587,136.181,61.829,149.465,61.829L149.465,61.829z"/>
<path fill-rule="evenodd" clip-rule="evenodd" fill="#F0D036" stroke="#000000" stroke-miterlimit="2.6131" d="M102.018,55.347
	c0.044,0.055,0.086,0.109,0.128,0.164c-0.085-0.006-0.171-0.009-0.259-0.009c-1.159,0-2.193,0.548-2.858,1.398
	c-1.442-2.095-3.939-3.895-7.037-4.847c0.381-0.545,1.648-0.947,3.145-0.947c0.874,0,1.67,0.137,2.257,0.36
	C99.059,52.33,100.669,53.644,102.018,55.347L102.018,55.347z"/>
<path fill-rule="evenodd" clip-rule="evenodd" fill="#F0D036" stroke="#000000" stroke-miterlimit="2.6131" d="M196.912,55.347
	c-0.044,0.055-0.086,0.109-0.129,0.164c0.086-0.006,0.172-0.009,0.259-0.009c1.16,0,2.194,0.548,2.859,1.398
	c1.442-2.095,3.939-3.895,7.037-4.847c-0.382-0.545-1.647-0.947-3.146-0.947c-0.875,0-1.67,0.137-2.256,0.36
	C199.871,52.33,198.262,53.644,196.912,55.347L196.912,55.347z"/>
<path fill-rule="evenodd" clip-rule="evenodd" fill="#F0D036" stroke="#000000" d="M148.329,53.867
	c-1.031,2.544-2.882,4.681-5.458,6.076c-3.073,1.668-6.461,1.902-9.255,1.354c-2.245-0.44-4.318-1.461-5.971-3
	c-0.58-0.538-1.096-1.126-1.545-1.75c0.84-0.444,1.489-1.203,1.793-2.116c0.279,0.298,0.583,0.581,0.911,0.849
	c1.385,1.129,3.123,1.88,5.004,2.203c2.341,0.403,5.182,0.23,7.757-0.994c2.167-1.029,3.72-2.604,4.583-4.48
	C146.597,52.884,147.38,53.563,148.329,53.867L148.329,53.867z"/>
<path fill-rule="evenodd" clip-rule="evenodd" fill="#F0D036" stroke="#000000" d="M150.6,53.867
	c1.032,2.544,2.884,4.681,5.458,6.076c3.074,1.668,6.462,1.902,9.256,1.354c2.246-0.44,4.317-1.461,5.971-3
	c0.58-0.538,1.096-1.126,1.545-1.75c-0.84-0.444-1.49-1.203-1.794-2.116c-0.278,0.298-0.582,0.581-0.91,0.849
	c-1.386,1.129-3.123,1.88-5.004,2.203c-2.341,0.403-5.182,0.23-7.758-0.994c-2.165-1.029-3.719-2.604-4.583-4.48
	C152.333,52.884,151.549,53.563,150.6,53.867L150.6,53.867z"/>
<path fill-rule="evenodd" clip-rule="evenodd" fill="#F0D036" stroke="#000000" d="M125.879,56.655
	c-1.053,3.152-2.956,5.844-4.974,7.777c-1.787,1.712-3.858,2.996-6.014,3.656c-2.041,0.626-4.046,0.678-5.765,0.215
	c-1.824-0.491-3.55-1.641-4.802-3.486c-0.469-0.691-0.863-1.459-1.171-2.289c0.925-0.346,1.673-1.061,2.063-1.962
	c0.211,0.55,0.492,1.059,0.834,1.518c0.878,1.181,2.116,1.929,3.438,2.266c1.246,0.316,2.71,0.313,4.212-0.051
	c1.586-0.384,3.124-1.161,4.461-2.213c1.622-1.275,3.165-3.102,3.956-5.264c0.059-0.162,0.113-0.323,0.162-0.484
	c0.595,0.404,1.313,0.642,2.084,0.642C124.902,56.979,125.416,56.864,125.879,56.655L125.879,56.655z"/>
<path fill-rule="evenodd" clip-rule="evenodd" fill="#F0D036" stroke="#000000" d="M173.051,56.655
	c1.054,3.152,2.956,5.844,4.974,7.777c1.787,1.712,3.858,2.996,6.014,3.656c2.041,0.626,4.047,0.678,5.765,0.215
	c1.824-0.491,3.551-1.641,4.803-3.486c0.468-0.691,0.862-1.459,1.17-2.289c-0.924-0.346-1.672-1.061-2.063-1.962
	c-0.211,0.55-0.491,1.059-0.832,1.518c-0.88,1.181-2.116,1.929-3.439,2.266c-1.246,0.316-2.709,0.313-4.212-0.051
	c-1.586-0.384-3.123-1.161-4.461-2.213c-1.622-1.275-3.164-3.102-3.955-5.264c-0.06-0.162-0.113-0.323-0.163-0.484
	c-0.595,0.404-1.314,0.642-2.085,0.642C174.027,56.979,173.515,56.864,173.051,56.655L173.051,56.655z"/>
<path fill-rule="evenodd" clip-rule="evenodd" fill="#F0D036" stroke="#000000" d="M140.35,21.9c-3.972,0.89-7.711,3.037-10.77,6.02
	c-1.853,1.808-3.469,3.932-4.744,6.28c1.626-10.194,9.565-18.039,19.178-18.417C142.503,17.569,141.259,19.634,140.35,21.9
	L140.35,21.9z"/>
<path fill-rule="evenodd" clip-rule="evenodd" fill="#F0D036" stroke="#000000" stroke-miterlimit="2.6131" d="M158.58,21.9
	c3.971,0.89,7.712,3.037,10.769,6.02c1.853,1.808,3.47,3.932,4.744,6.28c-1.626-10.194-9.565-18.039-19.177-18.417
	C156.426,17.569,157.671,19.634,158.58,21.9L158.58,21.9z"/>
<path fill-rule="evenodd" clip-rule="evenodd" fill="#F0D036" stroke="#000000" stroke-miterlimit="2.6131" d="M127.204,44.577
	c-0.494,0.744-0.869,1.538-1.119,2.351c-0.303,0.984-0.401,1.962-0.327,2.887c-0.431-0.176-0.902-0.272-1.395-0.272
	c-1.029,0-1.962,0.421-2.636,1.1c-0.276-0.457-0.612-0.884-1.008-1.275c-0.916-0.907-2.106-1.51-3.444-1.764
	c1.387-2.066,4.031-3.468,7.054-3.468C125.341,44.135,126.311,44.291,127.204,44.577L127.204,44.577z"/>
<path fill-rule="evenodd" clip-rule="evenodd" fill="#F0D036" stroke="#000000" stroke-miterlimit="2.6131" d="M133.049,56.104
	c-0.743-0.495-1.537-0.869-2.349-1.119c-0.984-0.302-1.962-0.4-2.888-0.326c0.175-0.431,0.272-0.901,0.272-1.395
	c0-1.028-0.421-1.963-1.099-2.637c0.457-0.275,0.884-0.611,1.276-1.008c0.906-0.916,1.508-2.105,1.762-3.443
	c2.067,1.387,3.469,4.031,3.469,7.053C133.492,54.241,133.335,55.21,133.049,56.104L133.049,56.104z"/>
<path fill-rule="evenodd" clip-rule="evenodd" fill="#F0D036" stroke="#000000" stroke-miterlimit="2.6131" d="M109.244,59.562
	c-0.65-0.295-1.325-0.489-1.999-0.583c-0.599-0.084-1.181-0.081-1.733-0.003c-0.051-1.209-0.699-2.268-1.656-2.89
	c-0.033-0.026-0.066-0.052-0.1-0.076c0.326-0.275,0.621-0.596,0.88-0.959c0.599-0.838,0.922-1.854,0.952-2.944
	c1.809,0.832,3.254,2.742,3.64,5.128C109.356,58.034,109.356,58.819,109.244,59.562L109.244,59.562z"/>
<path fill-rule="evenodd" clip-rule="evenodd" fill="#F0D036" stroke="#000000" stroke-miterlimit="2.6131" d="M189.685,59.562
	c0.65-0.295,1.325-0.489,1.998-0.583c0.601-0.084,1.183-0.081,1.735-0.003c0.051-1.209,0.699-2.268,1.655-2.89
	c0.032-0.026,0.065-0.052,0.1-0.076c-0.326-0.275-0.62-0.596-0.88-0.959c-0.598-0.838-0.923-1.854-0.953-2.944
	c-1.809,0.832-3.252,2.742-3.638,5.128C189.573,58.034,189.573,58.819,189.685,59.562L189.685,59.562z"/>
<path fill-rule="evenodd" clip-rule="evenodd" fill="#F0D036" stroke="#000000" stroke-miterlimit="2.6131" d="M115.678,50.422
	c0.744,0.494,1.538,0.87,2.35,1.119c0.984,0.303,1.962,0.401,2.888,0.327c-0.176,0.431-0.273,0.901-0.273,1.396
	c0,1.027,0.42,1.961,1.1,2.635c-0.457,0.276-0.884,0.612-1.276,1.008c-0.907,0.917-1.509,2.106-1.763,3.445
	c-2.067-1.388-3.468-4.032-3.468-7.055C115.235,52.286,115.392,51.315,115.678,50.422L115.678,50.422z"/>
<path fill-rule="evenodd" clip-rule="evenodd" fill="#F0D036" stroke="#000000" stroke-miterlimit="2.6131" d="M171.726,44.577
	c0.494,0.744,0.869,1.538,1.118,2.351c0.303,0.984,0.401,1.962,0.326,2.887c0.431-0.176,0.902-0.272,1.395-0.272
	c1.028,0,1.961,0.421,2.636,1.1c0.277-0.457,0.614-0.884,1.008-1.275c0.917-0.907,2.107-1.51,3.444-1.764
	c-1.388-2.066-4.031-3.468-7.054-3.468C173.588,44.135,172.62,44.291,171.726,44.577L171.726,44.577z"/>
<path fill-rule="evenodd" clip-rule="evenodd" fill="#F0D036" stroke="#000000" stroke-miterlimit="2.6131" d="M183.252,50.422
	c-0.744,0.494-1.538,0.87-2.35,1.119c-0.984,0.303-1.963,0.401-2.889,0.327c0.176,0.431,0.274,0.901,0.274,1.396
	c0,1.027-0.422,1.961-1.1,2.635c0.458,0.276,0.884,0.612,1.276,1.008c0.907,0.917,1.509,2.106,1.764,3.445
	c2.065-1.388,3.468-4.032,3.468-7.055C183.696,52.286,183.538,51.315,183.252,50.422L183.252,50.422z"/>
<path fill-rule="evenodd" clip-rule="evenodd" fill="#F0D036" stroke="#000000" stroke-miterlimit="2.6131" d="M165.88,56.104
	c0.744-0.495,1.538-0.869,2.35-1.119c0.983-0.302,1.961-0.4,2.888-0.326c-0.176-0.431-0.274-0.901-0.274-1.395
	c0-1.028,0.421-1.963,1.1-2.637c-0.458-0.275-0.884-0.611-1.276-1.008c-0.907-0.916-1.508-2.105-1.764-3.443
	c-2.067,1.387-3.468,4.031-3.468,7.053C165.437,54.241,165.594,55.21,165.88,56.104L165.88,56.104z"/>
<path fill-rule="evenodd" clip-rule="evenodd" fill="#10905A" d="M149.465,66.435c2.434,0,4.844,0.098,7.23,0.288l-0.726,3.297
	c-0.714-0.055-1.432-0.104-2.149-0.146c-2.184-0.099-4.353-0.127-6.539-0.084c-1.445,0.046-2.882,0.123-4.322,0.229l-0.724-3.296
	C144.621,66.532,147.032,66.435,149.465,66.435L149.465,66.435z"/>
<path fill-rule="evenodd" clip-rule="evenodd" fill="#10905A" d="M116.307,72.764c4.234-1.682,8.623-3.054,13.14-4.083l0.884,3.298
	c-1.354,0.324-2.699,0.674-4.041,1.053l-1.999,0.605c-1.935,0.625-3.844,1.301-5.73,2.05L116.307,72.764L116.307,72.764z"/>
<path fill-rule="evenodd" clip-rule="evenodd" fill="#10905A" d="M182.623,72.764c-4.234-1.682-8.624-3.054-13.14-4.083
	l-0.884,3.298c1.354,0.324,2.697,0.674,4.042,1.053l1.998,0.605c1.936,0.625,3.843,1.301,5.731,2.05L182.623,72.764L182.623,72.764z
	"/>
<path fill="none" stroke="#000000" stroke-miterlimit="2.6131" d="M149.465,66.435c12.557,0,24.528,2.589,35.41,7.259
	c0.562,0.641,0.485,2.33-0.24,4.081c-0.729,1.762-1.88,3.015-2.732,3.057c-9.966-4.286-20.932-6.664-32.438-6.664
	c-11.505,0-22.472,2.378-32.438,6.664c-0.851-0.042-2.001-1.294-2.732-3.057c-0.725-1.75-0.801-3.44-0.24-4.081
	C124.936,69.024,136.907,66.435,149.465,66.435"/>
<path fill-rule="evenodd" clip-rule="evenodd" fill="#F0D036" d="M155.292,8.835h-11.654c0.21-2.647,2.747-4.751,5.827-4.751
	C152.544,4.084,155.081,6.188,155.292,8.835L155.292,8.835z"/>
<polygon fill-rule="evenodd" clip-rule="evenodd" points="147.519,8.798 151.411,8.798 151.411,13.747 147.519,13.747 
	147.519,8.798 "/>
<path fill-rule="evenodd" clip-rule="evenodd" stroke="#000000" stroke-width="2.0534" stroke-miterlimit="2.6131" d="
	M149.455,42.015c1.612-1.683,2.9-3.703,3.767-5.924c0.852-2.182,1.299-4.563,1.247-7.02c-0.052-2.406-0.58-4.66-1.469-6.66
	c-0.878-1.971-2.11-3.706-3.603-5.119c-1.489,1.413-2.717,3.148-3.583,5.119c-0.879,2.001-1.396,4.254-1.437,6.66
	c-0.042,2.457,0.415,4.837,1.277,7.02C146.531,38.312,147.831,40.332,149.455,42.015L149.455,42.015z"/>
<path fill-rule="evenodd" clip-rule="evenodd" fill="#FFFFFF" stroke="#000000" d="M149.465,25.729c2.283,0,4.146,1.862,4.146,4.146
	c0,2.284-1.863,4.146-4.146,4.146s-4.146-1.862-4.146-4.146C145.319,27.592,147.182,25.729,149.465,25.729L149.465,25.729z
	 M149.465,18.508c1.784,0,3.239,1.455,3.239,3.239s-1.455,3.239-3.239,3.239c-1.785,0-3.239-1.455-3.239-3.239
	S147.68,18.508,149.465,18.508L149.465,18.508z M149.465,34.587c1.784,0,3.239,1.455,3.239,3.24c0,1.783-1.455,3.237-3.239,3.237
	c-1.785,0-3.239-1.454-3.239-3.237C146.226,36.042,147.68,34.587,149.465,34.587L149.465,34.587z"/>
<path fill-rule="evenodd" clip-rule="evenodd" fill="#FFFFFF" stroke="#000000" d="M149.455,42.015
	c1.612-1.683,2.9-3.703,3.767-5.924c0.852-2.182,1.299-4.563,1.247-7.02c-0.052-2.406-0.58-4.66-1.469-6.66
	c-0.878-1.971-2.11-3.706-3.603-5.119c-1.489,1.413-2.717,3.148-3.583,5.119c-0.879,2.001-1.396,4.254-1.437,6.66
	c-0.042,2.457,0.415,4.837,1.277,7.02C146.531,38.312,147.831,40.332,149.455,42.015L149.455,42.015z M149.389,13.851
	c2.244,1.613,4.136,3.77,5.502,6.317c1.392,2.597,2.249,5.622,2.354,8.903c0.107,3.372-0.586,6.634-1.914,9.562
	c-1.357,2.993-3.374,5.622-5.867,7.642c-2.506-2.02-4.537-4.648-5.908-7.642c-1.342-2.928-2.045-6.189-1.953-9.562
	c0.09-3.281,0.928-6.307,2.309-8.903C145.266,17.62,147.15,15.464,149.389,13.851L149.389,13.851z"/>
<path fill-rule="evenodd" clip-rule="evenodd" fill="#F0D036" stroke="#000000" stroke-miterlimit="2.6131" d="M154.457,42.678
	c-0.672,0.59-1.238,1.26-1.69,1.98c-0.546,0.872-0.895,1.791-1.062,2.705c-0.372-0.282-0.801-0.498-1.277-0.626
	c-0.993-0.266-2.004-0.101-2.83,0.381c-0.148-0.513-0.363-1.013-0.644-1.494c-0.65-1.112-1.643-2.002-2.87-2.594
	c1.875-1.638,4.792-2.308,7.711-1.524C152.771,41.768,153.666,42.17,154.457,42.678L154.457,42.678z"/>
<path fill-rule="evenodd" clip-rule="evenodd" d="M149.465,12.824c2.552,0,4.741,1.112,5.613,2.675
	c-1.809-0.389-3.687-0.594-5.613-0.594s-3.805,0.205-5.613,0.594C144.724,13.937,146.913,12.824,149.465,12.824L149.465,12.824z"/>
</svg>
