<?xml version="1.0" encoding="utf-8"?>
<!-- Generator: Adobe Illustrator 13.0.0, SVG Export Plug-In . SVG Version: 6.00 Build 14948)  -->
<!DOCTYPE svg PUBLIC "-//W3C//DTD SVG 1.0//EN" "http://www.w3.org/TR/2001/REC-SVG-20010904/DTD/svg10.dtd">
<svg version="1.0" id="Ebene_1" xmlns="http://www.w3.org/2000/svg" xmlns:xlink="http://www.w3.org/1999/xlink" x="0px" y="0px"
	 width="256.318px" height="439.37px" viewBox="0 0 256.318 439.37" enable-background="new 0 0 256.318 439.37"
	 xml:space="preserve">
<path fill-rule="evenodd" clip-rule="evenodd" fill="#E2001A" d="M128.163,439.37L0,150.444h68.77
	c17.386-9.109,45.422-12.654,59.358-12.686c13.997,0.029,42.034,3.577,59.421,12.686h68.77L128.163,439.37L128.163,439.37z"/>
<path fill-rule="evenodd" clip-rule="evenodd" fill="#FFFFFF" d="M128.161,405.908l-18.45-41.602V155.146
	c7.664-1.095,14.5-1.627,18.479-1.642c3.87,0.015,10.479,0.524,17.929,1.57v210.342L128.161,405.908L128.161,405.908z"/>
<polygon fill-rule="evenodd" clip-rule="evenodd" fill="#FFFFFF" points="72.889,281.289 36.478,199.199 36.478,164.02 
	72.889,164.02 72.889,281.289 "/>
<polygon fill-rule="evenodd" clip-rule="evenodd" fill="#FFFFFF" points="182.942,164.02 219.351,164.02 219.351,200.302 
	182.942,282.393 182.942,164.02 "/>
<path fill-rule="evenodd" clip-rule="evenodd" fill="#E2B900" d="M105.928,225.596c-6.555,4.927-9.756,10.859-9.756,15.542
	c0,9.829,14.113,25.234,43.789,25.234c1.66,0,3.281-0.078,4.863-0.22c-5.158-11.904-17.864-20.4-25.525-27.036
	C114.691,234.907,109.823,230.791,105.928,225.596L105.928,225.596L105.928,225.596z M176.558,271.313
	c-3.945,1.924-8.277,3.56-12.818,4.858l0.013,1.108c0,22.412-18.021,36.948-37.244,36.948c-11.5,0-25.231-4.844-33.813-14.741
	l7.38-11.709c7.036,5.854,14.761,12.314,26.089,12.314c11.23,0,19.99-6.714,20.864-20.84c-2.361,0.205-4.722,0.313-7.068,0.313
	c-29.659,0-61.171-14.043-61.171-38.428c0-12.607,8.418-22.45,20.646-29.016c-0.797-3.196-1.245-6.753-1.245-10.765
	c0-18.981,15.616-33.317,34.325-33.317c12.529,0,22.998,5.25,29.691,14.133l-7.895,10.097c-5.836-5.049-13.561-10.097-20.768-10.097
	c-12.015,0-18.708,8.279-18.708,19.184c0,1.574,0.181,3.082,0.54,4.561c7.855-2.114,16.292-3.214,24.584-3.214
	c12.552,0,25.013,3.524,35.701,8.274l-5.146,11.646c-7.117-3.854-18.076-6.663-30.555-6.663c-6.574,0-12.387,0.75-17.449,2.033
	c3.683,4.103,8.719,8.59,15.152,14.054c11.729,10.063,19.979,19.507,23.758,30.674l0.811-0.234l0.007-18.418h14.319V271.313
	L176.558,271.313z"/>
<path fill-rule="evenodd" clip-rule="evenodd" fill="#E2B900" d="M128.253,131.471c-27.511,0-48.919,5.944-62.58,13.789
	l-7.847-13.601c18.408-10.27,44.617-15.917,70.426-15.932c25.809,0.015,52.018,5.662,70.426,15.932l-7.847,13.601
	c-13.659-7.845-35.068-13.789-62.55-13.789H128.253L128.253,131.471z"/>
<path fill-rule="evenodd" clip-rule="evenodd" fill="#E2B900" d="M44.646,101.612c-4.59-0.432-9.376-4.707-9.376-15.125
	c0-12.975,10.518-23.494,23.492-23.494c2.305,0,4.53,0.333,6.631,0.951c3.042-8.475,10.405-14.893,19.483-16.552
	c6.343-1.137,12.728-2.021,19.108-2.654c0.337-4.676,4.237-8.367,8.999-8.367h9.336c-3.732-2.041-6.265-6.005-6.265-10.559
	c0-5.796,4.098-10.633,9.766-11.787V9.233h-4.524V4.705h4.524V0h4.743v4.705h4.521v4.529h-4.521v4.792
	c5.663,1.154,9.765,5.991,9.765,11.787c0,4.554-2.532,8.518-6.266,10.559h9.334c4.766,0,8.664,3.69,9.002,8.367
	c6.379,0.632,12.766,1.517,19.104,2.654c9.082,1.659,16.445,8.077,19.487,16.552c2.1-0.618,4.326-0.951,6.628-0.951
	c12.977,0,23.496,10.519,23.496,23.494c0,10.418-4.787,14.694-9.377,15.125c1.057,0.304,2.059,0.707,2.977,1.165
	c5.068,2.736,8.176,7.962,8.176,13.723c0,10.493-15.742,10.493-15.742,0c-3.113,5.034-10.249,11.068-21.252,7.166
	c-4.944-1.753-9.541-4.877-13.733-9.686c-15.044,3.643-29.272,2.055-43.969-8.02c-14.692,10.074-28.929,11.662-43.97,8.02
	c-4.195,4.809-8.791,7.933-13.732,9.686c-11.006,3.902-18.144-2.132-21.254-7.166c0,10.493-15.742,10.493-15.742,0
	c0-5.76,3.108-10.986,8.176-13.723C42.589,102.319,43.587,101.917,44.646,101.612L44.646,101.612z"/>
<path fill-rule="evenodd" clip-rule="evenodd" fill="#E2001A" d="M128.34,68.648h-0.296c-3.439,0.041-7.069,1.54-9.347,4.529
	c-3.226-2.472-5.456-6.43-5.456-11.873l0.237-1.551c-8.599,0.555-17.243,1.598-25.812,3.132c-4.569,0.849-8.035,4.871-8.035,9.751
	c0,1.289,0.244,2.509,0.68,3.621c0.564,1.433,0.721,2.799,0.564,4.046c-4.783-1.546-10.452,0.255-13.544,4.238
	c-0.419-0.432-0.814-0.924-1.181-1.481c-1.304-2.798-4.131-4.713-7.389-4.713c-4.495,0-8.14,3.644-8.14,8.14
	c0,1.467,0.383,2.825,1.047,4c2.777,4.902,0.598,8.947-2.97,10.49l0.319-0.003c5.339,0,10.441,2.806,13.25,7.355
	c0.093,0.04,1.019,0.831,1.289,0.837c1.234,0.026,2.469-0.361,3.671-1.035c-0.191-0.16-0.291-0.252-0.281-0.256
	c-8.076-3.625-4.759-14.408,2.224-15.121c-1.547-8.892,11.555-12.839,15.048-4.239c5.096-1.112,11.094,3.319,9.6,9.44
	c-0.14,0.575-0.346,1.165-0.624,1.764c7.683,0.988,14.915-0.215,22.405-4.419c-0.806-0.807-1.613-1.646-2.423-2.508
	c-5.863-6.255,0.724-14.582,7.248-13.253c0.421-4.539,3.958-6.858,7.578-6.953c3.917,0.042,7.527,2.36,7.954,6.953
	c6.521-1.328,13.108,6.999,7.246,13.253c-0.811,0.863-1.615,1.701-2.422,2.508c7.49,4.204,14.72,5.407,22.405,4.419
	c-0.278-0.599-0.483-1.189-0.625-1.764c-1.494-6.122,4.505-10.553,9.6-9.44c3.493-8.6,16.597-4.652,15.049,4.239
	c6.982,0.713,10.298,11.497,2.224,15.121c0.01,0.003-0.09,0.096-0.28,0.256c1.201,0.674,2.437,1.061,3.672,1.035
	c0.269-0.006,1.194-0.797,1.286-0.837c2.813-4.549,7.91-7.355,13.252-7.355l0.32,0.003c-3.569-1.543-5.747-5.588-2.971-10.49
	c0.666-1.176,1.045-2.533,1.045-4c0-4.496-3.643-8.14-8.141-8.14c-3.256,0-6.081,1.916-7.385,4.713
	c-0.369,0.558-0.764,1.05-1.184,1.481c-3.089-3.983-8.76-5.785-13.543-4.238c-0.156-1.247,0-2.613,0.564-4.046
	c0.437-1.112,0.678-2.332,0.678-3.621c0-4.88-3.461-8.902-8.031-9.751c-8.57-1.534-17.215-2.577-25.813-3.132l0.239,1.551
	c0,5.443-2.229,9.401-5.459,11.873C135.406,70.188,131.775,68.689,128.34,68.648L128.34,68.648z"/>
</svg>
