<?xml version="1.0" encoding="utf-8"?>
<!-- Generator: Adobe Illustrator 13.0.2, SVG Export Plug-In . SVG Version: 6.00 Build 14948)  -->
<!DOCTYPE svg PUBLIC "-//W3C//DTD SVG 1.0//EN" "http://www.w3.org/TR/2001/REC-SVG-20010904/DTD/svg10.dtd">
<svg version="1.0" id="Ebene_1" xmlns="http://www.w3.org/2000/svg" xmlns:xlink="http://www.w3.org/1999/xlink" x="0px" y="0px"
	 width="356.107px" height="566px" viewBox="0 0 356.107 566" enable-background="new 0 0 356.107 566" xml:space="preserve">
<path fill="#FFFFFF" d="M0,283C0,126.706,79.719,0,178.045,0c98.343,0,178.062,126.706,178.062,283
	c0,156.302-79.719,283-178.062,283C79.719,566,0,439.302,0,283z"/>
<path d="M8.235,283c0-151.745,76.032-274.765,169.81-274.765c93.794,0,169.826,123.02,169.826,274.765
	c0,151.754-76.032,274.765-169.826,274.765C84.268,557.765,8.235,434.754,8.235,283z"/>
<path fill="#E2001A" d="M178.045,548.221c88.516,0,160.284-118.746,160.284-265.205S266.562,17.827,178.045,17.827
	c-88.517,0-160.251,118.73-160.251,265.189S89.529,548.221,178.045,548.221"/>
<path d="M328.802,283.016c0-1.073-0.018-2.141-0.04-3.209c-1.015-139.708-68.095-252.446-150.717-252.446
	c-82.375,0-149.321,112.151-150.676,251.355c-0.04,1.429-0.064,2.861-0.064,4.3c0,1.438,0.025,2.87,0.064,4.297
	c1.354,139.197,68.301,251.349,150.676,251.349c82.623,0,149.703-112.738,150.717-252.44
	C328.784,285.156,328.802,284.088,328.802,283.016z"/>
<path fill="#E2001A" d="M46.371,232.076c6.171-15.947,15.156-30.492,26.344-43.03v187.919
	c-11.188-12.539-20.172-27.085-26.344-43.033V232.076z"/>
<path fill="#E2001A" d="M99.039,166.002c8.208-5.557,17.034-10.267,26.35-14.018v262.041c-9.316-3.751-18.143-8.46-26.35-14.018
	V166.002z"/>
<path fill="#E2001A" d="M151.71,144.28c8.534-1.613,17.335-2.468,26.337-2.469v282.386c-9.001-0.002-17.803-0.856-26.337-2.469
	V144.28z"/>
<path fill="#FFFFFF" d="M187.584,142.135c12.595,0.838,24.738,3.322,36.214,7.249V260.14h-36.214V142.135z"/>
<path fill="#FFFFFF" d="M187.584,305.876h36.214v110.749c-11.476,3.926-23.619,6.41-36.214,7.248V305.876z"/>
<path fill="#E2001A" d="M187.584,296.334v-26.716l45.774,0.016l0.015-116.578c9.478,4.04,18.422,9.085,26.702,15.003v101.575
	l58.549-0.015c0.414,4.406,0.635,8.868,0.635,13.381c0,4.498-0.219,8.944-0.631,13.334H260.09l-0.015,101.617
	c-8.279,5.917-17.225,10.962-26.702,15.001V296.334H187.584z"/>
<path fill="#FFFFFF" d="M269.634,175.536c24.872,21.214,42.285,50.908,47.773,84.604h-47.773V175.536z"/>
<path fill="#FFFFFF" d="M269.634,305.876h47.771c-5.49,33.697-22.902,63.386-47.771,84.598V305.876z"/>
<path fill="#FFFFFF" d="M178.062,36.831c65.211,0,120.087,77.062,136.323,181.787c-24.153-51.048-76.122-86.358-136.34-86.358
	c-60.173,0-112.103,35.258-136.274,86.246C58.029,113.838,112.886,36.831,178.062,36.831z"/>
<path fill="#FFFFFF" d="M178.062,529.169c-65.172,0-120.027-76.997-136.289-181.656c24.174,50.972,76.101,86.227,136.272,86.227
	c60.215,0,112.182-35.307,136.337-86.339C298.143,452.116,243.27,529.169,178.062,529.169z"/>
<path d="M197.18,105.248c-4.331,4.707-10.539,7.647-17.436,7.647c-13.105,0-23.709-10.622-23.709-23.71
	c0-13.096,10.604-23.726,23.709-23.726c6.896,0,13.105,2.95,17.436,7.647l7.189-6.61c-6.127-6.642-14.886-10.793-24.625-10.793
	c-18.497,0-33.481,14.993-33.481,33.481c0,18.489,14.984,33.482,33.481,33.482c9.771,0,18.547-4.183,24.658-10.842L197.18,105.248"
	/>
<polyline points="221.952,67.102 204.632,125.061 214.06,126.802 224.812,91.343 232.671,132.275 236.038,133.395 247.149,106.025 
	258.653,145.078 271.202,153.126 252.247,89.022 245.695,83.981 237.41,104.53 229.828,71.848 221.952,67.102 "/>
<path d="M112.879,110.756l13.922-28.743l6.242,20.711L112.879,110.756 M140.332,126.94l9.298-1.944l-17.371-57.69l-12.941,8.293
	l-38.057,78.949l15.375-10.262l10.083-20.81l29.086-11.585L140.332,126.94z"/>
<path d="M148.567,466.062c-3.545-0.621-8.056,0.751-8.938,5.687c-0.751,4.363,2.189,7.859,6.667,8.644
	c5.098,0.899,8.219-2.696,8.758-5.833C155.609,471.341,154.025,467.043,148.567,466.062 M157.408,454.82
	c0.604-3.464-1.978-6.177-5.115-6.732c-4.395-0.785-7.483,1.046-8.072,4.395c-0.474,2.681,1.552,6.08,5.751,6.831
	C153.829,460,156.835,458.089,157.408,454.82z M144.972,487.567c-12.778-2.288-15.85-10.687-14.756-16.897
	c0.393-2.319,1.455-8.333,9.543-10.196c-3.595-2.5-5.179-5.752-4.444-10c1.356-7.745,8.938-11.226,17.599-9.673
	c10.262,1.814,14.756,8.366,13.645,14.641c-0.686,3.921-3.007,6.96-7.337,8.153c4.379,3.023,6.537,6.389,5.491,12.288
	C163.715,481.651,158.11,489.919,144.972,487.567z"/>
<path d="M235.858,457.303c3.284-1.144,6.192-4.51,4.443-9.641c-1.715-4.935-5.098-7.174-9.934-5.524
	c-2.403,0.85-7.206,3.693-5.082,9.903C227.524,458.579,232.313,458.512,235.858,457.303 M231.282,471.112l0.017,0.065
	c2.174,2.614,5.524,3.53,9.167,1.716c3.676-1.83,6.765-5.653,3.709-14.772l-0.18-0.065c-1.143,3.66-4.592,5.655-7.793,6.766
	c-9.119,3.137-16.586-1.34-19.071-8.596c-3.643-10.621,1.586-17.924,10.916-21.111c16.504-5.654,22.305,10.409,24.38,16.504
	c5.752,16.765-1.096,25.18-9.69,28.138c-7.369,2.517-14.069,0.883-17.599-4.395L231.282,471.112z"/>
<path d="M119.301,432.074c-0.653,1.928-6.373,6.699-13.53,4.281l-1.34-0.49l-1.912,5.474l0.048,0.017l-0.915,2.647l1.797,0.621
	c4.82,1.667,8.121,1.667,10.327,0.849l-9.935,29.086l9.477,3.236l14.576-42.78L119.301,432.074"/>
<path d="M192.653,465.899c3.449-0.294,7.109-2.843,6.65-8.269c-0.44-5.18-3.187-8.187-8.267-7.778
	c-2.55,0.212-7.877,1.814-7.37,8.367C184.254,465.082,188.912,466.208,192.653,465.899 M184.81,478.154l0.017,0.065
	c1.471,3.072,4.493,4.788,8.464,3.922c4.02-0.882,7.942-3.841,7.222-13.399l-0.164-0.131c-1.993,3.269-5.817,4.379-9.216,4.657
	c-9.607,0.8-15.736-5.343-16.373-12.991c-0.932-11.177,5.916-16.994,15.735-17.811c17.371-1.438,19.086,15.557,19.609,21.995
	c1.455,17.646-7.239,24.118-16.291,24.869c-7.746,0.654-13.858-2.582-15.981-8.546L184.81,478.154z"/>
</svg>
