<?xml version="1.0" encoding="UTF-8" standalone="no"?>
<!-- Generator: Adobe Illustrator 15.0.2, SVG Export Plug-In . SVG Version: 6.00 Build 0)  -->

<svg
   xmlns:dc="http://purl.org/dc/elements/1.1/"
   xmlns:cc="http://creativecommons.org/ns#"
   xmlns:rdf="http://www.w3.org/1999/02/22-rdf-syntax-ns#"
   xmlns:svg="http://www.w3.org/2000/svg"
   xmlns="http://www.w3.org/2000/svg"
   xmlns:sodipodi="http://sodipodi.sourceforge.net/DTD/sodipodi-0.dtd"
   xmlns:inkscape="http://www.inkscape.org/namespaces/inkscape"
   version="1.1"
   id="Capa_1"
   x="0px"
   y="0px"
   width="142.92905"
   height="138.9942"
   viewBox="0 0 564.3392 550.41704"
   enable-background="new 0 0 612 792"
   xml:space="preserve"
   inkscape:version="0.48.2 r9819"
   sodipodi:docname="ad_alcorcon.svg"><metadata
   id="metadata115"><rdf:RDF><cc:Work
       rdf:about=""><dc:format>image/svg+xml</dc:format><dc:type
         rdf:resource="http://purl.org/dc/dcmitype/StillImage" /></cc:Work></rdf:RDF></metadata><defs
   id="defs113" /><sodipodi:namedview
   pagecolor="#ffffff"
   bordercolor="#666666"
   borderopacity="1"
   objecttolerance="10"
   gridtolerance="10"
   guidetolerance="10"
   inkscape:pageopacity="0"
   inkscape:pageshadow="2"
   inkscape:window-width="1280"
   inkscape:window-height="968"
   id="namedview111"
   showgrid="false"
   fit-margin-top="0"
   fit-margin-left="0"
   fit-margin-right="0"
   fit-margin-bottom="0"
   inkscape:zoom="5.4031031"
   inkscape:cx="71.464523"
   inkscape:cy="69.497101"
   inkscape:window-x="-4"
   inkscape:window-y="-4"
   inkscape:window-maximized="1"
   inkscape:current-layer="Capa_1" />
<path
   d="m 551.198,284.735 c 6.487,-14.133 13.342,-29.182 13.342,-29.182 l 0.559,-1.232 -1.347,0.146 c -0.073,0.009 -17.665,1.942 -39.096,14.977 -2.646,-31.145 -15.646,-49.884 -15.695,-49.955 l -0.772,-1.111 -0.563,1.232 c 0,0 -6.873,15.04 -13.266,29.203 -2.505,5.536 -3.526,10.866 -3.524,16.011 0,2.822 0.312,5.584 0.841,8.299 -15.146,-14.694 -28.546,-20.167 -28.608,-20.193 l -1.253,-0.511 0.199,1.338 c 0,0.002 2.428,16.355 4.77,31.724 1.733,11.354 7.501,19.119 14.715,25.336 -0.945,2.717 -1.575,5.482 -1.964,8.277 -9.537,-18.833 -20.43,-28.383 -20.479,-28.428 l -1.018,-0.894 -0.249,1.333 c -0.002,0 -3.027,16.267 -5.809,31.547 -0.457,2.515 -0.671,4.932 -0.671,7.261 0,9.439 3.51,17.348 8.235,24.568 -0.131,0.477 -0.266,0.953 -0.379,1.432 -8.084,-15.185 -16.423,-23.023 -16.468,-23.065 l -0.985,-0.927 -0.296,1.323 c 0,0 -3.588,16.136 -6.902,31.324 -0.647,2.968 -0.945,5.814 -0.945,8.544 0.002,9.936 3.93,18.308 8.968,26.037 -0.138,0.106 -0.278,0.211 -0.416,0.317 -12.518,-25.904 -29.225,-38.16 -29.289,-38.21 l -1.093,-0.8 -0.132,1.348 c 0,0.003 -1.605,16.464 -3.045,31.95 -0.122,1.318 -0.184,2.608 -0.184,3.868 0,1.621 0.107,3.185 0.293,4.705 -2.488,-7.128 -4.743,-11.08 -4.761,-11.113 l -0.674,-1.175 -0.669,1.18 c 0,0 -8.153,14.39 -15.768,27.939 -3.66,6.515 -5.053,12.915 -5.051,19.161 0,6.973 1.72,13.745 3.894,20.376 1.004,3.063 1.376,5.776 1.376,8.127 0,1.941 -0.254,3.631 -0.62,5.062 -0.603,0.384 -1.233,0.78 -1.901,1.194 0.871,-3.147 1.477,-6.478 1.481,-9.723 0,-3.396 -0.657,-6.704 -2.378,-9.561 -12.839,-21.326 -28.929,-29.955 -28.987,-29.987 l -0.922,-0.495 0.044,1.045 c 0,0 0.553,12.729 1.113,24.686 0.559,12.187 7.56,19.787 15.369,26.288 1.553,1.298 2.733,2.612 3.639,3.886 -12.596,6.76 -30.218,14.514 -50.281,18.456 -13.372,2.628 -27.85,7.983 -41.477,14.131 -13.626,-6.147 -28.104,-11.503 -41.476,-14.131 -20.063,-3.942 -37.686,-11.696 -50.282,-18.456 0.906,-1.273 2.085,-2.588 3.639,-3.886 7.808,-6.501 14.81,-14.102 15.369,-26.288 0.561,-11.956 1.113,-24.686 1.113,-24.686 l 0.044,-1.045 -0.922,0.495 c -0.059,0.032 -16.148,8.661 -28.988,29.987 -1.721,2.856 -2.378,6.165 -2.378,9.561 0.005,3.245 0.611,6.575 1.481,9.723 -0.667,-0.414 -1.298,-0.811 -1.901,-1.194 -0.365,-1.431 -0.62,-3.12 -0.62,-5.062 0,-2.351 0.372,-5.063 1.376,-8.127 2.173,-6.631 3.894,-13.403 3.894,-20.376 0.002,-6.246 -1.391,-12.646 -5.051,-19.161 -7.614,-13.55 -15.768,-27.939 -15.768,-27.939 l -0.669,-1.18 -0.673,1.175 c -0.018,0.033 -2.272,3.985 -4.761,11.113 0.186,-1.521 0.292,-3.084 0.292,-4.705 0,-1.26 -0.061,-2.55 -0.182,-3.868 -1.44,-15.486 -3.045,-31.947 -3.045,-31.95 l -0.132,-1.348 -1.093,0.8 c -0.064,0.05 -16.772,12.306 -29.289,38.21 -0.138,-0.106 -0.279,-0.211 -0.416,-0.317 5.038,-7.729 8.965,-16.102 8.967,-26.037 0,-2.729 -0.297,-5.576 -0.945,-8.544 -3.315,-15.188 -6.903,-31.324 -6.903,-31.324 l -0.295,-1.323 -0.985,0.927 c -0.045,0.042 -8.385,7.881 -16.468,23.065 -0.113,-0.479 -0.248,-0.955 -0.378,-1.432 4.725,-7.221 8.235,-15.129 8.235,-24.568 0,-2.329 -0.213,-4.746 -0.671,-7.261 -2.779,-15.28 -5.806,-31.547 -5.808,-31.547 l -0.249,-1.333 -1.018,0.894 c -0.05,0.045 -10.941,9.595 -20.479,28.428 -0.389,-2.795 -1.019,-5.561 -1.964,-8.277 7.214,-6.217 12.982,-13.982 14.714,-25.336 2.342,-15.368 4.77,-31.722 4.77,-31.724 l 0.2,-1.338 -1.253,0.511 c -0.063,0.026 -13.462,5.5 -28.608,20.193 0.53,-2.715 0.84,-5.477 0.84,-8.299 0.002,-5.145 -1.02,-10.476 -3.524,-16.011 C 63.446,234.649 56.573,219.61 56.573,219.61 l -0.563,-1.232 -0.773,1.111 C 55.189,219.56 42.188,238.299 39.543,269.444 18.112,256.409 0.521,254.476 0.446,254.467 l -1.346,-0.146 0.56,1.232 c 0,0 6.854,15.049 13.341,29.182 4.919,10.713 12.886,16.628 21.814,20.618 -4.947,-0.599 -9.088,-0.773 -12.135,-0.773 -3.756,0 -5.881,0.253 -5.908,0.255 l -1.343,0.159 0.822,1.076 c 0,0.002 6.176,8.07 13.426,17.483 -1.036,-0.028 -2.046,-0.045 -3.011,-0.045 -10.081,0 -16.18,1.381 -16.226,1.39 l -1.32,0.301 0.931,0.984 c 0,0 11.378,12.007 22.111,23.246 10.227,10.715 22.555,12.709 34.891,12.698 0.859,0 1.718,-0.008 2.579,-0.025 0.211,-0.006 0.418,-0.006 0.629,-0.006 0.71,0 1.388,0.031 2.046,0.077 0.306,1.803 0.657,3.639 1.059,5.511 -11.774,-3.006 -21.925,-3.782 -29.267,-3.782 -7.82,0 -12.458,0.878 -12.496,0.886 l -1.33,0.252 0.895,1.018 c 0,0 10.947,12.401 21.285,24.018 2.493,2.8 5.142,5.042 7.904,6.842 -12.349,4.585 -19.204,9.521 -19.247,9.551 l -1.098,0.79 1.242,0.543 c 0,0 15.155,6.604 29.425,12.764 2.163,0.931 4.289,1.628 6.383,2.142 -15.784,3.058 -25.076,8.153 -25.128,8.181 l -1.184,0.653 1.165,0.687 c 0,0.002 14.244,8.396 27.658,16.242 6.703,3.92 13.327,5.396 19.805,5.396 0.01,0 0.018,0 0.028,0 6.705,0 13.253,-1.554 19.675,-3.537 2.14,-0.662 4.1,-1.015 5.885,-1.16 0.255,0.523 0.492,1.036 0.76,1.566 -26.985,5.601 -42.371,17.949 -42.432,17.999 l -1.058,0.846 1.27,0.479 c 0,0 15.49,5.808 30.068,11.203 4.718,1.744 9.22,2.489 13.542,2.487 8.542,-0.002 16.333,-2.896 23.781,-6.569 2.381,0.685 4.837,1.182 7.273,1.526 -3.698,0.831 -7.125,2.372 -9.7,5.033 -17.276,17.926 -21.453,35.694 -21.469,35.76 l -0.241,1.016 1,-0.309 c 0,0 12.145,-3.814 23.56,-7.461 11.626,-3.7 17.156,-12.428 21.417,-21.654 2.081,-4.486 4.833,-6.879 7.06,-8.171 1.113,-0.646 2.096,-1.015 2.791,-1.219 0.072,-0.021 0.126,-0.033 0.191,-0.051 1.875,4.259 3.618,7.124 3.624,7.146 l 1.101,-0.402 c -0.002,0 -0.048,-0.29 -0.048,-0.867 0.003,-0.686 0.079,-1.737 0.396,-3.012 0.824,0.536 1.653,1.059 2.484,1.557 15.481,9.285 40.229,18.568 64.989,23.99 6.377,1.393 12.339,3.508 17.75,5.982 -26.491,12.909 -47.745,27.274 -47.745,27.274 0,0 -13.989,5.885 -19.704,5.454 4.167,0.496 17.334,1.879 25.896,0.729 11.605,-1.542 20.88,-3.863 25.522,0 4.642,3.87 0.78,-5.404 4.642,-11.598 2.281,-3.648 9.668,-10.787 20.412,-17.143 10.744,6.355 18.131,13.494 20.412,17.143 3.863,6.193 0,15.468 4.643,11.598 4.643,-3.863 13.917,-1.542 25.522,0 8.562,1.149 21.729,-0.233 25.896,-0.729 -5.715,0.431 -19.704,-5.454 -19.704,-5.454 0,0 -21.253,-14.365 -47.744,-27.274 5.411,-2.475 11.373,-4.59 17.75,-5.982 24.761,-5.422 49.509,-14.705 64.989,-23.99 0.831,-0.498 1.659,-1.021 2.483,-1.557 0.317,1.274 0.394,2.326 0.397,3.012 0,0.577 -0.047,0.867 -0.049,0.867 l 1.101,0.402 c 0.006,-0.021 1.748,-2.887 3.624,-7.146 0.065,0.018 0.119,0.029 0.19,0.051 0.696,0.204 1.679,0.573 2.792,1.219 2.226,1.292 4.979,3.685 7.06,8.171 4.262,9.227 9.79,17.954 21.417,21.654 11.414,3.646 23.56,7.461 23.56,7.461 l 0.999,0.309 -0.24,-1.016 c -0.018,-0.065 -4.193,-17.834 -21.469,-35.76 -2.575,-2.661 -6.004,-4.202 -9.701,-5.033 2.436,-0.345 4.892,-0.842 7.273,-1.526 7.448,3.674 15.239,6.567 23.781,6.569 4.321,0.002 8.823,-0.743 13.542,-2.487 14.579,-5.396 30.068,-11.203 30.068,-11.203 l 1.27,-0.479 -1.058,-0.846 c -0.062,-0.05 -15.446,-12.398 -42.433,-17.999 0.269,-0.53 0.505,-1.043 0.761,-1.566 1.786,0.146 3.746,0.498 5.885,1.16 6.422,1.983 12.971,3.537 19.676,3.537 0.01,0 0.018,0 0.027,0 6.479,0 13.102,-1.476 19.806,-5.396 13.414,-7.847 27.658,-16.24 27.658,-16.242 l 1.164,-0.687 -1.183,-0.653 c -0.053,-0.027 -9.345,-5.123 -25.13,-8.181 2.094,-0.514 4.221,-1.211 6.384,-2.142 14.27,-6.16 29.425,-12.764 29.425,-12.764 l 1.242,-0.543 -1.099,-0.79 c -0.043,-0.029 -6.896,-4.966 -19.246,-9.551 2.763,-1.8 5.411,-4.042 7.904,-6.842 10.337,-11.616 21.283,-24.018 21.283,-24.018 l 0.896,-1.018 -1.329,-0.252 c -0.037,-0.008 -4.676,-0.886 -12.496,-0.886 -7.342,0 -17.492,0.776 -29.266,3.782 0.401,-1.872 0.753,-3.708 1.058,-5.511 0.659,-0.046 1.336,-0.077 2.047,-0.077 0.211,0 0.418,0 0.629,0.006 0.861,0.018 1.721,0.025 2.58,0.025 12.335,0.011 24.663,-1.983 34.891,-12.698 10.733,-11.239 22.11,-23.246 22.11,-23.246 l 0.932,-0.984 -1.321,-0.301 c -0.044,-0.009 -6.144,-1.39 -16.225,-1.39 -0.966,0 -1.975,0.017 -3.011,0.045 7.249,-9.413 13.426,-17.481 13.426,-17.483 l 0.822,-1.076 -1.344,-0.159 c -0.027,-0.002 -2.151,-0.255 -5.907,-0.255 -3.047,0 -7.188,0.175 -12.135,0.773 8.929,-3.99 16.896,-9.905 21.815,-20.618 z M 149.286,433.468 c -1.307,-0.826 -2.68,-1.612 -4.169,-2.327 -1.216,-0.584 -2.438,-1.171 -3.657,-1.757 4.207,-4.724 8.07,-9.755 10.726,-15.486 -1.311,5.637 -2.402,12.205 -2.9,19.57 z m 269.793,-2.327 c -1.489,0.715 -2.862,1.501 -4.169,2.327 -0.498,-7.365 -1.589,-13.934 -2.899,-19.57 2.656,5.731 6.519,10.763 10.727,15.486 -1.22,0.586 -2.443,1.173 -3.659,1.757 z"
   id="path3"
   inkscape:connector-curvature="0" />
<path
   d="m 107.129,432.56 c -10.922,-22.441 -12.11,-41.593 -12.11,-48.853 0,-0.685 0.011,-1.261 0.025,-1.725 3.514,2.505 14.508,10.345 24.946,17.832 10.019,7.202 14.012,16.685 16.004,26.95 -10.683,-5.116 -19.818,-9.465 -19.82,-9.465 l -1.221,-0.581 0.088,0.977 c -6.652,-9.939 -12.434,-20.177 -12.434,-20.177 0,0 6.713,16.375 13.861,28.217 1.131,4.811 3.135,11.58 6.623,19.438 -6.807,-2.633 -13.078,-6.637 -15.962,-12.613 z"
   id="path5"
   inkscape:connector-curvature="0"
   style="fill:#009645" />
<path
   d="m 127.117,482.204 c -4.144,0 -8.455,-0.711 -13.005,-2.393 -12.048,-4.459 -24.7,-9.192 -28.742,-10.706 0.538,-0.387 1.271,-0.897 2.198,-1.505 5.857,-3.838 19.321,-11.442 38.896,-15.436 1.736,3.324 3.729,6.775 6.022,10.305 -13.606,0.826 -30.002,4.227 -30.002,4.227 0,0 18.118,-1.442 32.289,-0.826 0.475,0.682 0.954,1.364 1.451,2.05 3.038,4.153 7.538,6.85 12.527,8.583 -6.896,3.277 -13.994,5.704 -21.634,5.701 z"
   id="path7"
   inkscape:connector-curvature="0"
   style="fill:#009645" />
<path
   d="m 162.794,448.062 c -2.647,-13.857 -1.523,-37.576 -1.523,-37.576 0,0 2.235,28.666 6.71,41.556 1.788,5.15 4.974,8.108 8.155,9.811 0.227,-1.159 0.538,-2.372 0.953,-3.638 2.152,-6.562 3.817,-13.179 3.815,-19.894 -0.002,-6.02 -1.326,-12.119 -4.852,-18.404 -6.293,-11.198 -12.943,-22.95 -15.07,-26.706 -0.282,0.561 -0.646,1.311 -1.071,2.246 -1.038,2.293 -2.424,5.676 -3.813,10.022 -2.302,7.206 -4.603,17.064 -5.324,28.976 5.363,3.745 9.157,8.427 12.02,13.607 z"
   id="path9"
   inkscape:connector-curvature="0"
   style="fill:#009645" />
<path
   d="m 137.473,467.013 c -9.376,-12.923 -14.594,-25.214 -17.466,-34.266 -1.437,-4.526 -2.287,-8.241 -2.778,-10.822 -0.206,-1.088 -0.348,-1.969 -0.442,-2.624 3.897,1.856 16.086,7.669 27.663,13.23 13.726,6.604 19.006,18.228 22.818,30.772 0.388,1.282 0.834,2.45 1.315,3.534 -3.584,0.432 -7.898,-0.164 -12.326,-3.362 -11.053,-7.982 -29.33,-30.182 -29.33,-30.182 0,0 15.306,24.22 25.707,32.493 5.673,4.5 11.894,8.965 16.402,12.114 -10.515,-0.006 -25.161,-1.956 -31.563,-10.887 z"
   id="path11"
   inkscape:connector-curvature="0"
   style="fill:#009645" />
<path
   d="m 163.279,489.29 c -9.288,4.899 -25.6,19.87 -25.6,19.87 0,0 14.269,-16.838 23.082,-22.029 4.809,-2.824 10.033,-5.564 13.81,-7.485 -2.462,-0.34 -5.241,-0.591 -8.092,-0.59 -0.016,0 -0.031,0 -0.046,0 -6.403,0 -13.057,1.295 -17.104,5.508 -8.534,8.855 -13.829,17.671 -16.989,24.267 -2.251,4.699 -3.414,8.25 -3.896,9.907 3.173,-0.997 13.086,-4.117 22.515,-7.131 11.17,-3.565 16.452,-11.861 20.695,-21.017 0.431,-0.931 0.894,-1.769 1.373,-2.541 -2.688,-0.712 -6.032,-0.726 -9.748,1.241 z"
   id="path13"
   inkscape:connector-curvature="0"
   style="fill:#009645" />
<path
   d="m 208.158,448.99 c -0.546,11.709 -7.197,18.96 -14.942,25.427 -0.789,0.656 -1.48,1.321 -2.102,1.984 -1.384,-2.411 -2.265,-5.635 -1.332,-9.731 2.33,-10.243 12.573,-29.882 12.573,-29.882 0,0 -12.564,18.141 -15.292,28.007 -1.486,5.377 -2.786,11.13 -3.666,15.271 -2.004,-4.762 -3.991,-10.97 -3.986,-16.708 0,-3.245 0.628,-6.327 2.205,-8.944 6.343,-10.534 13.487,-17.931 19.044,-22.689 2.777,-2.38 5.156,-4.1 6.838,-5.223 0.708,-0.473 1.289,-0.838 1.725,-1.103 -0.146,3.323 -0.602,13.711 -1.065,23.591 z"
   id="path15"
   inkscape:connector-curvature="0"
   style="fill:#009645" />
<path
   d="m 75.25,369.126 c -2.385,-10.375 -3.178,-19.764 -3.178,-27.673 0,-7.908 0.795,-14.336 1.586,-18.779 0.449,-2.521 0.896,-4.393 1.198,-5.54 2.861,3.232 11.813,13.348 20.297,22.989 7.5,8.535 9.569,17.775 9.578,27.36 0,3.27 -0.246,6.57 -0.603,9.886 -0.124,1.151 -0.18,2.252 -0.18,3.299 0,0.153 0.008,0.301 0.01,0.452 -3.467,-1.002 -7.203,-3.231 -10.028,-7.898 -7.053,-11.683 -15.198,-39.253 -15.198,-39.253 0,0 4.62,28.289 10.971,39.955 1.239,2.277 2.547,4.58 3.849,6.814 -0.028,0.448 -0.078,1.458 -0.078,2.97 0,1.242 0.036,2.826 0.144,4.698 -8.162,-4.38 -16.483,-10.822 -18.368,-19.28 z"
   id="path17"
   inkscape:connector-curvature="0"
   style="fill:#009645" />
<path
   d="m 141.327,373.05 c 3.139,-3.564 5.886,-6.208 7.844,-7.956 0.826,-0.737 1.508,-1.313 2.02,-1.732 0.418,4.297 1.718,17.739 2.909,30.535 0.117,1.272 0.173,2.517 0.173,3.727 0,12.888 -6.446,22.341 -14.263,31.067 -0.767,-0.369 -1.538,-0.738 -2.296,-1.102 -0.75,-4.175 -1.817,-8.273 -3.448,-12.181 2.419,-14.301 10.163,-36.142 10.163,-36.142 0,0 -8.754,17.397 -12.796,30.887 -2.083,-3.489 -4.792,-6.753 -8.319,-9.699 5.786,-12.063 12.503,-21.151 18.013,-27.404 z"
   id="path19"
   inkscape:connector-curvature="0"
   style="fill:#009645" />
<path
   d="m 118.624,448.853 c -6.355,1.962 -12.757,3.47 -19.219,3.468 -6.258,-0.003 -12.574,-1.401 -19.054,-5.187 -11.085,-6.482 -22.72,-13.332 -26.437,-15.521 0.531,-0.256 1.232,-0.581 2.099,-0.959 6.601,-2.876 22.618,-8.657 44.688,-8.657 0.076,0 0.155,0.004 0.231,0.004 1.352,3.624 2.931,7.377 4.808,11.235 0.109,0.223 0.233,0.435 0.35,0.651 -13.991,-2.32 -34.907,-1.69 -34.907,-1.69 0,0 24.666,2.356 38.443,6.457 3.122,3.194 7.192,5.59 11.51,7.395 0.439,0.635 0.819,1.28 1.149,1.925 -1.169,0.208 -2.381,0.483 -3.661,0.879 z"
   id="path21"
   inkscape:connector-curvature="0"
   style="fill:#009645" />
<path
   d="m 112.964,345.767 c 2.684,-3.916 5.09,-6.872 6.819,-8.846 0.731,-0.832 1.338,-1.487 1.797,-1.966 0.934,4.208 3.856,17.389 6.595,29.941 0.625,2.865 0.91,5.597 0.91,8.216 0.001,9.471 -3.73,17.525 -8.665,25.112 -3.161,-2.268 -6.357,-4.557 -9.377,-6.717 0.019,-14.133 5.759,-39.956 5.759,-39.956 0,0 -8.329,23.236 -9.608,37.205 -0.139,-0.1 -0.282,-0.202 -0.42,-0.301 -0.745,-2.092 -1.281,-4.669 -1.283,-7.789 0,-0.99 0.054,-2.036 0.172,-3.135 0.362,-3.348 0.611,-6.704 0.611,-10.05 0.002,-3.079 -0.211,-6.152 -0.747,-9.194 2.514,-4.903 5.082,-9.082 7.437,-12.52 z"
   id="path23"
   inkscape:connector-curvature="0"
   style="fill:#009645" />
<path
   d="m 53.605,389.048 c -8.543,-9.6 -17.49,-19.723 -20.347,-22.956 0.485,-0.065 1.098,-0.14 1.832,-0.216 2.095,-0.217 5.156,-0.433 9.008,-0.433 7.386,0 17.683,0.806 29.629,3.934 0.006,0.031 0.012,0.062 0.019,0.092 2.223,9.539 11.41,16.279 19.995,20.748 0.05,0.65 0.112,1.338 0.181,2.044 -2.001,-1.518 -4.059,-3.045 -6.106,-4.506 -10.813,-7.726 -38.314,-15.759 -38.314,-15.759 0,0 26.379,11.45 37.106,19.87 4.288,3.368 6.046,7.349 6.619,10.913 -1.173,-0.163 -2.415,-0.269 -3.751,-0.287 -13.11,-0.194 -25.737,-2.083 -35.871,-13.444 z"
   id="path25"
   inkscape:connector-curvature="0"
   style="fill:#009645" />
<path
   d="m 54.22,327.713 c -3.234,-12.111 -4.216,-22.939 -4.216,-31.62 0,-6.718 0.587,-12.151 1.173,-15.9 0.309,-1.968 0.614,-3.461 0.835,-4.437 2.973,3.13 12.268,12.923 21.079,22.265 7.703,8.173 10.128,17.227 10.514,26.674 -4.965,-5.618 -8.53,-9.644 -8.53,-9.644 l -0.899,-1.013 -0.413,1.29 c -0.013,0.038 -1.527,4.772 -2.479,12.91 -7.057,-12.556 -14.814,-35.79 -14.814,-35.79 0,0 5.605,28.101 12.358,39.542 0.612,1.037 1.24,2.076 1.874,3.113 -0.108,1.994 -0.172,4.111 -0.173,6.35 0,1.133 0.023,2.304 0.058,3.495 C 63.188,340.9 56.167,335.2 54.22,327.713 z"
   id="path27"
   inkscape:connector-curvature="0"
   style="fill:#009645" />
<path
   d="m 96.166,303.287 c 2.816,-3.821 5.325,-6.694 7.122,-8.607 0.759,-0.808 1.388,-1.44 1.863,-1.903 0.789,4.246 3.251,17.526 5.547,30.154 0.442,2.424 0.647,4.749 0.647,6.983 0.001,8.57 -3.016,15.862 -7.278,22.629 -1.526,-4.625 -3.964,-9.138 -7.753,-13.439 -0.762,-0.865 -1.527,-1.735 -2.292,-2.603 2.09,-13.086 5.776,-27.292 5.776,-27.292 0,0 -4.937,12.388 -8.257,24.478 -2.203,-2.499 -4.359,-4.942 -6.341,-7.187 -0.02,-1.522 -0.095,-3.042 -0.223,-4.557 3.701,-7.677 7.685,-13.903 11.189,-18.656 z"
   id="path29"
   inkscape:connector-curvature="0"
   style="fill:#009645" />
<path
   d="m 70.26,360.552 c -0.215,0 -0.439,0.002 -0.669,0.008 -0.84,0.017 -1.691,0.025 -2.54,0.025 -12.21,-0.011 -23.929,-1.928 -33.774,-12.223 -8.869,-9.285 -18.164,-19.084 -21.135,-22.218 0.692,-0.118 1.644,-0.265 2.837,-0.413 2.733,-0.339 6.715,-0.681 11.686,-0.681 6.973,0 15.894,0.675 26.04,2.955 0.01,0.035 0.017,0.068 0.026,0.104 2.286,8.449 10.059,14.472 17.923,18.629 0.02,0.453 0.049,0.918 0.074,1.377 -1.098,-0.754 -2.201,-1.505 -3.3,-2.233 -11.078,-7.35 -38.845,-14.406 -38.845,-14.406 0,0 26.76,10.517 37.774,18.56 2.277,1.663 3.879,3.514 4.997,5.403 0.194,1.685 0.427,3.408 0.704,5.169 -0.584,-0.033 -1.179,-0.056 -1.798,-0.056 z"
   id="path31"
   inkscape:connector-curvature="0"
   style="fill:#009645" />
<path
   d="m 40.887,272.623 c 0,-0.416 0.015,-0.831 0.043,-1.246 1.124,-15.927 5.028,-28.693 8.646,-37.474 1.809,-4.389 3.547,-7.782 4.829,-10.072 0.541,-0.967 0.999,-1.733 1.347,-2.295 1.792,3.924 7.396,16.208 12.679,27.913 2.415,5.342 3.387,10.435 3.387,15.376 0.002,7.914 -2.509,15.455 -5.68,22.865 -0.074,0.172 -0.134,0.339 -0.204,0.509 -3.304,-3.491 -6.351,-6.705 -8.736,-9.22 -2.907,-13.846 -2.661,-40.214 -2.661,-40.214 0,0 -2.879,21.21 -1.939,35.368 -0.283,-0.297 -0.44,-0.463 -0.44,-0.463 l -0.934,-0.982 -0.368,1.302 c -0.014,0.046 -1.746,6.212 -2.254,16.48 -4.369,-5.371 -7.753,-11.573 -7.715,-17.847 z"
   id="path33"
   inkscape:connector-curvature="0"
   style="fill:#009645" />
<path
   d="m 88.534,261.936 c 3.908,-2.696 7.211,-4.595 9.535,-5.817 0.98,-0.516 1.782,-0.909 2.381,-1.192 -0.636,4.269 -2.626,17.622 -4.563,30.32 -1.64,10.687 -6.938,18.036 -13.761,24.021 -1.69,-4.266 -4.216,-8.397 -7.909,-12.307 -0.161,-0.171 -0.324,-0.343 -0.486,-0.515 6.333,-12.672 16.317,-27.729 16.317,-27.729 0,0 -11.503,13.358 -18.809,25.089 -1.393,-1.476 -2.78,-2.943 -4.134,-4.374 0.144,-0.376 0.29,-0.753 0.455,-1.138 1.727,-4.039 3.275,-8.154 4.339,-12.382 5.992,-6.043 11.779,-10.626 16.635,-13.976 z"
   id="path35"
   inkscape:connector-curvature="0"
   style="fill:#009645" />
<path
   d="M 14.402,284.09 C 9.04,272.411 3.438,260.126 1.649,256.198 c 0.654,0.107 1.533,0.265 2.617,0.49 6.402,1.333 19.817,5.026 35.134,14.474 -0.002,0.036 -0.006,0.07 -0.009,0.105 -0.033,0.45 -0.047,0.902 -0.047,1.354 0.019,7.384 4.155,14.344 9.17,20.144 -0.013,0.458 -0.024,0.923 -0.033,1.393 -0.328,-0.435 -0.655,-0.872 -0.984,-1.301 -8.081,-10.553 -32.041,-26.268 -32.041,-26.268 0,0 21.883,18.654 29.681,29.839 3.118,4.482 3.635,8.807 3.137,12.385 -1.073,-0.497 -2.229,-0.962 -3.501,-1.37 -12.475,-4.025 -24,-9.511 -30.371,-23.353 z"
   id="path37"
   inkscape:connector-curvature="0"
   style="fill:#009645" />
<path
   d="m 18.331,306.252 c 0.97,-0.063 2.437,-0.129 4.346,-0.129 4.258,0 10.685,0.335 18.552,1.756 1.02,0.356 2.043,0.705 3.072,1.035 1.969,0.634 3.665,1.394 5.132,2.22 0.367,2.911 0.867,5.956 1.494,9.095 -8.883,-4.029 -16.808,-6.96 -16.808,-6.96 0,0 8.355,4.344 17.397,9.774 0.243,1.088 0.493,2.18 0.773,3.292 -7.688,-1.677 -14.654,-2.442 -20.61,-2.708 -5.956,-7.733 -11.322,-14.732 -13.348,-17.375 z"
   id="path39"
   inkscape:connector-curvature="0"
   style="fill:#009645" />
<path
   d="m 71.29,419.145 c -11.792,-5.09 -24.171,-10.476 -28.126,-12.196 0.557,-0.357 1.315,-0.829 2.272,-1.386 3.307,-1.928 8.942,-4.862 16.594,-7.612 5.296,3.069 10.979,4.625 16.8,5.395 -9.885,0.781 -18.455,2.096 -18.455,2.096 0,0 21.554,-0.589 35.955,1.268 0.939,4.068 2.175,8.465 3.818,13.13 -0.711,0.229 -1.424,0.449 -2.141,0.651 -6.04,0.129 -11.596,0.677 -16.607,1.46 -3.275,-0.426 -6.634,-1.311 -10.11,-2.806 z"
   id="path41"
   inkscape:connector-curvature="0"
   style="fill:#009645" />
<path
   d="m 457.068,432.56 c 10.922,-22.441 12.109,-41.593 12.109,-48.853 0,-0.685 -0.011,-1.261 -0.024,-1.725 -3.514,2.505 -14.508,10.345 -24.945,17.832 -10.02,7.202 -14.013,16.685 -16.004,26.95 10.682,-5.116 19.817,-9.465 19.819,-9.465 l 1.221,-0.581 -0.088,0.977 c 6.652,-9.939 12.434,-20.177 12.434,-20.177 0,0 -6.713,16.375 -13.86,28.217 -1.132,4.811 -3.136,11.58 -6.623,19.438 6.806,-2.633 13.077,-6.637 15.961,-12.613 z"
   id="path43"
   inkscape:connector-curvature="0"
   style="fill:#009645" />
<path
   d="m 437.08,482.204 c 4.144,0 8.454,-0.711 13.005,-2.393 12.048,-4.459 24.7,-9.192 28.742,-10.706 -0.538,-0.387 -1.271,-0.897 -2.199,-1.505 -5.856,-3.838 -19.319,-11.442 -38.895,-15.436 -1.735,3.324 -3.729,6.775 -6.023,10.305 13.607,0.826 30.004,4.227 30.004,4.227 0,0 -18.118,-1.442 -32.289,-0.826 -0.475,0.682 -0.954,1.364 -1.451,2.05 -3.038,4.153 -7.538,6.85 -12.526,8.583 6.893,3.277 13.992,5.704 21.632,5.701 z"
   id="path45"
   inkscape:connector-curvature="0"
   style="fill:#009645" />
<path
   d="m 401.403,448.062 c 2.646,-13.857 1.523,-37.576 1.523,-37.576 0,0 -2.235,28.666 -6.711,41.556 -1.787,5.15 -4.974,8.108 -8.154,9.811 -0.228,-1.159 -0.538,-2.372 -0.953,-3.638 -2.152,-6.562 -3.817,-13.179 -3.815,-19.894 0.002,-6.02 1.325,-12.119 4.852,-18.404 6.293,-11.198 12.943,-22.95 15.07,-26.706 0.282,0.561 0.646,1.311 1.07,2.246 1.038,2.293 2.425,5.676 3.813,10.022 2.303,7.206 4.604,17.064 5.323,28.976 -5.361,3.745 -9.156,8.427 -12.018,13.607 z"
   id="path47"
   inkscape:connector-curvature="0"
   style="fill:#009645" />
<path
   d="m 426.723,467.013 c 9.378,-12.923 14.595,-25.214 17.467,-34.266 1.438,-4.526 2.287,-8.241 2.777,-10.822 0.206,-1.088 0.348,-1.969 0.442,-2.624 -3.896,1.856 -16.086,7.669 -27.663,13.23 -13.726,6.604 -19.006,18.228 -22.817,30.772 -0.388,1.282 -0.834,2.45 -1.314,3.534 3.584,0.432 7.897,-0.164 12.325,-3.362 11.054,-7.982 29.33,-30.182 29.33,-30.182 0,0 -15.305,24.22 -25.707,32.493 -5.673,4.5 -11.894,8.965 -16.401,12.114 10.513,-0.006 25.16,-1.956 31.561,-10.887 z"
   id="path49"
   inkscape:connector-curvature="0"
   style="fill:#009645" />
<path
   d="m 400.917,489.29 c 9.288,4.899 25.6,19.87 25.6,19.87 0,0 -14.268,-16.838 -23.082,-22.029 -4.809,-2.824 -10.033,-5.564 -13.809,-7.485 2.461,-0.34 5.239,-0.591 8.091,-0.59 0.016,0 0.031,0 0.047,0 6.403,0 13.056,1.295 17.104,5.508 8.534,8.855 13.829,17.671 16.99,24.267 2.25,4.699 3.412,8.25 3.896,9.907 -3.174,-0.997 -13.086,-4.117 -22.516,-7.131 -11.171,-3.565 -16.451,-11.861 -20.694,-21.017 -0.431,-0.931 -0.894,-1.769 -1.373,-2.541 2.687,-0.712 6.031,-0.726 9.746,1.241 z"
   id="path51"
   inkscape:connector-curvature="0"
   style="fill:#009645" />
<path
   d="m 356.038,448.99 c 0.546,11.709 7.198,18.96 14.942,25.427 0.788,0.656 1.479,1.321 2.102,1.984 1.384,-2.411 2.266,-5.635 1.331,-9.731 -2.329,-10.243 -12.572,-29.882 -12.572,-29.882 0,0 12.563,18.141 15.292,28.007 1.486,5.377 2.786,11.13 3.665,15.271 2.005,-4.762 3.992,-10.97 3.987,-16.708 0,-3.245 -0.628,-6.327 -2.205,-8.944 -6.343,-10.534 -13.487,-17.931 -19.045,-22.689 -2.776,-2.38 -5.155,-4.1 -6.837,-5.223 -0.708,-0.473 -1.288,-0.838 -1.725,-1.103 0.146,3.323 0.603,13.711 1.065,23.591 z"
   id="path53"
   inkscape:connector-curvature="0"
   style="fill:#009645" />
<path
   d="m 488.947,369.126 c 2.385,-10.375 3.178,-19.764 3.178,-27.673 0,-7.908 -0.795,-14.336 -1.587,-18.779 -0.449,-2.521 -0.895,-4.393 -1.198,-5.54 -2.86,3.232 -11.813,13.348 -20.297,22.989 -7.501,8.535 -9.569,17.775 -9.577,27.36 0,3.27 0.245,6.57 0.603,9.886 0.125,1.151 0.18,2.252 0.18,3.299 0,0.153 -0.008,0.301 -0.011,0.452 3.469,-1.002 7.203,-3.231 10.028,-7.898 7.054,-11.683 15.199,-39.253 15.199,-39.253 0,0 -4.621,28.289 -10.973,39.955 -1.238,2.277 -2.547,4.58 -3.848,6.814 0.027,0.448 0.076,1.458 0.076,2.97 0,1.242 -0.035,2.826 -0.144,4.698 8.165,-4.38 16.486,-10.822 18.371,-19.28 z"
   id="path55"
   inkscape:connector-curvature="0"
   style="fill:#009645" />
<path
   d="m 422.869,373.05 c -3.141,-3.564 -5.886,-6.208 -7.845,-7.956 -0.825,-0.737 -1.508,-1.313 -2.021,-1.732 -0.417,4.297 -1.718,17.739 -2.907,30.535 -0.117,1.272 -0.175,2.517 -0.175,3.727 0,12.888 6.447,22.341 14.264,31.067 0.767,-0.369 1.538,-0.738 2.296,-1.102 0.751,-4.175 1.817,-8.273 3.449,-12.181 -2.42,-14.301 -10.163,-36.142 -10.163,-36.142 0,0 8.754,17.397 12.796,30.887 2.084,-3.489 4.792,-6.753 8.319,-9.699 -5.786,-12.063 -12.502,-21.151 -18.013,-27.404 z"
   id="path57"
   inkscape:connector-curvature="0"
   style="fill:#009645" />
<path
   d="m 445.573,448.853 c 6.355,1.962 12.757,3.47 19.219,3.468 6.258,-0.003 12.574,-1.401 19.055,-5.187 11.084,-6.482 22.719,-13.332 26.437,-15.521 -0.532,-0.256 -1.233,-0.581 -2.101,-0.959 -6.599,-2.876 -22.617,-8.657 -44.687,-8.657 -0.076,0 -0.155,0.004 -0.23,0.004 -1.353,3.624 -2.932,7.377 -4.809,11.235 -0.109,0.223 -0.233,0.435 -0.351,0.651 13.991,-2.32 34.908,-1.69 34.908,-1.69 0,0 -24.667,2.356 -38.443,6.457 -3.122,3.194 -7.191,5.59 -11.511,7.395 -0.439,0.635 -0.819,1.28 -1.148,1.925 1.168,0.208 2.381,0.483 3.661,0.879 z"
   id="path59"
   inkscape:connector-curvature="0"
   style="fill:#009645" />
<path
   d="m 451.233,345.767 c -2.684,-3.916 -5.091,-6.872 -6.819,-8.846 -0.731,-0.832 -1.339,-1.487 -1.797,-1.966 -0.934,4.208 -3.856,17.389 -6.595,29.941 -0.625,2.865 -0.91,5.597 -0.91,8.216 -0.002,9.471 3.729,17.525 8.664,25.112 3.162,-2.268 6.357,-4.557 9.378,-6.717 -0.02,-14.133 -5.76,-39.956 -5.76,-39.956 0,0 8.329,23.236 9.607,37.205 0.141,-0.1 0.283,-0.202 0.42,-0.301 0.746,-2.092 1.282,-4.669 1.284,-7.789 0,-0.99 -0.055,-2.036 -0.174,-3.135 -0.361,-3.348 -0.61,-6.704 -0.61,-10.05 -0.002,-3.079 0.212,-6.152 0.748,-9.194 -2.513,-4.903 -5.082,-9.082 -7.436,-12.52 z"
   id="path61"
   inkscape:connector-curvature="0"
   style="fill:#009645" />
<path
   d="m 510.591,389.048 c 8.544,-9.6 17.49,-19.723 20.347,-22.956 -0.486,-0.065 -1.098,-0.14 -1.832,-0.216 -2.095,-0.217 -5.156,-0.433 -9.008,-0.433 -7.385,0 -17.683,0.806 -29.628,3.934 -0.007,0.031 -0.013,0.062 -0.02,0.092 -2.224,9.539 -11.409,16.279 -19.995,20.748 -0.05,0.65 -0.112,1.338 -0.182,2.044 2.002,-1.518 4.06,-3.045 6.106,-4.506 10.813,-7.726 38.314,-15.759 38.314,-15.759 0,0 -26.379,11.45 -37.105,19.87 -4.287,3.368 -6.046,7.349 -6.619,10.913 1.173,-0.163 2.415,-0.269 3.751,-0.287 13.11,-0.194 25.737,-2.083 35.871,-13.444 z"
   id="path63"
   inkscape:connector-curvature="0"
   style="fill:#009645" />
<path
   d="m 509.977,327.713 c 3.233,-12.111 4.216,-22.939 4.216,-31.62 0,-6.718 -0.587,-12.151 -1.175,-15.9 -0.307,-1.968 -0.613,-3.461 -0.834,-4.437 -2.973,3.13 -12.269,12.923 -21.079,22.265 -7.703,8.173 -10.129,17.227 -10.514,26.674 4.965,-5.618 8.53,-9.644 8.53,-9.644 l 0.899,-1.013 0.413,1.29 c 0.014,0.038 1.527,4.772 2.479,12.91 7.057,-12.556 14.814,-35.79 14.814,-35.79 0,0 -5.606,28.101 -12.359,39.542 -0.611,1.037 -1.24,2.076 -1.874,3.113 0.108,1.994 0.173,4.111 0.173,6.35 0,1.133 -0.022,2.304 -0.058,3.495 7.4,-4.048 14.421,-9.748 16.369,-17.235 z"
   id="path65"
   inkscape:connector-curvature="0"
   style="fill:#009645" />
<path
   d="m 468.031,303.287 c -2.815,-3.821 -5.324,-6.694 -7.122,-8.607 -0.759,-0.808 -1.388,-1.44 -1.862,-1.903 -0.788,4.246 -3.252,17.526 -5.547,30.154 -0.442,2.424 -0.647,4.749 -0.647,6.983 -0.002,8.57 3.017,15.862 7.278,22.629 1.526,-4.625 3.964,-9.138 7.752,-13.439 0.763,-0.865 1.528,-1.735 2.293,-2.603 -2.091,-13.086 -5.777,-27.292 -5.777,-27.292 0,0 4.938,12.388 8.259,24.478 2.201,-2.499 4.357,-4.942 6.34,-7.187 0.02,-1.522 0.096,-3.042 0.223,-4.557 -3.703,-7.677 -7.686,-13.903 -11.19,-18.656 z"
   id="path67"
   inkscape:connector-curvature="0"
   style="fill:#009645" />
<path
   d="m 493.937,360.552 c 0.215,0 0.438,0.002 0.669,0.008 0.841,0.017 1.69,0.025 2.54,0.025 12.209,-0.011 23.928,-1.928 33.774,-12.223 8.868,-9.285 18.164,-19.084 21.135,-22.218 -0.693,-0.118 -1.644,-0.265 -2.837,-0.413 -2.732,-0.339 -6.715,-0.681 -11.686,-0.681 -6.973,0 -15.893,0.675 -26.04,2.955 -0.01,0.035 -0.017,0.068 -0.026,0.104 -2.286,8.449 -10.058,14.472 -17.923,18.629 -0.02,0.453 -0.049,0.918 -0.074,1.377 1.099,-0.754 2.201,-1.505 3.3,-2.233 11.079,-7.35 38.846,-14.406 38.846,-14.406 0,0 -26.762,10.517 -37.774,18.56 -2.277,1.663 -3.879,3.514 -4.997,5.403 -0.193,1.685 -0.428,3.408 -0.704,5.169 0.582,-0.033 1.178,-0.056 1.797,-0.056 z"
   id="path69"
   inkscape:connector-curvature="0"
   style="fill:#009645" />
<path
   d="m 523.31,272.623 c 0,-0.416 -0.016,-0.831 -0.044,-1.246 -1.124,-15.927 -5.028,-28.693 -8.646,-37.474 -1.809,-4.389 -3.547,-7.782 -4.829,-10.072 -0.54,-0.967 -0.998,-1.733 -1.348,-2.295 -1.792,3.924 -7.395,16.208 -12.679,27.913 -2.413,5.342 -3.386,10.435 -3.386,15.376 -0.002,7.914 2.508,15.455 5.68,22.865 0.074,0.172 0.133,0.339 0.203,0.509 3.304,-3.491 6.352,-6.705 8.736,-9.22 2.907,-13.846 2.661,-40.214 2.661,-40.214 0,0 2.879,21.21 1.938,35.368 0.284,-0.297 0.44,-0.463 0.44,-0.463 l 0.934,-0.982 0.368,1.302 c 0.014,0.046 1.746,6.212 2.254,16.48 4.371,-5.371 7.755,-11.573 7.718,-17.847 z"
   id="path71"
   inkscape:connector-curvature="0"
   style="fill:#009645" />
<path
   d="m 475.662,261.936 c -3.907,-2.696 -7.212,-4.595 -9.535,-5.817 -0.98,-0.516 -1.781,-0.909 -2.381,-1.192 0.636,4.269 2.627,17.622 4.563,30.32 1.64,10.687 6.938,18.036 13.761,24.021 1.692,-4.266 4.217,-8.397 7.91,-12.307 0.161,-0.171 0.324,-0.343 0.486,-0.515 -6.333,-12.672 -16.317,-27.729 -16.317,-27.729 0,0 11.503,13.358 18.808,25.089 1.395,-1.476 2.781,-2.943 4.134,-4.374 -0.143,-0.376 -0.289,-0.753 -0.454,-1.138 -1.727,-4.039 -3.275,-8.154 -4.339,-12.382 -5.992,-6.043 -11.78,-10.626 -16.636,-13.976 z"
   id="path73"
   inkscape:connector-curvature="0"
   style="fill:#009645" />
<path
   d="m 549.795,284.09 c 5.36,-11.679 10.963,-23.964 12.753,-27.892 -0.654,0.107 -1.533,0.265 -2.617,0.49 -6.403,1.333 -19.817,5.026 -35.135,14.474 0.003,0.036 0.007,0.07 0.009,0.105 0.033,0.45 0.047,0.902 0.047,1.354 -0.019,7.384 -4.154,14.344 -9.17,20.144 0.014,0.458 0.024,0.923 0.033,1.393 0.328,-0.435 0.655,-0.872 0.983,-1.301 8.081,-10.553 32.04,-26.268 32.04,-26.268 0,0 -21.882,18.654 -29.68,29.839 -3.118,4.482 -3.636,8.807 -3.138,12.385 1.073,-0.497 2.229,-0.962 3.501,-1.37 12.478,-4.025 24.003,-9.511 30.374,-23.353 z"
   id="path75"
   inkscape:connector-curvature="0"
   style="fill:#009645" />
<path
   d="m 545.866,306.252 c -0.971,-0.063 -2.437,-0.129 -4.347,-0.129 -4.258,0 -10.685,0.335 -18.551,1.756 -1.021,0.356 -2.044,0.705 -3.072,1.035 -1.97,0.634 -3.665,1.394 -5.133,2.22 -0.366,2.911 -0.866,5.956 -1.494,9.095 8.884,-4.029 16.808,-6.96 16.808,-6.96 0,0 -8.355,4.344 -17.396,9.774 -0.243,1.088 -0.494,2.18 -0.774,3.292 7.688,-1.677 14.655,-2.442 20.611,-2.708 5.955,-7.733 11.321,-14.732 13.348,-17.375 z"
   id="path77"
   inkscape:connector-curvature="0"
   style="fill:#009645" />
<path
   d="m 492.908,419.145 c 11.791,-5.09 24.171,-10.476 28.126,-12.196 -0.559,-0.357 -1.316,-0.829 -2.273,-1.386 -3.306,-1.928 -8.942,-4.862 -16.594,-7.612 -5.297,3.069 -10.979,4.625 -16.8,5.395 9.886,0.781 18.455,2.096 18.455,2.096 0,0 -21.554,-0.589 -35.955,1.268 -0.938,4.068 -2.175,8.465 -3.817,13.13 0.711,0.229 1.424,0.449 2.141,0.651 6.04,0.129 11.596,0.677 16.606,1.46 3.274,-0.426 6.633,-1.311 10.111,-2.806 z"
   id="path79"
   inkscape:connector-curvature="0"
   style="fill:#009645" />
<path
   d="m 395.596,138.291 c -15.708,-15.365 -34.662,-27.551 -55.763,-35.511 0.817,-1.232 1.636,-2.465 2.451,-3.695 h 45.195 c 7.958,12.004 16.127,24.303 22.047,33.223 l 0.471,0.708 h 26.655 L 373.655,38.124 H 372.807 356.1 l -38.523,58.038 c -11.415,-2.52 -23.289,-3.857 -35.481,-3.857 -12.194,0 -24.068,1.337 -35.484,3.858 l -3.235,-4.874 h 45.735 c 8.12,0 15.213,-1.123 21.267,-3.427 6.118,-2.378 11.229,-5.627 15.29,-9.75 4.158,-4.108 7.254,-9.018 9.27,-14.653 2.011,-5.615 3.006,-11.732 3.004,-18.311 0,-7.498 -1.245,-14.103 -3.787,-19.779 C 331.75,19.763 328.299,15.015 323.824,11.231 319.479,7.464 314.261,4.65 308.247,2.779 302.345,0.923 295.961,0 289.113,0 h -46.509 v 90.122 l -34.519,-52 h -17.55 l -0.472,0.709 -62.517,94.184 h 26.646 l 0.472,-0.708 c 5.925,-8.92 14.088,-21.222 22.051,-33.225 h 45.19 c 0.817,1.23 1.635,2.465 2.454,3.698 -21.096,7.96 -40.048,20.145 -55.755,35.508 -29.048,28.411 -47.027,67.686 -47.027,111.059 0,43.371 17.979,82.649 47.027,111.061 13.512,13.216 29.424,24.083 47.037,31.932 27.533,49.888 63.612,76.144 63.895,76.381 l 2.584,1.883 2.582,-1.885 c 0.283,-0.237 36.319,-26.502 63.841,-76.371 17.62,-7.849 33.538,-18.719 47.054,-31.939 29.048,-28.412 47.025,-67.69 47.023,-111.061 10e-4,-43.369 -17.976,-82.646 -47.024,-111.057 z m -91.192,-71.87 c -2.262,1.902 -4.821,3.267 -7.719,4.112 -2.967,0.861 -6.016,1.298 -9.175,1.298 H 268.675 V 19.462 h 14.746 c 5.5,0 10.053,0.693 13.597,1.997 3.727,1.275 6.582,3.066 8.714,5.39 2.15,2.359 3.684,5.189 4.594,8.591 1.034,3.414 1.549,7.248 1.549,11.561 0,4.701 -0.714,8.596 -2.062,11.721 -1.378,3.179 -3.184,5.728 -5.409,7.699 z m -97.237,10.458 h -15.716 c 3.087,-4.648 5.795,-8.727 7.862,-11.835 2.061,3.11 4.768,7.188 7.854,11.835 z m 165.567,0 H 357.02 c 3.09,-4.648 5.796,-8.728 7.856,-11.838 2.067,3.11 4.772,7.189 7.858,11.838 z"
   id="path81"
   inkscape:connector-curvature="0" />
<path
   d="m 206.382,41.3 h -14.148 l -58.773,88.544 h 19.029 c 6,-9.035 14.147,-21.313 22.049,-33.224 l 0.47,-0.709 h 48.601 l 0.47,0.709 c 1.111,1.676 2.228,3.357 3.342,5.038 5.177,-1.834 10.48,-3.412 15.89,-4.725 L 206.382,41.3 z m -17.891,38.754 h -2.961 l 1.639,-2.466 c 4.508,-6.787 8.358,-12.584 10.825,-16.294 l 1.324,-1.994 1.322,1.996 c 2.452,3.708 6.303,9.505 10.811,16.292 l 1.641,2.466 h -24.601 z"
   id="path83"
   inkscape:connector-curvature="0"
   style="fill:#f7e017" />
<path
   d="m 340.111,96.619 0.472,-0.708 h 48.604 l 0.47,0.71 c 7.893,11.911 16.047,24.188 22.045,33.223 h 19.031 L 371.955,41.299 H 357.806 L 320.88,96.931 c 5.409,1.313 10.713,2.89 15.891,4.724 1.113,-1.679 2.228,-3.361 3.34,-5.036 z m 12.625,-19.03 c 4.512,-6.787 8.359,-12.584 10.815,-16.293 l 1.318,-1.991 1.326,1.989 c 2.469,3.712 6.313,9.509 10.819,16.296 l 1.635,2.466 h -24.591 -2.964 l 1.642,-2.467 z"
   id="path85"
   inkscape:connector-curvature="0"
   style="fill:#f7e017" />
<path
   d="m 309.237,84.902 c 5.761,-2.242 10.462,-5.252 14.175,-9.022 l 1.132,1.114 -1.115,-1.129 c 3.822,-3.779 6.649,-8.252 8.52,-13.473 1.878,-5.238 2.818,-10.982 2.818,-17.241 0,-7.149 -1.186,-13.295 -3.519,-18.504 -2.243,-5.221 -5.386,-9.527 -9.49,-13 -4.001,-3.468 -8.804,-6.072 -14.46,-7.835 -5.568,-1.75 -11.621,-2.633 -18.186,-2.633 h -43.334 v 84.938 h 43.334 c 7.829,10e-4 14.539,-1.087 20.125,-3.215 z M 265.501,75.006 V 16.29 h 17.919 c 5.763,0 10.667,0.713 14.658,2.178 4.085,1.393 7.447,3.459 9.994,6.239 2.507,2.744 4.296,6.072 5.305,9.865 1.125,3.72 1.672,7.866 1.672,12.43 0,5.019 -0.759,9.346 -2.324,12.979 -1.533,3.546 -3.612,6.518 -6.229,8.829 l -1.05,-1.19 1.021,1.213 c -2.598,2.194 -5.583,3.787 -8.896,4.748 -3.251,0.945 -6.609,1.425 -10.061,1.425 h -22.009 z"
   id="path87"
   inkscape:connector-curvature="0"
   style="fill:#f7e017" />
<path
   d="m 426.376,252.446 c 3.233,-2.425 8.569,-7.167 12.935,-11.148 0.14,2.667 0.213,5.351 0.213,8.051 0,36.36 -12.891,69.763 -34.447,96.109 2.91,-11.301 1.412,-20.554 0.365,-24.778 3.573,-5.21 8.182,-13.52 10.834,-24.549 3.488,-14.552 4.801,-31.977 5.247,-39.986 1.042,-0.814 2.58,-1.994 4.853,-3.699 z"
   id="path89"
   inkscape:connector-curvature="0"
   style="fill:#ffffff" />
<path
   d="m 393.432,140.505 c 7.21,7.054 13.72,14.788 19.427,23.093 -9.077,-3.163 -17.16,-4.59 -21.35,-5.171 -4.542,-6.229 -11.519,-14.059 -21.509,-20.976 -14.861,-10.28 -28.854,-14.73 -35.409,-16.4 -2.473,-4.237 -8.165,-13.609 -13.432,-19.455 -0.573,-0.637 -1.199,-1.255 -1.854,-1.858 28.537,6.762 54.034,21.117 74.127,40.767 z"
   id="path91"
   inkscape:connector-curvature="0"
   style="fill:#ffffff" />
<path
   d="m 311.113,127.128 c 8.151,-2.397 15.704,-3.308 20.269,-3.654 0.492,0.105 1.126,0.248 1.904,0.441 6.037,1.49 20.081,5.787 34.954,16.081 9.886,6.841 16.733,14.637 21.103,20.714 0.906,1.261 1.7,2.442 2.398,3.531 0.532,2.741 0.841,6.69 0.591,12.395 -0.599,13.828 -4.466,25.785 -6.16,30.429 l -0.116,-2.367 h -4.177 l -69.785,0.015 c -8.779,-7.796 -20.76,-15.623 -24.538,-18.032 0.564,-5.29 1.114,-12.086 1.116,-18.558 -0.009,-9.595 -2.379,-20.988 -3.748,-26.782 4.201,-3.107 15.683,-11.125 26.189,-14.213 z"
   id="path93"
   inkscape:connector-curvature="0"
   style="fill:#ffffff" />
<path
   d="m 281.778,141.487 c 0.422,1.758 0.963,4.148 1.508,6.919 1.148,5.843 2.291,13.32 2.289,19.716 0,6.363 -0.552,13.131 -1.114,18.375 -2.042,0.773 -5.659,2.525 -10.479,6.386 -4.442,3.549 -12.194,8.374 -17.994,11.841 l -71.746,0.015 c -2.278,-3.348 -5.414,-9.735 -5.414,-19.59 0,-10.351 4.494,-21.034 7.475,-26.984 3.848,-5.677 10.139,-12.466 20.418,-18.899 7.607,-4.758 18.573,-9.197 27.594,-12.405 0.994,-0.354 1.96,-0.69 2.9,-1.014 6.857,1.5 19.415,4.501 29.029,8.244 9.033,3.513 13.506,6.048 15.534,7.396 z"
   id="path95"
   inkscape:connector-curvature="0"
   style="fill:#ffffff" />
<path
   d="m 170.77,140.505 c 20.945,-20.486 47.765,-35.216 77.779,-41.588 -3.508,4.153 -8.543,10.576 -10.93,15.827 -2.629,5.792 -4.183,8.354 -4.91,9.403 -9.014,3.23 -19.825,7.629 -27.63,12.495 -9.258,5.78 -15.453,11.91 -19.598,17.371 -2.419,0.582 -6.28,1.741 -12.066,4.056 -6.632,2.649 -14.764,3.28 -20.527,3.335 5.33,-7.476 11.312,-14.473 17.882,-20.899 z"
   id="path97"
   inkscape:connector-curvature="0"
   style="fill:#ffffff" />
<path
   d="m 164.674,351.875 c -24.877,-27.232 -40,-63.146 -40,-102.525 0,-3.508 0.132,-6.986 0.368,-10.436 1.461,0.792 2.924,1.691 4.277,2.707 4.408,3.306 11.173,11.327 14.697,15.665 0.374,8.867 1.868,22.844 7.049,37.451 4.351,12.263 9.895,21.723 14.332,28.101 -0.541,4.88 -1.603,16.832 -0.723,29.037 z"
   id="path99"
   inkscape:connector-curvature="0"
   style="fill:#ffffff" />
<path
   d="m 168.273,321.548 c -4.36,-6.192 -9.943,-15.585 -14.29,-27.847 -5.117,-14.408 -6.551,-28.29 -6.889,-36.922 1.143,-3.945 3.961,-11.316 10.839,-22.122 5.894,-9.259 13.841,-16.453 19.869,-21.093 -0.029,1.595 -0.052,3.569 -0.052,5.904 0.006,19.155 1.5,61.972 13.146,108.696 -0.897,-0.212 -1.826,-0.438 -2.789,-0.679 -10.106,-2.527 -16.559,-4.718 -19.834,-5.937 z"
   id="path101"
   inkscape:connector-curvature="0"
   style="fill:#ffffff" />
<path
   d="m 372.216,332.397 c 12.638,-48.354 14.223,-93.2 14.23,-112.949 0,-5.201 -0.11,-8.65 -0.161,-9.97 2.107,0.949 7.854,4.287 16.889,15.12 8.695,10.442 13.48,23.928 15.331,30.021 -0.133,2.611 -0.384,6.746 -0.83,11.71 -0.769,8.563 -2.118,19.534 -4.411,29.079 -2.272,9.467 -6.061,16.854 -9.276,21.863 -0.841,1.313 -1.642,2.457 -2.365,3.436 -1.849,1.241 -4.745,2.961 -9.291,5.228 -7.51,3.762 -15.763,5.654 -20.116,6.462 z"
   id="path103"
   inkscape:connector-curvature="0"
   style="fill:#ffffff" />
<path
   d="m 374.873,216.175 -188.337,0.04 c -0.01,0.988 -0.016,2.073 -0.016,3.254 -0.006,20.396 1.775,68.82 16.255,119.181 19.998,69.742 67.692,111.612 79.337,120.977 1.628,-1.312 3.962,-3.261 6.833,-5.837 5.873,-5.27 13.979,-13.162 22.805,-23.562 15.53,-18.294 33.269,-44.337 45.138,-77.544 0.601,-1.905 1.188,-3.825 1.748,-5.773 19.339,-67.302 16.237,-130.736 16.237,-130.736 z"
   id="path105"
   inkscape:connector-curvature="0"
   style="fill:#005ec4" />
<path
   d="m 282.113,459.627 c 1.628,-1.312 3.962,-3.261 6.833,-5.837 5.873,-5.27 13.979,-13.162 22.805,-23.562 4.517,-5.321 9.221,-11.318 13.912,-17.935 l -2.091,2.74 c 0,0 -12.368,0.386 -17.164,5.019 -4.779,4.617 8.959,-11.014 11.923,-11.931 2.963,-0.916 2.055,1.825 4.557,1.825 1.768,0 5.35,-2.688 7.333,-4.293 8.342,-12.58 16.427,-27.206 23.141,-43.777 -0.278,-0.63 -0.55,-1.271 -0.806,-1.939 -0.576,-1.494 -1.398,-2.475 -2.351,-3.113 -1.227,-0.089 -3.866,-0.004 -4.621,2.248 -0.994,2.972 -8.026,10.209 -11.785,11.991 -0.205,0.095 -0.394,0.145 -0.54,0.171 -2.587,2.577 -6.774,4.394 -13.336,7.126 -7.134,2.963 -8.265,4.557 -8.949,7.297 -0.539,2.106 0.3,3.399 0.702,3.88 -0.839,-0.865 -4.188,-4.085 -7.151,-3.88 -3.426,0.223 -3.88,-1.147 -3.88,-1.147 0,0 5.541,-2.278 7.819,-4.103 2.279,-1.824 2.057,-5.078 2.057,-5.078 0,0 7.356,3.186 10.088,-0.917 2.741,-4.103 -3.939,-1.533 -4.625,-5.704 -0.685,-4.162 0.223,-7.356 -1.815,-9.182 -2.056,-1.824 8.273,-6.158 8.273,-6.158 l -3.647,4.796 c 0,0 3.871,9.645 5.926,9.413 2.056,-0.231 3.717,-0.848 6.903,-3.194 3.186,-2.347 6.458,-7.588 6.458,-7.588 l -0.078,0.437 c 0.353,-0.471 0.712,-0.865 1.055,-1.122 0.11,-0.083 0.254,-0.17 0.418,-0.261 -0.028,-0.208 0.012,-0.477 0.146,-0.835 1.645,-4.368 -4.719,-15.109 -7.451,-16.753 -2.74,-1.645 -2.192,-3.083 -1.644,-8.548 0.548,-5.464 -12.368,-11.828 -12.368,-11.828 0,0 -0.213,-1.128 -0.901,-2.314 -0.097,0.069 -0.188,0.135 -0.298,0.217 -1.824,1.369 -3.186,6.843 -4.625,9.112 -1.438,2.278 -10.483,3.717 -10.483,3.717 0,0 2.279,-1.37 3.872,-2.741 1.602,-1.36 2.963,-4.847 2.278,-7.811 -0.677,-2.963 0.916,-5.31 0.916,-5.31 l 0.198,-0.262 c -1.612,-0.996 -2.48,-3.211 -3.765,-5.012 -1.832,1.514 -3.925,4.181 -4.638,8.751 -0.899,5.721 -9.413,4.728 -9.867,7.981 -0.454,3.272 2.115,6.235 -1.602,7.597 -3.718,1.371 -19.284,11.846 -19.737,15.117 -0.458,3.255 -11.464,6.903 -11.464,9.636 0,2.731 1.37,9.874 -2.051,13.062 -3.421,3.186 -8.282,3.87 -8.282,3.87 0,0 3.421,-12.076 1.143,-10.928 -2.283,1.13 -4.719,9.558 -8.428,10.705 -3.721,1.14 -9.806,1.661 -13.296,1.661 -3.482,0 -3.028,-1.207 -3.028,-1.207 0,0 3.713,-1.824 5.764,-2.732 2.052,-0.915 8.103,-8.358 9.473,-12.229 1.366,-3.872 7.032,-13.019 12.051,-13.704 5.015,-0.685 15.382,-2.243 19.485,-4.06 4.106,-1.833 13.969,-10.038 14.431,-13.515 0.075,-0.572 0.168,-1.66 0.271,-3.067 -0.117,0.349 -0.185,0.566 -0.185,0.566 0,0 -1.704,-4.132 -3.974,-6.4 -2.092,0.753 -5.407,2.254 -4.775,4.036 0.912,2.57 -1.657,6.903 -4.625,7.366 -2.964,0.454 -4.946,-1.662 -8.437,3.417 -3.49,5.088 -7.365,7.597 -9.64,7.134 -2.278,-0.454 -6.226,5.465 -8.731,6.835 -2.509,1.371 -8.955,-1.199 -11.01,2.056 -2.052,3.254 -8.278,16.094 -11.468,17.686 -3.187,1.603 -8.475,2.373 -8.475,2.373 0,0 6.629,-2.227 6.963,-5.653 1.07,-11.022 12.526,-19.879 13.892,-19.879 1.371,0 5.991,0.463 8.955,-0.452 2.968,-0.908 7.37,-9.867 10.106,-9.867 2.728,0 9.182,-5.481 12.372,-6.39 3.194,-0.908 4.333,-8.728 2.056,-9.404 -2.283,-0.686 -2.968,-7.365 -2.968,-7.365 l 0.539,0.235 c -2.837,-2.153 -8.359,7.354 -10.997,12.638 -2.737,5.473 -6.368,1.636 -6.368,1.636 0,0 -0.667,0.538 -1.675,1.359 -1.47,2.214 -3.842,5.489 -5.914,6.982 -3.271,2.381 -6.042,3.563 -7.228,3.169 -0.613,-0.203 0.956,-1.979 2.622,-3.658 -2.186,0.333 -4.014,0.164 -4.014,0.164 0,0 -1.456,2.089 -3.756,4.254 -1.34,2.051 -3.528,4.882 -6.042,6.074 -4.158,1.987 -8.428,2.459 -9.216,6.133 -0.428,1.984 -3.103,3.988 -5.475,5.417 22.104,60.001 63.293,96.132 74.004,104.746 z m 3.414,-58.801 c -4.103,1.369 -3.186,8.966 -3.631,12.838 -0.472,3.88 4.779,11.459 3.177,13.977 -1.602,2.502 -16.328,11.126 -16.328,11.126 0,0 12.222,-12.65 10.864,-17.737 -1.366,-5.087 -2.509,-17.009 -1.139,-20.88 1.366,-3.872 4.711,-0.849 7.288,-3.649 2.578,-2.81 4.856,-3.939 4.856,-3.939 0,0 -0.976,6.902 -5.087,8.264 z m -3.408,-52.768 c 5.696,-2.107 4.968,-5.61 7.023,-9.027 l 3.751,-1.979 c 0,0 2.056,3.939 1.824,6.45 -0.231,2.5 -4.325,3.647 -7.356,3.87 -3.032,0.231 -4.112,3.032 -5.704,3.495 -1.598,0.454 -7.357,1.823 -7.357,1.823 0,0 2.11,-2.508 7.819,-4.632 z m -28.178,25.214 c 4.629,-0.907 12.372,-5.927 14.881,-5.927 2.509,0 11.014,-0.686 13.742,-1.147 2.74,-0.445 1.953,-4.188 3.999,-4.864 2.048,-0.686 8.985,-4.6 9.67,-8.702 0.686,-4.11 4.711,-5.713 8.129,-7.297 7.116,-3.323 7.287,-8.514 7.287,-8.514 0,0 2.356,5.088 -3.408,7.365 -5.771,2.279 -6.132,17.388 -7.348,20.65 -1.208,3.263 -7.752,1.361 -10.261,1.361 -2.501,0 -5.105,2.741 -10.346,2.973 -5.237,0.231 -6.903,4.324 -6.903,4.324 0,0 -6.445,5.088 -8.955,3.718 -2.509,-1.371 -16.487,-3.032 -16.487,-3.032 0,0 1.366,0 6,-0.908 z m 1.135,24.529 c -1.139,1.131 -8.487,2.869 -11.451,1.046 -2.955,-1.825 -12.183,0.394 -12.183,0.394 0,0 7.841,-6.063 10.578,-7.212 2.736,-1.131 6.385,2.587 9.639,0.231 3.263,-2.347 5.473,-5.01 5.473,-5.01 l 19.343,-8.72 c 0,0 -15.926,10.534 -17.75,12.137 -1.825,1.593 -2.506,5.988 -3.649,7.134 z"
   id="path107"
   inkscape:connector-curvature="0"
   style="fill:#ffffff" />
<path
   d="m 259.441,241.873 c 0,0 8.693,1.7 11.528,1.417 2.839,-0.278 7.267,-0.278 9.259,2.274 1.988,2.552 4.71,7.096 12.084,4.543 7.392,-2.561 9.087,-4.266 17.206,-5.965 8.12,-1.7 9.251,-8.688 19.365,-11.815 10.106,-3.122 10.098,-1.97 12.085,-3.683 l 0.018,3.122 c 0,0 2.945,-2.561 6.518,-3.691 3.579,-1.14 5.575,-4.428 5.575,-4.428 0,0 1.422,3.015 0.565,5.858 0,0 3.237,-3.139 6.535,-3.139 0,0 -1.996,1.991 -2.57,4.552 -0.557,2.553 -0.557,2.553 -0.557,2.553 l 8.676,-3.691 c 0,0 -1.532,4.261 -3.125,5.674 l 3.974,2.561 c 0,0 -3.289,1.867 -5.842,1.867 -2.552,0 -1.986,0 -1.986,0 0,0 2.553,1.991 2.826,5.113 0.291,3.122 0.463,3.122 0.463,3.122 0,0 -2.158,-3.413 -5.567,-3.413 0,0 -0.839,4.098 -0.839,5.683 0,0 -2.844,-0.963 -3.126,0.737 -0.292,1.704 -2.733,2.843 -4.72,2.843 -1.987,0 -0.856,3.974 -3.684,4.543 -2.842,0.57 -5.566,-0.458 -8.118,2.552 -2.553,3.006 -2.278,3.006 -2.278,3.006 0,0 -3.975,-2.27 -5.961,0.852 -1.987,3.131 -2.724,2.839 -4.711,3.691 -1.987,0.853 -1.987,2.843 -5.396,2.843 -3.409,0 -6.972,-1.31 -6.972,2.27 0,3.58 6.124,5.85 8.676,7.545 2.552,1.713 7.837,5.002 9.259,7.28 1.421,2.27 -2.732,3.117 -4.437,3.975 -1.696,0.848 -1.979,1.978 -1.423,3.399 0.575,1.413 -1.978,0 -2.552,1.14 -0.564,1.131 -3.683,-0.565 -4.247,1.131 -0.566,1.695 -3.581,0.564 -5.276,0.564 -1.713,0 -4.839,-1.13 -6.544,-2.261 -1.695,-1.147 -2.106,0.839 -3.117,-2.552 -1.027,-3.418 0.12,-5.002 -2.158,-6.425 -2.27,-1.421 -1.422,-2.277 -3.408,-5.396 -1.987,-3.116 -2.835,-5.396 -3.684,-3.691 -0.855,1.704 -3.306,4.548 -5.284,5.962 -1.996,1.421 -0.283,-1.987 -3.127,0 -2.834,1.995 -3.687,-1.414 -5.386,-0.848 -1.713,0.564 -4.428,3.116 -6.141,3.116 -1.7,0 -3.683,1.131 -5.392,0.856 -1.704,-0.281 -3.289,1.302 -6.132,1.302 -2.839,0 -4.368,0 -7.374,1.131 -3.019,1.148 -5.28,-0.273 -8.693,1.423 -3.4,1.704 -1.816,-3.401 -5.674,-1.423 -3.867,1.996 -3.576,1.713 -6.702,1.423 -3.122,-0.274 -4.539,0.573 -4.539,0.573 0,0 -2.158,-1.816 -3.297,-3.127 0,0 -5.679,2.279 -7.666,1.705 -1.982,-0.574 -1.589,-2.553 -4.432,-2.27 -2.831,0.291 -4.822,-0.119 -6.522,-0.283 -1.704,-0.18 1.584,-4.427 -1.422,-3.579 -3.01,0.848 -5.563,-0.283 -5.563,-0.283 0,0 6.586,-1.987 3.58,-3.118 -3.019,-1.138 -6.989,-3.69 -6.989,-3.69 l 4.261,-0.853 -1.422,-3.019 c 0,0 6.702,1.422 10.676,0.574 3.97,-0.852 4.544,-2.844 4.544,-2.844 0,0 8.003,1.422 15.669,0.291 7.665,-1.143 9.37,-1.143 9.37,-1.143 0,0 20.95,-8.111 28.615,-10.671 7.666,-2.553 3.122,-4.989 0.561,-8.972 -2.553,-3.971 -7.833,-8.793 -7.833,-8.793"
   id="path109"
   inkscape:connector-curvature="0" />
</svg>