<?xml version="1.0" encoding="utf-8"?>
<!-- Generator: Adobe Illustrator 13.0.0, SVG Export Plug-In . SVG Version: 6.00 Build 14948)  -->
<!DOCTYPE svg PUBLIC "-//W3C//DTD SVG 1.0//EN" "http://www.w3.org/TR/2001/REC-SVG-20010904/DTD/svg10.dtd">
<svg version="1.0" id="HQFL" xmlns="http://www.w3.org/2000/svg" xmlns:xlink="http://www.w3.org/1999/xlink" x="0px" y="0px"
	 width="337.251px" height="485.856px" viewBox="0 0 337.251 485.856" enable-background="new 0 0 337.251 485.856"
	 xml:space="preserve">
<path stroke="#000000" stroke-width="0.0285" stroke-miterlimit="1" d="M168.626,485.84v0.002l0,0l0,0c-0.001,0,0,0,0,0l0,0V485.84
	L168.626,485.84c-6.059-17.184-12.943-34.434-20.696-51.645C119.198,370.42,82.264,315.049,41.691,271.337
	c17.581-15.873,27.974-35.384,27.974-56.441c0-34.514-27.908-64.876-69.651-81.865C9.987,92.493,33.567,57.188,65.616,32.232
	c2.959,29.296,17.01,51.601,33.812,51.601c0.081,0,0.162,0,0.243-0.001l0,0l-0.002,0l6.002,0.014v0.001l0,0
	c0.021,0,0.04-0.001,0.06-0.001l0,0h0.017v-0.001l0,0c11.14-0.148,21.025-6.189,27.185-15.405c0.273-0.332,0.487-0.792,0.631-1.344
	c0.275-1.05,0.302-2.438,0.01-3.916c-0.296-1.485-0.86-2.79-1.531-3.686c-0.005-0.006-0.011-0.013-0.016-0.021l0,0h0.003l0,0
	c-7.652-10.118-12.709-27.354-12.709-46.855c0-4.332,0.25-8.552,0.723-12.607c14.987,8.102,27.093,20.854,34.335,36.29
	c3.006-1.119,8.236-1.862,14.164-1.862c0.028,0,0.057,0,0.086,0l0,0c0.029,0,0.056,0,0.085,0c5.927,0,11.157,0.743,14.164,1.862
	c7.242-15.437,19.349-28.188,34.335-36.29c0.473,4.056,0.723,8.275,0.723,12.607c0,19.5-5.057,36.737-12.709,46.855l0,0h0.004l0,0
	c-0.005,0.007-0.011,0.014-0.016,0.021c-0.672,0.896-1.236,2.2-1.531,3.686c-0.292,1.477-0.266,2.865,0.008,3.916
	c0.146,0.552,0.359,1.012,0.632,1.344c6.159,9.216,16.044,15.257,27.185,15.405l0,0v0.001h0.016l0,0
	c0.021,0,0.041,0.001,0.061,0.001l0,0v-0.001l6.003-0.014l-0.001,0l0,0c0.078,0.001,0.16,0.001,0.241,0.001
	c16.8,0,30.853-22.305,33.812-51.601c32.048,24.956,55.627,60.261,65.602,100.798c-41.744,16.989-69.652,47.352-69.652,81.865
	c0,21.058,10.394,40.568,27.975,56.441c-40.572,43.712-77.506,99.083-106.238,162.858
	C181.568,451.406,174.685,468.656,168.626,485.84L168.626,485.84z"/>
<line fill="none" stroke="#000000" stroke-width="0.0285" stroke-miterlimit="1" x1="168.626" y1="485.842" x2="168.626" y2="485.84"/>
<path fill="#FFFFFF" d="M168.626,468.916L42.693,91.808h125.933H294.56L168.626,468.916L168.626,468.916z"/>
<path fill="#AB1B25" d="M48.238,95.803h240.774L168.626,456.305L48.238,95.803L48.238,95.803z"/>
<polygon fill="#FFFFFF" points="277.527,104.076 168.626,430.184 59.724,104.076 277.527,104.076 "/>
<path stroke="#000000" stroke-width="0.4348" stroke-miterlimit="1" d="M186.759,208.923h36.697h1.322l0,0
	c5.078,1.097,8.928,6.002,8.928,11.857c0,0.973-0.106,1.92-0.307,2.828l0,0l-10.5,31.442l0,0c-2.404,5.605-6.479,9.377-10.014,9.344
	c1.431,2.568,2.316,6.104,2.316,9.996c0,2.055-0.246,4.008-0.689,5.771l0,0l-41.837,125.287v-35.297v-9.166V208.923H186.759
	L186.759,208.923z"/>
<path fill="#FFFFFF" stroke="#000000" stroke-width="0.4348" stroke-miterlimit="1" d="M201.449,274.824
	c0.044-0.241,0.069-0.493,0.069-0.756c0-1.519-0.814-2.779-1.862-2.969l0,0h-12.897v47.715L201.449,274.824L201.449,274.824z"/>
<path stroke="#000000" stroke-width="0.4348" stroke-miterlimit="1" d="M112.472,208.923h1.324h36.696h14.083v137.648L150.492,304.4
	v-33.301H134.56l30.016,89.885v44.461L103.85,223.598l0,0c-0.2-0.905-0.306-1.849-0.306-2.818
	C103.544,214.925,107.393,210.02,112.472,208.923L112.472,208.923z M122.69,223.006c-1.534,0.248-2.726,1.89-2.726,3.866
	c0,0.224,0.015,0.442,0.044,0.656l0,0l9.848,29.489h20.636v-34.011H122.69L122.69,223.006z"/>
<polygon fill="none" points="99.441,148.465 105.984,148.465 105.984,154.411 112.523,154.411 112.523,148.465 119.063,148.465 
	119.063,154.411 122.334,154.411 122.334,154.411 125.604,154.411 125.604,148.465 132.144,148.465 132.144,154.411 
	138.683,154.411 138.683,148.465 145.226,148.465 145.226,154.366 144.202,157.482 141.764,159.887 138.31,161.255 137.964,161.315 
	137.658,161.421 137.399,161.562 137.193,161.736 137.055,161.932 136.997,162.145 136.995,162.145 136.995,162.183 136.995,166.1 
	136.995,166.469 136.995,166.707 136.995,166.745 136.997,166.745 137.055,166.957 137.193,167.153 137.399,167.327 
	137.658,167.469 137.964,167.574 138.31,167.635 141.764,169.002 144.202,171.407 145.226,174.524 145.226,175.571 145.226,187.956 
	122.334,187.956 122.334,187.956 99.441,187.956 99.441,175.571 99.441,174.524 100.465,171.407 102.903,169.002 106.357,167.635 
	106.703,167.574 107.009,167.469 107.268,167.327 107.475,167.153 107.612,166.957 107.671,166.745 107.673,166.745 
	107.673,166.707 107.673,166.469 107.673,166.1 107.673,162.183 107.673,162.145 107.671,162.145 107.612,161.932 107.475,161.736 
	107.268,161.562 107.009,161.421 106.703,161.315 106.357,161.255 102.903,159.887 100.465,157.482 99.441,154.366 99.441,148.465 
	"/>
<linearGradient id="SVGID_1_" gradientUnits="userSpaceOnUse" x1="98.8706" y1="168.2102" x2="145.7964" y2="168.2102">
	<stop  offset="0" style="stop-color:#F8AF19"/>
	<stop  offset="1" style="stop-color:#FFD300"/>
</linearGradient>
<polyline fill="url(#SVGID_1_)" stroke="#000000" stroke-width="1.1412" stroke-miterlimit="1" points="99.441,148.465 
	105.984,148.465 105.984,154.411 112.523,154.411 112.523,148.465 119.063,148.465 119.063,154.411 122.334,154.411 
	122.334,154.411 125.604,154.411 125.604,148.465 132.144,148.465 132.144,154.411 138.683,154.411 138.683,148.465 
	145.226,148.465 145.226,154.366 145.226,154.366 144.202,157.482 141.764,159.887 138.31,161.255 138.31,161.255 137.964,161.315 
	137.658,161.421 137.399,161.562 137.399,161.562 137.193,161.736 137.055,161.932 136.997,162.145 136.997,162.145 
	136.995,162.145 136.995,162.183 136.995,166.1 136.995,166.469 136.995,166.707 136.995,166.745 136.997,166.745 136.997,166.745 
	137.055,166.957 137.193,167.153 137.399,167.327 137.399,167.327 137.658,167.469 137.964,167.574 138.31,167.635 138.31,167.635 
	141.764,169.002 144.202,171.407 145.226,174.524 145.226,174.524 145.226,175.571 145.226,187.956 122.334,187.956 
	122.334,187.956 99.441,187.956 99.441,175.571 99.441,174.524 99.441,174.524 100.465,171.407 102.903,169.002 106.357,167.635 
	106.357,167.635 106.703,167.574 107.009,167.469 107.268,167.327 107.268,167.327 107.475,167.153 107.612,166.957 
	107.671,166.745 107.671,166.745 107.673,166.745 107.673,166.707 107.673,166.469 107.673,166.1 107.673,162.183 107.673,162.145 
	107.671,162.145 107.671,162.145 107.612,161.932 107.475,161.736 107.268,161.562 107.268,161.562 107.009,161.421 
	106.703,161.315 106.357,161.255 106.357,161.255 102.903,159.887 100.465,157.482 99.441,154.366 99.441,154.366 99.441,148.465 
	99.441,148.465 99.441,148.465 "/>
<path fill="none" stroke="#000000" stroke-width="1.1412" stroke-miterlimit="1" d="M99.441,148.465"/>
<path d="M112.25,159.784L112.25,159.784L112.25,159.784c0-1.304,1.345-2.367,2.996-2.367c1.649,0,2.994,1.063,2.994,2.367
	c0,0.01,0,0.02,0,0.03l0,0v10.17h-5.99V159.784L112.25,159.784z"/>
<path d="M132.401,159.784L132.401,159.784L132.401,159.784c0-1.304-1.345-2.367-2.995-2.367c-1.649,0-2.994,1.063-2.994,2.367
	c0,0.01,0,0.02,0,0.03l0,0v10.17h5.989V159.784L132.401,159.784z"/>
<path d="M127.494,187.956h-5.16l0,0h-5.164v-13.11h0.001l0,0c0-1.73,2.317-3.141,5.163-3.141c2.842,0,5.16,1.41,5.16,3.141
	c0,0.013,0,0.026,0,0.039l0,0V187.956L127.494,187.956z"/>
<line fill="none" stroke="#000000" stroke-width="0.4348" stroke-miterlimit="1" x1="101.589" y1="176.859" x2="116.106" y2="176.859"/>
<line fill="none" stroke="#000000" stroke-width="0.4348" stroke-miterlimit="1" x1="143.063" y1="176.859" x2="128.545" y2="176.859"/>
<line fill="none" stroke="#000000" stroke-width="0.4348" stroke-miterlimit="1" x1="108.582" y1="162.556" x2="111.857" y2="162.556"/>
<line fill="none" stroke="#000000" stroke-width="0.4348" stroke-miterlimit="1" x1="136.07" y1="162.556" x2="132.795" y2="162.556"/>
<line fill="none" stroke="#000000" stroke-width="0.4348" stroke-miterlimit="1" x1="125.667" y1="162.646" x2="119.204" y2="162.646"/>
<line fill="none" stroke="#000000" stroke-width="0.4348" stroke-miterlimit="1" x1="140.23" y1="170.907" x2="104.999" y2="170.907"/>
<polygon fill="none" points="145.733,107.832 152.276,107.832 152.276,113.778 158.815,113.778 158.815,107.832 165.354,107.832 
	165.354,113.778 168.626,113.778 168.626,113.778 171.896,113.778 171.896,107.832 178.437,107.832 178.437,113.778 
	184.976,113.778 184.976,107.832 191.518,107.832 191.518,113.733 190.493,116.849 188.056,119.255 184.601,120.622 
	184.257,120.682 183.95,120.788 183.692,120.929 183.484,121.104 183.347,121.3 183.288,121.512 183.286,121.512 183.286,121.551 
	183.286,125.468 183.286,125.837 183.286,126.074 183.286,126.112 183.288,126.112 183.347,126.324 183.484,126.521 
	183.692,126.694 183.95,126.837 184.257,126.941 184.601,127.003 188.056,128.369 190.493,130.775 191.518,133.891 191.518,134.938 
	191.518,147.323 168.626,147.323 168.626,147.323 145.733,147.323 145.733,134.938 145.733,133.891 146.757,130.775 
	149.195,128.369 152.649,127.003 152.995,126.941 153.301,126.837 153.56,126.694 153.767,126.521 153.904,126.324 153.963,126.112 
	153.965,126.112 153.965,126.074 153.965,125.837 153.965,125.468 153.965,121.551 153.965,121.512 153.963,121.512 153.904,121.3 
	153.767,121.104 153.56,120.929 153.301,120.788 152.995,120.682 152.649,120.622 149.195,119.255 146.757,116.849 145.733,113.733 
	145.733,107.832 "/>
<linearGradient id="SVGID_2_" gradientUnits="userSpaceOnUse" x1="145.1626" y1="127.5779" x2="192.0879" y2="127.5779">
	<stop  offset="0" style="stop-color:#F8AF19"/>
	<stop  offset="1" style="stop-color:#FFD300"/>
</linearGradient>
<polyline fill="url(#SVGID_2_)" stroke="#000000" stroke-width="1.1412" stroke-miterlimit="1" points="145.733,107.832 
	152.276,107.832 152.276,113.778 158.815,113.778 158.815,107.832 165.354,107.832 165.354,113.778 168.626,113.778 
	168.626,113.778 171.896,113.778 171.896,107.832 178.437,107.832 178.437,113.778 184.976,113.778 184.976,107.832 
	191.518,107.832 191.518,113.733 191.518,113.733 190.493,116.849 188.056,119.255 184.601,120.622 184.601,120.622 
	184.257,120.682 183.95,120.788 183.692,120.929 183.692,120.929 183.484,121.104 183.347,121.3 183.288,121.512 183.288,121.512 
	183.286,121.512 183.286,121.551 183.286,125.468 183.286,125.837 183.286,126.074 183.286,126.112 183.288,126.112 
	183.288,126.112 183.347,126.324 183.484,126.521 183.692,126.694 183.692,126.694 183.95,126.837 184.257,126.941 184.601,127.003 
	184.601,127.003 188.056,128.369 190.493,130.775 191.518,133.891 191.518,133.891 191.518,134.938 191.518,147.323 
	168.626,147.323 168.626,147.323 145.733,147.323 145.733,134.938 145.733,133.891 145.733,133.891 146.757,130.775 
	149.195,128.369 152.649,127.003 152.649,127.003 152.995,126.941 153.301,126.837 153.56,126.694 153.56,126.694 153.767,126.521 
	153.904,126.324 153.963,126.112 153.963,126.112 153.965,126.112 153.965,126.074 153.965,125.837 153.965,125.468 
	153.965,121.551 153.965,121.512 153.963,121.512 153.963,121.512 153.904,121.3 153.767,121.104 153.56,120.929 153.56,120.929 
	153.301,120.788 152.995,120.682 152.649,120.622 152.649,120.622 149.195,119.255 146.757,116.849 145.733,113.733 
	145.733,113.733 145.733,107.832 145.733,107.832 145.733,107.832 "/>
<path fill="none" stroke="#000000" stroke-width="1.1412" stroke-miterlimit="1" d="M145.733,107.832"/>
<path d="M158.542,119.152L158.542,119.152L158.542,119.152c0-1.304,1.345-2.367,2.996-2.367c1.649,0,2.994,1.063,2.994,2.367
	c0,0.01-0.001,0.02-0.001,0.03l0,0v10.169h-5.989V119.152L158.542,119.152z"/>
<path d="M178.694,119.152h-0.002l0,0c0-1.304-1.344-2.367-2.994-2.367c-1.649,0-2.994,1.063-2.994,2.367c0,0.01,0,0.02,0,0.03l0,0
	v10.169h5.99V119.152L178.694,119.152z"/>
<path d="M173.786,147.323h-5.16l0,0h-5.164v-13.11h0.001l0,0c0-1.73,2.317-3.141,5.163-3.141c2.842,0,5.16,1.411,5.16,3.141
	c0,0.013,0,0.025,0,0.04l0,0V147.323L173.786,147.323z"/>
<line fill="none" stroke="#000000" stroke-width="0.4348" stroke-miterlimit="1" x1="147.881" y1="136.226" x2="162.398" y2="136.226"/>
<line fill="none" stroke="#000000" stroke-width="0.4348" stroke-miterlimit="1" x1="189.355" y1="136.226" x2="174.837" y2="136.226"/>
<line fill="none" stroke="#000000" stroke-width="0.4348" stroke-miterlimit="1" x1="154.874" y1="121.924" x2="158.149" y2="121.924"/>
<line fill="none" stroke="#000000" stroke-width="0.4348" stroke-miterlimit="1" x1="182.362" y1="121.924" x2="179.087" y2="121.924"/>
<line fill="none" stroke="#000000" stroke-width="0.4348" stroke-miterlimit="1" x1="171.959" y1="122.013" x2="165.496" y2="122.013"/>
<line fill="none" stroke="#000000" stroke-width="0.4348" stroke-miterlimit="1" x1="186.522" y1="130.274" x2="151.291" y2="130.274"/>
<polygon fill="none" points="237.81,148.465 231.268,148.465 231.268,154.411 224.728,154.411 224.728,148.465 218.188,148.465 
	218.188,154.411 214.917,154.411 214.917,154.411 211.646,154.411 211.646,148.465 205.106,148.465 205.106,154.411 
	198.567,154.411 198.567,148.465 192.024,148.465 192.024,154.366 193.048,157.482 195.487,159.887 198.941,161.255 
	199.286,161.315 199.592,161.421 199.851,161.562 200.058,161.736 200.195,161.932 200.254,162.145 200.255,162.145 
	200.255,162.183 200.255,166.1 200.255,166.469 200.255,166.707 200.255,166.745 200.254,166.745 200.195,166.957 200.058,167.153 
	199.851,167.327 199.592,167.469 199.286,167.574 198.941,167.635 195.487,169.002 193.048,171.407 192.024,174.524 
	192.024,175.571 192.024,187.956 214.917,187.956 214.917,187.956 237.81,187.956 237.81,175.571 237.81,174.524 236.786,171.407 
	234.349,169.002 230.893,167.635 230.548,167.574 230.242,167.469 229.983,167.327 229.776,167.153 229.639,166.957 229.58,166.745 
	229.579,166.745 229.579,166.707 229.579,166.469 229.579,166.1 229.579,162.183 229.579,162.145 229.58,162.145 229.639,161.932 
	229.776,161.736 229.983,161.562 230.242,161.421 230.548,161.315 230.893,161.255 234.349,159.887 236.786,157.482 237.81,154.366 
	237.81,148.465 "/>
<linearGradient id="SVGID_3_" gradientUnits="userSpaceOnUse" x1="191.4541" y1="168.2102" x2="238.3799" y2="168.2102">
	<stop  offset="0" style="stop-color:#F8AF19"/>
	<stop  offset="1" style="stop-color:#FFD300"/>
</linearGradient>
<polyline fill="url(#SVGID_3_)" stroke="#000000" stroke-width="1.1412" stroke-miterlimit="1" points="237.81,148.465 
	231.268,148.465 231.268,154.411 224.728,154.411 224.728,148.465 218.188,148.465 218.188,154.411 214.917,154.411 
	214.917,154.411 211.646,154.411 211.646,148.465 205.106,148.465 205.106,154.411 198.567,154.411 198.567,148.465 
	192.024,148.465 192.024,154.366 192.024,154.366 193.048,157.482 195.487,159.887 198.941,161.255 198.941,161.255 
	199.286,161.315 199.592,161.421 199.851,161.562 199.851,161.562 200.058,161.736 200.195,161.932 200.254,162.145 
	200.254,162.145 200.255,162.145 200.255,162.183 200.255,166.1 200.255,166.469 200.255,166.707 200.255,166.745 200.254,166.745 
	200.254,166.745 200.195,166.957 200.058,167.153 199.851,167.327 199.851,167.327 199.592,167.469 199.286,167.574 
	198.941,167.635 198.941,167.635 195.487,169.002 193.048,171.407 192.024,174.524 192.024,174.524 192.024,175.571 
	192.024,187.956 214.917,187.956 214.917,187.956 237.81,187.956 237.81,175.571 237.81,174.524 237.81,174.524 236.786,171.407 
	234.349,169.002 230.893,167.635 230.893,167.635 230.548,167.574 230.242,167.469 229.983,167.327 229.983,167.327 
	229.776,167.153 229.639,166.957 229.58,166.745 229.58,166.745 229.579,166.745 229.579,166.707 229.579,166.469 229.579,166.1 
	229.579,162.183 229.579,162.145 229.58,162.145 229.58,162.145 229.639,161.932 229.776,161.736 229.983,161.562 229.983,161.562 
	230.242,161.421 230.548,161.315 230.893,161.255 230.893,161.255 234.349,159.887 236.786,157.482 237.81,154.366 237.81,154.366 
	237.81,148.465 237.81,148.465 237.81,148.465 "/>
<path fill="none" stroke="#000000" stroke-width="1.1412" stroke-miterlimit="1" d="M237.81,148.465"/>
<path d="M225.001,159.784h-0.002l0,0c0-1.304-1.343-2.367-2.994-2.367c-1.65,0-2.995,1.063-2.995,2.367
	c0,0.01,0.001,0.02,0.001,0.03l0,0v10.17h5.99V159.784L225.001,159.784z"/>
<path d="M204.849,159.784L204.849,159.784L204.849,159.784c0-1.304,1.346-2.367,2.996-2.367c1.649,0,2.994,1.063,2.994,2.367
	c0,0.01,0,0.02,0,0.03l0,0v10.17h-5.99V159.784L204.849,159.784z"/>
<path d="M209.757,187.956h5.16l0,0h5.164v-13.11h-0.002l0,0c0-1.73-2.317-3.141-5.162-3.141c-2.842,0-5.16,1.41-5.16,3.141
	c0,0.013,0,0.026,0,0.039l0,0V187.956L209.757,187.956z"/>
<line fill="none" stroke="#000000" stroke-width="0.4348" stroke-miterlimit="1" x1="235.662" y1="176.859" x2="221.144" y2="176.859"/>
<line fill="none" stroke="#000000" stroke-width="0.4348" stroke-miterlimit="1" x1="194.187" y1="176.859" x2="208.704" y2="176.859"/>
<line fill="none" stroke="#000000" stroke-width="0.4348" stroke-miterlimit="1" x1="228.669" y1="162.556" x2="225.394" y2="162.556"/>
<line fill="none" stroke="#000000" stroke-width="0.4348" stroke-miterlimit="1" x1="201.18" y1="162.556" x2="204.455" y2="162.556"/>
<line fill="none" stroke="#000000" stroke-width="0.4348" stroke-miterlimit="1" x1="211.585" y1="162.646" x2="218.046" y2="162.646"/>
<line fill="none" stroke="#000000" stroke-width="0.4348" stroke-miterlimit="1" x1="197.02" y1="170.907" x2="232.252" y2="170.907"/>
<path fill="#FFFFFF" stroke="#000000" stroke-width="0.4348" stroke-miterlimit="1" d="M208.698,253.115
	c-0.889,2.031-3.285,3.57-6.212,3.901l0,0h-15.728v-34.011h27.801l0,0c1.533,0.248,2.727,1.89,2.727,3.866
	c0,0.227-0.017,0.448-0.046,0.665l0,0L208.698,253.115L208.698,253.115z"/>
</svg>
