<?xml version="1.0" encoding="UTF-8" standalone="no"?>
<!-- Created with Inkscape (http://www.inkscape.org/) by Marsupilami -->
<svg
   xmlns:svg="http://www.w3.org/2000/svg"
   xmlns="http://www.w3.org/2000/svg"
   version="1.0"
   width="549"
   height="768"
   viewBox="0 0 65.546875 91.640625"
   id="svg2817">
  <defs
     id="defs2819">
    <clipPath
       id="clipPath2718">
      <path
         d="M 344.567,565.946 L 74.918,565.946 L 74.918,492.638 L 344.567,492.638 L 344.567,565.946 z"
         id="path2720" />
    </clipPath>
  </defs>
  <g
     transform="translate(-342.21922,-486.55002)"
     id="layer1">
    <g
       transform="matrix(1.25,0,0,-1.25,248.58641,1193.9719)"
       id="g2714"
       style="display:inline">
      <g
         clip-path="url(#clipPath2718)"
         id="g2716">
        <path
           d="M 101.03125,492.625 L 99.34375,494.4375 C 99.34375,494.4375 98.466329,495.30632 97.90625,495.6875 C 97.866175,495.71472 96.526222,496.3376 96.3125,496.4375 C 93.08913,497.50142 88.060362,498.52576 83.625,500.53125 C 81.407319,501.534 79.293754,502.80752 77.65625,504.625 C 76.018746,506.44248 74.906251,508.88316 74.90625,511.6875 L 74.90625,563.53125 L 74.90625,565.9375 L 77.3125,565.9375 L 124.9375,565.9375 L 127.34375,565.9375 L 127.34375,563.53125 L 127.34375,511.6875 C 127.34375,508.83765 126.23765,506.38031 124.5625,504.5625 C 122.88735,502.74469 120.74583,501.48492 118.5,500.5 C 114.00834,498.53016 108.90009,497.52573 105.84375,496.40625 C 104.67646,495.97969 104.56166,495.8906 103.9375,495.40625 L 103.9375,495.4375 C 103.69631,495.24954 102.78125,494.375 102.78125,494.375 L 101.03125,492.625 z"
           id="path2722"
           style="fill:#ffffff;fill-opacity:1;stroke:none;stroke-width:4.80900002;stroke-linecap:butt;stroke-linejoin:miter;stroke-miterlimit:6;stroke-dasharray:none;stroke-opacity:1" />
      </g>
    </g>
    <path
       d="M 376.65141,572.32062 C 377.60016,571.58437 378.28391,571.21562 379.86766,570.63687 C 388.32766,567.53812 404.77641,565.69062 404.77641,554.34687 L 404.77641,489.54437 L 345.24016,489.54437 L 345.24016,554.34687 C 345.24016,565.48562 361.26641,567.69187 369.93516,570.55312 C 369.93516,570.55312 371.86516,571.33437 372.66766,571.87937 C 373.80641,572.65437 374.94516,573.87062 374.94516,573.87062 C 374.94516,573.87062 376.01141,572.81937 376.65141,572.32062"
       id="path2724"
       style="fill:#94bee5;fill-opacity:1;fill-rule:nonzero;stroke:none;display:inline" />
    <path
       d="M 376.65141,572.32062 C 377.60016,571.58437 378.28391,571.21562 379.86766,570.63687 C 388.32766,567.53812 404.77641,565.69062 404.77641,554.34687 L 404.77641,489.54437 L 345.24016,489.54437 L 345.24016,554.34687 C 345.24016,565.48562 361.26641,567.69187 369.93516,570.55312 C 369.93516,570.55312 371.86516,571.33437 372.66766,571.87937 C 373.80641,572.65437 374.94516,573.87062 374.94516,573.87062 C 374.94516,573.87062 376.01141,572.81937 376.65141,572.32062 z"
       id="path2726"
       style="fill:none;stroke:#7a003c;stroke-width:2.24374986;stroke-linecap:butt;stroke-linejoin:miter;stroke-miterlimit:6;stroke-dasharray:none;stroke-opacity:1;display:inline" />
    <path
       d="M 358.75141,509.99437 L 359.71391,511.97312 L 361.86391,512.29062 L 360.30641,513.82937 L 360.67516,516.00812 L 358.75141,514.98062 L 356.82766,516.00812 L 357.19516,513.82937 L 355.64016,512.29062 L 357.78891,511.97312 L 358.75141,509.99437"
       id="path2728"
       style="fill:#ffffff;fill-opacity:1;fill-rule:nonzero;stroke:none;display:inline" />
    <path
       d="M 356.83641,493.56562 C 356.79016,493.56562 356.69141,493.63062 356.58641,493.72187 L 355.74266,494.34687 C 355.56266,494.48062 355.42016,494.72312 355.30516,495.09687 C 355.19391,495.46437 355.10766,495.81437 355.02391,496.12812 L 352.83641,502.59687 C 352.54016,503.45687 352.26641,504.07812 352.02391,504.44062 C 351.78516,504.80312 351.43266,504.97187 350.96141,504.97187 C 350.79266,504.97187 350.68016,505.07187 350.68016,505.22187 L 350.68016,505.50312 C 350.68016,505.60437 350.74766,505.65937 350.86766,505.65937 C 350.94141,505.65937 351.21016,505.62437 351.64891,505.59687 C 352.08891,505.56812 352.41016,505.56562 352.61766,505.56562 C 352.82391,505.56562 353.11516,505.56812 353.52391,505.59687 C 353.93641,505.62437 354.21391,505.65937 354.33641,505.65937 C 354.54391,505.65937 354.64891,505.59812 354.64891,505.50312 L 354.64891,505.19062 C 354.64891,505.05687 354.57266,504.97187 354.43016,504.97187 C 353.65141,504.97187 353.27391,504.75937 353.27391,504.31562 C 353.27391,504.13312 353.33391,503.86687 353.46141,503.50312 L 354.24266,501.15937 L 357.64891,501.15937 L 358.46141,503.06562 C 358.64641,503.52062 358.75891,503.83312 358.80516,503.97187 C 358.85766,504.10562 358.89891,504.21937 358.89891,504.34687 C 358.89891,504.76312 358.56391,504.97187 357.89891,504.97187 C 357.72141,504.97187 357.61766,505.06687 357.61766,505.22187 L 357.61766,505.50312 C 357.61766,505.58937 357.68266,505.65937 357.77391,505.65937 C 357.90141,505.65937 358.27266,505.62437 358.93016,505.59687 C 359.58766,505.56812 360.04016,505.56562 360.27391,505.56562 C 360.55516,505.56562 360.92766,505.56812 361.39891,505.59687 C 361.87641,505.62437 362.21391,505.65937 362.39891,505.65937 C 362.51641,505.65937 362.58641,505.58562 362.58641,505.44062 L 362.58641,505.15937 C 362.58641,505.06937 362.51016,504.99687 362.36766,504.97187 C 361.95016,504.91187 361.65641,504.82562 361.49266,504.65937 C 361.32891,504.48937 361.13141,504.12937 360.93016,503.62812 L 356.99266,493.81562 C 356.91891,493.66062 356.86516,493.56562 356.83641,493.56562 z M 394.55516,493.81562 C 392.71016,493.81562 391.13016,494.36812 389.86766,495.50312 C 388.60641,496.63937 387.99266,498.02437 387.99266,499.62812 C 387.99266,501.65062 388.63391,503.19562 389.89891,504.28437 C 391.16391,505.37062 392.71016,505.90937 394.58641,505.90937 C 396.03641,505.90937 397.31891,505.63562 398.43016,505.06562 L 398.93016,503.00312 C 398.96641,502.86937 398.99266,502.78312 398.99266,502.75312 C 398.99266,502.68812 398.91141,502.62312 398.74266,502.56562 C 398.57141,502.50062 398.43892,502.47187 398.36766,502.47187 C 398.31266,502.47187 398.25017,502.59187 398.14891,502.81562 C 397.79391,503.61812 397.37891,504.19687 396.93016,504.56562 C 396.48391,504.92937 395.80891,505.09687 394.86766,505.09687 C 393.57766,505.09687 392.50265,504.58437 391.64891,503.56562 C 390.79391,502.54062 390.36765,501.28437 390.36766,499.78437 C 390.36766,498.29562 390.76392,497.06937 391.55516,496.09687 C 392.34641,495.12062 393.37266,494.62812 394.64891,494.62812 C 395.51141,494.62812 396.20267,494.86562 396.74266,495.34687 C 397.28266,495.82187 397.66767,496.37187 397.86766,497.00312 C 397.89391,497.09937 397.91517,497.18437 397.93016,497.22187 C 397.95141,497.25937 397.96891,497.25312 398.02391,497.25312 C 398.10641,497.25312 398.24516,497.25437 398.39891,497.22187 C 398.55891,497.19062 398.64891,497.13937 398.64891,497.09687 C 398.64891,497.02687 398.60516,496.67062 398.52391,496.03437 C 398.44266,495.39187 398.36515,495.05812 398.33641,494.97187 C 398.25516,494.78062 397.83141,494.53937 397.02391,494.25312 C 396.21641,493.96562 395.39266,493.81562 394.55516,493.81562 z M 362.49266,494.09687 C 362.36641,494.09687 362.30516,494.16062 362.30516,494.28437 L 362.30516,494.56562 C 362.30516,494.68437 362.38016,494.75312 362.55516,494.75312 C 363.00016,494.75312 363.34766,494.82312 363.58641,495.00312 C 363.82516,495.18562 364.06266,495.55937 364.27391,496.06562 L 368.14891,505.65937 C 368.19141,505.77187 368.22516,505.84187 368.27391,505.87812 C 368.32516,505.91062 368.42266,505.90937 368.55516,505.90937 L 368.83641,505.90937 C 368.93141,505.90937 369.00266,505.90437 369.05516,505.87812 C 369.10766,505.84562 369.14266,505.78687 369.18016,505.69062 L 373.02391,496.15937 C 373.24516,495.58812 373.41766,495.18562 373.55516,495.00312 C 373.69016,494.82312 373.96516,494.75312 374.33641,494.75312 C 374.47391,494.75312 374.52391,494.67437 374.52391,494.53437 L 374.52391,494.28437 C 374.52391,494.14937 374.45766,494.09687 374.33641,494.09687 C 374.22266,494.09687 374.01766,494.09937 373.68016,494.12812 C 373.34516,494.15562 373.09391,494.15937 372.93016,494.15937 C 372.71141,494.15937 372.32516,494.15562 371.80516,494.12812 C 371.29016,494.09937 371.00016,494.09687 370.89891,494.09687 C 370.77141,494.09687 370.71141,494.16062 370.71141,494.28437 L 370.71141,494.53437 C 370.71141,494.68062 370.77891,494.75312 370.96141,494.75312 C 371.41766,494.75312 371.73391,494.77312 371.89891,494.84687 C 372.06766,494.91687 372.14891,495.07562 372.14891,495.31562 C 372.14891,495.57187 372.11016,495.86562 371.99266,496.15937 L 369.39891,502.94062 L 366.55516,495.97187 C 366.41266,495.60312 366.36766,495.34062 366.36766,495.19062 C 366.36766,495.04187 366.44891,494.91687 366.61766,494.84687 C 366.78766,494.77312 367.08391,494.75312 367.49266,494.75312 C 367.64641,494.75312 367.71141,494.69312 367.71141,494.56562 L 367.71141,494.28437 C 367.71141,494.14937 367.63516,494.09687 367.46141,494.09687 C 367.33016,494.09687 366.89641,494.09937 366.18016,494.12812 C 365.46641,494.15562 364.95516,494.15937 364.68016,494.15937 C 364.36266,494.15937 363.95016,494.15562 363.43016,494.12812 C 362.91641,494.09937 362.60891,494.09687 362.49266,494.09687 z M 377.24266,494.09687 C 377.05016,494.09687 376.93016,494.14062 376.93016,494.25312 L 376.93016,494.56562 C 376.93016,494.68437 377.06266,494.75312 377.27391,494.75312 C 377.75516,494.75312 378.05265,494.85687 378.21141,495.09687 C 378.37516,495.33687 378.46141,495.78062 378.46141,496.40937 L 378.46141,503.56562 C 378.46141,504.03437 378.35641,504.39437 378.14891,504.62812 C 377.94766,504.86187 377.63515,504.97187 377.21141,504.97187 C 377.02641,504.97187 376.93016,505.04812 376.93016,505.15937 L 376.93016,505.47187 C 376.93016,505.59062 377.02016,505.65937 377.21141,505.65937 C 377.31766,505.65937 377.73767,505.62437 378.43016,505.59687 C 379.12891,505.56812 379.56765,505.56562 379.77391,505.56562 C 380.00641,505.56562 380.3914,505.56812 380.93016,505.59687 C 381.47641,505.62437 381.8089,505.65937 381.89891,505.65937 C 382.07516,505.65937 382.14891,505.59812 382.14891,505.50312 L 382.14891,505.12812 C 382.14891,505.04187 382.07515,504.97187 381.89891,504.97187 C 381.46266,504.97187 381.13016,504.86687 380.93016,504.65937 C 380.72766,504.45187 380.61766,504.08687 380.61766,503.56562 L 380.61766,499.78437 L 382.86766,499.78437 C 383.34516,499.78437 383.70142,499.89562 383.93016,500.09687 C 384.16391,500.29437 384.35141,500.64437 384.46141,501.12812 C 384.48641,501.26687 384.5539,501.31562 384.64891,501.31562 L 384.99266,501.31562 C 385.07266,501.31562 385.08641,501.26062 385.08641,501.09687 C 385.08641,500.98937 385.0814,500.73437 385.05516,500.37812 C 385.03141,500.02187 385.02391,499.78187 385.02391,499.62812 C 385.02391,499.40937 385.0314,499.08437 385.05516,498.69062 C 385.08141,498.29687 385.08641,498.07312 385.08641,497.97187 C 385.08641,497.84937 385.03641,497.78437 384.93016,497.78437 L 384.61766,497.78437 C 384.53766,497.78437 384.48266,497.82437 384.46141,497.94062 C 384.37141,498.39812 384.22516,498.70812 384.05516,498.84687 C 383.88391,498.98562 383.55266,499.06562 383.05516,499.06562 L 380.61766,499.06562 L 380.61766,495.84687 C 380.61766,495.44312 380.74392,495.17312 380.96141,495.03437 C 381.18516,494.89562 381.59766,494.84687 382.21141,494.84687 L 382.71141,494.84687 C 383.58016,494.84687 384.16516,494.92812 384.46141,495.09687 C 384.75766,495.26812 384.98517,495.56062 385.14891,496.00312 L 385.33641,496.47187 C 385.39016,496.63687 385.4489,496.72187 385.55516,496.72187 L 385.80516,496.72187 C 385.91641,496.72187 385.9614,496.67312 385.96141,496.53437 L 385.96141,494.25312 C 385.96141,494.13562 385.92266,494.09687 385.80516,494.09687 C 385.64766,494.09687 384.77767,494.09937 383.24266,494.12812 C 381.71266,494.15562 380.76016,494.15937 380.36766,494.15937 C 379.89141,494.15937 379.28016,494.15562 378.52391,494.12812 C 377.76766,494.09937 377.34766,494.09687 377.24266,494.09687 z M 355.74266,496.62812 L 357.27391,500.34687 L 354.55516,500.34687 L 355.74266,496.62812 z M 363.55516,560.40937 C 362.9811,560.37609 362.43016,560.47187 362.43016,560.47187 L 362.43016,564.65937 L 363.02391,564.65937 L 363.02391,562.47187 C 363.02391,562.47187 364.71141,562.08187 364.71141,561.09687 C 364.71141,560.605 364.12922,560.44265 363.55516,560.40937 z M 366.61766,560.40937 C 366.0436,560.37609 365.46141,560.47187 365.46141,560.47187 L 365.46141,564.65937 L 366.08641,564.65937 L 366.08641,562.47187 C 366.08641,562.47187 366.39557,562.37563 366.74266,562.22187 C 366.78894,562.29566 366.9864,562.6325 367.27391,563.31562 C 367.59641,564.08062 367.68016,564.65937 367.68016,564.65937 L 368.27391,564.65937 C 368.27391,564.65937 368.13516,563.89937 367.86766,563.22187 C 367.64026,562.6443 367.30833,562.15353 367.21141,562.00312 C 367.52399,561.78832 367.77391,561.48073 367.77391,561.09687 C 367.77391,560.605 367.19172,560.44265 366.61766,560.40937 z M 373.18016,560.40937 C 372.60641,560.37609 372.02391,560.47187 372.02391,560.47187 L 372.02391,564.65937 L 372.64891,564.65937 L 372.64891,562.47187 C 372.64891,562.47187 374.33641,562.08187 374.33641,561.09687 C 374.33641,560.605 373.75391,560.44265 373.18016,560.40937 z M 379.43016,560.40937 C 378.85578,560.37609 378.27391,560.47187 378.27391,560.47187 L 378.27391,564.65937 L 378.86766,564.65937 L 378.86766,562.47187 C 378.86766,562.47187 379.18097,562.37279 379.52391,562.22187 C 379.56826,562.29209 379.79698,562.62796 380.08641,563.31562 C 380.41016,564.08062 380.46141,564.65937 380.46141,564.65937 L 381.05516,564.65937 C 381.05516,564.65937 380.91641,563.89937 380.64891,563.22187 C 380.41519,562.62543 380.10704,562.0993 380.02391,561.97187 C 380.3201,561.75947 380.55516,561.46625 380.55516,561.09687 C 380.55516,560.605 380.00454,560.44265 379.43016,560.40937 z M 385.05516,560.40937 C 384.80731,560.42537 384.61766,560.47187 384.61766,560.47187 L 384.61766,564.65937 L 385.24266,564.65937 C 385.24267,564.65937 387.27391,564.69437 387.27391,562.09687 C 387.27391,560.49093 385.79872,560.36138 385.05516,560.40937 z M 369.18016,560.47187 L 369.18016,560.94062 L 369.18016,561.78437 L 369.18016,562.25312 L 369.18016,564.15937 L 369.18016,564.65937 L 371.02391,564.65937 L 371.02391,564.15937 L 369.77391,564.15937 L 369.77391,562.25312 L 370.61766,562.25312 L 370.61766,561.78437 L 369.77391,561.78437 L 369.77391,560.94062 L 371.02391,560.94062 L 371.02391,560.47187 L 369.18016,560.47187 z M 375.52391,560.47187 L 374.21141,564.65937 L 374.86766,564.65937 L 375.55516,562.25312 L 376.36766,562.25312 L 377.05516,564.65937 L 377.68016,564.65937 L 376.39891,560.47187 L 376.05516,560.47187 L 375.52391,560.47187 z M 381.77391,560.47187 L 381.77391,560.94062 L 381.77391,561.78437 L 381.77391,562.25312 L 381.77391,564.65937 L 383.61766,564.65937 L 383.61766,564.15937 L 382.39891,564.15937 L 382.39891,562.25312 L 383.21141,562.25312 L 383.21141,561.78437 L 382.39891,561.78437 L 382.39891,560.94062 L 383.61766,560.94062 L 383.61766,560.47187 L 381.77391,560.47187 z M 375.96141,560.81562 L 376.24266,561.78437 L 375.68016,561.78437 L 375.96141,560.81562 z M 363.55516,560.87812 C 363.81891,560.88421 364.08641,560.94749 364.08641,561.09687 C 364.08641,561.65437 363.02391,561.87812 363.02391,561.87812 L 363.02391,560.90937 C 363.02391,560.90937 363.29141,560.87203 363.55516,560.87812 z M 366.61766,560.87812 C 366.88141,560.88421 367.11766,560.94749 367.11766,561.09687 C 367.11766,561.65437 366.08641,561.87812 366.08641,561.87812 L 366.08641,560.90937 C 366.08641,560.90937 366.35391,560.87203 366.61766,560.87812 z M 373.18016,560.87812 C 373.44422,560.88421 373.71141,560.94749 373.71141,561.09687 C 373.71141,561.65437 372.64891,561.87812 372.64891,561.87812 L 372.64891,560.90937 C 372.64891,560.90937 372.9161,560.87203 373.18016,560.87812 z M 379.39891,560.87812 C 379.66297,560.88421 379.93016,560.94749 379.93016,561.09687 C 379.93015,561.65437 378.86766,561.87812 378.86766,561.87812 L 378.86766,560.90937 C 378.86766,560.90937 379.13485,560.87203 379.39891,560.87812 z M 385.39891,560.94062 C 385.81938,560.91548 386.64891,561.00031 386.64891,562.12812 C 386.6489,564.00547 385.59333,564.22703 385.24266,564.25312 L 385.24266,560.97187 C 385.28217,560.96491 385.3105,560.9459 385.39891,560.94062 z"
       id="path2730"
       style="fill:#7a003c;fill-opacity:1;fill-rule:nonzero;stroke:none;display:inline" />
    <path
       d="M 376.73266,511.73187 C 376.38766,512.26937 375.48641,512.60187 375.48641,512.60187 C 375.48641,512.60187 375.28016,512.59437 375.43766,512.21937 C 375.58141,511.88062 375.63516,511.71562 375.63516,511.71562 L 374.91266,511.97812 C 374.91266,511.97812 375.16391,511.74812 375.26516,511.37812 C 375.36641,511.00812 375.34266,510.76687 375.34266,510.76687 C 375.34266,510.76687 375.24766,511.08312 374.88891,511.23062 C 374.60641,511.34812 374.03016,511.41437 374.03016,511.41437 C 374.03016,511.41437 374.72641,509.97812 375.80266,510.08312 C 376.87641,510.18812 377.07891,511.19562 376.73266,511.73187 z M 371.87141,513.31062 C 371.73516,513.62687 371.42391,513.94437 371.07016,514.03562 C 370.76891,514.11187 370.50641,514.10312 370.29516,514.02937 C 369.75766,513.84062 369.65016,513.46187 369.65016,513.46187 L 370.22766,513.18687 C 370.32891,513.47812 370.52266,513.64187 370.76891,513.65062 C 371.00891,513.65937 371.18516,513.54312 371.25641,513.34062 C 371.29766,513.21937 371.27391,513.04062 371.27391,513.04062 C 371.27391,513.04062 371.20516,513.20187 371.05641,513.20937 C 370.95391,513.21437 370.78141,513.13312 370.84266,512.88312 L 372.12891,512.26687 C 372.12891,512.26687 372.08891,512.80312 371.87141,513.31062 z M 397.65016,517.64687 C 397.65016,517.64687 396.45891,519.28312 395.18016,519.55062 C 394.28016,519.73687 393.66516,519.65062 393.66516,519.65062 C 393.66516,519.65062 394.00141,519.62187 394.25516,519.42937 C 394.55016,519.20312 394.71891,518.81312 394.71891,518.81312 C 394.71891,518.81312 394.18641,519.09062 393.29141,518.84937 C 392.88766,518.74062 391.99891,518.65687 391.29766,518.91562 C 390.76516,519.11062 390.12266,519.65437 390.12266,519.65437 C 390.12266,519.65437 390.33016,519.44062 390.43516,519.19062 C 390.56516,518.87062 390.50016,518.51437 390.50016,518.51437 C 390.50016,518.51437 390.42891,518.86062 389.98766,519.05062 C 389.72391,519.16312 389.15641,519.41187 388.90266,519.79062 C 388.56641,520.29062 388.60141,520.90562 388.47641,521.04687 C 388.37266,521.16687 385.11641,522.63812 384.90016,525.62687 C 384.68141,528.61562 386.90891,530.91562 387.63891,531.76562 C 388.36891,532.61562 391.45891,536.22062 391.96391,537.02687 C 392.36641,537.66687 392.70516,538.35562 392.31641,539.18312 C 392.08891,539.67437 391.30766,540.24687 390.16266,539.71437 C 388.99766,539.16937 388.20266,538.40312 386.97391,537.85937 C 385.99141,537.42312 384.85266,537.10687 384.59266,536.93812 C 384.40016,536.81187 382.70016,535.71687 382.53641,533.73437 C 382.41016,532.19187 383.02641,529.78312 383.11766,528.11312 C 383.24766,525.80562 382.58391,524.81312 382.57266,524.72687 C 382.55266,524.57312 383.16016,524.76312 383.41016,525.21562 C 383.76266,525.84812 383.72516,526.10062 383.72516,526.10062 C 383.72516,526.10062 384.51016,524.62937 384.18141,522.76562 C 383.80516,520.64687 382.49766,520.39312 382.48516,520.23812 C 382.47641,520.11812 382.87516,520.03437 383.29016,520.16437 C 384.43766,520.52562 384.63891,521.62937 384.63891,521.62937 C 384.63891,521.62937 385.13391,520.07687 384.45266,518.50312 C 383.82641,517.06187 382.90516,516.92687 382.87641,516.75937 C 382.86266,516.67687 383.16641,516.53312 383.78141,516.68812 C 384.73891,516.92812 384.94891,517.74187 384.94891,517.74187 C 384.94891,517.74187 385.17266,516.38937 384.76891,515.24562 C 384.04016,513.18687 382.55641,512.98187 382.54891,512.81687 C 382.54516,512.72562 382.97141,512.60312 383.39891,512.72187 C 384.11891,512.91937 384.20641,513.13312 384.20641,513.13312 C 384.20641,513.13312 384.17266,512.63687 383.77891,511.87937 C 383.34891,511.05437 382.29516,509.96187 381.86516,509.70187 C 379.45766,508.25187 378.13766,508.54812 377.70891,508.51562 C 377.59391,508.50687 377.34391,508.29562 377.45391,507.94437 C 377.62016,507.41062 377.99141,507.22062 377.99141,507.22062 C 377.99141,507.22062 376.97141,507.18687 376.05891,507.52937 C 374.98266,507.93062 374.43641,508.52812 374.30891,508.52687 C 374.19641,508.52312 374.06641,508.33562 374.07016,508.07687 C 374.07641,507.68687 374.20766,507.56312 374.20766,507.56312 C 374.20766,507.56312 372.94516,507.98562 372.33516,508.43062 C 371.91016,508.74187 371.25891,509.23937 370.93016,510.01937 C 370.67266,510.63312 370.53391,511.41812 370.53391,511.41812 C 370.53391,511.41812 370.24516,511.20437 369.84391,511.49312 C 369.42516,511.79562 368.97016,512.37562 368.73891,512.72437 C 368.52266,513.05312 368.19516,513.40562 367.97641,513.49062 C 367.72766,513.58687 366.30516,514.08437 366.02391,514.25687 C 365.77766,514.40812 365.66391,514.93562 365.71141,515.14687 C 365.73266,515.24437 365.83016,515.47812 366.05266,515.72687 C 366.17391,515.86187 366.25141,515.74687 366.32266,515.59062 C 366.36266,515.50312 366.42141,515.45937 366.47016,515.48437 C 366.76766,515.63687 366.50766,516.32562 366.58266,516.51562 C 366.67766,516.75187 366.89891,516.96312 367.14141,517.12312 C 367.46891,517.33687 368.11516,517.54687 368.11516,517.54687 C 368.11516,517.54687 368.02141,517.25187 368.13391,517.07312 C 368.22641,516.92437 368.50266,516.72062 368.77266,516.68312 C 369.28641,516.61437 370.07141,516.65812 370.48266,517.01062 C 371.05141,517.49937 370.97516,518.14062 370.97516,518.14062 C 370.97516,518.14062 369.96141,518.53187 369.47391,518.60937 C 368.98391,518.68687 368.60891,518.67562 368.25266,518.54687 C 367.89641,518.41812 367.58016,518.04687 367.58016,518.04687 C 367.58016,518.04687 367.46891,518.61812 367.42391,518.68812 C 367.38891,518.74062 367.12516,518.86562 367.14891,519.03062 C 367.19141,519.35562 367.64516,519.38062 367.69516,519.46937 C 367.75891,519.58062 367.41391,519.91187 367.65141,520.40687 C 367.77891,520.67687 368.06016,520.90437 368.31641,521.04687 C 368.60266,521.20562 368.86016,521.26687 368.86016,521.26687 C 368.86016,521.26687 368.76641,520.86937 368.98641,520.58062 C 369.10891,520.41812 369.35266,520.36687 369.38641,520.38437 C 369.45516,520.41812 369.46391,520.56562 369.74266,520.72062 C 370.04641,520.89062 370.42266,520.83062 370.42266,520.83062 C 370.42266,520.83062 370.13391,520.46937 370.38891,520.15937 C 370.56266,519.94812 370.94266,519.86562 371.01016,519.88187 C 371.09641,519.90187 371.41516,520.28562 372.20141,520.52062 C 372.56516,520.62937 373.13266,520.67187 373.40766,520.51937 C 374.06266,520.15812 374.07891,519.87187 374.74891,519.74437 C 374.74891,519.74437 374.39141,519.91437 374.04641,520.77437 C 373.74141,521.53812 372.90141,521.82062 372.37016,521.98687 C 371.72391,522.18937 371.01266,522.33187 370.36891,522.63312 C 369.93766,522.83562 369.38891,523.18187 368.90266,523.62312 C 368.41641,524.06312 367.96391,524.76812 367.71516,524.91437 C 367.46391,525.06062 365.28766,525.32812 363.25016,524.64312 C 361.21266,523.95937 360.44141,522.92187 359.58516,521.80937 C 358.69016,520.64812 357.86266,519.80937 357.29016,519.60062 C 356.76016,519.40937 356.41391,519.31062 355.94016,519.41312 C 355.57891,519.49062 355.29891,519.71062 355.20266,520.04812 C 355.05016,520.58437 355.15766,520.85312 355.28516,521.01812 C 355.43641,521.21312 355.89516,521.36937 355.89516,521.36937 C 355.89516,521.36937 355.34641,521.27187 355.03391,521.57437 C 354.73266,521.86437 354.64891,522.81062 355.08266,523.16937 C 355.44016,523.46562 355.78766,523.46937 355.78766,523.46937 C 355.78766,523.46937 355.55516,523.48062 355.47141,523.63937 C 355.32266,523.91062 355.20391,524.35687 355.40766,524.65937 C 355.91891,525.41687 356.43641,525.12187 356.99391,525.23812 C 357.77141,525.39937 358.06641,525.44937 358.63391,525.72812 C 359.51016,526.16062 360.35766,526.96437 361.19266,527.79187 C 362.18641,528.77687 363.03266,529.29062 363.30391,529.50687 C 365.56891,531.32187 367.87766,531.11187 367.87766,531.11187 C 367.87766,531.11187 367.69516,531.03062 367.40016,530.86562 C 367.18141,530.74437 367.01016,530.59687 367.08641,530.58437 C 367.24141,530.56312 367.76266,530.73187 368.49391,530.69562 C 369.20516,530.65812 369.52891,530.48312 369.61016,530.49937 C 369.72641,530.51937 369.53266,531.70812 368.75766,532.41062 C 367.99766,533.09812 367.51391,533.24062 366.66266,533.30187 C 365.95641,533.35437 363.44766,533.65187 362.89766,533.56687 C 362.34516,533.48187 361.44266,533.06937 361.08016,533.00687 C 360.71266,532.94687 360.43266,532.87187 360.03766,533.21812 C 359.64516,533.56312 359.27891,534.44187 359.47266,534.87937 C 359.66766,535.31312 360.29891,535.35812 360.29891,535.35812 C 360.29891,535.35812 359.43891,535.35312 359.12516,535.80937 C 358.86391,536.19062 358.70891,536.68437 359.04766,537.44937 C 359.24266,537.88812 359.74641,538.25687 360.09891,538.20937 C 360.42766,538.16437 360.85516,537.81812 360.85516,537.81812 C 360.85516,537.81812 360.37641,538.40687 360.58766,538.73562 C 360.79766,539.06437 361.44891,539.36437 361.98266,539.33687 C 362.51391,539.30937 363.05016,538.52062 363.39016,538.01937 C 363.76516,537.46437 364.29766,537.27562 364.88766,537.03187 C 365.55141,536.75312 369.67641,536.24312 370.31016,536.35312 C 370.96266,536.46562 370.95391,536.49562 371.32016,536.58187 C 371.32016,536.58187 371.28141,536.37812 371.13391,536.13062 C 370.94641,535.81687 370.75766,535.65812 370.80141,535.59937 C 370.86016,535.52062 371.74891,535.51437 372.46016,535.67562 C 373.29391,535.86687 373.96891,536.40062 373.96891,536.40062 C 373.96891,536.40062 373.37266,536.21687 372.75766,536.26937 C 372.34891,536.30312 372.00766,536.41187 372.00766,536.41187 C 372.06891,536.51062 372.07891,536.56812 372.12641,536.69437 C 372.22891,536.97812 372.32141,537.36562 372.26391,537.36562 C 372.18016,537.36437 371.85016,537.25812 371.44141,537.17937 C 370.94516,537.08062 370.76516,537.00187 370.33641,537.03312 C 370.07016,537.05562 367.19891,537.77812 366.31141,539.44062 C 365.47141,541.01312 365.91141,541.92187 366.17141,542.40562 C 366.43391,542.88937 367.23516,543.58312 367.49641,543.78937 C 367.90391,544.11437 369.33016,544.76062 369.32391,544.89687 C 369.31766,545.02937 368.38016,545.36687 367.33016,545.47937 C 366.27266,545.59312 364.74016,545.21312 364.26516,544.67687 C 363.95641,544.33062 363.31766,543.23562 362.93266,542.80687 C 362.55016,542.37937 361.56641,541.92437 360.94391,542.17937 C 360.52266,542.34687 360.31641,542.69562 360.14891,543.03812 C 359.98141,543.38062 360.13516,543.68187 360.25266,543.79312 C 360.33391,543.86687 360.58141,544.02062 360.58141,544.02062 C 360.58141,544.02062 360.31391,543.94687 360.01516,544.19687 C 359.76016,544.41312 359.60141,544.66062 359.54766,545.25437 C 359.50016,545.77437 359.66516,546.09312 359.90266,546.29562 C 360.14516,546.50062 360.46141,546.44687 360.46141,546.44687 C 360.46141,546.44687 359.97641,546.60437 359.95641,546.95687 C 359.94016,547.31562 360.16516,547.89312 360.61891,548.11187 C 361.07391,548.33062 362.68641,548.06062 363.40891,547.98437 C 363.94391,547.92812 364.91016,548.05437 365.43141,548.39187 C 365.77516,548.61687 366.02016,549.00062 366.33141,549.23937 C 366.56016,549.41437 366.98016,549.46312 367.25516,549.26187 C 367.49391,549.09062 367.50141,548.89437 367.65141,548.76687 C 367.79391,548.64687 367.88766,548.57312 368.95891,548.49437 C 369.85141,548.42562 370.21391,548.78187 370.34891,548.99562 C 370.40266,549.08437 370.43391,548.98937 370.46641,549.27187 C 370.51641,549.68062 370.38516,549.82812 370.38516,549.82812 C 370.38516,549.82812 370.88141,549.80437 371.25891,549.57062 C 371.47391,549.43812 371.75266,549.22312 371.80391,549.17437 C 371.86391,549.11437 372.02016,549.04437 372.06766,549.24187 C 372.12516,549.48812 372.03391,549.56437 372.03391,549.56437 C 372.03391,549.56437 372.52016,549.49937 372.87641,549.27187 C 373.28766,549.00937 373.40391,548.86062 373.53516,548.84437 C 373.61766,548.83437 373.66766,548.92687 373.59641,549.21312 C 373.59641,549.21312 375.18016,548.90437 375.01516,547.16437 C 374.79391,544.86812 374.54891,543.95437 374.77516,543.03062 C 374.99766,542.10687 375.82391,541.21312 375.82391,541.21312 L 376.17516,541.74062 C 376.17516,541.74062 375.55766,542.59312 375.48391,543.70187 C 375.43766,544.37187 375.64766,545.71312 375.85891,546.33312 C 376.11516,547.07812 376.51766,547.70062 376.71266,547.94062 C 377.12016,548.44437 377.42766,548.47937 377.42766,548.47937 C 377.42766,548.47937 377.42641,548.34687 377.49516,548.13187 C 377.54766,547.96687 377.68391,547.95312 377.70891,547.96062 C 377.78016,547.98062 377.82766,548.22687 378.10516,548.46437 C 378.41141,548.72937 379.22641,548.84437 379.22641,548.84437 C 379.22641,548.84437 379.16391,548.72937 379.18141,548.53187 C 379.19766,548.34812 379.30641,548.21812 379.35891,548.23312 C 379.43891,548.25812 379.36391,548.38562 379.85391,548.62812 C 380.31516,548.86062 380.80891,548.74562 380.80891,548.74562 C 380.80891,548.74562 380.71141,548.61687 380.71141,548.47937 C 380.71141,548.31687 380.80391,548.17937 380.86016,548.16937 C 380.93016,548.15437 380.83266,548.23437 381.42516,548.35437 C 381.98016,548.46937 382.33016,548.11562 382.33016,548.11562 C 382.33016,548.11562 382.09141,547.88062 381.95891,547.63187 C 381.87891,547.48312 381.91766,547.31937 381.99266,547.23562 C 382.07516,547.14562 382.81016,547.12812 383.15766,547.62187 C 383.46516,548.05437 383.70516,550.03062 383.60391,551.13687 C 383.53141,551.94312 382.76516,553.40062 381.66641,554.07562 C 380.71266,554.65812 380.38016,554.41437 380.04766,554.16562 C 379.65516,553.87562 378.97266,553.29687 378.52891,553.23062 C 378.08516,553.16437 377.63891,553.16437 377.29016,553.24062 C 376.99891,553.30687 377.14016,553.25062 376.60891,553.39687 C 376.24891,553.49562 375.65766,553.68562 375.41641,554.14312 C 375.20141,554.55312 375.22891,555.27687 375.57641,555.53312 C 375.90391,555.77937 376.20891,555.83812 376.36766,555.68937 C 376.36766,555.68937 376.19141,555.83812 376.05266,556.07937 C 375.85266,556.43062 375.85391,556.73562 376.18641,557.24812 C 376.47141,557.68687 376.94016,557.86562 377.16641,557.87937 C 377.52891,557.90437 377.73766,557.80187 377.73766,557.80187 C 377.73766,557.80187 377.82016,557.77687 378.00766,557.54312 C 378.00766,557.54312 377.58891,558.16187 377.83516,558.59687 C 377.95016,558.79937 378.34016,559.02187 378.76516,559.02562 C 379.35641,559.02937 379.91016,558.92687 380.17391,558.77937 C 380.59766,558.54437 380.96516,558.26437 381.27641,557.99687 C 381.84016,557.51187 382.33766,556.92187 383.09391,556.44062 C 383.50141,556.17937 385.13016,555.31312 385.89891,555.15812 C 386.33891,555.06937 386.54266,555.03062 386.81016,554.78187 C 387.06766,554.54437 387.31516,553.91187 387.05516,553.34687 C 386.79516,552.78187 387.00891,551.99812 387.21891,550.92312 C 387.42891,549.85062 387.70016,549.14312 388.04141,548.89812 C 388.38016,548.65312 388.77016,548.68312 389.44891,548.24062 C 390.17766,547.76937 390.09141,546.97687 390.09141,546.97687 C 390.09141,546.97687 389.89141,547.07062 389.33641,546.78687 C 388.87641,546.55062 388.93016,546.26437 388.94516,546.15312 C 388.96516,546.02062 389.09266,546.03687 389.49891,545.67937 C 389.96641,545.26437 389.83141,544.24312 389.83141,544.24312 C 389.83141,544.24312 389.67266,544.46062 389.19016,544.45312 C 388.84391,544.44687 388.51516,544.41937 388.44766,544.12187 C 388.37891,543.80937 388.64266,543.75437 388.70266,543.33312 C 388.78016,542.80312 388.49891,542.46062 388.49891,542.46062 C 388.49891,542.46062 388.29516,542.81937 387.41891,542.87562 C 386.87516,542.91187 386.59016,542.83312 386.36141,542.73187 C 386.02891,542.58312 385.64391,542.18062 385.56391,541.75062 C 385.40891,540.91937 385.70266,540.52562 385.79516,540.42437 C 386.12141,540.06562 386.87766,540.22687 387.83391,540.88562 C 388.91016,541.63312 391.00766,542.68437 392.70891,541.98562 C 394.28766,541.33562 395.72766,538.50062 394.07141,536.09562 C 392.59766,533.95937 388.38016,529.42062 387.91141,528.67312 C 387.49766,528.01437 386.81891,526.88937 386.96391,525.79312 C 387.08891,524.85812 387.51891,524.24187 387.94766,523.87937 C 388.36641,523.52562 388.88891,523.27562 389.04266,523.25687 C 389.18641,523.23687 390.34141,523.92812 391.33516,524.04437 C 392.27266,524.15562 393.13141,523.73187 393.79141,523.36187 C 394.32516,523.06312 394.80891,523.12687 394.80891,523.12687 C 394.56891,522.97937 394.64641,522.96937 394.38266,522.86687 C 394.22766,522.80437 393.86891,522.81562 393.86891,522.81562 C 393.86891,522.81562 395.34141,522.37437 396.11516,521.50562 C 397.43641,520.02687 397.65016,517.64687 397.65016,517.64687"
       id="path2776"
       style="fill:#ffe600;fill-opacity:1;fill-rule:evenodd;stroke:none;display:inline" />
  </g>
</svg>
