<?xml version="1.0" encoding="UTF-8"?>
<!DOCTYPE svg PUBLIC "-//W3C//DTD SVG 1.1//EN" "http://www.w3.org/Graphics/SVG/1.1/DTD/svg11.dtd">
<!-- Creator: CorelDRAW -->
<svg xmlns="http://www.w3.org/2000/svg" xml:space="preserve" width="2144px" height="2875px" style="shape-rendering:geometricPrecision; text-rendering:geometricPrecision; image-rendering:optimizeQuality; fill-rule:evenodd; clip-rule:evenodd"
viewBox="0 0 2174.34 2915.31"
 xmlns:xlink="http://www.w3.org/1999/xlink">
 <defs>
  <style type="text/css">
   <![CDATA[
    .fil2 {fill:#2C1A69}
    .fil0 {fill:#AB842C}
    .fil1 {fill:#CB2725}
    .fil3 {fill:white}
   ]]>
  </style>
 </defs>
 <g id="Ebene_x0020_1">
  <metadata id="CorelCorpID_0Corel-Layer"/>
  <path class="fil0" d="M833.352 533.418c0,18.6395 -15.1078,33.7473 -33.7473,33.7473 -18.6395,0 -33.7473,-15.1078 -33.7473,-33.7473 0,-18.6395 15.1078,-33.7473 33.7473,-33.7473 18.6395,0 33.7473,15.1078 33.7473,33.7473z"/>
  <polygon class="fil1" points="528.678,558.729 519.302,601.853 553.049,635.6 "/>
  <path class="fil0" d="M1797.7 169.041c-61.5749,0 -78.4503,76.5749 -78.4503,76.5749 0,0 -18.7473,-32.4539 -56.8299,-32.4539 -43.4754,0 -69.1162,29.6419 -69.1162,68.3497 0,38.7078 35.4671,57.3988 43.3293,65.2611 20.4491,25.1892 -1.28383,38.0587 -20.5006,28.212 -13.1293,-3.7521 -141.563,-37.4994 -159.374,-37.4994 -30.1126,-2.28503 -23.7269,-22.1473 -5.68024,-22.1473 8.26108,0.443114 14.8539,1.05868 19.5138,1.05868 32.1054,0 52.8563,-23.9054 52.8563,-47.0168 0,-49.0754 -42.1174,-55.3018 -42.1174,-55.3018 0,0 9.6491,-12.5162 9.6491,-25.6455 0,-29.7689 -23.6754,-57.4216 -56.9521,-57.4216 -57.4216,0 -55.5461,61.0515 -55.5461,61.0515 0,0 -7.78683,-2.22395 -10.3545,-2.22395 -15.8874,0 -52.0707,15.9401 -52.0707,52.0862 0,30.8778 26.3174,48.2012 39.4551,50.5665 18.2826,6.09341 24.8467,23.9054 0,26.2467 -11.2467,-1.87545 -184.703,-15.4371 -198.236,-15.4371 -25.8144,0 -31.6743,-42.4503 9.22515,-42.103 39.7234,0 77.3497,-30.582 77.3497,-75.1114 1.27425,-75.2287 -76.7617,-79.9174 -76.7617,-79.9174 0,0 5.15329,-16.6407 5.15329,-26.4862 0,-48.5126 -45.4647,-79.6826 -84.8359,-79.6826 -39.3749,0 -84.8443,31.1701 -84.8443,79.6826 0,9.84551 5.15808,26.4862 5.15808,26.4862 0,0 -78.0407,4.68862 -76.7665,79.9174 0,44.5293 37.6263,75.1114 77.3497,75.1114 40.8982,-0.347305 35.0395,42.103 9.22994,42.103 -13.5377,0 -186.994,13.5617 -198.242,15.4371 -24.8407,-2.34132 -18.2814,-20.1533 0,-26.2467 13.1425,-2.36527 39.4611,-19.6886 39.4611,-50.5665 0,-36.1461 -36.1832,-52.0862 -52.0814,-52.0862 -2.56168,0 -10.3485,2.22395 -10.3485,2.22395 0,0 1.87545,-61.0515 -55.5461,-61.0515 -33.2778,0 -56.9473,27.6527 -56.9473,57.4216 0,13.1293 9.6479,25.6455 9.6479,25.6455 0,0 -42.121,6.22635 -42.121,55.3018 0,23.1114 20.7545,47.0168 52.8611,47.0168 4.65509,0 11.2479,-0.615569 19.509,-1.05868 18.0515,0 24.4323,19.8623 -5.68024,22.1473 -17.812,0 -146.246,33.7473 -159.369,37.4994 -19.2228,9.84671 -40.9557,-3.02275 -20.5006,-28.212 7.86108,-7.86228 43.3246,-26.5533 43.3246,-65.2611 0,-38.7078 -25.6359,-68.3497 -69.1162,-68.3497 -38.0826,0 -56.8299,32.4539 -56.8299,32.4539 0,0 -16.8754,-76.5749 -78.4503,-76.5749 -49.9832,0 -77.1665,14.6994 -77.1665,14.6994 0,0 30.0838,48.8599 64.4611,104.636 6.50778,-4.76287 14.5066,-7.60359 23.1868,-7.60359 21.7473,0 39.3749,17.6287 39.3749,39.376 0,15.2587 -8.6982,28.4671 -21.394,34.9976 29.5198,47.8587 54.5257,88.3341 57.7329,93.3329 22.1461,26.7222 46.3389,19.2743 67.2539,15.3329 142.023,-56.7162 416.231,-86.4814 556.853,-82.9641 140.617,-3.51737 414.822,26.2479 556.849,82.9641 20.9102,3.94132 45.1018,11.3892 67.2491,-15.3329 3.20719,-4.9988 28.2132,-45.4743 57.7329,-93.3329 -12.6958,-6.53054 -21.3904,-19.7389 -21.3904,-34.9976 0,-21.7473 17.624,-39.376 39.3713,-39.376 8.68024,0 16.6778,2.84072 23.1856,7.60359 34.3772,-55.776 64.4659,-104.636 64.4659,-104.636 0,0 -27.1916,-14.6994 -77.1701,-14.6994zm-1046.38 106.574c-19.4144,0 -35.1533,-15.7425 -35.1533,-35.1521 0,-19.4156 15.7389,-35.1581 35.1533,-35.1581 19.4156,0 35.1581,15.7425 35.1581,35.1581 0,19.4096 -15.7425,35.1521 -35.1581,35.1521zm336.084 -55.9497c-25.4383,0 -46.0575,-20.6192 -46.0575,-46.0527 0,-25.4383 20.6192,-46.0527 46.0575,-46.0527 25.4299,0 46.0479,20.6144 46.0479,46.0527 0,25.4335 -20.618,46.0527 -46.0479,46.0527zm300.922 20.7976c0,-19.4156 15.7377,-35.1581 35.1521,-35.1581 19.4156,0 35.1581,15.7425 35.1581,35.1581 0,19.4096 -15.7425,35.1521 -35.1581,35.1521 -19.4144,0 -35.1521,-15.7425 -35.1521,-35.1521z"/>
  <path class="fil0" d="M1087.41 394.672c156.549,0 422.236,30.1126 573.725,89.994 -5.62874,26.2527 -9.5497,40.9796 -15.0048,62.8108 -129.369,-55.3054 -406.855,-89.0575 -558.72,-89.0575 -151.868,0 -429.359,33.7521 -558.729,89.0575 -5.45389,-21.8311 -9.37605,-36.5581 -14.9988,-62.8108 151.483,-59.8814 417.171,-89.994 573.728,-89.994z"/>
  <path class="fil0" d="M1087.41 562.477c134.053,0 404.04,30.9401 535.285,85.3102 -4.29341,17.6802 -11.2527,49.6874 -15.9353,65.6228 -97.4946,-44.0587 -372.174,-88.1174 -519.35,-88.1174 -147.186,0 -421.86,44.0587 -519.353,88.1174 -4.68743,-15.9353 -11.6467,-47.9425 -15.9401,-65.6228 131.246,-54.3701 401.236,-85.3102 535.293,-85.3102z"/>
  <path class="fil0" d="M1341.45 533.418c0,18.6395 15.1126,33.7473 33.7521,33.7473 18.6383,0 33.7461,-15.1078 33.7461,-33.7473 0,-18.6395 -15.1078,-33.7473 -33.7461,-33.7473 -18.6395,0 -33.7521,15.1078 -33.7521,33.7473z"/>
  <polygon class="fil1" points="1646.13,558.729 1655.5,601.853 1621.76,635.6 "/>
  <polygon class="fil1" points="1087.41,468.731 1133.57,511.388 1087.41,552.4 1041.23,511.388 "/>
  <path class="fil0" d="M1586.42 880.213c-4.0994,-48.4551 -44.782,-86.6503 -94.2719,-86.6503 -37.4479,0 -69.7844,21.9018 -85.1365,53.515 -34.3725,-6.12695 -118.747,-16.3449 -177.505,-21.6958l-53.9377 -8.2479c-0.282635,-0.780838 -0.546108,-1.57485 -0.856287,-2.34132 -0.578443,-1.40599 -1.2503,-2.76048 -1.89461,-4.12934 -0.536527,-1.14251 -1.06228,-2.28982 -1.64551,-3.40838 -0.686228,-1.33054 -1.42994,-2.62395 -2.18204,-3.91737 -0.639521,-1.10898 -1.30778,-2.20479 -1.99401,-3.28144 -0.784431,-1.23234 -1.57485,-2.45509 -2.41677,-3.6491 -0.785629,-1.11377 -1.61317,-2.18683 -2.44072,-3.26826 -0.840719,-1.08623 -1.65509,-2.19042 -2.53413,-3.23952 -1.63593,-1.94132 -3.33892,-3.82754 -5.12096,-5.62874 -0.813174,-0.822754 -1.68743,-1.58922 -2.52934,-2.37844 -1.17964,-1.11497 -2.36527,-2.22036 -3.59281,-3.26826 -0.94491,-0.8 -1.91737,-1.55689 -2.88144,-2.32335 -1.24671,-0.977246 -2.51138,-1.92695 -3.80958,-2.84431 -0.967665,-0.691018 -1.95569,-1.36886 -2.95689,-2.02156 -1.45749,-0.954491 -2.95329,-1.8479 -4.46707,-2.71856 -0.898204,-0.517365 -1.77246,-1.05749 -2.68024,-1.54251 -2.40719,-1.28743 -4.85749,-2.48263 -7.37844,-3.55928 -0.507784,-0.215569 -1.03353,-0.380838 -1.53653,-0.588024 -2.11617,-0.85988 -4.26108,-1.65509 -6.44671,-2.36407 -0.936527,-0.301796 -1.88623,-0.555689 -2.83593,-0.832335 -1.83832,-0.526946 -3.68623,-1.01198 -5.56287,-1.42994 -1.02036,-0.22994 -2.03593,-0.446707 -3.06946,-0.634731 -1.95689,-0.371257 -3.93653,-0.663473 -5.93892,-0.912575 -0.922156,-0.112575 -1.83473,-0.253892 -2.76527,-0.337725 -2.92455,-0.277844 -5.87305,-0.451497 -8.86826,-0.451497 -2.99042,0 -5.94371,0.173653 -8.86826,0.451497 -0.925749,0.0838323 -1.84311,0.22515 -2.76048,0.337725 -2.0024,0.249102 -3.98204,0.541317 -5.94251,0.912575 -1.02994,0.188024 -2.0503,0.40479 -3.06587,0.634731 -1.88144,0.417964 -3.72934,0.902994 -5.56766,1.42994 -0.94491,0.276647 -1.8994,0.530539 -2.83114,0.832335 -2.19042,0.708982 -4.34012,1.50419 -6.45988,2.36886 -0.502994,0.202395 -1.02515,0.367665 -1.52335,0.578443 -2.52575,1.08144 -4.97964,2.28144 -7.38323,3.56407 -0.906587,0.48024 -1.77725,1.02036 -2.66108,1.53293 -1.52335,0.88024 -3.02395,1.77365 -4.49102,2.73293 -0.996407,0.647904 -1.97006,1.32096 -2.93772,2.00719 -1.30778,0.922156 -2.58204,1.88144 -3.83713,2.87305 -0.959281,0.752096 -1.92335,1.5006 -2.8503,2.28982 -1.25988,1.07186 -2.45868,2.19162 -3.65749,3.32455 -0.822754,0.780838 -1.67904,1.51856 -2.47305,2.32335 -1.78683,1.81437 -3.50419,3.70419 -5.14491,5.65629 -0.85988,1.02036 -1.64551,2.09701 -2.46347,3.15928 -0.856287,1.11018 -1.70659,2.21557 -2.51617,3.36287 -0.822754,1.17006 -1.60359,2.36886 -2.37006,3.57725 -0.708982,1.11018 -1.39162,2.23353 -2.05389,3.37246 -0.734132,1.26467 -1.45749,2.53413 -2.13533,3.83593 -0.605988,1.16168 -1.1521,2.3521 -1.70659,3.54132 -0.62515,1.33054 -1.27425,2.64311 -1.83832,4.0012 -0.31497,0.780838 -0.568862,1.58443 -0.870659,2.37006l-53.9377 8.2479c-58.7581,5.35569 -143.123,15.5689 -177.501,21.6958 -15.3521,-31.6132 -47.6934,-53.515 -85.1365,-53.515 -49.4898,0 -90.1725,38.1952 -94.2719,86.6455l-587.911 158.89 7.30778 53.8623c52.0144,383.491 202.351,761.01 446.828,1122.08 222.956,329.285 467.137,558.574 592.848,665.952l40.1749 34.3114 0.00958084 0.00838323 40.1844 -34.3198c125.707,-107.378 369.892,-336.667 592.848,-665.952 244.477,-361.071 394.813,-738.589 446.828,-1122.08l7.30778 -53.8623 -587.911 -158.885z"/>
  <path class="fil2" d="M1087.17 2833.95c309.174,-264.08 902.774,-895.749 1018.55,-1749.3 -101.604,-27.4599 -534.467,-144.444 -534.504,-144.454 -11.9952,18.1832 -30.0419,32.0359 -51.2958,38.5677l0 246.456c38.6982,11.897 66.9162,47.9665 66.9162,90.5162 0,42.5449 -28.218,78.6144 -66.9162,90.5066l0 89.0156c0,33.5964 -14.5713,154.211 -32.8719,198.25 -0.0802395,0.211976 -0.583234,1.42994 -1.32216,3.21198 17.2719,17.1581 27.988,40.9078 27.988,67.1222 0,51.7569 -41.7641,93.8826 -93.3521,94.612l-1.66826 4.39162c-28.491,68.2982 -159.99,233.817 -240.086,279.855 0.870659,3.27784 1.5521,6.63114 2.06946,10.0395 0.154491,0.968862 0.300599,1.92814 0.427545,2.90539 0.141317,1.19042 0.273054,2.37964 0.371257,3.58323 0.221557,2.5485 0.376048,5.11617 0.376048,7.71617 0,52.2084 -42.4695,94.6826 -94.6814,94.6826l0 572.322z"/>
  <path class="fil1" d="M1087.17 2261.63c-52.2072,0 -94.6814,-42.4743 -94.6814,-94.6826 0,-2.6 0.154491,-5.16766 0.376048,-7.71617 0.0982036,-1.20359 0.22994,-2.39281 0.376048,-3.58323 0.122156,-0.977246 0.268263,-1.93653 0.422754,-2.90539 0.517365,-3.40838 1.1988,-6.76168 2.06946,-10.0395 -80.1006,-46.0383 -211.6,-211.557 -240.081,-279.855l-1.67305 -4.39162c-51.5868,-0.729341 -93.3521,-42.8551 -93.3521,-94.612 0,-26.2144 10.7162,-49.9641 27.988,-67.1222 -0.738922,-1.78204 -1.24192,-3 -1.32695,-3.21198 -18.2958,-44.0395 -32.8671,-164.654 -32.8671,-198.25l0 -89.0156c-38.6982,-11.8922 -66.9162,-47.9617 -66.9162,-90.5066 0,-42.5497 28.218,-78.6192 66.9162,-90.5162l0 -246.456c-21.2491,-6.53174 -39.3006,-20.3844 -51.3329,-38.5581 0,0 -432.863,116.984 -534.467,144.444 115.776,853.552 709.376,1485.22 1018.55,1749.3l0 -572.322z"/>
  <path class="fil3" d="M1030.43 2091.19c15.8228,-11.8814 35.4719,-18.9305 56.7353,-18.9305 21.1593,0 40.721,6.97844 56.5006,18.7473l0.234731 0.183234c62.7832,-31.8383 192.152,-190.953 217.68,-252.156 -22.5749,-17.4072 -37.2407,-44.5856 -37.2407,-75.1916 0,-52.2168 42.4743,-94.691 94.6862,-94.691 3.68263,0 7.28862,0.268263 10.8671,0.671856 13.7257,-33.0132 28.1509,-144.289 28.1509,-174.565 0,-4.53772 0,-40.4012 0,-91.297 -35.388,-13.7293 -60.582,-48.0503 -60.582,-88.2251 0,-40.1749 25.194,-74.5006 60.582,-88.2311 0,-126.854 0,-250.952 0,-250.952 -29.2467,-11.4539 -51.4216,-36.7796 -58.2958,-67.8563 -41.497,-8.07305 -192.425,-24.9725 -223.836,-24.9725 -0.0838323,0.0850299 -0.173653,0.249102 -0.257485,0.409581l0.300599 -0.48982c-13.3964,36.0419 -48.1401,61.7904 -88.7904,61.7904 -40.6216,0 -75.3509,-25.715 -88.7617,-61.7198l0.273054 0.419162c-0.0850299,-0.160479 -0.17485,-0.324551 -0.258683,-0.409581 -31.4108,0 -182.339,16.8994 -223.835,24.9725 -6.87545,31.0766 -29.0503,56.4024 -58.297,67.8563 0,0 0,124.098 0,250.952 35.388,13.7305 60.582,48.0563 60.582,88.2311 0,40.1749 -25.194,74.4958 -60.582,88.2251 0,50.8958 0,86.7593 0,91.297 0,30.2766 14.4251,141.552 28.1509,174.565 3.57365,-0.403593 7.18922,-0.671856 10.8671,-0.671856 52.212,0 94.6862,42.4743 94.6862,94.691 0,30.606 -14.6659,57.7844 -37.2407,75.1916 25.5234,61.2024 154.892,220.317 217.68,252.156z"/>
  <path class="fil0" d="M946.419 1166.1c0,2.7509 -2.22874,4.97964 -4.97006,4.97964 -2.7509,0 -4.97964,-2.22874 -4.97964,-4.97964 0,-2.74611 2.22874,-4.97006 4.97964,-4.97006 2.74132,0 4.97006,2.22395 4.97006,4.97006z"/>
  <polygon class="fil1" points="901.509,1169.83 900.127,1176.19 905.107,1181.17 "/>
  <path class="fil0" d="M1088.57 1112.39c-9.08024,0 -11.5677,11.285 -11.5677,11.285 0,0 -2.75928,-4.78204 -8.37844,-4.78204 -6.40479,0 -10.1856,4.36886 -10.1856,10.0719 0,5.71377 5.22874,8.46467 6.38563,9.62036 3.01437,3.71976 -0.188024,5.61437 -3.02275,4.16168 -1.93293,-0.554491 -20.8635,-5.52455 -23.4874,-5.52455 -4.44311,-0.338922 -3.4982,-3.26347 -0.837126,-3.26347 1.21317,0.0610778 2.19162,0.150898 2.87305,0.150898 4.73533,0 7.79641,-3.52216 7.79641,-6.93174 0,-7.23114 -6.21677,-8.15329 -6.21677,-8.15329 0,0 1.42515,-1.84311 1.42515,-3.78084 0,-4.38683 -3.48383,-8.45868 -8.39281,-8.45868 -8.46467,0 -8.18683,9 -8.18683,9 0,0 -1.14731,-0.334132 -1.52335,-0.334132 -2.3509,0 -7.67425,2.35569 -7.67425,7.68383 0,4.54611 3.87425,7.10419 5.81198,7.45269 2.69461,0.898204 3.66347,3.52216 0,3.86946 -1.65988,-0.276647 -27.2299,-2.27545 -29.224,-2.27545 -3.80359,0 -4.66826,-6.25868 1.35928,-6.20719 5.85868,0 11.4024,-4.50898 11.4024,-11.0731 0.188024,-11.0874 -11.3126,-11.7784 -11.3126,-11.7784 0,0 0.756886,-2.45509 0.756886,-3.90778 0,-7.14731 -6.7006,-11.7461 -12.5078,-11.7461 -5.7976,0 -12.503,4.5988 -12.503,11.7461 0,1.45269 0.761677,3.90778 0.761677,3.90778 0,0 -11.5066,0.691018 -11.3186,11.7784 0,6.56407 5.54491,11.0731 11.3988,11.0731 6.03234,-0.051497 5.17246,6.20719 1.36287,6.20719 -1.99281,0 -27.5629,1.9988 -29.2228,2.27545 -3.66347,-0.347305 -2.69461,-2.97126 0,-3.86946 1.94132,-0.348503 5.81557,-2.90659 5.81557,-7.45269 0,-5.32814 -5.32695,-7.68383 -7.67305,-7.68383 -0.376048,0 -1.52814,0.334132 -1.52814,0.334132 0,0 0.276647,-9 -8.18204,-9 -4.90898,0 -8.39281,4.07186 -8.39281,8.45868 0,1.93772 1.41437,3.78084 1.41437,3.78084 0,0 -6.20599,0.922156 -6.20599,8.15329 0,3.40958 3.05629,6.93174 7.79162,6.93174 0.686228,0 1.65988,-0.0898204 2.87665,-0.150898 2.65749,0 3.6024,2.92455 -0.840719,3.26347 -2.62395,0 -21.5545,4.97006 -23.4874,5.52455 -2.83593,1.45269 -6.03713,-0.441916 -3.02395,-4.16168 1.15689,-1.15569 6.38563,-3.90659 6.38563,-9.62036 0,-5.70299 -3.78084,-10.0719 -10.1844,-10.0719 -5.61916,0 -8.37964,4.78204 -8.37964,4.78204 0,0 -2.48743,-11.285 -11.5617,-11.285 -7.37365,0 -11.3796,2.16766 -11.3796,2.16766 0,0 4.43353,7.20359 9.50299,15.418 0.959281,-0.695808 2.13892,-1.11377 3.41317,-1.11377 3.21198,0 5.80719,2.59521 5.80719,5.80719 0,2.2479 -1.27904,4.18922 -3.15449,5.15329 4.35449,7.05749 8.04072,13.0204 8.51497,13.7581 3.25868,3.94132 6.82754,2.84072 9.90778,2.26228 20.9389,-8.36527 61.3581,-12.7473 82.085,-12.2251 20.7269,-0.522156 61.1509,3.85988 82.085,12.2251 3.08383,0.578443 6.65269,1.67904 9.91617,-2.26228 0.470659,-0.737725 4.15689,-6.7006 8.51138,-13.7581 -1.87186,-0.964072 -3.16048,-2.90539 -3.16048,-5.15329 0,-3.21198 2.6012,-5.80719 5.81198,-5.80719 1.27425,0 2.45509,0.417964 3.41437,1.11377 5.06826,-8.21437 9.50778,-15.418 9.50778,-15.418 0,0 -4.01198,-2.16766 -11.3796,-2.16766zm-154.243 15.7054c-2.85988,0 -5.18204,-2.31856 -5.18204,-5.17725 0,-2.86347 2.32216,-5.18683 5.18204,-5.18683 2.86347,0 5.18084,2.32335 5.18084,5.18683 0,2.85868 -2.31737,5.17725 -5.18084,5.17725zm49.5365 -8.24311c-3.74251,0 -6.78563,-3.04671 -6.78563,-6.78922 0,-3.75329 3.04311,-6.79042 6.78563,-6.79042 3.7521,0 6.78922,3.03713 6.78922,6.79042 0,3.74251 -3.03713,6.78922 -6.78922,6.78922zm44.3593 3.06587c0,-2.86347 2.32335,-5.18683 5.18204,-5.18683 2.86347,0 5.18204,2.32335 5.18204,5.18683 0,2.85868 -2.31856,5.17725 -5.18204,5.17725 -2.85868,0 -5.18204,-2.31856 -5.18204,-5.17725z"/>
  <path class="fil0" d="M983.867 1145.65c23.0778,0 62.2467,4.44311 84.5772,13.2695 -0.832335,3.86467 -1.41078,6.03713 -2.21078,9.25749 -19.0766,-8.15329 -59.9749,-13.1329 -82.3665,-13.1329 -22.382,0 -63.2862,4.97964 -82.3581,13.1329 -0.803593,-3.22036 -1.38204,-5.39281 -2.21437,-9.25749 22.3353,-8.82635 61.4994,-13.2695 84.5725,-13.2695z"/>
  <path class="fil0" d="M983.867 1170.39c19.7629,0 59.5665,4.56527 78.9066,12.5832 -0.631138,2.6 -1.65509,7.31617 -2.34731,9.67186 -14.3737,-6.4982 -54.8635,-12.9916 -76.5593,-12.9916 -21.691,0 -62.1808,6.49341 -76.5557,12.9916 -0.686228,-2.35569 -1.71138,-7.07186 -2.34611,-9.67186 19.3449,-8.01796 59.1437,-12.5832 78.9018,-12.5832z"/>
  <path class="fil0" d="M1021.31 1166.1c0,2.7509 2.22874,4.97964 4.97964,4.97964 2.7497,0 4.97485,-2.22874 4.97485,-4.97964 0,-2.74611 -2.22515,-4.97006 -4.97485,-4.97006 -2.7509,0 -4.97964,2.22395 -4.97964,4.97006z"/>
  <polygon class="fil1" points="1066.23,1169.83 1067.61,1176.19 1062.63,1181.17 "/>
  <polygon class="fil1" points="983.867,1156.57 990.675,1162.85 983.867,1168.9 977.063,1162.85 "/>
  <path class="fil0" d="M1122.33 1415.57l-26.4539 -36.4084c0,0 0,-35.6 0,-47.9617 0,-18.3377 -11.0455,-29.2934 -11.0455,-29.2934 0,0 -30.9916,-34.0251 -38.3174,-42.0707 -7.88144,-7.88024 -14.4731,-11.1341 -25.4299,-11.1341 0,-4.21796 0,-2.69461 0,-7.5006 0,-5.85868 -1.3485,-7.96527 -7.96527,-7.96527 -5.15808,0 -26.6048,0 -30.4695,0 -4.49461,0.626347 -7.63114,0.626347 -11.0216,-8.2982 -3.39042,-7.52455 -12.5928,-5.82635 -17.8072,-0.611976 -8.78802,6.7988 -69.4922,74.8862 -71.4814,76.8754 -4.88982,4.88982 -4.79162,12.8311 0,19.6874 0.803593,1.36766 11.7269,19.9928 11.7269,19.9928 0,0 21.2814,-16.085 22.7257,-17.5246 6.79401,-4.34491 18.982,3.39042 18.982,3.39042l-33.394 26.3653c0,0 1.17006,8.55329 8.55329,8.55329 6.1497,0 30.4647,0 30.4647,0l10.7868 21.3281 20.1533 -0.234731 0 -40.3114 12.188 0 0 -39.3713 9.37126 0 0 48.7473 -12.1832 0 0 41.2467 -31.6407 0 -52.4994 50.1533 38.2 0 -20.3174 42.9437 45.2994 0.0802395 -0.605988 45.5677 44.9988 -52.4982 44.9952 33.7473 0 -57.1832 60.0036 0 -22.5042 -40.3114 34.6874 0zm-183.731 -125.951c-3.67305,0 -8.91497,-4.0012 -8.91497,-5.28982 0,-0.822754 0,-2.75569 0,-3.98683 0.493413,-4.21796 15.7844,-7.64551 18.0419,-7.02994 0.371257,0.258683 1.17006,0.22994 1.17006,3.74731 0,3.01916 -3.07425,12.5593 -10.297,12.5593z"/>
  <path class="fil0" d="M952.763 1491.97c0,0 -66.0934,0 -73.824,0 -11.6048,0 -24.7653,9.14132 -26.3689,16.8766 -1.60359,4.4994 -17.9293,50.2695 -17.9293,50.2695 0,0 -1.75449,9.49461 -1.75449,12.3054 0,37.618 33.0419,41.1341 33.0419,41.1341 0,0 14.6048,-47.4251 14.7653,-48.5162 3.04671,-7.02994 11.9521,-14.2383 18.2814,-14.2383 4.04431,0 42.8886,0 44.9988,0 6.67784,0 8.78922,-2.51497 8.78922,-8.78802 0,-2.16766 0,-49.0431 0,-49.0431z"/>
  <path class="fil0" d="M1005.84 1491.62l-44.994 48.5114c0,0 -8.43114,102.751 -8.78802,104.763 0,7.20359 -4.92335,10.194 -10.1988,10.194 -1.66946,0 -25.6647,0 -25.6647,0 0,0 -9.08503,17.0228 -9.48862,17.5772 -2.37485,6.23952 -2.81198,20.388 -2.81198,20.388l76.988 0 65.7401 -112.846 0 -32.3413 12.6527 8.78802 0 14.7641c0,0 42.0144,-23.5521 73.4754,-23.5521 21.8599,0 46.9976,6.82275 66.4407,19.6874 13.006,8.2479 23.3796,14.9437 30.9305,24.4275 13.8383,17.3701 18.9078,39.1126 20.7461,61.7018 -1.93293,0 -10.8946,0 -15.818,0 -8.44072,0 -17.576,5.4491 -19.3353,12.6527 -0.747305,2.8491 -7.02874,26.7174 -7.02874,26.7174l84.3701 0 16.8754 -39.3701 -15.8228 -86.4814c0,0 -45.3473,-45.3473 -45.3473,-86.1293 0,-1.58443 0,-2.5485 0,-3.51737 39.1964,-6.1497 50.2707,-33.0419 50.2707,-60.8168 0,-25.1329 -4.12814,-41.0407 -30.588,-67.4946 -13.5317,-13.5365 -44.4671,-27.5964 -44.4671,-44.4719 0,-5.4503 4.74371,-18.2826 18.2814,-18.2826 8.43593,0 17.0503,2.11138 22.321,9.31976 5.62395,33.7473 37.6168,48.1593 37.6168,48.1593l8.08263 -8.08263c0,0 9.49461,9.49341 34.4527,9.49341 0,-27.0707 -15.9916,-42.0132 -25.6635,-49.9222 -12.1269,-10.4575 -27.1413,-21.7198 -35.7509,-25.5892 -11.6048,-7.20359 -24.8874,-8.15808 -35.2611,-8.15808 -32.8671,0 -50.6228,21.2671 -50.6228,44.994 0,28.303 26.0168,42.8886 35.8587,52.7341 28.3018,25.8383 33.4359,33.2204 33.4359,46.0251 0,11.9808 -5.83952,18.521 -13.4575,18.521 -4.16048,0 -151.807,0 -151.807,0l21.794 40.5653 -63.6287 0 0 66.4407 -53.788 -39.3701z"/>
  <path class="fil0" d="M1116.23 1559.11c0.475449,1.54731 8.43593,27.776 8.43593,27.776 0,0 1.40599,2.81198 1.40599,7.73533 0,14.5856 -11.9485,47.806 -18.6299,59.0587 -3.33892,0 -32.1665,0 -37.6168,0 -7.20359,0 -16.5234,20.5665 -16.5234,39.3701 3.69102,0 78.7509,0 78.7509,0l65.7353 -73.8228c0,0 7.27425,-35.0551 7.38323,-35.8587 -11.9533,-11.9533 -47.4587,-27.9497 -88.9413,-24.2587z"/>
  <path class="fil3" d="M737.495 888.249c0,30.5449 -24.7617,55.3066 -55.3114,55.3066 -30.5449,0 -55.3054,-24.7617 -55.3054,-55.3066 0,-30.5497 24.7605,-55.3114 55.3054,-55.3114 30.5497,0 55.3114,24.7617 55.3114,55.3114z"/>
  <path class="fil3" d="M737.495 1315.73c0,30.5449 -24.7617,55.3066 -55.3114,55.3066 -30.5449,0 -55.3054,-24.7617 -55.3054,-55.3066 0,-30.5497 24.7605,-55.3114 55.3054,-55.3114 30.5497,0 55.3114,24.7617 55.3114,55.3114z"/>
  <path class="fil3" d="M810.618 1763.84c0,30.5401 -24.7617,55.3018 -55.3114,55.3018 -30.5449,0 -55.3066,-24.7617 -55.3066,-55.3018 0,-30.5545 24.7617,-55.315 55.3066,-55.315 30.5497,0 55.3114,24.7605 55.3114,55.315z"/>
  <path class="fil3" d="M1436.84 888.249c0,30.5449 24.7617,55.3066 55.3162,55.3066 30.5449,0 55.3054,-24.7617 55.3054,-55.3066 0,-30.5497 -24.7605,-55.3114 -55.3054,-55.3114 -30.5545,0 -55.3162,24.7617 -55.3162,55.3114z"/>
  <path class="fil3" d="M1031.86 850.75c0,30.5449 24.7617,55.3066 55.3066,55.3066 30.5497,0 55.3114,-24.7617 55.3114,-55.3066 0,-30.5497 -24.7617,-55.3114 -55.3114,-55.3114 -30.5449,0 -55.3066,24.7617 -55.3066,55.3114z"/>
  <path class="fil3" d="M1031.86 2166.94c0,30.5497 24.7617,55.3114 55.3066,55.3114 30.5497,0 55.3114,-24.7617 55.3114,-55.3114 0,-30.5497 -24.7617,-55.315 -55.3114,-55.315 -30.5449,0 -55.3066,24.7653 -55.3066,55.315z"/>
  <path class="fil3" d="M1436.84 1315.73c0,30.5449 24.7617,55.3066 55.3162,55.3066 30.5449,0 55.3054,-24.7617 55.3054,-55.3066 0,-30.5497 -24.7605,-55.3114 -55.3054,-55.3114 -30.5545,0 -55.3162,24.7617 -55.3162,55.3114z"/>
  <path class="fil3" d="M1363.71 1763.84c0,30.5401 24.7653,55.3018 55.315,55.3018 30.5449,0 55.3066,-24.7617 55.3066,-55.3018 0,-30.5545 -24.7617,-55.315 -55.3066,-55.315 -30.5497,0 -55.315,24.7605 -55.315,55.315z"/>
  <path class="fil3" d="M452.509 1418.14l0 40.7808 -80.1521 0c-70.3114,0 -130.776,-68.194 -130.776,-142.028 0,-74.5234 58.3581,-138.505 130.776,-138.505 47.8108,0 80.1521,0 80.1521,0l0 39.3713 -80.1521 0c-47.812,0 -90.6994,48.5114 -90.6994,99.1341 0,49.218 42.182,101.369 90.6994,101.369 39.3701,0 80.1521,-0.122156 80.1521,-0.122156z"/>
  <path class="fil3" d="M1933.69 1280.81c0,48.982 0,177.877 0,177.877l-38.4347 0 0 -59.0539 -142.489 0 0 59.0539 -36.7988 0c0,0 0,-126.083 0,-177.877 0,-54.1449 53.6695,-109.45 109.447,-109.45 55.7808,0 108.275,55.7808 108.275,109.45zm-108.275 -67.2635c-42.188,0 -72.6479,28.5892 -72.6479,72.6479 0,37.0383 0,74.0635 0,74.0635l142.489 0c0,0 0,-35.1629 0,-74.0635 0,-43.5892 -26.7174,-72.6479 -69.8407,-72.6479z"/>
  <path class="fil3" d="M1089.98 2372.54c78.1449,0 141.731,63.582 141.731,141.732 0,78.1497 -63.5856,141.722 -141.731,141.722 -78.1497,0 -141.727,-63.5725 -141.727,-141.722 0,-78.1497 63.5772,-141.732 141.727,-141.732zm0 42.1222c-55.0108,0 -99.6048,44.5952 -99.6048,99.6096 0,55.0048 44.594,99.6048 99.6048,99.6048 55.0096,0 99.6096,-44.6 99.6096,-99.6048 0,-55.0144 -44.6,-99.6096 -99.6096,-99.6096z"/>
 </g>
</svg>
