<?xml version="1.0" encoding="UTF-8"?>
<!DOCTYPE svg PUBLIC "-//W3C//DTD SVG 1.1//EN" "http://www.w3.org/Graphics/SVG/1.1/DTD/svg11.dtd">
<!-- Creator: Brennpeter -->
<svg xmlns="http://www.w3.org/2000/svg" xml:space="preserve" width="61.615mm" height="100mm" style="shape-rendering:geometricPrecision; text-rendering:geometricPrecision; image-rendering:optimizeQuality; fill-rule:evenodd; clip-rule:evenodd"
viewBox="0 0 61.615 100"
 xmlns:xlink="http://www.w3.org/1999/xlink">
 <defs>
  <style type="text/css">
   <![CDATA[
    .fil1 {fill:black;fill-rule:nonzero}
    .fil0 {fill:white;fill-rule:nonzero}
   ]]>
  </style>
 </defs>
 <g id="Ebene_x0020_1">
  <metadata id="Brennpeter-Layer"/>
  <g id="_87915808">
   <polygon id="_87899992" class="fil0" points="61.6152,50.2514 30.789,100 -0.0002,50.2514 30.789,0 "/>
   <polygon id="_87897784" class="fil1" points="59.78,50.2514 30.789,96.6963 1.8126,50.2018 30.789,3.3037 "/>
   <polygon id="_87899032" class="fil0" points="54.9,50.2514 30.789,88.3665 6.7153,50.2514 30.789,11.6333 "/>
   <polygon id="_41575512" class="fil1" points="53.1018,50.2514 30.789,84.99 8.4405,50.2514 30.8775,14.8554 "/>
   <polygon id="_87694552" class="fil0" points="36.0445,26.1289 40.1108,32.9172 21.2845,32.9172 25.6512,26.1289 "/>
   <path id="_44438744" class="fil0" d="M36.103 35.288c2.8182,0.6459 5.6367,3.0528 6.4585,5.8722 0.7634,3.111 0.6468,6.9283 -1.879,9.0998 2.056,3.1121 3.1121,8.1032 0.8229,11.5089 -1.3508,1.9372 -3.4203,3.2591 -5.6525,3.5526l-14.8989 0 0 -30.0335c0,0 10.1578,-0.0582 15.149,0z"/>
   <path id="_44441504" class="fil1" d="M35.8094 36.5211c2.6501,0.4697 4.9324,3.1121 5.7542,5.6367 0.4697,2.9944 -0.2352,6.1065 -2.7006,7.9271 0.2936,1.1146 1.5267,1.9375 1.8195,3.1113 1.175,2.6424 1.1157,6.4594 -0.8799,8.6904 -1.275,1.3955 -2.8078,1.7825 -4.9035,1.9295 -2.5685,0 -5.2539,0 -6.5316,0 -2.0918,0 -5.9091,0 -5.9091,0l0 -27.2658 13.351 -0.0292z"/>
   <path id="_44441400" class="fil0" d="M48.4045 46.3117l2.018 3.9397c0,0 -1.175,1.5648 -2.0549,2.8125 -1.4316,0 -3.046,0 -4.7345,0 -0.2343,-0.998 -0.5718,-1.981 -1.1008,-2.8621 0.9541,-1.2235 1.659,-2.48 1.8352,-3.8901 1.527,0.0447 2.5324,0 4.037,0z"/>
   <polygon id="_87493184" class="fil0" points="19.3104,46.3263 19.3027,53.0639 12.6241,53.0639 10.5323,50.2514 12.9685,46.3263 "/>
   <path id="_87493096" class="fil0" d="M34.3486 53.0639c2.4223,0.4774 2.8262,4.7711 0,5.6883l-7.156 0 0 -5.6883c0,0 4.1558,-0.0204 7.156,0z"/>
   <path id="_44140288" class="fil1" d="M33.9089 54.0549c1.5404,0.4036 2.0179,2.899 0,3.5593 -2.1658,0 -5.6884,0 -5.6884,0l0 -3.5593c0,0 4.1101,0 5.6884,0z"/>
   <polygon id="_87837792" class="fil0" points="40.5144,67.009 35.9638,73.835 25.2846,73.835 21.1748,67.009 "/>
   <path id="_44440688" class="fil0" d="M34.404 41.9188c2.4226,0.4775 2.8251,4.77 0,5.6883l-7.156 0 0 -5.6883c0,0 4.1558,-0.0204 7.156,0z"/>
   <path id="_44440616" class="fil1" d="M33.9634 42.9096c1.5414,0.4036 2.018,2.8993 0,3.5595 -2.1648,0 -5.6883,0 -5.6883,0l0 -3.5595c0,0 4.1098,0 5.6883,0z"/>
  </g>
 </g>
</svg>
