<?xml version="1.0" encoding="utf-8"?>
<!-- Generator: Adobe Illustrator 13.0.0, SVG Export Plug-In . SVG Version: 6.00 Build 14948)  -->
<!DOCTYPE svg PUBLIC "-//W3C//DTD SVG 1.0//EN" "http://www.w3.org/TR/2001/REC-SVG-20010904/DTD/svg10.dtd">
<svg version="1.0" xmlns="http://www.w3.org/2000/svg" xmlns:xlink="http://www.w3.org/1999/xlink" x="0px" y="0px" width="360px"
	 height="503.674px" viewBox="0 0 360 503.674" enable-background="new 0 0 360 503.674" xml:space="preserve">
<g id="Ebene_2">
	<g id="Ebene_3">
	</g>
	<g>
		<defs>
			<path id="SVGID_1_" d="M85,4.993C70.833,54.16,6.25,83.743,6.25,83.743C2.5,334.158,180,499.993,180,499.993
				s172.5-166.665,172.5-416.25c0,0-56.665-8.75-85-78.75H85z"/>
		</defs>
		<clipPath id="SVGID_2_">
			<use xlink:href="#SVGID_1_"  overflow="visible"/>
		</clipPath>
		<rect y="0.833" clip-path="url(#SVGID_2_)" fill="#FFFFFF" width="180" height="502.842"/>
		<rect x="180" y="0.83" clip-path="url(#SVGID_2_)" fill="#D0261F" width="180" height="502.844"/>
		<rect x="2.5" y="160.833" clip-path="url(#SVGID_2_)" fill="#D0261F" width="177.5" height="55.835"/>
		<rect x="77.5" clip-path="url(#SVGID_2_)" fill="#D0261F" width="53.333" height="476.667"/>
		<use xlink:href="#SVGID_1_"  overflow="visible" fill="none" stroke="#D0261F" stroke-width="5"/>
	</g>
</g>
<g id="Ebene_4">
	<path fill="#FFFFFF" d="M188.335,138.323v102.5h138.75c13.052-41.516,18.872-84.512,20.415-103.096L188.335,138.323z"/>
</g>
<g id="Ebene_5">
	<g>
		<path fill="#D0261F" d="M208.574,161.68l4.907,1.555c-0.752,2.734-2.002,4.766-3.75,6.094c-1.753,1.326-3.97,1.99-6.655,1.99
			c-3.33,0-6.064-1.135-8.203-3.411c-2.144-2.271-3.213-5.378-3.213-9.321c0-4.17,1.074-7.407,3.228-9.717
			c2.153-2.305,4.985-3.459,8.491-3.459c3.066,0,5.557,0.906,7.471,2.717c1.143,1.072,1.992,2.61,2.563,4.614l-5.005,1.196
			c-0.298-1.299-0.918-2.324-1.855-3.076c-0.942-0.752-2.08-1.128-3.428-1.128c-1.855,0-3.364,0.667-4.521,2
			c-1.152,1.333-1.733,3.491-1.733,6.477c0,3.167,0.571,5.422,1.709,6.768s2.622,2.017,4.443,2.017c1.343,0,2.5-0.427,3.472-1.282
			C207.461,164.858,208.154,163.513,208.574,161.68z"/>
		<path fill="#D0261F" d="M240.415,170.891h-5.503l-2.188-5.691H222.71l-2.065,5.691h-5.371l9.761-25.054h5.347L240.415,170.891z
			 M231.104,160.979l-3.457-9.297l-3.379,9.297H231.104z"/>
		<path fill="#D0261F" d="M243.232,170.891v-24.849h5.059v20.627h12.578v4.221H243.232z"/>
		<path fill="#D0261F" d="M280.508,161.68l4.907,1.555c-0.752,2.734-2.002,4.766-3.75,6.094c-1.748,1.326-3.97,1.99-6.655,1.99
			c-3.33,0-6.064-1.135-8.203-3.411c-2.144-2.271-3.213-5.378-3.213-9.321c0-4.17,1.074-7.407,3.228-9.717
			c2.153-2.305,4.985-3.459,8.491-3.459c3.066,0,5.557,0.906,7.471,2.717c1.138,1.072,1.992,2.61,2.563,4.614l-5.005,1.196
			c-0.298-1.299-0.918-2.324-1.855-3.076c-0.942-0.752-2.085-1.128-3.428-1.128c-1.855,0-3.364,0.667-4.521,2
			s-1.733,3.491-1.733,6.477c0,3.167,0.571,5.422,1.709,6.768s2.622,2.017,4.443,2.017c1.343,0,2.5-0.427,3.472-1.282
			C279.395,164.858,280.088,163.513,280.508,161.68z"/>
		<path fill="#D0261F" d="M289.6,170.891v-25.054h5.059v25.054H289.6z"/>
		<path fill="#D0261F" d="M298.457,158.518c0-2.551,0.381-4.695,1.143-6.426c0.571-1.277,1.348-2.422,2.334-3.435
			s2.065-1.765,3.237-2.256c1.563-0.662,3.359-0.991,5.4-0.991c3.691,0,6.646,1.145,8.862,3.435s3.32,5.474,3.32,9.553
			c0,4.045-1.099,7.209-3.296,9.495c-2.197,2.283-5.137,3.425-8.818,3.425c-3.726,0-6.689-1.135-8.887-3.411
			C299.556,165.637,298.457,162.505,298.457,158.518z M303.667,158.347c0,2.837,0.654,4.988,1.968,6.45
			c1.309,1.465,2.969,2.197,4.99,2.197c2.012,0,3.667-0.728,4.961-2.178c1.294-1.455,1.943-3.633,1.943-6.538
			c0-2.871-0.63-5.012-1.89-6.426s-2.935-2.119-5.015-2.119c-2.09,0-3.77,0.715-5.044,2.144
			C304.307,153.308,303.667,155.464,303.667,158.347z"/>
		<path fill="#D0261F" d="M192.549,200.891v-25.054h8.115c3.076,0,5.078,0.125,6.016,0.376c1.436,0.376,2.637,1.194,3.604,2.451
			c0.972,1.26,1.455,2.886,1.455,4.88c0,1.538-0.278,2.832-0.84,3.879c-0.557,1.047-1.265,1.87-2.124,2.471
			c-0.864,0.596-1.733,0.994-2.622,1.187c-1.211,0.239-2.959,0.359-5.249,0.359h-3.296v9.451H192.549z M197.607,180.076v7.109h2.764
			c1.997,0,3.33-0.132,4.004-0.393c0.669-0.261,1.196-0.671,1.577-1.23c0.386-0.559,0.571-1.208,0.571-1.948
			c0-0.911-0.264-1.663-0.801-2.256s-1.211-0.962-2.031-1.111c-0.605-0.115-1.816-0.171-3.643-0.171H197.607z"/>
		<path fill="#D0261F" d="M235.889,200.891h-5.508l-2.188-5.691h-10.01l-2.07,5.691h-5.366l9.761-25.054h5.347L235.889,200.891z
			 M226.572,190.979l-3.452-9.297l-3.384,9.297H226.572z"/>
		<path fill="#D0261F" d="M238.555,175.837h9.248c2.08,0,3.672,0.159,4.766,0.479c1.47,0.432,2.729,1.201,3.779,2.307
			c1.045,1.106,1.846,2.458,2.393,4.06c0.547,1.599,0.82,3.574,0.82,5.92c0,2.063-0.259,3.84-0.771,5.332
			c-0.625,1.824-1.523,3.298-2.686,4.426c-0.874,0.854-2.061,1.521-3.555,2c-1.113,0.354-2.607,0.53-4.473,0.53h-9.521V175.837z
			 M243.613,180.076v16.594h3.779c1.411,0,2.432-0.081,3.057-0.239c0.82-0.205,1.499-0.552,2.041-1.042s0.986-1.296,1.328-2.417
			c0.342-1.123,0.508-2.654,0.508-4.59s-0.166-3.423-0.508-4.46s-0.82-1.846-1.436-2.427s-1.396-0.974-2.344-1.179
			c-0.708-0.159-2.09-0.239-4.15-0.239H243.613z"/>
		<path fill="#D0261F" d="M262.822,188.518c0-2.551,0.381-4.695,1.143-6.426c0.571-1.277,1.348-2.422,2.334-3.435
			s2.065-1.765,3.237-2.256c1.563-0.662,3.359-0.991,5.4-0.991c3.691,0,6.646,1.145,8.862,3.435s3.32,5.474,3.32,9.553
			c0,4.045-1.099,7.209-3.296,9.495c-2.197,2.283-5.137,3.425-8.818,3.425c-3.726,0-6.689-1.135-8.887-3.411
			C263.921,195.637,262.822,192.505,262.822,188.518z M268.032,188.347c0,2.837,0.654,4.988,1.968,6.45
			c1.309,1.465,2.969,2.197,4.99,2.197c2.012,0,3.667-0.728,4.961-2.178c1.294-1.455,1.943-3.633,1.943-6.538
			c0-2.871-0.63-5.012-1.89-6.426s-2.935-2.119-5.015-2.119c-2.09,0-3.77,0.715-5.044,2.144
			C268.672,183.308,268.032,185.464,268.032,188.347z"/>
		<path fill="#D0261F" d="M297.461,200.891l-8.955-25.054h5.488l6.338,18.542l6.138-18.542h5.366l-8.975,25.054H297.461z"/>
		<path fill="#D0261F" d="M334.414,200.891h-5.508l-2.188-5.691h-10.01l-2.07,5.691h-5.366l9.761-25.054h5.347L334.414,200.891z
			 M325.098,190.979l-3.452-9.297l-3.384,9.297H325.098z"/>
	</g>
	<g>
		<path fill="#D0261F" d="M239.844,234.226h-4.805v-18.098c-1.753,1.641-3.818,2.854-6.201,3.64v-4.358
			c1.255-0.41,2.617-1.187,4.082-2.334c1.475-1.143,2.48-2.48,3.027-4.006h3.896V234.226z"/>
		<path fill="#D0261F" d="M247.129,228.433l4.648-0.513c0.112,0.945,0.41,1.646,0.889,2.102s1.108,0.684,1.895,0.684
			c0.991,0,1.836-0.457,2.529-1.367s1.138-2.803,1.333-5.674c-1.206,1.401-2.72,2.102-4.526,2.102c-1.973,0-3.672-0.762-5.103-2.28
			c-1.431-1.523-2.144-3.501-2.144-5.94c0-2.542,0.752-4.587,2.261-6.145c1.509-1.553,3.433-2.332,5.767-2.332
			c2.544,0,4.629,0.984,6.26,2.947c1.626,1.968,2.441,5.2,2.441,9.7c0,4.58-0.85,7.883-2.549,9.912
			c-1.694,2.029-3.906,3.042-6.631,3.042c-1.958,0-3.54-0.52-4.746-1.565C248.242,232.065,247.471,230.505,247.129,228.433z
			 M257.998,217.939c0-1.55-0.356-2.751-1.069-3.606s-1.538-1.282-2.471-1.282c-0.889,0-1.626,0.352-2.212,1.05
			c-0.586,0.703-0.879,1.851-0.879,3.445c0,1.619,0.317,2.805,0.957,3.562c0.635,0.759,1.436,1.138,2.393,1.138
			c0.918,0,1.699-0.364,2.329-1.094C257.681,220.422,257.998,219.353,257.998,217.939z"/>
		<path fill="#D0261F" d="M278.774,234.226h-4.8v-18.098c-1.758,1.641-3.823,2.854-6.206,3.64v-4.358
			c1.255-0.41,2.612-1.187,4.087-2.334c1.465-1.143,2.476-2.48,3.022-4.006h3.896V234.226z"/>
		<path fill="#D0261F" d="M294.067,209.07c2.427,0,4.321,0.867,5.688,2.598c1.631,2.051,2.446,5.452,2.446,10.203
			c0,4.739-0.82,8.147-2.461,10.22c-1.357,1.709-3.247,2.563-5.674,2.563c-2.437,0-4.404-0.938-5.894-2.813
			c-1.494-1.873-2.241-5.215-2.241-10.022c0-4.717,0.82-8.113,2.461-10.186C289.751,209.924,291.641,209.07,294.067,209.07z
			 M294.067,213.052c-0.581,0-1.099,0.186-1.558,0.557c-0.454,0.369-0.806,1.033-1.055,1.99c-0.332,1.243-0.498,3.333-0.498,6.272
			s0.146,4.958,0.444,6.06c0.298,1.099,0.669,1.831,1.118,2.195s0.967,0.547,1.548,0.547s1.099-0.186,1.558-0.554
			c0.454-0.371,0.806-1.035,1.055-1.992c0.332-1.23,0.498-3.315,0.498-6.255s-0.146-4.958-0.444-6.06
			c-0.298-1.099-0.669-1.833-1.118-2.202C295.166,213.237,294.648,213.052,294.067,213.052z"/>
	</g>
</g>
</svg>
