<?xml version="1.0" encoding="UTF-8" standalone="no"?>
<!-- Created with Inkscape (http://www.inkscape.org/) -->
<!DOCTYPE svg PUBLIC "-//W3C//DTD SVG 1.1//EN" "http://www.w3.org/Graphics/SVG/1.1/DTD/svg11.dtd">
<svg
   xmlns:svg="http://www.w3.org/2000/svg"
   xmlns="http://www.w3.org/2000/svg"
   version="1.1"
   width="400"
   height="535"
   id="svg2816">
  <defs
     id="defs3540" />
  <g
     transform="matrix(2.9255434,0,0,2.9255434,-80.851581,-13.352166)"
     id="g3958">
    <path
       d="m 127.953,8.387 c 0,0 -9.16,7.504 -31.0898,6.91 -25.4766,-0.691 -33.25,-7.172 -33.25,-7.172 0,0 -7.2578,10 -13.5586,15.461 -10.3633,8.98 -19,11.055 -19,11.055 0,0 6.6367,15.218 7.5977,31.609 1.2109,20.555 -2.1407,29.086 -3.625,34.543 -5.875,21.594 -4.004,39.063 5.6992,49.574 8.2929,8.981 32.9922,15.891 38.1718,17.961 10.043,4.02 17.2735,15.547 17.2735,15.547 0,0 10.3632,-14.164 20.2072,-16.582 5.629,-1.383 29.191,-7.598 38.519,-19.516 5.641,-7.21 8.75,-24.73 2.762,-47.675 -2.07,-7.946 -5.609,-18.133 -3.973,-35.754 1.383,-14.852 7.258,-29.364 7.258,-29.364 0,0 -9.125,-2.773 -18.484,-11.054 C 133.48,15.984 127.953,8.387 127.953,8.387 z"
       id="path2828"
       style="fill:#ddac5f;fill-opacity:1;fill-rule:nonzero;stroke-width:0;stroke-linecap:butt;stroke-linejoin:miter;stroke-miterlimit:2.61310005" />
    <path
       d="M 55.2773,25.055 64.9101,13.18 c 0,0 13.8593,6.476 31.3476,6.476 19.9493,0 30.1833,-6.476 30.1833,-6.476 l 10.235,11.527 -27.203,35.887 -26.2973,0 z"
       id="path2832"
       style="fill:#3c4898;fill-opacity:1;fill-rule:nonzero;stroke-width:0;stroke-linecap:butt;stroke-linejoin:miter;stroke-miterlimit:2.61310005" />
    <path
       d="m 39.5194,49.453 26.6836,34.586 1.2969,30.832 -25.1328,31.867 c 0,0 -6.3477,-5.441 -6.4766,-23.445 -0.0781,-11.012 2.0821,-20.976 3.6289,-25.262 3.4961,-9.715 4.1055,-18.257 3.7539,-25.91 C 42.7577,60.852 39.5194,49.453 39.5194,49.453 z"
       id="path2836"
       style="fill:#3c4898;fill-opacity:1;fill-rule:nonzero;stroke-width:0;stroke-linecap:butt;stroke-linejoin:miter;stroke-miterlimit:2.61310005" />
    <path
       d="m 153,49.582 -26.688,34.586 -1.296,30.832 25.132,31.867 c 0,0 6.348,-5.441 6.477,-23.445 C 156.703,112.41 154.543,102.445 153,98.16 149.5,88.445 148.891,79.902 149.242,72.25 149.758,60.981 153,49.582 153,49.582 z"
       id="path2840"
       style="fill:#3c4898;fill-opacity:1;fill-rule:nonzero;stroke-width:0;stroke-linecap:butt;stroke-linejoin:miter;stroke-miterlimit:2.61310005" />
    <path
       d="m 86.414,136.246 -18.6563,24.356 c 0,0 5.3555,2.718 9.9766,3.754 4.6367,1.043 7.5117,2.722 12.3047,6.609 3.4883,2.824 6.4765,7.512 6.4765,7.512 0,0 5.4415,-6.348 7.3865,-7.903 1.942,-1.554 6.657,-5.328 12.653,-6.734 4.964,-1.168 9.629,-3.371 9.629,-3.371 l -19.95,-24.223 c 0,0 -5.703,2.457 -9.8474,2.332 -4.2734,-0.129 -9.9726,-2.332 -9.9726,-2.332 z"
       id="path2844"
       style="fill:#3c4898;fill-opacity:1;fill-rule:nonzero;stroke-width:0;stroke-linecap:butt;stroke-linejoin:miter;stroke-miterlimit:2.61310005" />
    <path
       d="m 110.379,134.82 c 0,0 5.035,-3.613 7.254,-5.828 4.273,-4.277 5.957,-9.457 5.957,-9.457 l 23.578,30.055 c 0,0 -1.699,2.137 -8.16,5.828 -4.535,2.59 -9.586,3.887 -9.586,3.887 z"
       id="path2848"
       style="fill:white;fill-rule:nonzero;stroke-width:0;stroke-linecap:butt;stroke-linejoin:miter;stroke-miterlimit:2.61310005" />
    <path
       d="m 82.5273,134.692 c 0,0 -5.0391,-3.614 -7.254,-5.829 -4.2773,-4.277 -5.9609,-9.457 -5.9609,-9.457 l -23.5781,30.055 c 0,0 1.6992,2.137 8.164,5.828 4.5313,2.59 9.586,3.887 9.586,3.887 z"
       id="path2852"
       style="fill:white;fill-rule:nonzero;stroke-width:0;stroke-linecap:butt;stroke-linejoin:miter;stroke-miterlimit:2.61310005" />
    <path
       d="M 112.582,62.535 139.527,27.43 c 0,0 2.977,2.461 6.864,5.051 5.863,3.91 10.363,5.312 10.363,5.312 l -32.387,41.973 c 0,0 -1.891,-5.637 -5.051,-9.586 -3.625,-4.535 -6.734,-7.645 -6.734,-7.645 z"
       id="path2856"
       style="fill:white;fill-rule:nonzero;stroke:#353434;stroke-width:0;stroke-linecap:butt;stroke-linejoin:miter;stroke-miterlimit:2.61310005;stroke-opacity:1" />
    <path
       d="M 79.5468,62.535 52.6015,27.43 c 0,0 -2.9805,2.461 -6.8672,5.051 -5.8594,3.91 -10.3633,5.312 -10.3633,5.312 l 32.3867,41.973 c 0,0 1.8946,-5.637 5.0508,-9.586 3.6289,-4.535 6.7383,-7.645 6.7383,-7.645 z"
       id="path2860"
       style="fill:white;fill-rule:nonzero;stroke-width:0;stroke-linecap:butt;stroke-linejoin:miter;stroke-miterlimit:2.61310005" />
    <path
       d="m 96.1288,56.895 c 17.6832,0 32.0622,18.265 32.0622,40.804 0,22.543 -14.379,40.809 -32.0622,40.809 -17.6836,0 -32.0625,-18.266 -32.0625,-40.809 0,-22.539 14.3789,-40.804 32.0625,-40.804 z"
       id="path2864"
       style="fill:#ddac5f;fill-opacity:1;fill-rule:evenodd;stroke-width:0;stroke-linecap:butt;stroke-linejoin:miter;stroke-miterlimit:2.61310005" />
    <path
       d="m 96.4335,60.766 c 15.7425,0 28.7575,16.519 28.7575,36.922 0,20.207 -13.015,36.722 -28.7575,36.722 -15.7383,0 -28.7578,-16.515 -28.7578,-36.722 0,-20.403 13.0195,-36.922 28.7578,-36.922 z"
       id="path2868"
       style="fill:#008bc4;fill-opacity:1;fill-rule:evenodd;stroke-width:0;stroke-linecap:butt;stroke-linejoin:miter;stroke-miterlimit:2.61310005" />
    <path
       d="m 96.4257,71.082 c 9.5233,0 17.4883,11.856 17.4883,26.43 0,14.379 -7.965,26.23 -17.4883,26.23 -9.5195,0 -17.4883,-11.851 -17.4883,-26.23 0,-14.574 7.9688,-26.43 17.4883,-26.43 z"
       id="path2872"
       style="fill:#ddac5f;fill-opacity:1;fill-rule:evenodd;stroke-width:0;stroke-linecap:butt;stroke-linejoin:miter;stroke-miterlimit:2.61310005" />
    <path
       d="m 100.445,102.477 c 0.086,-0.215 0.262,-0.301 0.563,-0.344 0.383,-0.055 0.648,0.129 0.949,0 0.828,-0.356 0.086,-1.121 0.477,-1.469 0.277,-0.246 1.769,-0.258 2.289,-0.301 0.515,-0.043 1.207,-0.433 1.855,-1.125 0.297,-0.312 0.344,-0.82 0.477,-0.863 0.129,-0.043 0.386,0.992 0.515,1.211 0.129,0.215 1.125,0.129 1.34,0.215 0.215,0.086 0.563,0.172 0.52,1.078 0,0 -0.129,0.219 0.472,0.648 0.606,0.434 0.864,1.254 0.821,1.512 -0.043,0.258 -0.301,0.172 -0.649,0.043 -0.344,-0.129 -0.558,0.086 -0.43,0.477 0.129,0.386 0.52,0.992 0.735,1.25 0.215,0.261 0.43,0.476 0.344,0.777 -0.086,0.305 -0.559,0.391 -0.692,0.606 -0.129,0.214 -0.172,1.121 -0.172,1.121 0,0 -1.468,0.261 -2.675,0.476 -1.211,0.215 -3.973,0.649 -3.973,0.649 0,0 0.906,-1.036 1.207,-1.426 0.305,-0.387 0.391,-0.906 0.086,-1.121 -0.301,-0.219 -0.602,-0.434 -0.992,-0.176 -0.387,0.262 -0.563,0.777 -0.821,0.867 -0.257,0.086 -0.386,0.258 -0.734,-0.176 -0.344,-0.429 -0.43,-0.949 -0.734,-0.949 -0.301,0 -0.649,0.172 -0.907,0.305 -0.257,0.129 -0.515,-0.047 -0.515,-0.047 0,0 0.3,-0.043 0.558,-0.215 0.262,-0.172 0.52,-0.473 0.563,-0.691 0.043,-0.215 0,-0.645 -0.215,-0.95 -0.219,-0.3 -0.262,-1.382 -0.262,-1.382 z"
       id="path2876"
       style="fill:#353434;fill-opacity:1;fill-rule:evenodd;stroke-width:0;stroke-linecap:butt;stroke-linejoin:miter;stroke-miterlimit:2.61310005" />
    <path
       d="m 82.6562,102.434 c 0.0859,-0.215 0.2578,-0.301 0.5625,-0.344 0.3828,-0.055 0.6445,0.129 0.9492,0 0.8242,-0.356 0.0859,-1.125 0.4726,-1.469 0.2774,-0.246 1.7735,-0.258 2.2891,-0.301 0.5195,-0.043 1.2109,-0.433 1.8594,-1.125 0.2929,-0.312 0.3437,-0.82 0.4726,-0.863 0.1289,-0.043 0.3907,0.992 0.5196,1.211 0.1289,0.215 1.1211,0.129 1.3398,0.215 0.2148,0.086 0.5586,0.172 0.5156,1.078 0,0 -0.1289,0.219 0.4766,0.648 0.6055,0.434 0.8633,1.254 0.8203,1.512 -0.043,0.258 -0.3047,0.172 -0.6484,0.043 -0.3438,-0.129 -0.5625,0.086 -0.4336,0.477 0.1328,0.386 0.5195,0.992 0.7343,1.25 0.2188,0.261 0.4336,0.476 0.3477,0.777 -0.0859,0.305 -0.5625,0.391 -0.6914,0.606 -0.1289,0.214 -0.1719,1.121 -0.1719,1.121 0,0 -1.4687,0.261 -2.6797,0.476 -1.207,0.215 -3.9726,0.649 -3.9726,0.649 0,0 0.9062,-1.036 1.2109,-1.426 0.3008,-0.387 0.3867,-0.906 0.086,-1.121 -0.3008,-0.219 -0.6055,-0.434 -0.9922,-0.176 -0.3907,0.262 -0.5625,0.777 -0.8203,0.863 -0.2618,0.09 -0.3907,0.262 -0.7344,-0.172 -0.3477,-0.429 -0.4336,-0.949 -0.7344,-0.949 -0.3008,0 -0.6484,0.172 -0.9062,0.301 -0.2618,0.133 -0.5196,-0.043 -0.5196,-0.043 0,0 0.3008,-0.043 0.5625,-0.215 0.2578,-0.172 0.5156,-0.473 0.5625,-0.691 0.043,-0.215 0,-0.649 -0.2187,-0.949 -0.2149,-0.301 -0.2578,-1.383 -0.2578,-1.383 z"
       id="path2880"
       style="fill:#353434;fill-opacity:1;fill-rule:evenodd;stroke-width:0;stroke-linecap:butt;stroke-linejoin:miter;stroke-miterlimit:2.61310005" />
    <path
       d="m 90.3437,114.871 c 0.0859,-0.215 0.2578,-0.301 0.5586,-0.344 0.3867,-0.058 0.6484,0.129 0.9492,0 0.8281,-0.355 0.0898,-1.125 0.4765,-1.468 0.2774,-0.246 1.7696,-0.262 2.2891,-0.305 0.5195,-0.043 1.207,-0.43 1.8555,-1.121 0.2968,-0.316 0.3476,-0.82 0.4765,-0.863 0.1289,-0.043 0.3867,0.992 0.5196,1.207 0.1289,0.218 1.1211,0.129 1.3359,0.218 0.2187,0.086 0.5625,0.172 0.5195,1.079 0,0 -0.1289,0.214 0.4769,0.648 0.601,0.43 0.863,1.25 0.82,1.512 -0.043,0.258 -0.305,0.172 -0.648,0.043 -0.348,-0.129 -0.5629,0.086 -0.434,0.472 0.129,0.391 0.52,0.996 0.734,1.254 0.215,0.258 0.434,0.477 0.348,0.778 -0.09,0.3 -0.562,0.39 -0.691,0.605 -0.129,0.215 -0.176,1.121 -0.176,1.121 0,0 -1.465,0.258 -2.676,0.477 -1.207,0.215 -3.9726,0.648 -3.9726,0.648 0,0 0.9062,-1.039 1.2109,-1.426 0.3008,-0.39 0.3867,-0.906 0.086,-1.125 -0.3047,-0.214 -0.6055,-0.429 -0.9961,-0.172 -0.3868,0.262 -0.5586,0.778 -0.8204,0.864 -0.2578,0.086 -0.3867,0.258 -0.7343,-0.172 -0.3438,-0.43 -0.4297,-0.949 -0.7305,-0.949 -0.3047,0 -0.6484,0.172 -0.9102,0.3 -0.2578,0.129 -0.5156,-0.043 -0.5156,-0.043 0,0 0.3008,-0.042 0.5586,-0.214 0.2617,-0.172 0.5195,-0.477 0.5625,-0.692 0.043,-0.215 0,-0.648 -0.2148,-0.949 -0.2149,-0.305 -0.2578,-1.383 -0.2578,-1.383 z"
       id="path2884"
       style="fill:#353434;fill-opacity:1;fill-rule:evenodd;stroke-width:0;stroke-linecap:butt;stroke-linejoin:miter;stroke-miterlimit:2.61310005" />
    <path
       d="m 95.3944,107.66 c 0,0 0.0547,0.875 0.2149,1.555 0.1719,0.734 0.3906,1.383 0.6914,1.383 0.4336,0 0.6484,-0.692 0.7773,-1.254 0.1289,-0.563 0.043,-1.727 0.043,-1.727 z"
       id="path2888"
       style="fill:#e43a3b;fill-opacity:1;fill-rule:evenodd;stroke-width:0;stroke-linecap:butt;stroke-linejoin:miter;stroke-miterlimit:2.61310005" />
    <path
       d="m 96.9062,82.098 c 0,0 0.3867,-0.52 0.7773,-1.989 0.2617,-0.992 0.4727,-2.07 -0.2148,-3.41 -0.6914,-1.34 -1.5977,-2.375 -1.5977,-2.375 0,0 0.168,0.629 -0.1328,1.426 -0.3867,1.035 -1.0234,1.774 -1.4219,2.633 -0.3047,0.648 -0.1601,1.117 0.086,1.855 0.4726,1.426 0.7773,1.86 0.7773,1.86 z"
       id="path2892"
       style="fill:#e43a3b;fill-opacity:1;fill-rule:evenodd;stroke-width:0;stroke-linecap:butt;stroke-linejoin:miter;stroke-miterlimit:2.61310005" />
    <path
       d="m 102.777,87.711 c 0,0 0.215,0.043 0.821,-0.215 0.605,-0.262 0.957,-0.801 0.906,-1.644 -0.051,-0.907 -0.356,-1.375 -0.863,-1.598 -0.649,-0.277 -1.207,-0.43 -1.207,-0.43 0,0 0.472,-0.433 1.164,-0.433 0.691,0 1.574,0.406 2.074,1.125 0.656,0.949 0.476,2.461 0.476,2.461 0,0 0.473,0.011 1.641,0.343 1.484,0.426 2.07,1.34 2.07,1.34 0,0 -0.156,0.543 -1.941,1.164 -1.328,0.465 -1.555,0.434 -1.555,0.434 0,0 0.086,1.355 -0.347,2.203 -0.497,0.969 -1.239,1.231 -2.332,1.383 -0.946,0.129 -1.208,-0.262 -1.208,-0.262 0,0 0.551,-0.23 0.95,-0.43 0.605,-0.304 0.961,-0.726 0.961,-1.761 0,-1.035 -0.356,-1.391 -0.789,-1.567 -0.43,-0.172 -0.864,-0.258 -0.864,-0.258 z"
       id="path2896"
       style="fill:#e43a3b;fill-opacity:1;fill-rule:evenodd;stroke-width:0;stroke-linecap:butt;stroke-linejoin:miter;stroke-miterlimit:2.61310005" />
    <path
       d="m 89.7929,87.742 c 0,0 -0.2188,0.043 -0.8203,-0.215 -0.6055,-0.261 -0.9571,-0.8 -0.9102,-1.64 0.0547,-0.906 0.3594,-1.379 0.8672,-1.598 0.6445,-0.281 1.207,-0.433 1.207,-0.433 0,0 -0.4726,-0.43 -1.164,-0.43 -0.6914,0 -1.5782,0.402 -2.0743,1.121 -0.6601,0.949 -0.4765,2.461 -0.4765,2.461 0,0 -0.4727,0.012 -1.6406,0.348 -1.4844,0.425 -2.0704,1.335 -2.0704,1.335 0,0 0.1563,0.543 1.9415,1.168 1.3281,0.465 1.5546,0.43 1.5546,0.43 0,0 -0.0859,1.356 0.3477,2.203 0.4961,0.973 1.2383,1.231 2.3281,1.383 0.9453,0.129 1.211,-0.258 1.211,-0.258 0,0 -0.5508,-0.234 -0.9493,-0.433 -0.6054,-0.301 -0.9609,-0.723 -0.9609,-1.762 0,-1.035 0.3555,-1.391 0.7891,-1.563 0.4297,-0.171 0.8632,-0.261 0.8632,-0.261 z"
       id="path2900"
       style="fill:#e43a3b;fill-opacity:1;fill-rule:evenodd;stroke-width:0;stroke-linecap:butt;stroke-linejoin:miter;stroke-miterlimit:2.61310005" />
    <path
       d="m 79.1796,73.41 c 0.7773,0 1.5547,0.778 1.5547,1.555 0,0.777 -0.7774,1.555 -1.5547,1.555 -0.3008,0 -0.6055,-0.118 -0.8633,-0.309 -0.4023,-0.297 -0.6914,-0.77 -0.6914,-1.246 0,-0.777 0.7774,-1.555 1.5547,-1.555 z"
       id="path2904"
       style="fill:#d7d8d9;fill-opacity:1;fill-rule:evenodd;stroke-width:0;stroke-linecap:butt;stroke-linejoin:miter;stroke-miterlimit:2.61310005" />
    <path
       d="m 77.6991,77.52 -1.1015,-0.551 -0.3868,0.648 1.1329,0.649 -2.8829,6.476 c 0,0 -0.9687,-0.617 -1.2304,-1.457 -0.168,-0.551 -0.0977,-1.457 -0.0977,-1.457 l 0.8125,0 -1.2304,-2.367 -1.5235,2.234 0.8438,0.133 c 0,0 -0.0078,1.172 0.0625,1.617 0.1289,0.809 0.6757,2.34 1.8125,2.883 1.4922,0.711 1.8476,0.543 2.6875,0.391 1.4257,-0.262 2.3984,-1.653 2.3984,-1.653 l 0.7109,0.614 0.5508,-2.785 -2.7851,0.679 0.7148,0.778 c 0,0 -0.6484,0.683 -1.0703,0.777 -1.0039,0.227 -1.75,-0.031 -1.75,-0.031 l 2.8203,-6.508 1.1016,0.516 0.3554,-0.711 -1.1679,-0.52 0.6484,-1.457 -0.8086,-0.355 z"
       id="path2908"
       style="fill:#d7d8d9;fill-opacity:1;fill-rule:evenodd;stroke-width:0;stroke-linecap:butt;stroke-linejoin:miter;stroke-miterlimit:2.61310005" />
    <path
       d="m 114.945,113.574 -1.101,-0.55 -0.391,0.648 1.137,0.648 -2.883,6.477 c 0,0 -0.973,-0.613 -1.231,-1.457 -0.171,-0.547 -0.097,-1.457 -0.097,-1.457 l 0.808,0 -1.23,-2.363 -1.523,2.234 0.843,0.129 c 0,0 -0.008,1.172 0.067,1.621 0.129,0.809 0.675,2.336 1.812,2.879 1.488,0.715 1.844,0.543 2.688,0.391 1.425,-0.258 2.394,-1.653 2.394,-1.653 l 0.715,0.617 0.551,-2.785 -2.785,0.68 0.711,0.777 c 0,0 -0.645,0.68 -1.067,0.778 -1.004,0.226 -1.75,-0.036 -1.75,-0.036 l 2.817,-6.507 1.101,0.519 0.356,-0.715 -1.164,-0.515 0.648,-1.461 -0.812,-0.356 z"
       id="path2912"
       style="fill:#d7d8d9;fill-opacity:1;fill-rule:evenodd;stroke-width:0;stroke-linecap:butt;stroke-linejoin:miter;stroke-miterlimit:2.61310005" />
    <path
       d="m 77.7968,113.574 1.1015,-0.55 0.3907,0.648 -1.1367,0.648 2.8828,6.477 c 0,0 0.9726,-0.613 1.2304,-1.457 0.1719,-0.547 0.0977,-1.457 0.0977,-1.457 l -0.8086,0 1.2305,-2.363 1.5234,2.234 -0.8437,0.129 c 0,0 0.0078,1.172 -0.0625,1.621 -0.1329,0.809 -0.6797,2.336 -1.8165,2.879 -1.4882,0.715 -1.8437,0.543 -2.6875,0.391 -1.4257,-0.258 -2.3945,-1.653 -2.3945,-1.653 l -0.7148,0.617 -0.5508,-2.785 2.7851,0.68 -0.7109,0.777 c 0,0 0.6484,0.68 1.0703,0.778 1.0039,0.226 1.7461,-0.036 1.7461,-0.036 l -2.8164,-6.507 -1.1016,0.519 -0.3554,-0.715 1.164,-0.515 -0.6445,-1.461 0.8086,-0.356 z"
       id="path2916"
       style="fill:#d7d8d9;fill-opacity:1;fill-rule:evenodd;stroke-width:0;stroke-linecap:butt;stroke-linejoin:miter;stroke-miterlimit:2.61310005" />
    <path
       d="m 115.172,77.27 1.101,-0.551 0.387,0.648 -1.133,0.649 2.883,6.476 c 0,0 0.973,-0.613 1.231,-1.457 0.168,-0.547 0.097,-1.457 0.097,-1.457 l -0.808,0 1.23,-2.363 1.52,2.234 -0.84,0.129 c 0,0 0.008,1.172 -0.067,1.621 -0.129,0.809 -0.675,2.336 -1.812,2.879 -1.488,0.715 -1.844,0.543 -2.688,0.391 -1.425,-0.258 -2.398,-1.653 -2.398,-1.653 l -0.711,0.618 -0.551,-2.785 2.785,0.679 -0.711,0.778 c 0,0 0.645,0.679 1.067,0.777 1.004,0.226 1.75,-0.035 1.75,-0.035 l -2.817,-6.508 -1.101,0.519 -0.36,-0.714 1.168,-0.516 -0.648,-1.461 0.809,-0.355 z"
       id="path2920"
       style="fill:#d7d8d9;fill-opacity:1;fill-rule:evenodd;stroke-width:0;stroke-linecap:butt;stroke-linejoin:miter;stroke-miterlimit:2.61310005" />
    <path
       d="m 113.605,73.055 c 0.778,0 1.555,0.777 1.555,1.554 0,0.778 -0.777,1.555 -1.555,1.555 -0.3,0 -0.605,-0.117 -0.863,-0.308 -0.402,-0.297 -0.687,-0.774 -0.687,-1.247 0,-0.777 0.773,-1.554 1.55,-1.554 z"
       id="path2924"
       style="fill:#d7d8d9;fill-opacity:1;fill-rule:evenodd;stroke-width:0;stroke-linecap:butt;stroke-linejoin:miter;stroke-miterlimit:2.61310005" />
    <path
       d="m 76.1366,109.524 c 0.7774,0 1.5547,0.777 1.5547,1.55 0,0.778 -0.7773,1.555 -1.5547,1.555 -0.3047,0 -0.6054,-0.117 -0.8633,-0.309 -0.4023,-0.296 -0.6914,-0.769 -0.6914,-1.246 0,-0.773 0.7774,-1.55 1.5547,-1.55 z"
       id="path2928"
       style="fill:#d7d8d9;fill-opacity:1;fill-rule:evenodd;stroke-width:0;stroke-linecap:butt;stroke-linejoin:miter;stroke-miterlimit:2.61310005" />
    <path
       d="m 116.457,109.457 c 0.777,0 1.555,0.777 1.555,1.555 0,0.777 -0.778,1.555 -1.555,1.555 -0.305,0 -0.606,-0.118 -0.863,-0.309 -0.403,-0.297 -0.692,-0.774 -0.692,-1.246 0,-0.778 0.778,-1.555 1.555,-1.555 z"
       id="path2932"
       style="fill:#d7d8d9;fill-opacity:1;fill-rule:evenodd;stroke-width:0;stroke-linecap:butt;stroke-linejoin:miter;stroke-miterlimit:2.61310005" />
    <path
       d="m 116.789,93.203 5.961,0 0,1.817 c 0,0 -0.844,-0.098 -1.199,0.355 -0.16,0.203 -0.129,0.551 -0.032,0.809 0.098,0.261 1.36,2.203 1.36,2.203 l -0.031,3.176 -6.024,-0.036 0,-3.074 c 0,0 0.551,-0.844 1.004,-1.75 0.316,-0.636 0.316,-0.871 0.063,-1.297 -0.192,-0.324 -1.067,-0.386 -1.067,-0.386 z"
       id="path2940"
       style="fill:#d7d8d9;fill-opacity:1;stroke:#353434;stroke-width:0.052;stroke-linecap:butt;stroke-linejoin:miter;stroke-miterlimit:2.61310005;stroke-opacity:1;stroke-dasharray:none" />
    <path
       d="m 119.074,97.336 -0.746,0 0,-1.266 0.746,0 z"
       id="path2948"
       style="fill:#353434;fill-opacity:1;stroke:#353434;stroke-width:0.0518513;stroke-linecap:butt;stroke-linejoin:miter;stroke-miterlimit:2.61310005;stroke-opacity:1" />
    <path
       d="m 120.484,101.543 -1.492,0 0,-1.781 1.492,0 z"
       id="path2956"
       style="fill:#353434;fill-opacity:1;stroke:#353434;stroke-width:0.0518513;stroke-linecap:butt;stroke-linejoin:miter;stroke-miterlimit:2.61310005;stroke-opacity:1" />
    <path
       d="m 121.18,97.336 -0.746,0 0,-1.266 0.746,0 z"
       id="path2964"
       style="fill:#353434;fill-opacity:1;stroke:#353434;stroke-width:0.0518513;stroke-linecap:butt;stroke-linejoin:miter;stroke-miterlimit:2.61310005;stroke-opacity:1" />
    <path
       d="m 119.269,94.192 -1.003,0 0,-0.938 1.003,0 z"
       id="path2972"
       style="fill:#353434;fill-opacity:1;stroke:#353434;stroke-width:0.0518513;stroke-linecap:butt;stroke-linejoin:miter;stroke-miterlimit:2.61310005;stroke-opacity:1" />
    <path
       d="m 121.277,94.16 -1.004,0 0,-0.937 1.004,0 z"
       id="path2980"
       style="fill:#353434;fill-opacity:1;stroke:#353434;stroke-width:0.0518513;stroke-linecap:butt;stroke-linejoin:miter;stroke-miterlimit:2.61310005;stroke-opacity:1" />
    <path
       d="m 69.8944,93.074 5.961,0 0,1.817 c 0,0 -0.8438,-0.098 -1.1992,0.355 -0.1602,0.203 -0.1289,0.551 -0.0313,0.809 0.0977,0.258 1.3594,2.203 1.3594,2.203 l -0.0313,3.172 -6.0234,-0.031 0,-3.079 c 0,0 0.5508,-0.839 1.0039,-1.746 0.3164,-0.636 0.3164,-0.875 0.0625,-1.297 -0.1914,-0.324 -1.0664,-0.386 -1.0664,-0.386 z"
       id="path2984"
       style="fill:#d7d8d9;fill-opacity:1;fill-rule:evenodd;stroke:#353434;stroke-width:0.052;stroke-linecap:butt;stroke-linejoin:miter;stroke-miterlimit:2.61310005;stroke-opacity:1;stroke-dasharray:none" />
    <path
       d="m 72.1796,97.203 -0.7461,0 0,-1.261 0.7461,0 z"
       id="path2996"
       style="fill:#353434;fill-opacity:1;stroke:#353434;stroke-width:0.0518513;stroke-linecap:butt;stroke-linejoin:miter;stroke-miterlimit:2.61310005;stroke-opacity:1" />
    <path
       d="m 73.5858,101.414 -1.4882,0 0,-1.781 1.4882,0 z"
       id="path3004"
       style="fill:#353434;fill-opacity:1;stroke:#353434;stroke-width:0.0518513;stroke-linecap:butt;stroke-linejoin:miter;stroke-miterlimit:2.61310005;stroke-opacity:1" />
    <path
       d="m 74.2851,97.203 -0.7461,0 0,-1.261 0.7461,0 z"
       id="path3012"
       style="fill:#353434;fill-opacity:1;stroke:#353434;stroke-width:0.052;stroke-linecap:butt;stroke-linejoin:miter;stroke-miterlimit:2.61310005;stroke-opacity:1;stroke-dasharray:none" />
    <path
       d="m 72.3749,94.063 -1.0039,0 0,-0.938 1.0039,0 z"
       id="path3020"
       style="fill:#353434;fill-opacity:1;stroke:#353434;stroke-width:0.0518513;stroke-linecap:butt;stroke-linejoin:miter;stroke-miterlimit:2.61310005;stroke-opacity:1" />
    <path
       d="m 74.3827,94.031 -1.0039,0 0,-0.941 1.0039,0 z"
       id="path3028"
       style="fill:#353434;fill-opacity:1;stroke:#353434;stroke-width:0.0518513;stroke-linecap:butt;stroke-linejoin:miter;stroke-miterlimit:2.61310005;stroke-opacity:1" />
    <path
       d="m 93.1913,126.742 6.9527,-0.043 -0.179,4.383 -6.719,0.031 z"
       id="path3036"
       style="fill:#d7d8d9;fill-opacity:1;stroke:#353434;stroke-width:0.0518513;stroke-linecap:butt;stroke-linejoin:miter;stroke-miterlimit:2.61310005;stroke-opacity:1" />
    <path
       d="m 99.1601,125.504 3.3199,0 0,1.215 c 0,0 -0.468,-0.063 -0.668,0.242 -0.089,0.137 -0.074,0.367 -0.019,0.543 0.055,0.172 0.758,1.477 0.758,1.477 l -0.02,2.128 -3.3514,-0.023 0,-2.062 c 0,0 0.3086,-0.567 0.5584,-1.172 0.176,-0.43 0.176,-0.586 0.035,-0.871 -0.105,-0.215 -0.5934,-0.262 -0.5934,-0.262 z"
       id="path3044"
       style="fill:#d7d8d9;fill-opacity:1;stroke:#353434;stroke-width:0.0518513;stroke-linecap:butt;stroke-linejoin:miter;stroke-miterlimit:2.61310005;stroke-opacity:1" />
    <path
       d="m 100.434,128.274 -0.415,0 0,-0.848 0.415,0 z"
       id="path3052"
       style="fill:#353434;fill-opacity:1;stroke:#353434;stroke-width:0.0518513;stroke-linecap:butt;stroke-linejoin:miter;stroke-miterlimit:2.61310005;stroke-opacity:1" />
    <path
       d="m 101.219,131.098 -0.832,0 0,-1.196 0.832,0 z"
       id="path3060"
       style="fill:#353434;fill-opacity:1;stroke:#353434;stroke-width:0.0518513;stroke-linecap:butt;stroke-linejoin:miter;stroke-miterlimit:2.61310005;stroke-opacity:1" />
    <path
       d="m 101.605,128.274 -0.414,0 0,-0.848 0.414,0 z"
       id="path3068"
       style="fill:#353434;fill-opacity:1;stroke:#353434;stroke-width:0.0518513;stroke-linecap:butt;stroke-linejoin:miter;stroke-miterlimit:2.61310005;stroke-opacity:1" />
    <path
       d="m 100.539,126.168 -0.559,0 0,-0.629 0.559,0 z"
       id="path3076"
       style="fill:#353434;fill-opacity:1;stroke:#353434;stroke-width:0.0518513;stroke-linecap:butt;stroke-linejoin:miter;stroke-miterlimit:2.61310005;stroke-opacity:1" />
    <path
       d="m 101.66,126.145 -0.559,0 0,-0.629 0.559,0 z"
       id="path3084"
       style="fill:#353434;fill-opacity:1;stroke:#353434;stroke-width:0.0518513;stroke-linecap:butt;stroke-linejoin:miter;stroke-miterlimit:2.61310005;stroke-opacity:1" />
    <path
       d="m 90.6288,125.508 3.3164,0 0,1.219 c 0,0 -0.4687,-0.067 -0.6679,0.238 -0.0899,0.137 -0.0704,0.371 -0.0157,0.543 0.0547,0.172 0.7578,1.476 0.7578,1.476 l -0.0195,2.129 -3.3555,-0.023 0,-2.063 c 0,0 0.3086,-0.562 0.5625,-1.171 0.1758,-0.426 0.1758,-0.586 0.0352,-0.868 -0.1094,-0.218 -0.5977,-0.261 -0.5977,-0.261 z"
       id="path3092"
       style="fill:#d7d8d9;fill-opacity:1;stroke:#353434;stroke-width:0.0518513;stroke-linecap:butt;stroke-linejoin:miter;stroke-miterlimit:2.61310005;stroke-opacity:1" />
    <path
       d="m 91.8983,128.277 -0.414,0 0,-0.843 0.414,0 z"
       id="path3100"
       style="fill:#353434;fill-opacity:1;stroke:#353434;stroke-width:0.0518513;stroke-linecap:butt;stroke-linejoin:miter;stroke-miterlimit:2.61310005;stroke-opacity:1" />
    <path
       d="m 92.6835,131.102 -0.8281,0 0,-1.196 0.8281,0 z"
       id="path3108"
       style="fill:#353434;fill-opacity:1;stroke:#353434;stroke-width:0.0518513;stroke-linecap:butt;stroke-linejoin:miter;stroke-miterlimit:2.61310005;stroke-opacity:1" />
    <path
       d="m 93.0702,128.277 -0.414,0 0,-0.843 0.414,0 z"
       id="path3116"
       style="fill:#353434;fill-opacity:1;stroke:#353434;stroke-width:0.0518513;stroke-linecap:butt;stroke-linejoin:miter;stroke-miterlimit:2.61310005;stroke-opacity:1" />
    <path
       d="m 92.0077,126.172 -0.5586,0 0,-0.629 0.5586,0 z"
       id="path3124"
       style="fill:#353434;fill-opacity:1;stroke:#353434;stroke-width:0.0518513;stroke-linecap:butt;stroke-linejoin:miter;stroke-miterlimit:2.61310005;stroke-opacity:1" />
    <path
       d="m 93.1249,126.152 -0.5586,0 0,-0.632 0.5586,0 z"
       id="path3132"
       style="fill:#353434;fill-opacity:1;stroke:#353434;stroke-width:0.0518513;stroke-linecap:butt;stroke-linejoin:miter;stroke-miterlimit:2.61310005;stroke-opacity:1" />
    <path
       d="m 97.1015,131.08644 -1.1367,0 0,-1.196 1.1367,0 z"
       id="path3136"
       style="fill:#353434;fill-opacity:1;fill-rule:evenodd;stroke:#353434;stroke-width:0;stroke-linecap:butt;stroke-linejoin:miter;stroke-miterlimit:2.61310005;stroke-opacity:1" />
    <path
       d="m 95.3358,128.75 -0.6484,0 0,-1.004 0.6484,0 z"
       id="path3140"
       style="fill:#353434;fill-opacity:1;fill-rule:evenodd;stroke:#353434;stroke-width:0;stroke-linecap:butt;stroke-linejoin:miter;stroke-miterlimit:2.61310005;stroke-opacity:1" />
    <path
       d="m 94.6874,127.324 -0.6445,0 0,-0.582 0.6445,0 z"
       id="path3144"
       style="fill:#353434;fill-opacity:1;fill-rule:evenodd;stroke:#353434;stroke-width:0;stroke-linecap:butt;stroke-linejoin:miter;stroke-miterlimit:2.61310005;stroke-opacity:1" />
    <path
       d="m 96.1757,127.324 -0.6445,0 0,-0.582 0.6445,0 z"
       id="path3148"
       style="fill:#353434;fill-opacity:1;fill-rule:evenodd;stroke:#353434;stroke-width:0;stroke-linecap:butt;stroke-linejoin:miter;stroke-miterlimit:2.61310005;stroke-opacity:1" />
    <path
       d="m 97.4726,127.324 -0.6446,0 0,-0.582 0.6446,0 z"
       id="path3152"
       style="fill:#353434;fill-opacity:1;fill-rule:evenodd;stroke:#353434;stroke-width:0;stroke-linecap:butt;stroke-linejoin:miter;stroke-miterlimit:2.61310005;stroke-opacity:1" />
    <path
       d="m 98.996,127.274 -0.6445,0 0,-0.579 0.6445,0 z"
       id="path3156"
       style="fill:#353434;fill-opacity:1;fill-rule:evenodd;stroke:#353434;stroke-width:0;stroke-linecap:butt;stroke-linejoin:miter;stroke-miterlimit:2.61310005;stroke-opacity:1" />
    <path
       d="m 98.3319,128.699 -0.6484,0 0,-1.004 0.6484,0 z"
       id="path3160"
       style="fill:#353434;fill-opacity:1;fill-rule:evenodd;stroke:#353434;stroke-width:0;stroke-linecap:butt;stroke-linejoin:miter;stroke-miterlimit:2.61310005;stroke-opacity:1" />
    <path
       d="M 84.4687,70.309 108.305,70.18 96.1288,62.406 z"
       id="path3164"
       style="fill:#d7d8d9;fill-opacity:1;fill-rule:evenodd;stroke-width:0;stroke-linecap:butt;stroke-linejoin:miter;stroke-miterlimit:2.61310005" />
    <path
       d="m 142.066,112.988 -4.125,0 0,-19.632 -5.672,0 0,-3.59 15.469,0 0,3.59 -5.672,0 z"
       id="path3168"
       style="fill:#ddac5f;fill-opacity:1;fill-rule:nonzero;stroke-width:0;stroke-linecap:butt;stroke-linejoin:miter;stroke-miterlimit:2.61310005" />
    <path
       d="m 56.3827,104.957 3.5625,0.426 c -0.2265,2.328 -1.0508,4.242 -2.4726,5.742 -1.4258,1.504 -3.293,2.254 -5.6016,2.254 -1.9492,0 -3.5312,-0.531 -4.7422,-1.598 -1.2148,-1.066 -2.1484,-2.511 -2.8047,-4.339 -0.6562,-1.825 -0.9843,-3.84 -0.9843,-6.04 0,-3.539 0.7695,-6.418 2.3125,-8.636 1.539,-2.215 3.6601,-3.325 6.3593,-3.325 2.1133,0 3.875,0.708 5.2813,2.125 1.4062,1.418 2.289,3.45 2.6523,6.094 l -3.5625,0.407 c -0.6523,-3.504 -2.1015,-5.258 -4.3398,-5.258 -1.4375,0 -2.5547,0.73 -3.3516,2.187 -0.7969,1.457 -1.1953,3.571 -1.1953,6.34 0,2.813 0.4258,4.934 1.2813,6.371 0.8515,1.434 1.9843,2.152 3.3906,2.152 1.125,0 2.082,-0.484 2.875,-1.445 0.789,-0.965 1.2383,-2.117 1.3398,-3.457 z"
       id="path3172"
       style="fill:#ddac5f;fill-opacity:1;fill-rule:nonzero;stroke-width:0;stroke-linecap:butt;stroke-linejoin:miter;stroke-miterlimit:2.61310005" />
    <path
       d="m 89.0038,166.863 0,-23.656 7.3164,0 c 2.7071,0 4.8788,1.141 6.5198,3.422 1.636,2.281 2.457,5.098 2.457,8.449 0,3.352 -0.844,6.153 -2.531,8.406 -1.688,2.254 -4.102,3.379 -7.2466,3.379 z m 3.6797,-3.484 2.9805,0 c 1.6015,0 2.9609,-0.715 4.074,-2.148 1.117,-1.434 1.676,-3.563 1.676,-6.395 0,-2.312 -0.488,-4.266 -1.465,-5.867 -0.9725,-1.598 -2.2616,-2.399 -3.8592,-2.399 l -3.4063,0 z"
       id="path3176"
       style="fill:#ddac5f;fill-opacity:1;fill-rule:nonzero;stroke-width:0;stroke-linecap:butt;stroke-linejoin:miter;stroke-miterlimit:2.61310005" />
    <path
       d="m 78.8124,42.481 c 0.1836,1.523 1.5547,5.078 2.7461,6.218 1.1914,1.141 4.7695,1.504 6.9961,1.867 2.2266,0.364 18.1364,-0.312 20.5704,-0.933 2.437,-0.621 3.836,-3.266 4.562,-4.766 0.723,-1.504 -0.105,-4.926 -0.984,-6.062 C 111.82,37.664 107.156,32.594 96.2226,32.793 84.7733,33 78.3476,38.598 78.8124,42.481 z"
       id="path3180"
       style="fill:#e43a3b;fill-opacity:1;fill-rule:nonzero;stroke:#353434;stroke-width:0.052;stroke-linecap:butt;stroke-linejoin:miter;stroke-miterlimit:2.61310005;stroke-opacity:1;stroke-dasharray:none" />
    <path
       d="m 97.1562,30.149 c 0,0 1.7343,0.031 4.4058,2.175 1.375,1.106 1.809,1.961 2.297,3.813 0.922,3.512 -0.226,6.242 -0.226,6.242 l 2.176,0.672 c 0,0 0.984,-2.363 0.625,-5.492 -0.274,-2.352 -0.833,-3.211 -1.504,-3.989 -0.676,-0.777 -2.231,-2.281 -3.215,-2.8 0,0 0,0 1.246,0.207 1.535,0.257 5.234,1.195 7.098,3.007 1.867,1.813 2.644,3.625 2.953,5.286 0.312,1.656 0,5.027 -0.364,5.906 -0.363,0.883 2.075,0.676 2.075,0.676 0,0 1.503,-3.786 1.554,-5.235 0.051,-1.453 -0.57,-4.715 -2.488,-6.476 -1.918,-1.762 -4.145,-2.801 -6.734,-3.371 -2.594,-0.567 -7.36,-1.086 -8.7582,-1.137 -1.3985,-0.055 -5.6992,-0.207 -11.0391,0.621 -5.3359,0.828 -5.9883,1.508 -7.4101,2.59 -2.1289,1.625 -2.5899,2.902 -3.1094,4.351 -0.5156,1.454 -1.0352,4.457 0.3125,7.047 1.3476,2.594 1.5039,2.594 1.5039,2.594 l 1.6055,-0.832 c 0,0 -0.6211,-2.02 -0.7266,-3.676 -0.1016,-1.66 0.3125,-3.992 0.9844,-5.547 0.6758,-1.554 2.1054,-3.257 4.3008,-4.195 4.25,-1.816 7.1015,-2.023 7.1015,-2.023 0,0 -1.164,0.386 -2.6953,1.554 -2.0195,1.543 -2.6289,3.707 -2.9023,4.871 -0.3282,1.395 0.0507,4.356 0.4648,5.133 0.418,0.778 0.6758,1.399 0.6758,1.399 l 1.8633,-0.414 c 0,0 -1.2578,-4.895 -0.3594,-7.309 0.8711,-2.348 1.9258,-3.356 2.9531,-4.145 2.0196,-1.554 3.6797,-1.554 3.6797,-1.554 0,0 -0.7266,3.058 -0.8828,5.234 -0.1563,2.176 -0.3125,5.078 -0.207,6.27 0.1054,1.191 0.6211,2.433 0.6211,2.433 l 3.0078,-0.051 c 0,0 -0.0547,-0.726 0.1523,-2.332 0.207,-1.605 0.1055,-4.765 -0.1015,-6.425 -0.2071,-1.657 -0.9336,-5.078 -0.9336,-5.078 z"
       id="path3188"
       style="fill:#ddac5f;fill-opacity:1;fill-rule:nonzero;stroke:#353434;stroke-width:0.052;stroke-linecap:butt;stroke-linejoin:miter;stroke-miterlimit:2.61310005;stroke-opacity:1;stroke-dasharray:none" />
    <path
       d="m 80.7577,48.586 c 0,0 1.1641,1.125 1.5078,2.203 0.3477,1.082 0.9532,1.988 1.168,3.543 0.2148,1.555 0.1289,1.121 0.1289,1.121 0,0 10.2344,-1.383 12.6094,-1.34 2.375,0.043 12.7382,1.34 12.7382,1.34 0,0 0.086,-0.82 0.344,-1.64 0.262,-0.821 0.953,-2.895 1.469,-3.582 0.519,-0.692 1.468,-1.836 1.468,-1.836 0,0 -0.203,-0.172 -0.82,-0.172 -0.668,0 -0.648,0.234 -0.648,0.234 l -4.922,-0.086 c 0,0 -0.387,-0.258 -0.735,-0.82 -0.343,-0.563 -0.343,-0.906 -0.343,-0.906 l -0.907,-0.778 -1.082,0.477 -1.078,1.164 -4.0155,0.043 -0.0429,-1.641 -1.168,-0.949 -1.25,0.992 -0.043,1.555 -4.0586,0.043 -0.9961,-1.164 -0.9921,-0.477 -1.0782,0.692 c 0,0 0,0.214 -0.3476,0.734 -0.3438,0.52 -0.6485,0.949 -0.6485,0.949 l -4.7031,0.477 c 0,0 -0.1758,-0.391 -0.8242,-0.391 -0.6445,0 -0.7305,0.215 -0.7305,0.215 z"
       id="path3196"
       style="fill:#ddac5f;fill-opacity:1;fill-rule:nonzero;stroke:#353434;stroke-width:0.052;stroke-linecap:butt;stroke-linejoin:miter;stroke-miterlimit:2.61310005;stroke-opacity:1;stroke-dasharray:none" />
    <path
       d="m 82.246,51.07 c 0,0 5.1172,-1.617 14.25,-1.554 8.809,0.062 13.73,1.554 13.73,1.554 l 0.54,-0.367 0.042,-0.605 c 0,0 -5.886,-1.489 -14.3784,-1.489 -6.4766,0 -14.6367,1.426 -14.6367,1.426 l 0,0.582 z"
       id="path3208"
       style="fill:#ddac5f;fill-opacity:1;stroke:#353434;stroke-width:0.0518513;stroke-linecap:butt;stroke-linejoin:miter;stroke-miterlimit:2.61310005;stroke-opacity:1" />
    <path
       d="m 83.5429,56.316 c 0,0 5.2461,-1.554 12.7578,-1.554 8.2263,0 12.6953,1.426 12.6953,1.426 l -0.063,-0.907 c 0,0 -4.539,-1.23 -12.5659,-1.425 -5.3789,-0.129 -12.7617,1.296 -12.7617,1.296 z"
       id="path3216"
       style="fill:#ddac5f;fill-opacity:1;stroke:#353434;stroke-width:0.0518513;stroke-linecap:butt;stroke-linejoin:miter;stroke-miterlimit:2.61310005;stroke-opacity:1" />
    <path
       d="m 101.266,43.621 c 0.246,-0.418 0.734,-0.344 0.953,-0.258 0.215,0.086 0.644,0.473 0.644,0.473 0,0 -0.121,-1.285 0.043,-1.465 0.52,-0.562 1.535,0.129 1.535,0.129 0,0 0.496,-0.172 1.121,0.02 0.461,0.144 0.473,0.679 0.325,0.972 -0.196,0.391 -0.625,0.692 -0.625,0.692 0,0 0.41,-0.196 0.886,-0.129 0.403,0.054 0.477,0.297 0.539,0.691 0.172,1.145 -0.691,0.778 -0.691,0.778 0,0 0.195,0.257 0.281,0.601 0.086,0.348 0.047,0.859 -0.433,0.91 -1.684,0.172 -2.028,-1.168 -2.028,-1.168 0,0 -0.824,0.563 -1.816,0.563 -0.25,0 -0.754,-0.012 -0.797,-0.606 -0.043,-0.582 0.582,-0.929 0.582,-0.929 0,0 -0.344,0.023 -0.519,-0.368 -0.106,-0.238 -0.149,-0.644 0,-0.906 z"
       id="path3224"
       style="fill:#ddac5f;fill-opacity:1;stroke:#353434;stroke-width:0.0518513;stroke-linecap:butt;stroke-linejoin:miter;stroke-miterlimit:2.61310005;stroke-opacity:1" />
    <path
       d="m 103.926,44.266 c 0.386,0 0.773,0.386 0.773,0.777 0,0.387 -0.387,0.777 -0.773,0.777 -0.153,0 -0.305,-0.062 -0.434,-0.156 -0.203,-0.148 -0.344,-0.387 -0.344,-0.621 0,-0.391 0.387,-0.777 0.778,-0.777 z"
       id="path3228"
       style="fill:#9cd3ed;fill-rule:nonzero;stroke-width:0;stroke-linecap:butt;stroke-linejoin:miter;stroke-miterlimit:2.61310005" />
    <path
       d="m 103.926,44.266 c 0.386,0 0.773,0.386 0.773,0.777 0,0.387 -0.387,0.777 -0.773,0.777 -0.153,0 -0.305,-0.062 -0.434,-0.156 -0.203,-0.148 -0.344,-0.387 -0.344,-0.621 0,-0.391 0.387,-0.777 0.778,-0.777 z"
       id="path3236"
       style="fill:#ddac5f;fill-opacity:1;stroke:#353434;stroke-width:0.0518513;stroke-linecap:butt;stroke-linejoin:miter;stroke-miterlimit:2.61310005;stroke-opacity:1" />
    <path
       d="m 96.3437,41.418 c 0,0 0.5195,-0.301 0.7773,-0.301 0.2578,0 0.7578,0.367 0.8008,0.668 0.043,0.305 -0.2813,1.211 -0.2813,1.211 0,0 0.1289,-0.301 0.668,-0.238 0.5391,0.066 0.9297,0.476 0.8633,0.949 -0.0625,0.477 -0.4727,0.649 -0.4727,0.649 0,0 0.3008,0.152 0.3672,0.605 0.0625,0.453 -0.0664,1.047 -0.6055,1.059 -1.3398,0.019 -2.0312,-1.059 -2.0312,-1.059 0,0 -0.7969,0.887 -1.7461,1.016 -0.4336,0.058 -1.125,-0.043 -1.125,-0.477 0,-0.43 0.3672,-1.016 0.3672,-1.016 0,0 -0.2813,-0.019 -0.3672,-0.453 -0.0859,-0.429 0.1094,-0.906 0.3672,-1.078 0.2578,-0.172 1.1875,0.086 1.1875,0.086 0,0 -0.4961,-0.82 -0.4102,-1.211 0.086,-0.387 0.4336,-0.711 0.7344,-0.711 0.3008,0 0.9063,0.301 0.9063,0.301 z"
       id="path3244"
       style="fill:#ddac5f;fill-opacity:1;stroke:#353434;stroke-width:0.0518513;stroke-linecap:butt;stroke-linejoin:miter;stroke-miterlimit:2.61310005;stroke-opacity:1" />
    <path
       d="m 96.3241,43.379 c 0.3867,0 0.7774,0.387 0.7774,0.777 0,0.387 -0.3907,0.778 -0.7774,0.778 -0.1523,0 -0.3047,-0.059 -0.4336,-0.157 -0.1992,-0.148 -0.3437,-0.382 -0.3437,-0.621 0,-0.39 0.3867,-0.777 0.7773,-0.777 z"
       id="path3248"
       style="fill:#9cd3ed;fill-rule:nonzero;stroke-width:0;stroke-linecap:butt;stroke-linejoin:miter;stroke-miterlimit:2.61310005" />
    <path
       d="m 96.3241,43.379 c 0.3867,0 0.7774,0.387 0.7774,0.777 0,0.387 -0.3907,0.778 -0.7774,0.778 -0.1523,0 -0.3047,-0.059 -0.4336,-0.157 -0.1992,-0.148 -0.3437,-0.382 -0.3437,-0.621 0,-0.39 0.3867,-0.777 0.7773,-0.777 z"
       id="path3256"
       style="fill:#ddac5f;fill-opacity:1;stroke:#353434;stroke-width:0.0518513;stroke-linecap:butt;stroke-linejoin:miter;stroke-miterlimit:2.61310005;stroke-opacity:1" />
    <path
       d="m 80.7577,48.5 c 0,0 0.8399,-0.148 1.336,-0.41 0.4961,-0.258 0.7578,-0.602 0.7578,-0.926 0,-0.324 -0.4532,-0.519 -0.8633,-0.453 -0.4102,0.063 -0.5,0.086 -0.5,0.086 0,0 0.0664,-0.109 0.0664,-0.582 0,-0.477 -0.2383,-0.844 -0.6484,-0.824 -0.8204,0.047 -1.1016,0.476 -1.1016,0.476 0,0 -0.4297,-0.343 -0.9258,-0.429 -0.4961,-0.09 -1.168,0.668 -1.168,0.668 l 1.3399,1.359 c 0,0 0.5625,0.625 0.9062,0.82 0.3438,0.196 0.8008,0.215 0.8008,0.215 z"
       id="path3264"
       style="fill:#ddac5f;fill-opacity:1;stroke:#353434;stroke-width:0.0518513;stroke-linecap:butt;stroke-linejoin:miter;stroke-miterlimit:2.61310005;stroke-opacity:1" />
    <path
       d="m 79.8944,47.18 c 0.3868,0 0.7774,0.386 0.7774,0.777 0,0.387 -0.3906,0.777 -0.7774,0.777 -0.1523,0 -0.3046,-0.058 -0.4336,-0.156 -0.1992,-0.148 -0.3437,-0.387 -0.3437,-0.621 0,-0.391 0.3867,-0.777 0.7773,-0.777 z"
       id="path3268"
       style="fill:#9cd3ed;fill-rule:nonzero;stroke-width:0;stroke-linecap:butt;stroke-linejoin:miter;stroke-miterlimit:2.61310005" />
    <path
       d="m 79.8944,47.18 c 0.3868,0 0.7774,0.386 0.7774,0.777 0,0.387 -0.3906,0.777 -0.7774,0.777 -0.1523,0 -0.3046,-0.058 -0.4336,-0.156 -0.1992,-0.148 -0.3437,-0.387 -0.3437,-0.621 0,-0.391 0.3867,-0.777 0.7773,-0.777 z"
       id="path3276"
       style="fill:#ddac5f;fill-opacity:1;stroke:#353434;stroke-width:0.0518513;stroke-linecap:butt;stroke-linejoin:miter;stroke-miterlimit:2.61310005;stroke-opacity:1" />
    <path
       d="m 112.129,48.328 c 0,0 -0.844,-0.152 -1.34,-0.41 -0.496,-0.258 -0.758,-0.605 -0.758,-0.93 0,-0.32 0.453,-0.515 0.867,-0.453 0.411,0.067 0.496,0.086 0.496,0.086 0,0 -0.066,-0.105 -0.066,-0.582 0,-0.473 0.238,-0.84 0.648,-0.82 0.821,0.043 1.102,0.476 1.102,0.476 0,0 0.43,-0.347 0.926,-0.433 0.5,-0.086 1.168,0.672 1.168,0.672 l -1.34,1.359 c 0,0 -0.563,0.625 -0.906,0.82 -0.344,0.196 -0.797,0.215 -0.797,0.215 z"
       id="path3284"
       style="fill:#ddac5f;fill-opacity:1;stroke:#353434;stroke-width:0.0518513;stroke-linecap:butt;stroke-linejoin:miter;stroke-miterlimit:2.61310005;stroke-opacity:1" />
    <path
       d="m 112.863,46.832 c 0.387,0 0.778,0.391 0.778,0.777 0,0.391 -0.391,0.778 -0.778,0.778 -0.152,0 -0.304,-0.059 -0.433,-0.153 -0.2,-0.148 -0.344,-0.386 -0.344,-0.625 0,-0.386 0.387,-0.777 0.777,-0.777 z"
       id="path3288"
       style="fill:#9cd3ed;fill-rule:nonzero;stroke-width:0;stroke-linecap:butt;stroke-linejoin:miter;stroke-miterlimit:2.61310005" />
    <path
       d="m 112.863,46.832 c 0.387,0 0.778,0.391 0.778,0.777 0,0.391 -0.391,0.778 -0.778,0.778 -0.152,0 -0.304,-0.059 -0.433,-0.153 -0.2,-0.148 -0.344,-0.386 -0.344,-0.625 0,-0.386 0.387,-0.777 0.777,-0.777 z"
       id="path3296"
       style="fill:#ddac5f;fill-opacity:1;stroke:#353434;stroke-width:0.0518513;stroke-linecap:butt;stroke-linejoin:miter;stroke-miterlimit:2.61310005;stroke-opacity:1" />
    <path
       d="m 95.7812,22.422 1.1015,0 0,0.883 0.6485,0.023 0.0234,0.821 -0.6914,0.062 0,2.008 -1.1016,0.023 0.0625,-2.051 -0.7109,-0.023 0.0234,-0.84 0.625,-0.043 0.0196,-0.82 z"
       id="path3304"
       style="fill:#ddac5f;fill-opacity:1;stroke:#353434;stroke-width:0.0518513;stroke-linecap:butt;stroke-linejoin:miter;stroke-miterlimit:2.61310005;stroke-opacity:1" />
    <path
       d="m 96.2812,26.063 c 0.8867,0 1.7695,0.886 1.7695,1.769 0,0.887 -0.8828,1.774 -1.7695,1.774 -0.3477,0 -0.6914,-0.137 -0.9844,-0.352 -0.461,-0.34 -0.7891,-0.879 -0.7891,-1.422 0,-0.883 0.8867,-1.769 1.7735,-1.769 z"
       id="path3312"
       style="fill:#ddac5f;fill-opacity:1;fill-rule:evenodd;stroke:#353434;stroke-width:0.052;stroke-linecap:butt;stroke-linejoin:miter;stroke-miterlimit:2.61310005;stroke-opacity:1;stroke-dasharray:none" />
    <path
       d="m 96.2577,36.199 c 0.6641,0 1.3281,0.664 1.3281,1.328 0,0.668 -0.664,1.332 -1.3281,1.332 -0.2578,0 -0.5195,-0.101 -0.7383,-0.265 -0.3437,-0.254 -0.5898,-0.66 -0.5898,-1.067 0,-0.664 0.6641,-1.328 1.3281,-1.328 z"
       id="path3320"
       style="fill:#fdd688;fill-rule:evenodd;stroke-width:0;stroke-linecap:butt;stroke-linejoin:miter;stroke-miterlimit:2.61310005" />
    <path
       d="m 96.2577,36.199 c 0.6641,0 1.3281,0.664 1.3281,1.328 0,0.668 -0.664,1.332 -1.3281,1.332 -0.2578,0 -0.5195,-0.101 -0.7383,-0.265 -0.3437,-0.254 -0.5898,-0.66 -0.5898,-1.067 0,-0.664 0.6641,-1.328 1.3281,-1.328 z"
       id="path3328"
       style="fill:#008dca;fill-opacity:1;stroke:#353434;stroke-width:0.0518513;stroke-linecap:butt;stroke-linejoin:miter;stroke-miterlimit:2.61310005;stroke-opacity:1" />
    <path
       d="m 106.113,38.383 c 0.664,0 1.328,0.664 1.328,1.328 0,0.664 -0.664,1.328 -1.328,1.328 -0.258,0 -0.519,-0.101 -0.738,-0.262 -0.344,-0.257 -0.59,-0.66 -0.59,-1.066 0,-0.664 0.664,-1.328 1.328,-1.328 z"
       id="path3336"
       style="fill:#008dca;fill-opacity:1;stroke:#353434;stroke-width:0.0518513;stroke-linecap:butt;stroke-linejoin:miter;stroke-miterlimit:2.61310005;stroke-opacity:1" />
    <path
       d="m 86.453,38.832 c 0.6641,0 1.3282,0.664 1.3282,1.328 0,0.664 -0.6641,1.328 -1.3282,1.328 -0.2617,0 -0.5195,-0.101 -0.7382,-0.261 -0.3438,-0.258 -0.5938,-0.661 -0.5938,-1.067 0,-0.664 0.668,-1.328 1.332,-1.328 z"
       id="path3344"
       style="fill:#008dca;fill-opacity:1;fill-rule:evenodd;stroke:#353434;stroke-width:0.052;stroke-linecap:butt;stroke-linejoin:miter;stroke-miterlimit:2.61310005;stroke-opacity:1;stroke-dasharray:none" />
    <path
       d="m 76.7968,40.91 c 0.664,0 1.3281,0.664 1.3281,1.328 0,0.664 -0.6641,1.328 -1.3281,1.328 -0.2578,0 -0.5195,-0.101 -0.7383,-0.261 -0.3437,-0.254 -0.5898,-0.66 -0.5898,-1.067 0,-0.664 0.664,-1.328 1.3281,-1.328 z"
       id="path3356"
       style="fill:#008dca;fill-opacity:1;fill-rule:evenodd;stroke:#353434;stroke-width:0.052;stroke-linecap:butt;stroke-linejoin:miter;stroke-miterlimit:2.61310005;stroke-opacity:1;stroke-dasharray:none" />
    <path
       d="m 115.894,40.738 c 0.665,0 1.332,0.664 1.332,1.328 0,0.665 -0.667,1.329 -1.332,1.329 -0.257,0 -0.515,-0.102 -0.738,-0.266 -0.344,-0.254 -0.59,-0.656 -0.59,-1.063 0,-0.664 0.664,-1.328 1.328,-1.328 z"
       id="path3364"
       style="fill:#fdd688;fill-rule:evenodd;stroke-width:0;stroke-linecap:butt;stroke-linejoin:miter;stroke-miterlimit:2.61310005" />
    <path
       d="m 115.894,40.738 c 0.665,0 1.332,0.664 1.332,1.328 0,0.665 -0.667,1.329 -1.332,1.329 -0.257,0 -0.515,-0.102 -0.738,-0.266 -0.344,-0.254 -0.59,-0.656 -0.59,-1.063 0,-0.664 0.664,-1.328 1.328,-1.328 z"
       id="path3372"
       style="fill:#008dca;fill-opacity:1;stroke:#353434;stroke-width:0.0518513;stroke-linecap:butt;stroke-linejoin:miter;stroke-miterlimit:2.61310005;stroke-opacity:1" />
    <path
       d="m 96.2694,32.387 c 0.4961,0 0.9961,0.5 0.9961,0.996 0,0.5 -0.5,0.996 -0.9961,0.996 -0.1953,0 -0.3906,-0.074 -0.5546,-0.195 -0.2579,-0.192 -0.4415,-0.496 -0.4415,-0.801 0,-0.496 0.4961,-0.996 0.9961,-0.996 z"
       id="path3376"
       style="fill:#fdd688;fill-rule:evenodd;stroke-width:0;stroke-linecap:butt;stroke-linejoin:miter;stroke-miterlimit:2.61310005" />
    <path
       d="m 96.2694,32.387 c 0.4961,0 0.9961,0.5 0.9961,0.996 0,0.5 -0.5,0.996 -0.9961,0.996 -0.1953,0 -0.3906,-0.074 -0.5546,-0.195 -0.2579,-0.192 -0.4415,-0.496 -0.4415,-0.801 0,-0.496 0.4961,-0.996 0.9961,-0.996 z"
       id="path3384"
       style="fill:#008dca;fill-opacity:1;stroke:#353434;stroke-width:0.0518513;stroke-linecap:butt;stroke-linejoin:miter;stroke-miterlimit:2.61310005;stroke-opacity:1" />
    <path
       d="m 87.2577,34.461 c 0.5,0 0.9961,0.496 0.9961,0.996 0,0.496 -0.4961,0.996 -0.9961,0.996 -0.1953,0 -0.3906,-0.074 -0.5547,-0.199 -0.2578,-0.191 -0.4414,-0.492 -0.4414,-0.797 0,-0.5 0.5,-0.996 0.9961,-0.996 z"
       id="path3388"
       style="fill:#fdd688;fill-rule:evenodd;stroke-width:0;stroke-linecap:butt;stroke-linejoin:miter;stroke-miterlimit:2.61310005" />
    <path
       d="m 87.2577,34.461 c 0.5,0 0.9961,0.496 0.9961,0.996 0,0.496 -0.4961,0.996 -0.9961,0.996 -0.1953,0 -0.3906,-0.074 -0.5547,-0.199 -0.2578,-0.191 -0.4414,-0.492 -0.4414,-0.797 0,-0.5 0.5,-0.996 0.9961,-0.996 z"
       id="path3392"
       style="fill:#fdd688;fill-rule:evenodd;stroke-width:0;stroke-linecap:butt;stroke-linejoin:miter;stroke-miterlimit:2.61310005" />
    <path
       d="m 87.2577,34.461 c 0.5,0 0.9961,0.496 0.9961,0.996 0,0.496 -0.4961,0.996 -0.9961,0.996 -0.1953,0 -0.3906,-0.074 -0.5547,-0.199 -0.2578,-0.191 -0.4414,-0.492 -0.4414,-0.797 0,-0.5 0.5,-0.996 0.9961,-0.996 z"
       id="path3396"
       style="fill:#008dca;fill-opacity:1;stroke:#353434;stroke-width:0.0518513;stroke-linecap:butt;stroke-linejoin:miter;stroke-miterlimit:2.61310005;stroke-opacity:1" />
    <path
       d="m 78.6601,33.156 c 0.5,0 1,0.5 1,1 0,0.496 -0.5,0.996 -1,0.996 -0.1914,0 -0.3868,-0.078 -0.5508,-0.199 -0.2578,-0.191 -0.4453,-0.492 -0.4453,-0.797 0,-0.5 0.5,-1 0.9961,-1 z"
       id="path3400"
       style="fill:#fdd688;fill-rule:evenodd;stroke-width:0;stroke-linecap:butt;stroke-linejoin:miter;stroke-miterlimit:2.61310005" />
    <path
       d="m 78.6601,33.156 c 0.5,0 1,0.5 1,1 0,0.496 -0.5,0.996 -1,0.996 -0.1914,0 -0.3868,-0.078 -0.5508,-0.199 -0.2578,-0.191 -0.4453,-0.492 -0.4453,-0.797 0,-0.5 0.5,-1 0.9961,-1 z"
       id="path3408"
       style="fill:#008dca;fill-opacity:1;stroke:#353434;stroke-width:0.0518513;stroke-linecap:butt;stroke-linejoin:miter;stroke-miterlimit:2.61310005;stroke-opacity:1" />
    <path
       d="m 105.348,34.356 c 0.496,0 0.996,0.496 0.996,0.996 0,0.496 -0.5,0.996 -0.996,0.996 -0.196,0 -0.391,-0.078 -0.555,-0.199 -0.258,-0.192 -0.445,-0.493 -0.445,-0.797 0,-0.5 0.5,-0.996 1,-0.996 z"
       id="path3412"
       style="fill:#fdd688;fill-rule:evenodd;stroke-width:0;stroke-linecap:butt;stroke-linejoin:miter;stroke-miterlimit:2.61310005" />
    <path
       d="m 105.348,34.356 c 0.496,0 0.996,0.496 0.996,0.996 0,0.496 -0.5,0.996 -0.996,0.996 -0.196,0 -0.391,-0.078 -0.555,-0.199 -0.258,-0.192 -0.445,-0.493 -0.445,-0.797 0,-0.5 0.5,-0.996 1,-0.996 z"
       id="path3420"
       style="fill:#008dca;fill-opacity:1;stroke:#353434;stroke-width:0.0518513;stroke-linecap:butt;stroke-linejoin:miter;stroke-miterlimit:2.61310005;stroke-opacity:1" />
    <path
       d="m 113.875,33.211 c 0.5,0 0.996,0.496 0.996,0.996 0,0.5 -0.496,0.996 -0.996,0.996 -0.195,0 -0.391,-0.074 -0.555,-0.199 -0.258,-0.188 -0.441,-0.492 -0.441,-0.797 0,-0.5 0.496,-0.996 0.996,-0.996 z"
       id="path3428"
       style="fill:#008dca;fill-opacity:1;stroke:#353434;stroke-width:0.0518513;stroke-linecap:butt;stroke-linejoin:miter;stroke-miterlimit:2.61310005;stroke-opacity:1" />
    <path
       d="m 99.891,29.816 c 0.281,0 0.558,0.282 0.558,0.563 0,0.281 -0.277,0.559 -0.558,0.559 -0.11,0 -0.219,-0.043 -0.313,-0.11 -0.1445,-0.109 -0.25,-0.277 -0.25,-0.449 0,-0.281 0.2813,-0.563 0.563,-0.563 z"
       id="path3432"
       style="fill:#fdd688;fill-rule:evenodd;stroke-width:0;stroke-linecap:butt;stroke-linejoin:miter;stroke-miterlimit:2.61310005" />
    <path
       d="m 99.891,29.816 c 0.281,0 0.558,0.282 0.558,0.563 0,0.281 -0.277,0.559 -0.558,0.559 -0.11,0 -0.219,-0.043 -0.313,-0.11 -0.1445,-0.109 -0.25,-0.277 -0.25,-0.449 0,-0.281 0.2813,-0.563 0.563,-0.563 z"
       id="path3440"
       style="fill:#008dca;fill-opacity:1;stroke:#353434;stroke-width:0.0518513;stroke-linecap:butt;stroke-linejoin:miter;stroke-miterlimit:2.61310005;stroke-opacity:1" />
    <path
       d="m 92.5468,29.758 c 0.2812,0 0.5625,0.281 0.5625,0.562 0,0.282 -0.2813,0.563 -0.5625,0.563 -0.1055,0 -0.2149,-0.043 -0.3086,-0.113 -0.1445,-0.106 -0.25,-0.278 -0.25,-0.45 0,-0.281 0.2812,-0.562 0.5586,-0.562 z"
       id="path3444"
       style="fill:#fdd688;fill-rule:evenodd;stroke-width:0;stroke-linecap:butt;stroke-linejoin:miter;stroke-miterlimit:2.61310005" />
    <path
       d="m 92.5468,29.758 c 0.2812,0 0.5625,0.281 0.5625,0.562 0,0.282 -0.2813,0.563 -0.5625,0.563 -0.1055,0 -0.2149,-0.043 -0.3086,-0.113 -0.1445,-0.106 -0.25,-0.278 -0.25,-0.45 0,-0.281 0.2812,-0.562 0.5586,-0.562 z"
       id="path3452"
       style="fill:#008dca;fill-opacity:1;stroke:#353434;stroke-width:0.0518513;stroke-linecap:butt;stroke-linejoin:miter;stroke-miterlimit:2.61310005;stroke-opacity:1" />
    <path
       d="m 83.7382,30.484 c 0.2812,0 0.5625,0.282 0.5625,0.563 0,0.281 -0.2813,0.559 -0.5625,0.559 -0.1094,0 -0.2149,-0.043 -0.3086,-0.11 -0.1445,-0.109 -0.25,-0.277 -0.25,-0.449 0,-0.281 0.2812,-0.563 0.5586,-0.563 z"
       id="path3456"
       style="fill:#fdd688;fill-rule:evenodd;stroke-width:0;stroke-linecap:butt;stroke-linejoin:miter;stroke-miterlimit:2.61310005" />
    <path
       d="m 83.7382,30.484 c 0.2812,0 0.5625,0.282 0.5625,0.563 0,0.281 -0.2813,0.559 -0.5625,0.559 -0.1094,0 -0.2149,-0.043 -0.3086,-0.11 -0.1445,-0.109 -0.25,-0.277 -0.25,-0.449 0,-0.281 0.2812,-0.563 0.5586,-0.563 z"
       id="path3464"
       style="fill:#008dca;fill-opacity:1;stroke:#353434;stroke-width:0.0518513;stroke-linecap:butt;stroke-linejoin:miter;stroke-miterlimit:2.61310005;stroke-opacity:1" />
    <path
       d="m 109.012,30.813 c 0.277,0 0.558,0.281 0.558,0.562 0,0.281 -0.281,0.559 -0.558,0.559 -0.114,0 -0.219,-0.043 -0.313,-0.11 -0.144,-0.109 -0.25,-0.277 -0.25,-0.449 0,-0.281 0.281,-0.562 0.563,-0.562 z"
       id="path3468"
       style="fill:#fdd688;fill-rule:evenodd;stroke-width:0;stroke-linecap:butt;stroke-linejoin:miter;stroke-miterlimit:2.61310005" />
    <path
       d="m 109.012,30.813 c 0.277,0 0.558,0.281 0.558,0.562 0,0.281 -0.281,0.559 -0.558,0.559 -0.114,0 -0.219,-0.043 -0.313,-0.11 -0.144,-0.109 -0.25,-0.277 -0.25,-0.449 0,-0.281 0.281,-0.562 0.563,-0.562 z"
       id="path3476"
       style="fill:#008dca;fill-opacity:1;stroke:#353434;stroke-width:0.0518513;stroke-linecap:butt;stroke-linejoin:miter;stroke-miterlimit:2.61310005;stroke-opacity:1" />
    <path
       d="m 96.3241,29.777 c 0.2813,0 0.5625,0.282 0.5625,0.559 0,0.281 -0.2812,0.563 -0.5625,0.563 -0.1093,0 -0.2187,-0.043 -0.3086,-0.114 -0.1445,-0.105 -0.25,-0.277 -0.25,-0.449 0,-0.277 0.2813,-0.559 0.5586,-0.559 z"
       id="path3480"
       style="fill:#fdd688;fill-rule:evenodd;stroke-width:0;stroke-linecap:butt;stroke-linejoin:miter;stroke-miterlimit:2.61310005" />
    <path
       d="m 96.3241,29.777 c 0.2813,0 0.5625,0.282 0.5625,0.559 0,0.281 -0.2812,0.563 -0.5625,0.563 -0.1093,0 -0.2187,-0.043 -0.3086,-0.114 -0.1445,-0.105 -0.25,-0.277 -0.25,-0.449 0,-0.277 0.2813,-0.559 0.5586,-0.559 z"
       id="path3488"
       style="fill:#008dca;fill-opacity:1;stroke:#353434;stroke-width:0.0518513;stroke-linecap:butt;stroke-linejoin:miter;stroke-miterlimit:2.61310005;stroke-opacity:1" />
    <path
       d="m 94.121,50.684 c -1.6055,0.422 -1.3516,1.211 -1.2539,1.488 0.2812,0.777 7.0739,1.066 7.1449,-0.414 0.027,-0.629 -0.2,-0.727 -0.5472,-0.867 -0.9415,-0.387 -2.1329,-0.301 -2.7032,-0.285 -0.5703,0.019 -2.6406,0.078 -2.6406,0.078 z"
       id="path3496"
       style="fill:#ced241;fill-opacity:1;stroke:#353434;stroke-width:0.05195616;stroke-linecap:butt;stroke-linejoin:miter;stroke-miterlimit:2.61310005;stroke-opacity:1;stroke-dasharray:none" />
    <path
       d="m 107.453,51.617 c -0.219,-0.051 -0.547,0.078 -0.715,0.242 -0.172,0.165 -0.457,0.707 -0.375,0.93 0.082,0.219 0.235,0.586 0.418,0.649 0.43,0.148 3.012,0.878 3.246,0.726 0.231,-0.148 0.586,-0.176 0.727,-0.594 0.195,-0.562 0.047,-0.703 -0.129,-0.89 -0.484,-0.512 -1.219,-0.625 -1.566,-0.703 -0.344,-0.078 -1.606,-0.36 -1.606,-0.36 z"
       id="path3504"
       style="fill:#ced241;fill-opacity:1;stroke:#353434;stroke-width:0.0518513;stroke-linecap:butt;stroke-linejoin:miter;stroke-miterlimit:2.61310005;stroke-opacity:1" />
    <path
       d="m 85.203,51.617 c 0.2227,-0.051 0.5508,0.078 0.7188,0.242 0.168,0.165 0.457,0.707 0.375,0.93 -0.086,0.219 -0.2344,0.586 -0.418,0.649 -0.4297,0.148 -3.0156,0.878 -3.2461,0.726 -0.2344,-0.148 -0.5859,-0.176 -0.7304,-0.594 -0.1915,-0.562 -0.043,-0.703 0.1328,-0.89 0.4804,-0.512 1.2148,-0.625 1.5625,-0.703 0.3476,-0.078 1.6054,-0.36 1.6054,-0.36 z"
       id="path3512"
       style="fill:#ced241;fill-opacity:1;stroke:#353434;stroke-width:0.0518513;stroke-linecap:butt;stroke-linejoin:miter;stroke-miterlimit:2.61310005;stroke-opacity:1" />
    <path
       d="m 91.7069,43.707 c -0.2461,-0.418 -0.7343,-0.344 -0.9492,-0.258 -0.2187,0.086 -0.6484,0.477 -0.6484,0.477 0,0 0.1211,-1.289 -0.043,-1.469 -0.5195,-0.562 -1.5351,0.129 -1.5351,0.129 0,0 -0.4961,-0.172 -1.1211,0.02 -0.461,0.144 -0.4727,0.679 -0.3243,0.972 0.1954,0.391 0.625,0.692 0.625,0.692 0,0 -0.4101,-0.196 -0.8828,-0.129 -0.4062,0.054 -0.4804,0.297 -0.5429,0.691 -0.1719,1.145 0.6914,0.777 0.6914,0.777 0,0 -0.1953,0.258 -0.2813,0.606 -0.0859,0.344 -0.0469,0.855 0.4336,0.906 1.6836,0.172 2.0274,-1.168 2.0274,-1.168 0,0 0.8242,0.563 1.8164,0.563 0.25,0 0.7539,-0.008 0.7968,-0.606 0.043,-0.582 -0.582,-0.929 -0.582,-0.929 0,0 0.3438,0.023 0.5195,-0.368 0.1055,-0.238 0.1485,-0.644 0,-0.906 z"
       id="path3520"
       style="fill:#ddac5f;fill-opacity:1;stroke:#353434;stroke-width:0.0518513;stroke-linecap:butt;stroke-linejoin:miter;stroke-miterlimit:2.61310005;stroke-opacity:1" />
    <path
       d="m 88.8749,44.352 c 0.3867,0 0.7774,0.386 0.7774,0.777 0,0.387 -0.3907,0.777 -0.7774,0.777 -0.1523,0 -0.3047,-0.062 -0.4336,-0.156 -0.1992,-0.148 -0.3437,-0.387 -0.3437,-0.621 0,-0.391 0.3906,-0.777 0.7773,-0.777 z"
       id="path3524"
       style="fill:#9cd3ed;fill-rule:nonzero;stroke-width:0;stroke-linecap:butt;stroke-linejoin:miter;stroke-miterlimit:2.61310005" />
    <path
       d="m 88.8749,44.352 c 0.3867,0 0.7774,0.386 0.7774,0.777 0,0.387 -0.3907,0.777 -0.7774,0.777 -0.1523,0 -0.3047,-0.062 -0.4336,-0.156 -0.1992,-0.148 -0.3437,-0.387 -0.3437,-0.621 0,-0.391 0.3906,-0.777 0.7773,-0.777 z"
       id="path3532"
       style="fill:#ddac5f;fill-opacity:1;stroke:#353434;stroke-width:0.0518513;stroke-linecap:butt;stroke-linejoin:miter;stroke-miterlimit:2.61310005;stroke-opacity:1" />
    <path
       d="m 94.8319,107.746 2.6368,0 0.0429,-17.746 5.1794,-0.043 0,-2.851 -5.2223,-0.043 0,-5.008 -2.6368,0 0,5.008 -5.0078,0.043 -0.0429,2.851 5.0507,0.043 z"
       id="path3536"
       style="fill:#ced241;fill-opacity:1;fill-rule:evenodd;stroke-width:0;stroke-linecap:butt;stroke-linejoin:miter;stroke-miterlimit:2.61310005" />
  </g>
</svg>
