<?xml version="1.0" encoding="UTF-8"?>
<!-- Converted by misc2svg (http://www.network-science.de/tools/misc2svg/) -->
<svg xmlns="http://www.w3.org/2000/svg" xmlns:xlink="http://www.w3.org/1999/xlink" width="613pt" height="760pt" viewBox="0 0 613 760" version="1.1">
<defs>
<clipPath id="clip1">
  <path d="M -437.679688 -147.101562 L 1050.507812 -147.101562 L 1050.507812 905.265625 L -437.679688 905.265625 L -437.679688 -147.101562 Z M -437.679688 -147.101562 "/>
</clipPath>
</defs>
<g id="misc2svg">
<g clip-path="url(#clip1)" clip-rule="nonzero">
<path style=" stroke:none;fill-rule:nonzero;fill:rgb(0%,0%,0%);fill-opacity:1;" d="M 77.109375 0 L 0 124.414062 C 23.195312 163.75 40.28125 212.273438 40.28125 276.242188 C 40.28125 339.957031 13.636719 377.871094 13.636719 450.929688 C 13.636719 506.207031 33.671875 554.652344 59.824219 580.800781 C 140.121094 661.101562 247.242188 624.121094 306.699219 759.550781 C 366.152344 624.121094 473.273438 661.101562 553.574219 580.800781 C 579.726562 554.648438 599.757812 506.203125 599.757812 450.929688 C 599.757812 377.871094 573.109375 339.957031 573.109375 276.242188 C 573.109375 212.273438 590.199219 163.75 613.394531 124.414062 L 536.285156 0 C 468.632812 38.765625 390.253906 60.929688 306.695312 60.929688 C 223.140625 60.929688 144.757812 38.765625 77.109375 0 "/>
<path style=" stroke:none;fill-rule:nonzero;fill:rgb(100%,100%,100%);fill-opacity:1;" d="M 84.710938 28.066406 C 70.609375 50.816406 33.875 110.09375 24.574219 125.101562 C 49.316406 171.207031 61.53125 220.757812 61.53125 276.242188 C 61.53125 295.398438 59.300781 312.421875 56.175781 328.363281 L 106.507812 328.363281 L 106.507812 38.617188 C 99.164062 35.277344 91.890625 31.777344 84.710938 28.066406 "/>
<path style=" stroke:none;fill-rule:nonzero;fill:rgb(0%,55.294118%,80.392157%);fill-opacity:1;" d="M 209.632812 72.222656 L 209.632812 328.363281 L 257.007812 328.363281 L 257.007812 79.535156 C 241.085938 77.882812 225.273438 75.4375 209.632812 72.222656 "/>
<path style=" stroke:none;fill-rule:nonzero;fill:rgb(100%,100%,100%);fill-opacity:1;" d="M 293.824219 81.984375 C 282.886719 81.6875 271.988281 80.972656 261.136719 79.941406 L 261.136719 328.363281 L 293.824219 328.363281 L 293.824219 81.984375 Z M 293.824219 81.984375 "/>
<path style=" stroke:none;fill-rule:nonzero;fill:rgb(100%,100%,100%);fill-opacity:1;" d="M 162.132812 59.921875 L 162.132812 328.363281 L 205.507812 328.363281 L 205.507812 71.34375 C 190.878906 68.199219 176.402344 64.398438 162.132812 59.921875 "/>
<path style=" stroke:none;fill-rule:nonzero;fill:rgb(0%,55.294118%,80.392157%);fill-opacity:1;" d="M 110.632812 40.488281 L 110.632812 328.363281 L 158.007812 328.363281 L 158.007812 58.609375 C 141.917969 53.398438 126.101562 47.351562 110.632812 40.488281 "/>
<path style=" stroke:none;fill-rule:nonzero;fill:rgb(100%,100%,100%);fill-opacity:1;" d="M 89.640625 578.867188 C 114.824219 598.671875 142.65625 608.882812 171.851562 619.550781 C 212.597656 634.4375 257.402344 650.980469 293.820312 696.710938 L 293.820312 578.867188 L 89.640625 578.867188 Z M 89.640625 578.867188 "/>
<path style=" stroke:none;fill-rule:nonzero;fill:rgb(0%,60%,22.352941%);fill-opacity:1;" d="M 441.539062 619.546875 C 470.734375 608.882812 498.570312 598.671875 523.753906 578.863281 L 319.570312 578.863281 L 319.570312 696.710938 C 355.992188 650.980469 400.796875 634.433594 441.539062 619.546875 "/>
<path style=" stroke:none;fill-rule:nonzero;fill:rgb(100%,90.196078%,4.313725%);fill-opacity:1;" d="M 554.507812 328.363281 C 551.382812 312.421875 549.148438 295.40625 549.148438 276.242188 C 549.148438 220.757812 561.367188 171.207031 586.109375 125.101562 C 576.804688 110.09375 540.070312 50.820312 525.972656 28.066406 C 461.453125 61.425781 389.851562 80.019531 316.867188 81.984375 L 316.867188 328.363281 L 554.507812 328.363281 Z M 554.507812 328.363281 "/>
<path style=" stroke:none;fill-rule:nonzero;fill:rgb(0%,55.294118%,80.392157%);fill-opacity:1;" d="M 48.25 362.53125 C 41.375 389.914062 34.886719 415.777344 34.886719 450.929688 C 34.886719 492.898438 48.257812 534.484375 69.390625 559.734375 L 544 559.734375 C 565.136719 534.484375 578.507812 492.898438 578.507812 450.929688 C 578.507812 415.777344 572.011719 389.914062 565.140625 362.53125 C 563.890625 357.558594 562.636719 352.558594 561.421875 347.492188 L 51.96875 347.492188 C 50.757812 352.558594 49.5 357.5625 48.25 362.53125 "/>
<path style=" stroke:none;fill-rule:nonzero;fill:rgb(0%,0%,0%);fill-opacity:1;" d="M 141.660156 381.988281 C 128.976562 388.171875 118.546875 397.242188 110.664062 408.941406 C 101.597656 422.402344 97 437.503906 97 453.832031 C 97 467.882812 100.660156 481.515625 107.867188 494.359375 C 115.234375 507.621094 125.4375 517.617188 138.183594 524.046875 C 149.105469 529.570312 160.234375 532.375 171.265625 532.375 C 181.867188 532.375 231.382812 529.460938 232.820312 488.808594 C 232.953125 484.964844 231.851562 481.601562 229.9375 478.824219 C 227.269531 474.941406 224.085938 474.125 221.890625 474.125 C 219.492188 474.125 216.960938 475.628906 213.921875 478.859375 C 211.398438 481.617188 207.789062 483.886719 203.167969 485.648438 C 198.445312 487.441406 193.628906 488.351562 188.835938 488.351562 C 175.8125 488.351562 166.054688 482.144531 159.015625 469.375 C 153.734375 459.664062 151.054688 448.773438 151.054688 437.039062 C 151.054688 428.769531 152.816406 422.144531 156.292969 417.347656 C 159.613281 412.769531 163.980469 410.542969 169.640625 410.542969 C 175.707031 410.542969 181.644531 412.789062 187.289062 417.21875 C 189.535156 419.023438 191.476562 421.078125 193.023438 423.300781 C 194.652344 425.632812 196.832031 429.589844 199.492188 435.058594 C 201.605469 439.488281 203.8125 442.546875 206.230469 444.40625 C 208.75 446.351562 211.992188 447.339844 215.867188 447.339844 C 220.039062 447.339844 223.847656 446.074219 227.195312 443.574219 C 233.210938 439.023438 236.257812 431.898438 236.257812 422.382812 C 236.257812 409.566406 232.988281 398.636719 226.539062 389.914062 C 223.515625 385.75 219.828125 383.632812 215.585938 383.632812 L 212.109375 384.046875 C 209.105469 384.804688 207.792969 384.917969 207.273438 384.917969 C 206.875 384.917969 205.179688 384.710938 200.082031 382.03125 C 191.046875 377.273438 181.542969 374.863281 171.835938 374.863281 C 161.519531 374.863281 151.367188 377.261719 141.660156 381.988281 "/>
<path style=" stroke:none;fill-rule:nonzero;fill:rgb(100%,100%,100%);fill-opacity:1;" d="M 140.722656 519.023438 C 128.992188 513.109375 119.59375 503.886719 112.777344 491.609375 C 106.039062 479.609375 102.625 466.898438 102.625 453.828125 C 102.625 438.640625 106.898438 424.59375 115.332031 412.074219 C 122.648438 401.210938 132.339844 392.789062 144.125 387.046875 C 153.054688 382.691406 162.382812 380.484375 171.835938 380.484375 C 180.621094 380.484375 189.242188 382.679688 197.460938 387.007812 C 202.113281 389.449219 205.140625 390.539062 207.273438 390.539062 C 208.675781 390.539062 210.710938 390.195312 213.5 389.492188 C 213.515625 389.484375 215.585938 389.253906 215.585938 389.253906 C 217.960938 389.253906 220.058594 390.550781 222 393.226562 C 227.734375 400.984375 230.632812 410.789062 230.632812 422.378906 C 230.632812 430.148438 228.402344 435.605469 223.824219 439.070312 C 221.445312 440.84375 218.835938 441.710938 215.867188 441.710938 C 213.234375 441.710938 211.203125 441.132812 209.664062 439.941406 C 207.984375 438.652344 206.269531 436.1875 204.5625 432.613281 C 201.71875 426.78125 199.457031 422.6875 197.636719 420.078125 C 195.78125 417.421875 193.476562 414.976562 190.789062 412.8125 C 184.105469 407.5625 176.996094 404.917969 169.640625 404.917969 C 162.15625 404.917969 156.132812 407.988281 151.742188 414.046875 C 147.554688 419.820312 145.429688 427.558594 145.429688 437.039062 C 145.429688 449.726562 148.339844 461.515625 154.082031 472.074219 C 162.101562 486.609375 173.789062 493.976562 188.835938 493.976562 C 194.3125 493.976562 199.804688 492.945312 205.164062 490.90625 C 210.621094 488.832031 214.953125 486.070312 218.042969 482.6875 C 220.75 479.808594 221.878906 479.75 221.890625 479.75 C 222.691406 479.75 223.910156 479.984375 225.304688 482.011719 C 226.578125 483.859375 227.125 486.089844 227.195312 488.808594 C 228.101562 523.53125 180.929688 526.753906 171.257812 526.753906 C 161.128906 526.742188 150.851562 524.144531 140.722656 519.023438 "/>
<path style=" stroke:none;fill-rule:nonzero;fill:rgb(0%,0%,0%);fill-opacity:1;" d="M 348.871094 376.34375 C 340.90625 377.753906 325.359375 378.457031 302.519531 378.457031 C 288.179688 378.457031 275.726562 377.992188 265.515625 377.085938 C 265.511719 377.078125 254.085938 376.425781 254.085938 376.425781 C 249.457031 376.425781 245.476562 377.6875 242.25 380.171875 C 238.796875 382.820312 237.046875 386.214844 237.046875 390.257812 C 237.046875 393.140625 237.765625 395.453125 239.183594 397.148438 C 240.453125 398.664062 242.730469 400.199219 246.351562 401.984375 C 248.730469 403.15625 250.203125 405.242188 250.855469 408.367188 C 251.640625 412.15625 252.039062 420.78125 252.039062 434.003906 C 252.039062 464.953125 251.476562 485.019531 250.347656 493.652344 C 249.765625 498.359375 248.21875 501.203125 245.601562 502.347656 C 241.089844 504.398438 240.171875 505.023438 239.664062 505.449219 C 236.9375 508.011719 235.609375 511.257812 235.609375 515.191406 C 235.609375 518.25 236.480469 521.085938 238.199219 523.613281 C 239.9375 526.179688 242.242188 527.984375 245.042969 528.964844 C 250.382812 530.800781 259.550781 531.695312 273.09375 531.695312 C 288.222656 531.695312 300.199219 530.546875 308.691406 528.28125 C 315.683594 526.367188 319.371094 521.765625 319.371094 514.976562 C 319.371094 512.265625 318.625 509.8125 317.148438 507.699219 C 315.554688 505.425781 313.53125 504.0625 311.113281 503.648438 C 306.59375 502.890625 305.589844 502.539062 305.4375 502.476562 C 305.359375 502.445312 304.964844 502.25 304.335938 501.367188 C 303.355469 500.195312 301.414062 496.207031 301.414062 480.429688 L 301.507812 470.476562 C 301.5 470.132812 301.488281 469.808594 301.488281 469.511719 C 301.488281 466.640625 302.0625 465.914062 302.132812 465.835938 C 302.207031 465.75 302.910156 465.058594 305.859375 465.058594 C 309.09375 465.058594 311.429688 465.859375 312.992188 467.5 C 314.046875 468.570312 314.734375 469.632812 315.078125 470.699219 C 315.359375 471.582031 315.777344 473.53125 316.140625 477.78125 C 317.113281 487.378906 322.386719 488.804688 325.445312 488.804688 C 328.648438 488.804688 333.128906 487.5625 336.324219 481.660156 C 339.957031 474.980469 341.722656 465.023438 341.722656 451.226562 C 341.722656 442.808594 341.722656 417.183594 327.257812 417.183594 C 323.09375 417.183594 317.6875 419.605469 315.511719 431.128906 C 315.132812 433.15625 314.496094 434.59375 313.679688 435.292969 C 313.125 435.761719 311.917969 436.328125 309.300781 436.328125 C 304.355469 436.328125 302.714844 435.601562 302.234375 435.289062 C 301.5625 434.84375 301.21875 433.804688 301.21875 432.1875 C 301.21875 427.890625 301.554688 423.042969 302.203125 417.773438 C 302.988281 411.367188 303.703125 408.695312 304.160156 407.585938 C 304.835938 405.9375 307.507812 405.589844 309.652344 405.585938 C 320.359375 405.933594 327.714844 406.65625 331.503906 407.726562 C 334.992188 408.710938 337.898438 410.765625 340.410156 414.007812 C 346.914062 422.28125 348.757812 424.179688 349.578125 424.898438 C 351.234375 426.34375 353.558594 427.085938 356.484375 427.085938 C 360.382812 427.085938 363.691406 425.304688 366.046875 421.929688 C 368.222656 418.820312 369.328125 414.710938 369.328125 409.726562 C 369.328125 399.484375 366.328125 390.015625 360.410156 381.578125 C 357.808594 377.9375 354.882812 376.109375 351.703125 376.109375 L 348.871094 376.34375 Z M 348.871094 376.34375 "/>
<path style=" stroke:none;fill-rule:nonzero;fill:rgb(100%,100%,100%);fill-opacity:1;" d="M 351.710938 381.734375 C 353.273438 381.734375 354.808594 383.421875 355.820312 384.835938 C 361.050781 392.28125 363.707031 400.664062 363.707031 409.726562 C 363.707031 413.535156 362.945312 416.558594 361.441406 418.703125 C 360.121094 420.585938 358.550781 421.460938 356.484375 421.460938 C 354.984375 421.460938 353.875 421.179688 353.28125 420.660156 C 352.703125 420.15625 350.859375 418.195312 344.847656 410.550781 C 341.636719 406.398438 337.65625 403.617188 333.039062 402.308594 C 328.742188 401.09375 321.132812 400.328125 309.773438 399.960938 C 309.746094 399.960938 309.71875 399.960938 309.6875 399.960938 C 302.675781 399.960938 299.980469 402.945312 298.960938 405.449219 C 298.09375 407.546875 297.328125 411.359375 296.621094 417.078125 C 295.941406 422.578125 295.601562 427.65625 295.601562 432.1875 C 295.601562 436.71875 297.539062 438.9375 299.164062 439.996094 C 301.203125 441.328125 304.421875 441.953125 309.304688 441.953125 C 312.832031 441.953125 315.460938 441.171875 317.339844 439.570312 C 319.199219 437.984375 320.410156 435.5625 321.046875 432.167969 C 322.21875 425.957031 324.304688 422.808594 327.261719 422.808594 C 332.964844 422.808594 336.101562 432.898438 336.101562 451.226562 C 336.101562 463.882812 334.515625 473.21875 331.382812 478.976562 C 329.34375 482.742188 327.023438 483.171875 325.449219 483.171875 C 324.523438 483.171875 322.347656 483.171875 321.75 477.257812 C 321.410156 473.40625 320.984375 470.6875 320.433594 468.984375 C 319.824219 467.070312 318.679688 465.253906 317.035156 463.585938 C 314.421875 460.839844 310.65625 459.433594 305.863281 459.433594 C 302.117188 459.433594 299.527344 460.304688 297.933594 462.089844 C 296.382812 463.832031 295.726562 466.539062 295.890625 470.589844 C 295.890625 470.476562 295.828125 476.476562 295.828125 476.476562 L 295.796875 480.40625 C 295.796875 497.945312 298.140625 502.734375 299.898438 504.8125 C 300.839844 506.15625 302.007812 507.15625 303.324219 507.691406 C 304.027344 507.976562 305.433594 508.398438 310.171875 509.195312 C 310.734375 509.292969 311.601562 509.574219 312.539062 510.917969 C 313.351562 512.089844 313.75 513.417969 313.75 514.976562 C 313.75 519.1875 311.738281 521.621094 307.226562 522.855469 C 299.226562 524.984375 287.738281 526.070312 273.101562 526.070312 C 260.367188 526.070312 251.546875 525.257812 246.894531 523.65625 C 245.242188 523.078125 243.921875 522.03125 242.855469 520.460938 C 241.765625 518.851562 241.242188 517.132812 241.242188 515.191406 C 241.242188 512.835938 241.949219 511.019531 243.414062 509.644531 C 243.375 509.691406 244.132812 509.1875 247.898438 507.480469 C 252.386719 505.507812 255.101562 501.085938 255.933594 494.355469 C 257.085938 485.503906 257.671875 465.191406 257.671875 434.003906 C 257.671875 420.203125 257.246094 411.445312 256.367188 407.226562 C 255.355469 402.359375 252.820312 398.898438 248.84375 396.933594 C 245.007812 395.046875 243.828125 393.929688 243.5 393.535156 C 242.960938 392.890625 242.675781 391.757812 242.675781 390.257812 C 242.675781 387.992188 243.632812 386.203125 245.683594 384.628906 C 247.9375 382.890625 250.6875 382.050781 254.09375 382.050781 L 265.023438 382.6875 C 275.398438 383.609375 288.015625 384.082031 302.523438 384.082031 C 326.015625 384.082031 341.460938 383.367188 349.726562 381.898438 C 349.578125 381.921875 351.710938 381.734375 351.710938 381.734375 "/>
<path style=" stroke:none;fill-rule:nonzero;fill:rgb(0%,0%,0%);fill-opacity:1;" d="M 474.1875 297.53125 C 474.507812 297.808594 474.691406 298.160156 474.796875 298.511719 C 474.914062 298.898438 474.960938 299.304688 475 299.757812 C 475.269531 299.511719 475.464844 299.273438 475.605469 299.042969 C 475.878906 298.601562 475.972656 298.179688 475.972656 297.695312 C 475.976562 297.105469 475.8125 296.441406 475.664062 295.710938 C 475.5625 295.742188 475.464844 295.773438 475.371094 295.800781 C 475.101562 295.894531 474.902344 295.992188 474.710938 296.125 C 474.421875 296.328125 474.132812 296.65625 473.785156 297.246094 C 473.929688 297.324219 474.066406 297.417969 474.1875 297.53125 M 473.714844 301.078125 C 473.574219 299.921875 473.554688 299.082031 473.378906 298.710938 C 473.324219 298.585938 473.265625 298.507812 473.199219 298.441406 C 473.101562 298.359375 472.949219 298.273438 472.636719 298.203125 L 471.796875 298.011719 L 472.164062 297.308594 C 472.570312 296.523438 472.933594 295.957031 473.375 295.511719 C 473.804688 295.070312 474.320312 294.78125 474.882812 294.601562 C 475.257812 294.472656 475.648438 294.382812 476.089844 294.296875 L 476.84375 294.148438 L 476.945312 294.84375 C 477.070312 295.726562 477.382812 296.664062 477.386719 297.695312 C 477.390625 298.328125 477.25 299.015625 476.84375 299.667969 C 476.4375 300.332031 475.78125 300.953125 474.8125 301.539062 L 473.847656 302.128906 L 473.714844 301.078125 Z M 473.714844 301.078125 "/>
<path style=" stroke:none;fill-rule:nonzero;fill:rgb(97.647059%,94.509804%,64.705882%);fill-opacity:1;" d="M 476.242188 294.925781 C 476.554688 297.046875 477.675781 299.019531 474.414062 301.007812 C 474.164062 299.019531 474.394531 297.933594 472.804688 297.578125 C 473.851562 295.554688 474.527344 295.265625 476.242188 294.925781 "/>
<path style=" stroke:none;fill-rule:nonzero;fill:rgb(0%,0%,0%);fill-opacity:1;" d="M 456.3125 302.03125 C 456.3125 302.753906 456.515625 303.445312 457.050781 304.105469 C 457.460938 304.601562 458.078125 305.082031 458.992188 305.507812 C 458.964844 305.132812 458.945312 304.75 458.945312 304.371094 C 458.945312 303.578125 459.039062 302.765625 459.421875 301.992188 C 459.757812 301.328125 460.308594 300.707031 461.117188 300.191406 C 460.921875 299.398438 460.578125 298.941406 460.191406 298.648438 C 459.742188 298.316406 459.171875 298.171875 458.515625 298.171875 C 458.289062 298.171875 458.0625 298.1875 457.832031 298.21875 C 457.25 298.96875 456.296875 300.546875 456.3125 302.03125 M 459.53125 307.117188 C 457.832031 306.542969 456.660156 305.773438 455.917969 304.875 C 455.175781 303.980469 454.890625 302.972656 454.898438 302.03125 C 454.914062 299.890625 456.214844 298.027344 456.867188 297.246094 L 457.027344 297.050781 L 457.289062 297.007812 C 457.679688 296.933594 458.09375 296.890625 458.515625 296.890625 C 459.390625 296.882812 460.328125 297.085938 461.09375 297.660156 C 461.867188 298.234375 462.402344 299.148438 462.601562 300.394531 L 462.671875 300.816406 L 462.265625 301.035156 C 461.429688 301.5 460.992188 301.988281 460.71875 302.519531 C 460.449219 303.054688 460.355469 303.671875 460.355469 304.371094 C 460.355469 305.019531 460.4375 305.734375 460.488281 306.484375 L 460.550781 307.46875 L 459.53125 307.117188 Z M 459.53125 307.117188 "/>
<path style=" stroke:none;fill-rule:nonzero;fill:rgb(97.647059%,94.509804%,64.705882%);fill-opacity:1;" d="M 457.425781 297.632812 C 456.308594 298.96875 452.929688 304.195312 459.78125 306.523438 C 459.628906 304.214844 459.148438 301.996094 461.898438 300.488281 C 461.441406 297.664062 459.277344 297.300781 457.425781 297.632812 "/>
<path style=" stroke:none;fill-rule:nonzero;fill:rgb(0%,0%,0%);fill-opacity:1;" d="M 449.703125 290.582031 L 450.019531 290.003906 L 449.703125 290.582031 Z M 449.808594 291.070312 C 449.539062 291.34375 449.238281 291.703125 448.953125 292.113281 C 448.398438 292.9375 447.9375 293.980469 447.945312 295.03125 C 447.945312 295.6875 448.117188 296.359375 448.550781 297.035156 C 448.847656 297.496094 449.265625 297.960938 449.859375 298.417969 C 449.953125 297.625 450.113281 296.929688 450.410156 296.273438 C 450.8125 295.390625 451.460938 294.628906 452.425781 293.902344 C 452.40625 293.367188 452.324219 292.953125 452.210938 292.621094 C 452.074219 292.230469 451.894531 291.957031 451.671875 291.722656 C 451.304688 291.34375 450.777344 291.0625 450.121094 290.765625 C 450.03125 290.851562 449.921875 290.953125 449.808594 291.070312 M 450.078125 300.164062 C 448.792969 299.410156 447.894531 298.5625 447.328125 297.6875 C 446.757812 296.804688 446.523438 295.894531 446.523438 295.03125 C 446.523438 293.992188 446.851562 293.03125 447.285156 292.21875 C 447.71875 291.398438 448.265625 290.71875 448.746094 290.21875 C 449.066406 289.890625 449.355469 289.648438 449.609375 289.484375 L 449.953125 289.261719 L 450.335938 289.433594 C 450.945312 289.707031 451.59375 289.976562 452.179688 290.398438 C 452.769531 290.820312 453.28125 291.414062 453.5625 292.242188 C 453.75 292.78125 453.847656 293.421875 453.847656 294.183594 L 453.847656 294.1875 L 453.847656 294.199219 L 453.847656 294.511719 L 453.585938 294.703125 C 452.582031 295.414062 452.054688 296.03125 451.71875 296.761719 C 451.382812 297.496094 451.246094 298.402344 451.175781 299.664062 L 451.117188 300.78125 L 450.078125 300.164062 Z M 450.078125 300.164062 "/>
<path style=" stroke:none;fill-rule:nonzero;fill:rgb(97.647059%,94.509804%,64.705882%);fill-opacity:1;" d="M 450.019531 290.003906 C 448.835938 290.765625 444.140625 295.890625 450.46875 299.632812 C 450.605469 297.066406 451.03125 295.707031 453.140625 294.199219 C 453.144531 291.324219 451.683594 290.75 450.019531 290.003906 "/>
<path style=" stroke:none;fill-rule:nonzero;fill:rgb(0%,0%,0%);fill-opacity:1;" d="M 452.402344 280.1875 C 452.984375 280.523438 453.519531 280.972656 453.910156 281.546875 C 454.667969 281.332031 455.070312 281.054688 455.386719 280.722656 C 455.679688 280.414062 455.902344 280.003906 456.152344 279.5 C 455.628906 279.21875 455.15625 278.992188 454.730469 278.832031 C 454.164062 278.617188 453.691406 278.515625 453.277344 278.519531 C 452.816406 278.519531 452.417969 278.628906 451.957031 278.902344 C 451.683594 279.0625 451.390625 279.292969 451.089844 279.59375 C 451.539062 279.75 451.984375 279.941406 452.402344 280.1875 M 452.886719 282.546875 C 452.636719 282 452.203125 281.59375 451.636719 281.257812 C 451.074219 280.9375 450.386719 280.703125 449.710938 280.550781 L 448.691406 280.320312 L 449.3125 279.550781 C 449.917969 278.796875 450.515625 278.226562 451.171875 277.832031 C 451.820312 277.4375 452.539062 277.230469 453.277344 277.234375 C 453.941406 277.234375 454.601562 277.390625 455.277344 277.648438 C 455.960938 277.90625 456.664062 278.273438 457.4375 278.71875 L 457.054688 279.257812 L 457.4375 278.71875 L 457.953125 279.019531 L 457.699219 279.527344 C 457.34375 280.21875 457.050781 280.917969 456.46875 281.546875 C 455.882812 282.183594 455 282.664062 453.703125 282.925781 L 453.121094 283.046875 L 452.886719 282.546875 Z M 452.886719 282.546875 "/>
<path style=" stroke:none;fill-rule:nonzero;fill:rgb(97.647059%,94.509804%,64.705882%);fill-opacity:1;" d="M 457.054688 279.257812 C 453.886719 277.414062 452.074219 277.207031 449.882812 279.929688 C 451.332031 280.257812 452.910156 280.929688 453.539062 282.304688 C 455.953125 281.804688 456.324219 280.703125 457.054688 279.257812 "/>
<path style=" stroke:none;fill-rule:nonzero;fill:rgb(0%,0%,0%);fill-opacity:1;" d="M 418.910156 273.945312 C 419.109375 274.574219 419.210938 275.273438 419.210938 275.980469 C 419.210938 276.304688 419.1875 276.632812 419.148438 276.949219 C 419.679688 276.601562 420.035156 276.179688 420.304688 275.695312 C 420.734375 274.898438 420.875 273.882812 420.875 272.78125 C 420.875 272.328125 420.855469 271.867188 420.820312 271.398438 C 420.359375 271.324219 420 271.28125 419.726562 271.285156 C 419.492188 271.285156 419.332031 271.3125 419.214844 271.347656 C 419.097656 271.390625 419.007812 271.445312 418.898438 271.554688 C 418.710938 271.726562 418.484375 272.085938 418.238281 272.640625 C 418.539062 273.023438 418.75 273.46875 418.910156 273.945312 M 417.457031 277.9375 C 417.671875 277.347656 417.777344 276.65625 417.773438 275.980469 C 417.777344 275.386719 417.691406 274.796875 417.53125 274.304688 C 417.378906 273.820312 417.144531 273.433594 416.90625 273.222656 L 416.582031 272.929688 L 416.742188 272.539062 C 416.996094 271.929688 417.226562 271.445312 417.523438 271.039062 C 417.8125 270.640625 418.207031 270.308594 418.703125 270.140625 C 419.023438 270.03125 419.371094 269.984375 419.726562 269.984375 C 420.289062 269.984375 420.894531 270.082031 421.648438 270.230469 L 421.5 270.863281 L 421.648438 270.230469 L 422.171875 270.328125 L 422.210938 270.816406 C 422.265625 271.453125 422.308594 272.117188 422.308594 272.78125 C 422.308594 273.976562 422.167969 275.1875 421.59375 276.257812 C 421.019531 277.34375 419.96875 278.25 418.378906 278.75 L 417.023438 279.183594 L 417.457031 277.9375 Z M 417.457031 277.9375 "/>
<path style=" stroke:none;fill-rule:nonzero;fill:rgb(97.647059%,94.509804%,64.705882%);fill-opacity:1;" d="M 421.5 270.863281 C 421.734375 273.796875 421.816406 276.96875 418.144531 278.140625 C 418.796875 276.28125 418.523438 273.78125 417.417969 272.765625 C 418.320312 270.578125 418.882812 270.351562 421.5 270.863281 "/>
<path style=" stroke:none;fill-rule:nonzero;fill:rgb(0%,0%,0%);fill-opacity:1;" d="M 401.332031 275.589844 C 400.777344 276.371094 400.503906 277.296875 400.503906 278.160156 C 400.503906 279.027344 400.78125 279.828125 401.253906 280.382812 C 401.601562 280.773438 402.03125 281.050781 402.585938 281.179688 C 402.597656 279.488281 402.953125 278.226562 403.667969 277.296875 C 404.253906 276.527344 405.058594 276.03125 405.957031 275.703125 C 405.890625 275.472656 405.824219 275.253906 405.757812 275.054688 C 405.632812 274.695312 405.5 274.410156 405.347656 274.21875 C 405.242188 274.09375 405.148438 274.003906 405.015625 273.9375 C 404.847656 273.84375 404.613281 273.773438 404.222656 273.773438 C 404.101562 273.773438 403.964844 273.785156 403.820312 273.792969 C 402.691406 274.175781 401.882812 274.820312 401.332031 275.589844 M 403.320312 282.558594 C 401.960938 282.570312 400.839844 282.011719 400.125 281.175781 C 399.410156 280.347656 399.066406 279.273438 399.066406 278.160156 C 399.066406 277.050781 399.410156 275.898438 400.125 274.886719 C 400.839844 273.875 401.9375 273.015625 403.414062 272.546875 L 403.480469 272.53125 L 403.554688 272.519531 C 403.789062 272.492188 404.015625 272.476562 404.222656 272.476562 C 404.804688 272.476562 405.320312 272.585938 405.746094 272.816406 C 406.175781 273.046875 406.480469 273.375 406.699219 273.71875 C 407.125 274.417969 407.273438 275.195312 407.515625 275.941406 L 407.699219 276.554688 L 407.03125 276.738281 C 406.046875 277.011719 405.347656 277.386719 404.847656 278.03125 C 404.351562 278.679688 404.023438 279.679688 404.023438 281.253906 C 404.023438 281.453125 404.027344 281.664062 404.039062 281.878906 L 404.070312 282.558594 L 403.320312 282.558594 Z M 403.320312 282.558594 "/>
<path style=" stroke:none;fill-rule:nonzero;fill:rgb(97.647059%,94.509804%,64.705882%);fill-opacity:1;" d="M 403.652344 273.164062 C 398.367188 274.851562 398.734375 281.910156 403.320312 281.914062 C 403.132812 278.101562 404.539062 276.742188 406.820312 276.117188 C 406.296875 274.429688 406.136719 272.867188 403.652344 273.164062 "/>
<path style=" stroke:none;fill-rule:nonzero;fill:rgb(0%,0%,0%);fill-opacity:1;" d="M 397.265625 263.726562 L 397.402344 263.085938 L 397.265625 263.726562 Z M 394.875 265.503906 C 394.136719 266.332031 393.6875 267.320312 393.6875 268.257812 C 393.695312 268.867188 393.863281 269.46875 394.292969 270.058594 C 394.484375 269.691406 394.71875 269.371094 394.984375 269.085938 C 395.5 268.535156 396.117188 268.144531 396.761719 267.859375 C 397.867188 267.378906 399.023438 267.195312 399.917969 267.070312 C 400.054688 266.703125 400.113281 266.371094 400.113281 266.078125 C 400.109375 265.46875 399.878906 265.015625 399.421875 264.613281 C 398.992188 264.242188 398.335938 263.9375 397.457031 263.757812 C 396.503906 264.09375 395.566406 264.722656 394.875 265.503906 M 394.09375 271.816406 C 392.820312 270.777344 392.246094 269.496094 392.25 268.257812 C 392.257812 266.945312 392.855469 265.703125 393.753906 264.691406 C 394.652344 263.679688 395.859375 262.882812 397.167969 262.476562 L 397.351562 262.417969 L 397.539062 262.453125 C 398.707031 262.65625 399.691406 263.054688 400.414062 263.671875 C 401.132812 264.289062 401.554688 265.140625 401.546875 266.078125 C 401.546875 266.660156 401.398438 267.273438 401.101562 267.90625 L 400.945312 268.234375 L 400.554688 268.289062 C 399.84375 268.394531 398.984375 268.507812 398.171875 268.746094 C 397.359375 268.984375 396.617188 269.34375 396.078125 269.921875 C 395.722656 270.308594 395.433594 270.800781 395.277344 271.46875 L 395.019531 272.585938 L 394.09375 271.816406 Z M 394.09375 271.816406 "/>
<path style=" stroke:none;fill-rule:nonzero;fill:rgb(97.647059%,94.509804%,64.705882%);fill-opacity:1;" d="M 397.402344 263.085938 C 393.980469 264.148438 391.03125 268.402344 394.574219 271.335938 C 395.289062 268.265625 398.570312 267.925781 400.4375 267.652344 C 401.554688 265.273438 400.203125 263.574219 397.402344 263.085938 "/>
<path style=" stroke:none;fill-rule:nonzero;fill:rgb(0%,0%,0%);fill-opacity:1;" d="M 405.449219 257.40625 C 405.90625 257.40625 406.246094 257.347656 406.503906 257.25 C 406.761719 257.152344 406.949219 257.027344 407.125 256.839844 C 407.441406 256.5 407.691406 255.90625 407.882812 255.0625 C 407.324219 254.355469 406.722656 253.757812 406.085938 253.335938 C 405.382812 252.875 404.652344 252.621094 403.820312 252.617188 C 403.066406 252.617188 402.1875 252.832031 401.15625 253.382812 C 402.15625 253.796875 402.921875 254.394531 403.492188 255.035156 C 404.199219 255.820312 404.644531 256.679688 405.003906 257.386719 C 405.164062 257.402344 405.3125 257.40625 405.449219 257.40625 M 404.421875 258.636719 L 404.027344 258.589844 L 403.867188 258.265625 C 403.472656 257.476562 403.042969 256.59375 402.378906 255.855469 C 401.710938 255.117188 400.835938 254.511719 399.414062 254.222656 L 397.925781 253.929688 L 399.121094 253.082031 C 400.820312 251.878906 402.378906 251.324219 403.820312 251.324219 C 404.996094 251.320312 406.050781 251.699219 406.933594 252.289062 C 407.828125 252.882812 408.574219 253.671875 409.234375 254.550781 L 408.640625 254.917969 L 409.234375 254.550781 L 409.398438 254.769531 L 409.34375 255.03125 C 409.183594 255.828125 408.984375 256.523438 408.636719 257.113281 C 408.289062 257.703125 407.757812 258.199219 407.046875 258.453125 C 406.570312 258.628906 406.039062 258.707031 405.449219 258.707031 C 405.132812 258.707031 404.789062 258.679688 404.421875 258.636719 "/>
<path style=" stroke:none;fill-rule:nonzero;fill:rgb(97.647059%,94.509804%,64.705882%);fill-opacity:1;" d="M 408.640625 254.917969 C 406.605469 252.210938 403.828125 250.570312 399.566406 253.589844 C 402.734375 254.21875 403.730469 256.4375 404.523438 257.992188 C 407.347656 258.335938 408.171875 257.242188 408.640625 254.917969 "/>
<path style=" stroke:none;fill-rule:nonzero;fill:rgb(0%,0%,0%);fill-opacity:1;" d="M 405.433594 193.378906 C 405.878906 194.46875 406.429688 195.316406 407.195312 195.796875 C 407.714844 196.117188 408.339844 196.3125 409.25 196.320312 C 409.535156 196.320312 409.851562 196.292969 410.203125 196.25 C 409.90625 195.585938 409.78125 194.945312 409.78125 194.351562 C 409.78125 193.472656 410.054688 192.710938 410.386719 192.109375 C 410.554688 191.804688 410.742188 191.542969 410.921875 191.320312 C 410.546875 191.046875 410.09375 190.84375 409.566406 190.699219 C 408.8125 190.492188 407.925781 190.414062 407.023438 190.414062 C 406.167969 190.414062 405.304688 190.484375 404.5 190.550781 C 404.804688 191.542969 405.082031 192.523438 405.433594 193.378906 M 406.328125 196.921875 C 405.550781 196.4375 404.996094 195.761719 404.566406 195.019531 C 403.71875 193.535156 403.324219 191.738281 402.789062 190.148438 L 402.519531 189.339844 L 403.445312 189.261719 C 404.449219 189.179688 405.71875 189.042969 407.023438 189.039062 C 408.015625 189.042969 409.042969 189.121094 410 189.378906 C 410.960938 189.640625 411.871094 190.097656 412.542969 190.855469 L 412.96875 191.332031 L 412.492188 191.773438 C 412.304688 191.945312 411.992188 192.285156 411.75 192.730469 C 411.492188 193.179688 411.304688 193.730469 411.304688 194.351562 C 411.304688 194.953125 411.476562 195.621094 411.984375 196.386719 L 412.507812 197.183594 L 411.519531 197.40625 C 410.683594 197.597656 409.929688 197.691406 409.25 197.691406 L 409.226562 197.691406 C 408.082031 197.691406 407.101562 197.414062 406.328125 196.921875 "/>
<path style=" stroke:none;fill-rule:nonzero;fill:rgb(97.647059%,94.509804%,64.705882%);fill-opacity:1;" d="M 403.515625 189.945312 C 404.765625 193.695312 405.257812 198.132812 411.328125 196.742188 C 409.554688 194.082031 411.234375 191.9375 411.949219 191.285156 C 410.113281 189.21875 406.078125 189.726562 403.515625 189.945312 "/>
<path style=" stroke:none;fill-rule:nonzero;fill:rgb(0%,0%,0%);fill-opacity:1;" d="M 421.078125 187.40625 C 421.28125 187.613281 421.386719 187.847656 421.464844 188.082031 C 421.621094 188.550781 421.65625 189.070312 421.65625 189.671875 C 421.65625 190.199219 421.625 190.777344 421.585938 191.390625 C 423.066406 190.992188 424.007812 190.421875 424.605469 189.808594 C 425.3125 189.070312 425.566406 188.242188 425.570312 187.378906 C 425.578125 186.191406 425.035156 184.96875 424.546875 184.28125 C 424.472656 184.175781 424.398438 184.082031 424.335938 184.007812 C 423.796875 184.042969 423.382812 184.132812 423.054688 184.253906 C 422.664062 184.410156 422.390625 184.601562 422.140625 184.886719 C 421.695312 185.382812 421.363281 186.207031 421.011719 187.339844 C 421.035156 187.359375 421.058594 187.382812 421.078125 187.40625 M 420.003906 192.246094 C 420.0625 191.285156 420.136719 190.386719 420.136719 189.671875 C 420.140625 189.058594 420.070312 188.574219 419.980469 188.390625 C 419.964844 188.359375 419.953125 188.339844 419.945312 188.324219 L 419.179688 188.199219 L 419.394531 187.476562 C 419.707031 186.421875 419.992188 185.523438 420.433594 184.75 C 420.875 183.984375 421.527344 183.339844 422.464844 182.988281 C 423.085938 182.75 423.804688 182.636719 424.644531 182.617188 L 424.957031 182.613281 L 425.179688 182.804688 C 425.410156 183 425.617188 183.242188 425.828125 183.539062 C 426.039062 183.835938 426.246094 184.195312 426.4375 184.589844 C 426.800781 185.382812 427.089844 186.347656 427.09375 187.378906 C 427.09375 188.496094 426.734375 189.703125 425.742188 190.71875 C 424.761719 191.734375 423.199219 192.523438 420.921875 192.960938 L 419.945312 193.144531 L 420.003906 192.246094 Z M 420.003906 192.246094 "/>
<path style=" stroke:none;fill-rule:nonzero;fill:rgb(97.647059%,94.509804%,64.705882%);fill-opacity:1;" d="M 420.132812 187.65625 C 421.132812 187.820312 420.917969 189.875 420.761719 192.285156 C 429.097656 190.695312 425.96875 184.414062 424.664062 183.304688 C 421.5625 183.375 420.957031 184.863281 420.132812 187.65625 "/>
<path style=" stroke:none;fill-rule:nonzero;fill:rgb(0%,0%,0%);fill-opacity:1;" d="M 394.804688 176.136719 C 393.941406 176.523438 393.320312 177.089844 392.90625 178.121094 C 392.648438 178.773438 392.484375 179.625 392.476562 180.703125 C 393.925781 180.160156 395.21875 179.835938 396.363281 179.828125 C 396.957031 179.828125 397.515625 179.921875 398.015625 180.152344 C 398.21875 180.238281 398.40625 180.355469 398.578125 180.488281 C 398.597656 180.4375 398.625 180.386719 398.636719 180.328125 C 398.804688 179.835938 398.910156 179.109375 398.90625 178.382812 C 398.90625 177.867188 398.859375 177.34375 398.753906 176.882812 C 398.652344 176.429688 398.496094 176.046875 398.324219 175.804688 C 398.261719 175.710938 398.199219 175.648438 398.144531 175.601562 C 396.796875 175.601562 395.660156 175.757812 394.804688 176.136719 M 391.738281 181.753906 L 392.5 181.714844 L 391.738281 181.753906 Z M 390.980469 181.789062 C 390.960938 181.46875 390.953125 181.167969 390.953125 180.875 C 390.953125 178.96875 391.34375 177.53125 392.128906 176.46875 C 392.910156 175.398438 394.085938 174.785156 395.390625 174.492188 C 396.265625 174.292969 397.207031 174.222656 398.199219 174.222656 C 398.265625 174.222656 398.328125 174.222656 398.394531 174.222656 L 398.585938 174.226562 L 398.75 174.3125 C 399.121094 174.492188 399.394531 174.765625 399.609375 175.0625 C 399.820312 175.367188 399.976562 175.703125 400.09375 176.058594 C 400.328125 176.777344 400.429688 177.585938 400.429688 178.382812 C 400.429688 178.9375 400.382812 179.484375 400.28125 179.980469 C 400.191406 180.476562 400.054688 180.929688 399.84375 181.3125 C 399.703125 181.570312 399.53125 181.8125 399.25 182 C 399.085938 182.109375 398.871094 182.195312 398.640625 182.222656 L 398.128906 182.28125 L 397.882812 181.871094 C 397.734375 181.625 397.570312 181.484375 397.335938 181.375 C 397.101562 181.273438 396.78125 181.207031 396.363281 181.207031 C 395.359375 181.203125 393.84375 181.609375 392.0625 182.375 L 391.039062 182.808594 L 390.980469 181.789062 Z M 390.980469 181.789062 "/>
<path style=" stroke:none;fill-rule:nonzero;fill:rgb(97.647059%,94.509804%,64.705882%);fill-opacity:1;" d="M 391.738281 181.753906 C 395.101562 180.320312 397.617188 179.984375 398.550781 181.542969 C 399.890625 181.390625 400.238281 175.828125 398.382812 174.914062 C 394.253906 174.875 391.402344 176.054688 391.738281 181.753906 "/>
<path style=" stroke:none;fill-rule:nonzero;fill:rgb(0%,0%,0%);fill-opacity:1;" d="M 405.109375 167.976562 C 405.789062 167.976562 406.425781 167.75 406.917969 167.378906 C 407.347656 167.054688 407.65625 166.625 407.78125 166.171875 C 407.347656 165.304688 406.921875 164.585938 406.386719 164.109375 C 405.800781 163.609375 405.109375 163.300781 403.820312 163.289062 C 403.167969 163.289062 402.382812 163.378906 401.425781 163.585938 C 401.871094 164.148438 402.285156 164.585938 402.664062 165.09375 C 403.15625 165.738281 403.523438 166.515625 403.636719 167.617188 C 404.148438 167.875 404.644531 167.976562 405.109375 167.976562 M 402.476562 168.585938 L 402.167969 168.390625 L 402.148438 168.050781 C 402.074219 166.9375 401.820312 166.445312 401.402344 165.863281 C 400.976562 165.28125 400.304688 164.628906 399.566406 163.511719 L 399.066406 162.75 L 400.007812 162.5 C 401.519531 162.105469 402.757812 161.914062 403.820312 161.914062 C 405.398438 161.90625 406.605469 162.375 407.453125 163.128906 C 408.289062 163.882812 408.785156 164.835938 409.265625 165.816406 L 409.359375 166 L 409.328125 166.195312 C 409.175781 167.085938 408.640625 167.867188 407.894531 168.433594 C 407.148438 169 406.171875 169.355469 405.109375 169.355469 L 405.101562 169.355469 C 404.238281 169.355469 403.324219 169.109375 402.476562 168.585938 "/>
<path style=" stroke:none;fill-rule:nonzero;fill:rgb(97.647059%,94.509804%,64.705882%);fill-opacity:1;" d="M 400.21875 163.164062 C 401.609375 165.28125 402.769531 165.605469 402.90625 168.011719 C 405.425781 169.578125 408.238281 168.078125 408.574219 166.09375 C 407.304688 163.507812 406.074219 161.617188 400.21875 163.164062 "/>
<path style=" stroke:none;fill-rule:nonzero;fill:rgb(0%,0%,0%);fill-opacity:1;" d="M 407.976562 83.273438 C 408.585938 83.273438 409.105469 83.105469 409.601562 82.84375 C 409.953125 82.652344 410.277344 82.414062 410.582031 82.152344 C 410.304688 81.546875 410.09375 81.023438 409.835938 80.632812 C 409.511719 80.152344 409.199219 79.859375 408.515625 79.632812 C 408.0625 79.488281 407.417969 79.390625 406.519531 79.390625 C 405.984375 79.390625 405.371094 79.421875 404.652344 79.492188 C 404.980469 79.789062 405.277344 80.046875 405.554688 80.3125 C 406.085938 80.804688 406.554688 81.320312 406.84375 82.011719 C 406.992188 82.359375 407.089844 82.734375 407.148438 83.167969 C 407.445312 83.238281 407.71875 83.273438 407.976562 83.273438 M 407.976562 84.570312 C 407.421875 84.570312 406.828125 84.472656 406.210938 84.257812 L 405.773438 84.105469 L 405.746094 83.6875 C 405.71875 83.164062 405.628906 82.789062 405.5 82.480469 C 405.371094 82.167969 405.195312 81.917969 404.945312 81.644531 C 404.453125 81.09375 403.640625 80.484375 402.632812 79.445312 L 401.761719 78.554688 L 403.0625 78.375 C 404.445312 78.179688 405.570312 78.085938 406.519531 78.085938 C 408.023438 78.085938 409.09375 78.320312 409.886719 78.804688 C 410.695312 79.28125 411.125 79.96875 411.449219 80.644531 C 411.675781 81.097656 411.859375 81.566406 412.09375 82.039062 L 412.289062 82.441406 L 411.953125 82.753906 C 411.519531 83.164062 410.992188 83.609375 410.332031 83.960938 C 409.683594 84.316406 408.886719 84.570312 407.984375 84.570312 L 407.976562 84.570312 Z M 407.976562 84.570312 "/>
<path style=" stroke:none;fill-rule:nonzero;fill:rgb(97.647059%,94.509804%,64.705882%);fill-opacity:1;" d="M 403.171875 79.019531 C 405.125 81.023438 406.335938 81.367188 406.46875 83.652344 C 408.765625 84.449219 410.359375 83.316406 411.4375 82.304688 C 410.234375 79.851562 410.308594 78.023438 403.171875 79.019531 "/>
<path style=" stroke:none;fill-rule:nonzero;fill:rgb(0%,0%,0%);fill-opacity:1;" d="M 420.746094 78.726562 L 421.140625 78.179688 L 420.746094 78.726562 Z M 421.21875 85.390625 C 421.578125 85.894531 421.949219 86.230469 422.351562 86.414062 C 422.621094 86.542969 422.910156 86.605469 423.273438 86.609375 C 423.65625 86.609375 424.136719 86.523438 424.710938 86.3125 C 425.09375 85.425781 425.425781 84.625 425.421875 83.851562 C 425.414062 83.195312 425.214844 82.519531 424.53125 81.675781 C 423.984375 81.007812 423.125 80.25 421.820312 79.394531 C 421.804688 79.917969 421.78125 80.421875 421.738281 80.890625 C 421.664062 81.710938 421.554688 82.429688 421.292969 83.042969 C 421.125 83.4375 420.878906 83.804688 420.484375 84.066406 C 420.71875 84.574219 420.960938 85.023438 421.21875 85.390625 M 421.695312 87.578125 C 421.226562 87.359375 420.824219 87.046875 420.484375 86.679688 C 419.800781 85.945312 419.320312 85.003906 418.886719 83.945312 L 418.570312 83.179688 L 419.460938 83.070312 C 419.535156 83.0625 419.578125 83.046875 419.628906 83.011719 C 419.683594 82.984375 419.742188 82.929688 419.804688 82.835938 C 419.9375 82.65625 420.070312 82.3125 420.160156 81.859375 C 420.347656 80.953125 420.382812 79.625 420.421875 78.164062 L 420.453125 76.996094 L 421.53125 77.636719 C 423.539062 78.820312 424.851562 79.878906 425.6875 80.898438 C 426.527344 81.914062 426.867188 82.921875 426.859375 83.851562 C 426.851562 85.054688 426.351562 86.078125 425.941406 87.039062 L 425.835938 87.289062 L 425.566406 87.398438 C 424.734375 87.738281 423.980469 87.910156 423.273438 87.910156 L 423.265625 87.910156 C 422.695312 87.910156 422.164062 87.792969 421.695312 87.578125 "/>
<path style=" stroke:none;fill-rule:nonzero;fill:rgb(97.647059%,94.509804%,64.705882%);fill-opacity:1;" d="M 421.140625 78.179688 C 421.058594 81.101562 421.023438 83.539062 419.5625 83.714844 C 420.664062 86.410156 422.039062 88.128906 425.273438 86.804688 C 426.347656 84.304688 427.585938 81.988281 421.140625 78.179688 "/>
<path style=" stroke:none;fill-rule:nonzero;fill:rgb(0%,0%,0%);fill-opacity:1;" d="M 397.324219 92.335938 C 398.109375 92.671875 398.796875 93.160156 399.28125 93.789062 C 399.371094 93.664062 399.460938 93.492188 399.546875 93.28125 C 399.800781 92.664062 399.964844 91.761719 399.964844 90.863281 C 399.964844 90.230469 399.882812 89.589844 399.71875 89.046875 C 398.664062 88.890625 397.625 88.652344 396.6875 88.65625 C 395.828125 88.664062 395.09375 88.824219 394.34375 89.382812 C 393.757812 89.824219 393.15625 90.554688 392.59375 91.722656 C 392.984375 91.683594 393.375 91.664062 393.757812 91.664062 C 395.046875 91.671875 396.28125 91.882812 397.324219 92.335938 M 399.019531 95.351562 L 399.019531 95.351562 L 399.015625 95.351562 L 398.535156 95.351562 L 398.351562 94.953125 C 398.066406 94.339844 397.507812 93.859375 396.703125 93.507812 C 395.902344 93.160156 394.867188 92.96875 393.757812 92.96875 C 393.066406 92.96875 392.34375 93.042969 391.632812 93.1875 L 391.46875 92.554688 L 391.632812 93.1875 L 390.371094 93.453125 L 390.789062 92.34375 C 391.519531 90.414062 392.390625 89.164062 393.421875 88.382812 C 394.449219 87.601562 395.617188 87.347656 396.6875 87.359375 C 398.042969 87.359375 399.300781 87.699219 400.359375 87.816406 L 400.789062 87.871094 L 400.941406 88.238281 C 401.269531 89.042969 401.402344 89.960938 401.402344 90.863281 C 401.402344 91.546875 401.328125 92.21875 401.1875 92.828125 C 401.035156 93.441406 400.828125 93.988281 400.527344 94.445312 C 400.320312 94.742188 400.078125 95.003906 399.71875 95.1875 C 399.515625 95.289062 399.273438 95.351562 399.023438 95.351562 L 399.019531 95.351562 Z M 399.019531 95.351562 "/>
<path style=" stroke:none;fill-rule:nonzero;fill:rgb(97.647059%,94.509804%,64.705882%);fill-opacity:1;" d="M 391.46875 92.554688 C 394.703125 91.882812 398.066406 92.648438 399.015625 94.695312 C 400.4375 94.707031 401.214844 90.78125 400.269531 88.46875 C 397.324219 88.125 393.757812 86.484375 391.46875 92.554688 "/>
<path style=" stroke:none;fill-rule:nonzero;fill:rgb(0%,0%,0%);fill-opacity:1;" d="M 397.597656 107.285156 C 398.617188 107.960938 399.6875 108.148438 400.816406 108.15625 C 401.421875 108.15625 402.03125 108.09375 402.632812 108.027344 C 402.796875 107.535156 402.867188 107.078125 402.867188 106.671875 C 402.867188 105.800781 402.5625 105.070312 402.144531 104.445312 C 401.910156 104.097656 401.636719 103.785156 401.367188 103.511719 C 401.085938 103.8125 400.738281 104.046875 400.355469 104.214844 C 399.683594 104.511719 398.929688 104.609375 398.140625 104.609375 C 397.222656 104.609375 396.230469 104.472656 395.210938 104.292969 C 395.9375 105.8125 396.765625 106.726562 397.597656 107.285156 M 396.742188 108.328125 C 395.421875 107.445312 394.265625 105.960938 393.378906 103.609375 L 394.0625 103.398438 L 393.378906 103.609375 L 392.964844 102.503906 L 394.222656 102.765625 C 395.671875 103.066406 397.050781 103.3125 398.140625 103.304688 C 398.792969 103.3125 399.335938 103.21875 399.722656 103.046875 C 400.109375 102.867188 400.371094 102.636719 400.578125 102.207031 L 400.980469 101.328125 L 401.742188 101.988281 C 402.210938 102.402344 402.851562 102.992188 403.375 103.765625 C 403.898438 104.539062 404.304688 105.515625 404.304688 106.671875 C 404.304688 107.34375 404.164062 108.078125 403.835938 108.851562 L 403.6875 109.21875 L 403.257812 109.265625 C 402.523438 109.355469 401.695312 109.453125 400.816406 109.453125 L 400.789062 109.453125 C 399.492188 109.453125 398.054688 109.214844 396.742188 108.328125 "/>
<path style=" stroke:none;fill-rule:nonzero;fill:rgb(97.647059%,94.509804%,64.705882%);fill-opacity:1;" d="M 394.0625 103.398438 C 397.296875 104.066406 400.292969 104.511719 401.242188 102.460938 C 402.425781 103.496094 404.472656 105.511719 403.167969 108.625 C 400.226562 108.964844 396.351562 109.46875 394.0625 103.398438 "/>
<path style=" stroke:none;fill-rule:nonzero;fill:rgb(0%,0%,0%);fill-opacity:1;" d="M 489.226562 243.390625 C 487.855469 235.410156 483.675781 231.605469 481.890625 229.527344 C 484.476562 223.355469 487.0625 218.148438 486.761719 211.023438 C 499.3125 211.332031 499.59375 208.730469 501.738281 207.425781 C 504.835938 201.097656 504.097656 197.972656 503.261719 193.011719 C 500.878906 190.476562 497.9375 186.753906 495.65625 184.546875 C 492.964844 179.921875 493.203125 176 498.183594 171.023438 C 490.785156 171.117188 489.851562 176.363281 489.898438 177.308594 C 489.414062 180.070312 492.070312 181.757812 490.699219 182.597656 C 488.65625 181.214844 484.378906 178.03125 482.015625 173.945312 C 479.433594 168.707031 479.785156 168.46875 479.691406 167.054688 C 479.691406 167.054688 479.132812 160.347656 484.550781 156.78125 C 485.609375 155.78125 495.148438 157.378906 497.320312 145.945312 C 498.433594 140.097656 495.875 137.617188 495.875 137.617188 C 496.09375 132.183594 498.570312 131.976562 500.152344 130.835938 C 495.75 125.734375 492.328125 129.5625 490.503906 131.34375 C 488.574219 133.871094 487.835938 131.832031 489.726562 129.488281 C 491.71875 127.210938 493.757812 125.507812 496.875 123.402344 C 497.105469 123.246094 497.617188 122.625 497.640625 122.367188 C 497.886719 119.863281 496.792969 118.703125 495.554688 117.648438 C 494.332031 116.597656 493.257812 115.796875 492.914062 113.703125 C 492.789062 111.683594 494.195312 110.117188 495.566406 108.480469 C 496.253906 107.660156 496.9375 106.839844 497.261719 105.855469 C 497.585938 104.867188 497.414062 103.679688 496.539062 102.660156 C 496.390625 102.484375 496.179688 102.363281 495.9375 102.320312 L 491.683594 101.554688 C 489.59375 100.546875 488.691406 99.144531 488.453125 97.675781 C 488.207031 96.175781 488.726562 94.578125 489.652344 93.445312 C 490.582031 92.320312 491.816406 91.703125 493.085938 91.851562 C 494.355469 91.996094 495.921875 92.9375 497.390625 95.578125 C 497.5625 95.882812 497.90625 96.078125 498.285156 96.085938 C 499.78125 96.097656 500.914062 95.875 501.664062 95.15625 C 502.417969 94.4375 502.597656 93.550781 502.859375 92.492188 C 502.988281 91.992188 502.648438 91.503906 502.101562 91.390625 C 501.554688 91.28125 501.011719 91.585938 500.882812 92.078125 C 500.621094 93.125 500.398438 93.695312 500.191406 93.898438 C 500.015625 94.0625 499.691406 94.195312 498.886719 94.234375 C 497.296875 91.625 495.351562 90.265625 493.34375 90.035156 C 493.082031 90 492.816406 89.992188 492.554688 90 C 490.734375 90.054688 489.117188 91.023438 488.023438 92.351562 C 486.773438 93.871094 486.113281 95.90625 486.445312 97.945312 C 486.773438 99.980469 488.179688 101.988281 490.859375 103.238281 C 490.945312 103.277344 491.035156 103.304688 491.128906 103.324219 L 495.125 104.046875 C 495.464844 104.53125 495.46875 104.867188 495.316406 105.328125 C 495.140625 105.875 494.617188 106.578125 493.949219 107.375 C 492.613281 108.964844 490.6875 111.011719 490.894531 113.851562 C 490.894531 113.875 490.894531 113.902344 490.898438 113.921875 C 491.320312 116.585938 492.964844 117.953125 494.160156 118.980469 C 495.273438 119.925781 495.683594 120.34375 495.632812 121.949219 C 492.679688 123.941406 490.257812 125.921875 488.132812 128.34375 C 487.273438 129.332031 486.523438 130.410156 485.894531 131.625 C 485.605469 130.503906 485.375 128.964844 485.804688 125.097656 C 485.855469 124.515625 485.394531 124.109375 484.78125 124.070312 C 484.257812 124.082031 483.828125 124.445312 483.789062 124.914062 C 483.335938 128.992188 483.597656 130.84375 483.941406 132.128906 C 484.265625 133.375 484.578125 133.863281 484.417969 135.695312 C 484.304688 136.210938 484.203125 136.742188 484.121094 137.300781 L 482.882812 138.109375 C 476.921875 139.507812 476.585938 142.964844 476.410156 145.859375 C 476.269531 148.246094 477.835938 150.023438 479.023438 151.8125 C 479.921875 153.164062 480.304688 153.851562 480.601562 156.1875 C 476.25 161.503906 473.753906 167.363281 478.492188 173.445312 C 482.71875 178.96875 485.539062 183.277344 490.542969 184.371094 C 490.5625 185.335938 490.761719 186.527344 491.332031 188.117188 C 489.003906 188.476562 487.992188 190.253906 488.085938 192.703125 C 488.03125 193.960938 489.570312 194.8125 490.058594 193.902344 C 490.140625 191.921875 489.765625 189.902344 493.316406 191.742188 C 497.914062 194.765625 499.253906 196.984375 497.128906 204.457031 C 491.207031 208.117188 484.457031 202.625 482.773438 202.273438 C 475.554688 194.5 473.875 191.488281 469.734375 181.117188 C 468.625 177.429688 471.503906 165.546875 469.570312 160.902344 C 467.742188 157.992188 467.210938 157.652344 465.890625 156.3125 C 465.585938 156.011719 465.460938 155.425781 465.914062 154.476562 C 467.144531 151.929688 472.285156 156.414062 473.902344 154.601562 C 475.476562 153.808594 473.210938 151.464844 471.492188 147.859375 C 469.160156 137.914062 471.484375 133.140625 479.640625 131.34375 C 479.234375 129.421875 476.597656 126.3125 475.5625 124.554688 L 480.445312 124.726562 C 481.097656 120.179688 479.335938 118.414062 478.007812 115.921875 C 481.71875 108.445312 481.421875 104.085938 475.140625 96.609375 C 475.601562 94.601562 479.820312 95.773438 483.21875 90.257812 C 478.589844 90.191406 478.132812 86.519531 473.507812 85.5 C 473.8125 84.417969 476.351562 83.625 476.226562 81.28125 C 468.769531 83.796875 464.136719 80.476562 454.566406 80.5625 C 448.519531 82.375 448.183594 83.535156 448.769531 87.164062 C 439.570312 86.605469 442.949219 88.535156 442.910156 90.101562 C 439.449219 90.148438 439.3125 94.394531 441.648438 95.890625 C 442.386719 96.359375 442.691406 98.179688 443.363281 98.597656 C 444.003906 98.992188 445.527344 98.015625 447.597656 98.085938 C 456.894531 98.390625 458.015625 107.972656 458.085938 109.992188 C 454.367188 110.84375 454.003906 111.507812 449.664062 108.875 C 446.726562 107.09375 447.269531 109.957031 446.601562 110.867188 C 445.414062 112.476562 445.789062 113.378906 447.148438 113.886719 C 453.78125 116.367188 449.6875 119.964844 444.335938 120.058594 C 437.226562 118.882812 435.566406 114.585938 434.289062 111.75 C 430.921875 115.4375 434.210938 116.15625 433.433594 120.59375 C 433.066406 120.65625 432.742188 120.589844 432.4375 120.484375 C 432.074219 117.1875 421.3125 105.761719 418.34375 102.441406 C 415.90625 97.578125 417.738281 94.664062 420.78125 91.6875 C 422.464844 90.164062 426.65625 93.398438 425.875 86.484375 C 423 87.796875 420.410156 86.945312 418.570312 83.375 C 415.972656 86.503906 418.773438 90.1875 415.460938 92.664062 C 411.070312 89.25 418.328125 87.015625 411.929688 81.65625 C 410.074219 83.390625 408.023438 83.40625 405.929688 82.695312 C 403.183594 88.59375 413.429688 89.15625 408.210938 94.296875 C 407.378906 90.65625 404.875 86.253906 399.617188 87.578125 C 400.5625 90.03125 400.175781 95.347656 398.335938 95.164062 C 399.84375 97.109375 405.304688 96.929688 404.585938 99.226562 C 404.375 100.28125 400.933594 100.78125 400.757812 102.125 C 403.796875 105.097656 404.097656 106.671875 403.046875 109.15625 C 405.867188 109.078125 407.261719 105.867188 408.890625 105.898438 C 411.9375 107.898438 411.675781 110.492188 411.089844 112.269531 C 410.25 113.695312 406.609375 112.484375 406.773438 113.519531 C 406.875 115.78125 412.828125 116.683594 413.519531 119.070312 C 412.246094 120.214844 412.523438 121.71875 410.335938 121.679688 C 411.132812 125.476562 415.082031 125.210938 416.5625 130.429688 C 416.621094 130.644531 417.476562 131.828125 418.601562 133.316406 C 417.867188 132.832031 417.148438 132.261719 416.449219 131.742188 L 415.859375 135.953125 C 411.078125 135.292969 411.136719 133.0625 408.667969 132.203125 C 407.703125 136.171875 412.011719 139.097656 410.761719 139.804688 C 404.136719 143.070312 403.558594 135.628906 402.714844 131.359375 C 402.703125 130.386719 401.292969 130.550781 400.816406 131.367188 C 394.984375 141.324219 405.082031 144.8125 404.382812 147.40625 C 401.753906 149.90625 398.757812 152.210938 400.820312 154.90625 C 403.921875 152.34375 403.40625 150.628906 407.300781 152.3125 C 412.632812 159.429688 423.910156 155.160156 424.980469 159.535156 C 425.582031 159.851562 426.585938 159.929688 426.164062 160.472656 C 413.476562 161.554688 420 169.671875 414.746094 170.75 C 412.328125 171.078125 411.5625 165.25 408.625 165.464844 C 407.445312 167.660156 405.210938 169.085938 402.339844 167.578125 C 400.863281 173.417969 411.308594 174.511719 408.71875 176.179688 C 404.570312 177.789062 401.816406 170.738281 397.949219 174.46875 C 400.605469 175.671875 399.125 179.984375 397.976562 182.125 L 406.699219 181.089844 C 407.074219 184.53125 402.734375 185.484375 402.714844 190.171875 C 406.710938 190.039062 409.613281 189.515625 412.496094 192.027344 C 413.144531 189.433594 413.53125 184.757812 414.695312 184.199219 C 416.148438 183.675781 419.535156 187.765625 420.003906 188.242188 C 420.527344 185.085938 423.109375 183.273438 425.542969 183.460938 C 425.796875 181.34375 421.597656 180.867188 421.46875 179.734375 C 421.242188 178.21875 423.363281 178.140625 426.386719 177.691406 C 428.792969 177.171875 424.71875 174.046875 431.1875 174.820312 C 431.449219 174.847656 433.558594 175.984375 433.324219 174.320312 C 433.003906 173.140625 433.789062 170.242188 435.292969 172.414062 C 436.484375 174.125 436.4375 176.382812 434.882812 179.367188 C 434.703125 179.71875 434.851562 180.625 435.265625 180.78125 C 442.972656 183.695312 445.609375 184.222656 452.890625 189.367188 C 454.273438 190.34375 455.511719 191.460938 456.972656 193.0625 C 456.957031 193.085938 456.933594 193.089844 456.914062 193.121094 C 456.4375 194.640625 452.132812 202.257812 448.085938 203.980469 C 426.402344 199.21875 419.695312 210.078125 416.382812 217.875 C 405.9375 219.765625 405.328125 214.070312 400.320312 213.882812 C 397.1875 213.421875 394.617188 215.140625 399.433594 215.125 C 401.660156 215.449219 403.945312 221.640625 407.390625 222.769531 C 409.765625 224.175781 412.777344 223.675781 415.46875 224.136719 C 418.226562 237.046875 430.65625 227.738281 434.261719 239.261719 C 432.621094 241.949219 425.957031 244.421875 421.097656 251.023438 L 414.902344 259.9375 C 410.242188 261.304688 412.023438 256.101562 408 253.15625 C 406.648438 257.773438 404.707031 257.039062 402.816406 256.984375 C 403.226562 258.953125 406.164062 259.851562 405.882812 262.203125 C 401.363281 261.671875 397.558594 260.878906 396.582031 262.96875 C 399.535156 264.0625 400.410156 264.769531 399.664062 268.648438 C 401.867188 268.046875 403.804688 266.695312 405.640625 265.292969 C 404.960938 268.949219 401.503906 271.113281 402.34375 273.742188 C 405.152344 273.285156 405.425781 274.773438 406.03125 277.007812 C 412.640625 276.835938 408.476562 268.484375 412.054688 268.742188 L 413.59375 268.675781 C 415.683594 269.058594 415.53125 273.523438 417.890625 273.59375 C 418.945312 270.976562 419.453125 270.679688 422.34375 271.445312 C 424.109375 269.121094 420.628906 268.050781 419.773438 266.351562 L 423.203125 265.632812 C 424.644531 266.046875 426.960938 269.65625 427.378906 263.394531 L 429.664062 263.589844 C 431.765625 270.757812 431.910156 262.367188 433.433594 260.820312 C 434.023438 256.996094 434.8125 257.847656 435.59375 256.855469 C 438.285156 257.5 437.695312 260.820312 439.015625 260.640625 C 440.28125 260.660156 439.21875 259.449219 440.816406 257.367188 C 441.882812 256.140625 442.875 253.554688 444.019531 253.691406 C 446.949219 254.71875 449.195312 258.710938 450.15625 257.050781 C 450.351562 260.453125 450.71875 262.035156 449.125 266.632812 C 447.847656 270.320312 446.085938 273.714844 443.007812 276.429688 C 442.359375 276.78125 438.09375 276.21875 436.6875 274.144531 C 436.410156 273.734375 438.574219 272.789062 437.613281 272.007812 C 436.40625 271.019531 433.640625 273.824219 435.75 275.976562 C 436.65625 276.898438 437.910156 277.828125 440.566406 278.261719 C 438.265625 279.589844 435.628906 280.164062 432.742188 280.203125 C 429.171875 280.34375 425.347656 279.953125 421.6875 280.738281 C 421.664062 280.742188 421.636719 280.746094 421.609375 280.757812 C 420.058594 281.25 418.375 281.695312 417.832031 282.609375 C 417.296875 283.523438 417.285156 284.535156 417.582031 285.421875 C 417.796875 286.046875 418.8125 286.9375 419.277344 287.417969 C 414.878906 287.96875 411.109375 290.453125 408.277344 293.65625 C 404.773438 297.617188 402.367188 302.6875 402.28125 306.945312 C 402.152344 312.988281 403.140625 318.640625 408.789062 322.03125 C 414.28125 325.332031 420.226562 325.355469 424.039062 323.9375 C 425.59375 323.363281 426.71875 322.335938 427.933594 321.320312 C 429.1875 320.273438 432.296875 315.140625 429.40625 314.484375 C 428.984375 314.449219 428.609375 314.730469 428.574219 315.113281 C 428.140625 318.007812 427.613281 319.40625 426.710938 320.476562 C 425.8125 321.554688 424.6875 322.132812 423.421875 322.660156 C 420.203125 323.859375 414.105469 324.1875 409.59375 320.507812 C 406.136719 317.691406 404.691406 315.933594 404.820312 306.753906 C 405.132812 302.855469 406.015625 299.886719 410.476562 294.953125 C 413.628906 291.464844 416.703125 288.558594 421.488281 288.703125 C 421.820312 288.769531 422.164062 288.789062 422.515625 288.746094 C 422.898438 288.695312 423.183594 288.394531 423.171875 288.042969 C 423.167969 287.695312 422.875 287.402344 422.484375 287.367188 C 422.257812 287.34375 422.03125 287.339844 421.800781 287.324219 C 421.5 287.261719 421.167969 287.113281 420.851562 286.878906 C 420.34375 286.503906 419.90625 285.933594 419.707031 285.332031 C 419.5 284.734375 419.515625 284.136719 419.84375 283.585938 C 420.164062 283.039062 420.816406 282.492188 422.074219 282.085938 C 425.371094 281.386719 429.09375 281.734375 432.808594 281.59375 C 436.53125 281.449219 441.023438 280.867188 444.15625 277.945312 C 449.421875 273.089844 449.8125 271.382812 451.15625 267.535156 C 452.539062 263.574219 452.925781 258.6875 451.089844 254.746094 L 452.816406 253.84375 C 453.992188 256.5 455.292969 257.414062 457.585938 258.851562 C 459.007812 259.234375 461.269531 258.949219 458.804688 257.855469 C 456.832031 256.03125 456.179688 255.1875 454.394531 249.957031 C 455.433594 244.125 456.429688 239.566406 454.5 237.484375 C 451.671875 233.695312 446.992188 231.738281 443.339844 228.945312 C 442.679688 225.253906 442.691406 222.804688 443.324219 218.226562 C 459.261719 217.546875 460.742188 207.5625 464.644531 206.835938 C 464.820312 208.59375 464.9375 210.816406 464.96875 213.675781 C 461.992188 216.933594 459.042969 223.378906 462.625 228.554688 C 467.496094 232.585938 468.746094 235.765625 468.792969 241.128906 C 466.625 241.625 461.722656 240.660156 462.960938 243.105469 C 464.140625 245.453125 468.007812 244.71875 470.53125 245.761719 C 473.09375 246.660156 472.183594 250.824219 480.109375 251.960938 C 471.859375 259.125 470.492188 271.9375 466.949219 280.878906 C 464.726562 283.53125 462.570312 283.828125 460.953125 283.207031 C 458.636719 281.332031 459.945312 277.34375 456.226562 278.21875 C 455.210938 280.3125 454.722656 280.738281 452.351562 281.230469 C 451.757812 283.625 454.644531 285.042969 457.125 288.28125 C 454.316406 287.820312 449.6875 289.304688 448.804688 289.9375 C 452.78125 291.257812 452.257812 292.726562 452.496094 294.882812 C 455.667969 294.886719 457.378906 293.675781 459.617188 291.253906 C 464.355469 295.953125 456.015625 296.046875 456.460938 297.976562 C 460.785156 298.148438 460.828125 298.296875 461.539062 301.5 C 463.921875 300.195312 465.789062 297.59375 465.894531 294.234375 C 467.078125 293.5625 468.804688 291.078125 469.859375 293.675781 C 470.316406 295.664062 470.945312 297.230469 472.882812 298.609375 C 473.652344 296.058594 474.917969 295.015625 477.296875 295.242188 C 478.664062 290.328125 474.277344 291.34375 475.648438 288.84375 C 477.546875 286.019531 478.378906 282.59375 483.359375 282.074219 C 483.796875 279.925781 484.511719 277.054688 484.6875 275.640625 C 485.589844 274 488.507812 273.453125 489.945312 271.332031 C 486.402344 266.59375 491.960938 266.207031 494.980469 264.25 C 492.234375 261.070312 497.664062 257.773438 497.464844 247.574219 C 497.820312 245.9375 501.523438 244.546875 502.949219 242.304688 C 498.921875 242.023438 497.035156 241.976562 494.484375 241.089844 C 493.003906 240.359375 491.382812 242.738281 489.226562 243.390625 "/>
<path style=" stroke:none;fill-rule:nonzero;fill:rgb(97.647059%,94.509804%,64.705882%);fill-opacity:1;" d="M 454.175781 87.230469 C 455.980469 86.539062 458.300781 86.953125 459.34375 88.160156 C 460.386719 89.367188 459.765625 90.90625 457.953125 91.601562 C 456.140625 92.300781 453.828125 91.882812 452.78125 90.679688 C 451.742188 89.472656 451.460938 88.445312 454.171875 87.234375 "/>
<path style=" stroke:none;fill-rule:nonzero;fill:rgb(0%,0%,0%);fill-opacity:1;" d="M 457.753906 88.59375 C 458.726562 89.382812 457.96875 90.429688 457.066406 90.898438 C 456.164062 91.363281 455.007812 91.085938 454.488281 90.277344 C 453.96875 89.472656 453.53125 88.679688 454.429688 88.21875 C 454.429688 88.21875 456.78125 87.796875 457.753906 88.59375 "/>
<path style=" stroke:none;fill-rule:nonzero;fill:rgb(0%,0%,0%);fill-opacity:1;" d="M 412.078125 381.570312 C 399.390625 387.753906 388.960938 396.820312 381.078125 408.519531 C 372.015625 421.988281 367.417969 437.089844 367.417969 453.414062 C 367.417969 467.460938 371.074219 481.097656 378.285156 493.941406 C 385.648438 507.207031 395.855469 517.195312 408.597656 523.628906 C 419.523438 529.15625 430.648438 531.953125 441.679688 531.953125 C 452.285156 531.953125 501.800781 529.046875 503.238281 488.394531 C 503.375 484.550781 502.265625 481.1875 500.351562 478.40625 C 497.6875 474.527344 494.5 473.710938 492.304688 473.710938 C 489.914062 473.710938 487.378906 475.214844 484.335938 478.441406 C 481.8125 481.203125 478.207031 483.472656 473.585938 485.234375 C 468.867188 487.027344 464.042969 487.933594 459.253906 487.933594 C 446.230469 487.933594 436.476562 481.726562 429.429688 468.960938 C 424.148438 459.242188 421.46875 448.359375 421.46875 436.625 C 421.46875 428.355469 423.234375 421.726562 426.710938 416.933594 C 430.03125 412.351562 434.394531 410.125 440.054688 410.125 C 446.125 410.125 452.066406 412.375 457.703125 416.800781 C 459.953125 418.609375 461.890625 420.664062 463.441406 422.886719 C 465.074219 425.214844 467.246094 429.175781 469.90625 434.644531 C 472.023438 439.066406 474.226562 442.132812 476.644531 443.988281 C 479.164062 445.9375 482.414062 446.921875 486.285156 446.921875 C 490.453125 446.921875 494.265625 445.660156 497.613281 443.160156 C 503.632812 438.609375 506.675781 431.484375 506.675781 421.96875 C 506.675781 409.148438 503.402344 398.222656 496.953125 389.492188 C 493.929688 385.335938 490.242188 383.21875 486 383.21875 L 482.523438 383.628906 C 479.527344 384.382812 478.207031 384.5 477.691406 384.5 C 477.296875 384.5 475.59375 384.296875 470.5 381.617188 C 461.464844 376.859375 451.957031 374.449219 442.25 374.449219 C 431.933594 374.445312 421.789062 376.84375 412.078125 381.570312 "/>
<path style=" stroke:none;fill-rule:nonzero;fill:rgb(100%,100%,100%);fill-opacity:1;" d="M 411.136719 518.609375 C 399.414062 512.695312 390.007812 503.472656 383.199219 491.195312 C 376.453125 479.195312 373.042969 466.484375 373.042969 453.414062 C 373.042969 438.226562 377.3125 424.179688 385.746094 411.660156 C 393.066406 400.796875 402.753906 392.375 414.539062 386.632812 C 423.476562 382.273438 432.796875 380.070312 442.25 380.070312 C 451.035156 380.070312 459.65625 382.265625 467.882812 386.59375 C 472.53125 389.03125 475.554688 390.121094 477.691406 390.121094 C 479.09375 390.121094 481.128906 389.78125 483.914062 389.070312 C 483.929688 389.066406 486 388.835938 486 388.835938 C 488.375 388.835938 490.472656 390.136719 492.417969 392.8125 C 498.148438 400.570312 501.050781 410.375 501.050781 421.960938 C 501.050781 429.730469 498.824219 435.191406 494.238281 438.65625 C 491.859375 440.429688 489.257812 441.292969 486.285156 441.292969 C 483.648438 441.292969 481.621094 440.71875 480.078125 439.527344 C 478.398438 438.238281 476.683594 435.773438 474.976562 432.195312 C 472.132812 426.367188 469.878906 422.269531 468.050781 419.664062 C 466.195312 417.007812 463.890625 414.5625 461.207031 412.398438 C 454.523438 407.148438 447.417969 404.5 440.054688 404.5 C 432.574219 404.5 426.546875 407.574219 422.15625 413.632812 C 417.96875 419.40625 415.84375 427.144531 415.84375 436.625 C 415.84375 449.3125 418.753906 461.097656 424.496094 471.660156 C 432.515625 486.195312 444.203125 493.558594 459.253906 493.558594 C 464.730469 493.558594 470.226562 492.53125 475.582031 490.492188 C 481.035156 488.417969 485.367188 485.65625 488.457031 482.269531 C 491.167969 479.394531 492.296875 479.335938 492.304688 479.335938 C 493.105469 479.335938 494.328125 479.570312 495.71875 481.597656 C 496.992188 483.441406 497.539062 485.667969 497.613281 488.394531 C 498.519531 523.109375 451.34375 526.332031 441.679688 526.332031 C 431.542969 526.328125 421.269531 523.730469 411.136719 518.609375 "/>
<path style=" stroke:none;fill-rule:nonzero;fill:rgb(0%,0%,0%);fill-opacity:1;" d="M 454.457031 111.164062 C 454.378906 111.152344 454.292969 111.136719 454.160156 111.078125 C 454.070312 111.035156 453.960938 110.96875 453.863281 110.839844 C 453.234375 110.015625 452.972656 109.199219 452.621094 108.5625 C 452.269531 107.925781 455.292969 106.445312 454.710938 104.578125 C 456.140625 105.84375 457.617188 107.25 458.4375 108.238281 C 458.671875 108.523438 458.859375 108.773438 458.984375 109.027344 C 459.054688 109.171875 459.121094 109.3125 459.125 109.550781 C 459.132812 109.679688 459.097656 109.863281 458.964844 110.035156 C 458.832031 110.203125 458.625 110.316406 458.453125 110.355469 C 458.089844 110.449219 456.59375 110.851562 455.566406 111.054688 C 455.210938 111.117188 454.9375 111.171875 454.644531 111.175781 C 454.589844 111.175781 454.53125 111.171875 454.457031 111.164062 "/>
<path style=" stroke:none;fill-rule:nonzero;fill:rgb(97.647059%,94.509804%,64.705882%);fill-opacity:1;" d="M 433.46875 95.296875 C 437.425781 95.195312 438.519531 101.179688 442.734375 101.34375 C 446.949219 101.5 448.105469 101.523438 450.863281 102.5 C 453.625 103.476562 455.292969 105.664062 455.292969 105.664062 C 455.292969 105.664062 456.195312 110.007812 453.050781 108.21875 C 451.074219 106.289062 449.71875 105.820312 448.351562 105.671875 C 445.09375 105.3125 441.285156 105.972656 438.628906 105.722656 C 432.945312 105.195312 427.546875 95.453125 433.46875 95.296875 "/>
<path style="fill:none;stroke-width:0.6;stroke-linecap:butt;stroke-linejoin:miter;stroke:rgb(0%,0%,0%);stroke-opacity:1;stroke-miterlimit:4;" d="M 0.001 0.0018 C 3.166625 0.08305 4.041625 -4.707575 7.4135 -4.8357 C 10.785375 -4.9607 11.710375 -4.97945 13.916625 -5.7607 C 16.126 -6.54195 17.460375 -8.29195 17.460375 -8.29195 C 17.460375 -8.29195 18.18225 -11.770075 15.666625 -10.3357 C 14.085375 -8.79195 13.001 -8.41695 11.90725 -8.301325 C 9.301 -8.0107 6.254125 -8.538825 4.129125 -8.338825 C -0.41775 -7.91695 -4.733375 -0.1232 0.001 0.0018 Z M 0.001 0.0018 " transform="matrix(1.25,0,0,-1.25,433.4675,95.299125)"/>
</g>
</g>
</svg>
