<?xml version="1.0" encoding="UTF-8" standalone="no"?>
<svg xmlns:rdf="http://www.w3.org/1999/02/22-rdf-syntax-ns#" xmlns="http://www.w3.org/2000/svg" height="43.50704" width="43.50701" version="1.1" xmlns:cc="http://creativecommons.org/ns#" xmlns:dc="http://purl.org/dc/elements/1.1/" viewBox="0 0 43.50701 43.50704"><path d="M21.75352.3585a21.395,21.395,0,1,0,21.395,21.395A21.39521,21.39521,0,0,0,21.75352.3585" fill="#fff"/><circle cx="21.75351" cy="21.75352" r="21.39501" fill="none" stroke="#e1000f" stroke-width="0.717"/><circle cx="21.75376" cy="21.75309" r="18.3905" fill="none" stroke="#e1000f" stroke-width="3.382"/><path d="M30.01463,22.64561a14.40359,14.40359,0,0,0,5.338,1.199c1.949.068,2.719-1.145,2.077-1.354-.256-.084-5.819-1.657-5.819-1.657s-.688-.269-.173-.324a16.68584,16.68584,0,0,0,3.814-.436c1.205-.493,1.417-1.581,1.136-1.566-2.421.126-4.692.081-4.836.06494l-.042-.006s-.267-.09-.028-.301c.264-.23206,2.008-1.687,2.377-2.058.96-.967.307-2.378.147-2.226a18.29492,18.29492,0,0,1-3.797,2.733c-.123.023-.089-.265.008-.473a6.32483,6.32483,0,0,0,.823-1.501c.468-1.752.349-2.856-.64-3.276-.179-.077-.246.023-.478.567-.232.543-.323,1.494-1.208,1.863-.452.189-1.289.962-1.302,1.27-.012.309.173.792-.066.956-.189.131-.51-.099-.792.135-.281.233-1.099,1.059-1.384,1.272s-.852.556-1.206.36c-.779-.767-.401-3.02295-.401-3.02295a1.7638,1.7638,0,0,0,.554.015.93734.93734,0,0,0,.729-1.173.87582.87582,0,0,1-.657.291c-.318.03-.4-.1-.47-.382a1.39092,1.39092,0,0,1,.023-.907c.136-.472.615-.702.887-.921.273-.219.13-1.044.13-1.044a1.47789,1.47789,0,0,1-.298.423c-.262.246-.62.176-1.383.128a1.58192,1.58192,0,0,1-1.2-.483c-.119-.147-1.12-.038-1.408-.025a11.07139,11.07139,0,0,0-1.969.417,7.00189,7.00189,0,0,0-1.256.575c-.168.14-.11.264-.11.264l.154.415a4.23626,4.23626,0,0,1,1.123-.546c.559-.149.625.106.696.346a3.38446,3.38446,0,0,1,.129.527,6.15592,6.15592,0,0,1-1.78.12c-.865-.047-.915-.428-.903-.651.005-.08-.252.004-.35.223-.174.387-.225,1.039,1.552,1.014a4.77944,4.77944,0,0,0,1.571-.348c.139.468-.02.544-.219.578a2.22957,2.22957,0,0,1-1.296-.075s-.12.385-.032.451a3.20716,3.20716,0,0,0,1.739.375c.186-.016.333-.136.433-.051a1.71812,1.71812,0,0,1,.25.668c.016.144-.027.245-.458.23395s-.596.005-.578.088a4.98415,4.98415,0,0,0,.561.528c.08.084.524-.379.524-.379a.56312.56312,0,0,0,.014.249c.036.186.16,1.655-.753,2.079-.354.196-.92-.147-1.206-.36-.285-.213-1.102-1.039-1.384-1.272-.281-.234-.603-.004-.792-.135-.239-.164-.054-.647-.066-.956-.013-.308-.85-1.081-1.302-1.27-.885-.369-.975-1.32-1.208-1.863-.232-.544-.299-.644-.478-.567-.989.42-1.108,1.524-.64,3.276a6.36041,6.36041,0,0,0,.823,1.501c.097.208.131.496.008.473a18.32247,18.32247,0,0,1-3.797-2.733c-.16-.152-.813,1.259.147,2.226.369.371,2.113,1.826,2.377,2.058.239.211-.028.301-.028.301l-.042.006c-.144.01605-2.415.061-4.835-.06494-.282-.015-.07,1.073,1.135,1.566a16.69161,16.69161,0,0,0,3.814.436c.516.055-.173.324-.173.324s-5.562,1.573-5.819,1.657c-.642.209.128,1.422,2.077,1.354a14.3976,14.3976,0,0,0,5.338-1.199c.706-.269.286.22705.135.332-1.046.736-4.125,2.828-5.581,3.764-.208.134-.238.283-.002.534,1.14,1.212,3.299-.176,4.153-.651.995-.555,3.367-2.345,3.551-2.15.072.076-.065.745-1.526,2.311a5.132,5.132,0,0,0,.489.418s-.7.847-1.179,1.37c-.193.212-.644.66-.766.637-.123-.024-.753-.705-.968-.717-.134-.007-.425.202-.642.079a1.266,1.266,0,0,0-.866.121c-.333.155-.271.938-.18.591.092-.347.756-.336,1.088.049a1.63348,1.63348,0,0,0,.629.407c.205.046.306.11.222.17a5.18268,5.18268,0,0,0-1.086.515c-.097.164-.045.224-.083.306-.507.179-.626.335-.469.842a1.67357,1.67357,0,0,0,.164.376c.074-.137.037-.584.514-.689.05-.011.135.06.224.06a2.74245,2.74245,0,0,0,1.043-.577c.127-.161.097.093.014.247-.401.74-.252,1.193-.217,1.206.092.034.142-.034.203.108a1.81856,1.81856,0,0,0,.856,1.033,2.52245,2.52245,0,0,1-.221-1.122c.075-.038.134.015.224-.038a1.17782,1.17782,0,0,0,.194-.596c-.013-.309-.181-.404-.177-.589a.91033.91033,0,0,1,.134-.387,3.43157,3.43157,0,0,0,.395.606c.371.392.304.482.692.325.078-.032.596.818.596.818a1.50694,1.50694,0,0,0,.102-.778c-.037-.145-.179-.21-.278-.336-.1-.126.176-.286.042-.487-.749-.716-.819-.471-1.011-.938-.13-.315.123-.529.385-.844.656-.791.678-.784,1.066-1.246.162.107.254.209.478.373.73-1.074,1.356-2.042,2.041-2.295.684-.252.993.148.975.563-.033.733-1.501,2.308-1.501,2.308a12.82056,12.82056,0,0,0-1.431,1.623h0a1.95249,1.95249,0,0,0-.236.677,3.22926,3.22926,0,0,0,.064.979v.001c.056.306.122.545.122.545s.22-.78595.269-.881c.139-.268.169,0,.378.527a8.11617,8.11617,0,0,0,.649,1.192l-.006-1.348c.021-.349.045-.819.202-.47a11.52351,11.52351,0,0,0,.665,1.101s.007-.275.028-.606h-.004l.004-.001a7.8356,7.8356,0,0,1,.382-1.65l-.006-.001.006-.001c.107-.198.583-1.029,1.161-1.116.577-.088.627.941.587,1.163a5.323,5.323,0,0,1-.317,1.08606c-.055.11-.509.965-.567,1.128a2.2676,2.2676,0,0,0,.672,2.682,5.79974,5.79974,0,0,1,.349-1.55505c.116-.17.278-.28094.397-.113a9.74625,9.74625,0,0,0,1.052,1.589v.001h.002v-.001a9.74558,9.74558,0,0,0,1.052-1.589c.119-.168.281-.057.397.113a5.79737,5.79737,0,0,1,.349,1.55505,2.26756,2.26756,0,0,0,.672-2.682c-.058-.163-.512-1.018-.566-1.128a5.31215,5.31215,0,0,1-.318-1.08606c-.04-.222.01-1.251.587-1.163.578.087,1.054.918,1.161,1.116l.007.001-.007.001a7.895,7.895,0,0,1,.383,1.65l.004.001h-.004c.02.331.027.606.027.606a11.31776,11.31776,0,0,0,.665-1.101c.157-.349.181.121.203.47l-.007,1.348a8.01648,8.01648,0,0,0,.649-1.192c.209-.527.239-.795.378-.527.049.095.269.881.269.881s.066-.239.122-.545v-.001a3.22828,3.22828,0,0,0,.064-.979,1.95186,1.95186,0,0,0-.236-.677h0a12.73658,12.73658,0,0,0-1.431-1.623s-1.468-1.575-1.5-2.308c-.019-.415.29-.815.974-.563.685.253,1.311,1.221,2.042,2.295.223-.164.315-.266.477-.373.388.462.41.455,1.066,1.246.262.315.515.529.386.844-.193.467-.263.222-1.012.938-.134.201.142.361.042.487-.099.126-.241.191-.278.336a1.50683,1.50683,0,0,0,.102.778s.518-.85.596-.818c.388.157.321.067.692-.325a3.43074,3.43074,0,0,0,.395-.606.91033.91033,0,0,1,.134.387c.005.185-.164.28-.177.589a1.17812,1.17812,0,0,0,.194.596c.09.053.15,0,.224.038a2.522,2.522,0,0,1-.221,1.122,1.81882,1.81882,0,0,0,.856-1.033c.061-.142.111-.074.203-.108.035-.013.184-.466-.217-1.206-.083-.154-.113-.408.015-.247a2.73092,2.73092,0,0,0,1.042.577c.09,0,.174-.071.224-.06.477.105.44.552.515.689a1.744,1.744,0,0,0,.164-.376c.156-.507.037-.663-.47-.842-.038-.082.015-.142-.082-.306a5.18282,5.18282,0,0,0-1.087-.515c-.083-.06.018-.124.222-.17a1.62566,1.62566,0,0,0,.629-.407c.333-.385.997-.396,1.088-.049s.153-.436-.18-.591a1.266,1.266,0,0,0-.866-.121c-.217.123-.507-.086-.642-.079-.215.012-.845.693-.967.717-.123.023-.573-.425-.767-.637-.479-.523-1.179-1.37-1.179-1.37a5.223,5.223,0,0,0,.49-.418c-1.462-1.566-1.599-2.235-1.527-2.311.184-.195,2.556,1.595,3.552,2.15.853.475,3.012,1.863,4.152.651.236-.251.207-.4-.002-.534-1.456-.936-4.535-3.028-5.581-3.764-.15-.105-.57-.601.135-.332" fill="#e1000f" fill-rule="evenodd"/><path d="M24.43852,7.59172c-.021.001-1.588.67206-1.729.778-.272-.234-1.066-.94-1.156-1.02V7.34172l-.004.004-.004-.004v.00806c-.09.08-.883.78595-1.155,1.02-.141-.106-1.709-.777-1.73-.778,0,0,.441.65906.714,1.111a2.03174,2.03174,0,0,1,.218,1.094h3.914a2.03157,2.03157,0,0,1,.218-1.094c.273-.452.714-1.111.714-1.111" fill="#e1000f"/><path d="M20.26753,11.7758a1.70767,1.70767,0,0,1,1.198-.112l-1.011.815a5.24749,5.24749,0,0,1-.187-.703" fill="#fff"/><path d="M24.69291,20.97685c.896-.158,2.062-.44495,3.294-2.60394-1.168-.221-1.365-.809-1.365-.809l.001-.002a1.882,1.882,0,0,1,1.52.535c.049-1.5.927-1.741.927-1.741l.002.001s.372.83105-.758,1.824a1.882,1.882,0,0,1,1.384.834l-.001.002s-.59.212-1.492-.54c-1.343,2.44806-2.803,2.97705-3.512,2.97705a2.61647,2.61647,0,0,0,0-.47705" fill="#fff"/><path d="M19.73863,19.46952a17.08187,17.08187,0,0,0,.28,2.621,9.73133,9.73133,0,0,0,1.218,3.355,5.123,5.123,0,0,0,.497.692v.009l.004-.00494.004.00494.001-.00995a5.21088,5.21088,0,0,0,.496-.691,9.73261,9.73261,0,0,0,1.218-3.355,17.08187,17.08187,0,0,0,.28-2.621c-.014.014-3.984.014-3.998,0" fill="#fff" fill-rule="evenodd"/><path d="M18.78242,20.97685c-.896-.158-2.062-.44495-3.294-2.60394,1.168-.221,1.365-.809,1.365-.809l-.001-.002a1.882,1.882,0,0,0-1.52.535c-.049-1.5-.927-1.741-.927-1.741l-.002.001s-.372.83105.758,1.824a1.882,1.882,0,0,0-1.384.834l.001.002s.59.212,1.492-.54c1.343,2.44806,2.803,2.97705,3.512,2.97705a2.61012,2.61012,0,0,1,0-.47705" fill="#fff"/><polygon points="22.84 23.754 22.84 23.23 21.552 23.23 21.552 22.235 22.701 22.235 22.701 21.712 21.552 21.712 21.552 20.872 22.693 20.872 22.693 20.349 20.777 20.349 20.777 23.754 22.84 23.754" fill="#e1000f"/></svg>