<?xml version="1.0" encoding="UTF-8" standalone="no"?>
<!-- Created with Inkscape (http://www.inkscape.org/) -->
<svg
   xmlns:svg="http://www.w3.org/2000/svg"
   xmlns="http://www.w3.org/2000/svg"
   xmlns:inkscape="http://www.inkscape.org/namespaces/inkscape"
   version="1.0"
   width="112.75153"
   height="125.40125"
   id="svg2"
   xml:space="preserve"><defs
     id="defs82"><inkscape:perspective
       id="perspective86" /></defs><g
     transform="matrix(0,1.25,1.25,0,-466.6575,-37.33375)"
     id="g11"><path
       d="M 128.653,418.466 C 124.305,403.781 109.508,389.097 89.992,382.624 C 69.113,375.698 57.664,374.585 39.186,374.725 C 32.575,389.234 31.426,406.46 31.287,418.466 C 31.426,430.472 32.575,447.619 39.186,462.128 C 57.664,462.268 69.113,461.155 89.992,454.229 C 109.508,447.756 124.305,433.151 128.653,418.466 z"
       id="path755"
       style="fill:none;stroke:#231f20;stroke-width:0.31799999;stroke-linecap:butt;stroke-linejoin:miter;stroke-miterlimit:3.86400008;stroke-dasharray:none;stroke-opacity:1" /><path
       d="M 46.764,377.78 C 46.535,377.78 46.306,377.78 46.1,377.802 C 45.277,377.78 44.454,377.78 43.654,377.78 C 41.734,377.802 41.734,377.802 41.208,377.871 C 40.682,379.106 40.179,380.341 39.676,381.598 C 36.109,392 34.417,403.158 34.417,414.177 C 34.417,414.406 34.417,414.657 34.441,414.909 C 34.417,415.161 34.395,415.435 34.395,415.709 C 34.395,416.327 34.395,416.944 34.395,417.561 C 34.395,417.835 34.417,418.11 34.441,418.361 C 34.417,418.636 34.417,418.933 34.417,419.23 C 34.395,420.03 34.395,420.83 34.395,421.631 C 34.395,421.882 34.395,422.133 34.417,422.385 C 34.417,422.705 34.417,423.025 34.417,423.345 C 34.417,423.573 34.417,423.803 34.417,424.053 C 34.509,428.421 34.921,432.81 35.401,437.154 C 36.384,444.607 38.053,452.198 41.208,459.079 C 41.482,459.103 41.78,459.148 42.077,459.194 C 42.328,459.194 42.579,459.194 42.854,459.194 C 42.991,459.194 43.128,459.194 43.266,459.194 C 44.043,459.171 44.843,459.171 45.644,459.171 C 45.85,459.171 46.055,459.171 46.284,459.194 C 46.421,459.194 46.558,459.194 46.695,459.194 C 46.923,459.194 47.175,459.194 47.427,459.194 C 54.491,458.942 61.579,458.28 68.552,457.091 C 72.164,456.359 75.823,455.582 79.412,454.644 C 81.447,454.005 83.504,453.364 85.562,452.747 C 86.819,452.289 88.076,451.832 89.334,451.375 C 92.947,449.866 96.49,448.197 99.92,446.299 C 100.995,445.613 102.069,444.95 103.167,444.287 C 103.852,443.83 104.538,443.373 105.224,442.915 C 107.465,441.223 107.807,440.904 107.945,440.858 C 109.362,439.577 110.78,438.321 112.22,437.063 C 114.529,434.685 116.701,432.124 118.599,429.381 C 119.216,428.375 119.856,427.369 120.496,426.386 C 121.8,423.94 122.943,421.379 124.018,418.818 C 124.062,418.636 124.109,418.475 124.155,418.316 C 123.423,416.395 122.554,414.498 121.708,412.6 C 119.674,408.736 117.25,405.215 114.369,401.923 C 113.386,400.917 112.426,399.911 111.466,398.927 C 110.505,398.082 109.546,397.237 108.608,396.413 C 105.544,394.058 104.95,393.692 104.881,393.578 C 103.235,392.526 101.588,391.475 99.942,390.446 C 90.889,385.439 81.217,382.284 71.113,380.272 C 65.968,379.357 65.626,379.357 65.557,379.289 C 61.35,378.762 57.121,378.329 52.914,377.963 C 50.856,377.895 48.798,377.826 46.764,377.78"
       id="path759"
       style="fill:#231f20;fill-opacity:1;fill-rule:nonzero;stroke:none" /><path
       d="M 86.98,418.177 C 98.937,418.155 110.895,418.131 122.852,418.131 C 122.303,416.851 121.755,415.571 121.228,414.291 C 119.217,410.198 116.793,406.563 113.844,403.065 C 113.204,402.379 112.587,401.693 111.969,401.03 C 110.849,400.001 109.729,398.972 108.632,397.944 C 105.956,395.84 103.281,393.828 100.355,392.068 C 100.309,392.068 100.286,392.068 100.264,392.068 C 95.828,400.756 91.393,409.467 86.98,418.177"
       id="path763"
       style="fill:#d71920;fill-opacity:1;fill-rule:nonzero;stroke:none" /><path
       d="M 90.455,429.609 C 90.455,429.289 90.455,428.992 90.455,428.695 C 90.318,428.238 89.815,427.803 89.381,427.666 C 89.358,427.803 89.358,427.94 89.358,428.101 C 89.358,428.329 89.358,428.581 89.358,428.832 C 89.335,429.357 89.312,430.089 88.786,430.341 C 88.42,430.341 88.42,430.341 88.329,430.272 C 88.1,429.289 88.466,428.329 88.352,427.346 C 88.123,427.346 87.918,427.369 87.712,427.415 C 87.62,427.574 87.551,427.758 87.483,427.963 C 87.506,428.238 87.529,428.558 87.575,428.877 C 87.323,429.769 87.071,430.661 86.819,431.553 C 86.819,432.399 86.957,433.108 87.14,433.931 C 86.934,434.913 86.363,436.194 86.843,437.176 C 87.529,437.176 87.506,436.537 87.803,436.011 C 87.94,435.988 88.077,435.988 88.237,435.988 C 88.511,436.559 88.215,437.245 88.604,437.771 C 88.717,437.771 88.854,437.771 88.992,437.771 C 89.243,437.52 89.358,437.108 89.449,436.742 C 89.632,436.674 89.632,436.674 89.975,436.72 C 90.249,437.131 90.09,437.657 90.34,438.045 C 91.026,438.045 90.821,437.222 91.163,436.765 C 91.69,436.765 91.782,437.039 92.124,437.428 C 92.879,437.428 92.536,436.742 92.558,436.148 C 92.605,436.103 92.65,436.057 92.696,436.034 C 93.176,436.171 93.633,436.49 94.091,436.583 C 94.571,436.354 94.091,435.645 93.93,435.348 C 93.93,435.234 93.93,435.119 93.93,435.004 C 94.434,434.754 94.959,435.371 95.439,434.891 C 95.325,434.365 94.708,433.839 95.188,433.358 C 95.233,433.358 95.279,433.358 95.325,433.382 C 96.239,434.365 97.177,435.348 98.114,436.354 C 98.389,436.354 99.738,438.137 99.966,438.412 C 99.966,439.235 99.646,439.806 99.028,440.286 C 98.046,440.652 97.268,440.584 96.719,439.646 C 96.719,438.8 96.697,438.594 97.383,437.954 C 97.611,437.771 97.863,437.589 98.114,437.406 C 98.159,436.765 97.748,436.72 97.246,436.788 C 96.628,437.176 96.102,437.566 95.782,438.229 C 95.737,438.229 95.691,438.251 95.668,438.275 C 95.668,437.269 96.469,436.72 97.177,436.171 C 97.177,435.508 96.697,435.486 96.126,435.599 C 95.439,436.285 94.936,437.085 94.41,437.932 C 94.296,437.932 94.182,437.932 94.091,437.932 C 93.038,437.589 92.17,437.702 91.256,438.32 C 91.05,438.503 90.844,438.686 90.661,438.868 C 90.135,439.761 89.929,440.401 90.021,441.407 C 90.272,441.52 90.478,441.544 90.752,441.544 C 91.598,439.44 91.598,439.44 91.713,439.303 C 91.713,439.783 91.621,440.241 91.552,440.721 C 91.69,441.475 92.101,442.252 92.673,441.315 C 92.536,440.149 92.17,439.6 93.382,439.006 C 94.89,439.052 95.279,440.423 96.376,441.292 C 96.674,441.407 96.971,441.52 97.291,441.657 C 97.542,441.657 97.794,441.681 98.068,441.704 C 98.457,441.589 98.869,441.475 99.28,441.361 C 100.537,440.629 101.087,439.303 100.972,437.863 C 101.521,437.795 102.069,437.726 102.618,437.68 C 102.915,437.771 103.213,437.863 103.51,437.954 C 103.51,438.023 103.533,438.091 103.556,438.16 C 103.372,438.457 103.167,438.594 103.167,438.96 C 105.407,440.172 108.014,438.16 109.408,436.537 C 109.637,436.537 109.866,436.651 110.118,436.696 C 110.666,436.514 110.963,436.103 110.505,435.645 C 110.3,435.623 110.118,435.623 109.935,435.623 C 109.912,435.645 109.888,435.691 109.888,435.736 C 109.088,435.623 109.614,433.862 109.912,433.473 C 110.118,433.358 110.346,433.268 110.574,433.176 C 110.574,431.918 108.997,433.358 108.745,433.519 C 107.785,433.519 108.563,432.604 108.128,432.17 C 107.991,432.17 107.877,432.17 107.762,432.17 C 107.396,432.536 107.9,433.885 107.145,433.701 C 106.916,433.199 106.893,432.878 106.322,432.971 C 106.117,433.404 105.98,433.679 106.254,434.136 C 106.916,434.548 107.603,434.73 107.488,435.577 C 107.145,436.148 106.276,436.628 105.636,436.742 C 104.858,435.988 104.082,435.256 103.167,434.662 C 102.55,434.662 101.955,434.799 101.361,434.936 C 101.772,434.068 102.207,433.221 102.641,432.376 C 103.35,431.507 103.647,431.85 104.47,432.467 C 104.63,432.467 104.79,432.489 104.95,432.513 C 106.276,431.759 107.099,430.226 108.22,429.198 C 108.494,429.198 108.723,429.312 108.974,429.357 C 109.203,429.289 109.637,428.877 109.637,428.627 C 109.203,428.192 109.019,428.397 108.517,428.397 C 108.105,427.986 108.311,426.546 108.654,426.112 C 108.906,426.02 109.156,425.928 109.408,425.836 C 109.156,424.763 107.991,425.768 107.625,426.249 C 106.756,426.317 107.214,425.425 106.939,424.876 C 106.436,424.854 106.528,424.831 106.345,425.197 C 106.345,425.539 106.597,426.546 105.98,426.409 C 105.796,426.134 105.613,425.86 105.453,425.608 C 105.385,425.608 105.316,425.608 105.248,425.608 C 104.379,426.683 105.5,427.003 106.322,427.62 C 106.345,427.826 106.367,427.986 106.391,428.169 C 106.024,428.603 105.59,429.06 105.133,429.403 C 105.133,429.426 105.133,429.45 105.133,429.494 C 104.927,429.609 104.744,429.724 104.562,429.837 C 103.647,429.837 102.709,429.06 101.772,428.832 C 99.829,428.832 100.286,431.073 99.601,432.239 C 98.778,432.239 97.703,430.844 97.52,430.067 C 98.091,428.855 98.685,427.689 99.646,426.752 C 100.149,426.889 100.904,427.049 100.904,426.249 C 100.835,426.157 100.767,426.066 100.698,425.974 C 100.424,425.974 100.103,426.066 99.829,425.928 C 99.623,425.265 99.601,424.58 99.875,423.916 C 100.081,423.757 100.537,423.596 100.789,423.436 C 100.789,423.368 100.789,423.299 100.789,423.231 C 99.897,422.339 99.212,424.396 98.435,423.619 C 98.411,423.253 98.389,422.91 98.366,422.567 C 98.251,422.454 98.091,422.43 97.931,422.43 C 97.68,422.682 97.748,423.573 97.748,423.94 C 97.131,424.146 97.131,423.733 96.788,423.208 C 95.988,423.208 96.171,424.077 96.537,424.511 C 96.903,424.717 97.885,425.106 97.748,425.699 C 97.017,426.637 96.285,427.574 95.553,428.535 C 95.507,428.535 95.462,428.535 95.439,428.558 C 94.708,427.369 94.273,426.02 93.77,424.717 C 93.702,424.146 93.885,424.077 94.273,423.688 C 94.296,423.345 94.228,423.071 94.022,422.797 C 93.496,422.797 93.541,423.345 93.222,423.573 C 92.399,423.459 91.987,422.979 91.461,422.339 C 91.438,422.111 91.53,421.905 91.506,421.401 C 90.913,421.401 91.004,421.561 90.821,422.133 C 90.867,422.567 91.026,423.047 90.798,423.436 C 90.683,423.459 90.57,423.482 90.478,423.527 C 90.135,423.322 89.769,423.025 89.358,423.025 C 89.358,423.184 89.358,423.345 89.381,423.527 C 89.792,423.757 90.364,423.962 90.364,424.534 C 90.021,424.717 89.815,424.58 89.449,424.58 C 89.358,424.671 89.266,424.763 89.197,424.876 C 89.472,425.974 90.546,425.243 91.21,425.06 C 91.347,425.06 91.506,425.06 91.667,425.06 C 92.353,426.225 92.742,427.826 93.198,429.107 C 92.147,430.41 91.713,432.215 90.844,433.633 C 88.992,434.867 90.432,429.792 90.455,429.609"
       id="path767"
       style="fill:#ffffff;fill-opacity:1;fill-rule:nonzero;stroke:none" /><path
       d="M 40.1875,83.125 C 39.87375,83.44 39.568752,83.751252 39.28125,84.09375 C 39.25375,86.86625 39.250002,89.667499 39.25,92.46875 C 39.5075,92.72625 39.775001,92.963746 40.0625,93.25 C 41.49,93.25 42.91375,93.249996 44.34375,93.25 C 44.62875,92.935 44.905002,92.66125 45.21875,92.375 C 45.21875,89.6025 45.218752,86.833753 45.21875,84.0625 C 44.905,83.7475 44.62875,83.442499 44.34375,83.15625 C 42.94375,83.1275 41.560001,83.124997 40.1875,83.125 z M 41.25,85 C 41.935,84.999997 42.62875,85 43.34375,85 C 43.34375,87.142497 43.34375,89.29625 43.34375,91.46875 C 42.62875,91.468753 41.935,91.46875 41.25,91.46875 C 41.25,89.296253 41.25,87.1425 41.25,85 z"
       transform="matrix(0,0.8,0.8,0,29.867,373.326)"
       id="path771"
       style="fill:#ffffff;fill-opacity:1;fill-rule:nonzero;stroke:none" /><path
       d="M 99.417,391.52 C 96.537,389.897 93.541,388.503 90.524,387.154 C 89.084,386.605 87.643,386.056 86.202,385.507 C 86.134,385.507 86.065,385.507 85.996,385.53 C 73.72,409.673 61.419,433.747 49.142,457.89 C 53.029,457.982 57.098,457.433 60.962,457.045 C 62.792,456.77 64.62,456.496 66.472,456.222 C 77.446,434.616 88.42,413.102 99.417,391.52"
       id="path779"
       style="fill:#ffffff;fill-opacity:1;fill-rule:nonzero;stroke:none" /><path
       d="M 96.651,394.332 C 96.445,393.737 96.239,393.166 96.034,392.594 C 95.348,392.251 94.662,391.908 93.976,391.565 C 92.947,393.623 92.947,393.623 92.947,393.737 C 93.359,393.943 93.793,394.148 94.227,394.354 C 93.815,395.155 93.404,395.978 92.993,396.801 C 92.123,396.367 91.278,395.955 90.431,395.543 C 90.431,394.628 91.758,392.892 92.147,391.817 C 91.964,391.314 91.804,390.833 91.643,390.353 C 87.574,388.273 87.574,388.273 87.186,388.136 C 86.706,388.296 86.248,388.455 85.791,388.616 C 84.99,390.147 84.213,391.68 83.436,393.234 C 83.596,393.829 83.778,394.423 83.962,395.017 C 84.648,395.36 85.357,395.703 86.065,396.046 C 86.408,395.314 86.774,394.606 87.14,393.898 C 86.797,393.737 86.202,393.463 85.928,393.188 C 86.339,392.388 86.774,391.589 87.208,390.788 C 87.985,391.177 88.763,391.589 89.54,392 C 89.54,392.045 89.54,392.091 89.564,392.137 C 88.969,393.28 88.374,394.446 87.803,395.612 C 87.963,396.115 88.122,396.641 88.283,397.167 C 89.746,397.921 91.232,398.676 92.718,399.43 C 93.244,399.247 93.77,399.065 94.319,398.904 C 95.096,397.373 95.874,395.84 96.651,394.332"
       id="path787"
       style="fill:#231f20;fill-opacity:1;fill-rule:nonzero;stroke:none" /><path
       d="M 92.833,401.716 C 92.65,401.214 92.49,400.734 92.33,400.253 C 89.335,398.722 86.339,397.189 83.344,395.658 C 82.864,395.795 82.384,395.955 81.927,396.116 C 81.128,397.738 80.327,399.361 79.549,400.985 C 79.686,401.442 79.847,401.922 79.984,402.402 C 80.67,402.745 81.356,403.112 82.064,403.477 C 82.407,402.768 82.773,402.06 83.139,401.374 C 82.933,401.214 82.316,400.894 82.064,400.825 C 82.476,400.002 82.888,399.202 83.299,398.401 C 83.368,398.401 83.459,398.401 83.55,398.424 C 85.791,399.567 88.055,400.711 90.318,401.876 C 90.318,402.243 89.358,404.209 89.084,404.346 C 87.551,403.592 87.551,403.592 87.163,403.477 C 86.797,404.163 86.454,404.871 86.111,405.58 C 87.049,406.038 87.986,406.518 88.946,406.998 C 90.203,406.609 90.203,406.609 90.455,406.472 C 92.718,402.082 92.718,402.082 92.833,401.716"
       id="path791"
       style="fill:#231f20;fill-opacity:1;fill-rule:nonzero;stroke:none" /><path
       d="M 89.449,408.461 C 88.809,408.14 88.169,407.844 87.551,407.547 C 87.414,407.775 87.277,408.003 87.14,408.255 C 84.785,407.066 82.43,405.877 80.075,404.712 C 80.19,404.414 80.303,404.139 80.418,403.865 C 79.778,403.568 79.115,403.271 78.475,402.973 C 77.857,404.185 77.264,405.42 76.669,406.654 C 77.264,406.952 77.881,407.249 78.498,407.569 C 78.635,407.569 78.91,406.952 78.978,406.837 C 79.778,407.249 80.578,407.66 81.401,408.072 C 81.081,408.689 80.761,409.306 80.464,409.947 C 79.869,409.947 78.589,409.1 77.994,408.804 C 78.063,408.644 78.406,408.072 78.337,407.935 C 77.697,407.615 77.058,407.295 76.417,406.997 C 75.8,408.232 75.183,409.467 74.588,410.701 C 75.16,410.976 75.891,411.502 76.532,411.615 C 76.645,411.387 76.76,411.159 76.875,410.953 C 79.206,412.119 81.515,413.285 83.871,414.474 C 83.871,414.817 83.619,415.023 83.619,415.342 C 84.213,415.616 84.831,415.914 85.448,416.211 C 85.494,416.142 85.563,416.096 85.631,416.051 C 87.346,412.667 87.346,412.667 87.346,412.553 C 86.728,412.233 86.088,411.799 85.402,411.639 C 85.288,411.89 85.173,412.141 85.059,412.393 C 84.26,411.982 83.459,411.57 82.659,411.181 C 82.59,411.113 82.521,411.044 82.453,410.998 C 82.75,410.381 83.07,409.787 83.391,409.192 C 84.282,409.398 85.151,409.993 85.974,410.404 C 85.974,410.679 85.768,410.953 85.653,411.204 C 86.271,411.524 86.888,411.845 87.529,412.165 C 88.169,410.93 88.809,409.695 89.449,408.461"
       id="path795"
       style="fill:#231f20;fill-opacity:1;fill-rule:nonzero;stroke:none" /><path
       d="M 87.894,424.968 C 87.894,424.99 87.894,425.014 87.894,425.036 C 88.26,425.219 88.511,425.996 88.695,426.385 C 88.695,425.813 88.58,425.264 88.465,424.693 C 88.489,424.693 88.534,424.693 88.58,424.693 C 89.06,425.402 88.9,426.774 88.945,427.573 C 88.969,427.711 88.992,427.871 89.037,428.054 C 89.106,427.94 89.106,427.94 89.197,426.27 C 89.152,426.042 89.106,425.836 89.083,425.631 C 89.083,425.173 89.083,424.716 89.106,424.282 C 89.289,423.344 89.197,422.406 88.603,421.607 C 88.077,421.676 88.009,421.858 87.642,422.27 C 87.529,422.27 87.414,422.293 87.323,422.316 C 87.003,422.178 87.003,422.178 86.454,421.767 C 86.523,422.612 86.568,422.933 87.346,423.23 C 87.437,423.298 87.529,423.367 87.642,423.459 C 87.62,423.481 87.597,423.527 87.574,423.572 C 87.071,423.572 86.843,423.322 86.43,423.024 C 86.43,423.802 86.614,424.396 87.414,424.534 C 87.574,424.671 87.734,424.808 87.894,424.968"
       id="path799"
       style="fill:#ffffff;fill-opacity:1;fill-rule:nonzero;stroke:none" /><path
       d="M 89.037,428.055 C 88.992,427.871 88.969,427.712 88.946,427.574 C 88.878,427.574 88.717,426.82 88.146,425.539 C 88.031,425.38 87.917,425.219 87.826,425.082 C 87.848,425.06 87.872,425.037 87.894,425.037 C 87.894,425.014 87.894,424.991 87.894,424.969 C 87.277,424.831 86.66,424.419 86.111,424.099 C 86.363,425.243 86.431,425.403 87.505,425.745 C 88.009,426.157 88.261,426.774 88.535,427.323 C 88.672,427.689 88.809,428.101 88.946,428.466 C 88.969,428.306 88.992,428.169 89.037,428.055"
       id="path803"
       style="fill:#ffffff;fill-opacity:1;fill-rule:nonzero;stroke:none" /><path
       d="M 87.894,425.036 C 87.872,425.036 87.848,425.059 87.826,425.082 C 87.917,425.219 88.031,425.379 88.146,425.538 C 88.717,426.819 88.877,427.573 88.945,427.573 C 88.9,426.774 89.06,425.402 88.58,424.693 C 88.534,424.693 88.489,424.693 88.465,424.693 C 88.58,425.264 88.695,425.813 88.695,426.385 C 88.511,425.996 88.26,425.219 87.894,425.036"
       id="path807"
       style="fill:#484749;fill-opacity:1;fill-rule:nonzero;stroke:none" /><path
       d="M 88.031,431.552 C 87.414,431.667 87.186,432.398 87.642,432.855 C 87.757,432.421 87.894,431.986 88.031,431.552"
       id="path811"
       style="fill:#231f20;fill-opacity:1;fill-rule:evenodd;stroke:none" /><path
       d="M 53.90625,52.25 C 52.56375,52.9075 51.21875,53.563751 49.875,54.25 C 50.075,55.0775 50.597502,55.88375 50.96875,56.65625 C 51.14,56.68375 51.13875,56.66875 51.625,56.46875 C 52.425,59.75625 53.265,63.026251 54.09375,66.3125 C 53.8075,66.455 53.801252,66.461249 53.6875,66.71875 C 54.0575,67.4625 54.441251,68.1975 54.8125,68.96875 C 55.955,68.36875 57.079998,67.756253 58.25,67.15625 C 58.25,66.55625 57.38,65.325 57.09375,64.78125 C 56.9225,64.8675 56.737502,64.946251 56.59375,65.03125 C 56.4525,64.68875 56.467501,64.699996 56.4375,64.15625 C 57.01,63.8425 57.618748,63.53625 58.21875,63.25 C 58.39,63.42125 58.5475,63.5775 58.71875,63.75 C 58.63375,64.035 58.281249,64.058747 58.28125,64.34375 C 58.625,65.0875 59.003749,65.818751 59.375,66.5625 C 60.575,65.93375 61.8025,65.320003 63.03125,64.71875 C 62.63,63.9475 62.2775,63.179999 61.90625,62.4375 C 61.5925,62.46625 61.5625,62.555002 61.25,62.46875 C 59.10625,60.01125 56.961248,57.586249 54.875,55.15625 C 54.8175,55.0425 54.74625,54.961249 54.71875,54.875 C 54.8325,54.76125 54.948751,54.678748 55.0625,54.59375 C 54.66125,53.7925 54.278748,53.021248 53.90625,52.25 z M 55.46875,59.96875 C 55.927501,60.511251 56.35625,61.05125 56.8125,61.59375 C 56.441251,61.907501 56.44625,61.90125 55.875,62.1875 C 55.761248,61.614999 55.355,60.51125 55.46875,59.96875 z"
       transform="matrix(0,0.8,0.8,0,29.867,373.326)"
       id="path815"
       style="fill:#231f20;fill-opacity:1;fill-rule:nonzero;stroke:none" /><path
       d="M 82.796,389.645 C 81.607,389.691 80.441,389.736 79.297,389.782 C 78.406,391.748 77.514,393.715 76.623,395.681 C 79.343,395.566 79.343,395.566 79.847,395.475 C 80.807,393.531 81.79,391.589 82.796,389.645"
       id="path819"
       style="fill:#ffffff;fill-opacity:1;fill-rule:nonzero;stroke:none" /><path
       d="M 81.652,384.044 C 80.487,383.701 80.487,383.701 79.961,383.633 C 75.251,383.816 75.251,383.816 74.862,383.884 C 73.971,385.827 73.079,387.771 72.188,389.737 C 74.497,389.646 76.806,389.554 79.138,389.463 C 79.961,387.656 80.807,385.851 81.652,384.044"
       id="path823"
       style="fill:#ffffff;fill-opacity:1;fill-rule:nonzero;stroke:none" /><path
       d="M 81.218,424.556 C 80.579,424.236 79.916,423.802 79.23,423.664 C 78.978,424.191 78.978,424.191 78.818,424.35 C 76.463,423.161 74.132,421.973 71.799,420.783 C 72.165,420.052 72.165,420.052 72.142,419.96 C 71.891,419.823 70.496,418.955 70.267,419.069 C 70.084,419.458 68.621,421.926 68.758,422.224 C 69.947,423.436 71.136,424.647 72.325,425.883 C 72.325,425.905 72.325,425.927 72.325,425.974 C 71.479,425.562 70.633,425.151 69.81,424.739 C 70.107,424.007 70.107,424.007 70.084,423.893 C 69.467,423.573 68.85,423.276 68.233,422.979 C 68.072,423.436 68.072,423.436 66.38,426.751 C 66.998,427.049 67.615,427.323 68.233,427.666 C 68.37,427.414 68.53,427.162 68.689,426.911 C 71.022,428.1 73.376,429.311 75.731,430.523 C 75.411,431.163 75.411,431.163 75.411,431.3 C 76.006,431.598 76.6,431.895 77.218,432.215 C 77.354,432.215 78.841,429.54 78.75,429.243 C 77.264,427.757 75.8,426.294 74.337,424.83 C 74.474,424.83 77.446,426.362 77.72,426.454 C 77.72,426.728 77.583,426.934 77.469,427.185 C 79.184,428.077 79.184,428.077 79.435,428.123 C 80.007,426.911 80.601,425.745 81.218,424.556"
       id="path827"
       style="fill:#231f20;fill-opacity:1;fill-rule:nonzero;stroke:none" /><path
       d="M 65.946,432.536 C 65.924,432.467 65.924,432.467 66.815,430.753 C 67.043,430.798 67.043,430.798 68.233,431.392 C 68.552,430.706 68.872,430.043 69.193,429.381 C 68.072,428.832 66.975,428.283 65.878,427.734 C 64.78,429.837 63.683,431.941 62.608,434.044 C 63.272,434.387 63.934,434.73 64.597,435.073 C 64.963,435.073 73.491,435.073 73.468,435.119 C 73.216,435.599 72.988,436.079 72.759,436.583 C 72.508,436.514 72.508,436.514 71.091,435.782 C 70.13,437.634 70.13,437.634 70.062,437.886 C 71.228,438.457 72.393,439.052 73.582,439.646 C 74.634,437.543 75.709,435.439 76.784,433.358 C 76.784,433.13 75.229,432.467 74.977,432.352 C 74.543,432.33 68.278,432.467 65.946,432.536"
       id="path835"
       style="fill:#231f20;fill-opacity:1;fill-rule:nonzero;stroke:none" /><path
       d="M 76.486,402.06 C 75.479,402.082 74.497,402.105 73.513,402.151 C 72.599,404.094 71.708,406.038 70.816,408.004 C 71.708,407.981 72.599,407.958 73.491,407.936 C 74.473,405.969 75.479,404.003 76.486,402.06"
       id="path839"
       style="fill:#ffffff;fill-opacity:1;fill-rule:nonzero;stroke:none" /><path
       d="M 76.097,395.979 C 69.307,396.23 69.307,396.23 69.078,396.299 C 68.163,398.241 67.272,400.185 66.38,402.152 C 68.712,402.037 71.044,401.923 73.376,401.809 C 74.267,399.865 75.183,397.922 76.097,395.979"
       id="path843"
       style="fill:#ffffff;fill-opacity:1;fill-rule:nonzero;stroke:none" /><path
       d="M 75.274,382.352 C 73.239,381.918 71.204,381.483 69.169,381.072 C 69.1,381.072 69.032,381.072 68.964,381.094 C 68.552,381.987 68.141,382.901 67.752,383.816 C 70.084,383.724 72.416,383.633 74.771,383.564 C 74.931,383.152 75.091,382.741 75.274,382.352"
       id="path847"
       style="fill:#ffffff;fill-opacity:1;fill-rule:nonzero;stroke:none" /><path
       d="M 73.468,435.119 C 73.491,435.073 73.24,435.096 73.468,435.119"
       id="path851"
       style="fill:#d9dbdc;fill-opacity:1;fill-rule:nonzero;stroke:none" /><path
       d="M 73.102,440.56 C 71.456,439.715 71.456,439.715 71.135,439.623 C 71.021,439.852 70.907,440.08 70.815,440.308 C 69.123,439.509 63.819,436.811 63.705,436.696 C 63.819,436.444 63.934,436.216 64.071,435.988 C 63.911,435.668 62.631,435.028 62.151,434.958 C 60.961,437.291 59.773,439.623 58.584,441.978 C 58.584,442.024 58.584,442.092 58.584,442.161 C 59.041,442.367 61.328,443.738 61.693,443.624 C 62.014,442.96 62.333,442.298 62.676,441.657 C 62.539,441.383 61.83,441.177 61.556,441.063 C 61.556,440.926 61.556,440.926 62.562,439.006 C 62.927,438.822 64.734,439.943 65.146,440.149 C 64.871,440.697 64.597,441.269 64.345,441.841 C 64.962,442.138 65.58,442.458 66.22,442.778 C 66.402,442.412 66.792,441.361 67.134,441.2 C 67.981,441.635 68.826,442.069 69.695,442.527 C 69.329,443.212 68.964,443.898 68.621,444.607 C 68.118,444.378 67.614,444.15 67.134,443.921 C 66.997,444.196 66.06,445.75 66.174,446.001 C 68.689,447.328 68.689,447.328 69.466,447.647 C 70.678,445.27 71.89,442.915 73.102,440.56"
       id="path855"
       style="fill:#231f20;fill-opacity:1;fill-rule:nonzero;stroke:none" /><path
       d="M 71.662,390.056 C 69.33,390.147 66.997,390.24 64.666,390.331 C 63.752,392.251 62.837,394.195 61.945,396.138 C 62.379,396.138 62.814,396.161 63.248,396.183 C 68.804,395.955 68.804,395.955 68.941,395.886 C 69.832,393.943 70.748,392 71.662,390.056"
       id="path859"
       style="fill:#ffffff;fill-opacity:1;fill-rule:nonzero;stroke:none" /><path
       d="M 70.244,408.37 C 67.957,408.416 65.58,408.438 63.294,408.666 C 62.379,410.61 61.488,412.554 60.596,414.497 C 62.905,414.406 65.214,414.337 67.523,414.268 C 68.415,412.302 69.33,410.336 70.244,408.37"
       id="path863"
       style="fill:#ffffff;fill-opacity:1;fill-rule:nonzero;stroke:none" /><path
       d="M 66.083,418.177 C 66.815,418.177 67.547,418.177 68.278,418.177 C 68.895,416.943 69.535,415.708 70.176,414.497 C 69.352,414.519 68.53,414.542 67.729,414.588 C 67.18,415.777 66.632,416.965 66.083,418.177"
       id="path867"
       style="fill:#ffffff;fill-opacity:1;fill-rule:nonzero;stroke:none" /><path
       d="M 94.65625,31.5 C 94.28625,31.615 94.2675,31.619998 87.09375,35.25 C 87.2075,35.65 88.034998,37.687502 88.40625,37.6875 C 88.6625,37.51625 88.963747,37.392498 89.25,37.25 C 90.735,40.19375 92.234998,43.118749 93.75,46.0625 C 93.435,46.205 93.126253,46.358749 92.8125,46.53125 C 93.2125,47.33 93.629998,48.169998 94.03125,49 C 95.54625,48.2 97.047501,47.428749 98.5625,46.65625 C 98.42,45.885 97.842496,45.027498 97.5,44.3125 C 97.12875,44.34125 96.843748,44.562498 96.5,44.5625 C 96.10125,43.76125 95.062497,42.235002 95.0625,41.40625 C 96.12125,42.15 97.194998,42.913749 98.28125,43.65625 C 98.28125,43.68375 98.281248,43.72375 98.28125,43.78125 C 98.1675,43.8375 98.051247,43.911251 97.9375,43.96875 C 97.82375,44.3675 98.841252,46.232502 99.15625,46.375 C 102.21375,44.80375 102.2125,44.807502 102.8125,44.40625 C 101.8975,42.4925 101.91,42.493749 101.625,42.09375 C 101.3375,42.23625 101.34375,42.250001 101.03125,42.25 C 97.8,40.10625 97.803749,40.111248 97.71875,39.96875 C 97.975,39.7975 98.214996,39.643749 98.5,39.5 C 98.7,38.87125 99.156252,37.998752 99.15625,37.3125 C 98.2975,35.62625 97.451247,33.968749 96.59375,32.3125 C 95.9375,32.02625 95.286253,31.757499 94.65625,31.5 z M 94.28125,34.78125 C 94.76625,35.72375 95.2325,36.6825 95.71875,37.625 C 95.718753,38.053749 94.05625,38.675 93.65625,38.875 C 93.141253,37.90375 92.61125,36.93875 92.125,35.96875 C 92.382503,35.424999 93.71,35.03875 94.28125,34.78125 z"
       transform="matrix(0,0.8,0.8,0,29.867,373.326)"
       id="path871"
       style="fill:#231f20;fill-opacity:1;fill-rule:nonzero;stroke:none" /><path
       d="M 51.382,419.183 C 51.382,420.166 51.382,421.15 51.404,422.132 C 51.404,422.453 51.404,422.796 51.404,423.138 C 51.404,423.39 51.404,423.642 51.404,423.916 C 51.679,431.346 52.182,438.891 53.988,446.161 C 58.584,437.108 63.202,428.077 67.82,419.046 C 62.333,419.024 56.846,419 51.382,419 C 51.382,419.046 51.382,419.115 51.382,419.183"
       id="path875"
       style="fill:#d71920;fill-opacity:1;fill-rule:nonzero;stroke:none" /><path
       d="M 67.226,384.135 C 64.895,384.204 62.562,384.295 60.23,384.387 C 59.316,386.33 58.401,388.296 57.487,390.262 C 59.704,390.171 61.923,390.102 64.14,390.034 C 64.254,389.988 64.391,389.965 64.528,389.943 C 65.42,387.999 66.312,386.055 67.226,384.135"
       id="path879"
       style="fill:#ffffff;fill-opacity:1;fill-rule:nonzero;stroke:none" /><path
       d="M 65.878,402.493 C 63.591,402.493 61.122,402.447 58.859,402.745 C 57.944,404.688 57.03,406.632 56.138,408.575 C 56.229,408.62 56.229,408.62 63.134,408.324 C 64.048,406.38 64.963,404.437 65.878,402.493"
       id="path883"
       style="fill:#ffffff;fill-opacity:1;fill-rule:nonzero;stroke:none" /><path
       d="M 61.991,379.997 C 60.505,379.837 59.019,379.677 57.556,379.517 C 56.824,381.368 56.824,381.368 55.818,384.272 C 57.235,384.204 58.653,384.135 60.071,384.067 C 60.711,382.695 61.351,381.346 61.991,379.997"
       id="path887"
       style="fill:#ffffff;fill-opacity:1;fill-rule:nonzero;stroke:none" /><path
       d="M 61.419,396.55 C 59.064,396.641 56.732,396.733 54.4,396.824 C 53.669,398.401 52.937,399.98 52.205,401.557 C 52.16,401.922 52.114,402.288 52.091,402.677 C 54.286,402.563 56.48,402.471 58.698,402.38 C 59.59,400.436 60.505,398.493 61.419,396.55"
       id="path891"
       style="fill:#ffffff;fill-opacity:1;fill-rule:nonzero;stroke:none" /><path
       d="M 51.702,418.177 C 53.989,418.177 56.274,418.177 58.561,418.177 C 59.064,417.057 59.567,415.937 60.093,414.84 C 57.761,414.931 55.429,415.023 53.097,415.114 C 52.616,416.12 52.16,417.149 51.702,418.177"
       id="path899"
       style="fill:#ffffff;fill-opacity:1;fill-rule:nonzero;stroke:none" /><path
       d="M 56.984,390.582 C 56.001,390.629 55.017,390.674 54.035,390.72 C 53.303,394.195 53.303,394.195 52.892,396.55 C 54.126,396.527 54.126,396.527 54.286,396.458 C 55.177,394.492 56.07,392.526 56.984,390.582"
       id="path903"
       style="fill:#ffffff;fill-opacity:1;fill-rule:nonzero;stroke:none" /><path
       d="M 46.467,378.922 C 45.529,378.922 44.592,378.922 43.655,378.922 C 42.214,378.945 42.214,378.945 41.963,379.013 C 41.003,381.46 40.11,383.929 39.287,386.444 C 39.037,387.404 38.785,388.364 38.533,389.325 C 37.619,393.6 37.619,393.6 37.55,393.668 C 36.819,398.15 36.819,398.15 36.43,401.076 C 36.224,403.042 36.018,405.032 35.835,407.021 C 35.675,410.792 35.561,414.588 35.561,418.36 C 35.561,418.566 35.561,418.75 35.561,418.955 C 35.538,421.652 35.538,421.652 35.653,426.911 C 35.927,430.82 36.224,434.753 36.75,438.639 C 37.115,440.697 37.482,442.755 37.847,444.812 C 38.922,449.362 40.225,453.706 41.986,458.027 C 42.694,458.027 43.403,458.027 44.135,458.05 C 44.454,458.05 44.775,458.05 45.095,458.05 C 45.529,458.05 45.964,458.05 46.421,458.05 C 46.626,458.05 47.747,458.05 47.975,458.05 C 47.999,458.05 51.45,451.191 53.166,447.83 C 52.48,444.493 51.793,441.131 51.291,437.771 C 51.062,435.713 50.833,433.678 50.627,431.643 C 49.828,417.834 49.896,403.705 52.96,390.102 C 53.646,387.473 54.423,384.867 55.246,382.283 C 55.612,381.322 55.978,380.386 56.343,379.448 C 55.132,379.174 53.714,379.174 52.48,379.105 C 50.468,379.037 48.456,378.968 46.467,378.922"
       id="path907"
       style="fill:#ffffff;fill-opacity:1;fill-rule:nonzero;stroke:none" /><path
       d="M 51.428,412.897 C 51.428,413.102 51.428,413.308 51.428,413.514 C 51.405,413.948 51.382,414.383 51.382,414.817 C 51.885,414.794 52.388,414.772 52.914,414.748 C 53.12,414.429 53.12,414.429 55.635,408.964 C 54.263,408.987 52.914,409.033 51.565,409.079 C 51.519,410.336 51.474,411.616 51.428,412.897"
       id="path911"
       style="fill:#ffffff;fill-opacity:1;fill-rule:nonzero;stroke:none" /><path
       d="M 45.507,383.175 C 45.141,383.175 44.775,383.175 44.432,383.175 C 44.478,382.969 44.524,382.786 44.569,382.604 C 44.089,382.604 43.609,382.604 43.129,382.604 C 42.786,384.387 42.283,386.216 42.032,387.999 C 42.786,387.999 43.54,387.999 44.295,387.999 C 44.387,387.473 44.5,386.97 44.615,386.467 C 44.318,386.444 44.043,386.422 43.769,386.422 C 43.861,385.873 43.974,385.324 44.089,384.798 C 44.684,384.798 45.278,384.798 45.872,384.821 C 45.781,385.21 45.712,385.621 45.644,386.033 C 46.101,386.033 46.558,386.033 47.015,386.033 C 47.084,385.621 47.176,385.21 47.267,384.798 C 47.884,384.798 48.502,384.798 49.142,384.798 C 49.096,384.982 49.074,385.164 49.05,385.37 C 49.508,385.37 49.965,385.37 50.422,385.37 C 50.605,384.433 50.788,383.518 50.994,382.604 C 50.537,382.604 50.079,382.604 49.622,382.604 C 49.576,382.786 49.53,382.969 49.508,383.175 C 48.159,383.175 46.833,383.175 45.507,383.175"
       id="path915"
       style="fill:#d71920;fill-opacity:1;fill-rule:nonzero;stroke:none" /><path
       d="M 50.079,448.608 C 49.621,448.608 49.165,448.631 48.707,448.654 C 48.73,448.792 48.752,448.929 48.776,449.088 C 47.084,449.088 45.392,449.088 43.7,449.088 C 43.654,448.929 43.631,448.768 43.609,448.608 C 43.928,448.586 44.249,448.562 44.569,448.562 C 44.477,448.128 44.386,447.694 44.295,447.259 C 44.02,447.259 42.488,447.259 41.986,447.259 C 42.328,449.02 42.694,450.78 43.06,452.563 C 43.815,452.563 44.592,452.563 45.369,452.563 C 45.277,452.129 45.186,451.694 45.095,451.26 C 44.775,451.238 44.454,451.214 44.134,451.214 C 44.089,451.077 44.065,450.94 44.043,450.803 C 45.735,450.78 47.427,450.758 49.141,450.758 C 49.165,450.94 49.187,451.123 49.233,451.329 C 49.69,451.306 50.147,451.283 50.605,451.283 C 50.422,450.391 50.239,449.5 50.079,448.608"
       id="path919"
       style="fill:#d71920;fill-opacity:1;fill-rule:nonzero;stroke:none" /><path
       d="M 49.119,388.41 C 48.181,388.41 43.815,388.41 42.58,388.41 C 42.214,388.753 41.986,388.89 41.802,389.142 C 41.62,390.24 41.437,391.359 41.254,392.48 C 41.254,392.914 41.528,393.143 41.78,393.463 C 42.282,393.463 42.808,393.463 43.334,393.463 C 43.403,392.96 43.472,392.458 43.563,391.954 C 43.311,391.908 43.06,391.863 42.808,391.84 C 42.9,391.222 42.992,390.629 43.083,390.034 C 44.547,390.011 46.009,389.988 47.495,389.988 C 47.701,389.988 47.907,389.988 48.136,389.988 C 48.021,390.605 47.929,391.222 47.838,391.84 C 47.381,391.84 46.924,391.84 46.467,391.863 C 46.376,392.389 46.284,392.914 46.215,393.463 C 46.878,393.463 47.564,393.463 48.25,393.463 C 48.524,393.188 48.822,392.914 49.119,392.64 C 49.302,391.451 49.484,390.286 49.667,389.119 C 49.484,388.868 49.302,388.639 49.119,388.41"
       id="path923"
       style="fill:#d71920;fill-opacity:1;fill-rule:nonzero;stroke:none" /><path
       d="M 48.822,441.27 C 48.616,441.27 47.702,441.27 47.473,441.27 C 47.496,441.453 47.519,441.635 47.541,441.841 C 46.993,441.841 43.609,441.841 42.466,441.841 C 42.421,441.635 42.397,441.453 42.374,441.27 C 41.894,441.27 41.414,441.27 40.934,441.27 C 41.186,442.756 41.437,444.264 41.689,445.773 C 41.986,446.094 42.283,446.414 42.58,446.757 C 44.706,446.757 46.833,446.757 48.959,446.757 C 49.211,446.39 49.439,446.047 49.53,445.636 C 49.28,444.173 49.05,442.71 48.822,441.27"
       id="path927"
       style="fill:#d71920;fill-opacity:1;fill-rule:nonzero;stroke:none" /><path
       d="M 49.119,388.41 C 48.181,388.388 48.181,388.41 49.119,388.41"
       id="path931"
       style="fill:#df725a;fill-opacity:1;fill-rule:nonzero;stroke:none" /><path
       d="M 48.822,441.27 C 48.616,441.247 48.616,441.27 48.822,441.27"
       id="path935"
       style="fill:#f2caba;fill-opacity:1;fill-rule:nonzero;stroke:none" /><path
       d="M 46.993,437.84 C 47.45,437.84 47.907,437.84 48.364,437.84 C 48.273,437.108 48.182,436.4 48.113,435.69 C 47.656,435.69 47.199,435.69 46.765,435.69 C 46.765,435.782 46.765,435.873 46.765,435.988 C 45.118,436.376 43.472,436.765 41.826,437.154 C 41.803,437.063 41.803,436.971 41.803,436.879 C 41.552,436.879 40.614,436.879 40.386,436.879 C 40.477,437.68 40.591,438.503 40.705,439.326 C 41.163,439.326 41.62,439.326 42.078,439.326 C 42.078,439.235 42.1,439.143 42.123,439.074 C 43.838,439.509 45.553,439.943 47.29,440.401 C 47.313,440.492 47.358,440.583 47.404,440.697 C 47.838,440.697 48.296,440.697 48.753,440.697 C 48.662,439.966 48.57,439.235 48.479,438.503 C 47.999,438.503 47.541,438.503 47.084,438.503 C 47.084,438.617 47.107,438.731 47.13,438.868 C 46.97,438.823 46.81,438.777 46.672,438.731 C 46.627,438.366 46.581,437.999 46.535,437.656 C 46.672,437.588 46.81,437.543 46.97,437.497 C 46.97,437.611 46.97,437.725 46.993,437.84"
       id="path939"
       style="fill:#d71920;fill-opacity:1;fill-rule:nonzero;stroke:none" /><path
       d="M 48.411,397.327 C 47.953,397.327 47.496,397.327 47.039,397.327 C 47.015,397.51 46.993,397.692 46.97,397.898 C 45.278,397.898 43.586,397.898 41.894,397.898 C 41.894,397.692 41.917,397.486 41.941,397.304 C 41.826,397.304 41.711,397.304 41.62,397.304 C 41.255,397.304 40.912,397.304 40.569,397.327 C 40.454,398.241 40.34,399.156 40.225,400.093 C 40.683,400.093 41.163,400.093 41.643,400.093 C 41.666,399.91 41.689,399.727 41.711,399.567 C 43.381,399.567 45.073,399.567 46.765,399.567 C 46.741,399.727 46.719,399.91 46.696,400.093 C 47.153,400.093 47.634,400.093 48.114,400.093 C 48.205,399.156 48.296,398.241 48.411,397.327"
       id="path943"
       style="fill:#d71920;fill-opacity:1;fill-rule:nonzero;stroke:none" /><path
       d="M 47.473,441.27 C 47.701,441.27 47.701,441.247 47.473,441.27"
       id="path947"
       style="fill:#e89c84;fill-opacity:1;fill-rule:nonzero;stroke:none" /><path
       d="M 46.558,401.237 C 46.078,401.237 45.598,401.259 45.118,401.282 C 43.906,401.282 42.694,401.282 41.506,401.282 C 41.506,401.077 41.528,400.871 41.551,400.665 C 41.071,400.665 40.613,400.688 40.156,400.711 C 39.951,402.632 39.951,402.632 39.973,403.088 C 40.979,403.455 41.986,403.82 42.991,404.185 C 42.991,404.185 43.083,404.231 41.163,404.278 C 41.163,404.209 41.163,404.14 41.185,404.094 C 41.185,403.957 41.208,403.82 41.231,403.705 C 40.774,403.705 40.316,403.705 39.859,403.705 C 39.79,404.643 39.721,405.58 39.653,406.518 C 40.11,406.518 40.568,406.518 41.048,406.518 C 41.048,406.312 41.071,406.129 41.094,405.946 C 42.762,405.946 44.432,405.946 46.124,405.946 C 46.1,406.129 46.1,406.312 46.1,406.518 C 46.558,406.518 47.038,406.518 47.518,406.518 C 47.678,404.415 47.678,404.415 47.633,404.231 C 46.398,403.774 45.163,403.34 43.952,402.906 C 44.751,402.906 45.552,402.928 46.375,402.951 C 46.375,403.088 46.375,403.225 46.375,403.386 C 46.832,403.386 47.29,403.386 47.77,403.386 C 47.861,402.471 47.953,401.557 48.044,400.665 C 47.564,400.665 47.084,400.665 46.604,400.665 C 46.58,400.848 46.558,401.031 46.558,401.237"
       id="path951"
       style="fill:#d71920;fill-opacity:1;fill-rule:nonzero;stroke:none" /><path
       d="M 47.792,443.51 C 46.1,443.51 44.408,443.51 42.716,443.51 C 42.785,443.99 42.877,444.47 42.968,444.974 C 43.745,444.974 47.129,444.974 48.044,444.974 C 47.952,444.47 47.861,443.99 47.792,443.51"
       id="path955"
       style="fill:#ffffff;fill-opacity:1;fill-rule:nonzero;stroke:none" /><path
       d="M 47.655,431.118 C 47.198,431.118 46.741,431.118 46.284,431.118 C 46.284,431.278 46.306,431.438 46.329,431.598 C 44.614,431.598 42.922,431.598 41.23,431.598 C 41.208,431.438 41.208,431.301 41.208,431.164 C 41.505,431.141 41.802,431.118 42.123,431.118 C 42.077,430.66 42.054,430.226 42.031,429.791 C 41.254,429.791 40.476,429.791 39.699,429.791 C 39.859,431.552 40.019,433.312 40.179,435.096 C 40.956,435.119 41.734,435.142 42.511,435.165 C 42.466,434.708 42.42,434.273 42.397,433.839 C 42.077,433.816 41.756,433.792 41.436,433.792 C 41.413,433.633 41.413,433.473 41.413,433.312 C 43.083,433.312 44.775,433.312 46.466,433.312 C 46.466,433.473 46.489,433.655 46.512,433.839 C 46.969,433.839 47.449,433.839 47.929,433.839 C 47.838,432.924 47.746,432.01 47.655,431.118"
       id="path959"
       style="fill:#d71920;fill-opacity:1;fill-rule:nonzero;stroke:none" /><path
       d="M 46.421,424.237 C 45.895,424.237 45.392,424.237 44.888,424.237 C 44.912,424.763 44.934,425.289 44.98,425.814 C 45.301,425.814 45.62,425.837 45.941,425.86 C 45.963,426.477 45.987,427.072 46.032,427.689 C 45.392,427.689 44.751,427.667 44.134,427.62 C 44.065,426.752 44.02,425.86 43.974,424.969 C 43.723,424.717 43.494,424.465 43.266,424.237 C 42.191,424.237 41.117,424.237 40.064,424.237 C 39.859,424.465 39.653,424.694 39.471,424.922 C 39.584,428.101 39.584,428.101 39.653,428.535 C 39.927,428.809 40.201,429.083 40.476,429.357 C 40.979,429.357 41.482,429.357 41.986,429.357 C 41.94,428.786 41.917,428.238 41.893,427.689 C 41.574,427.689 41.276,427.689 40.979,427.689 C 40.933,427.072 40.911,426.477 40.888,425.86 C 41.459,425.86 42.031,425.86 42.625,425.86 C 42.648,426.798 42.694,427.712 42.854,428.627 C 43.083,428.855 43.311,429.083 43.563,429.312 C 44.638,429.312 45.712,429.312 46.81,429.312 C 47.015,429.083 47.221,428.855 47.427,428.627 C 47.358,427.437 47.29,426.225 47.221,425.014 C 46.947,424.739 46.672,424.488 46.421,424.237"
       id="path963"
       style="fill:#d71920;fill-opacity:1;fill-rule:nonzero;stroke:none" /><path
       d="M 46.787,406.906 C 44.593,406.906 42.421,406.906 40.249,406.906 C 40.019,407.112 39.791,407.317 39.585,407.546 C 39.517,408.804 39.265,410.312 39.426,411.547 C 39.631,411.776 39.837,412.004 40.043,412.232 C 40.546,412.232 41.049,412.232 41.552,412.232 C 41.574,411.684 41.62,411.135 41.666,410.61 C 41.392,410.61 41.117,410.61 40.842,410.61 C 40.866,409.901 40.888,409.215 40.934,408.529 C 42.603,408.529 44.295,408.529 45.987,408.529 C 45.942,409.215 45.918,409.901 45.896,410.61 C 45.438,410.61 45.004,410.61 44.569,410.61 C 44.569,410.153 44.593,409.718 44.615,409.284 C 44.135,409.284 43.655,409.284 43.198,409.284 C 43.152,409.992 43.106,410.701 43.083,411.433 C 43.312,411.684 43.564,411.958 43.815,412.232 C 44.706,412.232 45.598,412.232 46.513,412.232 C 46.741,411.982 46.97,411.753 47.221,411.524 C 47.267,410.221 47.336,408.918 47.404,407.638 C 47.199,407.386 46.993,407.134 46.787,406.906"
       id="path967"
       style="fill:#d71920;fill-opacity:1;fill-rule:nonzero;stroke:none" /><path
       d="M 47.153,420.761 C 47.13,420.509 47.106,419.206 47.13,418.817 C 47.13,418.657 47.13,418.543 47.13,418.406 C 46.65,418.406 46.192,418.406 45.735,418.406 C 45.735,418.589 45.735,418.749 45.735,418.954 C 44.043,418.954 42.351,418.954 40.659,418.954 C 40.659,418.749 40.659,418.589 40.659,418.406 C 40.179,418.406 39.699,418.406 39.242,418.406 C 39.242,418.795 39.242,419.206 39.242,419.617 C 39.242,419.892 39.265,420.944 39.287,421.15 C 39.745,421.15 40.225,421.15 40.705,421.15 C 40.683,420.966 40.683,420.783 40.683,420.624 C 42.374,420.624 44.066,420.624 45.757,420.624 C 45.757,421.126 45.757,421.63 45.781,422.132 C 45.438,422.156 45.095,422.178 44.752,422.201 C 44.752,422.704 44.775,423.207 44.797,423.71 C 45.598,423.71 46.398,423.71 47.221,423.71 C 47.199,422.727 47.175,421.744 47.153,420.761"
       id="path971"
       style="fill:#d71920;fill-opacity:1;fill-rule:nonzero;stroke:none" /><path
       d="M 39.265,414.565 C 39.265,414.771 39.265,414.977 39.265,415.182 C 39.265,415.182 39.265,415.205 39.265,415.229 C 39.242,415.503 39.242,415.799 39.242,416.097 C 39.242,416.394 39.242,416.691 39.242,417.011 C 39.471,417.263 39.722,417.538 39.973,417.812 C 42.1,417.812 44.249,417.812 46.398,417.812 C 46.626,417.583 47.038,417.24 47.13,416.943 C 47.106,416.531 47.13,415.205 47.153,414.954 C 47.13,414.428 47.13,413.902 47.13,413.399 C 46.947,413.194 46.764,413.01 46.604,412.827 C 44.409,412.827 42.237,412.827 40.065,412.851 C 39.814,413.101 39.562,413.353 39.311,413.605 C 39.287,413.925 39.265,414.245 39.265,414.565"
       id="path975"
       style="fill:#d71920;fill-opacity:1;fill-rule:nonzero;stroke:none" /><path
       d="M 42.58,388.41 C 43.815,388.41 43.815,388.388 42.58,388.41"
       id="path979"
       style="fill:#e89c84;fill-opacity:1;fill-rule:nonzero;stroke:none" /><path
       d="M 45.804,414.474 C 44.089,414.474 42.397,414.474 40.705,414.474 C 40.705,414.565 40.705,414.657 40.705,414.748 C 40.683,414.977 40.683,415.206 40.683,415.434 C 40.683,415.686 40.683,415.938 40.683,416.188 C 42.374,416.188 44.065,416.188 45.757,416.188 C 45.757,416.12 45.757,416.051 45.757,416.006 C 45.757,415.732 45.757,415.457 45.757,415.182 C 45.757,414.932 45.781,414.702 45.804,414.474"
       id="path983"
       style="fill:#ffffff;fill-opacity:1;fill-rule:nonzero;stroke:none" /><path
       d="M 45.552,438.229 C 45.529,438.091 45.506,437.977 45.506,437.863 C 44.866,438 44.866,438 44.454,438.183 C 44.797,438.275 45.14,438.366 45.506,438.457 C 45.506,438.366 45.529,438.297 45.552,438.229"
       id="path987"
       style="fill:#ffffff;fill-opacity:1;fill-rule:nonzero;stroke:none" /><path
       d="M 96.417,414.126 C 96.417,413.601 96.418998,413.103 96.442,412.601 C 97.791,411.709 99.175998,410.678 100.592,409.901 C 101.05,410.061 101.487,410.243 101.967,410.426 C 101.967,411.089 101.969,411.765 101.992,412.451 C 102.335,412.451 102.701,412.451 103.067,412.451 C 103.067,412.268 103.067,412.036 103.067,411.876 C 103.524,411.876 104.012,411.876 104.492,411.876 C 104.492,412.767 104.492,413.736 104.492,414.651 C 104.012,414.651 103.499,414.651 103.042,414.651 C 103.042,414.651 103.047,414.177 103.042,414.176 C 102.676,414.176 102.335,414.176 101.992,414.176 C 101.969,414.336 101.967,414.492 101.967,414.651 C 101.51,414.651 101.077,414.651 100.642,414.651 C 100.642,414.468 100.642,414.287 100.642,414.126 C 99.225,414.126 97.813002,414.126 96.417,414.126 z M 98.942,412.601 L 100.617,412.601 L 100.617,411.401 L 98.942,412.601 z"
       id="path991"
       style="fill:#ffffff;fill-opacity:1;fill-rule:nonzero;stroke:none" /></g></svg>