<?xml version="1.0" encoding="UTF-8"?>
<!DOCTYPE svg PUBLIC "-//W3C//DTD SVG 1.1//EN" "http://www.w3.org/Graphics/SVG/1.1/DTD/svg11.dtd">
<!-- Creator: CorelDRAW -->
<svg xmlns="http://www.w3.org/2000/svg" xml:space="preserve" width="2362px" height="2337px" shape-rendering="geometricPrecision" text-rendering="geometricPrecision" image-rendering="optimizeQuality" fill-rule="evenodd" clip-rule="evenodd"
viewBox="0 0 2413.74 2388.37"
 xmlns:xlink="http://www.w3.org/1999/xlink">
 <g id="Ebene_x0020_1">
  <metadata id="CorelCorpID_0Corel-Layer"/>
  <path fill="#ECC200" fill-rule="nonzero" d="M1176.21 2378.49c-158.499,-137.652 -320.983,-248.019 -508.302,-343.979 -262.427,-133.972 -491.44,-251.392 -569.615,-578.505 -1.22751,-5.82614 1.53167,-27.8995 4.59742,-33.1113 129.988,-243.726 101.783,-541.412 -91.3594,-744.057 -15.6353,-16.2485 -15.3288,-49.052 0.61315,-65.3005l462.929 -477.032c7.97095,-8.27632 33.7233,-15.6341 45.0666,-12.875 231.771,57.023 461.702,8.27632 661.588,-118.338 11.6511,-7.05123 38.6297,-7.05123 50.2783,0 199.887,126.614 429.818,175.361 661.589,118.338 11.3433,-2.75918 37.0956,4.59863 45.0666,12.875l462.93 477.032c15.9407,16.2485 16.2485,49.052 0.610736,65.3005 -193.141,202.645 -221.346,500.331 -91.357,744.057 3.06454,5.21178 5.82372,27.2852 4.59621,33.1113 -78.1755,327.113 -307.186,444.533 -569.615,578.505 -187.316,95.9592 -349.802,206.326 -508.302,343.979 -15.3288,13.1815 -45.9851,13.1815 -61.3138,0z"/>
  <path fill="#5D3B85" fill-rule="nonzero" d="M1206.87 2280.69c59.7822,-51.1981 121.097,-99.6357 183.331,-144.396 74.4978,-53.3453 151.449,-102.09 231.771,-144.092 26.9786,-14.1025 54.265,-28.2049 81.2424,-41.9996 236.676,-121.097 443.921,-227.172 515.966,-499.718 -132.44,-262.121 -106.382,-575.748 84.3094,-802.92l-413.878 -426.138c-238.208,51.5034 -474.884,3.37233 -682.742,-120.791 -207.858,124.163 -444.534,172.294 -682.743,120.791l-413.876 426.138c190.69,227.172 216.749,540.8 84.3082,802.92 72.0452,272.545 279.29,378.62 515.966,499.718 26.9786,13.7947 54.2638,27.8971 81.2424,41.9996 80.3239,42.002 157.273,90.7463 231.771,144.092 62.2336,44.76 123.551,93.1976 183.332,144.396z"/>
  <path fill="#ECC200" fill-rule="nonzero" d="M1206.87 1775.15c337.539,0 613.15,-275.303 613.15,-612.841 0,-337.847 -275.611,-613.458 -613.15,-613.458 -337.538,0 -613.149,275.611 -613.149,613.458 0,337.538 275.611,612.841 613.149,612.841z"/>
  <path fill="white" fill-rule="nonzero" d="M1206.87 1680.41c285.42,0 518.419,-232.995 518.419,-518.11 0,-285.728 -232.998,-518.726 -518.419,-518.726 -285.421,0 -518.417,232.998 -518.417,518.726 0,285.115 232.996,518.11 518.417,518.11z"/>
  <path fill="#ECC200" fill-rule="nonzero" d="M926.969 1461.83c9.50383,6.74465 19.9274,13.1827 31.5772,18.7011 -0.919726,-0.61315 -2.14603,-1.53167 -3.06454,-2.14603 -9.50383,-6.74465 -19.0089,-13.4881 -28.5127,-16.5551zm66.8346 32.8023l0 0c3.6777,1.22751 7.66317,2.45381 11.3433,3.37233 7.66317,-3.37233 15.3276,-8.88827 22.6854,-14.1013 11.6511,-8.5841 23.2997,-16.8616 34.3364,-16.8616 11.0379,0 22.6866,8.27753 34.3376,16.8616 12.263,8.88947 24.8314,18.0879 38.0141,18.0879 13.1839,0 25.7523,-9.19846 38.3219,-18.0879 11.6486,-8.5841 23.2997,-16.8616 34.0298,-16.8616 10.7301,0 22.3788,8.27753 34.0286,16.8616 12.5696,8.88947 25.1404,18.0879 38.3219,18.0879 13.1839,0 25.7535,-9.19846 38.0165,-18.0879 11.6486,-8.5841 23.2985,-16.8616 34.3364,-16.8616 11.0355,0 22.6866,8.27753 34.3352,16.8616 7.35901,5.21298 15.0222,10.7289 22.6878,14.1013 3.6777,-0.918519 7.66317,-2.14482 11.3433,-3.37233 -9.81161,-1.53167 -19.9286,-8.88827 -30.0444,-16.2473 -12.5708,-9.19726 -25.1392,-18.0879 -38.3219,-18.0879 -13.1839,0 -25.7523,8.89068 -38.0165,18.0879 -11.6499,8.27753 -23.2985,16.8616 -34.3364,16.8616 -11.0355,0 -22.6854,-8.5841 -34.3364,-16.8616 -12.5696,-9.19726 -25.138,-18.0879 -38.0141,-18.0879 -12.8774,0 -25.4457,8.89068 -38.0153,18.0879 -11.6486,8.27753 -23.2997,16.8616 -34.3364,16.8616 -11.0355,0 -22.6866,-8.5841 -34.3364,-16.8616 -12.2618,-9.19726 -24.8326,-18.0879 -38.0153,-18.0879 -13.1815,0 -25.7523,8.89068 -38.3219,18.0879 -10.117,7.35901 -20.234,14.7156 -30.0432,16.2473zm38.6273 10.4248l0 0c9.81161,-6.74465 19.6208,-11.9564 29.7378,-11.9564 13.1827,0 25.7535,8.89068 38.0153,17.7802 11.6499,8.58531 23.3009,16.8616 34.3364,16.8616 11.0367,0 22.6878,-8.27632 34.3364,-16.8616 12.5696,-8.88947 25.138,-17.7802 38.0153,-17.7802 12.8762,0 25.4445,8.89068 38.0141,17.7802 11.6511,8.58531 23.3009,16.8616 34.3364,16.8616 11.0379,0 22.6866,-8.27632 34.3364,-16.8616 12.2642,-8.88947 24.8326,-17.7802 38.0165,-17.7802 10.1158,0 19.9274,5.21178 29.7366,11.9564 -3.06454,0.61315 -6.1315,1.53288 -9.19726,2.14603 -7.05123,-4.29326 -13.7959,-7.3578 -20.5393,-7.3578 -11.0379,0 -22.6878,8.27632 -34.3364,16.5539 -1.53529,1.2263 -3.37233,2.4526 -4.90641,3.68011 -8.27753,2.14482 -16.8616,4.29085 -25.4445,6.74465 -6.13392,1.83945 -11.9564,3.68011 -17.7826,6.1303 -9.50383,-3.06454 -19.0077,-9.81161 -28.2049,-16.5551 -11.6499,-8.27753 -23.2985,-16.5539 -34.0286,-16.5539 -10.7301,0 -22.3812,8.27632 -34.0298,16.5539 -9.19726,6.74345 -18.7011,13.4905 -28.2049,16.5551 -5.82493,-2.45019 -11.6486,-4.29085 -17.7802,-6.1303 -8.5841,-2.45381 -17.1694,-4.59983 -25.4457,-6.74465 -1.53288,-1.22751 -3.37233,-2.45381 -4.9052,-3.68011 -11.6511,-8.27753 -23.2997,-16.5539 -34.3376,-16.5539 -6.74465,0 -13.4893,3.06454 -20.5393,7.3578 -3.06696,-0.61315 -6.1315,-1.53288 -9.19846,-2.14603zm22.9931 4.9052l0 0c2.4526,0.61315 4.90641,1.2263 7.3578,1.53167 6.74465,1.53288 13.7971,3.06696 20.5417,4.59983 -0.614357,-0.614357 -1.22751,-0.919726 -1.84066,-1.22751 -6.43687,-3.37233 -12.8762,-5.51715 -19.3142,-5.51715 -2.45139,0 -4.59742,0.305368 -6.74465,0.61315zm112.514 34.3364l0 0c2.14482,1.2263 4.29085,2.4526 6.1315,3.98548 11.3421,-8.27753 22.3776,-15.9431 32.8023,-15.9431 10.4223,0 21.4603,7.66559 32.8023,15.9431 1.83945,-1.53288 3.98548,-2.75918 6.13271,-3.98548 -0.307782,-0.306575 -0.61315,-0.306575 -0.920933,-0.61315 -12.5696,-8.89068 -25.138,-18.0891 -38.0141,-18.0891 -12.8774,0 -25.4457,9.19846 -38.0153,18.0891 -0.305368,0.306575 -0.61315,0.306575 -0.918519,0.61315zm11.9564 7.97095l0 0c2.45019,-1.53288 4.904,-3.06696 7.35539,-4.29326 6.43808,-3.6777 13.1827,-6.1315 19.622,-6.1315 6.43687,0 13.1815,2.45381 19.6208,6.1315 2.45139,1.2263 4.904,2.76038 7.3578,4.29326 -1.84066,1.53167 -3.68011,3.06454 -5.51835,4.59863 -1.53408,-1.2263 -3.37233,-2.14723 -4.90641,-3.06696 -5.82372,-3.06454 -11.3433,-5.21178 -16.5539,-5.21178 -5.21178,0 -10.7301,2.14723 -16.5563,5.21178 -1.53167,0.919726 -3.37233,1.84066 -4.904,3.06696 -1.84066,-1.53408 -3.68011,-3.06696 -5.51715,-4.59863zm150.526 -36.1759l0 0c6.74465,-1.53288 13.7959,-3.06696 20.5405,-4.59983 2.45381,-0.305368 4.9052,-0.918519 7.3578,-1.53167 -2.14482,-0.307782 -4.29326,-0.61315 -6.74345,-0.61315 -6.43929,0 -12.8762,2.14482 -19.3154,5.51715 -0.61315,0.307782 -1.2263,0.61315 -1.83945,1.22751zm124.776 -35.5627l0 0c11.6499,-5.51835 22.0746,-11.9564 31.5772,-18.7011 -9.50262,3.06696 -19.0065,9.81041 -28.5103,16.5551 -0.920933,0.614357 -2.14723,1.53288 -3.06696,2.14603z"/>
  <path fill="#ECC200" fill-rule="nonzero" d="M960.385 1044.58c2.14603,2.75918 3.98548,5.51715 5.51835,8.5829l3.06696 -1.53288 0 7.3578c4.904,9.81161 7.97095,20.234 8.88947,31.5772 0.306575,3.68011 0.306575,7.3578 0.306575,11.0379l95.958 -50.8915 0 80.0161 -81.8556 0 20.5405 25.7511 -20.5405 25.4457 81.8556 0 0 48.7467 -219.201 116.499c0.61315,3.37233 1.2263,7.05002 2.14603,10.4223l6.74465 -3.6777 0 25.4457c0.61315,1.53167 1.2263,3.37233 2.14723,5.21057 1.22509,3.37233 2.75918,6.43808 4.29085,9.81041 1.22751,3.06696 2.75918,5.82614 4.59983,8.89068l199.273 -106.382 0 133.055c-19.3142,-7.05244 -34.9496,4.904 -50.2783,15.6341 -11.6499,8.5841 -22.9931,16.8616 -34.0286,16.8616 -11.0379,0 -22.6878,-8.27753 -34.3364,-16.8616 -12.5708,-8.89068 -25.1404,-17.7802 -38.3219,-17.7802 -7.05244,0 -14.1025,2.45139 -20.8471,6.43687 1.53167,1.53408 3.06454,3.37233 4.59863,5.21178 5.51835,-3.06575 11.0355,-4.904 16.2485,-4.904 11.0355,0 22.6854,8.27632 34.3364,16.5539 12.5684,9.19726 25.138,18.0879 38.3219,18.0879 13.1815,0 25.4457,-8.89068 38.0141,-18.0879 29.739,-21.4603 38.935,-21.4603 68.674,0 12.5684,9.19726 24.8314,18.0879 38.0141,18.0879 13.1839,0 25.7523,-8.89068 38.3219,-18.0879 29.7366,-21.4603 38.3207,-21.4603 68.0585,0 12.5696,9.19726 25.1404,18.0879 38.3219,18.0879 13.1839,0 25.7535,-8.89068 38.0165,-18.0879 30.0432,-21.4603 38.935,-21.1525 68.6716,0 12.5708,9.19726 25.1392,18.0879 38.0153,18.0879 13.1827,0 25.7535,-8.89068 38.3219,-18.0879 11.6511,-8.27753 23.2997,-16.5539 34.3376,-16.5539 5.21057,0 10.7277,1.83824 16.2485,4.904 1.53167,-1.83945 3.06454,-3.6777 4.59863,-5.21178 -6.74707,-3.98548 -13.7971,-6.43687 -20.8471,-6.43687 -13.1839,0 -25.7535,8.88947 -38.3219,17.7802 -11.6511,8.5841 -23.3009,16.8616 -34.3376,16.8616 -10.7289,0 -22.38,-8.27753 -34.0286,-16.8616 -15.0222,-10.7301 -30.9641,-22.6866 -50.2795,-15.6341l0 -133.055 199.274 106.382c1.83945,-3.06454 3.37233,-5.82372 4.59863,-8.89068 1.53408,-3.37233 3.06696,-6.43808 4.29326,-9.81041 0.918519,-1.83824 1.53167,-3.6789 2.14482,-5.21057l0 -25.4457 6.74465 3.6777c0.919726,-3.37233 1.53288,-7.05002 2.14603,-10.4223l-219.201 -116.499 0 -179.96 95.9592 50.8915c0,-3.68011 0,-7.3578 0.305368,-11.3433 0.920933,-11.0379 3.98548,-21.4603 8.89189,-31.2719l0 -7.3578 3.06454 1.53288c1.53288,-3.06575 3.37233,-5.82372 5.51835,-8.5829l-113.739 -60.3953 0 -118.646 -17.167 0 0 19.0089 -81.8556 0 20.2328 25.4457 -20.2328 25.7523 81.8556 0 0 47.5179 -230.851 0 0 -117.725 -17.4748 0 0 19.0089 -81.8556 0 20.5405 25.4457 -20.5405 25.7523 81.8556 0 0 48.4389 -113.739 60.3953z"/>
  <polygon fill="#3BA1CE" fill-rule="nonzero" points="1296.39,1034.77 1322.14,1034.77 1322.14,993.381 1296.39,993.381 "/>
  <polygon fill="#3BA1CE" fill-rule="nonzero" points="1262.36,1034.77 1286.27,1034.77 1286.27,993.381 1262.36,993.381 "/>
  <polygon fill="#3BA1CE" fill-rule="nonzero" points="1228.64,1034.77 1252.24,1034.77 1252.24,993.381 1228.64,993.381 "/>
  <polygon fill="#3BA1CE" fill-rule="nonzero" points="1195.22,1034.77 1218.52,1034.77 1218.52,993.381 1195.22,993.381 "/>
  <polygon fill="#3BA1CE" fill-rule="nonzero" points="1161.5,1034.77 1185.1,1034.77 1185.1,993.381 1161.5,993.381 "/>
  <polygon fill="#3BA1CE" fill-rule="nonzero" points="1127.47,1034.77 1151.38,1034.77 1151.38,993.381 1127.47,993.381 "/>
  <polygon fill="#3BA1CE" fill-rule="nonzero" points="1091.6,993.381 1091.6,1034.77 1117.35,1034.77 1117.35,993.381 "/>
  <polygon fill="#3BA1CE" fill-rule="nonzero" points="1296.39,1281.25 1322.14,1281.25 1322.14,1239.87 1296.39,1239.87 "/>
  <polygon fill="#3BA1CE" fill-rule="nonzero" points="1262.36,1281.25 1286.27,1281.25 1286.27,1239.87 1262.36,1239.87 "/>
  <polygon fill="#3BA1CE" fill-rule="nonzero" points="1228.64,1281.25 1252.24,1281.25 1252.24,1239.87 1228.64,1239.87 "/>
  <polygon fill="#3BA1CE" fill-rule="nonzero" points="1195.22,1281.25 1218.52,1281.25 1218.52,1239.87 1195.22,1239.87 "/>
  <polygon fill="#3BA1CE" fill-rule="nonzero" points="1161.5,1281.25 1185.1,1281.25 1185.1,1239.87 1161.5,1239.87 "/>
  <polygon fill="#3BA1CE" fill-rule="nonzero" points="1127.47,1281.25 1151.38,1281.25 1151.38,1239.87 1127.47,1239.87 "/>
  <polygon fill="#3BA1CE" fill-rule="nonzero" points="1091.6,1281.25 1117.35,1281.25 1117.35,1239.87 1091.6,1239.87 "/>
  <polygon fill="#3BA1CE" fill-rule="nonzero" points="979.088,1046.11 1004.23,1032.93 1004.23,1076.46 979.088,1089.65 "/>
  <polygon fill="#3BA1CE" fill-rule="nonzero" points="1014.34,1027.41 1039.18,1014.23 1039.18,1057.76 1014.34,1070.94 "/>
  <polygon fill="#3BA1CE" fill-rule="nonzero" points="1049.29,1008.71 1074.12,995.527 1074.12,1039.06 1049.29,1052.24 "/>
  <polygon fill="#3BA1CE" fill-rule="nonzero" points="873.931,1348.39 898.764,1335.21 898.764,1379.05 873.931,1392.24 "/>
  <polygon fill="#3BA1CE" fill-rule="nonzero" points="908.881,1330 934.021,1316.51 934.021,1360.35 908.881,1373.53 "/>
  <polygon fill="#3BA1CE" fill-rule="nonzero" points="944.138,1311.3 968.971,1298.12 968.971,1341.65 944.138,1354.83 "/>
  <polygon fill="#3BA1CE" fill-rule="nonzero" points="979.088,1292.6 1004.23,1279.41 1004.23,1322.95 979.088,1336.13 "/>
  <polygon fill="#3BA1CE" fill-rule="nonzero" points="1014.34,1273.9 1039.18,1260.71 1039.18,1304.25 1014.34,1317.43 "/>
  <polygon fill="#3BA1CE" fill-rule="nonzero" points="1049.29,1255.19 1074.12,1242.01 1074.12,1285.55 1049.29,1298.73 "/>
  <polygon fill="#3BA1CE" fill-rule="nonzero" points="1539.81,1392.24 1514.98,1379.05 1514.98,1335.21 1539.81,1348.39 "/>
  <polygon fill="#3BA1CE" fill-rule="nonzero" points="1504.86,1373.53 1479.72,1360.35 1479.72,1316.51 1504.86,1330 "/>
  <polygon fill="#3BA1CE" fill-rule="nonzero" points="1469.61,1354.83 1444.77,1341.65 1444.77,1297.81 1469.61,1311.3 "/>
  <polygon fill="#3BA1CE" fill-rule="nonzero" points="1434.66,1336.13 1409.52,1322.95 1409.52,1279.41 1434.66,1292.6 "/>
  <polygon fill="#3BA1CE" fill-rule="nonzero" points="1399.4,1317.43 1374.57,1304.25 1374.57,1260.71 1399.4,1273.9 "/>
  <polygon fill="#3BA1CE" fill-rule="nonzero" points="1364.45,1298.73 1339.62,1285.55 1339.62,1242.01 1364.45,1255.19 "/>
  <polygon fill="#3BA1CE" fill-rule="nonzero" points="1434.66,1089.65 1409.52,1076.46 1409.52,1032.93 1434.66,1046.11 "/>
  <polygon fill="#3BA1CE" fill-rule="nonzero" points="1399.4,1070.94 1374.57,1057.76 1374.57,1014.23 1399.4,1027.41 "/>
  <polygon fill="#3BA1CE" fill-rule="nonzero" points="1364.45,1052.24 1339.62,1039.06 1339.62,995.527 1364.45,1008.71 "/>
  <path fill="#3BA1CE" fill-rule="nonzero" d="M1447.84 1053.16c-1.2263,1.83945 -2.14482,3.6789 -3.06454,5.82493l0 -7.3578 3.06454 1.53288z"/>
  <path fill="#3BA1CE" fill-rule="nonzero" d="M1556.67 1357.59c-1.83945,7.3578 -3.98548,14.4102 -6.74465,21.768l0 -25.4457 6.74465 3.6777z"/>
  <path fill="#3BA1CE" fill-rule="nonzero" d="M965.904 1053.16c1.2263,1.83945 2.14603,3.6789 3.06696,5.82493l0 -7.3578 -3.06696 1.53288z"/>
  <path fill="#3BA1CE" fill-rule="nonzero" d="M857.07 1357.59c1.83945,7.3578 3.98548,14.4102 6.74465,21.768l0 -25.4457 -6.74465 3.6777z"/>
  <path fill="#3BA1CE" fill-rule="nonzero" d="M874.852 1403.27c5.82372,11.0379 12.875,21.1549 21.4603,30.9641 6.74465,-3.98548 13.7947,-6.43687 20.8471,-6.43687 13.1815,0 25.7511,8.88947 38.3219,17.7802 11.6486,8.5841 23.2985,16.8616 34.3364,16.8616 11.0355,0 22.3788,-8.27753 34.0286,-16.8616 15.3288,-10.7301 30.9641,-22.6866 50.2783,-15.6341l0 -133.055 -199.273 106.382z"/>
  <path fill="#3BA1CE" fill-rule="nonzero" d="M1041.63 1507.2c4.59863,0.918519 9.19484,1.83945 13.7947,2.75918 2.14723,-0.307782 4.29326,-0.61315 6.74465,-0.61315 6.43808,0 12.8774,2.14482 19.3142,5.51715 0.61315,0.307782 1.2263,0.61315 1.84066,1.22751 6.1303,1.2263 11.9564,2.4526 18.0879,3.98548 -1.53288,-1.22751 -3.37233,-2.45381 -4.9052,-3.68011 -11.6511,-8.27753 -23.2997,-16.5539 -34.3376,-16.5539 -6.74465,0 -13.4893,3.06454 -20.5393,7.3578z"/>
  <path fill="#3BA1CE" fill-rule="nonzero" d="M1144.64 1532.95c8.27753,3.06696 15.9431,6.74465 23.3009,11.3445 0.305368,-0.306575 0.61315,-0.306575 0.918519,-0.61315 12.5696,-8.89068 25.138,-18.0891 38.0153,-18.0891 12.8762,0 25.4445,9.19846 38.0141,18.0891 0.307782,0.306575 0.61315,0.306575 0.920933,0.61315 7.3578,-4.59983 15.021,-8.27753 23.2985,-11.3445 -9.50383,-3.06454 -19.0077,-9.81161 -28.2049,-16.5551 -11.6499,-8.27753 -23.2985,-16.5539 -34.0286,-16.5539 -10.7301,0 -22.3812,8.27632 -34.0298,16.5539 -9.19726,6.74345 -18.7011,13.4905 -28.2049,16.5551z"/>
  <path fill="#3BA1CE" fill-rule="nonzero" d="M1312.33 1520.08c6.13271,-1.53288 11.9564,-2.75918 18.0879,-3.98548 0.61315,-0.614357 1.2263,-0.919726 1.83945,-1.22751 6.43929,-3.37233 12.8762,-5.51715 19.3154,-5.51715 2.45019,0 4.59863,0.305368 6.74345,0.61315 4.59983,-0.919726 9.19846,-1.84066 13.7959,-2.75918 -7.05123,-4.29326 -13.7959,-7.3578 -20.5393,-7.3578 -11.0379,0 -22.6878,8.27632 -34.3364,16.5539 -1.53529,1.2263 -3.37233,2.4526 -4.90641,3.68011z"/>
  <path fill="#3BA1CE" fill-rule="nonzero" d="M1185.41 1556.86c7.97095,7.05002 15.3263,15.33 21.4603,25.1392 6.1315,-9.8092 13.4893,-18.0891 21.4603,-25.1392 -1.53408,-1.2263 -3.37233,-2.14723 -4.90641,-3.06696 -5.82372,-3.06454 -11.3433,-5.21178 -16.5539,-5.21178 -5.21178,0 -10.7301,2.14723 -16.5563,5.21178 -1.53167,0.919726 -3.37233,1.84066 -4.904,3.06696z"/>
  <path fill="#3BA1CE" fill-rule="nonzero" d="M1174.07 1548.28c1.83945,1.2263 3.98548,2.4526 5.82493,3.98548 2.45019,-1.53288 4.904,-3.06696 7.35539,-4.29326 6.43808,-3.6777 13.1827,-6.1315 19.622,-6.1315 6.43687,0 13.1815,2.45381 19.6208,6.1315 2.45139,1.2263 4.904,2.76038 7.3578,4.29326 1.83824,-1.53288 3.98548,-2.75918 5.82372,-3.98548 -11.3421,-8.27753 -22.38,-15.9431 -32.8023,-15.9431 -10.4248,0 -21.4603,7.66559 -32.8023,15.9431z"/>
  <path fill="#3BA1CE" fill-rule="nonzero" d="M1558.82 1347.17c9.19846,-45.9875 4.9052,-97.7987 -7.3578,-149.61 -56.7152,1.2263 -113.739,-34.0286 -115.884,-95.9568l-95.9592 -50.8915 0 179.96 219.201 116.499z"/>
  <path fill="#3BA1CE" fill-rule="nonzero" d="M1517.43 1434.23c8.5829,-9.8092 15.6353,-19.9262 21.4591,-30.9641l-199.274 -106.382 0 133.055c19.3154,-7.05244 35.2574,4.904 50.2795,15.6341 11.6486,8.5841 23.2997,16.8616 34.0286,16.8616 11.0367,0 22.6866,-8.27753 34.3376,-16.8616 12.5684,-8.89068 25.138,-17.7802 38.3219,-17.7802 7.05002,0 14.1,2.45139 20.8471,6.43687z"/>
  <path fill="#3BA1CE" fill-rule="nonzero" d="M900.911 1439.45c7.66317,7.97216 16.2485,15.33 26.0577,22.38 9.50383,3.06696 19.0089,9.81041 28.5127,16.5551 0.918519,0.614357 2.14482,1.53288 3.06454,2.14603 8.89068,4.29085 18.3957,8.27753 28.5127,11.9564 2.14603,0.61315 4.59863,1.53167 6.74465,2.14482 9.8092,-1.53167 19.9262,-8.88827 30.0432,-16.2473 12.5696,-9.19726 25.1404,-18.0879 38.3219,-18.0879 13.1827,0 25.7535,8.89068 38.0153,18.0879 11.6499,8.27753 23.3009,16.8616 34.3364,16.8616 11.0367,0 22.6878,-8.5841 34.3364,-16.8616 12.5696,-9.19726 25.138,-18.0879 38.0153,-18.0879 12.8762,0 25.4445,8.89068 38.0141,18.0879 11.6511,8.27753 23.3009,16.8616 34.3364,16.8616 11.0379,0 22.6866,-8.5841 34.3364,-16.8616 12.2642,-9.19726 24.8326,-18.0879 38.0165,-18.0879 13.1827,0 25.7511,8.89068 38.3219,18.0879 10.1158,7.35901 20.2328,14.7156 30.0444,16.2473 2.14603,-0.61315 4.59742,-1.53167 6.74465,-2.14482 10.117,-3.6789 19.6208,-7.66559 28.5103,-11.9564 0.919726,-0.61315 2.14603,-1.53167 3.06696,-2.14603 9.50383,-6.74465 19.0077,-13.4881 28.5103,-16.5551 9.81161,-7.05002 18.3945,-14.4078 26.0601,-22.38 -5.52077,-3.06575 -11.0379,-4.904 -16.2485,-4.904 -11.0379,0 -22.6866,8.27632 -34.3376,16.5539 -12.5684,9.19726 -25.1392,18.0879 -38.3219,18.0879 -12.8762,0 -25.4445,-8.89068 -38.0153,-18.0879 -29.7366,-21.1525 -38.6285,-21.4603 -68.6716,0 -12.263,9.19726 -24.8326,18.0879 -38.0165,18.0879 -13.1815,0 -25.7523,-8.89068 -38.3219,-18.0879 -29.7378,-21.4603 -38.3219,-21.4603 -68.0585,0 -12.5696,9.19726 -25.138,18.0879 -38.3219,18.0879 -13.1827,0 -25.4457,-8.89068 -38.0141,-18.0879 -29.739,-21.4603 -38.935,-21.4603 -68.674,0 -12.5684,9.19726 -24.8326,18.0879 -38.0141,18.0879 -13.1839,0 -25.7535,-8.89068 -38.3219,-18.0879 -11.6511,-8.27753 -23.3009,-16.5539 -34.3364,-16.5539 -5.21298,0 -10.7301,1.83824 -16.2485,4.904z"/>
  <path fill="#3BA1CE" fill-rule="nonzero" d="M1005.15 1498c8.89068,2.75918 18.0879,4.9052 27.284,7.05244 9.81161,-6.74465 19.6208,-11.9564 29.7378,-11.9564 13.1827,0 25.7535,8.89068 38.0153,17.7802 11.6499,8.58531 23.3009,16.8616 34.3364,16.8616 11.0367,0 22.6878,-8.27632 34.3364,-16.8616 12.5696,-8.88947 25.138,-17.7802 38.0153,-17.7802 12.8762,0 25.4445,8.89068 38.0141,17.7802 11.6511,8.58531 23.3009,16.8616 34.3364,16.8616 11.0379,0 22.6866,-8.27632 34.3364,-16.8616 12.2642,-8.88947 24.8326,-17.7802 38.0165,-17.7802 10.1158,0 19.9274,5.21178 29.7366,11.9564 9.19846,-2.14723 18.3945,-4.29326 27.2864,-7.05244 -7.66559,-3.37233 -15.3288,-8.88827 -22.6878,-14.1013 -11.6486,-8.5841 -23.2997,-16.8616 -34.3352,-16.8616 -11.0379,0 -22.6878,8.27753 -34.3364,16.8616 -12.263,8.88947 -24.8326,18.0879 -38.0165,18.0879 -13.1815,0 -25.7523,-9.19846 -38.3219,-18.0879 -11.6499,-8.5841 -23.2985,-16.8616 -34.0286,-16.8616 -10.7301,0 -22.3812,8.27753 -34.0298,16.8616 -12.5696,8.88947 -25.138,18.0879 -38.3219,18.0879 -13.1827,0 -25.7511,-9.19846 -38.0141,-18.0879 -11.6511,-8.5841 -23.2997,-16.8616 -34.3376,-16.8616 -11.0367,0 -22.6854,8.27753 -34.3364,16.8616 -7.3578,5.21298 -15.0222,10.7289 -22.6854,14.1013z"/>
  <polygon fill="#3BA1CE" fill-rule="nonzero" points="1322.45,1171.81 1322.45,1141.15 1261.44,1141.15 1273.7,1156.48 1261.44,1171.81 "/>
  <polygon fill="#3BA1CE" fill-rule="nonzero" points="1322.45,894.664 1261.44,894.664 1273.7,909.992 1261.44,925.628 1322.45,925.628 "/>
  <polygon fill="#3BA1CE" fill-rule="nonzero" points="1074.12,894.664 1013.42,894.664 1025.69,909.992 1013.42,925.628 1074.12,925.628 "/>
  <polygon fill="#3BA1CE" fill-rule="nonzero" points="1074.12,1171.81 1074.12,1141.15 1013.42,1141.15 1025.69,1156.48 1013.42,1171.81 "/>
  <path fill="#3BA1CE" fill-rule="nonzero" d="M978.167 1101.6c-2.14603,61.9282 -59.169,97.1831 -115.885,95.9568 -12.2618,51.8112 -16.5551,103.622 -7.3578,149.61l219.201 -116.499 0 -48.7467 -81.8556 0 20.5405 -25.4457 -20.5405 -25.7511 81.8556 0 0 -80.0161 -95.958 50.8915z"/>
  <path fill="#3BA1CE" fill-rule="nonzero" d="M1140.96 804.836c-39.2428,24.5272 -82.7753,21.4603 -123.244,1.53288 -29.7378,26.672 -66.5268,42.002 -105.768,48.4389 -1.83945,19.622 -17.7802,39.2428 -39.2404,36.4837 -4.29326,17.7802 -6.43929,36.1759 -7.66559,54.8757 -0.918519,19.3142 -0.61315,38.6297 0.920933,57.9439 18.3933,-2.4526 37.0956,0.305368 53.9572,7.66317 16.2473,7.35901 30.3497,18.7023 40.4667,32.8048l113.739 -60.3953 0 -48.4389 -81.8556 0 20.5405 -25.7523 -20.5405 -25.4457 81.8556 0 0 -19.0089 17.4748 0 0 117.725 230.851 0 0 -47.5179 -81.8556 0 20.2328 -25.7523 -20.2328 -25.4457 81.8556 0 0 -19.0089 17.167 0 0 118.646 113.739 60.3953c10.117,-14.1025 24.2194,-25.4457 40.4679,-32.8048 16.8604,-7.3578 35.5627,-10.1158 53.9584,-7.66317 1.53167,-19.3142 1.83824,-38.6297 0.918519,-57.9439 -1.2263,-18.6999 -3.37233,-37.0956 -7.66317,-54.8757 -21.4603,2.75918 -37.4034,-16.8616 -39.2428,-36.4837 -39.2416,-6.43687 -76.0306,-21.7668 -105.768,-48.4389 -40.4667,19.9274 -84.0016,22.9943 -123.242,-1.53288 -17.7826,27.2864 -57.3308,19.9286 -65.9137,-11.9564 -8.5841,31.885 -48.1323,39.2428 -65.9125,11.9564z"/>
  <polygon fill="#3BA1CE" fill-rule="nonzero" points="1091.6,1044.88 1091.6,1229.75 1322.14,1229.75 1322.14,1181.92 1240.6,1181.92 1260.83,1156.48 1240.6,1130.73 1322.14,1130.73 1322.14,1044.88 "/>
  <path fill="#3BA1CE" fill-rule="nonzero" d="M1091.29 1439.45l8.88947 6.1315c11.6499,8.5841 23.3009,16.8616 34.3364,16.8616 11.0367,0 22.6878,-8.27753 34.3364,-16.8616 32.1892,-22.9931 43.839,-22.9931 76.0294,0 11.6511,8.5841 23.3009,16.8616 34.3364,16.8616 11.0379,0 22.6866,-8.27753 34.0311,-16.8616l9.19726 -6.43687 -0.307782 -147.769 -230.849 0 0 148.075z"/>
  <polygon fill="#ECC200" fill-rule="nonzero" points="565.21,883.626 442.886,818.633 484.888,739.535 507.574,751.493 481.516,799.932 508.187,814.034 532.406,768.355 555.401,780.616 531.181,826.296 581.458,852.969 "/>
  <path fill="#ECC200" fill-rule="nonzero" d="M687.841 676.076c-1.53408,9.19605 -4.29326,18.0879 -7.97095,26.3655 -3.68011,8.27632 -8.58531,16.2485 -14.4102,23.6051 -7.05002,8.27753 -14.409,15.0222 -22.6854,19.9286 -8.27874,5.21057 -17.1694,8.27753 -26.3667,9.50383 -9.50383,1.22389 -19.0077,0.305368 -28.2049,-2.45381 -9.19605,-2.75918 -17.7814,-7.3578 -25.7523,-13.7947 -16.8616,-13.4881 -25.7511,-30.0444 -26.9786,-49.3598 -1.2263,-19.6208 5.51835,-38.3219 20.5417,-56.7152 5.21057,-6.43929 11.0355,-12.263 17.4748,-17.4748 6.74465,-4.904 13.7947,-9.50383 21.7656,-13.1839l25.1392 20.5417c-8.5829,2.75918 -16.2485,6.43687 -22.9931,11.0355 -6.74465,4.29205 -12.5696,9.50383 -17.4748,15.6353 -8.89068,10.7301 -12.8762,21.768 -11.9564,32.8035 0.920933,11.0379 6.43808,20.8471 16.8616,29.1246 10.117,8.27874 20.5405,11.6511 31.2707,10.4236 10.7313,-0.918519 20.234,-6.43808 28.5115,-16.5551 5.21178,-6.43687 9.19726,-13.7947 12.2642,-22.38 3.06454,-8.27632 4.9052,-17.4748 5.82372,-27.5918l25.1404 20.5417z"/>
  <polygon fill="#ECC200" fill-rule="nonzero" points="760.192,623.957 680.789,510.524 756.514,457.489 771.23,478.333 723.709,511.75 739.958,534.743 785.332,502.859 800.048,524.015 754.673,555.898 773.681,582.875 822.733,548.846 837.449,570.001 "/>
  <path fill="#ECC200" fill-rule="nonzero" d="M875.465 455.34c5.82372,-2.45139 9.50383,-5.82372 11.3433,-9.50383 1.83824,-3.6777 1.53288,-7.97095 -0.61315,-12.8762 -2.14723,-4.904 -5.21298,-7.97095 -9.50383,-8.88947 -3.98548,-1.22751 -8.89189,-0.61315 -14.4102,1.83945l-15.3288 6.74465 13.1827 29.43 15.33 -6.74465zm-13.7971 95.6527l0 0 -56.4098 -126.617 46.906 -20.8471c17.1694,-7.66317 30.9641,-10.4223 42.002,-7.97095 10.7289,2.14723 19.0077,9.81041 24.5248,22.3812 3.06696,6.74465 3.98548,13.7947 2.75918,20.234 -1.53167,6.74465 -5.21178,13.1815 -11.0355,20.234 3.6777,-0.307782 7.3578,0.305368 11.0355,1.83945 3.68011,1.53288 7.3578,3.98548 11.0379,7.3578l39.547 34.3364 -35.8693 15.9407 -32.1904 -29.4324c-5.21178,-4.59621 -10.117,-7.35539 -14.4078,-7.96854 -4.29326,-0.61315 -9.50383,0.305368 -15.6365,3.06454 -0.306575,0.307782 -0.919726,0.61315 -1.83824,0.920933 -0.61315,0.305368 -1.2263,0.611943 -1.53408,0.918519l22.6866 51.5058 -31.5772 14.1025z"/>
  <polygon fill="#ECC200" fill-rule="nonzero" points="976.634,497.955 1025.38,370.728 957.32,386.362 951.496,361.222 1077.19,332.406 1028.75,458.407 1102.02,441.546 1108.16,467.604 "/>
  <path fill="#ECC200" fill-rule="nonzero" d="M1259.3 446.756c-8.27874,6.43808 -17.1694,11.3433 -26.3667,14.7156 -9.50383,3.06575 -19.9262,4.90641 -30.9641,5.21178 -10.7301,0 -20.8471,-1.53167 -30.042,-4.59863 -9.19846,-3.06454 -17.1694,-7.96854 -23.9141,-14.1025 -7.05002,-6.43687 -12.5696,-14.1025 -16.2485,-22.9931 -3.98548,-8.88947 -5.82493,-18.3933 -6.1303,-28.8181 -0.307782,-21.4603 6.43687,-38.935 20.5393,-52.4244 14.1025,-13.4893 33.1113,-20.234 56.7164,-20.5393 8.5841,-0.307782 17.167,0.61315 25.4457,2.45139 8.5829,1.83945 17.167,4.90641 26.0577,9.19726l0.61315 30.3509c-9.19605,-4.59863 -18.0879,-7.97095 -26.3655,-10.117 -8.5841,-2.14603 -16.2473,-3.06454 -23.2997,-3.06454 -13.7947,0.305368 -24.8314,4.29085 -32.8011,11.9552 -7.66559,7.66559 -11.3433,18.3957 -11.3433,31.5772 0.305368,13.1827 4.29085,23.2997 11.9564,30.9641 7.66438,7.66559 18.0855,11.3433 30.9605,11.0379 3.06696,0 6.43929,-0.614357 9.81161,-1.22751 3.37233,-0.918519 6.74465,-1.83945 10.117,-3.37233l-0.305368 -17.4748 -19.0089 0.308989 -0.306575 -26.0601 53.9572 -0.920933 0.920933 57.9427z"/>
  <polygon fill="#ECC200" fill-rule="nonzero" points="1290.87,467.91 1315.09,331.484 1406.14,347.427 1401.85,372.565 1344.83,362.448 1339.93,390.347 1394.19,399.851 1389.9,425.297 1335.33,415.794 1329.5,448.29 1388.36,458.713 1383.77,484.158 "/>
  <path fill="#ECC200" fill-rule="nonzero" d="M1453.66 481.399l18.6987 7.35901c8.27994,3.06334 14.7168,4.29085 19.3154,3.37112 4.29326,-0.918519 7.66559,-4.29085 9.81161,-9.50262 2.14482,-5.51835 1.83945,-10.4248 -0.920933,-14.7168 -2.75918,-3.98548 -8.27753,-7.66317 -16.2485,-10.7301l-18.7011 -7.05244 -11.9552 31.2719zm37.401 -48.1323l0 0c6.1315,2.4526 10.7301,3.06575 14.4102,1.83945 3.6777,-1.2263 6.43687,-3.98548 8.27632,-8.5841 1.84066,-4.9052 1.84066,-9.19605 0,-12.5684 -2.14603,-3.68011 -5.82493,-6.43929 -11.6486,-8.89189l-16.8616 -6.43808 -10.7301 28.2061 16.5539 6.43687zm-79.0952 59.4768l0 0 49.6652 -129.376 47.5179 18.3957c17.1694,6.43687 28.8181,14.1025 35.2574,22.9919 6.74465,8.89068 7.97095,19.0077 3.6777,29.7378 -2.14603,5.82493 -5.51835,10.4248 -10.117,13.4893 -4.59863,3.37233 -10.4223,4.90641 -16.8616,5.21178 7.97095,6.43929 13.1839,13.1839 15.33,20.5417 2.45139,7.3578 1.83945,15.33 -1.53288,23.6063 -4.59863,12.5684 -12.5696,20.234 -23.3009,22.9919 -10.7301,3.06575 -24.8326,1.22751 -42.0008,-5.51715l-57.6349 -22.0734z"/>
  <polygon fill="#ECC200" fill-rule="nonzero" points="1544.1,551.605 1611.24,430.508 1642.52,447.982 1575.38,569.082 "/>
  <path fill="#ECC200" fill-rule="nonzero" d="M1697.39 555.284c4.904,3.98668 9.50383,5.82614 13.7971,5.51835 3.98548,0 7.66317,-2.4526 11.0355,-6.74465 3.37233,-3.98548 4.29326,-8.27632 3.37233,-12.2618 -0.61315,-4.29085 -3.6777,-8.27753 -8.5841,-11.9576l-12.8762 -10.4223 -19.9262 25.4445 13.1815 10.4236zm-91.0516 32.8048l0 0 85.5333 -109.449 40.1626 31.5785c15.021,11.6486 23.9117,22.6866 26.9774,33.4167 3.06575,10.7301 0.306575,21.4578 -8.27632,32.1916 -4.59863,6.1303 -10.1194,10.1158 -16.5563,11.954 -6.74465,1.84066 -14.1025,1.84066 -22.9919,-0.305368 1.83945,3.06454 3.06454,6.74465 3.37233,10.7301 0.305368,3.98548 0,8.27632 -1.22751,13.1815l-11.6486 50.8915 -30.9641 -23.9129 10.7301 -42.3062c1.53288,-6.74465 1.83824,-12.2642 0.305368,-16.5563 -1.2263,-3.98548 -4.59863,-7.97095 -9.81041,-12.2618 -0.61315,-0.307782 -0.919726,-0.61315 -1.83824,-1.2263 -0.61315,-0.305368 -1.2263,-0.61315 -1.53408,-0.92214l-34.6418 44.148 -27.5918 -21.1525z"/>
  <path fill="#ECC200" fill-rule="nonzero" d="M1805 764.982c-10.117,-2.75918 -19.6208,-6.74465 -27.8971,-11.9576 -8.27874,-5.51715 -15.9431,-12.5696 -22.9931,-21.4603 -7.05244,-8.5841 -11.9564,-17.167 -15.0234,-26.3643 -3.37233,-9.19846 -4.59863,-18.3945 -3.6777,-27.5918 0.61315,-9.50383 3.37233,-18.7023 7.97095,-27.2864 4.59742,-8.27632 11.0355,-15.6353 19.0065,-22.3788 16.8616,-13.4905 34.643,-18.7023 53.9572,-15.9431 19.3142,3.06696 36.4824,13.4893 51.1981,31.885 5.51956,6.74465 10.117,14.1025 13.7971,22.0734 3.6777,7.66317 6.74465,16.5539 8.88947,26.0577l-23.6063 19.0089c-2.14482,-10.117 -4.904,-19.0089 -8.27632,-26.9774 -3.37233,-7.97216 -7.66559,-14.7168 -11.9564,-20.2364 -8.89068,-11.0367 -18.7023,-17.167 -29.7378,-18.3945 -10.7301,-1.53167 -21.4603,1.84066 -31.885,10.4248 -10.117,8.27753 -15.6353,17.4736 -16.8616,28.5115 -1.2263,10.7301 2.14603,20.8471 10.117,30.9629 2.14603,2.45381 4.59863,4.9052 7.3578,7.05364 2.75918,2.14482 5.51835,4.29085 8.89068,5.82251l13.4893 -10.7301 -11.9552 -15.021 20.234 -16.2485 34.0286 42.3074 -45.0666 36.4824z"/>
  <polygon fill="#ECC200" fill-rule="nonzero" points="1807.76,804.223 1930.08,738.922 1973.62,820.779 1950.93,832.735 1923.64,781.536 1898.81,795.024 1924.87,843.771 1901.88,856.034 1876.12,806.982 1846.69,822.618 1874.9,875.348 1851.9,887.306 "/>
  <path fill="#ECC200" fill-rule="nonzero" d="M1040.4 1931.81l40.1626 7.66559 -9.19846 -55.4913 -30.9641 47.8257zm-66.8322 38.6297l0 0 85.8398 -124.47 39.2428 7.66317 26.6708 146.238 -36.1771 -7.05244 -4.59621 -28.2049 -58.5559 -11.3433 -15.9419 24.2194 -36.4824 -7.05002z"/>
  <polygon fill="#ECC200" fill-rule="nonzero" points="1321.22,1990.97 1294.86,1854.86 1385.91,1837.08 1390.82,1862.21 1333.79,1873.25 1339.31,1901.15 1393.57,1890.42 1398.48,1915.86 1344.22,1926.29 1350.35,1958.78 1408.9,1947.44 1413.81,1972.89 "/>
  <path fill="#ECC200" fill-rule="nonzero" d="M1206.87 1612.66c-50.8915,-79.0964 -144.396,-71.1254 -226.558,-96.2658 -167.085,-50.2759 -182.106,-206.63 -139.493,-350.72 49.052,7.97095 104.236,-3.68011 108.529,-61.0097 2.14603,-30.9641 -16.5563,-56.7152 -43.8415,-68.0585 -19.9262,-8.27753 -44.1456,-8.89068 -66.2202,-0.307782 -7.66317,-63.1545 -5.21178,-122.935 16.2485,-181.493 -1.53167,-18.6999 16.8616,-38.0141 33.4179,-24.526 47.8245,-4.904 88.6002,-19.9274 124.162,-57.3284 47.5192,28.2049 89.2134,32.4958 130.908,-4.90641 7.3578,-6.74465 14.1025,-18.0879 24.8326,-18.0879 30.3497,0 30.3497,57.3308 0,57.3308 -10.7301,0 -19.9274,-10.117 -21.4603,-23.9141 -39.2404,32.4982 -84.307,33.1101 -131.827,6.43929 -33.1089,32.8035 -73.8846,48.1311 -118.338,53.3429 6.43929,21.4603 -15.021,45.9875 -33.4167,29.1246 -14.409,47.5192 -15.0222,98.4118 -9.8092,147.769 21.7656,-5.82372 42.6127,-3.6777 60.3953,3.98548 31.5772,14.1025 53.0363,45.6797 49.9705,80.9371 -4.904,55.4889 -59.7822,84.307 -112.512,78.482 -34.3364,132.748 -19.9286,268.866 130.601,321.597 44.7588,15.6353 92.2779,20.5393 140.717,34.6418 36.4824,10.4248 68.0585,29.7378 83.695,72.9661z"/>
  <path fill="#ECC200" fill-rule="nonzero" d="M1206.87 1612.66c50.8903,-79.0964 144.396,-71.1254 226.559,-96.2658 167.082,-50.2759 182.104,-206.63 139.49,-350.72 -49.052,7.97095 -104.236,-3.68011 -108.526,-61.0097 -2.14723,-30.9641 16.5539,-56.7152 43.8403,-68.0585 19.9274,-8.27753 44.1468,-8.89068 66.219,-0.307782 7.66559,-63.1545 5.21178,-122.935 -16.2485,-181.493 1.53408,-18.6999 -16.8616,-38.0141 -33.4155,-24.526 -47.8269,-4.904 -88.6002,-19.9274 -124.163,-57.3284 -47.5204,28.2049 -89.2146,32.4958 -130.909,-4.90641 -7.3578,-6.74465 -14.1025,-18.0879 -24.8326,-18.0879 -30.3509,0 -30.3509,57.3308 0,57.3308 10.7301,0 19.9286,-10.117 21.4603,-23.9141 39.2416,32.4982 84.3082,33.1101 131.827,6.43929 33.1101,32.8035 73.8846,48.1311 118.338,53.3429 -6.43687,21.4603 15.0234,45.9875 33.4167,29.1246 14.409,47.5192 15.0222,98.4118 9.81161,147.769 -21.768,-5.82372 -42.6152,-3.6777 -60.3953,3.98548 -31.5772,14.1025 -53.0375,45.6797 -49.973,80.9371 4.90641,55.4889 59.7822,84.307 112.514,78.482 34.3364,132.748 19.9262,268.866 -130.602,321.597 -44.7588,15.6353 -92.2791,20.5393 -140.718,34.6418 -36.4812,10.4248 -68.0597,29.7378 -83.6938,72.9661z"/>
  <path fill="#ECC200" fill-rule="nonzero" d="M1168.55 1527.43c6.1315,-4.29447 12.5672,-8.89068 18.6987,-12.263 6.43808,-3.37233 13.1827,-5.82493 19.622,-5.82493 6.43687,0 13.1815,2.4526 19.6208,5.82493 6.1303,3.37233 12.2618,7.96854 18.7011,12.263 3.6777,2.75918 0,8.27632 -3.98548,5.51715 -6.1315,-4.29085 -11.9576,-8.5841 -17.7826,-11.9564 -5.82372,-2.75918 -11.3433,-4.904 -16.5539,-4.904 -5.21178,0 -10.7301,2.14482 -16.5563,4.904 -5.82493,3.37233 -11.6474,7.66559 -17.7789,11.9564 -3.98548,2.75918 -7.66559,-2.75797 -3.98548,-5.51715z"/>
  <path fill="#ECC200" fill-rule="nonzero" d="M1027.22 1492.18c5.51956,-3.98548 11.3433,-7.66559 16.8616,-10.7313 6.13271,-2.75918 11.9564,-4.9052 18.0879,-4.9052 6.43808,0 12.8774,2.45381 19.3142,5.82614 6.1315,3.06454 11.9564,7.3578 18.0879,11.6474 3.98548,3.06696 0,8.27874 -3.98548,5.51835 -5.82493,-3.98306 -11.6486,-8.27632 -17.167,-11.3409 -5.51956,-2.76038 -11.0379,-4.90641 -16.2497,-4.90641 -4.9052,0 -9.8092,1.83945 -15.0222,4.29326 -5.21178,2.75918 -10.7301,6.43566 -15.9419,10.1158 -3.98548,2.75918 -7.96975,-2.75918 -3.98548,-5.51715z"/>
  <path fill="#ECC200" fill-rule="nonzero" d="M1168.55 1494.94c6.1315,-4.59742 12.5672,-8.89068 18.6987,-12.263 6.43808,-3.6777 13.1827,-6.1315 19.622,-6.1315 6.43687,0 13.1815,2.45381 19.6208,6.1315 6.1303,3.06696 12.2618,7.66559 18.7011,12.263 3.6777,2.75918 0,8.27753 -3.98548,5.21057 -6.1315,-4.29085 -11.9576,-8.58169 -17.7826,-11.6486 -5.82372,-3.06575 -11.3433,-5.21178 -16.5539,-5.21178 -5.21178,0 -10.7301,2.14603 -16.5563,5.21178 -5.82493,3.06696 -11.6474,7.3578 -17.7789,11.6486 -3.98548,3.06696 -7.66559,-2.45139 -3.98548,-5.21057z"/>
  <path fill="#ECC200" fill-rule="nonzero" d="M1314.17 1494.02c6.1315,-4.28964 11.9564,-8.5829 18.0879,-11.6474 6.43929,-3.37233 12.8762,-5.82614 19.3154,-5.82614 6.1303,0 11.9564,2.14603 18.0879,4.9052 5.51715,3.06575 11.3433,6.74586 16.8616,10.7313 3.98548,2.75797 0,8.27632 -3.98668,5.51715 -5.21178,-3.68011 -10.7301,-7.3566 -15.9419,-10.1158 -5.21178,-2.45381 -10.117,-4.29326 -15.021,-4.29326 -5.21298,0 -10.7313,2.14603 -16.2485,4.90641 -5.51835,3.06454 -11.3433,7.3578 -17.1694,11.3409 -3.98548,2.76038 -7.97095,-2.45139 -3.98548,-5.51835z"/>
  <path fill="#ECC200" fill-rule="nonzero" d="M1159.05 1984.54c-11.3421,-11.0379 -16.8616,-26.0589 -16.5539,-45.3743l0.918519 -79.403 34.6442 0.307782 -0.920933 77.8689c0,11.0379 2.4526,19.622 7.66438,25.4457 10.7301,12.2642 33.4167,11.9564 44.1456,0 5.21178,-5.82372 7.66559,-14.4078 7.66559,-25.4457l-0.920933 -77.8689 34.643 -0.307782 0.919726 79.403c0.307782,19.3154 -5.21057,34.3364 -16.5539,45.3743 -23.6063,22.6866 -72.0452,22.6866 -95.6515,0z"/>
  <path fill="#ECC200" fill-rule="nonzero" d="M1027.22 1459.68c5.51956,-3.98548 11.3433,-7.97095 16.8616,-10.7301 6.13271,-3.06454 11.9564,-4.904 18.0879,-4.904 6.43808,0 12.8774,2.14482 19.3142,5.51715 6.1315,3.37233 11.9564,7.66679 18.0879,11.9576 3.98548,2.75797 0,8.27632 -3.98548,5.51715 -5.82493,-4.29085 -11.6486,-8.27632 -17.167,-11.3433 -5.51956,-3.06454 -11.0379,-4.904 -16.2497,-4.904 -4.9052,0 -9.8092,1.53167 -15.0222,4.29085 -5.21178,2.4526 -10.7301,6.1315 -15.9419,10.117 -3.98548,2.75918 -7.96975,-2.75918 -3.98548,-5.51835z"/>
  <path fill="#ECC200" fill-rule="nonzero" d="M1168.55 1462.13c6.1315,-4.29326 12.5672,-8.89068 18.6987,-12.263 6.43808,-3.68011 13.1827,-5.82493 19.622,-5.82493 6.43687,0 13.1815,2.14482 19.6208,5.82493 6.1303,3.37233 12.2618,7.96975 18.7011,12.263 3.6777,2.75918 0,8.27632 -3.98548,5.51715 -6.1315,-4.29085 -11.9576,-8.5841 -17.7826,-11.9564 -5.82372,-3.06454 -11.3433,-4.904 -16.5539,-4.904 -5.21178,0 -10.7301,1.83945 -16.5563,4.904 -5.82493,3.37233 -11.6474,7.66559 -17.7789,11.9564 -3.98548,2.75918 -7.66559,-2.75797 -3.98548,-5.51715z"/>
  <path fill="#ECC200" fill-rule="nonzero" d="M1314.17 1461.52c6.1315,-4.29085 11.9564,-8.58531 18.0879,-11.9576 6.43929,-3.37233 12.8762,-5.51715 19.3154,-5.51715 6.1303,0 11.9564,1.83945 18.0879,4.904 5.51715,2.75918 11.3433,6.74465 16.8616,10.7301 3.98548,2.75918 0,8.27753 -3.98668,5.51835 -5.21178,-3.98548 -10.7301,-7.66438 -15.9419,-10.117 -5.21178,-2.75918 -10.117,-4.29085 -15.021,-4.29085 -5.21298,0 -10.7313,1.83945 -16.2485,4.904 -5.51835,3.06696 -11.3433,7.05244 -17.1694,11.3433 -3.98548,2.75918 -7.97095,-2.75918 -3.98548,-5.51715z"/>
 </g>
</svg>
