<?xml version="1.0" encoding="utf-8"?>
<!-- Generator: Adobe Illustrator 13.0.2, SVG Export Plug-In . SVG Version: 6.00 Build 14948)  -->
<!DOCTYPE svg PUBLIC "-//W3C//DTD SVG 1.0//EN" "http://www.w3.org/TR/2001/REC-SVG-20010904/DTD/svg10.dtd">
<svg version="1.0" id="Ebene_1" xmlns="http://www.w3.org/2000/svg" xmlns:xlink="http://www.w3.org/1999/xlink" x="0px" y="0px"
	 width="374.131px" height="566px" viewBox="0 0 374.131 566" enable-background="new 0 0 374.131 566" xml:space="preserve">
<path fill="#FFDD00" d="M187.065,0c105.837,0,187.065,129.814,187.065,283.028C374.131,436.215,292.903,566,187.065,566
	C81.271,566,0,436.215,0,283.028C0,129.814,81.271,0,187.065,0"/>
<path fill="#9D8755" d="M7.192,283.028c0-152.315,80.554-275.836,179.874-275.836c99.334,0,179.874,123.521,179.874,275.836
	s-80.54,275.809-179.874,275.809C87.746,558.837,7.192,435.344,7.192,283.028"/>
<path fill="#FFDD00" d="M182.81,15.872C92.943,19.384,15.732,134.112,15.732,283.028c0,148.888,77.211,263.617,167.078,267.128
	V15.872"/>
<path fill="#0D3D63" d="M191.35,550.156c89.839-3.511,167.05-118.24,167.05-267.128c0-148.916-77.211-263.645-167.05-267.156
	V550.156"/>
<path fill="#9D8755" d="M127.96,338.37l-6.714-22.305l-14.987,23.513l-14.987-23.513l-28.415,88.967H41.745L83.111,270.05
	l15.184,20.17V156.277h65.132v22.614h-43.922v32.586h35.93v25.143h-35.93v46.605l9.889-13.175l15.844,53.965
	C140.728,329.942,134.828,334.886,127.96,338.37"/>
<path fill="#9D8755" d="M148.06,405.032l-9.944-32.952c6.489-2.81,12.599-6.405,18.119-10.647l12.796,43.599H148.06"/>
<path fill="#9D8755" d="M50.665,350.253c-14.875-14.046-24.173-33.907-24.173-55.875c0-36.52,25.578-67.112,59.92-75.118v22.754
	c-23.583,7.192-40.706,28.43-40.706,53.459c0,12.501,4.298,24.075,11.49,33.43L50.665,350.253"/>
<path fill="#9D8755" d="M104.109,351.573c24.216,0,45.018-14.215,53.853-34.413l16.335,10.535
	c-12.515,25.901-39.203,43.795-70.104,43.795c-7.542,0-14.847-1.095-21.743-3.062l6.04-18.906
	C93.463,350.843,98.702,351.573,104.109,351.573"/>
<path fill="#9D8755" d="M312.581,248.868c2.149-1.32,4.621-2.106,7.276-2.106c8.287,0,14.987,7.444,15.128,16.658
	c1.095,15.423-21.8,50.032-21.8,50.032h10.9v-4.86h8.863v19.383h-8.863v-3.23h-24.047v-11.096
	c16.335-24.215,21.462-36.099,22.979-41.661c0.66-3.371,0.66-4.804,0.66-4.804c0-5.366-3.245-9.692-7.276-9.692
	c-1.096,0-2.444,0.73-3.821,1.742v8.287h-8.863v-21.153h8.863V248.868"/>
<path fill="#9D8755" d="M290.487,247.688v64.668c1.152,1.742,3.68,3.146,5.983,4.045v8.259h-22.698v-7.979
	c2.416-0.955,4.888-2.5,6.04-4.354l0.084-50.538h-5.211v-8.231c3.778-0.955,6.714-3.146,7.922-5.871H290.487"/>
<path fill="#9D8755" d="M228.459,247.688v64.668c1.18,1.742,3.722,3.146,6.012,4.045v8.259h-22.685v-7.979
	c2.416-0.955,4.888-2.5,6.012-4.354l0.112-50.538H212.7v-8.231c3.764-0.955,6.7-3.146,7.908-5.871H228.459"/>
<path fill="#9D8755" d="M271.665,274.179c0-7.922-3.764-25.142-18.4-25.142c-14.65,0-19.103,17.22-19.103,25.142v5.928
	c0,7.978,3.764,25.17,18.415,25.17c3.245,0,6.644-0.871,8.905-2.248c-0.772,6.939-4.129,12.164-8.217,12.164
	c-2.711,0-5.155-2.36-6.672-5.983l-10.479-0.028c2.051,7.753,6.967,16.069,17.15,16.069c14.636,0,18.4-17.221,18.4-25.143
	c0,0,0.702-7.5,0.73-12.333C272.423,282.467,271.665,274.179,271.665,274.179 M261.636,280.107c0,8.343-3.75,15.113-8.372,15.113
	c-4.607,0-8.343-6.77-8.343-15.113v-5.928c0-8.315,3.736-15.057,8.343-15.057c4.621,0,8.372,6.742,8.372,15.057V280.107z"/>
</svg>
