<?xml version="1.0" encoding="UTF-8" standalone="no"?>
<svg
   xmlns:dc="http://purl.org/dc/elements/1.1/"
   xmlns:cc="http://creativecommons.org/ns#"
   xmlns:rdf="http://www.w3.org/1999/02/22-rdf-syntax-ns#"
   xmlns:svg="http://www.w3.org/2000/svg"
   xmlns="http://www.w3.org/2000/svg"
   xmlns:sodipodi="http://sodipodi.sourceforge.net/DTD/sodipodi-0.dtd"
   xmlns:inkscape="http://www.inkscape.org/namespaces/inkscape"
   width="400"
   height="400.07465"
   id="svg2"
   version="1.1"
   inkscape:version="0.48.2 r9819"
   sodipodi:docname="FC_Schalke_04_Logo.svg">
  <sodipodi:namedview
     pagecolor="#ffffff"
     bordercolor="#666666"
     borderopacity="1"
     objecttolerance="10"
     gridtolerance="10"
     guidetolerance="10"
     inkscape:pageopacity="0"
     inkscape:pageshadow="2"
     inkscape:window-width="640"
     inkscape:window-height="480"
     id="namedview3511"
     showgrid="false"
     fit-margin-top="0"
     fit-margin-left="0"
     fit-margin-right="0"
     fit-margin-bottom="0"
     inkscape:zoom="0.59"
     inkscape:cx="188.79922"
     inkscape:cy="188.83445"
     inkscape:window-x="0"
     inkscape:window-y="0"
     inkscape:window-maximized="0"
     inkscape:current-layer="svg2" />
  <defs
     id="defs4" />
  <metadata
     id="metadata7">
    <rdf:RDF>
      <cc:Work
         rdf:about="">
        <dc:format>image/svg+xml</dc:format>
        <dc:type
           rdf:resource="http://purl.org/dc/dcmitype/StillImage" />
      </cc:Work>
    </rdf:RDF>
  </metadata>
  <g
     id="layer1"
     transform="matrix(1.0593264,0,0,1.0593264,-11.865277,-11.827959)">
    <path
       style="fill:#ffffff;fill-opacity:1;fill-rule:evenodd;stroke:none"
       id="path3680"
       d="m 345.47217,226.25377 a 199.00005,199.00005 0 1 1 -398.000094,0 199.00005,199.00005 0 1 1 398.000094,0 z"
       transform="matrix(0.936548,0,0,0.936548,62.8218,-11.8975)"
       inkscape:connector-curvature="0" />
    <path
       id="path1896"
       d="M 191.832,388.77863 C 151.55744,386.95242 113.38445,372.57803 82.017454,347.42697 30.144214,305.83337 3.9576438,240.26676 12.942524,174.47541 c 5.02433,-36.79044 20.58373,-70.83837 45.29741,-99.122279 3.22981,-3.696405 10.98458,-11.560189 14.89705,-15.106489 C 116.60657,20.845467 174.79981,3.9793682 232.73219,13.991308 313.7807,27.998214 376.93411,94.16114 387.41305,176.04333 c 1.10771,8.6557 1.38238,13.3881 1.38612,23.88222 0.004,10.37825 -0.1929,14.09952 -1.18441,22.41773 -3.87825,32.53626 -15.99935,63.1966 -35.42013,89.59517 -17.76524,24.14821 -41.08933,43.76577 -68.06064,57.24482 -21.58622,10.78784 -44.21469,17.05543 -69.29429,19.19308 -3.6077,0.30747 -19.1177,0.57871 -23.0077,0.40228 z m 23.60905,-20.10992 c 19.74775,-1.7715 35.8397,-5.96368 51.98322,-13.54251 13.88723,-6.51955 21.3192,-10.72726 30.43002,-17.22857 18.35537,-13.0979 34.50666,-30.64775 46.09749,-50.08911 15.06798,-25.27359 23.14672,-52.94813 23.90026,-81.87287 l 0.14249,-5.46948 -56.1874,0.0546 -56.18739,0.0545 0,31.29825 0,31.29824 9.20536,0.0549 c 8.34715,0.0498 9.2306,0.089 9.47612,0.42046 0.43222,0.58354 0.38716,44.08791 -0.0493,47.60635 -1.12356,9.05718 -3.90832,16.22539 -8.75222,22.52882 -1.60479,2.08835 -5.36055,5.86721 -7.88458,7.93313 -8.83901,7.23471 -20.06884,11.75605 -34.34256,13.82691 -21.67973,3.14533 -48.61658,1.35686 -68.25297,-4.53163 -9.84491,-2.95228 -18.55866,-7.02498 -26.32554,-12.30434 -1.31041,-0.89072 -2.79681,-1.95529 -3.3031,-2.36573 l -0.92054,-0.74628 0,-135.31705 c 0,-107.925531 0.0548,-135.386788 0.27075,-135.661519 0.38167,-0.485595 5.26542,-3.376673 8.90095,-5.269177 13.33799,-6.943205 31.08543,-12.704002 44.65259,-14.494176 27.4408,-3.620786 51.41646,-0.913099 72.94908,8.23847 10.71194,4.552681 16.81945,10.887091 20.59481,21.359954 0.91426,2.536135 1.80926,6.422135 2.13012,9.24867 0.15104,1.330457 0.28269,12.143993 0.36551,30.020488 l 0.12944,27.94098 40.93679,0.0512 c 22.51523,0.0281 41.06111,-0.0279 41.21308,-0.1245 0.3263,-0.20747 -1.05379,-4.70417 -2.67939,-8.73018 -2.74979,-6.81014 -8.43073,-17.28302 -13.83367,-25.50249 C 330.4171,92.623737 318.15879,79.16446 304.36874,68.122593 291.71683,57.992053 276.86803,49.410295 261.35955,43.265736 c -15.7187,-6.227862 -32.9279,-10.086602 -50.57534,-11.340278 -4.95537,-0.352035 -17.75358,-0.352859 -22.41776,-0.0014 -8.59129,0.6473 -13.91347,1.363795 -23.52811,3.167493 -11.61512,2.178969 -19.45266,4.490186 -29.53809,8.710506 -40.116776,16.787129 -76.270686,53.668164 -92.584086,94.446133 -2.99876,7.49587 -4.72276,13.00298 -6.79793,21.71527 -3.62377,15.21374 -5.10266,27.42367 -5.10266,42.12808 0,10.25331 0.5753,17.51511 2.15208,27.16469 6.52766,39.94791 27.42456,75.69623 59.78698,102.27749 13.781056,11.31926 26.559676,18.91529 42.366356,25.18402 17.34574,6.87909 36.45586,11.03325 56.38611,12.25716 4.60656,0.28285 19.4899,0.0924 23.93395,-0.30615 z m -45.64038,-25.33785 c 2.44157,-0.72143 4.11919,-1.49003 6.54466,-2.99835 4.96087,-3.08504 8.04566,-6.81011 9.4602,-11.42361 l 0.49808,-1.62446 0.0633,-36.27997 c 0.0437,-25.05384 -0.009,-36.74915 -0.16913,-37.79617 -0.7043,-4.594 -3.35325,-9.07519 -7.50618,-12.69809 -4.16458,-3.63309 -8.47496,-5.17477 -14.44993,-5.16827 -4.64348,0.005 -8.06868,1.02383 -11.84744,3.5239 -4.29909,2.84436 -7.70271,7.55633 -8.9685,12.41604 -0.28679,1.1011 -0.32802,5.92968 -0.32802,38.41871 0,36.88491 0.003,37.17127 0.44732,38.77353 1.67668,6.05049 8.10177,12.46051 14.63493,14.60053 3.5595,1.16598 8.19586,1.26821 11.62069,0.25621 z m -7.44973,-13.87391 c -2.07912,-0.76526 -4.00234,-2.62996 -4.73662,-4.5925 -0.44038,-1.17704 -0.44269,-1.38999 -0.38627,-35.55371 l 0.0568,-34.36966 0.61015,-1.24283 c 0.74792,-1.52346 2.15971,-2.97178 3.54659,-3.63827 1.57973,-0.75916 4.49749,-0.85 6.23831,-0.19421 1.76249,0.66391 3.54314,2.43558 4.1926,4.17141 l 0.47101,1.2589 -0.0567,34.69461 -0.0567,34.69457 -0.50274,0.94204 c -0.77635,1.45482 -2.11942,2.77198 -3.56115,3.49238 -1.16664,0.58302 -1.51799,0.65389 -3.17255,0.64032 -1.02335,-0.008 -2.21252,-0.14474 -2.64262,-0.30305 z m 73.6668,-0.0884 c 0,-11.28733 0.0423,-13.00436 0.32622,-13.24003 0.24579,-0.20399 1.39371,-0.24725 4.65683,-0.17569 2.38182,0.0523 4.33195,0.016 4.33362,-0.0806 0.002,-0.0967 0.004,-3.46529 0.006,-7.48587 l 0.003,-7.31018 -4.49054,-0.0587 c -3.26113,-0.0426 -4.53686,-0.13155 -4.65967,-0.32484 -0.093,-0.14647 -0.17062,-3.89696 -0.17244,-8.33443 l -0.003,-8.06826 -7.05925,0 -7.05927,0 0.0686,8.24193 c 0.0589,7.07393 0.0233,8.27282 -0.25088,8.46006 -0.395,0.26962 -9.75516,0.0312 -10.05298,-0.25616 -0.18255,-0.17614 3.1001,-14.11442 12.68105,-53.84461 1.2975,-5.38042 2.35911,-9.83963 2.35911,-9.9093 0,-0.0696 -3.46221,-0.12662 -7.69383,-0.12662 l -7.69383,0 -0.20178,0.48736 c -0.11098,0.26801 -2.55412,10.33166 -5.42921,22.3636 -2.87509,12.03194 -7.07081,29.51708 -9.32383,38.85574 -2.25303,9.33876 -4.09641,17.12762 -4.09641,17.30859 0,0.29235 1.59076,0.31432 14.26308,0.1968 10.60878,-0.0984 14.32686,-0.0685 14.51198,0.11666 0.18192,0.18195 0.2489,3.73445 0.2489,13.20138 l 0,12.95252 7.3643,0 7.36429,0 0,-12.96932 z M 198.93171,228.72626 c 11.4621,-1.19175 21.43295,-5.12789 29.48528,-11.63967 2.44612,-1.97814 6.45643,-6.07344 8.06802,-8.23899 3.78615,-5.08757 6.39844,-11.2718 7.65723,-18.12742 0.48832,-2.65941 0.68369,-10.22817 0.33956,-13.15455 -0.31818,-2.70595 -0.97364,-5.96685 -1.65032,-8.21035 -0.4699,-1.55802 -1.04324,-2.5271 -4.93347,-8.33897 -4.47807,-6.69013 -8.10232,-11.91476 -17.25788,-24.87853 -12.43736,-17.61063 -19.40935,-27.93667 -24.65924,-36.522169 l -1.34011,-2.191587 -0.36597,-4.144576 c -0.29683,-3.361643 -0.31744,-4.37973 -0.10907,-5.38931 0.6129,-2.969542 3.03204,-6.285474 6.15444,-8.435943 3.363,-2.31618 4.31104,-2.561392 9.81425,-2.538493 4.82341,0.02006 6.29084,0.318165 9.60988,1.952172 2.92186,1.438476 4.9452,3.419972 6.7435,6.604002 2.95156,5.226001 4.38086,9.987064 5.30949,17.686234 0.1834,1.52043 0.37647,2.88627 0.42907,3.03517 0.0731,0.20681 1.37183,0.27075 5.49963,0.27075 2.9722,0 5.55817,-0.0592 5.74661,-0.13147 0.30971,-0.11885 0.34262,-2.56151 0.34262,-25.437337 0,-13.918224 -0.0731,-25.341123 -0.16245,-25.384219 -0.0893,-0.0431 -1.68242,-0.02449 -3.54013,0.04137 l -3.37769,0.119717 -2.23325,3.303109 c -1.4482,2.141997 -2.36592,3.3031 -2.61072,3.3031 -0.20763,0 -0.99892,-0.377532 -1.75844,-0.838951 -4.06603,-2.470193 -10.08591,-4.918072 -16.59928,-6.7498 -7.79396,-2.191863 -19.20522,-2.10085 -28.42466,0.226709 -5.80381,1.46523 -12.60112,4.424066 -17.42715,7.585941 -9.479,6.210368 -17.07422,16.896406 -19.93059,28.041223 -1.27084,4.958447 -1.66887,9.820188 -1.17559,14.358818 0.42318,3.89359 1.80968,9.14399 3.06728,11.61512 0.31791,0.62471 35.23182,51.75109 44.38639,64.99746 0.87233,1.26222 1.21586,2.0784 2.05117,4.87339 0.93968,3.14424 0.99637,3.47409 0.89326,5.19836 -0.20094,3.36025 -1.73754,6.31068 -4.87601,9.36242 -1.36819,1.33044 -2.13757,1.87389 -3.7547,2.65215 -3.32222,1.59893 -4.86768,1.924 -9.18158,1.93125 -3.16168,0.005 -3.92069,-0.0617 -5.36976,-0.47372 -4.66415,-1.32637 -8.18347,-4.14593 -10.30318,-8.25453 -1.82166,-3.53091 -2.61484,-6.97301 -3.38493,-14.68945 -0.60713,-6.08374 -0.93237,-8.19872 -1.3088,-8.51114 -0.16629,-0.138 -3.04504,-0.19605 -7.92477,-0.1598 l -7.66362,0.0569 -0.055,26.91215 -0.055,26.91216 5.31781,0 5.31781,0 0.47699,-0.5159 c 0.26236,-0.28377 1.2913,-1.7945 2.28653,-3.35724 1.43697,-2.25634 1.90917,-2.84137 2.29347,-2.84137 0.26617,0 1.48559,0.48983 2.70983,1.08856 7.68348,3.75734 11.48798,5.11673 17.28548,6.17606 6.36597,1.16323 14.03175,1.48704 20.14775,0.85115 z"
       style="fill:#0060a9;fill-opacity:1"
       inkscape:connector-curvature="0" />
  </g>
</svg>
