<?xml version="1.0" encoding="UTF-8"?>
<!DOCTYPE svg PUBLIC "-//W3C//DTD SVG 1.1//EN" "http://www.w3.org/Graphics/SVG/1.1/DTD/svg11.dtd">
<!-- Creator: CorelDRAW -->
<svg xmlns="http://www.w3.org/2000/svg" xml:space="preserve" width="2289px" height="2289px" shape-rendering="geometricPrecision" text-rendering="geometricPrecision" image-rendering="optimizeQuality" fill-rule="evenodd" clip-rule="evenodd"
viewBox="0 0 2355.1 2355.07"
 xmlns:xlink="http://www.w3.org/1999/xlink">
 <g id="Ebene_x0020_1">
  <metadata id="CorelCorpID_0Corel-Layer"/>
  <path fill="#DA251D" fill-rule="nonzero" d="M1177.53 0c8.51001,0 16.9848,0.142157 25.445,0.319551l6.37157 0.120287c9.09686,0.240574 18.167,0.586855 27.214,1.04006l1.78487 0.0704712c620.455,31.8238 1116.75,547.74 1116.75,1175.98 0,648.549 -529.042,1177.53 -1177.56,1177.53 -638.361,0 -1160.8,-512.425 -1177.14,-1146.92 -0.0486008,-1.83468 -0.0425257,-3.68151 -0.0777613,-5.52227 -0.176178,-8.34719 -0.318336,-16.7017 -0.318336,-25.0914 0,-6.2367 0.134867,-12.4528 0.233284,-18.6688 0.0643961,-4.12014 0.0643961,-8.25485 0.177393,-12.3616 0.142157,-5.44451 0.396097,-10.8599 0.616016,-16.2837 0.190758,-4.70821 0.325626,-9.42978 0.5662,-14.1234 0.227209,-4.41782 0.55891,-8.81498 0.835934,-13.2255 0.346281,-5.54293 0.651251,-11.1004 1.07529,-16.6166 0.475073,-6.16623 1.07651,-12.3045 1.65,-18.4428 0.332916,-3.60983 0.616016,-7.24153 0.984167,-10.8453 54.6273,-533.021 467.187,-962.614 992.207,-1043.33l1.12632 -0.162813c9.1321,-1.39484 18.3079,-2.69006 27.5117,-3.87227l4.38866 -0.524889c8.09204,-1.01211 16.2132,-1.95375 24.3551,-2.79576 2.57706,-0.269735 5.16748,-0.481148 7.75183,-0.736303 7.02282,-0.680412 14.0602,-1.33166 21.1195,-1.89057 3.55394,-0.2831 7.12853,-0.495729 10.6898,-0.743593 6.43597,-0.445913 12.8707,-0.877245 19.3346,-1.22474 3.29271,-0.177393 6.59878,-0.29039 9.89149,-0.438623 6.76038,-0.30497 13.5353,-0.58078 20.3249,-0.771538 3.26476,-0.0996317 6.54896,-0.112997 9.81251,-0.184683 7.61089,-0.155523 15.2364,-0.29039 22.8825,-0.29039z"/>
  <path fill="white" fill-rule="nonzero" d="M1177.58 58.5142c616.08,0 1118.99,502.77 1118.99,1119.07 0,616.3 -502.911,1118.97 -1118.99,1118.97 -616.357,0 -1119.07,-502.67 -1119.07,-1118.97 0,-616.3 502.713,-1119.07 1119.07,-1119.07z"/>
  <path fill="#DA251D" fill-rule="nonzero" d="M1177.58 130.098c576.893,0 1047.39,470.521 1047.39,1047.44 0,576.915 -470.493,1047.41 -1047.39,1047.41 -576.994,0 -1047.46,-470.493 -1047.46,-1047.41 0,-576.915 470.463,-1047.44 1047.46,-1047.44z"/>
  <path fill="white" fill-rule="nonzero" d="M1177.58 292.763c487.13,0 884.715,397.543 884.715,884.821 0,487.378 -397.585,884.693 -884.715,884.693 -487.328,0 -884.793,-397.316 -884.793,-884.693 0,-487.278 397.465,-884.821 884.793,-884.821z"/>
  <path fill="#DA251D" fill-rule="nonzero" d="M1177.58 390.294c433.43,0 787.184,353.711 787.184,787.24 0,433.529 -353.755,787.213 -787.184,787.213 -433.607,0 -787.262,-353.684 -787.262,-787.213 0,-433.529 353.655,-787.24 787.262,-787.24z"/>
  <path fill="white" fill-rule="nonzero" d="M1769.61 763.857c-47.398,3.90022 -70.8041,-15.3846 -90.8119,-39.9086 -124.079,-136.746 -302.957,-223.012 -501.211,-223.012 -234.8,0 -442.195,120.512 -563.656,303.063 54.0259,18.8535 90.1606,53.2969 90.1606,109.241l0 493.395c-1.04735,60.8932 -50.0248,108.923 -101.651,126.43 117.765,189.815 326.759,317.393 564.83,320.961 36.0424,-1.79823 48.4538,-5.06907 10.3155,-25.6989 -117.539,-62.9891 -269.137,-197.731 -269.137,-330.879l0 -195.607c0,-40.4602 32.6658,-67.0096 62.8895,-67.0096l386.824 0c42.3289,0 77.7213,30.542 102.373,67.8589l0.225994 -336.777c-26.1521,44.957 -55.6176,69.7361 -110.415,72.0301l-382.158 0c-31.1945,0 -59.7389,-31.3706 -59.7389,-65.4094l0 -152.526c0,-28.327 5.49311,-44.4613 31.915,-58.2457 62.4642,-32.9708 150.658,-61.2188 237.222,-60.5676 76.2766,0.30497 178.027,28.1217 230.701,62.1398 149.383,97.0061 149.581,201.504 142.211,274.609l219.111 -274.086z"/>
  <path fill="white" fill-rule="nonzero" d="M1356.26 1532.64c-3.1712,5.14683 -8.02157,9.89027 -14.336,14.2085 -6.32297,4.32669 -14.5353,6.42139 -24.8508,6.74701 -12.4382,-0.0984167 -23.179,-4.94878 -32.0219,-14.5341 -8.86358,-9.69222 -13.4867,-23.2786 -13.7127,-41.0908 0,-9.89027 1.27456,-18.8535 4.21977,-26.3234 4.84915,-11.1636 10.9449,-18.5558 18.5339,-22.0247 7.39219,-3.47618 13.912,-5.0472 19.1791,-4.75073 10.5415,0.127577 20.2337,3.90143 28.8786,11.5901 8.61571,7.69594 14.5061,18.7611 17.4805,33.1968 0.396097,3.89414 1.04735,9.3666 1.47261,16.3335 0.622091,7.14311 0.622091,12.1125 0.403387,14.8318 -0.403387,2.84558 -2.1032,6.84543 -5.24646,11.8161zm-4.02172 -137.595c-12.4175,-2.94521 -25.0549,-4.41782 -38.1383,-4.41782 -25.8982,0.225994 -48.0286,5.16748 -65.7144,14.8597 -17.9045,9.89149 -31.3913,23.0805 -40.4602,39.8102 -9.04097,16.8633 -13.686,36.142 -13.686,57.5227 0.198048,26.2238 5.26712,47.6045 14.9593,64.3621 9.89149,16.6592 22.3297,29.0694 37.7143,36.9852 15.1574,7.99241 31.3986,11.9923 48.2278,11.9923 18.1305,-0.523674 32.6731,-3.15055 43.4127,-8.21962 10.5342,-5.03991 18.7538,-9.98869 24.4462,-14.8318 -1.49326,13.2607 -4.84186,26.7475 -10.5415,40.7579 -5.49433,13.912 -16.0079,25.4729 -32.0146,34.543 -11.5901,5.49311 -23.8302,8.1127 -37.0909,7.68865 -13.6848,-0.199263 -25.0768,-2.09591 -34.1178,-5.46638 -8.86358,-3.36925 -15.8086,-6.44204 -20.8571,-9.16855l-5.49311 2.52846 -3.37047 58.0391 2.52117 3.46889c10.7675,2.3292 21.083,4.54539 31.3986,6.12492 10.1163,1.79823 21.2811,2.51995 33.4945,2.61959 50.1451,0 89.1339,-15.1586 116.305,-45.4029 27.18,-30.2236 40.8648,-75.5063 41.2888,-136.095 0.199263,-42.1381 -7.17105,-76.7796 -21.9044,-104.178 -14.9593,-27.2711 -38.3363,-45.0773 -70.3801,-53.5229z"/>
  <path fill="white" fill-rule="nonzero" d="M1671.63 1532.84c-20.433,-20.0078 -49.2752,-30.3439 -85.9421,-30.9672 -4.84915,0.0996317 -9.49417,0.219919 -13.912,0.750883 -4.42389,0.29768 -9.49296,1.04735 -15.3834,1.67065l4.0205 -46.2303 117.957 2.84558 3.37654 -2.84558 4.41782 -58.6916 -2.29396 -2.30125 -186.049 0 -3.37047 3.77386c-0.622091,16.3335 -1.47261,30.6696 -2.0947,42.9814 -0.630596,12.3398 -1.27456,24.4535 -2.1032,36.5673 -0.643961,11.8866 -1.6986,25.3733 -2.74716,40.3326 -1.04735,15.1865 -2.51995,33.5941 -4.21855,55.4208l4.4166 2.42883c7.59753,-3.8018 16.2339,-7.39948 26.1254,-10.6412 9.91822,-3.07279 22.1304,-4.75073 36.6657,-5.06907 22.3297,0.523674 38.9876,5.89042 50.1524,16.5304 11.1648,10.6412 16.8365,23.6042 16.8365,39.0884 -0.198048,16.4319 -6.09576,29.819 -17.6858,39.9365 -11.3629,10.2159 -26.9735,15.483 -46.7759,15.7807 -24.8569,-0.198048 -47.4065,-7.0374 -67.8383,-20.5241l-4.41782 1.99628c-0.424042,8.41767 -0.8493,15.6823 -1.27456,21.275 -0.403387,5.69845 -0.622091,11.2632 -1.25269,16.9629 -0.425257,5.69237 -1.04735,12.7359 -1.89786,21.275l2.52846 3.90022c13.9108,4.74344 26.7463,8.21233 38.5563,10.8392 12.2195,2.42154 26.3295,3.69609 42.9874,3.79451 37.9123,-0.523674 67.4069,-7.56837 88.264,-20.8571 20.6298,-13.2595 35.1931,-29.1678 43.1794,-47.7029 8.02157,-18.5558 11.7942,-36.0363 11.3908,-52.4755 -0.424042,-33.1895 -10.7614,-59.7098 -31.6173,-79.8451z"/>
 </g>
</svg>
