<?xml version="1.0" encoding="utf-8"?>
<!-- Generator: Adobe Illustrator 13.0.2, SVG Export Plug-In . SVG Version: 6.00 Build 14948)  -->
<!DOCTYPE svg PUBLIC "-//W3C//DTD SVG 1.0//EN" "http://www.w3.org/TR/2001/REC-SVG-20010904/DTD/svg10.dtd">
<svg version="1.0" id="Ebene_1" xmlns="http://www.w3.org/2000/svg" xmlns:xlink="http://www.w3.org/1999/xlink" x="0px" y="0px"
	 width="545.697px" height="643.291px" viewBox="0 0 545.697 643.291" enable-background="new 0 0 545.697 643.291"
	 xml:space="preserve">
<g>
	<path fill="#0072B6" d="M78.887,517.831c0.342-1.47,0.281-2.904-0.155-4.299c2.001,2.112,4.078,3.281,6.234,3.513
		c2.143,0.229,4.483-0.476,7.006-2.113c3.386-2.199,5.111-4.906,5.193-8.134c0.068-3.229-1.521-7.354-4.788-12.385l-9.572-14.74
		l-33.751,21.092l7.553,11.631l10.961-6.857l0.849,1.307c0.605,0.934,0.884,1.75,0.816,2.44c-0.062,0.697-0.445,1.467-1.121,2.314
		l-6.728,8.153l8.176,12.589l7.182-10.047C77.839,520.788,78.559,519.302,78.887,517.831L78.887,517.831z M82.15,496.137
		L82.15,496.137l2.123,3.269c0.72,1.108,0.98,2.128,0.786,3.082c-0.191,0.94-0.843,1.771-1.964,2.5
		c-1.072,0.695-2.057,0.927-2.961,0.698c-0.902-0.242-1.727-0.93-2.478-2.086l-2.139-3.293L82.15,496.137z"/>
	<path fill="#0072B6" d="M114.149,521.294l-39.052,16.847l10.665,11.042l5.784-3.378l9.264,9.594l-3.519,5.724l10.406,10.775
		l18.893-37.722L114.149,521.294L114.149,521.294z M111.293,538.151L111.293,538.151l-4.985,8.303l-5.553-5.752l8.164-4.553
		c0.814-0.456,1.855-1.013,3.121-1.68c1.259-0.661,2.073-1.091,2.43-1.29c-0.295,0.47-0.709,1.121-1.228,1.926
		C112.283,536.575,111.631,537.588,111.293,538.151z"/>
	<path fill="#0072B6" d="M160.501,558.016L148.82,577.8c-0.074,0.146-0.465,0.786-1.155,1.92c-0.691,1.133-1.326,2.199-1.912,3.204
		c0.39-1.786,0.674-3.079,0.868-3.883c0.184-0.809,0.355-1.454,0.494-1.948l5.988-23.88l-14.271-9.269l-21.999,33.162l10.396,6.751
		l11.315-18.908c0.371-0.607,0.863-1.435,1.47-2.473c0.999-1.679,1.66-2.75,1.97-3.226c-0.354,1.226-0.673,2.383-0.955,3.46
		c-0.286,1.087-0.542,2.056-0.771,2.915l-5.774,22.942l14.604,9.484l21.857-33.255L160.501,558.016z"/>
	<polygon fill="#0072B6" points="65.829,481.813 58.964,464.819 62.962,463.297 69.834,480.308 80.058,476.36 68.051,446.641 
		30.884,460.879 36.026,473.605 49.034,468.646 55.899,485.639 	"/>
	<path fill="#FFFFFF" d="M80.134,505.686c0.905,0.229,1.89-0.003,2.961-0.698c1.121-0.729,1.772-1.56,1.964-2.5
		c0.194-0.954-0.066-1.974-0.786-3.082l-2.123-3.269l-6.632,4.17l2.139,3.293C78.408,504.756,79.232,505.443,80.134,505.686z"/>
	<polygon fill="#0072B6" points="208.906,620.644 222.424,623.026 225.112,609.368 243.161,612.55 245.176,602.102 227.128,598.919 
		227.956,594.721 246.023,597.907 248.094,587.146 216.528,581.58 	"/>
	<path fill="#0072B6" d="M331.022,605.759c-1.218-0.888-2.561-1.394-4.016-1.537c2.727-1.018,4.612-2.473,5.669-4.366
		c1.048-1.883,1.314-4.313,0.793-7.274c-0.701-3.976-2.52-6.622-5.458-7.958c-2.946-1.324-7.363-1.474-13.271-0.433l-17.31,3.053
		l6.227,39.309l13.658-2.408l-2.03-12.771l1.536-0.27c1.096-0.193,1.955-0.131,2.564,0.202c0.619,0.33,1.177,0.982,1.692,1.936
		l4.877,9.379l14.782-2.606l-6.442-10.537C333.337,607.878,332.25,606.636,331.022,605.759L331.022,605.759z M320.332,599.865
		L320.332,599.865c-0.575,0.735-1.532,1.226-2.889,1.465l-3.866,0.682l-1.247-7.733l3.837-0.677c1.302-0.23,2.342-0.072,3.146,0.479
		c0.79,0.544,1.301,1.469,1.533,2.785C321.067,598.124,320.896,599.121,320.332,599.865z"/>
	<polygon fill="#0072B6" points="368.987,567.106 334.59,580.311 338.606,591.38 349.344,587.259 358.914,613.597 371.862,608.628 
		362.292,582.288 373.003,578.177 	"/>
	<path fill="#0072B6" d="M480.316,486.836l18.794,8.952l6.445-11.162l-37.4-14.811l-8.464,14.663l16.913,13.728
		c0.287,0.231,0.707,0.562,1.267,1.017c2.24,1.829,4.005,3.233,5.282,4.213c-1.933-0.863-4.221-1.822-6.864-2.877
		c-0.663-0.273-1.129-0.466-1.391-0.571l-19.343-8.348l-8.493,14.712l30.603,26.581L484,521.959l-16.687-12.599
		c-0.286-0.198-1.205-0.915-2.782-2.144c-1.571-1.237-3.001-2.336-4.284-3.308c1.579,0.669,3.026,1.297,4.335,1.855
		c1.318,0.563,2.485,1.06,3.526,1.485l19.596,8.296l7.894-13.674l-16.15-13.089c-0.123-0.094-0.966-0.788-2.542-2.094
		s-3.111-2.532-4.595-3.674c1.451,0.717,2.84,1.388,4.184,2.021C477.829,485.665,479.103,486.267,480.316,486.836z"/>
	<path fill="#0072B6" d="M276.74,610.208c-0.115,2.18-0.538,3.675-1.289,4.485c-0.742,0.811-1.991,1.181-3.729,1.119
		c-1.749-0.061-2.951-0.496-3.598-1.298c-0.648-0.803-0.937-2.322-0.857-4.58l0.015-0.452l1.098-21.601l-14.031-0.491l-1.213,23.57
		l-0.016,0.452c-0.188,5.369,1.21,9.477,4.182,12.341c2.973,2.854,7.465,4.387,13.479,4.597c6.233,0.218,11.004-1.059,14.306-3.828
		s5.075-6.969,5.329-12.597l1.087-23.237l-13.718-0.479L276.74,610.208z"/>
	<path fill="#0072B6" d="M404.597,545.561l12.67,40.599l12.098-9.451l-2.755-6.105l10.509-8.211l5.325,4.099l11.805-9.225
		l-35.54-22.73L404.597,545.561L404.597,545.561z M428.797,555.987L428.797,555.987l-6.3,4.923l-3.675-8.596
		c-0.368-0.858-0.812-1.95-1.343-3.279c-0.526-1.322-0.868-2.177-1.029-2.552c0.437,0.343,1.041,0.822,1.786,1.422
		c1.36,1.109,2.301,1.862,2.826,2.258L428.797,555.987z"/>
	<polygon fill="#0072B6" points="213.05,581.646 198.182,575.64 181.517,589.682 188.988,571.925 176.183,566.751 160.659,603.398 
		173.438,608.561 181.089,590.514 182.605,612.265 197.552,618.305 194.427,595.26 	"/>
	<path fill-rule="evenodd" clip-rule="evenodd" fill="#0072B6" d="M230.423,27.785l87.489-0.015l3.711-21.73h-97.239
		c0,4.539,1.764,8.136,2.367,11.525C227.152,19.817,228.043,27.785,230.423,27.785z"/>
	<path fill-rule="evenodd" clip-rule="evenodd" fill="#FFFFFF" d="M75.527,178.392c-2.12-1.405-4.552-4.616-4.552-7.451v-3.02
		c0-9.478,12.133-19.329,23.106-19.232L75.527,178.392L75.527,178.392z M447.6,143.917L447.6,143.917
		c10.113,0.061,23.206,9.661,23.206,18.567v4.228c0,2.812-2.567,6.644-4.579,7.09L447.6,143.917L447.6,143.917z M90.302,135.907
		L90.302,135.907l-15.704,5.436c0.288-3.455,6.131-22.39,7.626-26.802c2.989-8.81,5.394-18.402,8.005-27.029
		c1.479-4.888,2.429-8.719,4.047-13.469c1.774-5.207,0.577-10.415,5.796-11.72c8.69-2.174,19.542-5.844,27.719-7.313
		c9.474-1.701,19.563-4.472,28.456-5.972c10.363-1.749,19.967-2.753,30.438-4.594c17.139-3.012,45.812-5.182,64.879-5.182h22.951
		c13.122,0,33.941,0.45,45.363,2.35c6.879,1.145,14.415,0.908,21.438,2.117c4.939,0.85,18.081,1.558,21.378,2.781
		c2.15,0.798,17.094,2.972,20.076,3.479c7.452,1.267,13.33,2.091,20.647,3.512c6.668,1.293,13.682,2.8,19.793,4.367
		c3.554,0.911,17.187,4.288,19.587,4.409l20.76,76.045c-2.927-0.065-16.458-5.067-20.41-6.165
		c-6.771-1.882-13.861-3.544-21.029-5.545c-13.379-3.734-29.999-6.935-43.864-9.286c-30.059-5.097-63.541-8.603-98.303-8.603
		h-16.308c-33.676,0-62.183,5.12-91.793,8.469c-13.397,1.516-28.612,6.504-41.685,8.444c-5.902,0.876-13.742,3.414-19.7,5.063
		C106.346,131.842,93.413,135.907,90.302,135.907L90.302,135.907z M95.738,56.779L95.738,56.779
		c-2.659,5.024-4.949,7.122-7.658,13.483c-2.292,5.382-4.167,9.778-5.867,15.876c-3.214,11.533-6.145,21.569-8.564,34.322
		c-2.217,11.686-5.315,24.438-6.298,36.587c-0.829,10.25-1.822,30.805,9.663,30.805c2.414,0,19.774-30.805,22.459-34.92
		c8.16-12.503,21.352-15.478,37.111-20.27c23.358-7.101,73.141-11.252,103.503-11.252h45.901c10.197,0,19.849,1.289,28.984,1.214
		c5.497-0.047,23.391,0.637,28.641,1.559c8.888,1.559,18.911,0.87,27.782,2.417c9.166,1.597,18.131,1.961,27.295,3.509
		c9.191,1.551,17.236,3.471,25.146,5.052c10.628,2.124,13.033,5.411,17.976,12.828c4.578,6.865,19.903,32.746,25.367,35.638
		c3.973-5.933,8.456-13.048,8.456-22.953c0-11.335-5.455-23.602-7.968-33.106c-2.715-10.263-5.938-21.595-9.025-32.048
		c-3.022-10.23-6.34-21.762-8.99-32.083c-2.403-9.362-0.963-7.658-10.904-9.631c-5.674-1.126-11.648-2.413-17.224-3.917
		c-10.343-2.788-23.535-4.704-34.288-6.781c-11.383-2.201-24.585-3.955-35.539-5.533c-23.551-3.393-51.446-4.957-77.788-4.957
		c-15.649,0-33.809,0.253-48.273,1.857c-15.461,1.715-30.419,3.773-45.287,5.448c-13.908,1.566-29.754,5.018-43.092,7.643
		c-7.057,1.389-13.635,2.953-20.737,4.63C111.987,53.267,99.263,56.779,95.738,56.779z"/>
	<path fill-rule="evenodd" clip-rule="evenodd" fill="#0072B6" d="M391.125,35.894c3.604,0.602,12.979,2.746,15.88,3.75
		c3.991,1.381,11.168,2.146,15.488,3.237c5.076,1.281,27.284,6.65,31.4,6.65c0.229,0,16.655-19.64,18.231-21.633
		c2.631-3.326,17.452-20.381,18.007-22.461L410,5.559L391.125,35.894z"/>
	<path fill-rule="evenodd" clip-rule="evenodd" fill="#0072B6" d="M89.698,51.947c3.35,0,24.11-5.063,29.458-6.177
		c9.505-1.979,20.126-4.27,29.732-6.507c-0.916-3.426-18.664-30.806-20.536-30.806H48.628
		C49.493,11.698,88.495,51.947,89.698,51.947z"/>
	<path fill-rule="evenodd" clip-rule="evenodd" fill="#0072B6" d="M250.959,65.235v2.416c0,7.553,11.756,10.986,18.119,12.685v3.02
		c-1.62,0.388-1.139,0.604-2.416,0.604c-6.312,0-9.73-3.118-14.495-4.228v14.497c0,2.841,10.189,4.833,13.287,4.833h4.833
		c8.799,0,18.722-8.666,18.722-17.517v-4.228c0-3.133-4.955-8.016-7.465-9.447c-0.18-0.103-12.251-4.388-12.466-4.445
		c0.2-2.409,1.153-3.02,3.624-3.02h1.208c4.317,0,8.792,5.133,12.684,6.04V51.947c0-2.688-8.299-5.437-11.477-5.437h-7.247
		C257.813,46.51,250.959,54.583,250.959,65.235z"/>
	<path fill-rule="evenodd" clip-rule="evenodd" fill="#0072B6" d="M289.009,90.604v2.416c0,4.304,3.926,7.249,8.456,7.249
		c4.425,0,8.454-3.643,8.454-7.852c0-4.669-3.503-9.062-7.851-9.062h-1.208C293.248,83.355,289.009,86.995,289.009,90.604z"/>
	<path fill-rule="evenodd" clip-rule="evenodd" fill="#0072B6" d="M194.79,95.437c0,4.587,3.979,9.06,8.456,9.06
		c4.53,0,8.456-2.944,8.456-7.248v-3.021c0-3.391-3.993-6.645-7.248-6.645h-1.812C198.835,87.584,194.79,92.051,194.79,95.437z"/>
	<path fill-rule="evenodd" clip-rule="evenodd" fill="#0072B6" d="M346.155,103.337l16.832,2.191l25.674-45.702l-18.721-2.444
		c-2.305,3.445-11.646,25.818-12.682,26.578c0-10.426-1.548-15.558-1.791-24.183c-0.161-5.653-1.163-5.676-6.664-6.02
		c-3.942-0.247-6.775-1.811-11.478-1.811l-1.835,0.005L346.155,103.337z"/>
	<path fill-rule="evenodd" clip-rule="evenodd" fill="#0072B6" d="M156.802,59.544l8.393,49.785
		c2.079-0.046,17.725-2.358,18.281-2.905c0.933-0.914-2.578-14.757-2.583-17.658l13.552-2.427l-2.114-13.459l-13.849,2.624
		c-0.315-1.355-0.604-1.389-0.604-3.02l0.034-2.244l14.462-2.588v-3.02c0-4.415-1.813-6.457-1.863-11.158L156.802,59.544z"/>
	<path fill-rule="evenodd" clip-rule="evenodd" fill="#0072B6" d="M371.754,100.873c0,3.897,3.78,9.061,7.247,9.061
		c4.927,0,9.663-2.592,9.663-7.248v-3.02c0-3.071-3.573-6.645-6.643-6.645h-3.021C375.366,93.021,371.754,97.357,371.754,100.873z"
		/>
	<path fill-rule="evenodd" clip-rule="evenodd" fill="#FFFFFF" d="M371.754,100.873c0-3.516,3.612-7.852,7.247-7.852h3.021
		c3.069,0,6.643,3.573,6.643,6.645v3.02c0,4.656-4.736,7.248-9.663,7.248C375.534,109.933,371.754,104.77,371.754,100.873
		L371.754,100.873z M194.79,95.437L194.79,95.437c0-3.386,4.046-7.853,7.851-7.853h1.812c3.255,0,7.248,3.254,7.248,6.645v3.021
		c0,4.304-3.926,7.248-8.456,7.248C198.769,104.497,194.79,100.024,194.79,95.437L194.79,95.437z M289.009,90.604L289.009,90.604
		c0-3.61,4.239-7.249,7.852-7.249h1.208c4.348,0,7.851,4.393,7.851,9.062c0,4.209-4.029,7.852-8.454,7.852
		c-4.53,0-8.456-2.945-8.456-7.249V90.604L289.009,90.604z M190.51,53.473L190.51,53.473c0.051,4.701,1.863,6.743,1.863,11.158v3.02
		l-14.462,2.588l-0.034,2.244c0,1.631,0.289,1.665,0.604,3.02l13.849-2.624l2.114,13.459l-13.552,2.427
		c0.005,2.901,3.516,16.744,2.583,17.658c-0.557,0.546-16.202,2.859-18.281,2.905l-8.393-49.785L190.51,53.473L190.51,53.473z
		 M250.959,65.235L250.959,65.235v2.416c0,7.553,11.756,10.986,18.119,12.685v3.02c-1.62,0.388-1.139,0.604-2.416,0.604
		c-6.312,0-9.73-3.118-14.495-4.228v14.497c0,2.841,10.189,4.833,13.287,4.833h4.833c8.799,0,18.722-8.666,18.722-17.517v-4.228
		c0-3.133-4.955-8.016-7.465-9.447c-0.18-0.103-12.251-4.388-12.466-4.445c0.2-2.409,1.153-3.02,3.624-3.02h1.208
		c4.317,0,8.792,5.133,12.684,6.04V51.947c0-2.688-8.299-5.437-11.477-5.437h-7.247C257.813,46.51,250.959,54.583,250.959,65.235
		L250.959,65.235z M346.155,103.337L346.155,103.337l16.832,2.191l25.674-45.702l-18.721-2.444
		c-2.305,3.445-11.646,25.818-12.682,26.578c0-10.426-1.548-15.558-1.791-24.183c-0.161-5.653-1.163-5.676-6.664-6.02
		c-3.942-0.247-6.775-1.811-11.478-1.811l-1.835,0.005L346.155,103.337L346.155,103.337z M99.361,67.651L99.361,67.651
		L80.72,134.958l21.058-6.903c5.322,0,30.184-8.029,37.583-9.528c13.306-2.695,26.523-5.153,39.87-7.844
		c24.085-4.857,59.26-7.998,87.431-7.998h26.575c21.974,0,47.588,2.953,67.04,6.04c10.819,1.717,21.191,3.37,31.45,5.394
		c6.916,1.364,24.755,6.688,30.101,6.874l33.878,10.083c-0.565-6.797-5.183-19.384-6.896-26.93
		c-1.807-7.958-4.287-19.641-6.813-27.013c-1.582-4.624-0.744-10.591-5.452-11.461c-3.092-0.572-10.634-2.008-13.8-3.111
		c-6.395-2.227-20.447-4.615-27.784-6.038c-35.753-6.94-81.285-13.031-122.864-13.031h-23.555c-9.465,0-31.224,1.489-40.005,2.877
		c-6.654,1.052-13.024,0.914-19.524,2.219c-4.528,0.909-15.118,2.553-18.987,2.756C159.994,51.87,105.483,64.411,99.361,67.651z"/>
	<path fill-rule="evenodd" clip-rule="evenodd" fill="#342E27" d="M99.361,67.651c6.122-3.24,60.633-15.781,70.665-16.308
		c3.87-0.204,14.459-1.847,18.987-2.756c6.5-1.305,12.871-1.167,19.524-2.219c8.781-1.388,30.54-2.877,40.005-2.877h23.555
		c41.579,0,87.111,6.091,122.864,13.031c7.337,1.423,21.39,3.812,27.784,6.038c3.166,1.103,10.708,2.539,13.8,3.111
		c4.708,0.87,3.87,6.838,5.452,11.461c2.525,7.372,5.006,19.055,6.813,27.013c1.713,7.546,6.33,20.133,6.896,26.93l-33.878-10.083
		c-5.346-0.186-23.185-5.51-30.101-6.874c-10.259-2.023-20.631-3.676-31.45-5.394c-19.452-3.087-45.066-6.04-67.04-6.04h-26.575
		c-28.171,0-63.346,3.14-87.431,7.998c-13.347,2.691-26.564,5.149-39.87,7.844c-7.4,1.5-32.262,9.528-37.583,9.528l-21.058,6.903
		L99.361,67.651L99.361,67.651z M90.302,135.907L90.302,135.907c3.11,0,16.043-4.065,20.162-5.206
		c5.958-1.65,13.798-4.188,19.7-5.063c13.073-1.94,28.288-6.928,41.685-8.444c29.61-3.349,58.117-8.469,91.793-8.469h16.308
		c34.762,0,68.244,3.505,98.303,8.603c13.865,2.351,30.485,5.552,43.864,9.286c7.168,2.001,14.259,3.663,21.029,5.545
		c3.952,1.098,17.483,6.1,20.41,6.165l-20.76-76.045c-2.4-0.121-16.033-3.498-19.587-4.409c-6.111-1.567-13.125-3.074-19.793-4.367
		c-7.317-1.421-13.195-2.246-20.647-3.512c-2.982-0.507-17.926-2.681-20.076-3.479c-3.297-1.224-16.438-1.932-21.378-2.781
		c-7.023-1.208-14.56-0.972-21.438-2.117c-11.422-1.9-32.241-2.35-45.363-2.35h-22.951c-19.067,0-47.74,2.17-64.879,5.182
		c-10.471,1.84-20.075,2.845-30.438,4.594c-8.892,1.5-18.982,4.271-28.456,5.972c-8.176,1.469-19.029,5.139-27.719,7.313
		c-5.219,1.305-4.021,6.514-5.796,11.72c-1.618,4.75-2.568,8.581-4.047,13.469c-2.611,8.626-5.016,18.219-8.005,27.029
		c-1.496,4.412-7.338,23.347-7.626,26.802L90.302,135.907z"/>
	<path fill-rule="evenodd" clip-rule="evenodd" fill="#0072B6" d="M471.204,124.262c3.74,6.85,8.66,22.489,8.66,32.786
		c0,14.693-4.669,19.789-5.436,28.993c3.509-0.938,65.229-59.74,65.229-61.611V42.282l-0.588-0.484L471.204,124.262z"/>
	<path fill-rule="evenodd" clip-rule="evenodd" fill="#FFFFFF" d="M271.494,135.303c-3.34,0-5.432-3.021-6.04-3.021
		c-1.952,0-3.155,1.921-5.002,2.863c-2.51,1.279-3.366,0.158-6.474,0.158h-4.228c-1.395,0-3.623,0.675-3.623,1.812
		c0,8.181,18.963,19.933,28.99,19.933h2.417c4.394,0,5.314-1.551,8.455-1.812v-6.041l0.688-0.351l2.936,6.391
		c4.703-0.392,15.287-14.333,15.703-19.329h-10.872c-1.717,0-2.643-2.214-3.02-3.625h-1.812c-1.927,0-3.194,2.016-3.624,3.625
		c-5.89-0.131-6.367-4.229-7.852-4.229C275.62,131.678,273.674,135.303,271.494,135.303z"/>
	<path fill-rule="evenodd" clip-rule="evenodd" fill="#342E27" d="M94.081,148.688c-10.973-0.097-23.106,9.755-23.106,19.232v3.02
		c0,2.835,2.433,6.046,4.552,7.451L94.081,148.688z"/>
	<path fill-rule="evenodd" clip-rule="evenodd" fill="#342E27" d="M447.6,143.917l18.627,29.885c2.012-0.446,4.579-4.278,4.579-7.09
		v-4.228C470.806,153.578,457.713,143.979,447.6,143.917z"/>
	<path fill-rule="evenodd" clip-rule="evenodd" fill="#FFFFFF" d="M408.596,174.565l1.208,11.476h1.812
		c5.338,0,10.496-9.982,16.911-11.476c-0.379,4.566-16.937,13.647-18.118,16.912h3.019c7.144,0,14.54-2.227,18.969-5.19
		c3.73-2.495,10.404-9.235,9.58-15.372l-1.369-9.035C431.025,162.093,415.461,170.931,408.596,174.565z"/>
	<path fill-rule="evenodd" clip-rule="evenodd" fill="#E5344C" d="M94.53,170.336c4.773,7.129,16.75,9.791,26.574,12.081
		c-1.354-5.074-12.684-8.989-12.684-24.765v-6.644C100.312,152.897,98.072,163.641,94.53,170.336z"/>
	<path fill-rule="evenodd" clip-rule="evenodd" fill="#FFFFFF" d="M109.629,155.839v2.417c0,7.653,5.895,12.146,10.423,15.549
		c3.769,2.833,11.304,9.215,16.755,9.215h3.02c0.989,0,1.813-0.361,1.813-1.208c0-3.033-13.181-8.313-15.705-12.081
		c4.111,0.091,10.24,4.833,10.269,4.833c3.054,0,9.06-0.734,9.06-3.625c0-6.371-22.048-15.705-28.991-15.705h-3.623
		C111.698,155.236,110.36,155.556,109.629,155.839z"/>
	<path fill-rule="evenodd" clip-rule="evenodd" fill="#0072B6" d="M7.557,151.008c2.603,0.695,23.547,15.498,27.663,18.241
		c3.922,2.615,25.507,18,28.507,18h6.04c-0.366-1.373-3.753-6.387-4.775-9.117c-0.887-2.368-1.265-9.195-1.265-12.628v-2.416
		c0-7.749,0.793-14.079,2.29-20.06c0.525-2.1,3.75-17.865,3.75-18.598c0-0.079-59.557-62.111-62.209-62.819V151.008z"/>
	<path fill-rule="evenodd" clip-rule="evenodd" fill="#E5344C" d="M436.982,192.082l16.911-4.229
		c1.243,2.351,1.813,4.844,1.813,8.457v4.228c0,9.279-16.779,16.741-20.535,22.35c2.294,3.131,24.85,9.06,31.407,9.06h5.436
		c2.193,0,2.118-0.717,4.227-1.208c0,21.859-18.141,28.389-39.862,28.389H426.11c0.127,5.697,12.188,10.743,17.036,11.956
		c5.165,1.293,18.938,4.958,24.034,4.958h4.833c3.801-16.317,11.475-31.263,11.475-51.343v-0.604
		c0-7.773-13.057-24.42-17.152-30.564c-2.777-4.165-17.541-26.588-19.69-28.027c0,4.013-1.502,12.242-2.52,15.601
		C442.404,186.785,439.596,188.178,436.982,192.082z"/>
	<path fill-rule="evenodd" clip-rule="evenodd" fill="#FFFFFF" d="M99.965,184.229c0,10.589,22.525,33.222,32.011,33.222h6.04
		c1.392,0,1.812-0.42,1.812-1.812l0.003-6.053l-6.042-1.195v-2.417c-4.283-0.096-12.694-3.581-14.451-6.224l19.283,4.411v-2.416
		h3.624v-3.02c0-11.876-10.904-8.972-19.479-10.721c-8.404-1.714-15.801-7.848-22.799-8.004V184.229z"/>
	<path fill-rule="evenodd" clip-rule="evenodd" fill="#FFFFFF" d="M439.399,196.914l-3.046,0.192l-12.055-1.4h-7.247
		c-5.562,0-6.69,1.127-10.585,3.129l3.941,11.971c10.216,0,19.958-7.248,25.367-7.248h1.812c-0.536,6.432-12.606,9.061-19.328,9.061
		c-3.567,2.389-7.247,2.262-7.247,8.457v0.604c0,1.391,0.421,1.813,1.813,1.813h2.415c10.709,0,37.446-16.214,37.446-25.37v-1.812
		c0-1.631-0.288-1.665-0.604-3.02h-1.813C448.809,193.29,445.213,196.914,439.399,196.914z"/>
	<path fill-rule="evenodd" clip-rule="evenodd" fill="#E5344C" d="M62.519,225.907v1.812c0,4.982,5.686,19.435,7.445,23.964
		c1.928,4.965,7.051,19.326,7.051,24.962v3.021c5.286-0.44,31.322-15.312,33.823-18.726c-1.889,0.159-2.146,0.604-4.228,0.604
		h-5.436c-17.722,0-34.427-11.75-34.427-30.201v-1.208c0-2.083,0.446-2.339,0.604-4.228c4.781,0.106,10.007,4.228,18.119,4.228
		c8.335,0,12.494-3.375,18.636-5.523c3.097-1.084,5.478-2.077,8.718-3.362c2.684-1.064,8.884-1.184,8.884-3.8v-1.812
		c-17.162-3.999-25.904-38.558-30.803-39.866c-0.662,2.841-12.225,20.405-14.736,24.524
		C73.764,204.243,62.519,221.998,62.519,225.907z"/>
	<path fill-rule="evenodd" clip-rule="evenodd" fill="#FFFFFF" d="M125.346,222.985c-3.299,2.103-34.339,12.586-39.876,12.586h-3.02
		c-2.836,0-6.733-3.02-7.852-3.02h-2.416c0,13.172,19.255,21.746,33.823,21.746h9.664c5.094,0,30.803-4.15,30.803-6.644
		c0-2.184-2.539-3.211-3.624-4.833c1.154-1.724,6.041-5.822,6.041-7.852c0-1.023-0.806-2.258-1.224-2.91l-6.024-0.714v-8.457
		c-1.586-0.37-3.696-1.455-5.468-1.435L125.346,222.985z"/>
	<path fill-rule="evenodd" clip-rule="evenodd" fill="#E5344C" d="M112.045,149.799c0,3.833,18.468,3.855,22.85,5.537
		c0.005,0.002,8.594,5.139,9.007,5.489c2.895,2.461,3.392,5.887,8.609,5.887h12.684c0-6.874,2.138-15.097,6.264-17.897
		c1.479-1.003,17.321-5.661,19.102-5.661h1.813c3.438,0,1.208,18.874,1.208,22.954v9.06c0,4.838,3.02,11.854,3.02,14.498
		c0,19.366-26.575,14.627-26.575,22.953c0,9.686,18.839,12.684,28.991,12.684c1.51,1.012,7.852,5.47,7.852,7.248
		c0,4.806-4.833,12.309-4.833,15.705v0.604c0,3.062,2.529,7.249,6.04,7.249h1.813c3.161,0,15.008-20.021,17.392-23.681
		c5.39-8.277,28.411-4.196,30.322-11.353h-3.021c-2.661,0-15.099-3.742-15.099-5.437c0-2.545,15.404-10.752,18.12-11.477v-2.416
		c-3.511-0.818-7.853-1.009-7.853-5.437l0.264-1.423l4.995-3.384l-0.427-0.629c-6.663-3.198-7.693-1.082-15.099-6.04
		c-6.356,1.48-12.959,6.04-20.536,6.04c-3.479,0-4.964-1.203-7.247-1.812c1.443-5.405,27.41-2.347,30.803-16.913l-0.188-0.576
		l-13.703,4.2c-0.07-3.158-1.208-4.194-1.208-7.248c0-5.773,5.076-10.179,10.616-11.129c4.968-0.852,16.446-0.528,16.563-5.784
		c-4.396-1.174-12.683-9.529-12.683-15.705v-2.416c5.2,0,7.118-1.8,11.452-1.835c8.837-0.076,8.296-2.997,10.291-2.997h1.812
		c1.73,0,2.847,2.417,6.04,2.417c3.194,0,4.31-2.417,6.041-2.417h1.208c1.182,0,4.336,2.888,5.436,3.624
		c1.889-1,4.238-3.624,5.436-3.624c1.802,0,3.246,3.366,5.436,4.833c6.976,0,13.444-1.255,16.308,3.02
		c-1.974,3.728-16.912,19.784-16.912,20.537v2.416c0,5.119,5.585,15.265,10.872,15.705c-0.143,1.706,0.014,2.417-1.812,2.417H302.9
		c-2.083,0-2.339-0.447-4.228-0.604v1.813c0,5.421,7.909,10.976,10.289,14.502l-0.67,2.901l-1.728,0.546l-9.1-1.641
		c2.326,2.022,17.515,17.798,17.515,19.933c0,1.271-7.561,2.67-9.061,3.021c0.892,3.333,6.271,6.176,9.312,8.204
		c3.815,2.546,6.264,5.696,9.266,8.854c5.526,5.819,7.682,19.183,16.455,19.183h3.02c1.631,0,1.665-0.289,2.8-0.623l1.615-21.549
		l8.873-8.03c12.239,0,21.742,0.12,21.742-12.081v-5.437c-4.736,0-13.611-3.456-17.12-5.228c-4.951-2.501-9.455-5.738-9.455-12.894
		c0-9.014,8.456-21.034,8.456-34.43c-1.688-2.52-2.416-2.759-2.416-7.248v-1.812c0-1.392,0.42-1.813,1.812-1.813h7.852
		c3.972,0,4.688,1.208,9.061,1.208c4.367,2.925,11.475,8.795,11.475,15.705l0.135,1.229l-0.738,5.416
		c1.266,0.67,11.988,4.228,13.287,4.228c6.853,0,29.164-14.299,38.052-14.497c-0.244-10.913-23.337-17.288-33.581-20.175
		c-15.854-4.47-29.604-4.567-47.218-7.141c-29.124-4.253-71.458-4.094-104.622-4.094h-10.872c-25.754,0-49.804,2.17-73.023,4.89
		C156.828,131.477,112.045,138.893,112.045,149.799z"/>
	<path fill-rule="evenodd" clip-rule="evenodd" fill="#FFFFFF" d="M167.006,266.981c0,8.076,2.38,10.514,6.494,14.646
		c1.445,1.453,10.646,8.911,12.23,8.911h4.227c3.749,0,8.457-1.544,8.457-4.832v-0.604c0-6.177-5.49-13.322-6.04-19.934h-1.813
		c-4.116,0-10.721-5.436-16.911-5.436C168.976,259.732,167.006,262.215,167.006,266.981z"/>
	<path fill-rule="evenodd" clip-rule="evenodd" fill="#FFFFFF" d="M84.867,283.29c0,4.974,17.26,7.852,24.159,7.852h2.416
		c24.177,0,43.462-10.297,53.15-24.765c-0.896-1.223-1.387-1.813-3.624-1.813h-0.604c-0.03,0-16.572,8.398-19.578,9.415
		c-5.362,1.812-16.967,6.162-22.701,6.291v-1.208c8.733-2.035,27.425-9.608,33.822-13.893l0.359-3.41l1.454-3.234h-3.021
		c0.316-1.354,0.604-1.39,0.604-3.021c0-1.253-1.767-3.02-2.415-3.02c-10.879,0-27.296,7.907-35.235,11.877
		C109.489,266.444,84.867,280.631,84.867,283.29z"/>
	<path fill-rule="evenodd" clip-rule="evenodd" fill="#FFFFFF" d="M263.039,273.625c0,2.981,6.918,12.953,7.236,16.829l-6.632,0.689
		h-1.812v7.853h10.872c1.746,0,10.846,17.229,11.476,19.932h-16.911v7.249h24.158c0.698-2.993,4.228-6.954,4.228-9.061
		c0-2.611-9.17-16.719-10.871-19.933h10.871v-7.852l-2.425,0.143l-12.674-0.748c-1.156-2.186-8.456-13.234-8.456-14.496
		c0-0.736,1.25-1.813,2.416-1.813h15.1v-8.456h-18.723C269.463,263.961,263.039,272.97,263.039,273.625z"/>
	<path fill-rule="evenodd" clip-rule="evenodd" fill="#0072B6" d="M477.448,280.874l-0.414,5.482l2.261,20.553l0.694,0.353
		l60.272-17.931v-85.169c-3.385,0.789-36.056,23.838-41.795,27.665c-12.333,8.223-9.147,5.857-15.179,19.854
		C480.268,258.687,477.448,271.09,477.448,280.874z"/>
	<path fill-rule="evenodd" clip-rule="evenodd" fill="#0072B6" d="M6.35,299.599c0,2.39,11.265,4.03,14.297,5.03
		c4.967,1.639,11.171,2.36,15.965,3.967c8.909,2.985,21.94,5.726,31.343,7.916c3.194-4.771,5.436-14.23,5.436-22.349v-7.852
		c0-9.031-2.041-21.309-5.023-27.596c-3.752-7.909-11.05-10.511-18.291-14.929c-6.568-4.007-37.129-21.559-43.728-22.107V299.599z"
		/>
	<path fill-rule="evenodd" clip-rule="evenodd" fill="#E5344C" d="M423.09,294.766l53.15,32.014v-5.438
		c0-6.925-0.264-15.003-1.273-21.075c-0.838-5.039-2.609-15.858-2.953-19.998c-6.883,0.152-3.672,3.565-9.249,6.455
		c-3.982,2.062-6.647,3.44-11.424,4.28C444.327,292.239,430.013,294.766,423.09,294.766z"/>
	<path fill-rule="evenodd" clip-rule="evenodd" fill="#E5344C" d="M72.183,326.78v4.228c1.921-0.513,17.256-14.487,20.535-16.912
		c3.545-2.622,6.754-5.495,10.433-8.291c3.405-2.587,8.485-5.563,11.311-8.018c-7.384,0-14.977-1.473-21.148-2.406
		c-8.661-1.312-10.031-6.087-14.486-9.069C78.827,299.216,72.183,315.98,72.183,326.78z"/>
	<path fill-rule="evenodd" clip-rule="evenodd" fill="#342E27" d="M263.039,273.625c0-0.654,6.425-9.663,7.852-9.663h18.723v8.456
		h-15.1c-1.166,0-2.416,1.077-2.416,1.813c0,1.262,7.299,12.311,8.456,14.496l12.674,0.748l2.425-0.143v7.852h-10.871
		c1.701,3.214,10.871,17.322,10.871,19.933c0,2.106-3.529,6.067-4.228,9.061h-24.158v-7.249h16.911
		c-0.63-2.703-9.729-19.932-11.476-19.932h-10.872v-7.853h1.812l6.632-0.689C269.957,286.578,263.039,276.605,263.039,273.625
		L263.039,273.625z M257.603,274.23L257.603,274.23v1.207c0,3.668,4.552,8.168,5.436,11.477h-5.436v10.872
		c0,7.553,6.295,5.436,13.849,5.46l6.082,11.454h-9.06c-2.448,0-5.436,0.65-5.436,3.02v10.872c0,2.122,2.68,2.416,4.832,2.416
		h21.139c6.002,0,11.476-8.744,11.476-12.684v-1.208c0-2.378-7.513-13.394-9.06-15.705c5.084,0,8.456,0.178,8.456-4.831v-8.458
		c0-1.669-1.967-2.918-3.021-3.624l-13.988,0.053l-4.13-8.508h13.891c1.414,0,2.416-1.003,2.416-2.417v-10.872
		c0-1.632-0.287-1.666-0.604-3.021c-1.354-0.316-1.388-0.604-3.02-0.604h-21.743C266.401,259.128,257.603,270.895,257.603,274.23z"
		/>
	<path fill-rule="evenodd" clip-rule="evenodd" fill="#FFFFFF" d="M83.658,333.423c0,2.402,8.592,3.021,11.476,3.021
		c23.633,0,35.645-3.301,50.725-12.091c6.274-3.656,34.436-21.716,34.436-28.379c0-2.55-1.498-0.458-1.813-4.229
		c-12.504,0-34.318,27.474-48.317,27.785c0.696-2.605,40.165-30.684,42.882-31.41v-1.811c0-1.168-1.077-2.417-1.812-2.417
		c-3.323,0-4.503,3.02-7.248,3.02c-0.883,0-0.886-0.745-1.374-1.438l6.809-5.206C150.771,280.685,83.658,318.812,83.658,333.423z"/>
	<path fill-rule="evenodd" clip-rule="evenodd" fill="#FFFFFF" d="M423.694,318.927c-14.365-0.319-34.588-27.262-41.229-28.909
		l1.367,2.937l-3.705,0.038l1.894,4.794h-1.208c-0.595-2.227-3.187-3.561-6.04-3.624v2.417c0,4.901,20.679,23.669,25.375,26.568
		c9.638,5.949,23.832,13.297,39.251,13.297h5.435c9.286,0,17.288-3.091,24.763-4.833c-0.702-8.449-66.51-42.34-80.328-43.49
		C389.54,300.27,423.088,311.641,423.694,318.927z"/>
	<path fill-rule="evenodd" clip-rule="evenodd" fill="#E5344C" d="M257.603,274.23c0-3.335,8.798-15.102,12.079-15.102h21.743
		c1.632,0,1.666,0.288,3.02,0.604c0.317,1.354,0.604,1.388,0.604,3.021v10.872c0,1.414-1.002,2.417-2.416,2.417h-13.891l4.13,8.508
		l13.988-0.053c1.054,0.706,3.021,1.955,3.021,3.624v8.458c0,5.009-3.372,4.831-8.456,4.831c1.547,2.312,9.06,13.327,9.06,15.705
		v1.208c0,3.939-5.474,12.684-11.476,12.684H267.87c-2.151,0-4.832-0.294-4.832-2.416V317.72c0-2.37,2.988-3.02,5.436-3.02h9.06
		l-6.082-11.454c-7.554-0.024-13.849,2.093-13.849-5.46v-10.872h5.436c-0.884-3.309-5.436-7.809-5.436-11.477V274.23L257.603,274.23
		z M245.523,250.068L245.523,250.068c0,12.687-0.637,52.267,1.55,61.872c2.52,11.068,2.468,15.494,8.552,23.461
		c4.396,5.759,11.445,10.707,21.305,10.707c25.936,0,34.427-27.715,34.427-54.363l0.146-15.71l-0.672-26.506l-30.168-4.438
		l-0.109,0.748h-2.416c-4.335,0-13.545,0.065-17.297,0.823C256.216,247.594,249.676,249.722,245.523,250.068z"/>
	<path fill-rule="evenodd" clip-rule="evenodd" fill="#E5344C" d="M68.559,360.605v3.02c0,19.154,1.041,30.842,4.262,46.478
		c2.23,10.829,8.061,29.113,12.455,38.281c11.414,23.811,21.961,44.893,39.604,62.476c19.479,19.414,32.449,30.401,58.639,43.437
		c20.971,10.437,50.982,20.137,81.937,20.137h8.456v-1.813c0-8.097-19.328-34.037-19.328-39.866c0-0.893,9.091-10.382,10.443-11.905
		c2.202-2.481,4.657-13.333,4.657-18.297l-0.015-2.57l-8.44,0.759c-4.408,2.951-7.393,2.04-11.124,7.601
		c-0.78,1.164-6.333,12.332-6.392,12.332c-4.268,0-7.279-7.248-9.663-7.248c-1.56,0-5.92,2.454-9.51,3.174
		c-3.471,0.696-8.053,0.673-11.537,1.752c-8.572,2.654-6.654,8.606-10.361,15.61c-5.735-1.336-13.287-11.136-13.287-18.725v-5.436
		c0-14,23.464-30.806,37.89-30.755l0.161-5.487c0.696-6.136,5.067-15.705,11.476-15.705c7.089,0,3.997,10.874,15.099,10.874
		c6.162,0,10.268-15.417,10.268-22.954v-2.415c0-4.754-1.06-9.685-2.803-12.903c-0.681-1.259-6.914-8.843-7.465-8.843
		c-7.368,0-7.469,15.101-10.872,15.101h-0.604c-2.823,0-6.975-7.601-7.248-10.872c-4.785,1.277-47.11,31.297-47.11,33.825
		c0,2.4,6.08,3.624,9.06,3.624c0.849,1.771,5.435,9.469,5.435,10.269v5.437c0,0.882-2.981,4.492-3.623,7.248
		c-2.811,0.234-5.535,2.417-6.644,2.417h-0.604c-1.396,0-3.624-0.675-3.624-1.813c0-2.698,1.812-4.487,1.812-6.04
		c0-4.334-11.326-11.478-17.515-11.478h-1.208c-1.885,0-3.496,1.106-4.833,1.813c0.317,3.809,4.228,11.308,4.228,11.477
		c0,3.164-0.542,5.352-1.812,7.248v2.416c-2.266,3.385-6.787,18.122-11.476,18.122h-1.208c-1.391,0-1.812-0.42-1.812-1.813v-3.625
		c0-2.638,1.208-2.193,1.208-4.832c0-4.209-4.832-6.077-4.832-8.457c0-3.125,4.899-12.175-1.208-12.684
		c-0.257,1.105-1.922,6.303-2.463,7.805c-1.063,2.949-2.507,4.276-6.395,4.478l-2.576,2.22l-0.646,6.035
		c-1.186,0.628-1.78,1.208-3.623,1.208h-1.208c-2.48,0-3.623-3.321-3.623-6.04v-3.021c0-4.648,0.637-7.704,1.142-11.541
		c0.85-6.455,2.174-6.187,3.155-9.374l11.406-3.245v-1.812c0-1.953-2.192-3.021-4.228-3.021h-7.852
		c-6.257,0-3.444,3.021-7.852,3.021h-1.208c-1.392,0-1.812-0.42-1.812-1.813v-1.812c0-4.75,3.537-9.304,5.675-12.445
		c1.726-2.537,8.686-6.884,11.84-6.884c2.2,0,11.592,7.247,19.327,7.247h5.436c11.477,0,21.01-13.557,27.329-19.783
		c3.059-3.014,21.593-23.164,21.593-26.122c0-3.792-3.254-5.497-4.832-7.853c2.723-4.066,35.634-31.816,35.634-33.827
		c0-5.331-7.831-21.375-11.476-22.348c0,8.168-10.049,28.77-13.649,34.672c-7.625,12.494-11.735,17.109-20.621,27.698
		c-7.18,8.557-16.656,15.832-26.485,21.836c-5.604,3.422-9.785,5.332-16.19,7.97c-2.534,1.044-17.154,5.072-19.69,5.072
		l-14.522,0.225l-12.6-1.586l-7.908-2.866c0.814-9.786,41.368-29.149,41.674-42.887c-2.604,0.217-7.177,2.666-9.141,3.543
		c-3.147,1.409-6.708,1.883-10.527,2.761c-5.363,1.233-17.363,2.757-23.214,2.757l-3.672,0.469l-22.299-2.885v-1.813
		c0-3.486,12.361-12.035,15.341-14.254c5.17-3.852,11.014-9.806,15.825-14.376c5.358-5.089,10.002-9.821,15.19-15.01
		c3.453-3.454,13.923-10.852,14.042-16.159c-8.324,1.94-19.633,6.644-29.595,6.644H93.926c-2.471,0-9.14-2.14-10.878-3.013
		c-1.449-0.728-8.282-6.047-8.45-6.047C69.495,332.82,68.559,353.855,68.559,360.605z"/>
	<path fill-rule="evenodd" clip-rule="evenodd" fill="#E5344C" d="M447.854,340.068h-10.872c-1.97,0-10.057-1.33-12.127-1.765
		c-2.935-0.615-9.854-2.415-12.031-2.463c2.156,9.258,58.045,54.753,67.836,54.983l1.62-22.365v-18.122
		c0-5.489-1.076-16.009-4.228-18.12C470.044,336.453,459.976,340.068,447.854,340.068z"/>
	<path fill-rule="evenodd" clip-rule="evenodd" fill="#FFFFFF" d="M361.485,297.182c0,18.268,42.176,48.894,42.883,57.383h-1.812
		c-14.022,0-37.46-47.317-43.616-48.885l1.937,7.214l-2.411-1.215c0.208,9.326,11.385,28.891,15.694,35.042
		c6.993,9.976,15.122,18.49,24.664,26.074c9.666,7.684,19.94,13.284,33.071,17.663c6.917,2.307,13.313,3.306,20.916,4.452
		c4.489,0.674,7.536-0.524,11.952-0.481c6.57,0.066,7.636,0.286,3.89-4.49c-4.186-5.339-22.256-17.461-28.892-21.844
		c-9.855-6.51-18.561-15.72-26.788-23.949c-6.533-6.532-47.419-49.501-51.488-50.588V297.182z"/>
	<path fill-rule="evenodd" clip-rule="evenodd" fill="#FFFFFF" d="M188.146,302.619v-2.417c0-1.631,0.288-1.666,0.604-3.02
		c-7.166,0.596-45.748,38.807-52.696,45.756c-5.568,5.568-47.898,47.755-50.584,48.473c0.75,2.806,4.472,3.623,7.852,3.623
		c16.49,0,27.229-4.955,39.855-8.464c13.112-3.645,21.779-9.556,30.358-17.961c7.163-7.018,35.23-50.391,35.483-61.763
		c-3.39,0.282-8.537,9.38-11.011,11.941c-3.973,4.114-7.092,8.286-11.187,12.371c-5.727,5.711-17.464,19.719-25.517,21.594
		c1.07-4.009,20.733-23.247,24.918-28.234c4.403-5.247,8.664-7.606,12.657-13.919c1.861-2.941,10.079-14.39,10.139-17.042h-1.812
		C193.462,293.558,192.267,301.518,188.146,302.619z"/>
	<path fill-rule="evenodd" clip-rule="evenodd" fill="#E5344C" d="M310.753,362.416c0,15.205,24.489,33.827,40.466,33.827
		c-0.691-8.306-25.367-42.871-25.367-57.383v-1.813C323.176,337.762,310.753,359.867,310.753,362.416z"/>
	<path fill-rule="evenodd" clip-rule="evenodd" fill="#FFFFFF" d="M346.387,308.055v1.208c0,4.042,2.59,2.445,0.831,5.661
		l-3.851-5.661c0,25.451,36.238,60.828,36.238,80.335c-7.793-1.815-20.669-28.814-24.345-37.264
		c-3.133-7.197-6.352-14.343-9.245-21.56c-1.471-3.666-2.75-7.454-4.045-11.055c-1.012-2.811-1.877-10.322-4.645-11.06l-0.545,5.597
		l-1.871-7.41l-5.359,0.013l-2.491,18.712c-1.776,11.396,8.211,35.752,11.872,43.095c5.436,10.903,15.405,23.749,23.611,31.955
		c8.772,8.772,20.054,17.348,31.761,23.203c5.82,2.912,13.485,5.98,20.364,7.421c3.152,0.659,24.127,2.057,24.127-1.176
		c0-3.211-11.339-9.864-14.006-11.968c-3.503-2.764-9.195-10.025-12.722-13.854c-7.799-8.466-17.788-19.467-24.126-29.026
		c-3.5-5.282-7.113-9.88-10.512-15.461c-3.498-5.745-6.087-11.401-9.541-17.035c-2.438-3.973-16.368-32.856-16.67-36.482h-3.021
		C346.807,306.243,346.387,306.664,346.387,308.055z"/>
	<path fill-rule="evenodd" clip-rule="evenodd" fill="#FFFFFF" d="M117.481,425.841v0.604c0,4.305,3.926,7.248,8.455,7.248h5.437
		c16.889,0,63.592-30.044,70.043-41.09c8.415-14.403,31.424-59.938,31.424-80.319v-1.813c0-2.989-2.01,0.043-2.417-4.832
		l-2.356,0.014l-1.267,6.631l-1.202-0.002l-1.214-4.83c-3.51,2.35-10.171,19.11-12.684,24.16
		c-4.282,8.607-7.935,16.432-13.167,24.283c-2.738,4.109-6.175,7.131-8.351,10.374c-2.875,4.288-4.524,7.1-7.574,11.149
		c-3.839,5.099-12.69,16.87-17.415,20.034c0.582-2.179,24.528-37.438,28.023-42.645c4.499-6.702,25.126-38.742,25.126-46.146
		c0-1.363,0.231,0.279-0.749-1.423l-3.48,2.027l-0.024-4.379l-4.808,0.754v-3.021h-1.812c-2.504,0-14.406,31.784-16.708,36.444
		c-5.956,12.055-13.893,21.301-21.582,31.57C164.238,377.235,117.481,425.759,117.481,425.841z"/>
	<path fill-rule="evenodd" clip-rule="evenodd" fill="#E5344C" d="M288.405,442.754v6.645c0,6.483,5.955,16.309,12.683,16.309
		c8.823,0,12.159-8.873,13.892-16.309h2.416c2.293,0,8.395,3.342,9.835,4.659c2.462,2.253,3.752,6.244,4.058,10.441
		c0.286,3.963,1.733,8.313,3.942,10.553c1.885,1.911,7.378,4.547,10.552,4.547l6.217-0.123l4.038-13.948l0.617,0.18
		c5.247,0,5.413,0.095,6.927-3.341c1.748-3.969,5.306-0.564,6.359-4.513c-11.584-2.699-38.227-26.059-48.744-33.131l-5.008,10.179
		c-4.828-3.234-12.586-14.497-18.724-14.497h-0.604C289.709,420.404,288.405,434.963,288.405,442.754z"/>
	<path fill-rule="evenodd" clip-rule="evenodd" fill="#FFFFFF" d="M329.475,423.425c2.784,4.157,18.731,15.451,23.909,18.975
		c3.251,2.212,24.811,16.166,25.617,17.267c-1.722,2.35-8.619,4.138-12.684,4.229v3.624c0,2.484,2.955,6.04,4.832,6.04h0.604
		c3.898,0,7.939-5.436,13.891-5.436h1.813c4.131,0,6.117,4.047,9.06,4.831v4.229c0,3.705-3.021,7.479-3.021,9.061
		c0,1.879,3.555,4.833,6.04,4.833h2.416c1.152,0,2.526-1.18,2.792-1.878l-3.396-18.659h2.416c4.11,0,6.322,7.377,7.884,9.996
		l8.481,0.971l-0.265,0.553l1.414,7.809h3.021c1.408,0,3.02-1.611,3.02-3.02v-3.021c0-1.632-0.287-1.666-0.598-3.05l-3.631-0.574
		c0-7.61-5.999-14.242-11.745-15.832l1.479-2.893c5.119,0,13.286-0.234,13.286-4.833c0-3.429-5.337-6.04-9.059-6.04h-1.813
		c-10.907,0-3.896,8.457-16.308,8.457h-1.811c-12.058,0-24.5-11.753-30.087-18.838c-3.689-4.674-18.766-24.094-20.044-28.881h-3.623
		c-4.114,0-6.454,1.833-8.061,4.625C333.035,419.912,331.42,420.52,329.475,423.425z"/>
	<path fill-rule="evenodd" clip-rule="evenodd" fill="#FFFFFF" d="M160.363,454.834h-1.812c-10.142,0-13.603-6.645-17.516-6.645
		h-3.02c-3.059,0-5.436,3.3-5.436,5.436v1.209c0,2.19,0.508,3.371,1.208,4.832c4.057-0.09,6.957-2.416,8.456-2.416
		c2.395,0,6.645,6.517,6.645,9.664c0,5.267-15.704,5.727-15.704,11.478v3.02c0,2.696,3.13,6.646,5.436,6.646h0.604
		c4.279,0,7.513-9.225,7.851-13.289h3.624c2.839,0,3.116,1.359,4.117,3.034l0.715,6.025c0.295,2.144-2.416,2.908-2.416,4.833v1.207
		c0,2.198,2.945,4.229,5.436,4.229h2.416c2.491,0,5.436-2.03,5.436-4.229v-4.831c0-3.919-4.832-5.206-4.832-10.873
		c0-5.478,7.269-8.456,13.287-8.456h2.417c10.377,0,10.099,10.268,12.683,10.268c2.358,0,5.437-2.305,5.437-4.228v-1.813
		c0-3.894-10.872,0.688-10.872-6.645c0-8.308,16.314-20.109,22.098-24.41c4.377-3.255,25.943-17.465,27.274-19.696l0.759-9.651
		l-4.844,0.154l-10.86-0.759c-12.191,8.164-16.577,15.725-26.424,25.52C185.581,441.353,173.21,454.834,160.363,454.834z"/>
	<path fill-rule="evenodd" clip-rule="evenodd" fill="#FFFFFF" d="M170.63,177.585c-4.556-0.379-7.025-8.457-12.683-8.457
		c-5.543,0-13.892,5.981-13.892,12.081l-0.479,0.667l2.896,21.079l-0.306,2.754l-2.11,2.682c0,4.053-1.208,4.48-1.208,6.04
		c0,2.648,3.219,10.781,4.341,12.571c2.439,3.889,5.227,2.699,5.346,11.566c0.083,6.209-0.9,11.016,2.013,14.899
		c1.397,1.863,6.95,7.473,9.439,7.473c1.952,0,3.02-2.192,3.02-4.228c0-5.106-0.611-9.607-2.169-13.536
		c-0.957-2.414-4.446-9.933-4.429-11.361l4.697,1.604l-0.28-0.606l2.32-2.505l0.465,0.432l-0.155,6.655l0.758,12.069
		c3.326,4.966,18.094,12.081,26.576,12.081c0,4.032,1.337,10.169,3.444,12.261c0.592,0.587,10.174,5.861,10.447,5.861h0.604
		c3.972,0,4.688-1.208,9.061-1.208c-0.327,3.926-13.153,7.489-17.516,7.853c0.572,6.878,13.623,16.912,22.347,16.912
		c8.774,0,15.348-5.509,17.606-11.989c3.185-9.137,0.454-16.604,0.511-27.271c0.064-12.23-3.672-18.068,8.496-20.5
		c8.761-1.75,16.39-3.059,27.141-3.059h8.455c8.018,0,28.285,3.004,29.507,9.148c1.107,5.563,0.063,13.679,0.649,18.68
		c0.632,5.384,0.647,13.037,0.647,18.682c0,29.648-7.774,62.818-36.238,62.818h-9.664c-9.505,0-18.043-9.355-21.738-15.709
		c-3.71-6.38-7.252-20.042-7.252-30.197c-2.847,1.031-3.625,8.305-3.625,12.082c-1.375,2.053-3.02,5.052-3.02,8.455v3.625
		c0,6.357,4.567,15.635,7.039,20.142c2.175,3.968,11.167,14.672,11.684,16.1c-9.173,4.402-12.387,7.855-19.177,14.647
		c-2.192,2.192-17.062,15.754-17.062,17.366v1.208c0,5.077,10.639,8.456,16.307,8.456h4.228v4.833
		c0,7.521-1.004,14.013,4.228,17.516c2.392-3.57,9.308-22.953,12.079-22.953c0.989,0,1.812,0.363,1.812,1.209
		c0,3.659-1.812,5.442-1.812,7.853v0.604c0,2.807,7.773,5.016,10.205,11.539c2.097,5.628,3.687,10.374,3.687,18.059v2.416
		c0,9.972-4.477,26.577-13.288,26.577h-1.207c-6.273,0-13.98-10.873-14.496-10.873c-3.466,0-6.644,2.599-6.644,6.042v1.812
		c0,3.533,0.714,5.388,1.21,8.456c0.866,5.357,2.091,5.109-3.612,5.449c-5.355,0.319-11.593,2.783-15.912,4.625
		c-6.849,2.922-19.737,12.28-19.737,20.731v3.624c0,6.101,3.871,9.687,4.833,13.289c5.656-1.511-0.414-11.372,15.929-14.271
		c10.549-1.87,16.641-0.536,19.101-11.099h1.812c0,3.492,3.904,11.248,6.644,11.477v-1.813c0-6.938,5.954-10.56,11.464-12.091
		c7.539-2.094,11.251-3.314,17.295-6.683l1.439-7.199c2.54,0.211,3.624,2.407,3.624,4.831c0,5.625-3.021,20.517-4.094,25.504
		c-1.94,9.018-12.818,16.886-12.818,17.383c0,0.63,9.125,15.828,10.472,18.521c2.632,5.26,6.901,15.895,10.064,19.532
		c1.068-4.586,6.026-16.395,8.333-20.055c1.293-2.052,11.598-17.199,11.598-17.396c0-1.022-10.036-14.164-11.478-16.307
		c-4.072-6.053-5.434-12.99-5.434-22.955v-6.039c0-2.152,1.432-2.368,3.624-2.418v3.625c0,5.725,13.818,7.18,17.882,9.9
		c3.027,2.027,5.062,4.093,6.872,7.021c0.963,1.556,3.63,8.448,5.444,8.448h0.604c6.68,0,7.142-9.665,16.912-9.665h2.414
		c15.451,0,15.149,20.537,20.537,20.537c6.538,0,10.267-12.16,10.267-19.328c0-4.566-1.504-10.801-3.496-13.417
		c-1.306-1.714-2.499-2.815-4.606-3.849c-2.944-1.444-1.802-2.582-4.811-3.646c-7.801-2.76-23.162-1.218-26.949-6.874
		c0.455-1.952,1.208-3.745,1.208-6.04c0-5.675-4.573-16.913-9.06-16.913c-2.207,0-5.467,15.101-15.1,15.101h-4.228
		c-8.993,0-16.911-17.927-16.911-28.39v-2.416c0-8.777,6.88-24.162,13.892-24.162h2.416c4.967,0,10.223,10.429,15.057,13.476
		l4.988-15.05l-0.719-0.237c1.785-2.664,1.687-7.853,6.04-7.853c2.716,0,3.173,1.459,6.625,1.236
		c2.63-0.168,4.205-0.622,7.885-0.617c6.392,0.009,9.206-1.946,13.877-3.035c-0.102-4.57-1.56-2.376-5.961-3.703
		c-2.445-0.737-5.706-1.611-8.063-2.205c-5.119-1.288-10.16-4.03-14.372-6.163c-5.896-2.986-18.11-14.801-18.11-22.962v-6.645
		c0-7.567,15.703-23.612,15.703-39.262v-27.181c2.698,0.294,4.453,3.552,6.646,4.831c0.465,0.271,8.94,3.021,9.059,3.021h3.019
		c5.696,0,16.912-5.481,16.912-12.684c0-5.37-8.036-4.617-8.456-9.665h13.893c1.785,0,3.165-2.414,5.436-3.02l-0.089-12.534
		l-7.158-3.775v-2.416c7.812-0.65,11.081-8.831,12.683-15.705c1.935,0.043,3.02-0.196,3.02,1.812c0,5.788-2.831,8.012-4.592,12.321
		c-2.563,6.276-0.844,7.948-0.844,15.465v4.227c0,3.374-1.986,4.086-4.641,5.024c-2.405,0.852-6.008,2.496-7.439,2.83v1.812
		c0,2.213,6.581,3.019,9.061,3.019h3.623c4.675,0,12.764-12.611,12.895-13.313l-1.418-13.263c-0.46-3.862,3.026-5.96,6.643-6.04
		v1.812c0,2.821-1.812,3.449-1.812,5.436c0,1.626,5.306,4.615,6.04,6.64l-5.437-1.203c1.155,4.954,4.337,0.91,4.755,5.65
		l-4.125-1.492l-0.496,0.435l3.462,4.851l-4.804-0.384v3.625h1.812c3.498,0,20.592,8.456,26.576,8.456
		c12.641,0,43.253-1.626,43.486-12.081c-5.476-0.456-22.822-6.696-28.024-8.818c-4.966-2.025-8.057-3.698-12.08-6.645
		c-1.596-1.169-9.872-8.095-10.63-8.095h-1.812v1.813c-2.932-0.065-4.001-0.879-4.229-3.625h1.812v-2.416
		c0-1.393,0.422-1.813,1.813-1.813h1.208c4.101,0,10.421,3.624,18.119,3.624h15.099c5.86,0,10.239-2.416,15.704-2.416
		c3.203-2.146,13.892-5.586,13.892-10.873v-3.02c-7.078,0-15.467-2.228-21.503-3.864c-3.978-1.078-17.762-5.196-20.171-5.196
		l-3.026-0.038l-18.717,2.454h-6.645c0.808-3.026,3.623-4.147,3.623-7.852v-3.021h-3.623l-0.366-0.616l3.989-1.801v-1.812
		l-1.303-0.058l1.907-4.171l-3.904-0.147l2.073-4.776l-3.604,0.695v-2.417c0-3.502-5.323-2.834-5.436-7.852
		c3.156-0.843,10.267-5.678,10.267-9.664v-0.604c0-3.639-11.67-13.289-13.286-13.289c-3.859,0-4.596,1.208-8.456,1.208h-2.415
		c0.43-5.165,3.02-8.263,3.02-13.893c0-3.443-1.553-5.164-4.955-5.467l0.728-2.989c-2.108-1.411-6.222-3.704-10.285-3.123
		l-4.815,0.707v11.477c0,13.032-7.851,15.931-7.851,23.556v1.813c0,9.508,5.117,10.476,12.015,12.75
		c3.316,1.093,6.197,1.618,9.35,3.333c1.82,0.992,5.814,5.154,5.814,6.87c0,20.011-7.891,18.548-24.738,20.563
		c-8.272,0.989-4.043,29.572-15.728,29.572h-2.416c-3.618,0-11.498-6.656-12.618-9.127c-3.098-6.83-3.458-8.548-8.361-13.987
		c-2.945-3.266-22.507-19.794-22.507-21.584v-3.021c4.903,0.408,6.489,3.021,10.872,3.021h1.811
		c-0.439-5.288-19.094-13.122-19.29-23.82l10.835,1.471c-0.446-5.375-13.287-15.052-13.287-18.122c0-1.392,0.42-1.812,1.812-1.812
		h2.416v-2.416c0-2.778-2.558-10.873-4.831-10.873h-3.021c-4.943,0-7.103,0.934-10.737,1.695l3.395,3.902l-0.509,0.443
		c-4.146,0-3.222-1.208-6.039-1.208h-1.813c-3.054,0-2.565,4.228-5.436,4.228h-1.812c-8.204,0,8.865-11.961-15.462-7.612
		c-8.283,1.481-15.34,1.2-15.34,11.236h1.812c0.717,0,5.916-3.02,9.664-3.02h6.644c5.156,0,9.537,2.658,13.892,3.02v4.228
		c0,10.82-14.397,3.113-16.307,10.269c0.736,0.414,0.646,0.604,1.812,0.604h3.624c3.298,0,3.346-1.208,6.644-1.208h8.456
		c-0.144,6.389-11.476,6.902-11.476,10.873v1.812h10.268c0,12.746-17.851,12.591-19.327,18.121c3.191,0.266,3.474,1.813,7.247,1.813
		l2.43,0.141l9.046-0.746c0,14.651-25.059,9.418-34.215,15.312c-8.017,5.16-9.079,26.366-23.162,26.366
		c-5.43,0-9.663-3.445-9.663-8.456v-3.02c0-4.144,3.019-8.352,3.019-12.685c0-7.172-14.891-7.249-22.951-7.249
		c-3.45-2.311-14.495-9.798-14.495-14.497c0-5.175,7.474-9.665,13.288-9.665c4.943-3.31,15.099-1.827,15.099-13.289v-2.417
		c0-8.499-4.832-17.399-4.832-25.973v-4.832c0-3.291,1.812-7.122,1.812-7.249c0-1.384-0.205-0.702-0.604-2.416h-6.644
		C168.216,147.384,171.676,165.009,170.63,177.585z"/>
	<path fill-rule="evenodd" clip-rule="evenodd" fill="#E5344C" d="M447.25,430.069c-2.95,4.404-10.439,7.247-17.515,7.247h-1.209
		c-12.859,0-29.788-7.314-39.331-10.798c-5.345-1.952-11.178-5.988-15.467-9.299c-4.111-3.175-10.59-8.991-14.056-11.313
		c-3.072,0-9.663,0.81-9.663,3.625c0,10.915,35.821,46.511,45.902,46.511c5.116,0,15.132-10.27,20.535-10.27h3.021
		c3.075,0,4.949,2.17,6.039,4.228c9.837,0,14.495,2.895,14.495,12.685v2.417c-3.368,0.9-2.013,3.021-3.624,3.021
		c-3.134,0-4.517-7.249-7.852-7.249h-0.604c-2.117,0-6.04,2.282-6.04,4.229v0.604c0,5.634,9.663,10.835,9.663,17.517
		c0,3.263-3.908,10.269-6.643,10.269h-0.604c-4.066,0-4.945-1.135-8.21-1.929l1.411-4.357l0.759,0.246l-0.026-2.896l-9.637-1.937
		c0,7.574-1.808,15.704-9.06,15.704h-0.604c-2.009,0-9.06-9.367-9.06-12.08v-2.416c0-2.781,2.417-5.07,2.417-7.853
		c0-2.928-2-5.436-4.832-5.436c-5.109,0-7.59,4.042-11.476,6.644c-3.486-0.289-6.916-2.415-9.06-2.415h-0.604
		c-1.952,0-3.02,2.191-3.02,4.228v1.813c0,1.843,0.58,2.438,1.207,3.624c-0.413,0.736-0.603,0.646-0.603,1.812
		c0,3.512,7.247,7.339,7.247,18.725v3.625c0,10.991-8.129,22.952-17.516,22.952h-1.812c-0.24-10.801-5.481-22.349-16.308-22.349
		h-2.416c-6.828,0-14.06,10.6-16.615,7.632c-9.17-10.646-11.883-17.9-26.87-17.9v1.813c0,7.647,11.273,30.347,17.515,32.014
		c-0.652,7.854-21.139,24.25-21.139,41.679h1.813c51.331,0,102.871-30.703,128.796-56.63c15.716-15.717,28.706-33.089,39.108-53.908
		c4.614-9.236,10.969-22.069,13.899-32.609c2.117-7.615,9.656-29.304,9.656-36.854c-4.455,2.137-10.422,3.624-16.912,3.624h-1.208
		c-9.543,0-20.845-1.106-29.254-2.757c-10.028-1.969-17.014-4.278-25.708-6.304C412.778,401.466,441.027,418.306,447.25,430.069z"/>
	<path fill-rule="evenodd" clip-rule="evenodd" d="M288.405,442.754c0-7.791,1.304-22.35,8.455-22.35h0.604
		c6.138,0,13.896,11.263,18.724,14.497l5.008-10.179c10.518,7.072,37.16,30.432,48.744,33.131c-1.054,3.948-4.611,0.544-6.359,4.513
		c-1.514,3.436-1.68,3.341-6.927,3.341l-0.617-0.18l-4.038,13.948l-6.217,0.123c-3.174,0-8.667-2.636-10.552-4.547
		c-2.209-2.24-3.656-6.59-3.942-10.553c-0.306-4.197-1.596-8.188-4.058-10.441c-1.44-1.317-7.542-4.659-9.835-4.659h-2.416
		c-1.732,7.436-5.068,16.309-13.892,16.309c-6.728,0-12.683-9.825-12.683-16.309V442.754L288.405,442.754z M421.845,480.978
		L421.845,480.978c0.185,4.084-0.224,7.226-2.148,9.551l5.789-0.792c6.103-0.396,2.826-11.287,0.575-12.787
		c-0.99,1.084-0.925,2.829-2.971,3.254c0-7.61-5.999-14.242-11.745-15.832l1.479-2.893c5.119,0,13.286-0.234,13.286-4.833
		c0-3.429-5.337-6.04-9.059-6.04h-1.813c-10.907,0-3.896,8.457-16.308,8.457h-1.811c-12.058,0-24.5-11.753-30.087-18.838
		c-3.689-4.674-19.189-25.788-20.468-30.575h-4.258c-3.69,2.117-14.078-1.132-15.685,1.659c-2.271,3.945-0.499,6.035-2.444,8.938
		c2.785,4.158,24.026,18.629,29.204,22.152c3.251,2.212,24.811,16.166,25.617,17.267c-1.722,2.35-8.619,4.138-12.684,4.229v3.624
		c0,2.484,2.955,6.04,4.832,6.04h0.604c3.898,0,7.939-5.436,13.891-5.436h1.813c4.131,0,6.117,4.047,9.06,4.831v4.229
		c0,3.705-3.021,7.479-3.021,9.061c0,1.879,3.555,4.833,6.04,4.833h2.416c1.152,0,2.526-1.18,2.792-1.878l-3.396-18.659h2.416
		c4.11,0,6.322,7.377,7.884,9.996L421.845,480.978L421.845,480.978z M160.363,454.834L160.363,454.834
		c12.847,0,25.218-13.481,32.161-20.387c9.848-9.795,14.233-19.896,26.424-28.062l7.895,2.877l7.809,0.27l-0.759,9.651
		c-1.331,2.231-22.896,16.441-27.274,19.696c-5.783,4.301-22.098,16.103-22.098,24.41c0,7.332,10.872,2.751,10.872,6.645v1.813
		c0,1.923-3.078,4.228-5.437,4.228c-2.584,0-2.306-10.268-12.683-10.268h-2.417c-6.018,0-13.287,2.979-13.287,8.456
		c0,5.667,4.832,6.954,4.832,10.873v4.831c0,2.198-2.945,4.229-5.436,4.229h-2.416c-2.491,0-5.436-2.03-5.436-4.229v-1.207
		c0-1.925,2.711-2.689,2.416-4.833l-0.715-6.025c-1-1.675-1.278-3.034-4.117-3.034h-3.624c-0.338,4.064-3.572,13.289-7.851,13.289
		h-0.604c-2.306,0-5.436-3.949-5.436-6.646v-3.02c0-5.751,15.704-6.211,15.704-11.478c0-3.147-4.25-9.664-6.645-9.664
		c-1.499,0-4.399,2.326-8.456,2.416c-0.7-1.461-1.208-2.642-1.208-4.832v-1.209c0-2.136,2.377-5.436,5.436-5.436h3.02
		c3.913,0,7.374,6.645,17.516,6.645H160.363L160.363,454.834z M272.702,634.23L272.702,634.23c39.643,0,73.798-9.253,102.155-20.453
		c30.861-12.188,51.629-27.455,74.965-47.042c20.664-17.347,40.416-43.398,53.993-68.016c7.871-14.268,12.97-25.862,19.003-42.002
		c3.16-8.458,13.216-37.868,13.216-47.79c-11.586-5.56-19.456-13.997-27.07-23.665c-3.963-5.031-7.067-9.124-10.738-14.631
		c-1.794-2.689-7.826-14.711-9.905-15.463c0,29.497-8.675,72.915-17.921,93.22c-13.952,30.636-21.406,44.342-42.637,67.896
		c-32.131,35.647-87.371,65.999-155.061,65.999c-67.768,0-117.113-29.237-151.144-63.272
		c-31.495-31.498-59.643-91.234-59.643-154.178c-2.136,0.57-9.458,12.65-11.234,15.342c-3.289,4.979-7.653,10.689-11.557,15.02
		c-3.75,4.161-9.038,9.874-13.335,13.241c-1.856,1.455-14.608,10.102-14.608,11.364c0,8.999,9.527,38.521,12.5,46.693
		c4.802,13.202,11.862,29.401,18.785,40.408c4.006,6.369,7.367,11.917,11.475,18.122c4.028,6.083,8.669,11.159,12.806,16.79
		c8.417,11.459,19.304,19.627,29.147,29.441c16.926,16.881,49.333,33.957,73.706,44.074c24.967,10.363,63.816,18.9,98.875,18.9
		H272.702L272.702,634.23z M447.25,430.069L447.25,430.069c-2.95,4.404-10.439,7.247-17.515,7.247h-1.209
		c-12.859,0-29.788-7.314-39.331-10.798c-5.345-1.952-11.178-5.988-15.467-9.299c-4.111-3.175-10.59-8.991-14.056-11.313
		c-3.072,0-9.663,0.81-9.663,3.625c0,10.915,35.821,46.511,45.902,46.511c5.116,0,15.132-10.27,20.535-10.27h3.021
		c3.075,0,4.949,2.17,6.039,4.228c9.837,0,14.495,2.895,14.495,12.685v2.417c-3.368,0.9-2.013,3.021-3.624,3.021
		c-3.134,0-4.517-7.249-7.852-7.249h-0.604c-2.117,0-6.04,2.282-6.04,4.229v0.604c0,5.634,9.663,10.835,9.663,17.517
		c0,3.263-3.908,10.269-6.643,10.269h-0.604c-4.066,0-4.945-1.135-8.21-1.929l1.411-4.357l0.732-2.65l-9.637-1.937
		c0,4.142,0.509,7.694-1.491,11.329c-1.662,3.024,2.313,8.47-0.974,8.47c-6.494,2.673-19.377-10.933-16.259-16.175v-2.416
		c0-2.781,2.417-5.07,2.417-7.853c0-2.928-2-5.436-4.832-5.436c-5.109,0-7.59,4.042-11.476,6.644
		c-3.486-0.289-6.916-2.415-9.06-2.415h-0.604c-1.952,0-3.02,2.191-3.02,4.228v1.813c0,1.843,0.58,2.438,1.207,3.624
		c-0.413,0.736-0.603,0.646-0.603,1.812c0,3.512,7.247,7.339,7.247,18.725v3.625c0,10.991-8.129,22.952-17.516,22.952h-1.812
		c-0.24-10.801-5.481-22.349-16.308-22.349h-2.416c-1.878,0-7.744,11.477-20.534,11.477c-3.578,0-4.291-21.745-22.951-21.745v1.813
		c0,7.647,11.273,30.347,17.515,32.014c-0.652,7.854-21.139,24.25-21.139,41.679h1.813c51.331,0,102.871-30.703,128.796-56.63
		c15.716-15.717,28.706-33.089,39.108-53.908c4.614-9.236,10.969-22.069,13.899-32.609c2.117-7.615,9.656-29.304,9.656-36.854
		c-4.455,2.137-10.422,3.624-16.912,3.624h-1.208c-9.543,0-20.845-1.106-29.254-2.757c-10.028-1.969-17.014-4.278-25.708-6.304
		C412.778,401.466,441.027,418.306,447.25,430.069L447.25,430.069z M310.753,362.416L310.753,362.416
		c0-2.549,12.423-24.654,15.099-25.369v1.813c0,14.512,24.676,49.078,25.367,57.383
		C335.242,396.243,310.753,377.621,310.753,362.416L310.753,362.416z M68.559,360.605L68.559,360.605v3.02
		c0,19.154,1.041,30.842,4.262,46.478c2.23,10.829,8.061,29.113,12.455,38.281c11.414,23.811,21.961,44.893,39.604,62.476
		c19.479,19.414,32.449,30.401,58.639,43.437c20.971,10.437,50.982,20.137,81.937,20.137h8.456v-1.813
		c0-8.097-19.328-34.037-19.328-39.866c0-0.893,9.091-10.382,10.443-11.905c2.202-2.481,4.657-13.333,4.657-18.297l-0.015-2.57
		l-8.44,0.759c-4.408,2.951-7.393,2.04-11.124,7.601c-0.78,1.164-6.333,12.332-6.392,12.332c-4.268,0-7.279-7.248-9.663-7.248
		c-1.56,0-5.92,2.454-9.51,3.174c-3.471,0.696-8.053,0.673-11.537,1.752c-8.572,2.654-6.654,8.606-10.361,15.61
		c-5.735-1.336-13.287-11.136-13.287-18.725v-5.436c0-14,23.464-30.806,37.89-30.755l0.161-5.487
		c0.696-6.136,5.067-15.705,11.476-15.705c7.089,0,3.997,10.874,15.099,10.874c6.162,0,10.268-15.417,10.268-22.954v-2.415
		c0-4.754-1.06-9.685-2.803-12.903c-0.681-1.259-6.914-8.843-7.465-8.843c-7.368,0-7.469,15.101-10.872,15.101h-0.604
		c-2.823,0-6.975-7.601-7.248-10.872c-4.785,1.277-47.11,31.297-47.11,33.825c0,2.4,6.08,3.624,9.06,3.624
		c0.849,1.771,5.435,9.469,5.435,10.269v5.437c0,0.882-2.981,4.492-3.623,7.248c-2.811,0.234-5.535,2.417-6.644,2.417h-0.604
		c-1.396,0-3.624-0.675-3.624-1.813c0-2.698,1.812-4.487,1.812-6.04c0-4.334-11.326-11.478-17.515-11.478h-1.208
		c-1.885,0-3.496,1.106-4.833,1.813c0.317,3.809,4.228,11.308,4.228,11.477c0,3.164-0.542,5.352-1.812,7.248v2.416
		c-2.266,3.385-6.787,18.122-11.476,18.122h-1.208c-1.391,0-1.812-0.42-1.812-1.813v-3.625c0-2.638,1.208-2.193,1.208-4.832
		c0-4.209-4.832-6.077-4.832-8.457c0-3.125,4.899-12.175-1.208-12.684c-0.257,1.105-1.922,6.303-2.463,7.805
		c-1.063,2.949-2.507,4.276-6.395,4.478l-2.576,2.22l-0.646,6.035c-1.186,0.628-1.78,1.208-3.623,1.208h-1.208
		c-2.48,0-3.623-3.321-3.623-6.04v-3.021c0-4.648,0.637-7.704,1.142-11.541c0.85-6.455,2.174-6.187,3.155-9.374l11.406-3.245v-1.812
		c0-1.953-2.192-3.021-4.228-3.021h-7.852c-6.257,0-3.444,3.021-7.852,3.021h-1.208c-1.392,0-1.812-0.42-1.812-1.813v-1.812
		c0-4.75,3.537-9.304,5.675-12.445c1.726-2.537,8.686-6.884,11.84-6.884c2.2,0,11.592,7.247,19.327,7.247h5.436
		c11.477,0,21.01-13.557,27.329-19.783c3.059-3.014,21.593-23.164,21.593-26.122c0-3.792-3.254-5.497-4.832-7.853
		c2.723-4.066,35.634-31.816,35.634-33.827c0-5.331-7.831-21.375-11.476-22.348c0,8.168-10.049,28.77-13.649,34.672
		c-7.625,12.494-11.735,17.109-20.621,27.698c-7.18,8.557-16.656,15.832-26.485,21.836c-5.604,3.422-9.785,5.332-16.19,7.97
		c-2.534,1.044-17.154,5.072-19.69,5.072l-14.522,0.225l-12.6-1.586l-7.908-2.866c0.814-9.786,41.368-29.149,41.674-42.887
		c-2.604,0.217-7.177,2.666-9.141,3.543c-3.147,1.409-6.708,1.883-10.527,2.761c-5.363,1.233-17.363,2.757-23.214,2.757
		l-3.672,0.469l-22.299-2.885v-1.813c0-3.486,12.361-12.035,15.341-14.254c5.17-3.852,11.014-9.806,15.825-14.376
		c5.358-5.089,10.002-9.821,15.19-15.01c3.453-3.454,13.923-10.852,14.042-16.159c-8.324,1.94-19.633,6.644-29.595,6.644H93.926
		c-2.471,0-9.14-2.14-10.878-3.013c-1.449-0.728-8.282-6.047-8.45-6.047C69.495,332.82,68.559,353.855,68.559,360.605
		L68.559,360.605z M447.854,340.068L447.854,340.068c12.121,0,22.189-3.615,30.198-7.853c3.151,2.111,4.228,12.631,4.228,18.12
		v18.122l-1.62,22.365c-9.791-0.23-65.68-45.725-67.836-54.983c2.178,0.049,9.097,1.848,12.031,2.463
		c2.07,0.435,10.157,1.765,12.127,1.765H447.854L447.854,340.068z M379.605,389.599L379.605,389.599
		c-7.793-1.815-20.669-28.814-24.345-37.264c-3.133-7.197-6.352-14.343-9.245-21.56c-1.471-3.666-2.75-7.454-4.045-11.055
		c-1.012-2.811-1.877-10.322-4.645-11.06l-0.545,5.597l-1.871-7.41l-5.359,0.013l-2.491,18.712
		c-1.776,11.396,8.211,35.752,11.872,43.095c5.436,10.903,15.405,23.749,23.611,31.955c8.772,8.772,20.054,17.348,31.761,23.203
		c5.82,2.912,13.485,5.98,20.364,7.421c3.152,0.659,24.127,2.057,24.127-1.176c0-3.211-11.339-9.864-14.006-11.968
		c-3.503-2.764-9.195-10.025-12.722-13.854c-7.799-8.466-17.788-19.467-24.126-29.026c-3.5-5.282-7.113-9.88-10.512-15.461
		c-3.498-5.745-6.087-11.401-9.541-17.035c-2.438-3.973-16.368-32.856-16.67-36.482h-3.021c-1.392,0-1.812,0.421-1.812,1.813v1.208
		c0,4.042,2.59,2.445,0.831,5.661l-3.851-5.661C343.367,334.715,379.605,370.092,379.605,389.599L379.605,389.599z M105.833,430.288
		L105.833,430.288c10.44,4.394,20.488,3.828,31.258,3.828c16.889,0,57.874-30.468,64.325-41.514
		c8.415-14.403,31.424-59.938,31.424-80.319v-1.813c0-2.989-2.01,0.043-2.417-4.832l-2.356,0.014l-1.267,6.631l-1.202-0.002
		l-1.214-4.83c-3.51,2.35-10.171,19.11-12.684,24.16c-4.282,8.607-7.935,16.432-13.167,24.283
		c-2.738,4.109-6.175,7.131-8.351,10.374c-2.875,4.288-4.524,7.1-7.574,11.149c-3.839,5.099-12.69,16.87-17.415,20.034
		c0.582-2.179,24.528-37.438,28.023-42.645c4.499-6.702,25.126-38.742,25.126-46.146c0-1.363,0.231,0.279-0.749-1.423l-3.48,2.027
		l-0.024-4.379l-4.808,0.754v-3.021h-1.812c-2.504,0-14.406,31.784-16.708,36.444c-5.956,12.055-13.893,21.301-21.582,31.57
		C163.822,380.342,107.108,430.419,105.833,430.288L105.833,430.288z M360.877,312.895L360.877,312.895l-1.937-7.214
		c6.156,1.567,29.594,48.885,43.616,48.885h1.812c-0.707-8.489-42.883-39.115-42.883-57.383v-3.625
		c4.069,1.087,44.955,44.056,51.488,50.588c8.228,8.229,16.933,17.439,26.788,23.949c6.636,4.383,24.706,16.505,28.892,21.844
		c3.746,4.776,2.681,4.557-3.89,4.49c-4.416-0.043-7.463,1.155-11.952,0.481c-7.604-1.146-13.999-2.146-20.916-4.452
		c-13.131-4.379-23.405-9.979-33.071-17.663c-9.542-7.584-17.671-16.098-24.664-26.074c-4.31-6.151-15.486-25.716-15.694-35.042
		L360.877,312.895L360.877,312.895z M6.35,221.679L6.35,221.679c6.598,0.549,37.159,18.1,43.728,22.107
		c7.24,4.417,14.539,7.02,18.291,14.929c2.982,6.287,5.023,18.565,5.023,27.596v7.852c0,8.118-2.242,17.578-5.436,22.349
		c-9.402-2.189-22.434-4.931-31.343-7.916c-4.794-1.606-10.998-2.328-15.965-3.967c-3.033-1-14.297-2.64-14.297-5.03V221.679
		L6.35,221.679z M72.183,326.78L72.183,326.78c0-10.8,6.644-27.563,6.644-40.469c4.455,2.982,5.825,7.758,14.486,9.069
		c6.172,0.934,13.764,2.406,21.148,2.406c-2.825,2.456-7.906,5.431-11.311,8.018c-3.679,2.796-6.888,5.669-10.433,8.291
		c-3.279,2.425-18.614,16.399-20.535,16.912V326.78L72.183,326.78z M423.09,294.766L423.09,294.766
		c6.923,0,21.237-2.527,28.251-3.761c4.776-0.84,7.441-2.218,11.424-4.28c5.577-2.89,2.366-6.303,9.249-6.455
		c0.344,4.139,2.115,14.958,2.953,19.998c1.01,6.072,1.273,14.149,1.273,21.075v5.438L423.09,294.766L423.09,294.766z
		 M188.146,302.619L188.146,302.619c4.122-1.101,5.316-9.061,9.06-9.061h1.812c-0.06,2.652-8.277,14.101-10.139,17.042
		c-3.994,6.313-8.254,8.672-12.657,13.919c-4.185,4.988-23.848,24.225-24.918,28.234c8.053-1.875,19.79-15.883,25.517-21.594
		c4.094-4.084,7.213-8.256,11.187-12.371c2.474-2.562,7.621-11.659,11.011-11.941c-0.253,11.372-28.321,54.745-35.483,61.763
		c-8.579,8.405-17.246,14.316-30.358,17.961c-12.625,3.509-23.365,8.464-39.855,8.464c-3.38,0-12.397,0.24-13.146-2.564
		c2.685-0.717,50.31-43.963,55.878-49.531c6.949-6.949,45.53-45.16,52.696-45.756c-0.316,1.354-0.604,1.389-0.604,3.02V302.619
		L188.146,302.619z M382.466,290.018L382.466,290.018l1.367,2.937l-3.705,0.038l1.894,4.794h-1.208
		c-0.595-2.227-3.187-3.561-6.04-3.624v2.417c0,4.901,20.679,23.669,25.375,26.568c9.638,5.949,23.832,13.297,39.251,13.297h5.435
		c9.286,0,17.288-3.091,24.763-4.833c-0.702-8.449-66.51-42.34-80.328-43.49c0.271,12.148,33.819,23.52,34.426,30.805
		C409.329,318.607,389.106,291.665,382.466,290.018L382.466,290.018z M477.448,280.874L477.448,280.874
		c0-9.784,2.819-22.187,5.84-29.194c6.031-13.996,2.846-11.631,15.179-19.854c5.739-3.826,38.41-26.876,41.795-27.665v85.169
		l-60.272,17.931l-0.694-0.353l-2.261-20.553L477.448,280.874L477.448,280.874z M79.473,329.956L79.473,329.956
		c13.606-17.143,73.754-49.327,89.949-49.686l-6.809,5.206c0.488,0.693,0.491,1.438,1.374,1.438c2.745,0,3.925-3.02,7.248-3.02
		c0.734,0,1.812,1.249,1.812,2.417v1.811c-2.717,0.726-42.186,28.804-42.882,31.41c13.999-0.312,35.813-27.785,48.317-27.785
		c0.314,3.77,1.813,1.678,1.813,4.229c0,6.663-28.161,24.723-34.436,28.379c-15.08,8.79-27.092,13.785-50.725,13.785
		C93.166,338.139,77.153,332.88,79.473,329.956L79.473,329.956z M167.006,266.981L167.006,266.981c0,8.076,2.38,10.514,6.494,14.646
		c1.445,1.453,10.646,8.911,12.23,8.911h4.227c3.749,0,8.457-1.544,8.457-4.832v-0.604c0-6.177-5.49-13.322-6.04-19.934h-1.813
		c-4.116,0-10.721-5.436-16.911-5.436C168.976,259.732,167.006,262.215,167.006,266.981L167.006,266.981z M245.523,250.068
		L245.523,250.068c0,12.687-0.637,52.267,1.55,61.872c2.52,11.068,2.468,15.494,8.552,23.461
		c4.396,5.759,11.445,10.707,21.305,10.707c25.936,0,34.427-27.715,34.427-54.363l0.146-15.71l-0.672-26.506l-30.168-4.438
		l-0.109,0.748h-2.416c-4.335,0-13.545,0.065-17.297,0.823C256.216,247.594,249.676,249.722,245.523,250.068L245.523,250.068z
		 M84.867,283.29L84.867,283.29c0,4.974,17.26,7.852,24.159,7.852h2.416c24.177,0,43.462-10.297,53.15-24.765
		c-0.896-1.223-1.387-1.813-3.624-1.813h-0.604c-0.03,0-16.572,8.398-19.578,9.415c-5.362,1.812-16.967,6.162-22.701,6.291v-1.208
		c8.733-2.035,27.425-9.608,33.822-13.893l0.359-3.41l1.454-3.234h-3.021c0.316-1.354,0.604-1.39,0.604-3.021
		c0-1.253-1.767-3.02-2.415-3.02c-10.879,0-27.296,7.907-35.235,11.877C109.489,266.444,84.867,280.631,84.867,283.29L84.867,283.29
		z M136.172,221.452L136.172,221.452l-10.826,1.533c-3.299,2.103-34.339,12.586-39.876,12.586h-3.02c-2.836,0-6.733-3.02-7.852-3.02
		h-2.416c0,13.172,19.255,21.746,33.823,21.746h9.664c5.094,0,30.803-4.15,30.803-6.644c0-2.184-2.539-3.211-3.624-4.833
		c1.154-1.724,6.041-5.822,6.041-7.852c0-1.023-0.806-2.258-1.224-2.91l-6.024-0.714v-8.457
		C140.054,222.518,137.944,221.433,136.172,221.452L136.172,221.452z M62.519,225.907L62.519,225.907v1.812
		c0,4.982,5.686,19.435,7.445,23.964c1.928,4.965,7.051,19.326,7.051,24.962v3.021c5.286-0.44,31.322-15.312,33.823-18.726
		c-1.889,0.159-2.146,0.604-4.228,0.604h-5.436c-17.722,0-34.427-11.75-34.427-30.201v-1.208c0-2.083,0.446-2.339,0.604-4.228
		c4.781,0.106,10.007,4.228,18.119,4.228c8.335,0,12.494-3.375,18.636-5.523c3.097-1.084,5.478-2.077,8.718-3.362
		c2.684-1.064,8.884-1.184,8.884-3.8v-1.812c-17.162-3.999-25.904-38.558-30.803-39.866c-0.662,2.841-12.225,20.405-14.736,24.524
		C73.764,204.243,62.519,221.998,62.519,225.907L62.519,225.907z M439.399,196.914L439.399,196.914c5.813,0,9.409-3.624,10.87-3.624
		h1.813c0.315,1.355,0.604,1.389,0.604,3.02v1.812c0,9.156-26.737,25.37-37.446,25.37h-2.415c-1.392,0-1.813-0.422-1.813-1.813
		v-0.604c0-6.195,3.68-6.067,7.247-8.457c6.722,0,18.792-2.628,19.328-9.061h-1.812c-5.409,0-15.151,7.248-25.367,7.248
		l-3.941-11.971c3.895-2.002,5.023-3.129,10.585-3.129h7.247l12.055,1.4L439.399,196.914L439.399,196.914z M436.982,192.082
		L436.982,192.082l16.911-4.229c1.243,2.351,1.813,4.844,1.813,8.457v4.228c0,9.279-16.779,16.741-20.535,22.35
		c2.294,3.131,24.85,9.06,31.407,9.06h5.436c2.193,0,2.118-0.717,4.227-1.208c0,21.859-18.141,28.389-39.862,28.389H426.11
		c0.127,5.697,12.188,10.743,17.036,11.956c5.165,1.293,18.938,4.958,24.034,4.958h4.833c3.801-16.317,11.475-31.263,11.475-51.343
		v-0.604c0-7.773-13.057-24.42-17.152-30.564c-2.777-4.165-17.541-26.588-19.69-28.027c0,4.013-1.502,12.242-2.52,15.601
		C442.404,186.785,439.596,188.178,436.982,192.082L436.982,192.082z M133.788,208.391L133.788,208.391l6.042,1.195l-0.003,6.053
		c0,1.392-0.42,1.812-1.812,1.812h-6.04c-9.485,0-32.011-22.633-32.011-33.222V180c6.998,0.156,14.395,6.29,22.799,8.004
		c8.575,1.75,19.479-1.155,19.479,10.721v3.02h-3.624v2.416l-19.283-4.411c1.757,2.643,10.168,6.128,14.451,6.224V208.391
		L133.788,208.391z M408.596,174.565L408.596,174.565c6.865-3.634,22.43-12.472,32.011-12.685l1.369,9.035
		c0.824,6.137-5.85,12.877-9.58,15.372c-4.429,2.964-11.825,5.19-18.969,5.19h-3.019c1.182-3.265,17.739-12.346,18.118-16.912
		c-6.415,1.494-11.573,11.476-16.911,11.476h-1.812L408.596,174.565L408.596,174.565z M94.53,170.336L94.53,170.336
		c3.542-6.696,5.782-17.439,13.891-19.329v6.644c0,15.776,11.33,19.691,12.684,24.765C111.279,180.127,99.303,177.466,94.53,170.336
		L94.53,170.336z M141.64,181.813L141.64,181.813c0,0.847-0.824,1.208-1.813,1.208h-3.02c-5.451,0-12.987-6.382-16.755-9.215
		c-4.528-3.404-10.423-7.896-10.423-15.549v-2.417c0.731-0.283,2.069-0.604,3.021-0.604h3.623c6.943,0,28.991,9.333,28.991,15.705
		c0,2.89-6.006,3.625-9.06,3.625c-0.028,0-6.158-4.741-10.269-4.833C128.459,173.5,141.64,178.78,141.64,181.813L141.64,181.813z
		 M170.63,177.585L170.63,177.585c-4.556-0.379-7.025-8.457-12.683-8.457c-5.543,0-13.892,5.981-13.892,12.081l-0.479,0.667
		l2.896,21.079l-0.306,2.754l-2.11,2.682c0,4.053-1.208,4.48-1.208,6.04c0,2.648,3.219,10.781,4.341,12.571
		c2.439,3.889,5.227,2.699,5.346,11.566c0.083,6.209-0.9,11.016,2.013,14.899c1.397,1.863,6.95,7.473,9.439,7.473
		c1.952,0,3.02-2.192,3.02-4.228c0-5.106-0.611-9.607-2.169-13.536c-0.957-2.414-4.446-9.933-4.429-11.361l4.697,1.604l-0.28-0.606
		l2.32-2.505l0.465,0.432l-0.155,6.655l0.758,12.069c3.326,4.966,18.094,12.081,26.576,12.081c0,4.032,1.337,10.169,3.444,12.261
		c0.592,0.587,10.174,5.861,10.447,5.861h0.604c3.972,0,4.688-1.208,9.061-1.208c-0.327,3.926-13.153,7.489-17.516,7.853
		c0.572,6.878,13.623,16.912,22.347,16.912c8.774,0,15.348-5.509,17.606-11.989c3.185-9.137,0.454-16.604,0.511-27.271
		c0.064-12.23-3.672-18.068,8.496-20.5c8.761-1.75,16.39-3.059,27.141-3.059h8.455c8.018,0,28.285,3.004,29.507,9.148
		c1.107,5.563,0.063,13.679,0.649,18.68c0.632,5.384,0.647,13.037,0.647,18.682c0,29.648-7.774,62.818-36.238,62.818h-9.664
		c-9.505,0-18.043-9.355-21.738-15.709c-3.71-6.38-7.252-20.042-7.252-30.197c-2.847,1.031-3.625,8.305-3.625,12.082
		c-1.375,2.053-3.02,5.052-3.02,8.455v3.625c0,6.357,4.567,15.635,7.039,20.142c2.175,3.968,11.167,14.672,11.684,16.1
		c-9.173,4.402-12.387,7.855-19.177,14.647c-2.192,2.192-17.062,15.754-17.062,17.366v1.208c0,5.077,10.639,8.456,16.307,8.456
		h4.228v4.833c0,7.521-1.004,14.013,4.228,17.516c2.392-3.57,9.308-22.953,12.079-22.953c0.989,0,1.812,0.363,1.812,1.209
		c0,3.659-1.812,5.442-1.812,7.853v0.604c0,2.807,7.773,5.016,10.205,11.539c2.097,5.628,3.687,10.374,3.687,18.059v2.416
		c0,9.972-4.477,26.577-13.288,26.577h-1.207c-6.273,0-13.98-10.873-14.496-10.873c-3.466,0-6.644,2.599-6.644,6.042v1.812
		c0,3.533,0.714,5.388,1.21,8.456c0.866,5.357,0.82,3.415-4.883,3.755c-5.354,0.319-11.804,2.147-16.122,3.99
		c-6.85,2.922-18.255,14.609-18.255,23.061v3.624c0,6.101,4.506,11.592,5.468,15.194c5.656-1.51-1.049-13.277,15.294-16.176
		c10.549-1.87,16.641-0.536,19.101-11.099h1.812c0,3.492,3.904,11.248,6.644,11.477v-1.813c0-6.938,5.954-10.56,11.464-12.091
		c7.539-2.094,11.251-3.314,17.295-6.683l1.439-7.199c2.54,0.211,3.624,2.407,3.624,4.831c0,5.625-3.021,20.517-4.094,25.504
		c-1.94,9.018-12.818,16.886-12.818,17.383c0,0.63,9.125,15.828,10.472,18.521c2.632,5.26,6.901,15.895,10.064,19.532
		c1.068-4.586,6.026-16.395,8.333-20.055c1.293-2.052,11.598-17.199,11.598-17.396c0-1.022-10.036-14.164-11.478-16.307
		c-4.072-6.053-5.434-12.99-5.434-22.955v-6.039c0-2.152,1.432-2.368,3.624-2.418v3.625c0,5.725,13.818,7.18,17.882,9.9
		c3.027,2.027,5.062,4.093,6.872,7.021c0.963,1.556,3.63,8.448,5.444,8.448h0.604c6.68,0,7.142-9.665,16.912-9.665h2.414
		c15.451,0,15.149,20.537,20.537,20.537c6.538,0,10.267-12.16,10.267-19.328c0-4.566-1.504-10.801-3.496-13.417
		c-1.306-1.714-2.499-2.815-4.606-3.849c-2.944-1.444-1.802-2.582-4.811-3.646c-7.801-2.76-23.162-1.218-26.949-6.874
		c0.455-1.952,1.208-3.745,1.208-6.04c0-5.675-4.573-16.913-9.06-16.913c-2.207,0-5.467,15.101-15.1,15.101h-4.228
		c-8.993,0-16.911-17.927-16.911-28.39v-2.416c0-8.777,6.88-24.162,13.892-24.162h2.416c4.967,0,10.223,10.429,15.057,13.476
		l4.988-15.05l-0.719-0.237c1.785-2.664,1.687-7.853,6.04-7.853c2.716,0,3.173,1.459,6.625,1.236
		c2.63-0.168,4.205-0.622,7.885-0.617c6.392,0.009,9.206-1.946,13.877-3.035c-0.102-4.57-1.56-2.376-5.961-3.703
		c-2.445-0.737-5.706-1.611-8.063-2.205c-5.119-1.288-10.16-4.03-14.372-6.163c-5.896-2.986-18.11-14.801-18.11-22.962v-6.645
		c0-7.567,15.703-23.612,15.703-39.262v-27.181c2.698,0.294,4.453,3.552,6.646,4.831c0.465,0.271,8.94,3.021,9.059,3.021h3.019
		c5.696,0,16.912-5.481,16.912-12.684c0-5.37-8.036-4.617-8.456-9.665h13.893c1.785,0,3.165-2.414,5.436-3.02l-0.089-12.534
		l-7.158-3.775v-2.416c7.812-0.65,11.081-8.831,12.683-15.705c1.935,0.043,3.02-0.196,3.02,1.812c0,5.788-2.831,8.012-4.592,12.321
		c-2.563,6.276-0.844,7.948-0.844,15.465v4.227c0,3.374-1.986,4.086-4.641,5.024c-2.405,0.852-6.008,2.496-7.439,2.83v1.812
		c0,2.213,6.581,3.019,9.061,3.019h3.623c4.675,0,12.764-12.611,12.895-13.313l-1.418-13.263c-0.46-3.862,3.026-5.96,6.643-6.04
		v1.812c0,2.821-1.812,3.449-1.812,5.436c0,1.626,5.306,4.615,6.04,6.64l-5.437-1.203c1.155,4.954,4.337,0.91,4.755,5.65
		l-4.125-1.492l-0.496,0.435l3.462,4.851l-4.804-0.384v3.625h1.812c3.498,0,20.592,8.456,26.576,8.456
		c12.641,0,43.253-1.626,43.486-12.081c-5.476-0.456-22.822-6.696-28.024-8.818c-4.966-2.025-8.057-3.698-12.08-6.645
		c-1.596-1.169-9.872-8.095-10.63-8.095h-1.812v1.813c-2.932-0.065-4.001-0.879-4.229-3.625h1.812v-2.416
		c0-1.393,0.422-1.813,1.813-1.813h1.208c4.101,0,10.421,3.624,18.119,3.624h15.099c5.86,0,10.239-2.416,15.704-2.416
		c3.203-2.146,13.892-5.586,13.892-10.873v-3.02c-7.078,0-15.467-2.228-21.503-3.864c-3.978-1.078-17.762-5.196-20.171-5.196
		l-3.026-0.038l-18.717,2.454h-6.645c0.808-3.026,3.623-4.147,3.623-7.852v-3.021h-3.623l-0.366-0.616l3.989-1.801v-1.812
		l-1.303-0.058l1.907-4.171l-3.904-0.147l2.073-4.776l-3.604,0.695v-2.417c0-3.502-5.323-2.834-5.436-7.852
		c3.156-0.843,10.267-5.678,10.267-9.664v-0.604c0-3.639-11.67-13.289-13.286-13.289c-3.859,0-4.596,1.208-8.456,1.208h-2.415
		c0.43-5.165,3.02-8.263,3.02-13.893c0-3.443-1.553-5.164-4.955-5.467l0.728-2.989c-2.108-1.411-6.222-3.704-10.285-3.123
		l-4.815,0.707v11.477c0,13.032-7.851,15.931-7.851,23.556v1.813c0,9.508,5.117,10.476,12.015,12.75
		c3.316,1.093,6.197,1.618,9.35,3.333c1.82,0.992,5.814,5.154,5.814,6.87c0,20.011-7.891,18.548-24.738,20.563
		c-8.272,0.989-4.043,29.572-15.728,29.572h-2.416c-3.618,0-11.498-6.656-12.618-9.127c-3.098-6.83-3.458-8.548-8.361-13.987
		c-2.945-3.266-22.507-19.794-22.507-21.584v-3.021c4.903,0.408,6.489,3.021,10.872,3.021h1.811
		c-0.439-5.288-19.094-13.122-19.29-23.82l10.835,1.471c-0.446-5.375-13.287-15.052-13.287-18.122c0-1.392,0.42-1.812,1.812-1.812
		h2.416v-2.416c0-2.778-2.558-10.873-4.831-10.873h-3.021c-4.943,0-7.103,0.934-10.737,1.695l3.395,3.902l-0.509,0.443
		c-4.146,0-3.222-1.208-6.039-1.208h-1.813c-3.054,0-2.565,4.228-5.436,4.228h-1.812c-8.204,0,8.865-11.961-15.462-7.612
		c-8.283,1.481-15.34,1.2-15.34,11.236h1.812c0.717,0,5.916-3.02,9.664-3.02h6.644c5.156,0,9.537,2.658,13.892,3.02v4.228
		c0,10.82-14.397,3.113-16.307,10.269c0.736,0.414,0.646,0.604,1.812,0.604h3.624c3.298,0,3.346-1.208,6.644-1.208h8.456
		c-0.144,6.389-11.476,6.902-11.476,10.873v1.812h10.268c0,12.746-17.851,12.591-19.327,18.121c3.191,0.266,3.474,1.813,7.247,1.813
		l2.43,0.141l9.046-0.746c0,14.651-25.059,9.418-34.215,15.312c-8.017,5.16-9.079,26.366-23.162,26.366
		c-5.43,0-9.663-3.445-9.663-8.456v-3.02c0-4.144,3.019-8.352,3.019-12.685c0-7.172-14.891-7.249-22.951-7.249
		c-3.45-2.311-14.495-9.798-14.495-14.497c0-5.175,7.474-9.665,13.288-9.665c4.943-3.31,15.099-1.827,15.099-13.289v-2.417
		c0-8.499-4.832-17.399-4.832-25.973v-4.832c0-3.291,1.812-7.122,1.812-7.249c0-1.384-0.205-0.702-0.604-2.416h-6.644
		C168.216,147.384,171.676,165.009,170.63,177.585L170.63,177.585z M271.494,135.303L271.494,135.303
		c2.181,0,4.126-3.625,6.644-3.625c1.484,0,1.962,4.097,7.852,4.229c0.43-1.608,1.697-3.625,3.624-3.625h1.812
		c0.377,1.411,1.303,3.625,3.02,3.625h10.872c-0.416,4.996-11,18.937-15.703,19.329l-2.936-6.391l-0.688,0.351v6.041
		c-3.141,0.261-4.062,1.812-8.455,1.812h-2.417c-10.027,0-28.99-11.752-28.99-19.933c0-1.137,2.228-1.812,3.623-1.812h4.228
		c3.107,0,3.964,1.121,6.474-0.158c1.847-0.942,3.05-2.863,5.002-2.863C266.062,132.282,268.153,135.303,271.494,135.303
		L271.494,135.303z M112.045,149.799L112.045,149.799c0-10.906,44.783-18.323,58.039-19.875c23.219-2.72,47.269-4.89,73.023-4.89
		h10.872c33.164,0,75.498-0.16,104.622,4.094c17.614,2.574,31.363,2.671,47.218,7.141c10.244,2.887,33.337,9.262,33.581,20.175
		c-8.888,0.198-31.199,14.497-38.052,14.497c-1.299,0-12.021-3.558-13.287-4.228l0.738-5.416l-0.135-1.229
		c0-6.91-7.107-12.78-11.475-15.705c-4.373,0-5.089-1.208-9.061-1.208h-7.852c-1.392,0-1.812,0.42-1.812,1.813v1.812
		c0,4.489,0.729,4.728,2.416,7.248c0,13.396-8.456,25.416-8.456,34.43c0,7.156,4.504,10.393,9.455,12.894
		c3.509,1.771,12.384,5.228,17.12,5.228v5.437c0,12.2-9.503,12.081-21.742,12.081l-8.873,8.03l-1.615,21.549
		c-1.135,0.333-1.169,0.623-2.8,0.623h-3.02c-8.773,0-10.929-13.364-16.455-19.183c-3.002-3.158-5.45-6.308-9.266-8.854
		c-3.041-2.028-8.42-4.872-9.312-8.204c1.5-0.35,9.061-1.75,9.061-3.021c0-2.135-15.188-17.911-17.515-19.933l9.1,1.641l1.728-0.546
		l0.67-2.901c-2.38-3.526-10.289-9.081-10.289-14.502v-1.813c1.889,0.158,2.145,0.604,4.228,0.604h0.604
		c1.825,0,1.669-0.711,1.812-2.417c-5.287-0.44-10.872-10.586-10.872-15.705v-2.416c0-0.753,14.938-16.81,16.912-20.537
		c-2.863-4.275-9.332-3.02-16.308-3.02c-2.189-1.467-3.634-4.833-5.436-4.833c-1.197,0-3.547,2.625-5.436,3.624
		c-1.1-0.736-4.254-3.624-5.436-3.624h-1.208c-1.73,0-2.847,2.417-6.041,2.417c-3.192,0-4.31-2.417-6.04-2.417h-1.812
		c-1.995,0-1.454,2.921-10.291,2.997c-4.334,0.036-6.252,1.835-11.452,1.835v2.416c0,6.175,8.287,14.531,12.683,15.705
		c-0.116,5.256-11.595,4.932-16.563,5.784c-5.54,0.95-10.616,5.356-10.616,11.129c0,3.054,1.138,4.09,1.208,7.248l13.703-4.2
		l0.188,0.576c-3.393,14.566-29.36,11.508-30.803,16.913c2.283,0.609,3.769,1.812,7.247,1.812c7.577,0,14.179-4.56,20.536-6.04
		c7.405,4.958,8.436,2.842,15.099,6.04l0.427,0.629l-4.995,3.384l-0.264,1.423c0,4.427,4.341,4.618,7.853,5.437v2.416
		c-2.715,0.725-18.12,8.932-18.12,11.477c0,1.694,12.438,5.437,15.099,5.437h3.021c-1.911,7.157-24.932,3.076-30.322,11.353
		c-2.383,3.66-14.23,23.681-17.392,23.681h-1.813c-3.511,0-6.04-4.187-6.04-7.249v-0.604c0-3.396,4.833-10.899,4.833-15.705
		c0-1.778-6.341-6.236-7.852-7.248c-10.152,0-28.991-2.998-28.991-12.684c0-8.326,26.575-3.586,26.575-22.953
		c0-2.644-3.02-9.659-3.02-14.498v-9.06c0-4.08,2.23-22.954-1.208-22.954h-1.813c-1.781,0-17.623,4.657-19.102,5.661
		c-4.126,2.8-6.264,11.023-6.264,17.897h-12.684c-5.217,0-5.715-3.426-8.609-5.887c-0.413-0.35-9.002-5.487-9.007-5.489
		C130.513,153.654,112.045,153.632,112.045,149.799L112.045,149.799z M7.557,61.611L7.557,61.611
		c2.653,0.708,62.209,62.741,62.209,62.819c0,0.733-3.225,16.498-3.75,18.598c-1.497,5.981-2.29,12.311-2.29,20.06v2.416
		c0,3.434,0.377,10.261,1.265,12.628c1.021,2.73,4.409,7.744,4.775,9.117h-6.04c-3,0-24.585-15.385-28.507-18
		c-4.116-2.743-25.06-17.546-27.663-18.241V61.611L7.557,61.611z M539.069,41.798L539.069,41.798l0.588,0.484v82.148
		c0,1.871-61.72,60.673-65.229,61.611c0.767-9.204,5.436-14.3,5.436-28.993c0-10.297-4.92-25.937-8.66-32.786L539.069,41.798
		L539.069,41.798z M95.738,56.779L95.738,56.779c3.525,0,16.249-3.512,20.784-4.583c7.102-1.677,13.68-3.242,20.737-4.63
		c13.337-2.625,29.184-6.077,43.092-7.643c14.867-1.675,29.825-3.733,45.287-5.448c14.464-1.604,32.624-1.857,48.273-1.857
		c26.342,0,54.237,1.564,77.788,4.957c10.954,1.578,24.156,3.332,35.539,5.533c10.753,2.078,23.945,3.994,34.288,6.781
		c5.575,1.503,11.55,2.791,17.224,3.917c9.941,1.973,8.501,0.269,10.904,9.631c2.65,10.321,5.968,21.853,8.99,32.083
		c3.088,10.453,6.311,21.785,9.025,32.048c2.513,9.504,7.968,21.771,7.968,33.106c0,9.905-4.483,17.02-8.456,22.953
		c-5.464-2.892-20.789-28.772-25.367-35.638c-4.942-7.417-7.348-10.704-17.976-12.828c-7.91-1.581-15.955-3.5-25.146-5.052
		c-9.164-1.548-18.129-1.912-27.295-3.509c-8.871-1.547-18.895-0.858-27.782-2.417c-5.25-0.921-23.144-1.605-28.641-1.559
		c-9.136,0.075-18.787-1.214-28.984-1.214h-45.901c-30.362,0-80.146,4.152-103.503,11.252c-15.759,4.792-28.951,7.767-37.111,20.27
		c-2.686,4.115-20.045,34.92-22.459,34.92c-11.485,0-10.492-20.555-9.663-30.805c0.982-12.149,4.081-24.901,6.298-36.587
		c2.419-12.753,5.35-22.789,8.564-34.322c1.7-6.099,3.576-10.494,5.867-15.876C90.789,63.901,93.079,61.803,95.738,56.779
		L95.738,56.779z M89.698,51.947L89.698,51.947c3.35,0,24.11-5.063,29.458-6.177c9.505-1.979,20.126-4.27,29.732-6.507
		c-0.916-3.426-18.664-30.806-20.536-30.806H48.628C49.493,11.698,88.495,51.947,89.698,51.947L89.698,51.947z M230.423,27.785
		L230.423,27.785c-2.38,0-3.271-7.968-3.672-10.22c-0.603-3.389-2.367-6.986-2.367-11.525h97.239l-3.711,21.73L230.423,27.785
		L230.423,27.785z M410,5.559L410,5.559l-18.875,30.335c3.604,0.602,12.979,2.746,15.88,3.75c3.991,1.381,11.168,2.146,15.488,3.237
		c5.076,1.281,27.284,6.65,31.4,6.65c0.229,0,16.655-19.64,18.231-21.633c2.631-3.326,17.452-20.381,18.007-22.461L410,5.559
		L410,5.559z M351.219,631.815L351.219,631.815c2.735-1.832,15.14-5.025,19.337-6.635c5.989-2.299,12.48-4.895,18.304-7.667
		c11.836-5.632,23.543-10.933,33.99-17.953c17.609-11.834,43.885-30.828,56.048-47.237c3.425-4.618,7.937-9.469,11.73-14.242
		c4.044-5.09,7.188-9.617,10.858-15.112c6.72-10.056,13.135-21.512,18.341-33.002c5.33-11.766,10.205-24.208,14.032-37.912
		c2.96-10.598,8.476-30.59,8.819-42.522c0.205-7.166,2.425-15.739,2.43-23.543c0.006-8.79,0.589-16.152,0.589-25.384
		c0-17.802-0.604-33.996-0.604-51.341c0-34.43,0-68.86,0-103.29c0-69.164-0.603-136.633-0.603-205.974L2.946,0.07L2.122,7.853
		L0,358.187l0.31,39.265c0,17.531,6.444,39.567,9.792,54.838c3.666,16.723,11.816,31.916,17.469,46.558
		c4.924,12.754,16.527,29.106,24.085,39.939c9.057,12.98,18.993,22.876,30.041,33.984c37.889,38.099,109.174,70.521,185.57,70.521
		h10.268c11.836,0,27.832-2.767,38.713-4.169c5.948-0.766,12.203-1.882,17.818-3.32
		C337.604,634.896,348.511,631.815,351.219,631.815z"/>
	<path fill-rule="evenodd" clip-rule="evenodd" fill="#0072B6" d="M505.87,476.221c3.845,0,6.98-3.137,6.98-6.981
		c0-3.844-3.136-6.979-6.98-6.979c-3.844,0-6.98,3.136-6.98,6.979C498.89,473.084,502.026,476.221,505.87,476.221z"/>
	<path fill-rule="evenodd" clip-rule="evenodd" fill="#0072B6" d="M458.24,550.949c3.845,0,6.98-3.136,6.98-6.98
		c0-3.844-3.136-6.98-6.98-6.98s-6.979,3.137-6.979,6.98C451.261,547.813,454.396,550.949,458.24,550.949z"/>
	<path fill-rule="evenodd" clip-rule="evenodd" fill="#E5344C" d="M242.424,179.552c2.164-1.86,3.542-3.455,3.77-6.09
		c2.231-2.456,8.578,0.859,10.659,1.087c0.247,6.223-9.235,3.359-11.82,7.182L242.424,179.552z"/>
	<path fill-rule="evenodd" clip-rule="evenodd" fill="#FFFFFF" d="M124.205,463.6c-0.03-5.543,1.916-9.674,5.839-12.394l0.494,5.338
		l1.209,3.782C129.515,459.724,127,460.814,124.205,463.6z"/>
	<path fill-rule="evenodd" clip-rule="evenodd" fill="#FFFFFF" d="M134.661,498.591c-3.585-1.221-5.368-6.959-2.711-14.049
		l3.093,4.379l2.936,2.674C135.743,492.187,135.692,494.782,134.661,498.591z"/>
	<path fill-rule="evenodd" clip-rule="evenodd" fill="#FFFFFF" d="M156.343,508.169c5.173-1.991,7.783-8.741,8.886-13.387
		l-5.15,1.486l-3.963,0.251C157.49,498.379,157.917,504.551,156.343,508.169z"/>
	<path fill-rule="evenodd" clip-rule="evenodd" fill="#FFFFFF" d="M192.388,486.091c5.788-2.025,8.869-7.049,5.947-13.357
		l-3.833,3.75l-3.369,2.099C193.224,479.567,192.06,482.158,192.388,486.091z"/>
	<path fill-rule="evenodd" clip-rule="evenodd" fill="#FFFFFF" d="M356.599,480.106c-0.029-5.544,2.971-11.787,6.895-14.507
		l1.549,4.81l1.735,3.123C364.546,472.929,359.395,477.319,356.599,480.106z"/>
	<path fill-rule="evenodd" clip-rule="evenodd" fill="#FFFFFF" d="M405.46,500.033c-5.423-1.143-9.049-3.919-10.877-8.329
		l5.321,0.646l3.952-0.38C402.795,494.024,403.329,496.712,405.46,500.033z"/>
	<path fill-rule="evenodd" clip-rule="evenodd" fill="#FFFFFF" d="M437.797,463.614c0.521-7.17-5.494-11.415-11.586-11.29
		c0.942,2.652,1.971,5.436,0.449,8.087C429.141,457.586,434.919,459.666,437.797,463.614z"/>
</g>
</svg>
