<?xml version="1.0" encoding="utf-8"?>
<!-- Generator: Adobe Illustrator 13.0.2, SVG Export Plug-In . SVG Version: 6.00 Build 14948)  -->
<!DOCTYPE svg PUBLIC "-//W3C//DTD SVG 1.0//EN" "http://www.w3.org/TR/2001/REC-SVG-20010904/DTD/svg10.dtd">
<svg version="1.0" id="Layer_1" xmlns="http://www.w3.org/2000/svg" xmlns:xlink="http://www.w3.org/1999/xlink" x="0px" y="0px"
	 width="357.538px" height="480.548px" viewBox="0 0 357.538 480.548" enable-background="new 0 0 357.538 480.548"
	 xml:space="preserve">
<linearGradient id="SVGID_1_" gradientUnits="userSpaceOnUse" x1="128.7944" y1="199.8354" x2="378.4088" y2="216.7211">
	<stop  offset="0" style="stop-color:#FFFFFF"/>
	<stop  offset="1" style="stop-color:#CCCCCC"/>
</linearGradient>
<path fill-rule="evenodd" clip-rule="evenodd" fill="url(#SVGID_1_)" d="M9.543,103.92
	c77.871,64.266,159.217,125.738,315.688,126.278l-23.49,68.275c-109.733,0.246-193.77-47.278-273.844-106.453L9.543,103.92z"/>
<linearGradient id="SVGID_2_" gradientUnits="userSpaceOnUse" x1="44.0684" y1="121.0278" x2="357.5569" y2="125.609">
	<stop  offset="0" style="stop-color:#521C19"/>
	<stop  offset="1" style="stop-color:#D62929"/>
</linearGradient>
<path fill-rule="evenodd" clip-rule="evenodd" fill="url(#SVGID_2_)" d="M0,23.162l12.48,89.569
	c81.836,75.57,275.31,143.896,304.677,134.351c16.641-35.779,29.613-116.291,40.38-223.92C239.337-7.526,120.158-7.915,0,23.162z"/>
<linearGradient id="SVGID_3_" gradientUnits="userSpaceOnUse" x1="88.0684" y1="333.9834" x2="287.7621" y2="339.8567">
	<stop  offset="0" style="stop-color:#083363"/>
	<stop  offset="1" style="stop-color:#004FA3"/>
</linearGradient>
<path fill-rule="evenodd" clip-rule="evenodd" fill="url(#SVGID_3_)" d="M27.898,188.35
	C97.74,238.03,162.886,290.937,304.68,291.132c-35.977,82.228-80.76,159.316-124.809,189.416
	C104.399,396.12,57.264,309.486,27.898,188.35z"/>
<g>
	<path fill-rule="evenodd" clip-rule="evenodd" fill="#083363" stroke="#FFFFFF" stroke-width="1.05" stroke-linejoin="bevel" d="
		M133.226,185.266c-26.086-15.662-47.231-50.461-3.719-75.911c-2.498,5.971,1.37,8.515,7.636,9.79
		c-6.021,7.438-6.511,15.612,0.636,24.763C117.123,153.892,119.228,168.379,133.226,185.266z"/>
	<path fill-rule="evenodd" clip-rule="evenodd" fill="#083363" stroke="#FFFFFF" stroke-width="1.05" stroke-linejoin="bevel" d="
		M115.803,175.039c4.355,19.676,17.912,32.646,50.07,32.01c-11.306-4.896-21.584-10.475-28.73-18.306
		C127.5,187.078,121.283,181.497,115.803,175.039z"/>
	<path fill-rule="evenodd" clip-rule="evenodd" fill="#083363" stroke="#FFFFFF" stroke-width="1.05" stroke-linejoin="bevel" d="
		M136.507,205.531l13.702,3.671c2.251,4.11,5.728,8.956,10.868,14.78c-6.756,4.551-12.53,5.578-18.063,5.922
		c2.448-4.503,1.028-11.698-2.593-13.51C136.554,214.585,136.163,210.327,136.507,205.531z"/>
	<path fill-rule="evenodd" clip-rule="evenodd" fill="#083363" stroke="#FFFFFF" stroke-width="1.05" stroke-linejoin="bevel" d="
		M75.52,214.487c-0.684-5.678,1.96-7.733,6.215-8.077l12.776-2.005c4.797-1.223,9.642,0.88,14.438,3.867
		c7.047,3.475,14.635,5.578,22.515,6.998c3.819-0.098,6.51,1.518,8.272,4.651c1.419,3.133,1.666,6.215,1.078,9.349
		c-1.812,2.936-11.357-4.894-17.865-8.565c-0.735-0.98-5.042,1.711-8.077,3.13c5.922-7.635-1.907-8.958-7.488-11.354
		c-1.614,4.553-1.223,8.42-0.293,12.138c-3.671-2.593-5.433-7.342-6.217-13.216c-6.999,1.321-11.6,6.168-14.436,13.655
		c-2.596-2.593-2.353-5.577,1.223-9.004c1.809-2.399,5.578-6.215,5.432-6.706C92.701,208.124,79.975,206.802,75.52,214.487z"/>
	<path fill-rule="evenodd" clip-rule="evenodd" fill="#083363" stroke="#FFFFFF" stroke-width="1.05" stroke-linejoin="bevel" d="
		M153.88,209.347c7.292,12.138,16.053,23.052,30.59,28.778l14.44-0.292c2.396-7.146,3.13-14.878-0.737-24.13l-8.859,0.491
		c-2.055,2.789-6.507,3.229-10.915,3.718l2.35-5.287l-9.004-3.278C165.775,210.229,159.803,209.837,153.88,209.347z"/>
	<path fill-rule="evenodd" clip-rule="evenodd" fill="#083363" stroke="#FFFFFF" stroke-width="1.05" stroke-linejoin="bevel" d="
		M184.178,240.917c-5.287,20.017-12.923,37.784-32.646,37.588c-7.295-0.049-4.503,4.504-4.208,7.93c2.055-2.299,4.6-4.16,9.64-4.355
		c3.526,0.39,7.047-0.882,10.573-2.007c-4.797,5.923-13.998,9.788-5.142,17.864c-1.515-12.433,15.86-21.292,29.856-6.805
		c2.498-3.865-6.313-11.499-8.074-11.06c-3.035-0.784-2.205-7.048-2.35-11.941c0.391-2.399,2.593-5.974,6.215-10.428
		c4.699-4.403,7.931-10.276,10.573-16.786H184.178z"/>
	<path fill-rule="evenodd" clip-rule="evenodd" fill="#083363" stroke="#FFFFFF" stroke-width="1.05" stroke-linejoin="bevel" d="
		M183.394,268.131l2.348-4.211c0.246,2.35,3.573,2.544,7,2.643L183.394,268.131z"/>
	<path fill-rule="evenodd" clip-rule="evenodd" fill="#083363" stroke="#FFFFFF" stroke-width="1.05" stroke-linejoin="bevel" d="
		M193.966,210.277l4.208-5.09c0.98,1.712,1.862,3.573,2.008,6.215L193.966,210.277z"/>
	<path fill-rule="evenodd" clip-rule="evenodd" fill="#083363" stroke="#FFFFFF" stroke-width="1.05" stroke-linejoin="bevel" d="
		M213.691,199.707l-0.293,8.906l7.291-1.909C217.557,204.797,215.208,202.496,213.691,199.707z"/>
	<path fill-rule="evenodd" clip-rule="evenodd" fill="#083363" stroke="#FFFFFF" stroke-width="1.05" stroke-linejoin="bevel" d="
		M160.685,190.894c6.853,3.624,15.221,5.726,24.864,6.511c-1.03,5.14-1.96,10.474-4.944,13.216
		c-23.199-8.125-41.505-20.508-52.859-38.862c-5.24-8.859-3.378-16.838,8.565-23.64c11.452-6.267,26.429-2.301,29.854,1.859
		c11.553,11.158,7,22.318,2.792,33.429c2.691,1.616,6.998,2.153,16.005-0.439c0.929,3.914,1.518,7.879,0.293,11.793
		C176.738,193.98,168.368,192.902,160.685,190.894z"/>
	<path fill-rule="evenodd" clip-rule="evenodd" fill="#083363" stroke="#FFFFFF" stroke-width="1.05" stroke-linejoin="bevel" d="
		M154.469,128.542c-2.251,6.899-16.055,6.51-15.516,10.57c0.586,4.944,4.601,4.553,9.79,2.348
		c7.291-2.64,38.861,12.432,24.081,41.164c5.188,0.05,9.103-1.859,13.213-3.376c4.258,10.67,2.546,22.856-3.425,36.022
		c5.873-3.425,11.209-7.734,15.857-13.214c8.565,12.139,9.349,36.513,13.216,43.51c2.298-45.371-3.084-84.378-39.939-97.446
		C161.027,145.475,152.461,129.863,154.469,128.542z"/>
	<path fill-rule="evenodd" clip-rule="evenodd" fill="#083363" stroke="#FFFFFF" stroke-width="1.05" stroke-linejoin="bevel" d="
		M130.876,111.164c0.882,3.376,4.015,5.631,9.007,6.952c-5.287,6.214-7.342,12.527-3.133,19.135
		c1.518-3.082,4.258-5.235,7.781-6.706c4.405-0.929,8.027-3.18,11.209-6.166c1.078,6.51,2.251,12.97,7.929,16.299
		c-3.428-12.53,3.083-29.856,5.287-37.591c3.082-21.193-14.291-34.406-28.633-19.625
		C152.559,100.397,148.154,108.964,130.876,111.164z"/>
	<path fill-rule="evenodd" clip-rule="evenodd" fill="#083363" stroke="#FFFFFF" stroke-width="1.05" stroke-linejoin="bevel" d="
		M132.883,89.092c2.205-0.589,6.706-1.274,6.51-1.714C138.464,84.833,133.765,85.91,132.883,89.092z"/>
	<path fill-rule="evenodd" clip-rule="evenodd" fill="#083363" stroke="#FFFFFF" stroke-width="1.05" stroke-linejoin="bevel" d="
		M136.507,90.413c0.636,0,3.521,1.714,4.992,2.593l1.075-3.671L136.507,90.413z"/>
	<path fill-rule="evenodd" clip-rule="evenodd" fill="#083363" stroke="#FFFFFF" stroke-width="1.05" stroke-linejoin="bevel" d="
		M131.71,98.489c1.418,0.341,11.257-2.251,12.625-5.041c1.667,9.64-2.348,14.241-11.55,14.143
		C127.891,107.689,125.15,99.567,131.71,98.489z"/>
	<path fill-rule="evenodd" clip-rule="evenodd" fill="#083363" stroke="#FFFFFF" stroke-width="1.05" stroke-linejoin="bevel" d="
		M138.218,80.77c-3.182-7.636-3.475-14.927,7.097-21.045c-0.05,4.208-0.195,8.81,1.078,8.81c6.508-9.691,14.585-10.327,22.954-9.103
		c-2.791,2.593-5.921,5.137-5.678,7.733c9.691-1.223,18.012,0.439,21.045,12.921c-7.636-3.819-15.27-7.34-21.731-2.446
		C154.712,71.423,146.442,73.38,138.218,80.77z"/>
	<path fill-rule="evenodd" clip-rule="evenodd" fill="#083363" stroke="#FFFFFF" stroke-width="1.05" d="M147.81,82.68
		c1.765,0,3.231,0.489,3.231,1.125s-1.466,1.176-3.231,1.176c-1.761,0-3.18-0.541-3.18-1.176S146.049,82.68,147.81,82.68z"/>
	<path fill-rule="evenodd" clip-rule="evenodd" fill="#083363" stroke="#FFFFFF" stroke-width="1.05" stroke-linejoin="bevel" d="
		M203.904,147.677c7.342-19.381,19.967-34.015,45.563-37c-4.255,3.182-8.122,6.362-10.471,9.543
		c10.181-0.491,19.184,0.538,23.786,7.49c-12.091-1.518-23.543-1.176-33.038,5.432C218.096,136.176,210.117,141.365,203.904,147.677
		z"/>
	<path fill-rule="evenodd" clip-rule="evenodd" fill="#083363" stroke="#FFFFFF" stroke-width="1.05" stroke-linejoin="bevel" d="
		M203.218,168.478l-7.49-7.879c15.809-24.324,38.225-31.323,67.591-20.263c-12.331,0.98-25.4-0.832-35.63,8.027
		c7.44,2.887,14.536,5.972,18.109,11.55C226.317,155.019,211.979,157.661,203.218,168.478z"/>
	<path fill-rule="evenodd" clip-rule="evenodd" fill="#083363" stroke="#FFFFFF" stroke-width="1.05" stroke-linejoin="bevel" d="
		M209.335,181.008l-5.432-10.229c5.627-11.109,38.027-13.704,44.588-7.342c5.725,4.112,18.647,33.183,1.661,43.121
		c-0.196-7.244-0.929-14.341-4.108-20.801c-2.645,5.481-5.483,10.816-12.924,11.55c2.645-7.488,1.715-14.585-2.445-21.34
		c-0.931,4.648-1.959,8.908-3.672,10.865c-2.592,2.937-4.307,0.686-6.118-1.37C218.39,182.624,213.837,181.84,209.335,181.008z"/>
	<path fill-rule="evenodd" clip-rule="evenodd" fill="#083363" stroke="#FFFFFF" stroke-width="1.05" stroke-linejoin="bevel" d="
		M233.121,147.677c23.838,7.881,47.185,60.497,2.986,65c13.609,6.706,25.697,7.978,32.646-8.565
		c1.91,4.746,3.328,9.788,3.425,15.661C290.679,172.787,269.439,154.774,233.121,147.677z"/>
	<path fill-rule="evenodd" clip-rule="evenodd" fill="#083363" stroke="#FFFFFF" stroke-width="1.05" stroke-linejoin="bevel" d="
		M230.43,235.141c6.315-4.112,11.501-9.347,16.054-15.271c7.34,1.077,14.289-1.175,20.898-6.508
		c-1.468,11.695-7.978,19.43-10.031,28.143c-1.518-3.475-1.178-8.811-0.686-14.294c-8.174,5.679-13.217,15.81-15.613,29.662
		c-2.793-5.873-2.645-21.387,0.242-23.101C237.673,235.532,234.051,236.218,230.43,235.141z"/>
	<path fill-rule="evenodd" clip-rule="evenodd" fill="#083363" stroke="#FFFFFF" stroke-width="1.05" stroke-linejoin="bevel" d="
		M237.233,146.307c38.716,8.322,58.881,30.296,33.97,80.366c2.54,1.569,5.921,1.664,9.542,1.373
		c-4.553,14.829-5.628,29.854,3.375,45.418c-0.732-20.605,4.503-40.281,10.966-59.663
		C304.876,175.039,277.027,144.154,237.233,146.307z"/>
	<path fill-rule="evenodd" clip-rule="evenodd" fill="#083363" stroke="#FFFFFF" stroke-width="1.05" stroke-linejoin="bevel" d="
		M193.919,158.496l-5.631-4.749c-0.098-0.343-0.196-0.636-0.292-0.93c-15.028-47.427,95.344-111.152,99.501-13.655
		c-25.254-53.987-73.562-31.767-88.343,13.459L193.919,158.496z"/>
	<path fill-rule="evenodd" clip-rule="evenodd" fill="#083363" stroke="#FFFFFF" stroke-width="1.05" stroke-linejoin="bevel" d="
		M237.871,86.253c13.311-0.882,26.526-1.225,38.518,10.474c6.41-2.987,12.287-6.658,16.348-12.627
		c-4.257,0.686-8.713,1.173-14.145,0.636c5.432-5.774,9.984-11.602,12.577-17.375C274.235,80.82,243.107,76.463,237.871,86.253z"/>
</g>
<path fill-rule="evenodd" clip-rule="evenodd" fill="none" stroke="#9EA85E" stroke-width="1.32" stroke-linejoin="bevel" d="
	M12.186,31.582c21.586,151.481,47.332,301.89,166.266,428.555c67.787-53.3,153.735-210.851,161.224-428.555
	C245.847,2.459,136.849,2.165,12.186,31.582z"/>
<g>
	<g>
		<path fill-rule="evenodd" clip-rule="evenodd" fill="#FFFFFF" d="M144.042,318.64c1.96,0,4.504,0.293,7.635,0.93
			c0.491,0.098,1.225,0.246,2.251,0.393c0.148,0.049,0.246,0.145,0.246,0.294v8.565c0,0.195-0.098,0.294-0.246,0.294h-2.251
			c-0.145,0-0.243-0.099-0.243-0.246l-1.126-6.363c0-0.097-0.098-0.194-0.243-0.243c-3.281-0.735-5.385-1.078-6.412-1.078
			c-4.945,0-8.859,1.42-11.698,4.307c-2.887,2.891-4.307,6.805-4.307,11.798c0,4.992,1.37,9.296,4.159,12.823
			c2.987,3.817,6.901,5.728,11.796,5.728c1.371,0,3.278-0.246,5.678-0.735v-11.455c0-0.196-0.098-0.243-0.294-0.243l-4.846-0.439
			c-0.195,0-0.245-0.149-0.245-0.393v-1.371c0-0.196,0.098-0.293,0.294-0.293h14.487c0.196,0,0.341,0.097,0.341,0.293v1.371
			c0,0.243-0.098,0.393-0.293,0.393l-4.257,0.439c-0.148,0-0.246,0.047-0.294,0.146v13.216c0,0.097-0.098,0.196-0.246,0.293
			c-3.962,0.882-7.633,1.321-11.06,1.321c-5.972,0-10.868-1.761-14.733-5.385c-3.962-3.718-5.971-8.467-5.971-14.388
			c0-3.965,1.028-7.491,2.985-10.573c1.957-3.132,4.749-5.531,8.369-7.146C136.75,319.374,140.275,318.64,144.042,318.64z"/>
		<path fill-rule="evenodd" clip-rule="evenodd" fill="#FFFFFF" d="M165.823,319.471c0.196,0,0.294,0.099,0.294,0.294v1.471
			c0,0.193-0.098,0.292-0.294,0.292l-4.405,0.44c-0.148,0-0.196,0.049-0.246,0.099c-0.047,0.099-0.047,0.196,0,0.294l10.475,28.045
			l10.816-28.143c0.098-0.246,0-0.393-0.245-0.393l-4.258-0.343c-0.196-0.048-0.293-0.146-0.293-0.292v-1.471
			c0-0.195,0.097-0.294,0.293-0.294h12.287c0.195,0,0.292,0.099,0.292,0.294v1.471c0,0.193-0.097,0.292-0.292,0.292l-4.651,0.44
			c-0.098,0.049-0.146,0.099-0.196,0.197l-14.146,36.068c0,0.1-0.098,0.149-0.243,0.149h-1.468c-0.098,0-0.148-0.05-0.196-0.149
			l-13.361-36.021c-0.05-0.146-0.098-0.196-0.246-0.196l-4.503-0.489c-0.196,0-0.243-0.099-0.243-0.292v-1.471
			c0-0.195,0.098-0.294,0.293-0.294H165.823z"/>
		<path fill-rule="evenodd" clip-rule="evenodd" fill="#FFFFFF" d="M209.923,319.471c0.193,0,0.292,0.099,0.292,0.294v8.859
			c0,0.197-0.099,0.342-0.292,0.342h-2.105c-0.195,0-0.293-0.097-0.293-0.243l-1.078-6.411c0-0.146-0.096-0.245-0.342-0.245h-12.382
			c-0.196,0-0.246,0.099-0.246,0.294v14.876c0,0.149,0.05,0.196,0.246,0.196h7.487c0.196,0,0.246-0.047,0.246-0.196l0.586-4.6
			c0-0.146,0.099-0.243,0.294-0.243h1.518c0.195,0,0.293,0.098,0.293,0.295v12.039c0,0.196-0.098,0.293-0.293,0.293h-1.518
			c-0.195,0-0.294-0.097-0.294-0.243l-0.586-4.652c0-0.146-0.05-0.193-0.246-0.193h-7.487c-0.196,0-0.246,0.047-0.246,0.193v14.733
			c0,0.149,0.05,0.246,0.246,0.246l4.844,0.439c0.148,0,0.246,0.1,0.246,0.296v1.465c0,0.196-0.098,0.293-0.246,0.293h-15.173
			c-0.146,0-0.245-0.097-0.245-0.293v-1.465c0-0.196,0.098-0.296,0.245-0.296l4.846-0.439c0.196,0,0.245-0.097,0.245-0.246v-32.693
			c0-0.148-0.048-0.197-0.146-0.197h-0.098l-4.846-0.44c-0.146,0-0.245-0.099-0.245-0.292v-1.471c0-0.195,0.048-0.294,0.196-0.294
			H209.923z"/>
		<path fill-rule="evenodd" clip-rule="evenodd" fill="#FFFFFF" d="M232.046,318.64c0.635,0,1.418,0.051,2.299,0.148
			c0.883,0.049,1.762,0.193,2.643,0.342c0.883,0.098,1.762,0.294,2.594,0.439c0.881,0.148,1.615,0.294,2.254,0.393
			c0.193,0.049,0.291,0.145,0.291,0.294v8.565c0,0.195-0.098,0.294-0.291,0.294h-2.203c-0.098,0-0.149,0-0.244-0.052
			c-0.051-0.047-0.051-0.098-0.051-0.194l-1.126-6.363c0-0.097-0.097-0.194-0.243-0.243c-0.344-0.098-0.735-0.196-1.274-0.295
			c-0.489-0.147-1.026-0.293-1.564-0.391c-0.589-0.148-1.126-0.246-1.714-0.295c-0.588-0.098-1.125-0.098-1.664-0.098
			c-2.545,0-4.796,0.393-6.756,1.127c-1.957,0.783-3.619,1.908-4.942,3.328c-1.371,1.419-2.399,3.131-3.082,5.09
			c-0.686,2.006-1.028,4.158-1.028,6.56c0,2.493,0.343,4.843,1.075,7.046c0.733,2.25,1.812,4.21,3.182,5.924
			c1.371,1.664,2.987,3.035,4.944,4.014c1.91,0.976,4.063,1.468,6.361,1.468c0.442,0,0.93-0.05,1.518-0.05
			c0.589-0.047,1.176-0.097,1.762-0.193c0.588-0.05,1.125-0.149,1.715-0.249c0.587-0.144,1.076-0.29,1.469-0.536
			c0.146-0.1,0.243-0.196,0.243-0.293l1.126-6.36c0-0.053,0-0.1,0.051-0.149c0.095-0.05,0.146-0.1,0.244-0.1h2.203
			c0.193,0,0.291,0.1,0.291,0.296v8.517c0,0.146-0.098,0.193-0.291,0.29c-0.639,0.149-1.321,0.346-2.106,0.492
			c-0.732,0.193-1.564,0.343-2.446,0.489c-0.93,0.144-1.86,0.243-2.887,0.34c-1.078,0.1-2.203,0.149-3.479,0.149
			c-2.055,0-3.962-0.196-5.773-0.636c-1.859-0.489-3.525-1.125-5.043-1.96c-1.514-0.879-2.887-1.907-4.061-3.082
			c-1.223-1.225-2.203-2.496-3.035-3.967c-0.783-1.465-1.419-3.029-1.858-4.746c-0.491-1.711-0.686-3.521-0.686-5.382
			c0-2.106,0.243-4.063,0.784-5.875c0.537-1.81,1.271-3.475,2.251-4.943c0.929-1.518,2.103-2.838,3.425-3.963
			c1.321-1.127,2.74-2.056,4.356-2.841c1.564-0.784,3.278-1.368,5.138-1.761C228.227,318.837,230.085,318.64,232.046,318.64z"/>
	</g>
</g>
<g>
	<g>
		<path fill-rule="evenodd" clip-rule="evenodd" fill="#FFFFFF" d="M149.426,373.017c0,0.05,0,0.097,0.051,0.097h0.439
			c0.832,0,1.419-0.144,1.811-0.393c0.539-0.29,0.832-0.832,0.832-1.512c0-0.542-0.196-0.981-0.587-1.274
			c-0.341-0.296-0.832-0.442-1.37-0.442h-0.538h-0.587c-0.051,0-0.051,0-0.051,0.05V373.017z M149.426,377.909
			c0,0.05,0,0.1,0.051,0.1h0.929c1.762,0,2.644-0.686,2.644-2.007c0-1.567-0.98-2.35-2.937-2.35h-0.636
			c-0.051,0-0.051,0.05-0.051,0.1V377.909z M150.209,368.81c1.225,0,2.106,0.146,2.594,0.39c0.344,0.196,0.587,0.439,0.784,0.686
			c0.196,0.343,0.293,0.732,0.293,1.175c0,1.025-0.587,1.761-1.761,2.203c0.636,0.146,1.223,0.439,1.664,0.879
			c0.489,0.492,0.732,1.078,0.732,1.764c0,0.539-0.145,1.028-0.439,1.468c-0.587,0.882-1.761,1.321-3.524,1.321h-3.719
			c-0.05,0-0.098-0.047-0.098-0.097v-0.393c0-0.047,0.048-0.047,0.098-0.047l1.225-0.149c0.047,0,0.097,0,0.097-0.05v-8.467
			c0-0.047-0.05-0.047-0.097-0.047l-1.225-0.149c-0.05,0-0.098,0-0.098-0.05v-0.387c0-0.05,0.048-0.05,0.098-0.05H150.209z"/>
		<path fill-rule="evenodd" clip-rule="evenodd" fill="#FFFFFF" d="M159.363,370.764c0,0,0-0.047-0.05-0.047l-0.048,0.047
			l-1.371,3.527c-0.048,0.047,0,0.097,0.05,0.097h2.643c0.098,0,0.098-0.05,0.098-0.097L159.363,370.764z M160.783,378.694
			c-0.05,0-0.05-0.047-0.05-0.097v-0.393c0-0.047,0-0.047,0.05-0.047l1.173-0.149h0.051c0-0.05,0-0.05,0-0.1l-1.078-2.886
			c-0.048,0-0.048,0-0.048,0h-3.231h-0.05l-1.173,2.936c0,0.05,0,0.1,0.098,0.1l1.075,0.1c0.05,0,0.098,0,0.098,0.047v0.393
			c0,0.05-0.048,0.097-0.098,0.097h-3.13c-0.05,0-0.098-0.047-0.098-0.097v-0.393c0-0.047,0.048-0.047,0.098-0.047l1.173-0.149
			c0.05,0,0.05,0,0.05,0l3.769-9.398c0-0.047,0-0.047,0.048-0.047h0.344c0.047,0,0.047,0,0.047,0.047l3.475,9.349
			c0,0.05,0,0.05,0.051,0.05l1.173,0.149c0.05,0,0.05,0,0.05,0.047v0.393c0,0.05,0,0.097-0.098,0.097H160.783z"/>
		<path fill-rule="evenodd" clip-rule="evenodd" fill="#FFFFFF" d="M167.389,373.409c0,0.05,0,0.05,0.05,0.05
			c0.686,0,1.173,0,1.419-0.05c0.734-0.05,1.223-0.296,1.518-0.782c0.196-0.293,0.294-0.639,0.294-1.031
			c0-1.415-0.882-2.104-2.694-2.104h-0.538c-0.05,0-0.05,0-0.05,0.05V373.409z M168.223,368.81c1.321,0,2.298,0.193,2.887,0.586
			c0.636,0.489,0.98,1.175,0.98,2.007c0,0.932-0.442,1.664-1.373,2.153c-0.293,0.146-0.587,0.243-0.929,0.343
			c0.489,0.243,0.979,0.785,1.419,1.661l1.271,2.399c0,0.05,0.05,0.05,0.098,0.05l1.077,0.149c0.048,0,0.048,0,0.048,0.047v0.393
			c0,0.05,0,0.097-0.048,0.097h-2.301c-0.047,0-0.098-0.047-0.098-0.097l-1.271-2.643c-0.587-1.271-1.371-1.91-2.348-1.91h-0.196
			c-0.05,0-0.05,0.05-0.05,0.097v3.817c0,0.05,0,0.05,0.05,0.05l1.419,0.149c0.048,0,0.048,0,0.048,0.047v0.393
			c0,0.05,0,0.097-0.048,0.097h-4.11c-0.05,0-0.05-0.047-0.05-0.097v-0.393c0-0.047,0-0.047,0.05-0.047l1.271-0.149
			c0.047,0,0.047,0,0.047-0.05v-8.467c0-0.047,0-0.047-0.047-0.047l-1.271-0.149c-0.05,0-0.05,0-0.05-0.05v-0.387
			c0-0.05,0-0.05,0.05-0.05H168.223z"/>
		<path fill-rule="evenodd" clip-rule="evenodd" fill="#FFFFFF" d="M179.235,368.563c0.145,0,0.341,0.047,0.584,0.047
			c0.248,0,0.442,0.05,0.687,0.1c0.243,0.05,0.439,0.05,0.686,0.1c0.196,0.05,0.393,0.097,0.538,0.097
			c0.098,0.05,0.098,0.05,0.098,0.097v2.206c0,0.047,0,0.097-0.098,0.097h-0.538c-0.05,0-0.05,0-0.05-0.05c-0.048,0-0.048,0-0.048,0
			l-0.294-1.664c0-0.05,0-0.05-0.05-0.1c-0.095,0-0.193,0-0.341-0.047c-0.098-0.05-0.245-0.1-0.393-0.1
			c-0.145-0.05-0.293-0.05-0.439-0.1c-0.145,0-0.294,0-0.439,0c-0.639,0-1.223,0.1-1.714,0.296c-0.538,0.193-0.98,0.489-1.321,0.829
			c-0.341,0.393-0.587,0.838-0.784,1.324c-0.196,0.539-0.294,1.075-0.294,1.714c0,0.636,0.098,1.274,0.294,1.811
			c0.196,0.589,0.489,1.125,0.832,1.564c0.344,0.442,0.784,0.785,1.273,1.028c0.491,0.246,1.075,0.393,1.664,0.393
			c0.098,0,0.246,0,0.391-0.047c0.146,0,0.294,0,0.439-0.05c0.149,0,0.294,0,0.442-0.05c0.146-0.05,0.294-0.05,0.39-0.149
			c0.05,0,0.05-0.047,0.05-0.047l0.294-1.664c0,0,0-0.05,0.048-0.05c0,0,0,0,0.05,0h0.538c0.098,0,0.098,0,0.098,0.05v2.2
			c0,0.053,0,0.1-0.098,0.1c-0.145,0.05-0.294,0.1-0.489,0.149c-0.196,0-0.441,0.047-0.684,0.097
			c-0.196,0.05-0.442,0.097-0.737,0.097c-0.243,0.05-0.538,0.05-0.879,0.05c-0.541,0-1.027-0.05-1.518-0.196
			c-0.489-0.097-0.882-0.296-1.273-0.489c-0.441-0.246-0.782-0.492-1.077-0.782c-0.293-0.343-0.587-0.686-0.784-1.028
			c-0.195-0.393-0.391-0.782-0.489-1.274c-0.098-0.437-0.196-0.882-0.196-1.368c0-0.539,0.098-1.031,0.246-1.518
			c0.098-0.489,0.294-0.882,0.538-1.274c0.294-0.39,0.589-0.732,0.93-1.025c0.344-0.296,0.686-0.539,1.125-0.735
			c0.393-0.196,0.832-0.39,1.321-0.489C178.255,368.61,178.745,368.563,179.235,368.563z"/>
		<path fill-rule="evenodd" clip-rule="evenodd" fill="#FFFFFF" d="M189.561,368.81c0.048,0,0.048,0,0.048,0.05v2.297
			c0,0.053,0,0.1-0.048,0.1h-0.587c-0.048,0-0.048-0.047-0.048-0.047l-0.293-1.667c0-0.05-0.05-0.05-0.05-0.05h-3.378
			c-0.047,0-0.098,0-0.098,0.05v3.624c0,0.047,0.051,0.097,0.098,0.097h2.008c0.047,0,0.098-0.05,0.098-0.097l0.145-1.178
			c0-0.047,0-0.047,0.05-0.047h0.393c0.048,0,0.098,0,0.098,0.047v3.231c0,0.05-0.05,0.05-0.098,0.05h-0.393
			c-0.05,0-0.05,0-0.05-0.05l-0.145-1.274c0-0.047-0.051-0.047-0.098-0.047h-2.008c-0.047,0-0.098,0-0.098,0.047v3.964
			c0,0.05,0.051,0.1,0.098,0.1h3.573c0.051,0,0.051-0.05,0.051-0.05l0.293-1.661c0-0.05,0.048-0.05,0.098-0.05h0.538
			c0.048,0,0.048,0.05,0.048,0.097v2.253c0,0.05,0,0.097-0.048,0.097h-7.244c-0.05,0-0.05-0.047-0.05-0.097v-0.393
			c0-0.047,0-0.047,0.05-0.047l1.271-0.149c0.05,0,0.05,0,0.05-0.05v-8.467c0-0.047-0.05-0.047-0.05-0.047l-1.271-0.149
			c-0.05,0-0.05,0-0.05-0.05v-0.387c0-0.05,0-0.05,0.05-0.05H189.561z"/>
		<path fill-rule="evenodd" clip-rule="evenodd" fill="#FFFFFF" d="M190.393,368.859c0-0.05,0-0.05,0.05-0.05h3.962
			c0.051,0,0.098,0,0.098,0.05v0.387c0,0.05-0.047,0.05-0.098,0.05l-1.27,0.149c-0.051,0-0.098,0-0.098,0.047v8.417
			c0,0.05,0.047,0.1,0.098,0.1h3.376c0.05,0,0.098-0.05,0.098-0.05l0.293-1.661c0-0.05,0-0.05,0.048-0.05h0.541
			c0.047,0,0.098,0.05,0.098,0.097v2.253c0,0.05-0.051,0.097-0.098,0.097h-7.049c-0.05,0-0.05-0.047-0.05-0.097v-0.393
			c0-0.047,0-0.047,0.05-0.047l1.225-0.149c0.047,0,0.095,0,0.095-0.05v-8.467c0-0.047-0.048-0.047-0.095-0.047l-1.225-0.149
			c-0.05,0-0.05,0-0.05-0.05V368.859z"/>
		<path fill-rule="evenodd" clip-rule="evenodd" fill="#FFFFFF" d="M202.874,368.563c1.47,0,2.692,0.489,3.573,1.468
			s1.371,2.203,1.371,3.671s-0.49,2.692-1.371,3.671c-0.931,1.025-2.104,1.518-3.573,1.518c-1.468,0-2.691-0.492-3.621-1.468
			c-0.98-0.979-1.419-2.203-1.419-3.671s0.439-2.742,1.37-3.671C200.183,369.053,201.406,368.563,202.874,368.563z M202.68,369.246
			c-1.078,0-1.96,0.445-2.596,1.274c-0.538,0.785-0.832,1.764-0.832,2.889c0,0.829,0.146,1.567,0.393,2.25
			c0.341,0.785,0.781,1.421,1.368,1.863c0.589,0.486,1.274,0.683,2.057,0.683c1.076,0,1.959-0.439,2.545-1.321
			c0.49-0.782,0.783-1.714,0.783-2.889c0-1.321-0.342-2.399-0.98-3.328C204.736,369.735,203.805,369.246,202.68,369.246z"/>
		<path fill-rule="evenodd" clip-rule="evenodd" fill="#FFFFFF" d="M213.152,371.306c-0.048,0-0.048-0.05-0.048-0.05l-0.294-1.664
			c0-0.05-0.051-0.05-0.099-0.1c-0.392-0.146-0.831-0.246-1.321-0.246c-0.537,0-0.98,0.1-1.321,0.393
			c-0.392,0.296-0.587,0.686-0.587,1.178c0,0.489,0.195,0.879,0.54,1.222c0.243,0.196,0.585,0.442,1.125,0.683l0.978,0.445
			c0.733,0.34,1.273,0.686,1.615,1.025c0.439,0.442,0.636,1.028,0.636,1.664c0,0.979-0.393,1.761-1.125,2.303
			c-0.687,0.489-1.518,0.732-2.546,0.732c-0.537,0-1.125-0.097-1.813-0.243c-0.193-0.05-0.341-0.1-0.486-0.149
			c-0.051,0-0.098-0.047-0.098-0.1v-2.2c0-0.05,0.047-0.05,0.098-0.05h0.585c0.052,0,0.052,0,0.052,0.05l0.293,1.664
			c0.048,0,0.048,0,0.048,0l0.05,0.047c0.342,0.199,0.832,0.296,1.42,0.296c0.586,0,1.126-0.146,1.518-0.439
			c0.439-0.343,0.684-0.785,0.684-1.371c0-0.782-0.537-1.418-1.615-1.96l-0.931-0.439c-0.733-0.293-1.271-0.636-1.616-0.979
			c-0.439-0.489-0.682-1.028-0.682-1.614c0-0.639,0.195-1.175,0.587-1.667c0.39-0.439,0.832-0.779,1.468-0.976
			c0.342-0.1,0.783-0.196,1.174-0.196c0.587,0,1.176,0.097,1.764,0.196c0.145,0.05,0.341,0.1,0.537,0.146
			c0.049,0.05,0.049,0.05,0.049,0.097v2.206c0,0.047,0,0.097-0.049,0.097H213.152z"/>
	</g>
</g>
</svg>
