<?xml version="1.0" encoding="utf-8"?>
<!-- Generator: Adobe Illustrator 13.0.0, SVG Export Plug-In . SVG Version: 6.00 Build 14948)  -->
<!DOCTYPE svg PUBLIC "-//W3C//DTD SVG 1.0//EN" "http://www.w3.org/TR/2001/REC-SVG-20010904/DTD/svg10.dtd">
<svg version="1.0" id="Ebene_1" xmlns="http://www.w3.org/2000/svg" xmlns:xlink="http://www.w3.org/1999/xlink" x="0px" y="0px"
	 width="234.029px" height="439.37px" viewBox="0 0 234.029 439.37" enable-background="new 0 0 234.029 439.37"
	 xml:space="preserve">
<path fill-rule="evenodd" clip-rule="evenodd" fill="#F1C500" d="M116.445,439.37c52.514-28.54,92.816-80.638,108.453-139.277
	c4.565-17.124,7.99-33.105,9.131-50.229V84.33H0v165.533c1.143,17.124,4.566,33.105,9.133,50.229
	c15.638,58.64,55.94,110.737,108.454,139.277H116.445L116.445,439.37z"/>
<path fill-rule="evenodd" clip-rule="evenodd" fill="#FFFFFF" d="M17.22,307.412c16.455,51.912,53.223,97.476,100.338,123.081
	h-1.085c49.888-27.114,88.176-76.604,103.03-132.312c4.339-16.268,7.591-31.451,8.677-47.718V96.459L17.22,307.412L17.22,307.412z"
	/>
<path fill-rule="evenodd" clip-rule="evenodd" fill="#E76226" d="M220.016,93.206H5.851v157.258
	c1.085,16.267,4.338,31.45,8.677,47.718L220.016,93.206L220.016,93.206z"/>
<path fill-rule="evenodd" clip-rule="evenodd" fill="#FFFFFF" d="M35.072,255.252c-4.186,4.187-10.246,0.986-10.526-2.344V117.437
	c0.603-1.829,2.523-4.027,5.137-5.137l132.425-0.001v11.417H36.533v113.018l61.788-62.216l-43.524-0.001l0.001-11.416h59.363
	c3.867,0.116,6.692,5.93,3.075,9.546L35.072,255.252L35.072,255.252z"/>
<polygon fill-rule="evenodd" clip-rule="evenodd" fill="#E76226" points="111.878,355.652 119.869,355.652 119.869,309.607 
	175.807,309.607 175.807,301.235 119.869,301.235 119.869,230.073 186.463,163.481 186.463,223.225 194.454,231.216 
	194.454,144.075 56.777,281.75 62.358,287.586 111.878,238.066 111.878,355.652 "/>
<path fill-rule="evenodd" clip-rule="evenodd" fill="#E76226" d="M143.846,330.518c-6.465,6.57-15.459,10.643-25.403,10.643
	c-19.686,0-35.644-15.96-35.644-35.643c0-19.688,15.958-35.645,35.644-35.645c9.843,0,18.753,3.989,25.204,10.439l0.205-9.844
	c-7.137-5.184-15.916-8.24-25.409-8.24c-23.906,0-43.285,19.381-43.285,43.289c0,23.904,19.379,43.283,43.285,43.283
	c9.493,0,18.271-3.054,25.406-8.236L143.846,330.518L143.846,330.518z"/>
<path d="M171.01,55.214v0.003h-0.003c0,15.246-6.24,29.049-16.333,39.04c-1.643,1.627-3.389,3.153-5.225,4.566
	c-9.445,7.273-21.316,11.604-34.204,11.604h-0.002v-0.001c-15.397-0.001-29.338-6.18-39.429-16.17
	c-10.089-9.989-16.331-23.792-16.332-39.037h-0.003v-0.005v-0.001h0.003c0-15.248,6.242-29.051,16.333-39.042
	c1.644-1.626,3.39-3.153,5.225-4.565C90.485,4.332,102.355,0,115.245,0h0.002v0.002c15.395,0,29.338,6.179,39.426,16.169
	c10.09,9.99,16.333,23.793,16.333,39.038h0.003V55.214L171.01,55.214z"/>
<path fill-rule="evenodd" clip-rule="evenodd" fill="#DEA32C" d="M86.698,65.378c-10.138-9.233-10.169-27.997-7.446-40.46
	c0.757-3.47,1.71-6.867,2.692-10.749c-11.919,9.694-19.533,24.479-19.533,41.042c0,7.012,1.362,13.703,3.84,19.827
	c0.901,0.118,1.816,0.182,2.748,0.182C76.83,75.22,83.224,71.602,86.698,65.378L86.698,65.378z M81.68,96.036
	c11.03,0.087,27.985-2.689,37.703-8.483c12.562-7.495,22.32-15.492,17.684-26.58c-2.342-5.603-10.132-12.086-20.234-4.935
	c-0.642,8.276-10.859,15.575-18.196,14.636c-3.717-0.478-6.833-1.649-9.426-3.349c-4.122,7.045-11.504,11.042-20.211,11.042
	c-0.428,0-0.856-0.011-1.279-0.036C71.06,85.198,75.845,91.229,81.68,96.036L81.68,96.036z M115.155,22.257
	c8.748-3.626,20.869,1.087,30.105,6.245c8.721,4.872,17.83,13.965,22.82,23.514c-1.646-27.572-24.407-49.447-52.334-49.684
	C107.403,7.812,108.542,18.142,115.155,22.257L115.155,22.257z M113.675,55.997c-10.828-7.896-10.163-20.324-5.504-27.705
	c1.143-1.812,2.474-3.236,3.953-4.325c-6.297-5.026-7.555-14.775-1.457-21.439c-9.114,0.792-17.568,3.89-24.773,8.719
	c-2.309,9.93-5.249,19.001-5.102,29.374c0.197,13.981,5.985,25.359,18.244,26.93C104.758,68.285,113.014,62.196,113.675,55.997
	L113.675,55.997z M167.953,60.076c-3.021-10.941-13.867-23.036-24.229-28.823c-12.773-7.139-26.747-11.018-32.893-1.279
	c-3.944,6.25-4.491,16.572,4.455,23.301c12.161-8.4,21.875-0.231,24.682,6.486c0.901,2.15,1.355,4.198,1.436,6.144
	c7.178-2.524,18.848-0.897,22.439,10.305C166.017,71.186,167.438,65.761,167.953,60.076L167.953,60.076z M141.139,69.426
	c-1.733,8.864-11.213,15.503-20.145,20.83c-9.202,5.49-24.045,8.327-35.214,8.845c8.429,5.676,18.584,8.994,29.51,8.994
	c19.945,0,37.309-11.041,46.313-27.341C160.025,67.706,147.623,66.174,141.139,69.426L141.139,69.426z"/>
<path fill-rule="evenodd" clip-rule="evenodd" d="M89.098,394.292c0.17-0.022,4.107-0.61,6.393,0.876
	c1.667,1.084,2.495,2.018,2.82,2.439l1.126-0.066c-0.794-0.736-1.521-1.391-2.146-1.95c-2.597-2.302-4.337-6.53-4.735-7.552
	c-0.964-0.219-4.289-1.146-5.568-3.967c-1.447-3.186-0.031-7.57,0.029-7.754l0.182-0.547l0.494,0.285l1.128,0.657l0.452-3.874
	l0.088-0.748l0.631,0.41c0.18,0.117,4.473,2.947,6.179,7.64c1.483,4.075-0.041,6.585-0.609,7.341
	c0.43,0.943,2.105,4.461,4.112,6.224c1.796,1.577,5.386,3.77,7.031,4.751l-0.59-3.205c-1.314-0.55-2.705-1.104-4.071-1.631
	l-0.726-0.273l0.592-0.511l2.402-2.044c-6.289-4.887-8.584-13.161-5.298-19.453c1.622-3.096,4.421-5.352,7.885-6.335
	c2.132-0.61,4.416-0.69,6.682-0.3l-1.724-6.771l0.817-0.4l2.755,3.47l3.727-2.857l0.584-0.446l0.153,0.718l1.11,5.129l3.841-0.912
	l0.669-0.154l-0.103,0.674l-0.483,3.283l5.498,0.518l0.112,0.898l-6.897,2.51c4.422,4.902,5.862,11.807,2.996,17.278
	c-2.453,4.704-7.631,7.302-13.292,6.794c0.444,3.963,0.112,4.137-0.219,4.248c-0.129,0.047-0.453,0.098-0.72-0.336
	c-0.177-0.267-1.217-0.826-2.687-1.514c0.054,0.871,0.231,2.512,0.791,3.871c1.082-0.459,4.058-1.501,7.744-0.793l5.922,1.135
	l-0.01,0.022c0.2-0.022,0.391-0.032,0.613-0.039c-0.369-1.087-0.892-3.896,2.025-7.253c3.555-4.088,6.717-4.715,6.849-4.742
	l0.469-0.088l0.081,0.469c0.039,0.286,1.084,6.971-0.926,9.441c-0.379,0.464-0.764,0.867-1.141,1.232
	c1.471-0.4,3.248-0.639,5.096-0.219c4.25,0.949,5.584,1.35,8.037,4.162c1.104,1.262,1.616,2.373,1.533,3.299
	c-0.068,0.715-0.471,1.052-0.518,1.088l-0.215,0.166l-0.252-0.098c-0.941-0.388-3.705-1.267-5.16-0.734
	c-1.941,0.705-4.163-0.352-5.635-1.057l-0.394-0.184c-0.439-0.21-1.23-0.725-2.085-1.323c1.665,2.856,1.727,5.522,1.727,5.654
	l0.004,0.469l-0.471-0.005c-0.283,0-6.88-0.09-9.109-3.035c-1.396-1.846-2.072-3.916-2.38-5.199
	c-1.489-0.254-4.311-0.599-6.494,0.014c-1.896,0.525-2.834,0.799-3.292,0.943c0.173,0.251,0.345,0.502,0.524,0.756
	c1.261,1.816,2.689,3.87,3.432,5.475c1.165,2.521,3.112,7.191,3.491,8.112l0.275,0.345l-0.391,0.285
	c-0.256,0.186-2.535,1.785-4.142,1.206c-1.667-0.599-2.008-2.734-2.02-2.827l-0.047-0.308h0.007
	c-0.532-1.989-2.275-7.764-5.407-10.974c-1.938-1.982-3.874-3.89-5.661-5.596l-0.075,0.153c-0.026-0.017-3.138-1.429-5.25-0.415
	c-2.654,1.274-5.486-0.146-6.567-1.506c-1.051-1.321-1.933-3.724-1.969-3.828l-0.193-0.53L89.098,394.292L89.098,394.292z"/>
<path fill-rule="evenodd" clip-rule="evenodd" fill="#00903F" d="M91.424,398.159c0.934,1.169,3.341,2.261,5.438,1.247
	c1.448-0.695,3.173-0.473,4.417-0.146c-0.308-0.287-0.608-0.573-0.9-0.844l-2.272,0.131l-0.278,0.018l-0.145-0.239
	c-0.003-0.005-0.677-1.062-2.702-2.376c-1.519-0.99-4.033-0.902-5.16-0.803C90.134,395.916,90.754,397.314,91.424,398.159
	L91.424,398.159z"/>
<path fill-rule="evenodd" clip-rule="evenodd" fill="#00903F" d="M132.555,398.273c1.336-1.643,1.072-6.068,0.796-8.184
	c-0.962,0.328-3.288,1.357-5.845,4.295c-3.047,3.504-1.926,6.242-1.74,6.631c0.225,0.01,0.463,0.047,0.69,0.068
	c0.244-0.835,0.847-2.798,1.794-4.295c1.197-1.898,2.283-2.924,2.33-2.971l0.637,0.679c-0.015,0.013-1.053,0.996-2.178,2.786
	c-0.825,1.309-1.398,3.08-1.648,3.936c0.436,0.085,0.867,0.197,1.295,0.361l-0.018-0.032c0.029-0.017,0.203-0.122,0.447-0.257
	C129.793,400.877,131.229,399.904,132.555,398.273L132.555,398.273z"/>
<path fill-rule="evenodd" clip-rule="evenodd" fill="#00903F" d="M135.025,405.672l0.402,0.189c1.331,0.635,3.336,1.59,4.91,1.016
	c1.743-0.632,4.502,0.26,5.471,0.613c0.174-0.412,0.088-1.323-1.244-2.85c-2.266-2.6-3.436-2.946-7.537-3.869
	c-2.361-0.527-4.686,0.125-6.187,0.74c1.341,0.09,3.356,0.293,4.946,0.746c2.518,0.716,5.132,1.629,5.156,1.637l-0.308,0.873
	c-0.024-0.01-2.614-0.905-5.104-1.621c-1.702-0.48-3.973-0.668-5.225-0.736C131.734,403.484,134.154,405.262,135.025,405.672
	L135.025,405.672z"/>
<path fill-rule="evenodd" clip-rule="evenodd" fill="#00903F" d="M125.443,407.717c1.641,2.166,6.354,2.566,7.863,2.645
	c-0.109-1.082-0.591-3.882-2.734-6.385c-1.851-2.158-4.937-2.146-6.658-1.943c0.752,0.381,2.532,1.365,3.863,2.721
	c1.643,1.672,2.475,2.805,2.51,2.854l-0.755,0.545c-0.01-0.01-0.83-1.133-2.422-2.75c-1.245-1.27-2.976-2.211-3.649-2.559
	l-0.11,0.43c0,0-0.015,0-0.017-0.002C123.666,404.48,124.288,406.196,125.443,407.717L125.443,407.717z"/>
<path fill-rule="evenodd" clip-rule="evenodd" fill="#EB8044" d="M128.289,367.686l-3.936-0.371l-0.485-0.044l0.071-0.485
	l0.456-3.089l-3.64,0.859l-0.462,0.112l-0.101-0.461l-1.057-4.876l-3.501,2.686l-0.364,0.278l-0.283-0.356l-1.697-2.132l1.3,5.098
	c1.669,0.396,3.318,1.051,4.862,1.966c1.313,0.778,2.441,1.738,3.479,2.767l0,0L128.289,367.686L128.289,367.686z"/>
<path fill-rule="evenodd" clip-rule="evenodd" fill="#C62523" d="M116.882,369.51c-0.292-0.071-0.598-0.035-0.856,0.121
	c-0.15,0.091-0.205,0.257-0.292,0.4c0.276,0.169,0.531,0.384,0.702,0.672c0.046,0.073,0.052,0.158,0.085,0.236
	c0.345-0.268,0.76-0.414,1.203-0.427c-0.015-0.169-0.052-0.339-0.144-0.491C117.425,369.764,117.176,369.58,116.882,369.51
	L116.882,369.51z"/>
<path fill-rule="evenodd" clip-rule="evenodd" fill="#C62523" d="M116.417,368.156c-0.229,0.188-0.47,0.4-0.719,0.628
	c0.259-0.127,0.539-0.192,0.836-0.202C116.528,368.43,116.488,368.291,116.417,368.156L116.417,368.156z"/>
<path fill-rule="evenodd" clip-rule="evenodd" fill="#C62523" d="M112.22,374.917c-0.295-0.068-0.597-0.026-0.859,0.134
	c-0.15,0.086-0.202,0.254-0.296,0.394c0.28,0.169,0.536,0.386,0.711,0.674c0.042,0.073,0.046,0.156,0.082,0.234
	c0.346-0.269,0.752-0.413,1.203-0.42c-0.011-0.173-0.054-0.345-0.144-0.498C112.76,375.176,112.513,374.992,112.22,374.917
	L112.22,374.917z"/>
<path fill-rule="evenodd" clip-rule="evenodd" fill="#C62523" d="M111.776,373.608c-0.071,0.13-0.137,0.267-0.21,0.397
	c0.1-0.02,0.203-0.007,0.303-0.01C111.857,373.857,111.838,373.729,111.776,373.608L111.776,373.608z"/>
<path fill-rule="evenodd" clip-rule="evenodd" fill="#C62523" d="M111.436,378.013c-0.291-0.073-0.596-0.024-0.856,0.13
	c-0.149,0.09-0.204,0.256-0.293,0.395c0.278,0.172,0.531,0.384,0.707,0.674c0.041,0.074,0.045,0.159,0.084,0.237
	c0.344-0.267,0.753-0.417,1.199-0.427c-0.016-0.174-0.051-0.338-0.144-0.491C111.979,378.271,111.73,378.088,111.436,378.013
	L111.436,378.013z"/>
<path fill-rule="evenodd" clip-rule="evenodd" fill="#C62523" d="M110.977,376.597c-0.091-0.149-0.258-0.205-0.399-0.293
	c-0.107,0.317-0.209,0.642-0.299,0.979c0.262-0.127,0.544-0.186,0.842-0.191C111.107,376.916,111.064,376.746,110.977,376.597
	L110.977,376.597z"/>
<path fill-rule="evenodd" clip-rule="evenodd" fill="#C62523" d="M110.656,381.108c-0.371-0.095-0.741,0.042-1.018,0.296
	c-0.011,0.107-0.013,0.199-0.02,0.305c0.299,0.217,0.545,0.483,0.697,0.815c0.34-0.257,0.744-0.397,1.179-0.407
	c-0.01-0.174-0.051-0.345-0.146-0.496C111.197,381.362,110.949,381.18,110.656,381.108L110.656,381.108z"/>
<path fill-rule="evenodd" clip-rule="evenodd" fill="#C62523" d="M110.191,379.689c-0.069-0.117-0.211-0.15-0.313-0.231
	c-0.04,0.271-0.078,0.542-0.111,0.804c0.184-0.057,0.379-0.025,0.568-0.029C110.329,380.041,110.295,379.858,110.191,379.689
	L110.191,379.689z"/>
<path fill-rule="evenodd" clip-rule="evenodd" fill="#C62523" d="M111.035,386.138c-0.296-0.075-0.601-0.029-0.858,0.127
	c-0.15,0.088-0.205,0.251-0.298,0.394c0.283,0.17,0.535,0.388,0.708,0.676c0.046,0.073,0.051,0.154,0.083,0.234
	c0.348-0.269,0.756-0.415,1.205-0.428c-0.013-0.17-0.053-0.342-0.146-0.492C111.576,386.392,111.325,386.209,111.035,386.138
	L111.035,386.138z"/>
<path fill-rule="evenodd" clip-rule="evenodd" fill="#C62523" d="M110.571,384.715c-0.155-0.26-0.404-0.439-0.696-0.516
	c-0.118-0.029-0.236,0.008-0.358,0.02c0,0.488,0.005,0.959,0.024,1.387c0.059-0.041,0.098-0.103,0.156-0.137
	c0.313-0.19,0.664-0.249,1.017-0.262C110.698,385.037,110.663,384.871,110.571,384.715L110.571,384.715z"/>
<path fill-rule="evenodd" clip-rule="evenodd" fill="#C62523" d="M111.053,388.572c0.049,0.029,0.082,0.068,0.127,0.098
	c0.234-0.184,0.483-0.387,0.747-0.618c-0.204,0-0.412,0.036-0.591,0.144C111.193,388.276,111.147,388.442,111.053,388.572
	L111.053,388.572z"/>
<path fill-rule="evenodd" clip-rule="evenodd" fill="#C62523" d="M111.813,383.039c-0.293-0.072-0.596-0.026-0.856,0.13
	c-0.148,0.088-0.2,0.257-0.297,0.396c0.283,0.171,0.536,0.389,0.708,0.674c0.044,0.07,0.051,0.156,0.087,0.236
	c0.343-0.266,0.753-0.412,1.203-0.424c-0.012-0.174-0.055-0.338-0.15-0.494C112.355,383.296,112.109,383.113,111.813,383.039
	L111.813,383.039z"/>
<path fill-rule="evenodd" clip-rule="evenodd" fill="#C62523" d="M112.611,386.408c0.344-0.271,0.758-0.417,1.208-0.427
	c-0.016-0.171-0.058-0.339-0.148-0.491c-0.156-0.261-0.4-0.441-0.697-0.515c-0.291-0.075-0.596-0.029-0.856,0.127
	c-0.15,0.085-0.202,0.257-0.295,0.396c0.279,0.168,0.536,0.383,0.707,0.672C112.57,386.248,112.574,386.328,112.611,386.408
	L112.611,386.408z"/>
<path fill-rule="evenodd" clip-rule="evenodd" fill="#C62523" d="M112.596,379.946c-0.292-0.071-0.599-0.026-0.858,0.13
	c-0.148,0.088-0.204,0.254-0.294,0.397c0.277,0.169,0.536,0.381,0.705,0.669c0.049,0.076,0.052,0.161,0.088,0.239
	c0.343-0.269,0.754-0.415,1.203-0.425c-0.017-0.171-0.055-0.342-0.148-0.493C113.141,380.205,112.891,380.02,112.596,379.946
	L112.596,379.946z"/>
<path fill-rule="evenodd" clip-rule="evenodd" fill="#C62523" d="M114.606,385.4c0.319-0.359,0.629-0.737,0.931-1.138
	c-0.151-0.21-0.355-0.384-0.619-0.446c-0.294-0.074-0.602-0.029-0.859,0.127c-0.15,0.088-0.203,0.254-0.298,0.395
	c0.283,0.172,0.533,0.384,0.709,0.672C114.541,385.135,114.566,385.271,114.606,385.4L114.606,385.4z"/>
<path fill-rule="evenodd" clip-rule="evenodd" fill="#C62523" d="M115.337,382.15c0.345-0.266,0.754-0.412,1.201-0.424
	c-0.014-0.172-0.053-0.34-0.148-0.494c-0.151-0.258-0.398-0.439-0.692-0.512c-0.296-0.074-0.599-0.032-0.858,0.127
	c-0.147,0.088-0.201,0.256-0.299,0.395c0.285,0.174,0.537,0.384,0.709,0.674C115.293,381.992,115.3,382.078,115.337,382.15
	L115.337,382.15z"/>
<path fill-rule="evenodd" clip-rule="evenodd" fill="#C62523" d="M115.694,383.191c0.144,0.085,0.274,0.178,0.393,0.303
	c0.19-0.271,0.371-0.564,0.542-0.85c-0.222-0.013-0.438,0.02-0.63,0.137C115.846,382.871,115.786,383.045,115.694,383.191
	L115.694,383.191z"/>
<path fill-rule="evenodd" clip-rule="evenodd" fill="#C62523" d="M114.175,380.22c0.344-0.267,0.755-0.413,1.205-0.423
	c-0.012-0.176-0.055-0.344-0.144-0.495c-0.155-0.261-0.405-0.442-0.701-0.513c-0.288-0.078-0.592-0.029-0.856,0.125
	c-0.145,0.088-0.199,0.258-0.295,0.395c0.28,0.172,0.534,0.384,0.709,0.674C114.134,380.061,114.141,380.145,114.175,380.22
	L114.175,380.22z"/>
<path fill-rule="evenodd" clip-rule="evenodd" fill="#C62523" d="M113.395,383.313c0.344-0.268,0.754-0.417,1.205-0.427
	c-0.016-0.166-0.055-0.335-0.146-0.491c-0.155-0.258-0.4-0.441-0.696-0.518c-0.294-0.07-0.603-0.026-0.859,0.133
	c-0.147,0.085-0.204,0.251-0.294,0.397c0.278,0.169,0.533,0.381,0.708,0.671C113.355,383.152,113.36,383.234,113.395,383.313
	L113.395,383.313z"/>
<path fill-rule="evenodd" clip-rule="evenodd" fill="#C62523" d="M113.382,376.854c-0.295-0.074-0.602-0.025-0.864,0.131
	c-0.145,0.086-0.2,0.254-0.293,0.394c0.282,0.171,0.532,0.384,0.708,0.677c0.041,0.072,0.051,0.153,0.083,0.229
	c0.347-0.264,0.753-0.41,1.206-0.422c-0.016-0.174-0.056-0.342-0.146-0.49C113.918,377.109,113.669,376.926,113.382,376.854
	L113.382,376.854z"/>
<path fill-rule="evenodd" clip-rule="evenodd" fill="#C62523" d="M112.625,373.27c0.349-0.271,0.764-0.423,1.216-0.436
	c-0.015-0.173-0.05-0.342-0.144-0.492c-0.156-0.26-0.403-0.438-0.693-0.514c-0.022-0.007-0.04-0.004-0.06-0.01
	c-0.226,0.306-0.443,0.625-0.658,0.955C112.423,372.925,112.547,373.086,112.625,373.27L112.625,373.27z"/>
<path fill-rule="evenodd" clip-rule="evenodd" fill="#C62523" d="M114.157,373.76c-0.287-0.073-0.596-0.029-0.853,0.127
	c-0.148,0.088-0.207,0.256-0.295,0.396c0.278,0.173,0.53,0.386,0.704,0.677c0.044,0.072,0.052,0.156,0.086,0.236
	c0.345-0.273,0.758-0.415,1.2-0.428c-0.011-0.168-0.047-0.339-0.143-0.492C114.702,374.016,114.453,373.833,114.157,373.76
	L114.157,373.76z"/>
<path fill-rule="evenodd" clip-rule="evenodd" fill="#C62523" d="M115.318,375.695c-0.293-0.075-0.598-0.029-0.857,0.127
	c-0.145,0.088-0.203,0.254-0.294,0.394c0.278,0.173,0.531,0.384,0.706,0.677c0.047,0.07,0.052,0.158,0.084,0.234
	c0.346-0.267,0.754-0.413,1.201-0.426c-0.014-0.17-0.049-0.344-0.144-0.492C115.865,375.949,115.614,375.767,115.318,375.695
	L115.318,375.695z"/>
<path fill-rule="evenodd" clip-rule="evenodd" fill="#C62523" d="M117.378,381.271c0.234-0.495,0.425-1.006,0.598-1.533
	c-0.104-0.07-0.208-0.146-0.338-0.18c-0.294-0.074-0.596-0.025-0.857,0.129c-0.15,0.088-0.205,0.256-0.295,0.396
	c0.279,0.173,0.536,0.386,0.707,0.674C117.289,380.92,117.329,381.096,117.378,381.271L117.378,381.271z"/>
<path fill-rule="evenodd" clip-rule="evenodd" fill="#C62523" d="M116.118,379.058c0.343-0.267,0.753-0.407,1.2-0.423
	c-0.016-0.173-0.051-0.344-0.142-0.498c-0.158-0.254-0.403-0.439-0.695-0.51c-0.298-0.076-0.601-0.029-0.863,0.125
	c-0.143,0.09-0.2,0.261-0.294,0.395c0.285,0.172,0.535,0.387,0.708,0.677C116.076,378.896,116.081,378.984,116.118,379.058
	L116.118,379.058z"/>
<path fill-rule="evenodd" clip-rule="evenodd" fill="#C62523" d="M114.494,371.863c0.047,0.075,0.054,0.16,0.086,0.236
	c0.345-0.266,0.754-0.415,1.202-0.422c-0.011-0.179-0.053-0.345-0.144-0.496c-0.158-0.256-0.402-0.441-0.695-0.516
	c-0.298-0.072-0.598-0.029-0.856,0.127c-0.15,0.088-0.204,0.257-0.299,0.396C114.069,371.362,114.323,371.577,114.494,371.863
	L114.494,371.863z"/>
<path fill-rule="evenodd" clip-rule="evenodd" fill="#C62523" d="M116.101,372.598c-0.292-0.073-0.597-0.027-0.858,0.129
	c-0.148,0.088-0.202,0.257-0.295,0.394c0.283,0.176,0.535,0.388,0.708,0.677c0.043,0.072,0.051,0.16,0.083,0.234
	c0.343-0.267,0.757-0.41,1.204-0.423c-0.011-0.173-0.054-0.342-0.145-0.495C116.642,372.854,116.394,372.674,116.101,372.598
	L116.101,372.598z"/>
<path fill-rule="evenodd" clip-rule="evenodd" fill="#C62523" d="M117.262,374.533c-0.295-0.072-0.598-0.029-0.859,0.125
	c-0.147,0.09-0.203,0.259-0.293,0.4c0.281,0.168,0.53,0.383,0.707,0.674c0.042,0.073,0.049,0.158,0.083,0.234
	c0.345-0.266,0.757-0.415,1.201-0.425c-0.01-0.176-0.05-0.339-0.146-0.493C117.801,374.79,117.555,374.604,117.262,374.533
	L117.262,374.533z"/>
<path fill-rule="evenodd" clip-rule="evenodd" fill="#C62523" d="M118.221,378.853c0.01,0,0.015,0.005,0.023,0.007
	c0.189-0.769,0.353-1.518,0.477-2.24c-0.098-0.059-0.19-0.127-0.302-0.156c-0.292-0.068-0.596-0.027-0.859,0.129
	c-0.146,0.09-0.2,0.256-0.293,0.398c0.278,0.166,0.533,0.381,0.707,0.674C118.192,378.027,118.249,378.438,118.221,378.853
	L118.221,378.853z"/>
<path fill-rule="evenodd" clip-rule="evenodd" fill="#C62523" d="M118.042,371.438c-0.294-0.07-0.597-0.023-0.857,0.133
	c-0.148,0.082-0.205,0.256-0.294,0.393c0.278,0.171,0.53,0.386,0.704,0.676c0.048,0.071,0.053,0.154,0.086,0.23
	c0.063-0.049,0.111-0.123,0.184-0.166c0.317-0.186,0.663-0.25,1.017-0.257c-0.011-0.171-0.052-0.342-0.144-0.491
	C118.583,371.694,118.336,371.512,118.042,371.438L118.042,371.438z"/>
<path fill-rule="evenodd" clip-rule="evenodd" fill="#C62523" d="M118.927,375.044c0.064-0.586,0.114-1.14,0.144-1.677
	c-0.251-0.032-0.505,0.002-0.729,0.134c-0.146,0.085-0.201,0.257-0.29,0.396c0.279,0.171,0.527,0.381,0.705,0.674
	C118.846,374.715,118.877,374.883,118.927,375.044L118.927,375.044z"/>
<path fill-rule="evenodd" clip-rule="evenodd" fill="#C62523" d="M117.291,367.856c0.331-0.261,0.724-0.413,1.156-0.439
	c-0.211-0.117-0.433-0.2-0.654-0.308c-0.171,0.122-0.397,0.281-0.669,0.488C117.18,367.684,117.248,367.766,117.291,367.856
	L117.291,367.856z"/>
<path fill-rule="evenodd" clip-rule="evenodd" fill="#C62523" d="M118.457,369.761c0.174-0.137,0.368-0.237,0.582-0.313
	c-0.034-0.41-0.076-0.767-0.113-1.064c-0.034-0.015-0.063-0.029-0.1-0.039c-0.294-0.071-0.6-0.029-0.859,0.13
	c-0.15,0.085-0.205,0.254-0.299,0.397c0.286,0.169,0.534,0.381,0.712,0.671C118.419,369.609,118.425,369.688,118.457,369.761
	L118.457,369.761z"/>
<path fill-rule="evenodd" clip-rule="evenodd" fill="#C62523" d="M118.799,370.791c0.113,0.063,0.22,0.132,0.318,0.223
	c-0.002-0.193-0.011-0.369-0.02-0.547C118.972,370.552,118.884,370.659,118.799,370.791L118.799,370.791z"/>
<path fill-rule="evenodd" clip-rule="evenodd" fill="#C62523" d="M110.252,389.229c-0.082-0.02-0.16,0.021-0.237,0.012
	c0.024,0.115,0.042,0.176,0.066,0.264c0.086-0.061,0.178-0.127,0.285-0.209C110.321,389.277,110.298,389.238,110.252,389.229
	L110.252,389.229z"/>
<path fill-rule="evenodd" clip-rule="evenodd" fill="#C62523" d="M109.787,387.813c-0.006-0.012-0.023-0.015-0.033-0.027
	c0.024,0.159,0.045,0.345,0.066,0.484c0.038-0.003,0.077,0.012,0.115,0.01C109.918,388.115,109.878,387.957,109.787,387.813
	L109.787,387.813z"/>
<path fill-rule="evenodd" clip-rule="evenodd" fill="#8A8824" d="M115.566,402.192c2.212-0.615,4.91-0.356,6.547-0.093
	c-0.02-0.137-0.032-0.229-0.037-0.249l-0.034-0.267l-3.964-0.756c-3.36-0.652-6.141,0.295-7.159,0.715
	c0.273,0.49,0.637,1.057,1.062,1.685C112.312,403.125,113.22,402.85,115.566,402.192L115.566,402.192z"/>
<path fill-rule="evenodd" clip-rule="evenodd" fill="#3A3215" d="M116.036,419.336c0.792,0.283,2.046-0.32,2.812-0.789
	c-0.421-0.393-1.183-0.974-2.178-1.088c-0.986-0.11-1.618,0.023-1.961,0.139C114.854,418.11,115.215,419.043,116.036,419.336
	L116.036,419.336z"/>
<path fill-rule="evenodd" clip-rule="evenodd" fill="#8A8824" d="M93.705,388.381c0.664,1.553,2.19,4.729,4.204,6.52
	c0.792,0.705,1.754,1.582,2.813,2.563l0.027,0.003l0.002,0.024c2.378,2.212,5.281,5.008,8.167,7.961
	c3.242,3.323,5.014,9.031,5.604,11.233c0.469-0.142,1.195-0.269,2.257-0.149c0.658,0.076,1.197,0.322,1.672,0.596
	c-0.778-1.853-1.994-4.709-2.813-6.479c-0.707-1.533-2.107-3.553-3.348-5.332c-1.011-1.455-1.969-2.828-2.443-3.789
	c-0.94-1.9-1.063-4.453-1.081-5.143c-0.509-0.225-1.056-0.463-1.625-0.705l0.667,3.604l0.184,0.988l-0.874-0.502
	c-0.229-0.13-5.629-3.23-8.065-5.371c-2.319-2.041-4.124-6.038-4.403-6.68L93.705,388.381L93.705,388.381z"/>
<path fill-rule="evenodd" clip-rule="evenodd" fill="#00903F" d="M94.448,386.805c0.218-0.074,0.354-0.062,0.495-0.055
	c0.522-0.771,1.593-2.891,0.354-6.291c-1.229-3.377-3.966-5.779-5.189-6.721l-0.438,3.744c0.014,0.225,0.239,3.548,0.944,4.974
	c0.735,1.478,1.394,2.229,1.403,2.236l-0.693,0.622c-0.032-0.033-0.749-0.844-1.543-2.448c-0.698-1.411-0.96-4.263-1.025-5.114
	l-1.009-0.589c-0.314,1.221-0.938,4.272,0.084,6.523c1.27,2.79,5.112,3.483,5.151,3.491L94.448,386.805L94.448,386.805z"/>
<path fill-rule="evenodd" clip-rule="evenodd" d="M92.07,377.385c0.025,0.049,0.666,1.26,1.396,3.262
	c0.741,2.037,0.974,5.989,0.981,6.158l-0.926,0.053c-0.005-0.039-0.233-3.984-0.929-5.893c-0.706-1.939-1.34-3.131-1.345-3.143
	L92.07,377.385L92.07,377.385z"/>
<path fill-rule="evenodd" clip-rule="evenodd" d="M94.842,397.736c0.581,0.374,1.681,0.511,2.057,0.53l-0.055,0.925
	c-0.061-0.004-1.606-0.092-2.508-0.681c-0.773-0.498-1.737-0.952-1.747-0.96l0.393-0.837
	C93.019,396.733,94.014,397.197,94.842,397.736L94.842,397.736z"/>
<path fill-rule="evenodd" clip-rule="evenodd" fill="#DCCA00" d="M103.106,393.042l1.186-1.016l4.719,2.08
	c0,0,1.641,1.548,3.009,2.871C109.854,395.718,105.379,393.916,103.106,393.042L103.106,393.042z"/>
<path fill-rule="evenodd" clip-rule="evenodd" fill="#3A3215" d="M104.292,392.026l1.581-1.348l-0.238-0.283l9.002,3.157
	c-0.462-0.006-0.926,0.002-1.399-0.047c-0.004-0.039-0.006-0.068-0.011-0.105l-0.923,0.12c0.168,1.372,0.313,2.942,0.329,3.828
	c-0.168-0.117-0.392-0.247-0.614-0.371c-1.369-1.323-3.009-2.871-3.009-2.871L104.292,392.026L104.292,392.026z"/>
<path fill-rule="evenodd" clip-rule="evenodd" fill="#874128" d="M105.269,389.973l-0.246,0.211
	c-6.052-4.603-8.291-12.469-5.183-18.416c0.499-0.957,1.162-1.787,1.89-2.557c-2.717,4.521-1.58,9.619-1.58,9.619
	s0.746-1.916,1.247-3.945c0.497-2.035,4.854-4.235,4.854-4.235s-1.606,1.821-2.719,3.867c-1.112,2.048-0.537,7.595-0.537,7.595
	s0.945-1.369,1.691-3.288c0.747-1.917,2.849-1.24,2.849-1.24s-0.649,3.315-0.649,5.583c-0.002,2.262,1.139,3.691,1.174,2.654
	c0.01-0.33,0.229-0.73,0.514-1.125c0.056,3.588,0.757,5.596,0.802,5.717l0.198,0.54l0.485-0.308
	c0.243-0.156,5.119-3.293,7.762-8.201c-0.011,0.947,0.063,3.346,1.184,2.271c1.372-1.324,2.601-3.619,2.601-3.619
	s0.495,2.493,0.227,4.026c-0.264,1.536-1.23,4.558-1.23,4.558s1.574-0.775,2.404-1.898c0.828-1.129,1.741-3.721,2.389-7.037
	c0.388-1.984-0.65-5.859-1.549-8.666c3.465,4.506,4.446,10.397,1.969,15.141c-2.107,4.023-6.38,6.367-11.177,6.334l-9.002-3.157
	L105.269,389.973L105.269,389.973z"/>
<path fill-rule="evenodd" clip-rule="evenodd" fill="#EB8044" d="M123.006,387.781c-0.83,1.123-2.404,1.898-2.404,1.898
	s0.967-3.021,1.23-4.558c0.269-1.533-0.227-4.026-0.227-4.026s-1.229,2.295-2.601,3.619c-1.121,1.074-1.195-1.324-1.184-2.271
	c0.545-1.01,1.007-2.097,1.304-3.252c0.453-1.779,0.7-3.439,0.832-4.934c0.217,1.689,0.391,3.387,0.391,3.387
	s1.795-4.146,1.365-6.455c-0.104-0.553-0.169-1.077-0.218-1.563c0.872,0.754,1.667,1.566,2.351,2.451
	c0.898,2.807,1.937,6.682,1.549,8.666C124.747,384.061,123.834,386.652,123.006,387.781L123.006,387.781z"/>
<path fill-rule="evenodd" clip-rule="evenodd" fill="#F5B143" d="M120.348,377.645c0,0-0.174-1.697-0.391-3.387
	c0.227-2.646,0.061-4.748-0.1-5.957c0.59,0.4,1.113,0.867,1.638,1.326c0.049,0.485,0.114,1.01,0.218,1.563
	C122.143,373.498,120.348,377.645,120.348,377.645L120.348,377.645z"/>
<path fill-rule="evenodd" clip-rule="evenodd" fill="#EB8044" d="M109.12,378.195c-0.172,0.979-0.295,1.902-0.386,2.77
	c-0.002,0.002-0.002,0.002-0.002,0.002l0.001,0.002c-0.139,1.39-0.179,2.625-0.158,3.727c-0.285,0.395-0.504,0.795-0.514,1.125
	c-0.036,1.037-1.177-0.393-1.174-2.654c0-2.268,0.649-5.583,0.649-5.583s-2.102-0.677-2.849,1.24
	c-0.746,1.919-1.691,3.288-1.691,3.288s-0.575-5.547,0.537-7.595c1.112-2.046,2.719-3.867,2.719-3.867s-4.358,2.2-4.854,4.235
	c-0.501,2.029-1.247,3.945-1.247,3.945s-1.138-5.098,1.58-9.619c1.454-1.537,3.28-2.707,5.42-3.317
	c1.411-0.4,2.899-0.524,4.398-0.439l-2.016,1.738c0,0,1.537,0.264,3.756,0.688c0.465,0.09,0.998,0.236,1.544,0.412
	C112.665,370.301,109.929,373.628,109.12,378.195L109.12,378.195z"/>
<path fill-rule="evenodd" clip-rule="evenodd" fill="#F5B143" d="M109.532,367.192l2.016-1.738c1.768,0.095,3.557,0.483,5.274,1.201
	c-0.513,0.368-1.216,0.925-1.99,1.638c-0.547-0.176-1.079-0.322-1.544-0.412C111.069,367.456,109.532,367.192,109.532,367.192
	L109.532,367.192z"/>
</svg>
