<?xml version="1.0" encoding="utf-8"?>
<!-- Generator: Adobe Illustrator 13.0.0, SVG Export Plug-In . SVG Version: 6.00 Build 14948)  -->
<!DOCTYPE svg PUBLIC "-//W3C//DTD SVG 1.1//EN" "http://www.w3.org/Graphics/SVG/1.1/DTD/svg11.dtd">
<svg version="1.1" id="Ebene_1" xmlns="http://www.w3.org/2000/svg" xmlns:xlink="http://www.w3.org/1999/xlink" x="0px" y="0px"
	 width="566px" height="498.643px" viewBox="0 0 566 498.643" enable-background="new 0 0 566 498.643" xml:space="preserve">
<path d="M438.51,54.375L566,54.246l-60.596,82.126c17.255,33.903,26.982,72.292,26.982,112.949
	c0,137.696-111.618,249.321-249.322,249.321c-58.801,0-112.857-20.358-155.491-54.414H0l60.634-82.164
	c-17.202-33.857-26.891-72.171-26.891-112.744c0-45.06,11.948-87.32,32.861-123.801c0.456-0.814,0.935-1.635,1.407-2.449
	c0.418-0.715,0.852-1.43,1.285-2.137C112.911,48.474,192.322,0,283.064,0C341.851,0,395.892,20.343,438.51,54.375 M66.604,125.52
	c0.882-1.536,1.779-3.065,2.692-4.586c-0.434,0.708-0.867,1.422-1.285,2.137C67.54,123.885,67.061,124.706,66.604,125.52z"/>
<path fill="#FFFFFF" d="M50.969,249.321c0-40.823,10.533-79.183,29.036-112.516c0.89-1.681,1.825-3.361,2.806-5.019
	c0.92-1.567,1.878-3.11,2.859-4.609c40.922-66.011,114.029-109.96,197.395-109.96c56.84,0,108.903,20.427,149.248,54.337
	l99.656-0.106l-46.87,63.524c19.149,33.751,30.078,72.772,30.078,114.348c0,128.189-103.922,232.104-232.111,232.104
	c-56.847,0-108.926-20.442-149.286-54.368H34.002l46.93-63.578C61.851,329.774,50.969,290.822,50.969,249.321"/>
<path d="M468.512,358.125c-28.914,49.098-92.142,65.441-141.224,36.519c-49.083-28.914-68.202-97.959-24.473-157.826
	c4.411-6.039,109.732-148.077,109.732-148.077h85.556l-87.526,118.6c7.331,2.312,14.51,5.476,21.416,9.552
	C481.075,245.808,497.434,309.043,468.512,358.125 M414.06,306.557c0-18.921-15.347-34.261-34.268-34.261
	c-18.921,0-34.268,15.339-34.268,34.261c0,18.929,15.347,34.268,34.268,34.268C398.713,340.824,414.06,325.485,414.06,306.557z"/>
<path fill="#179D33" d="M473.828,150.244l-37.204,50.414c1.179,0.639,2.335,1.3,3.499,1.977
	c29.279,17.256,48.581,44.983,55.927,75.609c1.27-9.46,1.932-19.111,1.932-28.922C497.981,213.585,489.258,179.888,473.828,150.244z
	"/>
<path fill="#179D33" d="M69.836,222.354c-1.118,8.83-1.681,17.834-1.681,26.967c0,35.66,8.677,69.289,24.055,98.888l36.679-49.706
	c-1.171-0.631-2.32-1.293-3.476-1.97C96.583,279.551,77.434,252.417,69.836,222.354z"/>
<path d="M97.595,140.502c28.906-49.09,92.142-65.433,141.232-36.519c49.083,28.921,68.201,97.967,24.473,157.826
	c-4.418,6.046-109.732,148.084-109.732,148.084H68.011l87.525-118.6c-7.331-2.312-14.51-5.491-21.416-9.552
	C85.039,252.827,68.681,189.592,97.595,140.502 M152.054,192.071c0,18.921,15.339,34.26,34.268,34.26
	c18.921,0,34.26-15.339,34.26-34.26c0-18.929-15.339-34.268-34.26-34.268C167.393,157.803,152.054,173.143,152.054,192.071z"/>
<path fill="#179D33" d="M283.064,34.413c44.839,0,86.461,13.727,120.919,37.204c-1.141,1.513-35.28,47.211-64.901,87.008
	c-11.134,14.959-24.48,33.051-34.549,46.657c5.118-44.474-15.948-91.914-56.992-116.098c-29.059-17.119-62.384-20.632-92.553-12.457
	C190.755,50.14,235.077,34.413,283.064,34.413"/>
<path fill="#179D33" d="M283.148,464.192c-44.832,0-86.461-13.727-120.904-37.219c1.125-1.506,35.271-47.204,64.893-87.001
	c11.126-14.951,24.747-33.591,34.815-47.196c-5.118,44.474,15.682,92.461,56.718,116.63c29.059,17.126,62.384,20.647,92.56,12.472
	C375.465,448.465,331.143,464.192,283.148,464.192"/>
</svg>
