<?xml version="1.0" encoding="utf-8"?>
<!-- Generator: Adobe Illustrator 13.0.0, SVG Export Plug-In . SVG Version: 6.00 Build 14948)  -->
<!DOCTYPE svg PUBLIC "-//W3C//DTD SVG 1.0//EN" "http://www.w3.org/TR/2001/REC-SVG-20010904/DTD/svg10.dtd">
<svg version="1.0" id="Ebene_1" xmlns="http://www.w3.org/2000/svg" xmlns:xlink="http://www.w3.org/1999/xlink" x="0px" y="0px"
	 width="315.882px" height="396.821px" viewBox="0 0 315.882 396.821" enable-background="new 0 0 315.882 396.821"
	 xml:space="preserve">
<path d="M279.052,246.68c-5.796,12.701-12.549,24.948-20.009,36.742c-11.692,18.547-25.049,35.885-39.312,52.214
	c-8.82,10.131-18.094,20.009-27.821,29.635c-9.677,9.626-19.555,18.799-29.635,27.669l-4.334,3.881l-4.335-3.881
	c-10.08-8.87-19.958-18.043-29.635-27.669c-9.727-9.626-19-19.504-27.82-29.635c-14.263-16.33-27.619-33.667-39.312-52.214
	c-7.459-11.793-14.213-24.041-20.009-36.742c-2.369,3.226-6.25,5.393-10.584,5.393c-7.258,0-13.104-5.897-13.104-13.154
	c0-5.998,4.032-11.088,9.576-12.651c-19.908-50.5-37.75-117.18-3.074-165.664C37.536,35.605,65.054,8.842,97.36,8.036
	c0.504,14.011,12.751,27.821,26.057,32.054c6.401,2.066,13.054,0.907,18.749-2.822c0.05-1.916-0.353-3.327-1.209-4.99
	c-1.512-2.873-3.478-6.854-1.412-11.29c1.311-2.974,0.252-3.427-2.217-4.334c-7.661-2.873-7.358-9.425-7.661-16.531
	c5.645-0.756,11.642,1.966,20.059,8.165c4.789-0.907,11.592-0.907,16.431,0c8.417-6.199,14.415-8.921,20.059-8.165
	c-0.302,7.106,0,13.659-7.661,16.531c-2.47,0.907-3.528,1.361-2.218,4.334c2.067,4.435,0.101,8.417-1.411,11.29
	c-0.856,1.663-1.26,3.074-1.209,4.99c5.695,3.729,12.348,4.889,18.749,2.822c13.305-4.233,25.553-18.043,26.057-32.054
	c32.306,0.806,59.825,27.569,77.717,52.567c34.675,48.484,16.833,115.164-3.075,165.664c5.544,1.563,9.576,6.653,9.576,12.651
	c0,7.257-5.846,13.154-13.104,13.154C285.302,252.073,281.421,249.905,279.052,246.68z"/>
<path fill="#F2B800" d="M55.427,112.414c2.722,0.151,3.125-1.562,2.671-4.032c-0.252-1.461-0.958-2.923-1.915-3.831
	c-2.873-2.772-7.762-2.671-11.139-0.857c-5.443,2.923-8.971,10.937-11.239,20.563c-7.258,30.996-2.47,65.671,7.963,95.307
	c14.011,39.715,38.001,74.793,65.52,106.344c15.07,17.287,32.206,34.726,50.652,51.156c18.446-16.431,35.582-33.869,50.652-51.156
	c27.518-31.55,51.509-66.629,65.52-106.344c10.433-29.635,15.221-64.311,7.963-95.307c-2.268-9.626-5.796-17.64-11.239-20.563
	c-3.376-1.814-8.266-1.915-11.138,0.857c-0.958,0.907-1.663,2.369-1.915,3.831c-0.454,2.47-0.051,4.183,2.671,4.032
	c5.796-0.353,6.25,7.813,0.454,8.165c-2.621,0.151-4.788-0.403-6.552-1.461c-4.284-2.57-5.443-7.61-4.587-12.197
	c2.117-11.441,14.969-15.775,24.898-10.433c7.862,4.233,12.6,14.213,15.321,25.906c7.661,32.609,2.772,68.695-8.215,99.893
	c-14.313,40.673-38.858,76.659-67.032,109.016c-17.64,20.21-36.691,38.909-56.801,56.649c-20.11-17.741-39.161-36.439-56.801-56.649
	c-28.174-32.357-52.719-68.343-67.032-109.016c-10.987-31.197-15.876-67.284-8.215-99.893c2.722-11.693,7.459-21.672,15.322-25.906
	c9.929-5.342,22.781-1.008,24.897,10.433c0.857,4.586-0.302,9.626-4.586,12.197c-1.764,1.058-3.931,1.612-6.552,1.461
	C49.178,120.227,49.632,112.062,55.427,112.414z"/>
<path fill="#F2B800" d="M242.916,108.937c0.101-3.377,1.008-6.804,2.621-9.728c2.318-4.334,5.998-7.56,10.231-9.475
	c-11.038-4.637-22.58-9.525-34.675-16.128c-6.501,4.234-8.417,8.77-9.173,16.582c7.157,3.276,14.163,7.409,20.866,11.793
	C236.263,104.25,239.64,106.568,242.916,108.937z"/>
<path fill="#F2B800" d="M60.115,89.734c4.233,1.915,7.913,5.141,10.231,9.475c1.613,2.923,2.52,6.351,2.621,9.728
	c3.276-2.369,6.653-4.688,10.13-6.956c6.703-4.385,13.709-8.518,20.865-11.793c-0.756-7.812-2.671-12.348-9.172-16.582
	C82.694,80.209,71.152,85.098,60.115,89.734z"/>
<path fill="#FFFFFF" d="M39.451,184.285c1.915,11.441,4.889,22.579,8.568,33.063v0.05c1.966,5.494,4.083,10.887,6.401,16.178
	l222.566-52.819c0.555-3.78,1.008-7.61,1.311-11.441c1.209-14.011,0.655-27.972-2.167-41.227L39.451,184.285z"/>
<g>
	<path d="M237.775,178.841c0.202,1.916,1.764,2.873,3.477,2.52c1.966-0.353,3.075-1.865,2.823-3.78
		c-0.202-1.966-1.714-2.923-3.478-2.52C238.883,175.364,237.573,176.977,237.775,178.841z"/>
	<path d="M248.459,179.799c1.21-0.101,3.024-0.303,4.838-0.756c10.735-2.318,14.062-10.886,13.961-21.167
		c-0.101-6.905-1.865-11.038-4.586-12.903c-2.016-1.461-4.788-1.814-8.669-0.958c-2.268,0.504-4.435,1.209-5.947,1.966
		L248.459,179.799L248.459,179.799z M253.348,149.811c6.804-2.57,8.568,4.939,8.417,9.223c-0.151,4.939-1.059,13.507-8.114,13.457
		L253.348,149.811z"/>
	<path d="M215.246,151.978v22.025c0,8.568,3.175,12.096,9.576,10.685c6.149-1.311,9.728-6.3,9.728-15.17v-21.773l-5.645,1.26v22.63
		c0,5.645-1.613,7.711-4.032,8.266c-2.217,0.454-4.032-0.907-4.032-6.501v-22.63L215.246,151.978z"/>
	<polygon points="87.28,196.733 79.317,198.548 79.317,189.174 87.784,187.208 87.784,182.47 73.975,185.646 73.975,219.968 
		88.389,216.642 88.389,211.904 79.317,214.021 79.317,203.084 87.28,201.27 	"/>
	<path d="M106.029,212.257l8.417-36.338l-6.25,1.461c-1.865,10.08-3.981,20.11-5.09,30.189l-0.05-1.058
		c-1.21-8.971-3.579-17.64-5.746-26.41l-5.746,1.26l8.215,32.407L106.029,212.257z"/>
	<path d="M146.249,202.731v-9.525c0-7.157-0.202-11.945-0.403-15.876l0.101-0.05c0.958,3.427,2.52,7.207,3.78,10.08l5.897,13.306
		l5.04-1.16v-34.322l-4.788,1.058v9.728c0,6.149,0.303,11.39,0.555,15.725h-0.101c-1.059-3.075-2.822-7.107-4.032-9.929
		l-5.846-13.406l-5.141,1.108v34.374L146.249,202.731z"/>
	<polygon points="172.457,196.986 177.799,195.776 177.799,166.393 183.847,164.981 183.847,159.992 166.459,163.974 
		166.459,169.013 172.457,167.603 	"/>
	<polygon points="203.906,169.165 195.993,170.979 195.993,161.554 204.41,159.589 204.41,154.851 190.651,158.026 190.651,192.399 
		205.015,189.123 205.015,184.335 195.993,186.452 195.993,175.515 203.906,173.701 	"/>
	<polygon points="55.276,224.252 69.54,220.925 69.54,216.339 60.619,218.405 60.619,188.669 55.276,189.879 	"/>
	<path d="M269.325,171.987c0.202,1.916,1.764,2.873,3.478,2.571c1.915-0.403,3.075-1.916,2.822-3.831
		c-0.201-1.965-1.713-2.873-3.528-2.52C270.434,168.51,269.124,170.122,269.325,171.987z"/>
	<path d="M130.977,206.411l5.342-1.21l-7.106-32.76l-6.401,1.462l-7.661,36.036l5.292-1.159l0.908-5.191l8.819-1.764
		L130.977,206.411L130.977,206.411z M122.258,198.598l3.478-19.908l0.151-0.05l3.427,18.598L122.258,198.598z"/>
</g>
<path fill="#F2B800" d="M113.992,95.732c2.772,0.655,5.595,0.605,8.316-0.756c5.695-2.822,8.871-9.777,10.534-15.573l0.856-2.974
	h48.485l0.857,2.974c1.663,5.796,4.838,12.751,10.533,15.573c2.722,1.361,5.544,1.412,8.316,0.756
	c1.008-0.202,2.117-0.807,3.175-1.461c3.024,1.411,6.099,2.822,9.123,4.385c-0.807,0.706-1.713,1.361-2.621,1.865
	c-6.653,3.78-14.415,5.292-21.571,1.814c-7.056-3.478-11.39-10.584-13.86-17.741h-36.389c-2.469,7.156-6.804,14.263-13.86,17.741
	c-7.157,3.478-14.918,1.965-21.571-1.814c-0.907-0.504-1.814-1.159-2.621-1.865c3.024-1.563,6.098-2.974,9.122-4.385
	C111.875,94.925,112.984,95.53,113.992,95.732z"/>
<g>
	<path fill="#FFFFFF" d="M176.64,309.932c-2.016-7.358-7.812-17.438-14.364-14.414c-1.764,0.857-2.671,2.823-2.469,5.04
		c3.226,5.443,5.645,10.786,7.056,16.178c1.059,4.284,1.512,8.568,1.109,12.953C179.059,327.118,179.563,320.415,176.64,309.932z"/>
	<path fill="#FFFFFF" d="M173.918,287.151c-1.663,1.361-2.873,3.327-3.528,6.048c3.932,3.175,6.956,7.51,8.719,12.852
		c1.311,3.981,2.117,8.215,2.57,11.995c2.923-4.637,4.587-10.08,4.587-15.977c0-5.695-1.814-10.281-4.637-14.515
		C179.613,284.53,176.539,285.034,173.918,287.151z"/>
	<path fill="#FFFFFF" d="M160.965,278.684c-9.022,5.191-16.179,14.212-15.372,24.343c5.292,1.512,7.661,0.806,8.568-1.361
		c1.159-2.923,2.016-5.595,4.234-7.711c2.066-2.016,5.241-3.528,8.114-3.226c1.562-5.695,4.183-8.165,9.072-9.677
		C172.91,276.063,170.087,273.442,160.965,278.684z"/>
	<path fill="#FFFFFF" d="M141.006,302.674c1.613-8.064,4.839-14.364,9.072-19.505c3.276-3.931,7.056-7.106,11.189-9.828
		c-1.26-0.151-2.52-0.252-3.78-0.201c-12.902,0.151-23.89,9.021-27.518,21.017C128.104,300.306,136.571,301.868,141.006,302.674z"/>
	<path fill="#FFFFFF" d="M160.36,311.343c0.907-2.873-1.209-5.746-3.427-6.603c-8.971,5.04-18.699,2.57-28.274-1.613
		c1.26,9.021,4.889,12.197,11.391,13.507C146.147,317.895,157.992,318.802,160.36,311.343z"/>
	<path fill="#FFFFFF" d="M163.536,325.505c-0.101-2.52-0.454-5.04-1.109-7.56c-0.05-0.101-0.05-0.252-0.101-0.353
		c-7.509,3.83-18.647,4.586-26.561,1.361c2.117,5.645,7.207,10.533,15.12,12.197C156.53,332.31,163.787,333.67,163.536,325.505z"/>
</g>
<path d="M73.874,96.034c0.756,1.109,1.36,2.268,1.865,3.478c0.504,1.26,0.857,2.621,1.109,4.083
	c0.252,1.461-1.764,1.764-2.016,0.353c-0.202-1.311-0.554-2.52-1.008-3.68c-0.454-1.108-0.958-2.117-1.613-3.074
	C71.354,95.984,73.017,94.825,73.874,96.034z"/>
<path d="M98.268,81.317c1.008,1.26,1.663,2.671,2.016,4.133c0.353,1.411,0.504,2.823,0.504,4.183c0.05,1.462-2.016,1.462-2.016,0
	c-0.05-1.209-0.151-2.469-0.454-3.679c-0.303-1.16-0.806-2.319-1.613-3.377C95.798,81.469,97.36,80.158,98.268,81.317z"/>
<path d="M94.235,83.787c0.958,1.209,1.563,2.621,1.966,3.981c0.403,1.411,0.554,2.823,0.605,4.183
	c0.05,1.462-1.966,1.563-2.016,0.101c-0.05-1.26-0.202-2.52-0.555-3.729c-0.353-1.159-0.857-2.268-1.612-3.327
	C91.715,83.888,93.328,82.628,94.235,83.787z"/>
<path d="M90.153,86.206c0.908,1.21,1.512,2.521,1.916,3.881c0.403,1.361,0.655,2.722,0.756,4.083
	c0.101,1.462-1.965,1.563-2.066,0.151c-0.101-1.26-0.252-2.47-0.605-3.629c-0.353-1.159-0.856-2.217-1.612-3.226
	C87.633,86.307,89.246,85.047,90.153,86.206z"/>
<path d="M86.071,88.676c0.856,1.159,1.461,2.419,1.915,3.78c0.454,1.26,0.706,2.671,0.807,4.032
	c0.151,1.461-1.865,1.663-2.016,0.202c-0.101-1.26-0.353-2.469-0.706-3.629c-0.403-1.109-0.907-2.217-1.613-3.175
	C83.551,88.727,85.214,87.517,86.071,88.676z"/>
<path d="M81.988,91.146c0.857,1.109,1.462,2.369,1.916,3.679c0.453,1.311,0.756,2.671,0.907,4.133
	c0.202,1.411-1.814,1.664-2.016,0.252c-0.151-1.311-0.403-2.57-0.807-3.729c-0.403-1.109-0.907-2.167-1.613-3.175
	C79.519,91.146,81.132,89.936,81.988,91.146z"/>
<path d="M77.957,93.565c0.756,1.109,1.411,2.318,1.865,3.629c0.454,1.26,0.806,2.621,1.008,4.082
	c0.202,1.462-1.814,1.714-2.016,0.302c-0.202-1.311-0.504-2.52-0.907-3.679c-0.403-1.108-0.958-2.167-1.613-3.125
	C75.436,93.565,77.1,92.405,77.957,93.565z"/>
<path d="M242.008,96.034c-0.756,1.109-1.361,2.268-1.865,3.478c-0.504,1.26-0.857,2.621-1.109,4.083
	c-0.252,1.461,1.764,1.764,2.016,0.353c0.201-1.311,0.555-2.52,1.008-3.68c0.454-1.108,0.958-2.117,1.613-3.074
	C244.528,95.984,242.865,94.825,242.008,96.034z"/>
<path d="M217.615,81.317c-1.008,1.26-1.663,2.671-2.016,4.133c-0.353,1.411-0.504,2.823-0.504,4.183
	c-0.05,1.462,2.016,1.462,2.016,0c0.05-1.209,0.151-2.469,0.454-3.679c0.302-1.16,0.806-2.319,1.613-3.377
	C220.084,81.469,218.522,80.158,217.615,81.317z"/>
<path d="M221.646,83.787c-0.958,1.209-1.562,2.621-1.965,3.981c-0.403,1.411-0.555,2.823-0.605,4.183
	c-0.05,1.462,1.966,1.563,2.016,0.101c0.05-1.26,0.202-2.52,0.554-3.729c0.353-1.159,0.857-2.268,1.613-3.327
	C224.167,83.888,222.554,82.628,221.646,83.787z"/>
<path d="M225.729,86.206c-0.907,1.21-1.512,2.521-1.915,3.881c-0.403,1.361-0.655,2.722-0.756,4.083
	c-0.101,1.462,1.965,1.563,2.066,0.151c0.101-1.26,0.252-2.47,0.605-3.629c0.353-1.159,0.857-2.217,1.613-3.226
	C228.249,86.307,226.636,85.047,225.729,86.206z"/>
<path d="M229.812,88.676c-0.857,1.159-1.461,2.419-1.915,3.78c-0.454,1.26-0.706,2.671-0.807,4.032
	c-0.151,1.461,1.865,1.663,2.016,0.202c0.101-1.26,0.353-2.469,0.706-3.629c0.403-1.109,0.907-2.217,1.613-3.175
	C232.332,88.727,230.668,87.517,229.812,88.676z"/>
<path d="M233.894,91.146c-0.857,1.109-1.461,2.369-1.916,3.679c-0.454,1.311-0.756,2.671-0.907,4.133
	c-0.202,1.411,1.815,1.664,2.016,0.252c0.151-1.311,0.403-2.57,0.807-3.729c0.403-1.109,0.907-2.167,1.612-3.175
	C236.363,91.146,234.751,89.936,233.894,91.146z"/>
<path d="M237.926,93.565c-0.756,1.109-1.411,2.318-1.865,3.629c-0.454,1.26-0.806,2.621-1.008,4.082
	c-0.202,1.462,1.814,1.714,2.016,0.302c0.201-1.311,0.504-2.52,0.907-3.679c0.403-1.108,0.957-2.167,1.612-3.125
	C240.446,93.565,238.783,92.405,237.926,93.565z"/>
<path fill="#FFFFFF" d="M108.146,79.1c6.351-0.151,12.751-1.512,18.951-3.679l-0.655,2.218c-1.059,3.729-3.226,9.525-7.006,11.39
	c-3.024,1.461-6.754-0.655-9.223-2.218C109.809,83.938,109.154,81.418,108.146,79.1z"/>
<path fill="#FFFFFF" d="M207.736,79.1c-6.35-0.151-12.751-1.512-18.95-3.679l0.655,2.218c1.058,3.729,3.226,9.525,7.005,11.39
	c3.024,1.461,6.753-0.655,9.223-2.218C206.073,83.938,206.729,81.418,207.736,79.1z"/>
<path fill="#FFFFFF" d="M59.762,30.111c0.555,4.385-1.058,4.082-3.376,5.896c-0.353,0.252-0.655,0.655-0.958,1.059
	c2.269,0.907,0.958,1.613-0.05,2.52c-0.908,0.706-0.756,0.907-1.008,1.915c-0.403,1.411-1.512,0-2.167,2.369
	c-0.303,1.059-0.706,2.016-1.462,2.772c-1.008,1.16-1.059,0.807-1.512,2.722c-0.353,1.21-1.159,1.966-2.016,2.621
	c-0.655,2.822-1.26,2.57-2.57,4.586c-0.554,0.857-1.008,1.865-1.311,2.419c-0.353,0.857-1.613,0.958-2.016,2.218
	c-2.318,7.913-4.889,15.926-7.661,23.99c-0.605,1.714-0.605,2.873-2.318,4.032c0.101,0.958-1.563,1.412-3.377,1.21
	c-0.958-0.151-1.865-0.151-1.764-0.907c0.101-1.008,0.503-0.303,0.503-1.411c0-0.353,0.152-0.857,0.605-0.756
	c0.756,0.201,0.504-0.101,0.353-0.605c-0.151-0.655,0.504-0.504,1.008-1.159c0.252-0.302,0.05-1.109,0.101-1.966
	c0.05-1.512-0.504-0.403-0.857-1.159c-0.303-0.706,0.202-2.268,0.806-2.419c1.159-0.252,1.311-0.202,1.361-0.807
	c0-0.353-0.151-0.856,0.101-2.167c0.353-1.461,0.806-2.621-0.303-2.369c-0.453,0.152-0.655,0.454-1.058,0.454
	c-0.504-0.05-1.159-0.554-1.109-1.612c0.05-1.16,0.706-1.008,2.217-2.218c1.916-1.461,1.966-4.284,1.815-6.501
	c-0.051-0.605-0.151-1.059-0.151-1.461c0.05-1.412,0.353-1.613,1.361-0.908c0.504,0.353,1.915,2.117,2.57,1.865
	c0.353-0.151,0.907-0.907,0.958-1.663c0.101-1.159-0.605-2.167-0.807-3.226c-0.101-0.655,0.101-1.361,0.403-1.966
	c0.504-1.058,1.814-1.008,2.974-1.008c1.412,0,0.454-1.563,0.101-1.663c-0.252-0.101-0.857-0.05-1.109-0.604
	c-0.907-0.403-1.26-0.857-1.059-1.361c0.303-0.856,1.209-0.806,2.066-0.706c1.613,0.252,1.159-0.504,0.807-1.26
	c-0.403-0.807,0.302-1.311,1.159-0.655c0.706,0.555,0.907,0.706,1.058,0.454c0.807-1.814,1.008,1.058,1.663-0.807
	c0.202-0.504,0.454-1.058,0.202-1.411c-0.302-0.353-0.756-0.756-0.856-1.16c-0.202-0.957,0.504-1.814,0.907-1.965
	c0.806-0.252,1.159,0.151,1.563,0.252c0.604,0.101,0.604-0.403,0.604-0.605c0-0.353-0.403-0.604-0.857-1.26
	c-0.756-0.958-0.856-2.016,0.101-3.074c0.202-0.202,2.016-0.303,2.369-0.303c0.907,0,1.664-0.151,2.067-0.604
	c0.353-0.454,0.453-1.109,0.353-1.865c-0.051-0.958,0.604-1.966,1.109-2.268c1.814-1.159,1.411,2.772,3.125-2.873
	C55.78,30.313,57.544,29.456,59.762,30.111z"/>
<path fill="#FFFFFF" d="M73.168,37.822c1.563-1.764,2.268-4.435,2.066-7.963c-1.26-0.202-2.217,0.806-3.023,2.369
	c-0.605,2.066-1.311,3.175-2.47,4.738c-0.807,1.058-0.504,3.427,0.201,5.393c-1.058,2.066-2.117,3.729-1.864,5.947
	c-2.772,1.713-4.838,2.217-4.183,5.292c0.655,3.024-3.175-0.303-3.68,1.512c-0.201,0.907,0.202,1.613,0.655,2.218
	c1.462,1.915,1.966,1.966,0.958,2.923c-0.857,0.756-1.159,0.655-2.117,0.605c-1.814,0-1.461,1.714,0,2.521
	c0.958,0.503,1.865,1.31,2.016,2.167c-0.504,2.016-0.151,2.47-1.966,3.377c-1.159,0.604-1.764,1.058-2.066,2.923
	c-0.252,1.512-0.202,2.823,1.008,3.528l3.175,0.605c-0.403,1.664-1.36,3.276-2.873,3.881c-1.411,0.555-3.074,0.856-3.024,1.512
	c0.554,4.184,3.377,2.671,3.629,2.974c1.663,1.815,5.393,0.303,6.603-3.478c0.756-2.369,0.503-5.342,0.655-7.812
	c0.907-6.35,1.764-12.701,2.016-19.051c1.311-3.175,1.713-6.653,2.419-10.181C71.707,41.753,72.715,39.788,73.168,37.822z"/>
<path fill="#FFFFFF" d="M86.222,41.401c2.873,3.276,1.058,7.661,1.512,11.29c0.454,3.276,2.117,5.998,2.822,9.173
	c0.857,3.729,0.151,6.904-2.117,9.475c-1.663,1.814-4.435,0.604-4.989-1.663c1.058-0.655,3.78-3.78,1.461-4.435
	c-1.563-0.504-2.52-1.765-0.907-3.024c1.814-1.411,0.756-1.26-0.302-1.764c-0.857-0.403-1.714-1.26-0.857-2.772
	c0.857-1.562,0.202-1.865-0.353-2.822c-0.353-0.555-0.604-1.512-0.655-2.672c0.756-0.403,3.478-3.78,1.664-4.284
	c-0.907-0.252-1.664-0.605-2.167-1.26c2.318-1.108,3.275-2.873,2.217-5.493C84.811,40.242,85.012,40.04,86.222,41.401z"/>
<path fill="#FFFFFF" d="M136.319,47.247c0.202-1.26,0.756-2.117,1.311-2.822c1.713-2.218,2.52-1.008,2.923,0.857
	c1.361,6.401,1.865,13.255,3.88,21.622c0.655,2.772,0.353,4.435-3.226,3.78c-2.621,0.555-3.578-1.411-1.814-4.486l-0.655-2.57
	c-0.504-1.008-0.252-1.965,0.252-2.621c3.276-2.923,0.857-2.57-1.461-4.788c-3.075-2.974,1.613-3.931,0.101-6.098
	C135.866,50.372,135.161,48.96,136.319,47.247z"/>
<path fill="#FFFFFF" d="M174.926,44.828l-1.008,8.366c0.202,1.31-0.706,2.822-0.706,4.284c-1.613,1.664,0.302,3.427-0.454,5.746
	c-0.907,2.671-1.916,6.199-1.916,8.216c1.311,0,3.831-1.664,4.435-0.353c0.101,0.302,3.528,1.008,3.528,0.151
	c-0.655-1.714-0.655-3.629-0.706-4.587c0.252-0.604-0.252-1.764-0.05-2.066c0.856-1.664,3.226,0.504,1.209-3.075
	c-1.159-2.117-0.05-0.857-0.05-3.326c1.764-0.605,0.454-1.159,0.454-1.916c0-1.411-1.613-1.008-1.512-1.612
	c0.05-0.504,0.302-0.303,0.503-0.605c0.303-0.353,0.454-0.05,0.454-0.454c-0.05-0.605-0.554-1.915-1.764-2.268
	c-0.807-0.202-0.706-1.159-0.706-1.613c0.655-0.303,0.958-2.167,0.101-2.167c0.756-1.915-0.655-3.679-0.907-1.814
	C175.632,45.231,175.531,45.231,174.926,44.828z"/>
<path fill="#FFFFFF" d="M225.88,39.083l-0.151,4.889c-0.202,0.857-0.151,4.687,0.706,4.687c-0.151,2.974-0.151,7.51,0.101,10.483
	c0.151,1.26,0.605,2.621,0.958,3.175c-1.663,3.074-0.051,3.831,1.008,5.04c0.857,1.058,1.059,3.024,1.361,3.024
	c0.655-0.555,1.059-1.21,1.059-2.016c1.361,0,2.167,2.268,2.167-0.403c0.857-1.361-0.756-3.074-0.756-4.435
	c0.555-0.403,1.461-0.907,1.461-1.613c0.807-0.403,0.807-1.109,0.807-1.915c-1.512-0.454-4.385-1.008-4.385-2.369
	c0.403-0.807,0.151-1.462,0.151-2.319c0.555-1.209,0.807-1.713,0.807-2.974c-0.857,0-1.461-0.403-1.764-0.856
	c-1.461-2.016,1.663-0.555,1.663-3.024c-0.604,0.201-1.713-1.412-1.26-2.47c1.109,0.504,1.663,2.117,1.915-0.655
	c0.303-1.059,0.555-3.831-1.109-3.831c-0.252-0.504-4.788-3.578-2.318-3.578c0.151-0.958-1.209-2.47-2.066-2.47
	c0-1.865,0.706-1.361-0.554-2.671c-0.907-0.856-0.958-1.008-0.958-2.369C222.604,31.522,225.074,36.109,225.88,39.083z"/>
<path fill="#FFFFFF" d="M239.69,30.615c2.52-0.857-1.361-3.377-2.117-2.671c-2.318,2.318-0.202,2.016-0.202,3.831
	c0,0.907,0.101,3.478,1.562,3.478c0,3.427,1.714,4.838,3.528,10.937c2.117,7.157,6.401,28.325,9.273,33.516
	c0.958,1.764,3.125,3.831,3.478,0.958c2.016-0.353,0-2.671-0.857-2.671c-0.303-0.403-0.857-1.966,0-1.966
	c2.873,0.655,2.217-2.671,0.403-3.326c-0.454-0.101-0.353-0.907-0.303-1.663c0.05-0.907,0.202-1.764,0.907-1.713
	c0.655,0.1,0.605-0.706,0.605-1.563c-0.051-0.907-1.814-2.217-2.47-2.217c-1.008,0.05-1.865-0.907-1.865-1.814
	c2.52,0.454,1.865-2.621,0.403-2.621c-0.353-0.857,0.05-3.226-0.655-4.233c-1.059-1.563,0.05-1.411,0.05-3.78
	c0.907-0.958,0.554-3.78-1.008-3.932c-0.503,0-0.755-0.453-1.058-0.655c-1.461-0.958,0.504-2.067-0.554-3.679
	c-1.059-1.663-1.21-0.303-1.865,0.202c-0.857,0.706-1.865-0.353-2.067-1.21c-0.202-0.907,0.454-0.605,0.857-0.807
	c0.454-0.151,1.159,1.16,0.605-0.957c-0.05-0.202-0.403-0.202-0.403-0.353c-0.202-1.613-0.504-0.756-1.26-0.454
	c-0.957,0.353-2.721-0.706-1.209-1.512c0.554-0.353-0.101-0.958-0.101-1.563c1.31-3.377-1.361-4.284-1.361-2.722
	c-2.318,0-0.655-1.714-0.655-2.016c-0.201-0.302-0.604-1.26-0.604-1.461C240.093,31.976,239.69,31.321,239.69,30.615z"/>
<path fill="#FFFFFF" d="M268.065,44.324c-1.26-0.554-1.108-2.369-1.865-4.183c0.756-1.764-0.958-2.671-1.663-3.175
	c-0.857-0.555-6.451-1.008-6.451,0.958c0,1.713,1.26,2.47,2.57,3.074c0.958,0.454,1.814,2.57,1.915,3.679
	c0.101,1.26,0.353,3.377,2.117,4.385c1.412,1.159,3.276,2.671,3.68,4.435c0.604,2.47,2.167,4.183,3.074,6.854
	c0.555,1.613,2.318,2.722,2.318,3.175c0.504,5.04,2.268,7.258,5.04,11.038c2.469,3.376,3.881,7.56,6.098,11.139
	c1.059,1.663,2.419,3.578,4.284,3.427c2.117-3.075-2.923-4.536-3.326-7.006c1.562,0,1.159-1.159,1.159-2.218
	c0-0.958-0.907-1.563-0.907-2.117c1.008-1.563,2.52-3.377,0-3.377c-0.857-0.252-0.555-1.461-1.563-1.461l-2.218,0.202
	c-0.604-1.915,2.318-4.788-0.705-4.788c-0.303-2.621,3.528-1.008,3.528-3.629c1.159-1.159,0.806-1.713,0.806-3.024
	c-1.461,0.958-3.175-0.504-4.889,0.302c-2.016,1.008-2.621-3.125-3.629-3.125c1.109-1.865-2.671-3.276-2.671-3.629
	c0.655-2.066-0.303-2.218-0.655-3.578c-0.504,0-1.109,0.202-1.714,0.353c-1.209,0.353-1.361-0.252-1.512-1.109
	c-0.101-0.958-0.101-2.217-0.101-2.268C273.155,45.584,269.073,44.777,268.065,44.324z"/>
<path fill="#293384" d="M245.637,264.421c8.87-14.918,16.43-30.593,22.226-47.023v-0.05c3.528-10.08,6.401-20.714,8.316-31.651
	l-30.542,7.258V264.421z"/>
<path fill="#293384" d="M245.637,130.609l14.263-3.377c-5.746-0.05-11.139-2.722-14.263-7.661V130.609z"/>
<path fill="#293384" d="M275.071,123.653c-0.907-3.427-2.016-6.955-3.78-10.029c0.202,0.756,0.353,1.512,0.353,2.217
	c0.101,1.462-0.101,2.923-0.655,4.334l0,0c-0.807,2.218-2.268,4.183-4.485,5.494L275.071,123.653z"/>
<path fill="#293384" d="M70.245,119.571c-3.327,5.342-9.375,8.014-15.624,7.61c-5.141-0.303-8.366-3.276-9.727-7.006l0,0
	c-0.555-1.461-0.756-2.923-0.655-4.334c0-0.706,0.151-1.461,0.353-2.217c-2.117,3.679-3.376,8.014-4.334,12.146
	c-3.226,13.91-3.932,28.728-2.671,43.545c0.252,3.478,0.655,6.955,1.159,10.433l31.5-7.459V119.571z"/>
<path fill="#293384" d="M56.284,237.86c4.184,9.072,8.871,17.942,13.961,26.561v-29.887L56.284,237.86z"/>
<path fill="#DA001A" d="M188.685,144.167l52.366-12.449v-15.977c-3.931-2.772-7.863-5.594-11.895-8.215
	c-3.024-2.016-6.098-3.881-9.021-5.594c-5.443,5.292-11.138,8.266-19.253,8.921c-4.334,0.353-8.467-0.353-12.197-1.865V144.167z"/>
<path fill="#293384" d="M184.099,281.557v-74.088l-52.315,12.449v61.639c6.098-7.862,15.573-12.902,26.158-12.902
	C168.525,268.654,178,273.694,184.099,281.557z"/>
<path fill="#293384" d="M131.784,342.793c1.512,1.562,3.024,3.074,4.536,4.637c6.854,6.955,14.112,13.86,21.622,20.714
	c7.509-6.854,14.767-13.759,21.621-20.765c1.512-1.512,3.024-3.024,4.536-4.586v-19.505C178,331.1,168.525,336.19,157.941,336.19
	c-10.584,0-20.06-5.09-26.158-12.902V342.793z"/>
<path fill="#293384" d="M131.784,157.674l52.315-12.449v-38.707c-2.772-1.814-5.242-4.133-7.358-6.854
	c-2.066-2.621-3.729-5.494-5.04-8.467h-27.468c-1.361,2.974-3.024,5.847-5.04,8.467c-2.167,2.722-4.637,5.04-7.409,6.854V157.674z"
	/>
<path fill="#DA001A" d="M95.798,101.881c-2.974,1.764-5.998,3.629-9.072,5.645c-4.032,2.621-7.963,5.443-11.894,8.215v55.44
	l52.365-12.449v-49.745c-3.729,1.563-7.862,2.218-12.196,1.865C106.936,110.197,101.19,107.223,95.798,101.881z"/>
<path fill="#DA001A" d="M188.685,338.004c5.141-5.443,10.08-10.886,14.918-16.43c13.558-15.573,26.258-32.004,37.195-49.291
	c0.101-0.101,0.151-0.252,0.252-0.353v-77.918l-52.366,12.398v83.059c1.663,3.982,2.57,8.367,2.57,12.953s-0.907,8.921-2.57,12.953
	V338.004z"/>
<path fill="#DA001A" d="M74.832,271.931c0.101,0.1,0.151,0.252,0.252,0.353c10.937,17.287,23.638,33.718,37.195,49.291
	c4.839,5.544,9.778,10.987,14.918,16.43v-22.629c-1.663-4.032-2.57-8.367-2.57-12.953s0.907-8.971,2.57-12.953v-68.443
	l-52.365,12.398V271.931z"/>
</svg>
