<?xml version="1.0" encoding="UTF-8" standalone="no"?>
<!-- Created with Inkscape (http://www.inkscape.org/) -->
<svg
   xmlns:svg="http://www.w3.org/2000/svg"
   xmlns="http://www.w3.org/2000/svg"
   version="1.0"
   width="300"
   height="300"
   id="svg7555">
  <defs
     id="defs3" />
  <g
     transform="translate(-34.52914,-47.86032)"
     id="layer1">
    <g
       transform="translate(5.0498352,4.9999994)"
       id="g7649">
      <path
         d="M 322.92815,192.97291 C 322.92815,272.19064 258.70276,336.42171 179.48314,336.42171 C 100.24837,336.42171 36.030566,272.19064 36.030566,192.97291 C 36.030566,113.75328 100.24837,49.524114 179.48314,49.524114 C 258.70276,49.524114 322.92815,113.75328 322.92815,192.97291"
         style="font-size:10px;letter-spacing:0;word-spacing:0;fill:#ffffff;fill-rule:nonzero;stroke:none;font-family:fnt0"
         id="path3361" />
      <path
         d="M 273.66275,194.21902 C 273.66275,250.23353 231.4952,295.64415 179.47915,295.64415 C 127.46311,295.64415 85.295562,250.23353 85.295562,194.21902 C 85.295562,138.19884 127.46311,92.788211 179.47915,92.788211 C 231.4952,92.788211 273.66275,138.19884 273.66275,194.21902"
         style="font-size:10px;letter-spacing:0;word-spacing:0;fill:#c4161c;fill-rule:nonzero;stroke:none;font-family:fnt0"
         id="path3365" />
      <path
         d="M 182.77828,294.2341 C 182.66468,294.24165 181.96799,294.25492 181.35079,294.26817 C 179.7851,294.30036 178.76466,294.31928 178.09825,294.39501 C 175.11643,294.19055 171.91502,293.78728 168.24029,293.14738 C 143.98632,288.93119 122.75394,274.76428 108.4526,253.25927 C 92.189895,228.79516 86.479969,197.23718 93.172473,168.84656 C 98.303088,147.07649 110.9327,127.30376 128.72703,113.17093 C 137.01362,106.59201 146.70876,101.46708 157.54174,97.945704 C 162.62881,96.279676 168.20242,95.124813 174.58444,94.36753 C 176.11795,94.197142 177.68363,94.064616 179.2285,93.988887 C 179.30612,93.969955 179.37238,93.969955 179.44622,93.969955 C 179.54845,93.969955 179.64121,93.969955 179.74724,93.988887 C 182.9411,94.12141 186.43028,94.53792 190.72789,95.295204 C 234.86058,102.96272 268.43105,145.48429 268.82863,194.2194 C 268.59766,222.50022 257.81391,248.72124 238.46716,268.04337 C 229.54065,276.95851 218.26846,284.1906 205.8698,288.95771 C 200.39084,291.06485 194.40261,292.60403 187.55674,293.66803 C 185.9778,293.91603 184.35342,294.07696 182.77828,294.2341 z M 280.90733,194.89528 C 280.90922,194.89339 280.89406,194.23834 280.89218,194.1948 L 280.89595,193.53217 L 280.86946,193.51513 C 280.47377,164.8727 269.47042,138.30334 249.82266,118.6764 C 232.00372,100.88019 208.12461,91.433048 180.76579,91.35732 C 180.76012,91.35732 180.75632,91.35732 180.75254,91.35732 C 180.37579,91.319455 179.9517,91.319455 179.50491,91.319455 C 178.95209,91.319455 178.44282,91.338387 178.02063,91.395184 C 151.69549,91.887421 129.31581,100.27435 111.48552,116.44429 C 91.451538,134.60968 79.291427,161.64856 78.132782,190.63933 C 77.004422,218.78574 87.523118,246.5838 106.99104,266.89798 C 125.40444,286.11411 149.93858,296.8259 176.06872,297.06635 C 204.02582,297.32004 226.5986,289.81533 245.08393,274.12438 C 265.61395,256.69544 278.58245,230.16396 280.66309,201.3341 C 280.82402,199.12094 280.86568,196.89641 280.8846,194.91043"
         style="font-size:10px;letter-spacing:0;word-spacing:0;fill:#231f20;fill-rule:nonzero;stroke:none;font-family:fnt0"
         id="path3369" />
      <path
         d="M 223.36594,325.76197 C 210.30845,331.11219 196.0355,334.27195 180.9428,335.15042 C 167.25866,335.94746 151.13984,331.44729 140.02477,327.53022 C 114.97757,318.69649 91.963666,301.24485 75.218182,278.38809 C 58.414022,255.44991 49.044511,227.65942 48.124406,198.02495 C 47.213761,168.64228 54.65788,140.20242 69.652144,115.78565 C 83.898581,92.574844 105.62129,73.491251 130.81619,62.056235 C 143.09557,56.490197 156.66613,52.855224 171.14922,51.245987 C 183.46835,49.901806 197.88707,51.738228 214.00021,56.755243 C 270.71331,74.381061 310.58439,130.38232 310.96114,192.94167 C 310.78507,221.65037 302.39625,249.41436 286.69583,273.22907 C 270.98594,297.05517 249.08903,315.22055 223.36594,325.76197 z M 324.42189,192.65201 C 324.19092,163.55521 315.67146,135.4372 299.7609,111.29873 C 283.78974,87.084525 261.52745,68.606756 235.37269,57.89117 C 213.93585,49.106658 188.49673,46.077518 159.76343,48.860542 C 132.53711,51.511043 105.50959,63.438287 83.661916,82.446153 C 62.033843,101.24576 46.695033,126.5391 39.305821,155.58857 C 31.980967,184.38814 33.097963,214.26873 42.535649,242.00431 C 61.125102,296.64056 111.82158,335.07657 168.68236,337.65513 C 210.98622,339.57106 246.78877,328.06222 275.09232,303.44666 C 305.66393,276.85836 324.09247,235.66203 324.42567,193.21051 C 324.42758,193.13289 324.42947,193.04958 324.42947,192.95492 L 324.42947,192.93789 C 324.42947,192.83376 324.42758,192.7391 324.42189,192.65201"
         style="font-size:10px;letter-spacing:0;word-spacing:0;fill:#b88748;fill-rule:nonzero;stroke:none;font-family:fnt0"
         id="path3373" />
      <path
         d="M 60.982723,216.80867 C 60.157299,217.11535 59.570405,217.48075 59.223936,217.90484 C 58.59349,218.68105 58.442046,219.79616 58.775247,221.25203 C 58.974042,222.12669 59.237194,222.81204 59.564714,223.30995 C 60.187574,224.25277 61.026275,224.60491 62.082691,224.36448 C 62.696092,224.22438 63.116379,223.86088 63.337883,223.27966 C 63.551829,222.69845 63.65973,221.82946 63.661624,220.6746 L 63.676776,218.69619 C 63.693813,216.75185 63.881233,215.3755 64.239067,214.56898 C 64.833517,213.20399 66.045185,212.31417 67.875915,211.89576 C 69.545731,211.51335 71.064103,211.76892 72.429099,212.66064 C 73.796008,213.55044 74.731246,215.10286 75.236745,217.31603 C 75.658927,219.16572 75.497994,220.86203 74.753965,222.40499 C 74.009935,223.94797 72.65439,224.97787 70.685445,225.49473 L 69.892201,222.0131 C 70.999726,221.69315 71.690742,221.04377 71.965268,220.06877 C 72.145113,219.41941 72.135643,218.66401 71.940656,217.8045 C 71.722931,216.84842 71.344292,216.13089 70.810412,215.65191 C 70.274618,215.17293 69.644181,215.01769 68.919092,215.1824 C 68.25266,215.33573 67.819123,215.72953 67.618445,216.36755 C 67.482143,216.77837 67.398826,217.60571 67.372329,218.84765 L 67.294713,222.06423 C 67.26063,223.47466 67.037243,224.57653 66.624502,225.37167 C 65.982701,226.60604 64.831633,227.41066 63.169392,227.79119 C 61.465503,228.17929 59.911164,227.89153 58.50451,226.92222 C 57.099749,225.95477 56.141793,224.35501 55.632515,222.12102 C 55.111883,219.8378 55.25577,217.91619 56.067946,216.35619 C 56.878236,214.79618 58.254615,213.79466 60.193266,213.35165"
         style="font-size:10px;letter-spacing:0;word-spacing:0;fill:#b88748;fill-rule:nonzero;stroke:none;font-family:fnt0"
         id="path3377" />
      <path
         d="M 81.402549,238.69573 L 82.77513,242.30229 L 62.737364,243.43634 L 61.491643,240.15539 L 77.235598,227.73592 L 78.646031,231.44661 L 66.442377,240.21408"
         style="font-size:10px;letter-spacing:0;word-spacing:0;fill:#b88748;fill-rule:nonzero;stroke:none;font-family:fnt0"
         id="path3381" />
      <path
         d="M 90.092408,255.9855 L 82.532812,264.25695 L 80.348036,266.44171 L 83.076163,265.12593 L 93.214316,260.36639 L 95.489966,263.55836 L 87.795933,271.63669 L 85.626309,273.84797 L 88.331727,272.59276 L 98.723559,268.09638 L 100.9197,271.17663 L 82.43815,278.20615 L 80.372639,275.31141 L 88.237055,267.06837 L 90.885672,264.4103 L 87.510053,266.04793 L 77.154175,270.79232 L 75.151157,267.9828 L 87.803509,252.77272"
         style="font-size:10px;letter-spacing:0;word-spacing:0;fill:#b88748;fill-rule:nonzero;stroke:none;font-family:fnt0"
         id="path3385" />
      <path
         d="M 110.46906,284.79585 L 103.67052,278.29265 L 100.86291,281.22715 L 107.10294,287.19644 L 104.80835,289.59895 L 98.566433,283.62964 L 95.166224,287.18508 L 102.27903,293.9874 L 99.901154,296.4732 L 90.164342,287.16047 L 103.38844,273.33623 L 112.81098,282.34792"
         style="font-size:10px;letter-spacing:0;word-spacing:0;fill:#b88748;fill-rule:nonzero;stroke:none;font-family:fnt0"
         id="path3389" />
      <path
         d="M 105.641,301.06935 L 116.25245,285.1512 L 119.32324,287.19777 L 115.27745,293.26742 L 121.02903,297.10116 L 125.07482,291.03153 L 128.14562,293.0781 L 117.53416,308.99813 L 114.46336,306.95156 L 119.20018,299.84443 L 113.44859,296.01068 L 108.71178,303.1178"
         style="font-size:10px;letter-spacing:0;word-spacing:0;fill:#b88748;fill-rule:nonzero;stroke:none;font-family:fnt0"
         id="path3393" />
      <path
         d="M 142.946,303.54643 L 134.31295,299.80923 L 132.69804,303.53697 L 140.62491,306.96747 L 139.30346,310.01744 L 131.37847,306.58693 L 129.42467,311.10036 L 138.4572,315.00984 L 137.09219,318.16582 L 124.7276,312.81561 L 132.32508,295.25793 L 144.29208,300.43778"
         style="font-size:10px;letter-spacing:0;word-spacing:0;fill:#b88748;fill-rule:nonzero;stroke:none;font-family:fnt0"
         id="path3397" />
      <path
         d="M 148.38597,301.81169 L 152.17807,302.69582 L 156.02508,317.28682 L 159.05233,304.29557 L 162.42415,305.08125 L 158.0849,323.71236 L 154.46696,322.86989 L 150.49689,308.00817 L 147.41664,321.22848 L 144.04671,320.44468"
         style="font-size:10px;letter-spacing:0;word-spacing:0;fill:#b88748;fill-rule:nonzero;stroke:none;font-family:fnt0"
         id="path3401" />
      <path
         d="M 178.5017,306.41219 L 181.52705,317.19972 L 182.22754,320.20993 L 182.55506,317.19784 L 183.87084,306.07709 L 187.78224,305.83097 L 190.57471,316.63175 L 191.30549,319.64386 L 191.669,316.68287 L 193.34259,305.48452 L 197.11768,305.24786 L 193.32176,324.65329 L 189.77201,324.87481 L 186.93029,313.84304 L 186.07266,310.19104 L 185.67888,313.92255 L 184.23435,325.22126 L 180.7906,325.43709 L 174.5657,306.65831"
         style="font-size:10px;letter-spacing:0;word-spacing:0;fill:#b88748;fill-rule:nonzero;stroke:none;font-family:fnt0"
         id="path3405" />
      <path
         d="M 208.15055,321.83204 L 204.55156,322.65936 L 200.26153,304.01689 L 203.85863,303.18955"
         style="font-size:10px;letter-spacing:0;word-spacing:0;fill:#b88748;fill-rule:nonzero;stroke:none;font-family:fnt0"
         id="path3409" />
      <path
         d="M 222.54296,300.45291 L 213.7433,303.78119 L 215.17835,307.58086 L 223.25669,304.52522 L 224.43048,307.63387 L 216.35403,310.68952 L 218.09391,315.29003 L 227.3006,311.80843 L 228.51605,315.02498 L 215.91482,319.7902 L 209.14847,301.89745 L 221.34454,297.28558"
         style="font-size:10px;letter-spacing:0;word-spacing:0;fill:#b88748;fill-rule:nonzero;stroke:none;font-family:fnt0"
         id="path3413" />
      <path
         d="M 234.42969,305.3111 C 234.97305,306.0059 235.49935,306.4527 236.00862,306.65527 C 236.94198,307.01877 238.04952,306.82188 239.335,306.0608 C 240.10555,305.60643 240.67919,305.14828 241.05405,304.68444 C 241.764,303.80408 241.84351,302.89724 241.29448,301.96578 C 240.97263,301.42054 240.49932,301.13277 239.87646,301.0987 C 239.25927,301.07218 238.39976,301.23311 237.29602,301.58336 L 235.40848,302.17025 C 233.55123,302.74579 232.18246,302.98433 231.30399,302.88968 C 229.82538,302.73822 228.60616,301.85597 227.65198,300.23917 C 226.7811,298.76436 226.56148,297.24221 226.99505,295.66896 C 227.4267,294.0957 228.62131,292.73259 230.57699,291.57772 C 232.21084,290.61407 233.87498,290.25058 235.57129,290.49102 C 237.2695,290.72767 238.65913,291.70647 239.75151,293.4255 L 236.67693,295.24109 C 236.03513,294.28313 235.2078,293.82307 234.19303,293.85715 C 233.52095,293.88367 232.80342,294.1222 232.04612,294.57089 C 231.19987,295.06882 230.63189,295.64624 230.33846,296.30317 C 230.0469,296.95634 230.08854,297.60572 230.46909,298.24562 C 230.81555,298.83441 231.32293,299.12787 231.99123,299.12407 C 232.42476,299.12975 233.23697,298.95558 234.4278,298.60532 L 237.51564,297.70038 C 238.86927,297.30281 239.98816,297.17975 240.8704,297.33119 C 242.24109,297.56785 243.35808,298.4198 244.22517,299.88703 C 245.11499,301.39213 245.31187,302.96161 244.81965,304.59546 C 244.32551,306.2274 243.09114,307.6265 241.1184,308.79271 C 239.10213,309.98166 237.22976,310.42844 235.49368,310.13121 C 233.75948,309.83397 232.3888,308.8287 231.37594,307.11534"
         style="font-size:10px;letter-spacing:0;word-spacing:0;fill:#b88748;fill-rule:nonzero;stroke:none;font-family:fnt0"
         id="path3417" />
      <path
         d="M 250.10208,291.79999 L 253.40006,295.69055 L 256.69237,292.89994 C 257.28115,292.40013 257.66737,291.92683 257.84913,291.47814 C 258.17476,290.6565 257.95703,289.79697 257.19595,288.89959 C 256.55038,288.1404 255.82148,287.86399 255.00551,288.06847 C 254.55114,288.18206 254.02861,288.48307 253.43982,288.96963 L 250.10208,291.79999 z M 245.32741,286.16768 L 248.05552,289.38424 L 251.34972,286.58986 C 251.93851,286.09006 252.31714,285.56562 252.47807,285.01281 C 252.6409,284.4619 252.46102,283.87878 251.94419,283.26537 C 251.36485,282.58382 250.74388,282.3415 250.07179,282.53648 C 249.52466,282.73907 248.92452,283.11582 248.27703,283.66675 L 245.32741,286.16768 z M 251.85899,278.94507 C 252.79802,279.2139 253.63672,279.77997 254.36939,280.64327 C 255.12668,281.53498 255.52424,282.42858 255.56401,283.32408 C 255.58673,283.82577 255.47692,284.39563 255.23269,285.03364 C 256.15659,284.71748 257.04071,284.70232 257.89077,284.99198 C 258.74271,285.27975 259.52272,285.84393 260.23267,286.68263 C 260.96724,287.54782 261.4216,288.49254 261.60147,289.52056 C 261.73211,290.19266 261.73778,290.8477 261.61472,291.48381 C 261.48408,292.20704 261.17929,292.88291 260.70409,293.51524 C 260.22699,294.14568 259.64389,294.75341 258.95475,295.33652 L 252.84535,300.51824 L 240.47321,285.92724 L 247.02751,280.37066 C 248.70301,278.99429 250.31412,278.51908 251.85899,278.94507"
         style="font-size:10px;letter-spacing:0;word-spacing:0;fill:#b88748;fill-rule:nonzero;stroke:none;font-family:fnt0"
         id="path3421" />
      <path
         d="M 266.94809,277.24705 L 269.88447,273.7692 L 262.68646,270.62458 L 266.94809,277.24705 z M 258.01402,269.37884 L 260.72888,266.16795 L 279.39976,273.71052 L 276.80038,276.78888 L 273.03856,275.14558 L 268.81479,280.14556 L 271.03932,283.60445 L 268.53272,286.57302"
         style="font-size:10px;letter-spacing:0;word-spacing:0;fill:#b88748;fill-rule:nonzero;stroke:none;font-family:fnt0"
         id="path3425" />
      <path
         d="M 271.55674,256.90446 L 282.23637,263.37168 L 284.01408,260.4353 C 284.92284,258.93399 284.76191,257.40616 283.52944,255.84805 C 282.85355,254.9961 281.91072,254.20475 280.70286,253.47397 C 279.03873,252.46677 277.61314,251.93479 276.42799,251.87988 C 275.24093,251.82687 274.20913,252.52357 273.33447,253.96999 L 271.55674,256.90446 z M 272.598,249.57394 C 273.62035,248.73335 274.83579,248.28845 276.24056,248.23732 C 277.37648,248.19947 278.47833,248.37176 279.54043,248.75418 C 280.6063,249.13471 281.56617,249.58341 282.42568,250.10404 C 284.60098,251.42171 286.19886,252.94386 287.21741,254.67047 C 288.5843,257.00291 288.57294,259.3202 287.18144,261.61857 L 283.21137,268.17666 L 266.84642,258.26757 L 270.81649,251.71137 C 271.4015,250.77803 271.99597,250.06429 272.598,249.57394"
         style="font-size:10px;letter-spacing:0;word-spacing:0;fill:#b88748;fill-rule:nonzero;stroke:none;font-family:fnt0"
         id="path3429" />
      <path
         d="M 284.7797,230.5498 L 281.12959,239.22072 L 284.87248,240.79775 L 288.22346,232.8368 L 291.28668,234.12798 L 287.93379,242.08704 L 292.46615,243.9973 L 296.28856,234.92502 L 299.45779,236.25972 L 294.22873,248.67732 L 276.59725,241.25214 L 281.65779,229.23401"
         style="font-size:10px;letter-spacing:0;word-spacing:0;fill:#b88748;fill-rule:nonzero;stroke:none;font-family:fnt0"
         id="path3433" />
      <path
         d="M 283.3013,224.45061 L 284.29524,220.68502 L 298.99604,217.26776 L 286.09946,213.86187 L 286.9836,210.51468 L 305.4803,215.40105 L 304.53179,218.99248 L 289.55837,222.52333 L 302.68212,225.98979 L 301.79989,229.337"
         style="font-size:10px;letter-spacing:0;word-spacing:0;fill:#b88748;fill-rule:nonzero;stroke:none;font-family:fnt0"
         id="path3437" />
      <path
         d="M 152.2841,80.564299 L 151.59117,81.53173 C 151.53438,81.613138 150.08418,83.570721 148.00543,82.735813 C 147.76309,82.641152 147.39203,82.381783 146.99446,81.946343 C 147.25382,81.54877 147.33524,81.079251 147.17999,80.653277 L 146.74266,79.449195 C 146.58175,79.008076 146.20119,78.701377 145.6995,78.565065 C 145.77523,77.576807 146.27315,76.698355 147.2368,75.969468 C 148.18908,75.250048 149.08268,74.9566 149.88919,75.094805 C 151.08947,75.295483 151.78051,76.385975 151.78618,76.395441 L 153.07355,78.460938 C 153.07547,78.464723 153.00541,76.028157 153.00541,76.028157 C 153.00351,75.925925 152.924,73.498825 152.03987,70.956243 C 151.23336,68.638944 150.35301,67.190641 148.45602,67.130052 C 147.57757,67.105439 146.6196,67.616611 145.75441,68.570789 C 144.11109,70.384492 142.6571,74.061107 143.38599,78.966426 L 141.82977,79.532497 C 141.6234,78.472296 141.55336,77.605204 141.47385,76.575296 L 141.37729,75.371213 C 141.28073,74.305334 141.32049,73.353047 141.35646,72.432943 C 141.43408,70.498085 141.5117,68.671133 140.24326,66.567771 C 138.71733,64.040333 134.90628,62.37241 134.74726,62.300467 L 134.149,62.050563 L 133.86124,62.624208 C 133.78361,62.781344 131.93773,66.509076 132.394,69.424632 C 132.77262,71.851726 134.00321,73.203484 135.30764,74.634754 C 135.92862,75.316309 136.57232,76.018694 137.18193,76.895249 L 137.87864,77.877827 C 138.48256,78.718414 138.98047,79.430262 139.50868,80.376872 L 137.95436,80.94294 C 135.36065,76.713502 131.88094,74.835434 129.45762,74.500333 C 128.18347,74.326159 127.12138,74.551451 126.46445,75.134561 C 125.04454,76.401122 125.30012,78.076614 126.17478,80.371191 C 127.13465,82.887271 128.63217,84.795631 128.69655,84.875146 L 130.23762,86.825156 L 129.86656,84.371551 C 129.86465,84.360191 129.69615,83.082273 130.48184,82.158384 C 131.01384,81.533623 131.8885,81.185271 133.07744,81.124689 C 134.28909,81.062214 135.23193,81.414352 135.92672,82.128092 C 135.62571,82.561637 135.53672,83.034942 135.69575,83.468487 L 136.13309,84.672571 C 136.28644,85.092865 136.63858,85.395779 137.10431,85.543449 C 137.0797,86.134133 136.96421,86.571466 136.84115,86.79865 C 135.80935,88.725942 133.55264,88.237491 133.34439,88.188271 L 132.1138,87.711178 L 132.50758,88.996673 C 133.53559,92.341981 135.47235,93.068974 136.94149,92.633534 C 138.99941,92.02392 140.52724,89.000459 139.66393,85.092865 L 141.30344,84.49461 C 141.34132,84.651747 141.39054,84.793736 141.42461,84.964127 L 141.45491,85.130729 C 141.77486,86.770252 141.83924,87.11103 141.31481,89.322305 C 140.74685,91.677461 140.33981,93.377568 143.29891,94.380972 C 143.61697,94.492671 144.25686,94.558933 145.31707,94.647914 C 145.48746,94.661166 145.64837,94.67442 145.6995,94.681993 L 146.04784,94.727429 L 146.2845,94.468057 C 146.32047,94.428303 146.44353,94.307136 146.56281,94.187864 C 147.31631,93.443832 147.75553,92.985671 147.93349,92.690331 C 149.55408,90.024687 148.14932,88.983418 146.19931,87.542682 C 144.37425,86.189034 144.20195,85.888013 143.39546,84.428347 L 143.31215,84.276888 C 143.22885,84.129219 143.17205,83.985334 143.10201,83.841448 L 144.74153,83.243197 C 146.59877,86.791077 149.71121,88.123901 151.67826,87.27006 C 153.08302,86.660446 154.09968,84.858107 152.73657,81.633963 L 152.2841,80.564299 z M 191.18205,63.845326 C 190.36419,63.521585 189.28885,63.673048 188.15102,64.27319 C 185.98709,65.416692 183.36308,68.373898 182.37104,73.231883 L 180.71449,73.231883 C 180.88298,72.164108 181.11206,71.325412 181.39224,70.331479 L 181.7122,69.165258 C 181.98672,68.131561 182.35022,67.25122 182.69856,66.399271 C 183.43314,64.608296 184.12984,62.917655 183.65654,60.507588 C 183.08858,57.610981 180.07837,54.738967 179.95341,54.617808 L 179.47443,54.176686 L 179.0087,54.617808 C 178.88184,54.738967 175.87163,57.610981 175.30368,60.507588 C 174.83037,62.917655 175.52518,64.608296 176.26166,66.399271 C 176.61188,67.25122 176.9735,68.131561 177.24801,69.165258 L 177.56606,70.325797 C 177.84816,71.321634 178.07155,72.162216 178.24384,73.231883 L 176.58917,73.231883 C 175.59712,68.37011 172.97124,65.416692 170.80919,64.27319 C 169.67137,63.673048 168.59602,63.521585 167.77816,63.845326 C 166.01179,64.549601 165.68048,66.21185 165.71644,68.665451 C 165.75809,71.357601 166.51348,73.663535 166.54567,73.761981 L 167.32758,76.120926 L 167.8179,73.688144 C 167.8198,73.676786 168.09811,72.417799 169.15262,71.817653 C 169.86636,71.412498 170.80729,71.386001 171.94511,71.734346 C 173.10376,72.090275 173.87241,72.743431 174.27944,73.652175 C 173.84779,73.956982 173.60357,74.371597 173.60357,74.833541 L 173.60357,76.115245 C 173.60357,76.560151 173.83076,76.967193 174.21698,77.264426 C 173.99168,77.811567 173.7342,78.182634 173.54111,78.353024 C 171.91293,79.812693 169.95914,78.58021 169.78118,78.464723 L 168.78535,77.593846 L 168.71719,78.938028 C 168.53921,82.432899 170.11059,83.778974 171.64032,83.871743 C 173.78153,84.002373 176.25027,81.683186 176.7766,77.71501 L 178.52404,77.71501 C 178.5051,77.875934 178.5032,78.027393 178.47482,78.197781 L 178.44831,78.364384 C 178.18705,80.015267 178.13214,80.357936 176.88262,82.254938 C 175.54221,84.273103 174.57857,85.732772 177.01515,87.686568 C 177.2764,87.900501 177.85383,88.18259 178.82127,88.627496 C 178.97462,88.699437 179.12418,88.767592 179.16962,88.790311 L 179.482,88.953128 L 179.7906,88.790311 C 179.83792,88.7657 179.99695,88.693759 180.14842,88.623708 C 181.11206,88.180697 181.6819,87.900501 181.95076,87.684675 C 184.38353,85.732772 183.41989,84.273103 182.08139,82.253042 C 180.82807,80.357936 180.76938,80.015267 180.51002,78.368172 L 180.4835,78.197781 C 180.45701,78.031179 180.45321,77.875934 180.43429,77.71501 L 182.18173,77.71501 C 182.71183,81.683186 185.18247,84.002373 187.32179,83.871743 C 188.85153,83.778974 190.42289,82.432899 190.24302,78.938028 L 190.18433,77.775595 L 189.20365,78.449579 C 189.12035,78.506376 187.09082,79.850558 185.421,78.354917 C 185.22601,78.182634 184.96663,77.813457 184.74135,77.266321 C 185.11999,76.982337 185.35854,76.569617 185.35854,76.115245 L 185.35854,74.833541 C 185.35854,74.364024 185.10863,73.945623 184.68078,73.646494 C 185.0916,72.743431 185.85834,72.088381 187.0132,71.734346 C 188.15291,71.382213 189.09385,71.412498 189.80569,71.817653 C 190.8621,72.417799 191.14042,73.678681 191.1442,73.69004 L 191.64589,76.071702 C 191.64589,76.073595 192.41455,73.761981 192.41455,73.761981 C 192.44673,73.663535 193.20213,71.355707 193.24187,68.665451 C 193.27785,66.21185 192.94465,64.549601 191.18205,63.845326 z M 232.49577,75.136454 C 231.83884,74.553344 230.77672,74.328052 229.5026,74.502228 C 227.0755,74.837326 223.59956,76.717288 221.00585,80.944835 L 219.44965,80.378761 C 219.97406,79.432157 220.47386,78.722202 221.0778,77.883509 L 221.77829,76.899037 C 222.3879,76.020586 223.03159,75.318204 223.65067,74.634754 C 224.95509,73.203484 226.18568,71.851726 226.56623,69.426526 C 227.02249,66.509076 225.1766,62.781344 225.10087,62.626102 L 224.80175,62.048669 L 224.21296,62.302361 C 224.05205,62.37241 220.24289,64.042227 218.71695,66.569665 C 217.44661,68.671133 217.52234,70.498085 217.60187,72.432943 C 217.63972,73.35494 217.67949,74.305334 217.58293,75.371213 L 217.48637,76.569617 C 217.40875,77.601419 217.33302,78.470404 217.12856,79.532497 L 215.57234,78.966426 C 216.305,74.059217 214.84724,70.384492 213.20771,68.570789 C 212.34062,67.616611 211.38455,67.107333 210.5042,67.131946 C 208.60341,67.190641 207.72496,68.638944 206.91845,70.956243 C 206.03432,73.500717 205.95671,75.925925 205.95481,76.028157 L 205.88286,78.512054 L 207.17593,76.395441 C 207.18161,76.384082 207.87075,75.297379 209.06914,75.094805 C 209.87754,74.95849 210.77114,75.253833 211.72154,75.971363 C 212.68896,76.702143 213.18687,77.578699 213.25882,78.570743 C 212.74956,78.708948 212.37658,79.01565 212.21945,79.449195 L 211.78022,80.653277 C 211.62877,81.073573 211.7026,81.533623 211.96387,81.94445 C 211.56629,82.381783 211.19712,82.641152 210.95857,82.737709 C 208.92906,83.549897 207.51483,81.724839 207.38607,81.554448 L 206.74806,80.397693 L 206.22365,81.635858 C 204.86242,84.859999 205.87908,86.662339 207.28384,87.271952 C 209.2509,88.125793 212.36523,86.79297 214.2168,83.245087 L 215.85821,83.841448 C 215.78437,83.985334 215.73136,84.127326 215.64807,84.278784 L 215.56475,84.424559 C 214.75446,85.886123 214.58597,86.189034 212.7628,87.544578 C 210.8128,88.983418 209.40803,90.024687 211.03052,92.696012 C 211.20279,92.985671 211.64769,93.447617 212.40499,94.19733 C 212.52616,94.316602 212.64164,94.432089 212.67571,94.469953 L 212.91427,94.729324 L 213.26072,94.681993 C 213.31373,94.67442 213.48791,94.661166 213.65451,94.646021 C 214.71092,94.560826 215.34136,94.492671 215.667,94.380972 C 218.6223,93.379461 218.21526,91.677461 217.64919,89.322305 C 217.11909,87.112923 217.18347,86.772145 217.50151,85.134515 L 217.53369,84.964127 C 217.56588,84.797524 217.617,84.651747 217.65486,84.49461 L 219.2944,85.092865 C 218.43676,89.002351 219.96269,92.025813 222.01873,92.635429 C 223.48787,93.070866 225.42463,92.343872 226.45264,88.998563 L 226.7934,87.887249 L 225.64233,88.184482 C 225.54579,88.209096 223.17738,88.777059 222.12096,86.800543 C 221.99601,86.571466 221.87673,86.136026 221.85402,85.547235 C 222.3065,85.40903 222.67189,85.102331 222.82713,84.674465 L 223.26636,83.470382 C 223.42539,83.029261 223.33262,82.550278 223.03538,82.124304 C 223.7302,81.414352 224.67491,81.062214 225.88088,81.124689 C 227.07172,81.185271 227.94638,81.533623 228.47649,82.158384 C 229.26406,83.082273 229.09365,84.363976 229.09365,84.375336 L 228.75098,86.783504 C 228.7491,86.787292 230.26178,84.877039 230.26178,84.877039 C 230.32616,84.797524 231.82557,82.887271 232.78354,80.371191 C 233.65631,78.076614 233.91189,76.401122 232.49577,75.136454"
         style="font-size:10px;letter-spacing:0;word-spacing:0;fill:#b88748;fill-rule:nonzero;stroke:none;font-family:fnt0"
         id="path3441" />
      <path
         d="M 166.41258,266.22513 L 172.486,260.74995 C 175.73288,257.88363 177.52384,254.73332 177.51817,250.63641 C 177.52954,244.64818 172.69427,240.98291 166.06802,240.9602 C 165.99798,240.9583 165.92224,240.9583 165.85219,240.9583 C 160.08546,240.94883 157.03171,242.89695 155.50388,245.32026 C 153.97418,247.73412 153.94954,250.52849 153.94766,252.19453 L 153.94766,253.82838 L 161.88402,253.82838 L 161.89537,253.48001 C 161.90105,253.21119 161.90484,252.94234 161.90484,252.67162 L 161.90484,252.03739 C 161.90105,250.79355 161.95028,249.58757 162.46712,248.53684 C 162.93475,247.37629 164.17292,246.96547 165.73292,246.9598 C 167.82112,247.02226 169.01196,247.72655 169.07253,250.87685 C 169.05361,254.17294 167.87983,255.14225 165.37698,257.53338 L 161.62464,260.98851 C 156.85375,265.38454 154.75606,268.69198 154.22975,271.31788 C 153.83974,273.41177 153.61634,275.91838 153.56145,277.4746 L 153.5463,277.84568 L 176.91045,277.84568 L 176.91045,271.84608 L 162.52582,271.84608 C 162.77571,269.73514 164.90369,267.56552 166.41258,266.22513 z M 195.94292,271.20996 C 195.5056,272.05434 194.80321,272.52953 193.21858,272.5655 L 193.22617,272.92333 L 193.20156,272.5655 C 193.03305,272.57686 192.87781,272.58254 192.73014,272.58254 C 191.25345,272.5636 190.58135,272.00512 190.12318,270.9771 C 189.68206,269.9434 189.58551,268.40044 189.59119,266.64731 C 189.59119,266.11721 189.59877,266.58863 189.60635,266.02445 C 189.60255,264.5326 189.6158,262.94229 190.05882,261.78744 C 190.51887,260.64584 191.26669,259.91506 193.05956,259.89422 C 196.25531,259.90747 196.41434,262.25885 196.46355,264.71624 C 196.46355,265.16683 196.4541,265.60604 196.4541,266.02067 C 196.4541,266.8499 196.46546,266.61323 196.46546,267.34024 C 196.47113,269.00058 196.38403,270.34666 195.94292,271.20996 z M 195.21025,253.89464 C 192.11106,253.87759 190.63436,254.84882 189.49653,255.84464 L 189.49653,254.34901 C 189.54954,253.26041 189.49274,250.66482 189.9263,249.37553 C 190.37876,248.09572 191.19474,247.11315 193.24699,246.9598 C 193.39088,246.94653 193.52908,246.94464 193.66729,246.94464 C 196.16443,246.99765 196.05652,248.28125 196.17958,249.45126 L 196.19283,249.79393 L 204.05913,249.79393 L 204.07049,249.44938 C 204.07427,249.3036 204.07807,249.1635 204.07807,249.02339 C 204.08564,246.21955 202.94403,244.14837 201.03568,242.84395 C 199.1292,241.53384 196.509,240.9621 193.50069,240.9602 C 189.38104,240.9602 186.25536,241.73452 184.1785,244.04992 C 182.1111,246.36911 181.16451,251.12108 181.16261,256.89538 L 181.16261,265.53978 C 181.15504,265.71207 181.15504,265.89192 181.15504,266.06421 C 181.15693,270.17059 181.79684,272.52006 183.64651,274.89794 C 185.49806,277.28151 188.54235,278.56889 193.11636,278.56322 L 193.15232,278.56322 C 197.65439,278.56322 200.64757,277.36669 202.46694,274.96609 C 204.28442,272.55982 204.89593,270.08161 204.89972,265.53978 C 204.89783,261.80069 204.20679,258.89462 202.62029,256.89916 C 201.03187,254.89803 198.56123,253.88896 195.21025,253.89464 z M 199.93951,151.78605 L 209.22571,114.37993 L 200.03604,114.37993 L 199.98305,114.67149 L 195.54157,138.20224 C 195.08719,140.26395 194.80889,142.38246 194.5817,144.4915 C 194.57034,144.59183 194.55898,144.69407 194.54384,144.7963 C 194.5306,144.69218 194.51923,144.58994 194.50598,144.48961 C 194.28068,142.38246 193.9986,140.26395 193.54423,138.19088 L 188.53667,114.37993 L 179.35648,114.37993 L 188.86799,151.78605 L 199.93951,151.78605 z M 164.63107,152.66639 C 168.53676,152.66639 171.86314,151.75007 174.23345,149.91366 C 176.60563,148.07534 177.98012,145.30558 177.97632,141.74065 C 177.99148,138.50137 177.07516,136.12538 174.30918,133.78916 C 172.06382,131.88837 167.28913,129.15647 164.69164,127.72898 C 162.18503,126.33558 160.38081,125.37193 160.38081,122.80852 C 160.41299,120.53099 161.76097,119.79452 164.35088,119.7434 C 168.18273,119.7737 168.55002,122.24435 168.60871,125.33406 C 168.60871,125.51392 168.60491,125.70135 168.60303,125.88878 L 168.59924,126.24849 L 176.91423,126.24849 L 176.90856,125.88499 C 176.87637,124.08833 176.96347,121.00429 175.41292,118.33675 C 173.86048,115.65596 170.63634,113.48822 164.29407,113.49959 C 160.08924,113.49959 156.91243,114.361 154.76741,116.07246 C 152.61862,117.78393 151.56411,120.33977 151.56789,123.54309 C 151.56789,125.58965 152.33086,127.66651 153.66746,129.38934 C 156.97302,133.1625 162.12067,135.16552 166.17594,137.92772 C 168.15624,139.14317 169.15585,140.46084 169.16531,142.47522 C 169.11608,145.1049 167.84575,146.37146 164.63107,146.42257 C 161.17027,146.38282 160.07979,144.40441 160.02677,141.23328 C 160.02677,141.03449 160.03055,140.8376 160.04192,140.63502 L 160.04192,138.10568 L 151.45619,138.10568 L 151.45619,141.15566 C 151.4543,144.48961 152.31761,147.38811 154.43233,149.44793 C 156.54515,151.50206 159.85637,152.66828 164.63107,152.66639 z M 231.48611,134.61838 L 222.29835,144.23023 C 234.59668,156.64593 242.38913,174.40238 242.38347,194.21865 C 242.38535,211.31816 236.59212,226.88415 227.09765,238.80951 L 179.47197,189.24707 L 131.85954,238.80951 C 122.36317,226.88415 116.57184,211.31816 116.57374,194.21865 C 116.56805,174.40049 124.36052,156.64214 136.65883,144.22834 L 127.47296,134.61649 C 112.53362,149.55016 103.28905,170.7693 103.28148,194.21865 C 103.28336,217.37453 112.30832,238.36272 126.91825,253.26041 L 131.70998,258.14869 L 179.47197,208.4272 L 227.24532,258.14869 L 232.03893,253.25851 C 246.64508,238.36081 255.67193,217.37453 255.67381,194.21865 C 255.66624,170.76741 246.42358,149.55206 231.48611,134.61838 z M 132.064,228.63159 L 132.18329,228.50665 L 132.18517,228.51043 L 179.47387,179.06347 L 226.7739,228.51043 L 226.77581,228.50665 L 226.89507,228.6297 C 233.00637,218.87397 236.54857,207.15688 236.55046,194.60107 C 236.54668,177.884 230.27635,162.6531 220.01135,151.55886 C 219.23324,150.71828 218.42484,149.90798 217.60129,149.11662 L 208.40973,158.719 C 209.04018,159.32483 209.65736,159.9439 210.25562,160.5876 C 218.2412,169.21308 223.25822,181.22553 223.25631,194.60107 C 223.25631,198.02779 222.91743,201.35606 222.29078,204.56885 L 179.47197,159.83599 L 136.66452,204.57075 C 136.03974,201.35795 135.69898,198.02779 135.70087,194.60107 C 135.69898,181.22553 140.7141,169.21308 148.70157,160.5876 C 149.30171,159.94201 149.92079,159.32104 150.54934,158.71521 L 141.35968,149.11283 C 140.53425,149.90608 139.72394,150.71638 138.94583,151.55886 C 128.68083,162.6531 122.4105,177.884 122.40861,194.60107 C 122.40861,207.15688 125.95081,218.87586 132.064,228.63159"
         style="font-size:10px;letter-spacing:0;word-spacing:0;fill:#ffffff;fill-rule:nonzero;stroke:none;font-family:fnt0"
         id="path3445" />
    </g>
  </g>
</svg>
