<?xml version="1.0" encoding="UTF-8"?>
<!-- Generator: Adobe Illustrator 17.0.0, SVG Export Plug-In . SVG Version: 6.00 Build 0)  -->
<!DOCTYPE svg PUBLIC "-//W3C//DTD SVG 1.1//EN" "http://www.w3.org/Graphics/SVG/1.1/DTD/svg11.dtd">
<svg version="1.1" id="Ebene_1" xmlns="http://www.w3.org/2000/svg" xmlns:xlink="http://www.w3.org/1999/xlink" x="0px" y="0px" width="425.197px" height="425.197px" viewBox="0 0 425.197 425.197" enable-background="new 0 0 425.197 425.197" xml:space="preserve">
<g>
	<circle fill="#FFFFFF" cx="212.599" cy="212.599" r="205.424"/>
	<g>
		<g>
			<path d="M82.069,213.251c0-72.399,58.898-131.297,131.294-131.297c72.399,0,131.297,58.898,131.297,131.297     c0,72.396-58.898,131.292-131.297,131.292C140.967,344.543,82.069,285.647,82.069,213.251z M77.599,213.251     c0,74.859,60.904,135.763,135.765,135.763c74.862,0,135.768-60.903,135.768-135.763c0-74.862-60.906-135.766-135.768-135.766     C138.503,77.485,77.599,138.389,77.599,213.251z"/>
		</g>
		<g>
			<path fill="none" d="M135.802,73.897c-4.829,0.817-7.688,1.838-12.245,3.812c-1.358,0.543-2.177,1.019-3.471,1.631     c-0.677,0.339-1.699,0.271-1.902,1.019c-0.274,0.885,1.497,0.547,2.378,0.818c8.643-0.069,13.539-0.271,22.178-0.271     c6.938,0,11.092-0.339,17.689-2.381c1.971-0.613,2.992-1.702,4.896-2.452c2.584-1.021,8.334-2.813,9.834-5.056     c-5.035,0-11.668,0.974-16.703,0.974C149.612,71.991,144.511,72.399,135.802,73.897z"/>
			<path fill="none" d="M141.455,55.345c3.606-1.766,5.854-2.515,9.253-4.624c6.53-4.083,9.728-7.28,15.172-12.722     c-8.367,4.149-13.809,3.947-22.79,6.53c-7.349,2.108-11.703,4.082-17.076,9.455c-1.838,1.837-2.518,3.333-4.354,5.17     c-2.72,2.723-4.491,4.217-6.462,7.551c5.646-2.311,8.845-3.671,14.626-5.647C134.586,59.428,136.9,57.593,141.455,55.345z"/>
			<path fill="none" d="M293.982,50.495c-12.047-5.988-20.276-5.17-32.522-10.272c2.112,3.605,4.358,4.898,7.552,7.552     c5.104,4.287,8.779,5.644,14.9,8.162c5.302,2.179,7.755,4.626,13.056,6.805c5.173,2.107,8.916,2.041,12.997,5.92     c-1.089-2.042-2.107-2.997-3.468-4.831C302.078,58.115,300.44,53.691,293.982,50.495z"/>
			<path fill="none" d="M269.043,71.682c-5.173,0-8.165,0.203-13.332,0.271l-1.638,0.818c4.288,1.699,6.87,2.176,11.093,4.014     c8.091,3.535,13.061,5.983,21.839,5.983c6.389,0,13.807-1.199,20.201-1.402c-5.44-1.36-11.157-4.107-16.533-5.673     C282.38,73.313,277.608,71.682,269.043,71.682z"/>
			<path fill="#004E95" d="M335.735,91.687c0.865-0.854,1.707-1.85,2.373-2.847h0.011c0.826-1.22,1.385-2.428,1.385-3.353     c0-3.897-3.63-6.449-7.26-6.449c-1.335,0-3.338,0.565-4.194,1.095c-4.213-11.73-16.962-30.404-31.131-37.99     c-12.219-6.516-27.327-7.948-39.279-10.57c-6.914-1.543-17.581-8.397-18.921-8.366h-2.305v1.882     c1.038,4.33,8.457,6.624,10.533,9.779c1.548,2.485,2.735,5.762,5.09,7.91c3.955,3.625,9.187,6.511,12.347,9.465     c13.699,12.688,29.584,13.258,41.833,20.524c-19.37-3.999-20.567-7.159-35.74-7.159c-4.505,0-8.096,0.139-13.174-0.353     c0.475-0.26,1.084-0.45,1.01-0.799c5.182,0.082,10.083-0.467,14.578-1.79c-5.02-1.877-10.099-2.272-14.662-4.215     c-3.027-1.278-5.351-4.053-7.637-3.987c-6.245,0.201-15.398-4.84-20.681-8.913l5.633-0.352     c7.284,1.405,15.424,4.428,22.282,5.213c-5.241-4.614-11.857-8.054-12.467-14.311c-2.397,1.07-4.965,3.189-6.31,3.189     c-1.341,0-1.893-0.939-8.343-0.539c-2.211,0.136-4.753,1.615-6.968,1.615c-17.191,0.47-17.726,0.537-19.069,0.537     c-1.34,0-5.081-1.878-7.23-2.015c-3.761-0.336-8.053,0.54-11.816,0.2c-1.812-0.131-3.659-2.455-4.995-2.982     c-0.264,7.076-9.169,11.173-12.467,14.289c8.306,0.309,16.364-5.195,24.425-5.195c1.343,0,2.564-0.029,3.492,0.305     c-6.963,6.142-14.643,7.358-22.366,9.506c-6.846,1.88-14.074,5.835-20.063,7.05c4.136,3.098,11.362,1.13,14.498,3.78     c-0.93,0.333-1.892-0.969-22.84-0.233c-5.707,0.203-22.887,7.521-24.699,7.521c-1.343,0-0.807-0.271-0.807-0.271     c17.719-9.361,38.069-11.569,56.132-32.047c1.612-1.815,2.072-5.027,3.953-6.976c1.409-1.479,9.743-5.828,9.71-8.849v-1.763     h-2.318c-1.342-0.046-10.622,5.605-15.728,7.284c-4.567,1.477-9.53,2.471-14.429,2.673     c-17.726,0.739-47.109,17.564-55.767,40.121c-1.076,2.82-1.888,5.278-3.371,6.819c-1.463-0.531-2.893-1.082-4.232-1.082     c-2.082,0-7.252,1.612-7.252,5.91c0,0.156,0.908,2.146,1.867,3.895h-0.012c0.66,1.199,1.369,2.333,1.903,2.828     c-4.564,4.983-7.354,11.21-9.577,15.771c2.487-1.599,4.567-1.563,6.609-2.362c1.135-2.776,2.97-6.74,6.424-8.854     c1.86,1.939,4.399,3.761,5.408,3.761c8.419,0,2.732-7.63,5.561-11.154h0.003c0.849-1.053,2.461-1.735,5.447-1.735l24.706,1.073     c16.787,0,33.061-2.94,51.998-17.107c1.678-1.275,4.284-0.363,5.828-0.832c3.293-1.073,6.448-2.485,9.856-3.782     c-1.731-1.33-3.936-2.853-5.616-2.986c-9.668-0.873-13.99-1.078-17.501-0.909c2.089-1.855,3.536-3.739,5.214-4.346     c7.386-2.688,26.228-15.16,28.379-15.16c0.667,0,29.137,15.151,33.064,19.497c-5.129-0.161-8.373,0.444-16.962,0.917     c-1.612,0.065-4.249,1.946-5.069,3.593c3.936,1.229,7.689,2.502,11.447,3.711c1.005,0.337,2.918-0.399,3.66,0.277     c6.177,5.843,28.516,16.589,36.773,16.589h36.392c0.125,0,7.858-2.09,9.303,1.196h0.011c0.132,0.339,0.157,0.769,0.157,1.22     c0,2.888-1.884,9.937,5.099,9.937c1.815,0,4.584-3.058,5.41-4.297c3.823,3.166,5.015,6.268,6.222,9.594     c2.255,0.735,4.282-0.354,6.774,2.189C343.376,101.905,338.978,96.414,335.735,91.687z M121.66,59.155     c1.836-1.837,2.516-3.333,4.354-5.17c5.373-5.372,9.728-7.346,17.076-9.455c8.98-2.583,14.422-2.381,22.79-6.53     c-5.444,5.442-8.642,8.639-15.172,12.722c-3.399,2.108-5.647,2.858-9.253,4.624c-4.555,2.248-6.868,4.083-11.63,5.714     c-5.781,1.976-8.98,3.336-14.626,5.647C117.168,63.372,118.939,61.878,121.66,59.155z M165.326,76.073     c-1.905,0.75-2.926,1.838-4.896,2.452c-6.597,2.042-10.751,2.381-17.689,2.381c-8.639,0-13.535,0.203-22.178,0.271     c-0.882-0.271-2.653,0.066-2.378-0.818c0.203-0.747,1.225-0.679,1.902-1.019c1.294-0.613,2.112-1.088,3.471-1.631     c4.557-1.973,7.416-2.995,12.245-3.812c8.709-1.497,13.81-1.906,22.654-1.906c5.035,0,11.668-0.974,16.703-0.974     C173.661,73.259,167.91,75.052,165.326,76.073z M287.005,82.77c-8.778,0-13.748-2.449-21.839-5.983     c-4.223-1.838-6.805-2.315-11.093-4.014l1.638-0.818c5.167-0.069,8.159-0.271,13.332-0.271c8.565,0,13.337,1.631,21.63,4.013     c5.376,1.565,11.093,4.313,16.533,5.673C300.811,81.57,293.394,82.77,287.005,82.77z M296.969,62.741     c-5.301-2.179-7.754-4.626-13.056-6.805c-6.121-2.518-9.796-3.875-14.9-8.162c-3.194-2.654-5.44-3.947-7.552-7.552     c12.245,5.102,20.475,4.284,32.522,10.272c6.458,3.197,8.096,7.62,12.516,13.335c1.36,1.834,2.379,2.789,3.468,4.831     C305.885,64.781,302.142,64.848,296.969,62.741z"/>
		</g>
		<g>
			<path fill-rule="evenodd" clip-rule="evenodd" fill="#004E95" d="M368.033,154.441c-2.518-10.067-5.92-15.508-12.724-23.331     c-4.278-4.965-6.662-7.824-12.24-11.36c-4.97-3.13-7.754-5.037-12.997-7.621c0,0.547,0.821,3.605,1.637,4.899     c1.152,1.768,1.766,3.061,2.988,4.829c3.812,5.509,6.606,8.027,11.364,12.788C353.75,142.333,368.033,154.441,368.033,154.441     L368.033,154.441z M345.591,69.922c18.149,22.241,40.102,47.86,40.102,71.694c0,5.372,0.534,7.255,0.534,8.594     c0,3.495-3.219,16.651-3.219,17.73c0,1.61,6.987,2.819,6.987,7.25c0,2.954-3.393,4.342-5.979,5.412     c-0.479,1.907-2.616,5.329-2.616,6.674c0,1.342,1.608,4.566,1.608,5.907c0,1.342-3.273,7.675-6.242,11.539     c-0.742-5.603-0.197-10.976-0.692-16.218c-4.128-1.995-8.1-2.777-8.1-6.602c0-1.343,4.292-9.669,4.292-11.011     c0-3.426-16.397-17.905-17.609-18.712c-8.862-5.909-23.58-17.679-29.489-27.617c-3.556-6.043-4.308-14.101-11.358-20.21     c-1.544-1.343-5.994-1.751-6.514-4.212c1.196-0.662,3.194-1.226,4.54-1.226c10.138,0,27.485,8.643,35.403,14.147     c19.539,13.628,29.321,33.331,32.847,49.773c0.271-0.926,1.314-2.151,1.314-3.493c0-1.34-4.767-12.176-5.771-18.216     c-2.621-15.577-8.065-32.842-21.907-49.195c-0.331,0.46-0.257-0.269-0.257,1.075c0,7.923,10.177,24.056,12.812,29.751v1.913     c-5.688-2.962-19.593-12.825-18.921-19.605c0.068-1.007-1.538-1.514-1.805-2.592c-0.741-2.616-1.756-7.858-1.756-9.199     C343.796,91.931,344.335,87.346,345.591,69.922L345.591,69.922z"/>
		</g>
		<g>
			<path fill-rule="evenodd" clip-rule="evenodd" fill="#004E95" d="M56.922,153.113l-0.616,3.979     c6.699-4.241,10.876-10.167,16.471-15.765c8.143-8.139,14.339-10.633,20.699-20.046c1.782-2.627,4.275-7.398,5.713-10.282     c-10.004,6.612-17.569,9.44-25.796,18.176c-3.052,3.219-4.697,5.515-7.834,8.652C61.232,142.152,58.703,147.264,56.922,153.113     L56.922,153.113z M80.408,70.461l1.259,21.738c0,13.16-4.626,21.713-21.932,32.433c4.227-9.981,9.054-20.172,12.626-30.306     v-2.403c-5.392,6.889-11.134,16.31-14.559,23.29c-2.89,5.907-4.415,13.849-5.892,19.489c-1.812,6.916-6.769,19.605-6.81,20.948     v6.194c0.304-0.085,0.495,0.529,0.772,0.999c2.228-9.339,7.022-19.477,11.99-28.339c3.895-6.982,13.98-16.473,21.766-21.978     c6.38-4.499,24.396-13.611,32.923-13.611c1.341,0,4.359,0.544,6.713,1.341c-13.162,3.486-13.619,18.426-20.131,26.82     c-4.365,5.64-11.117,12.193-17.024,17.227c-1.01,0.875-28.377,20.546-28.377,26.589c0,0.805,1.656,6.112,4.043,8.297     c0.225,0.446,0.254,1.371,0.254,2.714c0,3.154-1.39,5.639-7.647,6.137c-0.314,0.581-1.486,5.118-0.564,17.202     c-1.245-0.991-6.29-12.663-6.29-13.4c0-1.345,1.073-3.493,1.073-4.836c0-6.916-8.596-6.982-8.596-12.352     c0-4.097,5.428-4.995,7.538-6.268c-3.764-10.972-3.239-10.655-3.239-18.978C40.305,118.722,52.183,104.047,80.408,70.461     L80.408,70.461z"/>
		</g>
		<g>
			<path fill-rule="evenodd" clip-rule="evenodd" fill="#004E95" d="M46.02,244.436c-0.339-7.821-0.477-11.386-2.994-18.934     c-1.155-3.471-2.379-6.329-3.263-9.799c-2.654-10.201-2.654-16.641-8.368-25.685l-0.544-1.091     c-0.203,1.426-0.829,6.355-0.829,7.784c0,8.638,0.964,9.358,0.964,17.999c0,7.822,2.585,12.38,6.938,18.907     C40.647,237.767,42.144,241.447,46.02,244.436L46.02,244.436z M49.23,223.003c0.285-0.465,0.205-1.353,0.208-8.355     c2.351-14.658,8.025-27.245,16.824-41.48c1.878-3.089,5.432-5.698,8.352-5.942c-1.553,6.152-3.696,13.872-3.696,15.216     c0,1.343,2.354,10.186,2.69,15.559c0.669,9.131,0.537,12.106,0.537,13.446c0,14.168-15.45,45.133-14.06,52.308     c-4.636-1.634-4.204-9.202-4.204-12.561c0-14.972,6.654-36.585,10.023-52.118v-5.104c-7.079,7.255-5.872,17.558-8.089,24.338     c-0.873,2.755-1.354,6.204-2.693,9.359c-0.742,1.609-2.463,3.386-2.463,4.727c0,1.343,1.609,9.131,1.609,10.474     c0,1.341-1.073,7.251-1.073,8.593c0,1.343,2.144,10.425,3.084,16.15c4.408-1.764,9.808,2.719,9.808,6.95     c0,1.343-2.688,4.564-2.688,5.906c0,1.347,4.281,8.772,5.808,13.37c-3.537-2.134-6.737-3.73-9.952-5.487     c4.165-11-13.045-7.479-13.045-14.865c0-2.282,3.489-4.663,5.378-5.686c-20.091-25.167-28.473-46.013-28.473-68.977     c0-1.343,1.073-12.893,1.073-14.235c0-2.953-3.224-15.373-3.224-16.381c0-2.485,4.186,1.794,8.145,8.174     c4.094,5.37,10.578,11.021,12.057,16.191C44.189,202.913,46.199,212.977,49.23,223.003L49.23,223.003z"/>
		</g>
		<g>
			<path fill-rule="evenodd" clip-rule="evenodd" fill="#004E95" d="M379.68,242.862c3.402-4.9,6.735-8.027,8.911-13.54     c1.295-3.263,1.632-5.307,2.725-8.706c0.811-2.652,1.765-4.079,2.176-6.802c1.019-6.259,1.429-9.864,1.429-16.189v-7.996     l0.203-0.714l-0.203-1.086v1.8L379.68,242.862L379.68,242.862z M351.669,167.151c2.878,1.432,7.067,3.682,8.546,6.569     c7.116,13.562,13.994,26.935,16.507,40.381V223c4.564-11.386,3.654-26.223,12.051-36.966c2.419-3.088,5.698-6.436,8.052-9.661     c1.81-2.482,3.531-8.633,7.596-9.156c-1.547,7.226-2.605,15.224-2.605,16.567c0,1.343,1.067,13.16,1.067,14.503     c0,25.109-9.722,45.152-28.47,69.542c2.205,2.112,5.375,3.979,5.375,5.928c0,4.968-10.548,7.415-11.423,7.886     c-2.479,1.413-1.409,5.051-1.726,6.782c-2.592,1.156-5.773,2.741-9.303,4.891c0.974-4.584,5.257-11.5,5.257-12.847     c0-1.342-2.68-4.563-2.68-5.906c0-1.815,1.913-6.443,5.069-6.846c1.072-0.135,2.685-0.135,4.174-0.29     c0.118-0.304,3.643-13.951,3.643-16.233c0-1.341-1.068-6.982-1.068-8.323c0-1.343,1.612-9.131,1.612-10.474     c0-1.342-2.003-3.074-2.537-4.752c-1.547-4.701-2.23-9.777-3.035-14.544c-0.134-1.007-0.194-2.181-0.53-3.188     c-0.133-0.537-0.203-1.676-0.538-2.685c-0.134-0.537-0.272-1.694-0.539-2.7c-0.668-2.821-3.101-7.072-5.949-10.539     c-0.332,0.928-0.302,1.882-0.302,3.223c0,12.019,10.201,35.787,10.201,54.251c0,4.298,0.584,7.925-4.114,11.802     c-1.79-7.717-2.917-16.133-5.731-23.252c-3.832-9.666-8.416-20.172-8.416-30.18c0-1.339-0.065-4.317,0.534-11.302     c0.41-4.831,2.69-13.674,2.69-15.016c0-3.828-1.726-9.162-3.407-13.936V167.151L351.669,167.151z"/>
		</g>
		<g>
			<path fill="#004E95" d="M354.196,249.327c4.025,3.758,3.565,12.007,3.565,16.104c0,21.215-9.816,51.42-28.52,69.401     c18.456-10.02,40.052-31.022,54.62-50.711c-12.041,4.656-23.489,24.516-35.685,30.652c2.091-5.14,4.321-10.882,7.61-15.921     c1.281-1.946,34.271-26.439,39.375-26.371h3.388c-11.879,22.618-34.519,58.194-62.983,69.005     c-5.232,1.943-11.271,3.955-16.566,6.191c-0.753,1.532-0.808,4.272-1.213,5.142c-1.004,2.418-5.211,4.461-6.492,4.461     c-1.341,0-4.56-2.685-5.905-2.685c-1.34,0-13.16,4.831-14.504,4.831c-1.341,0-1.73-0.565-2.903-1.202v-1.918     c3.872-1.691,8.13-4.357,12.314-6.89c-0.519-0.875-1.082-2.077-1.082-3.418c0-4.699,3.758-6.979,6.983-6.979     c2.146,0,3.645-0.22,5.133,2.147c1.39-1.533,4.03-4.438,6.245-6.251c0.871-0.739,2.463-0.118,3.21-0.857     c15.707-15.108,20.281-32.204,26.591-47.512c2.077-5.107,3.412-10.722,5.011-15.99c0,0,0.079-0.372-0.233-0.832     c-11.889,18.746-18.455,39.337-28.459,58.941c-0.613,1.145-2.607,2.803-5.016,3.87c-0.129-0.769-0.667-1.037-0.667-2.382     c0-1.341,2.686-5.935,3.021-9.159c2.151-21.284,16.181-42.176,26.384-54.396C351.046,262.237,352.663,255.025,354.196,249.327     L354.196,249.327z"/>
		</g>
		<g>
			<path fill="#004E95" d="M71.786,249.86c1.473,4.14,2.001,11.812,5.625,15.101c12.358,11.147,15.098,21.02,21.742,32.97     c2.957,5.238,3.318,12.361,4.664,18.74c0.739,3.695,4.169,10.598,4.156,11.941v2.731l-1.312,1.227     c-4.578-2.379-5.769-8.411-7.446-11.97c-7.588-15.912-13.807-34.068-24.825-49.802c-0.323,0.46-0.244-0.267-0.244,1.076     c0,1.346,5.483,17.021,8.707,24.877c4.165,10.273,8.556,20.48,16.279,30.149c4.9,6.176,8.507,7.094,15.569,14.267     c2.362-2.409,3.76-2.147,5.102-2.147c4.701,0,6.985,3.69,6.985,7.253c0,1.334-0.566,2.27-1.085,3.145     c4.18,2.532,8.454,5.203,12.887,7.512c-0.551,1.275-2.136,2.498-3.477,2.498c-1.344,0-13.428-4.831-14.774-4.831     c-1.339,0-4.297,2.685-5.639,2.685c-3.762,0-8.506-4.669-6.691-8.758c-17.106-6.567-34.12-15.023-50.101-31.071     c-14.301-14.435-19.697-29.771-31.002-44.892c0.777-0.147,0.238-0.686,1.583-0.686c8.928,0,38.753,23.069,41.306,26.428     c3.291,4.363,4.855,9.7,7.486,14.596v1.928c-12.427-9.098-20.872-25.708-35.406-30.184c14.747,16.6,35.854,41.972,55.944,49.669     c-22.041-20.07-25.416-40.628-29.581-61.065c-0.001-8.085-0.539-8.354-0.539-9.697C67.698,260.661,69.585,252.02,71.786,249.86     L71.786,249.86z"/>
		</g>
		<g>
			<path fill-rule="evenodd" clip-rule="evenodd" fill="#004E95" d="M116.996,365.472c-4.013-0.342-9.727,0.272-9.727,0.272     c9.117,3.131,13.308,5.129,22.288,8.531c3.741,1.424,7.799,1.929,11.47,3.357c7.28,2.858,11.342,2.19,19.235,2.19     c7.754,0,14.898,0.322,22.17-3.03c-6.155-2.518-13.017-3.363-20.702-5.876c-5.578-1.84-11.4-2.928-17.32-3.339     c-3.399-0.206-5.307-0.815-8.706-0.815h-8.026C123.456,366.762,121.214,365.877,116.996,365.472L116.996,365.472z      M264.879,372.829c-5.033,1.355-22.106,3.739-22.106,3.739c3.877,0.955,6.256,1.567,10.271,1.567     c3.397,0,19.678,2.291,21.991,2.291c1.632,0,9.916-1.064,11.543-1.202c5.445-0.544,8.916,0.203,13.808-2.181     c3.333-1.633,5.578-2.053,8.777-3.893c3.205-1.835,7.645-5.37,10.909-7.27c-2.715,1.088-6.795,1.958-9.787,1.958     c-8.505,0-14.049,1.177-22.55,1.177C278.69,369.017,273.651,370.445,264.879,372.829L264.879,372.829z M116.607,325.138h1.957     c25.186,22.749,52.805,13.977,77.833,43.43c0.903-0.52,1.325-2.235,3.004-3.571c0.939-0.741,2.584-0.731,3.929-0.731     c3.626,0,7.25,2.418,7.25,6.711c0,1.345-1.152,3.95-2.688,5.4c1.032,1.435,3.761,4.539,5.106,4.539     c1.339,0,3.57-2.607,5.108-4.046c-1.562-1.968-2.685-5.351-2.685-6.695c0-3.892,5.162-6.448,7.25-6.448     c1.409,0,4.965,2.513,6.492,4.303c7.206-4.135,17.175-15.227,24.564-18.115c6.982-2.681,13.915-5.845,20.963-8.062     c9.939-3.152,22.506-5.021,32.737-16.698h1.973c-7.57,9.073-20.527,34.815-34.898,34.815c-1.345,0-3.036-0.016-4.831-0.821     c4.385-0.99,13.233-4.816,15.146-12.127c-5.622,3.245-11.419,7.018-17.462,9.5c-11.077,4.634-22.49,7.146-33.672,16.616     c0.455,0.337,0,0.797,1.34,0.797c1.341,0,10.598-4.763,16.042-6.301c8.862-2.486,20.508-4.237,29.594-5.513l12.902-0.539     c17.782-1.346,37.865-2.642,51.227-11.246v1.953c-14.627,15.722-38.997,32.927-56.117,32.927h-36.928     c-1.344,0-9.316-1.01-13.545-1.816c-2.018-0.335-6.735-2.379-8.61-4.638c-3.589,1.597-7.322,3.194-10.948,5.113     c8.194,4.737,18.781,10.346,24.682,16.22c-4.03-0.247-7.641,2.548-11.582,4.446c-2.768-3.382-2.957-8.956-8.669-12.239     c-2.952-1.683-8.733-4.941-10.073-4.941c-1.746,0-14.01,8.54-14.683,9.55c-1.342,2.018-2.255,4.776-3.036,7.002     c0,0,0.26,0.638-1.081,0.638c-2.957,0-5.395-3.822-11.537-4.48c6.656-6.196,19.534-13.614,24.693-16.195     c-3.073-1.375-9.128-4.57-10.474-4.57c-1.342,0-4.765,2.884-7.45,3.552c-5.305,1.409-11.321,1.82-16.702,2.359l-27.405,0.539     c-20.542,0.939-45.256-13.447-64.108-33.476v-1.954c14.434,9.763,26.085,7.636,38.348,10.184l13.416,0.534     c18.667,1.275,39.911,4.06,58.486,12.897l0.854-0.821c-17.1-14.425-34.279-13.006-51.244-26.585c0,0-0.326-0.53-0.326,0.811     c0,3.159,11.038,11.147,15.576,11.789c-1.793,0.821-3.489,0.837-4.832,0.837C137.998,359.968,124.957,336.626,116.607,325.138     L116.607,325.138z"/>
		</g>
		<path fill="#004E95" d="M336.75,183.826c-0.569-0.83-0.708-0.958-1.198-0.714c-0.436,0.221-1.453,0.732-5.148-0.364    c-4.178-1.238-7.401-3.047-10.513-4.796c-4.44-2.493-8.63-4.852-14.915-5.116c-6.354-0.268-12.669,2.63-17.749,4.959    c-3.486,1.602-6.498,2.987-8.556,2.896c-5.064-0.225-6.928-1.962-9.286-4.16c-3.165-2.948-7.111-6.616-20.183-8.94    c-7.021-1.25-12.936-0.569-18.643,0.088c-4.605,0.529-8.946,1.029-13.635,0.525l-2.206-0.218    c-4.594-0.435-6.498-0.616-13.322-4.669l-0.282-0.162l0.038,0.323l0.794,7.179l0.012,0.118c0.002,0,0.114,0.022,0.114,0.022    l2.757,0.585c4.53,0.969,7.803,1.67,13.149,1.777c4.519,0.091,8.861-0.321,13.061-0.725c6.453-0.613,12.555-1.194,18.787,0.04    c4.203,0.833,6.453,2.321,9.855,4.574l1.067,0.708l8.734,61.323c-5.157-0.438-8.2-0.384-13.387,0.245    c-6.182,0.742-10.623,3.179-14.915,5.538c-4.174,2.302-8.501,4.677-14.461,5.507c-6.206,0.87-9.806,0.964-16.072,0.421    l-0.187-0.019l0.014,0.191l0.317,4.754l0.009,0.12l0.114,0.031c13.501,3.187,23.03-1.562,31.432-5.756    c4.209-2.098,8.18-4.078,12.175-4.782l0.01-0.003l0.015-0.005c3.946-1.443,8.506-1.394,13.333-1.342    c7.35,0.079,14.945,0.162,21.804-4.822c5.954-4.327,6.977-6.204,8.669-9.312c1.286-2.364,2.884-5.307,7.2-10.529    c2.824-3.427,9.292-4.953,14.02-6.067c2.345-0.551,4.194-0.989,5.164-1.523c7.66-4.228,13.064-10.265,14.465-16.145    C340.155,191.563,339.331,187.607,336.75,183.826z"/>
		<g>
			<path fill-rule="evenodd" clip-rule="evenodd" d="M231.449,196.481c-0.747,3.536-0.96,4.606-1.606,8.874     c-0.104,0.692,0.147,0.842,0.43,1.286c0.751,1.18,3.258,0.786,5.355,0.643c1.923-0.131,4.203,0.653,4.802-1.177     c0.173-0.517,0.189-1.063,0.109-1.393c-1.178-4.804-0.208-4.591-2.355-9.838c-0.599-1.467-4.729-2.378-6.087-0.429     C231.617,195.129,231.652,195.534,231.449,196.481L231.449,196.481z M213.645,234.137c3.517-19.859,4.065-27.805,6.899-46.102     c0.337-2.184,1.033-3.887,2.507-5.537c1.82-2.034,6.75-1.493,11.508-1.409c5.252,0.095,11.943-0.902,13.017,2.094     c0.312,0.876,0.771,1.793,1.083,2.714c5.77,16.677,7.591,28.229,12.412,42.012c0.485,1.381,0.46,2.112,0,3.324     c-0.886,2.336-3.349,2.184-5.78,2.781c-2.191,0.539-3.725,1.271-5.772,0.32c-1.073-0.496-2.004-0.729-2.354-1.925     c-1.067-3.643-1.067-11.337-2.982-11.125c-3.733,0.416-14.217-0.668-14.969,0.937c-1.123,2.418-2.042,12.293-2.992,13.508     c-1.3,1.651-3.09,1.267-5.183,1.474c-2.828,0.281-6.592,0.331-7.23-1.049C213.478,235.442,213.468,235.155,213.645,234.137     L213.645,234.137z"/>
		</g>
		<g>
			<path d="M120.034,279.051c-1.891,1.795-4.44,7.318-4.124,11.884c0.156,2.294,1.007,4.005,2.521,5.088     c0.648,0.468,1.281,0.633,1.935,0.504c1.702-0.333,3.366-2.697,5.522-6.084l-1.346-15.888     C123.14,276.016,121.662,277.502,120.034,279.051z"/>
			<path d="M211.154,255.633l-9.913-92.483l-0.003-0.02l-0.005-0.016c-1.605-4.735-4.048-8.592-7.467-11.786     c-3.216-3.005-7.338-5.45-12.598-7.47c-8.056-3.1-18.387-3.226-29.869-0.374c-9.831,2.443-20.204,6.993-29.212,12.806     l-0.069,0.044l-0.005,0.085l-0.408,7.957l-0.008,0.128l0.126,0.035c17.793,5.173,18.906,25.641,19.883,43.699l0.182,3.309     c0.965,16.667,0.925,29.075-2.25,39.418c-1.689,5.513-4.325,10.549-8.293,15.801l1.417,13.532     c6.637-8.862,16.961-18.894,35.083-23.396l2.11-0.527c14.752-3.682,20.273-5.061,41.104-0.568l0.222,0.05L211.154,255.633z"/>
		</g>
		<g>
			<path fill="none" d="M121.54,143.512c-0.271-2.262-2.784-3.805-5.612-3.452c-2.83,0.358-4.901,2.477-4.633,4.743     c0.275,2.262,2.785,3.808,5.613,3.452C119.741,147.899,121.812,145.775,121.54,143.512z"/>
			<path d="M118.108,151.934c0.227-0.027,0.435-0.096,0.656-0.134l16.033,170.635l4.451-0.423l-16.142-171.792     c3.029-1.802,4.888-4.716,4.513-7.787c-0.556-4.533-5.717-7.631-11.525-6.919c-5.808,0.716-10.063,4.966-9.509,9.5     c0.326,2.661,2.259,4.8,4.957,5.991l15.552,163.932l2.32-0.223l-15.456-162.922C115.263,152.054,116.665,152.109,118.108,151.934     z M111.295,144.803c-0.269-2.265,1.803-4.384,4.633-4.743c2.828-0.354,5.34,1.19,5.612,3.452     c0.272,2.263-1.799,4.387-4.631,4.743C114.081,148.611,111.571,147.065,111.295,144.803z"/>
		</g>
	</g>
</g>
</svg>