<?xml version="1.0" encoding="UTF-8" standalone="no"?>
<!-- Created with Inkscape (http://www.inkscape.org/) -->

<svg
   xmlns:dc="http://purl.org/dc/elements/1.1/"
   xmlns:cc="http://creativecommons.org/ns#"
   xmlns:rdf="http://www.w3.org/1999/02/22-rdf-syntax-ns#"
   xmlns:svg="http://www.w3.org/2000/svg"
   xmlns="http://www.w3.org/2000/svg"
   xmlns:sodipodi="http://sodipodi.sourceforge.net/DTD/sodipodi-0.dtd"
   xmlns:inkscape="http://www.inkscape.org/namespaces/inkscape"
   version="1.0"
   width="300"
   height="395.85858"
   id="svg11123"
   inkscape:version="0.48.2 r9819"
   sodipodi:docname="Logo_Vfl_Osnabrueck.svg">
  <metadata
     id="metadata3249">
    <rdf:RDF>
      <cc:Work
         rdf:about="">
        <dc:format>image/svg+xml</dc:format>
        <dc:type
           rdf:resource="http://purl.org/dc/dcmitype/StillImage" />
      </cc:Work>
    </rdf:RDF>
  </metadata>
  <sodipodi:namedview
     pagecolor="#ffffff"
     bordercolor="#666666"
     borderopacity="1"
     objecttolerance="10"
     gridtolerance="10"
     guidetolerance="10"
     inkscape:pageopacity="0"
     inkscape:pageshadow="2"
     inkscape:window-width="640"
     inkscape:window-height="480"
     id="namedview3247"
     showgrid="false"
     fit-margin-top="0"
     fit-margin-left="0"
     fit-margin-right="0"
     fit-margin-bottom="0"
     inkscape:zoom="0.78666667"
     inkscape:cx="109.88773"
     inkscape:cy="195.84747"
     inkscape:window-x="0"
     inkscape:window-y="0"
     inkscape:window-maximized="0"
     inkscape:current-layer="svg11123" />
  <defs
     id="defs3" />
  <g
     transform="matrix(1.3650296,0,0,1.3650296,-50.442984,-26.579274)"
     id="layer1">
    <path
       d="m 255.39073,170.53925 c 0.75849,62.23848 -39.35096,116.98154 -94.09414,134.64925 -4.5506,1.91843 -9.54737,2.94459 -14.76758,2.94459 -5.04139,0 -9.68158,-0.89231 -14.05371,-2.67693 C 76.750537,287.52079 37.489174,232.73311 38.3369,169.95926 L 38.292282,36.246963 c 32.88146,-9.90462 65.584458,-15.39229 108.236728,-15.43691 42.87535,-0.04462 75.80143,5.48767 108.8171,15.43691 l 0.0446,134.292287 z"
       style="font-size:7.35389996px;letter-spacing:0;word-spacing:0;fill:#ffffff;fill-rule:evenodd;stroke:none;font-family:fnt1"
       id="path3669"
       inkscape:connector-curvature="0" />
    <path
       d="m 161.832,306.39309 -1.02584,-2.45384 0.0892,-0.0446 5.04139,-1.74 4.95215,-1.91847 4.86328,-2.18613 4.72907,-2.36461 4.64019,-2.54311 4.5506,-2.7215 4.4171,-2.94463 4.32751,-3.07845 4.19402,-3.30156 4.05981,-3.43539 3.92632,-3.56923 3.7921,-3.79229 3.65862,-3.88155 3.48014,-4.05999 3.34593,-4.19384 3.21244,-4.32769 3.03361,-4.46154 2.85551,-4.59539 2.72165,-4.72921 2.49856,-4.81848 2.36436,-4.90768 2.14162,-5.04157 1.96316,-5.13077 1.78469,-5.17538 1.56124,-5.30923 1.38314,-5.39844 1.16004,-5.44308 0.93697,-5.53232 0.71387,-5.62152 0.53541,-5.62156 0.2677,-5.71075 0.0446,-5.75541 2.67703,-0.0446 -0.0892,5.84464 -0.26771,5.8446 -0.49079,5.75537 -0.75849,5.71079 -0.98158,5.62152 -1.16004,5.57694 -1.42776,5.44309 -1.60621,5.44305 -1.78469,5.30923 -2.00742,5.22 -2.18624,5.08615 -2.40933,5.04156 -2.54283,4.90768 -2.76627,4.77387 -2.90011,4.68459 -3.12285,4.55077 -3.25706,4.41693 -3.39091,4.28307 -3.56902,4.10461 -3.74784,4.01541 -3.83673,3.8369 -4.01555,3.65847 -4.14904,3.52461 -4.23864,3.30153 -4.41674,3.16768 -4.50634,2.98925 -4.63983,2.81078 -4.77405,2.58769 -4.8183,2.40922 -4.95251,2.18617 -5.086,2.00767 -5.13098,1.78462 0.13385,-0.0446 z m -1.02584,-2.45384 0.0446,0 0.0446,-0.0446 -0.0892,0.0446 z m -14.27715,5.53232 0,-2.67693 0,0 0.49079,0.0446 0.44617,-0.0446 0.49079,0 0.44617,0 0.49079,-0.0446 0.44617,-0.0446 0.49079,-0.0446 0.44617,-0.0446 0.44617,-0.0446 0.49079,-0.0446 0.44618,-0.0446 0.44617,-0.0892 0.44581,-0.0446 0.44618,-0.0892 0.44617,-0.0892 0.44617,-0.0892 0.44617,-0.0892 0.44617,-0.0892 0.44618,-0.13386 0.44617,-0.0892 0.44617,-0.13385 0.44617,-0.0892 0.44618,-0.13385 0.40155,-0.13381 0.44617,-0.13386 0.40156,-0.13385 0.44617,-0.17847 0.40155,-0.13385 0.44618,-0.17847 0.40155,-0.13381 0.40156,-0.17847 0.44617,-0.17847 1.02584,2.45384 -0.44617,0.17847 -0.44582,0.17847 -0.44617,0.17847 -0.44617,0.17843 -0.49079,0.13385 -0.44618,0.17847 -0.44617,0.13385 -0.44617,0.17847 -0.49079,0.13385 -0.44617,0.13382 -0.49079,0.13385 -0.44617,0.0892 -0.49079,0.13386 -0.44617,0.13385 -0.49079,0.0892 -0.49079,0.0892 -0.49079,0.0892 -0.44617,0.0892 -0.49079,0.0892 -0.49079,0.0892 -0.49044,0.0446 -0.49079,0.0892 -0.49078,0.0446 -0.49079,0.0446 -0.49079,0.0892 -0.49079,0 -0.53541,0.0446 -0.49079,0.0446 -0.49079,0 -0.49079,0.0446 -0.5354,0 -0.49079,0 z m 0,0 0,0 0,0 z m -14.45527,-2.72154 0.80311,-2.54308 0.0892,0.0446 0.40155,0.13385 0.40156,0.17843 0.40155,0.13386 0.40156,0.13385 0.40155,0.13385 0.4012,0.13385 0.40156,0.13385 0.40155,0.13382 0.40156,0.13385 0.40155,0.0892 0.44617,0.13385 0.40156,0.0892 0.40155,0.0892 0.44617,0.0892 0.40156,0.0892 0.40155,0.0892 0.44618,0.0892 0.40155,0.0446 0.44617,0.0892 0.44618,0.0446 0.40155,0.0892 0.44617,0.0446 0.44617,0.0446 0.40156,0.0446 0.44617,0.0446 0.44582,0 0.44617,0.0446 0.44617,0.0446 0.44617,0 0.44618,0 0.49078,0.0446 0.44618,-0.0446 0,2.67693 -0.49079,0 -0.49079,0 -0.49079,-0.0446 -0.44617,0 -0.49079,-0.0446 -0.49044,0 -0.44617,-0.0446 -0.49079,-0.0446 -0.44617,-0.0446 -0.49079,-0.0446 -0.44617,-0.0446 -0.49079,-0.0892 -0.44617,-0.0446 -0.44617,-0.0892 -0.44618,-0.0892 -0.49079,-0.0892 -0.44617,-0.0892 -0.44617,-0.0892 -0.44617,-0.0892 -0.44617,-0.0892 -0.44618,-0.13385 -0.44617,-0.0892 -0.44617,-0.13386 -0.44617,-0.13385 -0.44582,-0.13381 -0.40155,-0.13385 -0.44617,-0.13386 -0.44618,-0.17846 -0.44617,-0.13386 -0.40155,-0.17843 -0.44618,-0.13385 -0.40155,-0.17847 0.0892,0.0446 z m 0.80311,-2.54308 0.0446,0.0446 0.0446,0 -0.0892,-0.0446 z m -95.878466,-134.24769 2.632059,0 0,0 0.04462,5.79999 0.267704,5.7554 0.490789,5.71076 0.713875,5.62155 0.936963,5.5769 1.160046,5.53232 1.338518,5.39847 1.561602,5.35385 1.74007,5.22 1.918185,5.17539 2.141626,5.04153 2.320094,4.95229 2.498564,4.8631 2.676676,4.72921 2.855503,4.5954 2.989353,4.50615 3.167465,4.32769 3.346291,4.23846 3.479784,4.05999 3.65861,3.92617 3.79247,3.79229 3.92595,3.61385 4.06017,3.43538 4.23828,3.30153 4.32787,3.1231 4.461359,2.94459 4.55096,2.76616 4.72907,2.58769 4.77368,2.36464 4.9079,2.18614 5.04138,1.96309 5.13098,1.78461 -0.80311,2.54308 -5.26483,-1.82924 -5.086,-2.0077 -5.04139,-2.23075 -4.90789,-2.40923 -4.77369,-2.63231 -4.68481,-2.85539 -4.550599,-2.98924 -4.4171,-3.16768 -4.2829,-3.39077 -4.1494,-3.52462 -4.01519,-3.65847 -3.8817,-3.88151 -3.702869,-4.01541 -3.569377,-4.14922 -3.390908,-4.28308 -3.2567,-4.46154 -3.033971,-4.55077 -2.900119,-4.6846 -2.765909,-4.81848 -2.543182,-4.95229 -2.320096,-5.04154 -2.185885,-5.13076 -1.963158,-5.26462 -1.784689,-5.35385 -1.60622,-5.44309 -1.338515,-5.4877 -1.160049,-5.62152 -0.936603,-5.66617 -0.758494,-5.75537 -0.490788,-5.79999 -0.267705,-5.84464 -0.04462,-5.93384 0,0.0446 z m 2.632059,0 0,0 0,0 z m -1.739716,-134.961537 1.695098,1.24924 0.04462,133.712297 -2.632059,0 -0.04462,-133.712297 0.93696,-1.24924 z m -0.93696,1.24924 0,-0.98154 0.93696,-0.2677 -0.93696,1.24924 z m 109.575243,-16.77539 0,2.67693 0,0 -3.97058,0 -3.8817,0.04461 -3.88134,0.08924 -3.79246,0.13385 -3.70323,0.13385 -3.70287,0.17843 -3.65861,0.17847 -3.61364,0.26771 -3.52476,0.2677 -3.52476,0.26767 -3.47978,0.35693 -3.43553,0.35691 -3.435173,0.40155 -3.34629,0.40156 -3.34629,0.44613 -3.30132,0.44614 -3.25705,0.53541 -3.2567,0.53537 -3.21244,0.5354 -3.21244,0.57999 -3.212085,0.62461 -3.123205,0.66922 -3.167823,0.66926 -3.122847,0.71384 -3.123205,0.71384 -3.123206,0.75845 -3.07823,0.75846 -3.078589,0.80307 -3.078231,0.8477 -3.078587,0.84769 -3.078587,0.89231 -3.078232,0.93692 -0.758493,-2.54307 3.078231,-0.93693 3.123205,-0.89231 3.078589,-0.84769 3.122847,-0.84769 3.078589,-0.80307 3.123205,-0.80308 3.122847,-0.75845 3.167823,-0.71384 3.122848,-0.71384 3.167822,-0.66926 3.21244,-0.66922 3.212084,-0.62461 3.21244,-0.57999 3.25705,-0.58002 3.2567,-0.53537 3.30168,-0.49079 3.34593,-0.49076 3.34629,-0.44613 3.39091,-0.44617 3.435173,-0.35694 3.48014,-0.3569 3.52441,-0.35694 3.52475,-0.31229 3.56938,-0.2677 3.61364,-0.22309 3.70323,-0.22308 3.70287,-0.13382 3.79246,-0.17847 3.79247,-0.08923 3.88134,-0.08924 3.92631,-0.04461 3.97058,-0.04462 z m 0,0 0,0 0,0 z m 110.15561,16.77539 -2.63241,0 0.93696,1.29383 -3.07859,-0.93692 -3.1232,-0.89231 -3.07823,-0.84769 -3.07859,-0.8477 -3.12321,-0.80307 -3.07823,-0.80307 -3.1232,-0.75846 -3.16747,-0.71384 -3.1232,-0.71384 -3.16782,-0.66922 -3.16747,-0.66926 -3.21244,-0.57999 -3.21244,-0.6246 -3.2567,-0.53541 -3.25705,-0.53537 -3.30132,-0.49079 -3.30168,-0.49075 -3.3909,-0.44614 -3.39055,-0.40156 -3.39091,-0.40155 -3.48015,-0.3569 -3.47978,-0.31232 -3.56938,-0.31229 -3.56902,-0.2677 -3.61399,-0.22309 -3.65826,-0.22308 -3.70323,-0.17844 -3.79246,-0.13385 -3.79211,-0.08923 -3.88169,-0.08924 -3.92596,-0.04461 -3.97093,0 0,-2.67693 3.97093,0.04462 3.97057,0.04461 3.8817,0.04462 3.83673,0.13385 3.79246,0.13385 3.74784,0.17844 3.70288,0.17847 3.61399,0.2677 3.61364,0.2677 3.56937,0.26767 3.52441,0.35694 3.48014,0.35694 3.43553,0.3569 3.43516,0.44617 3.39091,0.44614 3.34594,0.49079 3.30167,0.49075 3.30167,0.53537 3.2567,0.58002 3.25706,0.57999 3.21244,0.62461 3.21208,0.66926 3.16782,0.66922 3.21209,0.71384 3.1232,0.71384 3.16782,0.75846 3.12285,0.80307 3.12321,0.84769 3.1232,0.84769 3.12285,0.84769 3.07859,0.89231 3.1232,0.93693 0.93696,1.24924 z m -0.93696,-1.24924 0.93696,0.2677 0,0.98154 -0.93696,-1.24924 z m -1.69545,135.586137 0,-0.0446 0,-134.292287 2.63241,0 0.0446,134.292287 -2.67703,0.0446 z m 0,0 0,0 0,-0.0446 0,0.0446 z"
       style="font-size:7.35389996px;letter-spacing:0;word-spacing:0;fill:#511972;fill-rule:nonzero;stroke:none;font-family:fnt1"
       id="path3671"
       inkscape:connector-curvature="0" />
    <path
       d="m 58.502809,43.028503 c -0.267702,0.71383 -0.490789,0.93692 -0.892344,1.07077 -0.84737,0.22309 -1.382777,-0.6246 -1.605863,-1.3831 l 3.479787,-0.93692 c -0.535406,-2.45384 -2.097009,-3.70305 -3.524403,-3.30153 -1.472369,0.40155 -2.097009,2.23079 -1.561602,4.32769 0.580022,2.09694 1.963156,3.1231 3.569019,2.67692 1.026197,-0.26766 1.695455,-1.07077 1.873924,-2.27537 l -1.338518,-0.17846 z m -2.810527,-1.51692 c -0.133851,-0.93692 0.04462,-1.47233 0.624642,-1.60615 0.53505,-0.17847 1.025838,0.26767 1.338158,1.07074 l -1.9628,0.53541 z"
       style="font-size:7.35389996px;letter-spacing:0;word-spacing:0;fill:#511972;fill-rule:evenodd;stroke:none;font-family:fnt1"
       id="path3673"
       inkscape:connector-curvature="0" />
    <path
       d="m 68.80903,40.485423 c -0.267704,0.71384 -0.490789,0.93693 -0.892344,1.02616 -0.892345,0.22309 -1.383134,-0.6246 -1.561603,-1.42771 l 3.480143,-0.80308 c -0.446172,-2.45384 -1.963158,-3.74767 -3.390909,-3.43538 -1.472011,0.35694 -2.185886,2.14155 -1.695097,4.28307 0.490789,2.09694 1.828949,3.16772 3.479786,2.81078 1.026196,-0.22309 1.695454,-0.98154 1.91854,-2.18614 l -1.338516,-0.2677 z m -2.721651,-1.60615 c -0.133851,-0.93692 0.08924,-1.47229 0.624642,-1.60615 0.580024,-0.08923 1.070813,0.31229 1.338516,1.15998 l -1.963158,0.44617 z"
       style="font-size:7.35389996px;letter-spacing:0;word-spacing:0;fill:#511972;fill-rule:evenodd;stroke:none;font-family:fnt1"
       id="path3675"
       inkscape:connector-curvature="0" />
    <path
       d="m 70.147546,36.826953 0.713876,-0.17847 0.847727,3.65847 -0.713876,0.17847 0.356938,1.56153 2.944376,-0.66922 -0.35658,-1.56153 -0.713873,0.17847 -1.204665,-5.26462 -2.23086,0.53537 0.356937,1.56153 z m 0.401555,-4.99691 c -0.446172,0.08923 -0.713875,0.66922 -0.535406,1.33844 0.133851,0.66926 0.624641,1.1154 1.070813,1.02616 0.490789,-0.13385 0.713875,-0.75845 0.580024,-1.38306 -0.178469,-0.66922 -0.669259,-1.11539 -1.115431,-0.98154"
       style="font-size:7.35389996px;letter-spacing:0;word-spacing:0;fill:#511972;fill-rule:evenodd;stroke:none;font-family:fnt1"
       id="path3677"
       inkscape:connector-curvature="0" />
    <path
       d="m 90.759987,28.305423 c -0.40156,0.04462 -0.62464,0.53537 -0.58003,1.1154 0.08924,0.57998 0.49079,0.98154 0.89235,0.93692 0.40155,-0.04462 0.62428,-0.58002 0.57967,-1.16001 -0.08924,-0.53537 -0.49044,-0.93693 -0.89199,-0.89231 z m -2.27548,0.31232 c -0.40155,0.04462 -0.62464,0.53537 -0.53541,1.11536 0.04462,0.58002 0.44618,0.98154 0.84773,0.93693 0.40156,-0.04462 0.66926,-0.57999 0.58002,-1.11536 -0.08923,-0.58003 -0.49078,-0.98155 -0.89234,-0.93693 l 5.13062,7.76308 -0.71387,0.13385 -0.7585,-5.30924 -2.18588,0.31229 0.22308,1.56153 0.62465,-0.0892 0.44617,3.12306 c -0.26771,0.35694 -0.53541,0.57999 -0.7585,0.57999 -0.35693,0.08924 -0.49078,-0.13385 -0.58002,-0.80307 l -0.62464,-4.28308 -2.27548,0.31232 0.22309,1.56153 0.71387,-0.08923 0.44618,3.25691 c 0.17846,1.33848 0.89234,2.09694 1.78468,1.96309 0.44618,-0.08923 0.89235,-0.3569 1.2939,-0.89231 l 0.08888,0.57999 2.27548,-0.31229 -0.22309,-1.60614 -5.13062,-7.76308 z"
       style="font-size:7.35389996px;letter-spacing:0;word-spacing:0;fill:#511972;fill-rule:evenodd;stroke:none;font-family:fnt1"
       id="path3679"
       inkscape:connector-curvature="0" />
    <path
       d="m 112.84444,33.614663 c -0.40156,0.66922 -0.62464,0.8923 -1.07081,0.93692 -0.84773,0.08924 -1.24929,-0.80307 -1.33852,-1.60615 l 3.52476,-0.40155 c -0.13385,-2.49846 -1.47237,-3.97076 -2.94474,-3.79232 -1.51698,0.13385 -2.40897,1.82923 -2.18588,4.0154 0.22273,2.14152 1.42739,3.39077 3.07823,3.2123 1.07081,-0.13385 1.8293,-0.80307 2.23086,-1.96309 l -1.2939,-0.40151 z m -2.54318,-1.91847 c 0,-0.93693 0.2677,-1.42768 0.84772,-1.51692 0.53541,-0.04461 0.98158,0.44614 1.16005,1.29383 l -2.00777,0.22309 z"
       style="font-size:7.35389996px;letter-spacing:0;word-spacing:0;fill:#511972;fill-rule:evenodd;stroke:none;font-family:fnt1"
       id="path3681"
       inkscape:connector-curvature="0" />
    <path
       d="m 114.85221,30.134663 0.71388,-0.04462 0.22308,3.7477 -0.66925,0.04462 0.0892,1.60615 2.989,-0.22309 -0.0892,-1.60615 -0.71352,0.04462 -0.40155,-5.30923 -2.27548,0.13385 0.13385,1.60615 z m 1.16005,-4.90768 c -0.49079,0.04458 -0.80311,0.57998 -0.75849,1.29382 0.0446,0.66923 0.44617,1.16002 0.93696,1.16002 0.44617,-0.04462 0.80311,-0.62464 0.75849,-1.29387 -0.0446,-0.66922 -0.44617,-1.15997 -0.93696,-1.15997"
       style="font-size:7.35389996px;letter-spacing:0;word-spacing:0;fill:#511972;fill-rule:evenodd;stroke:none;font-family:fnt1"
       id="path3683"
       inkscape:connector-curvature="0" />
    <path
       d="m 120.33977,25.093123 -2.40933,0.17844 0.13386,1.60618 0.80311,-0.04462 0.49078,6.73692 -0.84772,0.08923 0.13385,1.60615 2.36471,-0.17847 -0.0446,-0.80307 c 0.49079,0.57999 0.93697,0.84769 1.47237,0.80307 0.89235,-0.04461 2.00778,-1.02616 1.82931,-3.7477 -0.13385,-2.14152 -1.11543,-3.5692 -2.36471,-3.48 -0.53541,0.04462 -0.89235,0.35694 -1.2939,1.07078 l -0.26771,-3.83691 z m 2.3201,6.37998 c 0.0892,1.16001 -0.22309,1.87385 -0.80311,1.91847 -0.58003,0.04462 -0.98158,-0.62461 -1.07081,-1.74 -0.0892,-1.16001 0.22308,-1.87385 0.84772,-1.91847 0.58003,-0.04462 0.98158,0.58002 1.0262,1.74"
       style="font-size:7.35389996px;letter-spacing:0;word-spacing:0;fill:#511972;fill-rule:evenodd;stroke:none;font-family:fnt1"
       id="path3685"
       inkscape:connector-curvature="0" />
    <path
       d="m 129.21824,32.543883 c -0.44617,0.6246 -0.66926,0.84769 -1.11543,0.84769 -0.84773,0.04462 -1.20466,-0.89231 -1.24928,-1.65077 l 3.52476,-0.22308 c 0,-2.49846 -1.24928,-4.01537 -2.72165,-3.97076 -1.51663,0.08924 -2.54282,1.74 -2.40897,3.92614 0.0892,2.14156 1.24892,3.43538 2.94438,3.34615 1.02619,-0.04458 1.8293,-0.66922 2.27547,-1.8292 l -1.24928,-0.44617 z m -2.45394,-2.05232 c 0.0446,-0.98151 0.35693,-1.42768 0.93696,-1.4723 0.58002,-0.04462 0.98158,0.49079 1.11543,1.3831 l -2.05239,0.0892 z"
       style="font-size:7.35389996px;letter-spacing:0;word-spacing:0;fill:#511972;fill-rule:evenodd;stroke:none;font-family:fnt1"
       id="path3687"
       inkscape:connector-curvature="0" />
    <path
       d="m 140.55066,24.379253 c -0.40156,0 -0.71388,0.44617 -0.71388,1.02616 0.0446,0.58002 0.35694,1.07078 0.75849,1.02616 0.40156,0 0.71388,-0.44614 0.71388,-1.02616 0,-0.57999 -0.35694,-1.02616 -0.75849,-1.02616 z m -2.27548,0.04462 c -0.40156,0 -0.71388,0.44617 -0.71388,1.02616 0,0.58002 0.35694,1.02616 0.7585,1.02616 0.40155,0 0.71387,-0.49076 0.71387,-1.02616 0,-0.57999 -0.35694,-1.02616 -0.75849,-1.02616 l 4.1494,8.34309 -0.75849,0 -0.0892,-5.35385 -2.23086,0.04462 0.0446,1.60615 0.62464,-0.04462 0.0446,3.16772 c -0.26771,0.31228 -0.58003,0.49075 -0.80311,0.49075 -0.35694,0 -0.49079,-0.17847 -0.49079,-0.89231 l -0.0892,-4.32769 -2.27547,0.04462 0.0446,1.60615 0.66926,0 0.0892,3.25691 c 0,1.3831 0.58002,2.18617 1.51698,2.14155 0.49079,0 0.93696,-0.22308 1.38314,-0.71384 l 0,0.62461 2.36471,-0.04462 -0.0446,-1.60615 -4.1494,-8.34309 z"
       style="font-size:7.35389996px;letter-spacing:0;word-spacing:0;fill:#511972;fill-rule:evenodd;stroke:none;font-family:fnt1"
       id="path3689"
       inkscape:connector-curvature="0" />
    <path
       d="m 145.7259,24.290053 -2.40898,-0.04462 0,1.60615 0.80276,0.04462 -0.0892,6.78153 -0.84737,0 -0.0446,1.56153 2.40897,0.04462 0.0446,-0.75846 c 0.40155,0.62461 0.84772,0.89231 1.38313,0.89231 0.84773,0.04462 2.09701,-0.80307 2.14163,-3.56923 0.0446,-2.14152 -0.80311,-3.61386 -2.0524,-3.65847 -0.5354,0 -0.93696,0.2677 -1.38313,0.93692 l 0.0446,-3.8369 z m 1.78469,6.55845 c 0,1.16001 -0.40156,1.87385 -0.98158,1.82923 -0.58003,0 -0.93696,-0.71384 -0.93696,-1.82923 0.0446,-1.16002 0.40155,-1.82924 1.02619,-1.82924 0.58003,0 0.93696,0.66922 0.89235,1.82924"
       style="font-size:7.35389996px;letter-spacing:0;word-spacing:0;fill:#511972;fill-rule:evenodd;stroke:none;font-family:fnt1"
       id="path3691"
       inkscape:connector-curvature="0" />
    <path
       d="m 168.88152,28.037723 -2.40933,-0.13385 -0.0446,0.84769 0,0 c -0.31232,-0.62461 -0.80311,-0.98151 -1.33852,-1.02613 -1.20466,-0.04461 -2.18624,1.42768 -2.32009,3.48 -0.0892,2.00767 0.71387,3.61382 1.87392,3.65844 0.49079,0 0.93696,-0.22305 1.51699,-0.8477 l -0.0446,0.66926 c -0.0446,0.84769 -0.35694,1.69539 -1.2939,1.65077 -0.40155,-0.04462 -0.75849,-0.22309 -1.16005,-0.58003 l -0.84772,1.42772 c 0.44617,0.53537 1.16004,0.80307 2.14162,0.84769 1.96316,0.13385 2.63242,-1.42771 2.72165,-3.25691 l 0.31232,-5.17542 0.80311,0.04462 0.0892,-1.60615 z m -2.5878,3.39076 c -0.0446,1.02616 -0.49079,1.74 -1.07081,1.69539 -0.58003,-0.04462 -0.89235,-0.75846 -0.84773,-1.8292 0.0446,-1.07078 0.44617,-1.74 1.02619,-1.74 0.62465,0.04458 0.93697,0.75845 0.89235,1.87381"
       style="font-size:7.35389996px;letter-spacing:0;word-spacing:0;fill:#511972;fill-rule:evenodd;stroke:none;font-family:fnt1"
       id="path3693"
       inkscape:connector-curvature="0" />
    <path
       d="m 172.85209,33.168483 c -0.49079,0.58003 -0.80311,0.7585 -1.20466,0.7585 -0.89235,-0.08924 -1.11543,-1.02616 -1.07082,-1.82924 l 3.56938,0.26767 c 0.31232,-2.49846 -0.75849,-4.19384 -2.23086,-4.28307 -1.51698,-0.13386 -2.72129,1.38309 -2.89976,3.56923 -0.13385,2.14155 0.84737,3.56923 2.49821,3.70309 1.07081,0.08923 1.96315,-0.44618 2.54318,-1.56154 l -1.20467,-0.62464 z m -2.18624,-2.31998 c 0.17847,-0.93693 0.53541,-1.38307 1.11543,-1.33845 0.53541,0.04462 0.89234,0.62461 0.89234,1.4723 l -2.00777,-0.13385 z"
       style="font-size:7.35389996px;letter-spacing:0;word-spacing:0;fill:#511972;fill-rule:evenodd;stroke:none;font-family:fnt1"
       id="path3695"
       inkscape:connector-curvature="0" />
    <path
       d="m 195.2046,34.060793 c 0.31232,-2.31999 -0.62464,-3.74767 -2.05239,-3.97075 -1.2939,-0.17847 -2.67703,0.84769 -3.03397,3.25691 -0.31232,2.32003 0.62464,3.79232 2.05239,3.97079 1.47237,0.22305 2.72165,-1.07078 3.03397,-3.25695 z m -1.5616,-0.22305 c -0.17847,1.2046 -0.62464,1.87382 -1.24928,1.78462 -0.58003,-0.08924 -0.84773,-0.84769 -0.66926,-2.0077 0.13385,-1.24925 0.58002,-1.87386 1.20466,-1.78462 0.62465,0.08923 0.84773,0.80307 0.71388,2.0077"
       style="font-size:7.35389996px;letter-spacing:0;word-spacing:0;fill:#511972;fill-rule:evenodd;stroke:none;font-family:fnt1"
       id="path3697"
       inkscape:connector-curvature="0" />
    <path
       d="m 211.53379,34.774673 c -0.89235,0.26767 -1.47237,1.02612 -1.69546,2.14152 -0.31232,1.47229 0.0892,3.03386 1.82931,3.34614 1.78433,0.35694 2.67668,-0.98154 2.989,-2.40922 0.22308,-1.11539 -0.0446,-2.05232 -0.80311,-2.63231 0.80311,-0.40155 1.2939,-1.11539 1.47237,-2.09693 0.31232,-1.56153 -0.35694,-2.72151 -1.69546,-2.98921 -1.33816,-0.22309 -2.36435,0.57998 -2.67667,2.14151 -0.17847,0.93693 0,1.82924 0.58002,2.4985 z m 1.2939,-0.44617 c -0.49079,-0.13386 -0.71388,-0.71384 -0.53541,-1.4723 0.13385,-0.80308 0.53541,-1.24925 1.07046,-1.16001 0.5354,0.08923 0.66926,0.75845 0.5354,1.47229 -0.17846,0.80308 -0.5354,1.24925 -1.07045,1.16002 l -0.84773,4.41692 c -0.58002,-0.08923 -0.80311,-0.80307 -0.62464,-1.69538 0.17847,-0.89231 0.66926,-1.4723 1.20466,-1.38306 0.62465,0.13381 0.80276,0.84769 0.62465,1.74 -0.17847,0.93689 -0.62465,1.47229 -1.20467,1.33844 l 0.84773,-4.41692 z"
       style="font-size:7.35389996px;letter-spacing:0;word-spacing:0;fill:#511972;fill-rule:evenodd;stroke:none;font-family:fnt1"
       id="path3699"
       inkscape:connector-curvature="0" />
    <path
       d="m 215.81668,38.343873 c -0.22308,1.69538 0.26771,2.81077 1.42776,3.03386 1.74007,0.31232 2.90011,-1.33848 3.56937,-4.68463 0.62464,-3.34615 0.13385,-5.08615 -1.51698,-5.44305 -1.33852,-0.22309 -2.36472,0.75846 -2.81089,3.07845 -0.35694,1.91846 0.26771,3.12306 1.33852,3.30153 0.49079,0.13385 0.89234,0 1.33852,-0.40152 -0.40156,1.87385 -1.0262,2.72154 -1.56161,2.63231 -0.5354,-0.13386 -0.58002,-0.75846 -0.58002,-1.42772 l -1.20467,-0.08923 z m 3.614,-2.45384 c -0.35694,0.22308 -0.66926,0.31232 -0.93696,0.22308 -0.53541,-0.08923 -0.7585,-0.75845 -0.53541,-1.74 0.17847,-1.02616 0.58002,-1.60615 1.0262,-1.51691 0.71387,0.13385 0.75849,1.29383 0.44617,3.03383"
       style="font-size:7.35389996px;letter-spacing:0;word-spacing:0;fill:#511972;fill-rule:evenodd;stroke:none;font-family:fnt1"
       id="path3701"
       inkscape:connector-curvature="0" />
    <path
       d="m 221.48307,39.593113 c -0.31232,1.65077 0.17847,2.76616 1.29354,3.03387 1.74007,0.40152 2.98936,-1.24925 3.74785,-4.50616 0.75849,-3.34615 0.31232,-5.13077 -1.33852,-5.48771 -1.2939,-0.31232 -2.36471,0.62461 -2.90012,2.94463 -0.40119,1.91843 0.13386,3.12306 1.20467,3.34615 0.49079,0.13385 0.89234,0.04462 1.33851,-0.35694 -0.40155,1.87385 -1.07081,2.67693 -1.65083,2.54308 -0.49079,-0.08924 -0.53541,-0.71384 -0.49079,-1.38307 l -1.20431,-0.13385 z m 3.65826,-2.3646 c -0.31233,0.22305 -0.62465,0.26766 -0.93697,0.22305 -0.49079,-0.13382 -0.66925,-0.80308 -0.44617,-1.78458 0.22309,-1.02616 0.62464,-1.56157 1.11543,-1.47234 0.71388,0.17847 0.66926,1.33848 0.26771,3.03387"
       style="font-size:7.35389996px;letter-spacing:0;word-spacing:0;fill:#511972;fill-rule:evenodd;stroke:none;font-family:fnt1"
       id="path3703"
       inkscape:connector-curvature="0" />
    <path
       d="m 233.12745,42.716173 c -0.62464,0.49079 -0.93696,0.62465 -1.2939,0.49079 -0.89234,-0.22308 -0.93696,-1.20463 -0.71388,-1.96308 l 3.43553,0.93692 c 0.75849,-2.40922 0.0446,-4.28307 -1.38313,-4.64001 -1.47237,-0.40152 -2.94438,0.84769 -3.47979,2.94463 -0.58002,2.09694 0.0892,3.70309 1.73972,4.14922 1.02619,0.26771 1.96315,-0.08923 2.72165,-1.07077 l -1.0262,-0.8477 z m -1.69545,-2.67692 c 0.31232,-0.89227 0.75849,-1.24921 1.33851,-1.11536 0.53541,0.13385 0.75849,0.75846 0.62464,1.65077 l -1.96315,-0.53541 z"
       style="font-size:7.35389996px;letter-spacing:0;word-spacing:0;fill:#511972;fill-rule:evenodd;stroke:none;font-family:fnt1"
       id="path3705"
       inkscape:connector-curvature="0" />
    <path
       d="M 48.19659,172.81465 48.151973,53.691583 c 29.892464,-9.01232 59.651077,-14.05385 98.377037,-14.05385 38.99401,-0.04462 68.93074,4.99691 98.95705,14.05385 l 0,119.658437 c -0.75849,55.90309 -36.18313,103.10617 -85.48301,122.37998 -4.1494,1.74 -8.7,2.67693 -13.47404,2.67693 -4.5506,0 -8.74462,-0.80307 -12.75981,-2.40922 C 84.201257,276.81309 48.955084,228.98541 48.19659,172.81465"
       style="font-size:7.35389996px;letter-spacing:0;word-spacing:0;fill:#511972;fill-rule:evenodd;stroke:none;font-family:fnt1"
       id="path3707"
       inkscape:connector-curvature="0" />
    <path
       d="m 48.063096,53.423883 0.356581,0.2677 0.04462,119.123067 -0.579667,0 0,-119.123067 0.17847,-0.2677 z m -0.17847,0.2677 0,-0.22309 0.17847,-0.04461 -0.17847,0.2677 z m 98.644384,-14.32155 0,0.5354 0,0 -3.56902,0.04462 -3.56938,0.04462 -3.52476,0.04458 -3.43517,0.13385 -3.39091,0.13385 -3.39055,0.13385 -3.30167,0.17847 -3.30168,0.22309 -3.2567,0.26767 -3.21244,0.2677 -3.16782,0.2677 -3.12285,0.3569 -3.07858,0.35694 -3.07823,0.3569 -3.033973,0.40156 -3.03397,0.44614 -2.989,0.44617 -2.94474,0.49075 -2.94473,0.53541 -2.94438,0.53537 -2.90012,0.53541 -2.8555,0.57998 -2.89977,0.62461 -2.855497,0.6246 -2.810884,0.66926 -2.855145,0.71384 -2.810885,0.71384 -2.810885,0.71384 -2.810527,0.75846 -2.810884,0.80307 -2.810885,0.80308 -2.766267,0.84769 -0.178112,-0.53537 2.810528,-0.84769 2.810884,-0.80308 2.810885,-0.80307 2.810527,-0.75846 2.810885,-0.71384 2.810884,-0.71387 2.855145,-0.71384 2.855502,-0.66923 2.855501,-0.6246 2.85515,-0.62464 2.90011,-0.57999 2.90012,-0.57999 2.94438,-0.53541 2.94474,-0.49075 2.94473,-0.49075 2.989,-0.44617 3.03397,-0.44614 3.033973,-0.40156 3.07823,-0.40155 3.12321,-0.3569 3.12285,-0.31232 3.16782,-0.31229 3.21244,-0.2677 3.2567,-0.22309 3.30167,-0.22308 3.30167,-0.17844 3.39056,-0.17847 3.43552,-0.13385 3.43517,-0.08923 3.52476,-0.08924 3.56938,-0.04461 3.56902,0 z m 0,0.5354 0,0 0,0 z m 99.26937,13.78615 -0.58002,0 0.17847,0.26767 -2.81089,-0.84769 -2.81088,-0.80308 -2.81053,-0.80307 -2.81088,-0.75846 -2.81089,-0.75846 -2.85514,-0.71383 -2.85551,-0.66923 -2.8555,-0.66926 -2.85514,-0.6246 -2.90012,-0.62461 -2.90012,-0.57998 -2.89976,-0.58003 -2.94474,-0.53537 -2.94473,-0.53541 -2.989,-0.49075 -2.98935,-0.44617 -3.03397,-0.44614 -3.07823,-0.40155 -3.07859,-0.3569 -3.12285,-0.35694 -3.16782,-0.31229 -3.16783,-0.31232 -3.21208,-0.2677 -3.30167,-0.22305 -3.30168,-0.22309 -3.30131,-0.17847 -3.39091,-0.17847 -3.43517,-0.13385 -3.48014,-0.08923 -3.52476,-0.0892 -3.56902,-0.04462 -3.65861,0 0,-0.5354 3.65861,0 3.56902,0.04461 3.52476,0.04462 3.48014,0.13385 3.43517,0.08924 3.39091,0.17847 3.34593,0.17843 3.30168,0.22308 3.30167,0.22309 3.21208,0.2677 3.16782,0.31229 3.16783,0.31232 3.12284,0.35694 3.12321,0.40152 3.03361,0.40155 3.03397,0.44614 3.03397,0.44617 2.989,0.49075 2.94474,0.49076 2.94473,0.5354 2.94438,0.57999 2.90012,0.58003 2.90012,0.6246 2.85514,0.66922 2.85551,0.66923 2.8555,0.66922 2.85514,0.71387 2.81089,0.75846 2.81088,0.75846 2.85515,0.80307 2.81088,0.80308 2.81089,0.84769 0.22308,0.2677 z m -0.22308,-0.2677 0.22308,0.04461 0,0.22309 -0.22308,-0.2677 z m 0.22308,119.926137 -0.58002,0 0,-119.658437 0.58002,0 0,119.658437 z m 0,0 0,0 0,-0.0892 0,0.0892 z m -85.7061,122.60307 -0.22308,-0.49075 0,0 4.59521,-1.87385 4.46172,-2.05232 4.41675,-2.23076 4.28325,-2.31999 4.23828,-2.49849 4.10479,-2.67692 4.01519,-2.76613 3.8817,-2.94463 3.7921,-3.07844 3.65861,-3.16772 3.56902,-3.34615 3.43553,-3.43538 3.30167,-3.56923 3.16747,-3.70309 3.03397,-3.79228 2.90012,-3.92617 2.72129,-4.01537 2.63242,-4.10461 2.45394,-4.23849 2.31974,-4.32769 2.14163,-4.37231 2.00777,-4.50613 1.82931,-4.59539 1.65084,-4.68463 1.47201,-4.72921 1.2939,-4.81848 1.16004,-4.90768 0.93696,-4.99691 0.7585,-4.99695 0.58002,-5.08615 0.35694,-5.17538 0.17847,-5.17539 0.58002,0 -0.17847,5.22 -0.40155,5.17539 -0.53541,5.08615 -0.80311,5.08618 -0.93696,4.9523 -1.11543,4.95229 -1.33852,4.81848 -1.47201,4.77383 -1.69545,4.68463 -1.82931,4.63998 -1.96316,4.50616 -2.18624,4.41692 -2.31974,4.32769 -2.45394,4.23846 -2.63242,4.14926 -2.76591,4.05999 -2.90012,3.92613 -3.07859,3.79232 -3.16746,3.70308 -3.30168,3.61386 -3.48014,3.43538 -3.5244,3.34615 -3.70323,3.21229 -3.79211,3.07848 -3.92631,2.9446 -4.01519,2.81077 -4.1494,2.63231 -4.19367,2.54308 -4.32787,2.3646 -4.41674,2.18617 -4.50634,2.05229 -4.59522,1.91847 0,-0.0446 z m -0.22308,-0.49075 0,0 0,0 z m -13.34019,3.21229 0,-0.53537 0,0 0.44617,0 0.44617,0 0.44617,-0.0446 0.44618,0 0.44617,-0.0446 0.40155,0 0.44617,-0.0446 0.44618,-0.0446 0.44617,-0.0446 0.40155,-0.0446 0.44618,-0.0892 0.40155,-0.0446 0.44617,-0.0892 0.4012,-0.0446 0.44617,-0.0892 0.40156,-0.0892 0.40155,-0.0892 0.44618,-0.0892 0.40155,-0.0892 0.40155,-0.0892 0.40156,-0.13385 0.44617,-0.0892 0.40156,-0.13385 0.40155,-0.13382 0.40156,-0.0892 0.40155,-0.13386 0.40156,-0.13385 0.35693,-0.13385 0.40156,-0.17847 0.40155,-0.13385 0.40156,-0.17843 0.35694,-0.13385 0.22308,0.49075 -0.40155,0.17847 -0.40156,0.17847 -0.35693,0.13385 -0.40156,0.13385 -0.40155,0.17843 -0.40156,0.13386 -0.40155,0.13385 -0.44618,0.13385 -0.40155,0.0892 -0.40156,0.13385 -0.40155,0.13382 -0.44617,0.0892 -0.40156,0.0892 -0.40155,0.13385 -0.44618,0.0892 -0.40155,0.0892 -0.44617,0.0892 -0.44617,0.0446 -0.4012,0.0892 -0.44617,0.0892 -0.44618,0.0446 -0.40155,0.0446 -0.44617,0.0446 -0.44618,0.0446 -0.44617,0.0446 -0.44617,0.0446 -0.40156,0.0446 -0.44617,0 -0.44617,0.0446 -0.44617,0 -0.44617,0 -0.49079,0 z m 0,0 0,0 0,0 z m -12.84905,-2.40922 0.17847,-0.53541 0,0 0.40156,0.13386 0.35693,0.13385 0.35694,0.13385 0.4012,0.13385 0.35694,0.13385 0.40155,0.13385 0.35694,0.13382 0.40156,0.0892 0.35693,0.13386 0.40156,0.0892 0.40155,0.13385 0.35694,0.0892 0.40156,0.0892 0.40155,0.0892 0.40156,0.0892 0.35693,0.0446 0.40156,0.0892 0.40155,0.0446 0.40156,0.0892 0.40155,0.0446 0.40156,0.0446 0.40155,0.0892 0.40156,0.0446 0.44617,0 0.40155,0.0446 0.4012,0.0446 0.40156,0.0446 0.44617,0 0.40155,0 0.40156,0.0446 0.44617,0 0.40156,0 0,0.53537 -0.40156,0 -0.44617,0 -0.40156,0 -0.44617,0 -0.40155,-0.0446 -0.44617,0 -0.4012,-0.0446 -0.44617,-0.0446 -0.40156,-0.0446 -0.40155,-0.0446 -0.40156,-0.0446 -0.44617,-0.0446 -0.40156,-0.0892 -0.40155,-0.0446 -0.40156,-0.0892 -0.40155,-0.0446 -0.40156,-0.0892 -0.40155,-0.0892 -0.40156,-0.0892 -0.40155,-0.0892 -0.35694,-0.0892 -0.40155,-0.13385 -0.40156,-0.0892 -0.40155,-0.0892 -0.35694,-0.13385 -0.40156,-0.13386 -0.40155,-0.13385 -0.35694,-0.13385 -0.4012,-0.13385 -0.35693,-0.13382 -0.40156,-0.13385 -0.35694,-0.13385 z m 0.17847,-0.53541 0,0 0.0892,0.0446 -0.0892,-0.0446 z m -85.973804,-122.91535 0.579667,0 0,0 0.178469,5.22 0.356939,5.17539 0.580023,5.13076 0.758493,5.08615 0.936962,4.99691 1.115429,4.90772 1.2939,4.86306 1.472367,4.77386 1.650481,4.72921 1.829306,4.5954 2.007774,4.55078 2.141627,4.46154 2.320095,4.32769 2.45359,4.28307 2.587798,4.14923 2.766268,4.05998 2.899763,3.92618 3.03397,3.8369 3.16782,3.70308 3.30132,3.61385 3.43552,3.48 3.52441,3.34615 3.70323,3.2123 3.79246,3.07848 3.881343,2.94459 4.01555,2.81078 4.14904,2.67692 4.19402,2.49846 4.32751,2.36464 4.41711,2.18614 4.50598,2.05232 4.59557,1.87381 -0.17847,0.53541 -4.64019,-1.91847 -4.50598,-2.05232 -4.46172,-2.18613 -4.32751,-2.36461 -4.23864,-2.54307 -4.14904,-2.67693 -4.01555,-2.81078 -3.925963,-2.94463 -3.79246,-3.07844 -3.70323,-3.25691 -3.56902,-3.34619 -3.43553,-3.48 -3.34593,-3.61381 -3.16782,-3.74771 -3.03397,-3.83693 -2.944383,-3.97075 -2.72165,-4.05999 -2.632415,-4.19388 -2.498207,-4.28307 -2.275478,-4.37231 -2.186245,-4.46154 -1.963156,-4.55075 -1.828949,-4.64001 -1.695455,-4.72924 -1.472367,-4.81845 -1.2939,-4.86306 -1.160047,-4.95233 -0.936962,-4.99692 -0.758492,-5.08614 -0.535408,-5.13077 -0.401197,-5.22 -0.17847,-5.26462 z m 0,0 0,0 0,0 z"
       style="font-size:7.35389996px;letter-spacing:0;word-spacing:0;fill:#511972;fill-rule:nonzero;stroke:none;font-family:fnt1"
       id="path3709"
       inkscape:connector-curvature="0" />
    <path
       d="m 126.40736,62.882333 -0.84737,1.47234 -50.237203,29.803046 -1.73972,-2.944596 50.281463,-29.75847 2.54283,1.42768 z m -2.54283,-1.42768 2.54283,-1.51691 0,2.94459 -2.54283,-1.42768 z m 1.74007,115.330757 -2.54318,-1.4723 -0.0446,-112.430777 3.39055,0 0.0446,112.430777 -0.84737,1.4723 z m 0.84737,-1.4723 0,0.98154 -0.84737,0.49076 0.84737,-1.4723 z m -53.672008,29.40153 0.803105,-1.42768 50.326083,-29.44615 1.69545,2.9446 -50.281813,29.40153 -2.542825,-1.4723 z m 2.542825,1.4723 -2.542825,1.47233 0,-2.94463 2.542825,1.4723 z m -1.73972,-114.973817 2.58745,1.4723 -0.04462,112.029217 -3.345935,0 0,-112.029217 0.803105,-1.4723 z m -0.803105,1.4723 0,-0.98154 0.803105,-0.49076 -0.803105,1.4723 z"
       style="font-size:7.35389996px;letter-spacing:0;word-spacing:0;fill:#ffffff;fill-rule:nonzero;stroke:none;font-family:fnt1"
       id="path3711"
       inkscape:connector-curvature="0" />
    <path
       d="m 174.41369,62.659253 -0.80311,1.42771 -48.00598,30.026139 -1.78468,-2.855359 48.00598,-30.02617 2.58779,1.42768 z m -2.58779,-1.42768 2.58779,-1.60615 0,3.03383 -2.58779,-1.42768 z m 1.78468,116.936927 -2.54318,-1.47233 -0.0446,-114.036917 3.3909,0 0,114.036917 -0.80311,1.47233 z m 0.80311,-1.47233 0,0.98155 -0.80311,0.49078 0.80311,-1.47233 z m -51.39688,28.01847 0.84772,-1.42768 48.0506,-28.01847 1.69545,2.90001 -48.05059,28.01844 -2.54318,-1.4723 z m 2.54318,1.4723 -2.54318,1.47233 0,-2.94463 2.54318,1.4723 z m -1.74007,-114.929197 2.58744,1.42768 0,112.029217 -3.39055,0 0,-112.029217 0.80311,-1.42768 z m -0.80311,1.42768 0,-0.93693 0.80311,-0.49075 -0.80311,1.42768 z"
       style="font-size:7.35389996px;letter-spacing:0;word-spacing:0;fill:#ffffff;fill-rule:nonzero;stroke:none;font-family:fnt1"
       id="path3713"
       inkscape:connector-curvature="0" />
    <path
       d="m 222.37506,62.659253 -0.80276,1.42771 -47.96172,30.026139 -1.78468,-2.855359 47.96172,-30.02617 2.58744,1.42768 z m -2.58744,-1.42768 2.58744,-1.60615 0,3.03383 -2.58744,-1.42768 z m 1.87392,116.758467 -2.54318,-1.4723 -0.0892,-113.858487 3.34594,0 0.13385,113.858487 -0.84737,1.4723 z m 0.84737,-1.4723 0,0.98151 -0.84737,0.49079 0.84737,-1.4723 z m -51.48612,28.1969 0.84772,-1.42768 48.09558,-28.24155 1.69545,2.94463 -48.09557,28.1969 -2.54318,-1.4723 z m 2.54318,1.4723 -2.54318,1.47233 0,-2.94463 2.54318,1.4723 z m -1.74007,-114.929197 2.58779,1.42768 0,112.029217 -3.3909,0 0.0446,-112.029217 0.7585,-1.42768 z m -0.7585,1.42768 0,-0.93693 0.7585,-0.49075 -0.7585,1.42768 z"
       style="font-size:7.35389996px;letter-spacing:0;word-spacing:0;fill:#ffffff;fill-rule:nonzero;stroke:none;font-family:fnt1"
       id="path3715"
       inkscape:connector-curvature="0" />
    <path
       d="m 135.59815,98.173126 26.94772,-16.150793 0,16.150793 -14.00909,8.476914 0,19.67537 14.05371,-8.07536 0,13.60768 -14.05371,8.16463 0,38.9046 -12.89402,7.76308 -0.0446,-88.516914 z"
       style="font-size:7.35389996px;letter-spacing:0;word-spacing:0;fill:#ffffff;fill-rule:evenodd;stroke:none;font-family:fnt1"
       id="path3717"
       inkscape:connector-curvature="0" />
    <path
       d="m 162.67972,82.022333 -0.0892,0.13386 -26.94773,16.150749 -0.13385,-0.267668 26.94773,-16.106171 0.22308,0.08923 z m -0.22308,-0.08923 0.22308,-0.13385 0,0.22308 -0.22308,-0.08923 z m 0.13385,16.373839 -0.17847,-0.133816 0,-16.150793 0.2677,0 0,16.150793 -0.0892,0.133816 z m 0.0892,-0.133816 0,0.08923 -0.0892,0.04458 0.0892,-0.133816 z m -14.27679,8.476914 0.0446,-0.0892 14.00909,-8.521526 0.13385,0.267668 -14.00909,8.476948 -0.17847,-0.13385 z m 0,0 0,-0.0892 0.0446,0 -0.0446,0.0892 z m 0.17847,19.80922 -0.17847,-0.13385 0,-19.67537 0.2677,0 0,19.67537 -0.0892,0.13385 z m 0,0 -0.17847,0.0892 0,-0.22308 0.17847,0.13385 z m 14.14294,-8.20921 -0.0892,0.13382 -14.05371,8.07539 -0.13385,-0.2677 14.05371,-8.03075 0.22308,0.0892 z m -0.22308,-0.0892 0.22308,-0.13385 0,0.22309 -0.22308,-0.0892 z m 0.13385,13.83077 -0.17847,-0.13385 0,-13.60768 0.2677,0 0,13.60768 -0.0892,0.13385 z m 0.0892,-0.13385 0,0.0892 -0.0892,0.0446 0.0892,-0.13385 z m -14.32141,8.16463 0.0446,-0.13385 14.05371,-8.16463 0.13385,0.2677 -14.05371,8.11998 -0.17847,-0.0892 z m 0,0 0,-0.0892 0.0446,-0.0446 -0.0446,0.13385 z m 0.22309,38.99384 -0.22309,-0.0892 0,-38.9046 0.2677,0 0,38.9046 -0.0446,0.0892 z m 0.0446,-0.0892 0,0.0892 -0.0446,0 0.0446,-0.0892 z m -13.16172,7.76308 0.0892,-0.13386 12.8494,-7.76307 0.17847,0.22309 -12.89402,7.76307 -0.22309,-0.0892 z m 0.22309,0.0892 -0.22309,0.13385 0,-0.22308 0.22309,0.0892 z m -0.22309,-88.739996 0.22309,0.133852 0.0446,88.516914 -0.26771,0 -0.0446,-88.516914 0.0446,-0.133852 z m -0.0446,0.133852 0,-0.08924 0.0446,-0.04462 -0.0446,0.133852 z"
       style="font-size:7.35389996px;letter-spacing:0;word-spacing:0;fill:#ffffff;fill-rule:nonzero;stroke:none;font-family:fnt1"
       id="path3719"
       inkscape:connector-curvature="0" />
    <path
       d="m 182.97984,98.440793 13.60754,-8.29844 0.13385,76.336907 15.30335,-9.0569 0.0446,12.62613 -29.04474,16.95383 -0.0446,-88.561527 z"
       style="font-size:7.35389996px;letter-spacing:0;word-spacing:0;fill:#ffffff;fill-rule:evenodd;stroke:none;font-family:fnt1"
       id="path3721"
       inkscape:connector-curvature="0" />
    <path
       d="m 196.72123,90.142353 -0.0446,0.08923 -13.65215,8.343062 -0.13385,-0.267703 13.60753,-8.298449 0.22309,0.13386 z m -0.22309,-0.13386 0.22309,-0.13385 0,0.26771 -0.22309,-0.13386 z m 0.31233,76.559997 -0.22309,-0.0892 -0.13385,-76.336907 0.2677,0 0.17847,76.336907 -0.0892,0.0892 z m 0,0 -0.22309,0.13385 0,-0.22308 0.22309,0.0892 z m 15.34796,-9.14613 -0.0446,0.13381 -15.30334,9.01232 -0.13386,-0.22308 15.30335,-9.0569 0.17847,0.13385 z m -0.17847,-0.13385 0.17847,-0.0892 0,0.22309 -0.17847,-0.13385 z m 0.13385,12.84922 -0.22308,-0.0892 0,-12.62613 0.2677,0 0.0446,12.62613 -0.0892,0.0892 z m 0.0892,-0.0892 0,0.0446 -0.0892,0.0446 0.0892,-0.0892 z m -29.31244,16.95383 0.0892,-0.13382 29.00012,-16.95386 0.13385,0.22309 -29.00012,16.99844 -0.22308,-0.13385 z m 0.22308,0.13385 -0.22308,0.13385 0,-0.2677 0.22308,0.13385 z m -0.22308,-88.829228 0.22308,0.133851 0.0446,88.561527 -0.2677,0 -0.0446,-88.561527 0.0446,-0.133851 z m -0.0446,0.133851 0,-0.08923 0.0446,-0.04462 -0.0446,0.133851 z"
       style="font-size:7.35389996px;letter-spacing:0;word-spacing:0;fill:#ffffff;fill-rule:nonzero;stroke:none;font-family:fnt1"
       id="path3723"
       inkscape:connector-curvature="0" />
    <path
       d="m 146.75209,260.26078 0,1.3831 0,0 -0.13385,0 -0.0892,0 -0.13385,0.0446 -0.13386,0 -0.13385,0.0446 -0.0892,0.0446 -0.13385,0 -0.0892,0.0446 -0.13385,0.0446 -0.0892,0.0892 -0.0892,0.0446 -0.13385,0.0446 -0.0892,0.0892 -0.0892,0.0892 -0.0892,0.0446 -0.0892,0.0892 -0.0446,0.0892 -0.0892,0.0892 -0.0892,0.0892 -0.0446,0.0892 -0.0892,0.13385 -0.0446,0.0892 -0.0446,0.0892 -0.0446,0.13386 -0.0446,0.0892 -0.0446,0.13385 -0.0446,0.0892 -0.0446,0.13381 0,0.13385 0,0.0892 -0.0446,0.13385 0,0.13385 -1.38278,0 0,-0.17847 0,-0.22308 0.0446,-0.17844 0.0446,-0.17847 0,-0.22308 0.0892,-0.17847 0.0446,-0.17847 0.0892,-0.17843 0.0446,-0.13385 0.0892,-0.17847 0.0892,-0.17847 0.13385,-0.13385 0.0892,-0.17844 0.1335,-0.13385 0.0892,-0.13385 0.13385,-0.13385 0.13385,-0.13385 0.13386,-0.13386 0.13385,-0.0892 0.17847,-0.13382 0.13385,-0.0892 0.17847,-0.0892 0.17847,-0.0892 0.17846,-0.0892 0.13386,-0.0446 0.22308,-0.0446 0.17847,-0.0892 0.17847,-0.0446 0.17847,0 0.17847,-0.0446 0.22308,0 0.17847,0 z m 0,0 0,0 0,0 z m 3.8817,3.83694 -1.42775,0 0,0 0,-0.13385 0,-0.13385 -0.0446,-0.0892 0,-0.13385 -0.0446,-0.13381 0,-0.0892 -0.0446,-0.13385 -0.0446,-0.0892 -0.0446,-0.13386 -0.0892,-0.0892 -0.0446,-0.0892 -0.0446,-0.13385 -0.0892,-0.0892 -0.0446,-0.0892 -0.0892,-0.0892 -0.0892,-0.0892 -0.0892,-0.0892 -0.0892,-0.0446 -0.0892,-0.0892 -0.0892,-0.0892 -0.0892,-0.0446 -0.13385,-0.0446 -0.0892,-0.0892 -0.0892,-0.0446 -0.13385,-0.0446 -0.0892,0 -0.13386,-0.0446 -0.13385,-0.0446 -0.0892,0 -0.13385,-0.0446 -0.13386,0 -0.13385,0 0,-1.3831 0.22309,0 0.17847,0 0.17847,0.0446 0.17847,0 0.22308,0.0446 0.17847,0.0892 0.17847,0.0446 0.17847,0.0446 0.17847,0.0892 0.13385,0.0892 0.17847,0.0892 0.13385,0.0892 0.17847,0.13382 0.13385,0.0892 0.13385,0.13386 0.13385,0.13385 0.13385,0.13385 0.13386,0.13385 0.0892,0.13385 0.13385,0.17844 0.0892,0.13385 0.0892,0.17847 0.0892,0.17847 0.0892,0.13385 0.0446,0.17843 0.0892,0.17847 0.0446,0.17847 0.0446,0.22308 0.0446,0.17847 0,0.17844 0,0.22308 0.0446,0.17847 z m 0,0 0,0 0,0 z m -3.8817,3.8369 0,-1.38306 0,0 0.13385,0 0.13386,0 0.13385,-0.0446 0.0892,0 0.13385,-0.0446 0.13386,-0.0446 0.0892,0 0.13385,-0.0446 0.0892,-0.0892 0.0892,-0.0446 0.13385,-0.0446 0.0892,-0.0892 0.0892,-0.0446 0.0892,-0.0892 0.0892,-0.0446 0.0892,-0.0892 0.0892,-0.0892 0.0892,-0.0892 0.0446,-0.0892 0.0892,-0.0892 0.0446,-0.13385 0.0892,-0.0892 0.0446,-0.0892 0.0446,-0.13385 0.0446,-0.0892 0.0446,-0.13385 0,-0.0892 0.0446,-0.13386 0,-0.13385 0.0446,-0.0892 0,-0.13385 0,-0.13385 1.42775,0 -0.0446,0.17847 0,0.22305 0,0.17847 -0.0446,0.17847 -0.0446,0.22308 -0.0446,0.17847 -0.0892,0.17844 -0.0446,0.17847 -0.0892,0.13385 -0.0892,0.17847 -0.0892,0.17846 -0.0892,0.13382 -0.13385,0.17847 -0.0892,0.13385 -0.13386,0.13385 -0.13385,0.13385 -0.13385,0.13386 -0.13385,0.13381 -0.13385,0.0892 -0.17847,0.13385 -0.13385,0.0892 -0.17847,0.0892 -0.13385,0.0892 -0.17847,0.0892 -0.17847,0.0446 -0.17847,0.0446 -0.17847,0.0892 -0.22308,0.0446 -0.17847,0 -0.17847,0.0446 -0.17847,0 -0.22309,0 z m 0,0 0,0 0,0 z m -3.83672,-3.8369 1.38278,0 0,0.13385 0.0446,0.13385 0,0.0892 0,0.13385 0.0446,0.13386 0.0446,0.0892 0.0446,0.13385 0.0446,0.0892 0.0446,0.13385 0.0446,0.0892 0.0446,0.0892 0.0892,0.13385 0.0446,0.0892 0.0892,0.0892 0.0892,0.0892 0.0446,0.0892 0.0892,0.0892 0.0892,0.0446 0.0892,0.0892 0.0892,0.0446 0.13385,0.0892 0.0892,0.0446 0.0892,0.0446 0.13385,0.0892 0.0892,0.0446 0.13385,0 0.0892,0.0446 0.13385,0.0446 0.13386,0 0.13385,0.0446 0.0892,0 0.13385,0 0,1.38306 -0.17847,0 -0.22308,0 -0.17847,-0.0446 -0.17847,0 -0.17847,-0.0446 -0.17847,-0.0892 -0.22308,-0.0446 -0.13386,-0.0446 -0.17846,-0.0892 -0.17847,-0.0892 -0.17847,-0.0892 -0.13385,-0.0892 -0.13385,-0.13385 -0.17847,-0.0892 -0.13386,-0.13381 -0.13385,-0.13386 -0.13385,-0.13385 -0.0892,-0.13385 -0.1335,-0.13385 -0.0892,-0.17847 -0.13385,-0.13382 -0.0892,-0.17846 -0.0892,-0.17847 -0.0446,-0.13385 -0.0892,-0.17847 -0.0446,-0.17844 -0.0892,-0.17847 0,-0.22308 -0.0446,-0.17847 -0.0446,-0.17847 0,-0.22305 0,-0.17847 z"
       style="font-size:7.35389996px;letter-spacing:0;word-spacing:0;fill:#ffffff;fill-rule:nonzero;stroke:none;font-family:fnt1"
       id="path3725"
       inkscape:connector-curvature="0" />
    <path
       d="m 147.82291,247.45618 -2.14163,0.0446 c -0.13385,2.0077 -0.80311,3.97075 -1.91854,5.62151 0.13385,0.22309 0.17847,0.40156 0.31232,0.58003 0.98158,1.69538 1.42775,3.74767 1.47237,5.5769 l 2.23086,-0.0446 c 0.13385,-1.96305 0.75849,-4.19384 1.87392,-5.88922 -0.0892,-0.17847 -0.17847,-0.3569 -0.2677,-0.57998 -0.98158,-1.65077 -1.47237,-3.48 -1.5616,-5.30924"
       style="font-size:7.35389996px;letter-spacing:0;word-spacing:0;fill:#ffffff;fill-rule:evenodd;stroke:none;font-family:fnt1"
       id="path3727"
       inkscape:connector-curvature="0" />
    <path
       d="m 145.45819,247.5008 0.22309,-0.22309 2.14163,-0.0446 0.0446,0.44617 -2.18624,0.0446 -0.22309,-0.22309 z m 0,0 0.0446,-0.22309 0.17847,0 -0.22309,0.22309 z m -1.51698,5.53232 -0.31197,0.22305 0,-0.22305 0.0892,-0.17847 0.0889,-0.13385 0.0892,-0.17847 0.0892,-0.13385 0.0892,-0.17847 0.0892,-0.17843 0.0892,-0.13385 0.0892,-0.17847 0.0892,-0.17847 0.0892,-0.13385 0.0446,-0.17844 0.0892,-0.17847 0.0446,-0.17847 0.0892,-0.17846 0.0446,-0.17847 0.0892,-0.17844 0.0446,-0.17846 0.0446,-0.13386 0.0446,-0.17847 0.0446,-0.17846 0.0446,-0.17844 0.0446,-0.17847 0.0446,-0.17847 0.0446,-0.22308 0.0446,-0.17847 0.0446,-0.17843 0,-0.17847 0.0446,-0.17847 0,-0.17847 0.0446,-0.17843 0,-0.17847 0,-0.17847 0.44618,0 -0.0446,0.22309 0,0.17843 0,0.17847 -0.0446,0.17847 0,0.22308 -0.0446,0.17847 -0.0446,0.17843 -0.0446,0.17847 -0.0446,0.17847 0,0.22309 -0.0446,0.17847 -0.0892,0.17843 -0.0446,0.17847 -0.0446,0.17847 -0.0446,0.17847 -0.0892,0.17843 -0.0446,0.17847 -0.0446,0.17847 -0.0892,0.22308 -0.0892,0.13386 -0.0446,0.17843 -0.0892,0.17847 -0.0892,0.17847 -0.0892,0.17847 -0.0446,0.17846 -0.0892,0.17844 -0.0892,0.17847 -0.13386,0.13385 -0.0892,0.17847 -0.0892,0.17846 -0.0892,0.13385 -0.13385,0.17844 0,-0.22305 z m -0.31197,0.22305 -0.0892,-0.13386 0.0892,-0.0892 0,0.22305 z m 0.62429,0.35693 -0.35694,0.17847 0,0 0,0 -0.0446,-0.0446 0,0 0,-0.0446 0,0 0,0 -0.0446,-0.0446 0,0 0,-0.0446 0,0 0,0 -0.0446,-0.0446 0,0 0,-0.0446 0,0 0,0 -0.0443,-0.0446 0,0 0,0 0,-0.0446 0,0 -0.0446,-0.0446 0,0 0,0 0,-0.0446 0,0 0,0 -0.0446,-0.0446 0,0 0,0 0,-0.0446 0,0 0.31197,-0.22305 0.0446,0 0,0.0446 0,0 0,0.0446 0.0446,0 0,0.0446 0,0 0,0 0.0446,0.0446 0,0 0,0.0446 0,0 0,0 0.0446,0.0446 0,0 0,0.0446 0,0 0,0 0.0446,0.0446 0,0 0,0.0446 0,0 0,0 0.0446,0.0446 0,0 0,0 0,0.0446 0,0 0,0.0446 0.0446,0 0,0 0,0.0446 z m 0,0 0,0 0,0 z m 1.2939,5.44309 0.0446,0.40152 -0.22309,-0.17847 0,-0.17843 -0.0446,-0.17847 0,-0.13385 0,-0.17847 -0.0446,-0.17847 0,-0.17843 0,-0.17847 -0.0446,-0.17847 0,-0.17847 -0.0446,-0.17847 -0.0446,-0.17843 -0.0446,-0.17847 0,-0.17847 -0.0446,-0.17847 -0.0446,-0.17847 -0.0446,-0.17843 -0.0446,-0.17847 -0.0446,-0.13385 -0.0446,-0.17847 -0.0892,-0.17847 -0.0446,-0.17843 -0.0446,-0.17847 -0.0892,-0.17847 -0.0446,-0.17847 -0.0892,-0.13385 -0.0446,-0.17843 -0.0892,-0.17847 -0.0892,-0.13385 -0.0446,-0.17847 -0.0892,-0.17847 -0.0892,-0.13385 -0.0892,-0.17844 0.35694,-0.17847 0.0892,0.13386 0.0892,0.17846 0.0892,0.17844 0.0892,0.17847 0.0892,0.13385 0.0446,0.17847 0.0892,0.17847 0.0892,0.17843 0.0446,0.17847 0.0446,0.17847 0.0892,0.17847 0.0446,0.17846 0.0446,0.17844 0.0892,0.17847 0.0446,0.17847 0.0446,0.17846 0.0446,0.17847 0.0446,0.17844 0.0446,0.17847 0.0446,0.17846 0,0.22309 0.0446,0.17843 0.0446,0.17847 0,0.17847 0.0446,0.17847 0,0.17847 0.0446,0.17843 0,0.17847 0.0446,0.17847 0,0.17847 0,0.17847 0,0.17843 -0.22308,-0.22305 z m 0.0446,0.40152 -0.22309,0 0,-0.17847 0.22309,0.17847 z m 2.40932,-0.17847 -0.22308,0.17847 -2.18624,0 -0.0446,-0.40152 2.23086,0 0.22308,0.22305 z m 0,0 0,0.17847 -0.22308,0 0.22308,-0.17847 z m 1.47237,-5.79999 0.35694,-0.2677 0,0.2677 -0.0892,0.13385 -0.0892,0.17847 -0.0892,0.13385 -0.13385,0.17844 -0.0892,0.17847 -0.0446,0.13385 -0.0892,0.17847 -0.0892,0.17847 -0.0892,0.17843 -0.0892,0.17847 -0.0446,0.17847 -0.0892,0.17847 -0.0446,0.17846 -0.0892,0.22306 -0.0446,0.17846 -0.0892,0.17847 -0.0446,0.17847 -0.0446,0.17843 -0.0446,0.22309 -0.0446,0.17847 -0.0446,0.17847 -0.0446,0.17847 -0.0446,0.22305 -0.0446,0.17847 -0.0446,0.17847 0,0.17846 -0.0446,0.22305 0,0.17847 -0.0446,0.17847 0,0.17847 -0.0446,0.22309 0,0.17843 -0.40155,-0.0446 0,-0.17843 0,-0.17847 0.0446,-0.22308 0,-0.17847 0.0446,-0.22305 0,-0.17847 0.0446,-0.17847 0.0446,-0.22309 0.0446,-0.17847 0.0446,-0.22305 0.0446,-0.17847 0.0446,-0.17846 0.0446,-0.22309 0.0446,-0.17843 0.0446,-0.22309 0.0892,-0.17847 0.0446,-0.17847 0.0446,-0.17847 0.0892,-0.22305 0.0446,-0.17847 0.0892,-0.17846 0.0892,-0.17847 0.0446,-0.22305 0.0892,-0.17847 0.0892,-0.17847 0.0892,-0.17847 0.0892,-0.17847 0.0892,-0.17843 0.0892,-0.13385 0.13385,-0.17847 0.0892,-0.17847 0.0892,-0.17847 0,0.2677 z m 0.35694,-0.2677 0.0892,0.13385 -0.0892,0.13385 0,-0.2677 z m -0.62464,-0.31228 0.35694,-0.22309 0,0 0,0.0446 0,0 0.0446,0 0,0.0446 0,0 0,0.0446 0,0 0.0446,0.0446 0,0 0,0 0,0.0446 0,0 0.0446,0.0446 0,0 0,0 0,0.0446 0,0 0.0446,0.0446 0,0 0,0 0,0.0446 0,0 0,0 0.0446,0.0446 0,0 0,0 0,0.0446 0,0 0.0446,0 0,0.0446 0,0 0,0 -0.35694,0.2677 0,-0.0446 0,0 0,-0.0446 -0.0446,0 0,-0.0446 0,0 0,0 -0.0446,-0.0446 0,0 0,-0.0446 0,0 -0.0446,-0.0446 0,0 0,0 0,-0.0446 0,0 0,-0.0446 -0.0446,0 0,0 0,-0.0446 0,0 0,-0.0446 0,0 -0.0446,0 0,-0.0446 0,0 0,-0.0446 0,0 -0.0446,0 0,-0.0446 0,0 0,0 z m 0.35694,-0.22309 0,0 0,0 z m -1.69546,-4.99691 -0.0446,-0.44617 0.22308,0.22308 0,0.17847 0,0.13385 0.0446,0.17844 0,0.17846 0.0446,0.17847 0,0.13386 0,0.17846 0.0446,0.17844 0.0446,0.17847 0,0.13385 0.0446,0.17847 0.0446,0.17847 0.0446,0.13385 0.0446,0.17843 0,0.17847 0.0446,0.17847 0.0892,0.13385 0.0446,0.17847 0.0446,0.17843 0.0446,0.13385 0.0446,0.17847 0.0892,0.17847 0.0446,0.13385 0.0892,0.17844 0.0446,0.13385 0.0892,0.17847 0.0892,0.17847 0.0446,0.13385 0.0892,0.17843 0.0892,0.13385 0.0892,0.17847 0.0892,0.13385 -0.35694,0.22309 -0.0892,-0.17847 -0.0892,-0.13385 -0.0892,-0.17847 -0.0892,-0.17847 -0.0892,-0.13382 -0.0892,-0.17846 -0.0446,-0.17847 -0.0892,-0.17847 -0.0446,-0.13385 -0.0892,-0.17844 -0.0446,-0.17847 -0.0892,-0.17847 -0.0446,-0.13385 -0.0446,-0.17847 -0.0446,-0.17843 -0.0446,-0.17847 -0.0892,-0.17847 -0.0446,-0.17847 0,-0.13385 -0.0446,-0.17843 -0.0446,-0.17847 -0.0446,-0.17847 -0.0446,-0.17847 0,-0.17847 -0.0446,-0.17843 0,-0.17847 -0.0446,-0.13385 0,-0.17847 -0.0446,-0.17847 0,-0.17843 0,-0.17847 0,-0.17847 0.22308,0.22309 z m -0.0446,-0.44617 0.22308,0 0,0.22308 -0.22308,-0.22308 z"
       style="font-size:7.35389996px;letter-spacing:0;word-spacing:0;fill:#ffffff;fill-rule:nonzero;stroke:none;font-family:fnt1"
       id="path3729"
       inkscape:connector-curvature="0" />
    <path
       d="m 132.87685,254.81773 -1.02619,1.91844 c 1.65083,1.11539 3.03397,2.67692 3.92596,4.46154 0.22308,0 0.40155,0.0446 0.62464,0.0446 1.96315,0 3.97093,0.6246 5.57715,1.47229 l 1.11543,-1.91843 c -1.69546,-1.11539 -3.30168,-2.76616 -4.19402,-4.59539 -0.22309,0 -0.40155,-0.0446 -0.62464,-0.0446 -1.96316,0 -3.79211,-0.44617 -5.39833,-1.33845"
       style="font-size:7.35389996px;letter-spacing:0;word-spacing:0;fill:#ffffff;fill-rule:evenodd;stroke:none;font-family:fnt1"
       id="path3731"
       inkscape:connector-curvature="0" />
    <path
       d="m 132.87685,254.81773 -1.02619,1.91844 c 1.65083,1.11539 3.03397,2.67692 3.92596,4.46154 0.22308,0 0.40155,0.0446 0.62464,0.0446 1.96315,0 3.97093,0.6246 5.57715,1.47229 l 1.11543,-1.91843 c -1.69546,-1.11539 -3.30168,-2.76616 -4.19402,-4.59539 -0.22309,0 -0.40155,-0.0446 -0.62464,-0.0446 -1.96316,0 -3.79211,-0.44617 -5.39833,-1.33845 z"
       style="font-size:7.35389996px;letter-spacing:0;word-spacing:0;fill:none;stroke:#ffffff;stroke-width:0.70598638;stroke-linecap:butt;stroke-linejoin:miter;font-family:fnt1"
       id="path3733"
       inkscape:connector-curvature="0" />
    <path
       d="m 131.80604,271.45924 1.11543,1.87385 c 1.78469,-0.89231 3.83672,-1.29383 5.8445,-1.15997 0.0892,-0.22309 0.22308,-0.35694 0.35694,-0.53541 0.93696,-1.69538 2.49856,-3.12306 4.06016,-4.10461 l -1.11543,-1.91846 c -1.8293,0.8923 -4.06016,1.47229 -6.06794,1.33848 -0.0892,0.17843 -0.22308,0.3569 -0.35694,0.53537 -0.98122,1.69538 -2.27512,3.03382 -3.83672,3.97075"
       style="font-size:7.35389996px;letter-spacing:0;word-spacing:0;fill:#ffffff;fill-rule:evenodd;stroke:none;font-family:fnt1"
       id="path3735"
       inkscape:connector-curvature="0" />
    <path
       d="m 131.80604,271.45924 1.11543,1.87385 c 1.78469,-0.89231 3.83672,-1.29383 5.8445,-1.15997 0.0892,-0.22309 0.22308,-0.35694 0.35694,-0.53541 0.93696,-1.69538 2.49856,-3.12306 4.06016,-4.10461 l -1.11543,-1.91846 c -1.8293,0.8923 -4.06016,1.47229 -6.06794,1.33848 -0.0892,0.17843 -0.22308,0.3569 -0.35694,0.53537 -0.98122,1.69538 -2.27512,3.03382 -3.83672,3.97075 z"
       style="font-size:7.35389996px;letter-spacing:0;word-spacing:0;fill:none;stroke:#ffffff;stroke-width:0.70598638;stroke-linecap:butt;stroke-linejoin:miter;font-family:fnt1"
       id="path3737"
       inkscape:connector-curvature="0" />
    <path
       d="m 145.68128,280.73926 2.14163,-0.0446 c 0.13385,-2.00771 0.80311,-3.97079 1.91854,-5.62156 -0.13386,-0.22308 -0.17847,-0.40152 -0.31232,-0.57999 -0.93697,-1.69538 -1.42776,-3.7477 -1.47237,-5.57693 l -2.23086,0.0446 c -0.13385,1.96309 -0.7585,4.19384 -1.87393,5.88923 0.13386,0.17846 0.17847,0.35693 0.26771,0.58002 0.98158,1.65076 1.47237,3.48 1.5616,5.30923"
       style="font-size:7.35389996px;letter-spacing:0;word-spacing:0;fill:#ffffff;fill-rule:evenodd;stroke:none;font-family:fnt1"
       id="path3739"
       inkscape:connector-curvature="0" />
    <path
       d="m 145.68128,280.73926 2.14163,-0.0446 c 0.13385,-2.00771 0.80311,-3.97079 1.91854,-5.62156 -0.13386,-0.22308 -0.17847,-0.40152 -0.31232,-0.57999 -0.93697,-1.69538 -1.42776,-3.7477 -1.47237,-5.57693 l -2.23086,0.0446 c -0.13385,1.96309 -0.7585,4.19384 -1.87393,5.88923 0.13386,0.17846 0.17847,0.35693 0.26771,0.58002 0.98158,1.65076 1.47237,3.48 1.5616,5.30923 z"
       style="font-size:7.35389996px;letter-spacing:0;word-spacing:0;fill:none;stroke:#ffffff;stroke-width:0.70598638;stroke-linecap:butt;stroke-linejoin:miter;font-family:fnt1"
       id="path3741"
       inkscape:connector-curvature="0" />
    <path
       d="m 160.62769,273.37771 1.02584,-1.91847 c -1.65048,-1.11536 -3.03362,-2.67693 -3.92596,-4.46151 -0.22309,0 -0.40155,-0.0446 -0.62464,-0.0446 -1.96316,0 -3.97093,-0.62465 -5.5768,-1.47234 l -1.07081,1.91847 c 1.65084,1.1154 3.2567,2.76616 4.14905,4.5954 0.22308,0 0.40155,0.0446 0.62464,0.0446 1.96315,0 3.79246,0.44614 5.39868,1.33845"
       style="font-size:7.35389996px;letter-spacing:0;word-spacing:0;fill:#ffffff;fill-rule:evenodd;stroke:none;font-family:fnt1"
       id="path3743"
       inkscape:connector-curvature="0" />
    <path
       d="m 160.62769,273.37771 1.02584,-1.91847 c -1.65048,-1.11536 -3.03362,-2.67693 -3.92596,-4.46151 -0.22309,0 -0.40155,-0.0446 -0.62464,-0.0446 -1.96316,0 -3.97093,-0.62465 -5.5768,-1.47234 l -1.07081,1.91847 c 1.65084,1.1154 3.2567,2.76616 4.14905,4.5954 0.22308,0 0.40155,0.0446 0.62464,0.0446 1.96315,0 3.79246,0.44614 5.39868,1.33845 z"
       style="font-size:7.35389996px;letter-spacing:0;word-spacing:0;fill:none;stroke:#ffffff;stroke-width:0.70598638;stroke-linecap:butt;stroke-linejoin:miter;font-family:fnt1"
       id="path3745"
       inkscape:connector-curvature="0" />
    <path
       d="m 161.69815,256.73617 -1.11508,-1.87386 c -1.78469,0.89231 -3.79246,1.29387 -5.84485,1.16002 -0.0892,0.22308 -0.22309,0.35693 -0.31232,0.5354 -0.98158,1.69539 -2.54283,3.12307 -4.05981,4.10461 l 1.11543,1.91847 c 1.78433,-0.89231 4.01519,-1.47234 6.02296,-1.33848 0.13386,-0.22309 0.26771,-0.35691 0.35694,-0.53537 0.98158,-1.69539 2.3201,-3.03387 3.83673,-3.97079"
       style="font-size:7.35389996px;letter-spacing:0;word-spacing:0;fill:#ffffff;fill-rule:evenodd;stroke:none;font-family:fnt1"
       id="path3747"
       inkscape:connector-curvature="0" />
    <path
       d="m 161.69815,256.73617 -1.11508,-1.87386 c -1.78469,0.89231 -3.79246,1.29387 -5.84485,1.16002 -0.0892,0.22308 -0.22309,0.35693 -0.31232,0.5354 -0.98158,1.69539 -2.54283,3.12307 -4.05981,4.10461 l 1.11543,1.91847 c 1.78433,-0.89231 4.01519,-1.47234 6.02296,-1.33848 0.13386,-0.22309 0.26771,-0.35691 0.35694,-0.53537 0.98158,-1.69539 2.3201,-3.03387 3.83673,-3.97079 z"
       style="font-size:7.35389996px;letter-spacing:0;word-spacing:0;fill:none;stroke:#ffffff;stroke-width:0.70598638;stroke-linecap:butt;stroke-linejoin:miter;font-family:fnt1"
       id="path3749"
       inkscape:connector-curvature="0" />
    <path
       d="m 146.75209,243.21773 0,2.27537 0,0 -0.93696,0.0446 -0.98158,0.0892 -0.89234,0.0892 -0.93661,0.17847 -0.89234,0.17847 -0.89234,0.26767 -0.84773,0.31232 -0.84773,0.31232 -0.80311,0.3569 -0.80311,0.44617 -0.80311,0.44614 -0.75849,0.49079 -0.71388,0.49075 -0.71351,0.53537 -0.66926,0.62464 -0.62464,0.57999 -0.62465,0.66922 -0.58002,0.66923 -0.58002,0.71387 -0.49079,0.71384 -0.49079,0.75846 -0.44617,0.75845 -0.40156,0.80308 -0.40155,0.84769 -0.31232,0.84769 -0.31232,0.84769 -0.22309,0.89231 -0.22309,0.89231 -0.17847,0.89231 -0.0892,0.93692 -0.0892,0.93693 0,0.98154 -2.31974,0 0,-1.07078 0.0892,-1.07077 0.13385,-1.02616 0.17847,-1.02613 0.26735,-1.02616 0.2677,-0.98154 0.31232,-0.98154 0.40156,-0.93693 0.40155,-0.93693 0.44617,-0.8923 0.53541,-0.89231 0.53541,-0.84769 0.58002,-0.80308 0.62464,-0.80307 0.62464,-0.75846 0.71388,-0.71384 0.71387,-0.71384 0.7585,-0.62464 0.80311,-0.6246 0.80275,-0.57999 0.84773,-0.53541 0.89234,-0.53537 0.89235,-0.44613 0.93696,-0.40156 0.93696,-0.40155 0.98158,-0.31229 0.98158,-0.31232 1.02619,-0.22309 1.0262,-0.17843 1.02584,-0.13385 1.07081,-0.0892 1.07081,0 z m 0,0 0,0 0,0 z m 20.92476,20.87999 -2.32009,0 0,0 -0.0446,-0.98154 -0.0446,-0.93693 -0.13385,-0.93692 -0.17847,-0.89231 -0.17847,-0.89231 -0.2677,-0.89231 -0.31232,-0.84769 -0.31232,-0.84769 -0.35694,-0.84769 -0.40155,-0.80308 -0.44618,-0.75845 -0.49078,-0.75846 -0.53541,-0.71384 -0.53505,-0.71387 -0.58002,-0.66923 -0.62465,-0.66922 -0.66925,-0.57999 -0.66926,-0.62464 -0.71388,-0.53537 -0.71387,-0.49075 -0.7585,-0.49079 -0.75849,-0.44614 -0.80311,-0.44617 -0.84773,-0.3569 -0.84772,-0.31232 -0.84737,-0.31232 -0.89235,-0.26767 -0.89234,-0.17847 -0.89235,-0.17847 -0.93696,-0.0892 -0.93696,-0.0892 -0.98158,-0.0446 0,-2.27537 1.07082,0 1.07081,0.0892 1.0262,0.13385 1.07081,0.17843 0.98158,0.22309 0.98122,0.31232 0.98158,0.31229 0.93696,0.40155 0.93696,0.40156 0.89234,0.44613 0.89235,0.53537 0.84773,0.53541 0.80311,0.57999 0.80311,0.6246 0.75849,0.62464 0.71352,0.71384 0.71387,0.71384 0.66926,0.75846 0.58002,0.80307 0.62465,0.80308 0.5354,0.84769 0.49079,0.89231 0.44617,0.8923 0.44618,0.93693 0.35693,0.93693 0.31232,0.98154 0.31232,0.98154 0.22309,1.02616 0.17847,1.02613 0.13385,1.02616 0.0892,1.07077 0.0446,1.07078 z m 0,0 0,0 0,0 z m -20.92476,20.88 0,-2.27541 0,0 0.98158,-0.0446 0.93696,-0.0892 0.93696,-0.0892 0.89235,-0.17847 0.89234,-0.17846 0.89235,-0.26771 0.84737,-0.31228 0.84772,-0.31232 0.84773,-0.3569 0.80311,-0.44618 0.75849,-0.44613 0.7585,-0.49079 0.71387,-0.49076 0.71388,-0.58002 0.66926,-0.57999 0.66925,-0.57999 0.62465,-0.66925 0.58002,-0.66923 0.53505,-0.71384 0.53541,-0.71384 0.49078,-0.75845 0.44618,-0.75846 0.40155,-0.80307 0.35694,-0.8477 0.31232,-0.84769 0.31232,-0.84772 0.2677,-0.89228 0.17847,-0.89231 0.17847,-0.8923 0.13385,-0.93693 0.0446,-0.93693 0.0446,-0.98154 2.32009,0 -0.0446,1.07078 -0.0892,1.07074 -0.13385,1.02616 -0.17847,1.02616 -0.22309,1.02616 -0.31232,0.98154 -0.31232,0.98155 -0.35693,0.93692 -0.44618,0.93689 -0.44617,0.89231 -0.49079,0.89231 -0.5354,0.84769 -0.62465,0.80308 -0.58002,0.80311 -0.66926,0.75845 -0.71387,0.71384 -0.71352,0.71384 -0.75849,0.62461 -0.80311,0.62464 -0.80311,0.57999 -0.84773,0.53537 -0.89235,0.5354 -0.89234,0.44614 -0.93696,0.40156 -0.93696,0.40151 -0.98158,0.31232 -0.98122,0.31233 -0.98158,0.22305 -1.07081,0.17846 -1.0262,0.13386 -1.07081,0.0892 -1.07082,0 z m 0,0 0,0 0,0 z m -20.87978,-20.88 2.31974,0 0,0.98154 0.0892,0.93693 0.0892,0.93693 0.17847,0.8923 0.22309,0.89231 0.22309,0.89228 0.31232,0.84772 0.31232,0.84769 0.40155,0.8477 0.40156,0.80307 0.44617,0.75846 0.49079,0.75845 0.49079,0.71384 0.58002,0.71384 0.58002,0.66923 0.62465,0.66925 0.62464,0.57999 0.66926,0.57999 0.71351,0.58002 0.71388,0.49076 0.75849,0.49079 0.80311,0.44613 0.80311,0.44618 0.80311,0.3569 0.84773,0.31232 0.84773,0.31228 0.89234,0.26771 0.89234,0.17846 0.93661,0.17847 0.89234,0.0892 0.98158,0.0892 0.93696,0.0446 0,2.27541 -1.07081,0 -1.07081,-0.0892 -1.02584,-0.13386 -1.0262,-0.17846 -1.02619,-0.22305 -0.98158,-0.31233 -0.98158,-0.31232 -0.93696,-0.40151 -0.93696,-0.40156 -0.89235,-0.44614 -0.89234,-0.5354 -0.84773,-0.53537 -0.80275,-0.57999 -0.80311,-0.62464 -0.7585,-0.62461 -0.71387,-0.71384 -0.71388,-0.71384 -0.62464,-0.75845 -0.62464,-0.80311 -0.58002,-0.80308 -0.53541,-0.84769 -0.53541,-0.89231 -0.44617,-0.89231 -0.40155,-0.93689 -0.40156,-0.93692 -0.31232,-0.98155 -0.2677,-0.98154 -0.26735,-1.02616 -0.17847,-1.02616 -0.13385,-1.02616 -0.0892,-1.07074 0,-1.07078 z"
       style="font-size:7.35389996px;letter-spacing:0;word-spacing:0;fill:#ffffff;fill-rule:nonzero;stroke:none;font-family:fnt1"
       id="path3751"
       inkscape:connector-curvature="0" />
    <path
       d="m 81.301497,100.98387 12.98289,-7.718457 3.21244,66.833837 5.666033,-72.187687 14.23253,-8.47692 -11.60011,95.120007 -17.801563,10.39539 -6.69222,-83.96617 z"
       style="font-size:7.35389996px;letter-spacing:0;word-spacing:0;fill:#ffffff;fill-rule:evenodd;stroke:none;font-family:fnt1"
       id="path3753"
       inkscape:connector-curvature="0" />
    <path
       d="m 94.462857,93.265413 -0.08923,0.13385 -12.9829,7.718457 -0.17847,-0.26767 12.9829,-7.718487 0.2677,0.13385 z m -0.2677,-0.13385 0.22308,-0.17844 0.04462,0.31229 -0.2677,-0.13385 z m 3.48014,67.012297 -0.31232,0 -3.25706,-66.878447 0.35694,0 3.21244,66.833837 0,0.0446 z m 0,0 -0.17847,2.67693 -0.13385,-2.67693 0.31232,0 z m 5.398333,-72.366117 0.2677,0.13382 -5.666033,72.232297 -0.31232,-0.0446 5.621413,-72.187687 0.0892,-0.13382 z m -0.0892,0.13382 0,-0.0892 0.0892,-0.04462 -0.0892,0.13382 z m 14.58947,-8.47692 -0.0892,0.13385 -14.23254,8.47692 -0.17846,-0.26767 14.23253,-8.52157 0.2677,0.17847 z m -0.2677,-0.17847 0.31232,-0.17843 -0.0446,0.3569 -0.2677,-0.17847 z m -11.42165,95.432327 -0.2677,-0.17846 11.60012,-95.120007 0.35693,0.04461 -11.64473,95.120007 -0.0446,0.13385 z m 0.0446,-0.13385 0,0.0892 -0.0446,0.0446 0.0446,-0.13385 z m -18.113883,10.44 0.08924,-0.17847 17.801553,-10.44 0.17847,0.31232 -17.801553,10.44 -0.26771,-0.13385 z m 0.26771,0.13385 -0.22309,0.13382 -0.04462,-0.26767 0.26771,0.13385 z m -6.8707,-84.27845 0.22309,0.13382 6.73684,83.96617 -0.35694,0.0446 -6.69222,-84.01078 0.08923,-0.13382 z m -0.08923,0.13382 0,-0.0892 0.08923,-0.0446 -0.08923,0.13382 z"
       style="font-size:7.35389996px;letter-spacing:0;word-spacing:0;fill:#ffffff;fill-rule:nonzero;stroke:none;font-family:fnt1"
       id="path3755"
       inkscape:connector-curvature="0" />
    <path
       d="m 52.301375,46.954673 1.338516,-0.35694 -0.178469,-8.65538 0.758493,-0.17847 -0.401555,-1.65077 -2.855503,0.75846 0.446173,1.65077 0.713876,-0.22309 0.178469,5.1308 0,0.04462 -2.453947,-4.55078 0.803109,-0.22309 -0.446171,-1.60614 -3.345934,0.8923 0.446171,1.60615 0.758493,-0.17847 4.238279,7.54003 z"
       style="font-size:7.35389996px;letter-spacing:0;word-spacing:0;fill:#511972;fill-rule:evenodd;stroke:none;font-family:fnt1"
       id="path3757"
       inkscape:connector-curvature="0" />
    <path
       d="m 63.856876,42.136193 -0.936962,0.17847 -0.178469,-0.71384 c -0.31232,-1.3831 -0.267703,-2.63231 0.981578,-2.90002 l 0.178469,-0.04461 -0.490789,-2.05232 -0.223085,0.04461 c -0.758493,0.17847 -1.204666,0.98155 -1.204666,2.23079 l -0.04462,0 -0.401556,-1.74 -2.186242,0.49076 0.401553,1.56153 0.803111,-0.17844 0.803109,3.65844 -0.847726,0.22308 0.356938,1.56153 3.346291,-0.75845 -0.356938,-1.56153 z"
       style="font-size:7.35389996px;letter-spacing:0;word-spacing:0;fill:#511972;fill-rule:evenodd;stroke:none;font-family:fnt1"
       id="path3759"
       inkscape:connector-curvature="0" />
    <path
       d="m 74.073857,35.934643 0.75814,-0.13385 0.71388,3.70309 -0.7585,0.13385 0.31232,1.56153 2.94474,-0.57999 -0.31232,-1.56153 -0.66926,0.13382 -0.58002,-3.07845 c 0.22308,-0.35694 0.49079,-0.57999 0.75849,-0.6246 0.2677,-0.04462 0.49079,0.13385 0.58002,0.66922 l 0.84773,4.37231 2.27548,-0.44617 -0.31232,-1.56153 -0.71388,0.13385 -0.58002,-3.07845 c -0.35694,-1.82923 -1.2939,-2.14155 -1.91854,-2.0077 -0.49079,0.08923 -0.84773,0.35694 -1.24928,0.98154 l -0.08924,-0.6246 -2.31974,0.44613 0.31232,1.56153 z"
       style="font-size:7.35389996px;letter-spacing:0;word-spacing:0;fill:#511972;fill-rule:evenodd;stroke:none;font-family:fnt1"
       id="path3761"
       inkscape:connector-curvature="0" />
    <path
       d="m 86.744437,37.406983 -0.71388,0.13381 -0.71387,-3.70305 0.71387,-0.13385 -0.31232,-1.56153 -0.71387,0.13381 -0.13385,-0.75845 c -0.13386,-0.62461 -0.08924,-0.98155 0.13385,-1.02616 0.22308,-0.04458 0.31232,0.17847 0.5354,0.66926 l 0.93697,-1.47234 c -0.44618,-0.57998 -1.07082,-0.75845 -1.78469,-0.6246 -1.33852,0.2677 -1.60622,1.65076 -1.33852,2.94463 l 0.08924,0.57999 -0.66891,0.08923 0.31197,1.60615 0.66926,-0.13385 0.71387,3.70308 -0.66926,0.08924 0.31232,1.60615 2.94474,-0.57999 -0.31232,-1.56153 z"
       style="font-size:7.35389996px;letter-spacing:0;word-spacing:0;fill:#511972;fill-rule:evenodd;stroke:none;font-family:fnt1"
       id="path3763"
       inkscape:connector-curvature="0" />
    <path
       d="m 97.987617,35.756173 -0.93696,0.13386 -0.08924,-0.71384 c -0.22308,-1.42768 -0.04461,-2.63231 1.20467,-2.81078 l 0.17847,-0.04462 -0.31232,-2.0969 -0.22309,0.04462 c -0.75849,0.13385 -1.2939,0.84769 -1.38313,2.0969 l -0.04462,0 -0.22309,-1.74 -2.23086,0.31232 0.22309,1.56153 0.80311,-0.08923 0.53541,3.70308 -0.89235,0.13385 0.22309,1.60615 3.39091,-0.49075 -0.22309,-1.60619 z"
       style="font-size:7.35389996px;letter-spacing:0;word-spacing:0;fill:#511972;fill-rule:evenodd;stroke:none;font-family:fnt1"
       id="path3765"
       inkscape:connector-curvature="0" />
    <path
       d="m 102.00281,36.826953 6.24641,-0.66922 -0.5354,-4.72925 -1.33852,0.13386 0.31232,3.07848 -2.05239,0.22305 -0.66926,-6.60307 0.98158,-0.08923 -0.17847,-1.69538 -3.79246,0.40155 0.17847,1.69538 0.98157,-0.13385 0.66926,6.60307 -0.98158,0.08923 0.17847,1.69538 z"
       style="font-size:7.35389996px;letter-spacing:0;word-spacing:0;fill:#511972;fill-rule:evenodd;stroke:none;font-family:fnt1"
       id="path3767"
       inkscape:connector-curvature="0" />
    <path
       d="m 131.62757,34.551583 1.11543,-0.04462 0,-0.35693 c 0.22309,0.31232 0.53541,0.49079 1.24928,0.49079 1.24893,-0.04462 1.91819,-1.02616 1.87357,-2.36465 -0.0446,-2.89997 -3.21208,-1.91843 -3.21208,-2.89997 0,-0.31232 0.22308,-0.53541 0.66926,-0.53541 0.58002,0 0.93696,0.22309 1.07081,0.71388 l 1.11507,-0.04462 -0.0446,-2.0077 -1.11507,0.04461 0,0.22309 c -0.35694,-0.22309 -0.80311,-0.31232 -1.24928,-0.31232 -1.0262,0 -1.78469,0.89231 -1.74007,2.05232 0,0.53537 0.17847,0.98151 0.35694,1.29383 1.02619,1.3831 2.8555,0.66922 2.90011,1.69538 0,0.40156 -0.31232,0.66922 -0.80311,0.66922 -0.31232,0 -0.58002,-0.04461 -0.75849,-0.26766 -0.2677,-0.26771 -0.31232,-0.44618 -0.35694,-0.75846 l -1.11543,0 0.0446,2.40922 z"
       style="font-size:7.35389996px;letter-spacing:0;word-spacing:0;fill:#511972;fill-rule:evenodd;stroke:none;font-family:fnt1"
       id="path3769"
       inkscape:connector-curvature="0" />
    <path
       d="m 155.27362,32.856203 -0.75849,-0.04462 0.0892,-5.35385 -2.23051,-0.04462 -0.0446,1.60615 0.66891,0 -0.0446,3.16772 c -0.35694,0.31228 -0.62429,0.49075 -0.84737,0.49075 -0.40156,0 -0.49079,-0.22309 -0.49079,-0.93693 l 0.0892,-4.32769 -2.27547,-0.04461 -0.0446,1.60614 0.71387,0 -0.0446,3.30153 c -0.0446,1.33849 0.5354,2.18618 1.42775,2.18618 0.49079,0.04461 0.93696,-0.17847 1.42739,-0.66923 l 0,0.62461 2.3201,0.04462 0.0446,-1.60615 z"
       style="font-size:7.35389996px;letter-spacing:0;word-spacing:0;fill:#511972;fill-rule:evenodd;stroke:none;font-family:fnt1"
       id="path3771"
       inkscape:connector-curvature="0" />
    <path
       d="m 156.43367,29.108503 0.75849,0.04461 -0.13385,3.74771 -0.75849,-0.04462 -0.0446,1.60615 2.94474,0.13385 0.0892,-1.60615 -0.66926,-0.04462 0.13386,-3.12309 c 0.2677,-0.31229 0.58002,-0.44614 0.84772,-0.44614 0.31232,0.04462 0.44618,0.26767 0.44618,0.80307 l -0.17847,4.41693 2.27512,0.08923 0.0892,-1.60618 -0.71387,-0.04458 0.0892,-3.07848 c 0.0892,-1.87385 -0.75813,-2.40923 -1.38278,-2.40923 -0.49078,-0.04461 -0.89234,0.17847 -1.42775,0.71384 l 0,-0.66922 -2.32009,-0.08923 -0.0446,1.60615 z"
       style="font-size:7.35389996px;letter-spacing:0;word-spacing:0;fill:#511972;fill-rule:evenodd;stroke:none;font-family:fnt1"
       id="path3773"
       inkscape:connector-curvature="0" />
    <path
       d="m 175.35066,30.045423 0.75849,0.08924 -0.40156,3.70308 -0.75849,-0.04462 -0.13385,1.60615 2.94474,0.31229 0.17846,-1.60615 -0.66925,-0.08924 0.35693,-3.12306 c 0.31232,-0.2677 0.62465,-0.40155 0.89235,-0.35694 0.26734,0.04462 0.4012,0.26771 0.35658,0.80308 l -0.44582,4.41692 2.27512,0.22309 0.17847,-1.56153 -0.71387,-0.08923 0.31232,-3.07845 c 0.17847,-1.87385 -0.58002,-2.45387 -1.24928,-2.49849 -0.49079,-0.0892 -0.89199,0.08923 -1.47201,0.58002 l 0.0892,-0.6246 -2.32009,-0.26771 -0.17847,1.60615 z"
       style="font-size:7.35389996px;letter-spacing:0;word-spacing:0;fill:#511972;fill-rule:evenodd;stroke:none;font-family:fnt1"
       id="path3775"
       inkscape:connector-curvature="0" />
    <path
       d="m 185.87996,36.603873 1.33852,0.13385 2.14127,-5.26462 0.71387,0.08924 0.17847,-1.60615 -2.45395,-0.26771 -0.17846,1.60619 0.49079,0.04458 -1.24893,3.07848 -0.40155,-3.25691 0.49078,0.04461 0.17847,-1.56156 -2.8555,-0.31229 -0.17847,1.60615 0.71388,0.04462 1.07081,5.62152 z"
       style="font-size:7.35389996px;letter-spacing:0;word-spacing:0;fill:#511972;fill-rule:evenodd;stroke:none;font-family:fnt1"
       id="path3777"
       inkscape:connector-curvature="0" />
    <path
       d="m 196.31968,32.365413 0.75849,0.08923 -0.53541,3.70309 -0.75813,-0.08923 -0.22309,1.60614 2.94438,0.40156 0.22309,-1.60615 -0.62465,-0.08923 0.44618,-3.07848 c 0.31232,-0.26767 0.62464,-0.40152 0.89234,-0.35691 0.31232,0.04462 0.44617,0.26767 0.35694,0.84769 l -0.62464,4.37231 2.27548,0.31229 0.22308,-1.60615 -0.71387,-0.08923 0.44617,-3.03383 c 0.2677,-1.87385 -0.49079,-2.49846 -1.16005,-2.58769 -0.49079,-0.04462 -0.89234,0.08923 -1.47237,0.57998 l 0.0892,-0.66922 -2.3201,-0.31232 -0.22308,1.60615 z"
       style="font-size:7.35389996px;letter-spacing:0;word-spacing:0;fill:#511972;fill-rule:evenodd;stroke:none;font-family:fnt1"
       id="path3779"
       inkscape:connector-curvature="0" />
    <path
       d="m 205.15353,39.057743 3.39091,0.57999 0.2677,-1.56153 -0.89235,-0.17847 1.42776,-8.25386 -2.49857,-0.44614 -0.2677,1.56153 0.98158,0.17847 -1.16005,6.6923 -0.98158,-0.17847 -0.2677,1.60618 z"
       style="font-size:7.35389996px;letter-spacing:0;word-spacing:0;fill:#511972;fill-rule:evenodd;stroke:none;font-family:fnt1"
       id="path3781"
       inkscape:connector-curvature="0" />
    <path
       d="m 235.31369,42.983883 -0.62464,2.3646 1.60622,0.44618 0.62464,-2.36461 -1.60622,-0.44617 z"
       style="font-size:7.35389996px;letter-spacing:0;word-spacing:0;fill:#511972;fill-rule:evenodd;stroke:none;font-family:fnt1"
       id="path3783"
       inkscape:connector-curvature="0" />
    <path
       d="m 239.15077,46.597733 1.33816,0.40152 4.1494,-7.58461 0.80311,0.22309 0.44618,-1.65077 -2.85551,-0.75845 -0.44617,1.65076 0.75849,0.17847 -2.45394,4.55074 0,0 0.17847,-5.17538 0.75849,0.22309 0.44617,-1.65077 -3.34593,-0.89231 -0.44617,1.65077 0.8031,0.22308 -0.13385,8.61077 z"
       style="font-size:7.35389996px;letter-spacing:0;word-spacing:0;fill:#511972;fill-rule:evenodd;stroke:none;font-family:fnt1"
       id="path3785"
       inkscape:connector-curvature="0" />
    <path
       d="m 242.67518,44.991583 -0.62464,2.36461 1.65083,0.40155 0.62464,-2.32002 -1.65083,-0.44614 z"
       style="font-size:7.35389996px;letter-spacing:0;word-spacing:0;fill:#511972;fill-rule:evenodd;stroke:none;font-family:fnt1"
       id="path3787"
       inkscape:connector-curvature="0" />
    <path
       d="m 79.962977,218.67926 c -5.97835,0 -9.012321,4.19384 -9.012321,8.65538 0,4.37231 2.900121,8.7 9.012321,8.7 6.1122,0 8.9677,-4.37231 8.9677,-8.7 0,-4.46154 -2.94473,-8.65538 -8.9677,-8.65538 z m 0,3.07848 c 2.49856,0 4.46136,2.0969 4.46136,5.5769 0,3.88155 -2.27512,5.62155 -4.46136,5.62155 -2.67703,0 -4.46172,-2.2754 -4.46172,-5.53232 0,-4.05998 2.32009,-5.66613 4.46172,-5.66613"
       style="font-size:7.35389996px;letter-spacing:0;word-spacing:0;fill:#ffffff;fill-rule:evenodd;stroke:none;font-family:fnt1"
       id="path3789"
       inkscape:connector-curvature="0" />
    <path
       d="m 90.893837,235.81155 2.76591,0 0,-1.42768 0.04462,0 c 0.71387,1.07078 1.78469,1.65077 3.25705,1.65077 1.69546,0 4.684453,-1.02616 4.684453,-5.04153 0,-5.93384 -7.450713,-5.30924 -7.450713,-8.0754 0,-0.75845 0.66925,-1.33844 1.5616,-1.33844 1.24928,0 2.14163,0.93692 2.36471,2.45384 l 2.721293,0 0,-5.08615 -2.721293,0 0,1.38306 -0.04462,0 c -0.66925,-1.02616 -1.69545,-1.56153 -2.98935,-1.56153 -1.96316,0 -4.32751,1.33845 -4.32751,4.5954 0,5.26461 7.1384,4.86306 7.1384,7.94154 0,1.02612 -0.80311,1.78462 -1.78469,1.78462 -1.38314,0 -2.49857,-1.20463 -2.45395,-3.03387 l -2.76591,0 0,5.75537 z"
       style="font-size:7.35389996px;letter-spacing:0;word-spacing:0;fill:#ffffff;fill-rule:evenodd;stroke:none;font-family:fnt1"
       id="path3791"
       inkscape:connector-curvature="0" />
    <path
       d="m 103.5198,235.81155 7.09378,0 0,-2.85536 -2.00742,0 0,-9.54769 0.0446,0 6.91531,12.40305 3.61364,0 0,-14.00923 2.27547,0 0,-2.85536 -7.27225,0 0,2.85536 2.09701,0 0,7.67387 -0.0446,0 -5.93409,-10.52923 -6.78146,0 0,2.85536 2.18624,0 0,11.15387 -2.18624,0 0,2.85536 z"
       style="font-size:7.35389996px;letter-spacing:0;word-spacing:0;fill:#ffffff;fill-rule:evenodd;stroke:none;font-family:fnt1"
       id="path3793"
       inkscape:connector-curvature="0" />
    <path
       d="m 137.47207,232.95619 -1.91854,0 -3.39055,-11.15387 2.18624,0 0,-2.85536 -10.57392,0 0,2.85536 2.18624,0 -3.16782,11.15387 -2.00777,0 0,2.85536 7.18301,0 0,-2.85536 -2.18589,0 0.89199,-2.90001 4.19402,0 0.75849,2.90001 -2.00777,0 0,2.85536 7.85227,0 0,-2.85536 z m -7.27225,-5.39846 -2.81088,0 1.47236,-5.08615 0.0446,0 1.2939,5.08615 z"
       style="font-size:7.35389996px;letter-spacing:0;word-spacing:0;fill:#ffffff;fill-rule:evenodd;stroke:none;font-family:fnt1"
       id="path3795"
       inkscape:connector-curvature="0" />
    <path
       d="m 138.18594,235.81155 8.65539,0 c 4.23863,0 5.97835,-2.31998 5.97835,-4.95229 0,-1.91847 -0.93661,-3.25692 -2.89976,-4.01537 1.5616,-0.66926 2.27547,-1.82924 2.27547,-3.48 0,-1.29387 -0.5354,-2.36464 -1.24928,-3.1231 -1.07081,-1.15998 -2.67703,-1.29383 -4.37249,-1.29383 l -8.38768,0 0,2.85536 2.00778,0 0,11.15387 -2.00778,0 0,2.85536 z m 6.20144,-2.85536 0,-4.50616 1.82931,0 c 1.20466,0 2.27547,0.71384 2.27547,2.27538 0,1.20462 -0.44617,2.23078 -2.40933,2.23078 l -1.69545,0 0,-7.36155 0,-3.79232 1.47237,0 c 1.60622,0 2.14162,0.71387 2.14162,1.82923 0,1.16002 -0.66925,1.96309 -1.96315,1.96309 l -1.65084,0 0,7.36155 z"
       style="font-size:7.35389996px;letter-spacing:0;word-spacing:0;fill:#ffffff;fill-rule:evenodd;stroke:none;font-family:fnt1"
       id="path3797"
       inkscape:connector-curvature="0" />
    <path
       d="m 171.42434,232.95619 -2.09665,0 -2.63242,-5.08614 c 1.87393,-0.89231 2.76627,-2.27541 2.76627,-4.19388 0,-2.58769 -1.69545,-4.72921 -4.86328,-4.72921 l -10.03851,0 0,2.85536 2.18624,0 0,11.15387 -2.18624,0 0,2.85536 8.43229,0 0,-2.85536 -2.00741,0 0,-4.55077 1.82895,0 3.65861,7.40613 4.95215,0 0,-2.85536 z m -10.43971,-7.27232 0,-3.88155 2.14127,0 c 1.5616,0 1.96315,1.20463 1.96315,1.91847 0,0.89231 -0.5354,1.96308 -2.40933,1.96308 l -1.69509,0 z"
       style="font-size:7.35389996px;letter-spacing:0;word-spacing:0;fill:#ffffff;fill-rule:evenodd;stroke:none;font-family:fnt1"
       id="path3799"
       inkscape:connector-curvature="0" />
    <path
       d="m 181.90903,213.8162 c -0.93696,0 -1.69545,0.75845 -1.69545,1.73999 0,0.93693 0.75849,1.74 1.69545,1.74 0.93696,0 1.69545,-0.80307 1.69545,-1.74 0,-0.98154 -0.75849,-1.73999 -1.69545,-1.73999 z m -5.30909,0 c -0.93696,0 -1.65084,0.75845 -1.65084,1.73999 0,0.93693 0.71388,1.74 1.65084,1.74 0.93696,0 1.69545,-0.80307 1.69545,-1.74 0,-0.98154 -0.75849,-1.73999 -1.69545,-1.73999 l -5.04175,7.98612 1.87393,0 0,8.78923 c 0,4.14926 2.72165,5.39847 5.88911,5.39847 2.27548,0 5.57715,-0.84769 5.57715,-4.77383 l 0,-9.41387 2.00778,0 0,-2.85536 -6.24641,0 0,2.85536 1.33851,0 0,8.7 c 0,1.91847 -0.89234,2.63231 -2.23086,2.63231 -1.60586,0 -2.09665,-1.11536 -2.09665,-2.76613 l 0,-8.56618 1.38278,0 0,-2.85536 -7.49534,0 0,2.85536 5.04175,-7.98612 z"
       style="font-size:7.35389996px;letter-spacing:0;word-spacing:0;fill:#ffffff;fill-rule:evenodd;stroke:none;font-family:fnt1"
       id="path3801"
       inkscape:connector-curvature="0" />
    <path
       d="m 200.82601,218.94696 0,1.29383 c -1.33851,-1.07074 -2.90011,-1.56153 -4.86327,-1.56153 -5.04139,0 -8.52153,3.52461 -8.52153,8.65538 0,3.70309 1.87392,8.7 8.78923,8.7 3.16782,0 6.78182,-1.33845 7.98648,-5.88922 l -3.16782,-1.60615 c -0.62464,2.76616 -2.27548,4.41692 -4.50634,4.41692 -2.72129,0 -4.5506,-2.2754 -4.5506,-5.53232 0,-3.48 1.87393,-5.75537 4.81831,-5.75537 1.02619,0 1.60621,0.22305 2.76626,1.11536 0.44617,0.35694 0.93696,1.33848 1.24928,2.09694 l 2.72165,0 0,-5.93384 -2.72165,0 z"
       style="font-size:7.35389996px;letter-spacing:0;word-spacing:0;fill:#ffffff;fill-rule:evenodd;stroke:none;font-family:fnt1"
       id="path3803"
       inkscape:connector-curvature="0" />
    <path
       d="m 205.64432,235.81155 8.34306,0 0,-2.85536 -1.9628,0 0,-11.15387 1.9628,0 0,-2.85536 -8.34306,0 0,2.85536 2.18624,0 0,11.15387 -2.18624,0 0,2.85536 z m 9.50311,0 8.7,0 0,-2.85536 -1.65084,0 -5.30909,-6.51386 4.55095,-4.64001 2.00742,0 0,-2.85536 -7.89689,0 0,2.85536 1.87392,0 -5.26447,5.1308 4.86292,6.02307 -1.87392,0 0,2.85536 z"
       style="font-size:7.35389996px;letter-spacing:0;word-spacing:0;fill:#ffffff;fill-rule:evenodd;stroke:none;font-family:fnt1"
       id="path3805"
       inkscape:connector-curvature="0" />
  </g>
</svg>
