<?xml version="1.0" encoding="UTF-8" standalone="no"?>
<!-- Created with Inkscape (http://www.inkscape.org/) -->
<svg
   xmlns:svg="http://www.w3.org/2000/svg"
   xmlns="http://www.w3.org/2000/svg"
   version="1.0"
   width="230"
   height="300"
   id="svg8246">
  <defs
     id="defs3" />
  <g
     transform="translate(-15.868455,-26.88438)"
     id="layer1">
    <g
       transform="translate(4.2137975,5)"
       id="g8316">
      <path
         d="M 15.868455,26.88438 L 15.868455,206.03431 C 15.868455,267.21184 65.467909,316.88438 126.66376,316.88438 C 187.84129,316.88438 237.44086,267.21184 237.44086,206.03431 L 237.44086,26.88438 L 15.868455,26.88438"
         style="font-size:9px;letter-spacing:0;word-spacing:0;fill:#ffd42e;fill-rule:nonzero;stroke:none;stroke-width:0.25299999;stroke-linecap:butt;stroke-linejoin:miter;stroke-miterlimit:4;stroke-dasharray:none;font-family:fnt1"
         id="path2522" />
      <path
         d="M 234.99373,29.258436 C 234.99373,34.006548 234.99373,206.03431 234.99373,206.03431 C 234.99373,265.75085 186.39864,314.32773 126.66376,314.32773 C 66.928891,314.32773 18.315471,265.75085 18.315471,206.03431 C 18.315471,206.03431 18.315471,34.006548 18.315471,29.258436 C 23.063561,29.258436 230.24564,29.258436 234.99373,29.258436"
         style="font-size:9px;letter-spacing:0;word-spacing:0;fill:#ba3733;fill-rule:nonzero;stroke:none;stroke-width:0.25299999;stroke-linecap:butt;stroke-linejoin:miter;stroke-miterlimit:4;stroke-dasharray:none;font-family:fnt1"
         id="path2524" />
      <path
         d="M 21.675654,206.03431 C 21.675654,263.92464 68.77332,311.04052 126.66376,311.04052 C 184.53588,311.04052 231.63355,263.92464 231.63355,206.03431 C 231.63355,206.03431 231.63355,158.37048 231.63355,112.8982 C 174.25439,112.8982 100.78654,112.8982 21.675654,112.8982 C 21.675654,158.37048 21.675654,206.03431 21.675654,206.03431"
         style="font-size:9px;letter-spacing:0;word-spacing:0;fill:#ffd42e;fill-rule:nonzero;stroke:none;stroke-width:0.25299999;stroke-linecap:butt;stroke-linejoin:miter;stroke-miterlimit:4;stroke-dasharray:none;font-family:fnt1"
         id="path2526" />
      <path
         d="M 231.63355,32.545586 C 220.91375,32.545586 32.395453,32.545586 21.675654,32.545586 C 21.675654,37.476321 21.675654,72.35667 21.675654,109.42849 C 100.91439,109.42849 174.32748,109.42849 231.63355,109.42849 C 231.63355,72.35667 231.63355,37.476321 231.63355,32.545586"
         style="font-size:9px;letter-spacing:0;word-spacing:0;fill:#ffd42e;fill-rule:nonzero;stroke:none;stroke-width:0.25299999;stroke-linecap:butt;stroke-linejoin:miter;stroke-miterlimit:4;stroke-dasharray:none;font-family:fnt1"
         id="path2528" />
      <path
         d="M 229.18641,35.102265 C 224.45654,35.102265 28.870879,35.102265 24.122788,35.102265 C 24.122788,37.111075 24.122788,70.34785 24.122788,107.05445 L 229.18641,107.05445 C 229.18641,70.34785 229.18641,37.111075 229.18641,35.102265"
         style="font-size:9px;letter-spacing:0;word-spacing:0;fill:#ffffff;fill-rule:nonzero;stroke:none;stroke-width:0.25299999;stroke-linecap:butt;stroke-linejoin:miter;stroke-miterlimit:4;stroke-dasharray:none;font-family:fnt1"
         id="path2530" />
      <path
         d="M 126.66376,115.27223 L 126.66376,308.66648 C 183.18452,308.66648 229.18641,262.64637 229.18641,206.03431 C 229.18641,206.03431 229.18641,159.64886 229.18641,115.27223 C 198.85323,115.27223 164.17384,115.27223 126.66376,115.27223"
         style="font-size:9px;letter-spacing:0;word-spacing:0;fill:#ffffff;fill-rule:nonzero;stroke:none;stroke-width:0.25299999;stroke-linecap:butt;stroke-linejoin:miter;stroke-miterlimit:4;stroke-dasharray:none;font-family:fnt1"
         id="path2532" />
      <path
         d="M 45.927603,47.33778 L 88.971085,47.33778 L 88.971085,57.016627 L 58.34577,57.016627 L 58.34577,64.504021 L 87.510094,64.504021 L 87.510094,74.000235 L 58.34577,74.000235 L 58.34577,88.061959 L 45.927603,88.061959 L 45.927603,47.33778"
         style="font-size:9px;letter-spacing:0;word-spacing:0;fill:#ba3733;fill-rule:nonzero;stroke:none;stroke-width:0.25299999;stroke-linecap:butt;stroke-linejoin:miter;stroke-miterlimit:4;stroke-dasharray:none;font-family:fnt1"
         id="path2534" />
      <path
         d="M 130.82748,72.35667 L 143.24563,72.35667 C 143.33695,74.36549 143.37349,75.64383 143.37349,76.191688 C 143.37349,79.296216 142.91685,81.852894 141.98547,83.49646 C 140.94457,85.50528 138.91753,86.966242 135.92256,87.696723 C 132.90927,88.427194 127.72287,88.609817 120.32683,88.609817 C 112.56545,88.609817 107.05038,88.609817 103.74496,88.244581 C 100.45786,88.061959 97.974188,87.331478 96.312377,86.601006 C 94.814836,85.687912 93.70084,84.774799 92.952195,83.313847 C 92.221627,82.035507 91.746897,80.20931 91.527735,78.017876 C 91.345122,76.191688 91.25382,72.721906 91.25382,67.973794 C 91.25382,63.225682 91.345122,59.755909 91.527735,57.747098 C 91.710348,55.555665 92.057352,54.094703 92.568632,52.816364 C 93.70084,50.259695 96.001913,48.61612 99.471729,47.885629 C 102.92321,47.155158 109.91749,46.60729 120.41814,46.60729 C 125.6593,46.60729 129.47611,46.789922 131.86837,46.972545 C 134.26075,47.33778 136.15994,47.703016 137.56618,48.433497 C 139.42882,49.346591 140.72542,50.62493 141.47419,52.268505 C 142.24117,54.094703 142.60639,56.468759 142.60639,59.938532 C 142.60639,60.121154 142.60639,60.669003 142.58817,61.947342 L 130.17002,61.947342 C 130.11525,60.4864 130.02394,59.573286 129.91431,59.20806 C 129.80479,58.660202 129.58564,58.294947 129.23862,58.112344 C 128.76389,57.564476 127.5586,57.381863 125.64108,57.19924 C 123.70535,57.016627 120.78336,56.834004 116.85702,56.834004 C 112.98555,56.834004 110.30104,57.016627 108.8035,57.19924 C 107.30608,57.381863 106.24684,57.564476 105.64426,58.112344 C 104.89549,58.660202 104.38409,59.755909 104.09196,61.034248 C 103.81805,62.49521 103.67187,64.869266 103.67187,67.973794 C 103.67187,70.895718 103.79972,73.087151 104.05542,74.36549 C 104.31111,75.64383 104.80418,76.556924 105.55296,77.104792 C 106.24684,77.652641 107.36084,78.017876 108.87659,78.200499 C 110.39235,78.383122 113.09507,78.383122 116.94832,78.383122 C 121.69653,78.383122 124.8741,78.383122 126.46282,78.200499 C 128.03334,78.017876 129.1109,77.652641 129.65873,77.104792 C 130.4075,76.556924 130.79094,74.913349 130.82748,72.35667"
         style="font-size:9px;letter-spacing:0;word-spacing:0;fill:#ba3733;fill-rule:nonzero;stroke:none;stroke-width:0.25299999;stroke-linecap:butt;stroke-linejoin:miter;stroke-miterlimit:4;stroke-dasharray:none;font-family:fnt1"
         id="path2536" />
      <path
         d="M 24.122788,115.27223 C 24.122788,159.64886 24.122788,206.03431 24.122788,206.03431 C 24.122788,262.64637 70.124681,308.66648 126.66376,308.66648 L 126.66376,115.27223 C 94.266997,115.27223 59.770221,115.27223 24.122788,115.27223"
         style="font-size:9px;letter-spacing:0;word-spacing:0;fill:#ba3733;fill-rule:nonzero;stroke:none;stroke-width:0.25299999;stroke-linecap:butt;stroke-linejoin:miter;stroke-miterlimit:4;stroke-dasharray:none;font-family:fnt1"
         id="path2538" />
      <path
         d="M 165.47044,72.174057 L 172.95779,56.834004 L 174.67448,56.834004 L 182.21659,72.174057 L 165.47044,72.174057 z M 184.11589,47.33778 L 163.93635,47.33778 L 141.43764,91.166496 L 109.4062,91.166496 L 109.4062,100.84537 L 151.57307,100.84537 L 161.12411,81.122413 L 186.59945,81.122413 L 196.20527,100.84537 L 212.56799,100.84537 L 184.11589,47.33778"
         style="font-size:9px;letter-spacing:0;word-spacing:0;fill:#ba3733;fill-rule:nonzero;stroke:none;stroke-width:0.25299999;stroke-linecap:butt;stroke-linejoin:miter;stroke-miterlimit:4;stroke-dasharray:none;font-family:fnt1"
         id="path2540" />
      <path
         d="M 77.666904,100.84537 L 109.4062,100.84537 L 109.4062,91.166496 L 77.666904,91.166496 L 77.666904,100.84537 z "
         style="font-size:9px;letter-spacing:0;word-spacing:0;fill:#46714d;fill-rule:nonzero;stroke:none;stroke-width:0.25299999;stroke-linecap:butt;stroke-linejoin:miter;stroke-miterlimit:4;stroke-dasharray:none;font-family:fnt1"
         id="path2542" />
      <path
         d="M 45.927603,100.84537 L 77.666904,100.84537 L 77.666904,91.166496 L 45.927603,91.166496 L 45.927603,100.84537 z "
         style="font-size:9px;letter-spacing:0;word-spacing:0;fill:#ba3733;fill-rule:nonzero;stroke:none;stroke-width:0.25299999;stroke-linecap:butt;stroke-linejoin:miter;stroke-miterlimit:4;stroke-dasharray:none;font-family:fnt1"
         id="path2544" />
      <path
         d="M 110.4289,92.262203 C 110.4289,93.723126 110.4289,98.288722 110.4289,99.749597 C 111.65241,99.749597 128.08821,99.749597 140.46983,99.749597 L 140.46983,92.262203 C 130.68141,92.262203 111.87156,92.262203 110.4289,92.262203"
         style="font-size:9px;letter-spacing:0;word-spacing:0;fill:#ffffff;fill-rule:nonzero;stroke:none;stroke-width:0.25299999;stroke-linecap:butt;stroke-linejoin:miter;stroke-miterlimit:4;stroke-dasharray:none;font-family:fnt1"
         id="path2546" />
      <path
         d="M 115.46911,286.56953 C 113.58814,286.56953 112.14546,285.29114 112.14546,281.63883 C 112.14546,279.08206 113.1134,277.25596 115.15865,277.25596 C 117.84315,277.25596 118.97548,280.36045 118.97548,282.9171 C 118.97548,284.01288 118.84762,284.92593 118.62847,285.8391 C 117.73364,286.38692 116.63797,286.56953 115.46911,286.56953 z M 115.5422,275.06453 C 111.96286,275.06453 108.89481,277.8038 108.89481,282.00405 C 108.89481,286.0217 111.3054,288.76096 115.01259,288.76096 C 116.05348,288.76096 116.94832,288.57836 117.84315,288.21313 C 116.30919,291.50023 113.42386,293.50906 110.37402,294.60482 L 111.23242,296.61365 C 114.04478,295.70048 116.30919,294.60482 118.51895,292.41339 C 120.32683,290.58718 122.22613,287.11736 122.22613,283.28232 C 122.22613,277.8038 118.92071,275.06453 115.5422,275.06453"
         style="font-size:9px;letter-spacing:0;word-spacing:0;fill:#ffffff;fill-rule:nonzero;stroke:none;stroke-width:0.25299999;stroke-linecap:butt;stroke-linejoin:miter;stroke-miterlimit:4;stroke-dasharray:none;font-family:fnt1"
         id="path2548" />
      <path
         d="M 101.444,277.8038 L 104.01887,276.89062 L 104.01887,275.61236 L 95.636687,275.61236 L 95.636687,276.89062 L 98.193341,277.8038 L 98.193341,287.29996 L 95.636687,288.03053 L 95.636687,289.30879 L 104.01887,289.30879 L 104.01887,288.03053 L 101.444,287.29996 L 101.444,277.8038"
         style="font-size:9px;letter-spacing:0;word-spacing:0;fill:#ffffff;fill-rule:nonzero;stroke:none;stroke-width:0.25299999;stroke-linecap:butt;stroke-linejoin:miter;stroke-miterlimit:4;stroke-dasharray:none;font-family:fnt1"
         id="path2550" />
      <path
         d="M 138.7166,287.29996 C 136.63479,287.29996 134.22421,285.65648 134.22421,282.36927 C 134.22421,279.08206 136.63479,277.43857 138.7166,277.43857 C 140.81672,277.43857 143.22731,279.08206 143.22731,282.36927 C 143.22731,285.65648 140.81672,287.29996 138.7166,287.29996 z M 138.7166,275.06453 C 134.53466,275.06453 131.08318,278.16901 131.08318,282.36927 C 131.08318,286.56953 134.53466,289.67401 138.7166,289.67401 C 142.91685,289.67401 146.36846,286.56953 146.36846,282.36927 C 146.36846,278.16901 142.91685,275.06453 138.7166,275.06453"
         style="font-size:9px;letter-spacing:0;word-spacing:0;fill:#ba3733;fill-rule:nonzero;stroke:none;stroke-width:0.25299999;stroke-linecap:butt;stroke-linejoin:miter;stroke-miterlimit:4;stroke-dasharray:none;font-family:fnt1"
         id="path2552" />
      <path
         d="M 147.70148,275.61236 L 147.70148,278.16901 L 156.68637,278.16901 C 154.53148,281.45622 150.64169,289.30879 149.45473,295.51788 L 152.12089,295.51788 C 153.19834,290.22195 157.16123,282.36927 160.19274,277.62118 L 160.19274,275.61236 L 147.70148,275.61236"
         style="font-size:9px;letter-spacing:0;word-spacing:0;fill:#ba3733;fill-rule:nonzero;stroke:none;stroke-width:0.25299999;stroke-linecap:butt;stroke-linejoin:miter;stroke-miterlimit:4;stroke-dasharray:none;font-family:fnt1"
         id="path2554" />
      <path
         d="M 165.96351,222.47001 L 153.78272,211.51283 C 148.24943,212.426 142.58817,213.15644 136.85395,213.52166 L 136.7261,204.93853 C 146.91628,204.02549 151.79221,201.2861 156.24818,197.08584 C 161.59885,191.97254 164.10075,185.39823 164.10075,175.90206 C 164.10075,159.83148 154.64113,144.67405 146.55106,136.63875 C 138.95408,128.96879 130.97354,126.77735 126.88293,125.86418 L 126.66376,125.86418 L 126.42627,125.86418 C 122.35387,126.77735 114.35512,128.96879 106.75825,136.63875 C 98.668197,144.67405 89.226662,159.83148 89.226662,175.90206 C 89.226662,185.39823 91.710348,191.97254 97.061138,197.08584 C 101.51698,201.2861 106.39292,204.02549 116.60143,204.93853 L 116.45525,213.52166 C 110.72102,213.15644 105.0781,212.426 99.526481,211.51283 L 87.345693,222.47001 L 92.312929,227.94865 C 91.819871,229.0443 91.582496,230.3227 91.582496,231.60096 C 91.582496,235.43599 94.650551,238.5406 98.449044,238.5406 C 99.581242,238.5406 101.69959,238.17526 103.06928,236.53177 C 103.47104,235.98382 103.76328,235.43599 103.96411,234.70555 C 107.10514,241.27986 108.98611,251.6892 109.80798,267.02923 L 109.86273,268.12489 L 143.44647,268.12489 L 143.51955,267.02923 C 144.32309,251.6892 146.22227,241.27986 149.36342,234.70555 C 149.54603,235.43599 149.83816,235.98382 150.23992,236.53177 C 151.60961,238.17526 153.72795,238.5406 154.87848,238.5406 C 158.65865,238.5406 161.74492,235.43599 161.74492,231.60096 C 161.74492,230.3227 161.48933,229.0443 161.01448,227.94865 L 165.96351,222.47001"
         style="font-size:9px;letter-spacing:0;word-spacing:0;fill:#221f1f;fill-rule:nonzero;stroke:none;stroke-width:0.25299999;stroke-linecap:butt;stroke-linejoin:miter;stroke-miterlimit:4;stroke-dasharray:none;font-family:fnt1"
         id="path2556" />
      <path
         d="M 128.65426,202.7471 L 136.01387,198.36423 L 126.66376,192.88559 L 117.29532,198.36423 L 124.65493,202.7471 C 125.31241,202.7471 125.96975,202.7471 126.66376,202.7471 C 127.33944,202.7471 127.9969,202.7471 128.65426,202.7471"
         style="font-size:9px;letter-spacing:0;word-spacing:0;fill:#46714d;fill-rule:nonzero;stroke:none;stroke-width:0.25299999;stroke-linecap:butt;stroke-linejoin:miter;stroke-miterlimit:4;stroke-dasharray:none;font-family:fnt1"
         id="path2558" />
      <path
         d="M 140.28723,143.9436 L 149.63733,149.60474 L 152.32183,147.96125 C 150.47729,145.03926 148.50502,142.48261 146.49619,140.29117 L 140.28723,143.9436"
         style="font-size:9px;letter-spacing:0;word-spacing:0;fill:#46714d;fill-rule:nonzero;stroke:none;stroke-width:0.25299999;stroke-linecap:butt;stroke-linejoin:miter;stroke-miterlimit:4;stroke-dasharray:none;font-family:fnt1"
         id="path2560" />
      <path
         d="M 103.67187,192.88559 L 99.179476,195.62497 C 101.75446,197.8164 104.58504,199.64262 108.78528,200.92088 L 113.04031,198.36423 L 103.67187,192.88559"
         style="font-size:9px;letter-spacing:0;word-spacing:0;fill:#46714d;fill-rule:nonzero;stroke:none;stroke-width:0.25299999;stroke-linecap:butt;stroke-linejoin:miter;stroke-miterlimit:4;stroke-dasharray:none;font-family:fnt1"
         id="path2562" />
      <path
         d="M 111.8168,201.65144 C 114.17251,202.19927 116.89356,202.38188 120.14422,202.56449 L 115.15865,199.64262 L 111.8168,201.65144"
         style="font-size:9px;letter-spacing:0;word-spacing:0;fill:#46714d;fill-rule:nonzero;stroke:none;stroke-width:0.25299999;stroke-linecap:butt;stroke-linejoin:miter;stroke-miterlimit:4;stroke-dasharray:none;font-family:fnt1"
         id="path2564" />
      <path
         d="M 133.16497,202.56449 C 136.41564,202.38188 139.1549,202.19927 141.4924,201.65144 L 138.15055,199.64262 L 133.16497,202.56449"
         style="font-size:9px;letter-spacing:0;word-spacing:0;fill:#46714d;fill-rule:nonzero;stroke:none;stroke-width:0.25299999;stroke-linecap:butt;stroke-linejoin:miter;stroke-miterlimit:4;stroke-dasharray:none;font-family:fnt1"
         id="path2566" />
      <path
         d="M 155.71856,193.98136 C 157.61774,191.78993 159.02398,189.5985 159.97358,186.67662 L 151.77389,191.60732 L 155.71856,193.98136"
         style="font-size:9px;letter-spacing:0;word-spacing:0;fill:#46714d;fill-rule:nonzero;stroke:none;stroke-width:0.25299999;stroke-linecap:butt;stroke-linejoin:miter;stroke-miterlimit:4;stroke-dasharray:none;font-family:fnt1"
         id="path2568" />
      <path
         d="M 161.05102,169.8756 C 160.53975,166.58838 159.68134,163.4839 158.54913,160.3793 L 151.77389,164.39696 L 161.05102,169.8756"
         style="font-size:9px;letter-spacing:0;word-spacing:0;fill:#46714d;fill-rule:nonzero;stroke:none;stroke-width:0.25299999;stroke-linecap:butt;stroke-linejoin:miter;stroke-miterlimit:4;stroke-dasharray:none;font-family:fnt1"
         id="path2570" />
      <path
         d="M 161.21542,172.43225 L 161.12411,172.43225 L 151.77389,177.91077 L 160.86841,183.38941 C 161.32494,181.19798 161.54409,178.64132 161.54409,175.90206 C 161.54409,174.80629 161.45279,173.52791 161.34315,172.43225 L 161.30673,172.43225 L 161.21542,172.43225"
         style="font-size:9px;letter-spacing:0;word-spacing:0;fill:#46714d;fill-rule:nonzero;stroke:none;stroke-width:0.25299999;stroke-linecap:butt;stroke-linejoin:miter;stroke-miterlimit:4;stroke-dasharray:none;font-family:fnt1"
         id="path2572" />
      <path
         d="M 140.28723,198.36423 L 144.52392,200.92088 C 148.7425,199.64262 151.55486,197.8164 154.12972,195.62497 L 149.63733,192.88559 L 140.28723,198.36423"
         style="font-size:9px;letter-spacing:0;word-spacing:0;fill:#46714d;fill-rule:nonzero;stroke:none;stroke-width:0.25299999;stroke-linecap:butt;stroke-linejoin:miter;stroke-miterlimit:4;stroke-dasharray:none;font-family:fnt1"
         id="path2574" />
      <path
         d="M 93.353952,186.67662 C 94.303547,189.5985 95.691458,191.78993 97.590634,193.98136 L 101.53531,191.60732 L 93.353952,186.67662"
         style="font-size:9px;letter-spacing:0;word-spacing:0;fill:#46714d;fill-rule:nonzero;stroke:none;stroke-width:0.25299999;stroke-linecap:butt;stroke-linejoin:miter;stroke-miterlimit:4;stroke-dasharray:none;font-family:fnt1"
         id="path2576" />
      <path
         d="M 134.62597,131.16022 C 131.41186,129.69923 128.59949,128.78618 126.66376,128.42096 C 124.7097,128.78618 121.89734,129.69923 118.68322,131.16022 L 126.66376,135.9083 L 134.62597,131.16022"
         style="font-size:9px;letter-spacing:0;word-spacing:0;fill:#46714d;fill-rule:nonzero;stroke:none;stroke-width:0.25299999;stroke-linecap:butt;stroke-linejoin:miter;stroke-miterlimit:4;stroke-dasharray:none;font-family:fnt1"
         id="path2578" />
      <path
         d="M 124.52709,137.18669 L 116.43704,132.43849 C 113.91693,133.89948 111.21409,135.9083 108.56614,138.46495 C 108.49304,138.46495 108.42007,138.64757 108.36519,138.64757 L 115.15865,142.66522 L 124.52709,137.18669"
         style="font-size:9px;letter-spacing:0;word-spacing:0;fill:#46714d;fill-rule:nonzero;stroke:none;stroke-width:0.25299999;stroke-linecap:butt;stroke-linejoin:miter;stroke-miterlimit:4;stroke-dasharray:none;font-family:fnt1"
         id="path2580" />
      <path
         d="M 138.15055,142.66522 L 144.96222,138.64757 C 144.88913,138.64757 144.81616,138.46495 144.74306,138.46495 C 142.09511,135.9083 139.41061,133.89948 136.87216,132.43849 L 128.78211,137.18669 L 138.15055,142.66522"
         style="font-size:9px;letter-spacing:0;word-spacing:0;fill:#46714d;fill-rule:nonzero;stroke:none;stroke-width:0.25299999;stroke-linecap:butt;stroke-linejoin:miter;stroke-miterlimit:4;stroke-dasharray:none;font-family:fnt1"
         id="path2582" />
      <path
         d="M 113.04031,143.9436 L 106.83122,140.29117 C 104.82239,142.48261 102.83191,145.03926 101.00569,147.96125 L 103.67187,149.60474 L 113.04031,143.9436"
         style="font-size:9px;letter-spacing:0;word-spacing:0;fill:#46714d;fill-rule:nonzero;stroke:none;stroke-width:0.25299999;stroke-linecap:butt;stroke-linejoin:miter;stroke-miterlimit:4;stroke-dasharray:none;font-family:fnt1"
         id="path2584" />
      <path
         d="M 92.185203,172.43225 L 92.093902,172.43225 L 92.002474,172.43225 L 91.96605,172.43225 C 91.856411,173.52791 91.783437,174.80629 91.783437,175.90206 C 91.783437,178.64132 92.002474,181.19798 92.44079,183.38941 L 101.53531,177.91077 L 92.185203,172.43225"
         style="font-size:9px;letter-spacing:0;word-spacing:0;fill:#46714d;fill-rule:nonzero;stroke:none;stroke-width:0.25299999;stroke-linecap:butt;stroke-linejoin:miter;stroke-miterlimit:4;stroke-dasharray:none;font-family:fnt1"
         id="path2586" />
      <path
         d="M 94.760065,160.3793 C 93.627866,163.4839 92.769582,166.58838 92.276505,169.8756 L 101.53531,164.39696 L 94.760065,160.3793"
         style="font-size:9px;letter-spacing:0;word-spacing:0;fill:#46714d;fill-rule:nonzero;stroke:none;stroke-width:0.25299999;stroke-linecap:butt;stroke-linejoin:miter;stroke-miterlimit:4;stroke-dasharray:none;font-family:fnt1"
         id="path2588" />
      <path
         d="M 99.855157,149.78735 C 99.270778,150.70051 98.686409,151.79618 98.156801,152.70934 L 101.53531,150.70051 L 99.855157,149.78735"
         style="font-size:9px;letter-spacing:0;word-spacing:0;fill:#46714d;fill-rule:nonzero;stroke:none;stroke-width:0.25299999;stroke-linecap:butt;stroke-linejoin:miter;stroke-miterlimit:4;stroke-dasharray:none;font-family:fnt1"
         id="path2590" />
      <path
         d="M 103.67187,163.11868 L 113.04031,157.64003 L 103.67187,151.97879 L 96.421891,156.36165 C 96.111426,156.9096 95.837512,157.64003 95.563597,158.37048 L 103.67187,163.11868"
         style="font-size:9px;letter-spacing:0;word-spacing:0;fill:#46714d;fill-rule:nonzero;stroke:none;stroke-width:0.25299999;stroke-linecap:butt;stroke-linejoin:miter;stroke-miterlimit:4;stroke-dasharray:none;font-family:fnt1"
         id="path2592" />
      <path
         d="M 117.29532,171.15386 L 126.66376,176.81511 L 136.01387,171.15386 L 126.66376,165.67533 L 117.29532,171.15386"
         style="font-size:9px;letter-spacing:0;word-spacing:0;fill:#46714d;fill-rule:nonzero;stroke:none;stroke-width:0.25299999;stroke-linecap:butt;stroke-linejoin:miter;stroke-miterlimit:4;stroke-dasharray:none;font-family:fnt1"
         id="path2594" />
      <path
         d="M 103.67187,179.18915 L 94.321759,184.85041 L 103.67187,190.32894 L 113.04031,184.85041 L 103.67187,179.18915"
         style="font-size:9px;letter-spacing:0;word-spacing:0;fill:#46714d;fill-rule:nonzero;stroke:none;stroke-width:0.25299999;stroke-linecap:butt;stroke-linejoin:miter;stroke-miterlimit:4;stroke-dasharray:none;font-family:fnt1"
         id="path2596" />
      <path
         d="M 105.80854,191.60732 L 115.15865,197.08584 L 124.52709,191.60732 L 115.15865,186.12868 L 105.80854,191.60732"
         style="font-size:9px;letter-spacing:0;word-spacing:0;fill:#46714d;fill-rule:nonzero;stroke:none;stroke-width:0.25299999;stroke-linecap:butt;stroke-linejoin:miter;stroke-miterlimit:4;stroke-dasharray:none;font-family:fnt1"
         id="path2598" />
      <path
         d="M 113.04031,171.15386 L 103.67187,165.67533 L 94.321759,171.15386 L 103.67187,176.81511 L 113.04031,171.15386"
         style="font-size:9px;letter-spacing:0;word-spacing:0;fill:#46714d;fill-rule:nonzero;stroke:none;stroke-width:0.25299999;stroke-linecap:butt;stroke-linejoin:miter;stroke-miterlimit:4;stroke-dasharray:none;font-family:fnt1"
         id="path2600" />
      <path
         d="M 124.52709,150.70051 L 115.15865,145.22188 L 105.80854,150.70051 L 115.15865,156.36165 L 124.52709,150.70051"
         style="font-size:9px;letter-spacing:0;word-spacing:0;fill:#46714d;fill-rule:nonzero;stroke:none;stroke-width:0.25299999;stroke-linecap:butt;stroke-linejoin:miter;stroke-miterlimit:4;stroke-dasharray:none;font-family:fnt1"
         id="path2602" />
      <path
         d="M 124.52709,164.39696 L 115.15865,158.91842 L 105.80854,164.39696 L 115.15865,169.8756 L 124.52709,164.39696"
         style="font-size:9px;letter-spacing:0;word-spacing:0;fill:#46714d;fill-rule:nonzero;stroke:none;stroke-width:0.25299999;stroke-linecap:butt;stroke-linejoin:miter;stroke-miterlimit:4;stroke-dasharray:none;font-family:fnt1"
         id="path2604" />
      <path
         d="M 126.66376,179.18915 L 117.29532,184.85041 L 126.66376,190.32894 L 136.01387,184.85041 L 126.66376,179.18915"
         style="font-size:9px;letter-spacing:0;word-spacing:0;fill:#46714d;fill-rule:nonzero;stroke:none;stroke-width:0.25299999;stroke-linecap:butt;stroke-linejoin:miter;stroke-miterlimit:4;stroke-dasharray:none;font-family:fnt1"
         id="path2606" />
      <path
         d="M 128.78211,191.60732 L 138.15055,197.08584 L 147.50066,191.60732 L 138.15055,186.12868 L 128.78211,191.60732"
         style="font-size:9px;letter-spacing:0;word-spacing:0;fill:#46714d;fill-rule:nonzero;stroke:none;stroke-width:0.25299999;stroke-linecap:butt;stroke-linejoin:miter;stroke-miterlimit:4;stroke-dasharray:none;font-family:fnt1"
         id="path2608" />
      <path
         d="M 128.78211,164.39696 L 138.15055,169.8756 L 147.50066,164.39696 L 138.15055,158.91842 L 128.78211,164.39696"
         style="font-size:9px;letter-spacing:0;word-spacing:0;fill:#46714d;fill-rule:nonzero;stroke:none;stroke-width:0.25299999;stroke-linecap:butt;stroke-linejoin:miter;stroke-miterlimit:4;stroke-dasharray:none;font-family:fnt1"
         id="path2610" />
      <path
         d="M 149.63733,176.81511 L 158.98744,171.15386 L 149.63733,165.67533 L 140.28723,171.15386 L 149.63733,176.81511"
         style="font-size:9px;letter-spacing:0;word-spacing:0;fill:#46714d;fill-rule:nonzero;stroke:none;stroke-width:0.25299999;stroke-linecap:butt;stroke-linejoin:miter;stroke-miterlimit:4;stroke-dasharray:none;font-family:fnt1"
         id="path2612" />
      <path
         d="M 140.28723,184.85041 L 149.63733,190.32894 L 158.98744,184.85041 L 149.63733,179.18915 L 140.28723,184.85041"
         style="font-size:9px;letter-spacing:0;word-spacing:0;fill:#46714d;fill-rule:nonzero;stroke:none;stroke-width:0.25299999;stroke-linecap:butt;stroke-linejoin:miter;stroke-miterlimit:4;stroke-dasharray:none;font-family:fnt1"
         id="path2614" />
      <path
         d="M 128.78211,150.70051 L 138.15055,156.36165 L 147.50066,150.70051 L 138.15055,145.22188 L 128.78211,150.70051"
         style="font-size:9px;letter-spacing:0;word-spacing:0;fill:#46714d;fill-rule:nonzero;stroke:none;stroke-width:0.25299999;stroke-linecap:butt;stroke-linejoin:miter;stroke-miterlimit:4;stroke-dasharray:none;font-family:fnt1"
         id="path2616" />
      <path
         d="M 136.01387,143.9436 L 126.66376,138.46495 L 117.29532,143.9436 L 126.66376,149.60474 L 136.01387,143.9436"
         style="font-size:9px;letter-spacing:0;word-spacing:0;fill:#46714d;fill-rule:nonzero;stroke:none;stroke-width:0.25299999;stroke-linecap:butt;stroke-linejoin:miter;stroke-miterlimit:4;stroke-dasharray:none;font-family:fnt1"
         id="path2618" />
      <path
         d="M 155.17062,152.70934 C 154.62279,151.79618 154.05663,150.70051 153.45404,149.78735 L 151.77389,150.70051 L 155.17062,152.70934"
         style="font-size:9px;letter-spacing:0;word-spacing:0;fill:#46714d;fill-rule:nonzero;stroke:none;stroke-width:0.25299999;stroke-linecap:butt;stroke-linejoin:miter;stroke-miterlimit:4;stroke-dasharray:none;font-family:fnt1"
         id="path2620" />
      <path
         d="M 149.63733,151.97879 L 140.28723,157.64003 L 149.63733,163.11868 L 157.7456,158.37048 C 157.4899,157.64003 157.19778,156.9096 156.90552,156.36165 L 149.63733,151.97879"
         style="font-size:9px;letter-spacing:0;word-spacing:0;fill:#46714d;fill-rule:nonzero;stroke:none;stroke-width:0.25299999;stroke-linecap:butt;stroke-linejoin:miter;stroke-miterlimit:4;stroke-dasharray:none;font-family:fnt1"
         id="path2622" />
      <path
         d="M 105.80854,177.91077 L 115.15865,183.57202 L 124.52709,177.91077 L 115.15865,172.43225 L 105.80854,177.91077"
         style="font-size:9px;letter-spacing:0;word-spacing:0;fill:#46714d;fill-rule:nonzero;stroke:none;stroke-width:0.25299999;stroke-linecap:butt;stroke-linejoin:miter;stroke-miterlimit:4;stroke-dasharray:none;font-family:fnt1"
         id="path2624" />
      <path
         d="M 126.66376,151.97879 L 117.29532,157.64003 L 126.66376,163.11868 L 136.01387,157.64003 L 126.66376,151.97879"
         style="font-size:9px;letter-spacing:0;word-spacing:0;fill:#46714d;fill-rule:nonzero;stroke:none;stroke-width:0.25299999;stroke-linecap:butt;stroke-linejoin:miter;stroke-miterlimit:4;stroke-dasharray:none;font-family:fnt1"
         id="path2626" />
      <path
         d="M 147.50066,177.91077 L 138.15055,172.43225 L 128.78211,177.91077 L 138.15055,183.57202 L 147.50066,177.91077"
         style="font-size:9px;letter-spacing:0;word-spacing:0;fill:#46714d;fill-rule:nonzero;stroke:none;stroke-width:0.25299999;stroke-linecap:butt;stroke-linejoin:miter;stroke-miterlimit:4;stroke-dasharray:none;font-family:fnt1"
         id="path2628" />
      <path
         d="M 105.75379,221.37434 L 116.34573,221.37434 L 116.43704,215.71309 C 110.94018,215.34788 105.51641,214.80005 100.20216,213.70426 C 96.221066,217.3567 92.714705,220.64379 90.43196,222.65262 L 93.463465,225.93982 C 95.727998,223.01784 99.983008,221.37434 105.75379,221.37434"
         style="font-size:9px;letter-spacing:0;word-spacing:0;fill:#ffd42e;fill-rule:nonzero;stroke:none;stroke-width:0.25299999;stroke-linecap:butt;stroke-linejoin:miter;stroke-miterlimit:4;stroke-dasharray:none;font-family:fnt1"
         id="path2630" />
      <path
         d="M 153.10704,213.70426 C 147.79279,214.61744 142.38723,215.34788 136.8905,215.71309 L 136.9818,221.37434 L 137.21917,221.37434 L 147.55541,221.37434 C 153.32619,221.37434 157.5812,223.01784 159.86395,225.93982 L 162.87724,222.65262 C 160.5945,220.64379 157.08814,217.3567 153.10704,213.70426"
         style="font-size:9px;letter-spacing:0;word-spacing:0;fill:#ffd42e;fill-rule:nonzero;stroke:none;stroke-width:0.25299999;stroke-linecap:butt;stroke-linejoin:miter;stroke-miterlimit:4;stroke-dasharray:none;font-family:fnt1"
         id="path2632" />
      <path
         d="M 126.66376,221.55695 L 118.51895,221.55695 L 118.77453,205.12114 C 121.13036,205.30376 123.74177,205.30376 126.66376,205.30376 C 129.58564,205.30376 132.19717,205.30376 134.55288,205.12114 L 134.80858,221.55695 L 126.66376,221.55695"
         style="font-size:9px;letter-spacing:0;word-spacing:0;fill:#ffd42e;fill-rule:nonzero;stroke:none;stroke-width:0.25299999;stroke-linecap:butt;stroke-linejoin:miter;stroke-miterlimit:4;stroke-dasharray:none;font-family:fnt1"
         id="path2634" />
      <path
         d="M 103.08749,223.56578 C 97.115899,224.29622 93.755718,227.21809 93.755718,231.60096 C 93.755718,234.15772 95.855849,236.34916 98.449044,236.34916 C 99.197688,236.34916 100.5856,236.16655 101.38912,235.25339 C 102.10135,234.34034 102.24753,232.87935 101.84578,231.05313 L 103.79972,230.14008 C 107.79915,235.80122 110.20973,244.93229 111.45158,259.54176 L 117.86148,243.83651 C 113.42386,234.15772 108.43828,226.12243 103.08749,223.56578"
         style="font-size:9px;letter-spacing:0;word-spacing:0;fill:#ffd42e;fill-rule:nonzero;stroke:none;stroke-width:0.25299999;stroke-linecap:butt;stroke-linejoin:miter;stroke-miterlimit:4;stroke-dasharray:none;font-family:fnt1"
         id="path2636" />
      <path
         d="M 118.99369,241.09725 L 126.18891,223.74839 L 107.12347,223.56578 C 110.99494,226.67026 114.84819,232.33152 118.99369,241.09725"
         style="font-size:9px;letter-spacing:0;word-spacing:0;fill:#ffd42e;fill-rule:nonzero;stroke:none;stroke-width:0.25299999;stroke-linecap:butt;stroke-linejoin:miter;stroke-miterlimit:4;stroke-dasharray:none;font-family:fnt1"
         id="path2638" />
      <path
         d="M 146.18573,223.56578 L 127.1385,223.74839 L 134.33372,241.09725 C 138.46101,232.33152 142.31426,226.67026 146.18573,223.56578"
         style="font-size:9px;letter-spacing:0;word-spacing:0;fill:#ffd42e;fill-rule:nonzero;stroke:none;stroke-width:0.25299999;stroke-linecap:butt;stroke-linejoin:miter;stroke-miterlimit:4;stroke-dasharray:none;font-family:fnt1"
         id="path2640" />
      <path
         d="M 120.21731,243.83651 C 122.2809,248.58459 124.41758,253.88063 126.66376,260.08972 C 128.90996,253.88063 131.0283,248.58459 133.092,243.83651 C 130.06049,236.53177 127.35766,229.95747 126.66376,228.31387 C 125.95154,229.95747 123.26704,236.53177 120.21731,243.83651"
         style="font-size:9px;letter-spacing:0;word-spacing:0;fill:#ffd42e;fill-rule:nonzero;stroke:none;stroke-width:0.25299999;stroke-linecap:butt;stroke-linejoin:miter;stroke-miterlimit:4;stroke-dasharray:none;font-family:fnt1"
         id="path2642" />
      <path
         d="M 119.08499,246.57577 C 116.38228,253.15007 113.58814,259.9071 111.8168,264.28997 C 111.83501,264.8378 111.87156,265.38563 111.90811,265.93346 C 112.82115,265.93346 119.57807,265.93346 126.40806,265.93346 L 125.64108,263.74202 C 123.63226,258.0809 121.44082,252.05442 119.08499,246.57577"
         style="font-size:9px;letter-spacing:0;word-spacing:0;fill:#ffd42e;fill-rule:nonzero;stroke:none;stroke-width:0.25299999;stroke-linecap:butt;stroke-linejoin:miter;stroke-miterlimit:4;stroke-dasharray:none;font-family:fnt1"
         id="path2644" />
      <path
         d="M 150.22171,223.56578 C 144.88913,226.12243 139.88545,234.15772 135.44772,243.83651 L 141.85774,259.54176 C 143.09945,244.93229 145.52838,235.80122 149.50948,230.14008 L 151.46342,231.05313 C 151.06178,232.87935 151.22607,234.34034 151.93829,235.25339 C 152.74181,236.16655 154.11151,236.34916 154.87848,236.34916 C 157.47169,236.34916 159.57182,234.15772 159.57182,231.60096 C 159.57182,227.21809 156.1933,224.29622 150.22171,223.56578"
         style="font-size:9px;letter-spacing:0;word-spacing:0;fill:#ffd42e;fill-rule:nonzero;stroke:none;stroke-width:0.25299999;stroke-linecap:butt;stroke-linejoin:miter;stroke-miterlimit:4;stroke-dasharray:none;font-family:fnt1"
         id="path2646" />
      <path
         d="M 127.68645,263.74202 L 126.90114,265.93346 C 133.73113,265.93346 140.50626,265.93346 141.40109,265.93346 C 141.43764,265.38563 141.47419,264.8378 141.51074,264.28997 C 139.72106,259.9071 136.92692,253.15007 134.24242,246.57577 C 131.86837,252.05442 129.67694,258.0809 127.68645,263.74202"
         style="font-size:9px;letter-spacing:0;word-spacing:0;fill:#ffd42e;fill-rule:nonzero;stroke:none;stroke-width:0.25299999;stroke-linecap:butt;stroke-linejoin:miter;stroke-miterlimit:4;stroke-dasharray:none;font-family:fnt1"
         id="path2648" />
    </g>
  </g>
</svg>
