<?xml version="1.0" encoding="UTF-8" standalone="no"?>
<!-- Created with Inkscape (http://www.inkscape.org/) -->

<svg
   xmlns:dc="http://purl.org/dc/elements/1.1/"
   xmlns:cc="http://creativecommons.org/ns#"
   xmlns:rdf="http://www.w3.org/1999/02/22-rdf-syntax-ns#"
   xmlns:svg="http://www.w3.org/2000/svg"
   xmlns="http://www.w3.org/2000/svg"
   xmlns:xlink="http://www.w3.org/1999/xlink"
   version="1.1"
   width="387.59253"
   height="387.59253"
   id="svg3824">
  <metadata
     id="metadata27">
    <rdf:RDF>
      <cc:Work
         rdf:about="">
        <dc:format>image/svg+xml</dc:format>
        <dc:type
           rdf:resource="http://purl.org/dc/dcmitype/StillImage" />
        <dc:title></dc:title>
      </cc:Work>
    </rdf:RDF>
  </metadata>
  <defs
     id="defs3826">
    <radialGradient
       cx="0"
       cy="0"
       r="1"
       fx="0"
       fy="0"
       id="radialGradient3672-4"
       xlink:href="#radialGradient276-0"
       gradientUnits="userSpaceOnUse"
       gradientTransform="matrix(93.1994,0,0,102.84815,350.31414,544.08355)"
       spreadMethod="pad" />
    <radialGradient
       cx="0"
       cy="0"
       r="1"
       fx="0"
       fy="0"
       id="radialGradient276-0"
       gradientUnits="userSpaceOnUse"
       gradientTransform="matrix(15.950623,0,0,-17.601959,349.70706,78.072647)"
       spreadMethod="pad">
      <stop
         id="stop278-9"
         style="stop-color:#ed1c24;stop-opacity:1"
         offset="0" />
      <stop
         id="stop280-4"
         style="stop-color:#c82128;stop-opacity:1"
         offset="1" />
    </radialGradient>
    <radialGradient
       cx="0"
       cy="0"
       r="1"
       fx="0"
       fy="0"
       id="radialGradient3677-8"
       xlink:href="#radialGradient244-8"
       gradientUnits="userSpaceOnUse"
       gradientTransform="matrix(138.22396,0,0,138.22396,350.00147,532.36195)"
       spreadMethod="pad" />
    <radialGradient
       cx="0"
       cy="0"
       r="1"
       fx="0"
       fy="0"
       id="radialGradient244-8"
       gradientUnits="userSpaceOnUse"
       gradientTransform="matrix(23.656357,0,0,-23.656357,349.65355,80.078735)"
       spreadMethod="pad">
      <stop
         id="stop246-2"
         style="stop-color:#fee81b;stop-opacity:1"
         offset="0" />
      <stop
         id="stop248-4"
         style="stop-color:#fab20b;stop-opacity:1"
         offset="1" />
    </radialGradient>
    <radialGradient
       cx="0"
       cy="0"
       r="1"
       fx="0"
       fy="0"
       id="radialGradient3682-5"
       xlink:href="#radialGradient204-5"
       gradientUnits="userSpaceOnUse"
       gradientTransform="matrix(186.32372,0,0,186.32586,349.87872,532.35788)"
       spreadMethod="pad" />
    <radialGradient
       cx="0"
       cy="0"
       r="1"
       fx="0"
       fy="0"
       id="radialGradient204-5"
       gradientUnits="userSpaceOnUse"
       gradientTransform="matrix(31.888397,0,0,-31.888763,349.63254,80.079437)"
       spreadMethod="pad">
      <stop
         id="stop206-1"
         style="stop-color:#127bca;stop-opacity:1"
         offset="0" />
      <stop
         id="stop208-7"
         style="stop-color:#14559a;stop-opacity:1"
         offset="1" />
    </radialGradient>
  </defs>
  <g
     transform="translate(-156.14649,-338.56418)"
     id="layer1">
    <path
       d="m 156.14649,532.36444 c 0,107.02689 86.76539,193.79227 193.79225,193.79227 107.03489,0 193.80028,-86.76537 193.80028,-193.79227 0,-107.03488 -86.76539,-193.80026 -193.80028,-193.80026 -107.02686,0 -193.79225,86.76538 -193.79225,193.80026"
       id="path222-4"
       style="fill:#ffffff;fill-opacity:1;fill-rule:nonzero;stroke:none" />
    <path
       d="m 163.68268,532.36045 c 0,102.43938 82.66089,185.56766 184.91909,186.3214 l 0,0 2.7871,0 c 100.00285,-0.73621 181.26722,-80.24184 184.81396,-179.55521 l 0,0 0,-13.53822 C 532.6386,425.82514 450.63798,346.03905 349.99824,346.03905 l 0,0 c -102.90092,0 -186.31556,83.41458 -186.31556,186.3214 m 48.79489,0.23933 c 0,-76.33872 61.88895,-138.22187 138.22188,-138.22187 l 0,0 c 76.34451,0 138.22767,61.88315 138.22767,138.22187 l 0,0 c 0,76.33872 -61.88316,138.22772 -138.22767,138.22772 l 0,0 c -76.33288,0 -138.22188,-61.889 -138.22188,-138.22772"
       id="path210"
       style="fill:url(#radialGradient3682-5);stroke:none" />
    <path
       d="m 208.43946,532.36512 c 0,78.17927 63.37896,141.55823 141.55822,141.55823 78.18511,0 141.56407,-63.37896 141.56407,-141.55823 0,-78.1851 -63.37896,-141.56406 -141.56407,-141.56406 -78.17926,0 -141.55822,63.37896 -141.55822,141.56406"
       id="path222"
       style="fill:#ffffff;fill-opacity:1;fill-rule:nonzero;stroke:none" />
    <path
       d="m 468.73317,632.03665 4.96654,-6.15851 -2.99161,-2.40732 -7.98153,9.90388 11.21271,9.03327 2.97408,-3.68693 c -0.88229,-0.71285 -1.89897,-2.06842 -0.99915,-3.17859 1.39647,-1.73537 3.94402,0.49081 5.18858,1.48996 2.62934,2.12101 3.66355,3.27208 2.44237,4.79126 -0.47913,0.59598 -0.98747,0.77127 -1.52502,0.70116 -0.53172,-0.0762 -1.07511,-0.4207 -1.60098,-0.84724 l -3.07926,3.82716 c 3.37141,2.89813 6.29875,1.98662 8.82876,-1.16275 3.12601,-3.87975 3.19028,-6.95901 -1.98661,-11.13091 -4.17775,-3.3714 -7.11093,-4.2128 -9.62342,-1.08679 -0.89397,1.11017 -1.34389,2.45405 -0.90566,3.78626 l -0.10517,0.014 -4.81463,-3.88559 z m -4.44652,26.63237 c 3.19612,3.42399 5.9657,2.76374 8.97484,-0.18137 5.08925,-4.96654 0.61936,-9.69352 -3.65187,-14.06408 -4.87306,-4.98992 -8.94563,-9.20856 -14.10499,-4.1719 -3.91481,3.82132 -2.20281,7.66601 1.19781,11.14843 2.31383,2.37226 5.71445,3.80963 8.3847,1.2095 1.12185,-1.09848 1.74706,-2.40147 1.7529,-3.99661 4.12515,4.22449 5.73782,5.48073 3.99076,7.18104 -0.52002,0.52003 -1.06926,0.60183 -1.58929,0.46744 -0.52587,-0.13462 -1.02253,-0.5434 -1.47244,-0.99915 l -3.48242,3.40647 z m -4.76204,-11.41137 c -1.07511,-1.09264 -3.0851,-3.15522 -1.56592,-4.63934 1.50165,-1.46074 3.46489,0.44968 4.55753,1.56593 1.06927,1.09848 3.00914,3.23117 1.51334,4.69192 -1.50165,1.46075 -3.44153,-0.52003 -4.50495,-1.61851 m 0.14584,23.29602 c 3.5876,-2.88644 4.2128,-5.99491 1.2913,-9.61757 -1.9165,-2.38394 -3.85637,-4.06672 -7.01159,-2.98577 l -0.0467,-0.0528 c 1.70031,-2.28461 0.89397,-4.28291 -0.75959,-6.32796 -2.82801,-3.51749 -5.94233,-3.66356 -9.44228,-0.84139 -3.49996,2.82216 -4.02583,5.88973 -1.19197,9.41306 1.64772,2.04505 3.42983,3.25455 6.01828,2.08595 l 0.0467,0.0524 c -1.72952,2.85138 -0.49081,5.10678 1.42569,7.48488 2.9215,3.6285 6.09425,3.67524 9.67016,0.7888 M 445.97447,653.556 c 1.3322,-1.07511 2.76374,0.37395 3.52333,1.31468 0.80049,0.99915 1.96324,2.71114 0.60183,3.80378 -1.34974,1.09264 -2.78127,-0.40293 -3.5876,-1.39647 -0.75375,-0.94657 -1.86392,-2.65272 -0.53756,-3.72199 m 6.53831,8.11008 c 1.70616,-1.37895 3.48243,0.93488 4.42315,2.09763 0.88813,1.11017 1.92819,2.78711 0.46136,3.9674 -1.46659,1.18028 -2.88059,-0.19259 -3.77457,-1.29715 -0.93488,-1.16275 -2.82217,-3.38894 -1.11017,-4.76788 m -19.30525,7.29205 c 0.76543,-1.43737 1.44906,-2.99745 1.91065,-4.57506 l 10.50571,15.93969 4.39393,-2.89228 -13.65508,-20.7251 -3.90312,2.56507 c -0.12854,2.09179 -0.90566,4.00829 -1.81133,5.79625 l 2.55924,3.89143 z m -6.25785,16.75187 2.19112,4.15437 3.69862,-1.9574 -2.19113,-4.14853 -3.69861,1.95156 z m -8.23862,9.00405 5.65017,-2.47743 -4.2128,-26.1883 -4.75035,2.08595 3.47074,18.86119 -0.0645,0.028 -11.06663,-15.53067 -5.01329,2.19112 15.98643,21.02893 z m -13.20517,0.0584 1.56592,4.42899 3.94402,-1.39063 -1.56008,-4.42899 -3.94986,1.39063 z m -2.45406,5.9248 -1.02837,-3.80963 -8.44312,2.29045 -1.96909,-7.23947 7.53746,-2.04505 -1.03421,-3.80963 -7.53162,2.04505 -1.65941,-6.11177 8.17435,-2.2145 -1.03421,-3.80963 -13.25191,3.59344 6.71944,24.78014 13.52069,-3.6694 z m -46.03111,-17.63416 0.38003,4.2537 5.83131,-0.52002 1.89897,21.32108 5.24117,-0.46744 -1.89897,-21.32108 5.8313,-0.52003 -0.37395,-4.24786 -16.90962,1.50165 z m -13.3863,10.27199 0.12855,-10.27783 -5.2587,-0.064 -0.3272,25.66827 5.25869,0.0701 0.14584,-11.45227 6.02997,0.0762 -0.14584,11.45227 5.26454,0.0645 0.3216,-25.67412 -5.2587,-0.064 -0.13462,10.27783 -6.02413,-0.0762 z m -19.64999,14.06408 c 4.84385,0.80634 7.85299,-0.92319 8.98069,-7.69522 l -5.12431,-0.85308 c -0.39732,1.98662 -0.81802,5.15937 -3.22533,4.76204 -2.9215,-0.48496 -2.83386,-3.35387 -1.75874,-9.84544 1.08095,-6.48573 1.92234,-9.23193 4.84384,-8.74696 1.54839,0.25709 1.92234,1.61851 1.36726,4.98407 l 5.0834,0.84723 c 1.11017,-5.40477 -0.52587,-8.74112 -5.81962,-9.61756 -8.55999,-1.42569 -9.61757,4.9607 -10.73358,11.66261 -1.10433,6.62596 -2.17359,13.08247 6.38639,14.50231 m -16.44803,-13.51484 -4.80878,-1.43154 5.47489,-9.94477 0.0645,0.0187 -0.73037,11.35878 z m -9.93309,7.09339 2.99746,-5.0425 6.8772,2.05089 -0.28654,5.84884 5.30544,1.58345 0.78881,-26.55641 -6.64349,-1.97493 -14.0115,22.60654 4.97239,1.48412 z m -14.42635,-16.71096 1.24456,0.5434 c 3.70446,1.61851 2.40731,3.88559 1.18028,6.68438 -0.67194,1.53671 -1.50165,3.07342 -1.48412,4.78542 l 4.72114,2.06842 c -0.0234,-1.1686 1.82302,-5.64434 2.48327,-7.14014 1.85223,-4.23617 -1.15691,-5.86053 -2.15606,-6.45651 l 0.0281,-0.064 c 3.35388,0.85308 5.48657,-0.89398 6.80124,-3.89144 1.75874,-4.00829 0.59014,-7.07586 -2.69362,-8.51908 l -8.91056,-3.90312 -10.3012,23.51805 4.82047,2.10932 4.26538,-9.73443 z m 4.45236,-10.16681 2.13854,0.93488 c 1.53086,0.67779 2.08595,1.92819 1.10432,4.17774 -0.65441,1.49581 -2.05673,3.21365 -3.97323,2.37226 l -2.13854,-0.93488 2.86891,-6.55 z m -19.80775,-15.0165 -2.17359,3.67525 5.0425,2.97992 -10.90303,18.42297 4.52833,2.68193 10.90302,-18.42296 5.03666,2.97993 2.1736,-3.6694 -14.60749,-8.64764 z m -28.54887,10.87966 11.4289,-14.89379 0.0528,0.0421 -5.98323,19.07737 5.5041,4.22449 15.62417,-20.37452 -3.89728,-2.99162 -10.82122,14.11084 -0.0528,-0.0468 5.50994,-18.17755 -5.63849,-4.32382 -15.62417,20.36284 3.89728,2.99161 z m -8.16266,-7.04081 17.49392,-18.79107 -3.85053,-3.58175 -17.49392,18.78522 3.85053,3.5876 z m -7.79456,-7.31543 2.95072,-2.61766 -5.80794,-6.53831 5.61512,-4.98407 5.18273,5.84299 2.95072,-2.6235 -5.18274,-5.83715 4.73283,-4.20112 5.62096,6.33381 2.95071,-2.61766 -9.11507,-10.27199 -19.20008,17.04402 9.30204,10.47064 z"
       id="path226"
       style="fill:#ffffff;fill-opacity:1;fill-rule:nonzero;stroke:none" />
    <path
       d="m 489.44541,618.9805 c 2.2145,1.30883 5.05419,0.64858 6.36303,-1.56592 1.30298,-2.21449 0.51418,-5.01913 -1.69447,-6.32212 -2.2145,-1.31467 -5.04835,-0.65441 -6.35718,1.56008 -1.31467,2.2145 -0.52587,5.01913 1.68862,6.32796 m 4.14853,-39.17727 17.63416,6.70191 -0.0234,0.064 -20.08822,-0.25709 -2.47743,6.51494 24.11988,9.1735 1.7529,-4.62181 -16.70512,-6.34549 0.0281,-0.064 19.08906,0.064 2.5417,-6.67854 -24.11988,-9.17351 -1.7529,4.62181 z m 2.29045,-8.01659 25.06645,6.11177 1.2504,-5.13599 -25.06644,-6.11762 -1.25041,5.14184 z m 1.95741,-7.57252 3.90896,0.64857 1.43738,-8.671 7.43813,1.23287 -1.27962,7.74197 3.91481,0.64857 1.27962,-7.74197 6.27537,1.04005 -1.39063,8.39639 3.9148,0.64857 2.2554,-13.61418 -25.45793,-4.21864 -2.29629,13.8888 z m 13.80699,-26.86025 -0.0528,1.36726 c -0.15752,4.06089 -2.75205,3.68109 -5.82546,3.56423 -1.67694,-0.064 -3.41815,-0.27485 -5.01914,0.36834 l -0.19258,5.1769 c 1.0868,-0.44407 5.94817,-0.36788 7.59005,-0.30384 4.63934,0.17529 5.06003,-3.24286 5.24117,-4.39393 l 0.0762,0.005 c 0.43799,3.44737 2.85722,4.80294 6.14098,4.93149 4.39394,0.1636 6.83631,-2.05673 6.97654,-5.66186 l 0.36834,-9.76364 -25.77929,-0.98163 -0.20474,5.28791 10.681,0.4034 z m 11.14259,0.4207 -0.0935,2.34888 c -0.0584,1.67694 -1.02837,2.65857 -3.49412,2.56508 -1.64188,-0.0645 -3.76288,-0.73622 -3.68108,-2.8397 l 0.0879,-2.34304 7.18104,0.26878 z m -21.81189,-9.07417 3.9557,-0.25102 -0.55508,-8.77033 7.52577,-0.47913 0.49666,7.82962 3.95571,-0.25149 -0.49082,-7.82961 6.3455,-0.4034 0.53755,8.49571 3.95571,-0.25101 -0.87061,-13.77194 -25.75007,1.6302 0.89398,14.0524 z m -3.28377,-28.24504 1.16276,6.0884 26.60315,1.712 -0.98162,-5.1243 -19.25851,-0.80049 -0.0187,-0.0701 17.69259,-7.38555 -1.03421,-5.39892 -24.16663,10.97898 z m 17.74518,-31.3126 -4.08426,1.32051 1.81717,5.59759 -20.46216,6.64349 1.63604,5.03082 20.46216,-6.64349 1.81717,5.59759 4.07841,-1.32636 -5.26453,-16.22015 z m -19.95383,-7.52578 0.57846,1.23872 c 1.71784,3.68108 -0.76544,4.52832 -3.55254,5.8313 -1.51918,0.70701 -3.16691,1.32636 -4.2946,2.62351 l 2.19112,4.69777 c 0.76543,-0.89982 5.1243,-3.05005 6.61427,-3.74536 4.2128,-1.96325 3.01498,-5.19443 2.65856,-6.30459 l 0.0645,-0.0281 c 1.96909,2.86891 4.73867,2.96824 7.71859,1.57761 3.98492,-1.86392 5.14184,-4.95486 3.61682,-8.22109 l -4.13684,-8.85214 -23.37782,10.91471 2.23786,4.79126 9.68184,-4.52248 z m 10.10254,-4.7153 0.99331,2.12685 c 0.71284,1.51918 0.29822,2.83386 -1.93403,3.87975 -1.48997,0.69532 -3.68693,1.06343 -4.57507,-0.84139 l -0.99331,-2.12685 6.5091,-3.03836 z m -28.50213,-5.41645 c 4.7971,7.28621 10.28951,3.6694 15.928,-0.0467 5.70277,-3.75121 11.13675,-7.32712 6.33965,-14.60749 -4.79125,-7.28621 -10.22524,-3.7103 -15.928,0.0421 -5.64433,3.71614 -11.1309,7.32711 -6.33965,14.61333 m 3.22533,-2.12101 c -1.64188,-2.48327 0.53756,-4.38224 6.06503,-8.01659 5.52163,-3.63434 8.12176,-4.88474 9.75196,-2.39563 1.64188,2.48328 -0.53756,4.37641 -6.05919,8.01075 -5.52162,3.64019 -8.12176,4.88474 -9.7578,2.40147 m -19.36952,-19.7201 3.41231,4.0375 8.02243,-6.78371 2.53586,2.99745 c 4.00245,4.73283 8.09254,2.37226 10.33041,0.47913 3.59929,-3.0442 4.66855,-6.42729 1.55424,-10.11422 l -6.15267,-7.27453 -19.70258,16.65838 z m 20.08821,-10.0558 1.71784,2.02752 c 1.53671,1.81717 0.53756,3.40062 -1.07511,4.76204 -1.31467,1.10433 -3.34803,1.40816 -4.36471,0.20427 l -1.89898,-2.24371 5.62096,-4.75035 z m -17.10244,2.86307 c 5.52747,-5.94233 -2.55923,-12.87796 0.77712,-16.46556 1.21534,-1.30883 2.61766,-1.32052 3.8739,-0.15192 1.56592,1.45491 0.45576,3.10848 -0.85892,4.52248 l 3.76873,3.5058 c 3.93234,-3.7103 3.6694,-7.1752 -0.0996,-10.68684 -4.7153,-4.38809 -8.29121,-3.32466 -11.04326,-0.36834 -5.23532,5.6268 2.36641,13.08831 -0.80049,16.48893 -1.19781,1.27961 -2.64103,1.54839 -3.94402,0.33282 -2.12685,-1.98078 -0.79465,-3.57007 0.88813,-5.37556 l -3.8739,-3.60513 c -3.24871,3.07926 -5.03082,6.78956 -0.23372,11.25361 2.94487,2.74621 6.99406,5.43983 11.54575,0.54924 m -24.57563,-17.71596 -2.78126,3.81548 3.40062,2.47743 2.77542,-3.81548 -3.39478,-2.47743 z m 3.7512,-22.79352 -9.12675,15.44888 c -1.46075,2.4599 -3.16106,3.27792 -5.15353,2.10348 -1.65941,-0.98747 -2.16775,-2.73452 -0.54924,-5.47489 l 9.1326,-15.44303 -4.55169,-2.69362 -9.31373,15.75271 c -2.47159,4.18358 -1.62435,8.25615 3.37725,11.21271 5.55084,3.27792 9.45981,0.85892 11.42305,-2.4599 l 9.31374,-15.75272 -4.5517,-2.69362 z m -35.46113,-1.62435 -1.3731,3.37725 7.94063,3.24286 1.37894,-3.37725 -7.94647,-3.24286 z m -20.53228,5.57422 4.93149,-18.21262 0.064,0.0187 1.73536,20.0181 6.72529,1.81717 6.73697,-24.90284 -4.76204,-1.2913 -4.66855,17.24267 -0.0701,-0.0187 -1.82301,-19.00142 -6.89473,-1.86392 -6.74282,24.90284 4.76788,1.29131 z m -16.54152,-13.97645 1.34973,0.18698 c 4.02583,0.56677 3.38894,3.10847 2.95656,6.15267 -0.22764,1.66526 -0.61352,3.3831 -0.13462,5.03082 l 5.13014,0.71869 c -0.33281,-1.1277 0.23372,-5.95401 0.46184,-7.58421 0.64272,-4.59843 -2.717,-5.35802 -3.83885,-5.66186 l 0.005,-0.0701 c 3.48243,-0.0879 5.07172,-2.35473 5.52748,-5.60928 0.60767,-4.35887 -1.35558,-7.01159 -4.92565,-7.51409 l -9.676,-1.35557 -3.57591,25.55725 5.23532,0.73038 1.48412,-10.58167 z m 1.54255,-11.04326 2.32551,0.32721 c 1.66526,0.23372 2.54171,1.2913 2.20281,3.73368 -0.22764,1.63019 -1.12185,3.6694 -3.20196,3.37725 l -2.31967,-0.32113 0.99331,-7.11677 z m -16.49477,-5.29959 -0.22764,17.93799 c -0.0327,2.85723 -1.11017,4.41731 -3.41816,4.38809 -1.92818,-0.0234 -3.24286,-1.2913 -3.20196,-4.47573 l 0.22811,-17.93215 -5.28791,-0.0701 -0.23372,18.29442 c -0.0584,4.86137 2.70531,7.96984 8.51325,8.03996 6.44482,0.0818 8.63594,-3.96155 8.68269,-7.82377 l 0.22764,-18.29442 -5.28207,-0.064 z m -33.79004,1.86976 0.48497,4.25954 5.84884,-0.6661 2.44237,21.37367 5.25285,-0.60183 -2.44237,-21.37367 5.843,-0.6661 -0.48497,-4.26539 -16.94469,1.93988 z m -17.65753,19.72595 1.32052,-0.35666 c 3.92065,-1.05758 4.32966,1.53086 5.13599,4.49911 0.43799,1.6185 0.75959,3.34219 1.84639,4.68023 l 5.0016,-1.35557 c -0.75374,-0.90567 -2.121,-5.56837 -2.55339,-7.15767 -1.21534,-4.48158 -4.59843,-3.86222 -5.7495,-3.69861 l -0.0234,-0.0701 c 3.1669,-1.44906 3.73367,-4.15437 2.88059,-7.32712 -1.15107,-4.24201 -3.99661,-5.91895 -7.47903,-4.97823 l -9.43059,2.55339 6.73697,24.90869 5.10678,-1.38479 -2.79296,-10.31289 z m -2.90981,-10.7628 2.26709,-0.61351 c 1.6185,-0.43799 2.83969,0.19258 3.48826,2.57091 0.42678,1.5893 0.41462,3.81548 -1.61851,4.36472 l -2.26124,0.61351 -1.8756,-6.93563 z m -1.72368,23.35445 -1.50165,-3.67524 -8.13345,3.3305 -2.85722,-6.98238 7.26284,-2.96824 -1.50165,-3.6694 -7.257,2.9624 -2.40731,-5.88389 7.87635,-3.21949 -1.50165,-3.66941 -12.77278,5.2178 9.7578,23.88616 13.03572,-5.32881 z m -24.8561,-8.85798 c -2.35472,-4.86137 -6.61427,-5.87805 -11.14259,-3.34804 -7.54915,4.21865 -4.59843,10.14344 -1.42569,15.82283 4.77957,8.5483 7.49656,11.32372 15.2619,6.98822 1.8347,-1.02836 4.70361,-3.2896 5.81963,-4.23617 l -6.3864,-11.41721 -7.12261,3.97908 1.93988,3.4649 2.50664,-1.40232 2.78711,4.98991 c -0.56093,0.64273 -1.28546,1.29131 -2.05089,1.71785 -2.62351,1.47243 -3.99661,0.59598 -7.94063,-6.45067 -2.43653,-4.36472 -4.65102,-8.33211 -1.77627,-9.93309 2.44237,-1.36726 3.80963,0.28654 4.94317,2.38978 l 4.58675,-2.56507 z m -8.61257,25.82019 -14.70097,-21.20423 -4.34719,3.00915 14.70097,21.20422 4.34719,-3.00914 z m -6.53831,4.30629 -2.55923,-3.03252 -6.70776,5.67939 -4.87306,-5.76119 5.98907,-5.06587 -2.55923,-3.02668 -5.98907,5.06588 -4.10762,-4.85553 6.49741,-5.49826 -2.56508,-3.02667 -10.53492,8.90473 16.65838,19.70257 10.75111,-9.08585 z m -29.65904,29.1098 3.80963,-4.29461 -11.20686,-15.79945 0.0421,-0.0524 16.74602,9.56499 3.87975,-4.37641 -15.57743,-21.31524 -3.44152,3.87975 11.45811,14.37961 -0.0467,0.0528 -16.06239,-9.19687 -4.13684,4.6627 10.90303,15.0165 -0.0468,0.0467 -15.74103,-9.55913 -3.59928,4.06088 23.0214,12.93054 z m -23.47715,7.72443 -8.75865,-5.46904 -2.79879,4.48742 21.88201,13.66676 2.80464,-4.48742 -9.76365,-6.09424 3.20781,-5.14183 9.76364,6.09424 2.79879,-4.48158 -21.88785,-13.66676 -2.7988,4.48742 8.75865,5.46904 -3.2078,5.13599 z m 6.41561,22.13911 c 1.98661,-4.52248 1.03421,-7.8822 -5.28791,-10.64594 l -2.08595,4.77957 c 1.8347,0.8823 4.82631,2.07427 3.84469,4.32382 -1.19197,2.72283 -3.9674,1.93403 -10.02658,-0.71869 -6.05919,-2.64688 -8.52493,-4.14853 -7.32712,-6.8772 0.63105,-1.44322 2.04505,-1.47244 5.18858,-0.0996 l 2.08011,-4.74451 c -4.98992,-2.41316 -8.64763,-1.64188 -10.8037,3.30129 -3.49411,7.98738 2.4599,10.59335 8.71775,13.32787 6.18189,2.71115 12.21186,5.34634 15.70013,-2.64687 m -11.68015,8.13344 c -7.77118,-2.31382 -10.40053,8.01659 -15.09245,6.61427 -1.712,-0.50249 -2.34889,-1.7529 -1.85808,-3.40062 0.60768,-2.04505 2.58261,-1.78796 4.43484,-1.23871 l 1.46659,-4.93149 c -5.07172,-1.8756 -8.06333,-0.0996 -9.52993,4.838 -1.8347,6.17604 0.70701,8.90472 4.57507,10.05579 7.36801,2.19112 10.68099,-7.93479 15.12751,-6.60843 1.67694,0.49666 2.55923,1.67694 2.05089,3.38894 -0.82386,2.78711 -2.84554,2.29045 -5.20611,1.5893 l -1.51333,5.07171 c 4.20695,1.54256 8.32042,1.48413 10.19018,-4.79125 1.15107,-3.86222 1.76458,-8.68269 -4.64518,-10.58751 m -0.94072,34.05882 -18.61578,-3.0851 0.009,-0.0645 19.74347,-3.72199 1.13939,-6.8772 -25.45793,-4.21864 -0.80633,4.87305 17.62831,2.9215 -0.009,0.0701 -18.72679,3.7103 -1.1686,7.04665 25.45792,4.21864 0.80634,-4.87306 z m -26.98879,13.19348 17.93799,0.22811 c 2.86307,0.0327 4.4173,1.11017 4.38809,3.41815 -0.0234,1.92819 -1.2913,3.24286 -4.46989,3.20196 l -17.93799,-0.22811 -0.0701,5.28791 18.30026,0.23372 c 4.85553,0.0584 7.964,-2.70531 8.03996,-8.51909 0.0818,-6.43897 -3.96155,-8.62425 -7.82377,-8.67684 l -18.29442,-0.23372 -0.0701,5.28791 z m 16.77523,22.69419 0.57846,5.01329 -11.35294,-1.13354 -0.005,-0.0701 10.78032,-3.80963 z m 10.48234,6.38055 -5.843,-0.77128 -0.82386,-7.16935 5.52747,-2.03921 -0.63688,-5.53331 -24.8561,9.74611 0.79464,6.92395 26.42787,4.03167 -0.59014,-5.18858 z m -6.76619,19.82528 -0.32113,-1.32636 c -0.9641,-3.94987 1.63604,-4.2946 4.62181,-5.02498 1.63019,-0.39732 3.36556,-0.67778 4.72698,-1.72952 l -1.23287,-5.03666 c -0.9232,0.73037 -5.62096,1.98661 -7.2161,2.37809 -4.51664,1.09849 -3.97908,4.50495 -3.84469,5.65602 l -0.0701,0.0187 c -1.36726,-3.19612 -4.06088,-3.83885 -7.25115,-3.05589 -4.27123,1.04006 -6.01829,3.84469 -5.15937,7.35049 l 2.31383,9.48902 25.06644,-6.11177 -1.2504,-5.14183 -10.383,2.53586 z m -10.83291,2.64103 -0.56093,-2.27877 c -0.39171,-1.63019 0.26878,-2.83969 2.6644,-3.42399 1.59514,-0.39172 3.82132,-0.32113 4.31798,1.72368 l 0.55508,2.27877 -6.97653,1.70031 z m 26.19998,10.00321 c -0.84723,-2.07427 -3.21949,-7.12261 -9.27283,-4.65103 -3.27792,1.34389 -5.18858,3.17859 -4.27123,6.85384 l -0.064,0.0234 c -1.61266,-2.43653 -4.14268,-2.95656 -6.88889,-1.8347 -5.09509,2.0801 -4.92564,5.60927 -3.40062,9.3371 l 3.5467,8.68269 23.88616,-9.75195 -3.53501,-8.65932 z m -18.68005,12.01904 -1.23287,-3.01499 c -0.67195,-1.65357 0.14023,-3.34803 1.89313,-4.06672 2.31382,-0.94072 3.65187,0.25148 4.09009,1.32051 l 1.33805,3.27208 -6.0884,2.48912 z m 9.7578,-3.98493 -1.16275,-2.85722 c -1.005,-2.4599 -0.0327,-3.76873 2.0801,-4.63349 3.34219,-1.36142 4.32966,0.95825 4.7562,1.99246 l 1.11017,2.72868 -6.78372,2.76957 z m 7.8004,20.20508 c -2.17944,1.36142 -2.89813,4.17774 -1.53671,6.36302 1.35558,2.17944 4.2128,2.76958 6.39224,1.414 2.17943,-1.36726 2.90396,-4.18358 1.5367,-6.36886 -1.36141,-2.17944 -4.20695,-2.76958 -6.39223,-1.40816"
       id="path230"
       style="fill:#ffffff;fill-opacity:1;fill-rule:nonzero;stroke:none" />
    <path
       d="m 214.02597,532.36629 c 0,75.10001 60.87811,135.97232 135.97812,135.97232 l 0,0 c 75.09416,0 135.97232,-60.87231 135.97232,-135.97232 l 0,0 c 0,-75.1 -60.87816,-135.97816 -135.97232,-135.97816 l 0,0 c -75.10001,0 -135.97812,60.87816 -135.97812,135.97816"
       id="path250"
       style="fill:url(#radialGradient3677-8);stroke:none" />
    <path
       d="m 446.21193,446.03021 -192.42149,0 -1.44906,0 0,1.44322 0.009,3.6285 c 0.0187,5.0834 0.0467,14.37376 0.0467,21.48469 0,79.96722 28.47291,135.03744 98.27917,190.09013 l 0.91735,0.71869 0.89982,-0.7479 c 68.43899,-56.84649 95.10642,-110.1346 95.10642,-190.06092 0,-1.41985 0.0421,-21.75347 0.0528,-25.10735 l 0.005,-1.44906 -1.44906,0 z"
       id="path262"
       style="fill:#ffffff;fill-opacity:1;fill-rule:nonzero;stroke:none" />
    <path
       d="m 348.92318,456.0451 c 0,0 -5.54505,-0.3216 -7.2512,0.21596 l 0,0 c -1.4666,0.44968 -1.97489,2.75789 -2.52413,3.24286 l 0,0 c -0.54929,0.48497 -7.18693,0.5025 -7.34469,0.75375 l 0,0 c -0.20427,0.29776 -0.28047,0.79464 -0.26878,1.22118 l 0,0 c 0.009,0.6252 0.11686,2.14438 0.48497,2.1327 l 0,0 0.25148,0.009 c 0,0 -0.14584,0.5843 -0.21596,1.08096 l 0,0 c -0.0701,0.5025 -0.40901,3.51748 -0.0234,5.24701 l 0,0 c 0.38564,1.72368 1.11017,1.77042 1.11017,1.77042 l 0,0 c 0,0 0.22764,0.0762 0.61936,0.17529 l 0,0 c 0.28654,0.51419 0.86476,1.56008 1.38483,2.6761 l 0,0 c -0.29822,0.0234 -0.60187,0.0421 -0.89986,0.0584 l 0,0 c -8.262,0.54924 -13.35125,-5.03082 -13.35125,-9.19103 l 0,0 c 0,0 -6.85962,2.44237 -3.27791,8.97484 l 0,0 c 1.5776,2.89812 5.14767,4.54584 7.87635,4.70361 l 0,0 c 2.99166,0.17529 5.49826,0.0421 9.67605,-0.73038 l 0,0 c -0.27486,0.81218 -0.57851,1.76459 -0.69532,2.34304 l 0,0 -0.009,0 c -0.86476,0.0187 -1.40821,0.0468 -1.45495,0.60767 l 0,0 c -0.0421,0.56677 -0.20427,2.59429 0.0701,5.49242 l 0,0 c 0,0 0.18089,0.63688 0.81801,0.7479 l 0,0 c 0.63105,0.11686 2.42485,0.17529 2.72284,0.72453 l 0,0 c 0.22203,0.41509 -0.17529,2.99162 -1.005,3.97908 l 0,0 c -0.58429,0.68363 -1.9165,1.21534 -3.85637,1.10433 l 0,0 c -5.23532,-0.30384 -22.27934,-3.94402 -31.44115,-18.11328 l 0,0 c 0,0 6.1702,-4.11347 6.1702,-9.45981 l 0,0 c 0,-5.3405 -1.9165,-8.86967 -8.96316,-10.51155 l 0,0 c 0,0 1.58346,1.03421 1.58346,4.73867 l 0,0 c 0,0 -8.68269,1.57761 -5.58591,12.20017 l 0,0 c 0,0 -1.78211,-0.6252 -3.22533,-2.50664 l 0,0 c 0,0 1.10433,-9.78118 -5.34045,-11.47564 l 0,0 c -9.03331,-2.37226 -12.08336,6.49156 -12.08336,6.49156 l 0,0 c 0,0 2.36641,-1.75874 4.73283,-0.29822 l 0,0 c 0,0 -2.00415,6.61427 7.95816,8.49571 l 0,0 c 0,0 -15.8462,4.79126 -10.38296,18.63331 l 0,0 c 0,0 0.48492,-3.15522 1.76454,-5.4632 l 0,0 c 0,0 10.13175,5.76703 11.77368,-4.131 l 0,0 c 0,0 4.85553,1.16276 5.52158,4.86137 l 0,0 c 0.6661,3.70446 -0.54924,6.80125 -3.58175,8.13345 l 0,0 c 0,0 19.32862,3.00914 33.48035,11.73273 l 0,0 c 0,0 -19.49223,7.30375 -36.4895,7.42645 l 0,0 c 0,0 1.43154,-4.54585 -4.00824,-8.01075 l 0,0 c -1.50754,-0.96409 -4.97244,-1.15691 -7.15767,-0.18089 l 0,0 c -3.68693,1.63603 -5.88394,4.37056 -6.25205,6.18773 l 0,0 c 0,0 1.94572,-1.70032 4.12515,-0.96994 l 0,0 c 0,0 0.36227,5.0425 6.25201,8.07502 l 0,0 c 0,0 -7.95232,-0.49081 -11.3471,6.0066 l 0,0 c -3.40062,6.49741 0.54924,10.86796 0.54924,10.86796 l 0,0 c 0,0 0.36227,-3.40062 2.78711,-4.31212 l 0,0 c 0,0 6.79545,3.45905 10.01489,-4.18359 l 0,0 c 0,0 0.73038,11.3471 9.10923,13.77778 l 0,0 c 0,0 -1.76458,-2.61182 -1.4549,-5.15936 l 0,0 c 0,0 8.0049,-1.82302 4.18363,-9.65847 l 0,0 c 0,0 9.9272,-4.70946 12.29361,7.61926 l 0,0 c 0,0 5.22368,-1.64188 5.03666,-7.71275 l 0,0 c 0,0 17.06154,-4.85553 36.36684,15.17426 l 0,0 c 0,0 -15.99811,-2.40147 -21.70092,6.07671 l 0,0 c -4.04336,6.01244 -0.21596,17.96137 -0.21596,17.96137 l 0,0 c 0,0 -6.99991,8.27367 -17.44718,8.21525 l 0,0 c 0,0 3.46494,-7.70691 -4.00245,-12.14175 l 0,0 c -7.4673,-4.42899 -11.96061,2.55339 -11.96061,2.55339 l 0,0 c 0,0 3.21949,-0.67194 4.61596,1.45491 l 0,0 c 0,0 -4.61596,5.34049 3.33635,9.59419 l 0,0 c 0,0 -7.84714,-2.47743 -12.74357,1.57761 l 0,0 c -3.16106,2.60598 -2.85722,7.34465 -2.85722,7.34465 l 0,0 c 0,0 1.57761,-2.30799 4.131,-1.94572 l 0,0 c 0,0 -0.36227,4.37056 4.06672,5.52747 l 0,0 c 4.42899,1.15107 6.67854,-2.24955 6.67854,-2.24955 l 0,0 c 0,0 -1.94571,8.79955 7.22194,12.87212 l 0,0 c 0,0 -1.09264,-1.27962 -1.09264,-4.31213 l 0,0 c 0,0 3.45906,-0.72454 4.85553,-3.03252 l 0,0 c 1.39652,-2.30798 0.84724,-6.19942 -0.91151,-7.95231 l 0,0 c 0,0 7.73029,-1.72369 11.98399,6.53831 l 0,0 c 0,0 3.64018,-1.58345 3.87974,-6.74282 l 0,0 c 0,0 17.72765,2.30798 23.12658,-5.88389 l 0,0 c 0,0 -3.76289,-3.21949 -2.36642,-9.65847 l 0,0 c 1.40232,-6.43314 8.68269,-5.52163 8.68269,-5.52163 l 0,0 c 0,0 -3.09678,2.79295 -2.42484,9.16765 l 0,0 c 0.6661,6.37471 2.67025,12.14175 -2.85722,16.1442 l 0,0 c 0,0 9.29036,1.27961 11.28866,-6.07087 l 0,0 c 0,0 6.56168,18.57488 -6.85383,32.10725 l 0,0 c 0,0 -1.07511,-9.26699 -9.676,-8.39638 l 0,0 c -8.60673,0.8706 -7.90557,9.69937 -7.90557,9.69937 l 0,0 c 0,0 1.51333,-2.55339 4.49326,-2.67025 l 0,0 c 0,0 -2.02752,3.10847 2.78131,7.08755 l 0,0 c 0,0 -8.47823,6.70776 -4.8731,15.66507 l 0,0 c 0,0 0.56677,-3.41815 2.84554,-4.10178 l 0,0 c 0,0 3.92065,3.72783 8.22109,1.18028 l 0,0 c 4.30049,-2.54754 4.36472,-5.09509 4.36472,-5.09509 l 0,0 c 0,0 4.11346,8.70022 11.57497,10.62841 l 0,0 c 0,0 -2.09179,-3.1669 -0.31552,-5.15937 l 0,0 c 0,0 5.94816,-3.68108 -0.39172,-11.21854 l 0,0 c 0,0 13.39215,-13.57912 20.43295,-26.50967 l 0,0 c 0,0 -10.23108,-16.4305 -6.959,-30.33098 l 0,0 c 6.252,7.21025 13.84205,10.59919 14.96975,11.27698 l 0,0 c 0.30383,0.18089 0.028,1.5776 0.42677,2.92149 l 0,0 c 0.39732,1.33805 1.7938,2.46575 2.30798,2.85723 l 0,0 c 0.52003,0.39732 2.97993,3.13768 2.22618,5.56837 l 0,0 c -1.01083,3.22533 -3.47073,3.13769 -3.47073,3.13769 l 0,0 c 0,0 6.14683,3.31298 9.46565,-1.7938 l 0,0 c 3.31297,-5.11846 0.5434,-9.0099 0.5434,-9.0099 l 0,0 c 0,0 5.93648,0.73038 9.82791,-1.3731 l 0,0 c 7.26284,-3.90896 6.60259,-8.36717 6.60259,-8.36717 l 0,0 c -3.55839,3.38309 -7.5141,1.58345 -7.5141,1.58345 l 0,0 c 0.96994,-0.36226 2.58845,-2.34304 3.4649,-4.13684 l 0,0 c 0.88229,-1.7938 1.58345,-5.65602 2.03921,-8.12176 l 0,0 c 0.46183,-2.46574 1.00499,-4.28876 3.50579,-8.15098 l 0,0 c 2.48912,-3.86806 7.66601,-4.59843 7.66601,-4.59843 l 0,0 c -1.92234,-1.33805 -5.15932,-2.14438 -9.676,-1.33805 l 0,0 c -4.51663,0.80633 -7.12261,5.10678 -7.12261,5.10678 l 0,0 c -3.62265,-6.25785 -6.38055,-10.09085 -7.41476,-12.25276 l 0,0 c -0.64273,-1.3322 -0.46744,-2.74621 0.12855,-3.7512 l 0,0 c 0.89982,-1.51334 2.22618,-3.3013 4.80878,-5.20027 l 0,0 c 4.8789,-3.59344 9.98568,-4.12515 14.20432,-6.51494 l 0,0 c 8.61257,-4.86137 5.36387,-13.66092 5.36387,-13.66092 l 0,0 c -1.46659,3.10848 -3.33051,5.47489 -7.79455,7.28622 l 0,0 c -5.08341,2.05673 -8.81708,1.70615 -15.15673,6.35133 l 0,0 c -4.27703,3.13185 -6.71945,7.50825 -6.71945,7.50825 l 0,0 c 0,0 -0.88813,-0.9641 -1.55423,-2.27877 l 0,0 c -0.66026,-1.31467 0.0584,-3.54085 0.89982,-4.9198 l 0,0 c 2.05089,-3.34804 5.7086,-7.80624 13.18768,-10.41806 l 0,0 c 3.69273,-1.28546 8.86962,-2.08595 13.1,-6.26953 l 0,0 c 4.77952,-4.7153 3.4181,-12.62671 3.4181,-12.62671 l 0,0 c -0.39171,3.833 -5.15931,6.63764 -8.44312,8.1685 l 0,0 c -3.38894,1.58345 -7.50825,2.60014 -10.2194,3.33635 l 0,0 c -2.70531,0.73038 -6.17605,2.10348 -9.46561,4.68024 l 0,0 c -5.32885,4.17774 -7.92314,9.65847 -7.92314,9.65847 l 0,0 c -0.46744,-0.8297 -0.99915,-1.51333 -1.1686,-2.18528 l 0,0 c -0.63104,-2.5417 0.34497,-4.51079 1.06927,-5.62096 l 0,0 c 5.13015,-7.89973 12.79031,-10.93808 14.94642,-11.73273 l 0,0 c 3.21945,-1.18029 8.70602,-2.91566 13.49727,-5.52747 l 0,0 c 10.41222,-5.68524 6.7545,-15.20932 6.7545,-15.20932 l 0,0 c -2.76373,4.96655 -8.56578,7.9231 -14.88795,10.29536 l 0,0 c -5.27038,1.97493 -9.40137,3.66355 -14.41466,6.39223 l 0,0 c -6.42141,3.48827 -10.76864,10.2603 -10.76864,10.2603 l 0,0 c -0.11125,-7.56668 4.61601,-12.50401 7.19857,-14.44388 l 0,0 c 6.14683,-4.6335 16.09745,-7.72444 19.60324,-9.22025 l 0,0 c 3.5058,-1.48996 11.16597,-4.65686 11.66846,-13.27528 l 0,0 c 0.38564,-6.78372 -4.59259,-10.82122 -10.56997,-12.00151 l 0,0 c -3.87391,-0.75959 -7.21026,-1.13938 -12.88381,-0.43238 l 0,0 c -2.65271,0.33282 -4.84384,0.85892 -5.23532,0.80633 l 0,0 c -0.64852,-0.0818 -3.17274,-1.43153 -4.23033,-1.97493 l 0,0 c -2.07426,-1.07511 -6.34549,-2.51833 -9.30204,-0.0701 l 0,0 c -3.55254,2.93903 -3.18439,5.58006 -3.09095,8.10424 l 0,0 c 0,0 2.22618,-2.95656 6.56753,-2.44237 l 0,0 c 0.8706,0.10517 1.64772,0.3272 2.34888,0.61351 l 0,0 c -0.60767,0.37956 -1.70031,1.36142 -2.68193,3.77457 l 0,0 c -1.46075,3.57007 -3.16106,3.89144 -3.16106,3.89144 l 0,0 c 0,0 2.15606,1.2095 6.12346,0.91735 l 0,0 c 0.42677,-0.0327 1.63603,-0.35058 2.02752,-0.44407 l 0,0 c -0.68364,2.16775 -1.47244,4.52248 -3.53502,5.4223 l 0,0 c -1.72368,0.7479 -3.79794,-0.44407 -3.79794,-0.44407 l 0,0 c 0,0 1.77042,4.70946 6.63764,4.43483 l 0,0 c 4.8731,-0.27485 7.23367,-4.67439 8.19188,-6.39223 l 0,0 c 0.96409,-1.70616 2.20281,-7.36217 2.20281,-7.36217 l 0,0 c 0,0 2.85722,2.46574 1.84054,7.84129 l 0,0 c 0,0 2.02168,-1.38478 3.89143,-3.46489 l 0,0 c 1.86392,-2.08011 3.74541,-4.24786 5.67944,-4.08425 l 0,0 c 2.62935,0.22203 4.63934,2.36641 2.10927,5.7904 l 0,0 c -2.58255,3.49996 -9.61752,6.25785 -14.46141,8.25031 l 0,0 c -4.79125,1.97493 -12.98897,6.23448 -16.96221,12.20017 l 0,0 c -3.97323,5.9657 -7.0466,14.72435 -2.6235,27.66658 l 0,0 c 2.37225,6.95316 7.99906,13.57912 7.99906,13.57912 l 0,0 c 0,0 -3.87391,-0.81802 -6.01824,1.0459 l 0,0 c 0,0 8.45476,3.20196 14.28023,10.51739 l 0,0 c 5.83131,7.32711 10.45316,18.07822 4.49911,22.48384 l 0,0 c -4.26539,3.16106 -13.81869,-3.45321 -16.02734,-5.36387 l 0,0 c -3.22533,-2.79295 -7.93478,-7.7186 -16.83366,-24.99633 l 0,0 c -5.18274,-10.05579 -8.81704,-25.20083 -8.81704,-25.20083 l 0,0 c 0,0 8.16262,6.80124 13.38041,-1.15107 l 0,0 c 0,0 -11.26529,-2.10348 -11.77358,-12.62672 l 0,0 c 0,0 1.1686,1.41985 2.85717,1.2095 l 0,0 c 2.14438,-0.2627 5.9657,0.73038 5.70277,4.49327 l 0,0 c 0,0 4.73287,-6.6727 -1.88145,-12.0132 l 0,0 c 0,0 8.31458,1.57761 9.22609,-6.13514 l 0,0 c 0,0 -3.66935,1.53086 -8.92225,-1.75874 l 0,0 c -1.71195,-1.06927 -2.30794,-2.30799 -2.30794,-2.30799 l 0,0 c 0,0 6.91806,1.21535 8.74112,-4.97823 l 0,0 c 0,0 -6.01249,0.16361 -8.68273,-4.32966 l 0,0 c 0,0 1.05178,-5.76703 -0.46744,-10.01489 l 0,0 c -1.51329,-4.24786 -7.20442,-5.52747 -7.93479,-5.65017 l 0,0 c -0.72448,-0.11686 -3.54085,-2.43653 -4.18943,-4.97239 l 0,0 c 0,0 -6.252,1.93987 -7.34459,5.15936 m -5.7145,6.27538 c -0.2627,-0.4207 -0.72448,-0.50834 0.30991,-0.99331 l 0,0 c 0.39733,-0.18698 1.48412,-0.74206 6.48568,-1.51334 l 0,0 c 0.11686,-0.0187 0.44407,-0.0762 0.44407,0.20474 l 0,0 c 0,0.16921 -0.52582,0.69532 -0.81218,1.43738 l 0,0 c -0.49665,1.2913 -1.10432,2.38978 -2.89812,2.77542 l 0,0 c -0.2571,0.0528 -0.49077,0.0818 -0.7128,0.0818 l 0,0 c -1.7529,0 -2.54175,-1.53671 -2.81637,-1.99246 m 0.82391,8.5483 c 0.23933,-0.22203 0.35619,-0.38003 0.84718,-0.44407 l 0,0 c 1.02837,-0.14023 4.56923,0.0528 5.66191,3.28961 l 0,0 c -1.54844,0.0818 -4.43488,0.23933 -7.85303,0.44407 l 0,0 c 0.42677,-1.09849 0.9992,-2.55339 1.34394,-3.28961 m -6.5442,1.54255 c 0.028,0 0.0645,0 0.10517,0 l 0,0 c 0.66615,0 1.96914,-0.0421 2.59429,-0.14023 l 0,0 c 0.25709,0.41509 0.77128,1.23287 1.2095,1.96325 l 0,0 c -1.36726,0.0818 -3.57587,0.16921 -5.01913,0.2627 l 0,0 c 0.34497,-0.6661 0.76548,-1.46075 1.11017,-2.08595 m 4.64522,4.86721 c 4.39389,-0.33889 7.50825,1.02253 8.35544,1.44906 l 0,0 c -0.38564,0.99916 -1.01664,1.61267 -1.7529,1.91066 l 0,0 c -0.6252,0.25102 -1.39643,0.4207 -3.43568,0.4207 l 0,0 c -0.0281,0 -0.064,0 -0.0935,0 l 0,0 c -0.47912,-0.53171 -2.2495,-2.51833 -3.07337,-3.78042 m -4.07845,3.57007 c -0.35058,-0.43238 -1.24451,-1.58345 -1.8347,-2.65856 l 0,0 c 0.80633,-0.15753 2.4541,-0.34497 3.39478,-0.54924 l 0,0 c 0.60767,-0.12855 1.19781,-0.22204 1.77042,-0.29215 l 0,0 c -0.34497,0.99915 -0.84723,2.58844 -0.91735,3.56422 l 0,0 c -0.56092,-0.0234 -1.88728,-0.0421 -2.41315,-0.064"
       id="path282"
       style="fill:url(#radialGradient3672-4);stroke:none" />
  </g>
</svg>
