<?xml version="1.0" encoding="utf-8"?>
<!-- Generator: Adobe Illustrator 13.0.0, SVG Export Plug-In . SVG Version: 6.00 Build 14948)  -->
<!DOCTYPE svg PUBLIC "-//W3C//DTD SVG 1.1//EN" "http://www.w3.org/Graphics/SVG/1.1/DTD/svg11.dtd">
<svg version="1.1" id="Ebene_1" xmlns="http://www.w3.org/2000/svg" xmlns:xlink="http://www.w3.org/1999/xlink" x="0px" y="0px"
	 width="456.615px" height="510.614px" viewBox="0 0 456.615 510.614" enable-background="new 0 0 456.615 510.614"
	 xml:space="preserve">
<g>
	<g>
		<defs>
			<rect id="SVGID_1_" width="456.615" height="510.614"/>
		</defs>
		<clipPath id="SVGID_2_">
			<use xlink:href="#SVGID_1_"  overflow="visible"/>
		</clipPath>
		<g clip-path="url(#SVGID_2_)">
			<defs>
				<rect id="SVGID_3_" x="0.09" width="456.525" height="510.614"/>
			</defs>
			<clipPath id="SVGID_4_">
				<use xlink:href="#SVGID_3_"  overflow="visible"/>
			</clipPath>
			<path clip-path="url(#SVGID_4_)" fill="#152716" d="M0,0v169.057c0,132.637,49.175,215.49,90.426,261.639
				c49.083,54.909,105.88,79.919,137.881,79.919s88.798-25.01,137.882-79.919c41.251-46.148,90.426-129.002,90.426-261.639V0H0"/>
		</g>
		<path clip-path="url(#SVGID_2_)" fill="#18A44F" d="M228.308,495.307c53.25,0,213-90.75,213-326.25V15.307h-426v153.75
			C15.308,404.557,175.058,495.307,228.308,495.307"/>
		<path clip-path="url(#SVGID_2_)" fill="#34471F" d="M420.789,40.455l-6.918-2.44c-4.075-1.496-7.596-2.788-13.267-2.706
			l-0.28,0.005c-2.02-3.563-6.445-5.947-12.943-6.894c-12.339-1.669-25.814,2.72-34.358,11.18
			c-6.627,6.558-16.354,17.098-24.573,32.904c-14.253,12.896-44.468,46.722-56.109,62.85l-0.225,0.311l-3.828,2.928
			c-18.254,22.724-79.932,92.395-116.936,133.683l-5.039,5.622l0.431-0.083l-45.3,50.853c-6.354,6.359-9.148,8.621-17.559,10.687
			c-3.587,1.38-7.831,1.887-7.831,1.887s5.524,2.767,8.005,3.105c8.752,1.512,16.811-0.523,23.744-3.058
			c-4.462,8.46-5.642,17.51-3.595,27.6c0,2.414,3.096,6.727,3.096,6.727s0.375-3.062,1.855-6.521
			c2.244-7.751,5.487-13.336,13.344-22.98c10.16-12.475,22.965-26.829,33.253-38.361c8.544-9.58,15.359-17.218,18.468-21.277
			l0.051,0.174l3.06-3.617c14.53-17.174,21.059-23.728,37.215-29.829l5.5-1.261c7.191,0.605,14.367,0.872,21.477,0.867
			l-7.315,13.715l7.198,27.697c-30.785,12.071-51.858,41.969-51.858,76.076c0,21.778,8.52,42.293,23.988,57.761
			c15.471,15.472,35.985,23.989,57.764,23.989c21.78,0,42.292-8.518,57.764-23.989c15.469-15.468,23.989-35.982,23.989-57.761
			c0-45.079-36.674-81.755-81.753-81.755l-3.403,0.069c-2.141-9.795-4.119-18.851-4.304-19.693
			c0.818-1.351,8.994-14.823,11.136-18.357c22.782-3.167,43.53-9.573,59.705-18.785c35.596-20.282,56.029-50.024,64.298-93.602
			c3.896-20.52,4.686-42.385,4.686-62.523c0-4.673-0.042-9.25-0.098-13.699v-1.857c4.43-2.309,7.831-5.854,11.112-9.3
			c1.778-1.868,3.459-3.632,5.29-5.208l2.346-2.019l2.193-1.887L420.789,40.455 M173.286,269.378l-0.489-0.255
			c0.217-0.151,0.442-0.296,0.655-0.45C173.397,268.903,173.343,269.144,173.286,269.378z M256.863,289.842l-0.478,0.086
			c-1.559,0.29-3.093,0.636-4.615,1.009c-1.66-6.658-5.607-22.481-5.965-23.924c0.698-1.228,6.093-10.696,8.271-14.522
			c2.665-0.136,5.313-0.315,7.943-0.536l-10.037,15.258C251.983,267.213,254.343,278.151,256.863,289.842z"/>
		<path clip-path="url(#SVGID_2_)" fill="#34471F" d="M231.13,147.66c0-3.117-0.867-6.699-2.934-10.601l-2.634-4.973l-2.004,5.26
			c-0.471,1.235-1.318,2.471-1.945,3.138c-0.349-0.281-0.712-0.574-0.712-0.574c-3.832-3.311-10.069-8.654-27.593-6.104
			c0.306-0.592,0.662-1.191,1.058-1.794c1.467-0.127,5.001-0.432,5.001-0.432c9.565-0.599,22.664-1.417,25.111-16.794l0.041-0.243
			l-0.01-0.249c-0.148-4.235-2.203-8.109-5.787-10.909c-1.692-1.322-3.612-2.271-5.495-2.859c5.253,0.852,10.155,1.941,13.042,3.362
			l4.141,2.043l-0.476-4.592c-0.942-9.078-5.4-9.902-9.637-9.513c0,0-0.11,0.01-0.154,0.013c-0.896-0.558-3.729-2.326-3.729-2.326
			c-5.834-3.806-13.089-8.525-21.404-7.879c-2.024,0.013-3.05,1.087-3.481,1.726c-0.522,0.771-0.716,1.645-0.716,2.529
			c0,0.732,0.162,1.465,0.35,2.165c-0.896-0.007-2-0.092-3.336-0.314c-38.369-6.33-60.645-6.249-70.098,0.259
			c-4.207,2.895-7.27,7.581-7.27,12.583c0,2.358,0.683,4.787,2.246,7.134c1.909,2.858,4.831,4.631,8.284,5.713
			c-7.627-0.176-15.311,0.131-26.314,2.858l-0.201,0.048l-0.192,0.084c-2.592,1.113-5.157,1.706-7.226,2.037
			c3.195-6.1,8.868-17.166,10.778-23.821l0.823-2.877l-2.972-0.357c-1.871-0.227-4.247,0.565-6.726,1.669
			c-0.133-2.326-0.541-4.742-1.173-6.322l-0.894-2.231l-2.282,0.764c-2.508,0.835-4.348,2.063-5.879,3.311
			c-0.145-1.318-0.54-2.861-1.456-4.658l-3.407-6.693c0,0-1.066,5.909-1.285,7.116c-0.245,0.5-1.499,2.086-2.25,3.037
			c-1.278,1.618-1.868,2.397-2.186,3.027c-7.907,11.61-9.995,18.322-11.893,29.806l-0.027,0.161l-0.006,0.165
			c-0.018,0.542-0.029,1.087-0.029,1.635c0,2.674,0.294,5.467,0.757,8.365c-4.421,1.384-7.978,0.076-10.55-4.033
			c-2.607-4.166-1.301-11.086-0.252-16.644l0.19-1.01c0.866-4.626,1.767-5.884,6.034-8.414c2.915-1.724,5.462-9.018,5.985-11.629
			l1.226-6.138l-5.168,3.533c-1.95,1.33-6.209,2.522-9.167,3.335c-1.045-2.866-3.419-7.671-10.542-7.796l-4.523-0.079l2.273,3.913
			c1.206,2.077,1.397,3.64,1.623,5.884c-0.627-0.285-1.398-0.666-2.507-1.298c-0.789-0.446-2.425-1.381-3.825,0.07l-0.823,0.855
			l0.127,1.198c0.481,4.635,0.898,6.8,1.693,9.321c-0.973-1.213-2.011-2.511-2.011-2.511l-1.084,5.339
			c-0.269,1.336-0.451,2.806-0.451,4.354c0,3.214,0.815,6.759,3.18,10.119c-0.611-0.174-1.102-0.375-1.426-0.577l-4.753-2.991
			l0.873,5.548c0.744,4.715,5.273,10.078,9.449,11.903c-0.06,0.158-0.123,0.289-0.155,0.322c-0.13,0.141-0.641,0.472-2.543,0.517
			l-4.135,0.103l1.948,3.649c3.346,6.272,10.841,10.034,20.049,10.069c3.52,0.013,7.364-0.608,10.457-1.901
			c-0.515,3.372-1.504,5.87-2.96,6.973c-0.4,0.303-1.617,1.225-4.476,0.42c-8.253-2.249-10.387-3.734-10.922-4.27l-0.231-0.23
			l-0.282-0.164c-6.164-3.62-11.463-2.15-16.274-0.025l-6.282,2.776l6.57,1.998c0.68,0.207,1.176,0.445,1.599,0.697
			c-1.143,0.583-7.148,3.64-7.148,3.64l4.592,2.187c0,0,1.393,0.721,2.734,1.412c-1.585,1.181-10.858,8.071-10.858,8.071l9.51-1.132
			c4.405-0.524,7.971-1.222,10.837-1.781c2.282-0.447,4.798-0.932,5.853-0.858c0.001,0.037,0.007,0.028,0.007,0.075
			c0,0.523-0.109,1.597-0.647,3.71l-0.812,3.182h3.282c0.098,0,7.716-1.211,10.818-3.951c0.489-0.081,0.985-0.166,0.985-0.166
			c0.542-0.133,1.6-0.391,2.083-0.344c0.045,0.123,0.114,0.369,0.114,0.993v2.55h2.551c2.892,0,7.089-4.039,8.33-7.499
			c0.384-0.035,0.9,0.004,1.455,0.324c1.391,0.794,1.683,2.626,1.683,4.022l-0.001,3.866l3.555-1.519
			c4.925-2.106,8.194-6.558,9.21-12.543c0.219-1.291,0.321-2.632,0.321-3.961c0-1.478-0.168-2.892-0.408-4.236
			c6.798,1.54,17.312,2.13,26.624,0.034c10.118-2.275,15.979-5.77,21.152-8.856c4.903-2.922,9.138-5.449,16.165-6.306
			c0.88-0.107,1.882-0.111,2.833-0.163c-0.857,0.306-1.658,0.655-2.367,1.068c-2.571,1.499-3.428,3.368-3.693,4.682
			c-0.351,1.11-0.609,2.32-0.609,3.593c0,3.088,1.433,6.451,6.214,9.066c0.001,0.003,1.331,0.59,1.331,0.59
			c3.679,1.538,5.558,2.571,6.516,3.249c-2.805,0.189-9.07-4.005-11.348-5.537l-3.117-1.964c-3.176-1.588-13.831-3.986-17.738-2.813
			l-3.654,1.097l2.409,2.958c1.222,1.499,2.562,2.742,3.746,3.838c0.163,0.152,0.342,0.319,0.519,0.485
			c-3.504,0.625-7.371,1.61-10.313,3.362l-7.267,4.332l12.409,0.601c0.481,0.015,1.029,0.034,1.582,0.06
			c-1.549,1.131-2.872,2.272-4.014,3.469l-2.263,2.377l2.86,1.607c8.561,4.809,21.512-1.288,24.827-3.007
			c14.394,2.773,23.896,0.233,28.297-1.594l0.495-0.205l0.369-0.384c3.417-3.557,5.713-9.961,7.562-15.105
			c0,0,0.223-0.618,0.447-1.235c13.708-3.374,21.637-4.484,23.516-3.277c-0.017,0.079-0.032,0.155-0.034,0.163
			c-1.303,2.451-2.019,4.721-2.019,6.656c0,1.477,0.382,2.766,1.152,3.82c1.002,1.374,3.093,2.728,7.048,2.36
			c0.53,0.728,1.092,1.499,1.092,1.499c1.632,2.344,3.663,5.26,6.324,7.784l6.799,6.019l-2.61-8.635l-1.002-2.886
			c-0.432-1.173-0.693-2.054-0.855-2.921c1.268-0.139,2.589-0.565,3.846-1.455C229.072,156.153,231.13,152.458,231.13,147.66
			 M147.903,95.155c-2.32,1.629-2.824,3.39-2.824,4.612c0,0.032,0,0.063,0.001,0.094c0.03,1.493,0.768,2.703,1.733,3.715
			c-7.488,0.727-12.378,0.436-19.806-0.974c-0.976-0.295-3.05-1.087-3.172-2.589c-0.003-0.044-0.006-0.094-0.006-0.141
			c0-1.129,1.043-2.711,3.097-3.73c5.184-1.74,11.322-2.58,18.772-2.545c12.374,0.063,25.75,1.74,38.687,3.363l15.773,1.874
			c2.738,0.287,5.82,0.645,8.924,1.07c-0.188,0.011-0.368,0.031-0.549,0.055c-3.891-0.758-8.058-0.592-12.864-0.371
			c-5.375,0.243-11.462,0.521-18.543-0.51c-4.329-0.63-7.326-1.475-10.222-2.289c-4.944-1.394-9.215-2.599-17.687-2.095
			l-0.722,0.042L147.903,95.155z M149.055,113.953c13.098-1.09,39.292-3.27,39.396-3.278c0.257-0.006,2.14-0.048,2.14-0.048
			c4.44-0.137,13.677-0.418,17.721,1.586c1.573,0.776,2.414,1.367,2.5,1.751c0.006,0.027,0.01,0.065,0.01,0.106
			c0,0.368-0.309,1.232-1.32,2.59c-3.73,2.604-11.556,3.337-19.665,1.79C174.587,115.54,162.193,114.196,149.055,113.953z"/>
		<path clip-path="url(#SVGID_2_)" fill-rule="evenodd" clip-rule="evenodd" fill="#34471F" d="M72.716,42.129
			c-3.335,0-11.787,0-15.122,0c0-2.45,0-8.309,0-8.309l-28.367-0.001v44.789h90.966c0,0,0-13.304,0-16.983
			c3.606-0.008,15.656-0.029,19.275-0.037c0,3.693,0,17.021,0,17.021h91.468V33.82h-28.318c0,0,0,5.858,0,8.309
			c-3.356,0-12.039,0-15.395,0c0-2.45,0-8.309,0-8.309h-28.37c0,0,0,5.858,0,8.309c-3.264,0-11.019,0-14.285,0
			c0-2.45,0-8.309,0-8.309h-29.479c0,0,0,5.858,0,8.309c-3.215,0-10.516,0-13.733,0c0-2.45,0.002-8.309,0.002-8.309l-28.644-0.001
			C72.716,33.819,72.716,39.679,72.716,42.129 M72.716,53.439c0,2.482,0,5.359,0,7.843c-0.854,0-0.981,0-1.833,0
			c0-2.483,0-5.36,0-7.843C71.735,53.439,71.862,53.439,72.716,53.439z M189.054,53.798c0,2.481,0,5.36,0,7.842
			c-0.85,0-0.979,0-1.83,0c0-2.481,0-5.36,0-7.842C188.076,53.798,188.204,53.798,189.054,53.798z"/>
		<path clip-path="url(#SVGID_2_)" fill-rule="evenodd" clip-rule="evenodd" fill="#F2E529" d="M225.942,138.252
			c-0.904,2.375-3.274,5.602-4.78,5.131c-4.038-2.691-8.541-11.064-32.091-6.259c1.154-2.873,1.968-4.972,3.853-7.547
			c10.626-1.49,26.428,1.181,29.039-15.197c-0.299-8.491-9.608-12.698-13.524-11.865c-7.887-1.68-17.907,1.092-31.679-0.911
			c-11.904-1.734-14.469-5.128-27.388-4.363c-6.154,4.319,6.228,7.84,3.177,8.242c-10.934,1.449-16.575,1.43-26.165-0.402
			c-7.47-2.179-5.968-8.674-0.45-11.303c5.922-2.021,12.666-2.766,19.779-2.732c17.65,0.088,37.081,3.395,54.715,5.25
			c11.239,1.186,21.772,2.739,26.97,5.302c-0.914-8.823-5.117-7.254-7.894-7.157c-6.21-3.462-14.797-11.112-24.472-10.259
			c-3.229,0.017-0.834,4.81-0.467,5.92c-1.66,0.704-4.452,0.599-7.153,0.153c-25.338-4.182-56.925-7.945-68.235-0.156
			c-4.325,2.975-8.804,9.519-4.351,16.196c4.148,6.213,14.912,6.397,23.583,5.987l49.895-4.154c3.354,0,15.653-0.919,21.139,1.797
			c3.292,1.631,5.951,3.418,1.822,8.646c-4.837,3.618-14.08,3.879-21.907,2.388c-16.236-3.101-30.628-4.8-48.315-4.526
			c-17.685,0.274-26.349-2.479-45.754,2.326c-6.651,2.855-13.237,2.656-12.636,2.656c0-0.301,10.143-18.474,12.727-27.485
			c-2.32-0.278-6.951,2.159-9.129,3.27c0.5-2.354,0.113-7.148-0.833-9.504c-4.672,1.561-6.877,4.731-9.274,6.567
			c-0.614-2.325,1.237-4.503-1.142-9.175c0,0.896-4.338,5.706-4.638,6.603c-7.531,11.024-9.672,17.33-11.592,28.946
			c-0.127,3.617,0.198,7.436,1.011,11.605c-7.779,3.538-12.839-0.047-15.543-4.373c-3.32-5.305-1.524-13.488-0.408-19.473
			c0.983-5.277,2.316-7.225,7.241-10.143c1.643-0.971,4.133-6.687,4.784-9.935c-2.878,1.968-8.973,3.383-12.19,4.324
			c-0.971-1.942-1.546-8.209-9.003-8.339c2.052,3.534,1.723,6.006,2.303,9.894c-1.513,1.718-7.598-2.522-7.375-2.162
			c0.733,7.066,1.242,7.958,3.477,14.204c-2.589,0.946-2.584,1.622-4.915-1.284c-1.895,9.335,3.167,14.315,6.68,16.849
			c-3.174,0.259-6.86,0.191-9.236-1.304c0.795,5.052,6.639,10.45,9.638,10.45c0.175,4.055-1.581,5.149-5.345,5.241
			c6.395,11.982,28.069,9.86,31.222,4.055c0,6.896-1.499,17.859-11.091,15.164c-3.299-0.899-9.938-2.823-12.035-4.922
			c-4.551-2.67-8.484-2.307-13.952,0.11c2.991,0.91,4.14,2.402,4.899,4.008c-1.965,0.958-3.86,1.733-5.43,2.691l6.368,3.29
			l-6.453,4.793c16.617-1.978,21.599-6.573,18.822,4.311c0.899,0,9.624-2.553,9.624-3.751c1.798,0,6.928-2.859,6.928,2.834
			c1.953,0,6.166-4.428,6.166-6.769c1.742-1.649,7.852-1.025,7.852,6.167c10.633-4.545,8.436-20.147,5.906-22.458
			c4.421,2.353,18.369,4.288,30.283,1.608c19.42-4.368,22.428-13.356,37.567-15.208c5.474-0.668,12.437-0.354,22.164,1.538
			c4.364,0.725,5.982,5.382-0.253,3.309c-7.759-2.584-21.284-1.513-22.332,3.794c-1.787,5.241,0.972,8.065,4.332,9.902
			c0.995,0.543,12.072,4.46,9.641,7.333c-4.129,4.73-15.624-4.978-18.621-6.476c-3-1.499-12.869-3.551-15.867-2.651
			c2.849,3.494,6.711,5.738,6.711,7.835c-3.313,0.413-9.473,1.293-13.431,3.652c5.164,0.393,10.149-0.063,11.801,1.775
			c-4.22,2.358-6.767,4.383-8.549,6.255c7.506,4.217,20.475-1.84,23.134-3.432c11.979,2.479,21.533,1.282,27.762-1.301
			c3.604-3.754,6.063-11.77,7.921-16.736c11.225-2.81,30.226-7.507,27.834-0.158c-3.36,6.012-2.568,10.875,4.951,9.356
			c1.797,2.171,4.321,6.647,7.979,10.119c-1.354-4.289-2.631-5.934-1.979-9.731C222.603,159.595,233.605,152.724,225.942,138.252
			 M66.735,102.986c1.715,0,4.93,1.529,5.931,3.235c-0.898,0-7.686,1.535-8.5,1.45L66.735,102.986z M61.443,121.816
			c2.84-2.729,9.555-4.729,11.322-4.729c1.19,1.842,6.423,6.507,7.109,7.02C76.482,124.543,67.876,122.962,61.443,121.816z
			 M78.467,107.759c0.9,0,7.239,0.401,8.048,0.483l-2.565,4.688C82.231,112.93,79.467,109.465,78.467,107.759z"/>
		<path clip-path="url(#SVGID_2_)" fill-rule="evenodd" clip-rule="evenodd" fill="#F2E529" d="M205.168,36.371v8.309h-20.496
			v-8.309h-23.267v8.309h-19.387v-8.309h-24.375v8.309H98.807l0.001-8.309H75.265v8.309H55.044v-8.309H31.779v39.687h85.865v-16.98
			l24.375-0.044v17.024h86.366V36.371H205.168 M75.265,63.832h-6.933V50.891h6.933V63.832z M191.605,64.191h-6.933V51.246h6.933
			V64.191z"/>
		<path clip-path="url(#SVGID_2_)" fill-rule="evenodd" clip-rule="evenodd" fill="#F2E529" d="M269.326,291.134
			c0.67-0.029,1.323-0.04,1.978-0.04c43.622,0,79.203,35.583,79.203,79.204c0,43.62-35.581,79.198-79.203,79.198
			c-43.623,0-79.202-35.578-79.202-79.198c0-38.69,27.987-71.054,64.748-77.86l5.219,24.589
			c-5.182,2.818-12.386,0.493-23.963,19.406c6.373-3.583,13.405-9.178,28.304-9.723c5.343,7.934,9.515,19.055,16.735,28.266
			c0.794-5.689,2.013-13.685-1.357-24.505c8.395,3.03,17.355,8.102,26.736,15.63c-3.378-20.656-17.093-22.506-19.868-23.788
			c8.525-0.422,15.961-0.312,24.484-0.886c-7.586-9.27-24.716-8.174-39.159-7.928L269.326,291.134"/>
		<path clip-path="url(#SVGID_2_)" fill-rule="evenodd" clip-rule="evenodd" fill="#F2E529" d="M153.252,273.976
			c40.152-44.796,99.209-111.606,117.025-133.787l-11.698,28.03c-20.501,25.422-56.781,65.259-82.605,94.854
			C169.688,269.788,160.497,272.596,153.252,273.976"/>
		<path clip-path="url(#SVGID_2_)" fill-rule="evenodd" clip-rule="evenodd" fill="#F2E529" d="M401.689,58.078
			c-1.402-2.81-2.933-7.588-2.361-10.4l18.734-4.025C412.524,48.418,408.254,54.869,401.689,58.078"/>
		<path clip-path="url(#SVGID_2_)" fill-rule="evenodd" clip-rule="evenodd" fill="#F2E529" d="M400.771,61.985
			c-3.703,17.515-10.518,33.521-31.419,31.463c-22.276-2.362-19.484-23.789-17.852-37.717l1.438-0.628
			c0.312,11.766-1.667,29.62,13.425,34.189c15.753,0.271,26.97-3.052,33.18-30.33c-4.732-8.04-2.574-13.299-1.084-21.765
			c-1.631-3.769-6.582-5.544-11.445-6.255c-10.809-1.46-23.798,2.155-32.197,10.471c-8.188,8.101-16.928,18.308-24.334,32.684
			c-13.743,12.34-44.271,46.397-56.075,62.75c-3.066,9.026-9.308,22.749-11.994,29.952c20.118,8.886,43.677-1.868,57.947-19.709
			c23.063-1.827,43.988-7.44,59.973-15.986l-0.249,4.097c-5.144,3.101-7.571,4.206-15.676,7.441
			c-4.067,26.912-19.873,49.097-40.783,63.624c-20.274,14.079-45.325,20.889-70.469,23.087c-9.49,9.204-18.683,15.712-32.892,20.046
			c39.017,3.286,82.688-2.625,112.911-19.844c39.609-22.567,56.106-55.25,63.053-91.859
			C400.81,113.575,401.096,87.75,400.771,61.985 M359.186,53.581l10.558-1.691c0.006-6.29,5.271-11.378,11.727-11.378
			c6.453,0,11.72,5.088,11.72,11.328c0,6.238-5.267,11.556-11.72,11.556c-5.176,0-9.584-3.496-11.179-8.005
			c-4.845-0.403-9.188-0.29-11.108-0.567L359.186,53.581z"/>
		<path clip-path="url(#SVGID_2_)" fill-rule="evenodd" clip-rule="evenodd" fill="#F2E529" d="M399.503,44.97
			c0.085-2.221,0.378-4.55,1.14-7.109c6.798-0.1,10.013,1.88,16.452,3.996L399.503,44.97"/>
		<path clip-path="url(#SVGID_2_)" fill-rule="evenodd" clip-rule="evenodd" fill="#F2E529" d="M247.479,186.197l12.571-15.341
			c9.153,3.921,34.537,10.676,62.074-19.099l6.93-0.908C314.448,179.93,276.119,192.318,247.479,186.197"/>
		<path clip-path="url(#SVGID_2_)" fill-rule="evenodd" clip-rule="evenodd" fill="#F2E529" d="M230.206,206.68l14.721-16.89
			c23.232,2.509,40.646-0.1,54.979-7.219c12.873-6.396,25.087-16.853,33.841-32.495l13.431-2.786
			C323.176,208.826,253.257,212.646,230.206,206.68"/>
		<path clip-path="url(#SVGID_2_)" fill-rule="evenodd" clip-rule="evenodd" fill="#F2E529" d="M189.704,251.567l37.618-40.812
			c58.615,7.689,101.897-13.16,124.02-64.409l9.36-2.363c-10.604,51.498-56.331,78.349-109.02,81.97
			C238.936,237.956,227.27,248.346,189.704,251.567"/>
		<path clip-path="url(#SVGID_2_)" fill-rule="evenodd" clip-rule="evenodd" fill="#F2E529" d="M175.387,281.382
			c-1.54-5.243,0.357-11.273,1.338-15.261l11.319-12.079c9.125,0.145,17.108-1.481,25.605-3.226
			C197.04,257.089,190.149,263.938,175.387,281.382"/>
		<path clip-path="url(#SVGID_2_)" fill-rule="evenodd" clip-rule="evenodd" fill="#F2E529" d="M106.708,368.381
			c-2.2-10.854-0.347-19.687,4.267-27.545l62.142-70.865c-1.704,6.904-1.982,11.149-0.543,14.459
			c-6.228,8.375-33.333,37.093-52.048,60.07C112.821,353.955,109.164,359.9,106.708,368.381"/>
		<path clip-path="url(#SVGID_2_)" fill-rule="evenodd" clip-rule="evenodd" fill="#F2E529" d="M84.494,341.832
			c8.912-2.19,12.115-4.72,18.855-11.469l47.996-53.879c6.3-0.056,11.921-1.304,19.301-6.529l-61.299,68.021
			C102.035,340.845,93.577,343.402,84.494,341.832"/>
		<polyline clip-path="url(#SVGID_2_)" fill-rule="evenodd" clip-rule="evenodd" fill="#F2E529" points="243.755,293.1 
			236.932,266.845 243.986,253.618 250.561,253.511 243.083,266.64 249.386,291.917 243.755,293.1 		"/>
		<path clip-path="url(#SVGID_2_)" fill-rule="evenodd" clip-rule="evenodd" fill="#F2E529" d="M267.854,324.113
			c-10.289,0.139-15.437,2.597-22.793,5.699c5.696-5.564,10.945-8.452,20.755-10.559l-11.113-51.534l9.363-14.232l6.323-0.686
			l-9.502,15.665c3.308,15.558,7.215,32.625,10.522,48.174c28.902-2.356,35.435,2.044,36.508,2.469
			c-5.775,1.638-18.203-0.957-24.888,1.28c-2.979,0,21.254,12.086,21.903,19.949c1.795,0.562-28.563-18.498-30.02-17.116
			c4.867,3.358,6.631,18.953,6.615,24.873C275.841,337.913,275.303,334.907,267.854,324.113"/>
		<path clip-path="url(#SVGID_2_)" fill-rule="evenodd" clip-rule="evenodd" fill="#F2E529" d="M381.599,41.976
			c-5.561,0-10.095,4.383-10.095,9.757c0,5.375,4.534,9.759,10.095,9.759c5.563,0,10.1-4.384,10.1-9.759
			C391.698,46.358,387.162,41.976,381.599,41.976 M380.824,58.399c-3.978,0-7.221-3.137-7.221-6.976c0-3.847,3.243-6.98,7.221-6.98
			s7.218,3.134,7.218,6.98C388.042,55.263,384.802,58.399,380.824,58.399z"/>
		<path clip-path="url(#SVGID_2_)" fill-rule="evenodd" clip-rule="evenodd" fill="#34471F" d="M224.612,369.512l2.37-0.267
			c0.289,1.058,1.096,1.583,2.426,1.583c0.831,0,1.499-0.214,2.002-0.625c0.507-0.419,0.76-0.942,0.76-1.576
			c0-0.585-0.229-1.093-0.684-1.522c-0.456-0.423-1.044-0.64-1.769-0.64c-0.769,0-1.538,0.322-2.307,0.964l-2.322-0.375l1.304-5.688
			h7.736v1.827h-6.159l-0.56,2.385c0.87-0.533,1.789-0.8,2.765-0.8c1.237,0,2.293,0.373,3.162,1.107
			c0.867,0.741,1.3,1.655,1.3,2.742c0,1.204-0.509,2.184-1.522,2.941c-1.014,0.751-2.235,1.132-3.665,1.132
			c-1.294,0-2.366-0.285-3.214-0.854C225.384,371.281,224.844,370.503,224.612,369.512"/>
		<path clip-path="url(#SVGID_2_)" fill-rule="evenodd" clip-rule="evenodd" fill="#34471F" d="M223.157,362.669
			c-0.918-1.052-2.172-1.574-3.765-1.574c-1.567,0-2.815,0.522-3.738,1.57c-0.919,1.041-1.38,2.458-1.38,4.24
			c0,1.77,0.46,3.182,1.38,4.222c0.923,1.049,2.171,1.573,3.738,1.573c1.602,0,2.86-0.524,3.771-1.577
			c0.913-1.055,1.368-2.458,1.368-4.218C224.531,365.132,224.07,363.723,223.157,362.669 M219.375,370.828
			c-1.677,0-2.521-1.304-2.521-3.923c0-2.625,0.849-3.938,2.539-3.938c1.704,0,2.554,1.313,2.554,3.938
			C221.946,369.524,221.087,370.828,219.375,370.828z"/>
		<path clip-path="url(#SVGID_2_)" fill-rule="evenodd" clip-rule="evenodd" fill="#34471F" d="M212.091,362.536
			c-0.872-1.037-2.262-1.556-4.173-1.556c-1.389,0-2.544,0.364-3.454,1.093c-0.911,0.732-1.367,1.688-1.367,2.874
			c0,1.132,0.428,2.04,1.273,2.716c0.849,0.675,1.858,1.012,3.021,1.012c1.384,0,2.548-0.513,3.49-1.523
			c-0.076,2.373-1.134,3.56-3.179,3.56c-1.041,0-1.679-0.353-1.925-1.053l-2.565,0.265c0.457,1.772,1.939,2.66,4.43,2.66
			c1.887,0,3.319-0.587,4.294-1.744c0.975-1.16,1.467-2.677,1.467-4.531C213.404,364.831,212.969,363.585,212.091,362.536
			 M209.799,366.175c-0.485,0.423-1.087,0.63-1.812,0.63c-1.538,0-2.306-0.665-2.306-1.995c0-0.551,0.216-1.021,0.642-1.392
			c0.429-0.381,0.998-0.57,1.713-0.57c0.691,0,1.279,0.175,1.763,0.506c0.48,0.335,0.72,0.786,0.72,1.356
			C210.52,365.267,210.279,365.756,209.799,366.175z"/>
		<path clip-path="url(#SVGID_2_)" fill-rule="evenodd" clip-rule="evenodd" fill="#34471F" d="M198.628,372.425v-7.744
			l-2.031,0.007v-1.527c1.149-0.327,1.908-1.175,2.642-2.065h1.775v11.33H198.628"/>
	</g>
</g>
</svg>
