<?xml version="1.0" encoding="UTF-8" standalone="no"?>
<!-- Created with Inkscape (http://www.inkscape.org/) -->
<svg
   xmlns:svg="http://www.w3.org/2000/svg"
   xmlns="http://www.w3.org/2000/svg"
   version="1.0"
   width="190"
   height="300"
   id="svg2">
  <defs
     id="defs4" />
  <g
     transform="translate(-21.202428,-26.142742)"
     style="display:inline"
     id="layer2" />
  <g
     transform="translate(-21.202428,-26.142742)"
     style="display:inline"
     id="layer3" />
  <g
     transform="translate(-21.202428,-26.142742)"
     style="display:inline"
     id="layer4" />
  <g
     transform="translate(-21.202428,-26.142742)"
     style="display:inline"
     id="layer5">
    <g
       id="g14053">
      <path
         d="M 31.969012,35.854717 L 200.46284,35.827722 L 200.46284,145.51553 L 200.46284,286.06607 L 116.03438,316.45776 L 31.942019,286.13964 L 31.969012,35.854717 z "
         style="fill:#ffffff;fill-opacity:1;fill-rule:evenodd;stroke:none;stroke-width:6.46967077;stroke-linecap:butt;stroke-linejoin:miter;stroke-miterlimit:4;stroke-dasharray:none;stroke-opacity:1"
         id="path13082" />
      <path
         d="M 31.227839,34.437516 L 201.4238,34.410249 L 201.4238,145.20613 L 201.4238,287.17653 L 116.14244,317.87523 L 31.200573,287.25084 L 31.227839,34.437516 z "
         style="fill:none;fill-rule:evenodd;stroke:#000000;stroke-width:6.53502798;stroke-linecap:butt;stroke-linejoin:miter;stroke-miterlimit:4;stroke-dasharray:none;stroke-opacity:1"
         id="path2237" />
      <path
         d="M 30.981062,144.78486 L 201.30041,144.78486"
         style="fill:none;fill-rule:evenodd;stroke:#000000;stroke-width:6.53502798;stroke-linecap:butt;stroke-linejoin:miter;stroke-miterlimit:4;stroke-dasharray:none;stroke-opacity:1"
         id="path2239" />
      <path
         d="M 41.047887,155.00897 L 41.047887,228.16498 L 56.046684,228.16498 C 56.046125,228.27198 56.046684,228.37552 56.046684,228.48265 C 56.046684,261.79128 83.073613,288.8409 116.38224,288.8409 C 116.40486,288.8409 116.42769,288.84092 116.45031,288.8409 L 116.45031,306.72146 L 191.39891,279.67371 L 191.39891,228.16498 L 176.71779,228.16498 C 176.54479,195.02652 149.62069,168.18368 116.45031,168.1471 L 116.45031,155.00897 L 41.047887,155.00897 z M 116.38224,173.57027 C 146.69486,173.57027 171.29462,198.17004 171.29462,228.48265 C 171.29463,258.79526 146.69485,283.41773 116.38224,283.41773 C 86.069632,283.41773 61.469849,258.79527 61.469849,228.48265 C 61.469856,198.17004 86.069618,173.57027 116.38224,173.57027 z M 123.23494,185.9369 L 123.23494,207.56149 C 126.18831,208.52773 128.87454,210.08872 131.13143,212.12239 L 149.82887,201.29875 C 143.28827,193.27119 133.91145,187.64447 123.23494,185.9369 z M 109.03033,186.02766 C 98.57427,187.82675 89.413345,193.38754 82.980982,201.27606 L 101.63304,212.14508 C 103.76599,210.22028 106.26682,208.6981 109.03033,207.72033 L 109.03033,186.02766 z M 75.92406,213.62 C 74.220981,218.25281 73.291896,223.26027 73.291896,228.48265 C 73.291896,233.9469 74.317118,239.16795 76.173662,243.98065 L 94.848411,233.15701 C 94.523845,231.65336 94.349208,230.08293 94.349208,228.48265 C 94.349208,227.13661 94.480692,225.83672 94.712265,224.5571 L 75.92406,213.62 z M 156.8631,213.62 L 138.05221,224.51172 C 138.28895,225.805 138.41526,227.12131 138.41526,228.48265 C 138.41526,230.12485 138.21199,231.73051 137.87068,233.27047 L 156.54543,244.16218 C 158.44851,239.2996 159.49527,234.01558 159.49527,228.48265 C 159.49527,223.26027 158.56789,218.25281 156.8631,213.62 z M 116.38224,217.954 C 110.56645,217.954 105.85357,222.66686 105.85358,228.48265 C 105.85358,234.29844 110.56645,239.03399 116.38224,239.034 C 122.19803,239.034 126.9109,234.29844 126.91089,228.48265 C 126.91089,222.66686 122.19804,217.954 116.38224,217.954 z M 102.17763,245.31943 L 83.412113,256.21114 C 89.819831,263.8284 98.806227,269.19923 109.03033,270.96034 L 109.03033,249.26767 C 106.49443,248.37042 104.19124,247.02281 102.17763,245.31943 z M 130.49608,245.41019 C 128.37664,247.18019 125.91803,248.5487 123.23494,249.42651 L 123.23494,271.0511 C 133.60727,269.39035 142.7517,264.01735 149.26159,256.34729 L 130.49608,245.41019 z "
         style="fill:#e31818;fill-opacity:1;fill-rule:evenodd;stroke:none;stroke-width:9;stroke-linejoin:miter;stroke-miterlimit:4;stroke-dashoffset:0;stroke-opacity:1;display:inline"
         id="rect3230" />
      <path
         d="M 73.742,42.188735 L 110.15248,42.205949 L 110.15248,54.156351 L 89.28536,54.139142 L 89.28536,59.846857 L 108.41045,59.809622 L 108.42767,71.906155 L 89.248125,71.906155 L 89.248125,87.859479 L 73.779235,87.879505 L 73.742,42.188735 z "
         style="fill:#000000;fill-opacity:1;fill-rule:evenodd;stroke:none;stroke-width:1px;stroke-linecap:butt;stroke-linejoin:miter;stroke-opacity:1"
         id="path8156" />
      <path
         d="M 157.91515,58.881162 L 142.32857,58.881162 C 142.35913,56.466767 141.56452,52.493717 135.54382,52.463155 C 129.61481,52.432592 125.50423,55.580472 125.45839,65.299162 C 125.41254,75.018716 130.17942,77.76843 135.54382,77.76843 C 140.90744,77.76843 143.39824,74.31493 143.33711,69.975134 L 159.01538,69.975134 C 159.04594,83.147325 149.03691,88.312291 134.62697,88.312291 C 120.21702,88.312291 110.80395,81.283048 110.78867,65.84928 C 110.77338,50.415513 119.34583,42.209552 135.91056,42.194355 C 152.56681,42.179074 157.91515,49.926518 157.91515,58.881162 z "
         style="fill:#000000;fill-opacity:1;fill-rule:evenodd;stroke:none;stroke-width:1px;stroke-linecap:butt;stroke-linejoin:miter;stroke-opacity:1"
         id="path8182" />
      <path
         d="M 43.158157,92.245478 L 43.158157,137.21918 L 58.043498,137.21918 L 58.043498,120.40509 L 68.186405,120.40509 C 70.9051,121.9864 69.801145,135.04828 71.635448,137.21918 L 86.656935,137.21918 C 84.527831,135.10422 84.475659,122.87449 83.820552,119.08901 C 83.099927,115.97724 80.909495,114.23056 78.420077,114.16505 C 80.861368,114.26332 84.562038,109.56257 84.546666,103.56832 C 84.580256,97.437201 80.394244,92.284078 73.745717,92.245478 L 43.158157,92.245478 z M 58.043498,102.97835 L 65.871916,102.97835 C 70.302026,102.96236 70.466375,109.66991 65.871916,109.67222 L 58.043498,109.67222 L 58.043498,102.97835 z "
         style="fill:#000000;fill-opacity:1;fill-rule:evenodd;stroke:none;stroke-width:1px;stroke-linecap:butt;stroke-linejoin:miter;stroke-opacity:1"
         id="path9165" />
      <path
         d="M 84.554421,92.245441 L 95.391835,137.22652 L 110.78867,137.22652 L 117.41022,113.07724 L 124.42706,137.22652 L 139.67055,137.22652 L 150.9217,92.245441 L 137.25095,92.245441 L 131.20194,115.47176 L 124.06412,92.245441 L 110.78867,92.245441 L 104.22338,115.47176 L 98.295362,92.245441 L 84.554421,92.245441 z "
         style="fill:#000000;fill-opacity:1;fill-rule:evenodd;stroke:none;stroke-width:1px;stroke-linecap:butt;stroke-linejoin:miter;stroke-opacity:1"
         id="path11110" />
      <path
         d="M 152.01052,92.245441 L 152.01052,137.22652 L 189.03043,137.22652 L 189.03043,126.08411 L 166.52813,126.08411 L 166.52813,119.55119 L 186.7318,119.55119 L 186.7318,108.42102 L 166.52813,108.42102 L 166.52813,103.58182 L 188.18357,103.58182 L 188.18357,92.245441 L 152.01052,92.245441 z "
         style="fill:#000000;fill-opacity:1;fill-rule:evenodd;stroke:none;stroke-width:1px;stroke-linecap:butt;stroke-linejoin:miter;stroke-opacity:1"
         id="path12085" />
    </g>
  </g>
</svg>
