<?xml version="1.0" encoding="UTF-8" standalone="no"?>
<svg
   xmlns:dc="http://purl.org/dc/elements/1.1/"
   xmlns:cc="http://creativecommons.org/ns#"
   xmlns:rdf="http://www.w3.org/1999/02/22-rdf-syntax-ns#"
   xmlns:svg="http://www.w3.org/2000/svg"
   xmlns="http://www.w3.org/2000/svg"
   xmlns:sodipodi="http://sodipodi.sourceforge.net/DTD/sodipodi-0.dtd"
   xmlns:inkscape="http://www.inkscape.org/namespaces/inkscape"
   width="591pt"
   height="822pt"
   viewBox="0 0 591 822"
   version="1.1"
   id="svg2"
   inkscape:version="0.48.4 r9939"
   sodipodi:docname="SC Freiburg.svg">
  <metadata
     id="metadata11">
    <rdf:RDF>
      <cc:Work
         rdf:about="">
        <dc:format>image/svg+xml</dc:format>
        <dc:type
           rdf:resource="http://purl.org/dc/dcmitype/StillImage" />
      </cc:Work>
    </rdf:RDF>
  </metadata>
  <defs
     id="defs9" />
  <sodipodi:namedview
     pagecolor="#ffffff"
     bordercolor="#666666"
     borderopacity="1"
     objecttolerance="10"
     gridtolerance="10"
     guidetolerance="10"
     inkscape:pageopacity="0"
     inkscape:pageshadow="2"
     inkscape:window-width="1920"
     inkscape:window-height="1018"
     id="namedview7"
     showgrid="false"
     inkscape:zoom="0.3248218"
     inkscape:cx="35.476731"
     inkscape:cy="657.84788"
     inkscape:window-x="-8"
     inkscape:window-y="-8"
     inkscape:window-maximized="1"
     inkscape:current-layer="svg2" />
  <g
     id="#000000ff"
     style="fill:#ffffff">
    <path
       fill="#000000"
       opacity="1.00"
       d=" M 287.32 4.22 C 314.99 3.06 342.86 7.43 368.80 17.15 C 411.91 33.10 449.09 62.43 478.55 97.34 C 506.90 130.80 528.62 169.53 544.88 210.16 C 577.01 291.34 587.37 380.33 579.37 467.02 C 574.96 513.58 564.88 559.68 548.55 603.53 C 535.18 639.18 517.69 673.42 495.39 704.34 C 474.62 733.16 449.54 759.11 420.18 779.25 C 386.61 802.40 346.87 817.28 305.94 818.92 C 264.03 821.11 221.97 809.35 186.17 787.77 C 153.70 768.43 125.99 741.80 103.15 711.83 C 75.74 675.67 55.08 634.68 40.27 591.87 C 11.56 508.10 4.65 417.49 16.70 329.95 C 27.34 255.93 52.41 183.07 95.63 121.61 C 116.05 92.86 140.54 66.75 169.42 46.37 C 203.76 21.75 244.92 6.02 287.32 4.22 Z"
       id="path5"
       style="fill:#ffffff" />
  </g>
  <g
     id="g3010"
     transform="translate(-0.00484188,0.0218617)"
     style="fill:#1a171b;fill-opacity:1">
    <g
       id="#000000ff-1"
       style="fill:#1a171b;fill-opacity:1">
      <path
         id="path2991"
         d="m 287.4,4.21 c 35.55,-1.58 71.31,6.41 103.1,22.3 44.14,21.93 80.49,57.23 108.48,97.41 22.63,32.56 40.15,68.52 53.24,105.91 16.24,46.76 25.56,95.82 28.63,145.2 5.29,88.16 -8.31,178.24 -44.9,258.96 -16.12,35.22 -36.64,68.6 -62.36,97.64 -27.38,30.92 -60.97,57.01 -99.51,72.42 -38.99,15.8 -82.86,19.44 -123.84,9.82 C 213.85,805.55 180.25,787.19 151.8,763.25 124.1,740.01 100.93,711.68 82.04,680.93 59.61,644.52 43,604.68 31.45,563.55 16.7,511.1 10.29,456.45 11.12,402.01 12.53,318.41 31.28,234.2 71.45,160.48 c 17.06,-31.24 38.2,-60.36 63.56,-85.38 19.46,-18.8 41.27,-35.36 65.48,-47.56 26.9,-13.75 56.69,-22 86.91,-23.33 m -4.3,20.93 c -37.9,2.68 -74.21,17.79 -104.64,40.21 -30.52,22.29 -55.59,51.37 -75.89,83.1 -23.59,37.14 -40.69,78.18 -52.26,120.57 -17.38,63.94 -22.27,131.06 -16.05,196.96 4.3,44.13 13.84,87.81 29.25,129.41 14.42,38.83 34.06,75.88 59.71,108.49 23.91,30.2 53.28,56.76 87.98,73.97 36.54,18.7 79.3,25.33 119.67,17.44 35.82,-6.77 69,-24.34 96.76,-47.69 31.08,-26.09 56.02,-58.92 75.54,-94.36 21.63,-39.47 36.72,-82.36 46.15,-126.32 10.15,-47.23 13.65,-95.8 11.3,-144.02 -2.31,-45.66 -10.14,-91.12 -24.1,-134.69 C 523.12,206.39 504.04,166.19 478.27,130.54 454.27,97.52 424.28,68.17 388.18,48.65 356.31,31.11 319.46,22.38 283.1,25.14 z"
         inkscape:connector-curvature="0"
         style="fill:#1a171b;fill-opacity:1" />
      <path
         id="path2993"
         d="m 294.33,34.35 c 28.2,-0.4 56.4,6.17 81.74,18.49 29.15,14.03 54.66,34.9 75.92,59.14 29.09,33.09 50.8,72.15 66.56,113.16 16.19,42.27 26.01,86.84 30.42,131.85 4.74,49.6 3,99.83 -5.56,148.93 -7.34,41.63 -19.57,82.5 -37.63,120.77 -16.22,34.24 -37.06,66.57 -63.57,93.76 -26.5,27.33 -59.18,49.46 -95.99,60.04 -25.29,7.36 -52.23,9.02 -78.2,4.61 -34.41,-5.7 -66.55,-21.83 -93.44,-43.79 C 143.42,716.02 118.64,683.59 99.38,648.55 80.46,614.13 66.79,576.95 57.47,538.84 44.34,484.71 40.04,428.55 43.73,373.01 c 2.92,-43.14 10.83,-86 24.33,-127.1 11.59,-35.19 27.38,-69.1 47.91,-99.99 14.94,-22.15 32.27,-42.86 52.58,-60.29 23.96,-20.83 52.22,-37.14 83.02,-45.28 13.94,-3.74 28.34,-5.71 42.76,-6 m -60.2,18.55 c -29.58,11.59 -55.86,30.62 -77.81,53.42 -25.94,26.59 -46.27,58.26 -62.15,91.73 -17.97,38.02 -30.09,78.66 -37.32,120.04 -11.01,64.06 -10.53,130.1 1.49,193.98 8.18,42.67 21.64,84.47 41.45,123.2 17.89,34.66 40.73,67.28 70.07,93.22 C 250.83,513.59 331.81,298.68 412.89,83.82 387.75,63.69 357.92,48.94 326.07,43.39 295.32,37.84 263.15,41.47 234.13,52.9 m 93.5,385.68 c -17,10.17 -31.22,24.83 -41.24,41.89 -18.99,32.1 -21.39,73.26 -6.4,107.39 8.75,20.33 23.37,38.06 41.57,50.66 31.8,22.38 74.81,27.37 110.98,13.17 33.48,-12.7 60.45,-41.37 70.86,-75.66 -6,-0.01 -11.99,-0.1 -17.98,0.03 -11.9,32.93 -41.98,58.39 -76.39,64.77 -21.89,4.33 -45.19,1.19 -65.11,-8.86 -17.56,-8.66 -32.45,-22.56 -42.44,-39.38 -17.88,-29.58 -19.04,-68.37 -2.9,-98.95 7.8,-15.07 19.41,-28.14 33.45,-37.66 18.15,-12.43 40.41,-18.71 62.38,-17.59 17.75,0.85 35.25,6.44 50.18,16.09 14.8,9.48 26.91,22.9 35.31,38.31 6.31,-0.1 12.63,0.03 18.95,-0.08 -10.8,-24.81 -30.37,-45.62 -54.39,-58.06 -36.13,-18.99 -82.1,-17.61 -116.83,3.93 m 23.28,36.31 c -7.39,10.87 -8.94,25.71 -3.39,37.69 4.75,9.98 14.28,16.49 23.97,21.12 -0.04,24.24 0.08,48.48 -0.06,72.73 -12.85,-5.06 -21.08,-17.36 -25.01,-30.13 -5.12,1.77 -10.31,3.32 -15.46,4.98 1.69,6.61 4.39,13 8.28,18.63 7.42,11.18 19.31,19 32.27,22.21 -0.04,3.04 -0.02,6.1 0.01,9.15 4.74,0.07 9.48,-0.15 14.22,-0.33 0.01,-2.38 0.02,-4.77 0,-7.14 15.85,0.33 32.18,-6.24 42.02,-18.92 8.71,-10.63 11.63,-24.98 10.2,-38.42 2.44,0.04 4.89,0.05 7.34,0.03 -0.09,-4.99 -0.08,-9.97 -0.01,-14.96 -4.07,-0.05 -8.12,-0.05 -12.18,-0.01 -1.98,-3.45 -4.42,-6.64 -7.35,-9.33 -11.18,-10.29 -26.24,-14.3 -40.05,-19.72 0.07,-3.85 0.06,-7.71 0.01,-11.55 20.41,0.16 40.83,0.05 61.24,0.04 0.08,-4.83 0.03,-9.66 0.07,-14.49 -25.17,0.05 -50.35,0.04 -75.52,0 -0.04,6.42 0,12.85 -0.04,19.28 -2.26,-1.82 -4.66,-3.52 -6.51,-5.78 -5.28,-6.19 -6.31,-15.53 -2.82,-22.84 5.61,-11.89 20.2,-18.57 32.87,-15.02 9.06,2.13 16.54,8.87 20.51,17.17 4.65,-2.36 9.29,-4.75 13.91,-7.17 -5.46,-10.66 -15.14,-18.95 -26.38,-23.01 -18.24,-6.92 -41.06,-0.5 -52.14,15.79 z"
         inkscape:connector-curvature="0"
         style="fill:#1a171b;fill-opacity:1" />
      <path
         id="path2995"
         d="m 171.8,142.76 c 28.48,1.79 57.3,1.33 85.42,-3.97 17.74,-2.86 37.62,0.3 51.11,12.95 12.15,12.07 20.13,28.92 19.44,46.26 0.29,10.64 -4.67,20.29 -7.55,30.26 -2.12,7.37 -1.97,15.14 -1.98,22.74 0.29,6.34 0.83,13.17 -2.22,18.99 -0.63,1.41 -2.26,1.57 -3.54,2.05 -2.84,-2.33 -4.95,-5.55 -8.41,-7.06 -2.55,2.56 -4.92,5.43 -5.98,8.94 -2.1,6.46 -3.96,13.23 -3.21,20.09 0.58,8.47 3.38,17.01 1.44,25.48 -0.39,2.11 -1.79,4.65 -4.35,4 -5.28,-2.41 -4.85,-10 -10.08,-12.49 -3.48,0.72 -4.88,4.56 -6.22,7.43 -1.92,6.68 -1.7,13.74 -2.09,20.62 -0.71,10.15 3.08,20.2 1.12,30.31 -3.72,0.49 -7.42,-3.66 -10.85,-1.29 -6.12,9.48 -8.73,20.64 -11.43,31.46 -6.68,24.15 -8.91,49.3 -9.98,74.25 -1.81,1.38 -4.35,2.99 -6.54,1.37 -7.97,-5.67 -10.38,-15.95 -11.17,-25.16 -1.12,-14.65 0.76,-29.31 0.74,-43.96 -0.43,-4.63 0.16,-9.7 -2.5,-13.78 -3.83,0.49 -5.96,4.06 -7.78,7.05 -5.42,9.97 -9.44,20.61 -13.7,31.1 -9.24,23.04 -17.95,46.3 -26.32,69.67 -1.09,3.21 -1.68,6.99 -5,8.74 -6.19,-1.92 -6.3,-9.19 -6.9,-14.48 -3.63,-28.71 6.25,-56.6 14.53,-83.61 1.37,-5.23 4.28,-10.65 2.39,-16.11 -1.44,-0.83 -3.21,-0.27 -4.79,-0.36 -25.19,22.1 -45.2,49.16 -66.75,74.62 -2.47,1.8 -5.69,-1.33 -5.99,-3.89 -1.01,-6.92 1.87,-13.51 4.11,-19.9 9.63,-24.83 25.33,-46.72 41.99,-67.28 4.17,-4.96 8.27,-9.99 11.93,-15.35 1.55,-2.15 1.75,-5.07 0.38,-7.37 -2.84,-2.06 -6.74,-1.87 -9.92,-0.71 -17.07,6.44 -32.93,15.59 -49.47,23.23 -0.85,-1.43 -2.21,-2.91 -1.51,-4.72 1.62,-9.31 8.4,-16.45 14.3,-23.39 15.73,-14.88 35.43,-24.35 54.09,-34.92 0.21,0.25 0.62,0.73 0.83,0.98 -0.1,-0.28 -0.29,-0.85 -0.39,-1.13 9.74,-5.73 20.21,-10.06 30.21,-15.28 14.04,-7.01 27.7,-14.76 40.99,-23.09 4.3,-2.39 7.22,-7.15 7.59,-12.02 0.38,-4.03 -3.34,-7.04 -6.91,-7.91 -5.54,-1.25 -11.26,-0.64 -16.89,-1.07 -17.8,0.22 -37.12,0.54 -52.7,-9.44 -3.78,-2.02 -5.29,-6.44 -4.8,-10.51 24.13,1.08 48.28,0 72.39,-0.87 3.55,-0.09 7.48,-0.73 10.1,-3.33 0.08,-3.56 -4.27,-4.62 -6.68,-6.29 -14.42,-5.75 -29.98,-7.68 -45.2,-10.17 -1.59,0.14 -1.93,-2.17 -0.79,-2.93 3.01,-3.14 7.73,-2.35 11.64,-2.9 10.43,-1.68 20.56,3.23 30.98,2.25 4.46,-1.48 4.33,-7.32 1.64,-10.36 -10.55,-7.74 -24.03,-9.05 -36.61,-10.67 -10.02,-0.03 -19.93,2.17 -29.97,1.92 -8.48,-0.17 -17.2,-1.52 -25.5,0.8 -6.01,2.71 -8.32,11.17 -5.06,16.75 -0.88,0.98 -1.97,1.72 -3.36,1.48 -5.57,0.13 -11.68,-1.43 -15.51,-5.69 -4.05,-9.52 -3.54,-20.36 -1.74,-30.34 1.63,-6.35 9.12,-6.7 14.11,-8.96 2.68,-0.81 3.91,-3.4 5.64,-5.34 4.27,-3.45 10.93,-0.84 14.93,-4.86 4.38,-4.66 8.43,-9.93 14.3,-12.83 m 70.36,19.41 c -4.59,1.47 -8.86,5.6 -8.26,10.78 0.2,5.6 6.52,7.72 11.12,8.51 4.21,-0.44 8.88,-0.33 12.54,-2.74 6.39,-4.03 3.35,-15.15 -3.67,-16.52 -3.84,-0.78 -7.95,-1.45 -11.73,-0.03 m -91.52,4.45 c -0.07,0.52 -0.2,1.58 -0.27,2.11 2.31,1.83 5.03,3.5 8.08,2.46 -0.21,-2.18 -0.95,-4.53 -2.98,-5.67 -1.61,-1.39 -3.31,0.52 -4.83,1.1 m -19.46,12.43 c -1.09,5.99 -0.14,12.11 0.85,18.06 0.28,1.26 0.5,3.75 2.33,2.39 2.18,-5.07 4.55,-10.84 9.84,-13.38 7.76,-3.7 16.62,-2.38 24.88,-3.75 -1.2,-1.52 -2.4,-3.05 -3.58,-4.58 -1.7,0.3 -3.18,1.18 -4.56,2.19 -6.67,0.94 -13.55,-2 -17.05,-7.83 -4.53,1.42 -10.39,2.14 -12.71,6.9 m 164.98,23.78 c 0.14,7.75 1.82,15.47 0.75,23.22 -0.5,2.67 0.08,5.34 1.01,7.85 8.73,-7.28 8.13,-19.89 7.52,-30.16 -2.53,-2.48 -6.27,-2.45 -9.28,-0.91 m -19.92,38.9 c 4.37,9.61 4.27,20.41 7.14,30.44 1.77,-2.77 3.07,-5.85 3.4,-9.15 0.68,-8.18 0.29,-16.62 -2.77,-24.33 -2.91,-0.19 -6.04,0.47 -7.77,3.04 m -19.99,33.05 c 4.27,9.95 5.21,20.96 9.61,30.85 0.97,-3.19 2.36,-6.3 2.55,-9.67 0.38,-7.62 0.38,-15.84 -3.81,-22.53 -2.65,-1.8 -6.11,-0.55 -8.35,1.35 m -85.13,49.43 c -13.31,7.15 -26.35,15.26 -37.11,25.98 25.94,-12.16 52.44,-23.1 79.44,-32.69 0.76,-3.56 0.16,-7.24 -1.8,-10.32 -14.1,4.11 -27.48,10.35 -40.53,17.03 m 69.35,8.94 c -4.27,17.62 -6.79,35.73 -6.41,53.88 0.39,14.28 1.68,28.54 3.56,42.7 0.57,-7.49 1.2,-14.99 2.07,-22.45 2.85,-24.2 5.76,-48.47 11.16,-72.26 -3.23,-1.56 -6.81,-2.33 -10.38,-1.87 m -41.19,0.91 c -7.55,4.99 -13.56,11.92 -19.66,18.52 -14.67,16.69 -27.72,34.79 -39.13,53.85 -4.92,8.46 -9.74,17.06 -13.23,26.23 27.11,-31.22 52.86,-63.63 80.95,-93.99 -1.63,-3.16 -5.26,-5.98 -8.93,-4.61 m 15.98,8.43 c -12.63,20.63 -21.68,43.28 -28.27,66.51 -5.29,19.23 -9.33,38.88 -10.95,58.77 3.35,-9.61 6.49,-19.29 10.07,-28.81 11.23,-31.36 24.92,-61.74 38.33,-92.2 -2.33,-2.63 -5.48,-4.83 -9.18,-4.27 z"
         inkscape:connector-curvature="0"
         style="fill:#1a171b;fill-opacity:1" />
      <path
         id="path2997"
         d="m 240.86,166.95 c 4.22,-0.42 9.45,-0.93 12.53,2.62 1.37,1.12 2.25,2.65 2.9,4.27 -3.41,0.81 -7,3.04 -10.53,1.58 -2.89,-1.78 -5.89,-4.75 -4.9,-8.47 z"
         inkscape:connector-curvature="0"
         style="fill:#1a171b;fill-opacity:1" />
      <path
         id="path2999"
         d="m 385.75,539.66 c 8.98,3.33 18.45,6 26.25,11.79 -8.72,0.13 -17.44,-0.05 -26.15,0.1 -0.19,-3.96 -0.11,-7.93 -0.1,-11.89 z"
         inkscape:connector-curvature="0"
         style="fill:#1a171b;fill-opacity:1" />
      <path
         id="path3001"
         d="m 385.8,566.46 c 11.99,0.09 23.98,0.04 35.97,0.02 1.84,10.4 -0.86,21.55 -7.73,29.64 -6.87,8.36 -17.59,12.95 -28.33,13.02 0.14,-14.23 -0.04,-28.46 0.09,-42.68 z"
         inkscape:connector-curvature="0"
         style="fill:#1a171b;fill-opacity:1" />
    </g>
    <g
       id="#ffffffff"
       style="fill:#1a171b;fill-opacity:1" />
  </g>
</svg>
