<?xml version="1.0" encoding="iso-8859-1"?>
<!DOCTYPE svg PUBLIC "-//W3C//DTD SVG 1.0//EN" "http://www.w3.org/TR/2001/REC-SVG-20010904/DTD/svg10.dtd">
<!-- Creator: CorelDRAW -->
<svg xmlns="http://www.w3.org/2000/svg" xmlns:odm="http://product.corel.com/CGS/11/cddns/" xml:space="preserve" width="195mm" height="130mm" style="shape-rendering:geometricPrecision; text-rendering:geometricPrecision; image-rendering:optimizeQuality; fill-rule:evenodd"
     viewBox="0 0 195000 130000">
 <defs>
  <style type="text/css">
   <![CDATA[
    .fil1 {fill:#1F1A17}
    .fil0 {fill:#0065A5}
    .fil2 {fill:#FFFFFF}
   ]]>
  </style>
 </defs>
 <g id="Ebene 1">
 </g>
 <g id="HQFL">
  <path class="fil0" d="M32634 80004c6726,28348 32188,49445 62594,49445 30406,0 55869,-21097 62594,-49445l-125188 0z"/>
  <path class="fil0" d="M95228 751c-28053,0 -51899,17958 -60706,43000l5910 0c8547,-21921 29850,-37461 54796,-37461 32480,0 58810,26330 58810,58810 0,675 -29,1344 -51,2014l5539 0c20,-670 50,-1339 50,-2014 0,-35539 -28810,-64349 -64348,-64349z"/>
  <path class="fil1" d="M82362 35634l0 -4506c543,471 1075,823 1599,1057 523,235 1051,353 1584,353 731,0 1306,-193 1726,-580 419,-387 629,-913 629,-1577 0,-823 -562,-1716 -1686,-2679 -314,-268 -549,-475 -704,-625 -1337,-1191 -2255,-2260 -2753,-3208 -499,-948 -748,-2023 -748,-3224 0,-1876 527,-3393 1581,-4549 1053,-1157 2431,-1735 4133,-1735 604,0 1200,87 1789,260 588,173 1210,442 1863,807l0 3817c-757,-363 -1345,-613 -1763,-750 -418,-137 -789,-206 -1113,-206 -620,0 -1126,196 -1519,589 -393,392 -590,907 -590,1543 0,556 146,1076 439,1558 292,482 977,1195 2052,2139 1463,1254 2404,2296 2822,3127 419,830 628,1832 628,3006 0,1979 -558,3544 -1672,4693 -1114,1148 -2632,1723 -4553,1723 -733,0 -1409,-86 -2028,-255 -620,-169 -1192,-428 -1716,-778z"/>
  <path class="fil1" d="M106728 36162c-417,169 -837,294 -1259,379 -421,83 -846,126 -1272,126 -2770,0 -5020,-1008 -6753,-3025 -1732,-2016 -2598,-4659 -2598,-7927 0,-3397 845,-6139 2538,-8225 1693,-2086 3905,-3129 6635,-3129 506,0 982,43 1429,127 447,84 873,215 1280,392l0 4063c-417,-173 -821,-300 -1213,-381 -391,-82 -777,-122 -1153,-122 -1450,0 -2626,642 -3529,1927 -904,1286 -1355,2989 -1355,5111 0,2042 464,3696 1393,4961 928,1265 2120,1897 3581,1897 366,0 741,-42 1123,-129 382,-86 767,-210 1153,-374l0 4329z"/>
  <path class="fil1" d="M7938 49139c79,-10 167,-18 261,-22 95,-5 231,-8 410,-8 806,0 1407,179 1805,536 398,358 597,900 597,1626 0,1054 -294,1856 -880,2408 -587,551 -1442,827 -2565,827 -51,0 -135,-5 -254,-15 -120,-9 -209,-15 -269,-15l895 -5337zm-2879 17975l1343 -8459 343 0 671 0c2664,0 4710,-661 6137,-1984 1427,-1323 2141,-3208 2141,-5654 0,-1989 -488,-3429 -1462,-4319 -975,-890 -2566,-1336 -4773,-1336l-5309 0 -3461 21752 4370 0z"/>
  <path class="fil1" d="M23651 51477c229,-733 418,-1368 568,-1904 149,-536 284,-1022 403,-1459 -10,179 -18,365 -23,558 -4,194 -7,479 -7,855 0,269 3,572 7,908 5,337 13,694 23,1071l178 8257 -3823 0 2674 -8286zm-4989 15637l1195 -3726 5047 0 90 3726 4382 0 -1352 -21752 -6121 0 -7683 21752 4442 0z"/>
  <path class="fil1" d="M37559 49340l284 0c1305,0 2249,346 2832,1038 583,692 874,1824 874,3397 0,2846 -523,5123 -1569,6830 -1046,1707 -2431,2561 -4154,2561 -60,0 -140,-5 -239,-15 -100,-9 -175,-15 -224,-15l2196 -13796zm-3631 17774c2435,0 4200,-191 5298,-573 1098,-383 2088,-1026 2973,-1930 1112,-1132 2004,-2686 2674,-4663 671,-1976 1007,-4072 1007,-6287 0,-2831 -690,-4921 -2070,-6272 -1379,-1351 -3513,-2027 -6400,-2027l-3586 0 -3452 21752 3556 0z"/>
  <path class="fil1" d="M46548 67114l3435 -21752 9355 0 -615 3978 -5084 0 -728 4532 4463 0 -630 4179 -4472 0 -788 4884 5084 0 -668 4179 -9352 0z"/>
  <path class="fil1" d="M65853 48946c239,-20 421,-35 545,-44 124,-10 226,-15 306,-15 846,0 1481,190 1904,571 423,381 635,951 635,1712 0,1068 -310,1886 -926,2454 -617,568 -1513,852 -2687,852 -190,0 -334,-3 -434,-7 -99,-5 -188,-13 -268,-23l925 -5500zm-2911 18168l1583 -9819 2567 9819 4497 0 -2959 -10161c1565,-40 2789,-609 3671,-1706 881,-1098 1322,-2605 1322,-4522 0,-1856 -506,-3215 -1518,-4074 -1011,-859 -2608,-1289 -4788,-1289l-5286 0 -3463 21752 4374 0z"/>
  <path class="fil1" d="M81930 49139c68,-10 147,-18 235,-22 88,-5 211,-8 369,-8 853,0 1474,168 1862,505 388,337 582,876 582,1619 0,1030 -281,1824 -843,2384 -561,559 -1360,838 -2394,838 -178,0 -313,-2 -407,-7 -94,-4 -180,-12 -258,-22l854 -5287zm-1378 8559c89,-19 184,-32 284,-37 100,-4 250,-7 450,-7 908,0 1573,171 1998,513 424,343 637,871 637,1586 0,1092 -302,1946 -907,2561 -604,615 -1444,923 -2522,923 -161,0 -405,-20 -734,-60 -21,0 -40,0 -60,0l854 -5479zm-1992 9416l374 0c1939,0 3355,-99 4250,-298 895,-198 1695,-526 2401,-983 925,-595 1650,-1414 2177,-2458 527,-1042 791,-2174 791,-3396 0,-1112 -281,-2005 -841,-2680 -561,-675 -1357,-1073 -2389,-1192 1452,-408 2521,-1095 3207,-2064 686,-968 1030,-2267 1030,-3897 0,-1699 -482,-2921 -1445,-3666 -964,-745 -2596,-1118 -4898,-1118l-5032 0 -3428 21752 3803 0z"/>
  <path class="fil1" d="M95689 62389c-427,-532 -641,-1315 -641,-2348 0,-1054 132,-2343 395,-3870 263,-1526 597,-2875 1004,-4048 318,-935 733,-1641 1249,-2117 517,-477 1127,-716 1832,-716 812,0 1427,269 1844,805 417,537 625,1327 625,2371 0,1084 -134,2393 -401,3929 -268,1535 -601,2871 -998,4003 -348,965 -763,1671 -1249,2117 -486,448 -1076,671 -1771,671 -834,0 -1463,-265 -1889,-797zm-3350 2958c1114,1346 2725,2019 4833,2019 1573,0 2958,-377 4156,-1132 1198,-756 2165,-1863 2902,-3324 665,-1310 1191,-2840 1573,-4589 382,-1748 575,-3511 575,-5290 0,-2641 -561,-4630 -1679,-5966 -1119,-1336 -2782,-2005 -4990,-2005 -1372,0 -2611,311 -3715,932 -1105,620 -1993,1501 -2670,2644 -796,1361 -1438,3033 -1925,5015 -487,1981 -731,3931 -731,5847 0,2553 557,4503 1671,5849z"/>
  <path class="fil1" d="M114220 48946c239,-20 420,-35 544,-44 124,-10 227,-15 307,-15 846,0 1481,190 1904,571 423,381 634,951 634,1712 0,1068 -308,1886 -925,2454 -617,568 -1514,852 -2688,852 -189,0 -333,-3 -433,-7 -99,-5 -188,-13 -268,-23l925 -5500zm-2911 18168l1583 -9819 2568 9819 4495 0 -2958 -10161c1566,-40 2788,-609 3671,-1706 881,-1098 1321,-2605 1321,-4522 0,-1856 -505,-3215 -1516,-4074 -1012,-859 -2609,-1289 -4790,-1289l-5285 0 -3464 21752 4375 0z"/>
  <path class="fil1" d="M123022 67114l3460 -21752 5059 0 1834 9267c30,139 74,353 134,641 437,2235 702,4281 791,6138 -11,-149 -19,-308 -23,-477 -5,-168 -7,-427 -7,-775 0,-824 32,-1681 97,-2569 64,-889 171,-1885 321,-2987l1357 -9238 4298 0 -3447 21752 -4430 0 -2239 -10429c-249,-1221 -430,-2241 -545,-3061 -115,-820 -196,-1632 -245,-2437 -71,875 -153,1719 -247,2534 -95,814 -197,1579 -306,2294l-1521 11099 -4341 0z"/>
  <path class="fil2" d="M83256 94704c265,-1019 727,-1530 1386,-1530 639,0 1089,501 1350,1501 260,1000 391,2923 391,5770 0,2796 -131,4693 -391,5688 -261,995 -711,1492 -1350,1492 -659,0 -1121,-505 -1386,-1515 -266,-1010 -398,-2898 -398,-5665 0,-2806 132,-4720 398,-5741zm5787 -2596c-1011,-1907 -2475,-2861 -4390,-2861 -1926,0 -3394,954 -4406,2861 -1012,1907 -1518,4679 -1518,8314 0,3606 509,6363 1526,8270 1016,1907 2483,2860 4398,2860 1905,0 3366,-953 4384,-2860 1016,-1907 1525,-4664 1525,-8270 0,-3635 -507,-6407 -1519,-8314z"/>
  <path class="fil2" d="M93317 111301l6855 -18177 -6552 0 0 -3575 11883 0 -7893 21752 -4293 0z"/>
  <path class="fil1" d="M194111 68725l-163089 0c182,3295 611,6523 1272,9668l160542 0c661,-3145 1091,-6373 1275,-9668z"/>
  <path class="fil2" d="M108141 106943c0,-527 96,-928 287,-1205 192,-275 469,-414 830,-414 367,0 643,132 825,395 184,264 283,669 299,1216l-2241 8zm4079 1201l0 -365c0,-1357 -255,-2382 -766,-3076 -510,-694 -1265,-1040 -2266,-1040 -943,0 -1694,352 -2250,1058 -557,705 -836,1665 -836,2880 0,1200 279,2152 836,2858 556,705 1307,1058 2250,1058 754,0 1388,-213 1907,-640 518,-428 859,-1020 1024,-1776l-1798 0c-104,296 -240,517 -408,662 -168,146 -371,218 -609,218 -371,0 -659,-152 -861,-459 -201,-306 -302,-745 -302,-1316l0 -62 4079 0z"/>
  <path class="fil2" d="M115269 110087c0,393 -130,721 -390,985 -259,263 -584,395 -969,395 -381,0 -704,-132 -966,-395 -263,-264 -394,-592 -394,-985 0,-387 131,-711 394,-972 262,-262 585,-393 966,-393 381,0 702,131 965,393 262,261 394,585 394,972z"/>
  <path class="fil2" d="M119153 111366l-3212 -11278 2277 0 1328 5105c129,501 237,1034 327,1601 91,566 162,1161 213,1784 36,-578 97,-1145 182,-1704 85,-559 190,-1103 320,-1633l1296 -5153 2340 0 -3188 11278 -1883 0z"/>
  <path class="fil2" d="M125741 110087c0,393 -131,721 -391,985 -261,263 -583,395 -969,395 -382,0 -704,-132 -966,-395 -263,-264 -393,-592 -393,-985 0,-387 130,-711 393,-972 262,-262 584,-393 966,-393 381,0 702,131 965,393 262,261 395,585 395,972z"/>
 </g>
</svg>
