<?xml version="1.0" encoding="UTF-8" standalone="no"?>
<!-- Created with Inkscape (http://www.inkscape.org/) -->
<svg
   xmlns:dc="http://purl.org/dc/elements/1.1/"
   xmlns:cc="http://web.resource.org/cc/"
   xmlns:rdf="http://www.w3.org/1999/02/22-rdf-syntax-ns#"
   xmlns:svg="http://www.w3.org/2000/svg"
   xmlns="http://www.w3.org/2000/svg"
   xmlns:sodipodi="http://sodipodi.sourceforge.net/DTD/sodipodi-0.dtd"
   xmlns:inkscape="http://www.inkscape.org/namespaces/inkscape"
   width="89.9375"
   height="65"
   id="svg4669"
   sodipodi:version="0.32"
   inkscape:version="0.45.1"
   version="1.0"
   sodipodi:docbase="C:\Dokumente und Einstellungen\Thomas\Desktop"
   sodipodi:docname="SC Preussen Muenster Logo.svg"
   inkscape:output_extension="org.inkscape.output.svg.inkscape">
  <defs
     id="defs4671" />
  <sodipodi:namedview
     id="base"
     pagecolor="#ffffff"
     bordercolor="#666666"
     borderopacity="1.0"
     inkscape:pageopacity="0.0"
     inkscape:pageshadow="2"
     inkscape:zoom="3.442118"
     inkscape:cx="77.326908"
     inkscape:cy="123.23094"
     inkscape:document-units="px"
     inkscape:current-layer="layer1"
     inkscape:window-width="1600"
     inkscape:window-height="1153"
     inkscape:window-x="-4"
     inkscape:window-y="-4" />
  <metadata
     id="metadata4674">
    <rdf:RDF>
      <cc:Work
         rdf:about="">
        <dc:format>image/svg+xml</dc:format>
        <dc:type
           rdf:resource="http://purl.org/dc/dcmitype/StillImage" />
      </cc:Work>
    </rdf:RDF>
  </metadata>
  <g
     inkscape:label="Ebene 1"
     inkscape:groupmode="layer"
     id="layer1"
     transform="translate(-0.21875,-0.3125)">
    <path
       style="fill:#040404;fill-rule:nonzero;stroke:#040404;stroke-width:0.06;stroke-linecap:round;stroke-linejoin:round;stroke-miterlimit:10"
       clip-path="none"
       d="M 42.40625,0.375 C 42.28625,0.375 41.990001,0.4375 41.75,0.4375 C 41.03,0.4375 40.126251,1.1575 39.40625,1.9375 C 39.22625,2.1175 39.114998,2.0625 38.875,2.0625 C 38.395,2.0625 37.374998,2.1250001 37.375,2.125 C 35.935,2.245 34.718751,3.0862499 34.71875,4.40625 C 34.71875,4.82625 34.851248,5.11125 35.03125,5.53125 C 35.87125,4.87125 36.451252,4.2812498 37.53125,4.28125 C 37.95125,4.28125 38.385,4.5275002 38.625,5.1875 C 38.625,5.2475 38.687499,5.3462499 38.6875,5.40625 C 38.6875,5.52625 38.619999,5.7187502 38.5,5.71875 C 38.26,5.77875 37.96125,5.7837498 37.78125,5.84375 C 37.24125,6.02375 36.886251,6.1875002 36.40625,6.1875 C 36.34625,6.1875 35.862501,6.1250001 35.5625,6.125 C 35.6825,6.425 36.510001,6.8437499 36.75,6.84375 C 36.75,6.84375 37.366251,6.9637499 37.90625,6.84375 C 38.02625,6.78375 38.02875,6.84875 37.96875,6.96875 C 37.54875,7.38875 37.2975,7.5 36.9375,7.5 C 36.8775,7.5 36.107499,7.3412498 35.6875,7.28125 C 35.7475,8.18125 37.556249,8.6562501 38.15625,8.65625 C 39.05625,8.65625 39.751252,7.8749999 40.53125,7.875 C 41.19125,7.875 41.312499,8.3662504 41.3125,8.90625 C 41.3125,9.80625 40.6125,11.12625 40.3125,11.90625 C 40.1325,12.50625 39.896249,13.085 39.65625,13.625 L 42.65625,12.3125 L 45.21875,15.5625 L 47.5625,12.1875 L 51.09375,13.5625 C 50.85375,13.0225 49.96875,11.5325 49.96875,10.8125 C 49.96875,10.4525 50.195002,9.6725003 50.375,9.3125 C 50.615,9.4325 50.98125,9.5650001 51.28125,9.625 C 51.52125,9.625 51.596249,9.4975004 51.65625,9.4375 C 50.81625,8.5375 50.310001,7.5875002 50.25,6.6875 C 50.19,6.2675 50.158748,6.1987502 50.21875,5.71875 C 50.21875,5.59875 50.312499,5.3700002 50.3125,5.25 C 50.7325,4.23 51.7725,3.6674999 52.3125,3.1875 C 52.3125,3.1875 50.922501,3.2474999 50.5625,3.1875 C 50.0225,3.1275 49.542501,3.0262499 49.0625,2.90625 C 48.6425,2.72625 48.2325,2.55 47.8125,2.25 C 46.5525,1.29 45.296249,0.68249999 44.15625,0.5625 C 43.79625,0.5025 43.487499,0.4375 43.1875,0.4375 C 42.7075,0.3775 42.466251,0.375 42.40625,0.375 z M 63.03125,2.1875 C 62.615,2.1875 62.20375,2.22 61.84375,2.25 C 60.76375,2.31 58.843749,2.4737501 58.84375,4.09375 C 58.84375,6.67375 61.250001,5.4874997 61.25,8.1875 C 61.25,9.1475 60.15375,12.97625 60.09375,13.15625 C 59.97375,13.57625 59.7375,14.23625 59.4375,14.65625 C 59.0175,15.43625 58.316249,16.405 57.65625,17.125 C 57.17625,17.665 55.470001,19.09375 54.75,19.09375 C 52.35,19.09375 50.218748,15.73 50.21875,13.75 C 49.37875,13.45 48.590001,13.14375 47.75,12.84375 L 45.21875,16.40625 L 42.40625,12.96875 C 41.80625,13.26875 41.19375,13.5125 40.59375,13.8125 C 39.99375,15.8525 38.3925,19.28125 35.8125,19.28125 C 33.7125,19.28125 31.950001,16.63875 30.75,14.71875 C 30.45,14.23875 30.276251,13.76125 30.15625,13.28125 C 29.79625,12.08125 29.6175,10.762499 29.4375,9.5625 C 29.3775,9.2625 29.312499,8.7787497 29.3125,8.71875 C 29.3125,6.73875 31.71875,6.2662499 31.71875,4.40625 C 31.71875,3.08625 30.056249,2.7737501 29.15625,2.59375 C 28.91625,2.53375 28.435,2.46875 28.375,2.46875 C 28.375,2.46875 26.815,2.28875 25.375,2.46875 C 25.315,2.46875 24.516251,2.5962499 24.15625,2.65625 C 21.99625,2.95625 19.5975,3.4262499 17.4375,3.90625 C 15.4575,4.38625 13.355,4.7574999 11.375,4.9375 L 10.4375,5 C 10.3775,5 8.15375,4.7500002 8.09375,4.75 C 7.73375,4.75 7.4199999,4.76 7,5 C 7,5 6.8199999,5.4825 7,6.5625 C 7.12,7.2225 7.55375,7.9862499 8.09375,8.40625 C 9.35375,9.30625 10.71125,9.5 12.03125,9.5 L 16.71875,9.125 C 17.25875,9.125 17.91125,9.1887504 18.03125,9.96875 C 17.85125,10.08875 17.6175,10.22125 17.4375,10.28125 C 13.7775,11.60125 9.03375,12.43375 4.59375,13.09375 C 3.33375,13.27375 1,12.90625 1,12.90625 C 2.74,16.80625 3.9925002,18.062501 6.8125,18.0625 C 9.6925,18.0625 14.696249,16.2225 17.15625,15.5625 C 17.27625,15.9225 17.442499,16.265 17.5625,16.625 C 12.2225,18.665 6.7775,22.04875 1.4375,22.46875 L 0.28125,22.5 C 2.2612501,25.14 3.7149998,26.34375 5.875,26.34375 C 9.115,26.34375 18.030001,21.125 18.75,21.125 C 19.17,21.125 19.129999,21.666251 19.25,21.90625 C 18.83,22.26625 18.388749,22.702499 17.96875,23.0625 C 16.64875,24.2025 15.35375,25.388749 14.09375,26.46875 C 12.53375,27.78875 10.96875,29.112499 9.46875,30.3125 C 8.74875,30.8525 7.9700002,31.460001 7.25,32 C 6.47,32.54 5.7487499,33.205 4.96875,33.625 C 4.48875,33.865 3.8862501,33.846251 3.40625,33.90625 C 3.70625,34.44625 4.37375,35.178752 5.09375,35.71875 C 5.75375,36.25875 6.5300002,36.663748 7.25,36.84375 C 7.37,36.84375 7.79375,36.968749 8.09375,36.96875 C 9.23375,36.84875 10.4225,36.378752 11.5625,35.71875 C 12.2825,35.35875 12.99625,34.883749 13.65625,34.34375 C 14.73625,33.56375 15.823751,32.462501 16.84375,31.5625 C 18.40375,30.2425 20.09875,28.38 21.71875,27 C 22.01875,27.66 22.553751,28.3375 23.09375,28.9375 C 20.63375,31.4575 18.17875,33.678752 15.71875,35.71875 C 13.61875,37.51875 11.44375,39.132499 9.34375,40.8125 C 8.38375,41.5325 7.4312499,42.183748 6.53125,42.84375 C 7.49125,44.22375 10.47625,45.062501 12.15625,45.0625 C 16.77625,45.0625 22.005,38.778752 25.125,35.71875 C 26.085,34.75875 26.863751,34.09375 27.34375,34.09375 C 27.88375,34.09375 28.05375,34.332499 28.59375,34.8125 C 28.35375,35.1125 28.112499,35.418752 27.8125,35.71875 C 27.8125,35.77875 27.750001,35.843749 27.75,35.84375 C 25.71,38.42375 20.457501,43.801246 16.4375,47.28125 C 15.1175,48.42125 13.78875,49.636248 12.46875,50.65625 C 12.16875,50.89625 11.8625,51.197499 11.5625,51.4375 C 13.0025,52.6975 14.495,53.603752 15.875,53.84375 C 16.235,53.90375 17.14125,54.120001 18.28125,54 C 19.30125,53.88 20.015,53.52625 20.375,53.40625 C 21.755,52.86625 24.35125,50.896248 26.03125,49.15625 C 27.71125,47.35625 29.372499,45.26875 30.8125,43.46875 C 31.9525,42.02875 33.038751,40.267498 34.71875,39.1875 C 34.89875,39.0675 35.319999,38.843749 35.5,38.84375 C 36.04,38.84375 36.031252,39.666251 36.03125,39.90625 C 36.03125,43.50625 29.569999,50.583751 26.75,51.84375 L 33.8125,51.84375 L 35.5625,55.875 C 36.2225,54.735 36.770001,53.54625 37.25,52.40625 C 38.21,50.18625 39.0975,47.850004 41.4375,45.75 C 41.4975,45.87 41.502501,46.036249 41.5625,46.15625 C 41.6825,47.716253 41.682501,48.562501 41.5625,50.0625 C 40.9625,54.5625 39.088749,60.569996 35.96875,65.25 C 38.60875,64.05 42.046251,61.687501 43.90625,58.6875 C 44.74625,57.4275 45.223749,56.07 45.34375,54.75 C 45.34375,54.63 45.46875,53.781249 45.46875,53.78125 C 45.46875,53.66125 45.538748,53.528749 45.71875,53.46875 C 45.77875,53.46875 45.875002,53.53375 45.875,53.59375 C 45.995,54.01375 46.067499,54.423751 46.1875,54.84375 C 46.3675,55.74375 46.798748,56.787502 47.21875,57.6875 C 47.87875,58.8875 48.638751,60.138751 49.71875,61.21875 C 50.37875,61.87875 51.150001,62.520001 51.75,63 C 53.01,63.9 54.33375,64.460002 55.59375,65 C 54.69375,63.5 53.998748,61.877499 53.21875,60.4375 C 52.73875,59.5375 52.295002,58.65 51.875,57.75 C 51.635,57.27 51.398751,56.73 51.21875,56.25 C 50.85875,54.93 50.490001,53.538751 50.25,52.21875 C 50.07,51.61875 49.588749,49.223752 49.46875,47.84375 C 49.46875,47.84375 49.377501,47.06625 49.4375,46.40625 C 49.4975,45.986247 49.596249,45.810001 49.65625,45.75 C 51.27625,47.850003 52.196249,50.178751 53.15625,52.21875 C 53.63625,53.35875 54.215002,54.61 54.875,55.75 L 56.5625,51.5 L 63.65625,51.4375 C 59.39625,48.1975 54.593751,43.6375 54.59375,39.4375 C 54.59375,39.0175 54.5925,38.343748 55.3125,38.34375 C 55.3725,38.34375 55.53375,38.346251 55.59375,38.40625 C 57.15375,39.90625 58.239999,41.53375 59.5,43.09375 C 63.1,47.473753 68.192499,53.59375 72.8125,53.59375 C 74.5525,53.59375 77.372499,52.800001 78.8125,51 C 73.4125,46.26 67.487499,41.358752 62.6875,35.71875 C 62.3875,35.35875 62.08125,34.982501 61.78125,34.5625 C 62.20125,34.1425 62.738751,33.625 63.21875,33.625 C 63.81875,33.625 65.139999,35.108749 65.5,35.46875 C 65.56,35.58875 65.627499,35.658752 65.6875,35.71875 C 68.3275,38.41875 71.338752,41.84125 74.21875,43.28125 C 74.99875,43.70125 75.751248,44.10125 76.53125,44.28125 C 76.77125,44.34125 77.736253,44.596249 78.15625,44.65625 C 78.87625,44.71625 79.437501,44.656249 79.4375,44.65625 C 80.5775,44.65625 83.49375,43.687498 84.09375,42.1875 C 81.87375,41.0475 78.237501,38.418752 74.9375,35.71875 C 73.7975,34.81875 72.707499,33.839998 71.6875,33 C 71.2075,32.58 67.531248,29.405 67.53125,28.625 C 67.53125,28.085 68.454998,27.20125 68.875,26.78125 C 69.295,27.14125 69.765004,27.42125 70.125,27.78125 C 70.605,28.20125 71.017496,28.702499 71.4375,29.0625 C 72.8175,30.3225 76.108753,34.038752 79.46875,35.71875 C 80.48875,36.25875 81.511248,36.562501 82.53125,36.5625 C 83.19125,36.5625 84.227499,36.258752 85.1875,35.71875 C 86.0275,35.23875 86.798748,34.590001 87.21875,33.75 C 85.83875,33.27 84.509997,32.402501 83.25,31.5625 C 80.61,29.8225 77.738748,27.13375 75.21875,25.09375 C 74.85875,24.85375 74.516249,24.490001 74.15625,24.25 C 73.25625,23.65 72.217496,22.936249 71.4375,22.15625 C 71.2575,21.97625 71.093747,21.867501 71.09375,21.6875 C 71.09375,21.5675 71.156249,21.435 71.15625,21.375 C 71.21625,21.255 71.630001,20.78125 71.75,20.78125 C 71.81,20.78125 72.358752,21.0075 72.71875,21.1875 C 75.59875,22.6875 81.176249,25.9375 84.65625,25.9375 C 87.11625,25.9375 87.39375,25.09125 90.09375,22.03125 L 89.09375,22.03125 C 88.07375,22.03125 85.905004,21.4275 85.125,21.1875 C 83.865,20.7675 82.603753,20.230001 81.34375,19.75 C 80.98375,19.63 80.578752,19.46125 80.21875,19.28125 C 78.71875,18.80125 77.189997,18.25875 75.75,17.71875 C 75.63,17.65875 72.812499,16.74625 72.8125,15.90625 C 72.8125,15.84625 72.890001,15.125 73.25,15.125 C 73.31,15.125 76.791252,16.272499 78.53125,16.8125 C 79.13125,16.9925 79.777496,17.10125 80.4375,17.28125 C 80.9175,17.40125 81.457496,17.47125 81.9375,17.53125 C 82.1775,17.53125 82.536253,17.59375 82.65625,17.59375 C 82.65625,17.59375 83.876249,17.71375 84.65625,17.59375 C 85.13625,17.53375 85.976249,17.34125 86.15625,17.28125 C 86.57625,17.10125 86.983753,16.88875 87.34375,16.46875 C 88.18375,15.56875 88.48125,14.46 88.78125,13.5 C 88.84125,13.14 89.033747,12.86 89.09375,12.5 C 88.07375,12.74 87.938748,12.78125 87.21875,12.78125 L 86.25,12.78125 C 81.69,12.24125 77.091252,11.6075 72.53125,9.6875 C 72.47125,9.6875 72.403753,9.6224996 72.34375,9.5625 C 72.82375,8.8425 73.42875,8.7187497 73.96875,8.71875 L 77.875,9.125 L 79.125,9.125 C 80.265,9.125 82.832499,8.46875 83.3125,6.96875 C 83.3125,6.96875 83.565004,6.4225001 83.625,6.0625 C 83.865,5.0425 83.625004,4.5625001 83.625,4.5625 C 83.265,4.3225 82.891248,4.2812498 82.53125,4.28125 C 82.05125,4.28125 81.165004,4.5625001 80.625,4.5625 L 79.0625,4.5 C 74.5625,4.08 70.062501,2.64125 65.5625,2.28125 C 65.5625,2.28125 64.28,2.1875 63.03125,2.1875 z M 40.65625,2.71875 C 40.59625,3.37875 41.207499,3.6874999 41.6875,3.6875 C 42.1075,3.6875 42.478748,3.4437501 42.71875,2.84375 C 43.07875,2.90375 43.54875,2.83875 43.96875,2.71875 C 44.02875,2.77875 44.031248,2.8825001 44.03125,3.0625 C 44.03125,3.9625 42.58125,4.0937501 42.28125,4.09375 C 41.86125,4.09375 40.531252,3.9625001 40.53125,3.0625 C 40.53125,3.0025 40.536249,2.83875 40.65625,2.71875 z M 24.9375,3.96875 L 25.1875,3.96875 L 25.1875,6.96875 C 25.1875,7.50875 25.408749,8.5825001 25.46875,9.0625 C 25.76875,10.7425 26.248749,12.60375 26.96875,14.34375 C 27.62875,15.84375 28.5475,17.59375 29.6875,19.09375 C 31.1275,21.01375 33.390001,22.98 35.25,24 C 35.79,24.36 36.3375,24.668749 36.9375,24.96875 L 36.9375,32.0625 C 36.9375,32.6625 37.005,33.145 37.125,33.625 C 37.125,33.925 37.3125,34.505 37.3125,34.625 C 37.3125,34.685 36.995002,35.005 36.875,35.125 C 36.695,35.365 36.523749,35.538752 36.34375,35.71875 C 35.86375,36.31875 35.258751,36.858752 34.71875,37.21875 C 33.39875,38.05875 32.983751,38.187499 31.84375,38.1875 C 30.64375,38.1875 29.6925,37.80125 28.3125,36.78125 C 28.6725,36.42125 29.0775,36.078752 29.4375,35.71875 C 31.4175,33.91875 33.417501,31.88875 34.4375,29.96875 L 31.90625,28.5 C 30.10625,30.66 28.196249,32.187499 26.15625,32.1875 C 25.25625,32.1875 23.563751,31.93125 22.84375,31.03125 C 24.64375,29.29125 26.668749,27.54 28.46875,25.5 L 26.6875,23.34375 C 25.3675,24.12375 23.380001,25.406249 22,25.40625 C 21.16,25.40625 19.420001,24.149999 19,23.25 C 19.42,23.19 19.793751,23.182499 20.09375,23.0625 C 20.75375,22.7625 21.212499,22.266251 21.8125,21.90625 C 22.7125,21.24625 23.57125,20.5975 24.53125,19.9375 L 23.75,18.5 C 22.61,19.22 21.512499,19.875 20.3125,19.875 C 18.9325,19.875 18.21875,19.216249 16.71875,17.65625 C 17.31875,17.53625 17.996249,17.46125 18.65625,17.28125 C 19.13625,17.10125 19.613751,16.990001 20.09375,16.75 C 20.81375,16.51 22.59375,15.6825 22.59375,15.5625 C 22.59375,15.5025 22.245,14.48 22.125,14 C 22.125,14 22.182499,14 22.0625,14 C 21.8825,14 20.788749,14.59375 19.46875,14.59375 C 17.90875,14.59375 17.2575,13.75625 15.9375,11.65625 C 16.2975,11.65625 16.66875,11.59375 16.96875,11.59375 L 17.9375,11.46875 C 19.0175,11.28875 20.263751,10.92 21.34375,10.5 C 21.16375,9.6000001 21.028749,8.6475002 20.96875,7.6875 C 20.90875,7.6875 20.862499,7.6875002 20.5625,7.6875 C 19.7825,7.6875 18.39375,7.3300002 18.09375,6.25 C 18.03375,6.07 17.968749,5.9612498 17.96875,5.78125 C 17.96875,5.60125 17.875,5.3100002 17.875,5.25 C 17.875,4.83 19.005,4.7500002 19.125,4.75 L 19.96875,4.75 L 24.9375,3.96875 z M 65.15625,3.96875 C 65.15625,3.96875 70.074998,4.7500002 70.375,4.75 C 70.675,4.81 71.249997,4.7500002 71.25,4.75 C 71.61,4.75 72.231252,4.8850001 72.53125,5.125 C 72.47125,5.365 72.406247,5.6637498 72.40625,5.84375 C 72.40625,7.16375 70.715002,7.6875002 69.875,7.6875 L 69.40625,7.6875 L 69.03125,10.5 C 70.11125,10.92 71.32875,11.28875 72.46875,11.46875 L 73.375,11.59375 C 73.735,11.65375 74.015002,11.65625 74.375,11.65625 C 73.235,13.63625 72.463753,14.59375 70.84375,14.59375 C 69.94375,14.59375 69.209997,14.36 68.25,14 C 68.07,14.48 67.898748,15.085 67.71875,15.625 C 69.63875,16.585 71.676253,17.536249 73.65625,17.65625 C 72.21625,19.21625 71.379999,19.875 70,19.875 C 68.86,19.875 67.793747,19.220001 66.59375,18.5 L 65.875,19.9375 C 67.255,21.0175 68.690001,22.162499 70.25,23.0625 C 70.55,23.2425 70.952499,23.189999 71.3125,23.25 C 70.9525,24.15 69.152499,25.406249 68.3125,25.40625 C 66.9325,25.40625 64.950001,24.12375 63.75,23.34375 L 61.84375,25.5 C 63.70375,27.36 65.671248,29.29125 67.53125,31.03125 C 66.81125,31.93125 65.087499,32.187499 64.1875,32.1875 C 62.2075,32.1875 60.357501,30.66 58.4375,28.5 L 55.96875,29.96875 C 56.92875,31.88875 58.895002,33.918752 60.875,35.71875 C 61.295,36.07875 61.671248,36.42125 62.03125,36.78125 C 60.65125,37.80125 59.788749,38.187499 58.46875,38.1875 C 56.84875,38.1875 55.711252,37.518752 54.03125,35.71875 C 53.97125,35.65875 53.934998,35.591252 53.875,35.53125 C 53.635,35.29125 53.031248,34.685 53.03125,34.625 C 53.03125,34.445 53.218748,34.151252 53.21875,34.03125 C 53.33875,33.43125 53.3775,32.785 53.4375,32.125 L 53.5,24.96875 C 56.5,23.58875 60.28875,20.245 61.96875,17.125 C 62.08875,16.885 62.2575,16.583751 62.4375,16.34375 C 63.3375,14.78375 63.894998,13.15625 64.375,11.65625 C 64.375,11.59625 65.156249,8.11125 65.15625,7.03125 L 65.15625,3.96875 z M 24.65625,4.46875 L 19.78125,5.1875 L 18.8125,5.1875 C 18.6925,5.1875 18.403751,5.1612498 18.34375,5.28125 C 18.28375,5.46125 18.346249,5.7262499 18.40625,5.90625 C 18.70625,7.22625 19.969999,7.2812498 20.75,7.28125 L 24.65625,6.90625 L 24.65625,4.46875 z M 65.75,4.46875 L 65.75,6.90625 L 69.65625,7.28125 C 70.49625,7.28125 71.851248,7.1587502 72.03125,5.71875 L 72.09375,5.28125 C 71.91375,5.16125 71.685004,5.1875002 71.625,5.1875 C 71.325,5.1875 71.07375,5.2475002 70.59375,5.1875 L 65.75,4.46875 z M 24.71875,7.34375 L 21.46875,7.6875 L 21.8125,10.34375 L 24.9375,9.125 C 24.8175,8.525 24.77875,7.9437498 24.71875,7.34375 z M 65.6875,7.34375 L 65.4375,9.125 L 68.5625,10.34375 L 68.875,7.625 L 65.6875,7.34375 z M 25,9.5 C 23.5,10.16 22.002499,10.7075 20.5625,11.1875 C 19.6625,11.4875 18.5875,11.84625 17.6875,11.90625 C 17.0275,11.96625 16.83375,11.96875 16.59375,11.96875 C 17.61375,13.58875 18.328749,14.1875 19.46875,14.1875 C 20.30875,14.1875 21.282499,13.8625 22.0625,13.5625 C 22.3025,13.4425 22.47375,13.40375 22.59375,13.34375 C 23.43375,13.04375 25.59375,12.08875 25.59375,11.96875 C 25.59375,11.90875 25.497501,11.4275 25.4375,11.1875 C 25.2575,10.6475 25.120001,10.1 25,9.5 z M 65.375,9.5 L 64.78125,12 C 66.16125,12.6 69.163753,14.1875 70.84375,14.1875 C 72.10375,14.1875 72.76125,13.64875 73.78125,11.96875 C 73.66125,11.96875 73.258752,11.96625 72.71875,11.90625 C 70.25875,11.60625 67.775002,10.52 65.375,9.5 z M 25.71875,12.375 L 22.59375,13.75 L 23.09375,15.3125 L 26.15625,13.5625 L 25.71875,12.375 z M 64.65625,12.375 C 64.53625,12.795 64.430001,13.205 64.25,13.625 L 67.25,15.3125 L 67.71875,13.75 L 64.65625,12.375 z M 26.25,14 C 23.43,15.62 20.442499,17.48875 17.5625,17.96875 C 18.5825,19.04875 19.352499,19.5 20.3125,19.5 C 22.2325,19.5 25.77375,16.56625 27.09375,15.90625 L 26.25,14 z M 64.125,14 C 63.885,14.6 63.58125,15.30625 63.28125,15.90625 C 64.66125,16.62625 68.202501,19.5 70.0625,19.5 C 71.0225,19.5 71.855002,19.04875 72.875,17.96875 C 69.935,17.48875 67.005004,15.62 64.125,14 z M 27.28125,16.21875 L 24.21875,18.1875 L 24.9375,19.625 L 25,19.625 L 27.875,17.28125 L 27.28125,16.21875 z M 63.09375,16.21875 L 62.5,17.28125 C 63.4,18.12125 64.417496,18.905 65.4375,19.625 L 66.09375,18.1875 L 63.09375,16.21875 z M 28.0625,17.65625 C 26.5625,19.03625 25.000001,20.045 23.5,21.125 C 22.48,21.905 21.395,22.68375 20.375,23.34375 C 20.135,23.46375 19.896251,23.47125 19.65625,23.53125 C 20.13625,24.13125 21.400001,24.968749 22,24.96875 C 24.28,24.96875 28.437501,21.567501 29.9375,20.1875 C 29.1575,19.3475 28.542499,18.436249 28.0625,17.65625 z M 62.25,17.65625 C 61.71,18.49625 61.12875,19.407501 60.46875,20.1875 C 62.20875,21.7475 66.032499,24.968749 68.3125,24.96875 C 68.9725,24.96875 70.176253,24.13125 70.65625,23.53125 C 70.41625,23.47125 70.115002,23.46125 69.875,23.28125 C 67.235,21.48125 64.830001,19.816249 62.25,17.65625 z M 30.15625,20.46875 L 27.09375,23 L 28.84375,25.15625 C 29.74375,24.13625 30.81375,22.988749 31.59375,21.96875 L 30.15625,20.46875 z M 60.15625,20.46875 L 58.71875,21.96875 L 61.46875,25.15625 L 63.28125,23 L 60.15625,20.46875 z M 38.6875,21 L 51.65625,21 L 51.65625,31.625 C 51.65625,32.885 51.218751,34.286251 51.21875,34.40625 C 51.09875,34.76625 50.9325,35.171252 50.8125,35.53125 C 50.8125,35.59125 50.750001,35.658752 50.75,35.71875 C 50.09,37.69875 47.850001,40.282501 45.75,41.0625 C 45.57,41.1225 45.278751,41.28125 45.21875,41.28125 C 44.73875,41.28125 43.242501,40.338752 43.0625,40.21875 C 42.7625,40.03875 42.52125,39.805 42.28125,39.625 C 41.80125,39.205 41.26875,38.605 40.96875,38.125 C 40.36875,37.345 39.893751,36.558752 39.59375,35.71875 C 39.17375,34.81875 38.994998,33.863749 38.875,32.84375 C 38.815,32.42375 38.687499,31.886249 38.6875,31.40625 L 38.6875,21 z M 31.90625,22.28125 C 29.44625,25.22125 26.315,28.39125 23.375,31.03125 C 23.915,31.57125 25.49875,31.812499 26.21875,31.8125 C 29.33875,31.8125 32.154998,27.689999 34.375,24.75 C 34.435,24.63 34.598751,24.432499 34.71875,24.3125 C 33.75875,23.7725 32.806249,23.06125 31.90625,22.28125 z M 58.4375,22.28125 C 57.5975,23.06125 56.498751,23.715 55.71875,24.375 C 56.97875,25.635 60.407499,31.812499 64.1875,31.8125 C 64.9675,31.8125 66.399999,31.57125 67,31.03125 C 64.06,28.27125 60.777501,25.16125 58.4375,22.28125 z M 40.59375,22.5625 L 40.59375,35.71875 L 40.59375,36.6875 L 43.1875,36.6875 L 43.1875,35.71875 L 43.1875,32 L 46.125,32 C 46.185,32 46.858748,31.932499 47.21875,31.8125 C 47.33875,31.8125 47.6325,31.682501 47.8125,31.5625 C 49.0725,30.9625 49.911248,29.522501 50.03125,28.5625 C 50.09125,28.2025 50.096249,28.08125 50.15625,27.78125 C 50.15625,27.42125 50.156249,27.076249 50.15625,26.65625 C 50.15625,26.53625 50.02875,25.925 49.96875,25.625 C 49.90875,25.325 49.776249,25.049999 49.65625,24.75 C 48.93625,23.25 47.265,22.562501 46.125,22.5625 L 40.59375,22.5625 z M 43.1875,24.5 L 45.09375,24.5 C 45.21375,24.5 45.411248,24.500001 45.53125,24.5 C 47.21125,24.74 47.625,26.232499 47.625,27.3125 C 47.625,28.2125 47.252499,29.7 45.8125,30 C 45.6925,30.06 45.403749,30.062501 45.34375,30.0625 L 43.1875,30.0625 L 43.1875,24.5 z M 35.03125,24.5625 L 32.25,28.09375 L 34.65625,29.53125 C 34.89625,29.11125 36.343749,26.18875 36.34375,25.46875 C 36.34375,25.34875 36.34125,25.28125 36.28125,25.28125 C 35.92125,25.04125 35.451248,24.802499 35.03125,24.5625 z M 55.375,24.5625 C 54.895,24.8625 54.451252,25.10125 54.03125,25.28125 C 54.03125,25.34125 54.031252,25.34875 54.03125,25.46875 C 54.03125,25.76875 54.692499,27.507501 54.8125,27.6875 C 55.0525,28.2875 55.356249,28.868749 55.65625,29.46875 C 56.43625,29.16875 57.345,28.57375 58.125,28.09375 L 55.375,24.5625 z M 36.28125,26.90625 C 35.26125,29.84625 33.33875,32.711252 30.21875,35.53125 C 30.09875,35.59125 30.028749,35.658752 29.96875,35.71875 C 29.60875,36.07875 29.266249,36.42125 28.90625,36.78125 C 29.98625,37.50125 30.826249,37.812499 31.90625,37.8125 C 32.80625,37.8125 33.57375,37.50125 34.59375,36.78125 C 34.89375,36.54125 35.454998,36.078752 35.875,35.71875 C 35.935,35.65875 35.97375,35.528749 36.09375,35.46875 C 36.33375,35.22875 36.750001,34.745 36.75,34.625 C 36.75,34.565 36.653751,34.083748 36.59375,33.84375 C 36.47375,33.18375 36.466251,32.845 36.40625,32.125 L 36.28125,26.90625 z M 54.09375,26.90625 L 53.96875,32.125 C 53.90875,32.785 53.870001,33.43375 53.75,34.09375 C 53.69,34.27375 53.562501,34.565 53.5625,34.625 C 53.5625,34.685 54.116249,35.238752 54.65625,35.71875 C 55.01625,36.13875 55.437501,36.502501 55.4375,36.5625 C 55.6175,36.6825 55.726251,36.786251 55.90625,36.90625 C 56.38625,37.26625 57.116249,37.630001 57.65625,37.75 C 57.89625,37.81 58.408749,37.812499 58.46875,37.8125 C 59.48875,37.8125 60.357501,37.530001 61.4375,36.75 C 61.0775,36.39 60.703749,36.078752 60.34375,35.71875 C 60.28375,35.65875 60.216249,35.591252 60.15625,35.53125 C 56.97625,32.71125 55.11375,29.846249 54.09375,26.90625 z M 56.9375,52.03125 L 56.375,53.46875 C 56.855,54.00875 57.358748,54.55375 57.71875,55.09375 C 58.07875,55.51375 58.418751,55.98625 58.71875,56.40625 C 59.31875,57.30625 60.531248,59.064999 60.53125,59.125 C 60.53125,59.665 57.156249,60.420001 57.15625,61.5 C 57.15625,62.58 58.888749,64.332502 59.96875,64.8125 C 59.78875,64.4525 59.687499,63.922501 59.6875,63.5625 C 59.6875,62.4825 60.46125,61.636248 61.78125,61.15625 C 62.02125,61.03625 62.3775,60.968749 62.4375,60.96875 C 62.9175,60.96875 63.356249,61.459998 63.65625,62 C 63.89625,62.36 64.130001,62.640001 64.25,63 C 64.61,63.96 65.852499,64.949996 66.8125,65.25 C 66.9325,64.95 66.937496,64.583748 66.9375,64.34375 C 66.9375,62.66375 65.812503,60.904999 65.8125,60.125 C 65.8125,60.005 65.79375,59.588749 66.09375,59.46875 C 66.93375,59.16875 67.311252,58.937499 68.03125,58.9375 C 69.35125,58.9375 70.123753,60.0625 70.84375,61.5625 C 71.20375,61.3225 71.312499,60.799998 71.3125,60.5 C 71.3125,59.66 70.95375,58.47 70.59375,57.75 C 70.29375,57.21 69.407499,55.937499 68.6875,55.9375 C 68.0275,55.9375 64.959999,57.75 64,57.75 C 63.94,57.75 63.810001,57.75 63.75,57.75 C 61.95,57.09 60.413751,54.071251 59.09375,52.03125 L 56.9375,52.03125 z M 31.375,52.34375 C 31.015,52.88375 30.706249,53.363752 30.40625,53.84375 C 29.98625,54.44375 28.065,57.75 26.625,57.75 C 25.665,57.75 22.595,55.937499 21.875,55.9375 C 20.975,55.9375 19.96125,57.676248 19.78125,58.15625 C 19.54125,58.75625 19.249999,59.777499 19.25,60.4375 C 19.25,60.8575 19.30125,61.2025 19.78125,61.5625 C 20.38125,60.0625 21.27375,58.937499 22.59375,58.9375 C 23.25375,58.9375 23.81125,59.171251 24.53125,59.53125 C 24.71125,59.65125 24.812499,60.004999 24.8125,60.125 C 24.8125,61.145 23.625,62.483748 23.625,64.34375 C 23.625,64.40375 23.689999,64.949996 23.75,65.25 L 23.8125,65.25 C 24.4125,65.01 25.17875,64.631251 25.71875,64.03125 C 26.37875,63.31125 26.676251,62.404999 27.15625,61.625 C 27.45625,61.205 27.8275,60.968749 28.1875,60.96875 C 28.2475,60.96875 28.666249,61.096248 28.90625,61.15625 C 30.22625,61.63625 30.875,62.482501 30.875,63.5625 C 30.875,63.9825 30.833751,64.392502 30.59375,64.8125 C 31.67375,64.3925 33.406251,62.5825 33.40625,61.5625 C 33.40625,60.3625 30.03125,59.724999 30.03125,59.125 C 30.03125,59.065 31.243751,57.371251 31.84375,56.53125 C 32.44375,55.63125 33.165,54.623752 34.125,53.84375 L 33.46875,52.34375 L 31.375,52.34375 z M 45.8125,55.46875 C 45.5725,56.30875 45.2925,57.318751 44.8125,58.21875 C 44.5725,58.63875 44.203749,59.298751 43.84375,59.71875 C 43.78375,59.83875 43.59375,60.004999 43.59375,60.125 C 43.59375,60.185 43.84875,60.728749 43.96875,60.96875 C 44.32875,62.10875 44.558751,63.26625 45.21875,64.40625 C 45.27875,64.52625 45.819999,65.124999 46,65.125 C 46.12,65.125 46.2525,64.934997 46.3125,64.875 C 47.0925,63.495 47.3925,62.07 47.8125,60.75 C 47.8725,60.57 48.031252,60.1225 48.03125,60.0625 C 48.03125,60.0025 47.6175,59.484999 47.4375,59.125 C 46.9575,58.405 46.6125,57.62625 46.3125,56.90625 C 46.1325,56.42625 45.932499,55.948749 45.8125,55.46875 z "
       id="path4662" />
  </g>
</svg>
