<?xml version="1.0" encoding="UTF-8" standalone="no"?>
<!-- Generator: Adobe Illustrator 15.0.2, SVG Export Plug-In . SVG Version: 6.00 Build 0)  -->

<svg
   xmlns:dc="http://purl.org/dc/elements/1.1/"
   xmlns:cc="http://creativecommons.org/ns#"
   xmlns:rdf="http://www.w3.org/1999/02/22-rdf-syntax-ns#"
   xmlns:svg="http://www.w3.org/2000/svg"
   xmlns="http://www.w3.org/2000/svg"
   xmlns:sodipodi="http://sodipodi.sourceforge.net/DTD/sodipodi-0.dtd"
   xmlns:inkscape="http://www.inkscape.org/namespaces/inkscape"
   version="1.1"
   id="Capa_1"
   x="0px"
   y="0px"
   width="131.25999"
   height="203.53"
   viewBox="0 0 131.25999 571.61617"
   xml:space="preserve"
   inkscape:version="0.48.2 r9819"
   sodipodi:docname="sd_ponferradina.svg"><metadata
   id="metadata217"><rdf:RDF><cc:Work
       rdf:about=""><dc:format>image/svg+xml</dc:format><dc:type
         rdf:resource="http://purl.org/dc/dcmitype/StillImage" /></cc:Work></rdf:RDF></metadata><defs
   id="defs215" /><sodipodi:namedview
   pagecolor="#ffffff"
   bordercolor="#666666"
   borderopacity="1"
   objecttolerance="10"
   gridtolerance="10"
   guidetolerance="10"
   inkscape:pageopacity="0"
   inkscape:pageshadow="2"
   inkscape:window-width="1920"
   inkscape:window-height="1018"
   id="namedview213"
   showgrid="false"
   fit-margin-top="0"
   fit-margin-left="0"
   fit-margin-right="0"
   fit-margin-bottom="0"
   inkscape:zoom="3.9257112"
   inkscape:cx="65.629997"
   inkscape:cy="101.765"
   inkscape:window-x="-8"
   inkscape:window-y="-8"
   inkscape:window-maximized="1"
   inkscape:current-layer="Capa_1" />
<path
   d="m 111.00947,204.27013 c 28.371,-3.654 38.979,-9.858 38.979,-9.858 l 1.65,-6.776 c 3.387,-0.598 5.855,-2.303 6.133,-4.58 0.241,-1.987 -1.247,-3.948 -3.718,-5.339 l 1.635,-6.716 c 0.979,-0.408 1.868,-0.892 2.685,-1.454 3.184,-2.193 4.685,-5.221 6.137,-8.147 1.644,-3.313 3.343,-6.74 7.791,-10.555 l 5.14,-4.406 -6.297,-2.484 c -0.299,-0.117 -0.6,-0.22 -0.902,-0.31 2.588,-1.885 4.276,-4.929 4.277,-8.376 -0.001,-2.746 -1.075,-5.234 -2.817,-7.09 0.052,0.001 0.102,0.009 0.154,0.009 5.726,-0.002 10.366,-4.642 10.368,-10.367 -0.001,-4.521 -2.897,-8.353 -6.932,-9.772 2.409,-1.726 3.984,-4.541 3.985,-7.73199 -0.002,-5.258005 -4.262,-9.517005 -9.519,-9.518005 -0.483,0 -0.954,0.047 -1.418,0.117 1.234,-1.358 1.993,-3.156 1.994,-5.136 -0.002,-4.226 -3.425,-7.648 -7.648,-7.65 -0.927,0.001 -1.811,0.174 -2.632,0.476 0.43,-0.955 0.673,-2.011 0.674,-3.126 -0.002,-4.225 -3.425,-7.648 -7.648,-7.649 -2.009,10e-4 -3.832,0.781 -5.196,2.048 -0.089,-4.147 -3.471,-7.484 -7.64,-7.485 -3.027,0.001 -5.636,1.763 -6.876,4.314 -1.233,-2.569 -3.851,-4.347 -6.891,-4.348 -4.224,10e-4 -7.646,3.423 -7.648,7.648 0,0.984 0.193,1.922 0.532,2.786 -1.896,-2.089 -4.626,-3.408 -7.67,-3.409 -0.605,0 -1.195,0.063 -1.772,0.162 1.271,-1.365 2.056,-3.19 2.056,-5.205 -0.001,-4.224 -3.423,-7.646 -7.646,-7.648 -0.271,0 -0.538,0.016 -0.802,0.043 0.615,-1.103 0.97,-2.371 0.97,-3.725 0,-4.224 -3.422,-7.646 -7.646015,-7.648 -1.503,0.001 -2.899,0.44 -4.082,1.188 0.218,-0.602 0.344,-1.247 0.344,-1.924 -0.002,-3.13 -2.538,-5.664 -5.666,-5.666 -1.184,10e-4 -2.281,0.364 -3.189,0.985 -0.282,-0.203 -0.556,-0.397 -0.821,-0.582 0.101,-0.421 0.159,-0.857 0.159,-1.309 -0.002,-3.13 -2.537,-5.665 -5.666,-5.666 -0.919,0 -1.783,0.224 -2.551,0.612 0.434,-1.143 0.682,-2.377 0.682,-3.672 h -10e-4 c 0,-5.724 -4.639,-10.362 -10.363,-10.365 4.223,-0.004 7.644,-3.425 7.645,-7.647999 -0.001,-4.2250005 -3.423,-7.6460005 -7.647,-7.6470005 -4.225,10e-4 -7.647,3.423 -7.649,7.6470005 10e-4,4.223999 3.422,7.644999 7.646,7.647999 -5.726,0.002 -10.364,4.641 -10.364,10.365 0,1.295 0.248,2.529 0.681,3.672 -0.768,-0.389 -1.633,-0.612 -2.552,-0.612 -3.128,10e-4 -5.665,2.536 -5.665,5.666 0,0.45 0.059,0.888 0.158,1.308 -0.265,0.186 -0.539,0.38 -0.82,0.582 -0.909,-0.62 -2.007,-0.983 -3.191,-0.983 -3.128,0 -5.663,2.534 -5.665,5.666 0,0.676 0.125,1.321 0.343,1.922 -1.182,-0.748 -2.579,-1.188 -4.081,-1.188 -4.224,10e-4 -7.646,3.424 -7.648,7.649 0,1.353 0.355,2.621 0.971,3.723 -0.263,-0.027 -0.53,-0.042 -0.801,-0.042 -4.226,0.001 -7.647,3.423 -7.649,7.648 0,2.014 0.785,3.839 2.056,5.205 -0.577,-0.101 -1.167,-0.163 -1.772,-0.163 -3.043,0.001 -5.772,1.32 -7.668,3.409 0.338,-0.863 0.531,-1.801 0.531,-2.784 -10e-4,-4.226 -3.422999,-7.648 -7.648999,-7.649 -3.0409999,10e-4 -5.65699993,1.778 -6.89,4.348 -1.24,-2.552 -3.848,-4.314 -6.875,-4.315 -4.169001,0.002 -7.551001,3.336 -7.641001,7.486 -1.364,-1.267 -3.186,-2.047 -5.195,-2.048 -4.226,0.002 -7.648,3.424 -7.649,7.649 0,1.115 0.244,2.171 0.673,3.126 -0.821,-0.302 -1.705,-0.475 -2.631,-0.476 -4.225,0.002 -7.647,3.425 -7.648,7.65 0,1.979 0.759,3.777 1.993,5.135 -0.463,-0.069 -0.934,-0.117 -1.417,-0.117 -5.258,0.001 -9.517,4.261 -9.519,9.519005 0,3.18999 1.575,6.00699 3.984,7.73199 -4.034,1.42 -6.929,5.252 -6.93,9.772 10e-4,5.726 4.641,10.366 10.367,10.367 0.052,0 0.103,-0.007 0.155,-0.008 -1.742,1.854 -2.817,4.344 -2.818,7.089 10e-4,3.447 1.69,6.492 4.277,8.376 -0.302,0.09 -0.603,0.192 -0.901,0.31 l -6.297,2.484 5.139,4.406 c 4.448,3.814 6.147,7.241 7.791,10.555 1.452,2.927 2.953,5.954 6.137,8.147 0.816,0.563 1.706,1.046 2.684,1.454 l 1.635,6.716 c -2.471,1.391 -3.959,3.352 -3.718,5.339 0.276,2.277 2.746,3.982 6.133,4.58 l 1.65,6.776 c 0,0 10.607001,6.204 38.979,9.858 H -115.81853 c 0,97.337 15.996993,156.644 42.562985,207.965 33.283,64.296 83.154001,111.825 138.947,157.434 55.792015,-45.608 105.664015,-93.138 138.946015,-157.434 26.567,-51.321 42.563,-110.628 42.563,-207.965 h -136.191 z"
   id="path3"
   inkscape:connector-curvature="0" />
<path
   d="m 240.03447,211.40813 h -348.685 c 0.359,43.203 4.008,80.093 11.124985,112.573 6.697,30.566 16.424,57.567 30.61,84.973 32.987,63.724 82.943,110.562 132.608,151.481 49.665015,-40.92 99.621015,-87.758 132.607015,-151.481 14.187,-27.405 23.913,-54.406 30.61,-84.973 7.117,-32.48 10.765,-69.37 11.125,-112.573 l 0,0 z"
   id="path5"
   inkscape:connector-curvature="0"
   style="fill:#B38C0B" />
<path
   d="m 232.80447,218.54613 h -334.226 c 0.682,39.618 4.254985,73.726 10.867985,103.907 6.56,29.94 16.085,56.384 29.977,83.22 31.401,60.661 78.708,105.953 126.269,145.497 47.561015,-39.544 94.867015,-84.837 126.269015,-145.497 13.892,-26.836 23.417,-53.279 29.978,-83.22 6.61,-30.181 10.184,-64.289 10.865,-103.907 l 0,0 z"
   id="path7"
   inkscape:connector-curvature="0" />
<path
   d="m 65.691455,226.70413 v 313.831 c 45.113015,-37.957 89.420015,-81.423 119.023015,-138.612 13.555,-26.185 22.851,-51.991 29.253,-81.216 6.032,-27.528 9.491,-58.45 10.492,-94.003 H 65.691455 z"
   id="path9"
   inkscape:connector-curvature="0"
   style="fill:#ffffff" />
<path
   d="m -93.077545,226.70413 c 1.002,35.553 4.461,66.475 10.492,94.003 6.403,29.225 15.698,55.031 29.253,81.216 29.604,57.189 73.911,100.655 119.024,138.612 v -313.831 h -158.769 z"
   id="path11"
   inkscape:connector-curvature="0"
   style="fill:#007CB2" />
<path
   d="m 65.691455,436.87813 c -21.12,0.004 -38.238,17.12 -38.239,38.239 0.001,21.12 17.12,38.238 38.239,38.241 21.12,-0.003 38.236015,-17.121 38.239015,-38.241 -0.003,-21.119 -17.119015,-38.235 -38.239015,-38.239 z"
   id="path13"
   inkscape:connector-curvature="0" />
<path
   d="m 65.464455,472.00313 c -1.578,-2.297 -2.229,-6.531 -2.396,-11.182 17.039,0.773 30.074,10.54 34.626,16.925 -0.297,3.676 -1.21,7.171 -2.64,10.39 -3.961,-4.738 -13.643,-14.105 -29.59,-16.133 z"
   id="path15"
   inkscape:connector-curvature="0"
   style="fill:#B38C0B" />
<path
   d="m 59.346455,477.21413 c 0,0 -1.831,3.107 -6.704,6.186 -4.326,-7.236 -7.588,-20.569 -4.867,-34.944 2.783,-1.875 5.877,-3.316 9.186,-4.248 -4.705,16.055 2.385,33.006 2.385,33.006 z"
   id="path17"
   inkscape:connector-curvature="0"
   style="fill:#B38C0B" />
<path
   d="m 88.403455,452.40513 c 4.674,4.678 7.905,10.77 8.997,17.587 -4.651,-6.351 -18.115,-15.184 -34.284,-15.934 0.183,-4.31 0.599,-8.369 0.918,-11.019 0.549,-0.028 1.101,-0.043 1.657,-0.043 8.88,0.002 16.89,3.592 22.712,9.409 z"
   id="path19"
   inkscape:connector-curvature="0"
   style="fill:#B38C0B" />
<path
   d="m 40.677455,454.97713 c -0.466,6.009 -0.109,16.844 5.167,31.699 -2.6,0.931 -5.647,1.706 -9.186,2.193 -1.978,-4.167 -3.086,-8.824 -3.087,-13.753 0,-7.636 2.661,-14.627 7.106,-20.139 z"
   id="path21"
   inkscape:connector-curvature="0"
   style="fill:#B38C0B" />
<path
   d="m 40.597455,495.15713 c 20.075,-6.015 26.001,-17.943 26.001,-17.943 3.895,0.531 7.618,2.06 11.002,4.024 -2.425,4.236 -11.612,17.736 -30.993,19.715 -1.285,-0.951 -2.5,-1.993 -3.629,-3.122 -0.845,-0.845 -1.635,-1.741 -2.381,-2.674 z"
   id="path23"
   inkscape:connector-curvature="0"
   style="fill:#B38C0B" />
<path
   d="m 65.691455,507.23813 c -4.434,0 -8.65,-0.896 -12.486,-2.516 16.126,-2.351 25.147,-11.179 30.067,-19.602 3.843,3.029 6.896,6.241 8.756,8.373 -1.082,1.549 -2.292,3.002 -3.625,4.337 -5.822,5.818 -13.832,9.407 -22.712,9.408 z"
   id="path25"
   inkscape:connector-curvature="0"
   style="fill:#B38C0B" />
<polygon
   points="382.521,354.992 382.521,366.99 379.275,366.99 379.275,354.992 361.088,354.992 361.088,366.99 357.841,366.99 357.841,354.992 339.652,354.992 339.652,375.861 349.488,386.562 331.597,539.944 408.766,539.944 390.875,386.563 400.712,375.86 400.712,354.992 "
   id="polygon27"
   transform="translate(-241.80854,-109.72087)" />
<path
   d="m 110.52647,275.91913 -9.96201,-10.837 v -17.091 h 12.74801 v 11.999 h 8.686 v -11.999 h 12.748 v 11.999 h 8.688 v -11.999 h 12.749 v 17.091 l -9.963,10.839 0.072,0.617 17.609,150.966 h -21.039 v -28.275 c 0,-8.003 -6.485,-14.489 -14.488,-14.49 -8.004,0.001 -14.489,6.487 -14.491,14.49 v 28.275 H 92.844455 l 17.682015,-151.585 z"
   id="path29"
   inkscape:connector-curvature="0"
   style="fill:#B38C0B" />
<path
   d="m 116.60346,427.50413 -0.001,-28.275 c 0.012,-6.5 5.271,-11.76 11.771,-11.771 6.498,0.012 11.759,5.271 11.77,11.771 v 28.275 h -23.54 z"
   id="path31"
   inkscape:connector-curvature="0"
   style="fill:#ffffff" />
<path
   d="m 142.86246,428.86313 h 0.003 -0.003 z"
   id="path33"
   inkscape:connector-curvature="0" />
<polygon
   points="257.159,366.99 253.913,366.99 253.913,354.992 235.725,354.992 235.725,366.99 232.477,366.99 232.477,354.992 214.29,354.992 214.29,375.86 224.125,386.562 206.234,539.944 283.401,539.944 265.51,386.563 275.347,375.861 275.347,354.992 257.159,354.992 "
   id="polygon35"
   transform="translate(-241.80854,-109.72087)" />
<path
   d="m -8.760544,427.50413 v -28.275 c 0.012,-6.5 5.27,-11.76 11.771,-11.771 6.5,0.012 11.758999,5.271 11.770999,11.771 v 28.275 H -8.760544 z"
   id="path37"
   inkscape:connector-curvature="0"
   style="fill:#ffffff" />
<path
   d="m 38.537455,427.50413 h -21.037 v -28.275 c -10e-4,-8.003 -6.487999,-14.489 -14.489999,-14.49 -8.002,0.001 -14.490001,6.487 -14.490001,14.49 v 28.275 h -21.041 l 17.683,-151.585 -9.962,-10.839 v -17.089 h 12.748 l 0.002,11.999 h 8.685001 v -11.999 h 12.75 v 11.999 h 8.686999 v -11.999 h 12.748 v 17.091 l -9.962,10.837 0.072,0.619 17.607,150.966 z"
   id="path39"
   inkscape:connector-curvature="0"
   style="fill:#B38C0B" />
<polygon
   points="269.674,411.202 284.691,539.944 330.309,539.944 345.502,409.685 325.768,409.685 325.768,421.514 318.83,421.514 318.83,409.685 296.169,409.685 296.169,421.514 289.231,421.514 289.231,409.685 269.497,409.685 "
   id="polygon41"
   transform="translate(-241.80854,-109.72087)" />
<path
   d="m 84.765455,427.50413 h -38.149 v -47.063 c 0.019,-10.535 8.542,-19.057 19.076,-19.076 10.531,0.02 19.055,8.541 19.073,19.076 v 47.063 z"
   id="path43"
   inkscape:connector-curvature="0"
   style="fill:#ffffff" />
<path
   d="m 87.484455,415.45513 v -35.015 c -10e-4,-12.037 -9.758,-21.794 -21.792,-21.794 -12.038,0 -21.794,9.757 -21.795,21.794 v 35.007 l -13.154,-112.764 h 13.959 l 10e-4,11.829 h 12.377 v -11.829 h 17.22 v 11.829 h 12.379 v -11.83 h 13.959005 l -13.154005,112.773 z"
   id="path45"
   inkscape:connector-curvature="0"
   style="fill:#B38C0B" />
<path
   d="m -45.689545,257.67213 c -0.217,-1.36 -0.924,-2.176 -1.849,-2.665 -0.925,-0.489 -2.067,-0.707 -3.318,-0.707 -2.828,0 -4.079,0.815 -4.079,2.229 0,5.874 22.516,2.23 22.516,16.479 0,9.082 -7.56,13.487 -18.328,13.487 -10.333,0 -17.077,-6.037 -17.349,-13.107 h 12.292 c 0.271,1.414 1.033,2.448 2.121,3.101 1.033,0.652 2.393,0.979 3.644,0.979 3.209,0 5.33,-1.033 5.33,-2.882 0,-5.929 -22.516,-1.85 -22.516,-16.806 0,-8.321 7.179,-12.509 16.969,-12.509 10.877,0 15.826,5.548 16.75,12.4 h -12.183 z"
   id="path47"
   inkscape:connector-curvature="0" />
<path
   d="m 46.874455,285.46313 v -39.158 h 17.186 c 12.618,0 20.449,5.874 20.449,18.763 0,14.739 -8.212,20.396 -20.775,20.396 h -16.86 z m 12.835,-9.137 h 2.719 c 5.983,0 9.246,-3.154 9.246,-10.552 0,-8.157 -2.665,-10.333 -9.518,-10.333 h -2.447 v 20.885 z"
   id="path49"
   inkscape:connector-curvature="0" />
<path
   d="m 163.91146,285.46313 v -39.158 h 18.872 c 11.258,0 16.696,5.167 16.696,13.216 0,8.43 -5.004,13.76 -16.261,13.76 h -6.473 v 12.183 h -12.834 z m 18.165,-21.32 c 2.99,0 5.167,-1.197 5.167,-4.568 0,-3.644 -4.134,-4.134 -6.853,-4.134 h -3.645 v 8.702 h 5.331 z"
   id="path51"
   inkscape:connector-curvature="0" />
<ellipse
   cx="307.5"
   cy="303.56699"
   rx="67.640999"
   ry="6.6849999"
   id="ellipse53"
   sodipodi:cx="307.5"
   sodipodi:cy="303.56699"
   sodipodi:rx="67.640999"
   sodipodi:ry="6.6849999"
   style="fill:#DA251C"
   transform="translate(-241.80854,-109.72087)" />
<path
   d="m 166.20046,109.13613 c -1.534,1.001 -2.783,2.398 -3.611,4.044 0.209,-1.49 0.327,-3.013 0.325,-4.569 0.001,-0.583 -0.014,-1.16 -0.038,-1.734 0.928,0.97 2.057,1.749 3.324,2.259 z"
   id="path55"
   inkscape:connector-curvature="0"
   style="fill:#FCFC14" />
<path
   d="m 161.50146,118.09313 c 0.07,2.637 1.12,5.022 2.804,6.814 -0.052,-10e-4 -0.103,-0.008 -0.154,-0.008 -5.727,0.002 -10.365,4.642 -10.367,10.368 0.001,2.102 0.63,4.054 1.704,5.687 -2.169,-0.969 -6.079,-2.355 -11.466,-2.899 2.992,-1.46 5.73,-3.287 8.14,-5.444 4.347,-3.885 7.603,-8.856 9.339,-14.518 z"
   id="path57"
   inkscape:connector-curvature="0"
   style="fill:#FCFC14" />
<path
   d="m 162.68646,93.425135 c 0.186,0 0.366,-0.015 0.549,-0.027 -0.961,0.906 -1.729,2.012 -2.248,3.246 -0.474,-1.386 -1.035,-2.723 -1.673,-4.01 1.019,0.502 2.16,0.791 3.372,0.791 z"
   id="path59"
   inkscape:connector-curvature="0"
   style="fill:#FCFC14" />
<path
   d="m 155.71246,82.650135 c -0.429,0.955 -0.674,2.013 -0.674,3.129 0,0.12 0.013,0.237 0.018,0.356 -0.656,-0.774 -1.347,-1.52 -2.077,-2.228 -0.303,-0.295 -0.618,-0.578 -0.935,-0.861 0.34,0.046 0.684,0.078 1.036,0.078 0.926,0.001 1.81,-0.172 2.632,-0.474 z"
   id="path61"
   inkscape:connector-curvature="0"
   style="fill:#FCFC14" />
<path
   d="m 146.26046,78.912135 c -1.106,-0.62 -2.26,-1.176 -3.45,-1.678 0.983,-0.354 1.878,-0.896 2.629,-1.595 0.025,1.177 0.323,2.285 0.821,3.273 z"
   id="path63"
   inkscape:connector-curvature="0"
   style="fill:#FCFC14" />
<path
   d="m 134.27646,74.805135 c -0.553,-0.091 -1.11,-0.17 -1.674,-0.238 0.285,-0.384 0.539,-0.793 0.75,-1.227 0.252,0.525 0.565,1.014 0.924,1.465 z"
   id="path65"
   inkscape:connector-curvature="0"
   style="fill:#FCFC14" />
<path
   d="m 119.77746,107.84913 c 3.185,-1.77 5.341,-5.163 5.343,-9.063993 -0.002,-4.965002 -3.491,-9.106002 -8.151,-10.123002 2.963,-1.759 4.976,-4.943 5.08,-8.612 1.855,-0.236 3.658,-0.353 5.402,-0.353 9.071,0.009 16.519,3.053 21.739,8.113 5.213,5.071 8.274,12.206005 8.284,20.800995 -0.009,8.045 -3.368,14.94 -8.941,19.949 -5.577,4.994 -13.398,8.042 -22.26,8.042 -1.852,0 -3.751,-0.142 -5.682,-0.419 0.156,-0.461 0.273,-0.943 0.337,-1.444 0.038,-0.314 0.058,-0.622 0.057,-0.931 0,-2.925 -1.727,-5.524 -4.308,-6.713 4.805,-0.905 8.44,-5.115 8.442,-10.183 -0.001,-3.901 -2.157,-7.294 -5.342,-9.063 z"
   id="path67"
   inkscape:connector-curvature="0"
   style="fill:#DA251C" />
<path
   d="m 75.500455,126.48413 c -0.858,2.691 -1.709,4.775 -2.414,6.306 -0.044,-2.184 -1.03,-4.132 -2.57,-5.458 3.294,-1.736 5.542,-5.188 5.543,-9.173 -0.001,-3.52 -1.759,-6.623 -4.439,-8.497 2.681,-1.873 4.438,-4.978 4.439,-8.496 -0.001,-3.520995 -1.759,-6.624995 -4.439,-8.498995 2.681,-1.874 4.438,-4.979 4.439,-8.498 h -0.001 c 0,-3.94 -2.198,-7.367 -5.437,-9.12 1.661,-1.402 2.718,-3.497 2.718,-5.842 0,-2.572 -1.273,-4.842 -3.22,-6.228 1.697,-1.209 2.882,-3.091 3.158,-5.259 3.092,7.422 6.562,19.563 6.566,36.712 0,14.822995 -2.194,25.313995 -4.343,32.051995 z"
   id="path69"
   inkscape:connector-curvature="0"
   style="fill:#FCFC14" />
<path
   d="m 81.414455,42.513135 c 0.201,0.142 0.406,0.287 0.618,0.439 -0.163,0.529 -0.252,1.091 -0.252,1.674 0,0.586 0.089,1.15 0.254,1.682 -0.872,-1.006 -1.727,-1.945 -2.547,-2.812 0.71,-0.202 1.36,-0.539 1.927,-0.983 z"
   id="path71"
   inkscape:connector-curvature="0"
   style="fill:#FCFC14" />
<path
   d="m 58.294455,132.79013 c -2.473,-5.364 -6.75,-17.626 -6.755,-38.356995 0,-15.666 2.898,-27.141 5.753,-34.67 0.273,-0.718 0.544,-1.389 0.814,-2.036 0.277,2.166 1.461,4.045 3.157,5.253 -1.946,1.386 -3.22,3.655 -3.221,6.228 0,2.345 1.058,4.439 2.718,5.842 -3.237,1.753 -5.436,5.179 -5.436,9.12 0,3.52 1.757,6.624 4.438,8.498 -2.681,1.874 -4.439,4.979 -4.44,8.498995 0.001,3.519 1.759,6.623 4.44,8.496 -2.681,1.874 -4.439,4.978 -4.44,8.497 0.001,3.984 2.25,7.437 5.544,9.173 -1.541,1.325 -2.527,3.273 -2.572,5.457 z"
   id="path73"
   inkscape:connector-curvature="0"
   style="fill:#FCFC14" />
<path
   d="m 49.350455,42.953135 c 0.211,-0.151 0.417,-0.298 0.618,-0.438 0.565,0.442 1.216,0.779 1.925,0.982 -0.82,0.865 -1.672,1.805 -2.545,2.81 0.165,-0.53 0.254,-1.095 0.254,-1.679 0,-0.584 -0.089,-1.146 -0.252,-1.675 z"
   id="path75"
   inkscape:connector-curvature="0"
   style="fill:#FCFC14" />
<path
   d="m 14.412455,88.662135 c -4.658999,1.017 -8.147999,5.159 -8.147999,10.123002 0,3.900993 2.156,7.294993 5.339999,9.063993 -3.183999,1.77 -5.339999,5.162 -5.339999,9.063 0,5.066 3.635,9.276 8.437999,10.182 -2.58,1.188 -4.306999,3.788 -4.307999,6.714 0,0.306 0.019,0.618 0.06,0.936 0.063,0.499 0.181,0.979 0.337,1.439 -1.933,0.277 -3.833,0.42 -5.685,0.42 -8.858,0 -16.681001,-3.049 -22.257001,-8.043 -5.573,-5.009 -8.932,-11.902 -8.941,-19.949 0.01,-8.59499 3.072,-15.728995 8.284,-20.800995 5.221,-5.061 12.667001,-8.104 21.740001,-8.113 1.742,0 3.546,0.116 5.402,0.353 0.104,3.669 2.115999,6.853 5.077999,8.612 z"
   id="path77"
   inkscape:connector-curvature="0"
   style="fill:#DA251C" />
<path
   d="m -24.104545,140.95513 c 1.074,-1.633 1.704,-3.585 1.705,-5.687 -0.001,-5.726 -4.642,-10.366 -10.368,-10.367 -0.052,0 -0.103,0.007 -0.155,0.008 1.683,-1.793 2.734,-4.18 2.804,-6.815 1.735,5.661 4.992,10.634 9.341,14.518 2.408,2.157 5.148,3.984 8.14,5.444 -5.388,0.543 -9.298,1.929 -11.467,2.899 z"
   id="path79"
   inkscape:connector-curvature="0"
   style="fill:#FCFC14" />
<path
   d="m -1.970544,73.340135 c 0.211,0.435 0.464,0.844 0.75,1.229 -0.564,0.067 -1.122,0.146 -1.675,0.237 0.36,-0.452 0.673,-0.941 0.925,-1.466 z"
   id="path81"
   inkscape:connector-curvature="0"
   style="fill:#FCFC14" />
<path
   d="m -14.057545,75.640135 c 0.751,0.697 1.646,1.239 2.629,1.593 -1.19,0.502 -2.344,1.059 -3.45,1.678 0.499,-0.987 0.797,-2.095 0.821,-3.271 z"
   id="path83"
   inkscape:connector-curvature="0"
   style="fill:#FCFC14" />
<path
   d="m -21.696545,83.125135 c 0.352,0 0.696,-0.032 1.035,-0.078 -0.315,0.283 -0.631,0.567 -0.935,0.862 -0.73,0.708 -1.42,1.453 -2.078,2.228 0.005,-0.119 0.018,-0.237 0.018,-0.357 0,-1.117 -0.245,-2.174 -0.674,-3.13 0.822,0.302 1.706,0.475 2.634,0.475 z"
   id="path85"
   inkscape:connector-curvature="0"
   style="fill:#FCFC14" />
<path
   d="m -31.303545,93.425135 c 1.212,0 2.353,-0.29 3.371,-0.791 -0.637,1.287 -1.199,2.624 -1.672,4.011 -0.521,-1.235 -1.288,-2.341 -2.248,-3.247 0.182,0.013 0.364,0.027 0.549,0.027 z"
   id="path87"
   inkscape:connector-curvature="0"
   style="fill:#FCFC14" />
<path
   d="m -31.493545,106.87713 c -0.025,0.573 -0.039,1.151 -0.038,1.734 -0.002,1.557 0.116,3.079 0.325,4.57 -0.828,-1.646 -2.077,-3.043 -3.61,-4.044 1.266,-0.511 2.395,-1.29 3.323,-2.26 z"
   id="path89"
   inkscape:connector-curvature="0"
   style="fill:#FCFC14" />
<path
   d="m -14.639545,158.32613 c -3.525,0 -6.597,-1.808 -7.62,-4.218 0.522,-1.223 0.992,-2.912 0.992,-5.045 0,-0.18 -0.013,-0.355 -0.026,-0.531 0.016,-0.269 0.026,-0.544 0.026,-0.828 0,-0.672 -0.1,-1.319 -0.281,-1.931 2.037,-0.869 5.884,-2.152 11.245,-2.447 -0.501,1.018 -0.791,2.158 -0.791,3.37 10e-4,3.277 2.0650004,6.063 4.962001,7.152 -1.995,3.288 -3.7470013,4.478 -8.507001,4.478 z"
   id="path91"
   inkscape:connector-curvature="0"
   style="fill:#DA251C" />
<path
   d="m 7.963456,156.28613 c -4.627,0 -6.2389999,-2.318 -6.5199999,-2.791 l -0.281,-0.708 c 1.8419999,-1.396 3.0369999,-3.601 3.0379999,-6.091 0,-1.792 -0.621,-3.436 -1.652,-4.738 0.845,0.05 1.696,0.084 2.557,0.084 0.369,0 0.742,-0.015 1.114,-0.023 -0.203,0.675 -0.317,1.387 -0.317,2.12 0,0.305 0.02,0.617 0.06,0.935 0.474,3.74 3.655,6.477 7.339999,6.478 0.309,0 0.618,-0.021 0.924,-0.058 1.217,-0.153 2.329,-0.596 3.274,-1.246 l -0.695,1.337 c -0.242,0.402 -2.963,4.701 -8.841999,4.701 z"
   id="path93"
   inkscape:connector-curvature="0"
   style="fill:#DA251C" />
<path
   d="m 31.587455,155.09613 c -4.704,0 -6.306,-1.698 -7.912,-3.92 l -0.97,-1.341 c 0.639,0.181 1.309,0.282 1.998,0.282 0.309,0 0.616,-0.02 0.92,-0.057 3.751,-0.476 6.489,-3.655 6.489,-7.342 0,-0.31 -0.02,-0.618 -0.057,-0.925 -0.453,-3.578 -3.37,-6.227 -6.833,-6.463 -0.046,-0.059 -0.094,-0.116 -0.142,-0.174 0.082,-0.438 0.125,-0.888 0.125,-1.346 0,-0.306 -0.02,-0.61 -0.057,-0.913 -0.378,-3 -2.491,-5.347 -5.205,-6.169 4.099,-1.383 7.054,-5.251 7.055,-9.817 -0.001,-3.901 -2.157,-7.294 -5.341,-9.063 3.184,-1.77 5.34,-5.163 5.341,-9.063993 -0.001,-3.796002 -2.047,-7.105002 -5.09,-8.912002 4.659,-1.017 8.147,-5.158 8.149,-10.123 0,-3.107 -1.375,-5.888 -3.541,-7.788 0.179,0.013 0.357,0.027 0.54,0.027 4.224,-0.002 7.646,-3.424 7.648,-7.648 0,-1.353 -0.355,-2.622 -0.972,-3.725 0.264,0.027 0.531,0.042 0.802,0.042 4.225,-10e-4 7.647,-3.422 7.648,-7.646 0,-1.191 -0.28,-2.313 -0.766,-3.318 0.76,0.379 1.614,0.598 2.521,0.598 0.968,0 1.879,-0.244 2.676,-0.672 -0.646,0.822 -1.298,1.677 -1.949,2.569 -7.973,10.932 -15.986,27.259 -15.984,48.523005 0.007,18.61999 6.1,31.34599 8.62,35.81799 -1.619,1.402 -2.647,3.469 -2.648,5.779 10e-4,3.04 1.778,5.657 4.347,6.891 l -0.257,0.389 c -1.507,2.221 -4.823,5.508 -7.155,5.508 z"
   id="path95"
   inkscape:connector-curvature="0"
   style="fill:#FCFC14" />
<path
   d="m 53.681455,154.41713 c -5.196,0 -7.77,-4.156 -7.987,-4.524 l -0.307,-0.59 c 2.685,-1.188 4.559,-3.868 4.561,-6.993 -0.001,-4.154 -3.313,-7.526 -7.439,-7.639 -1.659,-2.748 -8.396,-15.096 -8.39,-33.95899 0.003,-19.865005 7.452,-35.035005 14.941,-45.320005 3.207,-4.4 6.414,-7.882 9.025,-10.424 0.028,0.322 0.076,0.639 0.143,0.948 -1.913,2.689 -12.134,18.534 -12.127,48.517 -0.008,25.101995 6.097,38.731995 8.487,43.099995 -1.265,1.326 -2.044,3.119 -2.046,5.101 0.002,4.089 3.316,7.401 7.406,7.404 0.077,0 0.15,-0.009 0.226,-0.012 -1.814,2.162 -4.311,4.391 -6.493,4.391 z"
   id="path97"
   inkscape:connector-curvature="0"
   style="fill:#DA251C" />
<path
   d="m 77.701455,154.41713 c -2.173,0 -4.684,-2.245 -6.49,-4.393 0.075,0.002 0.148,0.011 0.225,0.011 4.089,-0.001 7.402,-3.313 7.405,-7.402 -10e-4,-1.981 -0.781,-3.773 -2.046,-5.101 2.391,-4.365 8.495,-17.996 8.488,-43.099995 0.007,-29.982 -10.215,-45.827 -12.129,-48.517 0.067,-0.31 0.114,-0.625 0.144,-0.947 2.992,2.912 6.767,7.058 10.426,12.406 6.99,10.221 13.536,24.71 13.539,43.336005 0,10.86799 -2.228,19.56299 -4.44,25.51999 -1.106,2.977 -2.208,5.269 -3.022,6.798 -0.385,0.723 -0.701,1.27 -0.927,1.644 -4.127,0.113 -7.438,3.482 -7.439,7.639 0.002,3.124 1.877,5.806 4.563,6.993 l -0.307,0.588 c -0.217,0.365 -2.792,4.525 -7.99,4.525 z"
   id="path99"
   inkscape:connector-curvature="0"
   style="fill:#DA251C" />
<path
   d="m 99.795455,155.09613 c -2.333,0 -5.648,-3.287 -7.155,-5.508 l -0.262,-0.387 c 2.571,-1.232 4.351,-3.851 4.352,-6.892 -0.001,-2.312 -1.029,-4.378 -2.649,-5.78 2.521,-4.473 8.614015,-17.198 8.621015,-35.81899 0.003,-21.264005 -8.011015,-37.591005 -15.984015,-48.522005 -0.651,-0.894 -1.302,-1.747 -1.948,-2.569 0.797,0.428 1.707,0.672 2.676,0.672 0.907,0 1.762,-0.219 2.521,-0.598 -0.485,1.005 -0.765,2.127 -0.766,3.317 0.002,4.226 3.423,7.646 7.648,7.648 0.271,0 0.537,-0.016 0.801,-0.042 -0.616,1.102 -0.971,2.371 -0.971,3.724 10e-4,4.226 3.422995,7.647 7.648015,7.647 0.182,0 0.359,-0.015 0.538,-0.027 -2.166,1.899 -3.541,4.681 -3.542,7.79 0.002,4.963 3.491,9.105 8.149,10.123 -3.043,1.806 -5.09,5.114 -5.09,8.911002 0,3.900993 2.156,7.294993 5.342,9.063993 -3.186,1.769 -5.342,5.162 -5.342,9.063 0,4.566 2.955,8.434 7.054,9.817 -2.714,0.822 -4.826,3.168 -5.204,6.164 -0.041,0.307 -0.058,0.617 -0.058,0.917 -0.001,0.459 0.042,0.91 0.124,1.349 -0.047,0.057 -0.093,0.113 -0.139,0.171 -3.465,0.236 -6.384015,2.886 -6.836015,6.462 -0.041,0.309 -0.059,0.626 -0.059,0.927 0.003,3.686 2.739015,6.867 6.484015,7.341 0.309,0.038 0.617,0.058 0.927,0.058 0.689,0 1.359,-0.102 1.999,-0.282 l -0.97,1.341 c -1.603,2.222 -3.205,3.92 -7.909015,3.92 z"
   id="path101"
   inkscape:connector-curvature="0"
   style="fill:#FCFC14" />
<path
   d="m 123.41946,156.28613 c -6.086,0 -8.807,-4.638 -8.832,-4.685 l -0.772,-1.405 c 0.959,0.677 2.092,1.14 3.336,1.296 0.311,0.039 0.618,0.058 0.929,0.058 3.685,0 6.866,-2.736 7.342,-6.481 0.037,-0.315 0.057,-0.62 0.057,-0.929 0,-0.734 -0.114,-1.446 -0.317,-2.122 0.371,0.009 0.744,0.023 1.113,0.023 0.002,0 0.005,0 0.007,0 0.859,0 1.709,-0.034 2.554,-0.084 -1.032,1.304 -1.652,2.947 -1.652,4.739 0,2.489 1.195,4.694 3.036,6.09 l -0.279,0.709 c -0.284,0.473 -1.896,2.791 -6.522,2.791 z"
   id="path103"
   inkscape:connector-curvature="0"
   style="fill:#DA251C" />
<path
   d="m 146.02246,158.32613 c -4.761,0 -6.512,-1.189 -8.507,-4.478 2.896,-1.089 4.961,-3.875 4.962,-7.152 -0.001,-1.212 -0.289,-2.353 -0.791,-3.37 3.883,0.214 6.973,0.942 9.154,1.661 0.837,0.276 1.526,0.547 2.091,0.788 -0.182,0.611 -0.28,1.258 -0.28,1.929 0,0.284 0.01,0.56 0.026,0.828 -0.015,0.176 -0.026,0.352 -0.026,0.531 0,2.133 0.47,3.822 0.991,5.045 -1.023,2.41 -4.096,4.218 -7.62,4.218 z"
   id="path105"
   inkscape:connector-curvature="0"
   style="fill:#DA251C" />
<path
   d="m 65.691455,52.842135 c -2.159,0.004 -3.905,1.75 -3.909,3.909 0.004,2.158 1.75,3.905 3.909,3.908 2.157,-0.003 3.905,-1.75 3.908,-3.908 -0.003,-2.159 -1.751,-3.906 -3.908,-3.909 z"
   id="path107"
   inkscape:connector-curvature="0"
   style="fill:#B38C0B" />
<path
   d="m 27.055455,68.250135 c 2.157,-0.004 3.905,-1.751 3.909,-3.909 -0.004,-2.159 -1.752,-3.905 -3.909,-3.908 -2.159,0.003 -3.906,1.749 -3.91,3.908 0.004,2.158 1.751,3.905 3.91,3.909 z"
   id="path109"
   inkscape:connector-curvature="0"
   style="fill:#B38C0B" />
<path
   d="m 65.691455,65.298135 c -2.159,0.004 -3.905,1.75 -3.909,3.909 0.004,2.158 1.75,3.905 3.909,3.908 2.157,-0.003 3.905,-1.75 3.908,-3.908 -0.003,-2.159 -1.751,-3.906 -3.908,-3.909 z"
   id="path111"
   inkscape:connector-curvature="0"
   style="fill:#B38C0B" />
<path
   d="m 42.299455,138.39913 c -2.158,0.005 -3.905,1.75 -3.908,3.91 0.003,2.157 1.75,3.903 3.908,3.908 2.158,-0.005 3.905,-1.751 3.909,-3.908 -0.003,-2.16 -1.75,-3.905 -3.909,-3.91 z"
   id="path113"
   inkscape:connector-curvature="0"
   style="fill:#B38C0B" />
<path
   d="m 43.936455,47.572135 c 1.627,-0.003 2.943,-1.32 2.946,-2.944 -0.002,-1.629 -1.319,-2.945 -2.946,-2.947 -1.626,0.002 -2.942,1.318 -2.945,2.947 0.003,1.624 1.319,2.941 2.945,2.944 z"
   id="path115"
   inkscape:connector-curvature="0"
   style="fill:#B38C0B" />
<path
   d="m 34.533455,56.920135 c 2.158,-0.004 3.904,-1.752 3.909,-3.908 -0.004,-2.159 -1.75,-3.905 -3.909,-3.91 -2.158,0.005 -3.906,1.751 -3.91,3.91 0.004,2.156 1.752,3.904 3.91,3.908 z"
   id="path117"
   inkscape:connector-curvature="0"
   style="fill:#B38C0B" />
<path
   d="m 53.454455,35.110135 c -1.627,0.002 -2.942,1.318 -2.945,2.945 0.003,1.625 1.318,2.942 2.945,2.945 1.627,-0.003 2.943,-1.32 2.946,-2.945 -0.003,-1.627 -1.319,-2.943 -2.946,-2.945 z"
   id="path119"
   inkscape:connector-curvature="0"
   style="fill:#B38C0B" />
<path
   d="m 16.631455,92.156135 c -3.661,0.008 -6.621999,2.97 -6.628999,6.629002 0.007,3.658993 2.967999,6.620993 6.628999,6.627993 3.66,-0.007 6.622,-2.969 6.627,-6.627993 -0.005,-3.659002 -2.967,-6.621002 -6.627,-6.629002 z"
   id="path121"
   inkscape:connector-curvature="0"
   style="fill:#B38C0B" />
<path
   d="m 65.690455,35.959135 c 3.659,-0.007 6.622,-2.968 6.628,-6.629 h 0.001 c -0.007,-3.659 -2.97,-6.62 -6.629,-6.627 -3.66,0.007 -6.622,2.968 -6.627,6.627 0.005,3.661 2.967,6.622 6.627,6.629 z"
   id="path123"
   inkscape:connector-curvature="0"
   style="fill:#B38C0B" />
<path
   d="m 65.691455,40.385135 c -2.159,0.003 -3.905,1.75 -3.909,3.908 0.004,2.159 1.75,3.905 3.909,3.909 2.157,-0.004 3.905,-1.75 3.908,-3.909 -0.003,-2.158 -1.751,-3.905 -3.908,-3.908 z"
   id="path125"
   inkscape:connector-curvature="0"
   style="fill:#B38C0B" />
<path
   d="m 69.599455,11.316136 c -0.003,-2.1570002 -1.751,-3.9050005 -3.908,-3.9080005 -2.159,0.003 -3.905,1.7510003 -3.909,3.9080005 0.004,2.159 1.75,3.904999 3.909,3.908999 2.157,-0.004 3.905,-1.749999 3.908,-3.908999 z"
   id="path127"
   inkscape:connector-curvature="0"
   style="fill:#B38C0B" />
<path
   d="m 77.927455,41.001135 c 1.626,-0.003 2.943,-1.32 2.946,-2.945 -0.003,-1.628 -1.32,-2.943 -2.946,-2.946 -1.627,0.003 -2.942,1.318 -2.945,2.946 0.003,1.624 1.318,2.942 2.945,2.945 z"
   id="path129"
   inkscape:connector-curvature="0"
   style="fill:#B38C0B" />
<path
   d="m -21.696545,71.568135 c -2.158,0.005 -3.906,1.75 -3.91,3.91 0.004,2.157 1.752,3.905 3.91,3.907 2.157,-0.002 3.904,-1.75 3.907,-3.907 -0.003,-2.16 -1.75,-3.905 -3.907,-3.91 z"
   id="path131"
   inkscape:connector-curvature="0"
   style="fill:#B38C0B" />
<path
   d="m -39.396545,135.26813 c 0.006,3.66 2.967,6.621 6.628,6.628 3.661,-0.007 6.622,-2.968 6.627,-6.628 -0.005,-3.66 -2.967,-6.622 -6.627,-6.628 -3.661,0.006 -6.622,2.968 -6.628,6.628 z"
   id="path133"
   inkscape:connector-curvature="0"
   style="fill:#B38C0B" />
<path
   d="m -40.473545,111.19113 c -3.659,0.007 -6.622,2.968 -6.627,6.629 0.005,3.66 2.968,6.621 6.627,6.628 3.66,-0.007 6.623,-2.968 6.628,-6.628 -0.005,-3.661 -2.968,-6.622 -6.628,-6.629 z"
   id="path135"
   inkscape:connector-curvature="0"
   style="fill:#B38C0B" />
<path
   d="m -38.375545,94.537135 c -3.192,0.005 -5.773,2.587 -5.779,5.778005 0.006,3.18999 2.587,5.77099 5.779,5.77699 3.19,-0.006 5.771,-2.587 5.777,-5.77699 -0.006,-3.191005 -2.587,-5.773005 -5.777,-5.778005 z"
   id="path137"
   inkscape:connector-curvature="0"
   style="fill:#B38C0B" />
<path
   d="m -3.446544,142.78713 c -2.159,0.004 -3.905,1.75 -3.909,3.909 0.004,2.157 1.75,3.905 3.909,3.907 2.159,-0.002 3.90500014,-1.75 3.90900014,-3.907 -0.004,-2.159 -1.75000014,-3.905 -3.90900014,-3.909 z"
   id="path139"
   inkscape:connector-curvature="0"
   style="fill:#B38C0B" />
<path
   d="m -31.303545,81.869135 c -2.159,0.004 -3.906,1.75 -3.909,3.91 0.002,2.157 1.75,3.904 3.909,3.907 2.157,-0.003 3.905,-1.75 3.909,-3.907 -0.004,-2.16 -1.752,-3.906 -3.909,-3.91 z"
   id="path141"
   inkscape:connector-curvature="0"
   style="fill:#B38C0B" />
<path
   d="m 16.631455,110.28513 c -3.661,0.008 -6.621999,2.968 -6.628999,6.628 0.007,3.66 2.967999,6.622 6.628999,6.629 3.66,-0.007 6.622,-2.969 6.627,-6.629 -0.005,-3.66 -2.967,-6.62 -6.627,-6.628 z"
   id="path143"
   inkscape:connector-curvature="0"
   style="fill:#B38C0B" />
<path
   d="m 17.344455,130.17813 c -1.855,0.229 -3.212,1.816 -3.21,3.63 0,0.154 0.01,0.307 0.029,0.466 0.075,0.593 0.286,1.124 0.604,1.595 l 0.705,1.037 -0.693,1.047 c -0.26,0.394 -0.46,0.817 -0.591,1.264 l -0.33,1.125 -1.156,0.194 c -1.773999,0.294 -3.062999,1.842 -3.061999,3.603 0.002,0.154 0.01,0.306 0.031,0.463 0.229,1.854 1.816999,3.211 3.629999,3.209 0.15,0 0.306,-0.009 0.464,-0.028 1.162,-0.146 2.114,-0.814 2.681,-1.751 l 0.603,-1.001 1.165,0.103 c 0.15,0.014 0.296,0.021 0.443,0.021 0.187,0 0.374,-0.011 0.563,-0.034 0.333,-0.042 0.657,-0.121 0.974,-0.233 l 1.104,-0.393 0.834,0.823 c 0.675,0.666 1.588,1.063 2.571,1.063 0.148,0 0.306,-0.01 0.461,-0.029 1.851,-0.229 3.21,-1.818 3.209,-3.631 0,-0.151 -0.01,-0.307 -0.029,-0.463 -0.229,-1.853 -1.813,-3.203 -3.63,-3.203 -0.109,0 -0.208,0.004 -0.3,0.013 l -1.177,0.106 -0.602,-1.017 c -0.236,-0.402 -0.535,-0.764 -0.884,-1.079 l -0.931,-0.842 0.427,-1.179 c 0.143,-0.397 0.22,-0.813 0.22,-1.244 0,-0.148 -0.01,-0.302 -0.028,-0.453 -0.229,-1.854 -1.819,-3.21 -3.632,-3.21 -0.156,-10e-4 -0.308,0.009 -0.463,0.028 z"
   id="path145"
   inkscape:connector-curvature="0"
   style="fill:#B38C0B" />
<path
   d="m 4.903456,66.097135 c -2.158,0.003 -3.90399986,1.749 -3.90799986,3.91 0.004,2.156 1.74999986,3.904 3.90799986,3.906 2.159,-0.002 3.905,-1.75 3.91,-3.906 -0.004,-2.161 -1.75,-3.907 -3.91,-3.91 z"
   id="path147"
   inkscape:connector-curvature="0"
   style="fill:#B38C0B" />
<path
   d="m 72.318455,84.169135 0,0 c -0.006,-3.659 -2.969,-6.62 -6.628,-6.628 -3.66,0.008 -6.622,2.969 -6.627,6.628 0.005,3.66 2.967,6.622 6.627,6.629 3.659,-0.007 6.622,-2.969 6.628,-6.629 z"
   id="path149"
   inkscape:connector-curvature="0"
   style="fill:#B38C0B" />
<path
   d="m -8.861544,66.131135 c -2.159001,0.004 -3.905001,1.75 -3.909001,3.909 0.004,2.158 1.75,3.904 3.909001,3.908 2.158,-0.004 3.904,-1.75 3.908,-3.908 -0.003,-2.159 -1.75,-3.906 -3.908,-3.909 z"
   id="path151"
   inkscape:connector-curvature="0"
   style="fill:#B38C0B" />
<path
   d="m 19.690455,73.123135 c -3.659,0.006 -6.622,2.968 -6.627,6.627 0.005,3.659 2.968,6.622 6.627,6.629 3.66,-0.007 6.622,-2.97 6.628,-6.629 -0.007,-3.659 -2.969,-6.621 -6.628,-6.627 z"
   id="path153"
   inkscape:connector-curvature="0"
   style="fill:#B38C0B" />
<path
   d="m 111.69146,73.122135 c -3.66,0.007 -6.621,2.968 -6.627,6.629 0.006,3.659 2.967,6.621 6.627,6.628 3.659,-0.007 6.622,-2.969 6.628,-6.628 -0.006,-3.661 -2.969,-6.622 -6.628,-6.629 z"
   id="path155"
   inkscape:connector-curvature="0"
   style="fill:#B38C0B" />
<path
   d="m 156.98846,75.478135 c -0.003,-2.16 -1.751,-3.906 -3.908,-3.909 -2.158,0.003 -3.905,1.749 -3.909,3.909 0.004,2.157 1.751,3.904 3.909,3.908 2.157,-0.003 3.905,-1.751 3.908,-3.908 z"
   id="path157"
   inkscape:connector-curvature="0"
   style="fill:#B38C0B" />
<path
   d="m 117.21646,134.28113 c 0.021,-0.164 0.03,-0.322 0.03,-0.473 0,-1.814 -1.355,-3.401 -3.213,-3.631 -0.155,-0.02 -0.307,-0.028 -0.461,-0.029 -1.813,0 -3.401,1.356 -3.632,3.226 -0.02,0.138 -0.027,0.285 -0.027,0.438 0,0.43 0.077,0.847 0.22,1.244 l 0.427,1.18 -0.93,0.841 c -0.35,0.316 -0.647,0.679 -0.885,1.08 l -0.603,1.016 -1.174,-0.105 c -0.098,-0.009 -0.197,-0.013 -0.304,-0.013 -1.816,0 -3.4,1.351 -3.632,3.219 -0.019,0.141 -0.029,0.289 -0.027,0.447 -0.002,1.813 1.356,3.403 3.206,3.631 0.156,0.02 0.313,0.029 0.465,0.029 0.982,0 1.896,-0.398 2.571,-1.064 l 0.834,-0.822 1.104,0.393 c 0.317,0.112 0.642,0.191 0.974,0.233 0.187,0.022 0.375,0.034 0.563,0.034 0.146,0 0.294,-0.007 0.443,-0.02 l 1.164,-0.105 0.604,1.003 c 0.567,0.937 1.52,1.605 2.68,1.751 0.156,0.02 0.313,0.029 0.465,0.029 1.813,0 3.403,-1.356 3.63,-3.197 0.02,-0.166 0.031,-0.326 0.029,-0.475 0.002,-1.762 -1.285,-3.31 -3.06,-3.604 l -1.157,-0.193 -0.328,-1.127 c -0.13,-0.445 -0.331,-0.87 -0.591,-1.263 l -0.694,-1.048 0.705,-1.036 c 0.32,-0.472 0.531,-1.003 0.604,-1.589 z"
   id="path159"
   inkscape:connector-curvature="0"
   style="fill:#B38C0B" />
<path
   d="m 126.47746,66.097135 c -2.157,0.003 -3.905,1.749 -3.908,3.909 0.003,2.157 1.751,3.904 3.908,3.908 2.158,-0.004 3.905,-1.751 3.909,-3.908 -0.004,-2.16 -1.751,-3.906 -3.909,-3.909 z"
   id="path161"
   inkscape:connector-curvature="0"
   style="fill:#B38C0B" />
<path
   d="m 114.75146,110.28513 c -3.66,0.008 -6.622,2.968 -6.628,6.628 0.006,3.66 2.968,6.622 6.628,6.63 3.66,-0.008 6.622,-2.97 6.628,-6.63 -0.006,-3.66 -2.968,-6.62 -6.628,-6.628 z"
   id="path163"
   inkscape:connector-curvature="0"
   style="fill:#B38C0B" />
<path
   d="m 108.12346,98.785137 c 0.006,3.659993 2.968,6.621993 6.628,6.627993 3.66,-0.006 6.622,-2.968 6.628,-6.627993 -0.006,-3.660002 -2.968,-6.621002 -6.628,-6.628002 -3.661,0.007 -6.622,2.968 -6.628,6.628002 z"
   id="path165"
   inkscape:connector-curvature="0"
   style="fill:#B38C0B" />
<path
   d="m 140.24446,66.130135 c -2.159,0.005 -3.906,1.75 -3.909,3.91 0.003,2.157 1.75,3.904 3.909,3.908 2.157,-0.004 3.905,-1.751 3.908,-3.908 -0.003,-2.16 -1.751,-3.906 -3.908,-3.91 z"
   id="path167"
   inkscape:connector-curvature="0"
   style="fill:#B38C0B" />
<path
   d="m 72.318455,101.16613 c -0.006,-3.660995 -2.969,-6.621995 -6.628,-6.629995 -3.66,0.008 -6.622,2.969 -6.627,6.629995 0.005,3.658 2.967,6.62 6.627,6.627 3.659,-0.007 6.622,-2.969 6.628,-6.627 z"
   id="path169"
   inkscape:connector-curvature="0"
   style="fill:#B38C0B" />
<path
   d="m 164.15046,128.63913 c -3.659,0.008 -6.622,2.969 -6.627,6.629 0.005,3.66 2.968,6.622 6.627,6.628 3.659,-0.006 6.622,-2.968 6.628,-6.628 -0.006,-3.66 -2.969,-6.621 -6.628,-6.629 z"
   id="path171"
   inkscape:connector-curvature="0"
   style="fill:#B38C0B" />
<path
   d="m 175.53746,100.31514 c -0.005,-3.191005 -2.588,-5.772005 -5.778,-5.778005 -3.189,0.006 -5.772,2.587 -5.778,5.778005 0.006,3.18999 2.589,5.77099 5.778,5.77699 3.19,-0.005 5.773,-2.586 5.778,-5.77699 z"
   id="path173"
   inkscape:connector-curvature="0"
   style="fill:#B38C0B" />
<path
   d="m 171.85546,124.44813 c 3.66,-0.007 6.622,-2.969 6.628,-6.628 -0.006,-3.66 -2.968,-6.622 -6.628,-6.628 -3.66,0.006 -6.622,2.968 -6.627,6.628 0.005,3.659 2.967,6.621 6.627,6.628 z"
   id="path175"
   inkscape:connector-curvature="0"
   style="fill:#B38C0B" />
<path
   d="m 166.59346,85.779135 c -0.003,-2.16 -1.749,-3.906 -3.907,-3.91 -2.158,0.004 -3.906,1.75 -3.908,3.91 0.002,2.156 1.75,3.903 3.908,3.907 2.158,-0.004 3.904,-1.751 3.907,-3.907 z"
   id="path177"
   inkscape:connector-curvature="0"
   style="fill:#B38C0B" />
<path
   d="m 65.690455,124.78813 c 3.659,-0.007 6.622,-2.969 6.628,-6.629 -0.006,-3.659 -2.969,-6.62 -6.628,-6.627 -3.66,0.007 -6.622,2.968 -6.627,6.627 0.005,3.66 2.967,6.622 6.627,6.629 z"
   id="path179"
   inkscape:connector-curvature="0"
   style="fill:#B38C0B" />
<path
   d="m 71.587455,138.97513 -1.174,-0.049 -0.466,-1.075 c -0.186,-0.428 -0.437,-0.824 -0.743,-1.18 l -0.82,-0.952 0.572,-1.118 c 0.257,-0.506 0.4,-1.06 0.4,-1.658 -0.004,-2.025 -1.644,-3.662 -3.665,-3.667 -2.024,0.005 -3.663,1.642 -3.667,3.667 10e-4,0.599 0.144,1.152 0.402,1.658 l 0.57,1.118 -0.819,0.952 c -0.307,0.355 -0.558,0.752 -0.743,1.18 l -0.467,1.075 -1.173,0.049 c -1.952,0.078 -3.515,1.683 -3.514,3.657 0.004,2.021 1.644,3.66 3.667,3.664 1.172,-0.001 2.199,-0.545 2.878,-1.402 l 0.725,-0.921 1.144,0.249 c 0.331,0.073 0.662,0.111 0.998,0.111 0.334,0 0.666,-0.038 0.995,-0.111 l 1.144,-0.251 0.727,0.921 c 0.68,0.859 1.707,1.403 2.879,1.404 2.021,-0.004 3.662,-1.643 3.666,-3.664 0,-1.974 -1.563,-3.579 -3.516,-3.657 z"
   id="path181"
   inkscape:connector-curvature="0"
   style="fill:#B38C0B" />
<path
   d="m 89.082455,138.39913 c -2.158,0.005 -3.905,1.751 -3.909,3.911 0.004,2.156 1.751,3.904 3.909,3.907 2.158,-0.003 3.905,-1.751 3.908,-3.907 -0.003,-2.16 -1.75,-3.906 -3.908,-3.911 z"
   id="path183"
   inkscape:connector-curvature="0"
   style="fill:#B38C0B" />
<path
   d="m 134.82946,142.78613 c -2.157,0.005 -3.905,1.751 -3.908,3.91 0.003,2.157 1.751,3.905 3.908,3.908 2.159,-0.003 3.905,-1.751 3.907,-3.908 -0.002,-2.159 -1.748,-3.905 -3.907,-3.91 z"
   id="path185"
   inkscape:connector-curvature="0"
   style="fill:#B38C0B" />
<path
   d="m 100.75846,53.010135 c -0.005,-2.158 -1.752005,-3.905 -3.909005,-3.908 -2.158,0.003 -3.905,1.75 -3.908,3.908 0.003,2.158 1.75,3.904 3.908,3.909 2.157,-0.004 3.905005,-1.75 3.909005,-3.909 z"
   id="path187"
   inkscape:connector-curvature="0"
   style="fill:#B38C0B" />
<path
   d="m 87.445455,41.681135 c -1.627,0.001 -2.943,1.317 -2.946,2.945 0.003,1.626 1.319,2.942 2.946,2.945 1.626,-0.003 2.942,-1.319 2.945,-2.945 -0.003,-1.627 -1.319,-2.944 -2.945,-2.945 z"
   id="path189"
   inkscape:connector-curvature="0"
   style="fill:#B38C0B" />
<path
   d="m 108.23647,64.341135 c -0.004,-2.158 -1.752,-3.905 -3.908,-3.909 -2.159,0.004 -3.90601,1.751 -3.91001,3.909 0.004,2.158 1.75101,3.905 3.91001,3.908 2.156,-0.003 3.904,-1.75 3.908,-3.908 z"
   id="path191"
   inkscape:connector-curvature="0"
   style="fill:#B38C0B" />
<path
   d="m 159.10947,146.51313 c 2.207,0 3.993,2.465 3.993,2.465 0,0 1.661,-1.687 4.229,-1.687 0.708,0 1.484,0.129 2.315,0.457 -13.257,11.366 -5.739,20.944 -25.493,20.944 -7.818,0 -58.974015,-5.623 -78.462015,-5.623 -19.488,0 -70.643999,5.623 -78.462,5.623 -19.754,0 -12.236,-9.578 -25.493,-20.944 0.831,-0.328 1.607,-0.457 2.316,-0.457 2.566,10e-4 4.227,1.687 4.227,1.687 0,0 1.787,-2.465 3.994,-2.465 1.315,0 2.379,1.141 2.379,2.55 0,3.059 -1.36,4.674 -1.36,4.674 0,5.542 5.397,10.027 12.067,10.027 6.857001,0 9.687001,-2.405 12.406001,-7.139 0,0 2.37900014,5.099 10.197,5.099 8.666999,0 12.406999,-6.798 12.406999,-6.798 2.241,3.1 5.017,5.608 11.217,5.608 8.498,0 10.537,-7.308 10.537,-7.308 0,0 1.359,6.628 11.557,6.628 6.639,0 10.666,-3.569 12.01,-9.178 1.345,5.608 5.372,9.178 12.01,9.178 10.197,0 11.558,-6.628 11.558,-6.628 0,0 2.039,7.308 10.537,7.308 6.199015,0 8.976015,-2.509 11.217015,-5.608 0,0 3.738,6.798 12.406,6.798 7.818,0 10.197,-5.099 10.197,-5.099 2.719,4.733 5.549,7.139 12.406,7.139 6.67,0 12.067,-4.485 12.067,-10.027 0,0 -1.36,-1.615 -1.36,-4.674 0.001,-1.409 1.066,-2.55 2.381,-2.55"
   id="path193"
   inkscape:connector-curvature="0"
   style="fill:#B38C0B" />
<path
   d="m 137.21247,180.56313 c 0.397,-3.275 5.321,-5.372 10.998,-4.684 0.458,0.055 0.902,0.132 1.34,0.22 l 0.347,-1.424 c 0,0 -47.042,-6.775 -84.205015,-6.775 -37.163,0 -84.205,6.775 -84.205,6.775 l 0.346,1.424 c 0.438,-0.088 0.882,-0.165 1.34,-0.22 5.677,-0.688 10.601001,1.408 10.998001,4.684 0.396,3.264 -3.8550011,6.465 -9.505001,7.167 l 0.487,2.001 c 4.8529997,-3.258 40.43,-7.782 80.539,-7.782 40.108015,0 75.687015,4.524 80.538015,7.782 l 0.487,-2.001 c -5.649,-0.702 -9.901,-3.903 -9.505,-7.167 z"
   id="path195"
   inkscape:connector-curvature="0"
   style="fill:#FCFC14" />
<ellipse
   cx="307.5"
   cy="284.64499"
   rx="12.322"
   ry="5.8460002"
   id="ellipse197"
   sodipodi:cx="307.5"
   sodipodi:cy="284.64499"
   sodipodi:rx="12.322"
   sodipodi:ry="5.8460002"
   transform="translate(-241.80854,-109.72087)" />
<ellipse
   cx="307.5"
   cy="284.737"
   rx="8.7150002"
   ry="4.1350002"
   id="ellipse199"
   sodipodi:cx="307.5"
   sodipodi:cy="284.737"
   sodipodi:rx="8.7150002"
   sodipodi:ry="4.1350002"
   style="fill:#DA251C"
   transform="translate(-241.80854,-109.72087)" />
<ellipse
   transform="matrix(0.9927,-0.1204,0.1204,0.9927,-275.26594,-80.426765)"
   cx="225.7"
   cy="291.53"
   rx="6.9390001"
   ry="4.0029998"
   id="ellipse201"
   sodipodi:cx="225.7"
   sodipodi:cy="291.53"
   sodipodi:rx="6.9390001"
   sodipodi:ry="4.0029998"
   style="fill:#DA251C" />
<path
   d="m 38.079455,172.26713 -27.297999,1.752 c -2.715,0.174 -4.786,2.094 -4.625,4.286 0.161,2.192 2.493,3.829 5.207999,3.655 l 27.298,-1.752 c 2.715,-0.175 4.787,-2.094 4.625,-4.286 -0.16,-2.192 -2.492,-3.829 -5.208,-3.655 z"
   id="path203"
   inkscape:connector-curvature="0" />
<path
   d="m 34.672455,174.46813 -20.407,1.247 c -2.029,0.124 -3.561999,1.13 -3.421999,2.247 0.14,1.116 1.898999,1.921 3.928999,1.797 l 20.406,-1.247 c 2.029,-0.124 3.562,-1.13 3.422,-2.247 -0.139,-1.116 -1.899,-1.921 -3.928,-1.797 z"
   id="path205"
   inkscape:connector-curvature="0"
   style="fill:#DA251C" />
<ellipse
   transform="matrix(-0.9927,-0.1204,0.1204,-0.9927,498.86396,518.08543)"
   cx="389.29999"
   cy="291.53"
   rx="6.9400001"
   ry="4.0029998"
   id="ellipse207"
   sodipodi:cx="389.29999"
   sodipodi:cy="291.53"
   sodipodi:rx="6.9400001"
   sodipodi:ry="4.0029998"
   style="fill:#DA251C" />
<path
   d="m 93.303455,172.26713 27.298015,1.752 c 2.715,0.174 4.786,2.094 4.625,4.286 -0.16,2.192 -2.493,3.829 -5.209,3.655 l -27.298015,-1.752 c -2.715,-0.175 -4.786,-2.094 -4.625,-4.286 0.16,-2.192 2.493,-3.829 5.209,-3.655 z"
   id="path209"
   inkscape:connector-curvature="0" />
<path
   d="m 96.711455,174.46813 20.406015,1.247 c 2.029,0.124 3.562,1.13 3.423,2.247 -0.141,1.116 -1.899,1.921 -3.929,1.797 l -20.407015,-1.247 c -2.029,-0.124 -3.562,-1.13 -3.422,-2.247 0.139,-1.116 1.899,-1.921 3.929,-1.797 z"
   id="path211"
   inkscape:connector-curvature="0"
   style="fill:#DA251C" />
</svg>