<?xml version="1.0" encoding="UTF-8" standalone="no"?>
<!-- Created with Inkscape (http://www.inkscape.org/) -->
<svg
   xmlns:dc="http://purl.org/dc/elements/1.1/"
   xmlns:cc="http://web.resource.org/cc/"
   xmlns:rdf="http://www.w3.org/1999/02/22-rdf-syntax-ns#"
   xmlns:svg="http://www.w3.org/2000/svg"
   xmlns="http://www.w3.org/2000/svg"
   xmlns:sodipodi="http://inkscape.sourceforge.net/DTD/sodipodi-0.dtd"
   xmlns:inkscape="http://www.inkscape.org/namespaces/inkscape"
   id="svg2"
   sodipodi:version="0.32"
   inkscape:version="0.43"
   width="800"
   height="800"
   sodipodi:docbase="C:\Documents and Settings\Angelo\Desktop"
   sodipodi:docname="Spezia 1906 logo.svg"
   version="1.0">
  <metadata
     id="metadata7">
    <rdf:RDF>
      <cc:Work
         rdf:about="">
        <dc:format>image/svg+xml</dc:format>
        <dc:type
           rdf:resource="http://purl.org/dc/dcmitype/StillImage" />
        <dc:title>Spezia 1906 Calcio (SVG Version Logo)</dc:title>
        <dc:creator>
          <cc:Agent>
            <dc:title>Angelo Romano (Wikipedia user:Angelo.romano)</dc:title>
          </cc:Agent>
        </dc:creator>
        <dc:rights>
          <cc:Agent>
            <dc:title>No Rights Reserved</dc:title>
          </cc:Agent>
        </dc:rights>
        <cc:license
           rdf:resource="http://web.resource.org/cc/PublicDomain" />
      </cc:Work>
      <cc:License
         rdf:about="http://web.resource.org/cc/PublicDomain">
        <cc:permits
           rdf:resource="http://web.resource.org/cc/Reproduction" />
        <cc:permits
           rdf:resource="http://web.resource.org/cc/Distribution" />
        <cc:permits
           rdf:resource="http://web.resource.org/cc/DerivativeWorks" />
      </cc:License>
    </rdf:RDF>
  </metadata>
  <defs
     id="defs5" />
  <sodipodi:namedview
     inkscape:window-height="740"
     inkscape:window-width="1280"
     inkscape:pageshadow="2"
     inkscape:pageopacity="0.0"
     borderopacity="1.0"
     bordercolor="#666666"
     pagecolor="#ffffff"
     id="base"
     inkscape:zoom="0.5"
     inkscape:cx="730.8581"
     inkscape:cy="258.54955"
     inkscape:window-x="-4"
     inkscape:window-y="-4"
     inkscape:current-layer="svg2" />
  <g
     id="g1351"
     transform="matrix(7.999996,0,0,7.999996,-1998.724,-1326.896)">
    <path
       transform="matrix(1.005506,0,0,1.001953,171.8264,-13.99665)"
       d="M 177.03949 229.41072 A 49.726231 49.902565 0 1 1  77.587032,229.41072 A 49.726231 49.902565 0 1 1  177.03949 229.41072 z"
       sodipodi:ry="49.902565"
       sodipodi:rx="49.726231"
       sodipodi:cy="229.41072"
       sodipodi:cx="127.31326"
       id="path1349"
       style="fill:#99834a;fill-opacity:1;stroke:#00c4d9;stroke-width:0;stroke-miterlimit:4;stroke-dasharray:none;stroke-opacity:0.95744683"
       sodipodi:type="arc" />
    <path
       transform="matrix(0.892031,0,0,0.888879,186.2733,11.94374)"
       d="M 177.03949 229.41072 A 49.726231 49.902565 0 1 1  77.587032,229.41072 A 49.726231 49.902565 0 1 1  177.03949 229.41072 z"
       sodipodi:ry="49.902565"
       sodipodi:rx="49.726231"
       sodipodi:cy="229.41072"
       sodipodi:cx="127.31326"
       id="path1351"
       style="fill:#1f1a17;fill-opacity:1;stroke:#00c4d9;stroke-width:0;stroke-miterlimit:4;stroke-dasharray:none;stroke-opacity:0.95744683"
       sodipodi:type="arc" />
    <path
       transform="matrix(0.826837,0,0,0.823915,194.5734,26.84715)"
       d="M 177.03949 229.41072 A 49.726231 49.902565 0 1 1  77.587032,229.41072 A 49.726231 49.902565 0 1 1  177.03949 229.41072 z"
       sodipodi:ry="49.902565"
       sodipodi:rx="49.726231"
       sodipodi:cy="229.41072"
       sodipodi:cx="127.31326"
       id="path2232"
       style="fill:#ffffff;fill-opacity:1;stroke:#00c4d9;stroke-width:0;stroke-miterlimit:4;stroke-dasharray:none;stroke-opacity:0.95744683"
       sodipodi:type="arc" />
    <path
       transform="matrix(0.571075,0,0,0.569057,227.1353,85.31431)"
       d="M 177.03949 229.41072 A 49.726231 49.902565 0 1 1  77.587032,229.41072 A 49.726231 49.902565 0 1 1  177.03949 229.41072 z"
       sodipodi:ry="49.902565"
       sodipodi:rx="49.726231"
       sodipodi:cy="229.41072"
       sodipodi:cx="127.31326"
       id="path2234"
       style="fill:#1f1a17;fill-opacity:1;stroke:#00c4d9;stroke-width:0;stroke-miterlimit:4;stroke-dasharray:none;stroke-opacity:0.95744683"
       sodipodi:type="arc" />
    <path
       transform="matrix(0.505881,0,0,0.504093,235.4354,100.2177)"
       d="M 177.03949 229.41072 A 49.726231 49.902565 0 1 1  77.587032,229.41072 A 49.726231 49.902565 0 1 1  177.03949 229.41072 z"
       sodipodi:ry="49.902565"
       sodipodi:rx="49.726231"
       sodipodi:cy="229.41072"
       sodipodi:cx="127.31326"
       id="path2236"
       style="fill:#ffffff;fill-opacity:1;stroke:#00c4d9;stroke-width:0;stroke-miterlimit:4;stroke-dasharray:none;stroke-opacity:0.95744683"
       sodipodi:type="arc" />
    <path
       transform="matrix(0.450716,0,0,0.449124,242.4586,112.8282)"
       d="M 177.03949 229.41072 A 49.726231 49.902565 0 1 1  77.587032,229.41072 A 49.726231 49.902565 0 1 1  177.03949 229.41072 z"
       sodipodi:ry="49.902565"
       sodipodi:rx="49.726231"
       sodipodi:cy="229.41072"
       sodipodi:cx="127.31326"
       id="path2238"
       style="fill:#1f1a17;fill-opacity:1;stroke:#00c4d9;stroke-width:0;stroke-miterlimit:4;stroke-dasharray:none;stroke-opacity:0.95744683"
       sodipodi:type="arc" />
    <path
       sodipodi:nodetypes="ccsssccscccsccscccccccccccccsssssccsssssssssscssssccscsccsssccccccccscssscsc"
       id="path3218"
       d="M 306.28374,201.96759 L 296.08899,201.99425 C 296.08899,201.99425 295.16805,202.06988 294.25763,202.48933 C 293.37917,202.89404 292.43532,204.05623 292.01616,205.75738 C 291.9898,205.86434 291.92337,206.08127 291.92167,206.68727 C 291.91603,208.69611 293.33596,209.65734 293.33596,209.65734 L 300.85252,214.82564 C 300.85252,214.82564 300.5198,217.29306 300.80341,218.82728 C 301.06813,220.25923 301.06407,220.28259 301.12715,220.39763 L 297.80325,220.43057 L 297.8245,216.01476 C 297.8245,216.01476 297.7059,213.92596 295.87605,212.95571 C 295.18693,212.59031 293.90855,211.73073 292.55082,211.83573 C 292.46192,211.82979 291.21332,211.8377 291.07457,211.84228 C 289.81468,211.79331 288.53971,212.48383 287.73544,212.95962 C 285.80847,214.09957 285.82769,216.01848 285.82769,216.01459 L 285.82769,220.45875 L 282.84118,220.42582 L 282.82472,224.02422 L 285.84417,224.02422 L 285.84269,229.74872 L 289.57172,229.75262 L 289.57172,224.03287 L 294.08392,224.00385 L 294.08392,229.75653 L 297.81491,229.74006 L 297.8052,224.02855 L 302.92358,224.00385 C 302.92358,224.00385 305.21281,226.89306 307.75906,227.60227 C 308.37494,227.77382 308.84648,227.95259 309.2852,227.9702 C 309.65968,227.98492 311.11193,227.97416 311.47561,227.9062 C 311.82566,227.84078 312.22184,227.75213 312.68964,227.63966 C 313.53935,227.43538 314.88796,226.90047 316.06448,225.58298 C 317.13071,224.389 316.8121,224.36405 316.81225,224.36109 L 314.28768,222.53317 C 314.28768,222.53317 313.42922,224.28659 311.25994,224.52979 C 310.86193,224.57442 310.09458,224.6207 309.39922,224.35513 C 308.68657,224.08297 308.06793,223.68165 307.52479,223.22165 C 307.34606,223.07028 307.02145,222.62039 307.02146,222.62039 C 307.14001,222.50127 308.18022,222.13041 308.75318,221.14628 C 308.87187,220.94242 309.15697,220.04216 309.23347,219.73255 C 309.33458,219.32337 309.42748,218.81364 309.42084,218.28647 C 309.4144,217.77508 309.29579,217.26104 309.23692,216.85489 C 309.20479,216.63324 308.81298,215.8363 308.27907,215.28417 C 307.85041,214.84089 307.49827,214.56704 307.29022,214.40631 C 306.36986,213.69528 305.80879,213.30672 305.80793,213.31474 C 305.79949,213.31273 305.96352,213.06508 306.02492,212.96608 C 306.03057,212.96096 306.58296,212.34929 306.58864,212.3442 C 307.09062,211.67099 308.40578,211.21767 308.73705,211.1406 C 309.7751,210.89911 310.50738,211.00854 311.53712,211.29685 C 312.71494,211.62664 312.01726,211.45876 312.01726,211.45875 L 314.05253,208.87637 C 313.93169,208.80122 312.4118,207.93349 310.81616,207.72649 C 309.11411,207.5057 307.6362,207.84705 307.6362,207.84705 C 307.63304,207.84715 305.82461,207.9596 303.86188,209.77626 C 302.88066,210.68449 302.54555,211.13114 302.47797,211.22769 L 297.37063,207.74258 C 297.37063,207.74258 296.93483,207.412 296.7136,207.24316 C 296.49235,207.07432 296.29995,206.844 296.29448,206.55728 C 296.28238,205.9229 296.44013,205.84375 296.57806,205.68338 C 296.79854,205.42702 298.27979,205.35108 298.27979,205.35108 L 306.30021,205.35108 L 306.28374,201.96759 z M 291.83646,214.96119 C 293.4688,214.96917 294.10416,216.23003 294.08391,216.3385 L 294.07421,220.43448 L 289.61141,220.42624 L 289.58144,216.30556 C 289.58332,216.15587 290.17027,214.95305 291.83646,214.96119 z M 304.21529,216.2281 C 304.21529,216.2281 304.50593,216.26655 305.09108,216.91473 C 305.10984,216.93624 305.59565,217.6097 305.60069,217.98925 C 305.60468,218.28969 305.46767,218.74667 305.34766,218.96145 C 304.84281,219.82482 304.50771,219.77301 304.5077,219.77301 C 304.5077,219.77301 304.1161,218.57571 304.10823,217.66133 C 304.10038,216.74692 304.21529,216.2281 304.21529,216.2281 z "
       style="fill:#99834a;fill-opacity:1;fill-rule:evenodd;stroke:#000000;stroke-width:0;stroke-linecap:butt;stroke-linejoin:miter;stroke-miterlimit:4;stroke-dasharray:none;stroke-opacity:1" />
    <path
       sodipodi:nodetypes="ccsssssssssccsssssccsssssccssscccccccsssccccccccccccccccccccccccccccccccccccccccc"
       id="text4093"
       d="M 279.77012,181.8242 L 280.9336,183.24777 C 280.4706,183.42817 280.07364,183.81066 279.69852,184.04167 C 279.3234,184.27267 279.00255,184.52126 278.73595,184.78739 C 278.3822,185.14055 278.24543,185.53887 278.46026,185.7343 C 278.62138,185.88088 278.7615,186.03111 278.96695,186.04891 C 279.33468,186.08075 281.54567,185.98258 282.07221,186.0651 C 282.60907,186.14924 283.66881,186.32745 284.17366,186.78671 C 284.83695,187.39011 285.21345,187.96573 285.16156,188.6375 C 285.10953,189.30428 284.69771,190.0228 283.92612,190.79308 C 283.56209,191.15646 283.16055,191.48816 282.72147,191.78814 C 282.28239,192.08814 281.8084,192.35636 281.29949,192.59283 L 279.8185,191.2769 C 280.38916,191.09663 280.89734,190.88395 281.34301,190.63887 C 281.78856,190.38878 282.17027,190.10508 282.48814,189.78775 C 282.81114,189.46532 282.97556,189.37065 283.03453,189.09659 C 283.09349,188.82253 283.05884,188.52565 282.84938,188.3351 C 282.66141,188.1641 281.82534,187.92468 281.60538,187.94955 C 281.38797,187.97188 280.6398,187.95667 280.04242,188.02784 L 279.25689,188.04512 C 278.14754,188.0761 278.09656,188.07149 277.83081,188.00001 C 277.42919,187.89198 277.42782,187.90829 276.94983,187.47345 C 276.35098,186.92869 276.07503,186.32546 276.12191,185.66381 C 276.16882,185.00217 276.53832,184.32587 277.23046,183.63491 C 277.54577,183.32014 277.89556,183.01964 278.27984,182.73336 M 283.90707,179.83626 L 287.39179,178.37914 C 288.33656,177.92521 289.12944,178.12827 289.8456,178.28735 C 290.56337,178.4417 291.11783,178.88848 291.50894,179.62768 C 291.90173,180.37008 291.95065,181.06371 291.65575,181.7086 C 291.36247,182.34874 291.01785,183.28526 290.07309,183.73921 L 288.09014,184.65249 L 289.35432,187.79629 L 287.53149,188.67036 M 286.45652,180.71944 L 287.33383,182.81934 L 289.1232,181.97852 C 289.49446,181.80013 289.70672,181.61166 289.81868,181.34389 C 289.92897,181.073 289.90053,180.77958 289.7334,180.46367 C 289.56625,180.14778 289.33643,179.95311 289.04397,179.87967 C 288.7515,179.80625 288.47112,179.84627 288.09986,180.02466 L 286.4875,180.7991 M 294.16989,176.86366 L 299.68575,176.38595 L 299.90181,178.28525 L 296.55964,178.56534 L 296.76258,180.69064 L 300.1109,180.42116 L 300.27949,182.0837 L 296.94002,182.3576 L 297.17403,184.49182 L 300.48707,184.26216 L 300.66451,186.11943 L 294.97096,186.51796 M 304.21334,176.61475 L 311.08331,177.67361 L 310.84939,178.88984 L 305.02879,185.02265 L 309.54223,185.811 L 309.25008,187.32999 L 302.12387,186.08527 L 302.3578,184.86902 L 308.07217,179.05487 L 303.8107,178.31052 M 314.44787,178.6998 L 316.48743,179.67917 L 312.29832,188.57165 L 310.34716,187.72486 L 314.44787,178.6998 M 319.7386,190.21867 L 317.45726,188.39795 L 315.36868,190.16023 L 313.42653,189.09128 L 321.57564,182.56547 L 323.56462,184.09538 L 320.5618,194.32521 L 318.88483,192.73434 M 318.85982,187.11378 L 320.4551,188.42393 L 321.50745,185.14918 L 318.85982,187.11378"
       style="font-size:11.33892822px;font-style:normal;font-variant:normal;font-weight:bold;font-stretch:normal;text-align:center;line-height:50%;writing-mode:lr-tb;text-anchor:middle;fill:#1f1a17;fill-opacity:1;stroke:none;stroke-width:1px;stroke-linecap:butt;stroke-linejoin:miter;stroke-opacity:1;font-family:Bitstream Vera Sans" />
    <g
       style="stroke:none"
       id="g12212">
      <path
         style="fill:#1f1a17;fill-opacity:1;stroke:none;stroke-width:0.1;stroke-miterlimit:4;stroke-dasharray:none;stroke-opacity:0.95744683"
         d="M 282.91395,242.23308 L 282.91395,243.79995 L 284.9658,243.79995 L 281.27247,251.18659 L 283.36163,252.15656 L 288.06222,242.84863 L 286.3861,242.00925 L 282.91395,242.23308 z "
         id="rect9481"
         sodipodi:nodetypes="cccccccc" />
      <path
         sodipodi:nodetypes="cssssscssssccsssssssssssssssssccssssssc"
         style="fill:#1f1a17;fill-opacity:1;stroke:none;stroke-width:0.097389;stroke-miterlimit:4;stroke-dasharray:none;stroke-opacity:1"
         d="M 293.79768,244.4632 C 293.70666,244.46866 293.60919,244.48927 293.51718,244.49931 C 293.51457,244.50073 293.48862,244.49832 293.48594,244.50003 C 293.48053,244.50365 293.4606,244.52752 293.45538,244.53039 C 291.07719,244.81353 290.20775,246.57966 290.41747,248.4186 C 290.62722,250.25756 291.82441,251.46695 294.2026,251.18381 C 294.53703,251.14398 294.86026,251.07716 295.167,250.9837 C 294.85002,251.35655 294.50371,251.72756 294.12936,252.07491 C 293.34151,252.80596 292.05304,253.34158 291.12964,253.47816 C 291.05064,253.48985 290.96983,253.51274 290.91163,253.51283 C 290.87454,253.51183 290.81798,253.49063 290.78598,253.48608 C 290.63014,253.45972 290.50598,253.4083 290.25214,253.3798 L 289.49568,254.46452 C 291.53231,255.52765 294.34344,254.94065 296.40198,253.03055 C 298.51551,251.0694 299.08183,248.32698 297.90757,246.47346 C 297.90455,246.46715 297.90997,246.45011 297.90689,246.44383 C 297.90478,246.44055 297.87778,246.44782 297.87565,246.44455 C 297.86689,246.42702 297.88342,246.40263 297.87428,246.38528 C 297.86778,246.37553 297.84898,246.36607 297.84236,246.35637 C 297.83904,246.35021 297.84504,246.33288 297.84168,246.32674 C 297.83611,246.31868 297.81607,246.33548 297.81044,246.32746 C 297.79405,246.29806 297.79461,246.26815 297.77715,246.23928 C 297.7713,246.23139 297.75113,246.21824 297.74522,246.21037 C 297.73413,246.19241 297.72479,246.1992 297.7133,246.18146 C 297.70731,246.17363 297.71866,246.15961 297.71261,246.15183 C 297.70874,246.14594 297.6853,246.15842 297.68137,246.15255 C 297.67648,246.14635 297.68563,246.12909 297.68069,246.12291 C 297.65291,246.08202 297.61418,246.04624 297.58423,246.00655 C 297.579,246.00055 297.58882,245.98289 297.58355,245.97692 C 297.57491,245.96563 297.56045,245.9592 297.55163,245.94801 C 296.78432,244.97468 295.38147,244.36811 293.79768,244.4632 z M 293.95815,246.00117 C 293.98009,245.99652 293.99846,246.00332 294.02063,245.99973 C 294.18436,245.97319 294.34992,245.98314 294.52118,246.01784 C 295.4346,246.20292 296.04431,247.23293 295.88727,248.32849 C 295.73023,249.42404 294.87003,250.18865 293.9566,250.00358 C 293.04316,249.81853 292.43279,248.75886 292.58982,247.6633 C 292.66558,247.13477 292.9167,246.67319 293.24778,246.3733 C 293.45104,246.19649 293.70589,246.05457 293.95815,246.00117 z "
         id="path10421" />
      <path
         style="fill:#1f1a17;fill-opacity:1;stroke:none;stroke-width:0.097389;stroke-miterlimit:4;stroke-dasharray:none;stroke-opacity:1"
         d="M 304.9422,244.60045 C 304.85514,244.60357 304.78053,244.62539 304.69295,244.63584 C 302.45111,244.9035 300.90818,247.49572 301.26317,250.4368 C 301.61817,253.37787 303.72788,255.54711 305.96973,255.27945 C 308.21157,255.01178 309.7545,252.41956 309.39951,249.47849 C 309.05838,246.65231 307.08403,244.52378 304.9422,244.60045 z M 305.14894,246.78959 C 305.15559,246.78821 305.1735,246.79007 305.18018,246.78887 C 305.19355,246.78685 305.22932,246.7887 305.24266,246.78743 C 305.25599,246.78653 305.29185,246.78617 305.30515,246.78599 C 305.31179,246.78607 305.32976,246.78501 305.33639,246.78527 C 305.34963,246.78616 305.38567,246.78223 305.39887,246.78383 C 305.41205,246.78577 305.44891,246.80938 305.46204,246.81202 C 305.46858,246.81352 305.48675,246.80964 305.49328,246.8113 C 305.50632,246.81497 305.54347,246.83516 305.55645,246.83949 C 306.2554,247.09207 306.87457,248.29988 307.00141,249.85986 C 307.13646,251.52097 306.67122,253.01767 305.95796,253.41194 C 305.94547,253.41847 305.90879,253.43715 305.89616,253.44301 C 305.8898,253.44577 305.87132,253.44114 305.86491,253.44373 C 305.85204,253.44857 305.81613,253.47065 305.80311,253.47481 C 305.77693,253.48241 305.73682,253.50182 305.71007,253.50659 C 305.6967,253.50861 305.66093,253.50676 305.64759,253.50803 C 305.63426,253.50894 305.5984,253.50929 305.5851,253.50947 C 305.57183,253.50929 305.53586,253.5118 305.52262,253.51091 C 305.51601,253.51029 305.49798,253.51243 305.49138,253.51163 C 305.4782,253.50969 305.44134,253.48608 305.42821,253.48345 C 305.41512,253.48045 305.37877,253.48855 305.36573,253.48488 C 305.35922,253.48287 305.3403,253.45814 305.33381,253.45597 C 304.63485,253.20339 304.01568,251.99558 303.88884,250.4356 C 303.75379,248.7745 304.21903,247.27779 304.93229,246.88352 C 304.93854,246.88025 304.95657,246.85626 304.96285,246.85317 C 304.98814,246.84145 305.03001,246.83038 305.0559,246.82137 C 305.06891,246.81722 305.10521,246.82339 305.11838,246.81993 C 305.12499,246.81839 305.14229,246.79097 305.14894,246.78959 z "
         id="path12185" />
      <path
         style="fill:#1f1a17;fill-opacity:1;stroke:none;stroke-width:0.097389;stroke-miterlimit:4;stroke-dasharray:none;stroke-opacity:1"
         d="M 315.42587,240.94694 C 314.05854,241.08075 312.55914,242.81607 311.81135,244.25284 C 310.5183,246.73726 311.42053,249.14399 313.59909,250.88584 C 313.63367,250.91348 313.65957,250.94577 313.69486,250.97257 C 314.22473,251.44119 315.15846,251.921 316.00067,251.99753 C 318.17848,252.19541 320.65019,250.7935 320.92697,248.7414 C 321.18352,246.83927 319.95894,245.0449 317.99111,244.77702 C 317.66948,244.73324 317.34103,244.72965 317.02194,244.7697 C 315.96169,244.9028 314.94496,245.39928 314.18871,246.12948 C 314.17477,246.14293 314.16093,246.15647 314.14718,246.17007 C 314.14718,246.17007 314.12482,246.11744 314.11481,246.09104 C 314.11481,246.09104 314.11481,246.09104 314.1148,246.09103 C 313.66986,244.9182 314.75368,243.64259 316.86024,242.45194 C 316.86024,242.45194 315.49312,240.94036 315.42587,240.94694 z M 315.979,246.98764 C 316.01718,246.98076 316.51803,246.84763 316.55709,246.84414 C 317.07794,246.7976 317.64062,246.77273 318.05541,247.19747 C 318.4055,247.55596 318.59551,248.19071 318.47121,248.71827 C 318.35987,249.19079 317.96857,249.56186 317.6698,249.82446 C 317.03747,250.38026 315.98351,250.26171 315.31984,249.58214 C 314.97045,249.22437 314.79949,248.78139 314.80819,248.36098 C 314.81602,247.98284 314.9692,247.62296 315.26864,247.35977 C 315.27605,247.35326 315.29169,247.33579 315.2992,247.32942 C 315.32959,247.30448 315.3903,247.26025 315.42211,247.23764 C 315.44624,247.22115 315.48959,247.19131 315.51447,247.17622 C 315.6317,247.10814 315.78607,247.05126 315.9172,247.01871 C 315.93606,247.01445 315.95991,246.99108 315.979,246.98764 z "
         id="path12190"
         sodipodi:nodetypes="csssssssscsscccsssssssssssc" />
    </g>
  </g>
</svg>
