<?xml version="1.0" encoding="UTF-8" standalone="no"?>
<!-- Created with Inkscape (http://www.inkscape.org/) -->

<svg
   xmlns:dc="http://purl.org/dc/elements/1.1/"
   xmlns:cc="http://creativecommons.org/ns#"
   xmlns:rdf="http://www.w3.org/1999/02/22-rdf-syntax-ns#"
   xmlns:svg="http://www.w3.org/2000/svg"
   xmlns="http://www.w3.org/2000/svg"
   version="1.1"
   width="379.49017"
   height="400"
   id="svg2"
   xml:space="preserve"><metadata
     id="metadata8"><rdf:RDF><cc:Work
         rdf:about=""><dc:format>image/svg+xml</dc:format><dc:type
           rdf:resource="http://purl.org/dc/dcmitype/StillImage" /><dc:title></dc:title></cc:Work></rdf:RDF></metadata><defs
     id="defs6"><clipPath
       id="clipPath22"><path
         d="m 0,75.773 612.284,0 0,783.125 L 0,858.898 0,75.773 z"
         id="path24" /></clipPath><clipPath
       id="clipPath36"><path
         d="m 0,0 612.283,0 0,858.898 L 0,858.898 0,0 z"
         id="path38" /></clipPath><clipPath
       id="clipPath70"><path
         d="m 347.798,819.803 c -0.094,-0.059 -0.248,-0.043 -0.402,-0.028 l 0,0 c -0.117,0.011 -0.235,0.022 -0.327,0.003 l 0,0 c -0.689,-0.152 -1.463,-0.044 -2.138,-0.201 l 0,0 c -0.486,-0.084 -0.973,-0.168 -1.459,-0.252 l 0,0 c -1.205,-0.322 -2.408,-0.535 -3.495,-0.98 l 0,0 c -1.249,-0.513 -2.545,-1.01 -3.646,-1.685 l 0,0 c -1.028,-0.63 -2.014,-1.286 -2.967,-1.987 l 0,0 c -0.521,-0.383 -0.968,-0.867 -1.484,-1.258 l 0,0 c -0.126,-0.134 -0.252,-0.268 -0.377,-0.402 l 0,0 c -0.241,-0.182 -0.447,-0.387 -0.629,-0.628 l 0,0 c -0.134,-0.126 -0.268,-0.252 -0.402,-0.377 l 0,0 c -0.265,-0.35 -0.565,-0.652 -0.83,-1.006 l 0,0 c -0.516,-0.69 -1.115,-1.345 -1.584,-2.087 l 0,0 c -0.927,-1.467 -1.708,-3.024 -2.415,-4.728 l 0,0 c -0.452,-1.092 -0.691,-2.292 -1.03,-3.495 l 0,0 c -0.113,-0.398 -0.132,-0.822 -0.227,-1.208 l 0,0 c -0.075,-0.62 -0.15,-1.24 -0.226,-1.86 l 0,0 c -0.008,-0.252 -0.017,-0.503 -0.025,-0.754 l 0,0 c -0.036,-0.165 0.018,-0.434 -0.025,-0.629 l 0,0 c -0.088,-0.402 -0.058,-1.55 0.025,-1.936 l 0,0 0,-0.402 c 0.077,-0.348 0.017,-0.744 0.101,-1.107 l 0,0 c 0.078,-0.342 0.062,-0.724 0.15,-1.081 l 0,0 c 0.214,-0.86 0.323,-1.752 0.579,-2.54 l 0,0 c 0.05,-0.21 0.101,-0.42 0.151,-0.629 l 0,0 c 0.281,-0.846 0.557,-1.692 0.905,-2.49 l 0,0 c 2.435,-5.584 6.704,-10.048 12.271,-12.497 l 0,0 c 0.821,-0.361 1.696,-0.733 2.59,-1.031 l 0,0 c 0.695,-0.233 1.424,-0.376 2.138,-0.578 l 0,0 c 0.695,-0.197 1.447,-0.209 2.162,-0.378 l 0,0 c 0.227,-0.016 0.453,-0.033 0.68,-0.05 l 0,0 c 0.709,-0.159 1.564,-0.126 2.388,-0.126 l 0,0 1.081,0 c 0.055,0.012 0.132,0.011 0.213,0.01 l 0,0 c 0.091,-0.002 0.187,-0.002 0.265,0.016 l 0,0 c 0.595,0.058 1.191,0.117 1.786,0.175 l 0,0 c 0.354,0.083 0.735,0.082 1.106,0.176 l 0,0 c 0.939,0.241 1.882,0.386 2.767,0.679 l 0,0 c 7.298,2.423 12.296,7.152 15.238,13.931 l 0,0 c 0.475,1.093 0.788,2.288 1.132,3.496 l 0,0 c 0.123,0.433 0.167,0.886 0.276,1.307 l 0,0 c 0.184,0.71 0.138,1.483 0.302,2.213 l 0,0 c 0.017,0.378 0.034,0.755 0.051,1.132 l 0,0 c 0.062,0.285 0.025,0.702 0.025,1.031 l 0,0 c -0.001,0.346 0.039,0.78 -0.025,1.081 l 0,0 c -0.009,0.276 -0.017,0.554 -0.025,0.83 l 0,0 c -0.076,0.645 -0.152,1.291 -0.227,1.937 l 0,0 c -0.115,0.473 -0.142,0.98 -0.276,1.458 l 0,0 c -0.317,1.129 -0.59,2.26 -1.007,3.268 l 0,0 c -0.472,1.146 -0.87,2.264 -1.483,3.27 l 0,0 c -0.619,1.014 -1.246,2.003 -1.937,2.942 l 0,0 c -0.326,0.444 -0.722,0.841 -1.055,1.283 l 0,0 c -0.133,0.174 -0.347,0.304 -0.478,0.478 l 0,0 c -0.201,0.265 -0.447,0.47 -0.679,0.704 l 0,0 c -0.387,0.386 -0.767,0.773 -1.208,1.106 l 0,0 c -0.32,0.242 -0.604,0.565 -0.929,0.804 l 0,0 c -1.413,1.037 -2.879,2.018 -4.578,2.767 l 0,0 c -0.525,0.231 -1.088,0.502 -1.634,0.729 l 0,0 c -0.511,0.211 -1.02,0.323 -1.559,0.503 l 0,0 c -2.05,0.682 -4.451,1.084 -7.162,1.084 l 0,0 c -0.143,0 -0.287,-0.001 -0.432,-0.003 m -0.402,-2.313 c 0.033,0 0.066,0 0.099,0 l 0,0 c 0.215,0 0.433,0.002 0.651,0.004 l 0,0 c 0.94,0.011 1.88,0.022 2.669,-0.155 l 0,0 c 0.261,-0.026 0.52,-0.051 0.78,-0.076 l 0,0 c 0.481,-0.116 1,-0.14 1.483,-0.276 l 0,0 c 1.037,-0.291 2.073,-0.514 3.018,-0.906 l 0,0 c 1.559,-0.645 3.071,-1.351 4.376,-2.263 l 0,0 c 0.612,-0.428 1.174,-0.919 1.76,-1.357 l 0,0 c 0.652,-0.489 1.422,-1.14 1.911,-1.786 l 0,0 c 0.118,-0.109 0.235,-0.218 0.352,-0.327 l 0,0 c 0.344,-0.455 0.77,-0.849 1.107,-1.307 l 0,0 c 0.69,-0.941 1.316,-1.923 1.936,-2.942 l 0,0 c 0.422,-0.696 0.694,-1.463 1.031,-2.239 l 0,0 c 0.349,-0.805 0.616,-1.705 0.905,-2.59 l 0,0 c 0.205,-0.627 0.26,-1.316 0.428,-1.961 l 0,0 c 0.066,-0.495 0.134,-0.989 0.201,-1.484 l 0,0 c 0.008,-0.193 0.017,-0.385 0.025,-0.578 l 0,0 c 0.065,-0.293 -0.023,-0.651 0.05,-0.981 l 0,0 c 0.077,-0.344 0.073,-1.013 0,-1.358 l 0,0 c -0.068,-0.323 0.011,-0.672 -0.05,-0.955 l 0,0 c -0.008,-0.194 -0.017,-0.386 -0.025,-0.579 l 0,0 c -0.084,-0.595 -0.168,-1.19 -0.252,-1.785 l 0,0 c -0.157,-0.615 -0.233,-1.262 -0.427,-1.862 l 0,0 c -0.338,-1.04 -0.661,-2.059 -1.082,-3.016 l 0,0 c -0.619,-1.41 -1.426,-2.683 -2.263,-3.873 l 0,0 c -2.661,-3.787 -6.408,-6.557 -11.24,-8.173 l 0,0 c -0.86,-0.287 -1.774,-0.417 -2.691,-0.653 l 0,0 c -0.389,-0.101 -0.804,-0.089 -1.182,-0.177 l 0,0 c -0.616,-0.143 -1.389,-0.011 -2.012,-0.151 l 0,0 c -0.239,-0.053 -1.1,-0.019 -1.307,0.025 l 0,0 -0.603,0 c -0.292,0.066 -0.674,0.039 -0.956,0.101 l 0,0 c -0.218,0.017 -0.436,0.033 -0.654,0.05 l 0,0 c -0.627,0.146 -1.274,0.155 -1.886,0.327 l 0,0 c -0.709,0.2 -1.425,0.349 -2.112,0.579 l 0,0 c -0.724,0.241 -1.446,0.562 -2.113,0.855 l 0,0 c -4.873,2.142 -8.923,6.195 -11.064,11.064 l 0,0 c -0.478,1.088 -0.785,2.172 -1.157,3.395 l 0,0 c -0.192,0.633 -0.286,1.356 -0.452,2.037 l 0,0 c -0.092,0.374 -0.069,0.769 -0.152,1.131 l 0,0 c -0.068,0.3 -0.012,0.626 -0.074,0.906 l 0,0 0,0.452 c -0.08,0.36 -0.078,1.6 0,1.962 l 0,0 0,0.477 c 0.058,0.562 0.117,1.124 0.175,1.685 l 0,0 c 0.081,0.338 0.086,0.702 0.177,1.057 l 0,0 c 0.269,1.047 0.44,2.118 0.829,3.067 l 0,0 c 0.566,1.379 1.097,2.722 1.835,3.923 l 0,0 c 2.595,4.219 6.167,7.278 10.99,9.279 l 0,0 c 0.929,0.386 1.952,0.616 2.967,0.905 l 0,0 c 0.478,0.093 0.956,0.185 1.434,0.277 l 0,0 c 0.569,0.067 1.14,0.134 1.709,0.201 l 0,0 c 0.108,0.024 0.242,0.015 0.376,0.006 l 0,0 c 0.069,-0.005 0.139,-0.01 0.205,-0.01 l 0,0 c 0.105,0 0.201,0.012 0.275,0.055 m 0.503,-1.258 c -0.63,-0.383 -1.346,-0.639 -1.988,-1.031 l 0,0 c -0.857,-0.523 -1.831,-0.911 -2.69,-1.433 l 0,0 c -0.209,-0.127 -0.444,-0.174 -0.654,-0.302 l 0,0 c -0.398,-0.243 -0.834,-0.422 -1.257,-0.653 l 0,0 c -0.147,-0.081 -0.293,-0.209 -0.478,-0.253 l 0,0 c 0.088,-0.247 0.443,-0.437 0.629,-0.602 l 0,0 c 0.651,-0.579 1.26,-1.207 1.961,-1.736 l 0,0 c 0.411,-0.31 0.768,-0.722 1.183,-1.031 l 0,0 c 0.913,-0.682 1.794,-1.377 2.791,-1.986 l 0,0 c 0.157,-0.097 0.319,-0.13 0.477,-0.226 l 0,0 c 1.105,-0.674 2.41,-1.159 3.646,-1.685 l 0,0 c 0.529,-0.225 1.105,-0.35 1.609,-0.604 l 0,0 c -0.045,-0.216 -0.289,-0.321 -0.427,-0.453 l 0,0 c -0.422,-0.401 -0.814,-0.853 -1.283,-1.207 l 0,0 c -0.134,-0.142 -0.268,-0.285 -0.402,-0.427 l 0,0 c -0.664,-0.502 -1.171,-1.183 -1.835,-1.685 l 0,0 c -0.134,-0.142 -0.268,-0.285 -0.402,-0.427 l 0,0 c -0.231,-0.174 -0.451,-0.377 -0.655,-0.579 l 0,0 c -0.083,-0.092 -0.167,-0.185 -0.251,-0.276 l 0,0 c -0.189,-0.144 -0.499,-0.386 -0.629,-0.579 l 0,0 c -0.093,0.01 -0.093,0.02 -0.15,0.05 l 0,0 c -0.01,0.522 -0.092,1.083 -0.202,1.56 l 0,0 c -0.133,0.578 -0.098,1.184 -0.225,1.735 l 0,0 c -0.018,0.201 -0.035,0.403 -0.051,0.603 l 0,0 c -0.156,0.669 -0.145,1.445 -0.302,2.112 l 0,0 c -0.017,0.202 -0.034,0.403 -0.05,0.604 l 0,0 c -0.084,0.362 -0.06,0.765 -0.151,1.157 l 0,0 c -0.054,0.234 -0.104,0.504 -0.101,0.779 l 0,0 c -0.251,-0.088 -0.427,-0.353 -0.628,-0.503 l 0,0 c -0.463,-0.342 -0.878,-0.741 -1.333,-1.081 l 0,0 c -1.275,-0.952 -2.447,-2.014 -3.721,-2.967 l 0,0 c -0.498,-0.373 -0.954,-0.807 -1.459,-1.182 l 0,0 c -0.156,-0.116 -0.278,-0.275 -0.453,-0.377 l 0,0 c 0.042,-0.464 0.292,-0.923 0.427,-1.333 l 0,0 c 0.263,-0.791 0.474,-1.58 0.755,-2.339 l 0,0 c 0.13,-0.352 0.182,-0.673 0.302,-1.03 l 0,0 c 0.614,-1.838 1.16,-3.766 1.835,-5.583 l 0,0 c 0.366,-0.985 0.596,-2.003 0.956,-2.967 l 0,0 c 0.126,-0.338 0.184,-0.888 0.377,-1.157 l 0,0 c -0.014,-0.08 -0.022,-0.074 -0.05,-0.126 l 0,0 c -0.21,0.044 -0.299,0.271 -0.428,0.402 l 0,0 c -0.348,0.357 -0.687,0.72 -1.03,1.081 l 0,0 c -0.874,0.919 -1.776,1.869 -2.817,2.616 l 0,0 c -0.385,0.276 -0.784,0.554 -1.182,0.804 l 0,0 c -0.182,0.116 -0.445,0.19 -0.578,0.352 l 0,0 c -0.309,-0.051 -0.611,-0.328 -0.855,-0.477 l 0,0 c -0.525,-0.32 -1.071,-0.592 -1.585,-0.905 l 0,0 c -1.388,-0.849 -2.846,-1.572 -4.224,-2.415 l 0,0 c -0.409,-0.249 -0.835,-0.46 -1.232,-0.704 l 0,0 c -0.168,-0.102 -0.361,-0.15 -0.504,-0.276 l 0,0 c 0.027,-0.123 0.432,-0.3 0.579,-0.402 l 0,0 c 0.652,-0.458 1.305,-0.921 1.961,-1.384 l 0,0 c 0.821,-0.577 1.61,-1.209 2.415,-1.81 l 0,0 c 0.252,-0.188 0.455,-0.466 0.704,-0.654 l 0,0 c 0.417,-0.316 0.841,-0.74 1.156,-1.156 l 0,0 c 0.084,-0.076 0.169,-0.151 0.252,-0.227 l 0,0 c 0.335,-0.443 0.86,-0.886 1.106,-1.383 l 0,0 c 0.265,0.056 0.616,0.495 0.83,0.654 l 0,0 c 0.663,0.492 1.257,1.07 1.912,1.559 l 0,0 c 2.013,1.504 3.846,3.222 5.859,4.727 l 0,0 c 0.602,0.451 1.151,0.979 1.76,1.434 l 0,0 c 0.236,0.177 0.551,0.582 0.83,0.679 l 0,0 c -0.109,1.19 -0.219,2.38 -0.328,3.571 l 0,0 c -0.008,0.193 -0.016,0.385 -0.025,0.578 l 0,0 c -0.119,0.544 -0.057,1.192 -0.175,1.735 l 0,0 0,0.301 c -0.098,0.445 -0.053,0.99 -0.151,1.434 l 0,0 c -0.043,0.192 0.037,0.433 -0.051,0.579 l 0,0 c -0.002,0.138 0.009,0.223 0.051,0.301 l 0,0 c 0.235,-0.038 0.384,-0.239 0.553,-0.352 l 0,0 c 0.426,-0.285 0.84,-0.576 1.257,-0.854 l 0,0 c 0.943,-0.629 1.884,-1.238 2.867,-1.837 l 0,0 c 0.395,-0.24 0.832,-0.443 1.232,-0.653 l 0,0 c 0.167,-0.088 0.368,-0.131 0.503,-0.252 l 0,0 c 0.236,0.05 0.361,0.302 0.528,0.428 l 0,0 c 0.401,0.302 0.737,0.683 1.132,0.981 l 0,0 c 1.085,0.817 2.008,1.821 3.093,2.64 l 0,0 c 0.428,0.323 0.77,0.792 1.232,1.081 l 0,0 c -0.077,0.213 -0.406,0.398 -0.579,0.528 l 0,0 c -0.404,0.306 -0.746,0.696 -1.156,1.006 l 0,0 c -0.198,0.149 -0.356,0.379 -0.554,0.528 l 0,0 c -1.042,0.786 -1.925,1.753 -2.967,2.54 l 0,0 c -0.343,0.259 -0.617,0.642 -0.98,0.88 l 0,0 c 0.043,0.213 0.323,0.316 0.477,0.427 l 0,0 c 0.433,0.312 0.845,0.663 1.282,0.982 l 0,0 c 1.026,0.744 1.998,1.589 3.018,2.338 l 0,0 c 0.505,0.37 0.986,0.766 1.484,1.132 l 0,0 c 0.195,0.143 0.411,0.255 0.578,0.427 l 0,0 c -0.172,0.065 -0.365,0.065 -0.553,0.125 l 0,0 c -0.496,0.161 -1.022,0.28 -1.509,0.478 l 0,0 c -1.912,0.782 -3.822,1.569 -5.482,2.616 l 0,0 c -1.044,0.659 -1.995,1.41 -2.967,2.137 l 0,0 c -0.377,0.283 -0.701,0.643 -1.081,0.931 l 0,0 c -0.085,0.063 -0.133,0.166 -0.227,0.226 l 0,0 c -0.143,-0.138 -0.378,-0.17 -0.552,-0.277 m -17.05,-15.213 -1.811,0 c 0.124,-0.44 0.402,-0.854 0.579,-1.257 l 0,0 c 0.085,-0.196 0.129,-0.418 0.251,-0.579 l 0,0 c -0.032,-0.294 -0.247,-0.54 -0.377,-0.754 l 0,0 c -0.216,-0.358 -0.327,-0.831 -0.603,-1.132 l 0,0 0,-0.025 2.188,0 c 0.368,-0.561 0.737,-1.123 1.106,-1.685 l 0,0 c 0.023,-0.027 -0.002,-0.002 0.025,-0.025 l 0,0 c 0.369,0.57 0.737,1.14 1.106,1.71 l 0,0 c 0.253,-0.003 1.158,-0.07 1.308,0.025 l 0,0 0.805,0 c -0.255,0.431 -0.496,0.885 -0.755,1.308 l 0,0 c -0.092,0.152 -0.131,0.33 -0.251,0.452 l 0,0 c 0.013,0.258 0.157,0.397 0.251,0.579 l 0,0 c 0.196,0.375 0.366,0.756 0.579,1.106 l 0,0 c 0.053,0.088 0.06,0.181 0.125,0.252 l 0,0 0,0.05 -2.062,0 c -0.108,0.05 -0.183,0.276 -0.251,0.377 l 0,0 c -0.197,0.295 -0.432,0.584 -0.629,0.88 l 0,0 c -0.094,0.143 -0.173,0.375 -0.327,0.453 l 0,0 c -0.37,-0.61 -0.877,-1.137 -1.257,-1.735 m 34.049,1.257 c -0.309,-0.438 -0.647,-0.863 -0.931,-1.307 l 0,0 -1.811,0 c 0.119,-0.424 0.383,-0.82 0.554,-1.207 l 0,0 c 0.089,-0.206 0.137,-0.469 0.276,-0.629 l 0,0 c -0.03,-0.278 -0.229,-0.503 -0.352,-0.704 l 0,0 c -0.226,-0.372 -0.341,-0.868 -0.629,-1.182 l 0,0 0,-0.025 2.188,0 c 0.369,-0.562 0.738,-1.123 1.107,-1.685 l 0,0 0,-0.025 0.025,0 c 0.368,0.569 0.737,1.14 1.106,1.71 l 0,0 c 0.249,-0.003 1.134,-0.069 1.283,0.025 l 0,0 0.83,0 c -0.245,0.413 -0.483,0.85 -0.729,1.257 l 0,0 c -0.104,0.169 -0.148,0.363 -0.277,0.503 l 0,0 c 0.012,0.269 0.154,0.393 0.251,0.578 l 0,0 c 0.165,0.318 0.318,0.623 0.478,0.931 l 0,0 c 0.078,0.149 0.118,0.31 0.226,0.427 l 0,0 0,0.051 -2.062,0 c -0.131,0.059 -0.221,0.332 -0.301,0.452 l 0,0 c -0.203,0.303 -0.446,0.608 -0.654,0.906 l 0,0 c -0.089,0.126 -0.134,0.281 -0.252,0.377 l 0,0 c -0.063,-0.185 -0.225,-0.307 -0.326,-0.453 m -11.669,-8.826 c -0.271,-0.2 -0.526,-0.425 -0.804,-0.629 l 0,0 c -0.936,-0.689 -1.804,-1.501 -2.741,-2.188 l 0,0 c -0.321,-0.235 -0.617,-0.499 -0.93,-0.729 l 0,0 c -0.191,-0.14 -0.444,-0.26 -0.579,-0.453 l 0,0 c 0.233,-0.219 0.46,-0.472 0.654,-0.729 l 0,0 c 0.159,-0.21 0.389,-0.362 0.553,-0.579 l 0,0 c 0.126,-0.117 0.252,-0.234 0.377,-0.351 l 0,0 c 0.265,-0.266 0.503,-0.551 0.805,-0.78 l 0,0 c 0.151,-0.159 0.302,-0.318 0.452,-0.478 l 0,0 c 0.573,-0.433 1.056,-0.982 1.635,-1.408 l 0,0 c 1.466,-1.076 3.12,-1.896 4.702,-2.867 l 0,0 c 0.691,-0.424 1.434,-0.776 2.138,-1.207 l 0,0 c 0.291,-0.178 0.636,-0.453 0.981,-0.553 l 0,0 c 0.143,-0.039 0.359,0.288 0.477,0.377 l 0,0 c 0.445,0.336 0.845,0.715 1.258,1.082 l 0,0 c 0.316,0.281 0.642,0.55 0.981,0.804 l 0,0 c 0.446,0.337 0.83,0.765 1.282,1.106 l 0,0 c 0.446,0.338 0.829,0.765 1.282,1.107 l 0,0 c 0.05,0.059 0.101,0.117 0.151,0.176 l 0,0 c 0.383,0.288 0.706,0.647 1.082,0.931 l 0,0 c 0.174,0.132 0.404,0.271 0.527,0.452 l 0,0 0.026,0 0,0.026 c -0.479,0.2 -0.971,0.326 -1.459,0.528 l 0,0 c -2.187,0.902 -4.5,1.681 -6.538,2.74 l 0,0 c -0.487,0.253 -0.972,0.448 -1.433,0.73 l 0,0 c -1.08,0.659 -2.135,1.334 -3.143,2.062 l 0,0 c -0.317,0.228 -0.615,0.492 -0.931,0.729 l 0,0 c -0.148,0.112 -0.262,0.313 -0.453,0.377 l 0,0 c -0.085,-0.128 -0.228,-0.185 -0.352,-0.276 m -5.934,-13.002 -1.835,0 c 0.195,-0.467 0.397,-0.909 0.603,-1.382 l 0,0 c 0.056,-0.129 0.185,-0.293 0.226,-0.427 l 0,0 c 0.061,-0.201 -0.139,-0.392 -0.201,-0.504 l 0,0 c -0.188,-0.337 -0.359,-0.684 -0.554,-1.006 l 0,0 c -0.078,-0.13 -0.097,-0.275 -0.2,-0.377 l 0,0 0,-0.05 c 0.092,0.002 0.222,0.012 0.276,-0.025 l 0,0 1.886,0 c 0.145,-0.065 0.241,-0.367 0.327,-0.503 l 0,0 c 0.159,-0.252 0.363,-0.505 0.528,-0.755 l 0,0 c 0.088,-0.133 0.142,-0.29 0.251,-0.402 l 0,0 0,-0.025 c 0.179,0.085 0.272,0.387 0.377,0.553 l 0,0 c 0.239,0.377 0.533,0.737 0.755,1.132 l 0,0 c 0.139,0 0.283,-10e-4 0.428,-0.002 l 0,0 c 0.565,-0.004 1.155,-0.007 1.684,0.052 l 0,0 c -0.196,0.385 -0.432,0.769 -0.653,1.132 l 0,0 c -0.119,0.195 -0.182,0.485 -0.352,0.628 l 0,0 c 0.031,0.295 0.245,0.564 0.377,0.78 l 0,0 c 0.214,0.353 0.305,0.832 0.578,1.132 l 0,0 0,0.049 -2.037,0 c -0.14,0.064 -0.24,0.35 -0.327,0.478 l 0,0 c -0.147,0.221 -0.331,0.434 -0.478,0.655 l 0,0 c -0.134,0.202 -0.234,0.434 -0.402,0.603 l 0,0 c -0.419,-0.578 -0.838,-1.157 -1.257,-1.736"
         id="path72" /></clipPath><clipPath
       id="clipPath82"><path
         d="m 374.34,18.784 52.865,0 0,43.423 -52.865,0 0,-43.423 z"
         id="path84" /></clipPath><clipPath
       id="clipPath98"><path
         d="m 323.952,102.411 92.379,0 0,28.031 -92.379,0 0,-28.031 z"
         id="path100" /></clipPath><clipPath
       id="clipPath110"><path
         d="m 324.74,102.816 88.464,0 0,27.145 -88.464,0 0,-27.145 z"
         id="path112" /></clipPath><clipPath
       id="clipPath126"><path
         d="m 323.952,102.411 92.379,0 0,28.031 -92.379,0 0,-28.031 z"
         id="path128" /></clipPath><clipPath
       id="clipPath210"><path
         d="m 127.55,64.558 131.055,0 0,25.721 -131.055,0 0,-25.721 z"
         id="path212" /></clipPath><clipPath
       id="clipPath222"><path
         d="m 450.222,21.075 61.016,0 0,32.927 -61.016,0 0,-32.927 z"
         id="path224" /></clipPath><clipPath
       id="clipPath364"><path
         d="m 450.222,21.075 61.016,0 0,32.927 -61.016,0 0,-32.927 z"
         id="path366" /></clipPath><clipPath
       id="clipPath376"><path
         d="m 515.566,96.373 75.862,0 0,33.548 -75.862,0 0,-33.548 z"
         id="path378" /></clipPath><clipPath
       id="clipPath388"><path
         d="m 126.133,99.101 73.559,0 0,33.471 -73.559,0 0,-33.471 z"
         id="path390" /></clipPath><clipPath
       id="clipPath400"><path
         d="m 213.048,105.376 96.054,0 0,21.92 -96.054,0 0,-21.92 z"
         id="path402" /></clipPath><clipPath
       id="clipPath412"><path
         d="m 212.11,102.828 97.85,0 0,27.493 -97.85,0 0,-27.493 z"
         id="path414" /></clipPath><clipPath
       id="clipPath472"><path
         d="m 533.242,21.011 57.893,0 0,34.566 -57.893,0 0,-34.566 z"
         id="path474" /></clipPath><clipPath
       id="clipPath488"><path
         d="m 20.997,65.704 99.29,0 0,25.283 -99.29,0 0,-25.283 z"
         id="path490" /></clipPath><clipPath
       id="clipPath504"><path
         d="m 363.791,72.713 132.107,0 0,11.446 -132.107,0 0,-11.446 z"
         id="path506" /></clipPath><clipPath
       id="clipPath528"><path
         d="m 363.791,72.713 132.107,0 0,11.446 -132.107,0 0,-11.446 z"
         id="path530" /></clipPath><clipPath
       id="clipPath584"><path
         d="m 505.378,67.19 85.328,0 0,19.085 -85.328,0 0,-19.085 z"
         id="path586" /></clipPath><clipPath
       id="clipPath600"><path
         d="m 0,0 612.283,0 0,858.898 L 0,858.898 0,0 z"
         id="path602" /></clipPath><clipPath
       id="clipPath692"><path
         d="m 0,0 612.283,0 0,858.898 L 0,858.898 0,0 z"
         id="path694" /></clipPath><clipPath
       id="clipPath724"><path
         d="m 0,0 612.283,0 0,858.898 L 0,858.898 0,0 z"
         id="path726" /></clipPath><clipPath
       id="clipPath804"><path
         d="m 62.916,225.113 c -0.604,-0.377 -2.317,-0.135 -3.133,-0.335 l 0,0 c -2.365,-0.583 -4.721,-0.921 -6.83,-1.791 l 0,0 c -9.061,-3.741 -15.292,-9.967 -19.03,-19.031 l 0,0 c -0.87,-2.109 -1.209,-4.464 -1.791,-6.829 l 0,0 c -0.965,-3.913 -0.17,-9.817 0.784,-12.985 l 0,0 c 3.15,-10.467 8.832,-17.567 18.247,-21.718 l 0,0 c 2.206,-0.973 4.676,-1.758 7.277,-2.463 l 0,0 c 1.071,-0.291 1.998,-0.072 3.134,-0.336 l 0,0 c 1.135,-0.265 3.399,-0.55 4.814,-0.224 l 0,0 c 0.964,0.222 2.11,0.082 3.134,0.335 l 0,0 c 2.365,0.586 4.72,0.92 6.83,1.791 l 0,0 c 8.599,3.551 14.898,9.458 18.582,17.911 l 0,0 c 3.352,7.694 3.249,17.659 0,25.3 l 0,0 c -4.797,11.283 -14.955,20.385 -31.094,20.385 l 0,0 c -0.305,0 -0.614,-0.003 -0.924,-0.01"
         id="path806" /></clipPath><clipPath
       id="clipPath836"><path
         d="m 30.965,247.434 193.701,0 0,34.99 -193.701,0 0,-34.99 z"
         id="path838" /></clipPath><clipPath
       id="clipPath876"><path
         d="m 20.886,24.538 96.799,0 0,21.526 -96.799,0 0,-21.526 z"
         id="path878" /></clipPath><clipPath
       id="clipPath906"><path
         d="m 265.727,64.307 89.884,0 0,35.619 -89.884,0 0,-35.619 z"
         id="path908" /></clipPath><clipPath
       id="clipPath918"><path
         d="m 517.323,157.226 68.032,0 0,68.78 -68.032,0 0,-68.78 z"
         id="path920" /></clipPath></defs><g
     transform="matrix(1.25,0,0,-1.25,-642.65377,592.53275)"
     id="g10"><g
       transform="matrix(4.5595114,0,0,4.5595114,-1841.4171,-559.64845)"
       id="g360"><g
         clip-path="url(#clipPath364)"
         id="g362"><text
           transform="matrix(1,0,0,-1,451.4571,11.2559)"
           id="text368"><tspan
             x="0 5.8018808 11.603762 17.046696 18.861008 22.848576 25.746254 28.64393 30.817188 34.445812 38.074432 41.703056 44.600735 47.139465 48.953777 50.768089 54.755657"
             y="0"
             id="tspan370"
             style="font-size:6.52629995px;font-variant:normal;font-weight:bold;font-stretch:normal;writing-mode:lr-tb;fill:#231f20;fill-opacity:1;fill-rule:nonzero;stroke:none;font-family:Frutiger;-inkscape-font-specification:Frutiger-Bold">www.dcc-kaestl.de</tspan></text>
</g></g><g
       transform="matrix(4.5595114,0,0,4.5595114,-1841.4171,-559.64845)"
       id="g914"><g
         clip-path="url(#clipPath918)"
         id="g916"><g
           transform="translate(550.1104,157.2265)"
           id="g922"><path
             d="m 0,0 -0.422,0.083 c -0.453,0.09 -11.177,2.225 -18.487,5.335 -6.48,2.758 -10.299,5.922 -11.674,9.672 l -0.053,0.161 c -1.174,3.143 -1.117,7.022 0.18,12.208 0.276,1.103 0.567,2.204 0.848,3.268 2.272,8.588 4.23,15.988 -2.1,22.001 l -1.079,1.026 3.968,9.749 1.588,-0.122 c 0.031,-0.003 0.806,-0.057 2.107,-0.057 3.836,0 13.857,0.492 24.03,5.055 l 0.892,0.4 0.893,-0.4 c 10.173,-4.563 20.199,-5.056 24.037,-5.056 1.343,0 2.104,0.057 2.111,0.057 l 1.585,0.119 3.969,-9.746 -1.079,-1.026 C 24.984,46.714 26.942,39.315 29.209,30.746 l 0.007,-0.03 c 0.281,-1.062 0.572,-2.159 0.847,-3.258 1.308,-5.232 1.355,-9.14 0.147,-12.296 L 30.131,14.951 C 29.17,12.329 27.025,8.873 18.908,5.419 11.618,2.317 0.877,0.174 0.422,0.084 L 0,0"
             id="path924"
             style="fill:#ffffff;fill-opacity:1;fill-rule:nonzero;stroke:none" /></g><g
           transform="translate(520.1227,172.5912)"
           id="g926"><path
             d="m 0,0 0.018,-0.049 c 1.31,-3.572 5.012,-6.613 11.317,-9.295 7.247,-3.085 17.907,-5.207 18.357,-5.296 l 0.296,-0.058 0.296,0.058 c 0.45,0.09 11.127,2.221 18.356,5.296 7.885,3.356 9.948,6.657 10.865,9.158 l 0.081,0.215 c 1.158,3.027 1.104,6.81 -0.171,11.905 -0.273,1.095 -0.563,2.191 -0.843,3.25 l -0.009,0.03 c -2.319,8.769 -4.322,16.343 2.288,22.623 l 0.756,0.718 -3.621,8.891 -1.11,-0.083 c -0.004,0 -0.793,-0.059 -2.16,-0.059 -3.881,0 -14.017,0.498 -24.305,5.113 l -0.625,0.28 -0.625,-0.28 C 18.873,47.803 8.742,47.305 4.864,47.305 c -1.304,0 -2.073,0.053 -2.156,0.059 l -1.113,0.085 -3.62,-8.893 0.755,-0.718 C 5.341,31.557 3.338,23.984 1.017,15.215 0.731,14.133 0.441,13.034 0.166,11.935 -1.099,6.878 -1.161,3.118 -0.032,0.105 L 0,0 z m 29.988,-15.365 -0.422,0.084 c -0.453,0.089 -11.178,2.224 -18.487,5.335 -6.481,2.758 -10.299,5.921 -11.675,9.671 l -0.052,0.162 c -1.175,3.142 -1.117,7.021 0.18,12.208 0.276,1.102 0.567,2.203 0.848,3.268 2.272,8.587 4.23,15.987 -2.101,22.001 l -1.079,1.025 3.969,9.749 1.587,-0.122 c 0.031,-0.002 0.806,-0.057 2.108,-0.057 3.836,0 13.857,0.492 24.029,5.055 l 0.893,0.4 0.893,-0.4 c 10.172,-4.563 20.198,-5.056 24.037,-5.056 1.343,0 2.103,0.057 2.111,0.057 l 1.585,0.119 3.969,-9.746 -1.079,-1.025 C 54.972,31.349 56.929,23.95 59.196,15.382 l 0.008,-0.031 c 0.281,-1.062 0.572,-2.159 0.846,-3.258 1.309,-5.232 1.356,-9.139 0.148,-12.296 l -0.079,-0.21 c -0.961,-2.623 -3.107,-6.079 -11.223,-9.532 -7.29,-3.102 -18.032,-5.246 -18.486,-5.336 l -0.422,-0.084 z"
             id="path928"
             style="fill:#7b7979;fill-opacity:1;fill-rule:nonzero;stroke:none" /></g><g
           transform="translate(575.5604,204.6234)"
           id="g930"><path
             d="m 0,0 -54.671,-28.475 c 0.104,-1.068 0.323,-2.027 0.656,-2.895 l 0.03,-0.103 c 0.842,-2.295 3.289,-5.355 10.481,-8.415 7.191,-3.06 18.054,-5.201 18.054,-5.201 0,0 10.88,2.149 18.054,5.202 7.191,3.06 9.193,5.996 10.035,8.291 l 0.083,0.225 c 1.011,2.639 0.995,6.106 -0.226,10.987 C 0.675,-13.1 -1.75,-6.181 0,0"
             id="path932"
             style="fill:#1f53a7;fill-opacity:1;fill-rule:nonzero;stroke:none" /></g><g
           transform="translate(521.7709,184.2398)"
           id="g934"><path
             d="m 0,0 c -0.675,-2.699 -0.979,-4.964 -0.948,-6.897 l 55.249,28.776 c 0.778,1.914 2.009,3.751 3.85,5.5 l -2.807,6.896 c 0,0 -13.363,-1.025 -27.206,5.184 C 14.295,33.25 0.941,34.276 0.941,34.276 L -1.866,27.38 C 6.277,19.644 2.544,10.178 0,0"
             id="path936"
             style="fill:#ed1c24;fill-opacity:1;fill-rule:nonzero;stroke:none" /></g><g
           transform="translate(545.9364,198.9554)"
           id="g938"><path
             d="m 0,0 c 0,-4.521 -3.666,-8.189 -8.188,-8.188 -4.522,0 -8.19,3.667 -8.19,8.188 0,4.524 3.667,8.189 8.189,8.189 C -3.666,8.189 0,4.523 0,0"
             id="path940"
             style="fill:#ffffff;fill-opacity:1;fill-rule:nonzero;stroke:none" /></g><g
           transform="translate(537.6949,191.526)"
           id="g942"><path
             d="m 0,0 c -1.534,0 -3.316,0.502 -5.091,2.109 l 0.365,0.184 c 0,0 1.511,-0.736 3.496,-0.736 1.602,0 3.513,0.479 5.186,2.211 3.748,3.877 2.584,5.859 2.282,7.755 0,0 3.792,-5.256 -1.809,-10.125 C 4.429,1.398 2.56,0 0,0"
             id="path944"
             style="fill:#bdbbbc;fill-opacity:1;fill-rule:nonzero;stroke:none" /></g><g
           transform="translate(530.5362,197.3187)"
           id="g946"><path
             d="M 0,0 1.163,-1.099 2.779,-3.855 2.499,-4.071 C 2.499,-4.071 0.517,-2.477 0,0"
             id="path948"
             style="fill:#231f20;fill-opacity:1;fill-rule:nonzero;stroke:none" /></g><g
           transform="translate(535.9639,192.7738)"
           id="g950"><path
             d="M 0,0 1.142,1.766 4.373,1.83 5.019,0.086 c 0,0 -0.969,-0.624 -2.649,-1.078 0,0 -1.615,0.367 -2.37,0.992"
             id="path952"
             style="fill:#231f20;fill-opacity:1;fill-rule:nonzero;stroke:none" /></g><g
           transform="translate(532.6234,197.9432)"
           id="g954"><path
             d="M 0,0 2.995,-0.797 4.697,2.068 2.845,4.674 -0.042,3.382 0,0 z"
             id="path956"
             style="fill:#231f20;fill-opacity:1;fill-rule:nonzero;stroke:none" /></g><g
           transform="translate(540.5098,200.1402)"
           id="g958"><path
             d="m 0,0 1.572,-2.886 2.153,0.861 c 0,0 0.13,2.175 -0.086,3.06 L 1.486,2.392 0,0 z"
             id="path960"
             style="fill:#231f20;fill-opacity:1;fill-rule:nonzero;stroke:none" /></g><g
           transform="translate(535.5104,206.0426)"
           id="g962"><path
             d="M 0,0 C 0,0 2.544,0.97 4.999,-0.194 L 4.632,-1.206 c 0,0 -2.305,0.215 -3.295,0.022 L 0,0 z"
             id="path964"
             style="fill:#231f20;fill-opacity:1;fill-rule:nonzero;stroke:none" /></g><g
           transform="translate(530.5997,200.9591)"
           id="g966"><path
             d="M 0,0 C 0,0 0.431,1.939 2.025,3.382 L 0.948,1.207 0,0 z"
             id="path968"
             style="fill:#231f20;fill-opacity:1;fill-rule:nonzero;stroke:none" /></g><g
           transform="translate(542.9234,168.4764)"
           id="g970"><path
             d="M 0,0 C -0.36,0 -0.655,0.286 -0.655,0.665 -0.66,1.039 -0.36,1.329 0.005,1.329 0.369,1.329 0.664,1.043 0.664,0.665 0.664,0.29 0.374,0 0.005,0 L 0,0 z"
             id="path972"
             style="fill:#ffffff;fill-opacity:1;fill-rule:nonzero;stroke:none" /></g><g
           transform="translate(545.805,170.2166)"
           id="g974"><path
             d="m 0,0 -0.01,0 -0.599,-0.271 -0.135,0.631 0.87,0.384 0.688,0 0,-3.04 L 0,-2.296 0,0 z"
             id="path976"
             style="fill:#ffffff;fill-opacity:1;fill-rule:nonzero;stroke:none" /></g><g
           transform="translate(548.6725,170.4036)"
           id="g978"><path
             d="m 0,0 c -0.187,0 -0.337,-0.172 -0.332,-0.439 0,-0.216 0.108,-0.421 0.364,-0.421 0.16,0 0.263,0.07 0.309,0.145 0.024,0.047 0.033,0.098 0.033,0.191 C 0.379,-0.285 0.285,0 0.005,0 L 0,0 z m -0.884,-1.875 c 0.093,-0.01 0.159,-0.01 0.3,-0.006 0.21,0.006 0.425,0.052 0.584,0.141 0.196,0.112 0.323,0.286 0.374,0.459 l -0.009,0.004 c -0.122,-0.112 -0.304,-0.172 -0.566,-0.172 -0.501,0 -0.969,0.331 -0.969,0.953 0,0.609 0.501,1.104 1.194,1.104 0.851,0 1.21,-0.64 1.21,-1.318 0,-0.623 -0.186,-1.082 -0.532,-1.39 -0.314,-0.281 -0.749,-0.421 -1.286,-0.43 -0.108,-0.005 -0.225,0.004 -0.3,0.009 l 0,0.646 z"
             id="path980"
             style="fill:#ffffff;fill-opacity:1;fill-rule:nonzero;stroke:none" /></g><g
           transform="translate(550.254,167.9205)"
           id="g982"><path
             d="m 0,0 0,0.509 0.422,0.37 c 0.617,0.534 0.93,0.851 0.934,1.16 0,0.22 -0.145,0.379 -0.453,0.379 -0.253,0 -0.481,-0.127 -0.65,-0.248 l -0.23,0.604 c 0.234,0.173 0.618,0.318 1.048,0.318 0.706,0 1.128,-0.384 1.128,-0.983 0,-0.486 -0.347,-0.879 -0.707,-1.173 l -0.3,-0.235 0,-0.009 1.058,0 L 2.25,0 0,0 z"
             id="path984"
             style="fill:#ffffff;fill-opacity:1;fill-rule:nonzero;stroke:none" /></g><g
           transform="translate(555.0532,170.2685)"
           id="g986"><path
             d="M 0,0 -1.188,0 -1.23,-0.328 c 0.066,0.009 0.117,0.009 0.173,0.009 0.313,0 0.641,-0.074 0.866,-0.243 0.224,-0.168 0.341,-0.416 0.341,-0.757 0,-0.557 -0.491,-1.081 -1.38,-1.081 -0.383,0 -0.706,0.08 -0.884,0.169 l 0.14,0.631 c 0.136,-0.066 0.426,-0.146 0.697,-0.146 0.257,0 0.562,0.095 0.562,0.38 0,0.276 -0.244,0.431 -0.847,0.431 -0.163,0 -0.277,-0.01 -0.407,-0.029 L -1.768,0.692 0,0.692 0,0 z"
             id="path988"
             style="fill:#ffffff;fill-opacity:1;fill-rule:nonzero;stroke:none" /></g><g
           transform="translate(557.1869,168.4762)"
           id="g990"><path
             d="m 0,0 c -0.36,0 -0.655,0.286 -0.655,0.665 -0.005,0.374 0.295,0.664 0.66,0.664 0.364,0 0.66,-0.286 0.66,-0.664 C 0.665,0.29 0.375,0 0.005,0 L 0,0 z"
             id="path992"
             style="fill:#ffffff;fill-opacity:1;fill-rule:nonzero;stroke:none" /></g><g
           transform="translate(529.7359,172.9949)"
           id="g994"><path
             d="m 0,0 c -1.243,0 -1.57,0.659 -1.57,1.477 l 0,2.469 1.066,0 0,-2.417 c 0,-0.412 0.126,-0.636 0.567,-0.636 0.429,0 0.567,0.184 0.567,0.665 l 0,2.388 1.053,0 0,-2.331 C 1.683,0.492 1.036,0 0,0"
             id="path996"
             style="fill:#ffffff;fill-opacity:1;fill-rule:nonzero;stroke:none" /></g><g
           transform="translate(534.3419,173.0745)"
           id="g998"><path
             d="m 0,0 -0.647,1.323 c -0.149,0.304 -0.286,0.613 -0.384,0.871 0.023,-0.229 0.029,-0.361 0.029,-0.613 l 0,-1.581 -1.025,0 0,3.866 1.363,0 0.561,-1.151 C 0.062,2.372 0.235,2.023 0.366,1.713 0.338,1.976 0.326,2.274 0.326,2.515 l 0,1.351 1.025,0 L 1.351,0 0,0 z"
             id="path1000"
             style="fill:#ffffff;fill-opacity:1;fill-rule:nonzero;stroke:none" /></g><g
           transform="translate(538.2844,176.0242)"
           id="g1002"><path
             d="m 0,0 0,-2.95 -1.065,0 0,2.95 -0.837,0 0,0.916 2.738,0 L 0.836,0 0,0 z"
             id="path1004"
             style="fill:#ffffff;fill-opacity:1;fill-rule:nonzero;stroke:none" /></g><g
           transform="translate(539.8092,173.0744)"
           id="g1006"><path
             d="m 0,0 0,3.866 2.263,0 0,-0.905 -1.197,0 0,-0.544 1.133,0 0,-0.87 -1.133,0 0,-0.625 1.197,0 L 2.263,0 0,0 z"
             id="path1008"
             style="fill:#ffffff;fill-opacity:1;fill-rule:nonzero;stroke:none" /></g><g
           transform="translate(544.1698,176.0929)"
           id="g1010"><path
             d="m 0,0 c -0.069,0 -0.166,-0.006 -0.201,-0.012 l 0,-0.83 c 0.04,-0.006 0.12,-0.011 0.178,-0.011 0.291,0 0.492,0.154 0.492,0.44 C 0.469,-0.183 0.349,0 0,0 m 0.566,-3.019 -0.727,1.41 -0.04,0 0,-1.41 -1.065,0 0,3.867 c 0.36,0.022 0.836,0.028 1.323,0.028 0.985,0 1.534,-0.349 1.534,-1.209 0,-0.457 -0.257,-0.898 -0.704,-1.058 0.103,-0.156 0.194,-0.298 0.281,-0.447 l 0.693,-1.181 -1.295,0 z"
             id="path1012"
             style="fill:#ffffff;fill-opacity:1;fill-rule:nonzero;stroke:none" /></g><g
           transform="translate(548.8277,173.0743)"
           id="g1014"><path
             d="m 0,0 0,1.524 -1.157,0 0,-1.524 -1.065,0 0,3.866 1.065,0 0,-1.409 1.157,0 0,1.409 1.065,0 L 1.065,0 0,0 z"
             id="path1016"
             style="fill:#ffffff;fill-opacity:1;fill-rule:nonzero;stroke:none" /></g><g
           transform="translate(552.4666,175.0274)"
           id="g1018"><path
             d="m 0,0 c -0.068,0.223 -0.138,0.43 -0.178,0.67 l -0.011,0 C -0.224,0.447 -0.298,0.189 -0.378,-0.063 l -0.132,-0.423 0.664,0 L 0,0 z m 0.624,-1.953 -0.2,0.63 -1.192,0 -0.194,-0.63 -1.054,0 1.26,3.866 1.22,0 1.323,-3.866 -1.163,0 z"
             id="path1020"
             style="fill:#ffffff;fill-opacity:1;fill-rule:nonzero;stroke:none" /></g><g
           transform="translate(556.5176,173.0227)"
           id="g1022"><path
             d="m 0,0 c -1.518,0 -1.833,1.049 -1.833,1.827 0,1.289 0.727,2.12 1.993,2.12 0.252,0 0.521,-0.035 0.745,-0.093 L 0.784,2.893 C 0.601,2.944 0.378,2.979 0.16,2.979 c -0.503,0 -0.819,-0.35 -0.819,-0.974 0,-0.67 0.258,-1.031 0.859,-1.031 0.166,0 0.424,0.04 0.584,0.108 L 0.91,0.132 C 0.641,0.046 0.309,0 0,0"
             id="path1024"
             style="fill:#ffffff;fill-opacity:1;fill-rule:nonzero;stroke:none" /></g><g
           transform="translate(560.4707,173.0741)"
           id="g1026"><path
             d="m 0,0 0,1.524 -1.157,0 0,-1.524 -1.065,0 0,3.866 1.065,0 0,-1.409 1.157,0 0,1.409 1.065,0 L 1.065,0 0,0 z"
             id="path1028"
             style="fill:#ffffff;fill-opacity:1;fill-rule:nonzero;stroke:none" /></g><g
           transform="translate(562.4321,173.0741)"
           id="g1030"><path
             d="m 0,0 0,3.866 1.065,0 L 1.065,0 0,0 z"
             id="path1032"
             style="fill:#ffffff;fill-opacity:1;fill-rule:nonzero;stroke:none" /></g><g
           transform="translate(566.4187,173.074)"
           id="g1034"><path
             d="m 0,0 -0.647,1.323 c -0.149,0.304 -0.286,0.613 -0.384,0.871 0.023,-0.229 0.029,-0.361 0.029,-0.613 l 0,-1.581 -1.025,0 0,3.866 1.363,0 0.561,-1.151 C 0.063,2.372 0.235,2.023 0.366,1.713 0.338,1.976 0.326,2.274 0.326,2.515 l 0,1.351 1.025,0 L 1.351,0 0,0 z"
             id="path1036"
             style="fill:#ffffff;fill-opacity:1;fill-rule:nonzero;stroke:none" /></g><g
           transform="translate(571.7927,175.8515)"
           id="g1038"><path
             d="m 0,0 c -0.298,0.115 -0.641,0.19 -1.025,0.19 -0.704,0 -1.071,-0.442 -1.071,-1.066 0,-0.601 0.286,-0.996 0.945,-0.996 0.08,0 0.16,0.011 0.217,0.028 l 0,1.174 1.066,0 0,-1.906 c -0.372,-0.167 -0.864,-0.27 -1.391,-0.27 -1.301,0 -1.994,0.739 -1.994,1.895 0,1.255 0.871,2.103 2.279,2.103 0.402,0 0.819,-0.075 1.135,-0.172 L 0,0 z"
             id="path1040"
             style="fill:#ffffff;fill-opacity:1;fill-rule:nonzero;stroke:none" /></g><g
           transform="translate(527.2599,210.6165)"
           id="g1042"><path
             d="m 0,0 c -0.237,0 -0.484,0.021 -0.716,0.072 l 0.053,0.874 c 0.19,-0.067 0.478,-0.123 0.74,-0.123 0.232,0 0.381,0.097 0.381,0.257 0,0.504 -1.296,0.206 -1.297,1.394 0,0.688 0.53,1.131 1.446,1.131 0.175,0 0.416,-0.021 0.632,-0.057 L 1.188,2.72 C 0.987,2.776 0.782,2.812 0.57,2.812 0.303,2.812 0.19,2.705 0.19,2.571 0.19,2.134 1.486,2.304 1.486,1.219 1.486,0.525 0.925,0 0,0"
             id="path1044"
             style="fill:#ffffff;fill-opacity:1;fill-rule:nonzero;stroke:none" /></g><g
           transform="translate(530.4803,213.4035)"
           id="g1046"><path
             d="m 0,0 c -0.016,0 -0.051,0 -0.092,-0.005 l 0,-0.849 c 0.036,-0.005 0.056,-0.005 0.071,-0.005 0.247,0 0.468,0.154 0.468,0.443 C 0.447,-0.19 0.329,0 0,0 m 0.051,-1.656 c -0.02,0 -0.077,0 -0.143,0.005 l 0,-1.069 -0.957,0 0,3.471 C -0.73,0.766 -0.381,0.777 0,0.777 c 0.925,0 1.434,-0.396 1.434,-1.162 0,-0.675 -0.452,-1.271 -1.383,-1.271"
             id="path1048"
             style="fill:#ffffff;fill-opacity:1;fill-rule:nonzero;stroke:none" /></g><g
           transform="translate(532.5286,210.6833)"
           id="g1050"><path
             d="m 0,0 0,3.471 0.956,0 L 0.956,0 0,0 z"
             id="path1052"
             style="fill:#ffffff;fill-opacity:1;fill-rule:nonzero;stroke:none" /></g><g
           transform="translate(534.2879,210.6833)"
           id="g1054"><path
             d="m 0,0 0,3.471 2.032,0 0,-0.813 -1.075,0 0,-0.488 1.018,0 0,-0.782 -1.018,0 0,-0.56 1.075,0 L 2.032,0 0,0 z"
             id="path1056"
             style="fill:#ffffff;fill-opacity:1;fill-rule:nonzero;stroke:none" /></g><g
           transform="translate(537.0665,210.6833)"
           id="g1058"><path
             d="m 0,0 0,3.471 0.956,0 0,-2.618 0.957,0 L 1.913,0 0,0 z"
             id="path1060"
             style="fill:#ffffff;fill-opacity:1;fill-rule:nonzero;stroke:none" /></g><g
           transform="translate(541.5777,210.6832)"
           id="g1062"><path
             d="m 0,0 -1.126,0 -1.141,3.471 1.027,0 0.53,-1.738 c 0.057,-0.185 0.118,-0.381 0.17,-0.617 l 0.01,0 c 0.041,0.216 0.067,0.35 0.165,0.668 l 0.514,1.687 0.977,0 L 0,0 z"
             id="path1064"
             style="fill:#ffffff;fill-opacity:1;fill-rule:nonzero;stroke:none" /></g><g
           transform="translate(543.2199,210.6832)"
           id="g1066"><path
             d="m 0,0 0,3.471 2.031,0 0,-0.813 -1.074,0 0,-0.488 1.018,0 0,-0.782 -1.018,0 0,-0.56 1.074,0 L 2.031,0 0,0 z"
             id="path1068"
             style="fill:#ffffff;fill-opacity:1;fill-rule:nonzero;stroke:none" /></g><g
           transform="translate(547.1349,213.3926)"
           id="g1070"><path
             d="m 0,0 c -0.062,0 -0.149,-0.005 -0.18,-0.01 l 0,-0.746 c 0.036,-0.005 0.108,-0.01 0.159,-0.01 0.263,0 0.442,0.139 0.442,0.396 C 0.421,-0.164 0.314,0 0,0 m 0.509,-2.71 -0.653,1.265 -0.036,0 0,-1.265 -0.956,10e-4 0,3.471 c 0.323,0.02 0.75,0.025 1.187,0.025 0.885,0 1.378,-0.314 1.378,-1.085 0,-0.411 -0.231,-0.807 -0.632,-0.951 0.092,-0.139 0.175,-0.267 0.251,-0.401 l 0.623,-1.06 -1.162,0 z"
             id="path1072"
             style="fill:#ffffff;fill-opacity:1;fill-rule:nonzero;stroke:none" /></g><g
           transform="translate(549.3224,210.6831)"
           id="g1074"><path
             d="m 0,0 0,3.471 2.031,0 0,-0.813 -1.075,0 0,-0.488 1.018,0 0,-0.782 -1.018,0 0,-0.56 1.075,0 L 2.031,0 0,0 z"
             id="path1076"
             style="fill:#ffffff;fill-opacity:1;fill-rule:nonzero;stroke:none" /></g><g
           transform="translate(552.0999,210.6831)"
           id="g1078"><path
             d="m 0,0 0,3.471 0.957,0 L 0.957,0 0,0 z"
             id="path1080"
             style="fill:#ffffff;fill-opacity:1;fill-rule:nonzero;stroke:none" /></g><g
           transform="translate(555.6801,210.683)"
           id="g1082"><path
             d="M 0,0 -0.581,1.188 C -0.714,1.46 -0.838,1.738 -0.925,1.969 -0.905,1.763 -0.9,1.646 -0.9,1.419 l 0,-1.419 -0.92,0 0,3.471 1.224,0 0.504,-1.034 C 0.057,2.129 0.211,1.815 0.329,1.537 0.304,1.774 0.294,2.041 0.294,2.257 l 0,1.214 0.92,0 L 1.214,0 0,0 z"
             id="path1084"
             style="fill:#ffffff;fill-opacity:1;fill-rule:nonzero;stroke:none" /></g><g
           transform="translate(557.6981,210.683)"
           id="g1086"><path
             d="m 0,0 0,3.471 0.957,0 L 0.957,0 0,0 z"
             id="path1088"
             style="fill:#ffffff;fill-opacity:1;fill-rule:nonzero;stroke:none" /></g><g
           transform="translate(562.265,213.1768)"
           id="g1090"><path
             d="m 0,0 c -0.267,0.103 -0.576,0.169 -0.92,0.169 -0.633,0 -0.962,-0.395 -0.962,-0.956 0,-0.539 0.257,-0.895 0.849,-0.895 0.071,0 0.143,0.011 0.195,0.026 l 0,1.054 0.956,0 0,-1.712 c -0.334,-0.149 -0.776,-0.242 -1.249,-0.242 -1.167,0 -1.79,0.664 -1.79,1.703 0,1.126 0.782,1.887 2.047,1.887 0.36,0 0.736,-0.067 1.018,-0.155 L 0,0 z"
             id="path1092"
             style="fill:#ffffff;fill-opacity:1;fill-rule:nonzero;stroke:none" /></g><g
           transform="translate(564.5917,210.6108)"
           id="g1094"><path
             d="m 0,0 c -1.116,0 -1.409,0.591 -1.409,1.327 l -10e-4,2.216 0.957,0 0,-2.17 c 0,-0.37 0.113,-0.571 0.509,-0.571 0.386,0 0.509,0.165 0.509,0.597 l 0,2.144 0.946,0 0,-2.093 C 1.511,0.442 0.93,0 0,0"
             id="path1096"
             style="fill:#ffffff;fill-opacity:1;fill-rule:nonzero;stroke:none" /></g><g
           transform="translate(568.7279,210.6828)"
           id="g1098"><path
             d="M 0,0 -0.581,1.188 C -0.715,1.46 -0.838,1.738 -0.925,1.969 -0.905,1.763 -0.9,1.646 -0.9,1.419 l 0,-1.419 -0.92,0 0,3.471 1.224,0 0.503,-1.034 C 0.057,2.129 0.211,1.815 0.329,1.537 0.304,1.774 0.293,2.041 0.293,2.257 l 0,1.214 0.92,0 L 1.213,0 0,0 z"
             id="path1100"
             style="fill:#ffffff;fill-opacity:1;fill-rule:nonzero;stroke:none" /></g><g
           transform="translate(573.5532,213.1766)"
           id="g1102"><path
             d="m 0,0 c -0.268,0.103 -0.576,0.169 -0.921,0.169 -0.632,0 -0.961,-0.395 -0.961,-0.955 0,-0.54 0.257,-0.896 0.849,-0.896 0.071,0 0.143,0.011 0.194,0.026 l 0,1.054 0.958,0 0,-1.712 c -0.335,-0.149 -0.777,-0.242 -1.25,-0.242 -1.168,0 -1.79,0.664 -1.79,1.703 0,1.126 0.782,1.887 2.047,1.887 0.36,0 0.735,-0.067 1.018,-0.155 L 0,0 z"
             id="path1104"
             style="fill:#ffffff;fill-opacity:1;fill-rule:nonzero;stroke:none" /></g><g
           transform="translate(549.0645,181.14)"
           id="g1106"><path
             d="m 0,0 c -0.677,-0.144 -1.331,0.229 -1.46,0.83 -0.044,0.204 -0.022,0.412 0.056,0.603 -0.217,0.226 -0.304,0.513 -0.32,0.706 -0.053,0.399 0.183,0.812 0.722,1.263 0.219,0.183 0.414,0.31 0.423,0.316 L -0.56,3.73 7.725,8.048 7.979,7.781 C 8.013,7.745 8.048,7.711 8.082,7.677 8.095,8.467 8.741,8.923 9.231,9.044 l 0.017,0.004 c 0.574,0.122 0.967,-0.03 1.203,-0.188 0.234,0.348 0.609,0.56 0.921,0.637 l 0.016,0.004 c 0.575,0.122 0.969,-0.03 1.203,-0.187 0.235,0.347 0.61,0.56 0.921,0.637 l 0.017,0.004 c 0.575,0.122 0.968,-0.03 1.204,-0.187 0.234,0.347 0.608,0.559 0.92,0.637 l 0.017,0.004 c 0.597,0.126 0.999,-0.043 1.23,-0.207 0.125,-0.088 0.224,-0.19 0.303,-0.295 L 18.042,9.64 17.968,9.22 C 17.867,8.645 17.906,8.389 17.932,8.296 L 19.275,7.741 19.284,7.737 C 20.067,7.378 20.29,6.821 20.313,6.759 20.39,6.559 20.417,6.363 20.394,6.182 20.594,6.03 20.736,5.817 20.788,5.569 20.854,5.258 20.77,4.929 20.554,4.668 20.367,4.441 20.096,4.281 19.792,4.216 L 0.001,0 0,0 z"
             id="path1108"
             style="fill:#ffffff;fill-opacity:1;fill-rule:nonzero;stroke:none" /></g><g
           transform="translate(559.0775,184.8127)"
           id="g1110"><path
             d="M 0,0 -0.247,-0.054 -0.295,0.165 -0.046,0.22 C 0.062,0.244 0.124,0.21 0.138,0.147 L 0.139,0.143 C 0.152,0.079 0.107,0.023 0,0 m -0.406,0.677 0.214,0.046 c 0.105,0.023 0.166,-0.002 0.18,-0.067 L -0.011,0.652 C 0.003,0.586 -0.039,0.54 -0.145,0.516 L -0.361,0.47 -0.406,0.677 z M 0.259,0.474 C 0.406,0.563 0.489,0.693 0.45,0.869 L 0.449,0.873 C 0.427,0.974 0.372,1.043 0.308,1.083 0.203,1.152 0.065,1.169 -0.139,1.125 l -0.828,-0.179 0.319,-1.477 0.818,0.177 c 0.374,0.081 0.531,0.296 0.48,0.532 L 0.649,0.183 C 0.606,0.385 0.461,0.46 0.259,0.474"
             id="path1112"
             style="fill:#231f20;fill-opacity:1;fill-rule:nonzero;stroke:none" /></g><g
           transform="translate(560.6221,185.1866)"
           id="g1114"><path
             d="m 0,0 c -0.163,-0.034 -0.305,0.075 -0.347,0.267 l -0.001,0.004 c -0.038,0.178 0.04,0.348 0.207,0.383 0.135,0.029 0.229,-0.028 0.306,-0.121 L 0.521,0.859 C 0.348,1.058 0.094,1.169 -0.23,1.098 -0.673,1.003 -0.945,0.6 -0.849,0.158 l 0,-0.003 c 0.1,-0.458 0.523,-0.689 0.932,-0.601 0.367,0.079 0.536,0.304 0.613,0.551 L 0.238,0.246 C 0.201,0.123 0.139,0.03 0,0"
             id="path1116"
             style="fill:#231f20;fill-opacity:1;fill-rule:nonzero;stroke:none" /></g><g
           transform="translate(562.6631,186.7439)"
           id="g1118"><path
             d="m 0,0 -0.503,-0.109 0.178,-0.82 c 0.038,-0.178 -0.041,-0.27 -0.175,-0.3 -0.131,-0.028 -0.244,0.029 -0.285,0.213 l -0.173,0.808 -0.503,-0.108 0.176,-0.815 c 0.106,-0.489 0.436,-0.63 0.876,-0.535 0.441,0.096 0.692,0.357 0.583,0.862 L 0,0 z"
             id="path1120"
             style="fill:#231f20;fill-opacity:1;fill-rule:nonzero;stroke:none" /></g><g
           transform="translate(568.7094,186.2032)"
           id="g1122"><path
             d="m 0,0 c -0.089,-0.107 -0.223,-0.185 -0.377,-0.217 l -4.532,-0.966 0.819,1.073 3.531,0.752 C -0.249,0.708 0.044,0.568 0.093,0.332 0.118,0.22 0.085,0.103 0,0 M -5.161,-1.236 -19.54,-4.3 l -0.001,0 c -0.308,-0.066 -0.602,0.073 -0.653,0.31 -0.05,0.236 0.162,0.483 0.471,0.549 l 8.901,1.898 -0.009,0.039 0.007,0.002 -0.222,1.045 c -0.036,0.171 0.073,0.339 0.244,0.375 l 4.741,1.007 c 0.17,0.035 0.338,-0.073 0.375,-0.244 l 0.195,-0.919 -0.007,-0.003 0.035,-0.162 1.122,0.239 -0.82,-1.072 z m -6.905,3.299 c 0.503,-0.498 1.057,-0.789 1.588,-0.96 0.058,-0.019 0.117,-0.038 0.175,-0.054 0.354,-0.096 0.69,-0.139 0.991,-0.151 0.241,-0.011 0.456,-0.004 0.638,0.012 0.114,0.01 0.212,0.022 0.293,0.035 0.081,0.012 0.146,0.024 0.19,0.034 0.038,0.007 0.058,0.012 0.059,0.012 l 1.531,0.361 0.269,0.063 1.793,0.423 0.258,0.059 0.961,0.227 c 0.062,0.015 0.119,0.045 0.172,0.082 0.152,0.102 0.272,0.278 0.365,0.486 0.03,0.068 0.057,0.139 0.082,0.212 0.007,0.019 0.013,0.037 0.02,0.057 0.03,-0.126 0.077,-0.229 0.14,-0.307 0.085,-0.103 0.178,-0.136 0.231,-0.147 l 0.561,-0.234 -17.396,-3.9 7.079,3.69 z m 1.686,-0.397 -0.01,-0.005 c -0.036,-0.019 -0.059,-0.022 -0.073,-0.022 -0.038,0 -0.053,0.041 -0.053,0.043 l -0.021,0.095 -0.033,0.033 -0.007,0.03 0.006,0.035 -0.031,0.141 -0.081,0.019 -0.003,0.105 0.456,0.096 c 0,10e-4 0.008,0.003 0.02,0.003 0.043,0 0.055,-0.017 0.062,-0.048 l 0.07,-0.33 0.005,-0.03 0.006,-0.016 -0.313,-0.149 z m -0.369,0.646 c -0.011,0.065 -0.01,0.122 -0.009,0.178 0.011,0.549 0.584,0.703 0.61,0.71 0.089,0.019 0.176,0.029 0.254,0.029 0.647,0 0.74,-0.644 0.745,-0.679 C -9.099,2.311 -9.121,2.122 -9.218,1.985 -9.26,1.927 -9.31,1.889 -9.361,1.859 -9.455,1.802 -9.539,1.781 -9.564,1.778 L -9.576,1.775 -9.706,1.748 c -0.03,-0.007 -0.052,-0.002 -0.073,0.004 -0.018,0.005 -0.032,0.012 -0.045,0.022 -0.048,0.035 -0.07,0.09 -0.072,0.097 l -0.005,0.024 -0.008,0.04 -0.062,0.294 c -0.023,0.109 -0.102,0.175 -0.208,0.187 L -10.21,2.42 c -0.032,0 -0.056,-0.006 -0.059,-0.006 l -0.48,-0.102 z m 0.577,-0.749 0.196,0.096 c 0.054,-0.055 0.126,-0.097 0.227,-0.097 0.025,0 0.052,0.003 0.08,0.009 l 0.121,0.025 c 0.007,10e-4 0.113,0.015 0.236,0.078 0.043,-0.003 0.079,-0.012 0.099,-0.03 0.119,-0.107 0.26,-0.296 0.305,-0.506 l 0.015,-0.074 c -0.368,-0.016 -0.844,0.008 -1.356,0.145 0.026,0.065 0.049,0.127 0.088,0.205 l 0.014,0.028 -0.025,0.121 z m 1.211,0.943 0.169,0.036 10e-4,-0.068 -0.016,-0.14 0.124,-0.029 -0.005,-0.029 0.024,-0.119 0.033,-0.031 0.01,-0.047 c 0.019,-0.063 0.09,-0.182 0.232,-0.182 0.038,0 0.078,0.016 0.119,0.033 L -8.265,1.905 C -8.464,1.491 -8.478,1.242 -8.452,1.104 -8.525,1.093 -8.612,1.083 -8.709,1.075 l -0.022,0.1 c -0.067,0.319 -0.293,0.543 -0.36,0.603 -0.013,0.012 -0.03,0.017 -0.045,0.026 0.022,0.023 0.043,0.047 0.063,0.074 0.118,0.164 0.152,0.378 0.112,0.628 m 0.885,1.134 c 0.09,0.019 0.177,0.029 0.256,0.029 0.646,0 0.739,-0.645 0.744,-0.679 0.05,-0.239 0.027,-0.429 -0.07,-0.564 C -7.188,2.368 -7.238,2.329 -7.289,2.298 -7.382,2.242 -7.467,2.222 -7.491,2.218 L -7.505,2.216 -7.634,2.187 C -7.661,2.182 -7.683,2.186 -7.704,2.192 -7.722,2.197 -7.737,2.204 -7.75,2.214 -7.798,2.249 -7.821,2.304 -7.823,2.311 L -7.828,2.335 -7.836,2.374 -7.899,2.668 C -7.921,2.778 -8,2.845 -8.108,2.856 L -8.136,2.86 c -0.033,0 -0.057,-0.005 -0.06,-0.006 L -8.675,2.752 c -0.012,0.066 -0.011,0.121 -0.011,0.179 0.012,0.547 0.585,0.702 0.61,0.709 m -0.452,-1.185 -0.083,0.019 -10e-4,0.107 0.455,0.096 c 0,0 0.009,0.002 0.021,0.002 0.041,0 0.053,-0.017 0.059,-0.048 L -8.006,2.302 -8,2.27 -7.994,2.256 -8.308,2.105 -8.318,2.101 C -8.353,2.082 -8.376,2.079 -8.389,2.079 c -0.039,0 -0.055,0.042 -0.056,0.043 l -0.02,0.095 -0.033,0.032 -0.006,0.031 0.006,0.034 -0.03,0.141 z M -8.1,2.004 -7.901,2.098 c 0.052,-0.054 0.125,-0.096 0.224,-0.096 0.026,0 0.053,0.002 0.082,0.008 l 0.12,0.027 c 0.007,0 0.114,0.014 0.236,0.078 0.044,-0.005 0.08,-0.014 0.1,-0.031 0.117,-0.107 0.259,-0.296 0.304,-0.506 L -6.813,1.475 -8.17,1.155 c 0,0 -0.02,-0.005 -0.056,-0.013 C -8.237,1.14 -8.256,1.136 -8.27,1.134 -8.29,1.227 -8.291,1.44 -8.088,1.853 L -8.075,1.882 -8.1,2.004 z m 1.212,0.942 0.169,0.035 0.001,-0.067 -0.016,-0.14 0.123,-0.028 -0.005,-0.029 0.025,-0.119 0.034,-0.033 0.01,-0.047 c 0.017,-0.063 0.087,-0.182 0.23,-0.182 0.039,0 0.079,0.017 0.12,0.034 L -6.192,2.344 C -6.377,1.958 -6.401,1.719 -6.383,1.575 L -6.637,1.516 -6.658,1.615 c -0.067,0.317 -0.293,0.542 -0.36,0.603 -0.012,0.012 -0.03,0.017 -0.045,0.026 0.022,0.023 0.043,0.047 0.063,0.075 0.118,0.162 0.152,0.376 0.112,0.627 m 0.885,1.133 c 0.09,0.019 0.176,0.029 0.255,0.029 0.647,0 0.74,-0.644 0.745,-0.678 C -4.952,3.191 -4.976,3.001 -5.072,2.866 -5.114,2.808 -5.164,2.77 -5.214,2.738 -5.309,2.681 -5.394,2.661 -5.418,2.657 L -5.431,2.655 -5.561,2.627 C -5.589,2.621 -5.612,2.626 -5.632,2.632 -5.65,2.637 -5.664,2.644 -5.677,2.653 -5.724,2.689 -5.748,2.744 -5.75,2.75 l -0.005,0.025 -0.008,0.039 -0.063,0.294 c -0.023,0.11 -0.101,0.177 -0.209,0.187 L -6.063,3.3 C -6.097,3.3 -6.12,3.294 -6.123,3.294 L -6.603,3.192 C -6.615,3.258 -6.614,3.314 -6.612,3.37 -6.6,3.918 -6.028,4.073 -6.003,4.079 M -6.455,2.896 -6.537,2.915 -6.539,3.02 -6.084,3.117 c 0,0 0.009,10e-4 0.021,10e-4 0.042,0 0.054,-0.018 0.061,-0.048 L -5.932,2.742 -5.926,2.711 -5.92,2.696 -6.234,2.545 -6.244,2.54 c -0.037,-0.019 -0.06,-0.022 -0.073,-0.022 -0.038,0 -0.053,0.042 -0.054,0.043 l -0.02,0.096 -0.034,0.032 -0.006,0.03 0.006,0.034 -0.03,0.143 z m 0.427,-0.453 0.199,0.096 c 0.053,-0.056 0.125,-0.098 0.225,-0.098 0.027,0 0.053,0.003 0.081,0.009 l 0.12,0.026 c 0.007,10e-4 0.115,0.015 0.238,0.079 0.043,-0.004 0.079,-0.013 0.098,-0.032 0.058,-0.052 0.249,-0.243 0.305,-0.506 L -4.751,1.96 -6.202,1.618 c -0.01,0.11 0.01,0.315 0.186,0.676 l 0.014,0.028 -0.026,0.121 z m 1.214,0.943 0.168,0.035 0.001,-0.067 -0.017,-0.139 0.124,-0.03 -0.005,-0.03 0.025,-0.118 0.034,-0.033 0.009,-0.045 c 0.018,-0.064 0.089,-0.183 0.231,-0.183 0.038,0 0.08,0.016 0.12,0.033 L -4.119,2.785 C -4.285,2.439 -4.322,2.21 -4.315,2.062 l -0.258,-0.06 -0.012,0.053 c -0.066,0.315 -0.291,0.541 -0.36,0.604 -0.013,0.009 -0.03,0.015 -0.045,0.024 0.022,0.023 0.044,0.048 0.063,0.075 0.118,0.164 0.152,0.377 0.113,0.628 m 0.884,1.132 c 0.091,0.019 0.176,0.029 0.254,0.029 0.648,0 0.741,-0.644 0.745,-0.678 C -2.88,3.631 -2.903,3.441 -3,3.305 -3.041,3.246 -3.091,3.209 -3.143,3.178 -3.236,3.121 -3.322,3.102 -3.346,3.098 L -3.357,3.095 -3.487,3.067 C -3.516,3.061 -3.538,3.066 -3.559,3.072 -3.576,3.076 -3.591,3.084 -3.604,3.094 -3.652,3.129 -3.676,3.183 -3.677,3.19 l -0.006,0.024 -0.008,0.039 -0.061,0.295 c -0.024,0.109 -0.102,0.176 -0.209,0.187 l -0.03,0.004 c -0.032,0 -0.056,-0.005 -0.059,-0.006 L -4.529,3.631 c -0.012,0.066 -0.011,0.122 -0.01,0.179 0.011,0.547 0.584,0.702 0.609,0.708 m -0.453,-1.183 -0.082,0.019 -0.002,0.105 0.456,0.097 0.02,0.002 c 0.043,0 0.054,-0.017 0.062,-0.047 L -3.859,3.181 -3.854,3.15 -3.848,3.135 -4.161,2.985 -4.17,2.981 C -4.206,2.962 -4.23,2.958 -4.244,2.958 c -0.039,0 -0.053,0.041 -0.054,0.044 l -0.021,0.095 -0.033,0.031 -0.007,0.031 0.006,0.034 -0.03,0.142 z M -2.897,2.862 C -3.006,2.575 -3.154,2.338 -3.361,2.286 L -4.133,2.105 c 0.002,0.119 0.038,0.316 0.19,0.628 l 0.014,0.028 -0.024,0.122 0.198,0.095 c 0.052,-0.055 0.126,-0.097 0.224,-0.097 0.026,0 0.053,0.003 0.082,0.009 l 0.12,0.027 c 0.007,0 0.114,0.014 0.236,0.078 0.043,-0.004 0.08,-0.014 0.099,-0.031 0.031,-0.029 0.064,-0.063 0.097,-0.102 M 0.259,0.366 c -0.053,0.243 -0.277,0.414 -0.554,0.451 0.123,0.108 0.24,0.305 0.111,0.636 0,0 -0.147,0.404 -0.749,0.681 L -1.185,2.238 -1.209,2.233 -2.263,2.668 c 0,0 -0.466,0.014 -0.222,1.402 l -0.151,0.049 c 0,0 -0.043,-0.559 -0.195,-1.063 -0.013,0.015 -0.031,0.033 -0.04,0.042 -0.013,0.011 -0.031,0.016 -0.046,0.026 0.022,0.022 0.043,0.045 0.063,0.073 0.129,0.179 0.163,0.419 0.103,0.703 -0.002,0.008 -0.117,0.828 -0.925,0.828 -0.091,0 -0.189,-0.011 -0.294,-0.033 C -3.98,4.692 -4.876,4.464 -4.706,3.591 -4.711,3.579 -4.715,3.569 -4.717,3.564 l -0.1,-0.157 C -4.82,3.426 -4.82,3.441 -4.824,3.46 -4.825,3.468 -4.94,4.288 -5.748,4.288 -5.839,4.288 -5.938,4.278 -6.043,4.255 -6.052,4.253 -6.948,4.025 -6.779,3.151 L -6.79,3.125 -6.891,2.971 C -6.894,2.988 -6.894,3.003 -6.897,3.02 -6.899,3.028 -7.014,3.85 -7.82,3.85 -7.912,3.85 -8.011,3.839 -8.116,3.817 -8.125,3.814 -9.021,3.585 -8.853,2.712 -8.857,2.699 -8.861,2.689 -8.864,2.684 L -8.963,2.528 c -0.004,0.018 -0.004,0.034 -0.008,0.053 0,0.008 -0.115,0.829 -0.923,0.829 -0.091,0 -0.19,-0.011 -0.296,-0.033 -0.008,-0.003 -0.904,-0.231 -0.735,-1.105 l -0.012,-0.026 -0.121,-0.185 0.193,0.042 10e-4,-0.069 -0.016,-0.139 0.124,-0.029 -0.005,-0.029 0.025,-0.119 0.033,-0.032 0.01,-0.047 c 0.018,-0.062 0.089,-0.182 0.23,-0.182 0.039,0 0.08,0.017 0.12,0.034 l 0.006,-0.025 c -0.036,-0.074 -0.063,-0.14 -0.087,-0.203 -0.54,0.173 -1.106,0.477 -1.61,1.005 l -7.685,-4.006 c 0,0 -0.162,-0.104 -0.348,-0.257 l -0.005,-10e-4 c -0.268,-0.224 -0.578,-0.546 -0.531,-0.809 0,0 0.019,-0.507 0.558,-0.591 -0.231,-0.146 -0.364,-0.389 -0.312,-0.628 0.07,-0.328 0.452,-0.524 0.852,-0.44 l 0,0 14.422,3.072 0.009,-0.007 0.008,0.011 4.725,1.006 c 0.19,0.042 0.357,0.139 0.471,0.276 0.117,0.142 0.162,0.311 0.129,0.472"
             id="path1124"
             style="fill:#231f20;fill-opacity:1;fill-rule:nonzero;stroke:none" /></g></g></g></g></svg>