<?xml version="1.0" encoding="utf-8"?>
<!-- Generator: Adobe Illustrator 13.0.2, SVG Export Plug-In . SVG Version: 6.00 Build 14948)  -->
<!DOCTYPE svg PUBLIC "-//W3C//DTD SVG 1.1 Tiny//EN" "http://www.w3.org/Graphics/SVG/1.1/DTD/svg11-tiny.dtd">
<svg version="1.1" baseProfile="tiny" id="Ebene_1" xmlns="http://www.w3.org/2000/svg" xmlns:xlink="http://www.w3.org/1999/xlink"
	 x="0px" y="0px" width="470.588px" height="566px" viewBox="0 0 470.588 566" xml:space="preserve">
<path d="M401.858,83.096C359.365,31.854,300.445-0.003,235.293,0C170.143-0.003,111.22,31.854,68.727,83.096
	C26.216,134.344,0.003,205.006,0,282.999c0.003,77.995,26.216,148.659,68.727,199.906c42.493,51.24,101.417,83.099,166.566,83.095
	c65.152,0.004,124.072-31.854,166.565-83.095c42.515-51.247,68.729-121.911,68.73-199.906
	C470.586,205.007,444.373,134.344,401.858,83.096z M397.227,479.063c-41.575,50.097-98.798,80.915-161.934,80.919
	c-63.137-0.004-120.36-30.822-161.936-80.919C31.796,428.974,6.011,359.643,6.014,282.999
	C6.011,206.356,31.796,137.024,73.357,86.937C114.933,36.841,172.156,6.02,235.293,6.016
	c63.136,0.003,120.359,30.823,161.934,80.921c41.563,50.087,67.348,119.419,67.344,196.062
	C464.575,359.643,438.79,428.974,397.227,479.063z"/>
<path fill="#FFFFFF" d="M397.227,479.063c-41.575,50.097-98.798,80.915-161.934,80.919c-63.137-0.004-120.36-30.822-161.936-80.919
	C31.796,428.974,6.011,359.643,6.014,282.999C6.011,206.356,31.796,137.024,73.357,86.937
	C114.933,36.841,172.156,6.02,235.293,6.016c63.136,0.003,120.359,30.823,161.934,80.921
	c41.563,50.087,67.348,119.419,67.344,196.062C464.575,359.643,438.79,428.974,397.227,479.063z"/>
<path d="M389.572,94.377c-39.337-48.36-93.911-78.456-154.277-78.453c-60.366-0.003-114.943,30.093-154.277,78.453
	c-39.354,48.37-63.609,115.039-63.613,188.62c0.003,73.583,24.259,140.256,63.613,188.624
	c39.333,48.361,93.907,78.454,154.277,78.454c60.366,0,114.94-30.093,154.277-78.454c39.354-48.368,63.609-115.041,63.612-188.624
	C453.181,209.417,428.925,142.746,389.572,94.377z"/>
<path fill="#FFFFFF" d="M384.906,98.174c-38.436-47.213-91.303-76.229-149.611-76.232c-58.308,0.003-111.175,29.02-149.611,76.232
	c-38.418,47.204-62.268,112.567-62.264,184.823c-0.001,33.711,5.192,65.918,14.63,95.483l392.845-195.933
	C420.116,150.734,404.389,122.115,384.906,98.174z"/>
<path d="M205.959,217.752c-4.516-8.872-10.302-15.588-17.392-19.895c-6.972-4.246-14.826-6.436-23.323-6.552
	c-0.249-0.004-0.505-0.006-0.762-0.006c-8.4,0.008-19.708,1.809-34.171,5.352c-11.137,2.739-19.409,4.062-24.444,4.051
	c-1.562,0.002-2.799-0.127-3.644-0.326c-3.162-0.775-4.917-2.149-6.179-4.532c-0.684-1.352-0.979-2.578-0.981-3.798
	c0.002-1.257,0.313-2.547,1.051-3.986c2.419-4.75,7.217-9.156,14.772-13.004c5.725-2.922,10.601-4.264,14.521-4.256
	c1.084,0,2.096,0.099,3.05,0.291c4.383,0.872,8.829,3.961,13.251,9.921l1.572,2.123l31.556-17.579l-1.455-2.624
	c-7.029-12.769-17.362-21.099-30.476-24.353c-3.505-0.88-7.166-1.315-10.966-1.313c-10.583,0.004-22.187,3.341-34.874,9.804
	c-10.587,5.395-18.954,11.662-24.998,18.883c-6.039,7.201-9.62,15.187-10.533,23.733c-0.177,1.657-0.266,3.295-0.266,4.917
	c-0.004,6.648,1.512,12.998,4.523,18.894c5.729,11.329,15.304,18.906,27.992,22.234c3.504,0.928,7.477,1.364,11.939,1.367
	c7.503-0.002,16.404-1.239,26.793-3.656c12.656-2.941,20.895-4.672,24.375-5.154c1.81-0.232,3.475-0.346,4.952-0.346
	c2.681-0.004,4.734,0.383,6.148,0.996c2.331,1.016,4.058,2.64,5.428,5.292c1.051,2.071,1.554,4.161,1.558,6.413
	c-0.002,2.265-0.525,4.717-1.665,7.4c-2.131,5.022-7.12,9.826-15.485,14.084c-5.554,2.83-10.634,4.161-15.279,4.159
	c-1.875,0-3.687-0.214-5.451-0.643c-6.067-1.467-12.07-5.799-17.921-13.531l-1.684-2.226L87.477,269.22l1.696,2.543
	c9.725,14.609,21.659,23.931,35.634,27.364c3.802,0.938,7.751,1.407,11.827,1.407c10.937-0.004,22.733-3.324,35.406-9.776
	c11.91-6.069,21.148-12.87,27.654-20.526c6.508-7.661,10.304-16.388,11.199-25.911c0.159-1.671,0.239-3.326,0.239-4.965
	C211.136,231.751,209.403,224.498,205.959,217.752z"/>
<polygon points="158.864,118.54 193.974,100.651 273.558,178.2 256.888,68.592 291.432,50.993 312.331,214.084 309.347,214.468 
	312.331,214.084 312.599,216.187 279.659,232.971 158.864,118.54 "/>
<path fill="#FFFFFF" d="M88.349,430.034l3.482-2.25c1.164,1.801,2.363,3.055,3.598,3.761c1.234,0.706,2.661,1.053,4.279,1.039
	c1.618-0.014,3.236-0.433,4.853-1.256c2.319-1.182,3.843-2.645,4.57-4.386c0.727-1.743,0.647-3.484-0.239-5.224
	c-0.519-1.018-1.204-1.789-2.058-2.313c-0.853-0.522-1.873-0.788-3.059-0.796c-1.187-0.006-3.566,0.34-7.138,1.043
	c-3.181,0.622-5.563,0.832-7.147,0.63s-3.017-0.752-4.298-1.652c-1.282-0.899-2.318-2.128-3.111-3.683
	c-1.424-2.795-1.649-5.559-0.675-8.29c0.974-2.731,3.054-4.909,6.238-6.531c2.188-1.115,4.316-1.675,6.381-1.679
	c2.066-0.004,3.948,0.54,5.646,1.633c1.699,1.093,3.117,2.676,4.254,4.746l-3.581,2.239c-1.34-2.146-2.886-3.454-4.639-3.927
	c-1.753-0.472-3.716-0.154-5.888,0.952c-2.205,1.123-3.645,2.457-4.32,3.997c-0.676,1.541-0.63,3.064,0.139,4.571
	c0.712,1.398,1.688,2.266,2.93,2.603c1.242,0.338,3.549,0.143,6.922-0.584c3.299-0.707,5.682-1.075,7.147-1.107
	c2.246-0.031,4.192,0.438,5.841,1.407c1.647,0.968,2.979,2.447,3.995,4.439c1.007,1.977,1.441,4.022,1.306,6.137
	c-0.137,2.115-0.818,4.019-2.043,5.711c-1.228,1.691-3.008,3.133-5.344,4.322c-3.642,1.856-7.081,2.282-10.317,1.281
	S90.263,433.59,88.349,430.034z"/>
<path fill="#FFFFFF" d="M124.56,425.589l-6.238-40.321l4.167-2.123l29.657,28.389l-4.459,2.271l-8.755-8.712l-12.391,6.313
	l2.128,12.09L124.56,425.589z M125.783,407.103l10.032-5.111l-7.934-8.005c-2.444-2.454-4.354-4.487-5.73-6.101
	c0.748,2.407,1.33,4.881,1.748,7.419L125.783,407.103z"/>
<path fill="#FFFFFF" d="M160.127,407.466l-17.596-34.534l3.993-2.034l29.326,19.278l-13.843-27.168l3.724-1.897l17.596,34.534
	l-3.993,2.035l-29.305-19.296l13.846,27.172L160.127,407.466z"/>
<path fill="#FFFFFF" d="M194.862,389.768l-17.596-34.534l10.167-5.181c2.515-1.281,4.534-2.042,6.057-2.284
	c1.995-0.324,3.993-0.076,5.995,0.743c2.002,0.82,3.92,2.161,5.754,4.026s3.529,4.32,5.081,7.366
	c1.992,3.91,3.086,7.532,3.282,10.863c0.196,3.333-0.35,6.045-1.641,8.136c-1.29,2.093-3.445,3.907-6.467,5.446L194.862,389.768z
	 M196.681,383.708l6.272-3.196c2.531-1.29,4.248-2.663,5.15-4.123c0.903-1.458,1.257-3.247,1.063-5.363
	c-0.261-2.814-1.224-5.854-2.888-9.121c-1.785-3.502-3.681-6.003-5.689-7.501c-2.009-1.5-3.961-2.19-5.857-2.076
	c-1.277,0.077-3.051,0.694-5.322,1.851l-6.173,3.146L196.681,383.708z"/>
<path fill="#FFFFFF" d="M229.646,372.044L212.05,337.51l3.896-1.984l7.226,14.182l15.313-7.802l-7.226-14.182l3.895-1.985
	l17.597,34.534l-3.896,1.985l-8.294-16.278l-15.313,7.802l8.295,16.278L229.646,372.044z"/>
<path fill="#FFFFFF" d="M261.148,355.993l-6.238-40.321l4.167-2.123l29.657,28.389l-4.459,2.272l-8.755-8.713l-12.391,6.313
	l2.128,12.089L261.148,355.993z M262.372,337.508l10.032-5.112l-7.934-8.005c-2.443-2.454-4.354-4.487-5.73-6.101
	c0.748,2.408,1.33,4.881,1.748,7.419L262.372,337.508z"/>
<path fill="#FFFFFF" d="M298.474,293.475l3.896-1.984l10.166,19.953c1.704,3.345,2.764,6.262,3.18,8.751
	c0.415,2.487,0.045,4.808-1.109,6.959c-1.154,2.15-3.11,3.93-5.867,5.334c-3.884,1.979-7.36,2.346-10.43,1.1
	c-3.069-1.244-6.045-4.693-8.925-10.347l-10.167-19.953l3.896-1.985l10.154,19.93c1.593,3.125,2.998,5.258,4.217,6.397
	c1.218,1.14,2.589,1.781,4.112,1.925c1.524,0.144,3.11-0.205,4.76-1.046c2.776-1.415,4.406-3.194,4.887-5.339
	c0.481-2.145-0.39-5.398-2.614-9.765L298.474,293.475z"/>
<path fill="#FFFFFF" d="M324.56,309.679l3.482-2.251c1.164,1.801,2.363,3.055,3.599,3.762c1.233,0.706,2.66,1.053,4.278,1.039
	c1.618-0.015,3.236-0.433,4.854-1.257c2.318-1.182,3.842-2.644,4.569-4.385c0.728-1.743,0.647-3.485-0.239-5.225
	c-0.519-1.018-1.204-1.788-2.057-2.312c-0.854-0.522-1.873-0.788-3.06-0.796c-1.187-0.007-3.566,0.34-7.138,1.042
	c-3.182,0.622-5.563,0.832-7.147,0.631c-1.584-0.203-3.017-0.752-4.298-1.653c-1.281-0.899-2.318-2.127-3.111-3.682
	c-1.424-2.795-1.648-5.559-0.675-8.29c0.975-2.731,3.054-4.909,6.239-6.533c2.188-1.115,4.315-1.675,6.381-1.678
	c2.065-0.004,3.947,0.54,5.646,1.633c1.698,1.093,3.116,2.676,4.254,4.747l-3.58,2.239c-1.34-2.146-2.887-3.455-4.64-3.927
	s-3.715-0.155-5.888,0.951c-2.204,1.124-3.645,2.457-4.32,3.997c-0.676,1.542-0.629,3.065,0.139,4.572
	c0.713,1.398,1.689,2.265,2.931,2.602c1.241,0.338,3.549,0.143,6.922-0.583c3.3-0.707,5.682-1.076,7.146-1.107
	c2.246-0.031,4.192,0.437,5.841,1.406c1.647,0.968,2.979,2.448,3.995,4.44c1.007,1.977,1.442,4.021,1.306,6.137
	s-0.818,4.019-2.043,5.71c-1.227,1.692-3.008,3.133-5.344,4.323c-3.642,1.855-7.08,2.282-10.317,1.28
	C329.049,315.512,326.474,313.233,324.56,309.679z"/>
<path fill="#FFFFFF" d="M364.079,303.548l-17.597-34.535l21.29-10.848l2.076,4.075l-17.395,8.863l5.378,10.554l16.292-8.301
	l2.076,4.075l-16.292,8.301l5.989,11.755l18.081-9.212l2.076,4.075L364.079,303.548z"/>
<path fill="#FFFFFF" d="M396.339,287.11l-17.596-34.535l3.993-2.035l29.326,19.279l-13.843-27.168l3.724-1.897l17.597,34.534
	l-3.994,2.035l-29.305-19.296l13.846,27.173L396.339,287.11z"/>
<path fill="#FFFFFF" d="M254.56,490.096l-4.835,2.463l-18.906-37.107c-0.451,1.86-1.27,3.941-2.456,6.244
	c-1.187,2.302-2.387,4.197-3.604,5.687l-2.868-5.629c1.888-2.863,3.294-5.902,4.221-9.119c0.926-3.216,1.275-6.069,1.048-8.563
	l3.136-1.598L254.56,490.096z"/>
<path fill="#FFFFFF" d="M269.331,468.756l4.374-2.882c3.291,4.627,6.742,6.019,10.357,4.177c1.612-0.821,2.799-2.112,3.562-3.872
	c0.763-1.762,0.892-4.266,0.39-7.514c-0.504-3.249-1.7-6.728-3.591-10.438l-0.593-1.164c-0.024,2.431-0.6,4.639-1.727,6.626
	s-2.572,3.431-4.336,4.329c-3.201,1.631-6.668,1.651-10.398,0.063c-3.732-1.589-6.823-4.789-9.273-9.599
	c-2.527-4.961-3.316-9.482-2.366-13.567c0.95-4.083,3.146-7.003,6.586-8.756c2.438-1.242,5.122-1.604,8.048-1.084
	c2.925,0.52,5.756,2.039,8.493,4.556c2.736,2.518,5.595,6.699,8.572,12.544c3.319,6.514,5.274,11.888,5.869,16.122
	c0.594,4.233,0.252,7.723-1.024,10.466c-1.277,2.742-3.234,4.784-5.868,6.127c-2.984,1.521-5.991,1.783-9.022,0.786
	C274.351,474.68,271.667,472.372,269.331,468.756z M278.419,437.738c-1.728-3.392-3.851-5.67-6.368-6.835
	c-2.52-1.166-4.771-1.243-6.757-0.231c-2.073,1.056-3.395,3.035-3.963,5.938c-0.57,2.901,0.026,6.081,1.787,9.536
	c1.585,3.111,3.622,5.195,6.113,6.251c2.49,1.059,4.815,1.036,6.977-0.064c2.138-1.09,3.476-2.941,4.014-5.555
	C280.759,444.165,280.159,441.15,278.419,437.738z"/>
<path fill="#FFFFFF" d="M330.164,451.573l-4.835,2.464l-18.907-37.107c-0.451,1.859-1.27,3.94-2.455,6.244
	c-1.187,2.302-2.388,4.196-3.604,5.687l-2.868-5.629c1.888-2.864,3.294-5.903,4.22-9.119c0.927-3.217,1.275-6.07,1.049-8.563
	l3.136-1.598L330.164,451.573z"/>
<path fill="#FFFFFF" d="M356.528,392.988l-4.571,2.899c-1.692-2.194-3.247-3.579-4.663-4.155c-2.048-0.851-3.974-0.816-5.778,0.103
	c-2.804,1.429-4.173,4.301-4.109,8.615c0.061,3.718,1.563,8.494,4.509,14.328c0.056-2.636,0.649-4.915,1.782-6.837
	s2.636-3.36,4.509-4.315c3.114-1.586,6.543-1.573,10.285,0.037c3.742,1.612,6.806,4.758,9.19,9.438
	c1.615,3.171,2.497,6.342,2.646,9.513c0.147,3.171-0.38,5.837-1.582,7.998c-1.203,2.162-2.904,3.803-5.104,4.923
	c-3.964,2.02-8.132,1.916-12.503-0.313c-4.373-2.228-8.662-7.471-12.872-15.732c-4.67-9.166-6.681-16.365-6.033-21.6
	c0.648-5.233,3.026-8.898,7.138-10.993c2.979-1.518,5.988-1.782,9.024-0.797S354.142,389.382,356.528,392.988z M347.297,423.486
	c1.747,3.429,3.968,5.769,6.661,7.018c2.694,1.25,5.119,1.324,7.275,0.226c1.895-0.965,3.088-2.81,3.579-5.532
	c0.491-2.722-0.136-5.798-1.884-9.228c-1.713-3.363-3.783-5.597-6.209-6.697c-2.427-1.101-4.707-1.107-6.841-0.02
	c-2.091,1.064-3.445,2.917-4.063,5.555C345.199,417.444,345.693,420.338,347.297,423.486z"/>
<line fill="none" x1="235.295" y1="21.941" x2="235.295" y2="15.925"/>
</svg>
