<?xml version="1.0" encoding="utf-8"?>
<!-- Generator: Adobe Illustrator 13.0.2, SVG Export Plug-In . SVG Version: 6.00 Build 14948)  -->
<!DOCTYPE svg PUBLIC "-//W3C//DTD SVG 1.0//EN" "http://www.w3.org/TR/2001/REC-SVG-20010904/DTD/svg10.dtd">
<svg version="1.0" id="Layer_1" xmlns="http://www.w3.org/2000/svg" xmlns:xlink="http://www.w3.org/1999/xlink" x="0px" y="0px"
	 width="315.36px" height="474.48px" viewBox="0 0 315.36 474.48" enable-background="new 0 0 315.36 474.48" xml:space="preserve">
<g>
	<g>
		<ellipse cx="157.68" cy="237.239" rx="157.68" ry="237.241"/>
		<ellipse fill="#E5E520" cx="157.681" cy="237.239" rx="154.542" ry="234.846"/>
		<path fill="#1B6D07" d="M182.889,19.947c16.654,4.611,32.307,13.711,46.418,26.465c20.094,18.158,37.057,43.722,49.338,74.278
			c13.598,33.823,21.449,73.765,21.449,116.549c0,42.789-7.855,82.738-21.453,116.563c-12.051,29.986-28.619,55.17-48.227,73.259
			c-14.4,13.284-30.439,22.743-47.535,27.474c-8.18,2.264-16.6,3.445-25.198,3.445c-7.845,0-15.542-0.982-23.041-2.874
			c-16.924-4.263-32.848-13.157-47.212-25.81c-19.536-17.207-36.19-41.369-48.56-70.314
			c-14.915-34.896-23.602-76.746-23.602-121.743c0-44.998,8.687-86.849,23.602-121.747c12.305-28.789,28.846-52.846,48.249-70.033
			c14.444-12.798,30.476-21.786,47.524-26.084c7.499-1.891,15.196-2.874,23.041-2.874C166.284,16.501,174.708,17.683,182.889,19.947
			z"/>
		<path fill="#EA1B1B" d="M38.869,115.492c12.305-28.789,28.846-52.846,48.249-70.033l0.312,383.838
			c-19.536-17.207-36.19-41.369-48.56-70.314V115.492z"/>
		<path fill="#EA1B1B" d="M229.307,46.412c20.094,18.158,37.057,43.722,49.338,74.278l-0.004,233.112
			c-12.051,29.986-28.619,55.17-48.227,73.259L229.307,46.412z"/>
		<path fill="#EA1B1B" d="M134.641,19.375c7.499-1.891,15.196-2.874,23.041-2.874c8.602,0,17.026,1.182,25.208,3.446l-0.01,434.588
			c-8.18,2.264-16.6,3.445-25.198,3.445c-7.845,0-15.542-0.982-23.041-2.874V19.375z"/>
		<path fill="#FFFFFF" d="M15.379,228.137C49.152,209.807,102.106,198,161.639,198c55.008,0,104.396,10.079,138.227,26.072h-0.021
			c-1.332-35.188-7.988-68.162-18.734-97.017l0.004,0.009c-32.205,11.461-73.912,18.375-119.475,18.375
			c-48.906,0-93.372-7.968-126.41-20.974l0.003-0.011C23.377,155.311,16.24,191.027,15.36,229.218L15.379,228.137z"/>
		<path d="M47.326,142.317c0,0,5.166,1.405,7.23,1.924l1.252-6.084c-7.154-1.799-13.936-3.776-20.29-5.921l-1.253,6.084
			c2.06,0.695,6.974,2.229,6.974,2.229l0.024,70.313c1.99-0.613,4.015-1.213,6.075-1.797L47.326,142.317z"/>
		<path d="M85.545,174.194v-5.94h-17.28v-21.049c5.731,1.213,11.663,2.315,17.771,3.303l-0.228-6.227
			c-8.313-1.344-16.299-2.902-23.901-4.656v65.712c7.602-1.753,15.588-3.312,23.901-4.655l0.228-6.025
			c-6.109,0.988-12.04,2.091-17.774,3.304l0.002-23.766H85.545z"/>
		<path d="M113.355,177.85l11.072,18.356c-2.864,0.211-5.704,0.444-8.517,0.702l-10.794-18.831
			c-1.381-0.069-3.303-0.191-6.476-0.373l0.005,21.11c-2.096,0.271-4.173,0.557-6.231,0.854c0,0-0.002-53.971-0.002-54.373
			c0.017,1.146,22.743,2.757,25.643,3.725c8.611,2.873,6.145,15.999,3.67,22.338C119.129,175.249,117.941,175.818,113.355,177.85
			 M116.823,162.189c0.008-2.599-0.569-5.099-1.712-6.524c-1.407-1.757-3.949-2.008-6.022-2.297
			c-3.472-0.483-6.965-0.847-10.443-1.287l-0.002,19.008c4.319,0.669,10.53,2.278,14.618-0.055
			C115.646,169.671,116.813,165.832,116.823,162.189z"/>
		<path d="M158.987,194.866c0.881-0.005,1.76-0.007,2.642-0.007c1.327,0,2.649,0.005,3.97,0.016v-44.787
			c-1.32,0.011-2.643,0.016-3.97,0.016c-0.882,0-1.761-0.003-2.642-0.008v31.931l-21.601-32.489
			c-2.175-0.104-4.337-0.219-6.486-0.348l0.001,46.584c2.15-0.129,4.313-0.245,6.485-0.348v-32.84L158.987,194.866z"/>
		<path d="M182.639,179.864l-4.078,15.271c-2.105-0.069-4.219-0.126-6.346-0.169l12.82-45.391c2.855-0.129,5.691-0.281,8.506-0.456
			l14.994,47.896c-2.061-0.192-4.131-0.374-6.217-0.543l-5.049-16.638L182.639,179.864z M195.852,175.158l-6.357-20.944
			l-5.592,20.925L195.852,175.158z"/>
		<path d="M242.956,201.611c2.277,0.401,4.525,0.818,6.75,1.251v-60.762c-2.225,0.434-4.473,0.852-6.75,1.253v44.479l-20.789-41.367
			c-2.32,0.288-4.662,0.561-7.021,0.815v50.403c2.359,0.256,4.701,0.527,7.021,0.816v-38.074L242.956,201.611z"/>
		<path d="M264.629,185.533l-3.543,19.743c-2.32-0.534-4.674-1.049-7.063-1.545l13.24-65.527c2.891-0.726,5.719-1.479,8.482-2.26
			l16.361,78.29c-2.404-0.865-4.877-1.704-7.418-2.521l-5.412-26.177L264.629,185.533z M278.081,179.731l-6.639-32.133l-5.77,32.131
			L278.081,179.731z"/>
	</g>
	<g>
		<path d="M205.973,287.138c-3.061,0-10.99,0.299-15.172,0.465c7.768-9.181,16.225-10.852,32.467-12.26l27.451-0.677l-3.334-2.008
			c-0.271-0.165-6.875-4.033-22.879-4.033c-8.127,0.01-16.762,0.196-25.277,1.336c3.801-3.057,14.514-10.613,27.896-11.005
			c0.117-0.009,4.922-0.417,16.314,0.59l0.59-2.152c-0.334-0.16-8.283-3.93-15.324-3.93c-18.99,0-38.994,9.538-50.947,15.236
			c-4.996,2.383-9.312,4.44-10.801,4.44c-0.25,0-0.783-0.004-1.148-0.069c1.872-1.586,2.615-3.516,2.647-3.61
			c0,0,0.142-0.426,0.267-0.802c0.322-0.185,0.604-0.436,0.857-0.75c0.348-0.152,0.721-0.316,0.721-0.316
			c0.816-0.363,2.199-1.455,2.199-3.241c0-0.39-0.049-0.744-0.08-1.112c0.754-0.658,2.371-2.55,2.371-6.775
			c0-1.464-0.576-2.58-1.318-3.402c1.639-0.496,3.354-1.411,3.354-3.128c0-0.053-0.01-0.148-0.033-0.271
			c2.141-0.494,4.611-1.44,4.611-3.208c0-0.701-0.201-1.204-0.479-1.592c1.361-1.034,2.434-2.632,2.434-5.023v-1.983l-1.709,1.006
			c-0.064,0.038-6.41,3.744-10.539,3.744c-1.766,0-3.396-0.36-5.121-0.741c-0.594-0.132-1.201-0.26-1.817-0.381
			c2.238-0.702,4.146-2.7,4.568-3.169l0.048-0.054l4.141-5.947c0.064-0.1,3.674-5.574,8.955-7.161
			c0.768,1.438,2.254,2.417,3.945,2.417c2.484,0,4.504-2.021,4.504-4.505c0-1.203-0.469-2.334-1.318-3.186
			c-0.852-0.851-1.982-1.319-3.186-1.319c-1.842,0-3.418,1.171-4.102,2.815c-0.785-0.053-1.752-0.118-1.752-0.118
			c-3.266,0-6.137,2.085-8.037,3.465c-0.256,0.187-0.758,0.554-1.086,0.763c-0.203-0.149-0.5-0.423-0.834-0.805
			c0.605-0.985,2.771-4.506,3.354-5.45c0.23,0.037,0.449,0.134,0.688,0.134c2.484,0,4.506-2.021,4.506-4.503
			c0-1.204-0.469-2.337-1.32-3.188s-1.982-1.319-3.186-1.319c-2.484,0-4.506,2.021-4.506,4.507c0,0.932,0.371,1.767,0.891,2.512
			c-3.338,3.44-5.804,5.093-6.692,5.093c-1.208,0-2.62-5.118-2.798-7.265c1.732-0.642,2.977-2.25,2.977-4.159
			c0-2.483-2.021-4.504-4.504-4.504c-2.484,0-4.505,2.021-4.505,4.504c0,1.633,0.911,3.092,2.273,3.882
			c-0.721,1.579-3.212,7.031-3.449,7.551c-0.07,0.043-0.076,0.047-0.144,0.088c-0.17,0-0.242,0-0.37,0
			c-0.666-0.375-3.145-2.799-6.42-6.661c0.488-0.733,0.836-1.549,0.836-2.441c0-1.202-0.469-2.333-1.32-3.185
			s-1.982-1.32-3.185-1.32c-1.204,0-2.336,0.469-3.188,1.32c-0.852,0.851-1.32,1.981-1.32,3.185c0,2.484,2.022,4.506,4.508,4.506
			c0.175,0,0.334-0.09,0.507-0.11c0.396,1.973,1.024,5.408,1.102,7.578c-0.29,0.162-0.827,0.394-1.495,0.594
			c-4.823-1.4-6.742-1.835-7.562-1.968c-0.304-2.19-2.111-3.909-4.384-3.909c-2.485,0-4.506,2.021-4.506,4.505
			c0,2.484,2.021,4.505,4.506,4.505c0.844,0,1.609-0.304,2.309-0.734c3.352,3.158,5.173,5.102,5.45,5.613
			c0.06,0.154,0.386,0.991,0.386,0.991c0.752,2.152,2.345,6.701,8.332,6.701h8.497c-0.475,0.207-0.916,0.433-1.335,0.65
			c-1.02,0.53-1.9,0.988-3.008,0.988h-3.646c-1.501,0-3.697,1.118-6.239,2.413c-1.895,0.965-4.253,2.167-5.21,2.167
			c-0.658,0-1.058-0.396-1.764-1.155c-0.813-0.873-1.926-2.068-3.918-2.068c-2.584,0-5.463,2.452-5.463,5.971
			c0,1.683,0.939,2.991,2.584,3.718c-0.176,0.052-0.354,0.104-0.529,0.155c-3.24,0.958-6.3,1.863-10.589,1.863
			c-2.8,0-7.596-1.855-7.645-1.874l-1.251,1.819c0.218,0.24,5.471,5.883,16.698,5.883c2.749,0,4.728-0.475,6.163-1.123
			c0,0.985,0,2.193,0,2.194c0-0.063-0.304,1.611-4.249,3.004l0.377,2.203c1.988,0,2.662-0.106,3.631-0.333l0.15-0.036
			c0,0,0.521-0.285,0.796-0.436c0.467,0.14,1.108,0.331,1.108,0.331l1.385,0.24l0.095-0.072c0,0,0.642-0.159,0.698-0.173
			c0.158,0.132,0.438,0.365,0.438,0.365c0.349,0.316,0.708,0.52,1.512,0.623l0.144,0.019c0,0,0.229-0.029,0.292-0.038
			c0.742,0.147,1.885,0.375,1.885,0.375s0.364,0.042,0.645,0.074c-0.066,0.047-0.338,0.236-0.338,0.236l3.746-0.083
			c1.153-0.025,2.523-0.14,4.138-0.604c-1.155,1.284-3.656,2.021-6.285,2.782c-3.107,0.9-6.319,1.832-8.365,3.889
			c-0.021,0.021-0.036,0.055-0.056,0.077c-0.041,0.001-0.216,0.008-0.216,0.008c-6.878,0.251-10.439,4.059-12.352,6.104
			c0,0-0.826,0.837-0.831,0.841c-0.151,0.005-0.419,0.012-0.419,0.012c-10.984,0.307-15.924,8.477-15.924,14.18
			c0,0.024,0.008,0.047,0.008,0.071c-0.389,0.662-0.778,1.324-0.778,1.324c-0.384,0.655-0.682,0.962-0.924,1.164
			c-2.558-3.716-3.755-6.222-3.755-6.971c0-0.747,0.364-3.269,0.75-5.938c0.602-4.168,1.284-8.891,1.284-11.278
			c0-2.427-0.826-4.982-2.265-7.013c-1.518-2.14-3.485-3.367-5.398-3.367c-2.08,0-3.317-1.037-4.627-2.135
			c-1.137-0.953-2.313-1.938-3.939-1.938c-1.351,0-2.73,0.716-3.65,1.316l-0.383,0.251c-0.39-0.086-0.766-0.15-1.098-0.197
			l-0.079-0.011h-0.135c-2.113,0-4.333,0.893-6.09,2.448c-1.755,1.555-2.762,3.487-2.762,5.302c0,1.256,0.821,1.979,0.915,2.058
			l1.126,0.942l0.628-1.331c0.072-0.151,1.619-3.336,4.768-4.04l0.026,0.273l-0.141,0.143c-1.277,1.292-3.42,3.816-3.42,6.195
			c0,0.812,0.486,1.555,0.635,1.763l0.992,1.388l0.896-1.452c0.859-1.394,1.851-2.751,2.558-3.547
			c0.144,0.264,0.315,0.508,0.505,0.743c-0.646,0.988-1.516,2.804-1.516,5.434c0,1.775,0.973,3.091,1.084,3.234l1.578,2.05
			l0.354-2.055c0.224,2.562,1.766,3.807,1.837,3.861l1.876,1.44l-0.052-2.365c-0.058-2.614,0.546-5.731,1.506-6.025l0.189-0.058
			l0.159-0.123l0.294-0.221c0.078-0.052,0.22-0.149,0.399-0.281l0.25,0.55c1.452-0.272,2.45-1.032,3.178-1.588
			c0.326-0.248,0.768-0.583,0.94-0.59c0.003,0.063,0.574,0.774,0.574,4.117c0,2.053-0.796,6.521-1.638,11.252
			c-1.141,6.408-2.435,13.671-2.435,18.354c0,7.643,3.737,9.102,7.694,10.646c2.031,0.793,4.132,1.613,6.025,3.369
			c1.883,1.745,2.818,3.685,3.722,5.56c1.673,3.471,3.254,6.749,10.072,6.749c4.493,0,10.626-2.494,13.36-3.715
			c-3.369,5.467-6.901,9.609-8.25,9.609c-2.171,0-7.321-3.939-12.301-7.75c-3.785-2.896-7.699-5.891-11.468-8.184
			c-0.965-0.588-2.079-0.9-3.061-1.176l-1.645-0.543l-1.426-0.906c-0.691-0.523-1.405-1.065-2.638-1.065
			c-1.038,0-1.989,0.327-2.752,0.945l-0.249,0.201c-0.344-0.058-0.692-0.098-1.039-0.098c-4.889,0-8.576,3.741-8.576,8.703v4.009
			l2.1-3.415c1.049-1.706,3.206-4.23,4.503-4.23h0.063c-2.109,1.403-3.549,3.728-3.549,6.245c0,1.03,0.794,1.788,0.954,1.93
			l1.222,1.085l0.589-1.524c0.686-1.776,2.203-4.236,3.268-4.236h0.554l0.75,1.142c-1.605,1.586-2.629,3.969-2.629,6.631
			c0,1.999,1.393,3.22,1.551,3.353l1.861,1.555v-2.425c0-3.247,1.134-4.671,2.451-5.584l1.085,0.824
			c-0.884,1.317-1.477,2.826-1.477,4.187c0,1.698,1.321,4.202,1.472,4.481l2.123-0.684l-0.182-2.397c0-1.684,0.955-2.6,2.104-3.428
			l0.329,0.103c0.956,0.299,1.875,0.45,2.73,0.45h4.454c0.861,0.142,4.237,3.138,6.95,5.544
			c6.637,5.891,14.897,13.221,20.852,13.221c3.765,0,6.095-2.998,6.095-5.776c0,0,0-0.632,0-1.141
			c1.15-0.841,4.193-3.085,6.696-5.101c-0.961,2.276-1.459,4.579-1.459,6.877c0,6.564,5.706,8.276,10.741,9.787
			c5.092,1.528,9.489,2.848,9.489,8.152c0,4.064-3.385,10.571-7.668,11.724c0.043-0.68,0.139-2.181,0.139-2.181
			c0-5.306-2.282-11.631-13.155-11.631c-6.888,0-12.035,2.329-15.169,4.31l-0.017-0.032l-0.609,0.428l-0.355,0.227l0.009,0.017
			l-0.106,0.075c-4.79,3.368-7.888,7.962-8.086,11.989l-0.001,0.025l-0.035-0.001l0.015,0.407l-0.037,0.74l0.063,0.001l0.001,0.043
			c0.188,5.211,2.234,10.386,5.917,14.964l0.776,0.965l0.016-0.015c0.842,0.972,1.751,1.907,2.701,2.782l0.067,0.062l0.078,0.052
			c0.21,0.139,1.326,0.832,3.409,1.473l-0.476,0.953c1.891,1.401,3.905,2.623,5.986,3.632c3.375,1.634,6.642,2.525,9.524,3.312
			c4.576,1.248,6.963,1.993,6.963,4.028c0,1.374-2.523,5.61-5.608,5.61c-0.962,0-2.781-0.711-3.702-1.159l-3.733-1.817l2.291,3.463
			c0.595,0.898,5.961,8.776,11.25,8.776c3.857,0,9.31-2.613,10.902-4.674c1.06-1.372,1.69-2.73,2.065-3.755
			c0.316,0.349,0.629,0.771,0.977,1.247c2.168,2.961,5.443,7.437,18.881,7.437c17.119,0,23.252-8.26,23.506-8.611l-1.434-1.674
			c-0.041,0.021-4.064,2.038-6.996,2.038c-3.582,0-6.93-4.046-10.17-7.959c-2.525-3.051-4.91-5.933-7.605-7.312
			c-0.242-0.125-0.588-0.203-0.957-0.257c1.254-1.709,2.057-4.366,2.057-7.195c0-4.55-1.236-7.726-1.289-7.858l-2.188,0.403
			c-0.008,0.376-0.326,9.188-14.643,9.188c-2.463,0-4.18-0.813-5.314-1.665c1.889-0.507,4.936-1.482,8.442-3.217l0.015-0.008
			l0.006,0.011l0.436-0.229l0.598-0.296l-0.008-0.015c2.861-1.506,5.494-3.271,7.826-5.25c1.496-1.271,2.977-2.886,4.396-4.799
			l0.078-0.105l0.016,0.009l0.318-0.457l0.361-0.485l-0.02-0.011c2.686-3.885,4.975-8.668,6.453-13.491l0.012,0.004l0.16-0.563
			l0.162-0.529l-0.012-0.004l0.002-0.008c1.041-3.698,1.568-7.233,1.568-10.509c0-2.869-0.375-5.543-1.148-8.172l0.023-0.007
			l-0.184-0.539l-0.162-0.553l-0.023,0.007l-0.014-0.041c-0.84-2.467-1.895-4.495-2.826-6.284c-1.203-2.308-2.152-4.131-2.152-5.913
			c0-0.297,0.355-0.714,0.902-1.063l1.15-0.731c0.063,0.009,0.119,0.017,0.182,0.026l0.227,0.036l0.223-0.056
			c0.703-0.173,1.43-0.261,2.16-0.261c7.393,0,14.9,10.297,14.9,17.698v1.134h1.133c1.682,0,4.125-2.474,4.125-6.351
			c0-8.354-8.797-21.746-23.182-25.18c1.717-1.255,5.096-3.184,9.662-3.184c15.305,0,35.094,8.723,35.293,8.811l3.299,1.264
			l-0.691-2.229c-0.059-0.193-0.621-1.93-1.816-3.122c-0.643-0.582-15.029-13.275-43.572-13.47
			c2.131-1.683,6.143-4.059,11.855-4.059c9.057,0,24.672,3.411,25.451,3.583c0.096,0.035,12.951,4.724,12.951,4.724l-1.844-2.845
			c-0.178-0.272-4.422-6.685-11.092-8.761c-0.105-0.041-16.111-5.89-33.008-6.026c7.221-7.466,11.193-7.615,24.146-8.085
			l6.861-0.277c8.613,0.001,25.789,1.867,25.963,1.886l0.504-2.194c-0.736-0.264-18.139-6.454-26.52-6.454
			C221.936,287.953,210.372,287.138,205.973,287.138z M139.708,230.229c-0.894-0.941-1.913-1.948-2.886-2.88
			c1.267,0.315,3.066,0.806,4.998,1.363C140.967,229.263,140.237,229.791,139.708,230.229z M164.914,233.762
			c-0.171-0.1-0.358-0.198-0.54-0.297c0.16-0.104,0.306-0.227,0.445-0.355c-0.002,0.045-0.01,0.089-0.01,0.135
			C164.809,233.428,164.886,233.586,164.914,233.762z M148.167,231.182c-0.264,0-0.479-0.217-0.479-0.482
			c0-0.267,0.215-0.482,0.479-0.482c0.267,0,0.484,0.216,0.484,0.482C148.651,230.965,148.434,231.182,148.167,231.182z
			 M150.584,228.228c0.679-0.158,1.389-0.293,2.135-0.395c-0.324,0.534-0.508,1.144-0.508,1.784c0,0.631,0.182,1.215,0.479,1.725
			c-0.4,0.051-0.79,0.113-1.172,0.185c0.066-0.267,0.111-0.541,0.111-0.827C151.63,229.73,151.228,228.856,150.584,228.228z
			 M162.482,231.056c-0.266,0-0.481-0.216-0.481-0.482c0-0.174,0.089-0.288,0.142-0.342c0.053-0.053,0.167-0.141,0.34-0.141
			s0.287,0.089,0.341,0.142c0.053,0.053,0.142,0.168,0.142,0.341C162.964,230.84,162.749,231.056,162.482,231.056z M159.12,229.781
			c0.004-0.056,0.018-0.108,0.018-0.164c0-0.688-0.207-1.326-0.555-1.865c0.565,0.058,1.11,0.131,1.638,0.221
			C159.682,228.441,159.29,229.064,159.12,229.781z M155.675,230.1c-0.266,0-0.483-0.217-0.483-0.482
			c0-0.267,0.217-0.482,0.483-0.482c0.265,0,0.481,0.216,0.481,0.482C156.156,229.883,155.94,230.1,155.675,230.1z M159.037,230.409
			c-0.003,0.056-0.017,0.108-0.017,0.164c0,0.354,0.068,0.689,0.168,1.011c-0.197-0.04-0.396-0.077-0.6-0.112
			C158.793,231.149,158.946,230.792,159.037,230.409z M165.792,229.614c0.372,0.161,0.728,0.325,1.059,0.488
			c-0.342,0.155-0.649,0.369-0.923,0.62c0.002-0.051,0.016-0.099,0.016-0.149C165.944,230.243,165.881,229.924,165.792,229.614z
			 M168.327,233.711c-0.021,0.006-0.057,0.016-0.057,0.016c-0.171,0-0.285-0.089-0.338-0.142c-0.053-0.054-0.143-0.168-0.143-0.341
			s0.09-0.288,0.143-0.341s0.167-0.142,0.338-0.142c0.231,0,0.398,0.176,0.445,0.393
			C168.563,233.372,168.475,233.499,168.327,233.711z M170.879,228.564c0.584,0,1.174-0.326,1.848-0.776
			c-0.521,0.57-0.965,1.096-1.314,1.543c-0.434-0.307-0.998-0.666-1.678-1.061C170.106,228.449,170.489,228.564,170.879,228.564z
			 M156.077,224.548c0,0,1.431-3.135,2.577-5.645c0.772,3.116,2.253,6.543,5.1,6.543c0.397,0,1.28-0.034,2.892-0.971
			c-0.107,0.175-0.218,0.354-0.218,0.354l0.556,0.802c0.553,0.793,1.506,1.952,2.596,2.546c-2.791-1.595-7.436-3.549-13.585-3.549
			c-0.02,0-0.037,0.004-0.057,0.004C156.006,224.59,156.077,224.548,156.077,224.548z M151.6,225.017
			c-1.4,0.228-2.689,0.543-3.873,0.927c0.001-0.029,0.025-0.049,0.025-0.079c0-1.356-0.232-3.191-0.518-4.963
			C149.421,223.293,150.759,224.471,151.6,225.017z M144.729,230.461c-0.001,0.017-0.004,0.033-0.005,0.05
			c-0.014-0.009-0.028-0.017-0.042-0.025C144.697,230.478,144.714,230.47,144.729,230.461z M142.89,233.854
			c-0.174,0-0.289-0.09-0.342-0.143s-0.142-0.168-0.142-0.341c0-0.172,0.089-0.287,0.143-0.34c0.053-0.054,0.168-0.143,0.342-0.143
			c0.265,0,0.481,0.217,0.481,0.482C143.371,233.638,143.155,233.854,142.89,233.854z M144.518,237.8
			c1.761-1.312,5.591-3.64,10.712-3.64c4.937,0,8.3,2.063,9.962,3.387c-0.971,0.766-1.872,1.206-2.519,1.206h-14.885
			C146.424,238.753,145.361,238.443,144.518,237.8z M129.733,378.314c0.007-0.003,0.014-0.002,0.021-0.004
			c-0.08,0.028-0.136,0.049-0.151,0.057L129.733,378.314z"/>
		<path fill="#E5E520" d="M147.956,255.871c0-1.273-0.254-2.462-6.104-2.462c-11.707,0-15.268,4.158-24.685,4.158
			c-3.051,0-8.056-1.951-8.056-1.951s5.005,5.512,15.858,5.512c7.805,0,8.739-3.985,8.739-3.985l0.34-0.849
			c0,0,1.778,1.611,3.817,1.611c2.035,0,2.458-2.289,2.458-2.289s1.019,2.289,2.289,2.289c1.273,0,2.887-2.206,2.887-2.206
			l1.695,1.697C147.193,257.396,147.956,256.719,147.956,255.871z"/>
		<path fill="#E5E520" d="M149.125,249.579c-0.443,0-0.799,0.358-0.799,0.799c0,0.306,0.176,0.569,0.432,0.705
			c0.146,0.026,0.289,0.055,0.428,0.085c0.411-0.033,0.734-0.372,0.734-0.79C149.92,249.938,149.563,249.579,149.125,249.579z"/>
		<path fill="#E5E520" d="M81.781,264.924c0-0.772-2.091-1.379-3.577-1.59c-0.019,0-0.036,0-0.055,0
			c-3.944,0-7.718,3.563-7.718,6.616c0,0.763,0.509,1.188,0.509,1.188s2.248-4.837,7.04-4.837
			C79.968,266.064,81.781,265.488,81.781,264.924z"/>
		<path fill="#E5E520" d="M78.829,270.543c3.231-0.37,5.496-1.145,5.496-1.579c0-0.392-1.385-1.044-2.856-1.044
			c-1.539,0-4.015,0.86-4.042,0.872c-1.021,1.033-3.093,3.385-3.093,5.398c0,0.511,0.424,1.104,0.424,1.104
			S77.682,270.547,78.829,270.543L78.829,270.543z"/>
		<path fill="#E5E520" d="M81.374,275.124c0,0.007,0.001,0.014,0.001,0.02c2.442-1.38,4.445-2.881,4.445-3.35
			c0-0.18,0-0.598-1.203-0.598c-1.621,0-4.49,2.085-4.699,2.238c-0.539,0.74-1.515,2.441-1.515,5.084
			c0,1.44,0.849,2.543,0.849,2.543S80.271,275.124,81.374,275.124z"/>
		<path fill="#E5E520" d="M85.12,277.575v-0.004l0.294-0.221c0.957-0.636,2.473-1.966,2.473-2.819c0-0.157,0-0.281-0.789-0.281
			c-2.032,0-4.197,1.879-4.826,2.467c-0.161,0.338-0.898,2.012-0.898,4.429c0,2.46,1.439,3.564,1.439,3.564
			S82.665,278.328,85.12,277.575z"/>
		<path fill="#E5E520" d="M143.609,337.833c-0.038-0.043-0.534-0.619-0.592-0.684c-0.026-0.028-0.385-0.376-0.783-0.769h-2.676
			c-3.183,0-7.539-1.582-9.707-4.177c-0.644,1.085-6.734,11.221-9.865,11.221c-4.262,0-15.075-10.45-24.359-16.099
			c-1.422-0.866-3.351-1.076-4.598-1.661c-1.765-0.83-2.149-1.864-3.583-1.864c-0.852,0-1.526,0.277-2.038,0.692
			c1.104,0.401,1.956,1.119,1.956,2.011c0,0.55-0.37,1.015-0.997,1.344c1.491,0.125,3.288,0.896,3.288,2.091
			c0,1.361-3.188,1.806-4.055,1.901c0.235,0.409,0.507,0.808,0.79,1.201c1.043-0.76,2.262-1.207,3.568-1.207
			c1.245,0,1.986,0.687,1.986,1.348c0,1.381-1.159,2.004-2.279,2.607c-0.153,0.082-0.311,0.169-0.469,0.256
			c0.462,0.39,0.938,0.749,1.425,1.082c1.156-1.375,2.604-2.364,3.856-2.364c1.127,0,1.856,0.577,1.856,1.474
			c0,1.231-0.988,2.003-2.023,2.72c0.826,0.258,1.637,0.398,2.392,0.398h4.454c3.053,0,19.021,18.765,27.801,18.765
			c3.116,0,4.961-2.414,4.961-4.643v-1.718c0,0,7.601-5.504,9.987-7.888c0.095-0.096,0.226-0.245,0.385-0.432v-1.393
			c0-0.687,0.298-1.446,0.412-1.714c0.013-0.045,0.11-0.382,0.221-0.78C144.31,338.75,143.63,337.861,143.609,337.833z"/>
		<path fill="#E5E520" d="M94.478,335.474c0.571,0,1.143,0.191,1.143,0.763c0,2.291-5.214,2.675-5.214,7.127
			c0,1.079,0.191,2.544,0.191,2.544s-1.336-2.482-1.336-3.944C89.262,339.101,92.441,335.474,94.478,335.474z"/>
		<path fill="#E5E520" d="M89.959,332.549c0.829,0,1.275,0.379,1.275,0.633c0,2.609-6.3,1.465-6.3,9.354
			c0,0-1.145-0.956-1.145-2.482C83.79,335.855,86.652,332.549,89.959,332.549z"/>
		<path fill="#E5E520" d="M85.954,328.54c1.336,0,2.989,0.698,2.989,1.398c0,0.636-3.054,1.209-3.563,1.209h-1.399
			c-2.418,0-4.326,4.962-4.326,4.962s-0.573-0.509-0.573-1.082C79.083,331.656,82.199,328.54,85.954,328.54z"/>
		<path fill="#E5E520" d="M83.408,324.85c1.654,0,3.244,0.828,3.244,1.654c0,0.572-1.081,1.145-2.799,1.145h-2.417
			c-2.545,0-5.47,4.771-5.47,4.771C75.966,328.286,78.954,324.85,83.408,324.85z"/>
		<path fill="#E5E520" d="M198.868,428.414c-7.012,0-12.27-12.315-18.293-15.395c-0.68-0.351-2.072-0.141-2.072-0.141h-0.561
			c-7.279,0-14.852,3.865-14.928,3.905l-0.497,0.257l-0.513-0.995l0.496-0.256c0.319-0.164,7.885-4.028,15.441-4.028h0.561
			c0,0,0.17,0.042,0.256-0.039c1.408-1.378,2.301-4.256,2.301-7.165c0-4.386-1.211-7.441-1.211-7.441s-0.063,10.308-15.775,10.308
			c-3.525,0-5.711-1.53-6.781-2.548l0.02,0.02c-0.27,0.103-3.988,1.52-8.59,2.777c5.1,4.861,24.584,18.562,43.647,21.694
			l-0.184,1.106c-19.082-3.138-39.912-17.376-44.73-22.465c-3.457,0.886-7.261,1.616-10.419,1.616c-3.642,0-6.408-0.526-8.365-1.108
			c1.875,1.39,3.841,2.57,5.806,3.522c8.622,4.175,17.127,3.525,17.127,8.36c0,1.974-2.987,6.744-6.742,6.744
			c-1.589,0-4.198-1.273-4.198-1.273s5.472,8.269,10.305,8.269c3.437,0,8.622-2.444,10.005-4.233
			c1.893-2.448,2.336-4.925,2.336-4.925c3.755,1.527,2.674,9.413,20.484,9.413c16.734,0,22.584-8.14,22.584-8.14
			S202.114,428.414,198.868,428.414z"/>
		<path fill="#E5E520" d="M119.811,388.195l-3.17-0.044c0.195,5.399,2.418,10.255,5.667,14.294c0.037-0.039,0.092-0.092,0.164-0.159
			c1.146-1.575,2.936-4.371,2.936-6.506C125.408,390.693,120.545,388.498,119.811,388.195z"/>
		<path fill="#E5E520" d="M166.698,400.392l-0.213-0.393c-0.787-0.249-3.686-1.115-5.721-1.115c-8.132,0-11.83,5.078-13.163,7.6
			c0.041,0.04,0.07,0.076,0.084,0.09c0.043,0.057,0.103,0.122,0.154,0.184c4.778-1.272,8.661-2.77,8.661-2.77
			S161.042,403.189,166.698,400.392z"/>
		<path fill="#E5E520" d="M146.255,406.712c-1.771-1.736-7.413-6.769-13.186-6.769c-5.86,0-8.941,2.363-9.761,3.096
			c-0.084,0.116-0.164,0.222-0.24,0.32c0.823,0.949,1.699,1.851,2.616,2.695c0.016,0.01,3.604,2.45,11.35,2.45
			c2.738,0,5.966-0.563,8.998-1.291C146.085,407.082,146.159,406.918,146.255,406.712z"/>
		<path fill="#E5E520" d="M119.712,387.077c1.634-1.454,5.377-5.325,5.377-7.901c0-1.277-0.407-2.406-0.85-3.261
			c-4.643,3.265-7.433,7.601-7.606,11.117L119.712,387.077z"/>
		<path fill="#E5E520" d="M176.399,384.521c0,1.629,2.369,3.731,3.313,4.43l0.508,0.284c2.633-3.781,4.895-8.459,6.373-13.285
			l-0.477-0.144C184.989,376.031,176.399,377.943,176.399,384.521z"/>
		<path fill="#E5E520" d="M186.389,374.721l0.52,0.153c0.969-3.442,1.527-6.932,1.527-10.201c0-3.059-0.449-5.636-1.107-7.87
			l-1.047,0.3c-0.59,0.476-4.602,3.924-4.602,9.097C181.68,371.265,185.833,374.334,186.389,374.721z"/>
		<path fill="#E5E520" d="M183.772,329.325c-0.086,0.08-0.145,0.136-0.148,0.142l-0.381,0.391l-0.543-0.056
			c-20.97-2.183-34.959,11.466-36.484,13.027l-1.924,1.967v-0.025c-1.847,2.987-2.868,6.173-2.868,9.342
			c0,11.58,20.23,5.789,20.23,17.939c0,4.548-3.871,12.324-9.302,13.046c-1.958,2.187-5.247,4.691-10.038,4.691
			c-3.384,0-5.462-0.751-5.963-0.957h-0.971v-1.119h0.887c0.958-0.775,3.009-2.729,3.009-4.146c0-2.024-1.376-5.038-5.168-5.038
			c-1.478,0-3.994,0.851-4.017,0.861c-0.295,0.099-0.61-0.059-0.71-0.35c-0.102-0.292,0.053-0.61,0.348-0.71
			c0.11-0.039,2.714-0.921,4.379-0.921c4.611,0,6.287,3.682,6.287,6.157c0,1.701-1.751,3.537-2.817,4.497
			c0.922,0.263,2.534,0.606,4.736,0.606c4.53,0,7.602-2.459,9.379-4.513c0.081-0.646,0.163-1.554,0.163-2.563
			c0-8.971-6.743-10.497-12.021-10.497c-5.763,0-10.776,1.717-14.656,4.189c0.53,0.991,1.028,2.332,1.028,3.889
			c0,3.024-3.76,6.874-5.292,8.314c1.713,0.89,5.61,3.448,5.61,8.29c0,1.553-0.765,3.326-1.634,4.846c1.76-0.906,4.44-1.8,8.177-1.8
			c5.99,0,11.604,4.796,13.729,6.847c1.615-2.815,5.676-7.907,13.966-7.907c1.9,0,4.387,0.663,5.584,1.019
			c0.371-6.423,5.418-10.241,10.322-10.241c0.289,0,0.602,0.016,0.912,0.045c-1.066-1.039-2.301-2.561-2.301-4.066
			c0-6.353,6.795-8.819,9.588-9.566c-1.527-1.304-4.309-4.292-4.309-8.756c0-4.301,2.422-7.436,3.934-8.979
			c-4.271,0.154-7.33-0.601-9.232-2.354c-1.289-1.187-2.027-2.822-2.252-4.954c-1.031-0.474-4.764-2.11-6.712-2.11
			c-5.901,0-10.48,7.478-10.525,7.556l-0.958-0.581c0.196-0.328,4.943-8.093,11.483-8.093c1.914,0,5.122,1.302,6.638,1.967
			c-0.002-0.068-0.008-0.133-0.008-0.2c0-4.816,4.178-8.448,9.721-8.448c0.869,0,1.955,0.139,2.846,0.28
			c0.744-0.184,1.564-0.294,2.432-0.294c8.271,0,16.033,11.006,16.033,18.832c0.955,0,2.99-1.908,2.99-5.217
			C206.95,345.386,197.928,332.243,183.772,329.325z"/>
		<path fill="#E5E520" d="M183.375,341.151c-0.256-0.018-0.5-0.028-0.727-0.028c-4.904,0-8.602,3.149-8.602,7.327
			c0,2.576,0.629,4.352,1.975,5.594c1.855,1.709,5.189,2.379,9.902,1.995l1.063-0.306c-1.91-5.618-5.037-8.983-5.037-12.563
			C181.95,342.43,182.489,341.717,183.375,341.151z"/>
		<path fill="#E5E520" d="M179.559,390.147l-0.35-0.194c-0.334-0.066-1.609-0.292-2.539-0.292c-4.508,0-9.166,3.642-9.232,9.743
			l0.255,0.479c2.47-1.298,5.108-2.972,7.646-5.125C176.793,393.522,178.219,391.952,179.559,390.147z"/>
		<path fill="#E5E520" d="M153.346,229.617c0,1.284,1.045,2.329,2.33,2.329c1.283,0,2.328-1.045,2.328-2.329
			s-1.045-2.328-2.328-2.328C154.391,227.289,153.346,228.333,153.346,229.617z M154.059,229.617c0-0.891,0.726-1.616,1.617-1.616
			c0.892,0,1.615,0.726,1.615,1.616c0,0.892-0.723,1.616-1.615,1.616C154.785,231.233,154.059,230.509,154.059,229.617z"/>
		<path fill="#E5E520" d="M145.839,230.699c0,1.284,1.045,2.327,2.328,2.327c1.286,0,2.329-1.043,2.329-2.327
			c0-1.282-1.043-2.328-2.329-2.328C146.884,228.371,145.839,229.417,145.839,230.699z M146.554,230.699
			c0-0.891,0.724-1.616,1.613-1.616c0.892,0,1.618,0.726,1.618,1.616c0,0.892-0.726,1.616-1.618,1.616
			C147.278,232.315,146.554,231.591,146.554,230.699z"/>
		<path fill="#E5E520" d="M160.154,230.573c0,1.283,1.045,2.326,2.328,2.326c1.284,0,2.327-1.043,2.327-2.326
			c0-1.284-1.043-2.329-2.327-2.329C161.199,228.244,160.154,229.289,160.154,230.573z M160.867,230.573
			c0-0.892,0.724-1.616,1.615-1.616c0.89,0,1.616,0.725,1.616,1.616c0,0.891-0.727,1.616-1.616,1.616
			C161.59,232.189,160.867,231.464,160.867,230.573z"/>
		<path fill="#E5E520" d="M185.831,219.694c-1.691,0-3.088,1.246-3.33,2.868c-0.85-0.093-1.789-0.171-2.523-0.171
			c-2.9,0-5.594,1.958-7.375,3.252c-0.689,0.505-1.475,1.074-1.723,1.074c-0.576,0-1.605-1.087-2.244-1.951
			c0.178-0.288,2.816-4.573,4.172-6.779c0.389,0.158,0.809,0.243,1.254,0.243c1.861,0,3.373-1.509,3.373-3.369
			c0-1.864-1.512-3.373-3.373-3.373c-1.863,0-3.373,1.509-3.373,3.373c0,1.058,0.49,2.002,1.256,2.62
			c-2.246,2.4-6.157,6.118-8.19,6.118c-2.729,0-3.95-7.621-3.966-8.772c0.004-0.024,0.044-0.202,0.1-0.447
			c1.645-0.224,2.912-1.631,2.912-3.338c0-1.862-1.509-3.37-3.371-3.37c-1.861,0-3.372,1.508-3.372,3.37
			c0,1.617,1.137,2.964,2.655,3.295c-1.42,3.104-4.013,8.784-4.078,8.926c-0.134,0.082-0.589,0.359-0.713,0.434
			c-0.16,0-0.885,0-0.885,0c-0.76,0-4.415-3.851-7.65-7.723c0.69-0.617,1.13-1.515,1.13-2.514c0-1.86-1.512-3.371-3.371-3.371
			c-1.864,0-3.375,1.511-3.375,3.371c0,1.861,1.51,3.372,3.375,3.372c0.496,0,0.966-0.11,1.393-0.304
			c0.384,1.814,1.368,6.724,1.368,9.336c0,0.347-1.25,0.978-2.637,1.346c-1.055-0.308-7.137-2.083-8.204-2.083h-0.42
			c0.022-0.156,0.039-0.311,0.039-0.472c0-1.861-1.512-3.371-3.371-3.371c-1.864,0-3.373,1.51-3.373,3.371
			c0,1.864,1.508,3.371,3.373,3.371c0.959,0,1.824-0.402,2.438-1.043c2.31,2.154,5.81,5.525,6.342,6.552l0.422,1.084
			c0.731,2.089,2.091,5.979,7.275,5.979h14.885c2.483,0,5.118-2.922,5.228-3.044l4.098-5.887c0.051-0.084,4.307-6.623,10.533-7.9
			c0.322,1.526,1.678,2.67,3.299,2.67c1.861,0,3.369-1.507,3.369-3.371C189.2,221.204,187.692,219.694,185.831,219.694z
			 M162.673,239.887h-14.885c-2.512,0-4.006-0.958-4.972-2.182c1.041-0.925,5.678-4.679,12.413-4.679
			c6.628,0,10.71,3.558,11.689,4.517C166.112,238.321,164.297,239.887,162.673,239.887z M169.864,233.49l-0.814,1.167
			c-0.236,0.131-0.504,0.203-0.779,0.203c-0.889,0-1.613-0.727-1.613-1.616c0-0.891,0.725-1.616,1.613-1.616
			c0.893,0,1.617,0.726,1.617,1.616L169.864,233.49z M170.493,232.584c-0.287-0.961-1.168-1.67-2.223-1.67
			c-1.285,0-2.327,1.047-2.327,2.33s1.042,2.329,2.327,2.329c0.051,0,0.1-0.006,0.15-0.009l-1.014,1.455
			c-1.079-1.072-5.245-4.704-12.177-4.704s-11.612,3.719-12.831,4.804c-0.391-0.621-0.669-1.276-0.906-1.896
			c0.391,0.295,0.87,0.477,1.397,0.477c1.284,0,2.326-1.043,2.326-2.328c0-1.284-1.042-2.327-2.326-2.327
			c-1.158,0-2.111,0.85-2.291,1.954c-0.124-0.188-0.293-0.409-0.502-0.66c1.138-1.082,6.687-5.863,15.897-5.863
			c9.097,0,14.761,4.62,15.249,5.032L170.493,232.584z M141.271,233.371c0-0.89,0.726-1.616,1.618-1.616
			c0.89,0,1.615,0.727,1.615,1.616c0,0.893-0.725,1.617-1.615,1.617C141.998,234.988,141.271,234.264,141.271,233.371z
			 M171.645,230.914c-0.832-0.684-6.599-5.151-15.651-5.151c-9.371,0-15.081,4.83-16.363,6.037
			c-1.458-1.629-3.934-3.979-5.449-5.385c0.113-0.182,0.208-0.375,0.284-0.574c0.343,0,0.599,0,0.599,0
			c0.757,0,5.261,1.245,8.106,2.083l0.091,0.029l0.099-0.026c0.763-0.193,3.258-0.921,3.258-2.063c0-2.426-0.791-6.611-1.24-8.788
			c2.204,2.6,6.385,7.331,7.657,7.331h0.988h0.098l1.069-0.648c0,0,2.557-5.596,3.921-8.589c0.211,1.735,1.32,9.143,4.642,9.143
			c2.011,0,5.198-2.79,7.394-4.982c-1.5,2.436-3.365,5.464-3.365,5.464l0.133,0.193c0.285,0.408,1.758,2.443,2.965,2.443
			c0.459,0,1.049-0.415,2.143-1.21c1.707-1.241,4.283-3.117,6.955-3.117c0.52,0,1.16,0.045,1.791,0.104
			C176.368,224.596,172.612,229.528,171.645,230.914z"/>
		<path fill="#E5E520" d="M228.706,254.598c-27.227,0-56.15,19.677-61.748,19.677c-1.062,0-2.631,0-2.631-1.439
			c2.291-1.441,3.055-3.732,3.055-3.732s-0.935-0.042-0.935-0.341c0-4.221-2.566-5.342-1.526-5.342
			c2.842,1.059,2.331,4.621,2.331,4.621s1.827-0.254,1.827-1.822c0-3.259-2.76-5.812-2.76-5.812s0.299-0.551,0.555-0.551
			c3.357,3.361,2.967,6.7,2.967,6.7s1.527-0.679,1.527-2.205c0-5.026-3.055-8.143-3.055-8.143l0.254-0.593
			c3.332,3.33,2.885,6.954,2.885,6.954s2.205-1.4,2.205-6.106c0-3.055-3.055-3.987-3.055-3.987s5.09-0.467,5.09-2.543
			c0-0.276-0.508-1.104-0.508-1.104s5.088-0.828,5.088-2.375c0-0.657-0.232-1.272-0.846-1.272c0,0-1.02,0.509-1.697,0.509
			c-0.68,0-1.188-0.34-1.188-0.34s5.684-0.423,5.684-5.512c0,0-6.619,3.9-11.113,3.9c-3.9,0-7.039-1.611-11.451-1.611
			c-3.393,0-4.832,2.375-7.719,2.375h-3.646c-2.458,0-8.991,4.58-11.449,4.58c-2.461,0-2.799-3.224-5.683-3.224
			c-1.87,0-4.33,1.867-4.33,4.837c0,1.745,1.414,2.829,3.552,3.132c3.089-0.839,6.559-1.539,11.465-1.539
			c5.333,0,7.224,0.938,7.224,3.581c0,1.312-1.021,2.259-1.138,2.363l-0.789,0.701c0,0-1.162-1.166-1.581-1.582
			c-0.742,0.783-1.826,1.672-2.956,1.672c-0.892,0-1.623-0.547-2.176-1.177c-0.571,0.657-1.407,1.177-2.571,1.177
			c-1.294,0-2.466-0.511-3.305-1.006c-0.298,0.626-0.953,1.619-2.294,2.487v2.827c0,0-0.082,2.334-5.005,4.072
			c1.93,0,2.513-0.103,3.373-0.304l0.937-0.513l0.46-0.322c0.02-0.014,2.156-1.539,2.156-3.442v-0.561h1.119v0.561
			c0,1.96-1.562,3.484-2.281,4.084c0.412,0.09,0.359,0.186,1.13,0.225l0.561-0.139l0.465-0.31c0.026-0.02,2.634-1.777,2.634-3.925
			v-0.559h1.117v0.559c0,2.28-2.059,4.057-2.838,4.646c0.361,0.223,0.277,0.409,1.127,0.519l0.48-0.062l0.49-0.27
			c0.022-0.013,2.232-1.262,2.232-3.56v-0.561h1.121v0.561c0,2.188-1.465,3.582-2.283,4.188c0.62,0.101,0.319,0.118,1.145,0.16
			l1.087-0.242l0.536-0.167c0.098-0.032,2.403-0.794,2.403-3.813v-0.56h1.119v0.56c0,2.244-1.098,3.62-2.125,4.338
			c1.491-0.033,3.128-0.204,5.105-0.973c0.154-0.155,0.296-0.33,0.388-0.485c0.425-0.742,0.315-1.83,0.257-2.229l-0.254-0.255
			c-0.22-0.219-0.22-0.573,0-0.792c0.217-0.219,0.572-0.219,0.789,0l0.288,0.287c0.251,0.073,0.896,0.247,1.606,0.247
			c2.334,0,4.802-3.555,5.554-4.927c0.148-0.271,0.489-0.368,0.76-0.218c0.272,0.147,0.372,0.487,0.222,0.76
			c-0.124,0.224-3.063,5.505-6.536,5.505c-0.475,0-0.903-0.064-1.264-0.138c0.005,0.093,0.01,0.186,0.01,0.285
			c0,0.621-0.094,1.389-0.464,2.033c-0.109,0.189-0.319,0.286-0.523,0.273c-0.711,5.154-11.422,4.404-15.622,8.626
			c-0.182,0.18,0.02,0.296,0.102,0.704c0.007,0.038-2.035,3.252-2.035,6.04c0,3.361,1.23,6.971,1.243,7.007
			c0.1,0.292-0.055,0.611-0.347,0.712c-0.292,0.102-0.61-0.056-0.712-0.347c-0.053-0.153-1.301-3.819-1.301-7.372
			c0-2.614,1.487-5.407,2.017-6.326c-7.756,0.283-11.043,5.479-12.503,6.688c0.074,0.146,0.093,0.321,0.021,0.482
			c-0.672,1.513-2.412,5.804-2.412,7.426c0,3.207,1.977,6.01,1.996,6.037c0.179,0.251,0.121,0.6-0.13,0.78
			c-0.251,0.181-0.6,0.122-0.782-0.128c-0.087-0.126-2.204-3.114-2.204-6.689c0-1.96,1.926-6.531,2.404-7.639
			c-10.612,0.296-14.822,8.178-14.822,13.046c0,5.854,5.666,10.815,8.972,10.815v1.12c-3.49,0-8.829-4.392-9.897-9.966
			c-0.655,1.116-1.257,1.615-1.682,1.839l0.178,0.18l-0.396,0.394c-1.604,1.605-3.801,3.803-3.801,8.979
			c0,9.11,8.046,16.807,17.57,16.807h3.104v1.119h-3.104c-10.131,0-18.688-8.208-18.688-17.926c0-5.639,2.482-8.125,4.129-9.771
			l0.066-0.067c-1.032-1.48-4.167-6.127-4.167-7.934c0-1.993,2.033-13.271,2.033-17.217c0-4.623-3.307-9.246-6.53-9.246
			c-4.453,0-5.81-4.073-8.566-4.073c-1.128,0-2.379,0.707-3.03,1.132c1.034,0.359,2.03,0.935,2.03,1.817
			c0,1.416-3.401,1.984-4.678,2.148c-0.008,0.318,0.037,0.624,0.083,0.847c0.879-0.28,2.417-0.712,3.569-0.712
			c1.458,0,3.568,0.626,3.568,1.757c0,1.351-4.044,2.007-6.039,2.246c0.221,0.645,0.569,1.107,0.846,1.403
			c0.898-0.623,3.228-2.129,4.774-2.129c1.583,0,1.915,0.712,1.915,1.31c0,1.161-3.383,3.181-4.997,4.079
			c0.063,0.138,0.141,0.253,0.223,0.35c0.655-0.624,3.001-2.686,5.34-2.686c0.486,0,1.5,0,1.5,0.994c0,1.063-1.23,2.22-2.064,2.881
			c2.198-0.412,3.138-2.202,4.337-2.202c1.103,0,1.699,1.78,1.699,5.256c0,4.922-4.073,21.461-4.073,29.606
			c0,10.598,7.527,7.781,13.356,13.184c5.622,5.214,3.439,12.007,13.022,12.007c5.367,0,13.534-3.896,14.202-4.22
			c-0.357-0.691-0.562-1.435-0.562-2.226c0-0.403,0.049-0.94,0.117-1.477c-0.824-0.002-1.37,0.005-1.505,0.014l-0.098,0.015h-0.045
			c-5.455,0-9.265-4.699-9.265-11.425c0-5.638,3.664-12.091,10.055-17.702c13.617-11.967,46.5-24.07,68.67-27.87l0.014-0.001
			c0.213-0.034,0.428-0.063,0.641-0.097c1.668-1.502,13.854-11.98,29.992-12.452c0,0,4.771-0.438,16.447,0.594
			C243.54,258.416,235.571,254.598,228.706,254.598z M153.793,249.215c-0.09,0.012-1.657,0.2-2.967,0.304
			c0.134,0.259,0.214,0.547,0.214,0.859c0,0.446-0.161,0.853-0.419,1.178c1.916,0.645,3.152,1.67,3.152,3.339
			c0,3.413-3.458,6.176-3.603,6.292l-0.441,0.348l-0.696-0.879l0.443-0.348c0.03-0.025,3.178-2.547,3.178-5.413
			c0-1.342-1.427-2.128-3.521-2.602c-0.005,0-0.008,0-0.01,0c-0.269,0-0.525-0.054-0.755-0.152
			c-2.564-0.462-5.891-0.549-8.853-0.628c-3.19-0.085-6.204-0.166-8.073-0.658l-0.541-0.142l0.285-1.083l0.541,0.144
			c1.742,0.459,4.696,0.537,7.819,0.621c2.606,0.067,5.347,0.141,7.723,0.449c-0.037-0.149-0.064-0.305-0.064-0.466
			c0-0.422,0.142-0.81,0.374-1.127c-1.388-0.435-2.426-1.149-2.488-1.191l-0.459-0.322l0.64-0.915l0.458,0.318
			c0.021,0.015,1.924,1.32,3.836,1.32c1.142,0,4.061-0.353,4.089-0.356l0.557-0.067l0.134,1.11L153.793,249.215z M156.298,259.209
			l-0.332,0.455l-0.904-0.657l0.329-0.455c0.013-0.017,1.251-1.744,1.251-3.318c0-1.725-1.101-3.161-1.111-3.175l-0.344-0.441
			l0.879-0.689l0.346,0.441c0.057,0.068,1.347,1.745,1.347,3.864C157.76,257.175,156.358,259.127,156.298,259.209z M158.142,280.18
			c-2.25,0-4.075-1.829-4.075-4.076c0-1.097,0.428-2.126,1.209-2.897l0.789,0.797c-0.568,0.559-0.879,1.305-0.879,2.101
			c0,1.631,1.325,2.955,2.956,2.955c0.718,0,1.412-0.26,1.951-0.735l0.739,0.843C160.089,279.818,159.131,280.18,158.142,280.18z
			 M161.432,277.03c-2.358,0-4.281-1.922-4.281-4.281c0-1.037,0.375-2.039,1.058-2.818l0.843,0.737
			c-0.505,0.573-0.784,1.313-0.784,2.081c0,1.745,1.42,3.161,3.164,3.161c0.735,0,1.424-0.244,1.996-0.709l0.705,0.87
			C163.372,276.689,162.413,277.03,161.432,277.03z"/>
		<path fill="#E5E520" d="M224.506,269.759c-9.328,0.011-18.73,0.256-27.869,1.718c-23.025,3.944-55.083,16.148-68.12,27.606
			c-6.446,5.663-9.676,11.806-9.676,16.861c0,6.51,3.722,10.304,8.145,10.304c2.161,0,2.606-0.729,2.606-2.734
			c0-2.736-2.894-2.641-2.894-6.658c0-8.864,31.522-27.947,61.611-27.947c8.717-11.58,18.004-13.233,34.861-14.695l23.631-0.584
			C246.801,273.629,240.379,269.759,224.506,269.759z"/>
		<path fill="#E5E520" d="M222.346,289.119c0,0-11.963-0.848-16.373-0.848c-3.121,0-11.51,0.317-16.145,0.505
			c-0.209,0.264-0.416,0.528-0.623,0.805l-0.338,0.444h-0.559c-13.176,0-28.332,3.839-41.583,10.532
			c-12.412,6.268-18.908,12.943-18.908,16.298c0,1.772,0.634,2.479,1.367,3.294c0.681,0.757,1.526,1.698,1.526,3.364
			c0,1.104-0.141,2.164-0.815,2.892c-0.102,0.638-0.259,1.766-0.259,2.412c0,3.644,5.936,6.445,9.921,6.445h1.528
			c0,0-1.867-1.784-1.867-4.496c0-13.402,20.358-27.482,42.75-27.482c4.236,0,6.436,0.34,7.379,0.34
			c9.584-10.434,13.402-9.076,32.998-10.009c8.83,0,26.139,1.892,26.139,1.892S230.625,289.119,222.346,289.119z"/>
		<path fill="#E5E520" d="M224.061,310.22c0,0-16.158-5.982-33.27-5.982c-0.135,0-0.299,0-0.486,0
			c-0.045,0.051-0.088,0.096-0.133,0.144l-0.293,0.394l-1.939-0.119c-1.25-0.099-3.137-0.251-5.971-0.251
			c-10.297,0-20.924,3.109-29.156,8.529c-7.812,5.146-12.473,11.811-12.473,17.833c0,2.177,1.51,3.675,1.524,3.691l1.97,1.923
			l0.646,0.746l0.825,1.082c2.672-12.913,15.711-20.804,39.124-20.804c0,0,5.029-6.104,14.504-6.104
			c9.479,0,25.766,3.625,25.766,3.625c3.912,1.323,9.844,3.59,9.844,3.59S230.418,312.198,224.061,310.22z"/>
		<path fill="#E5E520" d="M229.848,330.767c0,0-14.545-13.147-43.424-13.147c-0.223,0-0.439,0.003-0.66,0.006
			c-0.305,0.297-0.465,0.486-0.473,0.496l-0.338,0.405h-0.525c-21.864,0-35.37,7.071-38.027,19.911l-0.636,2.26
			c0,0-0.353,0.793-0.353,1.35c2.346-2.406,16.625-15.521,37.407-13.359c0,0,4.412-4.581,11.746-4.581
			c15.732,0,35.754,8.908,35.754,8.908l1.064,0.407C231.383,333.422,230.879,331.795,229.848,330.767z"/>
	</g>
</g>
</svg>
