<?xml version="1.0" encoding="UTF-8" standalone="no"?>
<!-- Created with Inkscape (http://www.inkscape.org/) -->

<svg
   xmlns:dc="http://purl.org/dc/elements/1.1/"
   xmlns:cc="http://creativecommons.org/ns#"
   xmlns:rdf="http://www.w3.org/1999/02/22-rdf-syntax-ns#"
   xmlns:svg="http://www.w3.org/2000/svg"
   xmlns="http://www.w3.org/2000/svg"
   xmlns:sodipodi="http://sodipodi.sourceforge.net/DTD/sodipodi-0.dtd"
   xmlns:inkscape="http://www.inkscape.org/namespaces/inkscape"
   version="1.0"
   width="531.49603"
   height="676.16998"
   id="svg8258"
   inkscape:version="0.91 r13725"
   sodipodi:docname="TSV_1860_München.svg">
  <metadata
     id="metadata4181">
    <rdf:RDF>
      <cc:Work
         rdf:about="">
        <dc:format>image/svg+xml</dc:format>
        <dc:type
           rdf:resource="http://purl.org/dc/dcmitype/StillImage" />
        <dc:title></dc:title>
      </cc:Work>
    </rdf:RDF>
  </metadata>
  <sodipodi:namedview
     pagecolor="#ffffff"
     bordercolor="#666666"
     borderopacity="1"
     objecttolerance="10"
     gridtolerance="10"
     guidetolerance="10"
     inkscape:pageopacity="0"
     inkscape:pageshadow="2"
     inkscape:window-width="1366"
     inkscape:window-height="705"
     id="namedview4179"
     showgrid="false"
     fit-margin-top="0"
     fit-margin-left="0"
     fit-margin-right="0"
     fit-margin-bottom="0"
     inkscape:zoom="0.33302224"
     inkscape:cx="-108.10088"
     inkscape:cy="338.08499"
     inkscape:window-x="-8"
     inkscape:window-y="-8"
     inkscape:window-maximized="1"
     inkscape:current-layer="svg8258" />
  <defs
     id="defs8260" />
  <g
     id="layer1"
     transform="translate(-17.716544,-16.245697)">
    <g
       id="g8301">
      <polygon
         points="14076000,459500 13873800,459500 2131100,458480 1928810,458480 503250,2128320 503250,3484380 500000,17871800 1925560,19541500 3603860,19541500 12399400,19541200 14078000,19541200 15056800,18394600 15499400,17871400 15500000,3484100 15500000,3484100 15500000,2127950 14456200,905320 "
         transform="matrix(3.543307e-5,0,0,3.543307e-5,9.091797e-6,3.428073e-4)"
         style="fill-rule:evenodd"
         id="_94316080" />
      <polygon
         points="14076000,459500 13873800,459500 2131100,458480 1928810,458480 503250,2128320 503250,3484380 500000,17871800 1925560,19541500 3603860,19541500 12399400,19541200 14078000,19541200 15056800,18394600 15499400,17871400 15500000,3484100 15500000,3484100 15500000,2127950 14456200,905320 "
         transform="matrix(3.543307e-5,0,0,3.543307e-5,9.091797e-6,3.428073e-4)"
         style="fill:#000000;fill-opacity:1;fill-rule:evenodd"
         id="_95104984" />
      <polygon
         points="2131100,19094500 946470,17714700 950000,3458180 950000,2285360 2134720,905600 2769360,904020 13868900,905320 15053500,2284710 15053200,3457810 15053900,17714500 13872200,19094100 13872200,19094100 12451500,19094100 3551730,19094500 "
         transform="matrix(3.543307e-5,0,0,3.543307e-5,9.091797e-6,3.428073e-4)"
         style="fill:#ffffff;fill-opacity:1;fill-rule:evenodd"
         id="_97350032" />
      <path
         d="m 173.75989,656.46883 -18.51307,0 0,-59.17783 -22.93831,0 0,-13.95 c 12.90295,0.26681 24.76205,-4.16799 26.71476,-18.10807 l 14.73662,0 0,91.2359 z m 57.72897,-93.06 c 22.6715,0 30.4976,15.63591 30.4976,24.49559 0,9.00142 -4.69169,16.29744 -13.29803,19.42193 l 0,-0.25689 0,0.25689 c 10.81559,2.48563 17.07449,10.82551 17.07449,22.28953 0,19.16504 -17.20276,28.67669 -34.14898,28.67669 -17.59464,0 -34.66878,-8.86287 -34.66878,-28.5385 0,-11.60221 6.51543,-19.81347 17.20276,-22.42772 l 0,-0.25689 c -8.86323,-2.47252 -13.42984,-9.77846 -13.42984,-18.76996 0,-16.42252 15.90236,-24.89067 30.77078,-24.89067 z m 0.12508,80.9341 c 8.86323,0 15.64547,-6.24898 15.64547,-15.37902 0,-8.73461 -7.03913,-14.59842 -15.64547,-14.59842 -8.98831,0 -16.16563,5.08677 -16.16563,14.47015 0,9.38658 7.30595,15.50729 16.16563,15.50729 z m -0.12508,-42.36024 c 7.55929,0 13.68,-4.16799 13.68,-11.98772 0,-4.69169 -2.21917,-12.64606 -13.68,-12.64606 -7.43421,0 -13.95,4.56343 -13.95,12.64606 0,7.94481 6.51579,11.98772 13.95,11.98772 z m 97.73823,-13.28811 c -1.17532,-6.13028 -5.86701,-11.34567 -12.25418,-11.34567 -13.42629,0 -16.94586,17.59465 -17.45645,27.77138 l 0.2537,0.2537 c 5.08996,-7.16421 11.73083,-10.16362 20.59405,-10.16362 7.81618,0 15.77374,3.64783 20.98878,9.38657 4.82032,5.59701 7.03914,13.15984 7.03914,20.32406 0,18.64488 -12.90614,33.37157 -31.94256,33.37157 -27.63,0 -35.05429,-24.11327 -35.05429,-47.17984 0,-22.28988 9.90992,-47.7039 35.84445,-47.7039 15.77374,0 27.50456,9.2452 29.582,25.28575 l -17.59464,0 z m -28.02827,37.40173 c 0,8.47807 5.48185,16.94587 14.74016,16.94587 8.86323,0 13.93689,-8.4678 13.93689,-16.67906 0,-8.60634 -4.42488,-17.21267 -13.93689,-17.21267 -9.90673,0 -14.74016,7.95437 -14.74016,16.94586 z m 98.40366,-62.68748 c 18.24626,0 33.62527,11.46437 33.62527,47.05193 0,36.3678 -15.37901,47.83181 -33.62527,47.83181 -17.99327,0 -33.37193,-11.46401 -33.37193,-47.83181 0,-35.58756 15.37866,-47.05193 33.37193,-47.05193 z m 0,79.63335 c 15.12177,0 15.12177,-22.28953 15.12177,-32.58142 0,-9.52157 0,-31.80153 -15.12177,-31.80153 -14.85531,0 -14.85531,22.27996 -14.85531,31.80153 0,10.29189 0,32.58142 14.85531,32.58142 z m 88.88846,-443.40979 c -23.82378,-19.69831 -47.37756,-23.09953 -68.49496,-16.59685 -35.63397,-66.24 2.94981,-94.218664 21.20953,-93.465003 17.33138,0.707953 19.17496,8.968819 19.17496,8.968819 -12.17197,25.446964 -5.43579,36.272124 -0.75402,50.604094 3.78638,11.60256 -6.12035,20.13945 -6.12035,20.13945 11.05583,-1.10268 16.54087,-11.83606 16.54087,-11.83606 2.76236,5.54102 -0.62894,18.53964 -0.62894,18.53964 7.74709,-3.3222 10.43043,-15.20433 10.43043,-15.20433 2.48563,11.61567 11.6387,17.93374 11.6387,17.93374 0,0 -2.17311,-10.46657 -0.51023,-19.87299 1.65933,-9.40961 8.31649,-39.28181 -4.47449,-58.58504 -35.42315,-53.419251 -133.25669,-17.212677 -79.85055,87.7259 -50.68665,26.50394 -68.15622,113.76921 29.58201,144.01311 -14.1013,22.18429 -38.73508,27.85394 -50.07083,28.03819 -7.89839,0.13819 -11.0459,-4.49433 -12.26409,-7.50331 -0.10559,-0.39508 -0.16477,-0.77705 -0.30296,-1.18523 -9.01452,-27.92304 -41.37236,-55.86555 -41.37236,-55.86555 9.68634,-11.47748 7.50331,-16.29745 7.50331,-16.29745 -29.87504,13.13646 -26.82957,-5.70259 -12.03378,-12.33354 14.79933,-6.64405 14.25295,-14.56547 14.25295,-14.56547 -23.64945,2.48563 -14.12433,-13.61409 -1.67244,-21.62764 12.43843,-8.02701 14.79579,-12.84697 14.79579,-12.84697 -17.91036,1.80071 -20.83748,-11.93846 0.38551,-24.49559 21.20634,-12.5309 18.25618,-17.32783 18.25618,-17.32783 0,0 -4.28669,0.96449 -8.02665,0.44114 -7.2567,-1.02401 -6.22276,-4.30972 -5.66646,-10.25575 2.25213,-24.15968 -4.76079,-36.54248 -4.76079,-36.54248 13.82138,-9.8146 11.73083,-16.25775 11.73083,-16.25775 -10.65083,3.30874 -18.59563,-1.83721 -13.75228,-12.76476 4.84299,-10.930752 7.5724,-24.765594 7.5724,-24.765594 -8.57339,-3.30874 -22.1974,0.372047 -22.1974,0.372047 -3.72685,-10.789015 -8.03658,-12.112795 -8.03658,-12.112795 -2.20606,3.322205 -7.30594,7.677992 -7.30594,7.677992 -39.13016,-18.397913 -53.90327,6.897756 -56.83004,10.196575 -2.63728,2.963267 -6.66709,3.193582 -9.44291,4.217598 -14.13744,5.215039 -13.42949,12.204921 -16.01752,15.076067 -1.3826,1.52078 -7.87536,3.97063 -7.76977,6.87437 0.26646,8.0961 6.0743,6.99307 8.43166,13.2059 3.05539,8.02665 4.19138,7.73717 7.31586,8.68854 6.36733,1.96229 11.59229,-3.36826 22.13788,-4.14496 5.47193,-0.40854 13.27854,5.93292 11.84952,13.13327 -2.67342,-0.98433 -5.7157,-2.06752 -9.1761,-3.23965 -21.55854,-7.32897 -36.14704,6.49241 -53.84728,6.91052 -27.9326,0.65197 -32.49921,-15.91193 -28.0148,-25.07492 2.35736,-4.843 7.13126,-6.84142 5.38972,-9.43264 -3.84555,-5.72563 -23.16224,8.80405 -16.27441,26.59925 8.90929,23.05346 41.44146,18.2335 67.94858,7.36193 10.36099,-4.26047 22.21725,-0.90532 30.66201,2.88071 -8.44476,9.95634 -16.92283,2.01189 -22.11484,-0.0691 -5.52827,-2.21917 -12.81083,5.3667 -6.63095,10.76634 4.80685,4.2176 14.58851,6.23906 13.28811,9.93295 0,0 0.5563,2.95016 -17.00539,0.73099 -23.14878,-2.92677 -37.39854,3.99366 -37.39854,3.99366 -53.38276,-17.60776 -71.32642,-75.751652 -69.42331,-78.586298 2.1267,-3.157441 9.12969,-16.771535 -5.92334,-25.364763 -1.62638,-0.928347 -2.56784,-1.442126 -3.93768,-1.837205 -5.71535,-10.324842 -18.63142,-4.599212 -18.63142,-4.599212 3.97382,1.395708 6.27201,2.209251 8.35264,6.354212 -3.8785,3.391299 -5.07685,9.212244 -5.07685,9.212244 0,0 -6.22594,-14.229921 -20.732243,-9.640275 -18.223583,5.781614 -18.453898,25.07492 -18.453898,25.07492 0,0 8.570197,-10.430433 13.610906,-7.039134 3.160629,2.127048 2.426456,5.159055 1.428661,7.13126 -8.619449,6.83185 -9.070512,12.415751 -6.88748,16.821141 -5.643425,11.46083 2.752441,17.28177 2.752441,17.28177 0,-5.19236 1.892834,-8.03693 3.901181,-9.60732 0.220748,0.18779 0.431574,0.37205 0.628937,0.54638 5.527913,4.98472 12.939095,6.20291 12.939095,6.20291 0,0 -1.93925,1.48819 -2.91685,5.1098 -0.60272,2.25532 2.17275,5.61048 -0.41811,7.82929 -2.578112,2.20607 -6.828663,-2.31094 -6.828663,-2.31094 1.567205,15.91193 16.784643,12.04335 19.826933,10.18665 1.1622,-0.70795 3.54259,-2.47606 5.91307,-3.67122 2.40342,-1.20827 4.41177,-1.54417 5.81775,-0.12827 5.32063,5.37981 -8.32641,10.6278 1.8241,21.88453 0,0 -1.02402,-3.96071 5.80783,-4.33275 4.22752,-0.23386 7.74709,0.4872 13.46244,9.33732 5.71252,8.84976 14.15728,26.34236 8.06988,31.13929 -1.43893,1.13917 -3.21661,1.58067 -5.07366,1.6037 -6.02858,0.0691 -13.04468,-4.28669 -13.04468,-4.28669 0,0 1.38295,18.1311 22.18429,22.46385 -11.79992,4.05284 -21.62764,-0.83622 -21.62764,-0.83622 2.9498,12.35622 13.95,16.45867 13.95,16.45867 -7.00299,4.23744 -15.79713,15.15507 -15.79713,15.15507 -2.21562,-3.13441 -10.35779,-2.49555 -10.35779,-2.49555 -3.31228,-14.93787 -13.89402,-15.59941 -17.53866,-16.12311 -1.9063,-0.26681 -3.46358,0.69803 -4.37882,0.69803 -0.80362,-2.32441 -2.43,-4.56342 -5.531456,-6.272 -11.065748,-6.08776 -18.302598,4.87948 -18.302598,4.87948 0,0 4.425236,-0.28984 7.210629,0.18426 3.845551,0.65197 9.979016,9.14279 -4.632519,10.59165 -9.396496,0.93154 -15.994488,7.40126 -15.122126,14.27598 -8.109212,5.61012 -9.198779,15.19087 -6.864448,20.04733 0,0 5.922992,-9.58111 11.707795,-7.37504 0.556299,0.44114 2.926771,1.87015 3.693897,2.20606 4.283504,1.9063 6.258898,1.48819 6.258898,1.48819 -7.921418,7.17732 -6.70004,13.92661 -5.587087,17.02488 1.162205,3.25276 2.660315,4.27677 4.299803,5.64661 -0.279921,1.27737 -2.765551,11.42788 8.850118,17.1567 0,0 -1.290827,-1.66288 -0.918779,-6.83185 0.174685,-2.42646 1.65933,-5.34366 4.796929,-5.71252 6.410551,0.405 10.779444,-3.46359 10.779444,-3.46359 3.49654,-3.13405 6.73619,-1.33334 3.22654,4.56662 -3.65776,6.17669 4.25374,9.40642 4.25374,9.40642 -2.40661,5.52791 -7.64469,6.64405 -7.64469,6.64405 0,0 8.55993,6.26209 18.9443,-3.32185 10.32519,-9.52512 6.84177,-26.80689 6.84177,-26.80689 8.30338,4.79693 20.61708,3.97063 20.61708,3.97063 6.45626,15.12532 20.79142,14.05524 20.79142,14.05524 -4.97161,-5.16898 -11.3028,-16.46859 -4.2998,-20.89347 7.00618,-4.42488 11.31271,11.97425 19.24724,23.21788 7.92142,11.25354 14.37803,9.40641 14.37803,9.40641 -12.17197,-15.86586 -1.2313,-17.50216 -3.5426,-16.72547 2.88071,-0.97441 4.83307,0.85961 8.64248,7.79315 4.86603,8.88626 9.38339,6.44669 9.38339,6.44669 0,0 -1.57713,-1.39287 -2.34425,-7.41118 -2.0576,-15.9222 6.12071,-8.17512 9.92976,-0.27673 1.70894,3.5426 7.31587,8.69846 14.64484,13.20591 7.18051,4.41177 16.0076,8.21126 24.46264,9.29126 18.99035,2.42645 19.9552,5.98216 19.9552,5.98216 -7.01611,2.03138 -10.81559,8.03693 -10.81559,8.03693 12.71834,0.37205 23.16189,2.25531 26.7144,3.45047 3.5426,1.19516 26.44796,12.17197 -4.13503,10.44 -10.61469,-0.60236 -19.31351,0.40819 -25.78288,1.77803 -5.75185,1.20827 -9.75862,2.69646 -11.7209,3.60177 -5.46874,2.48563 -8.17512,6.75922 -20.66315,3.00615 -9.99921,-3.00615 -13.06772,-3.18048 -24.62386,-2.69327 -11.57953,0.47728 -46.09701,16.35342 -54.21614,9.16264 -8.10921,-7.18725 10.8124,-18.75685 10.8124,-18.75685 -18.61866,-6.64406 -32.44004,10.62815 -32.44004,10.62815 -27.38976,-23.91626 -72.745862,-12.65953 -65.578106,27.30685 4.378819,24.43641 26.112047,21.95078 26.112047,21.95078 -3.496536,-3.13441 -11.013307,-7.49055 -12.442323,-19.87299 -1.659331,-14.39114 11.128464,-17.85153 10.940669,-11.11535 -0.184252,6.64405 2.150079,6.69011 2.150079,6.69011 2.393504,-10.50909 5.899964,-13.64704 18.071924,-11.44098 7.7602,1.41909 10.30217,7.92142 10.30217,7.92142 0,0 -15.98138,4.82031 -15.37583,23.2083 0.46453,14.4241 18.35185,14.61154 18.35185,14.61154 0,0 -11.69787,-8.88626 -5.61011,-18.10807 6.08456,-9.22217 13.32106,-6.46973 17.18964,-0.19772 3.8785,6.2589 7.99087,5.99244 7.99087,5.99244 0,0 -4.44827,4.19422 -3.34524,13.55457 1.40598,11.98772 11.20748,12.69567 11.20748,12.69567 -5.52827,-17.32784 10.6278,-16.16917 10.6278,-16.16917 3.69389,21.94086 16.42251,20.95299 24.77515,22.03618 8.34981,1.08 11.05618,5.86381 5.98252,10.74295 -3.90472,3.75023 -14.41417,3.75023 -25.89165,23.8337 -18.05882,31.61374 -25.78287,8.07307 -26.32925,5.11972 -0.55985,-2.9498 -2.84811,-5.44535 -2.84811,-5.44535 14.56582,-8.85012 4.13539,-27.68917 -14.71359,-30.59327 -3.79948,-0.59244 -7.39807,-0.38516 -10.20968,0.51059 -2.28827,0.63851 -5.82094,2.79851 -7.63193,4.14496 -1.41555,0.14174 -3.80941,0.30296 -4.7048,0.46772 -11.345671,2.01791 -12.17197,13.36713 -12.17197,13.36713 4.842992,-5.17926 10.44354,-3.25311 13.62402,-2.97319 1.19834,4.47094 4.96169,7.9083 9.65338,8.71157 1.99843,1.31067 0.97441,3.17055 -0.55665,3.3091 -1.49811,0.13818 -5.57717,-2.41689 -11.385,-0.4741 -7.305947,2.43638 -10.522561,7.05862 -9.952797,14.93433 -2.40378,2.42965 -7.352008,6.33118 -6.364488,13.275 1.103031,7.75028 8.211259,10.88469 8.211259,10.88469 0,0 -2.669882,-13.15985 3.891614,-11.86937 1.626382,2.05441 3.947602,2.14689 6.156852,2.6472 5.08677,1.16221 6.36413,-3.32185 9.71929,0.0921 1.62638,1.63984 3.33496,5.35358 3.33496,5.35358 0,0 -6.31807,3.03236 -9.18886,8.8402 -7.4211,15.01972 4.15807,21.85795 4.15807,21.85795 0,0 -0.92834,-5.34012 1.05697,-10.17355 4.2176,-10.25574 7.30595,-3.14751 13.76575,-2.77547 6.44634,0.37205 11.18409,-6.09732 11.18409,-6.09732 0,0 1.16221,1.90311 4.0663,4.5535 2.91366,2.64685 8.8728,1.72843 8.8728,1.72843 0,0 -2.43957,2.06752 -2.6139,5.5311 -0.19772,3.85547 0.83622,6.8152 2.6139,9.02445 -1.3826,2.10047 -4.47095,5.48185 -9.97902,5.22496 0,0 8.85295,7.57276 20.25815,-0.0461 4.64528,0.6059 9.41953,-0.28949 12.18508,-2.07744 6.8152,-4.42489 2.95972,-14.91449 2.40342,-23.14878 -0.54637,-8.23429 24.03142,-14.57894 28.78229,-16.16918 4.73775,-1.59023 8.4646,-5.78444 8.4646,-5.78444 8.29382,16.22799 19.40882,15.15791 19.40882,15.15791 -3.50645,-5.54102 -0.83622,-11.83606 -0.83622,-11.83606 14.0191,4.05283 21.62764,-1.47508 21.62764,-1.47508 -11.62524,-4.23709 -11.99728,-17.14358 -2.77547,-19.72134 10.5587,-2.96327 12.67263,-10.59165 12.67263,-10.59165 4.42489,2.76236 7.83922,1.65933 7.83922,1.65933 0,0 -1.98532,-1.76492 -1.35992,-5.33055 2.53204,-14.39079 -6.51544,-19.84961 -11.31272,-21.32469 -4.79693,-1.47508 -11.34567,-15.49417 3.03236,-33.95126 9.89681,-12.70559 24.80811,-15.31949 34.83354,-15.31949 6.03851,0 10.21961,0.87237 10.21961,0.87237 -1.75465,2.20606 -3.22972,4.37882 -4.47095,6.50232 -11.96468,20.51185 -1.90629,36.93756 -1.90629,36.93756 -11.25355,8.86004 -7.95437,18.95456 -7.95437,18.95456 4.79692,-4.0663 10.81204,-3.97417 10.81204,-3.97417 -13.03122,28.70008 13.7987,40.59531 13.7987,40.59531 0,0 -5.35358,-25.17023 10.51264,-19.08248 16.83071,6.44634 19.3624,3.30874 19.3624,3.30874 -4.42488,-3.49653 -2.62736,-7.16421 -2.62736,-7.16421 3.76335,-0.5237 7.28291,-1.26779 10.57216,-2.15008 24.87721,-6.72626 36.18993,-22.44082 36.18993,-22.44082 0.55984,3.68397 0.43122,5.52791 8.1783,18.99035 7.74709,13.4628 4.11236,32.12752 -4.48405,35.5415 -5.78481,2.28826 -9.95315,2.74252 -13.16977,2.16 -8.027,-1.43894 -9.39649,-7.23366 -16.4948,-11.49733 -9.61724,-5.78444 -20.38323,-1.63948 -24.14657,9.3965 -1.18524,3.45047 -0.83622,3.35516 -1.39288,5.93646 -7.00618,4.05283 -8.68854,15.19122 -0.89539,23.57681 0,0 -1.05697,-8.38559 4.86602,-11.37189 4.92555,3.98374 12.41575,3.61169 12.41575,3.61169 0,0 -1.08957,3.36827 -2.43957,4.64563 -13.03122,12.35976 3.64784,24.7422 3.64784,24.7422 -2.21882,-7.37822 1.0109,-10.81523 1.0109,-10.81523 0,0 5.14595,9.73559 15.47114,7.15429 10.32485,-2.57811 8.00363,-17.41039 8.00363,-17.41039 6.96685,-1.6363 8.06988,4.6357 11.95157,9.61724 3.06532,3.95079 6.75921,5.33055 10.09098,5.58709 2.38394,3.28606 6.70359,6.71315 14.39115,6.49275 3.35834,-0.0921 3.58866,-1.73197 3.58866,-1.73197 0,0 -4.37882,-1.22811 -7.80272,-7.07208 3.47351,-2.47252 7.8261,-11.25319 2.84457,-18.24626 -5.54103,-7.73717 1.59023,-7.71414 4.72783,-4.40221 3.13441,3.32221 4.94859,5.2976 7.0161,7.38815 3.44729,3.49335 9.86067,2.36729 9.86067,2.36729 -0.18744,6.64405 -6.48248,12.75484 -6.48248,12.75484 16.98201,-0.46418 15.99449,-15.81024 15.99449,-15.81024 5.16898,-2.01791 13.80827,-11.6713 9.75508,-20.52141 -4.05283,-8.85012 -21.03484,-5.26111 -21.03484,-5.26111 9.225,-11.61567 9.61689,-24.21921 9.61689,-24.21921 5.16897,0.1878 10.35141,10.81559 10.35141,10.81559 5.16898,-10.69689 -1.0109,-20.32724 -1.0109,-20.32724 6.08457,-1.84713 6.92079,-8.50075 6.92079,-8.50075 0,0 -11.54339,-0.39543 -10.06831,-7.77012 1.47508,-7.37504 13.40362,-2.40697 13.40362,-2.40697 -0.37205,-10.13704 -10.56862,-8.90574 -9.66331,-15.3985 1.06654,-7.63193 13.16941,-2.70638 13.16941,-2.70638 0,0 3.06851,-9.97937 -8.02346,-16.56389 -19.28374,-11.45126 -8.13224,-21.26587 1.27736,-19.16504 9.62717,2.14972 15.71492,16.58692 15.71492,16.58692 0,0 6.82831,-13.89047 -6.91086,-24.76204 -20.89701,-16.54122 -40.50319,4.15807 -40.50319,4.15807 -12.17197,-10.51264 -21.39414,-4.81004 -31.69595,-1.95236 -19.91905,5.52791 -32.45314,-9.9528 -5.50488,-16.08662 64.18205,-14.59842 96.02965,-74.78681 31.56768,-179.1131 -0.079,-0.11551 -0.13854,-0.22075 -0.20764,-0.33591 15.14516,-3.43736 32.42693,-0.37205 49.43232,12.69532 l 1.69548,1.78795 c -8.30339,14.07827 -6.51579,28.93358 -2.95973,42.31382 -1.55764,6.43358 -2.9863,15.07606 -2.01189,22.56626 0,0 8.44512,-12.2641 6.59799,-4.51737 -1.84712,7.74709 -1.10303,14.48327 0.41811,19.63949 0.68492,2.34744 4.03016,-13.26189 8.94225,-7.4576 l 0.8263,1.07008 c 6.14374,9.3274 8.10602,13.02166 8.10602,13.02166 1.59342,2.28826 2.97319,0.13818 2.49874,-1.24477 -1.73161,-8.71157 -1.39571,-12.26409 2.20606,-21.25559 2.35736,-5.8539 23.59984,-43.51889 -12.46181,-73.34822 z m -45.92551,119.31023 c -87.68019,-22.90536 -73.09169,-98.70307 -30.72153,-120.07417 0.45106,0.75401 1.7876,1.49811 2.2422,2.26205 32.83512,56.36905 37.52681,93.47775 28.47933,117.81212 z M 290.80524,93.2779 c 2.33433,2.367283 1.38295,3.878503 3.04228,7.81618 0.54638,2.34425 -0.82311,3.57555 -5.80783,0.48721 -2.91402,-1.800713 -8.93233,-3.670871 -8.93233,-3.670871 -1.26425,-0.500669 -1.6494,-1.929331 -0.56622,-2.844567 0.84615,-0.605905 2.43638,-0.675 3.97063,-1.382952 3.23965,-1.64941 5.71536,-2.811615 8.29347,-0.405 z"
         style="fill:#000000;fill-opacity:1;fill-rule:evenodd"
         id="_98178992"
         inkscape:connector-curvature="0" />
    </g>
  </g>
</svg>
