<?xml version="1.0" encoding="utf-8"?>
<!-- Generator: Adobe Illustrator 13.0.2, SVG Export Plug-In . SVG Version: 6.00 Build 14948)  -->
<!DOCTYPE svg PUBLIC "-//W3C//DTD SVG 1.0//EN" "http://www.w3.org/TR/2001/REC-SVG-20010904/DTD/svg10.dtd">
<svg version="1.0" id="Layer_1" xmlns="http://www.w3.org/2000/svg" xmlns:xlink="http://www.w3.org/1999/xlink" x="0px" y="0px"
	 width="356.85px" height="389.392px" viewBox="0 0 356.85 389.392" enable-background="new 0 0 356.85 389.392"
	 xml:space="preserve">
<path d="M356.85,251.747c0-20.282-14.631-53.68-14.631-53.68l13.541-12.992l-13.55-2.259l6.1-14.64h-12.811l9.15-17.08
	c0,0-36.6-0.306-36.6-41.48s23.79-82.35,23.79-82.35C265.808,27.266,240.949,0,240.949,0s-29.127,21.776-62.524,21.776
	S115.9,0,115.9,0s-24.858,27.266-90.89,27.266c0,0,23.79,41.175,23.79,82.35s-36.6,41.48-36.6,41.48l9.15,17.08H8.541l6.1,14.64
	l-13.551,2.259l13.542,12.992c0,0-14.631,33.397-14.631,53.68c0,74.02,96.207,93.012,147.331,97.878l0,0
	c0,0,11.908,4.956,11.908,13.076c0,0.777-1.582,3.94-5.187,6.444l-1.755,7.366l8.654-0.08c2.671-1.798,5.042-1.78,5.514-1.78
	l11.959,14.74l11.96-14.74c0.472,0,2.843-0.018,5.513,1.78l8.655,0.08l-1.755-7.366c-3.604-2.504-5.187-5.667-5.187-6.444
	c0-8.12,11.907-13.076,11.907-13.076l0,0C260.643,344.759,356.85,325.767,356.85,251.747z"/>
<path fill="#0A4E1D" d="M207.43,338.76c13.248-1.229,29.732-3.421,46.676-7.335V206.542H207.43V338.76z M333.866,206.542h-21.751
	v102.106c5.443-3.544,10.458-7.478,14.867-11.857c12.71-12.632,18.888-27.366,18.888-45.044
	C345.87,238.897,338.315,217.547,333.866,206.542z M102.745,331.427c16.951,3.917,33.44,6.11,46.675,7.336V206.542h-46.675V331.427z
	 M10.98,251.747c0,17.678,6.178,32.412,18.888,45.044c4.408,4.38,9.423,8.313,14.866,11.855V206.542h-21.75
	C18.532,217.547,10.98,238.897,10.98,251.747z"/>
<path fill="#0A4E1D" d="M328.46,195.56c-4.5-8.578-12.32-24.088-19.04-40.451H47.431c-6.72,16.363-14.54,31.873-19.039,40.451
	H328.46z"/>
<g>
	<path fill="#FFFFFF" d="M85.571,160.04h9.321v18.143c0,2.069,0.469,3.457,1.408,4.161c0.939,0.706,2.984,1.058,6.136,1.058h5.303
		c2.617,0,4.371-0.372,5.261-1.119c0.89-0.747,1.336-2.112,1.336-4.1V160.04h9.35v21.04c0,3.604-0.969,6.16-2.908,7.667
		c-1.939,1.508-5.292,2.261-10.06,2.261h-10.44c-5.601,0-9.452-0.718-11.554-2.157c-2.103-1.439-3.153-4.028-3.153-7.771V160.04z"/>
	<path fill="#FFFFFF" d="M141.274,190.635h-8.664v-8.664h8.664V190.635z"/>
	<path fill="#FFFFFF" d="M149.928,180.456l9.236-0.02v0.558c0,1.156,0.28,1.938,0.842,2.343c0.561,0.405,1.74,0.607,3.534,0.607
		h11.736c1.155,0,1.98-0.195,2.475-0.586c0.495-0.391,0.742-1.042,0.742-1.948c0-0.922-0.285-1.582-0.855-1.98
		c-0.57-0.398-1.796-0.667-3.678-0.804l-14.674-0.329c-3.67-0.109-6.152-0.808-7.446-2.094s-1.941-3.628-1.941-7.025
		c0-1.751,0.172-3.195,0.513-4.332c0.343-1.137,0.891-2.082,1.644-2.834c0.89-0.849,2.053-1.453,3.492-1.809
		c1.437-0.355,3.78-0.534,7.025-0.534h14.264c3.536,0,6.083,0.643,7.64,1.928c1.555,1.285,2.334,3.37,2.334,6.255
		c0,0.193-0.004,0.396-0.011,0.616c-0.008,0.218-0.031,0.574-0.072,1.065h-9.007v-0.122c0-1.008-0.257-1.764-0.77-2.268
		c-0.515-0.504-1.285-0.756-2.313-0.756h-10.77c-1.795,0-2.98,0.179-3.556,0.533c-0.575,0.355-0.863,0.976-0.863,1.862
		c0,0.872,0.26,1.503,0.781,1.892c0.52,0.388,1.479,0.636,2.877,0.746l15.385,0.248c3.504,0.095,5.973,0.885,7.404,2.366
		c1.432,1.481,2.146,4.012,2.146,7.592c0,2.125-0.265,3.771-0.791,4.938c-0.527,1.165-1.416,2.159-2.663,2.982
		c-0.822,0.522-1.939,0.896-3.351,1.121c-1.412,0.227-3.455,0.339-6.127,0.339h-12.456c-5.113,0-8.533-0.572-10.26-1.717
		c-1.728-1.144-2.591-3.279-2.591-6.407c0-0.177,0.011-0.476,0.031-0.894C149.856,181.57,149.887,181.06,149.928,180.456z"/>
	<path fill="#FFFFFF" d="M204.892,190.635h-8.663v-8.664h8.663V190.635z"/>
	<path fill="#FFFFFF" d="M213.594,180.456l9.235-0.02v0.558c0,1.156,0.28,1.938,0.842,2.343c0.562,0.405,1.741,0.607,3.535,0.607
		h11.734c1.156,0,1.979-0.195,2.477-0.586c0.493-0.391,0.741-1.042,0.741-1.948c0-0.922-0.284-1.582-0.855-1.98
		c-0.568-0.398-1.794-0.667-3.678-0.804l-14.673-0.329c-3.67-0.109-6.152-0.808-7.446-2.094s-1.941-3.628-1.941-7.025
		c0-1.751,0.172-3.195,0.514-4.332c0.343-1.137,0.89-2.082,1.644-2.834c0.891-0.849,2.054-1.453,3.492-1.809
		c1.437-0.355,3.78-0.534,7.025-0.534h14.263c3.538,0,6.083,0.643,7.64,1.928c1.557,1.285,2.334,3.37,2.334,6.255
		c0,0.193-0.003,0.396-0.011,0.616c-0.007,0.218-0.03,0.574-0.071,1.065h-9.007v-0.122c0-1.008-0.258-1.764-0.771-2.268
		c-0.515-0.504-1.285-0.756-2.313-0.756h-10.769c-1.797,0-2.981,0.179-3.557,0.533c-0.575,0.355-0.863,0.976-0.863,1.862
		c0,0.872,0.259,1.503,0.781,1.892c0.52,0.388,1.479,0.636,2.877,0.746l15.385,0.248c3.505,0.095,5.973,0.885,7.404,2.366
		c1.43,1.481,2.146,4.012,2.146,7.592c0,2.125-0.265,3.771-0.792,4.938c-0.527,1.165-1.415,2.159-2.662,2.982
		c-0.822,0.522-1.939,0.896-3.352,1.121c-1.411,0.227-3.454,0.339-6.128,0.339h-12.454c-5.113,0-8.533-0.572-10.26-1.717
		c-1.729-1.144-2.592-3.279-2.592-6.407c0-0.177,0.011-0.476,0.031-0.894C213.522,181.57,213.553,181.06,213.594,180.456z"/>
	<path fill="#FFFFFF" d="M268.553,190.635h-8.664v-8.664h8.664V190.635z"/>
</g>
<path fill="#FFFFFF" d="M42.367,37.533c7.426,16.583,17.414,44.058,17.414,72.083c0,9.234-3.397,21.708-8.076,34.513h126.72V32.756
	c-26.601,0-50.256-12.097-61.75-19.108C105.881,21.585,82.451,34.504,42.367,37.533z"/>
<path fill="#0A4E1D" d="M247.532,144.129h17.632V26.962c-7.122-2.759-12.983-5.71-17.632-8.467V144.129z M204.163,144.129h17.632
	V23.111c-5.307,2.271-11.247,4.412-17.632,6.104V144.129z M308.533,36.981c-6.322-0.658-12.183-1.565-17.631-2.652v109.8h14.243
	c-4.679-12.805-8.076-25.279-8.076-34.513c0-20.906,5.558-41.499,11.464-57.499V36.981z"/>
<path d="M167.241,67.666c0-0.722-0.153-1.479-0.492-2.27c-0.847-1.982-2.368-3.11-4.279-3.176c-1.097-0.039-2.227,0.327-3.265,0.913
	c0.051-0.391,0.172-0.775,0.172-1.167c0-0.988-0.179-1.957-0.609-2.829c-1.679-3.403-5.698-3.162-7.415-3.06
	c-2.28,0.136-3.489,1.333-4.656,2.493l-0.825,0.795c-1.553,1.414-1.981,2.813-2.092,4.375c-1.597-1.196-3.38-1.371-5.435-1.373
	h-0.208c-2.252-0.002-5.655-0.005-7.004,2.716c-0.458,0.924-0.658,2.073-0.658,3.252c0,1.825,0.478,3.728,1.214,4.99
	c1.131,1.939,2.61,2.672,4.199,2.972c-1.523,1.156-2.819,2.534-3.357,3.27c-0.519,0.711-0.723,1.38-0.723,2.009
	c0,1.319,0.894,2.459,1.661,3.437c1.321,1.687,3.965,2.801,6.493,2.808l-0.04,0.054l-2.194,1.651
	c-1.167,0.763-2.355,1.569-3.19,2.763c-0.818-1.962-2.195-4.216-3.239-4.798c-1.424-0.797-3.257-0.883-4.668-0.218
	c-1.137,0.536-1.883,1.492-2.101,2.689c-0.4,2.205,1.463,4.823,3.487,6.444c1.224,0.978,2.449,1.558,3.562,1.719
	c-1.338,3.322-2.282,6.919-2.281,9.804c-0.732,1.081-1.303,2.323-1.676,3.676v-9.57c0-6.739-5.482-12.222-12.221-12.222
	c-0.334,0-0.665,0.021-0.996,0.048c-0.278-0.025-0.558-0.048-0.84-0.048c-2.81,0-5.439,1.296-7.406,3.647
	c-0.163,0.195-0.311,0.404-0.462,0.609c0.936-1.315,1.519-2.786,1.278-4.108c-0.218-1.197-0.964-2.153-2.101-2.689
	c-1.411-0.665-3.244-0.579-4.669,0.218c-1.042,0.583-2.42,2.836-3.238,4.798c-0.835-1.194-2.023-2-3.19-2.763l-2.194-1.651
	l-0.04-0.054c2.527-0.007,5.171-1.121,6.493-2.808c0.768-0.979,1.661-2.119,1.661-3.437c0-0.629-0.205-1.297-0.723-2.009
	c-0.538-0.736-1.834-2.114-3.357-3.27c1.589-0.3,3.068-1.033,4.199-2.972c0.736-1.262,1.214-3.165,1.214-4.99
	c0-1.179-0.199-2.329-0.658-3.252c-1.349-2.722-4.752-2.718-7.004-2.716h-0.208c-2.054,0.001-3.838,0.177-5.435,1.373
	c-0.111-1.562-0.54-2.961-2.092-4.375l-0.825-0.795c-1.168-1.16-2.376-2.357-4.657-2.493c-1.716-0.102-5.74-0.345-7.415,3.06
	c-0.431,0.872-0.609,1.84-0.609,2.829c0,0.392,0.121,0.776,0.172,1.167c-1.038-0.586-2.167-0.952-3.265-0.913
	c-1.911,0.066-3.432,1.194-4.28,3.176c-0.339,0.79-0.492,1.549-0.492,2.27c0,2.438,1.767,4.418,3.994,5.813
	c-1.489,1.18-2.435,3.108-2.451,4.771v0.089c0,4.28,3.003,5.236,5.823,5.794c1.09,0.216,2.243,0.273,3.351,0.239
	c-1.72,1.339-2.904,3.228-2.711,6.313l0.138,2.208l1.604-1.526c4.436-4.221,12.384-1.85,18.187-0.118l0.796,0.236
	c0.239,0.157,0.469,0.318,0.694,0.477c-0.141-0.016-0.279-0.037-0.426-0.046c-1.219-0.079-4.928-0.314-5.624,2.9
	c-0.697,3.224,3.217,5.88,5.511,6.398c2.032,0.461,3.967,0.175,5.692-0.232c0.351,1.135,0.588,2.227,0.717,3.272
	c-1.958-1.278-4.291-2.027-6.798-2.027c-0.478,0-0.947,0.032-1.411,0.086c-0.37-0.054-0.744-0.086-1.124-0.086
	c-5.486,0-9.948,5.599-9.948,12.483v29.417h2.064v-29.417c0-5.254,3.913-9.601,8.976-10.308c3.831,0.708,6.791,5.054,6.791,10.308
	v29.417h2.065v-29.417c0-3.937-1.463-7.447-3.739-9.736c3.935,1.489,6.744,5.285,6.744,9.736v29.417h2.065v-42.092
	c0-0.509,0.061-1.006,0.121-1.5c0.315-2.143,1.293-4.125,2.853-5.683c1.634-1.635,3.729-2.636,5.99-2.898
	c1.943,0.184,3.767,1.144,5.177,2.831c1.611,1.928,2.5,4.503,2.5,7.25v42.092h2.064v-42.092c0-3.152-1.013-6.123-2.848-8.401
	c2.686,1.83,4.455,4.911,4.455,8.401v42.092h3.638v-28.894c0-4.9,3.714-8.946,8.475-9.48c3.802,0.534,6.768,4.58,6.768,9.48v28.894
	h2.064v-28.894c0-3.162-1.063-6.03-2.779-8.124c2.731,1.682,4.561,4.689,4.561,8.124v28.894h2.065v-28.894
	c0-6.401-5.208-11.609-11.609-11.609c-0.354,0-0.702,0.021-1.048,0.053c-0.29-0.032-0.58-0.053-0.876-0.053
	c-1.927,0-3.722,0.686-5.232,1.855c0.235-1.439,0.626-2.97,1.147-4.509c1.752,0.418,3.611,0.699,5.623,0.245
	c2.294-0.52,6.208-3.176,5.511-6.4c-0.696-3.215-4.405-2.979-5.624-2.9c-0.147,0.009-0.285,0.03-0.426,0.046
	c0.225-0.159,0.456-0.32,0.694-0.477l0.796-0.236c5.804-1.731,13.751-4.103,18.188,0.118l1.604,1.526l0.138-2.208
	c0.193-3.085-0.991-4.974-2.711-6.313c1.109,0.034,2.261-0.023,3.35-0.239c2.821-0.558,5.824-1.514,5.824-5.794V78.25
	c-0.017-1.664-0.962-3.592-2.451-4.771C165.475,72.083,167.241,70.103,167.241,67.666z M86.259,68.924
	c0.887,0.918,1.22,2.223,0.879,3.805c-0.355,1.646-1.161,2.868-2.333,3.539c-1.24,0.708-2.822,0.772-4.574,0.188
	c-1.486-0.495-2.438-1.537-2.676-2.933c-0.04-0.229-0.058-0.461-0.058-0.693c0-1.449,0.743-2.927,2.009-3.912
	c1.843-1.433,4.344-1.671,6.084-0.579c0.025,0.016,0.04,0.041,0.064,0.057l-0.026,1.5L86.259,68.924z M74.562,88.439
	c0.469-1.646,1.732-2.665,3.653-3.604l0.47,0.443c1.59,0.938,5.989,1.221,8.249,0.478c0.44,0.536,0.97,0.994,1.586,1.344
	l-0.016,0.016l0.476,0.668l0.371,0.504C84.548,87.006,78.837,86.049,74.562,88.439z M88.112,84.112l-0.521-0.954l-0.925,0.57
	c-1.076,0.663-5.677,0.513-6.933-0.229l-0.38-0.409l-1.375-1.087c-0.001,0-1.758,0.172-1.758,0.172l-0.561,0.128
	c-1.136,0.107-2.458,0.036-3.626-0.195c-3.249-0.643-4.182-1.505-4.16-3.838c0.014-1.453,1.229-3.414,2.776-3.762l3.016-0.681
	l-2.821-1.267c-1.359-0.611-5.68-2.874-4.19-6.352c0.531-1.24,1.357-1.887,2.456-1.926c1.61-0.057,3.544,1.203,4.401,2.868
	c0,0,0.003,0.005,0.004,0.009l1.83-0.954c-0.001-0.003-0.003-0.009-0.003-0.009c-0.614-1.166-1.153-2.761-1.153-4.229
	c0-0.686,0.118-1.344,0.4-1.917c0.762-1.544,2.338-2.098,5.442-1.912c1.501,0.089,2.228,0.81,3.326,1.898l0.887,0.854
	c1.52,1.387,1.499,2.561,1.456,4.904l-0.005,0.293c-2.343-0.94-5.265-0.504-7.456,1.201c-2.062,1.603-3.128,4.187-2.718,6.582
	c0.369,2.15,1.848,3.806,4.058,4.542c2.292,0.763,4.512,0.638,6.25-0.354c1.695-0.969,2.846-2.661,3.327-4.898
	c0.523-2.429-0.12-4.618-1.733-6.026l0.166-0.255c1.36-2.091,2.584-2.445,5.573-2.445h0.211c1.948-0.004,4.372-0.005,5.152,1.567
	c0.821,1.656,0.411,4.739-0.49,6.285c-1.247,2.139-2.924,2.212-5.781,2.159c0,0-0.919-0.014-0.952-0.014l0.021,2.064
	c0,0,0.07,0.002,0.084,0.002c1.613,0.005,4.629,2.548,5.902,4.289c0.209,0.286,0.317,0.536,0.317,0.806
	c0,0.51-0.388,1.096-1.213,2.15c-1.012,1.292-3.384,2.175-5.397,2.011C90.058,85.672,88.775,85.324,88.112,84.112z M93.608,99.203
	c-1.607-0.365-4.319-2.237-3.949-3.95c0.158-0.73,0.694-1.455,3.476-1.277c1.499,0.096,2.537,0.708,3.668,2.139
	c0.517,0.994,0.974,1.964,1.352,2.906C96.72,99.346,95.155,99.553,93.608,99.203z M99.089,96.057
	c-0.229-0.473-0.471-0.949-0.731-1.433c0.111-1.197,2.06-4.88,2.857-5.333c0.849-0.474,1.966-0.535,2.781-0.15
	c0.533,0.25,0.852,0.652,0.95,1.192c0.202,1.108-1.004,3.068-2.746,4.46C101.025,95.736,99.863,96.183,99.089,96.057z
	 M103.181,102.037v5.815c-0.425-0.643-0.909-1.242-1.442-1.796c0.005-2.439-0.566-5.097-1.726-7.947
	c1.09-0.177,2.284-0.747,3.476-1.701c0.707-0.565,1.386-1.256,1.964-2.005C103.983,96.563,103.181,99.228,103.181,102.037z
	 M133.085,94.83c-0.029,0.038-0.06,0.068-0.089,0.107l0.026,0.02c-0.181,0.361-0.364,0.717-0.54,1.092
	c-0.77,0.163-1.962-0.286-3.175-1.254c-1.742-1.392-2.948-3.353-2.746-4.46c0.099-0.54,0.417-0.942,0.949-1.192
	c0.816-0.384,1.933-0.323,2.781,0.15c0.811,0.458,2.81,4.251,2.867,5.39C133.133,94.729,133.109,94.781,133.085,94.83z
	 M138.372,93.976c2.782-0.177,3.318,0.547,3.476,1.277c0.37,1.712-2.341,3.585-3.949,3.95c-1.526,0.345-2.988,0.156-4.451-0.179
	c0.423-1.06,0.886-2.073,1.364-3.033C135.903,94.658,136.923,94.068,138.372,93.976z M145.249,68.924l0.629,0.968l-0.026-1.498
	c0.025-0.016,0.04-0.041,0.064-0.057c1.74-1.092,4.242-0.854,6.083,0.579c1.266,0.985,2.009,2.463,2.009,3.912
	c0,0.232-0.019,0.464-0.058,0.693c-0.239,1.396-1.19,2.438-2.676,2.933c-1.752,0.584-3.334,0.52-4.574-0.188
	c-1.171-0.67-1.978-1.893-2.332-3.539C144.028,71.148,144.363,69.842,145.249,68.924z M156.946,88.439
	c-4.276-2.39-9.986-1.432-14.789-0.152c0.205-0.279,0.371-0.504,0.371-0.504l0.476-0.668l-0.016-0.016
	c0.616-0.35,1.146-0.808,1.586-1.344c2.26,0.743,6.657,0.461,8.248-0.476c0.001-0.002,0.238-0.225,0.47-0.445
	C155.215,85.774,156.477,86.793,156.946,88.439z M160.663,72.561l-2.822,1.267l3.017,0.681c1.547,0.349,2.762,2.309,2.776,3.762
	c0.022,2.333-0.91,3.195-4.16,3.838c-1.168,0.23-2.49,0.302-3.626,0.195l-0.561-0.128l-1.757-0.172
	c-0.001,0-1.375,1.087-1.375,1.087l-0.382,0.411c-1.253,0.74-5.854,0.89-6.93,0.227l-0.926-0.57l-0.522,0.954
	c-0.662,1.212-1.944,1.56-2.903,1.641c-2.013,0.165-4.385-0.718-5.398-2.011c-0.826-1.054-1.211-1.64-1.211-2.15
	c0-0.271,0.108-0.52,0.317-0.806c1.272-1.741,4.289-4.284,5.901-4.289c0.014,0,0.084-0.002,0.084-0.002l0.021-2.064
	c-0.032,0-0.952,0.014-0.952,0.014c-2.857,0.054-4.534-0.02-5.781-2.159c-0.9-1.546-1.312-4.629-0.49-6.285
	c0.78-1.573,3.204-1.571,5.152-1.567h0.21c2.989,0,4.213,0.354,5.573,2.445l0.167,0.257c-1.611,1.408-2.258,3.596-1.734,6.024
	c0.481,2.237,1.631,3.93,3.327,4.898c1.739,0.992,3.958,1.117,6.25,0.354c2.21-0.736,3.689-2.393,4.058-4.542
	c0.41-2.395-0.657-4.979-2.719-6.582c-2.19-1.705-5.112-2.141-7.455-1.201l-0.005-0.293c-0.043-2.341-0.064-3.517,1.456-4.904
	l0.887-0.854c1.098-1.088,1.825-1.809,3.326-1.898c3.104-0.186,4.68,0.368,5.442,1.912c0.282,0.574,0.4,1.231,0.4,1.917
	c0,1.467-0.539,3.063-1.153,4.229c0,0-0.003,0.005-0.003,0.009l1.83,0.954c0.002-0.003,0.004-0.009,0.004-0.009
	c0.857-1.666,2.791-2.925,4.401-2.868c1.099,0.039,1.925,0.686,2.456,1.926C166.342,69.687,162.022,71.949,160.663,72.561z"/>
<g>
	<path d="M117.108,277.075c0,33.811,27.506,61.317,61.316,61.317c33.811,0,61.317-27.507,61.317-61.317
		c0-33.812-27.507-61.319-61.317-61.319C144.615,215.756,117.108,243.264,117.108,277.075z"/>
	<circle fill="none" cx="178.425" cy="277.075" r="57.657"/>
	<path fill="#FFFFFF" d="M188.439,272.123v-23.825c-4.428-4.427-17.075-10.225-20.974-10.225c-12.123,0-20.449,6.536-22.242,8.33
		c-1.792,7.801-1.265,26.98-1.265,26.98s16.022,9.913,21.082,9.913C174.526,280.13,188.439,272.123,188.439,272.123z
		 M165.882,286.456v21.926c0,0,15.6,9.486,21.716,9.486c10.749,0,21.924-13.282,21.924-13.282v-20.658c0,0-10.54-0.422-18.554-8.436
		C178.745,284.137,165.882,286.456,165.882,286.456z M234.639,264.387c-2.25-10.011-7.111-19.004-13.816-26.297
		c-1.083-0.854-4.18-2.765-7.297,0.352c0,2.06,0,5.43,0,5.43s9.911,11.384,13.071,20.237
		C229.732,264.646,232.456,264.623,234.639,264.387z M235.321,268.127c-3.092,0.051-6.526-0.085-9.564-0.641
		c-1.689,8.641-5.906,13.701-12.862,15.811l0.42,21.709c0,0,3.798,3.376,7.381,3.376c3.576,0,4.003-3.544,8.264-3.553
		c4.532-8.233,7.123-17.687,7.123-27.754C236.082,274.024,235.777,271.053,235.321,268.127z M165.04,311.542
		c-8.433,3.166-18.341,2.952-18.341,2.952v10.701c9.104,6.016,19.999,9.538,31.727,9.538c1.914,0,3.807-0.103,5.674-0.288
		c0.064-0.047,3.5-2.549,3.5-11.939C187.599,320.816,180.323,321.77,165.04,311.542z M121.547,286.131
		c2.375,15.01,10.515,28.07,22.115,36.866v-10.821c0-2.319-5.817-6.957-15.938-23.191
		C124.115,288.224,121.944,286.474,121.547,286.131z M139.952,275.703c0,0-0.21-16.652,1.476-30.146
		c-1.433-1.431-10.942,0.322-11.512,0.431c-5.764,8.976-9.148,19.626-9.148,31.087c0,2.028,0.11,4.032,0.315,6.011
		c0.024,0.012,4.963,2.315,8.117,2.315C132.362,285.401,139.952,275.703,139.952,275.703z M168.834,226.161v9.065
		c5.145,1.406,15.811,4.851,20.238,9.277c0,0,11.384-2.742,20.659-2.742v-13.065c-7.584-4.916-16.377-8.113-25.853-9.003
		C178.809,219.78,168.834,226.161,168.834,226.161z"/>
</g>
</svg>
