<?xml version="1.0" encoding="UTF-8"?>
<!DOCTYPE svg PUBLIC "-//W3C//DTD SVG 1.1//EN" "http://www.w3.org/Graphics/SVG/1.1/DTD/svg11.dtd">
<!-- Creator: CorelDRAW -->
<svg xmlns="http://www.w3.org/2000/svg" xml:space="preserve" width="51mm" height="54.715mm" style="shape-rendering:geometricPrecision; text-rendering:geometricPrecision; image-rendering:optimizeQuality; fill-rule:evenodd; clip-rule:evenodd"
viewBox="0 0 51 54.715"
 xmlns:xlink="http://www.w3.org/1999/xlink">
 <defs>
  <style type="text/css">
   <![CDATA[
    .fil1 {fill:black;fill-rule:nonzero}
    .fil3 {fill:#ED232A;fill-rule:nonzero}
    .fil2 {fill:#FFCA0B;fill-rule:nonzero}
    .fil0 {fill:white;fill-rule:nonzero}
   ]]>
  </style>
 </defs>
 <g id="Ebene_x0020_1">
  <metadata id="CorelCorpID_0Corel-Layer"/>
  <path id="_125705176" class="fil0" d="M0.656 0.6469c0.0197,1.4997 0.2645,15.0238 4.6744,26.7154 5.6158,14.9161 18.9927,25.7058 20.1686,26.6369 1.1759,-0.9311 14.5533,-11.7208 20.1686,-26.6369 4.4098,-11.6916 4.6547,-25.2157 4.6744,-26.7154l-49.686 0z"/>
  <path id="_125705336" class="fil1" d="M0.7844 0.7842c0.0098,1.4898 0.2546,14.9452 4.6451,26.5781 5.5956,14.8376 18.8946,25.5686 20.0705,26.4997 1.1759,-0.9311 14.4749,-11.6621 20.0705,-26.4997 4.3905,-11.6329 4.6353,-25.0883 4.6451,-26.5781l-49.4312 0zm-0.2844 -0.1373l0 -0.1467 50 0 0 0.1467c0,0.0395 0,14.4456 -4.665,26.8136 -5.8799,15.5821 -20.2175,26.6561 -20.2566,26.6857l-0.0784 0.0687 -0.0784 -0.0687c-0.0391,-0.0296 -14.3767,-11.1036 -20.2566,-26.6857 -4.665,-12.368 -4.665,-26.7741 -4.665,-26.8136z"/>
  <path id="_125708488" class="fil2" d="M25.4989 48.2172c0,0 3.8316,-3.1654 7.6244,-8.781 3.4694,-5.1449 4.0475,-9.2807 4.0475,-9.2807l-23.3438 0c0,0 0.5879,4.1358 4.0573,9.2807 3.7829,5.6156 7.6146,8.781 7.6146,8.781z"/>
  <path id="_125708584" class="fil1" d="M25.4989 48.0418c0.5879,-0.5099 4.0573,-3.5774 7.5068,-8.6828 3.0578,-4.5376 3.8615,-8.2617 4.0081,-9.0654l-23.0298 0c0.147,0.8037 0.9502,4.5278 4.008,9.0654 3.4495,5.1054 6.9189,8.1729 7.5069,8.6828zm0.0883 0.2844l-0.0883 0.078 -0.0785 -0.078c-0.0193,-0.0103 -3.8515,-3.1756 -7.6536,-8.8201 -3.4892,-5.1651 -4.077,-9.3201 -4.077,-9.33l-0.0293 -0.157 23.6767 0 -0.0293 0.157c0,0.0099 -0.5878,4.1649 -4.077,9.33 -3.8021,5.6445 -7.6343,8.8098 -7.6437,8.8201z"/>
  <path id="_125708656" class="fil1" d="M21.8936 41.5444c0.3529,-0.1373 0.7448,-0.2552 0.9117,-0.2943 0.1663,-0.0295 0.431,-0.0981 0.5193,-0.1465 0.0884,-0.0494 0.539,-0.5396 0.7351,-0.7548 0.1959,-0.2256 0.4703,-0.5391 0.6467,-0.6862 0.1664,-0.1471 0.4018,-0.2745 0.539,-0.3135 0.1763,-0.0493 0.4408,-0.0394 0.4408,-0.0394 0,0 -0.1076,0.1865 -0.1861,0.3041 -0.0878,0.1272 -0.4705,0.6857 -0.5193,0.8134 -0.0489,0.1368 -0.157,0.392 0.2646,0.47 0.3722,0.0785 0.6076,-0.3623 0.7153,-0.47 0.1077,-0.108 0.5292,-0.6763 0.6862,-0.7937 0.1663,-0.1274 0.3036,-0.2647 0.5682,-0.3531 0.1861,-0.0685 0.4018,-0.0394 0.4018,-0.0394 0,0 -0.157,0.2158 -0.2839,0.4117 -0.1371,0.196 -0.6273,0.8526 -0.4705,1.0683 0.2647,0.3629 0.5486,0.0098 0.7347,-0.2059 0.1865,-0.2156 0.5099,-0.5291 0.6373,-0.6857 0.4309,-0.5296 1.0485,-0.4314 1.0485,-0.4314 0,0 -0.7054,0.8234 -0.6956,0.931 0.0292,0.2547 0.1565,0.4117 0.3915,0.4804 0.2255,0.0784 1.0292,0.1663 1.1566,0.1959 0.1175,0.039 0.196,0.2251 0.0884,0.2448 -0.1175,0.0297 -0.97,0.0786 -1.3328,0.1082 -0.3625,0.0192 -2.0971,0.1663 -2.9008,0.2543 -0.8037,0.0883 -2.0092,0.2551 -2.4698,0.3431 -0.4605,0.0883 -1.2641,0.3332 -1.4992,0.2748 -0.2354,-0.0592 -0.4705,-0.5587 -0.1277,-0.6861zm-1.3132 -3.2635c-0.5584,0.1664 -0.4113,0.7251 -0.3135,0.8031 0.0982,0.0889 0.2844,0.2454 0.6373,0.1767 0.3427,-0.0587 2.2831,-0.4902 4.1551,-0.696 1.558,-0.1762 3.263,-0.3229 4.0667,-0.3816 0.7938,-0.069 3.1263,-0.1373 3.2542,-0.1668 0.1367,-0.0198 0.1268,-0.2256 0.0681,-0.3037 -0.0681,-0.0789 -0.892,-0.0883 -1.0776,-0.1178 -0.1867,-0.0194 -0.7647,-0.0589 -0.8625,-0.2548 -0.0982,-0.196 0.4897,-0.8037 0.5193,-0.8723 0.0391,-0.0588 0.0781,-0.1762 0.0781,-0.1762 0,0 -0.3328,-0.0197 -0.5683,0.0686 -0.196,0.0785 -0.4996,0.2942 -1.0682,0.8229 -0.5682,0.5296 -0.7252,0.4018 -0.9405,0.2844 -0.2157,-0.1274 0.0094,-0.5683 0.1368,-0.7647 0.1373,-0.1955 0.3825,-0.4605 0.4315,-0.509 0.0488,-0.0493 0.0587,-0.2063 0.0587,-0.2063 0,0 -0.3722,-0.039 -0.931,0.2844 -0.2449,0.1371 -0.7351,0.6273 -1.0095,0.8915 -0.2646,0.2551 -0.4409,0.4022 -0.6861,0.3529 -0.1565,-0.0291 -0.1665,-0.2938 -0.088,-0.4996 0.0686,-0.1959 0.4705,-0.7448 0.5292,-0.853 0.0587,-0.117 0.088,-0.2933 0.088,-0.2933 0,0 -0.7154,-0.0202 -1.2836,0.6369 -0.2548,0.2937 -0.588,0.6077 -0.8624,0.8234 -0.2745,0.2251 -0.5781,0.2839 -0.8333,0.2349 -0.2449,-0.0493 0.0099,-0.4314 0.1279,-0.647 0.1273,-0.206 0.3821,-0.588 0.4605,-0.6957 0.0687,-0.1076 0.0687,-0.2941 0.0687,-0.2941 0,0 -0.6275,-0.0584 -1.4603,0.774 -0.2843,0.2843 -0.931,0.9902 -1.1467,1.1275 -0.2157,0.1273 -1.3817,0.3919 -1.5486,0.4507zm-1.8324 -3.1362c0.2842,-0.1762 0.7547,-0.2548 1.0386,-0.3233 0.2942,-0.0587 0.8431,-0.1861 1.0095,-0.3722 0.1668,-0.1964 0.5588,-0.8234 0.8915,-1.2253 0.7159,-0.8624 1.7348,-1.1271 1.7348,-1.1271 0,0 0.0883,0.1176 -0.039,0.3135 -0.0687,0.1176 -0.6369,0.8136 -0.784,1.6858 -0.0785,0.4508 0.7543,0.206 0.9602,0.0786 0.1373,-0.0883 0.5588,-0.6763 0.8629,-1.0391 0.7641,-0.9212 1.793,-1.2742 1.793,-1.2742 0,0 0.0197,0.157 -0.01,0.2257 -0.0191,0.0784 -0.9699,1.6171 -0.8821,1.8719 0.079,0.2448 0.5589,0.2938 1.0194,-0.0983 0.4512,-0.3919 1.0193,-1.0189 1.5388,-1.3422 0.6861,-0.4314 1.1466,-0.3628 1.1466,-0.3628 0,0 -0.0883,0.3529 -0.5883,0.8821 -0.2548,0.2839 -0.5095,0.7252 -0.1566,0.8921 0.3722,0.1856 0.9804,-0.0593 1.2545,-0.2356 0.2842,-0.1861 1.1269,-0.8722 1.4897,-1.117 1.0683,-0.7159 1.7737,-0.4414 1.7737,-0.4414 0,0 -0.2548,0.2063 -0.6368,0.5194 -0.8042,0.6373 -0.8821,1.1077 -0.8821,1.1077 0,0 0.7251,0.0785 1.1857,0.147 0.4803,0.0687 0.9602,0.1861 0.8723,0.3723 -0.0686,0.157 -1.0194,0.157 -1.7643,0.2059 -0.7548,0.0488 -4.8215,0.3135 -7.1145,0.6077 -3.4106,0.4215 -5.4978,1.0978 -5.6938,1.0875 -0.2063,-0.0099 -0.4216,-0.2647 -0.4019,-0.4508 0.0292,-0.1861 0.1274,-0.421 0.3822,-0.5879z"/>
  <path id="_125719016" class="fil1" d="M13.6317 27.089c-0.1081,-0.1861 -0.2449,-0.2938 -0.4704,-0.2938 -0.2448,0 -0.4508,0.1763 -0.4508,0.4212 0,0.2255 0.245,0.3332 0.4216,0.4215l0.1862 0.0785c0.3529,0.1564 0.6467,0.3332 0.6467,0.7642 0,0.4704 -0.3821,0.8332 -0.8526,0.8332 -0.431,0 -0.7548,-0.2745 -0.8431,-0.696l0.2942 -0.0878c0.0395,0.2739 0.2547,0.5093 0.5391,0.5093 0.2942,0 0.5587,-0.2251 0.5587,-0.5292 0,-0.3233 -0.2448,-0.4313 -0.5,-0.5489l-0.1664 -0.0685c-0.3135,-0.1467 -0.5879,-0.3037 -0.5879,-0.6857 0,-0.4217 0.3624,-0.6863 0.7641,-0.6863 0.3041,0 0.5589,0.1471 0.6962,0.4212l-0.2356 0.1471zm2.4989 2.1858l-0.3036 0 0 -2.4307 -0.6566 0 0 -0.2838 1.6172 0 0 0.2838 -0.657 0 0 2.4307zm2.2544 -1.1077c0,0.2059 0,0.4413 0.127,0.6077 0.118,0.1668 0.343,0.2645 0.549,0.2645 0.1861,0 0.4018,-0.0977 0.5291,-0.2453 0.1472,-0.1762 0.1373,-0.4113 0.1373,-0.6269l0 -1.6068 0.2941 0 0 1.6952c0,0.2937 -0.0197,0.5291 -0.2354,0.7542 -0.1861,0.1964 -0.4606,0.3041 -0.7251,0.3041 -0.2647,0 -0.5193,-0.0981 -0.7055,-0.2745 -0.2355,-0.2251 -0.2646,-0.4802 -0.2646,-0.7838l0 -1.6952 0.2941 0 0 1.6068zm3.8906 1.1077l-0.3041 0 0 -2.4307 -0.6566 0 0 -0.2838 1.6271 0 0 0.2838 -0.6664 0 0 2.4307zm2.6948 0l-0.3036 0 0 -2.4307 -0.657 0 0 -0.2838 1.6073 0 0 0.2838 -0.6467 0 0 2.4307zm4.4785 -1.3723c0.0098,0.3727 -0.0292,0.6763 -0.2844,0.9601 -0.2448,0.2844 -0.627,0.4512 -0.9992,0.4512 -0.7646,0 -1.4014,-0.6274 -1.4014,-1.3916 0,-0.7741 0.6368,-1.4015 1.4207,-1.4015 0.4704,0 0.8628,0.2059 1.1467,0.5781l-0.2157 0.2059c-0.235,-0.3135 -0.5385,-0.5095 -0.9404,-0.5095 -0.6175,0 -1.1072,0.5292 -1.1072,1.127 0,0.2838 0.1169,0.5584 0.3135,0.7642 0.2058,0.2059 0.4896,0.3529 0.774,0.3529 0.4704,0 0.97,-0.3529 0.97,-0.8525l-0.8037 0 0 -0.2843 1.1271 0zm1.8329 0.5978l-0.3332 0.7745 -0.3234 0 1.2446 -2.8424 1.2251 2.8424 -0.3332 0 -0.3238 -0.7745 -1.1561 0zm0.588 -1.362l-0.4705 1.0777 0.9211 0 -0.4506 -1.0777zm2.8221 2.1365l-0.3035 0 0 -2.7145 0.3919 0c0.5094,0 0.9898,0.1368 0.9898,0.7542 0,0.4019 -0.2548,0.7059 -0.6763,0.7351l0.8624 1.2252 -0.3722 0 -0.823 -1.196 -0.0691 0 0 1.196zm0 -1.4602l0.0884 0c0.3431,0 0.6861,-0.0686 0.6861,-0.4808 0,-0.4506 -0.3233,-0.4897 -0.6861,-0.4897l-0.0884 0 0 0.9705zm3.3223 1.4602l-0.3037 0 0 -2.4307 -0.6564 0 0 -0.2838 1.6171 0 0 0.2838 -0.657 0 0 2.4307z"/>
  <path id="_125824304" class="fil3" d="M35.1617 8.6838c0,0 -0.0781,0.0883 -0.0781,0.1767 0,0.0879 0.0879,0.1664 0.0879,0.1664 0,0 0.5879,0.696 1.2445,1.4504 0.7647,0.8821 1.3525,1.9212 1.3525,1.9212 0,0 0.4804,0 1.0979,-0.2063 1.3423,-0.4507 1.323,-1.7149 0.5386,-3.077 -0.5386,-0.9408 -1.362,-1.431 -2.0087,-1.3817 -1.3723,0.0978 -2.2346,0.9503 -2.2346,0.9503zm-6.2034 10.7413c0.2252,-0.4902 0.588,-0.9804 1.1759,-1.274 1.3037,-0.6666 3.7439,-0.1862 4.0084,-1.4997 0.0194,-0.088 0.0293,-0.1665 0.0293,-0.2548 -0.0293,-1.2446 -1.9307,-2.6164 -2.3716,-3.0281 -0.0099,-0.0098 -0.0099,-0.0098 -0.0197,-0.0197 -0.4408,-0.4211 -2.4792,-1.95 -2.0482,-5.4391 0.5979,-4.8802 5.0372,-4.351 5.0372,-4.351l0.0687 0.2251c0,0 -1.2643,0.4315 -1.6756,1.4701 -0.5587,1.4311 1.4697,3.1263 1.4697,3.1263 0,0 1.3822,-1.4997 3.0383,-2.4109 1.6464,-0.9114 4.2139,-2.3716 5.8406,1.0292 1.4408,3.0088 0.0394,4.116 -0.8921,4.5667 -0.3915,0.196 -0.666,0.3332 -0.666,0.3332 1.205,0.0686 2.5774,0.4117 3.2829,1.4701 0.4995,0.7449 0.7251,1.7835 0.6565,2.9303 0,0.0297 0,0.0687 0,0.0978 -0.1175,1.3817 -0.8229,2.4505 -1.744,3.0285 -0.0692,0.0489 -0.1373,0.0884 -0.2158,0.1274 -1.0485,0.5588 -3.4101,0.892 -4.2143,1.558 -1.362,1.1368 -1.362,2.6365 -1.362,2.6365 0,0 -2.0091,0.0489 -3.4299,-0.6077 -2.0284,-0.9309 -2.6361,-2.3423 -4.2143,-2.7634 -1.4696,-0.3919 -1.9204,0.627 -1.9204,0.627l-0.1964 -0.0884c0,0 0.0099,-0.735 0.3628,-1.4894zm11.5644 0c0.3133,-0.2842 0.8129,-1.5683 0.7152,-3.0285 -0.0295,-0.3919 -0.1081,-0.7938 -0.2354,-1.205 -0.3036,-0.9315 -0.627,-1.4997 -0.9602,-1.8231 -0.3332,-0.343 -0.6763,-0.4408 -0.9897,-0.4511 -0.8037,-0.0193 -1.0979,0.3726 -1.0979,0.3726 0,0 0,0.0297 0.0098,0.0785 0.0099,0.1763 0.0297,0.6078 0.0099,1.0584 -0.0197,0.5686 -0.2646,1.3917 -0.7548,1.9697 -0.0094,0.0099 -0.0192,0.0197 -0.0291,0.0394 -0.5193,0.5782 -1.4311,0.8427 -2.1069,1.0387l-1.2939 0.3629c0,0 0.9113,0.9112 2.7245,1.5875 0.5489,0.2058 1.1759,0.3821 1.8818,0.5193 0.9503,0.1669 1.6755,-0.1174 2.1267,-0.5193zm-16.1804 6.0369l0.2744 0.0192c0,0 0.2058,-0.7247 1.0195,-1.6365 0.8915,-0.9896 1.5584,-0.9211 1.9108,-1.8817 0.2449,-0.6857 0.3333,-1.8423 0.3431,-2.2343 0,-0.0389 0,-0.1471 0,-0.3036 0,-0.5879 -0.0098,-1.8719 -0.0296,-3.0285 -0.0094,-1.2346 -0.0291,-2.3419 -0.0291,-2.3419l1.2543 -0.1866c0.5095,-0.0785 1.3033,-0.235 1.3033,-0.235 0,0 0,-0.1373 -0.0099,-0.2256 0,-0.0094 -0.0098,-0.0291 -0.0098,-0.039 -0.0094,-0.0879 -0.039,-0.1762 -0.039,-0.1762 0,0 -1.5384,0.0681 -2.5186,-0.2255 -0.7643,-0.2355 -2.0581,-0.8428 -2.3716,-2.3128 -0.0883,-0.3728 0.1274,-1.3427 0.8916,-1.1468 0.9211,0.2354 1.7445,1.6464 1.7445,1.6464 0,0 0.2745,-1.1463 0.4413,-1.5877 0.1664,-0.4507 0.5781,-1.3328 0.5781,-1.3328 0,0 -0.3332,-0.4705 -1.3037,-0.9602 -1.0777,-0.539 -2.2733,-0.7646 -2.2733,-0.7646 0,0 -0.0297,0.9704 -0.6664,1.9015 -0.6274,0.9405 -1.715,1.5091 -1.715,1.5091 0,0 0.4409,0.8037 0.6368,1.4015 0.3332,1.0091 0.353,1.9795 0.353,1.9795 0,0 -0.2453,0.0292 -0.4314,0.0292 -0.1861,0 -0.5392,-0.0588 -0.5392,-0.0588 0,0 0.01,0.0394 0.01,0.0982 0.0099,0.0785 0.0197,0.2059 0.0296,0.3333 0.0193,0.2058 0.0686,0.4901 0.0686,0.4901 0,0 0.3233,0.0099 0.4606,0.0099 0.1466,0 0.5193,0.0094 0.5193,0.0094 0,0 0.0098,1.1172 0.0197,2.1854l0.0781 9.0654zm-18.0712 -4.3905c-0.0197,-1.8522 1.3037,-3.2241 3.2438,-3.1851 0.5588,0.0193 2.3227,0.2844 2.5675,-1.1073 0.2255,-1.235 -1.8423,-2.401 -2.5773,-3.1362 -1.0683,-1.0583 -2.0971,-2.3423 -2.4303,-3.8222 -0.3332,-1.4602 -0.1664,-3.2828 1.2055,-4.7726 1.3619,-1.4894 3.2635,-1.362 3.2635,-1.362l0.078 0.2152c0,0 -1.6365,1.0292 -1.3033,2.803 0.2355,1.2741 1.4213,1.5288 3.1653,3.1559 1.3724,1.284 1.9603,2.0284 2.2738,3.4985 0,0.0098 0,0.0098 0,0.0098 0.2647,1.2544 -0.2058,2.3424 -0.6955,3.0281 -0.0789,0.1175 -0.157,0.2157 -0.2453,0.3139 -0.549,0.6468 -1.9011,1.1369 -2.1658,1.2248 -0.2744,0.0884 -0.5879,0.2449 -0.5879,0.2449 0,0 1.1172,0.9507 3.2241,1.2449l0.0098 0c0.1861,0.0291 0.3723,0.0489 0.5687,0.0587 0.5879,0.0391 1.0875,0.0297 1.5091,-0.0587l0.0094 0c0.6373,-0.1372 1.1369,-0.4315 1.5979,-0.9804 0.3624,-0.4309 0.431,-1.3126 0.1175,-2.0481 -0.0098,-0.0094 -0.0098,-0.0193 -0.0197,-0.0291 -0.3332,-0.7548 -1.0095,-1.6172 -1.2346,-2.8128 -0.01,-0.0589 -0.0197,-0.1274 -0.0297,-0.1862 -0.0488,-0.5682 0.1471,-1.1467 0.4019,-1.5585 0.2938,-0.4506 1.8033,-1.8323 1.8033,-1.8323 0,0 -1.0782,0.0099 -2.1365,-0.6467 -0.6369,-0.4019 -1.7055,-1.1859 -1.9796,-1.3624 -0.2843,-0.1764 -0.7058,-0.3921 -1.0485,-0.4804 -0.343,-0.0879 -0.657,0.0395 -0.7252,0.0296 -0.069,-0.0099 -0.2058,-0.1372 -0.2058,-0.1372 0,0 0.6955,-0.5391 1.2054,-0.9508 0.5193,-0.4112 0.9504,-0.7839 1.7151,-1.4109 0.9309,-0.7449 1.4502,-0.8135 1.4502,-0.8135 0,0 0.2839,-0.0296 0.9114,0.5489 0.5094,0.4803 1.0875,1.4208 2.058,1.9011 1.1073,0.5391 2.2343,0.4117 2.2343,0.4117l0.0296 0.382c0,0 -1.5778,0.7549 -1.8917,1.9307 -0.3525,1.2939 0.0395,2.3424 0.3041,2.8913 0.1861,0.3623 0.3723,0.7251 0.539,1.0974 0.3234,0.7351 0.5293,1.48 0.3234,2.303 -0.0686,0.2744 -0.1278,0.5094 -0.2059,0.7251 -0.2745,0.7938 -0.6565,1.2643 -1.5781,2.0289 -0.3036,0.2449 -0.8522,0.5978 -1.4602,0.9996 -0.823,0.5489 -1.7539,1.1956 -2.2535,1.8127 -0.8724,1.0584 -0.9607,2.1953 -0.9607,2.1953 0,0 -0.4996,0.1471 -1.166,0.0394 -1.3626,-0.1959 -1.8329,-0.5193 -3.3617,-1.4701 -1.3621,-0.8425 -2.4008,-1.6072 -3.8709,-1.6462 -1.078,-0.0197 -1.4992,0.7054 -1.4992,0.7054l-0.1767 0.0099z"/>
 </g>
</svg>
