<?xml version="1.0" encoding="UTF-8"?>
<!DOCTYPE svg PUBLIC "-//W3C//DTD SVG 1.1//EN" "http://www.w3.org/Graphics/SVG/1.1/DTD/svg11.dtd">
<!-- Creator: Brennpeter -->
<svg xmlns="http://www.w3.org/2000/svg" xml:space="preserve" width="48.218mm" height="51mm" style="shape-rendering:geometricPrecision; text-rendering:geometricPrecision; image-rendering:optimizeQuality; fill-rule:evenodd; clip-rule:evenodd"
viewBox="0 0 48.218 51"
 xmlns:xlink="http://www.w3.org/1999/xlink">
 <defs>
  <style type="text/css">
   <![CDATA[
    .fil0 {fill:#005CA9;fill-rule:nonzero}
    .fil1 {fill:white;fill-rule:nonzero}
   ]]>
  </style>
 </defs>
 <g id="Ebene_x0020_1">
  <metadata id="Brennpeter-Layer"/>
  <g id="_39253544">
   <path id="_41072160" class="fil0" d="M47.718 6.5619c-0.5311,15.41 -6.5917,29.3251 -18.3959,39.4103l-0.1252 0.1428c-1.8404,1.4804 -3.5875,3.161 -5.5808,4.385 -9.0516,-6.0562 -16.7788,-15.7362 -20.0217,-25.7796 -1.9136,-5.8183 -2.9302,-11.9149 -3.0945,-18.2762l0.2465 -0.1432c10.4287,-5.5458 23.7773,-7.4429 35.4915,-4.2645 4.0154,1.0744 7.8681,2.5768 11.4801,4.5254z"/>
   <path id="_41072624" class="fil1" d="M46.5155 7.1908c-0.5636,16.3288 -8.2294,31.2461 -21.6107,40.82l-1.3049 0.9403c-2.0374,-1.1835 -3.8724,-2.872 -5.6695,-4.463 -10.7798,-9.759 -15.8163,-22.9973 -16.2004,-37.3634 9.8932,-5.0056 21.9736,-6.9869 33.1651,-4.207 4.0364,0.9766 7.9291,2.4206 11.6204,4.2731z"/>
   <path id="_41073448" class="fil0" d="M45.3923 7.7619c0.1256,2.1733 -0.2371,4.2813 -0.462,6.3715 -1.5387,10.563 -6.2119,20.0251 -13.9903,27.7218 -2.2419,2.1593 -4.8203,4.1384 -7.2913,5.9426l-0.3588 -0.1793c-12.8094,-8.7311 -19.8131,-22.8997 -20.2864,-37.8543l-0.0689 -2.0164c7.2169,-3.9477 15.4239,-5.9838 24.0651,-5.4702 6.5488,0.4059 12.8002,2.4703 18.3926,5.4843z"/>
   <path id="_41073312" class="fil1" d="M44.2476 8.4498l0.1632 0.0995c-0.6215,10.7521 -4.1373,20.7988 -11.0817,28.9762 -1.9163,-1.4552 -3.7283,-3.3591 -5.4049,-5.1827 -6.9885,-8.0424 -10.4323,-17.6977 -11.1447,-28.214 0.8857,-0.3592 1.8644,-0.4042 2.8443,-0.5074 8.7006,-0.9531 17.2058,0.8493 24.6238,4.8284z"/>
   <path id="_41091208" class="fil1" d="M17.0257 10.2561c0.0371,0.1181 0.0354,0.2352 -0.1021,0.2725 -0.391,-0.0054 -0.6681,0.2056 -0.8874,0.5157l-0.2998 0.4456 -4.2759 10.4072c-0.157,0.0367 -0.294,0.0541 -0.4303,-0.0062l-4.5819 -10.8259c-0.2878,-0.3754 -0.7157,-0.5579 -1.1059,-0.6413 0.0202,-0.0587 0.0029,-0.2152 0.0813,-0.2143l5.576 0.0008c0.0186,0.0784 0.0759,0.1771 -0.0033,0.2345 -0.4919,0.1887 -1.1927,-0.0557 -1.4549,0.5079l0.1054 0.8428c0.8506,2.1052 1.7207,4.2305 2.6498,6.318l0.1796 -0.2325 2.1295 -5.3306c0.1639,-0.5067 0.5831,-1.1071 0.2969,-1.6196 -0.3663,-0.3773 -0.8552,-0.4038 -1.3825,-0.4699l0.0034 -0.2349c1.1557,-0.0814 2.3483,-0.0252 3.5021,0.0302z"/>
   <path id="_69578152" class="fil0" d="M31.9871 10.6829c0.0322,0.4898 -0.0343,1.0366 0.0373,1.5268 0.239,-0.3098 0.6322,-0.4217 1.0025,-0.3383 0.2143,0.0619 0.427,0.2412 0.4431,0.4956l0.0318 1.8982c0.0173,0.1763 0.313,0.0046 0.2119,0.2379l-1.3306 0.0008c-0.0946,-0.2168 0.2165,-0.0756 0.1995,-0.2713l0.0062 -1.8194c-0.0371,-0.1177 -0.1541,-0.1784 -0.2514,-0.1797 -0.1574,0.0373 -0.3155,0.1719 -0.3568,0.3081 0.0111,0.5872 -0.076,1.212 0.0333,1.781 0.0579,0.0789 0.2152,0.0029 0.1545,0.1586l-1.3498 -0.019c-0.0174,-0.1569 0.2947,-0.0937 0.2588,-0.3097l0.0248 -3.1495c0.0025,-0.1565 -0.154,-0.1779 -0.2316,-0.2185l0.0214 -0.1168 1.0951 0.0152z"/>
   <path id="_41074016" class="fil0" d="M24.4081 11.2016c0.0942,0.256 0.0318,0.5097 -0.0888,0.7425 -0.1796,0.2515 -0.4554,0.3848 -0.7503,0.4588 0.1169,0.0603 0.2924,0.0825 0.4287,0.1433 0.273,0.0822 0.5041,0.32 0.6181,0.576 0.1123,0.3539 0.0095,0.6851 -0.2288,0.9357 -0.9088,0.6331 -2.215,0.3014 -3.351,0.3638l0.0018 -0.0978c0.1762,-0.0368 0.4892,-0.0322 0.4736,-0.3065l0.0429 -3.0321c-0.057,-0.1181 -0.1536,-0.1978 -0.2708,-0.2189 -0.0781,-0.0013 -0.2351,0.0359 -0.1941,-0.1008l0.0008 -0.0387c0.8407,0.0115 1.9378,-0.0703 2.8154,0.1181 0.1949,0.0809 0.427,0.2406 0.5025,0.4566z"/>
   <path id="_41074184" class="fil1" d="M23.2371 10.9897c0.1907,0.3548 0.1844,0.7851 0.023,1.1352 -0.1594,0.1933 -0.4141,0.2289 -0.6483,0.1863l0.0397 -1.4081c0.1775,-0.1148 0.4508,-0.0718 0.5856,0.0866z"/>
   <path id="_69427080" class="fil0" d="M41.1836 12.0457l0.1524 0.2957 0.0504 1.9568c-0.0028,0.1958 0.3134,-0.0148 0.2317,0.2384 -0.4307,0.0135 -0.9391,-0.0133 -1.3892,-0.0195 -0.0756,-0.197 0.2944,-0.0743 0.2392,-0.3097l0.0049 -1.7215c-0.0181,-0.0983 -0.0751,-0.2164 -0.2122,-0.2185 -0.1759,-0.0025 -0.3346,0.152 -0.4151,0.3072l-0.0243 1.7018c-0.003,0.2151 0.2935,0.0041 0.2316,0.2383l-1.3309 0.0201 0.0021 -0.1371c0.0971,0.0405 0.216,-0.0557 0.2172,-0.1532l0.0058 -1.7999c-0.0178,-0.1178 -0.1536,-0.1784 -0.2515,-0.1797 -0.1565,-0.002 -0.3155,0.152 -0.3758,0.2883l-0.0049 1.7215c0.0165,0.2152 0.2932,0.0041 0.192,0.2568l-1.3499 0.0009c-0.0388,-0.0401 -0.0181,-0.0983 -0.0178,-0.1375 0.2341,0.0425 0.2962,-0.1912 0.2797,-0.3874l0.0057 -1.7999c-0.038,-0.0785 -0.1351,-0.1387 -0.2329,-0.14l-0.0195 -0.0005 0.0018 -0.1172 1.1153 -0.0037c0.0181,0.0978 -0.0231,0.2341 0.0145,0.3522 0.2593,-0.3485 0.7114,-0.4989 1.1207,-0.3948 0.1953,0.0219 0.3489,0.2396 0.4253,0.3778 0.3576,-0.4058 0.8878,-0.5355 1.3337,-0.2357z"/>
   <path id="_41074992" class="fil0" d="M30.5754 12.3067c0.056,0.1766 -0.0062,0.4104 -0.2024,0.4666 -0.1181,0.057 -0.2742,0.0157 -0.3906,-0.0451 -0.3106,-0.18 0.0705,-0.8596 -0.479,-0.7106 -0.4167,0.3853 -0.2694,1.0327 -0.1784,1.5431 0.0751,0.1966 0.1895,0.4329 0.403,0.534 0.2919,0.1214 0.6066,0.0082 0.8047,-0.1846l0.0768 0.0991c-0.3187,0.4258 -0.8893,0.6524 -1.4353,0.5079 -0.4286,-0.1235 -0.7359,-0.5384 -0.8081,-0.97 -0.052,-0.4703 0.014,-0.9782 0.3316,-1.3061 0.358,-0.4059 0.9262,-0.4761 1.4139,-0.3518 0.1949,0.0611 0.3886,0.2011 0.4638,0.4175z"/>
   <path id="_41075176" class="fil0" d="M35.1391 11.9408l0.0095 2.113c0.0173,0.1371 0.1735,0.1788 0.2907,0.1801 0.1177,-0.0178 0.2358,-0.0748 0.3155,-0.1714 -0.0305,-0.607 0.0768,-1.2905 -0.0512,-1.8987 -0.0384,-0.0591 -0.0966,-0.0992 -0.1751,-0.0805 -0.0384,-0.0397 -0.0182,-0.0984 -0.0177,-0.1376l1.1352 -0.0033 -0.0113 2.1518c0.0186,0.0789 0.076,0.1772 0.1735,0.1983 0.0983,-0.038 0.097,0.0603 0.116,0.0995l-0.0595 0.0578c-0.3716,-0.0054 -0.7452,0.1069 -1.0785,0.1611 -0.0773,-0.0599 -0.0368,-0.1768 -0.0351,-0.294 -0.2754,0.1329 -0.5917,0.3435 -0.9622,0.26 -0.1954,-0.0222 -0.4087,-0.1428 -0.4649,-0.3195 -0.1479,-0.6281 -0.0401,-1.3309 -0.0505,-1.9966 0.043,-0.2535 -0.3311,-0.0826 -0.2493,-0.3362 0.3914,-0.014 0.7239,0.0105 1.1149,0.0162z"/>
   <path id="_41075968" class="fil0" d="M27.6401 12.3041c0.3271,0.4155 0.3568,1.0617 0.1351,1.5279 -0.2222,0.486 -0.7338,0.6941 -1.2038,0.7265 -0.5079,-0.0464 -1.0335,-0.2495 -1.2412,-0.7611 -0.2089,-0.453 -0.1416,-1.0778 0.1379,-1.4655 0.339,-0.4646 0.9865,-0.5922 1.4936,-0.4679 0.2733,0.043 0.5046,0.2812 0.6784,0.4401z"/>
   <path id="_41076144" class="fil1" d="M26.8792 12.1762c0.0879,0.6858 0.2142,1.4308 -0.0691,2.0923 -0.1382,0.1157 -0.3344,0.1322 -0.4893,0.0322 -0.3051,-0.5719 -0.1181,-1.352 -0.1089,-1.9969 0.0412,-0.1367 0.1609,-0.2916 0.3179,-0.3287 0.1375,-0.0368 0.2725,0.0825 0.3494,0.2011z"/>
   <path id="_41076424" class="fil1" d="M23.2912 12.6927c0.3481,0.2982 0.2625,0.8057 0.1787,1.1959 -0.0817,0.2531 -0.3369,0.308 -0.5723,0.3634 -0.1565,-0.0021 -0.3518,-0.0438 -0.3097,-0.2584l0.0206 -1.4474c0.2544,-0.0162 0.4889,0.0066 0.6827,0.1465z"/>
   <path id="_41076976" class="fil1" d="M18.8674 18.3623c0.17,0.4332 0.3187,0.9833 -0.0005,1.409 -0.299,0.387 -0.925,0.3783 -1.3338,0.2354 -0.175,-0.0611 -0.2903,-0.2193 -0.3464,-0.3965 -0.1496,-0.5103 0.0536,-1.0161 0.3332,-1.4229 0.0623,-0.2734 -0.2704,-0.2386 -0.4455,-0.3196 -0.3523,0.0145 -0.707,0.1858 -0.849,0.5356l-0.1665 0.702c0.0087,0.7635 -0.0024,1.546 0.0059,2.3479 0.5079,0.066 0.8807,-0.007 1.4085,0.0203 0.0359,0.2349 -0.0451,0.41 0.0103,0.6454 -0.3725,0.0536 -1.409,0.0193 -1.409,0.0193l-0.0433 16.9012 -2.2171 -2.3406 -0.0098 -14.4949 -0.88 -0.0322 -0.029 -0.7239 0.8804 -0.0074c0.0157,-1.115 -0.1008,-2.5449 0.8882,-3.3134 0.9502,-0.7689 2.4004,-0.9443 3.508,-0.4005 0.2713,0.18 0.524,0.3208 0.6954,0.6358z"/>
   <path id="_41077256" class="fil0" d="M36.6141 18.3396c0.0549,0.2553 0.0309,0.5678 -0.1867,0.7408 -0.1589,0.1541 -0.336,0.2301 -0.5133,0.306 0.3887,0.2206 0.8136,0.5984 0.7868,1.1068 -0.0059,0.4108 -0.1487,0.8196 -0.5035,1.01 -0.4336,0.2287 -0.9823,0.28 -1.4691,0.1165 -0.2722,-0.1021 -0.4646,-0.3589 -0.5588,-0.6146 -0.0744,-0.2749 0.0277,-0.5668 0.1285,-0.7808 0.1601,-0.2523 0.4158,-0.346 0.6714,-0.4406 -0.2717,-0.1602 -0.581,-0.3993 -0.6743,-0.7333 -0.0529,-0.4117 0.0124,-0.8805 0.3878,-1.1295 0.5912,-0.3047 1.629,-0.3679 1.9312,0.4187z"/>
   <path id="_41077944" class="fil0" d="M33.6335 20.1759c0.0967,0.0794 0.2156,-0.0165 0.3324,0.024l0.0302 0.6265 -0.3522 0.0149 -0.031 0.782 -0.8412 0.0078 -0.0086 -0.7828c-0.4497,-0.0261 -0.9585,-0.0137 -1.4082,-0.0397l0.0083 -0.5863 1.738 -2.5193c0.1954,0.0222 0.3717,-0.0141 0.567,0.0082l-0.0347 2.4647z"/>
   <path id="_41078064" class="fil0" d="M27.641 17.802c0.0396,1.3309 -0.1107,2.2873 0.0091,3.4828 0.1928,0.1982 0.4471,0.2019 0.7214,0.1862l-0.0021 0.1371c-0.7239,0.009 -1.6625,-0.0235 -2.504,-0.0162l0.0016 -0.1173c0.2552,-0.0548 0.5084,0.027 0.707,-0.1659l0.0825 -0.3316c-0.0062,-0.9196 0.1033,-1.7596 -0.0416,-2.5833 -0.2119,-0.2375 -0.47,0.0326 -0.7054,0.0685 -0.0185,-0.059 -0.057,-0.0987 -0.0367,-0.1569l1.6141 -0.6818c0.1178,-0.0376 0.1946,0.081 0.1541,0.1784z"/>
   <path id="_41078240" class="fil0" d="M30.866 18.0233c0.1537,0.2176 0.2275,0.5121 0.1454,0.785 -0.102,0.292 -0.4176,0.4638 -0.6925,0.5575 0.4654,0.2804 0.8906,0.6582 0.8036,1.283 -0.0455,0.4496 -0.3444,0.8366 -0.7966,0.9671 -0.4711,0.1305 -0.9014,0.1243 -1.3482,-0.1169 -0.2329,-0.1399 -0.3469,-0.3766 -0.4216,-0.6322 -0.0154,-0.2936 0.0466,-0.5079 0.1862,-0.7209 0.1594,-0.1938 0.3955,-0.2882 0.612,-0.3828 -0.3295,-0.2003 -0.7358,-0.5386 -0.6901,-1.0076 0.0435,-0.2927 0.1062,-0.5856 0.3242,-0.7779 0.5145,-0.4035 1.3949,-0.4105 1.8776,0.0457z"/>
   <path id="_40737088" class="fil1" d="M35.8522 18.2311c0.074,0.3142 0.1074,0.7255 -0.0921,0.9968 -0.2712,-0.18 -0.6017,-0.361 -0.7333,-0.7152 -0.0566,-0.1574 -0.0343,-0.3526 0.0653,-0.4683 0.118,-0.0573 0.1585,-0.1544 0.2955,-0.1524 0.2156,-0.0363 0.4089,0.1425 0.4646,0.3391z"/>
   <path id="_69527736" class="fil1" d="M30.2384 18.1323c0.1321,0.3341 0.1069,0.7451 -0.0541,1.0555 -0.2916,-0.1412 -0.6793,-0.3811 -0.7524,-0.754 -0.0752,-0.2164 0.0454,-0.4492 0.2424,-0.5443 0.2357,-0.0751 0.4889,0.0265 0.5641,0.2428z"/>
   <polygon id="_69527272" class="fil1" points="31.7551,20.1884 32.775,18.618 32.7531,20.183 "/>
   <path id="_69528032" class="fil1" d="M35.9311 20.9713c-0.0227,0.2147 -0.0648,0.4295 -0.2811,0.5244 -0.1773,0.0557 -0.2946,0.0546 -0.4697,-0.0065 -0.3658,-0.4163 -0.2782,-1.0803 -0.0565,-1.5465 0.3489,0.2394 0.8341,0.5203 0.8073,1.0286z"/>
   <path id="_69461744" class="fil1" d="M30.3189 20.7356c0.0562,0.196 -0.0057,0.4303 -0.0673,0.6053 -0.1194,0.1354 -0.3354,0.2105 -0.5108,0.1494 -0.1954,-0.0222 -0.2908,-0.1998 -0.3469,-0.3765 -0.1313,-0.3931 -0.0467,-0.842 0.1342,-1.1917 0.3102,0.2197 0.6987,0.4208 0.7908,0.8135z"/>
   <path id="_69527448" class="fil1" d="M23.8807 30.4857c-0.5702,0.207 -1.3704,0.0587 -1.6347,0.7789 -0.1884,0.8387 -0.0822,1.662 -0.1343,2.561 -0.0127,2.2893 -0.0454,4.5973 -0.0395,6.9452 0.7911,0.7742 2.0485,0.4204 2.9891,0.3163 1.4136,-0.3324 2.588,-1.7438 2.9984,-3.1077 0.138,-0.0765 0.2548,-0.0157 0.3918,-0.0335 -0.2135,1.2492 -0.4459,2.4785 -0.7374,3.7069 -0.1962,0.0562 -0.5088,0.0124 -0.7238,0.0092l-5.9282 -0.0252 -3.1887 -0.0253c-0.0384,-0.0595 -0.0174,-0.1568 -0.036,-0.2353 0.4724,-0.2086 1.2146,-0.1004 1.3805,-0.7632l0.133 -1.0938 -0.0005 -8.2954c-0.1875,-0.5703 -0.8135,-0.579 -1.3011,-0.6641 -0.0776,-0.0599 -0.0764,-0.1383 -0.0554,-0.2357 1.8801,-0.1297 4.0696,-0.0013 5.8703,-0.0538l0.0165 0.2155z"/>
  </g>
 </g>
</svg>
