<?xml version="1.0" encoding="UTF-8" standalone="no"?>
<!-- Created with Inkscape (http://www.inkscape.org/) -->

<svg
   xmlns:dc="http://purl.org/dc/elements/1.1/"
   xmlns:cc="http://creativecommons.org/ns#"
   xmlns:rdf="http://www.w3.org/1999/02/22-rdf-syntax-ns#"
   xmlns:svg="http://www.w3.org/2000/svg"
   xmlns="http://www.w3.org/2000/svg"
   xmlns:sodipodi="http://sodipodi.sourceforge.net/DTD/sodipodi-0.dtd"
   xmlns:inkscape="http://www.inkscape.org/namespaces/inkscape"
   id="svg2"
   version="1.1"
   inkscape:version="0.48.2 r9819"
   width="874"
   height="876"
   sodipodi:docname="Wahres Wappen.svg">
  <metadata
     id="metadata8">
    <rdf:RDF>
      <cc:Work
         rdf:about="">
        <dc:format>image/svg+xml</dc:format>
        <dc:type
           rdf:resource="http://purl.org/dc/dcmitype/StillImage" />
        <dc:title />
      </cc:Work>
    </rdf:RDF>
  </metadata>
  <defs
     id="defs6" />
  <sodipodi:namedview
     pagecolor="#ffffff"
     bordercolor="#666666"
     borderopacity="1"
     objecttolerance="10"
     gridtolerance="10"
     guidetolerance="10"
     inkscape:pageopacity="0"
     inkscape:pageshadow="2"
     inkscape:window-width="1440"
     inkscape:window-height="820"
     id="namedview4"
     showgrid="false"
     showguides="true"
     inkscape:guide-bbox="true"
     inkscape:zoom="0.3732132"
     inkscape:cx="634.11435"
     inkscape:cy="402.77652"
     inkscape:window-x="-8"
     inkscape:window-y="-8"
     inkscape:window-maximized="1"
     inkscape:current-layer="svg2" />
  <g
     id="g2984"
     transform="matrix(0.89017794,0,0,0.89017794,261.77946,21.965965)">
    <path
       sodipodi:nodetypes="ssssssssssssssssssss"
       inkscape:connector-curvature="0"
       id="path2995-7"
       d="m 181.44568,912.01864 c -5.53763,-1.3849 -33.53344,-13.63289 -55.66044,-24.35111 C 86.106688,868.44744 61.535003,853.18062 8.0369865,814.50847 -47.802299,774.14391 -87.033757,737.83979 -121.3198,694.80393 -167.7345,636.54417 -203.89698,585.21317 -230.57453,539.7219 c -13.79268,-23.51965 -30.34974,-57.97354 -36.15202,-75.22938 -2.36653,-7.03803 -2.38915,-7.46932 -0.78025,-14.87089 3.90524,-17.96562 31.7434,-73.83679 60.16321,-120.74754 36.67413,-60.53558 76.68422,-112.24534 124.388981,-160.76252 C -39.586758,124.00514 4.819098,88.486809 51.2448,60.7712 85.578133,40.274606 169.14732,2.8321196 184.66229,0.99460036 188.96253,0.48530003 191.52033,1.1605861 203.38888,5.9386194 227.54563,15.663641 236.92971,19.824438 254.31179,28.51723 361.03,81.887113 465.72822,173.60196 554.95007,291.87409 c 44.27063,58.68498 80.54382,122.51813 86.73401,152.63352 3.00104,14.60009 2.07626,20.09602 -7.7997,46.35284 -26.52725,70.52704 -70.68748,142.20736 -125.64384,203.94348 -53.15157,59.70869 -101.25332,100.70949 -168.42086,143.55798 -56.93218,36.31899 -98.3752,57.94917 -134.26858,70.07823 -11.8182,3.99361 -18.48701,4.98361 -24.10542,3.5785 z"
       style="fill:#ffffff;stroke:#ffffff;stroke-width:1.02172101;stroke-miterlimit:4;stroke-dasharray:none" />
    <path
       inkscape:connector-curvature="0"
       id="path2995"
       d="m 181.7877,885.35613 c -5.21334,-1.3038 -31.56963,-12.83452 -52.40081,-22.92504 -37.354876,-18.09452 -60.487571,-32.46727 -110.85261,-68.87467 -52.569181,-38.00071 -89.503141,-72.17877 -121.7813,-112.69433 -43.69653,-54.84791 -77.74125,-103.17282 -102.85648,-146 -12.98495,-22.14229 -28.57238,-54.57846 -34.03486,-70.82376 -2.22794,-6.62585 -2.24924,-7.03188 -0.73456,-14 3.67654,-16.91351 29.88442,-69.51271 56.6399,-113.67624 34.52638,-56.99046 72.19338,-105.67195 117.104419,-151.34784 C -26.300481,143.49081 15.50484,110.05252 59.211739,83.960012 91.534414,64.663752 170.20956,29.414 184.81594,27.68409 c 4.04841,-0.479474 6.45641,0.156265 17.6299,4.654484 22.74207,9.155498 31.5766,13.072628 47.94074,21.256348 100.4685,50.244398 199.03531,136.588188 283.03209,247.933988 41.67802,55.24823 75.82696,115.34314 81.65464,143.69489 2.82529,13.74507 1.95466,18.91914 -7.34293,43.63829 -24.97374,66.39678 -66.54784,133.87932 -118.2858,192 -50.03888,56.21199 -95.32366,94.81168 -158.55769,135.15084 -53.59808,34.19206 -92.61408,54.55552 -126.40544,65.97427 -11.12611,3.75973 -17.40437,4.69175 -22.69375,3.36893 z m 31.09919,-127.03159 c 78.11564,-7.00134 144.71575,-39.48918 194.29083,-94.77597 26.45582,-30.68214 46.36094,-59.23634 60.94221,-97.68648 28.95996,-78.68068 22.06834,-168.1304 -19.82199,-257.27937 -16.8957,-35.95659 -57.59225,-80.99174 -100.23186,-110.91741 -41.82059,-29.35087 -84.6523,-46.27314 -132.67919,-52.41989 -12.73567,-1.62998 -50.65686,-1.64175 -65,-0.0202 C 91.472474,151.88583 47.135349,167.51395 6.0089904,196.11611 -56.303851,239.45286 -100.19822,312.37653 -114.52349,396.36209 c -3.58635,21.02594 -4.58962,32.84202 -4.58962,54.05474 0,23.78729 1.70675,36.92043 7.96944,61.32332 16.030768,62.46479 41.277289,109.93248 79.509319,149.49084 26.7957206,27.7253 55.3743,48.08257 96.28727,68.58793 37.220961,18.65493 55.619141,24.59552 86.733971,28.0055 14.82082,1.62426 46.11802,1.87877 61.5,0.50012 z m -47.5,-27.01662 c -9.46082,-0.78216 -21.38668,-3.51451 -30.31873,-6.94636 -8.21761,-3.15735 -19.18127,-8.90843 -19.18127,-10.0617 0,-0.5704 0.64688,-2.28802 1.43751,-3.81694 8.26045,-15.97394 36.03897,-116.60229 44.47751,-161.12083 4.68347,-24.7082 5.27789,-41.85463 3.12007,-90 -1.3048,-29.11277 -1.3079,-55.15226 -0.007,-58.57396 1.37749,-3.62306 5.49167,-8.40537 9.69001,-11.26363 2.99493,-2.03897 20.34137,-10.49115 63.18504,-30.78739 6.27175,-2.9711 11.60996,-5.19522 11.8627,-4.94248 1.68627,1.68627 7.23413,38.95853 7.23413,48.60115 l 0,5.80095 -11.25,3.68678 c -16.19436,5.30711 -27.38198,10.84715 -29.84521,14.77916 -1.94521,3.10511 -1.98445,4.29007 -1.3311,40.19942 0.37026,20.35 1.0639,37.75092 1.54143,38.66872 0.47754,0.91779 2.18998,1.95902 3.80543,2.31383 2.78853,0.61246 5.64138,0.19846 19.57945,-2.84133 l 6,-1.30855 0.63807,9.08366 c 0.35094,4.99602 0.68844,15.65932 0.75,23.69622 l 0.11196,14.61255 -10.03806,2.13745 c -5.52093,1.1756 -12.27093,2.13745 -15,2.13745 -2.72907,0 -4.96194,0.27285 -4.96194,0.60634 0,0.99545 -9.69343,52.79297 -15.60635,83.39366 -7.14154,36.95904 -11.79906,59.08358 -15.05173,71.5 -1.44081,5.5 -3.06439,12.12534 -3.60795,14.72297 -0.97494,4.65911 -1.67737,5.30598 -6.73397,6.20132 -0.825,0.14608 -5.55,-0.0692 -10.5,-0.47846 z m 76.5,-59.55783 c 0,-0.75304 1.7402,-5.9859 3.86711,-11.62858 11.8642,-31.47572 19.08516,-59.85339 22.07672,-86.75942 3.51941,-31.65352 6.11242,-125.99118 4.20565,-153.00812 -3.27654,-46.42518 -18.09093,-116.57191 -38.31208,-181.40921 -2.21572,-7.10454 -4.23274,-13.44932 -4.48224,-14.09953 -0.56978,-1.48482 14.34292,-5.78651 28.14484,-8.1186 13.70778,-2.31618 40.78896,-2.35045 53.22356,-0.0674 39.62476,7.27546 70.83974,29.33868 95.82525,67.73072 24.06533,36.97813 33.18283,77.44515 26.23939,113.68455 -5.84367,24.65841 -21.47522,44.24889 -36.57046,62.22052 -5.37993,6.37172 -5.42749,6.48599 -4.99513,12 0.37992,4.84518 1.41554,7.12298 7.98693,17.56702 13.10224,20.82364 42.39695,68.81093 44.86941,73.5 1.85275,3.5138 2.36775,6.03409 2.3499,11.5 -0.0358,10.97025 -3.62852,16.77221 -21.20839,34.25 -7.88327,7.8375 -14.96248,14.25 -15.73157,14.25 -2.98824,0 -36.24142,-51.60655 -49.06418,-76.14408 -12.43552,-23.7965 -16.54831,-30.69441 -21.68206,-36.36481 l -4.32718,-4.77953 -1.73513,22.39421 c -2.77331,35.79334 -4.7433,69.642 -5.48829,94.30061 l -0.69205,22.90644 -24.5,7.90591 c -13.475,4.34825 -32.4875,10.52323 -42.25,13.72219 -12.85852,4.21344 -17.75,5.43896 -17.75,4.44711 z m 99.659,-238.25594 c 16.37141,-11.85939 25.22467,-36.57231 24.04966,-67.13206 -0.61611,-16.02365 -3.32119,-26.57188 -10.24217,-39.93836 -8.156,-15.7517 -18.25111,-25.30498 -34.62872,-32.77012 -12.60319,-5.74471 -13.53013,-4.82254 -8.68482,8.6401 8.66994,24.0893 17.92863,76.7959 21.4431,122.06838 0.64565,8.31702 1.65512,12 3.2891,12 0.44812,0 2.59636,-1.29057 4.77385,-2.86794 z M 8.3868904,664.19295 c -9.33898103,-4.85802 -28.5405614,-22.14439 -34.4835414,-31.04407 -6.26553,-9.38271 -6.08549,-10.1074 7.46012,-30.02721 3.83712,-5.64277 8.433421,-13.8706 10.2140206,-18.28406 5.1217,-12.6949 5.6305,-20.61468 5.03259,-78.33467 -0.58638,-56.60671 -0.16625,-52.79552 -8.7793506,-79.64085 -8.5284,-26.58136 -16.00586,-36.84283 -28.44384,-39.03409 -5.60124,-0.98679 -12.78908,-5.26649 -21.89637,-13.03725 -8.28242,-7.06695 -10.34216,-10.42536 -11.28706,-18.40354 -0.71995,-6.07884 0.84871,-10.79051 6.40778,-19.24653 10.00064,-15.21219 19.03676,-22.16063 28.77565,-22.12739 6.78455,0.0231 19.69691,6.16804 29.5000006,14.03881 13.2073608,10.60402 30.2532604,28.38075 39.9257294,41.63752 15.21254,20.84981 21.05954,57.10377 19.7977,122.75428 -0.30214,15.72 -0.16222,29.20821 0.31094,29.9738 1.36572,2.20979 4.86711,-1.76901 12.39203,-14.08163 18.61149,-30.45303 29.361605,-64.9684 32.720215,-105.05477 2.169142,-25.88954 -1.29621,-49.3852 -11.222065,-76.08743 -11.40721,-30.68736 -21.35834,-48.12662 -32.98123,-57.79929 -9.14059,-7.60688 -11.24631,-8.48131 -20.48972,-8.50867 -7.24724,-0.0214 -8.8472,0.35165 -16.109309,3.75663 -9.6711196,4.5345 -17.1449804,5.776 -19.6558804,3.2651 -0.98893,-0.98893 -1.68841,-3.25425 -1.68841,-5.46804 0,-11.5423 17.4962804,-28.79922 46.5538694,-45.91698 15.07045,-8.87798 28.71609,-11.97452 40.40812,-9.16965 6.90391,1.65622 18.571447,9.54086 24.821511,16.77377 13.52364,15.6503 28.78536,44.46952 35.87043,67.73535 9.78917,32.14549 13.59317,72.81956 10.33439,110.5 -3.38205,39.10593 -23.46981,84.15582 -67.999811,152.5 -25.47593,39.1002 -46.30958,75.72134 -57.43926,100.96601 -1.44664,3.28131 -3.35677,6.76881 -4.24474,7.75 -2.199159,2.43005 -8.743619,2.24746 -13.8045086,-0.38515 z"
       style="fill:#000000;stroke:none"
       sodipodi:nodetypes="sssssssssssssssssssssccssssssssssssssssssssssscssscsscsscssssssssssssscsssccsssssssscsscsssssssssssssssssssssssssssssssssssssssssss" />
  </g>
</svg>
